<svg xmlns="http://www.w3.org/2000/svg" viewBox="0 0 122.4 111.56"><defs><style>.cls-1,.cls-3,.cls-5{fill:none;stroke-linecap:round;stroke-linejoin:round;}.cls-1,.cls-3{stroke:#dad8cc;}.cls-2{fill:#fff;}.cls-3{stroke-width:0.3px;}.cls-4{fill:#e30613;}.cls-5{stroke:#b91919;stroke-width:0.67px;}.cls-6{fill:#c4c0b4;}.cls-7{fill:#00a0a4;}.cls-8{fill:#dad8cc;}.cls-9{fill:#007572;}.cls-10{fill:#1d1d1b;}.cls-11{fill:#f3a5c2;}.cls-12{fill:#008688;}</style></defs><g id="Capa_2" data-name="Capa 2"><g id="Capa_1-2" data-name="Capa 1"><path class="cls-1" d="M52.69,88.93c-1.49,2.61-1.83,5.7-2.24,8.68s-1,6.07-2.8,8.46-5.31,3.77-7.95,2.33c-1.74-1-2.7-2.84-3.79-4.5s-2.64-3.32-4.62-3.33c-2.43,0-4.06,2.34-5.73,4.1a15.7,15.7,0,0,1-14.22,4.51A7.41,7.41,0,0,1,7,106.9a3.76,3.76,0,0,1-.26-4.64c1.28-1.51,4-1.19,5.16.41a4.74,4.74,0,0,1-.3,5.54,7.79,7.79,0,0,1-5.13,2.72,23.12,23.12,0,0,1-5.93-.18"/><polygon class="cls-2" points="80.72 27.7 77.55 29.04 79.14 35.06 82.54 34.15 80.72 27.7"/><polygon class="cls-3" points="80.72 27.7 77.55 29.04 79.14 35.06 82.54 34.15 80.72 27.7"/><polygon class="cls-2" points="84.07 25.82 81.22 26.8 83.47 33.08 86.33 31.8 84.07 25.82"/><polygon class="cls-3" points="84.07 25.82 81.22 26.8 83.47 33.08 86.33 31.8 84.07 25.82"/><path class="cls-4" d="M119.6,35.06,105.48,49.51c.17,1.68,2.68,1,3.09-.31L122.4,36.8Z"/><path class="cls-2" d="M118.38,33.46c-.08,0-9.92,3.64-14,8.33-2.6,3-.92,8.37,2.41,8.15a1.94,1.94,0,0,0,1.48-1.37c6.54-6.07,13.95-12.88,13.95-12.88-.33-.13-2.75-1.72-3.83-2.23"/><path class="cls-3" d="M118.38,33.46c-.08,0-9.92,3.64-14,8.33-2.6,3-.92,8.37,2.41,8.15a1.94,1.94,0,0,0,1.48-1.37c6.54-6.07,13.95-12.88,13.95-12.88C121.88,35.56,119.46,34,118.38,33.46Z"/><path class="cls-2" d="M107.71,46.93,121,34.19c-.32-.13-1.44-.92-2.52-1.44"/><path class="cls-3" d="M107.71,46.93,121,34.19c-.32-.13-1.44-.92-2.52-1.44"/><path class="cls-2" d="M106.69,45.49l13-13.06c-.33-.12-1.72-1.12-2.8-1.63-.14-.07-14.87,12.83-15,12.78"/><path class="cls-3" d="M106.69,45.49l13-13.06c-.33-.12-1.72-1.12-2.8-1.63-.14-.07-14.87,12.83-15,12.78"/><path class="cls-4" d="M95.43,17.35c-1.79,2-9.76,10.26-11.34,12.59-2.88.86-.93,5.12-.61,6.24a5.4,5.4,0,0,0,2,2.52c2.21,1.5,20.31,12.14,20.91,11.74-2.53-2.67-4-8-.19-7.73,3.9-3.89,7.92-7.87,12.2-12.37-2.2-1.67-22.06-12.45-22.95-13"/><line class="cls-5" x1="84.85" y1="31.12" x2="103.36" y2="41.24"/><path class="cls-6" d="M63.3,9.26S53,19.43,52.64,19.13c-2.13-1.6-7.55-3.42-7.62-3.51a11.54,11.54,0,0,1-2.48-6.36C42.54,3.74,47.77,0,53.29,0s10,3.74,10,9.26"/><path class="cls-7" d="M78.24,53.21a34.73,34.73,0,0,0-4.53-6.35c-6.08,1.7-8.7,1.76-15,1.83a.75.75,0,0,0-.73.81l.58,6.19c.07.81,1.21.66,2,.63,5.77-.23,11.8-.85,17.67-3.11"/><path class="cls-8" d="M110.48,2.47C74.62,11.26,57.31,5.31,50.25,16a18.92,18.92,0,0,0-9.59-2.59c-7.79,0-12.77,6.42-12.77,13.77S33.19,39.54,41,39.54a14.6,14.6,0,0,0,7.73-2.19.52.52,0,0,1,.79.37c.36,2.43,2.3,3.52,2.61,7.77,0,0,12.57,12.43,22.44,9.19-.38-4.38.66-8.61,2.16-10.8,2-2.84,3.15-3.39,6.74-7A16,16,0,0,1,70.14,30c4.48,1.15,19.72-.61,40.77-20.46,1.64-1.55,1.59-7.53-.43-7"/><path class="cls-8" d="M80.46,79.58S49,80.45,49.08,81.32C49.43,85,51.3,96.07,65.27,94.79c17.3-1.58,15.19-15.21,15.19-15.21"/><path class="cls-9" d="M77.42,56.72c-.12-.58-3.71-1.09-3.83-1.56a40.25,40.25,0,0,0-3.85-4c-7-.6-17.21-6.44-17.46-6.62a333,333,0,0,0-4.64,38.74c11.26,2.55,21.86,1.11,34.08-1.87-.23-6.17-3-18.43-4.3-24.72"/><path class="cls-2" d="M69.05,17.09c1,2.65,0,5.44-2.66,6.41a5.11,5.11,0,0,1-3.5-9.61c2.65-1,5.19.55,6.16,3.2"/><path class="cls-10" d="M64.92,19.84a.87.87,0,0,1-.56,1.08.92.92,0,0,1-1.11-.6.86.86,0,0,1,.49-1.1.91.91,0,0,1,1.18.62"/><path class="cls-7" d="M66,57.17c1.49-2.51,2.15-3.61,3.71-6A75.39,75.39,0,0,1,51.93,44a.73.73,0,0,0-1,.35L48.38,50c-.33.74.74,1.17,1.46,1.53,5.14,2.63,10,4.75,16.19,5.64"/><path class="cls-11" d="M47.4,24.34c2.48,2.14,1.81,3.45-.07,4.92-2.13,1.66-5.39,3.2-7.76,2.66A4.44,4.44,0,0,1,36,27.62c-.57-7.58,7.24-6.87,11.4-3.28"/><path class="cls-8" d="M102.14,20.2c-3,3.22-.75,4.5,2.19,1.82-2.75,2.92-.11,4.46,1.71,1.49-1,2.82,1.94,3.06,3.54.73a1.21,1.21,0,0,0,.06-1.26c-1.24-2.29-3.3-3.49-6.39-3.32a1.66,1.66,0,0,0-1.11.54"/><path class="cls-8" d="M75.61,88.34a55.1,55.1,0,0,1,1.2,15.6c5-.88,5,3.31,1,1.73,3.4,1.43,2.19,3.8-2.09,1.24,2.87,2.31-.12,3-2.21.87a1.51,1.51,0,0,1-.45-1.14c.46-7.94.27-11.91-1.15-16.94-.06-.35,3.8-1,3.73-1.36"/><path class="cls-8" d="M59,90.25a67.19,67.19,0,0,1-.34,14.51c5.49.28,5.77,3.92,1,2.8,2,2.8-.35,3.94-1.74,1.63.51,2-2.36,2.15-2.95-.14.28-7.61.55-19.29.55-19.29Z"/><path class="cls-11" d="M103.23,3.79s9-2.31,10-1.36.58,3.83-1.31,6.38a12.5,12.5,0,0,1-4.27,4c0-.11-1-1.7-1.92-3.73-1.22-2.66-2.46-5.28-2.46-5.28"/><path class="cls-8" d="M82.7,52.64c2.89-2.33,5.69-4.9,7.28-7.6-1-6.55,2.22-6.55,2.9-1.4.76-4.09,3.79-4,3.57.37,2.78-2,3.58,3-2.15,4a76.75,76.75,0,0,1-9.11,10.31c-.11.11-2.49-5.64-2.49-5.64"/><path class="cls-12" d="M67.59,61.74c.79,1.5,5.22,3.12,9,1.2A32.2,32.2,0,0,1,81.76,61l-2.91-8.92s-6,2.56-8.87,3.49c-3.21,1-3.45,4.18-2.39,6.18"/><path class="cls-7" d="M78.46,51.54l2.92,9.89a.45.45,0,0,0,.68.23l3.4-1.37a.34.34,0,0,0,.11-.36,54.08,54.08,0,0,0-3-9c-.24-.53-.49-.7-1-.46Z"/></g></g></svg>