<svg xmlns="http://www.w3.org/2000/svg" viewBox="0 0 211.44 98.05"><defs><style>.cls-1{fill:#fff;}.cls-2{fill:none;stroke:#dad8cc;stroke-linecap:round;stroke-linejoin:round;stroke-width:0.97px;}</style></defs><g id="Capa_2" data-name="Capa 2"><g id="Capa_1-2" data-name="Capa 1"><path class="cls-1" d="M27.74,2.22C59-.23,145.38-.3,181.19,3.38c19.67,2,29.77,15.1,29.77,35.7,0,17.1-8.07,30.28-26.34,32.69-26.29,3.47-136.25,1.86-158.25-.93C8.51,68.58.48,56.69.48,39.26c0-13.33,0-34.9,27.26-37"/><path class="cls-2" d="M27.74,2.22C59-.23,145.38-.3,181.19,3.38c19.67,2,29.77,15.1,29.77,35.7,0,17.1-8.07,30.28-26.34,32.69-26.29,3.47-136.25,1.86-158.25-.93C8.51,68.58.48,56.69.48,39.26.48,25.93.48,4.36,27.74,2.22Z"/><path class="cls-1" d="M123.07,84.15a5.54,5.54,0,1,0,5.54-5.54,5.54,5.54,0,0,0-5.54,5.54"/><path class="cls-2" d="M123.07,84.15a5.54,5.54,0,1,0,5.54-5.54A5.54,5.54,0,0,0,123.07,84.15Z"/><path class="cls-1" d="M117.56,94a3.53,3.53,0,1,0,3.52-3.53A3.52,3.52,0,0,0,117.56,94"/><circle class="cls-2" cx="121.08" cy="94.04" r="3.53" transform="translate(26.82 214.94) rotate(-89.89)"/></g></g></svg>