<svg xmlns="http://www.w3.org/2000/svg" viewBox="0 0 108.57 136.17"><defs><style>.cls-1{fill:#daeff6;}.cls-2{fill:#2fac66;}.cls-3{fill:#c4c0b4;}.cls-4{fill:#fff;}.cls-5{fill:#1d1d1b;}.cls-6{fill:#dad8cc;}.cls-7{fill:#007572;}.cls-8{fill:#f3a5c2;}.cls-9{fill:#008688;}.cls-10{fill:#00a0a4;}.cls-11{fill:#e8e6db;}.cls-12,.cls-13{fill:none;}.cls-12{stroke:#1b8a4f;stroke-width:1.66px;}.cls-13{stroke:#dad8cc;stroke-linecap:round;stroke-linejoin:round;stroke-width:0.97px;}</style></defs><g id="Capa_2" data-name="Capa 2"><g id="Capa_1-2" data-name="Capa 1"><path class="cls-1" d="M97.5,126.55h-85C11.66,116.44,8.77,50.32,10.91,10H97.5c-1.45,41.56-1.45,75.44,0,116.53"/><path class="cls-2" d="M103.57,67.69a3,3,0,0,1-.34-3.12c11.23-24.9-9.48-44.95,2.37-52.78-2.65,0-3.78-.67-3.9-3.87a3.37,3.37,0,0,0-3.53-3.11c-2.83.22-5.76-2.16-4-4.61-9,12.21-24.2-7.8-36.32,4.14a2.22,2.22,0,0,1-3.07,0C41-8.88,19.17,13.38,14,1.16c-.76,1.85-1.07,5-3.73,4.75-4.36-.4-3.1,2-5,4.58C4.62,11.37,0,11.63,0,11.63,14.72,21-6.74,44.2,4,66.89a2.82,2.82,0,0,1-.23,2.79C-7.75,87,13,108,1,124.4c3.26-.11,5.06,1,4.55,4.57-.34,2.37,2.78,3.24,4.52,2.87,3.25-.69,5,1.13,6.28,3.71C21,125.73,40.63,140.65,53,132a4,4,0,0,1,4.34-.13c16.11,9.89,34-4.28,38.81,4.31.38-2.39.43-5.84,2.08-6,3.48-.45,5.55-2.33,5.46-5.48-.06-2,2.85-2.8,4.84-3.67-13.16-1.8,6.21-39-5-53.28M97.5,126.55h-85C11.66,116.44,8.77,50.32,10.91,10H97.5c-1.45,41.56-1.45,75.44,0,116.53"/><path class="cls-3" d="M55.75,96.35c-.2,0-6.86-1.58-6.91-1.3a6.07,6.07,0,0,0,.85,4.2L48,108c-.95,5.78,1.61,6,4.59,5.93.93,0,3.71-.32,3.71-.32l-.81-5.51s-2.14.73-2.72.2A28.69,28.69,0,0,1,54,99.77c2-1.61,2.1-3.53,1.77-3.42"/><path class="cls-4" d="M54.59,69.78a5,5,0,0,1-6.38,2.48c-2.15-.87-3.08-3.4-1.93-6a4.83,4.83,0,0,1,6-2.89,4.51,4.51,0,0,1,2.27,6.45"/><path class="cls-5" d="M50.63,67.66a.74.74,0,0,1-1,.33.7.7,0,0,1-.15-1c.23-.38.51-.51.79-.42a.74.74,0,0,1,.39,1"/><path class="cls-3" d="M59.91,66.84a8.4,8.4,0,0,1-2.29-6.22c0-6.1,5.65-12,11.75-12s10,4.94,10,11a20.25,20.25,0,0,1-3.72,10.41c-.28.35-15.45-3.48-15.74-3.24"/><path class="cls-6" d="M86.58,82.53s6.94.85,10.5-7.14c-.36-.23,0-10.53,0-10.94.1-6.15-6.69-7.7-9.4-7.91a11.17,11.17,0,0,0-12.4,10C70.61,63,63.36,63,60.27,64.45,50.72,68.84,38.19,74,17.09,82.1c-2.11.82-1.9.53-1.94,2.79-.06,3.43,12.11,5.53,44.81,13.2,0,0,1.76.52,2.8,3.49.43,1.24-.29,18.78,4.68,18s16.19-21.48,16-22S83,94,82.91,93.43c2.26-3.74,3.64-7.39,3.67-10.9"/><path class="cls-7" d="M84.39,97.41c-.09-.33-.85-1.37-.94-1.67s-6.1,2.48-10,6c-1.22,1.11-4,6.26-4.5,6.63L61.45,101c-2.38,11.47-4,17.56-5,25.74,1.76.08,34.7-.29,34.69,0-2.23-9.21-4.08-19.32-6.77-29.3"/><path class="cls-8" d="M81.31,67.07c2.84-2.47,5.86-1.79,8,.61s2.47,6.22-.73,8.2c-3.68,2.26-7.07,1.14-8.33-.34-2.06-2.43-1.73-6,1.11-8.47"/><path class="cls-4" d="M67.93,75.44a5,5,0,0,1-6.39,2.48c-2.15-.87-3.08-3.4-1.93-6a4.83,4.83,0,0,1,6-2.89,4.52,4.52,0,0,1,2.28,6.45"/><path class="cls-5" d="M65.1,74.88a.84.84,0,0,1-1.17.37.79.79,0,0,1-.17-1.09.88.88,0,0,1,1-.44c.32.1.62.48.34,1.16"/><path class="cls-9" d="M82.13,104.65l-7.25,7.6c2.05,2.09,1.22,5.36,3.3,8.45,3.92-4.26,7.28-4.65,7.95-10.36,0-3.57-1.25-8.54-4-5.69"/><path class="cls-7" d="M65.94,101.06l-10.7,4.81c.56,2.87.12,6.2.15,9.93,5.62-1.4,8.46-2.86,12.17-7.26,2-3,2.25-8.34-1.62-7.48"/><path class="cls-10" d="M61.21,99c-2.92,1.72-2.38,3.66.24,8.21l2.75-4.55Z"/><path class="cls-11" d="M77.32,114.41c-.65-.92-2.91-.16-3.21-.73-1.39-2.58-4.13-11-4.13-11,1.51-2.54.57-6.13-1-6-.94,0-1.1,1-.81,2.07-1.52-3.44-4.8-1.52-2.84,1.37,0,0-1.49-1.82-3-.42s3.22,4.56,3.22,4.56,3.77,11,5.42,14.18c1.34,2.54,3.48,2.07,7.7.55a7.73,7.73,0,0,0-1.36-4.65"/><path class="cls-5" d="M66.17,91.19c-3.31-5.7-13.51-5.6-15.55,2.23,0,0,5.74-1.51,7.7-1.83,1.69-.29,7.85-.4,7.85-.4"/><path class="cls-4" d="M61.45,93.1l-1.63-5.93a6.78,6.78,0,0,0-2.87,0,6.07,6.07,0,0,0-2.55,1L55,93.82l2.47-.24-.36-6,1.23,5.86Z"/><path class="cls-8" d="M25.27,78.93s-10.72,3.42-10.94,4.52S14.8,86,19.18,88a33.63,33.63,0,0,0,5.39,1.8,29,29,0,0,0,.6-3.79c.19-2.1.1-7.12.1-7.12"/><path class="cls-10" d="M57.37,104.65,57,115.6s-2.36.76-2.65.25-.42-9.54,0-10a11.64,11.64,0,0,1,3-1.17"/><path class="cls-10" d="M76.32,110.49a26,26,0,0,1,1.88,4.79c.67,2.9,1,5.38,1,5.38s-2,1.5-2.44,1.07c-.21-.21-.41-2.65-1.06-5C75,114.22,74,112.29,74.12,112c.25-.62,2.2-1.47,2.2-1.47"/><path class="cls-10" d="M75.63,108.13S89.26,98,83.43,93.81c0,0-2,2.45-7.87,6-1.91,1.14-2.29,1.61-2,2.4Z"/><path class="cls-12" d="M97.5,126.55h-85C11.66,116.44,8.77,50.32,10.91,10H97.5C96.05,51.58,96.05,85.46,97.5,126.55Z"/><path class="cls-4" d="M44.8,35.66a5.54,5.54,0,1,1-5.54-5.54,5.54,5.54,0,0,1,5.54,5.54"/><path class="cls-13" d="M44.8,35.66a5.54,5.54,0,1,1-5.54-5.54A5.54,5.54,0,0,1,44.8,35.66Z"/><path class="cls-4" d="M50.32,45.55A3.53,3.53,0,1,1,46.79,42a3.53,3.53,0,0,1,3.53,3.53"/><path class="cls-13" d="M50.32,45.55A3.53,3.53,0,1,1,46.79,42,3.53,3.53,0,0,1,50.32,45.55Z"/></g></g></svg>