<?xml version="1.0" encoding="utf-8"?>
<!-- Generator: Adobe Illustrator 26.2.1, SVG Export Plug-In . SVG Version: 6.00 Build 0)  -->
<svg version="1.1" id="Capa_1" xmlns="http://www.w3.org/2000/svg" xmlns:xlink="http://www.w3.org/1999/xlink" x="0px" y="0px"
	 viewBox="0 0 213.8 141.9" style="enable-background:new 0 0 213.8 141.9;" xml:space="preserve">
<style type="text/css">
	.st0{fill:none;stroke:#DAD8CC;stroke-width:0.32;stroke-linecap:round;}
	.st1{fill:#6C4665;}
	.st2{fill:#85557C;}
	.st3{fill:#814114;}
	.st4{fill:#A85318;}
	.st5{fill:#BB641C;}
	.st6{fill:#FDFEFE;}
	.st7{fill:#F3A5C2;}
	.st8{fill:none;stroke:#1D1D1B;stroke-width:0.67;stroke-linecap:round;}
	.st9{fill:#B780B1;}
	.st10{fill:#FFFFFF;}
	.st11{fill:none;stroke:#85557C;stroke-width:0.67;stroke-linecap:round;stroke-miterlimit:10;}
	.st12{fill:none;stroke:#B780B1;stroke-width:0.72;stroke-linecap:round;stroke-miterlimit:10;}
	.st13{fill:#1D1D1B;}
</style>
<g id="Capa_2_00000023992047288876376330000016588632883361645495_">
	<g id="Capa_1-2">
		<path class="st0" d="M148.2,47.1c0,0-4.6-4.2-0.9-8.5c1.9-1.8,4.8-2.1,7-0.8c1.2,0.7,2.3,2.4,2.3,5.5L148.2,47.1z"/>
		<path class="st1" d="M69.5,95.8c0,0-0.3,9-0.1,12.7c0,0.4,0.2,5.3-2.5,5.4s-4.2-1.6-4.5-8.3v-12L69.5,95.8z"/>
		<path class="st1" d="M36.2,90.6c0,0,0,11.1,0.2,15.8c0.2,3,0.9,8-2.5,8.4c0,0-3.8,0.5-4-5.5l0.5-11.2L36.2,90.6z"/>
		<path class="st2" d="M56.9,66.9c0,0-1.8-3.1-7.8-5.5c0.6,0.6,1.2,1.3,1.7,2.1c-2.6-0.9-5.2-1.7-7.8-2.3c0,0,2.1,2.7,2.3,3.1
			c0,0-6.6-3.1-13.3-1.6c0.6,0.3,1.2,0.8,1.6,1.4c0,0-6.4,0.9-8.4,2.1c0,0-6.1-8-10-12c0,0.8,0,1.6,0.1,2.5c0,0-2.1-4.2-3.6-4.8
			c0.3,0.4,0.4,0.9,0.3,1.4c0,0-6.1-4.9-7.5-5.6c-2.8-1.5-6.2-0.1-3.5,2.6c1.7,1.5,3.6,3,5.5,4.3c6,4.4,10.9,10.1,14.5,16.5
			c0,0-0.2,3.9,0,10.6c0,0,2.3,21.7,2.5,25.4c0.3,6.2-0.2,9.3,4.1,9.2c2,0,3.1-0.2,2.8-7.3c-0.2-4.8-1.8-16.2,9.6-16.4
			c0,0,15.7-2.3,17.1,11.2c0.7,6.7-0.4,10.9,4.2,11.1c4.9,0.2,3.1-4.7,3-15.2c0.1-2.3,0.6-4.5,1.6-6.5c0,0-12.4-13.9-7.7-25
			L56.9,66.9z"/>
		<path class="st3" d="M175.9,41.8c0,0,6.6-9.5,1.2-14.2c-3.8-3.4-12.5-4.3-15.4,2.3c-1.2,3.6-0.8,7.6,1.1,10.9L175.9,41.8z"/>
		<path class="st4" d="M196.7,104.4c0,0,12.4,2.5,14.7-5.7c0.2-0.7,0.4-1.4,0.4-2.1c0,0,0.7-1.8,1.9,0.2c0,0,1.4,8.6-6.5,12.2
			c-4.4,2-9.3,2.4-13.9,1.1L196.7,104.4z"/>
		<path class="st3" d="M153.5,74.4c0,0-0.5,18.9-0.5,25.3c0,1.7,0.2,6.1-1.6,6.7c0,0-5.2,0.8-4.3,4.1c0.3,1.1,2.4,1.2,3.5,0.1
			c0,0-0.7,2.4,1.6,2.5c0,0-0.4-3.7,3.2-3.8s2.8-3.2,2.8-3.2l-0.1-18L153.5,74.4z"/>
		<path class="st4" d="M162.3,84.5c0,0-1.2,19,0.4,26.9c0,0,1.9,4.8-1.9,4.2c0,0-1.8-0.4-1.4-1.8c-0.3,0.7-0.9,1.3-1.5,1.8
			c-0.9,0.6-4.4,0.9-3.7-1.4c0.1-0.6,0.5-1.1,1-1.4c-2,1.7-5.1,0.8-3.6-1.7c0.6-1.1,1.8-1.9,3.1-2c3.1-0.1,2.9-1.8,2.8-5.5
			l-0.9-21.1L162.3,84.5z"/>
		<path class="st4" d="M196.1,85.3c-0.6-4.5-6.4-14.8-12.1-19.1c-0.5-0.7-0.7-1.6-0.5-2.4c1.6-2.7,2.4-5.9,2.1-9
			c10.2,0.6,19.7-8,11.2-18.8c-2.8-3.7-15.8-8.2-19.4,5.9c0,0-13.7-11.3-51,16.7l2.1,11c0,0,19.6,0.9,24.2,4.8
			c0,0,2.7,10.6,4.8,15.2c2.4,5.4,5.2,10.7,8.3,15.8c1.3,2.2,3.2,4,5.3,5.4c-4.7,1.2-3.8,3.2-3.8,3.2c0.9,2.2,2.2,1.4,3,0.5
			c-0.1,0.7,0,1.3,0.3,1.9c1.9,1.4,3.5-1.5,3.5-1.5c-0.4,1.8,1,1.2,1,1.2c1.4-0.2,1.6-2.2,1.6-3c3.7,0.9,7.5,1,11.2,0.4
			C188,113.5,202.2,114.6,196.1,85.3"/>
		<path class="st5" d="M177.5,97.6c0.1,3.2,0.4,8.3,2.3,12.4c-2.9-0.2-5.8,0-8.7,0.7c-4.7,1.2-4.4,2.6-4.1,3.8
			c0.5,1.8,2.5,0.8,3.3,0c-0.2,0.7-0.1,1.4,0.3,1.9c1.6,1.8,3.5-1.5,3.5-1.5c-0.4,1.8,0.9,1.4,1.3,1.3c1.4-0.4,1.2-1.8,1.3-2.6
			c11.5,2.2,25.1,2.3,19.9-25.4c-3-1.4-6.2-2.2-9.6-2.3C183.7,85.9,177.1,88.2,177.5,97.6"/>
		<path class="st6" d="M173.3,50.3c0,3-2.3,6-5.2,6s-5.9-1.8-5.7-5.7c0.2-3,2.7-5.7,5.6-5.7C170.9,45,173.3,47.4,173.3,50.3
			C173.3,50.3,173.3,50.3,173.3,50.3"/>
		<path class="st7" d="M186.1,40c4.6-3.7,11.9,7,3,8.3c-1.5,0.2-6.5,0.3-6.4-1.5C182.8,44.1,184,41.6,186.1,40"/>
		<polygon class="st6" points="158.6,62.1 155.1,68.1 158.6,70.1 161.7,64.1 		"/>
		<polygon class="st6" points="164.5,66.7 162.6,72.2 159.2,70.5 161.9,64.5 		"/>
		<path class="st8" d="M157.2,61.4c3,1.5,8.7,6.2,8.7,6.2"/>
		<path class="st7" d="M126.5,58.6c0,0-6,4.7-7.5,6.6c0,0-2.9,3.5,2.3,4l3.6,0.3l3.7,0.1L126.5,58.6z"/>
		<path class="st9" d="M64,63.5c0,0,5.8-3.1,15.1-2.8c0,0,0.4-4.9,0.8-9.6c0.7-0.3,2.8-0.2,6.2,10.2c0,0,4.2,7.4,4.8,9.6
			c2.3,0.5,4.3,0.9,5.5,2.2c-1.7,0.2-3.3,0.7-4.9,1.4c1.9,0.2,3.7,0.8,5.4,1.9c0,0-3.5,0.3-4.4,1.2c2.2,0.1,3.1,1.9,3.6,2.1
			c0,0-2.8-0.2-4.4,1.1c0,0,0.2,11.8-12.6,15.8c0,0-14.7,4.8-21.1-7.6c-0.6-1.2-1-2.5-1.3-3.8c-0.6-0.9-1.6-1.2-2.6-0.9
			c-0.9,0.1-1.9,0.2-2.7,0.5l3.8-3.4c-1.8-0.2-3.5-0.1-5.2,0.4c0,0,2.1-3,5.1-3.8C53,77.1,51,76.9,49,77c0,0,3.5-2.4,7.2-2.3
			c0,0,0.1-4.7,1.3-7.1c0.1-0.3,0.3-0.6,0.6-0.8l-3-8.2c0,0-1.2-2.2,1.3-1.1C59.2,59.1,61.8,61.1,64,63.5"/>
		<path class="st10" d="M65.9,70.1c0,0-4.6-0.4-4.6,4.7c-0.1,2.1,1.4,4,3.5,4.4c2.1,0.5,4.1-0.9,4.6-2.9c0.1-0.2,0.1-0.5,0.1-0.7
			C69.5,75.6,70.5,71.6,65.9,70.1"/>
		<path class="st10" d="M85.6,68.6c0.7,0,4.8,3.1,2.4,7.2c-0.8,1.3-3.6,2.8-5.7,1c-1.2-1-2.6-2.8-1-6.1L85.6,68.6z"/>
		<line class="st11" x1="87.3" y1="67.6" x2="78.6" y2="71.7"/>
		<line class="st11" x1="62.8" y1="68.6" x2="71" y2="73"/>
		<path class="st7" d="M58.5,61.6l1.1,4.8c0.7-0.7,1.6-1.3,2.5-1.7L58.5,61.6z"/>
		<path class="st7" d="M81.6,56l2.3,4.8l-2.7-0.2C81.2,59.8,81.5,57.7,81.6,56"/>
		<line class="st12" x1="25.2" y1="114.7" x2="25.2" y2="112.1"/>
		<line class="st12" x1="28.9" y1="115" x2="28.9" y2="112.3"/>
		<line class="st12" x1="27.1" y1="115.3" x2="27.1" y2="112.4"/>
		<line class="st12" x1="59.4" y1="113.7" x2="59.4" y2="111.3"/>
		<line class="st12" x1="61.3" y1="114.2" x2="61.3" y2="111.4"/>
		<line class="st12" x1="63" y1="113.8" x2="63" y2="111.2"/>
		<path class="st13" d="M171.6,50.9c0,0.5-0.3,0.8-0.8,0.9c-0.4,0.1-0.7-0.2-0.8-0.6c0,0,0,0,0-0.1c0-0.6,0.4-1,0.8-1
			C171.2,50.1,171.6,50.5,171.6,50.9C171.6,50.9,171.6,50.9,171.6,50.9"/>
		<path class="st13" d="M87.3,72.9c0,0.4-0.3,0.8-0.7,0.8c-0.3,0-0.7-0.2-0.7-0.5c0,0,0,0,0-0.1c0-0.5,0.3-0.9,0.7-0.9
			C86.9,72.2,87.3,72.5,87.3,72.9C87.3,72.9,87.3,72.9,87.3,72.9"/>
		<path class="st13" d="M67.6,75.5c0,0.4-0.3,0.8-0.7,0.8c-0.3,0-0.7-0.2-0.7-0.6c0,0,0,0,0,0c0-0.5,0.3-0.9,0.7-0.9
			C67.3,74.8,67.6,75.1,67.6,75.5C67.6,75.5,67.6,75.5,67.6,75.5"/>
		<path class="st13" d="M152.7,41.8c0,0.4-0.3,0.7-0.7,0.8c-0.4-0.1-0.7-0.5-0.6-0.9c0.1-0.3,0.3-0.6,0.6-0.6
			C152.5,41.1,152.8,41.4,152.7,41.8"/>
		<path class="st11" d="M77,85.5c-0.2,0.7-0.4,1.4-0.8,2.1c-0.6,1.3-1.6,2.5-2.8,3.4"/>
		<path class="st10" d="M70.5,85.5c0,0,0.1,3.9,3,5c1.8,0.9,3.9,0.3,5-1.3c-0.4,2.6-2.9,4.3-5.5,3.9c0,0,0,0,0,0
			C73,93.1,67.5,92.1,70.5,85.5"/>
		<path class="st7" d="M74.5,80.8c1.2-0.4,2.5-0.5,3.7-0.3c0.8,0.1,2.8,0.6,2.2,1.7c-1.1,2.1-2.5,3.7-3.5,3.7
			c-0.7,0-2.1-1.9-2.8-3.2C73.9,82.3,73.1,81.2,74.5,80.8"/>
	</g>
</g>
</svg>
