<?xml version="1.0" encoding="utf-8"?>
<!-- Generator: Adobe Illustrator 26.2.1, SVG Export Plug-In . SVG Version: 6.00 Build 0)  -->
<svg version="1.1" id="Capa_1" xmlns="http://www.w3.org/2000/svg" xmlns:xlink="http://www.w3.org/1999/xlink" x="0px" y="0px"
	 viewBox="0 0 68.6 144" style="enable-background:new 0 0 68.6 144;" xml:space="preserve">
<style type="text/css">
	.st0{fill:#E0D6B9;}
	.st1{fill:#6F4714;}
	.st2{fill:#111419;}
	.st3{fill:#6EAA6F;}
	.st4{fill:#BF0811;}
	.st5{clip-path:url(#SVGID_00000000194811416495026210000010435301477951125686_);}
	.st6{fill:none;stroke:#FFFFFF;stroke-width:1.87;}
	.st7{fill:#EFE6CD;}
	.st8{fill:#211915;}
	.st9{fill:none;stroke:#211915;stroke-width:0.85;stroke-linecap:round;stroke-linejoin:round;}
	.st10{fill:#FFFFFF;}
	.st11{fill:none;stroke:#211915;stroke-width:0.73;stroke-linecap:round;}
</style>
<g id="Capa_2_00000166645679156476376890000008431748304451888814_">
	<g id="Capa_1-2">
		<path class="st0" d="M58.7,37.4c0.4,0.4,0.7,0.9,0.7,1.5c0,1.3-1.5,2.4-3.3,2.4c-0.1,0-0.3,0-0.4,0c0.1-1.9,0.1-3.8-0.1-5.7
			C56.7,36,57.7,36.7,58.7,37.4"/>
		<path class="st0" d="M14.8,41.5L14.8,41.5c-0.5,0.2-1,0.3-1.5,0.3c-1.6,0.1-2.9-1.2-3-2.8c0-0.1,0-0.2,0-0.4
			c0.3-1.4,1.5-2.4,3-2.4c0.4,0,0.7,0.1,1.1,0.2h0.1c0,1,0,2,0.1,3C14.6,40.2,14.7,40.9,14.8,41.5"/>
		<path class="st1" d="M9.8,35.7c-6.7,6.3,0.3-3.3,0.3-3.3c-9.6,9.1-1.3-3.6,1.3-5.7c0.9,0.2,1.8,0.3,2.6,0.3
			c-0.5,3.2-0.7,6.5-0.6,9.7h-0.1C12.7,38,5.6,43.5,9.8,35.7"/>
		<path class="st2" d="M47.5,129.1c5.8,0.8,7.3,2.8,7.3,4.8s-7.6,1.9-11.8,1.9c-1.3,0-2.6-0.7-2.7-1.6L39,118.3c0,0,4.7,1.4,8-0.6
			L47.5,129.1z"/>
		<path class="st3" d="M21.4,96.6l27.9-1.9c-1.6,7.6-2.3,15.4-2.2,23.1c-3.4,2-8,0.6-8,0.6L35,103.3c-2,4.6-3.4,9.3-4.4,14.2
			c-2.7,2.3-7.6,0.3-7.6,0.3l-2.4-21.3C20.8,96.6,21.1,96.6,21.4,96.6"/>
		<path class="st2" d="M30.6,117.5l0.1,15.9c0,1-4.3,2.4-8.6,2.4s-6.9-0.6-6.9-2.3s3.5-4,7.8-4h0.7L23,117.7
			C23,117.7,27.9,119.7,30.6,117.5"/>
		<path class="st4" d="M23,63.9L23,63.9c0.6,0.1,20.7-2.8,21.8-3.5l2.6,13.3l3.4,22.9c-15.7,3.5-31.1,1.1-32.1,0.7
			c1.4-5.9,1.5-10.7,2.2-15.7"/>
		<g>
			<defs>
				<path id="SVGID_1_" d="M23,63.9L23,63.9l-2.2,17.7c-0.6,5-0.8,9.8-2.2,15.7c1,0.5,16.4,2.8,32.1-0.7l-3.3-22.9l-2.6-13.3
					C43.7,61,23.6,64,23,63.9"/>
			</defs>
			<clipPath id="SVGID_00000183932400569707875980000012022948099286776245_">
				<use xlink:href="#SVGID_1_"  style="overflow:visible;"/>
			</clipPath>
			<g style="clip-path:url(#SVGID_00000183932400569707875980000012022948099286776245_);">
				<path class="st6" d="M54.4,63.1c-5.4,3.3-11.6,5.3-18,5.7c-7.1,0.2-14.2-1.2-20.6-4.3"/>
				<path class="st6" d="M58.8,66.9c-7.2,4.5-15.5,7-24,7.3c-6.2,0.3-12.4-1-18-3.8"/>
				<path class="st6" d="M58.3,74.1c-6.9,3.3-14.3,5.4-21.9,6c-8.3,0.4-16.6-1.1-24.2-4.3"/>
				<path class="st6" d="M58.8,81.9c-4.7,1.4-15.8,4.4-25.4,4.6c-5.9,0-11.7-0.6-17.4-1.8"/>
				<path class="st6" d="M56.9,88.8c-23,6.8-39.5,2.5-39.5,2.5"/>
			</g>
		</g>
		<path class="st1" d="M63.1,32.7c0.8-4-7.1-9.3-7.1-9.3c-0.9,0.2-0.7,1.4-1.8,1.4v0.6c0.6,2.3,1,4.6,1.3,6.9
			c0.1,1.2,0.3,2.3,0.4,3.4c1.7,5.8,3.9,4.3,4.1,1.1c0.1-1.5-1.9-3.7-1.9-3.7c0.5,0.4,2.8,3.1,3.3,2.6s0.2-2-2.1-5.3
			C59.9,30.8,62.8,34.4,63.1,32.7"/>
		<path class="st0" d="M55.6,32.3c-0.3-2.3-0.8-4.6-1.3-6.9v-0.6c-1.5,0.1-3.2-0.4-5.1-0.4c-2.3-0.3-7.4-1.4-8.5-1.5
			c-2.2-0.2-6.7,0.6-8.9,1c-1.2,0.2-3.4-1-4.4-0.6c-5.9,2.3-9.5,3.7-13.4,3.6c-0.5,3.5-1.5,13.2,0,20.1c1.1,5.1,4.3,11.3,10.3,14.9
			c5.4,3.2,14,3.3,20.8-0.3c7.7-4.1,10.6-11.8,10.9-18.5C56.1,41.6,55.8,33.4,55.6,32.3"/>
		<path class="st7" d="M52.6,59.8c0.1-0.6-1-0.8-1.5,0.1c-0.5,0.8-1.2,1.5-2.1,2c1-0.9,1.7-2.2,2-3.5c0.4-1.3-0.1-2.2-0.8-2
			s-1.4,2.4-3.4,4.3c0.6-0.7,0.9-1.7,1-2.6c0.8-3.2-1.5-2.3-1.9-1c-0.2,1.1-0.8,2.2-1.6,3c-0.4,0.5-1.9,1.7-2.1,2.6
			c-0.2,1.2-0.1,2.4,0.2,3.5c0.6,2.9,0.5,7.2,1,10.1c0.1,1.1,0.5,2.1,1,3c0.5,0.9,1.6,1.5,2.7,1.4c0.7-0.1,1.3-0.5,1.6-1.1
			c0.2-0.3,0.4-0.7,0.5-1.1c0.2-1.1,0.1-2.2-0.1-3.2l-1.3-7.3c-0.1-0.4,0-0.9,0.1-1.3c3.9-0.8,4.7-2.8,2.3-2.7
			C51.4,62.9,52.3,61.5,52.6,59.8"/>
		<path class="st2" d="M35.2,7.1c-17.9,0-16.7,24.9-30,15.3c1.1,3.6,3.2,5.5,6.2,6.2c0.9,0.2,1.8,0.3,2.6,0.3
			c3.9,0,8.8-1.4,14.7-3.7c1.1-0.4,2.2-0.8,3.4-1c2.2-0.4,4.4-0.5,6.6-0.2c1,0.1,2,0.3,3,0.6c2.5,0.8,5,1.4,7.5,1.9
			c1.7,0.3,3.4,0.4,5.1,0.4c1,0,2-0.2,3-0.4c3.5-0.9,5.5-3.4,5.5-8C51.9,30.5,53,7.1,35.2,7.1 M40.3,20.5c0,1.7-0.7,2.2-1.4,2
			s-1.2-1.1-0.3-2.2c-1.2-0.6-2.4-1.4-3.5-2.2l-0.1,0.1c-1.3,1.5-2.2,2.8-2.2,2.8c0.3,1.5-0.3,2.2-0.9,2.3c-0.8,0.2-1.8-0.6-1-1.6
			c-3.1-1-0.3-2.9,0.8-1.8c0.7-1,1.4-1.9,2.2-2.8l0,0c-0.8-0.7-1.5-1.6-2.1-2.5c-4.1,1.9-3.7-3.1,0-1.5c-0.9-3,3.1-2,1.2,0
			c0.7,0.9,1.5,1.8,2.3,2.6l0.1-0.1c1-1,2-1.9,3.1-2.7c-1.3-3.3,2.1-3.4,1.7-0.4c3.1,1,0.3,2.8-0.8,1.6c-1.1,0.6-2.2,1.5-3,2.5
			c1,0.8,2.1,1.5,3.3,1.9C42.6,17,42.6,20.7,40.3,20.5"/>
		<path class="st8" d="M36.6,54.4c1,2,0.3,3.9-1.8,3.9c-1,0-3.2-0.4-3.9-3.9C30.4,52.6,33.7,49,36.6,54.4"/>
		<path class="st2" d="M30.4,37.8c0,0.8-0.5,1.5-1.2,1.8l-8.2,2c-2.4,0.5-3.2,0-3.4-1.1l-1.3-6.8c-0.2-1.5,0.5-2.1,1.9-2.4l8.4-2
			c1.4-0.2,2.1,0,2.3,1.4L30.4,37.8z"/>
		<path class="st7" d="M27.5,58.7c-0.1-0.4-0.1-2.2-0.5-2.4c-1.1-0.4-1.7,1.4-1.4,4.6c-1.4-2.9-2.2-4.9-2.8-4.5
			c-1,0.1-1.1,1.4,0.4,4.4c-1.7-1.8-1.7-2.7-2.7-2.9c-0.1,0-0.2,0-0.4,0c-1.2,0.4,0.2,2.7,1.4,4.8c-2.5-0.9-3.5,0.7,1,2.9
			c-0.7,3.5-2.1,7-2.8,10.4c-0.3,1-0.3,2-0.2,3c0.2,0.9,0.8,1.6,1.6,2c0.1,0,0.2,0.1,0.3,0.1c1.1,0.1,2.1-0.2,2.9-1
			c0.5-0.8,0.8-1.7,1-2.6c0.6-2.4,1.6-9.6,1.8-12C27.9,63.4,28.1,61,27.5,58.7"/>
		<path class="st9" d="M17.1,38c-1.5,0.6-3,1.2-4.5,1.7"/>
		<path class="st9" d="M48.2,24.4L48.2,24.4c-5.9,2.9-13.5,6.6-19.9,9.3"/>
		<path class="st10" d="M45.3,31.1c2.8,0,5,2.2,5,5c0,2.7-1.5,5.7-5.3,5.7c-2.7,0-4.6-3-4.6-5.7C40.3,33.4,42.5,31.1,45.3,31.1
			C45.3,31.1,45.3,31.1,45.3,31.1"/>
		<path class="st8" d="M43.3,35.4c0.4,0,0.8,0.3,0.9,0.7c0,0.1,0,0.1,0,0.2c0,0.5-0.3,0.9-0.8,0.9c0,0,0,0,0,0
			c-0.7,0-0.8-0.5-0.8-0.9C42.5,35.8,42.8,35.4,43.3,35.4"/>
		<path class="st11" d="M33.1,47c-0.4,0.1-5.1,0-4.7-3.5c0.2-2.1,4.8-2.2,5.2-2.1"/>
	</g>
</g>
</svg>
