<?xml version="1.0" encoding="utf-8"?>
<!-- Generator: Adobe Illustrator 26.2.1, SVG Export Plug-In . SVG Version: 6.00 Build 0)  -->
<svg version="1.1" id="Capa_1" xmlns="http://www.w3.org/2000/svg" xmlns:xlink="http://www.w3.org/1999/xlink" x="0px" y="0px"
	 viewBox="0 0 213.5 188.8" style="enable-background:new 0 0 213.5 188.8;" xml:space="preserve">
<style type="text/css">
	.st0{fill:#BF0811;}
	.st1{fill:#C58021;}
	.st2{fill:#6F4714;}
	.st3{fill:#945B19;}
	.st4{fill:#6EAA6F;}
	.st5{fill:#EECA1A;}
	.st6{fill:#E0D6B9;}
	.st7{clip-path:url(#SVGID_00000005266832995548046820000001406335992742804657_);}
	.st8{fill:none;stroke:#FFFFFF;stroke-width:1.79;}
	.st9{clip-path:url(#SVGID_00000044158670368636669840000011370545678289397672_);}
	.st10{fill:#A1BD43;}
	.st11{fill:#111419;}
	.st12{fill:#727176;}
	.st13{fill:#DB9600;}
	.st14{fill:#FFFFFF;}
	.st15{fill:#211915;}
	.st16{fill:none;stroke:#211915;stroke-width:0.73;stroke-linecap:round;}
	.st17{fill:none;stroke:#211915;stroke-width:0.83;stroke-linecap:round;stroke-linejoin:round;}
	.st18{fill:none;stroke:#211915;stroke-width:0.6;stroke-linecap:round;}
	.st19{fill:none;stroke:#EECA1A;stroke-width:1.2;stroke-linecap:round;}
</style>
<g id="Capa_2_00000119112278692187812010000016707534136035154873_">
	<g id="Capa_1-2">
		<path class="st0" d="M23.4,2.2C52.2-0.6,90-0.5,125.2,1.4c18.2,1,25.2,12.6,25.2,31.6c0,15.8-5,29.4-22,30.6
			c-17.3,1.2-27,1.7-31.5,1.7c0.5,2.4,1.3,4.6,2.4,6.8c3.3,7.1,10.6,14.7,10.6,14.7s-8.6-0.5-17.5-11.1c-2.4-3.1-4.1-6.7-4.9-10.5
			c-21.2-0.3-54.2,1.6-69.9-2.4C1.4,58.5,0,39.3,0,29.9C0,17.5,3.9,4,23.4,2.2"/>
		<path class="st1" d="M75.4,125.6l-24.7,1.2c5.3,3.6,11.4,10.9,13,22.1l28.3-2.5v-0.3C90.3,132.5,84.3,127.9,75.4,125.6"/>
		<polygon class="st2" points="32.4,140.9 33.3,164.7 57.2,174.7 57.5,149.4 		"/>
		<path class="st3" d="M57.2,149.4c-1.5-14.6-9.1-21.8-15.7-22.1l-2,0.1c-4.7,0.8-7.3,5.5-7.2,13.5"/>
		<path class="st4" d="M38.5,151.9c-0.1,0.6,0.1,1.2,1.1,1.6l0.1-0.1c0.2-0.3,0.6-0.5,1-0.3c0.3,0.1,0.5,0.5,0.4,0.9
			c1.1,0.1,1.7-0.2,1.8-0.8s-0.6-1.6-1.9-1.9S38.7,151.1,38.5,151.9"/>
		<path class="st5" d="M39.6,153.5c-0.6,1.2-0.9,2.5-0.9,3.8c0.1,3.5,2.5,5.4,5.4,5.3s5.1-2.2,4.9-5.7c0-0.3,0-0.7-0.1-1
			c0-0.2-0.1-0.4-0.1-0.6c-0.1-0.5-0.6-0.8-1.1-0.8c-0.4,0-0.7,0.4-0.7,0.8c0,0,0,0.1,0,0.1v0.2c0,0.1,0,0.3,0,0.4
			c0.2,1.8-1,3.4-2.8,3.7c-1.8,0.2-3.4-1-3.7-2.8c0-0.2,0-0.4,0-0.6c0-0.8,0.2-1.6,0.6-2.3v-0.1c0.1-0.3-0.1-0.7-0.4-0.9
			c-0.4-0.1-0.8,0-1,0.3L39.6,153.5"/>
		<path class="st4" d="M50.9,126.8l-9.3,0.5c6.6,0.4,14.2,7.6,15.7,22.1l6.4-0.5C62.1,137.6,56.6,129.9,50.9,126.8"/>
		<path class="st4" d="M45.6,153.8c-0.2,0.6,0.3,1.4,1.4,1.8v-0.2c0,0,0-0.1,0-0.1c0-0.4,0.3-0.8,0.7-0.8c0.5-0.1,1,0.3,1.1,0.8
			c0,0.2,0.1,0.4,0.1,0.6c0.7-0.1,1-0.3,1.1-0.8c0.2-0.7-0.6-1.6-2-2S45.8,153.1,45.6,153.8"/>
		<path class="st5" d="M50.9,129.9c0,0.4,0.3,0.6,0.7,0.6s0.7-0.3,0.7-0.6s-0.3-0.7-0.7-0.7S50.9,129.5,50.9,129.9L50.9,129.9"/>
		<polygon class="st3" points="57.2,149.4 57.2,174.7 98,165 98.3,144.2 		"/>
		<path class="st5" d="M54.6,134.1c0,0.5,0.4,0.8,0.8,0.9c0.5,0,0.8-0.4,0.8-0.8c0,0,0,0,0,0c0-0.5-0.3-0.8-0.8-0.8c0,0,0,0,0,0
			C55,133.3,54.6,133.7,54.6,134.1C54.6,134.1,54.6,134.1,54.6,134.1"/>
		<path class="st5" d="M57.9,140.1c0,0.6,0.4,1,0.9,1c0.6,0,1-0.4,1-0.9s-0.4-1-0.9-1c0,0,0,0,0,0C58.4,139.1,57.9,139.5,57.9,140.1
			"/>
		<path class="st5" d="M59.4,145.9c0,0.7,0.5,1.2,1.2,1.2c0.7,0,1.2-0.5,1.2-1.2c0-0.7-0.5-1.2-1.2-1.2
			C60,144.7,59.5,145.2,59.4,145.9C59.4,145.8,59.4,145.8,59.4,145.9"/>
		<path class="st4" d="M75.5,144.6L75.5,144.6c-1.7,0.1-3,1.7-2.9,3.4c0,0.1,0,0.2,0,0.3l3.4-0.5c0.1,2.9,0.4,5.7,0.9,8.6
			c0.2,1,5.6,0.3,5.5-0.7l-0.9-8.4l3.5-0.6c-0.2-2.4-1.3-2.9-3.4-2.6l0,0c-0.1-1.7-1.5-3-3.2-2.9c-1.7,0.1-3,1.5-2.9,3.2
			C75.5,144.4,75.5,144.5,75.5,144.6"/>
		<path class="st4" d="M82.2,125.2l-6.8,0.3c9.1,4.3,13.8,8.6,16,19.5l6.9-0.9C96.3,133.3,90.6,128.5,82.2,125.2"/>
		<path class="st2" d="M78.8,154.5l1.6-0.2l-0.6-2.9c0.3-0.1,0.5-0.5,0.5-0.8c-0.1-0.5-0.6-0.8-1.1-0.7c-0.4,0.1-0.8,0.5-0.7,0.9
			c0,0.3,0.2,0.5,0.5,0.6C78.9,152.4,78.8,153.5,78.8,154.5"/>
		<path class="st5" d="M83.2,127.2c-0.4,0-0.6,0.4-0.6,0.7c0,0.4,0.4,0.6,0.7,0.6c0.4,0,0.6-0.4,0.6-0.7
			C83.9,127.5,83.6,127.2,83.2,127.2"/>
		<path class="st5" d="M88.4,130.8c-0.5,0-0.8,0.5-0.8,0.9c0,0.5,0.5,0.8,0.9,0.8c0.5,0,0.8-0.5,0.8-0.9c0,0,0,0,0,0
			C89.3,131.1,88.8,130.8,88.4,130.8"/>
		<path class="st5" d="M91.9,135.3c-0.5,0.1-0.9,0.5-0.8,1c0.1,0.5,0.5,0.9,1,0.9c0.5-0.2,0.7-0.8,0.5-1.3
			C92.4,135.5,92.2,135.3,91.9,135.3"/>
		<path class="st5" d="M94.2,140.9c-0.6,0.1-1.1,0.6-1.1,1.3c0.1,0.6,0.6,1.1,1.3,1.1s1.1-0.6,1.1-1.3c0,0,0,0,0-0.1
			C95.4,141.3,94.8,140.8,94.2,140.9"/>
		<path class="st4" d="M195.7,58.4c-0.5,0.7-1.2,1.4-1.9,1.9l0,0c-2,1.5-4.4,2.4-6.9,2.5c-0.4,0-0.8,0.1-1.2,0
			c-0.8,0-1.6-0.1-2.4-0.2c-4.8-0.8-8.3-4.1-8.3-9.6c0-1.7,0.5-3.4,1.4-4.8c1.2-1.1,2.2-2.5,3-4c0.7-1.4,1-3,0.8-4.5
			c-0.3-2.3-1.3-4.4-2.8-6.1c5.5-6.6,17.7-3.1,13.8,8.3C191.1,41.8,200.9,48.4,195.7,58.4"/>
		<path class="st6" d="M140.2,136.7c0.4-0.7,5.3-2.9,11.4-8.5l-4.4-2.1c-2.9,2.9-6.2,5.3-9.9,7c0,0-1-0.2-1.5-0.3
			c-1.6-0.2-2.3,0-2.5,0.6c-0.3,0.8,1.5,1.5,1.9,1.6c-1.6,0.7-3.1,0.6-3.5,1.2c-0.2,0.2-0.2,0.5-0.1,0.8c0.2,0.6,1.9,0.9,2.9,0.6
			c0.2-0.1,0.4-0.1,0.6-0.2l0,0c-0.2,0.1-0.2,0.2-0.7,0.6c-0.7,0.5-1.9,1.1-1.5,1.8s0.6,1.1,2.1,0.2c0.1-0.1,0.5-0.3,1.2-0.8
			c-0.8,1.1-1.2,1.5-0.6,2.3S139,138.9,140.2,136.7"/>
		<path class="st0" d="M152.2,128.7l3.6-17.7l-1.1-0.5c0,0-4.6,8.3-5.6,9.9c-1.3,2.1-3.1,5.2-3.1,5.2L152.2,128.7z"/>
		<g>
			<defs>
				<path id="SVGID_1_" d="M149.1,120.3c-1.3,2.1-3.1,5.2-3.1,5.2l6.2,3.2l3.6-17.7l-1.1-0.5C154.7,110.5,150.1,118.8,149.1,120.3"
					/>
			</defs>
			<clipPath id="SVGID_00000138568976541453836670000017964648511599721372_">
				<use xlink:href="#SVGID_1_"  style="overflow:visible;"/>
			</clipPath>
			<g style="clip-path:url(#SVGID_00000138568976541453836670000017964648511599721372_);">
				<path class="st8" d="M183.4,110.8c0,0-7.9,4.7-16.9,5.1c-5.9,0.3-11.8-1.2-16.8-4.5"/>
				<path class="st8" d="M186.7,116c-7.1,3.8-15.1,5.8-23.2,5.7c-9.8-0.3-14.8-4.7-14.8-4.7"/>
				<path class="st8" d="M185.9,123.2c0,0-10.7,4.7-21.2,4.5c-7.3-0.1-14.3-2.7-20-7.3"/>
			</g>
		</g>
		<path class="st6" d="M184,142.6c-0.6-0.6-1.1-1.3-1.4-2.1c-0.3-1.1-0.5-2.3-0.6-3.5c-0.4-2.4-0.4-6.7-0.9-9l-3.9,1.6
			c0.3,2,1.2,12.4,1.2,12.9c0,0-0.5,0.9-0.8,1.4c-0.7,1.4-0.7,2.2-0.2,2.6c0.7,0.5,1.9-1,2.1-1.3c0.2,1.7-0.4,3.2,0.1,3.7
			c0.2,0.2,0.4,0.4,0.7,0.4c0.7,0,1.5-1.5,1.5-2.6c0-0.2,0-0.4,0-0.6l0,0c0.1,0.3,0.2,0.6,0.3,0.8c0.3,0.8,0.5,2.1,1.2,2
			s1.2-0.2,0.9-1.9c-0.1-0.5-0.2-1-0.4-1.4c0.8,1,1,1.6,2,1.2S185.6,144.5,184,142.6"/>
		<path class="st4" d="M160.4,156.2c-2.5,2.9-6.2,11.1-9.8,11.6c-2.2,0.2-4.3-0.4-6.1-1.6c-0.3-0.2-0.5-0.4-0.7-0.7
			c-0.2-0.5-0.3-1-0.1-1.5l7.3-17.8l0.6-2.8c7.9,1.4,15.9,1.7,23.9,1h0.5c0.6,3.3,1.5,6.5,2.7,9.6c1.2,3.1,2.7,6.2,4.3,9.1
			c-0.1-0.4,0,0-0.2,0.3c-2.1,2.9-4.5,4.3-7.1,4c-3.3-0.4-11.3-10.4-14.1-11.3L160.4,156.2z"/>
		<path class="st0" d="M154.7,110.5L154.7,110.5c0.5,0.2,18.8-1.4,19.9-2l1.3-0.9c4.2,9.7,6,15.5,7.1,20.4l-6.4,2l-1.9-7.5l1.2,7.7
			c0.2,2.2,1.8,15.3,1.8,15.3c-14.4,2.4-28.1-1-29-1.6c1.6-5.8,2-10.7,2.9-15.6"/>
		<g>
			<defs>
				<path id="SVGID_00000080888084618140165400000008094770836247103120_" d="M174.5,108.4c-1,0.6-19.3,2.2-19.9,2l0,0l-3.1,17.8
					c-0.9,5-1.3,9.8-2.9,15.6c0.9,0.6,14.6,4,29,1.6c0,0-1.5-13.1-1.8-15.3l-1.2-7.7l1.9,7.5l6.4-2c-1.1-4.9-2.9-10.7-7.1-20.4
					L174.5,108.4z"/>
			</defs>
			<clipPath id="SVGID_00000099636837343867825640000007181953241297987457_">
				<use xlink:href="#SVGID_00000080888084618140165400000008094770836247103120_"  style="overflow:visible;"/>
			</clipPath>
			<g style="clip-path:url(#SVGID_00000099636837343867825640000007181953241297987457_);">
				<path class="st8" d="M183.4,110.8c0,0-7.9,4.7-16.9,5.1c-10.3,0.4-16.8-2.1-16.8-2.1"/>
				<path class="st8" d="M186.7,116c-7.1,3.8-15.1,5.8-23.2,5.7c-9.8-0.3-14.5-2.9-14.5-2.9"/>
				<path class="st8" d="M185.9,123.2c0,0-10.7,4.7-21.2,4.5c-7.1,0-14-1.7-20.4-4.9"/>
				<path class="st8" d="M185.9,132.3c-7.6,1.5-15.4,2.1-23.1,1.7c-5.3-0.4-10.5-1.4-15.6-3"/>
				<path class="st8" d="M183.9,139.1c-21.2,3.7-35.9-1.4-35.9-1.4"/>
			</g>
		</g>
		<path class="st6" d="M184,81.9L184,81.9c-4-0.3-27.7-20.6-33.7-12.8c-2.1,3.9-3.9,8-5.4,12.2c-4.8,13.1-1.2,27.8,11,29.8
			c6.4,1.2,12.9,0.3,18.7-2.6c4.4-2.8,7.7-7.1,9.5-12c0.5-1.2,0.8-2.4,1.1-3.7c0.1-0.3,0.1-0.6,0.2-1c0.2-0.8,0.3-1.5,0.4-2.2l0,0
			C184.8,87.1,184.2,84.5,184,81.9"/>
		<path class="st4" d="M213.5,62.7l-19.6-2.4l0,0C195,60.1,210.5,56.5,213.5,62.7"/>
		<path class="st4" d="M212.1,66.5h-2.5L194,60.4h-0.1l0,0C201.6,61.4,208.1,63.1,212.1,66.5"/>
		<path class="st4" d="M210.3,73.9c0,0-12.5-7.5-16.4-13.5l0,0h0.1C195.2,60.9,209,66.9,210.3,73.9"/>
		<path class="st10" d="M194.2,60.1c-1.5,0.4-1-3.8-1-3.8c-2.4,2.8-5.2,3.1-2-3.5c-4.5,6.5-6.2-2.2,0.3-11c0.2-0.3,5.4,3.4,6.4,11
			c0.4,2.3-0.3,4.6-1.9,6.3C195.5,59.5,194.9,59.9,194.2,60.1"/>
		<path class="st2" d="M190,85.5c4,9,0.1,8.7-1.9,2c0.8,6.7-0.9,5.1-2.4,2c-1-2.4-1.6-5-1.8-7.7l0,0c2.1,0.3,4.2-0.4,5.8-1.9
			l0.1,0.1C196.1,88.2,193.8,90.4,190,85.5"/>
		<path class="st11" d="M150.9,68.8c-0.6,0.2-1.2,0.4-1.7,0.7l0,0c-0.2-2.4-0.1-4.8,0.2-7.2v-0.1l0.9,0.8c0,2.6,2.9,1.9,2.1-0.2
			l1.8-1v0.1c0.3,0.6,0.5,1.2,0.6,1.8c-0.8,2.7,1.3,3.1,1.6,1.7c3.1,1,2.5-3.1,0-2c-0.3-0.8-0.6-1.5-1-2.2l2.8-1.5
			c3.4,0.3,2.2-3.5,0.3-2.2c0.6-2-3.3-1.8-1.6,1.3l-2.2,1.3c-0.6-0.8-1.1-1.6-1.8-2.4c1.5-0.8,1.5-1.7,0.1-2.6
			c2.8-2.4,6.7-3.1,10.1-1.7c3.5,1.5,5.7,4.8,7.5,8.2c0.5,1,1.1,2.1,1.6,3.2l0,0c1.2,2.4,2.7,4.5,4.5,6.5c2.2,2.1,5,3.4,8.1,3.7
			c2.9,0.5,5.9,0.1,8.5-1.1c0,0.1,0,0.3,0,0.4c-0.9,2.8-1.8,5-3.2,6.3c-1.7,1.5-3.9,2.1-6.1,1.9c-4-0.3-8.6-3.4-13.3-6.2l-1.5-0.9
			C162.7,71,156.1,67.2,150.9,68.8"/>
		<path class="st12" d="M179.9,70.8c0.4,0.2,0.9,0.4,1.3,0.6s0.8,0.3,1.2,0.5l0.2,1l1.5-0.6c0.7,0.2,1.4,0.3,2.2,0.4
			c0.3,0,0.7,0.1,1,0.1c1.6,0.1,3.3,0.1,4.9-0.1c0.5-0.1,1,0.3,1.1,0.8c-5.6,3-12.4,1.9-16.9-2.6c-1.7-1.9-3.2-4.1-4.2-6.4
			C174.2,67.2,176.9,69.4,179.9,70.8"/>
		<path class="st11" d="M193.1,172.4c0,2-3.4,7.8-6.7,9.2c-2,0.8-4.2,1.1-6.4,0.7c-1.3-1.8-0.9-3.1-0.2-4s4.3-2.8,5-4.2
			c-2.6-2.9-5.8-5.1-9.3-6.6l0,0c2.6,0.3,5-1.1,7.1-4C182.7,163.5,193.1,170.5,193.1,172.4"/>
		<path class="st6" d="M185.5,91.4c4.2,1.1,3.4,6.8-1.5,5.5l-0.2-0.1C184.3,95.7,185.4,91.7,185.5,91.4"/>
		<path class="st5" d="M180.4,39.8c0.2,1.6-0.1,3.1-0.8,4.5c-0.8,1.5-1.8,2.9-3,4l-7.8-4.2h-0.2L158.2,44c0.4-4.4,3-8.3,6.9-10.3
			c3.9-2,8.6-2,12.5,0.1C179.1,35.5,180.1,37.6,180.4,39.8"/>
		<path class="st13" d="M174.7,36c0.5,0.2,0.9,0.6,0.8,1s-0.6,0.5-1.2,0.3s-0.7-0.5-0.6-0.9S174.1,35.9,174.7,36"/>
		<path class="st14" d="M167.2,78.7c2.8,0,5,2.2,5,5c0,2.7-1.5,5.7-5.3,5.7c-2.7,0-4.6-3-4.6-5.7C162.2,81,164.4,78.7,167.2,78.7
			C167.2,78.7,167.2,78.7,167.2,78.7"/>
		<path class="st14" d="M184.9,33.8c1.7,0,3,1.3,3.1,3c0.2,1.8-1.2,3.4-2.9,3.5c-0.1,0-0.2,0-0.3,0c-1.7,0-2.9-1.8-2.9-3.5
			C181.8,35.2,183.2,33.8,184.9,33.8"/>
		<path class="st15" d="M184,36.1c0.3,0,0.6,0.2,0.6,0.5c0,0,0,0,0,0c0,0.3-0.2,0.6-0.5,0.7c0,0,0,0-0.1,0c-0.3,0-0.5-0.3-0.5-0.7
			C183.4,36.4,183.7,36.1,184,36.1"/>
		<path class="st15" d="M170.3,75.7c-5.2,1.5-10.5,2.5-15.9,3l0.1-1c5-0.3,9.9-1.2,14.7-2.7l1.5,0.9"/>
		<path class="st15" d="M165.7,82.2c0.4,0,0.8,0.3,0.9,0.7c0,0,0,0.1,0,0.1c0,0.5-0.3,0.9-0.8,0.9c0,0,0,0,0,0c-0.7,0-0.8-0.5-0.8-1
			C164.9,82.5,165.3,82.1,165.7,82.2"/>
		<path class="st14" d="M158.5,57.4c1.9-1.3,3,2.5-0.3,2.2l-2.8,1.5l-1.2,0.6l-1.8,1c0.8,2.1-2.1,2.9-2.1,0.2l-0.9-0.8
			c0.1-0.4,0.1-0.9,0.3-1.3c0.2-0.8,1.6-0.7,2.2,0.6l1.8-1l1-0.6l2.2-1.2C155.2,55.6,159.1,55.4,158.5,57.4"/>
		<path class="st14" d="M156.4,63.3c2.6-1.2,3.2,3,0,2c-0.2,1.5-2.4,1.1-1.5-1.7c-0.2-0.6-0.4-1.2-0.6-1.8v-0.1l1.2-0.6
			C155.7,61.8,156.1,62.6,156.4,63.3"/>
		<path class="st11" d="M154.4,80.4c-0.3,1.5-0.6,3-3.7,2.5l-4.2-0.8c-0.4-0.1-0.8-0.2-1.1-0.5c-0.8-0.6-1.1-1.7-0.7-2.6
			c0,0,0.6-3.5,0.9-4.6c0.5-1.6,1.4-2.9,2.9-2.6l4.9,1.2c1.5,0.3,1.7,2.2,1.4,3.7L154.4,80.4z"/>
		<path class="st14" d="M154.7,60l-1,0.6l0,0c-0.5-0.9-1.1-1.8-1.9-2.4l-1-0.2c0.4-0.8,0.9-1.5,1.4-2.1c0.3-0.3,0.5-0.6,0.8-0.8
			c1.4,0.9,1.4,1.8-0.1,2.6C153.6,58.4,154.1,59.2,154.7,60"/>
		<path class="st11" d="M153.6,60.5L153.6,60.5l-1.8,1c-0.6-1.3-2-1.5-2.2-0.6c0.2-1,0.6-2,1.1-3l1,0.2
			C152.5,58.8,153.1,59.6,153.6,60.5"/>
		<path class="st11" d="M150.5,167.8L150.5,167.8c-1.8,5.6-4.2,10.2-7.6,13.8c-19.6-7.1-11-14.8-3.3-7.1l4.2-9.1
			c0.1,0.3,0.4,0.6,0.7,0.7C146.2,167.4,148.4,168,150.5,167.8"/>
		<path class="st16" d="M154.2,92.4c-0.4,0.1-5.1,0-4.7-3.5c0.2-2.1,4.8-2.2,5.2-2"/>
		<polyline class="st17" points="187,63 186.4,71.5 187.3,72.9 187.8,73.8 		"/>
		<polyline class="st17" points="183.5,62.8 182.1,70.5 179.9,70.8 178.1,71.1 		"/>
		<polyline class="st17" points="180,72.5 181.2,71.4 182.1,70.5 182.4,71.9 182.6,72.9 184.1,72.4 186.4,71.5 186.2,72.8 
			186.1,73.8 		"/>
		<path class="st18" d="M171.4,44.2c2.3,0.8,4.1,0.3,5.9-1.8"/>
		<path class="st11" d="M159.9,95.7c0,0-4.5,5.1-10.2,2.6c0.3,2,2.2,6.1,5.2,6.1C161.1,104.4,159.9,95.7,159.9,95.7"/>
		<line class="st19" x1="22.6" y1="135.6" x2="4.6" y2="131.7"/>
		<line class="st19" x1="21" y1="157.2" x2="2.7" y2="158.2"/>
		<line class="st19" x1="32.8" y1="119.4" x2="23.7" y2="105.7"/>
		<line class="st19" x1="59.8" y1="113.3" x2="58.2" y2="96.7"/>
		<line class="st19" x1="89.1" y1="115.8" x2="99.4" y2="102.1"/>
		<line class="st19" x1="105.7" y1="134.6" x2="121.8" y2="128.2"/>
		<line class="st19" x1="108.5" y1="155.6" x2="127" y2="157.5"/>
	</g>
</g>
</svg>
