<?xml version="1.0" encoding="utf-8"?>
<!-- Generator: Adobe Illustrator 26.2.1, SVG Export Plug-In . SVG Version: 6.00 Build 0)  -->
<svg version="1.1" id="Capa_1" xmlns="http://www.w3.org/2000/svg" xmlns:xlink="http://www.w3.org/1999/xlink" x="0px" y="0px"
	 viewBox="0 0 288.6 162.5" style="enable-background:new 0 0 288.6 162.5;" xml:space="preserve">
<style type="text/css">
	.st0{fill:#C58021;}
	.st1{fill:#6F4714;}
	.st2{fill:#945B19;}
	.st3{fill:#6EAA6F;}
	.st4{fill:#EECA1A;}
	.st5{fill:#E0D6B9;}
	.st6{fill:#BF0811;}
	.st7{clip-path:url(#SVGID_00000018232494090745437500000017760855062159850922_);}
	.st8{fill:none;stroke:#FFFFFF;stroke-width:1.79;}
	.st9{clip-path:url(#SVGID_00000179633765807829530030000018152190200487546807_);}
	.st10{fill:#A1BD43;}
	.st11{fill:#111419;}
	.st12{fill:#727176;}
	.st13{fill:#DB9600;}
	.st14{fill:#FFFFFF;}
	.st15{fill:#211915;}
	.st16{fill:none;stroke:#211915;stroke-width:0.73;stroke-linecap:round;}
	.st17{fill:none;stroke:#211915;stroke-width:0.83;stroke-linecap:round;stroke-linejoin:round;}
	.st18{fill:none;stroke:#211915;stroke-width:0.6;stroke-linecap:round;}
	.st19{fill:none;stroke:#EECA1A;stroke-width:1.2;stroke-linecap:round;}
</style>
<g id="Capa_2_00000119112278692187812010000016707534136035154873_">
	<g id="Capa_1-2">
		<path class="st0" d="M205.4,99.3c-8.9,2.3-14.9,6.9-16.6,20.5v0.3l28.3,2.5c1.6-11.2,7.7-18.5,13-22.1L205.4,99.3"/>
		<polygon class="st1" points="223.3,123.1 223.6,148.4 247.5,138.4 248.4,114.6 		"/>
		<path class="st2" d="M248.5,114.6c0.1-8-2.5-12.7-7.2-13.5l-2-0.1c-6.6,0.3-14.2,7.5-15.7,22.1"/>
		<path class="st3" d="M242.3,125.6c-0.2-0.8-1.2-0.9-2.5-0.6s-2,1.3-1.9,1.9c0.1,0.6,0.7,0.9,1.8,0.8c-0.1-0.4,0.1-0.8,0.4-0.9
			c0.4-0.2,0.8,0,1,0.3l0.1,0.1C242.2,126.8,242.4,126.2,242.3,125.6"/>
		<path class="st4" d="M241.2,127.2l-0.1-0.2c-0.2-0.3-0.6-0.4-1-0.3c-0.3,0.2-0.5,0.6-0.4,0.9v0.1c0.4,0.7,0.6,1.5,0.6,2.3
			c0,0.2,0,0.4,0,0.6c-0.3,1.8-1.9,3-3.7,2.8c-1.8-0.3-3-1.9-2.8-3.7c0-0.1,0-0.3,0-0.4v-0.2V129c0-0.4-0.3-0.8-0.7-0.8
			c-0.5,0-1,0.3-1.1,0.8c0,0.2-0.1,0.4-0.1,0.6c-0.1,0.3-0.1,0.7-0.1,1c-0.2,3.5,2,5.6,4.9,5.7c2.9,0.1,5.3-1.8,5.4-5.3
			C242.1,129.7,241.8,128.4,241.2,127.2"/>
		<path class="st3" d="M229.9,100.5c-5.7,3.1-11.2,10.8-12.8,22.1l6.4,0.5c1.5-14.5,9.1-21.7,15.7-22.1L229.9,100.5"/>
		<path class="st3" d="M235.2,127.5c-0.2-0.7-1-1.1-2.4-0.7c-1.4,0.4-2.2,1.3-2,2c0.1,0.5,0.4,0.7,1.1,0.8c0-0.2,0.1-0.4,0.1-0.6
			c0.1-0.5,0.6-0.9,1.1-0.8c0.4,0,0.7,0.4,0.7,0.8v0.1v0.2C234.9,128.9,235.4,128.1,235.2,127.5"/>
		<path class="st4" d="M229.9,103.6L229.9,103.6c0-0.4-0.3-0.7-0.7-0.7c-0.4,0-0.7,0.4-0.7,0.7s0.3,0.6,0.7,0.6
			C229.6,104.2,229.9,104,229.9,103.6"/>
		<polygon class="st2" points="182.5,117.9 182.8,138.7 223.6,148.4 223.6,123.1 		"/>
		<path class="st4" d="M226.2,107.8L226.2,107.8c0-0.4-0.4-0.8-0.8-0.7l0,0c-0.5,0-0.8,0.3-0.8,0.8l0,0c0,0.4,0.3,0.8,0.8,0.8
			C225.8,108.6,226.2,108.3,226.2,107.8"/>
		<path class="st4" d="M222.9,113.8c0-0.6-0.5-1-1-0.9l0,0c-0.5,0-0.9,0.5-0.9,1s0.4,0.9,1,0.9C222.5,114.8,222.9,114.4,222.9,113.8
			"/>
		<path class="st4" d="M221.4,119.6C221.4,119.5,221.4,119.5,221.4,119.6c-0.1-0.7-0.6-1.2-1.2-1.2c-0.7,0-1.2,0.5-1.2,1.2
			s0.5,1.2,1.2,1.2S221.4,120.3,221.4,119.6"/>
		<path class="st3" d="M205.3,118.3c0-0.1,0-0.2,0-0.2c0.1-1.7-1.2-3.1-2.9-3.2s-3.1,1.2-3.2,2.9l0,0c-2.1-0.3-3.2,0.2-3.4,2.6
			l3.5,0.6l-0.9,8.4c-0.1,1,5.3,1.7,5.5,0.7c0.5-2.9,0.8-5.7,0.9-8.6l3.4,0.5c0-0.1,0-0.2,0-0.3C208.3,120,207,118.4,205.3,118.3
			L205.3,118.3"/>
		<path class="st3" d="M198.6,98.9c-8.4,3.3-14.1,8.1-16.1,18.9l6.9,0.9c2.2-10.9,6.9-15.2,16-19.5L198.6,98.9"/>
		<path class="st1" d="M202,128.2c0-1-0.1-2.1-0.2-3.1c0.3-0.1,0.5-0.3,0.5-0.6c0.1-0.4-0.3-0.8-0.7-0.9c-0.5-0.1-1,0.2-1.1,0.7
			c0,0.3,0.2,0.7,0.5,0.8l-0.6,2.9L202,128.2"/>
		<path class="st4" d="M197.6,100.9c-0.4,0-0.7,0.3-0.7,0.6c0,0.3,0.2,0.7,0.6,0.7c0.3,0,0.7-0.2,0.7-0.6
			C198.2,101.3,198,100.9,197.6,100.9"/>
		<path class="st4" d="M192.4,104.5c-0.4,0-0.9,0.3-0.9,0.8l0,0c0,0.4,0.3,0.9,0.8,0.9c0.4,0,0.9-0.3,0.9-0.8
			C193.2,105,192.9,104.5,192.4,104.5"/>
		<path class="st4" d="M188.9,109c-0.3,0-0.5,0.2-0.7,0.6c-0.2,0.5,0,1.1,0.5,1.3c0.5,0,0.9-0.4,1-0.9
			C189.8,109.5,189.4,109.1,188.9,109"/>
		<path class="st4" d="M186.6,114.6c-0.6-0.1-1.2,0.4-1.3,1c0,0.1,0,0.1,0,0.1c0,0.7,0.4,1.3,1.1,1.3c0.7,0,1.2-0.5,1.3-1.1
			C187.7,115.2,187.2,114.7,186.6,114.6"/>
		<path class="st3" d="M24.4,32.1c-5.2-10,4.6-16.6,4.5-16.5C25,4.2,37.2,0.7,42.7,7.3c-1.5,1.7-2.5,3.8-2.8,6.1
			c-0.2,1.5,0.1,3.1,0.8,4.5c0.8,1.5,1.8,2.9,3,4c0.9,1.4,1.4,3.1,1.4,4.8c0,5.5-3.5,8.8-8.3,9.6c-0.8,0.1-1.6,0.2-2.4,0.2
			c-0.4,0.1-0.8,0-1.2,0c-2.5-0.1-4.9-1-6.9-2.5l0,0C25.6,33.5,24.9,32.8,24.4,32.1"/>
		<path class="st5" d="M79.9,110.4c1.2,2.2,4,5.6,4.6,4.8s0.2-1.2-0.6-2.3c0.7,0.5,1.1,0.7,1.2,0.8c1.5,0.9,1.7,0.5,2.1-0.2
			s-0.8-1.3-1.5-1.8c-0.5-0.4-0.5-0.5-0.7-0.6l0,0c0.2,0.1,0.4,0.1,0.6,0.2c1,0.3,2.7,0,2.9-0.6c0.1-0.3,0.1-0.6-0.1-0.8
			c-0.4-0.6-1.9-0.5-3.5-1.2c0.4-0.1,2.2-0.8,1.9-1.6c-0.2-0.6-0.9-0.8-2.5-0.6c-0.5,0.1-1.5,0.3-1.5,0.3c-3.7-1.7-7-4.1-9.9-7
			l-4.4,2.1C74.6,107.5,79.5,109.7,79.9,110.4"/>
		<path class="st6" d="M74.1,99.3c0,0-1.8-3.1-3.1-5.2c-1-1.6-5.6-9.9-5.6-9.9l-1.1,0.5l3.6,17.7L74.1,99.3z"/>
		<g>
			<g>
				<defs>
					<path id="SVGID_1_" d="M71,94c-1-1.5-5.6-9.8-5.6-9.8l-1.1,0.5l3.6,17.7l6.2-3.2C74.1,99.2,72.3,96.1,71,94"/>
				</defs>
				<clipPath id="SVGID_00000047780149312455061130000010563995806625087369_">
					<use xlink:href="#SVGID_1_"  style="overflow:visible;"/>
				</clipPath>
				<g style="clip-path:url(#SVGID_00000047780149312455061130000010563995806625087369_);">
					<path class="st8" d="M70.4,85.1c-5,3.3-10.9,4.8-16.8,4.5c-9-0.4-16.9-5.1-16.9-5.1"/>
					<path class="st8" d="M71.4,90.7c0,0-5,4.4-14.8,4.7c-8.1,0.1-16.1-1.9-23.2-5.7"/>
					<path class="st8" d="M75.4,94.1c-5.7,4.6-12.7,7.2-20,7.3c-10.5,0.2-21.2-4.5-21.2-4.5"/>
				</g>
			</g>
		</g>
		<path class="st5" d="M36.1,116.3c-1.6,1.9-2.8,3.8-1.8,4.2s1.2-0.2,2-1.2c-0.2,0.4-0.3,0.9-0.4,1.4c-0.3,1.7,0.2,1.8,0.9,1.9
			s0.9-1.2,1.2-2c0.1-0.2,0.2-0.5,0.3-0.8l0,0c0,0.2,0,0.4,0,0.6c0,1.1,0.8,2.6,1.5,2.6c0.3,0,0.5-0.2,0.7-0.4
			c0.5-0.5-0.1-2,0.1-3.7c0.2,0.3,1.4,1.8,2.1,1.3c0.5-0.4,0.5-1.2-0.2-2.6c-0.3-0.5-0.8-1.4-0.8-1.4c0-0.5,0.9-10.9,1.2-12.9
			l-3.9-1.6c-0.5,2.3-0.5,6.6-0.9,9c-0.1,1.2-0.3,2.4-0.6,3.5C37.2,115,36.7,115.7,36.1,116.3"/>
		<path class="st3" d="M58.5,129.8c-2.8,0.9-10.8,10.9-14.1,11.3c-2.6,0.3-5-1.1-7.1-4c-0.2-0.3-0.1-0.7-0.2-0.3
			c1.6-2.9,3.1-6,4.3-9.1s2.1-6.3,2.7-9.6h0.5c8,0.7,16,0.4,23.9-1l0.6,2.8l7.3,17.8c0.2,0.5,0.1,1-0.1,1.5
			c-0.2,0.3-0.4,0.5-0.7,0.7c-1.8,1.2-3.9,1.8-6.1,1.6c-3.6-0.5-7.3-8.7-9.8-11.6L58.5,129.8z"/>
		<path class="st6" d="M68.5,102c0.9,4.9,1.3,9.8,2.9,15.6c-0.9,0.6-14.6,4-29,1.6c0,0,1.6-13.1,1.8-15.3l1.2-7.7l-1.9,7.5l-6.4-2
			c1.1-4.9,2.9-10.7,7.1-20.4l1.3,0.9c1.1,0.6,19.4,2.2,19.9,2l0,0"/>
		<g>
			<g>
				<defs>
					<path id="SVGID_00000178186512636152345150000011266149766155308162_" d="M44.3,81.2c-4.2,9.7-6,15.5-7.1,20.4l6.4,2l1.9-7.5
						l-1.2,7.7c-0.3,2.2-1.8,15.3-1.8,15.3c14.4,2.4,28.1-1,29-1.6c-1.6-5.8-2-10.6-2.9-15.6l-3.1-17.8l0,0
						c-0.6,0.2-18.9-1.4-19.9-2L44.3,81.2z"/>
				</defs>
				<clipPath id="SVGID_00000049209022690769685730000012230850685863790783_">
					<use xlink:href="#SVGID_00000178186512636152345150000011266149766155308162_"  style="overflow:visible;"/>
				</clipPath>
				<g style="clip-path:url(#SVGID_00000049209022690769685730000012230850685863790783_);">
					<path class="st8" d="M70.4,87.5c0,0-6.5,2.5-16.8,2.1c-9-0.4-16.9-5.1-16.9-5.1"/>
					<path class="st8" d="M71.1,92.5c0,0-4.7,2.6-14.5,2.9c-8.1,0.1-16.1-1.9-23.2-5.7"/>
					<path class="st8" d="M75.8,96.5c-6.4,3.2-13.3,4.9-20.4,4.9c-10.5,0.2-21.2-4.5-21.2-4.5"/>
					<path class="st8" d="M72.9,104.7c-5.1,1.6-10.3,2.6-15.6,3c-7.7,0.4-15.5-0.2-23.1-1.7"/>
					<path class="st8" d="M72.1,111.4c0,0-14.7,5.1-35.9,1.4"/>
				</g>
			</g>
		</g>
		<path class="st5" d="M36.1,55.6c-0.2,2.6-0.8,5.2-1.8,7.7l0,0c0.1,0.7,0.2,1.4,0.4,2.2c0.1,0.4,0.1,0.7,0.2,1
			c0.3,1.3,0.6,2.5,1.1,3.7c1.8,4.9,5.1,9.2,9.5,12c5.8,2.9,12.3,3.8,18.7,2.6c12.2-2,15.8-16.7,11-29.8c-1.5-4.2-3.3-8.3-5.4-12.2
			C63.8,35,40.1,55.3,36.1,55.6L36.1,55.6"/>
		<path class="st3" d="M6.6,36.4c3-6.2,18.5-2.6,19.6-2.4l0,0L6.6,36.4"/>
		<path class="st3" d="M8,40.2c4-3.4,10.5-5.1,18.2-6.1l0,0h-0.1l-15.6,6.1H8"/>
		<path class="st3" d="M9.8,47.6c1.3-7,15.1-13,16.3-13.5h0.1l0,0C22.3,40.1,9.8,47.6,9.8,47.6"/>
		<path class="st10" d="M25.9,33.8c-0.7-0.2-1.3-0.6-1.8-1c-1.6-1.7-2.3-4-1.9-6.3c1-7.6,6.2-11.3,6.4-11c6.5,8.8,4.8,17.5,0.3,11
			c3.2,6.6,0.4,6.3-2,3.5C26.9,30,27.4,34.2,25.9,33.8"/>
		<path class="st1" d="M30.1,59.2c-3.8,4.9-6.1,2.7,0.2-5.5l0.1-0.1c1.6,1.5,3.7,2.2,5.8,1.9l0,0c-0.2,2.7-0.8,5.3-1.8,7.7
			c-1.5,3.1-3.2,4.7-2.4-2C30,67.9,26.1,68.2,30.1,59.2"/>
		<path class="st11" d="M69.2,42.5c-5.2-1.6-11.8,2.2-18.3,6.6L49.4,50c-4.7,2.8-9.3,5.9-13.3,6.2c-2.2,0.2-4.4-0.4-6.1-1.9
			c-1.4-1.3-2.3-3.5-3.2-6.3c0-0.1,0-0.3,0-0.4c2.6,1.2,5.6,1.6,8.5,1.1c3.1-0.3,5.9-1.6,8.1-3.7c1.8-2,3.3-4.1,4.5-6.5l0,0
			c0.5-1.1,1.1-2.2,1.6-3.2c1.8-3.4,4-6.7,7.5-8.2c3.4-1.4,7.3-0.7,10.1,1.7c-1.4,0.9-1.4,1.8,0.1,2.6c-0.7,0.8-1.2,1.6-1.8,2.4
			l-2.2-1.3c1.7-3.1-2.2-3.3-1.6-1.3c-1.9-1.3-3.1,2.5,0.3,2.2l2.8,1.5c-0.4,0.7-0.7,1.4-1,2.2c-2.5-1.1-3.1,3,0,2
			c0.3,1.4,2.4,1,1.6-1.7c0.1-0.6,0.3-1.2,0.6-1.8v-0.1l1.8,1c-0.8,2.1,2.1,2.8,2.1,0.2l0.9-0.8V36c0.3,2.4,0.4,4.8,0.2,7.2l0,0
			C70.4,42.9,69.8,42.7,69.2,42.5"/>
		<path class="st12" d="M40.2,44.5c3-1.4,5.7-3.6,7.7-6.3c-1,2.3-2.5,4.5-4.2,6.4c-4.5,4.5-11.3,5.6-16.9,2.6
			c0.1-0.5,0.6-0.9,1.1-0.8c1.6,0.2,3.3,0.2,4.9,0.1c0.3,0,0.7-0.1,1-0.1c0.8-0.1,1.5-0.2,2.2-0.4l1.5,0.6l0.2-1
			c0.4-0.2,0.8-0.3,1.2-0.5S39.8,44.7,40.2,44.5"/>
		<path class="st11" d="M27,146.1c0-1.9,10.4-8.9,10.5-8.9c2.1,2.9,4.5,4.3,7.1,4l0,0c-3.5,1.5-6.7,3.7-9.3,6.6
			c0.7,1.4,4.3,3.3,5,4.2s1.1,2.2-0.2,4c-2.2,0.4-4.4,0.1-6.4-0.7C30.4,153.9,27,148.1,27,146.1"/>
		<path class="st5" d="M34.6,65.1c0.1,0.3,1.2,4.3,1.7,5.4l-0.2,0.1C31.2,71.9,30.4,66.2,34.6,65.1"/>
		<path class="st4" d="M39.7,13.5c0.3-2.2,1.3-4.3,2.8-6c3.9-2.1,8.6-2.1,12.5-0.1s6.5,5.9,6.9,10.3l-10.4,0.1h-0.2L43.5,22
			c-1.2-1.1-2.2-2.5-3-4C39.8,16.6,39.5,15.1,39.7,13.5"/>
		<path class="st13" d="M45.4,9.7c0.6-0.1,0.9,0,1,0.4s0,0.7-0.6,0.9s-1.1,0.1-1.2-0.3S44.9,9.9,45.4,9.7"/>
		<path class="st14" d="M52.9,52.4L52.9,52.4c2.8,0,5,2.3,4.9,5c0,2.7-1.9,5.7-4.6,5.7c-3.8,0-5.3-3-5.3-5.7
			C47.9,54.6,50.1,52.4,52.9,52.4"/>
		<path class="st14" d="M35.2,7.5c1.7,0,3.1,1.4,3,3c0,1.7-1.2,3.5-2.9,3.5c-0.1,0-0.2,0-0.3,0c-1.7-0.1-3.1-1.7-2.9-3.5
			C32.2,8.8,33.5,7.5,35.2,7.5"/>
		<path class="st15" d="M36.1,9.8c0.3,0,0.6,0.3,0.5,0.5c0,0.4-0.2,0.7-0.5,0.7C36,11,36,11,36,11c-0.3-0.1-0.5-0.4-0.5-0.7l0,0
			C35.5,10,35.8,9.8,36.1,9.8"/>
		<path class="st15" d="M49.4,49.6l1.5-0.9c4.8,1.5,9.7,2.4,14.7,2.7l0.1,1c-5.4-0.5-10.7-1.5-15.9-3"/>
		<path class="st15" d="M54.4,55.9c0.4-0.1,0.8,0.3,0.7,0.7c0,0.5-0.1,1-0.8,1l0,0c-0.5,0-0.8-0.4-0.8-0.9v-0.1
			C53.6,56.2,54,55.9,54.4,55.9"/>
		<path class="st14" d="M61.6,31.1c-0.6-2,3.3-1.8,1.6,1.2l2.2,1.2l1,0.6l1.8,1c0.6-1.3,2-1.4,2.2-0.6c0.2,0.4,0.2,0.9,0.3,1.3
			l-0.9,0.8c0,2.7-2.9,1.9-2.1-0.2l-1.8-1l-1.2-0.6l-2.8-1.5C58.6,33.6,59.7,29.8,61.6,31.1"/>
		<path class="st14" d="M63.7,37c0.3-0.7,0.7-1.5,0.9-2.2l1.2,0.6v0.1c-0.2,0.6-0.4,1.2-0.6,1.8c0.9,2.8-1.3,3.2-1.5,1.7
			C60.5,40,61.1,35.8,63.7,37"/>
		<path class="st11" d="M65.3,50.4c-0.3-1.5-0.1-3.4,1.4-3.7l4.9-1.2c1.5-0.3,2.4,1,2.9,2.6c0.3,1.1,0.9,4.6,0.9,4.6
			c0.4,0.9,0.1,2-0.7,2.6c-0.3,0.3-0.7,0.4-1.1,0.5l-4.2,0.8c-3.1,0.5-3.4-1-3.7-2.5L65.3,50.4z"/>
		<path class="st14" d="M65.4,33.7c0.6-0.8,1.1-1.6,1.8-2.3c-1.5-0.8-1.5-1.7-0.1-2.6c0.3,0.2,0.5,0.5,0.8,0.8
			c0.5,0.6,1,1.3,1.4,2.1l-1,0.2c-0.8,0.6-1.4,1.5-1.9,2.4l0,0L65.4,33.7"/>
		<path class="st11" d="M66.5,34.2c0.5-0.9,1.1-1.7,1.9-2.4l1-0.2c0.5,1,0.9,2,1.1,3c-0.2-0.9-1.6-0.7-2.2,0.6L66.5,34.2L66.5,34.2"
			/>
		<path class="st11" d="M69.6,141.5c2.1,0.2,4.3-0.4,6-1.7c0.3-0.1,0.6-0.4,0.7-0.7l4.2,9.1c7.7-7.7,16.3,0-3.3,7.1
			C73.8,151.7,71.4,147.1,69.6,141.5L69.6,141.5"/>
		<path class="st16" d="M65.4,60.6c0.4-0.2,5-0.1,5.2,2c0.4,3.5-4.3,3.6-4.7,3.5"/>
		<polyline class="st17" points="32.3,47.5 32.8,46.6 33.7,45.2 33.1,36.7 		"/>
		<polyline class="st17" points="42,44.8 40.2,44.5 38,44.2 36.6,36.5 		"/>
		<polyline class="st17" points="34,47.5 33.9,46.5 33.7,45.2 36,46.1 37.5,46.6 37.7,45.6 38,44.2 38.9,45.1 40.1,46.2 		"/>
		<path class="st18" d="M42.8,16.1c1.8,2.1,3.6,2.6,5.9,1.8"/>
		<path class="st11" d="M60.2,69.4c0,0-1.2,8.7,5,8.7c3,0,4.9-4.1,5.2-6.1C64.7,74.5,60.2,69.4,60.2,69.4"/>
		<line class="st19" x1="276.2" y1="105.4" x2="258.2" y2="109.3"/>
		<line class="st19" x1="278.1" y1="131.9" x2="259.8" y2="130.9"/>
		<line class="st19" x1="257.1" y1="79.4" x2="248" y2="93.1"/>
		<line class="st19" x1="222.6" y1="70.4" x2="221" y2="87"/>
		<line class="st19" x1="181.4" y1="75.8" x2="191.7" y2="89.5"/>
		<line class="st19" x1="159" y1="101.9" x2="175.1" y2="108.3"/>
		<line class="st19" x1="153.8" y1="131.2" x2="172.3" y2="129.3"/>
	</g>
</g>
</svg>
