<?xml version="1.0" encoding="utf-8"?>
<!-- Generator: Adobe Illustrator 26.2.1, SVG Export Plug-In . SVG Version: 6.00 Build 0)  -->
<svg version="1.1" id="Capa_1" xmlns="http://www.w3.org/2000/svg" xmlns:xlink="http://www.w3.org/1999/xlink" x="0px" y="0px"
	 viewBox="0 0 141.1 167.3" style="enable-background:new 0 0 141.1 167.3;" xml:space="preserve">
<style type="text/css">
	.st0{fill:#467749;}
	.st1{fill:#538A58;}
	.st2{fill:#BF0811;}
	.st3{clip-path:url(#SVGID_00000049180954683907172670000014356005157973335985_);}
	.st4{fill:none;stroke:#FFFFFF;stroke-width:1.79;}
	.st5{clip-path:url(#SVGID_00000137131787748632473360000004992711961854969485_);}
	.st6{fill:#81B276;}
	.st7{fill:#A182AE;}
	.st8{fill:#6EAA6F;}
	.st9{fill:#745F7F;}
	.st10{fill:#C58021;}
	.st11{fill:#945B19;}
	.st12{fill:#6A4720;}
	.st13{fill:#E0D6B9;}
	.st14{fill:#6F4714;}
	.st15{fill:none;stroke:#211915;stroke-width:0.73;stroke-linecap:round;}
	.st16{fill:none;stroke:#6F4714;stroke-width:0.87;stroke-linecap:round;stroke-linejoin:round;}
	.st17{fill:none;stroke:#6F4714;stroke-width:0.85;stroke-linecap:round;stroke-linejoin:round;}
	.st18{fill:#111419;}
	.st19{fill:none;stroke:#211915;stroke-width:0.85;stroke-linecap:round;stroke-linejoin:round;}
	.st20{fill:#FFFFFF;}
	.st21{fill:#211915;}
	.st22{fill:#BFDCE8;}
	.st23{fill:#9CC9DB;}
	.st24{fill:#D8D9DD;}
</style>
<g id="Capa_2_00000018211321640051578760000011608206024653976967_">
	<g id="Capa_1-2">
		<polygon class="st0" points="26.8,161.5 26.8,130.8 19.4,130.4 19.4,161.5 		"/>
		<polygon class="st0" points="120.1,161.5 120.1,130.8 112.7,130.4 112.7,161.5 		"/>
		<polygon class="st1" points="21.1,161.5 20.4,133.8 12.5,133.8 12.5,161.5 		"/>
		<polygon class="st1" points="126.8,161.5 126.8,134.9 119.4,134.5 119.4,161.5 		"/>
		<path class="st2" d="M57.9,76.8l3.6-17.7l-0.4-2.2c0,0-5.3,10-6.3,11.6c-1.3,2.1-3.1,5.2-3.1,5.2L57.9,76.8z"/>
		<g>
			<defs>
				<path id="SVGID_1_" d="M54.8,68.5c-1.3,2.1-3.1,5.2-3.1,5.2l6.2,3.2l3.6-17.7l-0.4-2.2C61.1,56.9,55.8,66.9,54.8,68.5"/>
			</defs>
			<clipPath id="SVGID_00000148628013719836277210000004813975801008444343_">
				<use xlink:href="#SVGID_1_"  style="overflow:visible;"/>
			</clipPath>
			<g style="clip-path:url(#SVGID_00000148628013719836277210000004813975801008444343_);">
				<path class="st4" d="M89,59c0,0-7.9,4.7-16.9,5c-5.9,0.4-11.8-1.2-16.8-4.5"/>
				<path class="st4" d="M92.4,64.2C85.2,68,77.3,70,69.2,69.8c-9.8-0.3-14.8-4.7-14.8-4.7"/>
				<path class="st4" d="M91.5,71.3c0,0-10.7,4.7-21.2,4.5c-7.3-0.1-14.3-2.7-20-7.3"/>
			</g>
		</g>
		<path class="st2" d="M61.1,56.9c0,0,18.1,0.3,19.1-0.3l1.3-0.9c4.2,9.7,6,15.5,7.1,20.4l-6.5,1.5l-1.7-7l1.2,7.7
			c0.2,2.2,1.8,15.3,1.8,15.3c-14.4,2.4-28.1-1-29-1.6c1.6-5.8,2-10.7,2.9-15.7"/>
		<g>
			<defs>
				<path id="SVGID_00000119081257806253950770000015391186292920812184_" d="M80.2,56.5c-1,0.6-19.1,0.3-19.1,0.3l-3.8,19.5
					c-0.9,5-1.3,9.8-2.9,15.7c0.9,0.5,14.6,4,29,1.6c0,0-1.5-13.1-1.8-15.3l-1.2-7.7l1.7,7l6.5-1.5c-1.1-4.9-2.9-10.7-7.1-20.4
					L80.2,56.5z"/>
			</defs>
			<clipPath id="SVGID_00000114034774785882366210000012544235779070342287_">
				<use xlink:href="#SVGID_00000119081257806253950770000015391186292920812184_"  style="overflow:visible;"/>
			</clipPath>
			<g style="clip-path:url(#SVGID_00000114034774785882366210000012544235779070342287_);">
				<path class="st4" d="M89,59c0,0-7.9,4.7-16.9,5c-10.3,0.4-16.8-2.1-16.8-2.1"/>
				<path class="st4" d="M92.4,64.2C85.2,68,77.3,70,69.2,69.8C59.4,69.5,54.7,67,54.7,67"/>
				<path class="st4" d="M91.5,71.3c0,0-10.7,4.7-21.2,4.5c-7.1,0-14.1-1.7-20.4-4.9"/>
				<path class="st4" d="M91.5,80.5c-7.6,1.5-15.4,2.1-23.1,1.7c-5.3-0.4-10.5-1.4-15.6-3"/>
				<path class="st4" d="M89.5,87.3c-21.2,3.7-35.9-1.3-35.9-1.3"/>
			</g>
		</g>
		<polygon class="st6" points="124.7,84.1 138.4,107.3 0,107.3 19.2,84.1 		"/>
		<path class="st1" d="M116.8,114.8v16.7c-39.7,0.2-56,1.1-94.8-0.3V114C61.9,114.7,80.7,114.8,116.8,114.8"/>
		<path class="st7" d="M59.5,94.5c-1.6,1.5-6.1,2.9-12,3.2c-3.7,0.2-7.4,0.2-11.1,0c-5.6-0.3-9.9-1.7-11.4-3.1l0,0
			c0.3,4.8,9.3,7.2,18.1,7.1C51.1,101.4,58.9,99.1,59.5,94.5L59.5,94.5z"/>
		<path class="st8" d="M64.6,106.6L0,107.3v6c0,1.1,0.1,1.3,1.2,1.4l7.6,0.6c0,0,0.6,12.9,0.9,17.9c0.1,2,13.8,1.4,13.8,1.4
			c0.3-3.6,0-9.8,0-9.8v-10c35.7,0.2,55.8,0.6,92.6,0l-0.1,20.6c0,0,3.2,0.4,5.5,0.4c4.7,0,8.2,0.1,8.3-0.9
			c0.7-5.4,0.8-20.2,0.8-20.2l0,0c1.9-0.1,4.5-0.2,6.4-0.3c1.2-0.1,1.4-0.8,1.4-2v-5.1L64.6,106.6z"/>
		<path class="st9" d="M60.1,93.3c0,2.6-8,4.7-17.9,4.7s-17.9-2.1-17.9-4.7s8-4.7,17.9-4.7S60.1,90.7,60.1,93.3"/>
		<path class="st10" d="M52.4,93.2L46,95.6c0.1,0.9-0.2,1.8-0.8,2.4c-2,2.1-5.2,1.1-8.1-1.2c-0.6-0.5-2.5-4.7-1.2-6.3
			c0.8-1.1,3.5-1.4,4.9-0.8c0,0,4.4-1.6,5.6-1.3C47.2,88.6,52.4,93.2,52.4,93.2"/>
		<path class="st11" d="M52.4,93.2c0.5,1.1-0.2,1.4-0.9,1.8s-2.7,0.9-4.5,1.7c-0.1,0.9-0.5,1.7-1.2,2.3c-1.7,1.5-4.8,1.8-7.9-0.9
			c-1.9-1.8-3-4-2.4-6.4c0.2,2.1,1.3,4.1,3,5.4c1.2,1.2,2.9,1.7,4.6,1.5c1.6-0.1,2.9-1.4,3-3L52.4,93.2z"/>
		<path class="st12" d="M45.6,90.3c0.2,0,0.3,0.2,0.2,0.4c0,0.1-0.1,0.2-0.2,0.2c-0.2,0-0.3-0.1-0.4-0.2c0-0.2,0.1-0.3,0.2-0.4
			C45.5,90.3,45.6,90.3,45.6,90.3"/>
		<path class="st12" d="M43.4,95c0.2,0,0.3,0.1,0.3,0.3c0,0,0,0,0,0c0,0.2-0.1,0.3-0.3,0.3c-0.2,0-0.3-0.1-0.3-0.3
			C43,95.1,43.2,95,43.4,95C43.4,95,43.4,95,43.4,95"/>
		<path class="st12" d="M42.5,91.4c0.2,0,0.3,0.1,0.3,0.3S42.7,92,42.5,92c-0.2,0-0.3-0.1-0.3-0.3c0,0,0,0,0,0
			C42.2,91.5,42.4,91.4,42.5,91.4"/>
		<path class="st12" d="M39.2,94.6c0.2,0,0.3,0.1,0.3,0.3c0,0.2-0.1,0.3-0.3,0.3s-0.3-0.1-0.3-0.3C38.9,94.7,39,94.6,39.2,94.6"/>
		<path class="st11" d="M45.9,90.6c0,0.2-0.1,0.3-0.3,0.3c-0.2,0-0.3-0.1-0.3-0.3s0.1-0.3,0.3-0.3S45.9,90.4,45.9,90.6
			C45.9,90.6,45.9,90.6,45.9,90.6"/>
		<path class="st11" d="M42.8,91.7c0,0.2-0.1,0.3-0.3,0.3c-0.2,0-0.3-0.1-0.3-0.3c0-0.2,0.1-0.3,0.3-0.3l0,0
			C42.7,91.4,42.8,91.5,42.8,91.7"/>
		<path class="st11" d="M39.5,94.9c0,0.2-0.1,0.3-0.3,0.3c0,0,0,0,0,0c-0.2,0-0.3-0.1-0.3-0.3c0-0.2,0.1-0.3,0.3-0.3l0,0
			C39.4,94.6,39.5,94.7,39.5,94.9C39.5,94.9,39.5,94.9,39.5,94.9"/>
		<path class="st11" d="M43.7,95.3c0,0.2-0.1,0.3-0.3,0.3c-0.2,0-0.3-0.1-0.3-0.3c0-0.2,0.1-0.3,0.3-0.3
			C43.5,95,43.7,95.1,43.7,95.3C43.7,95.3,43.7,95.3,43.7,95.3"/>
		<path class="st13" d="M94.8,34.9c1.8-0.1,3.4,1.3,3.5,3.2c0.1,1.8-1.3,3.4-3.2,3.5c-0.6,0-1.2-0.1-1.7-0.4
			c0.2-1.3,0.4-2.6,0.4-3.9c0-0.7,0-1.4,0-2.1h0.1C94.1,35,94.4,35,94.8,34.9"/>
		<path class="st14" d="M86.5,23.6c0,0.3,0.1,0.6,0.1,0.9c-0.2-0.2-0.5-0.4-0.8-0.7L86.5,23.6"/>
		<path class="st13" d="M93.3,28.9c-3.8-2.2-15.1-32.6-36-13.9c-2.9,2.6-7.9,12.8-7.7,21.8c0.2,9.4,2.5,15,7.4,19.2
			c3.6,3.1,8.2,4.7,12.9,4.8c5,0.1,9.9-1.4,14-4.3c6.3-4.4,10.2-11.6,10.4-19.3c0-0.7,0-1.4,0-2.1C94.2,33,93.9,31,93.3,28.9"/>
		<path class="st15" d="M74.5,44.5c-2.5,3.4-1.1,7.7,1.5,8.5"/>
		<path class="st15" d="M66.4,53.4c2.7,1.2,5.4-0.4,5.2-2.8"/>
		<path class="st16" d="M91.5,21.8c-0.3-0.5-0.7-1.1-1.1-1.7L91.5,21.8z"/>
		<line class="st16" x1="91.5" y1="21.8" x2="91.5" y2="21.8"/>
		<path class="st17" d="M73,4.4c-0.2,1.9,0.1,3.8,0.8,5.5l0,0l0,0c0.8-1.6,2-2.9,3.6-3.8"/>
		<path class="st18" d="M67.9,34.9c-0.1,0.8-0.7,1.4-1.5,1.5L58,36.8c-2.4,0-3.1-0.6-3.1-1.7v-6.9c0-1.5,0.8-2,2.3-2l8.6-0.4
			c1.5,0,2.1,0.4,2,1.8L67.9,34.9z"/>
		<path class="st19" d="M54.8,32.6c-1.6,0.3-3.1,0.6-4.7,0.9"/>
		<path class="st19" d="M87.9,24.9L87.9,24.9c-6.3,1.8-14.5,4-21.3,5.5"/>
		<path class="st20" d="M82.7,28.8c2.7,0.5,4.5,3.1,4,5.8c-0.5,2.7-2.6,5.3-6.2,4.7c-2.7-0.5-4-3.8-3.5-6.5
			C77.5,30.1,80.1,28.3,82.7,28.8"/>
		<path class="st21" d="M81.1,35c0.4,0,0.8,0.4,0.7,0.9c0,0,0,0.1,0,0.1c-0.1,0.5-0.5,0.8-0.9,0.7c0,0-0.1,0-0.1,0
			c-0.7-0.1-0.7-0.7-0.6-1.1C80.3,35.2,80.7,34.9,81.1,35"/>
		<path class="st15" d="M68.9,44.5c-0.4,0.1-5-0.9-4-4.3c0.6-2,5.1-1.2,5.5-1.1"/>
		<path class="st14" d="M91.5,24.3c-0.3-0.5-0.7-1.1-1.1-1.7L91.5,24.3z M73.9,9.4c11.7-3.6,20.6,1.1,25.4,17.7
			c0.2,0.7-0.1,2.7-0.6,2.2c-0.7-0.8-3.2-3.6-3.1-3.1l1.2,3.8c0.2,0.6,0,2.9-0.3,2.4l-4.9-7.9c3.1,5.3,2.6,7.5,2.6,7.5
			c-0.3-0.1-0.5-0.2-0.8-0.4c-3.8-2.2-8-9.4-8-9.4c0.6,1.3,1,2.6,1.2,4c-2-1.2-3.9-2.7-5.4-4.5c-1.7-1.9-3.2-4-4.5-6.3
			c0.4,2.3,0.5,4.7,0.3,7.1C75,21.5,73.3,20,72,18.1c-1-1.5-3.8-6-3.8-6c-1.3,5.4-4.6,9-9.2,11.4l2.6-8.3C57.8,22.1,53,26.5,53,26
			c0.1-0.9,0.6-1.9,0.9-4.3c0,0-2.9,5.8-4.6,7.2c-0.4,0.3-0.8-0.9-0.6-1.4C51.7,13.8,58.9,4.3,69.7,7.3c0,0,3.7,1.4,4.2,1.9
			L73.9,9.4z"/>
		<path class="st12" d="M57.8,75.4c0.2,0,0.3,0.1,0.3,0.3c0,0,0,0,0,0c0,0.2-0.1,0.3-0.3,0.3c-0.2,0-0.3-0.1-0.3-0.3
			C57.5,75.5,57.6,75.4,57.8,75.4C57.8,75.4,57.8,75.4,57.8,75.4"/>
		<path class="st12" d="M55.8,78.9c0.2,0,0.3,0.1,0.3,0.3v0c0,0.2-0.1,0.3-0.3,0.3c0,0,0,0,0,0c-0.2,0-0.3-0.1-0.3-0.3
			C55.4,79,55.6,78.9,55.8,78.9C55.7,78.9,55.7,78.9,55.8,78.9"/>
		<path class="st12" d="M53.9,71.8c0.2,0,0.3,0.1,0.3,0.3c0,0.2-0.1,0.3-0.3,0.3c-0.2,0-0.3-0.1-0.3-0.3
			C53.6,71.9,53.7,71.8,53.9,71.8C53.9,71.8,53.9,71.8,53.9,71.8"/>
		<path class="st12" d="M52.7,75.3c0.2,0,0.3,0.1,0.3,0.3c0,0.2-0.1,0.3-0.3,0.3c-0.2,0-0.3-0.1-0.3-0.3S52.5,75.3,52.7,75.3
			C52.7,75.3,52.7,75.3,52.7,75.3"/>
		<path class="st11" d="M63.9,79.2l1,3.5c0,1.1-10.4,3.4-10.9,2.3l-0.7-3.8c-0.1-0.8-0.3-2.4-0.9-3c-3.4-1-3.5-4.7-2.4-6.7
			c1.5-2.8,8.6,2.2,9.9-2.1c4.4,0.2,5.2,4.5,3.1,6.4L63.9,79.2z"/>
		<path class="st10" d="M63,79.2l0.9,3.5c0,1.1-10.4,3.4-10.9,2.3l-0.7-3.8c-0.2-0.8-0.3-2.4-0.9-3c-3.4-1-3.5-4.7-2.4-6.7
			c1.5-2.8,5-4,5-4c-1.2,2.2,1.1,2.4,1.9,1.5c0.1,0.3,0.2,0.6,0.4,0.8c0.5,0.9,1.6,1.2,2.5,0.7c0.5-0.2,0.8-0.7,0.9-1.2
			c2,0.1,3.6,1.8,3.5,3.8c0,1-0.5,1.9-1.2,2.6L63,79.2z"/>
		<path class="st11" d="M58.1,75.7c0,0.2-0.1,0.3-0.3,0.3c-0.2,0-0.3-0.1-0.3-0.3c0-0.2,0.1-0.3,0.3-0.3
			C57.9,75.4,58.1,75.5,58.1,75.7C58.1,75.7,58.1,75.7,58.1,75.7"/>
		<path class="st11" d="M53,75.6c0,0.2-0.1,0.3-0.3,0.3c0,0,0,0,0,0c-0.2,0-0.3-0.1-0.3-0.3c0,0,0,0,0,0c0-0.2,0.1-0.3,0.3-0.3
			C52.9,75.3,53,75.4,53,75.6"/>
		<path class="st11" d="M54.2,72.1c0,0.2-0.1,0.3-0.3,0.3c-0.2,0-0.3-0.1-0.3-0.3c0,0,0,0,0,0c0-0.2,0.1-0.3,0.3-0.3c0,0,0,0,0,0
			C54,71.8,54.2,71.9,54.2,72.1"/>
		<path class="st11" d="M56.1,79.2c0,0.2-0.1,0.3-0.3,0.3c0,0,0,0,0,0c-0.2,0-0.3-0.1-0.3-0.3c0-0.2,0.1-0.3,0.3-0.3c0,0,0,0,0,0
			C55.9,78.9,56.1,79,56.1,79.2L56.1,79.2"/>
		<path class="st11" d="M60.3,80.5c0,0.2-0.1,0.3-0.3,0.3c-0.2,0-0.3-0.1-0.3-0.3c0-0.2,0.1-0.3,0.3-0.3l0,0
			C60.1,80.2,60.3,80.3,60.3,80.5"/>
		<path class="st13" d="M88.1,76.2c-0.3,11.4-8.1,10-19.2,8.8c-0.4-0.1-0.7,0-1.1,0.1c-6.8,2.3-9-1.3-6.6-1.3c0.6,0.1,1.2,0,1.7-0.2
			c0.6-0.2,0.6-0.4,0.6-0.4c-0.6-0.1-1.2-0.2-1.9-0.4c-0.7-0.2-1.4-0.4-2.1-0.8c-0.8-0.6-0.7-1.9,0.3-1.8l1.8,0.3
			c0.1,0,1.5,0.2,1.6,0.2v-0.1c-1.2-0.3-2.3-1-3.1-1.8c-0.3-0.4-0.2-1,0.2-1.3c0.2-0.2,0.5-0.2,0.8-0.1c0,0,1.8,0.8,2.3,1
			c0.4,0.2,1,0.3,1.4,0.4c0,0-0.7-3-0.2-3.2c1-0.4,1.9,0.9,3.3,3c0.3,0.5,0.8,1,1.5,1.2c5.4,1.5,13.1,2.2,12.9-2.2
			C82.3,77.5,88.1,76.1,88.1,76.2"/>
		<path class="st22" d="M102.9,78l-0.7,6.2H89.9L89.5,78c0,0.6,2.9,1,6.6,1s6.6-0.5,6.6-1H102.9z"/>
		<path class="st22" d="M102.2,84.1l-0.5,4.2h-0.1c0-0.4-2.6-0.7-5.8-0.7c-3,0-5.5,0.3-5.8,0.7l-0.2-4.1L102.2,84.1z"/>
		<path class="st20" d="M101.8,88.3l-1,9.6c0,0-0.9,1-5.4,1c-3.6,0-4.7-1-4.7-1l-0.5-9.5c0.3,0.4,2.8,0.7,5.8,0.7
			C99.1,89,101.7,88.7,101.8,88.3L101.8,88.3z"/>
		<path class="st23" d="M96.1,76.9c3.6,0,6.8,0.5,6.8,1s-3.2,1-6.8,1s-6.6-0.4-6.6-0.9c0,0,0-0.1,0-0.1C89.9,77.4,92.7,77,96.1,76.9
			"/>
		<path class="st24" d="M95.9,87.6c3.2,0,5.8,0.3,5.8,0.7S99.1,89,95.9,89c-3,0-5.5-0.3-5.8-0.6v-0.1C90.3,87.8,92.8,87.6,95.9,87.6
			"/>
	</g>
</g>
</svg>
