<?xml version="1.0" encoding="utf-8"?>
<!-- Generator: Adobe Illustrator 26.2.1, SVG Export Plug-In . SVG Version: 6.00 Build 0)  -->
<svg version="1.1" id="Capa_1" xmlns="http://www.w3.org/2000/svg" xmlns:xlink="http://www.w3.org/1999/xlink" x="0px" y="0px"
	 viewBox="0 0 151.5 65.1" style="enable-background:new 0 0 151.5 65.1;" xml:space="preserve">
<style type="text/css">
	.st0{fill:#A886B1;}
</style>
<path class="st0" d="M129.6,2.2C147.4,4,151,17.5,151,29.9c0,9.4-1.3,28.6-16.1,32.9c-14.3,4-85.4,2-101.2,0.8
	C18.2,62.4,13.7,48.8,13.7,33c0-19,6.4-30.6,23-31.6C68.8-0.5,103.3-0.6,129.6,2.2"/>
<path class="st0" d="M26.9,30.2c-3,0.9-6.4,1-9.7,0.3C5.2,27.5,0.3,20.4,0.3,20.4s9,3,15.6,2.8c2.1,0,4-0.3,5.9-0.8"/>
</svg>
