<?xml version="1.0" encoding="utf-8"?>
<!-- Generator: Adobe Illustrator 26.2.1, SVG Export Plug-In . SVG Version: 6.00 Build 0)  -->
<svg version="1.1" id="Capa_1" xmlns="http://www.w3.org/2000/svg" xmlns:xlink="http://www.w3.org/1999/xlink" x="0px" y="0px"
	 viewBox="0 0 239.8 186.6" style="enable-background:new 0 0 239.8 186.6;" xml:space="preserve">
<style type="text/css">
	.st0{fill:#E30613;}
	.st1{fill:#814114;}
	.st2{clip-path:url(#SVGID_00000006692512950806826340000012080976449953423292_);}
	.st3{fill:#FFFFFF;}
	.st4{clip-path:url(#SVGID_00000012467412560980981730000001193954161032078781_);}
	.st5{fill:#F39200;}
	.st6{clip-path:url(#SVGID_00000149379908839120416550000005147778687783270534_);}
	.st7{fill:#FCC700;}
	.st8{clip-path:url(#SVGID_00000148633799811072703350000018109777566939679397_);}
	.st9{clip-path:url(#SVGID_00000176020894676563903410000002295556961890321046_);}
	.st10{clip-path:url(#SVGID_00000116205335634226659060000016092221969110377915_);}
	.st11{fill:#1D1D1B;}
	.st12{clip-path:url(#SVGID_00000031892785549551389930000003873858777505050813_);}
	.st13{clip-path:url(#SVGID_00000170999633736118237600000013933639127568230841_);}
	.st14{fill:#F3A5C2;}
	.st15{fill:#DAD8CC;}
	.st16{fill:#0D181C;}
	.st17{fill:none;stroke:#1D1D1B;stroke-width:0.6;stroke-linecap:round;}
	.st18{fill:#A85318;}
	.st19{fill:none;stroke:#1D1D1B;stroke-width:0.8;}
	.st20{fill:none;stroke:#DAD8CC;stroke-width:0.32;stroke-linecap:round;stroke-linejoin:round;}
	.st21{fill-rule:evenodd;clip-rule:evenodd;fill:#FFFFFF;}
	.st22{fill:none;stroke:#DAD8CC;stroke-width:0.28;stroke-linecap:round;}
	.st23{fill:#A4A092;}
	.st24{fill-rule:evenodd;clip-rule:evenodd;fill:#E30613;}
	.st25{fill-rule:evenodd;clip-rule:evenodd;fill:#A4A092;}
	.st26{fill-rule:evenodd;clip-rule:evenodd;fill:#DAD8CC;}
	.st27{fill:none;stroke:#DAD8CC;stroke-width:0.28;stroke-linecap:round;stroke-linejoin:round;}
	.st28{fill:#B4B0A4;}
	.st29{fill:url(#SVGID_00000166652594280368380620000012984038851035416995_);}
	.st30{fill:url(#SVGID_00000046311604252501309080000001629384424367876225_);}
</style>
<g id="Capa_2_00000019639969527999112780000017799090114769545106_">
	<g id="Capa_1-2">
		<path class="st0" d="M199.1,161.3c-13.2-1.7-13.2-1.7-24.1-3.4s-15-2.2-30.3-1.6c-3.5,0.2-11.1,0.7-14.6,0.4
			c-3.7-0.2-13.6,1.1-17.1,0.1c-9.7-2.8-27.5-0.2-37.9-0.1c-15.2,0.1-23.4-2.2-38,0.6S8.2,166.2,0,175.6c0,6.6,3.8,4.8,15.6,6.1
			c14,1.6,47.8,1.2,61.8,2.4c25.7,2.3,51.6,3.3,77.3,1.3c19.6-1.5,39-4.9,57.9-10.1c2.6-0.7,5.6-1.9,5.8-3.9c0-1-0.4-1.9-1.1-2.6
			C213.3,164.1,206.4,160.1,199.1,161.3"/>
		<rect x="38.4" y="70.5" class="st1" width="32.9" height="85"/>
		<path class="st0" d="M63.4,112.5c0,0,1.1,12.2,1.8,17.3c0.9,6.2,1.5,12.4,1.6,18.7l-6.3,0.3l-0.8-3.2c-1.5,0.2-3.1,0.3-4.7,0.4
			c-2-0.1-4-0.3-6-0.6l-0.8,3.5h-6c0.2-3.8,0-7.5,2.3-22.9c1-6.7,1.8-16.7,1.8-16.7s7.5,2,10.3,1.8c2.2-0.3,4.4-0.9,6.5-1.8
			L63.4,112.5z"/>
		<g>
			<defs>
				<path id="SVGID_1_" d="M56.6,111.1c-2.8,0.2-10.3-1.8-10.3-1.8s-0.8,10-1.8,16.7c-2.3,15.3-2.1,19-2.3,22.9h6l0.8-3.5
					c2,0.4,4,0.6,6,0.6c1.6-0.1,3.1-0.2,4.7-0.4l0.8,3.2l6.3-0.3c-0.2-6.3-0.7-12.5-1.6-18.7c-0.7-5-1.8-17.3-1.8-17.3l-0.2-3.3
					C61.1,110.2,58.9,110.8,56.6,111.1"/>
			</defs>
			<clipPath id="SVGID_00000018935500739621476960000006166957761545503628_">
				<use xlink:href="#SVGID_1_"  style="overflow:visible;"/>
			</clipPath>
			<g style="clip-path:url(#SVGID_00000018935500739621476960000006166957761545503628_);">
				<path class="st3" d="M42,139.2c0,0,3.8,2.5,13.4,2.6c4.3-0.1,8.7-0.7,12.8-2l-0.3-4.8c0,0-7.4,2.1-13,1.9
					c-4.1-0.2-8.1-0.9-12-2.2L42,139.2z"/>
				<path class="st3" d="M66.8,130.2c-3.9,1.4-8,2-12.2,1.9c-7.8-0.5-11.5-2.4-11.5-2.4l0.6-4.4c3.7,1.1,7.5,1.8,11.4,1.8
					c7.5,0.2,10.6-1.6,11.6-1.6V130.2z"/>
				<path class="st3" d="M66.9,120.1c-3.5,1.5-7.3,2.2-11.2,2.2c-7.8-0.1-11.6-1.9-11.6-1.9l0.4-4.5c0,0,4,2.2,10.8,2.1
					c7.5-0.1,10.4-2.1,11.4-2.2C66.8,117.1,66.9,120.1,66.9,120.1"/>
			</g>
		</g>
		<g>
			<defs>
				<rect id="SVGID_00000033339700436534736100000005895555065072823193_" x="38.4" y="70.5" width="32.9" height="85"/>
			</defs>
			<clipPath id="SVGID_00000169525337024778036040000017301326584016156034_">
				<use xlink:href="#SVGID_00000033339700436534736100000005895555065072823193_"  style="overflow:visible;"/>
			</clipPath>
			<g style="clip-path:url(#SVGID_00000169525337024778036040000017301326584016156034_);">
				<path class="st5" d="M51,72.4c-3.4-5.6-7.7-6.5-8.1-6.6s3.2,3.4,4.9,8c0.5,1.5,0.8,3,0.8,4.6l4.2-1.2
					C52.4,75.5,51.8,73.9,51,72.4"/>
			</g>
		</g>
		<g>
			<defs>
				<path id="SVGID_00000000210509375305903180000002163674099773205683_" d="M46.2,70.5c0.6,1,1.1,2.1,1.6,3.3
					c0.5,1.5,0.8,3,0.8,4.6l4.2-1.2c-0.3-1.7-1-3.3-1.8-4.8c-0.4-0.6-0.8-1.3-1.3-1.8H46.2z"/>
			</defs>
			<clipPath id="SVGID_00000071531766651044646900000007222514320290150826_">
				<use xlink:href="#SVGID_00000000210509375305903180000002163674099773205683_"  style="overflow:visible;"/>
			</clipPath>
			<g style="clip-path:url(#SVGID_00000071531766651044646900000007222514320290150826_);">
				<path class="st7" d="M52.5,74.2c0,0-1.6,0.6-3.3,1.1c-0.7,0.2-1.4,0.4-2.1,0.6l-1.3-2.3c1.6-0.7,3.2-1.3,4.9-1.8
					C52.5,71.3,52.5,74.2,52.5,74.2"/>
				<path class="st7" d="M49.5,69c0,0-1.5,0.7-3.2,1.4c-0.7,0.3-1.4,0.6-2.1,0.8l-1.5-2.1c0,0,2.9-1.6,4.7-2.2S49.5,69,49.5,69"/>
			</g>
		</g>
		<g>
			<defs>
				<rect id="SVGID_00000081623215495287893500000002635408345141876876_" x="38.4" y="70.5" width="32.9" height="85"/>
			</defs>
			<clipPath id="SVGID_00000067928846637995849780000018282326947125142411_">
				<use xlink:href="#SVGID_00000081623215495287893500000002635408345141876876_"  style="overflow:visible;"/>
			</clipPath>
			<g style="clip-path:url(#SVGID_00000067928846637995849780000018282326947125142411_);">
				<path class="st5" d="M59.8,72.8c3.4-5.6,8-7.1,8.4-7.2s-2.7,3.6-5.1,8.8c-0.5,1.3-1,2.7-1.3,4.1l-4.3-1.3
					C58.3,75.7,59,74.2,59.8,72.8"/>
			</g>
		</g>
		<g>
			<defs>
				<path id="SVGID_00000077319823824634152190000018041586279799693498_" d="M61.5,70.5c-0.6,0.7-1.1,1.5-1.6,2.3
					c-0.8,1.4-1.6,2.9-2.2,4.4l4.3,1.3c0.3-1.4,0.8-2.7,1.3-4.1c0.6-1.3,1.3-2.6,2.1-3.9H61.5z"/>
			</defs>
			<clipPath id="SVGID_00000049930526677871890930000015470092400305619641_">
				<use xlink:href="#SVGID_00000077319823824634152190000018041586279799693498_"  style="overflow:visible;"/>
			</clipPath>
			<g style="clip-path:url(#SVGID_00000049930526677871890930000015470092400305619641_);">
				<path class="st7" d="M58.3,74c0,0,1.6,0.6,3.3,1.1c0.7,0.2,1.4,0.4,2.1,0.6l1.3-2.2c-1.6-0.7-3.2-1.3-4.9-1.8
					C58.3,71.1,58.3,74,58.3,74"/>
				<path class="st7" d="M61.2,68.9c0,0,1.5,0.7,3.2,1.4c0.7,0.3,1.4,0.6,2.1,0.8l1.5-2c-1.5-0.8-3.1-1.6-4.7-2.2
					C61.6,66.1,61.2,68.9,61.2,68.9"/>
			</g>
		</g>
		<path class="st0" d="M46.6,107.3c0,0-4.5,4.8-5.6,9.7c-1.2,5.6,3.2,11.3,3.2,11.3l3.2-2.4c0,0-3-4.8-3-6.4c0.1-2.6,1.2-5.1,3-7
			L46.6,107.3z"/>
		<g>
			<defs>
				<path id="SVGID_00000063592115286873001670000004050128051276584331_" d="M41.1,117c-1.2,5.6,3.2,11.3,3.2,11.3l3.2-2.4
					c0,0-3-4.8-3-6.4c0.1-2.6,1.2-5.1,3-7l-0.8-5.2C46.6,107.3,42.1,112.1,41.1,117"/>
			</defs>
			<clipPath id="SVGID_00000150790257905364554700000006831168632911950249_">
				<use xlink:href="#SVGID_00000063592115286873001670000004050128051276584331_"  style="overflow:visible;"/>
			</clipPath>
			<g style="clip-path:url(#SVGID_00000150790257905364554700000006831168632911950249_);">
				<polygon class="st3" points="46.9,116.8 39.5,109.4 40.8,108.3 48,115.9 				"/>
				<polygon class="st3" points="45.5,119.3 36.6,114 37.5,112.6 46.4,118.2 				"/>
				<polygon class="st3" points="46.2,121.1 35.9,122.3 35.8,120.7 46.2,119.7 				"/>
				<polygon class="st3" points="48.7,122.4 40.1,128.1 39.2,126.7 48,121.1 				"/>
			</g>
		</g>
		<path class="st11" d="M44.2,128.4c0,0,2.9,4.7,3.4,4.1s-0.8-3.3-0.8-3.3s2.8,2,3.3,1.3s-2.8-4.4-2.8-4.4L44.2,128.4z"/>
		<path class="st0" d="M64,108c2.1,2.7,3.5,5.8,4.2,9.1c1,5.7-3.7,11.2-3.7,11.2l-3.1-2.5c0,0,3.2-4.6,3.3-6.3
			c0.2-2.2-0.5-4.4-1.9-6.1L64,108z"/>
		<g>
			<defs>
				<path id="SVGID_00000108280732327771681110000016707090770943164322_" d="M62.9,113.4c1.5,1.7,2.2,3.9,1.9,6.1
					c-0.1,1.7-3.3,6.3-3.3,6.3l3.1,2.5c0,0,4.7-5.5,3.7-11.2c-0.7-3.3-2.2-6.5-4.2-9.2L62.9,113.4z"/>
			</defs>
			<clipPath id="SVGID_00000036241502273507481890000011113322659851067796_">
				<use xlink:href="#SVGID_00000108280732327771681110000016707090770943164322_"  style="overflow:visible;"/>
			</clipPath>
			<g style="clip-path:url(#SVGID_00000036241502273507481890000011113322659851067796_);">
				<polygon class="st3" points="62.5,116.6 70.1,109.7 68.9,108.5 61.3,115.7 				"/>
				<polygon class="st3" points="63.7,119.3 72.8,114.3 71.9,112.9 62.9,118.1 				"/>
				<polygon class="st3" points="62.9,121 73.1,122.7 73.3,121.1 63,119.6 				"/>
				<polygon class="st3" points="60.4,122.2 68.7,128.3 69.6,126.9 61.1,120.9 				"/>
			</g>
		</g>
		<g>
			<defs>
				<rect id="SVGID_00000097490171829074292400000005239368765326220985_" x="38.4" y="70.5" width="32.9" height="85"/>
			</defs>
			<clipPath id="SVGID_00000015319772424377974370000015258152117161442437_">
				<use xlink:href="#SVGID_00000097490171829074292400000005239368765326220985_"  style="overflow:visible;"/>
			</clipPath>
			<g style="clip-path:url(#SVGID_00000015319772424377974370000015258152117161442437_);">
				<path class="st14" d="M30.4,91.4c0,0,6.5-0.9,10-3.6c4.5-3.4,7.4-6.2,7.5-6.8s-3.3-1.6-6.7-0.1S30.4,91.4,30.4,91.4"/>
				<path class="st15" d="M48.9,80.2c-3.4-1.3-7-1.4-10.5-0.3c-3.4,1.2-6,3.9-7.2,7.3c-0.9,2.9-1.7,4.5-0.9,4.3c1-0.6,3.9-4.6,7.4-7
					C41.2,82.4,45,80.9,48.9,80.2"/>
				<path class="st14" d="M79.3,90.6c-3.6,0.3-7.3-0.6-10.3-2.6c-4.7-3.2-6.8-6.2-7-6.8s6.3,1.2,9.8,2.1S79.3,90.5,79.3,90.6"/>
				<path class="st15" d="M73.5,81.1c3.1,1.7,5.4,4.7,6,8.3c0.3,2-0.3,1.2-1.2,0.4s-2.6-4-6.4-5.7c-2-0.9-4.1-1.5-6.3-1.6l-2.1-2.9
					C66.9,78.8,70.5,79.4,73.5,81.1"/>
				<path class="st15" d="M42.5,93.9c0.7,6.5,3.7,23.3,13.2,22.1s9.3-10.4,11.1-15.6C69,94.1,67,80.5,63.5,78s-12.5-2.6-16.3,0.7
					S41.8,87.4,42.5,93.9"/>
				<path class="st16" d="M64.3,128.2c0,0-2.5,4.7-3.1,4.1S62,129,62,129s-2.7,2.1-3.2,1.5s2.7-4.7,2.7-4.7L64.3,128.2z"/>
				<path class="st3" d="M58.8,87.3c-0.4,1.8,0,4.5,2.8,4.8c3.2,0.3,4.1-1.8,4.2-3.1c0.4-2-1-4-3-4.4C60.4,84.1,59,86.2,58.8,87.3"
					/>
				<path class="st11" d="M61.5,88.8c-0.1,0.3,0,0.6,0.3,0.8c0,0,0.1,0,0.1,0c0.3,0.1,0.6-0.1,0.7-0.4c0,0,0-0.1,0-0.1
					c0.1-0.3-0.1-0.7-0.5-0.7c0,0,0,0,0,0C61.9,88.3,61.6,88.5,61.5,88.8"/>
				<path class="st3" d="M44,88c-0.5,1.7-0.2,4.5,2.4,4.9c1.8,0.5,3.6-0.6,4.1-2.4c0-0.2,0.1-0.3,0.1-0.5c0.5-2-0.7-4-2.7-4.6
					c0,0,0,0,0,0C45.7,84.8,44.3,86.9,44,88"/>
				<path class="st11" d="M46.6,89.4c-0.1,0.3,0,0.6,0.3,0.8c0,0,0.1,0,0.1,0c0.3,0.1,0.6-0.1,0.7-0.4c0,0,0-0.1,0-0.1
					c0.1-0.3-0.1-0.7-0.5-0.7C47,89,46.7,89.1,46.6,89.4"/>
				<path class="st17" d="M55,111.8c0,0.8,0.1,1.7,0.3,2.5c0.2,0.5,0.5,1,0.8,1.5"/>
				<path class="st17" d="M61.3,113.5c0.4-0.5,0.6-1.2,0.5-1.8c-0.1-0.4-0.2-0.8-0.5-1.1"/>
				<path class="st14" d="M55,112c0.6,0,1.7-1.1,2.6-2.2s1.8-2.2,0.2-3.2c-1.8-0.9-4-0.9-5.8,0c-1.4,0.9-0.6,2-0.1,2.6
					C52.8,110.1,54.4,112,55,112"/>
				<polygon class="st7" points="56.1,68.6 48.5,128.1 46,127.8 53.6,68.6 				"/>
				<path class="st7" d="M52.8,133.3c-0.3,3.3-3.3,5.7-6.6,5.4c-3.3-0.3-5.7-3.3-5.4-6.6c0.3-3.3,3.2-5.7,6.5-5.4
					C50.6,127.1,53.1,130,52.8,133.3C52.8,133.3,52.8,133.3,52.8,133.3"/>
				<path class="st7" d="M49.6,100.1c-0.9,3.7-2.1,7.4-3.5,11c-1.7,4-3,7.6-2,10c0.8,2,6.4,2.5,7.7,1.2c2.1-2.2,1.2-6.2,0.8-10.3
					c-0.5-4.6-0.5-11.6-0.5-11.6L49.6,100.1z"/>
				<path class="st15" d="M47.4,148.8l-0.9,10.7c-1.1,0.1-2.1,0.1-3.2,0c0-0.1,0.9-10.7,0.9-10.7H47.4z"/>
				<path class="st15" d="M62.6,148.7l0.8,10.7c1.1,0,2.1-0.1,3.2-0.3c0-0.1-0.9-10.6-0.9-10.6L62.6,148.7z"/>
			</g>
		</g>
		<path class="st18" d="M76.3,25.5h-3.4c0,0,2.7-3.5,1.6-6.5c-1.2-3.2-6.6-3.1-6.6-3.1s3.1,1.4,3.3,3.8c0,2.3-1.2,4.4-3.1,5.6v0.2
			h-0.7c-3.3,0.2-21.9,0.2-25.2,0h-0.8v-0.2c-1.9-1.2-3-3.3-3-5.5c0.2-2.5,3.3-3.8,3.3-3.8s-5.4-0.1-6.6,3.1c-1.1,3,1.6,6.5,1.6,6.5
			H25.5v43.8c0,0,6.8,1.2,8.3,11.4c0.9,5.7,0.3,78.2,0.3,78.2h41.6c0,0-0.6-72.5,0.3-78.3c1.5-10.2,8.3-11.4,8.3-11.4V25.5H76.3z
			 M70.9,151.7H50.7l-11.9-0.1l-0.3-79.8l32.7,0.1L70.9,151.7z"/>
		<path class="st1" d="M31.5,161.9h46.8c0.2,0,0.3,0,0.5-0.1l0.2-0.1v-1.8c0-0.6-0.5-1.1-1.1-1.1H31.8c-0.6,0-1.1,0.5-1.1,1.1v1.8
			c0.1,0.1,0.2,0.1,0.3,0.2C31.1,161.9,31.3,161.9,31.5,161.9"/>
		<path class="st18" d="M29.1,165.5h51.6c0.2,0,0.3,0,0.5-0.1l0.2-0.1v-2.6c0-0.6-0.5-1.1-1.1-1.1h-51c-0.6,0-1.1,0.5-1.1,1.1v2.6
			c0.1,0.1,0.2,0.1,0.3,0.2C28.7,165.4,28.9,165.5,29.1,165.5"/>
		<path class="st3" d="M72.1,48.6c0,9.6-7.8,17.4-17.3,17.4s-17.4-7.8-17.4-17.3c0-9.6,7.8-17.4,17.3-17.4c0,0,0,0,0,0
			C64.4,31.3,72.1,39,72.1,48.6C72.1,48.6,72.1,48.6,72.1,48.6"/>
		<path class="st18" d="M54.8,16c-1.4-1.3-2-3.1-1.7-5c0.5-3.3,2.2-11,2.2-11S57,9.9,57,11.3C57,13.1,56.2,14.8,54.8,16"/>
		<path class="st1" d="M52.6,18h4.4c0.2,0,0.3,0,0.5,0l0.2-0.1V16c0-0.6-0.5-1.1-1.1-1.1c0,0,0,0,0,0h-3.8c-0.6,0-1.1,0.5-1.1,1.1
			c0,0,0,0,0,0v1.8c0.1,0.1,0.2,0.1,0.3,0.2C52.3,18,52.5,18,52.6,18"/>
		<path class="st18" d="M51,20.5h7.6c0.2,0,0.3,0,0.5-0.1l0.2-0.1v-1.8c0-0.6-0.5-1.1-1.1-1.1h-7c-0.6,0-1.1,0.5-1.1,1.1v1.8
			c0.1,0.1,0.2,0.1,0.3,0.2C50.6,20.4,50.8,20.4,51,20.5"/>
		<path class="st1" d="M44.6,23.2h20.4c0.2,0,0.3,0,0.5,0l0.2-0.1v-1.8c0-0.6-0.5-1.1-1.1-1.2c0,0,0,0-0.1,0H44.9
			c-0.6,0-1.1,0.5-1.1,1.1c0,0,0,0,0,0v1.8l0.3,0.2C44.3,23.1,44.5,23.1,44.6,23.2"/>
		<path class="st18" d="M42.2,25.9h25.2c0.2,0,0.3,0,0.5,0l0.2-0.1v-1.8c0-0.6-0.5-1.1-1.1-1.1c0,0,0,0,0,0H42.5
			c-0.6,0-1.1,0.5-1.1,1.1c0,0,0,0,0,0v1.8c0.1,0.1,0.2,0.1,0.3,0.2C41.9,25.9,42.1,25.9,42.2,25.9"/>
		<line class="st19" x1="54" y1="32.8" x2="54" y2="37.7"/>
		<line class="st19" x1="55.6" y1="32.8" x2="55.6" y2="37.7"/>
		<line class="st19" x1="54.8" y1="59.7" x2="54.8" y2="64.5"/>
		<line class="st19" x1="39" y1="48.2" x2="43.8" y2="48.2"/>
		<line class="st19" x1="65.8" y1="48.2" x2="70.7" y2="48.2"/>
		<path class="st16" d="M56.8,46.8c0,0-9.9,5.9-10.6,5.9c-0.4,0-0.9-0.1-1.2-0.5l-2.1,3.9l4.5-0.4c-0.2-0.4-0.2-0.9,0-1.3
			C47.5,53.8,56.8,46.8,56.8,46.8"/>
		<path class="st16" d="M53.3,46.9c0,0,6.5,4.6,6.8,5.2c0.2,0.5,0.2,1.2-0.1,1.7l5.3,0.2l-2.7-4.5c0,0-0.6,0.9-1.3,0.9
			S53.3,46.9,53.3,46.9"/>
		<path class="st7" d="M53,48.5c-0.3-1.1,0.4-2.3,1.5-2.6c1.1-0.3,2.3,0.4,2.6,1.5c0.3,1.1-0.4,2.3-1.5,2.6c0,0,0,0,0,0
			C54.4,50.4,53.3,49.7,53,48.5C53,48.5,53,48.5,53,48.5"/>
		<path class="st15" d="M119.8,69.1c0,0,12.7,4.3,15,4.7c4.9,1.2,10,1.9,15.1,2c3.8,0.1,4.3-1.8,5.6,0.8s3.1,9.9,3.1,9.9
			s19.7-8.1,19.9-9.5s3.2-15.1,1.1-18.4s-9.2-11-9.9-11.3s-11-1.6-11-1.6s-13,6.8-40.4,11.1C117.4,56.9,119.9,69,119.8,69.1"/>
		<path class="st20" d="M119.8,69.1c16.8,5.7,25.1,7.6,31.8,7c3-0.3,3-0.8,3.9,0.6c1.5,2.4,3.1,9.9,3.1,9.9"/>
		<path class="st21" d="M136.4,74.2c0,0,2.7,0.7,5.7,1.3c2.2,0.4,4.4,0.5,6.6,0.3c0,0,3-0.4,5.5-0.5c2.3,0,4.5-0.6,6.5-1.8l-1.5,6.8
			l-2.5-5.4l-1.8,6.4l-2.7-5.1c0,0-2.5,5.4-2.5,5.1s-1-3.7-1.4-5.1l-2.6,4.6l-1-4.9l-3.4,4.6l-0.9-5.7c0,0-4.1,4.4-4,4
			S136.4,74.1,136.4,74.2"/>
		<path class="st22" d="M136.4,74.2c0,0,2.7,0.7,5.7,1.3c2.2,0.4,4.4,0.5,6.6,0.3c0,0,3-0.4,5.5-0.5c2.3,0,4.5-0.6,6.5-1.8l-1.5,6.8
			l-2.5-5.4l-1.8,6.4l-2.7-5.1c0,0-2.5,5.4-2.5,5.1s-1-3.7-1.4-5.1l-2.6,4.6l-1-4.9l-3.4,4.6l-0.9-5.7c0,0-4.1,4.4-4,4
			S136.4,74.2,136.4,74.2z"/>
		<path class="st23" d="M159,45.2c-6.8,2.7-17.6,6.1-21.6,7.2c-4.5,1.3-16,2.8-16,2.8l-2.3,3.3c7-0.7,13.9-1.7,20.7-3.2
			c9.2-2,19.1-5.5,23.1-4.8c12,2.2,3.1,20.8,10.3,27.1C184.9,43,158.2,45.2,159,45.2"/>
		<path class="st16" d="M105.7,58.9c0-2,17-3.8,17-3.8s-1.6,5.2-2.3,8.3c-1.2,4.9-0.8,5.8-0.8,5.8S105.8,63.1,105.7,58.9"/>
		<path class="st3" d="M165.3,57.2c0.6-2.5-0.9-6.2-3.4-5.8c-1.8,0.1-2.2,0.9-3.6,0.3c-1.2,0.5-1.6,0.9-1.9,1.8
			c-0.9,2.3-0.6,6.2,3,7.1c2.4,0.8,5-0.6,5.8-3.1C165.2,57.4,165.3,57.3,165.3,57.2"/>
		<path class="st11" d="M160.8,55c-0.2,0.4-0.1,0.9,0.3,1.1c0.1,0,0.1,0.1,0.2,0.1c0.4,0.2,0.9,0,1-0.4c0,0,0-0.1,0-0.1
			c0.2-0.4,0-0.9-0.5-1.1c0,0,0,0,0,0C161.5,54.4,161,54.6,160.8,55"/>
		<path class="st17" d="M156.1,51.6c2.4,0.4,4.8,0.3,7.1-0.2c1.5-0.3,3-1,4.3-1.8"/>
		<path class="st3" d="M152,115.5c-0.3,0.5-0.5,1-0.6,1.5c0,0.6,0.1,1.2,0.4,1.7c-0.7-0.3-1.2-1-1.4-1.8c0-0.5,0.2-1,0.4-1.5
			L152,115.5z"/>
		<path class="st22" d="M152,115.5c-0.3,0.5-0.5,1-0.6,1.5c0,0.6,0.1,1.2,0.4,1.7c-0.7-0.3-1.2-1-1.4-1.8c0-0.5,0.2-1,0.4-1.5
			L152,115.5z"/>
		<path class="st3" d="M155.8,115.6c-0.1,0.5-0.2,1.1-0.1,1.6c0.1,0.6,0.4,1.1,0.9,1.6c-0.8-0.1-1.5-0.6-1.8-1.3
			c-0.1-0.5-0.1-1,0-1.6L155.8,115.6z"/>
		<path class="st22" d="M155.8,115.6c-0.1,0.5-0.2,1.1-0.1,1.6c0.1,0.6,0.4,1.1,0.9,1.6c-0.8-0.1-1.5-0.6-1.8-1.3
			c-0.1-0.5-0.1-1,0-1.6L155.8,115.6z"/>
		<path class="st3" d="M148.3,112.1c-0.3,0.7-0.5,1.4-0.4,2.2c0.2,0.6,0.6,1.1,1,1.5c-0.1-0.6-0.2-1.3-0.2-1.9
			c0.2-0.5,0.4-0.9,0.7-1.3L148.3,112.1z"/>
		<path class="st22" d="M148.3,112.1c-0.3,0.7-0.5,1.4-0.4,2.2c0.2,0.6,0.6,1.1,1,1.5c-0.1-0.6-0.2-1.3-0.2-1.9
			c0.2-0.5,0.4-0.9,0.7-1.3L148.3,112.1z"/>
		<path class="st3" d="M149.7,107c-0.3,0.5-0.4,1-0.6,1.5c0,0.6,0.1,1.2,0.4,1.7c-0.7-0.3-1.2-1-1.4-1.8c0-0.5,0.2-1,0.4-1.5
			L149.7,107z"/>
		<path class="st22" d="M149.7,107c-0.3,0.5-0.4,1-0.6,1.5c0,0.6,0.1,1.2,0.4,1.7c-0.7-0.3-1.2-1-1.4-1.8c0-0.5,0.2-1,0.4-1.5
			L149.7,107z"/>
		<path class="st3" d="M146,103.5c-0.3,0.7-0.5,1.4-0.4,2.2c0.2,0.6,0.6,1.1,1,1.5c-0.1-0.6-0.2-1.3-0.2-1.9
			c0.2-0.5,0.4-0.9,0.7-1.3L146,103.5z"/>
		<path class="st22" d="M146,103.5c-0.3,0.7-0.5,1.4-0.4,2.2c0.2,0.6,0.6,1.1,1,1.5c-0.1-0.6-0.2-1.3-0.2-1.9
			c0.2-0.5,0.4-0.9,0.7-1.3L146,103.5z"/>
		<path class="st24" d="M159.8,87c0,0-1.7,4.1-3,6.8s-6.1,4.8-6.1,4.8s-0.6-5,1.9-7C154.9,89.9,157.3,88.4,159.8,87"/>
		<path class="st25" d="M194.6,133.7c0.9-0.9,3,0.7,3,0.7c4.1,2.5,8.4,4.5,13,5.9c3.5,0.7,7.1,1,10.7,0.9c4.1-0.1,4.9,0.3,4.9,0.3
			l-1.1,0.7c0,0,2.5,0.4,4.7,0.9c1.4,0.3,2.7,0.8,3.9,1.3l-2.7,0.7c1.7,0.3,3.4,0.7,5.1,1.3c1.3,0.5,2.6,1.3,3.6,2.3
			c0,0-9.2,4.1-19,2.6c-17.6-2.9-21-8.8-25.2-13.6C195.2,137.3,193.4,134.8,194.6,133.7"/>
		<path class="st26" d="M200.4,143c0,0,6,2.2,8.9,3.2c8.8,2.8,17.9,4.1,27.1,3.7c0,0-6.4,2.9-16.2,1.7
			C207.1,150,200.4,143,200.4,143"/>
		<path class="st27" d="M236.4,149.9c0,0-6.4,2.9-16.2,1.7c-13.1-1.6-19.8-8.6-19.8-8.6"/>
		<path class="st23" d="M175.6,82.3c-1.3-0.8-4.1-1.2-4.9,3.6s-1.6,9.9-4.1,11c-3.5,1.6-13.3,1-15.7,1.6c-2.9,0.7-5.9,3.6-4.9,5
			s2.8-0.5,2.8-0.5s-1.8,3-0.2,3.8s2.6-1.6,2.6-1.6s0,2.4,1.5,2.3s2.4-3.5,2.4-3.5s15.2,1.1,18-2.7c2.6-3.5,3.5-8.2,4.1-11.4
			S177.5,83.5,175.6,82.3"/>
		<path class="st3" d="M153.5,107.1c-0.1,0.5-0.2,1.1-0.1,1.6c0.1,0.6,0.4,1.1,0.9,1.6c-0.8-0.1-1.5-0.6-1.8-1.3
			c-0.1-0.5-0.1-1,0-1.6L153.5,107.1z"/>
		<path class="st20" d="M153.5,107.1c-0.1,0.5-0.2,1.1-0.1,1.6c0.1,0.6,0.4,1.1,0.9,1.6c-0.8-0.1-1.5-0.6-1.8-1.3
			c-0.1-0.5-0.1-1,0-1.6L153.5,107.1z"/>
		<path class="st23" d="M188.2,79.2c0,0,0.9,5.7,3.1,8c1.3,1.3,2.4,2.8,3.4,4.3l-3.6-1c2,1.3,3.6,3,4.9,5c0.7,1.1,1.2,2.3,1.7,3.6
			l-2.3-1.4c1.9,2.3,3.5,4.7,4.8,7.3c2,4-0.2,1.2-0.2,1.2s2.1,7,2.9,11.6c-0.8-1.3-1.7-2.6-2.7-3.8c0.9,3.2,1.6,6.5,2,9.8
			c-0.6-1.2-1.4-2.3-2.4-3.2c-0.1,3.4-0.5,6.7-1.1,10c-1.3,6.2-3.4,9.4-5.4,11s-23.4,2.8-26.4,0c-6.6-6.1-5.2-38.8-4.9-44.1
			c0.1-3.3-0.9-6.6-2.7-9.3L188.2,79.2z"/>
		<path class="st23" d="M177.4,47.3c0,0,7.7-6,10.9-7.4s7.2-0.9,6.5,0c-5.5,6.7-8.8,16.1-8.8,16.1L177.4,47.3z"/>
		<path class="st23" d="M163.1,43.7c0,0,5.8-7.3,8-9s4.1-1.9,4-1.3s-1.1,5.2-1.3,6.7s-0.7,4.8-0.7,4.8L163.1,43.7z"/>
		<path class="st28" d="M176.5,89.3c-1.3-0.8-4.1-0.9-4.7,3.9s-1,10-3.4,11.3c-3.4,1.8-13.2,1.9-15.6,2.6c-2.8,0.8-5.7,3.9-4.6,5.3
			s2.8-0.7,2.8-0.7s-1.6,3.1,0,3.8s2.5-1.8,2.5-1.8s0.1,2.4,1.6,2.2s2.2-3.6,2.2-3.6s15.2,0.1,17.8-3.8c2.4-3.7,3-8.4,3.4-11.6
			S178.4,90.4,176.5,89.3"/>
		<path class="st3" d="M164.1,162.8c0.3,0.5,0.6,0.9,1,1.3c0.5,0.3,1.1,0.5,1.7,0.6c-0.7,0.4-1.5,0.5-2.2,0.2
			c-0.4-0.3-0.8-0.7-1.1-1.1L164.1,162.8z"/>
		<path class="st20" d="M164.1,162.8c0.3,0.5,0.6,0.9,1,1.3c0.5,0.3,1.1,0.5,1.7,0.6c-0.7,0.4-1.5,0.5-2.2,0.2
			c-0.4-0.3-0.8-0.7-1.1-1.1L164.1,162.8z"/>
		<path class="st3" d="M166,159.6c0.5,0.2,1,0.3,1.6,0.3c0.6-0.1,1.2-0.3,1.6-0.7c-0.2,0.8-0.8,1.4-1.5,1.6c-0.5,0.1-1.1,0-1.6-0.2
			L166,159.6z"/>
		<path class="st20" d="M166,159.6c0.5,0.2,1,0.3,1.6,0.3c0.6-0.1,1.2-0.3,1.6-0.7c-0.2,0.8-0.8,1.4-1.5,1.6c-0.5,0.1-1.1,0-1.6-0.2
			L166,159.6z"/>
		<path class="st3" d="M159.4,164.7c0,0,0.5,1.4,1.3,1.8c0.6,0.2,1.2,0.4,1.8,0.3c-0.5-0.3-1-0.7-1.5-1.2c-0.2-0.4-0.4-0.9-0.4-1.4
			L159.4,164.7z"/>
		<path class="st20" d="M159.4,164.7c0,0,0.5,1.4,1.3,1.8c0.6,0.2,1.2,0.4,1.8,0.3c-0.5-0.3-1-0.7-1.5-1.2c-0.2-0.4-0.4-0.9-0.4-1.4
			L159.4,164.7z"/>
		<path class="st3" d="M183.6,164.7c-0.5-0.2-1-0.3-1.6-0.3c-0.6,0.1-1.2,0.3-1.6,0.6c0.2-0.8,0.8-1.4,1.6-1.6
			c0.5-0.1,1.1,0,1.5,0.2L183.6,164.7z"/>
		<path class="st20" d="M183.6,164.7c-0.5-0.2-1-0.3-1.6-0.3c-0.6,0.1-1.2,0.3-1.6,0.6c0.2-0.8,0.8-1.4,1.6-1.6
			c0.5-0.1,1.1,0,1.5,0.2L183.6,164.7z"/>
		<path class="st3" d="M186,167.5c-0.5,0.1-1,0.3-1.5,0.6c-0.5,0.4-0.8,0.9-1,1.5c-0.3-0.8-0.1-1.6,0.4-2.2c0.4-0.3,0.9-0.6,1.4-0.7
			L186,167.5z"/>
		<path class="st20" d="M186,167.5c-0.5,0.1-1,0.3-1.5,0.6c-0.5,0.4-0.8,0.9-1,1.5c-0.3-0.8-0.1-1.6,0.4-2.2
			c0.4-0.3,0.9-0.6,1.4-0.7L186,167.5z"/>
		<path class="st3" d="M189.8,168.2c-0.5,0.1-1,0.3-1.5,0.6c-0.5,0.4-0.8,0.9-1,1.4c-0.2-0.8-0.1-1.6,0.4-2.2
			c0.4-0.4,0.9-0.6,1.4-0.7L189.8,168.2z"/>
		<path class="st20" d="M189.8,168.2c-0.5,0.1-1,0.3-1.5,0.6c-0.5,0.4-0.8,0.9-1,1.4c-0.2-0.8-0.1-1.6,0.4-2.2
			c0.4-0.4,0.9-0.6,1.4-0.7L189.8,168.2z"/>
		
			<linearGradient id="SVGID_00000157991433545070585780000007213045877518312614_" gradientUnits="userSpaceOnUse" x1="167.5547" y1="166.4343" x2="161.5363" y2="143.6689">
			<stop  offset="0" style="stop-color:#313131"/>
			<stop  offset="0.5223" style="stop-color:#9D998C"/>
			<stop  offset="0.5586" style="stop-color:#A4A092"/>
		</linearGradient>
		<path style="fill:url(#SVGID_00000157991433545070585780000007213045877518312614_);" d="M167.4,135.8c0,0-9.4,5.8-10.9,10
			s0.2,17.4,3,19.2c1.9,1.2,1.5-2.1,1.5-2.1s1.9,2.4,3.4,1.1c0.9-0.9-1-3.1-1-3.1s3.1,1.2,3.2-0.7s-3.9-3-3.9-3
			c-1.2-2.4-1.7-5.1-1.6-7.8c0.4-3.9,8.6-8.5,8.6-8.5L167.4,135.8z"/>
		
			<linearGradient id="SVGID_00000011735436579599407550000006529302447222935475_" gradientUnits="userSpaceOnUse" x1="195.2067" y1="174.1852" x2="186.3099" y2="144.0929">
			<stop  offset="0" style="stop-color:#313131"/>
			<stop  offset="0.5223" style="stop-color:#9D998C"/>
			<stop  offset="0.5586" style="stop-color:#A4A092"/>
		</linearGradient>
		<path style="fill:url(#SVGID_00000011735436579599407550000006529302447222935475_);" d="M187,139.3c0,0-1.7,7.3-1.5,12
			c0.2,3.6,0.7,7.1,1.5,10.6c0,0-4.6,0.7-3.6,2.6c0.9,1.7,3.2,0.1,3.2,0.1s-3.2,1.8-1.6,2.9c2,1.4,4.1-1.6,4.1-1.6s-1.1,1.5-0.1,2.3
			c2.4,2,3.8-3.2,3.5-5.2c0,0-2.7-8.5-1.9-13.3c0.8-3.9,1.8-7.7,3.1-11.4L187,139.3z"/>
		<polygon class="st15" points="184.8,50.6 188.2,43.9 181.9,47.4 		"/>
		<path class="st15" d="M172.4,84.3c0,1.8-0.2,3.5-0.7,5.2c-0.4,1.3-0.9,2.5-1.6,3.7l-0.8-3c-0.2,2.5-0.5,4.9-1,7.3
			c-0.5-0.9-0.9-1.8-1.2-2.8c0,0-0.7,5.2-1.2,6.4c-1-2.7-1.9-3.4-1.9-3.4c-0.1,1.4-0.2,2.8-0.5,4.2c-0.4,1.2-1,2.4-1.7,3.5
			c0,0-0.9-5.7-1.1-9.2c-0.2-3-0.9-6-2-8.8c0,0,6,0.1,6.8-3s7.1-3.4,7.1-3.4L172.4,84.3z"/>
		<path class="st0" d="M157.6,86.5c0,0,12.6-4.3,16.2-18s-6-20.6-9.1-22c-2.3-1.1-4.8-1.4-7.3-1.1c0,0-1.8-0.3,2.7-1.9
			c7.2-2.6,16.4,0.3,20.8,3.2c5.1,3.5,11.1,16.2,13.9,21.9s10.5,12.9,10.5,12.9s-8.3,2.9-14.7,1.3c-6.7-1.6-12.5,0.7-15.2,1.5
			c-4.2,1.2-16.9,4-16.9,4L157.6,86.5z"/>
		<path class="st21" d="M189.5,74.4c0,0.6,0.5,1.1,1.1,1.1c0.6,0,1.1-0.5,1.1-1.1c0-0.6-0.5-1.1-1.1-1.1c0,0,0,0,0,0
			C189.9,73.4,189.5,73.9,189.5,74.4L189.5,74.4"/>
		<path class="st21" d="M184,72.3c0,0.6,0.5,1.1,1.1,1.1c0.6,0,1.1-0.5,1.1-1.1c0-0.6-0.5-1.1-1.1-1.1c0,0,0,0,0,0
			C184.5,71.2,184,71.7,184,72.3"/>
		<path class="st21" d="M176.5,75.5c0,0.6,0.5,1.1,1.1,1.1c0.6,0,1.1-0.5,1.1-1.1c0-0.6-0.5-1.1-1.1-1.1c0,0,0,0,0,0
			C177,74.4,176.5,74.9,176.5,75.5C176.5,75.5,176.5,75.5,176.5,75.5"/>
		<path class="st21" d="M174,81c0,0.6,0.4,1.1,1,1.2c0.6,0,1.1-0.4,1.2-1c0-0.6-0.4-1.1-1-1.2c0,0-0.1,0-0.1,0
			C174.5,80,174,80.4,174,81"/>
		<path class="st21" d="M171.3,76.9c0,0.6,0.5,1.1,1.1,1.1c0.6,0,1.1-0.5,1.1-1.1s-0.5-1.1-1.1-1.1
			C171.8,75.9,171.3,76.3,171.3,76.9C171.3,76.9,171.3,76.9,171.3,76.9"/>
		<path class="st21" d="M167,82.4c0,0.6,0.5,1.1,1.1,1.1s1.1-0.5,1.1-1.1c0-0.6-0.5-1.1-1.1-1.1c0,0-0.1,0-0.1,0
			C167.4,81.4,167,81.9,167,82.4"/>
		<path class="st21" d="M161.8,85.9c0,0.6,0.5,1.1,1.1,1.1c0.6,0,1.1-0.5,1.1-1.1c0-0.6-0.5-1.1-1.1-1.1c0,0,0,0,0,0
			C162.3,84.9,161.8,85.3,161.8,85.9C161.8,85.9,161.8,85.9,161.8,85.9"/>
		<path class="st21" d="M176,66.2c0,0.6,0.5,1.1,1.1,1.1c0.6,0,1.1-0.5,1.1-1.1c0-0.6-0.5-1.1-1.1-1.1c0,0,0,0,0,0
			C176.5,65.2,176,65.6,176,66.2C176,66.2,176,66.2,176,66.2"/>
		<path class="st21" d="M183.8,65.8c0,0.6,0.5,1.1,1.1,1.1c0.6,0,1.1-0.5,1.1-1.1c0-0.6-0.5-1.1-1.1-1.1c0,0,0,0,0,0
			C184.3,64.7,183.8,65.2,183.8,65.8"/>
		<path class="st21" d="M186.1,59.6c0,0.6,0.5,1.1,1.1,1.1c0.6,0,1.1-0.5,1.1-1.1c0-0.6-0.5-1.1-1.1-1.1S186.1,59,186.1,59.6
			C186.1,59.6,186.1,59.6,186.1,59.6"/>
		<path class="st21" d="M178.5,62.2c0,0.6,0.5,1.1,1.1,1.1s1.1-0.5,1.1-1.1c0-0.6-0.5-1.1-1.1-1.1c0,0,0,0,0,0
			C178.9,61.1,178.5,61.5,178.5,62.2C178.5,62.1,178.5,62.1,178.5,62.2"/>
		<path class="st21" d="M178.8,70.3c0,0.6,0.5,1.1,1.1,1.1c0.6,0,1.1-0.5,1.1-1.1c0-0.6-0.5-1.1-1.1-1.1c0,0,0,0,0,0
			C179.2,69.2,178.8,69.7,178.8,70.3"/>
		<path class="st21" d="M181.8,78.2c0,0.6,0.5,1.1,1.1,1.1l0,0c0.6-0.1,1-0.6,1-1.2c0-0.5-0.5-0.9-1-1
			C182.3,77.1,181.8,77.6,181.8,78.2"/>
		<path class="st21" d="M188.2,80.3c0,0.6,0.5,1.1,1.1,1.1c0.6,0,1.1-0.5,1.1-1.1c0-0.6-0.5-1.1-1.1-1.1c0,0,0,0,0,0
			C188.7,79.2,188.2,79.7,188.2,80.3C188.2,80.3,188.2,80.3,188.2,80.3"/>
		<path class="st21" d="M195.9,80.3c0,0.6,0.5,1.1,1.1,1.1s1.1-0.5,1.1-1.1c0-0.6-0.5-1.1-1-1.1C196.4,79.2,195.9,79.7,195.9,80.3
			C195.9,80.3,195.9,80.3,195.9,80.3"/>
		<path class="st21" d="M194.8,74.8c0,0.6,0.5,1.1,1.1,1.1c0.6,0,1.1-0.5,1.1-1.1c0-0.6-0.5-1.1-1.1-1.1c0,0,0,0,0,0
			C195.3,73.7,194.8,74.2,194.8,74.8"/>
		<path class="st21" d="M181.1,55.8c0,0.6,0.5,1.1,1.1,1.1c0.6,0,1.1-0.5,1.1-1.1c0-0.6-0.5-1.1-1.1-1.1c0,0,0,0,0,0
			C181.6,54.7,181.1,55.2,181.1,55.8C181.1,55.8,181.1,55.8,181.1,55.8"/>
		<path class="st21" d="M178.5,49.3c0,0.6,0.5,1.1,1.1,1.1s1.1-0.5,1.1-1.1c0-0.6-0.5-1.1-1.1-1.1c0,0,0,0,0,0
			C178.9,48.3,178.5,48.7,178.5,49.3C178.5,49.3,178.5,49.3,178.5,49.3"/>
		<path class="st21" d="M175.2,55.2c0,0.6,0.5,1.1,1.1,1.1c0.6,0,1.1-0.5,1.1-1.1c0-0.6-0.5-1.1-1.1-1.1S175.2,54.6,175.2,55.2
			C175.2,55.2,175.2,55.2,175.2,55.2"/>
		<path class="st21" d="M173.2,49.3c0,0.6,0.5,1.1,1.1,1.1s1.1-0.5,1.1-1.1s-0.5-1.1-1.1-1.1C173.7,48.3,173.2,48.7,173.2,49.3
			C173.2,49.3,173.2,49.3,173.2,49.3"/>
		<path class="st21" d="M169.1,44.6c0,0.6,0.5,1.1,1.1,1.1s1.1-0.5,1.1-1.1s-0.5-1.1-1.1-1.1C169.6,43.5,169.1,44,169.1,44.6
			C169.1,44.6,169.1,44.6,169.1,44.6"/>
		<path class="st21" d="M189.3,66.9c0,0.6,0.5,1.1,1.1,1.1c0.6-0.1,1-0.6,1-1.2c0-0.5-0.5-0.9-1-1C189.8,65.8,189.3,66.3,189.3,66.9
			L189.3,66.9"/>
		<path class="st17" d="M162.9,69.6c0,0,0.4,4.9-6.8,5.6c-6.5,1.2-13.3,0.8-19.7-1"/>
		<path class="st24" d="M156.1,88.2c0.1,1.2,1,2.2,2.2,2.3c0.8-0.1,1.6-0.4,2.1-1c0.4-0.3,0.6-0.8,0.6-1.3c0-1.3-1.8-2.3-2.7-2.3
			C157.1,86.1,156.2,87.1,156.1,88.2"/>
		<path class="st24" d="M159,88.2c0,0,2.6,3.6,4.1,6.1s0.9,7.8,0.9,7.8s-4.6-2.1-5-5.4C158.8,93.9,158.8,91,159,88.2"/>
	</g>
</g>
</svg>
