<svg xmlns="http://www.w3.org/2000/svg" xmlns:xlink="http://www.w3.org/1999/xlink" viewBox="0 0 261.75 192.52"><defs><style>.cls-1,.cls-23,.cls-24,.cls-31{fill:none;}.cls-2{fill:#2fac66;}.cls-3{fill:#00a0a4;}.cls-11,.cls-21,.cls-22,.cls-25,.cls-26,.cls-28,.cls-3,.cls-30,.cls-32,.cls-33,.cls-4,.cls-5,.cls-6,.cls-7,.cls-8,.cls-9{fill-rule:evenodd;}.cls-4{fill:#706f6f;}.cls-5{fill:#007572;}.cls-18,.cls-6{fill:#fff;}.cls-20,.cls-7{fill:#1d1d1b;}.cls-8{fill:#555356;}.cls-13,.cls-9{fill:#dad8cc;}.cls-10{clip-path:url(#clip-path);}.cls-11,.cls-16{fill:#fcc700;}.cls-12{fill:#f3a5c2;}.cls-14{fill:#f39200;}.cls-15{clip-path:url(#clip-path-2);}.cls-17{clip-path:url(#clip-path-4);}.cls-19{clip-path:url(#clip-path-6);}.cls-21{fill:#b780b1;}.cls-22{fill:#9c6297;}.cls-23,.cls-24,.cls-31{stroke:#1d1d1b;stroke-linecap:round;}.cls-23{stroke-width:0.29px;}.cls-24{stroke-width:0.3px;}.cls-25{fill:#1b8a4f;}.cls-26{fill:#814114;}.cls-27,.cls-28{fill:#e30613;}.cls-29,.cls-30{fill:#a4a092;}.cls-31{stroke-width:0.33px;}.cls-32{fill:#0d181c;}.cls-33{fill:#b4b0a4;}</style><clipPath id="clip-path"><path class="cls-1" d="M147.23,123.19c-11.95.14-20.48,9.93-20.34,21.88l.16,13.56s27.74,1.11,43.27-.51c1.09-.12-.16-13.56-.16-13.56-.15-13.51-10.79-21.37-22.61-21.37h-.32"/></clipPath><clipPath id="clip-path-2"><path class="cls-1" d="M151.22,127.07a16.92,16.92,0,0,0-5.63,4.46,32.25,32.25,0,0,0-3,4.93l2.53.42s.72-1.55,1.59-3.27c1.34-2.68,4.75-6.54,4.51-6.54h0"/></clipPath><clipPath id="clip-path-4"><path class="cls-1" d="M132.39,129.85a27.41,27.41,0,0,1,2.56,3.9c.87,1.72,1.6,3.27,1.6,3.27l2.52-.42a32.25,32.25,0,0,0-3-4.93,15.37,15.37,0,0,0-2.82-2.72c-.29.29-.58.59-.86.9"/></clipPath><clipPath id="clip-path-6"><path class="cls-1" d="M136.76,136.65c-1.95,1.67-2.76,4.48-2.41,7.83s1.88,12,6.79,11.36,4.76-5.36,5.72-8c1.16-3.21.09-10.19-1.7-11.52a6.88,6.88,0,0,0-3.84-1,7.42,7.42,0,0,0-4.56,1.3"/></clipPath></defs><g id="Capa_2" data-name="Capa 2"><g id="Capa_1-2" data-name="Capa 1"><path class="cls-2" d="M24.67,150.07c49.54-6,76.68-2.65,127.92-2,12.86.17,36.89.05,49.69.61,13.17.57,22.53.2,31,1.54,6.47,1,12.24,1.78,16.55,4.21,12.92,7.26,14.83,13.34,8,22.16A25.45,25.45,0,0,1,246.23,185c-12.41,4.65-30.41,7.52-46.48,7.55-23.79,0-28.39,0-53.62-1.73-7.16-.5-17.86-.6-31.88-1-22.2-.69-44.73,1.29-66.6-.57-6.07-.51-12-1.37-17.79-2.35-6.09-1-12.21-2.25-16.93-4.3C4,178.66-.51,174.38.05,168.75a12.87,12.87,0,0,1,5-9.49c3.65-3.14,6.52-7.07,19.93-9.25"/><path class="cls-3" d="M179.66,106h-.9L124.32,66.23,69.2,106h-.83v70.5l111.29-3.93c2.05-21.09,0-66.57,0-66.57"/><path class="cls-4" d="M82.25,176.18s-.38-18.35-.07-28.48c.32-10.35,0-26,0-26s11.39-.35,16.23-.64a82.22,82.22,0,0,1,10.32.19s0,25.36,0,33.72c0,10.23,0,20.23,0,20.23Z"/><polygon class="cls-5" points="68.38 106.02 21.48 106.02 21.48 170.25 68.38 176.51 68.38 106.02"/><polygon class="cls-6" points="50.51 123.42 34.83 123.42 34.83 157.23 50.51 158.37 50.51 123.42"/><polygon class="cls-7" points="45.34 123.42 44.52 123.42 44.52 157.93 45.34 158 45.34 123.42"/><polygon class="cls-7" points="40.56 123.42 39.74 123.42 39.73 157.6 40.56 157.68 40.56 123.42"/><path class="cls-7" d="M50.51,134.64H34.82v.92H50.51Zm0,11.59H34.82v.92H50.51Z"/><path class="cls-8" d="M50.51,82.4l-32.1,24.54H68.27S90.15,91.91,97,86.79s28.73-20.93,28.73-20.93H73.22Z"/><polygon class="cls-4" points="184.51 107.77 180.59 107.75 123.89 67.08 125.77 65.81 184.51 107.77"/><path class="cls-9" d="M87.15,126.7v18.12s11.6,0,13.46-.08,3.48-.2,3.48-.2.12-4.15,0-8.62-.3-9.16-.3-9.16-4-.29-8.13-.22l-8.47.16"/><path class="cls-9" d="M87.69,150.77s1.84.13,6.46,0c4.95-.14,9.36,0,9.36,0s-.15,5.68,0,10.6,0,9.24,0,9.24-6.77.43-10.15.59-5.69,0-5.69,0V150.77Z"/><path class="cls-6" d="M132.22,97.47c.42-4.91.44-7.43,0-9.85-.66-3.76-3.09-6.07-6.9-6.07a6.9,6.9,0,0,0-6.9,6.9v9Z"/><polygon class="cls-7" points="126.24 81.6 125.16 81.55 125.16 97.47 125.98 97.47 126.24 81.6"/><polygon class="cls-7" points="118.42 89.65 118.42 90.74 132.53 90.58 132.49 89.85 118.42 89.65"/><g class="cls-10"><path class="cls-6" d="M183.57,144.45a28.82,28.82,0,0,1-28.46,29.14l-26.62.31a28.8,28.8,0,0,1-.67-57.6l26.61-.31a28.8,28.8,0,0,1,29.14,28.46"/><polygon class="cls-11" points="136.5 159 124.22 159.15 123.76 119.73 135.85 119.59 136.5 159"/><polygon class="cls-11" points="161.77 158.71 170.77 158.6 170.31 119.19 162.26 119.28 161.77 158.71"/><path class="cls-12" d="M128.18,143.2a13.2,13.2,0,0,0,5.14-1.85c2.31-1.75,3.8-3.19,3.85-3.5s-1.7-.81-3.43,0-5.56,5.4-5.56,5.4"/><path class="cls-13" d="M137.69,137.44a8.08,8.08,0,0,0-5.39-.15,6.09,6.09,0,0,0-3.7,3.72c-.48,1.49-.86,2.31-.46,2.22.5-.29,2-2.37,3.82-3.6a16.65,16.65,0,0,1,5.73-2.19"/><path class="cls-14" d="M145.59,131.53a16.92,16.92,0,0,1,5.63-4.46c.24,0-3.17,3.86-4.51,6.54-.87,1.72-1.59,3.27-1.59,3.27l-2.53-.42a32.25,32.25,0,0,1,3-4.93"/></g><g class="cls-15"><path class="cls-16" d="M142.86,134.5s.92.35,1.92.68a11.64,11.64,0,0,0,1.25.36l.88-1.39a28.25,28.25,0,0,0-2.82-1.1c-1.08-.32-1.23,1.45-1.23,1.45"/><path class="cls-16" d="M144.88,131.37s.87.44,1.83.87a10,10,0,0,0,1.2.49l1-1.26a28.36,28.36,0,0,0-2.69-1.39c-1-.42-1.38,1.29-1.38,1.29"/><path class="cls-16" d="M147.24,128.59s.81.55,1.7,1.09a10.11,10.11,0,0,0,1.13.64l1.19-1.12a27.83,27.83,0,0,0-2.48-1.72c-1-.55-1.54,1.11-1.54,1.11"/></g><g class="cls-10"><path class="cls-14" d="M136.07,131.67a16.92,16.92,0,0,0-5.63-4.46c-.24,0,3.17,3.86,4.52,6.54.86,1.72,1.59,3.27,1.59,3.27l2.52-.42a32.78,32.78,0,0,0-3-4.93"/></g><g class="cls-17"><path class="cls-16" d="M138.8,134.64s-.92.35-1.92.68a11.29,11.29,0,0,1-1.24.36l-.89-1.38a27.39,27.39,0,0,1,2.82-1.11c1.08-.32,1.23,1.45,1.23,1.45"/><path class="cls-16" d="M136.78,131.51s-.87.45-1.83.87a9.16,9.16,0,0,1-1.2.49l-1-1.26a27.72,27.72,0,0,1,2.68-1.39c1-.42,1.38,1.29,1.38,1.29"/><path class="cls-16" d="M134.42,128.73s-.81.55-1.7,1.09a9,9,0,0,1-1.13.64l-1.19-1.12a29.53,29.53,0,0,1,2.48-1.72c1-.55,1.54,1.11,1.54,1.11"/></g><g class="cls-10"><path class="cls-13" d="M136.18,149.86s-1,9.22-1,11.22-.15,4.62,0,5,11.82.35,11.82.35-1.38-14.08-1.53-16.93a66.19,66.19,0,0,0-9.33.37"/><path class="cls-18" d="M144.55,160.83c0,4.58-1.88,7.09-3.85,7.09s-3.61-2.09-3.5-6.67c.14-5.64,1.53-9.91,3.5-9.91,2.84,0,3.85,4.92,3.85,9.49"/><path class="cls-12" d="M153.31,142.77a8.75,8.75,0,0,1-5.3-1.29A11,11,0,0,1,144.4,138c-.1-.3,3.23.62,5.06,1.09s3.85,3.71,3.85,3.71"/><path class="cls-13" d="M150.32,137.91a6.14,6.14,0,0,1,3.09,4.25c.13,1-.18.63-.61.2a8.24,8.24,0,0,0-6.55-3.76l-1.08-1.48a7.31,7.31,0,0,1,5.15.79"/><path class="cls-13" d="M134.35,144.48c.36,3.34,1.88,12,6.79,11.36s4.76-5.36,5.72-8c1.16-3.21.09-10.19-1.7-11.52s-6.44-1.31-8.4.35-2.76,4.48-2.41,7.83"/></g><g class="cls-19"><path class="cls-18" d="M148,146.62a.86.86,0,0,1-.84.86.75.75,0,0,1-.84-.73.84.84,0,0,1,.84-.84c.47,0,.84.24.84.71"/><path class="cls-18" d="M136,147a1,1,0,0,1-2,0,1,1,0,0,1,2,0"/><path class="cls-18" d="M145.75,145.83c0,.32-.15.57-.47.57a.68.68,0,0,1-.69-.57.58.58,0,0,1,1.16,0"/></g><g class="cls-10"><path class="cls-13" d="M144.84,150.44s4.56,2.57,5.61,4c1.6,2.14-1.14,5-1.14,5l-1.49-1.21s1.64-1.55,1.37-2.37-4.08-3.28-4.08-3.28Z"/><path class="cls-20" d="M149.31,159.45s-1.28,2.44-1.58,2.13.36-1.7.36-1.7-1.37,1.09-1.65.75,1.39-2.39,1.39-2.39Z"/><path class="cls-13" d="M136.31,150.89s-4.41,2.41-5.32,3.89c-1.4,2.28,1.71,5.51,1.71,5.51l1.37-1.35s-1.71-1.77-1.51-2.61,3.68-3.26,3.68-3.26Z"/><path class="cls-20" d="M132.7,160.29s1.49,2.3,1.76,2-.51-1.65-.51-1.65,1.47,1,1.71.59-1.6-2.25-1.6-2.25Z"/><path class="cls-18" d="M142.75,141.11a1.82,1.82,0,0,0,1.44,2.44,1.76,1.76,0,0,0,2.17-1.59,1.94,1.94,0,0,0-1.55-2.27,1.83,1.83,0,0,0-2.06,1.42"/><path class="cls-20" d="M143.2,141.57a.31.31,0,0,0,.23.41.29.29,0,0,0,.37-.24.31.31,0,0,0-.24-.38.32.32,0,0,0-.36.21"/><path class="cls-18" d="M135.17,141.43a1.83,1.83,0,0,0,1.25,2.51,1.74,1.74,0,0,0,2.17-1.5,1.93,1.93,0,0,0-1.36-2.33,1.79,1.79,0,0,0-2.06,1.32"/><path class="cls-20" d="M135.76,141.89a.31.31,0,0,0,.23.41.29.29,0,0,0,.37-.24.31.31,0,0,0-.24-.38.32.32,0,0,0-.36.21"/><path class="cls-21" d="M143.35,135.58c.56.91,2.23,2.19,2.36,2a9.26,9.26,0,0,0,1.33-3.46,5.73,5.73,0,0,0-3.48.3,5.71,5.71,0,0,0-2.55-2.35,9.07,9.07,0,0,0-.93,3.69s2.33.52,3.27-.22"/><path class="cls-22" d="M143,136.15c-.67-.11-.59-.83-.36-1.51s.42-1,1.12-.77.66.66.43,1.33-.45,1.07-1.19,1"/><path class="cls-23" d="M140.83,153.71A4.61,4.61,0,0,0,141,155a5,5,0,0,0,.41.79"/><path class="cls-24" d="M144,154.55a1.21,1.21,0,0,0,.26-.92A1.26,1.26,0,0,0,144,153"/><path class="cls-12" d="M140.83,153.79c.29,0,.85-.58,1.36-1.16s.91-1.15.08-1.66a3.28,3.28,0,0,0-3,0c-.71.44-.32,1-.05,1.33.45.5,1.28,1.49,1.6,1.49"/></g><polygon class="cls-7" points="155.19 124.34 154.38 124.1 154.78 158.93 155.67 158.92 155.19 124.34"/><polygon class="cls-7" points="141.56 124.03 140.47 124.39 140.87 159 141.71 158.98 141.56 124.03"/><polygon class="cls-7" points="170.39 147.3 170.31 146.28 126.91 146.9 126.93 147.81 170.39 147.3"/><polygon class="cls-7" points="168.32 135.74 167.89 134.83 128.88 135.28 128.5 136.2 168.32 135.74"/><path class="cls-25" d="M186.87,130.84c-4.09,0-19.24-5.64-23.62-17.61s-.8-38,2.07-48.91S186.74,0,186.74,0s5.73,12.23,10.53,20.52,19.19,41.44,22,53.88,2.86,34.74-4.31,44.34c-9,12.1-16.07,9.79-28,12.1"/><path class="cls-26" d="M188,160.33s.21-15.33.21-21.63,1.06-18.68-.21-19.59-3.85-1.53-6.91-2.8a32,32,0,0,0-9.2-2L169,114l.59-2.74a10.12,10.12,0,0,1,2.54,0c2.12.14,2.76.26,3.81.37,2,.19,3.24,1.13,3.19,0s-.42-5.81.63-5.34a13.8,13.8,0,0,0,1.71.65,17.74,17.74,0,0,1,.76,3.38,12.11,12.11,0,0,1,.08,2.43s2.49.86,4,1.16c1.28.26,1.72,0,1.75-2.63,0-3.68.85-13,.21-15.36a5.63,5.63,0,0,0-3.89-4.22,58.21,58.21,0,0,1-6.44-2.12,9.83,9.83,0,0,0-3.65-1.07l.21-2a39.25,39.25,0,0,1,4,.87c1,.36,4.58,1.52,4.58,1.52A45.51,45.51,0,0,1,181.24,84c0-.59-.21-3.11-.21-3.11h1.63l.49,2.68h3.17l.63,1-2.54,1.12,1.44,3.31,2.8,1.14s-.42-11.18-.85-14.8l-.42-3.63s-2.75-1.48-4.23-2.12-5.25-1.69-5.25-1.69l0-2L183,67.41a10.88,10.88,0,0,1-1.36-2c-.63-1.2-.1-1.18-.1-1.18l1.46-.47L187.17,69s-.22-14.94-.43-16.33-5.5-5.42-5.5-5.42l.79-1.12,1.12.48c2.32,1.28,3.8,2.82,4.44,3.11s5.64-10.09,6.74-10.73l1.1-.63c2.12,1.05,1.69,2.36,1.69,2.36a20,20,0,0,0-2.79,3.35c-1.23,1.91-1.7,2.62-1.7,2.62l3.43,3-.63,1s-2.85-2.77-3.65-2.6c-.58.13-1,4.57-1,4.57s1.91,10.32,1.91,13.14.76,6.22,1.65,7a1.67,1.67,0,0,0,1.94,0L195,69h2.18L199,72.78s5.51-2.64,6.78-3.28S209,71.92,209,71.92s-.84.33-2.54.86-5.93,1.64-7.84,2.47-4.27,2.32-4.27,3.19c0,1.51.91,14.27,1.14,17.66s.1,10.21.1,10.21,2.93-2,5.2-3.39,5.67-3.46,5.67-3.46l.85,1.4L203.9,104a6.9,6.9,0,0,0,1.27,2l.64.5-1.27,1.51a16.48,16.48,0,0,1-2-2l-.55-.76-6.14,6,1.91,49Z"/><path class="cls-27" d="M220.78,77.87c-20.44-2-48.68-3-72.11-.55-12.87,1.32-19.47,8.53-19.47,22,0,11.18,5.28,20.46,17.23,22,17.2,2.27,19.1,1.23,22.35,1.19a24,24,0,0,1-1.7,4.83c-2.36,5-7.48,10.43-7.48,10.43s6.06-.33,12.39-7.89a18.23,18.23,0,0,0,3.46-7.45c15-.24,38.39,1.16,49.49-1.72,11.4-3,12.38-16.63,12.36-23.27,0-8.73-2.77-18.3-16.52-19.62"/><path class="cls-28" d="M73.15,135.58s.69,1.65,1.22,2.75a6,6,0,0,0,2.5,2s.24-2-.79-2.87a27.63,27.63,0,0,0-2.93-1.84"/><path class="cls-29" d="M69.69,166a109.72,109.72,0,0,1,1.15,14.55c.49,1,1.21,1.4,3.29,2.14,1.34.48,2.22-.9.13-1.7,0,0,2.26.68,2.41-.15.19-1.1-1.76-1-1.76-1,.74,0,1.9-.3,1.9-.84,0-1.27-2.26-.81-3.07-.42,0,0,0-11.55-1.32-14.43S69.69,166,69.69,166"/><path class="cls-29" d="M54.82,166s1.44,9.94,1.1,14.71c-.09,1.51,2,1.6,4.07,1.37,1.46-.16,1.48-1.49-.46-1.39,0,0,1.94-.1,1.93-1.08s-1.88-.21-1.88-.21c.52-.36,1.25-1.09.82-1.6s-1.11.09-1.52.37c0,0,.81-9.69-1.33-14-1.4-2.83-2.73,1.86-2.73,1.86"/><path class="cls-30" d="M54.76,131.5A207,207,0,0,0,51,153.14c-1.09,8,1.79,12,2.83,13.22,3.56,4.28,16.13,6.34,18.8,1.3,5.24-9.87,1.31-36,1.31-36Z"/><path class="cls-30" d="M53.1,138.29s-.68,1-1.08,1.73a22.78,22.78,0,0,0-1,2.32l1.25-.82s-.82,1.13-1.2,1.82c-.29.54-.86,2.17-.86,2.17l1.72-1.9s-.45.82-1.15,2a8.58,8.58,0,0,0-1.24,3l2.69-2.88Z"/><path class="cls-30" d="M51.94,146.07s-.81,1.4-1.27,2.07a24,24,0,0,0-1.91,3.59l2.2-2.16s-.73,1.43-1.11,2.12c-.29.54-.86,2.16-.86,2.16l1.72-1.9s-.41.92-.93,2.17a11.62,11.62,0,0,0-.63,2.94s.89-1.45,1-1.77c.51-1.15.78-1.33.78-1.33Z"/><path class="cls-13" d="M70.18,136s.12,4.1.77,5.58S72.08,144,72.08,144l.33-2.43a23.67,23.67,0,0,0,2.82,4.57V143.1l-.74-7.4Z"/><path class="cls-30" d="M54.25,116.85a78.11,78.11,0,0,1-.43-8.63s4.26,4.26,5.93,7.43c.63.39.17,0,2.82-.07,1.3,0,2.26.29,2.73-.21a63.94,63.94,0,0,1,.43-7.61,58.9,58.9,0,0,1,5.27,7c4.08,2.27,22,11.42,23.74,11.8s-3.58,2.74-5.65,3.22c-1.75.4-18.24,3-18.24,3L55,131.91s-1-1.13-1.15-4.47.4-7.94.43-10.59"/><path class="cls-13" d="M74.48,135.3c-1.94.86-6.21-.28-6.21-.28s-.65-1.34-1.61-3.52c-1.54-3.51-1.23-12.88,3-13.89,1.91-.47,6.38,1.87,10.09,3.39,4.68,1.91,8.52,3.16,8.52,3.16V130s-12.75,2.43-13.78,2.43a8.26,8.26,0,0,0,0,2.91"/><path class="cls-18" d="M75.88,117.77a1.63,1.63,0,0,1,1.06,1c.46,1.15.29,3.11-1.51,3.55a2.33,2.33,0,0,1-3-1.71c-.31-1.25.1-3,1.65-2.86.17.26,1,.32,1.77,0"/><path class="cls-20" d="M76,119.06a.4.4,0,0,1-.21.59.39.39,0,0,1-.55-.24.43.43,0,0,1,.24-.56.41.41,0,0,1,.52.21"/><path class="cls-31" d="M76.65,117.83a7.93,7.93,0,0,1-3.26-.12,5.62,5.62,0,0,1-2-.85"/><path class="cls-32" d="M91.47,124.87c-1.54-.58-3.63-1.44-3.63-1.44a33.15,33.15,0,0,1,.17,4,18.85,18.85,0,0,1-.3,2.64c2.49-.32,8.51-2.28,7.38-3.5-.57-.62-1.67-.93-3.62-1.67"/><path class="cls-6" d="M70.42,131.5,71,134l1-1.72.73,2.14,1.06-2a22.35,22.35,0,0,0,1,2c0-.14.63-2.16.63-2.16a18.76,18.76,0,0,1-2.43-.1,12.49,12.49,0,0,1-2.56-.64"/><path class="cls-31" d="M75.41,132.07s-3.68.32-5.22-1S68.74,129,68.74,129"/><path class="cls-28" d="M54.25,131s.67,1.36,5.79,2.61S74.29,135,74.29,135a40.11,40.11,0,0,1-13.23,8.55c-2.34.86-13,3-13,3a42.06,42.06,0,0,0,2.7-5.61,42.85,42.85,0,0,0,2.64-8.13,3.74,3.74,0,0,1,.87-1.81"/><path class="cls-6" d="M55.78,132.82a.44.44,0,1,1-.87,0,.44.44,0,0,1,.87,0"/><path class="cls-6" d="M55.78,136.61a.44.44,0,1,1-.44-.44.44.44,0,0,1,.44.44"/><path class="cls-6" d="M58.36,134.8a.43.43,0,0,1-.43.43.44.44,0,0,1-.44-.43.44.44,0,0,1,.44-.44.44.44,0,0,1,.43.44"/><path class="cls-6" d="M58.06,137.53a.44.44,0,0,1-.88,0,.44.44,0,1,1,.88,0"/><path class="cls-6" d="M55.34,139.46a.43.43,0,0,1-.43.44.44.44,0,1,1,0-.87.43.43,0,0,1,.43.43"/><path class="cls-6" d="M55.78,142.27a.44.44,0,0,1-.87,0,.44.44,0,1,1,.87,0"/><path class="cls-6" d="M51.58,142.67a.44.44,0,0,1-.87,0,.44.44,0,1,1,.87,0"/><path class="cls-6" d="M50.56,144.9a.44.44,0,0,1-.44.44.44.44,0,0,1-.43-.44.43.43,0,0,1,.43-.43.44.44,0,0,1,.44.43"/><path class="cls-6" d="M53.85,144.07a.44.44,0,1,1-.87,0,.44.44,0,0,1,.87,0"/><path class="cls-6" d="M53.68,137.81a.44.44,0,1,1-.87,0,.44.44,0,0,1,.87,0"/><path class="cls-6" d="M54.25,134.8a.44.44,0,0,1-.87,0,.44.44,0,1,1,.87,0"/><path class="cls-6" d="M58.06,140.28a.44.44,0,0,1-.88,0,.44.44,0,0,1,.88,0"/><path class="cls-6" d="M69.62,136.7a.44.44,0,0,1-.44.43.43.43,0,0,1-.43-.43.44.44,0,0,1,.43-.44.44.44,0,0,1,.44.44"/><path class="cls-6" d="M60.64,141.59a.44.44,0,0,1-.44.44.44.44,0,0,1,0-.88.44.44,0,0,1,.44.44"/><path class="cls-6" d="M57.93,143.1a.44.44,0,0,1-.44.44.44.44,0,0,1,0-.88.44.44,0,0,1,.44.44"/><path class="cls-6" d="M53.68,141.15a.44.44,0,1,1-.87,0,.44.44,0,0,1,.87,0"/><path class="cls-6" d="M60.64,139.06a.44.44,0,0,1-.44.44.44.44,0,0,1-.43-.44.43.43,0,0,1,.43-.43.44.44,0,0,1,.44.43"/><path class="cls-6" d="M63.26,141.37a.44.44,0,0,1-.44.43.43.43,0,0,1-.43-.43.44.44,0,0,1,.43-.44.44.44,0,0,1,.44.44"/><path class="cls-6" d="M63.66,138.53a.44.44,0,0,1-.44.43.43.43,0,0,1-.43-.43.44.44,0,0,1,.43-.44.44.44,0,0,1,.44.44"/><path class="cls-6" d="M66.6,139.06a.44.44,0,0,1-.44.44.44.44,0,0,1-.43-.44.43.43,0,0,1,.43-.43.44.44,0,0,1,.44.43"/><path class="cls-6" d="M61.08,136.61a.44.44,0,1,1-.44-.44.44.44,0,0,1,.44.44"/><path class="cls-6" d="M63.66,135.73a.44.44,0,0,1-.44.44.44.44,0,0,1,0-.88.44.44,0,0,1,.44.44"/><path class="cls-6" d="M66.6,136.26a.44.44,0,0,1-.44.44.44.44,0,0,1-.43-.44.43.43,0,0,1,.43-.43.44.44,0,0,1,.44.43"/><path class="cls-28" d="M75.17,135.73a1,1,0,0,1-.88.94,1.4,1.4,0,0,1-.87-.43.74.74,0,0,1-.24-.51c0-.52.73-.94,1.11-.94a1,1,0,0,1,.88.94"/><path class="cls-28" d="M74,135.7s-1,1.47-1.68,2.5a6,6,0,0,0-.35,3.15s1.87-.87,2-2.18a26,26,0,0,0,0-3.47"/><path class="cls-33" d="M70.52,138.7c3,.09,9.26,1.82,13-3.08,1.67-2.22,2.72-3.08,3.76-2.8a.67.67,0,0,1,.43,1,1,1,0,0,1,1.11.1.88.88,0,0,1,.21,1.31s.76.29.56,1c-.31,1.07-2,1-3.38,1.46-1.86,1-3.39,4-8.79,5.06a9.25,9.25,0,0,1-5.77-.76c-2.42-1.23-1.86-3.27-1.08-3.24"/><path class="cls-33" d="M83.47,136.74s0-3.6.66-3.48c1.28.26,1.05,2,.87,2.89s-1.53.59-1.53.59"/><path class="cls-30" d="M57.79,162.26c-.47-.47-1.5.36-1.5.36a27.67,27.67,0,0,1-6.57,2.94,21.65,21.65,0,0,1-5.39.42,7.16,7.16,0,0,0-2.47.14l.53.37s-1.27.2-2.37.44a9.75,9.75,0,0,0-2,.67l1.34.36a14,14,0,0,0-2.56.66A5.17,5.17,0,0,0,35,169.78a19,19,0,0,0,9.57,1.3c8.91-1.42,10.58-4.39,12.74-6.8.18-.19,1-1.46.48-2"/><path class="cls-9" d="M53.55,168.06a32.89,32.89,0,0,1-3.45,1.38c-5.54,1.7-13.44,1-13.44,1a16.78,16.78,0,0,0,8.18.87c5.76-.67,8.71-3.26,8.71-3.26"/><path class="cls-30" d="M54.39,120.11s-.65,1.48-1,2.2a23.27,23.27,0,0,0-1.49,3.78l1.94-2.4s-.57,1.5-.86,2.23c-.23.57-.62,2.25-.62,2.25l1.5-2.08s-.3,1-.68,2.26a11.21,11.21,0,0,0-.3,3s.73-1.54.83-1.87a3.59,3.59,0,0,1,.63-1.42Z"/><path class="cls-30" d="M66,116.27s-.67-.77-1-1.2a7.38,7.38,0,0,0-1.85-1.81l.38,2.07s-.76-.69-1.11-1-1.46-1.13-1.46-1.13l.66,2.07s-.55-.42-1.3-1.06-1.33-1-1.33-1l1,3.31Z"/></g></g></svg>