<?xml version="1.0" encoding="utf-8"?>
<!-- Generator: Adobe Illustrator 26.2.1, SVG Export Plug-In . SVG Version: 6.00 Build 0)  -->
<svg version="1.1" id="Capa_1" xmlns="http://www.w3.org/2000/svg" xmlns:xlink="http://www.w3.org/1999/xlink" x="0px" y="0px"
	 viewBox="0 0 261.8 170.1" style="enable-background:new 0 0 261.8 170.1;" xml:space="preserve">
<style type="text/css">
	.st0{fill:#2FAC66;}
	.st1{fill-rule:evenodd;clip-rule:evenodd;fill:#00A0A4;}
	.st2{fill-rule:evenodd;clip-rule:evenodd;fill:#706F6F;}
	.st3{fill-rule:evenodd;clip-rule:evenodd;fill:#007572;}
	.st4{fill-rule:evenodd;clip-rule:evenodd;fill:#FFFFFF;}
	.st5{fill-rule:evenodd;clip-rule:evenodd;fill:#1D1D1B;}
	.st6{fill-rule:evenodd;clip-rule:evenodd;fill:#555356;}
	.st7{fill-rule:evenodd;clip-rule:evenodd;fill:#DAD8CC;}
	.st8{clip-path:url(#SVGID_00000027602278768322670900000007073370602160531367_);}
	.st9{fill-rule:evenodd;clip-rule:evenodd;fill:#FCC700;}
	.st10{fill:#F3A5C2;}
	.st11{fill:#DAD8CC;}
	.st12{fill:#F39200;}
	.st13{clip-path:url(#SVGID_00000154426607370297735290000011715328757526936508_);}
	.st14{fill:#FCC700;}
	.st15{clip-path:url(#SVGID_00000160177283623990192840000014136319420496931517_);}
	.st16{clip-path:url(#SVGID_00000054233091900989263500000015659085584394681775_);}
	.st17{clip-path:url(#SVGID_00000010285602688089144240000005477677762914811298_);}
	.st18{fill:#FFFFFF;}
	.st19{clip-path:url(#SVGID_00000122716971510167252250000007756804032599871883_);}
	.st20{clip-path:url(#SVGID_00000144312779806135931110000011507203403256099505_);}
	.st21{fill:#1D1D1B;}
	.st22{fill-rule:evenodd;clip-rule:evenodd;fill:#B780B1;}
	.st23{fill-rule:evenodd;clip-rule:evenodd;fill:#9C6297;}
	.st24{fill:none;stroke:#1D1D1B;stroke-width:0.29;stroke-linecap:round;}
	.st25{fill:none;stroke:#1D1D1B;stroke-width:0.3;stroke-linecap:round;}
	.st26{fill-rule:evenodd;clip-rule:evenodd;fill:#1B8A4F;}
	.st27{fill-rule:evenodd;clip-rule:evenodd;fill:#814114;}
	.st28{fill-rule:evenodd;clip-rule:evenodd;fill:#E30613;}
	.st29{fill:url(#SVGID_00000096740451053154692000000006041607950502942117_);}
	.st30{fill:url(#SVGID_00000005245023079367953800000011330027210519897265_);}
	.st31{fill-rule:evenodd;clip-rule:evenodd;fill:#A4A092;}
	.st32{fill:none;stroke:#1D1D1B;stroke-width:0.33;stroke-linecap:round;}
	.st33{fill-rule:evenodd;clip-rule:evenodd;fill:#0D181C;}
	.st34{fill-rule:evenodd;clip-rule:evenodd;fill:#B4B0A4;}
</style>
<g id="Capa_2_00000178890216428009570210000014565772571282950078_">
	<g id="Capa_1-2">
		<path class="st0" d="M24.7,127.6c49.5-6,76.7-2.6,127.9-2c12.9,0.2,36.9,0.1,49.7,0.6c13.2,0.6,22.5,0.2,31,1.5
			c6.5,1,12.2,1.8,16.6,4.2c12.9,7.3,14.8,13.3,8,22.2c-3,3.9-7,6.8-11.6,8.4c-12.4,4.6-30.4,7.5-46.5,7.6c-23.8,0-28.4,0-53.6-1.7
			c-7.2-0.5-17.9-0.6-31.9-1c-22.2-0.7-44.7,1.3-66.6-0.6c-6.1-0.5-12-1.4-17.8-2.4c-6.1-1-12.2-2.2-16.9-4.3
			c-8.9-3.9-13.4-8.2-12.9-13.8c0.2-3.7,2-7.2,5-9.5c3.7-3.1,6.5-7.1,19.9-9.2"/>
		<path class="st1" d="M179.7,83.5h-0.9l-54.4-39.8L69.2,83.5h-0.8V154l111.3-3.9C181.7,129,179.7,83.5,179.7,83.5"/>
		<path class="st2" d="M82.2,153.7c0,0-0.4-18.4-0.1-28.5c0.3-10.4,0-26,0-26s11.4-0.3,16.2-0.6c3.4-0.2,6.9-0.1,10.3,0.2
			c0,0,0,25.4,0,33.7c0,10.2,0,20.2,0,20.2L82.2,153.7z"/>
		<polygon class="st3" points="68.4,83.6 21.5,83.6 21.5,147.8 68.4,154.1 		"/>
		<polygon class="st4" points="50.5,101 34.8,101 34.8,134.8 50.5,135.9 		"/>
		<polygon class="st5" points="45.3,101 44.5,101 44.5,135.5 45.3,135.5 		"/>
		<polygon class="st5" points="40.6,101 39.7,101 39.7,135.1 40.6,135.2 		"/>
		<path class="st5" d="M50.5,112.2H34.8v0.9h15.7V112.2z M50.5,123.8H34.8v0.9h15.7V123.8z"/>
		<path class="st6" d="M50.5,59.9L18.4,84.5h49.9c0,0,21.9-15,28.7-20.2s28.7-20.9,28.7-20.9H73.2L50.5,59.9z"/>
		<polygon class="st2" points="184.5,85.3 180.6,85.3 123.9,44.6 125.8,43.4 		"/>
		<path class="st7" d="M87.2,104.2v18.1c0,0,11.6,0,13.5-0.1s3.5-0.2,3.5-0.2s0.1-4.1,0-8.6s-0.3-9.2-0.3-9.2s-4-0.3-8.1-0.2
			L87.2,104.2"/>
		<path class="st7" d="M87.7,128.3c0,0,1.8,0.1,6.5,0c4.9-0.1,9.4,0,9.4,0s-0.2,5.7,0,10.6s0,9.2,0,9.2s-6.8,0.4-10.2,0.6
			s-5.7,0-5.7,0L87.7,128.3L87.7,128.3z"/>
		<path class="st4" d="M132.2,75c0.4-4.9,0.4-7.4,0-9.8c-0.7-3.8-3.1-6.1-6.9-6.1c-3.8,0-6.9,3.1-6.9,6.9l0,0v9H132.2z"/>
		<polygon class="st5" points="126.2,59.1 125.2,59.1 125.2,75 126,75 		"/>
		<polygon class="st5" points="118.4,67.2 118.4,68.3 132.5,68.1 132.5,67.4 		"/>
		<g>
			<g>
				<g>
					<defs>
						<path id="SVGID_1_" d="M147.2,100.7c-11.9,0.1-20.5,9.9-20.3,21.9l0.2,13.6c0,0,27.7,1.1,43.3-0.5c1.1-0.1-0.2-13.6-0.2-13.6
							c-0.1-13.5-10.8-21.4-22.6-21.4H147.2"/>
					</defs>
					<clipPath id="SVGID_00000025437059714968977600000000279384376730437771_">
						<use xlink:href="#SVGID_1_"  style="overflow:visible;"/>
					</clipPath>
					<g style="clip-path:url(#SVGID_00000025437059714968977600000000279384376730437771_);">
						<path class="st4" d="M183.6,122c0.2,15.9-12.6,28.9-28.5,29.1l-26.6,0.3c-15.9,0.2-28.9-12.6-29.1-28.5S112,94,127.9,93.8
							l26.6-0.3C170.3,93.3,183.4,106.1,183.6,122L183.6,122"/>
						<polygon class="st9" points="136.5,136.5 124.2,136.7 123.8,97.3 135.9,97.1 						"/>
						<polygon class="st9" points="161.8,136.3 170.8,136.1 170.3,96.7 162.3,96.8 						"/>
						<path class="st10" d="M128.2,120.7c1.8-0.3,3.6-0.9,5.1-1.9c2.3-1.8,3.8-3.2,3.9-3.5s-1.7-0.8-3.4,0S128.2,120.8,128.2,120.7"
							/>
						<path class="st11" d="M137.7,115c-1.7-0.7-3.6-0.7-5.4-0.1c-1.7,0.6-3.1,2-3.7,3.7c-0.5,1.5-0.9,2.3-0.5,2.2
							c0.5-0.3,2-2.4,3.8-3.6C133.7,116.1,135.7,115.3,137.7,115"/>
						<path class="st12" d="M145.6,109.1c1.5-1.9,3.5-3.4,5.6-4.5c0.2,0-3.2,3.9-4.5,6.5c-0.9,1.7-1.6,3.3-1.6,3.3l-2.5-0.4
							C143.4,112.3,144.4,110.6,145.6,109.1"/>
					</g>
				</g>
			</g>
		</g>
		<g>
			<g>
				<g>
					<defs>
						<path id="SVGID_00000170998260232701433070000013898186251884696450_" d="M151.2,104.6c-2.2,1.1-4.1,2.6-5.6,4.5
							c-1.1,1.6-2.1,3.2-3,4.9l2.5,0.4c0,0,0.7-1.6,1.6-3.3C148,108.5,151.5,104.6,151.2,104.6L151.2,104.6"/>
					</defs>
					<clipPath id="SVGID_00000163755857408617854040000005366890767701933995_">
						<use xlink:href="#SVGID_00000170998260232701433070000013898186251884696450_"  style="overflow:visible;"/>
					</clipPath>
					<g style="clip-path:url(#SVGID_00000163755857408617854040000005366890767701933995_);">
						<path class="st14" d="M142.9,112c0,0,0.9,0.4,1.9,0.7c0.4,0.1,0.8,0.3,1.2,0.4l0.9-1.4c-0.9-0.4-1.9-0.8-2.8-1.1
							C143,110.3,142.9,112,142.9,112"/>
						<path class="st14" d="M144.9,108.9c0,0,0.9,0.4,1.8,0.9c0.4,0.2,0.8,0.4,1.2,0.5l1-1.3c-0.9-0.5-1.8-1-2.7-1.4
							C145.2,107.2,144.8,108.9,144.9,108.9"/>
						<path class="st14" d="M147.2,106.1c0,0,0.8,0.6,1.7,1.1c0.4,0.2,0.7,0.5,1.1,0.6l1.2-1.1c-0.8-0.6-1.6-1.2-2.5-1.7
							S147.2,106.1,147.2,106.1"/>
					</g>
				</g>
			</g>
		</g>
		<g>
			<g>
				<g>
					<defs>
						<path id="SVGID_00000039116958949944891470000011304898853675532450_" d="M147.2,100.7c-11.9,0.1-20.5,9.9-20.3,21.9l0.2,13.6
							c0,0,27.7,1.1,43.3-0.5c1.1-0.1-0.2-13.6-0.2-13.6c-0.1-13.5-10.8-21.4-22.6-21.4H147.2"/>
					</defs>
					<clipPath id="SVGID_00000067195829630447808160000004744149694948085933_">
						<use xlink:href="#SVGID_00000039116958949944891470000011304898853675532450_"  style="overflow:visible;"/>
					</clipPath>
					<g style="clip-path:url(#SVGID_00000067195829630447808160000004744149694948085933_);">
						<path class="st12" d="M136.1,109.2c-1.5-1.9-3.5-3.4-5.6-4.5c-0.2,0,3.2,3.9,4.5,6.5c0.9,1.7,1.6,3.3,1.6,3.3l2.5-0.4
							C138.2,112.4,137.2,110.8,136.1,109.2"/>
					</g>
				</g>
			</g>
		</g>
		<g>
			<g>
				<g>
					<defs>
						<path id="SVGID_00000020380965878563532270000018041093034678803337_" d="M132.4,107.4c1,1.2,1.8,2.5,2.6,3.9
							c0.9,1.7,1.6,3.3,1.6,3.3l2.5-0.4c-0.9-1.7-1.9-3.4-3-4.9c-0.8-1-1.8-1.9-2.8-2.7C133,106.8,132.7,107.1,132.4,107.4"/>
					</defs>
					<clipPath id="SVGID_00000044872594039506062130000004120895628039791024_">
						<use xlink:href="#SVGID_00000020380965878563532270000018041093034678803337_"  style="overflow:visible;"/>
					</clipPath>
					<g style="clip-path:url(#SVGID_00000044872594039506062130000004120895628039791024_);">
						<path class="st14" d="M138.8,112.2c0,0-0.9,0.4-1.9,0.7c-0.4,0.1-0.8,0.3-1.2,0.4l-0.9-1.4c0.9-0.4,1.9-0.8,2.8-1.1
							C138.7,110.4,138.8,112.2,138.8,112.2"/>
						<path class="st14" d="M136.8,109.1c0,0-0.9,0.4-1.8,0.9c-0.4,0.2-0.8,0.4-1.2,0.5l-1-1.3c0.9-0.5,1.8-1,2.7-1.4
							C136.4,107.3,136.8,109.1,136.8,109.1"/>
						<path class="st14" d="M134.4,106.3c0,0-0.8,0.6-1.7,1.1c-0.4,0.2-0.7,0.5-1.1,0.6l-1.2-1.1c0.8-0.6,1.6-1.2,2.5-1.7
							C133.9,104.6,134.4,106.3,134.4,106.3"/>
					</g>
				</g>
			</g>
		</g>
		<g>
			<g>
				<g>
					<defs>
						<path id="SVGID_00000098207699821245684320000014095608347209252258_" d="M147.2,100.7c-11.9,0.1-20.5,9.9-20.3,21.9l0.2,13.6
							c0,0,27.7,1.1,43.3-0.5c1.1-0.1-0.2-13.6-0.2-13.6c-0.1-13.5-10.8-21.4-22.6-21.4H147.2"/>
					</defs>
					<clipPath id="SVGID_00000083067730241163057290000014460476722992469645_">
						<use xlink:href="#SVGID_00000098207699821245684320000014095608347209252258_"  style="overflow:visible;"/>
					</clipPath>
					<g style="clip-path:url(#SVGID_00000083067730241163057290000014460476722992469645_);">
						<path class="st11" d="M136.2,127.4c0,0-1,9.2-1,11.2s-0.1,4.6,0,5S147,144,147,144s-1.4-14.1-1.5-16.9
							C142.4,126.9,139.2,127.1,136.2,127.4"/>
						<path class="st18" d="M144.6,138.4c0,4.6-1.9,7.1-3.9,7.1s-3.6-2.1-3.5-6.7c0.1-5.6,1.5-9.9,3.5-9.9
							C143.5,128.9,144.6,133.8,144.6,138.4"/>
						<path class="st10" d="M153.3,120.3c-1.9,0.1-3.7-0.3-5.3-1.3c-1.5-0.9-2.7-2.1-3.6-3.5c-0.1-0.3,3.2,0.6,5.1,1.1
							S153.3,120.3,153.3,120.3"/>
						<path class="st11" d="M150.3,115.5c1.6,0.9,2.7,2.4,3.1,4.2c0.1,1-0.2,0.6-0.6,0.2c-1.4-2.2-3.9-3.6-6.6-3.8l-1.1-1.5
							C146.9,114.3,148.8,114.6,150.3,115.5"/>
						<path class="st11" d="M134.4,122c0.4,3.3,1.9,12,6.8,11.4s4.8-5.4,5.7-8c1.2-3.2,0.1-10.2-1.7-11.5s-6.4-1.3-8.4,0.4
							S134,118.7,134.4,122"/>
					</g>
				</g>
			</g>
		</g>
		<g>
			<g>
				<g>
					<defs>
						<path id="SVGID_00000146496720925830965960000000170060018243821756_" d="M136.8,114.2c-1.9,1.7-2.8,4.5-2.4,7.8
							s1.9,12,6.8,11.4s4.8-5.4,5.7-8c1.2-3.2,0.1-10.2-1.7-11.5c-1.2-0.7-2.5-1.1-3.8-1C139.7,112.8,138.1,113.2,136.8,114.2"/>
					</defs>
					<clipPath id="SVGID_00000131353459879476794320000017533098634437921464_">
						<use xlink:href="#SVGID_00000146496720925830965960000000170060018243821756_"  style="overflow:visible;"/>
					</clipPath>
					<g style="clip-path:url(#SVGID_00000131353459879476794320000017533098634437921464_);">
						<path class="st18" d="M148,124.2c0,0.5-0.4,0.8-0.8,0.9c-0.4,0-0.8-0.2-0.8-0.7v-0.1c0-0.5,0.4-0.8,0.8-0.8
							S148,123.7,148,124.2"/>
						<path class="st18" d="M136,124.5c0,0.6-0.4,1-1,1s-1-0.4-1-1s0.4-1,1-1S136,124,136,124.5"/>
						<path class="st18" d="M145.8,123.4c0,0.3-0.1,0.6-0.5,0.6c-0.3,0-0.6-0.2-0.7-0.6c0-0.3,0.3-0.6,0.6-0.6
							S145.8,123.1,145.8,123.4"/>
					</g>
				</g>
			</g>
		</g>
		<g>
			<g>
				<g>
					<defs>
						<path id="SVGID_00000080197228567793978460000010045791028584641722_" d="M147.2,100.7c-11.9,0.1-20.5,9.9-20.3,21.9l0.2,13.6
							c0,0,27.7,1.1,43.3-0.5c1.1-0.1-0.2-13.6-0.2-13.6c-0.1-13.5-10.8-21.4-22.6-21.4H147.2"/>
					</defs>
					<clipPath id="SVGID_00000132799093087083856890000011181251624960308623_">
						<use xlink:href="#SVGID_00000080197228567793978460000010045791028584641722_"  style="overflow:visible;"/>
					</clipPath>
					<g style="clip-path:url(#SVGID_00000132799093087083856890000011181251624960308623_);">
						<path class="st11" d="M144.8,128c0,0,4.6,2.6,5.6,4c1.6,2.1-1.1,5-1.1,5l-1.5-1.2c0,0,1.6-1.6,1.4-2.4s-4.1-3.3-4.1-3.3
							L144.8,128z"/>
						<path class="st21" d="M149.3,137c0,0-1.3,2.4-1.6,2.1s0.4-1.7,0.4-1.7s-1.4,1.1-1.6,0.8s1.4-2.4,1.4-2.4L149.3,137z"/>
						<path class="st11" d="M136.3,128.4c0,0-4.4,2.4-5.3,3.9c-1.4,2.3,1.7,5.5,1.7,5.5l1.4-1.4c0,0-1.7-1.8-1.5-2.6
							s3.7-3.3,3.7-3.3L136.3,128.4z"/>
						<path class="st21" d="M132.7,137.8c0,0,1.5,2.3,1.8,2s-0.5-1.6-0.5-1.6s1.5,1,1.7,0.6s-1.6-2.2-1.6-2.2L132.7,137.8z"/>
						<path class="st18" d="M142.8,118.7c-0.4,0.9,0.1,2,1.1,2.3c0.1,0,0.2,0.1,0.4,0.1c0.9,0.2,1.9-0.4,2.1-1.3c0-0.1,0-0.2,0-0.3
							c0.2-1.1-0.5-2.1-1.5-2.3l0,0C143.9,117.1,143,117.7,142.8,118.7"/>
						<path class="st21" d="M143.2,119.1c-0.1,0.2,0,0.3,0.2,0.4l0,0c0.2,0,0.3,0,0.4-0.2l0,0c0-0.2-0.1-0.3-0.2-0.4l0,0
							C143.4,118.9,143.3,119,143.2,119.1"/>
						<path class="st18" d="M135.2,119c-0.4,0.9,0,2,0.9,2.4c0.1,0,0.2,0.1,0.3,0.1c0.9,0.2,1.9-0.3,2.1-1.2c0-0.1,0-0.2,0-0.3
							c0.3-1-0.3-2.1-1.4-2.3C136.3,117.5,135.4,118.1,135.2,119"/>
						<path class="st21" d="M135.8,119.4c-0.1,0.2,0,0.3,0.2,0.4l0,0c0.2,0,0.3,0,0.4-0.2l0,0c0-0.2-0.1-0.3-0.2-0.4l0,0
							C136,119.2,135.8,119.3,135.8,119.4"/>
						<path class="st22" d="M143.4,113.1c0.6,0.9,2.2,2.2,2.4,2c0.7-1.1,1.1-2.2,1.3-3.5c-1.2-0.3-2.4-0.2-3.5,0.3
							c-0.6-1-1.5-1.8-2.6-2.4c-0.6,1.2-0.9,2.4-0.9,3.7C140.1,113.3,142.4,113.8,143.4,113.1"/>
						<path class="st23" d="M143,113.7c-0.7-0.1-0.6-0.8-0.4-1.5s0.4-1,1.1-0.8s0.7,0.7,0.4,1.3S143.7,113.8,143,113.7"/>
						<path class="st24" d="M140.8,131.3c0,0.4,0.1,0.9,0.2,1.3c0.1,0.3,0.3,0.5,0.4,0.8"/>
						<path class="st25" d="M144,132.1c0.2-0.3,0.3-0.6,0.3-0.9c0-0.2-0.1-0.4-0.3-0.6"/>
						<path class="st10" d="M140.8,131.3c0.3,0,0.9-0.6,1.4-1.2s0.9-1.1,0.1-1.7c-0.9-0.5-2.1-0.5-3,0c-0.7,0.4-0.3,1-0.1,1.3
							C139.7,130.3,140.5,131.3,140.8,131.3"/>
					</g>
				</g>
			</g>
		</g>
		<polygon class="st5" points="155.2,101.9 154.4,101.6 154.8,136.5 155.7,136.5 		"/>
		<polygon class="st5" points="141.6,101.6 140.5,101.9 140.9,136.5 141.7,136.5 		"/>
		<polygon class="st5" points="170.4,124.8 170.3,123.8 126.9,124.4 126.9,125.4 		"/>
		<polygon class="st5" points="168.3,113.3 167.9,112.4 128.9,112.8 128.5,113.7 		"/>
		<path class="st26" d="M221.6,130.8c-4.1,0-19.2-5.6-23.6-17.6s-0.8-38,2.1-48.9S221.4,0,221.4,0s5.7,12.2,10.5,20.5
			s19.2,41.4,22,53.9c2.8,12.5,2.9,34.7-4.3,44.3C240.7,130.8,233.6,128.5,221.6,130.8"/>
		<path class="st27" d="M222.7,160.3c0,0,0.2-15.3,0.2-21.6s1.1-18.7-0.2-19.6s-3.9-1.5-6.9-2.8c-3-1.1-6.1-1.8-9.2-2l-2.9-0.3
			l0.6-2.7c0.8-0.1,1.7-0.1,2.5,0c2.1,0.1,2.8,0.3,3.8,0.4c2,0.2,3.2,1.1,3.2,0s-0.4-5.8,0.6-5.3c0.6,0.3,1.1,0.5,1.7,0.7
			c0.4,1.1,0.6,2.2,0.8,3.4c0.1,0.8,0.1,1.6,0.1,2.4c0,0,2.5,0.9,4,1.2c1.3,0.3,1.7,0,1.8-2.6c0-3.7,0.9-13,0.2-15.4
			c-0.4-2-1.9-3.6-3.9-4.2c-2.2-0.6-4.3-1.3-6.4-2.1c-1.1-0.6-2.4-1-3.6-1.1l0.2-2c1.3,0.2,2.7,0.5,4,0.9c1,0.4,4.6,1.5,4.6,1.5
			c-0.7-1.6-1.3-3.2-1.8-4.9c0-0.6-0.2-3.1-0.2-3.1h1.6l0.5,2.7h3.2l0.6,1l-2.5,1.1l1.4,3.3l2.8,1.1c0,0-0.4-11.2-0.9-14.8l-0.4-3.6
			c0,0-2.8-1.5-4.2-2.1s-5.2-1.7-5.2-1.7v-2l5.1,1.5c-0.5-0.6-1-1.3-1.4-2c-0.6-1.2-0.1-1.2-0.1-1.2l1.5-0.5l4.2,5.2
			c0,0-0.2-14.9-0.4-16.3s-5.5-5.4-5.5-5.4l0.8-1.1l1.1,0.5c2.3,1.3,3.8,2.8,4.4,3.1s5.6-10.1,6.7-10.7l1.1-0.6
			c2.1,1,1.7,2.4,1.7,2.4c-1,1-2,2.1-2.8,3.3c-1.2,1.9-1.7,2.6-1.7,2.6l3.4,3l-0.6,1c0,0-2.9-2.8-3.6-2.6c-0.6,0.1-1,4.6-1,4.6
			s1.9,10.3,1.9,13.1s0.8,6.2,1.6,7c0.6,0.4,1.4,0.4,1.9,0l-1.3-3.8h2.2l1.8,3.8c0,0,5.5-2.6,6.8-3.3s3.2,2.4,3.2,2.4
			s-0.8,0.3-2.5,0.9s-5.9,1.6-7.8,2.5s-4.3,2.3-4.3,3.2c0,1.5,0.9,14.3,1.1,17.7s0.1,10.2,0.1,10.2s2.9-2,5.2-3.4s5.7-3.5,5.7-3.5
			l0.9,1.4l-3.4,3.1c0.3,0.7,0.7,1.4,1.3,2l0.6,0.5l-1.3,1.5c-0.7-0.6-1.4-1.3-2-2l-0.6-0.8l-6.1,6l1.9,49L222.7,160.3z"/>
		<path class="st28" d="M73.2,113.1c0,0,0.7,1.6,1.2,2.8c0.6,0.9,1.5,1.6,2.5,2c0,0,0.2-2-0.8-2.9C75.1,114.3,74.2,113.7,73.2,113.1
			"/>
		
			<linearGradient id="SVGID_00000075131104635262804370000002894666696370957754_" gradientUnits="userSpaceOnUse" x1="73.425" y1="9.7011" x2="73.1992" y2="25.51" gradientTransform="matrix(1 0 0 -1 0 172)">
			<stop  offset="0" style="stop-color:#313131"/>
			<stop  offset="0.5223" style="stop-color:#9D998C"/>
			<stop  offset="0.5586" style="stop-color:#A4A092"/>
		</linearGradient>
		<path style="fill:url(#SVGID_00000075131104635262804370000002894666696370957754_);" d="M69.7,143.5c0.7,4.8,1.1,9.7,1.2,14.6
			c0.5,1,1.2,1.4,3.3,2.1c1.3,0.5,2.2-0.9,0.1-1.7c0,0,2.3,0.7,2.4-0.1c0.2-1.1-1.8-1-1.8-1c0.7,0,1.9-0.3,1.9-0.8
			c0-1.3-2.3-0.8-3.1-0.4c0,0,0-11.6-1.3-14.4S69.7,143.5,69.7,143.5"/>
		
			<linearGradient id="SVGID_00000035502166790391125880000007282939992289709207_" gradientUnits="userSpaceOnUse" x1="58.2745" y1="9.4847" x2="58.0487" y2="25.2936" gradientTransform="matrix(1 0 0 -1 0 172)">
			<stop  offset="0" style="stop-color:#313131"/>
			<stop  offset="0.5223" style="stop-color:#9D998C"/>
			<stop  offset="0.5586" style="stop-color:#A4A092"/>
		</linearGradient>
		<path style="fill:url(#SVGID_00000035502166790391125880000007282939992289709207_);" d="M54.8,143.5c0,0,1.4,9.9,1.1,14.7
			c-0.1,1.5,2,1.6,4.1,1.4c1.5-0.2,1.5-1.5-0.5-1.4c0,0,1.9-0.1,1.9-1.1s-1.9-0.2-1.9-0.2c0.5-0.4,1.2-1.1,0.8-1.6s-1.1,0.1-1.5,0.4
			c0,0,0.8-9.7-1.3-14C56.1,138.9,54.8,143.6,54.8,143.5"/>
		<path class="st31" d="M54.8,109c-1.6,7.1-2.9,14.4-3.8,21.6c-1.1,8,1.8,12,2.8,13.2c3.6,4.3,16.1,6.3,18.8,1.3
			c5.2-9.9,1.3-36,1.3-36L54.8,109z"/>
		<path class="st31" d="M53.1,115.8c0,0-0.7,1-1.1,1.7c-0.4,0.8-0.7,1.5-1,2.3l1.2-0.8c0,0-0.8,1.1-1.2,1.8
			c-0.3,0.5-0.9,2.2-0.9,2.2l1.7-1.9c0,0-0.5,0.8-1.2,2c-0.6,0.9-1,1.9-1.2,3l2.7-2.9L53.1,115.8z"/>
		<path class="st31" d="M51.9,123.6c0,0-0.8,1.4-1.3,2.1c-0.7,1.1-1.4,2.3-1.9,3.6l2.2-2.2c0,0-0.7,1.4-1.1,2.1
			c-0.3,0.5-0.9,2.2-0.9,2.2l1.7-1.9c0,0-0.4,0.9-0.9,2.2c-0.3,0.9-0.5,1.9-0.6,2.9c0,0,0.9-1.4,1-1.8c0.5-1.1,0.8-1.3,0.8-1.3
			L51.9,123.6z"/>
		<path class="st11" d="M70.2,113.5c0,0,0.1,4.1,0.8,5.6s1.1,2.4,1.1,2.4l0.3-2.4c0.8,1.6,1.7,3.2,2.8,4.6v-3l-0.7-7.4L70.2,113.5z"
			/>
		<path class="st31" d="M54.2,94.4c-0.3-2.9-0.4-5.7-0.4-8.6c0,0,4.3,4.3,5.9,7.4c0.6,0.4,0.2,0,2.8-0.1c1.3,0,2.3,0.3,2.7-0.2
			c0-2.5,0.1-5.1,0.4-7.6c1.9,2.2,3.7,4.5,5.3,7c4.1,2.3,22,11.4,23.7,11.8s-3.6,2.7-5.7,3.2c-1.8,0.4-18.2,3-18.2,3L55,109.5
			c0,0-1-1.1-1.2-4.5S54.2,97,54.2,94.4"/>
		<path class="st11" d="M74.5,112.8c-1.9,0.9-6.2-0.3-6.2-0.3s-0.7-1.3-1.6-3.5c-1.5-3.5-1.2-12.9,3-13.9c1.9-0.5,6.4,1.9,10.1,3.4
			c4.7,1.9,8.5,3.2,8.5,3.2v5.8c0,0-12.8,2.4-13.8,2.4C74.3,110.9,74.3,111.9,74.5,112.8"/>
		<path class="st18" d="M75.9,95.3c0.5,0.1,0.9,0.5,1.1,1c0.5,1.2,0.3,3.1-1.5,3.6c-1.2,0.4-2.5-0.3-2.9-1.5c0-0.1,0-0.1-0.1-0.2
			c-0.3-1.2,0.1-3,1.7-2.9C74.2,95.6,75.1,95.6,75.9,95.3"/>
		<path class="st21" d="M76,96.6c0.1,0.2,0.1,0.4-0.1,0.6h-0.1c-0.2,0.1-0.4,0-0.5-0.2c0,0,0,0,0-0.1c-0.1-0.2,0-0.5,0.2-0.6l0,0
			C75.7,96.3,75.9,96.4,76,96.6"/>
		<path class="st32" d="M76.7,95.4c-1.1,0.2-2.2,0.1-3.3-0.1c-0.7-0.2-1.4-0.4-2-0.8"/>
		<path class="st33" d="M91.5,102.4c-1.5-0.6-3.6-1.4-3.6-1.4c0.1,1.3,0.2,2.7,0.2,4c0,0.9-0.1,1.8-0.3,2.6c2.5-0.3,8.5-2.3,7.4-3.5
			C94.5,103.5,93.4,103.2,91.5,102.4"/>
		<path class="st4" d="M70.4,109l0.6,2.5l1-1.7l0.7,2.1l1.1-2c0.3,0.7,0.6,1.4,1,2c0-0.1,0.6-2.2,0.6-2.2c-0.8,0-1.6,0-2.4-0.1
			C72.1,109.6,71.3,109.4,70.4,109"/>
		<path class="st32" d="M75.4,109.6c0,0-3.7,0.3-5.2-1s-1.5-2.1-1.5-2.1"/>
		<path class="st28" d="M54.2,108.5c0,0,0.7,1.4,5.8,2.6s14.2,1.4,14.2,1.4c-3.8,3.7-8.3,6.6-13.2,8.6c-2.3,0.9-13,3-13,3
			c1-1.8,1.9-3.7,2.7-5.6c1.1-2.6,2-5.3,2.6-8.1C53.5,109.7,53.8,109.1,54.2,108.5"/>
		<path class="st4" d="M55.8,110.4c0,0.2-0.1,0.5-0.4,0.5c-0.2,0-0.5-0.1-0.5-0.4v-0.1c0-0.2,0.3-0.4,0.5-0.4S55.8,110.2,55.8,110.4
			"/>
		<path class="st4" d="M55.8,114.2c0,0.2-0.2,0.4-0.4,0.4s-0.4-0.2-0.4-0.4c0-0.2,0.2-0.4,0.4-0.4S55.8,113.9,55.8,114.2L55.8,114.2
			"/>
		<path class="st4" d="M58.4,112.3c0,0.2-0.2,0.4-0.4,0.4s-0.4-0.2-0.4-0.4c0-0.2,0.2-0.4,0.4-0.4l0,0
			C58.2,111.9,58.4,112.1,58.4,112.3"/>
		<path class="st4" d="M58.1,115.1c0,0.2-0.2,0.4-0.4,0.4s-0.4-0.2-0.4-0.4s0.2-0.4,0.4-0.4C57.9,114.6,58.1,114.8,58.1,115.1"/>
		<path class="st4" d="M55.3,117c0,0.2-0.2,0.4-0.4,0.4l0,0c-0.2,0-0.5-0.1-0.5-0.4c0-0.2,0.1-0.5,0.4-0.5h0.1
			C55.1,116.6,55.3,116.8,55.3,117"/>
		<path class="st4" d="M55.8,119.8c0,0.2-0.3,0.4-0.5,0.4s-0.3-0.2-0.4-0.4c0-0.2,0.1-0.5,0.4-0.5C55.5,119.3,55.8,119.4,55.8,119.8
			C55.8,119.7,55.8,119.8,55.8,119.8"/>
		<path class="st4" d="M51.6,120.2c0,0.2-0.3,0.4-0.5,0.4s-0.3-0.2-0.4-0.4c0-0.2,0.1-0.5,0.4-0.5C51.3,119.7,51.6,119.8,51.6,120.2
			L51.6,120.2"/>
		<path class="st4" d="M50.6,122.4c0,0.2-0.2,0.4-0.4,0.4l0,0c-0.2,0-0.4-0.2-0.4-0.4c0-0.2,0.2-0.4,0.4-0.4
			C50.4,122,50.6,122.2,50.6,122.4"/>
		<path class="st4" d="M53.8,121.6c0,0.2-0.1,0.5-0.4,0.5c-0.2,0-0.5-0.1-0.5-0.4v-0.1c0-0.2,0.3-0.4,0.5-0.4
			C53.7,121.3,53.8,121.4,53.8,121.6"/>
		<path class="st4" d="M53.7,115.4c0,0.2-0.1,0.5-0.4,0.5c-0.2,0-0.5-0.1-0.5-0.4v-0.1c0-0.2,0.3-0.4,0.5-0.4S53.7,115.2,53.7,115.4
			"/>
		<path class="st4" d="M54.2,112.3c0,0.2-0.3,0.4-0.5,0.4s-0.3-0.2-0.4-0.4c0-0.2,0.1-0.5,0.4-0.5C53.9,111.8,54.2,111.9,54.2,112.3
			C54.3,112.3,54.3,112.3,54.2,112.3"/>
		<path class="st4" d="M58.1,117.8c0,0.2-0.2,0.4-0.4,0.4s-0.4-0.2-0.4-0.4s0.2-0.4,0.4-0.4C57.9,117.4,58.1,117.6,58.1,117.8"/>
		<path class="st4" d="M69.6,114.2c0,0.2-0.2,0.4-0.4,0.4c-0.2,0-0.4-0.2-0.4-0.4c0-0.2,0.2-0.4,0.4-0.4
			C69.4,113.8,69.6,114,69.6,114.2L69.6,114.2"/>
		<path class="st4" d="M60.6,119.1c0,0.2-0.2,0.4-0.4,0.4l0,0c-0.2,0-0.4-0.2-0.4-0.4s0.2-0.4,0.4-0.4
			C60.4,118.7,60.6,118.9,60.6,119.1L60.6,119.1"/>
		<path class="st4" d="M57.9,120.6c0,0.2-0.2,0.4-0.4,0.4l0,0c-0.2,0-0.4-0.2-0.4-0.4s0.2-0.4,0.4-0.4S57.9,120.4,57.9,120.6
			L57.9,120.6"/>
		<path class="st4" d="M53.7,118.7c0,0.2-0.1,0.5-0.4,0.5c-0.2,0-0.5-0.1-0.5-0.4v-0.1c0-0.2,0.3-0.4,0.5-0.4
			C53.5,118.4,53.7,118.5,53.7,118.7"/>
		<path class="st4" d="M60.6,116.6c0,0.2-0.2,0.4-0.4,0.4l0,0c-0.2,0-0.4-0.2-0.4-0.4c0-0.2,0.2-0.4,0.4-0.4
			C60.4,116.2,60.6,116.4,60.6,116.6"/>
		<path class="st4" d="M63.3,118.9c0,0.2-0.2,0.4-0.4,0.4s-0.4-0.2-0.4-0.4c0-0.2,0.2-0.4,0.4-0.4S63.3,118.7,63.3,118.9L63.3,118.9
			"/>
		<path class="st4" d="M63.7,116.1c0,0.2-0.2,0.4-0.4,0.4s-0.4-0.2-0.4-0.4c0-0.2,0.2-0.4,0.4-0.4C63.5,115.6,63.7,115.8,63.7,116.1
			L63.7,116.1"/>
		<path class="st4" d="M66.6,116.6c0,0.2-0.2,0.4-0.4,0.4l0,0c-0.2,0-0.4-0.2-0.4-0.4c0-0.2,0.2-0.4,0.4-0.4S66.6,116.4,66.6,116.6"
			/>
		<path class="st4" d="M61.1,114.2c0,0.2-0.2,0.4-0.4,0.4s-0.4-0.2-0.4-0.4c0-0.2,0.2-0.4,0.4-0.4S61.1,113.9,61.1,114.2L61.1,114.2
			"/>
		<path class="st4" d="M63.7,113.3c0,0.2-0.2,0.4-0.4,0.4l0,0c-0.2,0-0.4-0.2-0.4-0.4s0.2-0.4,0.4-0.4
			C63.5,112.8,63.7,113,63.7,113.3L63.7,113.3"/>
		<path class="st4" d="M66.6,113.8c0,0.2-0.2,0.4-0.4,0.4l0,0c-0.2,0-0.4-0.2-0.4-0.4c0-0.2,0.2-0.4,0.4-0.4S66.6,113.6,66.6,113.8"
			/>
		<path class="st28" d="M75.2,113.3c0,0.5-0.4,0.9-0.9,0.9c-0.3,0-0.6-0.2-0.9-0.4c-0.1-0.1-0.2-0.3-0.2-0.5c0-0.5,0.7-0.9,1.1-0.9
			C74.8,112.4,75.1,112.8,75.2,113.3"/>
		<path class="st28" d="M74,113.2c0,0-1,1.5-1.7,2.5c-0.4,1-0.5,2.1-0.3,3.1c0,0,1.9-0.9,2-2.2C74,115.6,74,114.4,74,113.2"/>
		<path class="st34" d="M70.5,116.2c3,0.1,9.3,1.8,13-3.1c1.7-2.2,2.7-3.1,3.8-2.8c0.4,0.1,0.6,0.4,0.5,0.8c0,0.1,0,0.1-0.1,0.2
			c0.4-0.2,0.8-0.2,1.1,0.1c0.4,0.3,0.5,0.8,0.3,1.2c0,0,0,0.1-0.1,0.1c0,0,0.8,0.3,0.6,1c-0.3,1.1-2,1-3.4,1.5
			c-1.9,1-3.4,4-8.8,5.1c-2,0.4-4,0.1-5.8-0.8C69.2,118.3,69.8,116.3,70.5,116.2"/>
		<path class="st34" d="M83.5,114.3c0,0,0-3.6,0.7-3.5c1.3,0.3,1.1,2,0.9,2.9S83.5,114.3,83.5,114.3"/>
		<path class="st31" d="M57.8,139.8c-0.5-0.5-1.5,0.4-1.5,0.4c-2.1,1.3-4.3,2.3-6.6,2.9c-1.8,0.4-3.6,0.5-5.4,0.4
			c-0.8-0.1-1.7,0-2.5,0.1l0.5,0.4c0,0-1.3,0.2-2.4,0.4c-0.7,0.2-1.4,0.4-2,0.7l1.3,0.4c-0.9,0.1-1.7,0.4-2.6,0.7
			c-0.7,0.3-1.3,0.7-1.8,1.2c3,1.3,6.3,1.7,9.6,1.3c8.9-1.4,10.6-4.4,12.7-6.8C57.5,141.6,58.3,140.4,57.8,139.8"/>
		<path class="st7" d="M53.5,145.6c-1.1,0.5-2.3,1-3.5,1.4c-5.5,1.7-13.4,1-13.4,1c2.6,1,5.4,1.3,8.2,0.9
			C50.6,148.2,53.5,145.6,53.5,145.6"/>
		<path class="st31" d="M54.4,97.7c0,0-0.7,1.5-1,2.2c-0.6,1.2-1.1,2.5-1.5,3.8l1.9-2.4c0,0-0.6,1.5-0.9,2.2
			c-0.2,0.6-0.6,2.2-0.6,2.2l1.5-2.1c0,0-0.3,1-0.7,2.3c-0.2,1-0.3,2-0.3,3c0,0,0.7-1.5,0.8-1.9c0.1-0.5,0.3-1,0.6-1.4L54.4,97.7z"
			/>
		<path class="st31" d="M66,93.8c0,0-0.7-0.8-1-1.2c-0.5-0.7-1.1-1.3-1.8-1.8l0.4,2.1c0,0-0.8-0.7-1.1-1S61,90.7,61,90.7l0.7,2.1
			c0,0-0.5-0.4-1.3-1.1s-1.3-1-1.3-1l1,3.3L66,93.8z"/>
	</g>
</g>
</svg>
