<?xml version="1.0" encoding="utf-8"?>
<!-- Generator: Adobe Illustrator 26.2.1, SVG Export Plug-In . SVG Version: 6.00 Build 0)  -->
<svg version="1.1" id="Capa_1" xmlns="http://www.w3.org/2000/svg" xmlns:xlink="http://www.w3.org/1999/xlink" x="0px" y="0px"
	 viewBox="0 0 368.6 275.1" style="enable-background:new 0 0 368.6 275.1;" xml:space="preserve">
<style type="text/css">
	.st0{fill:#DAD8CC;}
	.st1{clip-path:url(#SVGID_00000069371439559586079930000004039847670287251861_);}
	.st2{clip-path:url(#SVGID_00000129207289118928271810000006550625096218159032_);}
</style>
<g id="Capa_2_00000116915481130444929380000013007026541603320231_">
	<g id="Capa_1-2">
		<path class="st0" d="M8.8,27.4c0,0,2.9,224.5,3.4,229.1c0.7,6.2,7.3,14,17.9,14.9c10.6,0.8,316.7-6,323-6.4
			c6-0.2,10.6-5.3,10.4-11.2c0-0.1,0-0.2,0-0.2c-0.4-5.7-8-225.2-8-225.2L8.8,27.4z"/>
		<g>
			<defs>
				
					<rect id="SVGID_1_" x="18.7" y="-70.1" transform="matrix(7.242337e-02 -0.9974 0.9974 7.242337e-02 35.5684 302.6534)" width="323.5" height="404.6"/>
			</defs>
			<clipPath id="SVGID_00000042000762218542781830000008294034958093043887_">
				<use xlink:href="#SVGID_1_"  style="overflow:visible;"/>
			</clipPath>
			<g style="clip-path:url(#SVGID_00000042000762218542781830000008294034958093043887_);">
				<g>
					<defs>
						
							<rect id="SVGID_00000170280161654562706000000013684130971655006852_" x="18.7" y="-70.1" transform="matrix(7.242337e-02 -0.9974 0.9974 7.242337e-02 35.5684 302.6534)" width="323.5" height="404.6"/>
					</defs>
					<clipPath id="SVGID_00000076579582251635730170000004415294117620635555_">
						<use xlink:href="#SVGID_00000170280161654562706000000013684130971655006852_"  style="overflow:visible;"/>
					</clipPath>
					<g style="clip-path:url(#SVGID_00000076579582251635730170000004415294117620635555_);">
						
							<image style="overflow:visible;enable-background:new    ;" width="850" height="680" xlink:href="B89BA138.png"  transform="matrix(0.4708 3.418658e-02 -3.418658e-02 0.4708 -9.327 -43.7664)">
						</image>
					</g>
				</g>
			</g>
		</g>
	</g>
</g>
</svg>
