<?xml version="1.0" encoding="utf-8"?>
<!-- Generator: Adobe Illustrator 26.2.1, SVG Export Plug-In . SVG Version: 6.00 Build 0)  -->
<svg version="1.1" id="Capa_1" xmlns="http://www.w3.org/2000/svg" xmlns:xlink="http://www.w3.org/1999/xlink" x="0px" y="0px"
	 viewBox="0 0 232.1 139" style="enable-background:new 0 0 232.1 139;" xml:space="preserve">
<style type="text/css">
	.st0{fill:#538A58;}
	.st1{fill:#6EAA6F;}
	.st2{fill:#765236;}
	.st3{fill:#8E6243;}
	.st4{fill:#6F4714;}
	.st5{fill:#BF0811;}
	.st6{fill:#6F4816;}
	.st7{fill:#E0D6B9;}
	.st8{fill:#6A4720;}
	.st9{fill:#DB9600;}
	.st10{fill:#9E2B2D;}
	.st11{fill:#FFFFFF;}
	.st12{fill:#211915;}
	.st13{fill:#111419;}
	.st14{fill:none;stroke:#211915;stroke-width:0.3;stroke-linecap:round;stroke-linejoin:round;}
	.st15{fill:none;stroke:#211915;stroke-width:0.45;stroke-linecap:round;stroke-linejoin:round;}
	.st16{fill:#FBFCFC;}
	.st17{fill:#EECA1A;}
</style>
<g id="Capa_2_00000018949044366813928530000016218842406483853697_">
	<g id="Capa_1-2">
		<path class="st0" d="M177.8,39.3c3.4,4.6,4.5,8.3,5.9,14.2c0,0.1,0.6,2.1,0.1,2.6c-3.6-1.3-6.9-3.2-9.9-5.6
			c-0.2-2.2-1-4.3-2.3-6.1l0.2,4.9l-9.3-4.9l-4.2-4.6l-0.5,3.4l-10.4-3.3c11.8-6.2,18.6-0.9,18.6-0.9l-1.6-4
			c11.6-0.5,12.4,7.9,12.4,7.9C177.8,42,178.2,40.5,177.8,39.3"/>
		<path class="st1" d="M206.8,52.5l5.5-3.8c2.9,0.4,5.6,1.5,8.1,3l-2.2,3.4c1.8,0.5,3.8,0.4,5.5-0.4c4.4,3.4,7.4,8.3,8.4,13.8
			c-4.8-3.2-9.4-5.7-13.6-6.5c-1.4-2.6-3.6-4.7-6.3-6l1.4,5.4c-2.1-1.1-4.6-1.4-6.9-0.9l-5.7-4.6l2.5,4.6l-15-1
			c-0.5-1-0.8-2.2-0.7-3.3c0,0,14.8-6.9,20.5-7.2L206.8,52.5z"/>
		<path class="st0" d="M186.6,55.3c0.8-1.9,1.6-3.9,2.2-5.9c0.1-0.2,0.2-0.5,0.3-0.7c1.8-4.5,5-8.2,9.1-10.7
			c-0.2,1.6-0.1,3.2,0.4,4.8c0.7-10.3,12.7-14.2,12.7-14.2l-1.6,5.3c4.9-8.6,13.4-7.3,21.7-6.8l-10.9,5.3l-4.2-0.7l0.8,3.3l-8.7,5.2
			l-4.9-0.8l1.8,2.5c-4.3,5.3-10.9,11.8-17,14.5C187.7,55.9,187.1,55.6,186.6,55.3"/>
		<path class="st1" d="M186,58.2h-0.1c-0.3-0.2-0.7-0.3-1-0.3c-0.5-0.1-1,0-1.4,0.2c0.2-0.3,0.5-15.7-1.4-20.2
			c8.4-3.8,0.5-2.3,0.5-2.3l-2.5-4.5c5.7-2.5-0.6-3.1-0.6-3.1l-4.5-12.1l9.7,7c0.8,2,1.1,4.2,0.9,6.4c1-1.6,1.4-3.5,0.9-5.3
			c2.6,2,4.6,4.2,5,7.1c-0.1,3.2-1.4,7-3.2,11l3.2-4.5c-0.2,3.8-1,7.5-2.3,11.1c-0.1,0.2-3.1,9.3-3,9.5"/>
		<path class="st0" d="M30,30.5c0,0,9.8,5.2,15.5,14.3c0.3,0.5,2.3,3.2,2.5,3.8l-1.8-1.2c-0.6-0.1-1.2-0.2-1.9-0.3l-19.5-9.4l2-1.6
			C24.8,35,22.5,35,20.5,36l-9-1.4l1.7-2.8l-5.3,2.9L0,32.3c4.4-2.2,9.2-3.7,14.1-4.4l5,4.8l-1.7-5.3c3.2-0.7,6.5,0,9.2,1.8l3.2,4.6
			L30,30.5z"/>
		<path class="st1" d="M46.3,46.4c-0.3-0.5-0.6-1-0.9-1.5c-1.8-5.2-2.9-10.7-3.2-16.2l3.5,2.7c-2.6-3.9-3.6-8.8-2.6-13.4l3.4,3.6
			l-2.7-5.7C45,10.1,47.5,4.6,51.2,0l1.2,9.9l-2.7,4.7l3.1,1.3L52.4,25L50,28.3l2.3,1c0,4.4-0.9,8.7-2.7,12.6l-1.4,7.3
			C47.6,49.3,46.3,46.5,46.3,46.4"/>
		<path class="st0" d="M52.7,44.5L52.7,44.5c-0.5-0.7-2.5-1.1-2.6-1.1c1.4-5.1,3.5-10,6.3-14.6l2.1,3.8l1.2-6.9l10.1-5.2l-0.4,4.3
			l3.3-3.6c0,0,8.9,0.1,13.6,6.1c0.4,0.5,0.3,1.3-0.2,1.7c-0.1,0.1-0.2,0.1-0.3,0.2l-2.8,1l-5.4-4.5l1.7,4l-9.8,3.3l-6.8-2.1l3,3.8
			C60.8,37.2,56.3,40.5,52.7,44.5"/>
		<path class="st1" d="M47.5,52.5c-1.9,1.3-8.3,4.4-8.3,4.4l-0.9-3.1l-2.2,6l-5.6,3l-1.4-4.3l-3.2,7.7l-5.7,5.1L19.5,68l-0.9,5.2
			L13.5,78c-0.5-7,0.9-12.7,4.3-17l0.9,3.7c0.5-6.4,9.5-12.1,9.5-12.1l4.2,1.8l-2.1-3.5c4.9-2.4,9.6-4,13.9-3.6
			c0.6,0,1.2,0.1,1.9,0.3l1.4,0.3C48.2,48.2,50,50.8,47.5,52.5"/>
		<path class="st2" d="M175.3,75.3c0.5-0.7,9-12.9,16.4-18.9c-1.4-2.7-3.8-4.8-8.2-1.9c-9.7,9.1-17.9,19.7-24.3,31.3
			c-4.9,7.6-13.2,30.7-13.8,32.4c3.8,0.8,7.4,1.8,11.1,2.9l1.3-4.1C157.9,116.9,163.5,92.4,175.3,75.3"/>
		<path class="st3" d="M177.1,60.8c2.5,0.4,4.8,1.8,6.4,3.9l0.1,0.1c1.8-2.1,6.6-6.9,8.7-8.8c-0.3-0.5-5.7-4.1-5.6-4.3
			C183.2,54.5,180.1,57.5,177.1,60.8"/>
		<path class="st3" d="M147.5,112.4c3.5,0.2,10.6,3.8,10.6,3.8l2.4-8.6c-3-3-5.9-4.8-9.1-5.1C150,105.9,148.8,108.8,147.5,112.4"/>
		<path class="st3" d="M155.1,93.7c3,0,8.8,4.2,8.8,4.2c1.2-2.5,2.2-5.1,3.4-8.1s-4.7-3.9-8-4.2C157.7,88.3,156.3,91,155.1,93.7"/>
		<path class="st3" d="M165.8,75c2.8,0.4,5.3,2.1,6.8,4.6c1.8-2.9,3.7-5.7,5.7-8.4c-2.1-2.4-4.1-3.9-6.4-4.3
			C169.7,69.5,167.6,72.2,165.8,75"/>
		<path class="st2" d="M63.3,68.9c-0.5-0.8-8-13.6-14.9-20.1c-0.1-4.9,3.3-7.2,8.3-1.3c9,9.8,16.3,21,21.8,33
			c4.2,7.9,10.8,31.6,11.3,33.4c-3.8,0.5-7.6,1.2-11.3,2l-1-4.2C77.6,111.7,73.8,86.9,63.3,68.9"/>
		<path class="st3" d="M62.6,54.3c-2.6,0.2-4.9,1.4-6.6,3.4l0,0c-1.7-2.2-6.1-7.4-8-9.5c0.3-0.4,6-3.7,5.9-3.9
			C57,47.5,59.9,50.8,62.6,54.3"/>
		<path class="st4" d="M98.6,84.8c0,0,0.2,4.3-1.1,2.3c-0.9-1.6-1.4-3.5-1.5-5.3l0,0c0.2,0,0.5-0.1,0.7-0.2L98.6,84.8z"/>
		<path class="st1" d="M121.3,86.5c3.2,0.1,6.2,1.7,8.1,4.2c-1.7,0.3-3.3,0.6-5,0.8C123.9,89.5,122.8,87.7,121.3,86.5"/>
		<path class="st5" d="M116.5,86.3c2.1,1.1,3.8,2.9,4.8,5.1c-2.4,0.5-5.7-0.5-7.8-0.6C114.8,89.5,115.8,88,116.5,86.3"/>
		<path class="st6" d="M117.2,76.1c-0.5-1.3-4.2-2.4-6.4-2.9l0.4-0.1c1.2-0.1,3.7,0,3.9-0.6s-6.4-1.4-6.4-1.4l-0.5,1.4l4.6,5.4
			c0,0,4.9,1.4,3.8-0.1c-0.9-1.1-4.3-2.1-4.3-2.1c0.6-0.1,1.1-0.1,1.7,0C115.5,76.2,117.5,76.8,117.2,76.1"/>
		<path class="st7" d="M113.6,78.8l0.2-0.2l-0.2-0.2c0,0-1.6-2.5-2.3-3.2c-0.8-1-3.8-3.5-3.8-3.5c-0.7,0.7-1.4,1.4-2.2,2l0,0
			l-1.4,1.1c-0.6,0.4-1.1,0.9-1.6,1.4c-1.6,1.7-4.3,4.2-6.4,5c0,0,2,3.7,2.8,5.1c0.7,0.8,1.4,1.6,2.2,2.4c0.7,0.2,1.4,0.4,2.1,0.6
			c2.4,0.3,3.7,1.2,6.8-0.1C113.6,87.6,114.9,83.5,113.6,78.8"/>
		<path class="st4" d="M110.8,87.1c0.2-0.3,0.4-0.6,0.6-0.9c0.9,0.3,1.9-0.9,2.1-1.3c1.1-3.2-0.4-7.2-0.4-7.2
			c1.6,1.4,2.9,3.2,3.6,5.2c0.3,1.3,0.2,2.6-0.4,3.8c-0.7,1.5-1.6,2.9-2.8,4.1c-3.6-0.2-7.2-0.7-10.7-1.6c2.4,0.3,4.2,0.6,5.9,0
			C109.4,89,111.6,88.2,110.8,87.1"/>
		<path class="st8" d="M51.2,47.6c0.6,0.5,1,1.3,1,2.1c0,0.6-0.2,1.1-0.5,1.6c-0.5,0.7-1.3,1.2-2.2,1.2c-0.3,0-0.6-0.1-0.9-0.2
			c-1.4-0.5-2.2-2.1-1.7-3.5c0.1-0.4,0.4-0.8,0.7-1.1c0.4-0.4,1-0.7,1.5-0.7C49.8,47,50.5,47.2,51.2,47.6L51.2,47.6z"/>
		<path class="st8" d="M184.1,54.3c0.4-0.2,0.7-0.3,1.1-0.3c0.3,0,0.7,0,1,0.1c0.8,0.3,1.4,1,1.6,1.8c0.4,1.3-0.4,2.7-1.8,3.1
			c-0.2,0-0.4,0.1-0.5,0.1c-0.1,0-0.3,0-0.4,0c-1.4-0.2-2.4-1.4-2.2-2.9c0-0.3,0.1-0.5,0.2-0.8C183.4,55,183.7,54.6,184.1,54.3
			L184.1,54.3z"/>
		<path class="st8" d="M52.8,44.9c0,1.2-0.8,2.3-2,2.7c-0.2,0.1-0.4,0.1-0.5,0.1c-0.1,0-0.1,0-0.2,0c-1.5,0-2.7-1.3-2.7-2.8
			c0-1.4,1.1-2.5,2.4-2.7H50c1.3,0,2.5,1,2.7,2.3C52.7,44.6,52.7,44.7,52.8,44.9"/>
		<path class="st8" d="M192.8,53.7c0.3,0.4,0.5,0.9,0.6,1.4c0,0.5-0.1,0.9-0.2,1.4c-0.3,0.6-0.8,1.1-1.4,1.4
			c-0.3,0.1-0.5,0.2-0.8,0.2h-0.3c-1.4,0-2.6-1.1-2.7-2.5c0-0.6,0.1-1.2,0.4-1.7c0.4-0.7,1.2-1.2,2-1.2h0.3
			C191.4,52.6,192.2,53,192.8,53.7"/>
		<path class="st8" d="M187.8,54.8c-0.5,0.4-1.1,0.6-1.7,0.6c-0.3,0-0.5,0-0.8-0.1c-1-0.3-1.7-1-2-2c-0.1-0.2-0.1-0.5-0.1-0.7
			c0.1-1.6,1.4-2.7,3-2.6c1.4,0.1,2.6,1.2,2.6,2.6C188.9,53.5,188.4,54.3,187.8,54.8"/>
		<path class="st9" d="M173.3,78.5c0.4,2.6-0.8,2.9-2.2,3.3c-2.5,0.6-6.6-1.6-7-4.1c-0.1-0.8,0.9-2.2,1.9-2.8
			C166.5,77.7,171,80.4,173.3,78.5"/>
		<path class="st9" d="M165.9,74.8c-0.5,1.4-1.1,2.7-1.9,3.9l-0.2,0.4c-26.6,37.8-66.1,33.9-89.1-6.5l-0.2-0.4l0,0
			c-0.1-0.2-0.2-0.3-0.2-0.4c8.3,8.7,17.2,14.1,26.5,16.9c0.7,0.2,1.4,0.4,2.2,0.6c3.5,0.9,7.1,1.4,10.7,1.6
			c2.1,0.1,6.7,0.6,15.9-1.1C141.9,87.4,153.4,82.4,165.9,74.8"/>
		<path class="st7" d="M124.1,95.7c0.8,1.8,1.3,6.3-0.7,2.5c0.1,2.4-1.4,3.5-1.4,0.2c-0.9,2.9-1.6,1.9-1.1-0.5
			c-2.6,1.8,0.3-2.1,0.3-2.1L124.1,95.7z"/>
		<path class="st5" d="M124.4,93.3l-3.4,0.2c-0.1-1-0.2-2-0.5-2.9c-0.8-1.9-2.8-2.9-4.2-3.8c0.5-1.2,0.6-2.5,0.4-3.8
			c1.7,0.6,3.2,1.5,4.6,2.6c1.5,1.2,2.5,2.8,2.8,4.7C124.3,91.2,124.4,92.2,124.4,93.3"/>
		<path class="st10" d="M120.6,93.2l4.1-0.1c0,0.9-0.1,1.7-0.2,2.5l-3.9,0.1L120.6,93.2z"/>
		<path class="st4" d="M111.3,83.5c0.1,0,0.2,0.1,0.2,0.3c0,0,0,0,0,0c0,0.1-0.2,0.1-0.3,0.1c-0.2,0-0.4,0.1-0.6,0.2
			c-0.4,0.2-0.8,0.5-1.1,0.9c-0.7,0.6-1.1,1.5-1.2,2.4c0,0.2,0.1,0.5-0.1,0.6s-0.3-0.3-0.3-0.4c-0.1-0.6-0.1-1.3,0.2-1.8
			c0.3-0.6,0.7-1.1,1.2-1.5C109.8,83.7,110.6,83.5,111.3,83.5"/>
		<path class="st11" d="M109,76.6c1,0.5,1.4,1.6,1,2.6c-0.4,0.9-1.5,1.3-2.5,0.9c0,0,0,0,0,0c-0.9-0.4-1.4-1.5-1-2.4
			C106.9,76.6,108,76.2,109,76.6"/>
		<path class="st12" d="M107.8,78c0.2,0,0.4,0.2,0.3,0.4c0,0.2-0.2,0.3-0.3,0.3c-0.2,0-0.4-0.1-0.4-0.3c0-0.2,0.1-0.4,0.3-0.4
			C107.7,78,107.7,78,107.8,78"/>
		<path class="st13" d="M101.4,86c-0.9-0.7-1.7-1.5-2.4-2.4c-0.3-0.3-0.1-0.7,0.2-1l2.3-2.2c0.5-0.5,0.7-0.4,1.1,0l2,2.1
			C105.2,83,101.9,86.3,101.4,86"/>
		<path class="st3" d="M88.4,108.6c-3.5-0.1-10.8,3.1-10.8,3.1l-1.9-9.5c3.2-2.8,6.2-4.3,9.5-4.4C86.3,101.3,87.4,104.9,88.4,108.6"
			/>
		<path class="st3" d="M82.1,88.8c-3-0.2-9,3.6-9,3.6c-1-2.6-1.8-5.2-2.8-8.3s5-3.5,8.3-3.5C80,83.2,81.2,86,82.1,88.8"/>
		<path class="st9" d="M74.4,72.2L74.4,72.2c-1.9,5.1-4.2,6-5.9,6.1c-2,0.1-2.5-0.9-2-3.2c3-0.5,6.6-5.3,6.6-5.3
			c0.5,0.4,0.8,0.9,1.1,1.4C74.3,71.4,74.4,72,74.4,72.2"/>
		<path class="st3" d="M72.9,69.4c-2.9,0.2-5.5,1.6-7.1,4c-1.6-3-3.2-5.9-5.1-8.8c2.3-2.2,4.4-3.6,6.7-3.8
			C69.4,63.6,71.2,66.4,72.9,69.4"/>
		<path class="st8" d="M57.2,46.4c0.2,1.4-0.8,2.6-2.2,2.8c-0.1,0-0.3,0-0.4,0c-1.3,0.1-2.4-0.7-2.8-1.9c-0.6-2.3,2.3-5.2,4.7-2.9
			C56.8,45,57.1,45.7,57.2,46.4"/>
		<path class="st13" d="M106.6,66.1c-0.3,6.1-6.1,1.9-9.2,4.3c-1,1-1.7,2.2-1.9,3.6c-0.7,2.7-1.1,5.5-4.6,5.1c1.3,2.1,2.7,2.8,4,2.8
			c0.2,0,0.5,0,0.7-0.1c2.2-0.5,4.4-3,6.2-4.5c0.6-0.4,1.1-0.8,1.8-1.1c0.5-0.3,1.1-0.6,1.6-0.9l0,0c0.9-0.5,1.7-1,2.4-1.6
			C109.8,71.9,110.7,69.6,106.6,66.1"/>
		<path class="st14" d="M105.3,80.5c0,0-0.1,4.2,1.1,4.6c0.6,0.2,2.3-2,2.3-2"/>
		<path class="st15" d="M100.5,84.3c-0.7,0.6-1.5,1.1-2.4,1.2"/>
		<path class="st15" d="M107,73.8c-0.9,2.6-2.2,5.1-3.8,7.4"/>
		<path class="st11" d="M102.4,73.8c0.5-1.3,1.4-0.2,0.7,0.1c0.3,0.2,0.2,0.4,0.1,0.5c-0.2,0.1-0.5,0.1-0.7-0.2c0,0,0-0.1-0.1-0.1
			l-1.2,0.2c0,0,0-0.1,0-0.1c0-0.1,0-0.2,0-0.3v-0.1L102.4,73.8z"/>
		<path class="st11" d="M98.5,74.3c-0.1-0.2-0.1-0.5-0.1-0.7c0.1-0.3,0.3-0.5,0.5-0.7c0.5-0.4,1.1-0.6,1.7-0.4
			c0.5,0.4,0.8,0.9,0.8,1.4c0,0-0.1,0.8-0.2,1c-0.2,0.3-0.5,0.6-0.8,0.6c-0.6-0.1-1.2-0.4-1.6-0.8C98.7,74.6,98.6,74.5,98.5,74.3"/>
		<path class="st12" d="M100.5,73.1c0.2,0.1,0.3,0.2,0.2,0.4c0,0,0,0,0,0c-0.1,0.2-0.3,0.3-0.4,0.3c-0.2-0.1-0.3-0.3-0.2-0.5
			C100.1,73.1,100.3,73,100.5,73.1C100.5,73.1,100.5,73.1,100.5,73.1"/>
		<path class="st11" d="M100.2,75.3L100.2,75.3l-0.8,1.5c0.4,1.2-0.4,1-0.5,0.5c-0.8,0.6-1.2-1,0-0.7l0.7-1.4
			c0.1,0.1,0.3,0.1,0.4,0.2L100.2,75.3z"/>
		<path class="st12" d="M99.1,73.8c0.1-0.1,0.3-0.1,0.4,0.2c0.1,0.1,0.1,0.3-0.1,0.4c0,0,0,0,0,0c-0.2,0.1-0.4,0-0.5-0.1
			C98.9,74.2,98.9,74,99.1,73.8C99.1,73.8,99.1,73.8,99.1,73.8"/>
		<path class="st11" d="M98.9,74.6v0.1h-1.1c-0.8,0.8-1.1,0-0.7-0.3c-0.9-0.6,0.4-1.3,0.7-0.2l0.7-0.1
			C98.6,74.4,98.8,74.5,98.9,74.6"/>
		<path class="st12" d="M100.2,74.6C100.3,74.6,100.3,74.6,100.2,74.6C100.2,74.7,100.2,74.7,100.2,74.6
			C100.1,74.6,100.1,74.6,100.2,74.6C100.2,74.6,100.2,74.6,100.2,74.6C100.2,74.5,100.2,74.5,100.2,74.6"/>
		<path class="st12" d="M100.5,74.4C100.6,74.4,100.6,74.5,100.5,74.4C100.5,74.5,100.5,74.5,100.5,74.4
			C100.4,74.5,100.4,74.5,100.5,74.4C100.4,74.5,100.4,74.4,100.5,74.4C100.4,74.4,100.5,74.4,100.5,74.4
			C100.5,74.4,100.5,74.4,100.5,74.4"/>
		<path class="st11" d="M101.3,71.1c0.6-0.4,0.8,0.7-0.1,0.7l-0.4,1.1l0,0c-0.1-0.1-0.2-0.2-0.3-0.2l0.4-1c-0.4-0.5-0.4-0.8-0.2-1
			c0.2-0.1,0.4-0.1,0.6,0.1C101.3,70.9,101.4,71,101.3,71.1"/>
		<path class="st12" d="M109.3,86.8c0.4-0.2,0.8-0.6,1-1c0.1-0.4,0.2-0.7,0.3-1.1c0,0,0.8,1.2,0.3,1.8S109.3,86.7,109.3,86.8"/>
		<path class="st16" d="M123.9,94.6c0,0.2-0.1,0.3-0.3,0.3c-0.1,0-0.3-0.1-0.3-0.3c0-0.1,0.1-0.3,0.3-0.3
			C123.8,94.3,123.9,94.5,123.9,94.6"/>
		<path class="st7" d="M112.4,75.3c0,0.6-0.4,1.1-1,1.1s-1.1-0.4-1.1-1s0.4-1.1,1-1.1c0,0,0.1,0,0.1,0
			C112,74.3,112.4,74.7,112.4,75.3"/>
		<path class="st17" d="M187.7,137c-9.8-9.8-21.6-15.2-34.7-19.9c-2.9-1-5.8-2.1-8.8-2.9c-10.2-2.9-20.8-4.4-31.5-4.4
			c-5.3,0-10.5,0.4-15.7,1.1c-3.2,0.4-6.4,1-9.5,1.7C66,117.4,48.8,124.1,36.8,137c0,0,49.9,2,79.3,2S187.7,137,187.7,137z"/>
	</g>
</g>
</svg>
