<?xml version="1.0" encoding="utf-8"?>
<!-- Generator: Adobe Illustrator 26.2.1, SVG Export Plug-In . SVG Version: 6.00 Build 0)  -->
<svg version="1.1" id="Capa_1" xmlns="http://www.w3.org/2000/svg" xmlns:xlink="http://www.w3.org/1999/xlink" x="0px" y="0px"
	 viewBox="0 0 180.8 139.9" style="enable-background:new 0 0 180.8 139.9;" xml:space="preserve">
<style type="text/css">
	.st0{fill:#BF0811;}
	.st1{fill:#EECA1A;}
	.st2{fill:none;stroke:#211915;stroke-width:0.55;stroke-linecap:round;stroke-linejoin:round;}
	.st3{fill:#6EAA6F;}
	.st4{fill:#DB9600;}
	.st5{fill:#FFFFFF;}
	.st6{fill:#211915;}
	.st7{fill:#9CBC5C;}
	.st8{fill:#A886B1;}
	.st9{fill:#E0D6B9;}
	.st10{fill:#111419;}
	.st11{clip-path:url(#SVGID_00000044869263916366872490000016712846239932948922_);}
	.st12{fill:#FBFCFC;}
	.st13{fill:#6F4714;}
	.st14{fill:#945B19;}
	.st15{fill:none;stroke:#9C141B;stroke-width:0.69;stroke-linecap:round;}
	.st16{fill:none;stroke:#211915;stroke-linecap:round;stroke-linejoin:round;}
	.st17{fill:none;stroke:#211915;stroke-width:0.69;stroke-linecap:round;}
	.st18{fill:#9C141B;}
</style>
<g id="Capa_2_00000090972982605882968160000002293649680474247356_">
	<g id="Capa_1-2">
		<path class="st0" d="M157.2,104.8c-16.8,1.1-40.6,1.3-57.3,0.5c-17.4-0.8-22.8-5.5-22.5-30.1c0.3-23.7,3.1-30.7,17.2-31.9
			c8.3-0.9,26.6-1.3,34.9-1.4c-0.3-1.4-0.8-2.8-1.4-4.1c-2.4-4.6-7.5-9.5-7.5-9.5s6.1,0.3,12.4,7.2c1.7,1.9,2.8,4.2,3.4,6.6
			c9.3,0.1,14.7,0.7,23.9,1.8c15.5,1.9,16.4,12,16.4,36.7C176.8,104.8,171,103.9,157.2,104.8"/>
		<path class="st1" d="M87,5.6c0,0,6.5,6.5-0.9,12.9c-1.4,1.2-4,1.5-6.6-0.3c0,0,5.2-2.3,5.8-4.8c-3.3,2.3-8.5-1.6-13.9,1.5
			C71.4,14.9,72.4,0.9,87,5.6"/>
		<polyline class="st2" points="98.3,27.7 103,33.6 106,33.6 		"/>
		<polyline class="st2" points="95.9,29.7 99.6,35.6 100.3,38.3 		"/>
		<polyline class="st2" points="103.4,36 103,33.6 105.1,35.2 		"/>
		<polyline class="st2" points="101.8,37.2 99.6,35.6 102.7,36.2 		"/>
		<path class="st3" d="M103.1,27.4c-0.5,0.6-1,1.2-1.6,1.7l0,0c-1.8,1.3-3.9,2.1-6.1,2.2c-0.4,0-0.7,0-1,0c-0.7,0-1.4-0.1-2.1-0.2
			c-4.2-0.7-7.4-3.7-7.4-8.5c0-1.5,0.4-3,1.2-4.3c1.1-1,1.9-2.2,2.6-3.4c0.6-1.2,0.9-2.6,0.7-4c-0.2-2-1.1-3.9-2.5-5.4
			c4.9-5.8,15.7-2.8,12.2,7.3C99,12.8,107.6,18.6,103.1,27.4"/>
		<path class="st3" d="M118.8,29.3l-17.4-2.1l0,0C102.4,26.9,116.1,23.8,118.8,29.3"/>
		<path class="st3" d="M117.6,32.6h-2.2l-13.9-5.4h-0.1l0,0C108.3,28,114,29.6,117.6,32.6"/>
		<path class="st3" d="M115.9,39.2c0,0-11.1-6.6-14.5-12l0,0h0.1C102.6,27.7,114.8,33,115.9,39.2"/>
		<path class="st4" d="M84.4,7.6c0.5,0.2,0.8,0.5,0.7,0.9s-0.5,0.4-1,0.3S83.5,8.3,83.6,8S83.9,7.4,84.4,7.6"/>
		<path class="st5" d="M93.4,5.7c1.5,0,2.7,1.2,2.7,2.7c0,0,0,0,0,0c0.1,1.6-1,3-2.6,3.1c-0.1,0-0.2,0-0.3,0c-1.5,0-2.5-1.6-2.5-3.1
			C90.7,6.9,91.9,5.7,93.4,5.7"/>
		<path class="st6" d="M92.6,7.7C92.9,7.8,93,8.1,93,8.4c0,0.2-0.2,0.3-0.4,0.4c-0.3,0-0.5-0.2-0.5-0.5C92.1,7.9,92.3,7.7,92.6,7.7
			C92.6,7.7,92.6,7.7,92.6,7.7"/>
		<path class="st7" d="M109.6,22c-4.6,1.4-10.3,1.8-12-1.5c-1.5-2.8,0-6.1,2.8-9c7.7-8.2,25-13.5,9.4,1.3c4.3-2.5,13.2-2.8,0,3.8
			C120.6,15.7,116.1,19.9,109.6,22"/>
		<path class="st8" d="M50.8,95.6c4.2,9.2,4.8,19.6,1.6,29.2h-8.1c0.3-1.3,0.4-2.7,0.3-4c-0.5-6.1-5.2-10.8-10.6-10.3
			s-9.3,5.8-8.8,11.9c0.1,0.8,0.2,1.6,0.4,2.4l-1.8,0.4l-4.1,1.1l-3.2,0.9c-4.1-9.8-4-19.5,0-29.3c5.9,2,12,1.6,17.6,1
			C39.9,98.3,45.4,97.2,50.8,95.6"/>
		<path class="st9" d="M51.4,31.5c-0.1-1.1-0.2-2.3-0.3-3.4c0-0.4-0.1-0.7-0.1-1.1c-0.3-3.4-1.3-6.8-3.1-9.8l0,0
			c-3.1,0.3-6.8-0.2-10.3-0.6c-2.7-0.5-5.5-0.6-8.2-0.5c-8.2,0.9-14,6.5-19,7.5v0.2c-0.5,2.3-0.7,4.7-0.5,7c0,0.3,0,0.6,0.1,0.9
			c0.1,0.7,0.1,1.4,0.2,2.2c0.1,1.6,0.2,3.2,0.4,4.8l0,0c0,0.1,0,0.1,0,0.2h0.1c9,25,33.7,16.5,33.7,16.5c1-1.6,7.2-18.1,7.4-20.9
			C51.6,33.4,51.5,32.5,51.4,31.5"/>
		<path class="st10" d="M41.5,49.5c-1-0.3-2.1-0.4-3.1-0.6l-2.1-0.2l0,0c-1.9-0.1-3.9,0.1-5.7,0.5l-1.4,0.3l0,0
			c-1.4,0.4-2.8,0.9-4.1,1.4c0,0,0.7-7.4,8.2-8.1S41.5,49.4,41.5,49.5"/>
		<g>
			<defs>
				<path id="SVGID_1_" d="M33.3,43.1c-7.5,0.7-8.2,8.1-8.2,8.1c1.3-0.6,2.7-1.1,4.1-1.5l0,0l1.4-0.3c1.9-0.4,3.8-0.6,5.7-0.5l0,0
					l2.1,0.2c1,0.1,2.1,0.3,3.1,0.6c0,0-0.6-6.5-7.2-6.5C33.9,43,33.6,43,33.3,43.1"/>
			</defs>
			<clipPath id="SVGID_00000174597454681666458300000005071858086689777034_">
				<use xlink:href="#SVGID_1_"  style="overflow:visible;"/>
			</clipPath>
			<g style="clip-path:url(#SVGID_00000174597454681666458300000005071858086689777034_);">
				<polygon class="st12" points="29,50 28.9,47 30.7,46.6 31.1,49.8 				"/>
				<polygon class="st12" points="35,49 35,46.4 36.9,46.3 37.2,49.2 				"/>
			</g>
		</g>
		<path class="st13" d="M57,26.5c0.1,0.2,0.2,0.3,0.4,0.5L57,26.5 M54.7,34.1c0.1,0.2,1.7,6.1,1,6.7S52.9,41.1,52,38
			c-0.2-1.2-0.3-2.4-0.3-3.6c-0.6-5.6-2.3-14.7-3.9-17.2l0,0c1.1-0.1,1.2-1.3,2.1-1.7l1,1.1c0,0,12.3,10.4,12.1,13.8
			c-0.1,1.6-4-1.6-5.6-3.4c0.9,1.2,2.9,4.7,3,6.3c0,1.3-2.4-0.9-3.4-2.1c0.7,1.1,2.4,5.4,1.6,6.8C57.9,39.2,54.7,34.1,54.7,34.1"/>
		<path class="st9" d="M52.2,26.4c1.1,0,2,1.2,2,2.6c0.1,1.3-0.7,2.4-2,2.6c-0.3,0-0.8,0.1-1,0l-0.3-0.5c-0.1-1.1-0.3-1.3-0.4-2.5
			c0-0.4,0-1.3,0-1.7C51,26.6,51.6,26.4,52.2,26.4"/>
		<path class="st13" d="M10.5,38.8c4.9,0,11.5,23.5,21.5,12.9l2.8-0.2c2.1,7.2,12.7-1.2,14.2-13.6c0,0,0.5-3.2,2.7-3.5
			c0.2,2,0.2,2.4,0.3,3.6c0.4,5,0.2,9.6-1.8,13.6c-0.3,0.7-0.7,1.4-1.2,2c-2.6,3.7-6.7,7.7-15.2,8.6c-0.7,0.1-1.3,0.1-2,0.1
			c-6.8,0.3-12-1.6-15.1-4.7C15.3,56.2,8.2,46.5,10.5,38.8"/>
		<polygon class="st14" points="50.2,124.9 47.4,135 43.8,134.2 46.2,124.9 		"/>
		<polygon class="st10" points="47.4,135 46.4,138.3 43,137.4 43.8,134.2 		"/>
		<path class="st5" d="M38.3,23.8c0.8-0.5,1.8-0.7,2.8-0.7c0.9-0.2,1.7-0.3,2.6-0.3c1.6,0.9,2.7,2.6,2.8,4.5c0,2.8-1.3,4.8-4.8,5
			c-2.6,0.2-4.8-2.3-4.8-5C37.2,26.1,37.6,24.8,38.3,23.8"/>
		<path class="st13" d="M42.4,41.6c0.3,0.4,0.2,0.9-0.2,1.2c0,0,0,0,0,0c-0.4,0.2-0.7-0.1-1-0.3c-0.6-0.4-1.2-0.7-1.9-0.9
			c-1.6-0.4-3.3-0.6-5-0.4c-3,0.2-6.5,1.1-8.8,3.2c-0.4,0.4-0.9,1.5-1.6,1.1s-0.2-1.3,0.1-1.7c0.8-1.2,1.9-2.1,3.2-2.8
			c2.5-1.3,5.3-2,8.2-1.9C37.6,39.1,40.9,39.7,42.4,41.6"/>
		<path class="st6" d="M43.4,25.6c0.4,0.1,0.8,0.4,0.8,0.9c0.1,0.4-0.2,0.8-0.7,0.9c0,0-0.1,0-0.1,0c-0.4,0-0.8-0.4-0.8-0.9
			C42.7,26,43,25.6,43.4,25.6"/>
		<path class="st0" d="M50.8,51.9l-0.6-0.2c-0.3,0.7-0.7,1.4-1.2,2c-2.6,3.7-6.7,7.7-15.2,8.6c-0.7,0.1-1.3,0.1-2,0.1
			c-6.8,0.3-12-1.6-15.1-4.7c-1.4-1.4-2.5-3.1-3.3-4.9C2,61.5-3.1,71.7,2,85.2l3.4-1.8L8,81.8c-2.8-8.9-0.4-14.5,5.6-19.1
			c0,0-4.5,25.2,3,35.2c5.8,1.8,11.9,2.3,17.9,1.5c5.6-0.6,11-1.9,16.3-3.8c2.1-4.6,1.6-15.9,1.6-15.9l0,0
			c-0.5-6.2-1.8-12.3-3.9-18.1c7.3,3.7,9.3,11.2,4.1,17.9l6.2,3.8C66.4,73.8,63.7,63.3,50.8,51.9"/>
		<path class="st10" d="M24.4,125.1l1.3,13c-1.1,0.7-2.4,1-3.7,1v-2.3c0,0-10.2,5.1-11.8,2.3c-1.8-3,9.4-6.4,9.4-6.4l-0.1-6.3
			L24.4,125.1z"/>
		<path class="st9" d="M9.3,92.6l-0.3,0.4c-2,1.9-4.9-5.3-4.9-5.3l5.9-2.3c0,0,3.2,0,3.9,0c1.7,0.1,0.9,1.3,0.6,1.6S13,87.7,13,87.7
			c1.6,1.7,1.2,3.1,0.3,3.4c-0.5,0.2-1.1,0.1-1.4-0.2C12.1,92.4,10.7,93.8,9.3,92.6"/>
		<path class="st13" d="M9.9,31.7c-0.1-2.6,0.1-5.3,0.4-7.9v-0.2c-1,0.2-2.1,0.2-3.1,0l-0.1,0.2c0,0-7.1,11.1-5.5,12.9
			c0.9,1,2.2-1.7,3.1-4.4c-0.4,1-2.6,7.7-1.7,8.2c0.9,0.4,3.1-4.9,3-4.7c-0.6,1.9-2.9,9.4-1.5,9.6c0.9,0.1,1.6-1.5,2-2.9
			c-0.4,2.1-0.8,5.1,0.5,5.2c1.8,0.1,3.2-6.4,3.4-7.6C10.6,39.6,10,32.4,9.9,31.7"/>
		<path class="st9" d="M10.6,31.3c0.1,1.7,0.3,3.4,0.4,5.2c-0.3,0.1-0.7,0.2-1,0.3c-1.6,0.2-3.1-0.9-3.3-2.5c0-0.3,0-0.6,0.1-0.8
			l0,0c0.3-1.2,1.4-2.1,2.7-2.2C9.9,31.2,10.2,31.2,10.6,31.3"/>
		<path class="st12" d="M36.6,95.5c0-0.4-0.3-0.7-0.7-0.7s-0.7,0.3-0.7,0.7c0,0.4,0.3,0.7,0.7,0.7S36.6,95.8,36.6,95.5L36.6,95.5"/>
		<path class="st12" d="M36,67.3c0-0.4-0.3-0.7-0.7-0.7s-0.7,0.3-0.7,0.7c0,0.4,0.3,0.7,0.7,0.7S36,67.6,36,67.3L36,67.3"/>
		<path class="st12" d="M36,88.6c0-0.4-0.3-0.7-0.7-0.7s-0.7,0.3-0.7,0.7c0,0.4,0.3,0.7,0.7,0.7S36,89,36,88.6L36,88.6"/>
		<path class="st12" d="M35.3,74.1c0-0.4-0.3-0.7-0.7-0.7s-0.7,0.3-0.7,0.7c0,0.4,0.3,0.7,0.7,0.7S35.3,74.5,35.3,74.1L35.3,74.1"/>
		<path class="st12" d="M35.3,81.1c0-0.4-0.3-0.7-0.7-0.7s-0.7,0.3-0.7,0.7c0,0.4,0.3,0.7,0.7,0.7S35.3,81.4,35.3,81.1L35.3,81.1"/>
		<path class="st15" d="M33.9,97.9c-1.9-17.4-1.8-25.1-0.6-35.1"/>
		<path class="st10" d="M28.9,30.6c-0.1,0.8-0.6,1.4-1.4,1.7L19,33.3c-2.4,0.2-3.2-0.4-3.3-1.4l-0.6-7c-0.1-1.5,0.7-2.1,2.2-2.2
			l8.7-1.1c1.5-0.1,2.2,0.2,2.2,1.7L28.9,30.6z"/>
		<path class="st16" d="M16.4,28.5c-1.6,0.4-5,1.5-6.6,2"/>
		<path class="st16" d="M50.7,17c0,0-17.6,7.1-24.3,9.1"/>
		<path class="st17" d="M30.1,36.5c0.3,0.2,6.6,2,7.4-0.9c0.4-1.8-6.1-7.6-6.4-7.6"/>
		<path class="st18" d="M8,80.5c0.9,1.7,1.9,2.6,2.9,4.2c-2.3,1.7-4.9,3-7.6,3.8c-0.9-1.5-1.7-3-2.5-4.5L8,80.5z"/>
		<path class="st12" d="M8.6,84.1c0-0.4-0.3-0.7-0.7-0.7c-0.4,0-0.7,0.3-0.7,0.7c0,0.4,0.3,0.7,0.7,0.7C8.3,84.7,8.6,84.4,8.6,84.1"
			/>
		<path class="st9" d="M48.6,90.8L48.6,90.8c-3.8-0.9-0.2-4.4-0.2-4.4c-6.1-1.9,1.8-2.4,1.8-2.4c0.1,0.2,0.9,0.1,1.1,0.3
			c1.5,1.2,2.5,1.1,4.8,2.8l0,0c-0.5,2.1-1.6,4-3.1,5.6l-0.3,0.3c-0.3,0.2-0.7,0.3-1,0.2c-0.5-0.3-1-0.7-1.3-1.2
			C48.9,92.3,48.7,91.5,48.6,90.8"/>
		<path class="st18" d="M52.7,79.2c-1.1,1.6-2.1,2.4-3.3,3.9c2.1,1.9,4.6,3.5,7.2,4.5c1-1.4,2-2.8,2.9-4.3L52.7,79.2z"/>
		<path class="st12" d="M52.9,82.4c0-0.4-0.3-0.7-0.7-0.7c-0.4,0-0.7,0.3-0.7,0.7c0,0.4,0.3,0.7,0.7,0.7
			C52.6,83.1,52.9,82.8,52.9,82.4"/>
		<path class="st17" d="M37.5,23.8c2.3-0.4,4.5-0.9,6.7-1.5c1-0.4,2-0.9,2.9-1.5"/>
		<path class="st10" d="M54.2,4.4c0-0.3-0.3-0.5-0.6-0.5c-0.2,0-0.3,0.1-0.4,0.2C46.9,14.5,40.7,7,33.7,2.6C31,0.9,28.1-0.4,25,0.1
			C14.2,1.7,12.3,21.3,1.6,13.5c-0.4-0.3-1-0.2-1.3,0.2c-0.1,0.2-0.2,0.5-0.2,0.7c0.8,5.1,2.4,7.8,4.5,9c1.9,1.1,4.2,0.9,6.7,0.2
			c5.3-1.6,11.8-5.8,17.8-6.7c1.1-0.2,2.3-0.2,3.4-0.2c4,0.1,8.7,1.1,12.8,0.9c0.4,0,0.8,0,1.3-0.1C51.4,16.8,55,13.9,54.2,4.4"/>
		<path class="st5" d="M33.5,12.3c2.5-1.8,2.9,1.2,1.3,1.1c0.4,0.7,0,1.1-0.5,1.1c-0.6,0-1.1-0.5-1.1-1.1c0-0.1,0-0.2,0-0.3l-2.7-1
			l0.2-0.3c0.1-0.2,0.3-0.3,0.3-0.5l0.2-0.2L33.5,12.3z"/>
		<path class="st5" d="M25.2,8.5c0-0.6,0.3-1.1,0.7-1.5c0.5-0.4,1.1-0.7,1.8-0.8c1.5-0.2,3.1,0.2,3.8,1.3c0.5,1.2,0.4,2.6-0.1,3.8
			c0,0-1.1,1.3-1.4,1.7c-0.7,0.5-1.6,0.6-2.3,0.3c-0.8-0.4-1.9-2.7-2.2-3.5C25.3,9.4,25.2,9,25.2,8.5"/>
		<path class="st6" d="M30.6,8.6c0.3,0.3,0.2,0.8-0.1,1.1c0,0,0,0,0,0c-0.3,0.3-0.8,0.3-1.1,0c-0.3-0.3-0.3-0.8,0-1.1
			c0,0,0.1-0.1,0.1-0.1C29.9,8.2,30.4,8.3,30.6,8.6"/>
		<path class="st5" d="M27.3,12.6v0.1l-3.3,1.9c-0.7,2.7-2.1,1.5-1.6,0.3c-2.4,0.2-1.2-3.5,0.9-1.3l3-1.8c0.2,0.3,0.4,0.5,0.6,0.8
			L27.3,12.6z"/>
		<path class="st6" d="M27,8.4c0.3,0,0.6,0.2,0.6,0.8c0,0.4-0.2,0.7-0.6,0.7c0,0-0.1,0-0.1,0c-0.4-0.1-0.7-0.4-0.7-0.8
			C26.2,8.5,26.7,8.4,27,8.4"/>
		<path class="st5" d="M25.7,9.8L25.5,10l-2.3-1.3c-2.5,0.7-2-1.2-0.9-1.3c-1.2-2.2,2.4-1.9,1.6,0.6l1.4,0.6
			C25.2,8.9,25.6,9.4,25.7,9.8"/>
		<path class="st6" d="M28.4,11.2c0,0.1-0.1,0.1-0.1,0.1c0,0,0,0,0,0c-0.1,0-0.1-0.1-0.1-0.1c0-0.1,0.1-0.1,0.1-0.2
			C28.3,11,28.4,11.1,28.4,11.2"/>
		<path class="st6" d="M29.1,11.2c0,0.1-0.1,0.2-0.2,0.2c-0.1,0-0.2,0-0.2-0.1c0,0,0,0,0,0c0-0.1,0.1-0.2,0.1-0.2c0,0,0,0,0,0
			C29,11,29.1,11.1,29.1,11.2L29.1,11.2"/>
		<path class="st5" d="M34.5,5.8c1.7-0.1,0.7,2.3-1,1.3l-2.1,1.8h-0.1C31.3,8.5,31.1,8.3,31,8l1.9-1.6c-0.3-1.5,0.3-2,0.8-2
			c0.5,0,0.9,0.4,0.9,0.9C34.6,5.5,34.6,5.6,34.5,5.8"/>
	</g>
</g>
</svg>
