<?xml version="1.0" encoding="utf-8"?>
<!-- Generator: Adobe Illustrator 26.2.1, SVG Export Plug-In . SVG Version: 6.00 Build 0)  -->
<svg version="1.1" id="Capa_1" xmlns="http://www.w3.org/2000/svg" xmlns:xlink="http://www.w3.org/1999/xlink" x="0px" y="0px"
	 viewBox="0 0 213.9 145.3" style="enable-background:new 0 0 213.9 145.3;" xml:space="preserve">
<style type="text/css">
	.st0{fill:#A886B1;}
	.st1{fill:#E0D6B9;}
	.st2{fill:#DB9600;}
	.st3{fill:#E3B7CE;}
	.st4{fill:#CA689C;}
	.st5{fill:#111419;}
	.st6{fill:#C33930;}
	.st7{fill:#FFFFFF;}
	.st8{fill:#BF0811;}
	.st9{fill:#9C141B;}
	.st10{fill:none;stroke:#211915;stroke-width:0.69;stroke-linecap:round;}
	.st11{fill:#211915;}
	.st12{fill:#6F4714;}
	.st13{fill:#945B19;}
	.st14{fill:none;stroke:#9C141B;stroke-width:0.69;stroke-linecap:round;}
	.st15{fill:none;stroke:#211915;stroke-linecap:round;stroke-linejoin:round;}
	.st16{fill:#C64829;}
</style>
<g id="Capa_2_00000141440774494732750110000008347682387990402478_">
	<g id="Capa_1-2">
		<path class="st0" d="M127.7,6.6c22.7-1.1,26.4-1.3,53-0.6c13,0.4,18.5,3.5,18.5,17c0,11.2-4.2,13.3-16.2,14
			c-8.1,0.5-24.5,0.1-39.3,0.2c0.3,2,0.9,4,1.7,5.8c2.4,5,7.5,10.4,7.5,10.4s-6.1-0.3-12.4-7.9c-2.1-2.5-3.1-6.8-3.5-8.4
			c-4.2,0-8.4-0.2-12.5-0.6c-11.7-1.3-13.2-8.8-13.2-15.4C111.2,12.4,113.9,7.2,127.7,6.6"/>
		<path class="st1" d="M160.7,123.4l-0.4,12.5c1.9,1.1,2.3,0.6,3.9,0l1.3-12.5C165,122.7,161.7,121.7,160.7,123.4"/>
		<path class="st1" d="M174.2,123.4v13.5h4.1l0.3-12C178.5,124.7,176,125.4,174.2,123.4"/>
		<path class="st2" d="M191.6,76.4c-0.1,0.2-0.1,0.4-0.2,0.5l0,0c-0.4,1.3-0.9,2.5-1.5,3.7c-1,2-2.3,4-3.8,5.7
			c-0.3,0.3-0.6,0.6-0.9,0.9c2.4,2.1,4.9,1.1,5.4-1.6c0.4,4.4,3.8,3.1,5-1.8c1.9,4.6,6.8,3.7,5.5-1.8c3.2,3.4,9.9-1.7,3.2-7
			c2.4,0.8,3.6-3,1.3-5.6c-2.8-0.4-9.2-3-12.6-2.4C193.1,70.3,192.6,73.4,191.6,76.4"/>
		<path class="st1" d="M161.9,89.9c1.2,1,2.5,1.9,3.9,2.6c0.6,0.3,1.3,0.6,2,0.8c2.4,0.8,4.9,1,7.4,0.6c1.6-0.2,3.1-0.7,4.6-1.3l0,0
			c2.8-1.2,5.3-3,7.4-5.2c0.3-0.3,0.6-0.6,0.9-0.9c1.2-1,3.4-5,4.1-6.2v-0.1c0.5-1,0.9-2,1.2-3.1l0.2-0.5c1-3,1.4-6.2,1.4-9.3
			c-8.5-2.8-17-13.6-34.5-10.5h-0.1c-1.7,2.4-2.9,5.1-3.8,7.9c-0.7,2-1.1,4.2-1.3,6.3c-0.1,1.9,0,3.8,0.1,5.7
			C155.8,81.7,158.1,86.4,161.9,89.9"/>
		<path class="st3" d="M155.2,70.9c-0.2,1.7-0.2,3.5,0,5.2c0,0.2,0,0.3,0,0.5s0,0,0,0.1c1.6,0.6,3.4-0.1,4-1.7
			c0.6-1.6-0.1-3.4-1.7-4c-0.4-0.2-0.8-0.2-1.2-0.2c-0.4,0-0.8,0.1-1.2,0.3"/>
		<path class="st1" d="M165.3,94.3c-0.4,3.2,1.5,6.1,4.3,6.4s5.2-2.1,5.6-5.3c0.1-0.5,0.1-1.1,0-1.6l0,0c-2.4,0.1-4.8-0.2-7.1-0.9
			c-0.8-0.1-1.6-0.3-2.4-0.5l0,0C165.5,93.1,165.4,93.7,165.3,94.3"/>
		<path class="st4" d="M153.9,117.8h0.1c9.9,6.2,20.1,5.2,30.3,0.9l-3.1-17.5l-1.3-7.6l-0.2-1c-1.5,0.6-3,1.1-4.6,1.3l0,0
			c0.1,0.5-2.9,6.9-5.6,6.9c-1.4,0-4-7.7-3.8-8.3l0,0c-1.4-0.7-2.7-1.5-3.9-2.6l-0.6,2.1c-0.6,1.9-1.1,3.7-1.6,5.5
			c-0.7,2.4-1.4,4.7-2,6.9"/>
		<path class="st5" d="M165.6,80c-1.6,3.9,0.7,7.2,4,7.5c2.8,0.3,5.2-2,5.3-5.5c-2.6,2.1-6.5,1.8-8.6-0.9
			C166.1,80.8,165.8,80.4,165.6,80"/>
		<path class="st6" d="M160.9,128.7c2.7,3.5,3.6-2.1,3.6-2.1c0.7,4.8,5.2,5,4.8-0.6c0.4,1.4,1.1,2.7,2.1,3.8c1.8,2,3.8,1,3.9-2.4
			l0.3,0.4c4.6,6,5.8,0.9,5.7-1.8c1.6,4,3,4.3,3.8,3.9c0.6-0.4,1-1.1,0.8-1.8l-1.6-9.3c-10.2,4.4-20.4,5.3-30.3-0.9h-0.1
			c-2.2,8.6-2.3,12.2,1.2,8.3c0,1,0.3,2.1,0.9,2.9c1,1.5,2.6,0.5,3.2-3.6C159.6,126.6,160.2,127.7,160.9,128.7"/>
		<path class="st7" d="M191.2,60.5c-0.7,0-1.2,0.6-1.2,1.2c0,0.7,0.6,1.2,1.2,1.2s1.2-0.6,1.2-1.2c0,0,0,0,0,0
			C192.4,61.1,191.9,60.5,191.2,60.5"/>
		<path class="st2" d="M160.5,56.5c-4.4-1.3-9.3,1.7-6.4,4c-4.2,0.9-6.6,4.5-2.5,6.6c-3.5,1.2-2.1,5.4,1.2,5.1
			c-0.6,1.5,0.2,3.2,1.7,3.7c0.2,0.1,0.5,0.1,0.7,0.2l0,0c-0.2-1.7-0.2-3.5,0-5.2c0.2-2.1,0.6-4.3,1.3-6.3
			C157.5,61.7,158.8,58.9,160.5,56.5"/>
		<path class="st7" d="M169.6,54.2c0,0.5,0.4,0.9,0.9,0.9c0.5,0,0.9-0.4,0.9-0.9c0-0.5-0.4-0.9-0.9-0.9
			C169.9,53.2,169.5,53.7,169.6,54.2"/>
		<path class="st1" d="M192.6,81.3c1.1,0.8,2.7,0.5,3.4-0.6c0,0,0-0.1,0.1-0.1c0.7-1,0.5-2.4-0.5-3.1c-0.1-0.1-0.2-0.1-0.3-0.2
			c-0.6-0.3-1.3-0.5-2-0.4l0,0c-0.3,1-0.8,2.1-1.2,3.1v0.1l-0.2,0.5C192.1,80.9,192.4,81.1,192.6,81.3"/>
		<path class="st7" d="M184.8,55.5c-0.5,0-1,0.5-0.9,1c-0.1,0.5,0.2,1.1,0.7,1.2c0.5,0.1,1.1-0.2,1.2-0.7c0-0.2,0-0.3,0-0.5
			C185.8,55.9,185.4,55.5,184.8,55.5"/>
		<path class="st7" d="M183.1,47.3c-0.6,0-1.1,0.5-1.1,1.2c0,0.6,0.5,1.1,1.1,1.1c0.6,0,1.1-0.5,1.1-1.1
			C184.3,47.8,183.8,47.3,183.1,47.3"/>
		<path class="st7" d="M177.8,51.7c-0.6,0-1.1,0.5-1.1,1.1c0,0,0,0,0,0c-0.1,0.6,0.4,1.2,1,1.3c0.6,0.1,1.2-0.4,1.3-1
			c0-0.1,0-0.1,0-0.2C179,52.3,178.5,51.8,177.8,51.7C177.8,51.8,177.8,51.8,177.8,51.7"/>
		<path class="st8" d="M198.7,65.5c-0.9,0.1-1.6,0.9-1.5,1.8c0.1,0.8,0.7,1.5,1.6,1.5c0.4,0,0.9-0.2,1.2-0.5
			c0.6-0.6,0.6-1.5,0.1-2.2l0,0C199.7,65.7,199.2,65.5,198.7,65.5"/>
		<path class="st1" d="M182.2,110.3c-0.2,0.5-0.6,1-1,1.3c-1.1,0.8-1.4,1.1-1.1,1.7s1.2,0.1,2-0.4c0.3-0.2,0.6-0.5,0.8-0.7
			c-0.3,0.7-0.7,1.4-1.2,1.9c-0.5,0.6-0.3,1,0.1,1.1c0.6,0.1,1.5-0.1,2.4-2.4c-0.2,1.6-0.6,2.3-0.2,2.5c1,0.4,1.5-1.4,2.4-4.9
			c1.4-2.4,2.6-5,3.6-7.6c0.8-2.2,0.8-3.4-1.6-5.1l-8.5-5.2l1.1,6.5c0,0,3.4,1.7,4.9,2.6c-0.8,2-2.5,6.9-2.5,6.9s-1.3,0.1-2.4,0.2
			c-0.5,0-1,0.1-1.1,0.4c-0.1,0.6,0.4,1,1.1,1.1C181.4,110.4,181.8,110.4,182.2,110.3"/>
		<path class="st7" d="M191.1,52.8c-0.6,0-1.1,0.5-1.1,1.1c0,0.6,0.5,1.1,1.1,1.1c0.6,0,1.1-0.5,1.1-1.1
			C192.3,53.3,191.8,52.8,191.1,52.8C191.2,52.8,191.2,52.8,191.1,52.8"/>
		<path class="st8" d="M200.1,68.5c1.9,0.9,3.9,1.6,6,2c2.1,0.3,3.9-0.1,3.9-2.3c0.1-5.2-9.9-2-9.9-2c0.2,0.3,0.4,0.6,0.4,1
			c0,0.4-0.7,0.9-1,1.2L200.1,68.5z"/>
		<path class="st8" d="M170.7,47.9c0.6,0,1,0.4,1.1,0.9c0,0.6-0.4,1-0.9,1.1c-0.6,0-1-0.4-1.1-0.9c0,0,0,0,0-0.1
			C169.8,48.3,170.2,47.9,170.7,47.9C170.7,47.9,170.7,47.9,170.7,47.9 M190.1,52.9c0.6,0,1.1,0.5,1.1,1.1c0,0.6-0.5,1.1-1.1,1.1
			c-0.6,0-1.1-0.5-1.1-1.1C189,53.4,189.5,52.9,190.1,52.9C190.1,52.9,190.1,52.9,190.1,52.9 M169.4,55.1c-0.5,0-0.9-0.4-0.9-0.9
			c0-0.5,0.4-0.9,0.9-0.9c0.5,0,0.9,0.4,0.9,0.9c0,0,0,0,0,0C170.3,54.6,169.9,55.1,169.4,55.1 M182.1,47.3c0.6,0,1.1,0.5,1.2,1.1
			c0,0.6-0.5,1.1-1.1,1.2c-0.6,0-1.1-0.5-1.2-1.1c0,0,0,0,0,0C181,47.9,181.5,47.3,182.1,47.3 M159.3,56.9
			c17.5-3.2,26.2,7.4,34.6,10.3c1.3,0.5,2.7,0.7,4.1,0.7c0-0.2,0-0.4,0-0.6C196.3,41.4,168.1,37.2,159.3,56.9 M175.7,52.9
			c0.1-0.6,0.6-1.1,1.3-1c0.6,0.1,1,0.5,1,1c0.1,0.6-0.4,1.2-1,1.3c-0.6,0.1-1.2-0.4-1.3-1C175.7,53.1,175.7,53,175.7,52.9
			 M182.9,56.5c0-0.6,0.4-1,1-1s1,0.4,1,1s-0.4,1-1,1S182.9,57.1,182.9,56.5 M189.1,61.8c0-0.7,0.5-1.2,1.2-1.2c0,0,0,0,0,0
			c0.7,0.1,1.2,0.6,1.1,1.3c-0.1,0.6-0.5,1-1.1,1.1C189.6,63,189,62.5,189.1,61.8"/>
		<path class="st9" d="M159.4,139.5c-3,1.3-4.9,1.6-4.7,3.4c0.1,1.2,3,1.2,5.6,0.6c0.9-0.3,1.6-0.8,2.2-1.4l0.2,1.8h1.9l0.1-8.9
			c-1.6,0.5-3.2,0.5-4.8,0.1L159.4,139.5z"/>
		<path class="st8" d="M198.7,65.5c0.5,0,1,0.2,1.3,0.6l0,0c0.2-0.1,8.4-5,5-6.6S198.6,65.5,198.7,65.5"/>
		<path class="st1" d="M157.5,112.8c0.6-0.3-0.1-1.2-0.7-2.6l0,0c1.5,1.9,2.6,2,2.9,1.7s-0.2-1.1-2.1-3.3c0.6,0.5,1.3,0.9,2,1.2
			c0.4,0.1,0.8,0,0.8-0.4c0-0.9-1.7-1.7-3.3-3.3c0.1-0.5,0.1-0.5,0.3-1l-2.8-5.7c1.6-0.7,3.3-1.3,5-1.7c0.5-1.8,1.3-4.3,1.8-6.2
			c0,0-5,2-6.6,2.7c-3.2,1.6-5.3,1.9-4.2,5.7c0.9,3.3,3.1,5.4,3.6,7.8c0.1,0.4,0.9,2.3,1.1,2.7C156,112,157.1,112.9,157.5,112.8"/>
		<path class="st9" d="M169.8,142.5c-1.7,0.5-2.6,3.9,4.4,2.4c1.2-0.1,2.1-1,2.5-2.1l-0.2,2.3h2.2v-9.3c-1.6,0.4-3.3,0.4-4.9,0
			c0,1.6-0.5,5.4-0.5,5.4L169.8,142.5z"/>
		<path class="st3" d="M188.1,86.3c1.5-1.7,2.8-3.7,3.8-5.7l0.2-0.5c-1.3-1.8-3.8-2.2-5.6-0.8c-1,0.8-1.6,2-1.6,3.3
			C185,84.4,186.3,85.9,188.1,86.3"/>
		<path class="st10" d="M188.1,68.3c-0.1,0.1-2.3,1.6-2.3,1.6"/>
		<line class="st10" x1="181.5" y1="65" x2="181.7" y2="67.2"/>
		<line class="st10" x1="185.7" y1="65.9" x2="184.6" y2="67.8"/>
		<line class="st10" x1="168.7" y1="62.7" x2="166.6" y2="64.3"/>
		<polyline class="st10" points="166,60.4 165.1,62.4 165.1,62.5 		"/>
		<line class="st10" x1="162.8" y1="59.7" x2="162.8" y2="62.1"/>
		<path class="st7" d="M165.3,61.9c-0.6-0.3-1.2-0.4-1.9-0.4c-2.3,0.1-4,2-4.1,4.3c-0.2,2.5,1.4,4.6,3.7,4.6c2.5,0,4.6-2,4.6-4.6
			c0-1-0.3-1.9-0.9-2.7C166.4,62.6,165.9,62.1,165.3,61.9"/>
		<path class="st7" d="M180.7,67.5c-1.6,0.7-2.7,2.2-2.6,4c0.1,2.3,1.5,4.4,3.9,4.3s3.8-1.3,4.4-3.8c0.1-0.8,0-1.6-0.2-2.4
			c-0.7-1.5-2.2-2.4-3.9-2.4C181.7,67.2,181.1,67.3,180.7,67.5"/>
		<path class="st10" d="M171.7,73.6c-2.7-0.2-4.3-0.8-5.1,0.8c-1,2,1.7,3.5,4,4.1"/>
		<path class="st11" d="M162.2,65.6c0,0.4,0.3,0.7,0.7,0.7c0.3,0,0.6-0.2,0.7-0.6c0.1-0.4-0.2-0.8-0.6-0.8c0,0-0.1,0-0.1,0
			C162.5,64.9,162.2,65.2,162.2,65.6"/>
		<path class="st11" d="M181.1,71c0,0.4,0.2,0.7,0.6,0.7c0,0,0.1,0,0.1,0c0.4,0,0.7-0.3,0.7-0.7c0-0.4-0.3-0.7-0.7-0.7
			C181.5,70.4,181.1,70.7,181.1,71"/>
		<path class="st12" d="M50.5,37.3c0.3,1.1-0.3,1.5,0.4,2.4c2.2,3.1,3.4,0.6,1.4-4.2c0,0,1.7,1.6,2.2,2.1c1.5,1.4,3.1,1.8,2.5,0.7
			c-0.7-1.6-3.2-6-3.2-6c7.2,8.1,3.2,0.4,1.8-1.9c0.8,0.9,1.8,1.4,3,1.6c3.2,0.4-9.9-12.5-9.9-12.5l0,0c-2.9,0.2-6,0.5-5,2
			c0.7,1.1,5.3,11.3,5.3,11.3C49.7,34.3,50.2,35.8,50.5,37.3"/>
		<path class="st8" d="M37.4,56.8c5.3,0.6,10.7,0.9,16,0.9c7.7-0.1,16.2-4.7,16.2-4.7l1,7.8c0,0-9,4.5-16.2,4.7
			c-7.8,0.3-15.1-0.1-15.1-0.1L37.4,56.8z"/>
		<polygon class="st13" points="48.3,126.2 48.1,129.8 47.3,140.1 43.9,140.1 43.9,140.1 44.9,130.8 45.4,126.8 		"/>
		<path class="st5" d="M31.2,138.3c0,0,9.1,1.6,7.5,5.4c-1.2,2.8-10.8-0.9-10.8-0.9v1.6h-3.5c-0.1-1.4,0-4.7,0-5.9
			c0.1-4.9,0.6-9.9,0.6-9.9l6.9-0.2L31.2,138.3z"/>
		<path class="st0" d="M56.3,98l-4.4,29.1l-9,0.4c-0.2-1.2-0.3-4.7-0.4-6.4c-0.2-5.8,0.1-9-2-9.5c-2.5-0.6-6.3,10.9-8,17.6l-9.6,0.2
			c-0.1-9.3-0.7-30.1-1-31c1.7,0.2,3.5,0.2,5.3,0c8.4,2.1,17.1,2.2,25.6,0.4C54.4,98.5,56.2,98,56.3,98"/>
		<path class="st12" d="M12.6,43.7c0.2,1.2,1,1.4,0.8,2.6c-1,4.1-3.5,2-3.7-3.7c0,0-1.1,2.3-1.5,3.1c-1.1,2.1-2.6,3.2-2.6,1.7
			c0-1.9,0.8-7.4,0.8-7.4c-4.2,11.3-3.4,1.8-3-1.2C3,40.1,2,41.1,0.8,41.7c-3.4,1.7,5.1-17,5.1-17l0,0c3.4-1,7.1-2,6.7,0
			c-0.2,1.4-0.5,13.9-0.5,13.9C12.2,40.3,12.4,42.1,12.6,43.7"/>
		<path class="st1" d="M53,31.3L53,31.3L53,31.3c0-0.2,0-0.3-0.1-0.4l0,0l-1.7-5.4c-1.3-3.7-2.7-8.6-3.6-10.3
			c-0.4,0.1-0.8,0.1-1.3,0.2c-4,0.4-8.8-0.4-12.8-0.4c-1.1,0-2.3,0.1-3.4,0.3c-5.9,1.2-13.5,7.3-18.8,9.1c-0.2,1.5-0.3,5.7-0.6,10.5
			c-0.3,4.2,1.1,7.7,1.4,9.5c12.6,21.9,42.6,17.9,42-8.5c-0.3-1.6-0.6-3.1-1-4.6"/>
		<path class="st8" d="M50.9,61.5c-0.5-1.4-3.9-7.9-5-9c-1.2,2.9-3.2,5.5-5.8,7.3c-2.4,1.7-3.7,0.9-7.6,1.7c-6.5,1.3-7.8-1-11.6-3
			c0,0,0,14.3-0.2,22.2c-0.4,12.1-0.2,15.9,0,17.8l6.2,1.5c9.1,2.4,22.8,0.8,30.1-0.6C56.6,85.5,56.6,75.9,50.9,61.5"/>
		<path class="st7" d="M53.6,83.6c0.4,0,0.7,0.3,0.7,0.6c0,0.4-0.2,0.7-0.6,0.7c0,0,0,0,0,0c-0.4,0-0.7-0.2-0.7-0.6
			C53,84,53.3,83.7,53.6,83.6"/>
		<path class="st7" d="M54.4,92.6c0.4,0,0.7,0.3,0.7,0.6c0,0.4-0.2,0.7-0.6,0.7c-0.4,0-0.7-0.2-0.7-0.6C53.8,93,54,92.7,54.4,92.6"
			/>
		<path class="st7" d="M52.5,75.5c0.4,0,0.7,0.3,0.7,0.6c0.1,0.4-0.2,0.7-0.5,0.8c-0.4,0.1-0.7-0.2-0.8-0.5c0,0,0-0.1,0-0.1
			C51.9,75.9,52.1,75.6,52.5,75.5"/>
		<path class="st7" d="M50.5,67.6c0.4,0,0.7,0.2,0.7,0.6c0,0.4-0.2,0.7-0.6,0.7l0,0c-0.4,0-0.7-0.2-0.7-0.6
			C49.9,68,50.1,67.7,50.5,67.6"/>
		<path class="st12" d="M54,35.9c1,5.6,1.9,17.1-6.3,23.2c-2.9,2.1-6.3,3.5-9.9,4c-19.5,2.3-23.5-9.9-24.9-15.2
			c-0.3-1.2-0.6-2.4-0.8-3.6c9.4-1.1,19.9,17.1,26.5,6.1c1.2,0.3,2.4,0.2,3.4-0.4C49.4,57.6,48.9,40.8,54,35.9"/>
		<path class="st7" d="M48.2,61.8c0.4,0,0.7,0.2,0.7,0.6c0,0,0,0,0,0c0,0.3-0.2,0.7-0.6,0.7c0,0,0,0,0,0c-0.4,0-0.7-0.2-0.7-0.6
			c0,0,0,0,0,0C47.6,62.1,47.9,61.8,48.2,61.8"/>
		<polygon class="st5" points="47.3,139.8 47,143 43.5,143.3 43.9,140.1 43.9,140.1 		"/>
		<path class="st12" d="M46.5,41.9c0.2,0.3,0.2,0.8-0.2,1c-0.3,0.2-0.6-0.1-0.8-0.3c-0.5-0.4-1-0.6-1.5-0.8
			c-1.4-0.4-2.8-0.6-4.2-0.5c-2.6,0.1-5.5,0.8-7.5,2.5c-0.4,0.3-0.8,1.2-1.4,0.9s-0.1-1.1,0.1-1.5c0.8-0.9,1.8-1.7,2.9-2.2
			c2.2-1.1,4.6-1.6,7-1.5C42.7,39.6,45.3,40.2,46.5,41.9"/>
		<path class="st5" d="M38.6,44.5c-1.9,0.4-3.8,0.6-5.8,0.7c5.9,7,10.4,4.3,11.1-2.4C42.2,43.6,40.4,44.1,38.6,44.5"/>
		<path class="st5" d="M54.4,2.6c-0.1-0.3-0.4-0.5-0.7-0.4c-0.1,0-0.3,0.1-0.3,0.2c-5.5,10.8-12.2,3.8-19.6,0
			C30.9,1,27.9,0,24.9,0.7C14.2,3.3,14,23,2.6,16c-0.4-0.3-1-0.1-1.3,0.3c-0.1,0.2-0.1,0.4-0.1,0.7c1.2,5,3,7.6,5.2,8.6
			c2,0.9,4.2,0.6,6.7-0.3c5.2-2,11.3-6.7,17.2-8.2c1.1-0.3,2.2-0.4,3.3-0.4c4-0.2,8.8,0.4,12.8-0.2c0.4-0.1,0.8-0.1,1.3-0.2
			C52.6,15.3,55.9,12,54.4,2.6"/>
		<path class="st1" d="M11.6,34.3c0,1.5,0.1,3.1,0.2,4.6c-0.6,0.5-1.3,0.8-2.1,0.7c-1.6,0-2.9-1.3-3-3.5s1.1-3.6,2.7-3.6
			c0.8-0.1,1.6,0.1,2.2,0.5C11.7,33,11.7,34.1,11.6,34.3"/>
		<path class="st14" d="M52.5,98.3c-0.2-15-1.9-22.8-5.9-36.2"/>
		<path class="st7" d="M34.3,12.2c2.4-2,3,0.9,1.3,1c0.5,0.6,0.1,1.1-0.4,1.1c-0.6,0.1-1.2-0.4-1.2-1c0-0.1,0-0.2,0-0.3l-2.8-0.8
			l0.1-0.3c0.1-0.2,0.2-0.4,0.3-0.6l0.1-0.2L34.3,12.2z"/>
		<path class="st7" d="M25.8,9.1c0-0.6,0.2-1.1,0.6-1.6c0.5-0.5,1.1-0.8,1.7-0.9c1.5-0.3,3.1-0.1,3.9,1c0.6,1.2,0.7,2.6,0.2,3.8
			c0,0-1,1.4-1.3,1.8c-0.7,0.5-1.5,0.7-2.3,0.5c-0.9-0.3-2.1-2.5-2.5-3.3C25.9,10,25.8,9.6,25.8,9.1"/>
		<path class="st11" d="M31.2,8.7c0.3,0.3,0.3,0.8,0,1.1c-0.3,0.3-0.8,0.4-1.1,0.1c-0.3-0.3-0.4-0.8-0.1-1.1c0,0,0,0,0.1-0.1
			C30.4,8.4,30.9,8.4,31.2,8.7"/>
		<path class="st7" d="M28.2,13v0.1l-3.1,2.2c-0.4,2.7-1.9,1.7-1.5,0.5c-2.3,0.4-1.5-3.3,0.8-1.4l2.9-2.1c0.2,0.2,0.4,0.5,0.7,0.7
			L28.2,13z"/>
		<path class="st11" d="M27.6,8.8c0.3,0,0.6,0.2,0.7,0.7c0.1,0.4-0.2,0.7-0.5,0.8c0,0-0.1,0-0.1,0c-0.4,0-0.7-0.3-0.8-0.7
			c-0.1-0.4,0.2-0.8,0.6-0.8C27.5,8.9,27.5,8.8,27.6,8.8"/>
		<path class="st7" d="M26.4,10.3l-0.2,0.2l-2.4-1.1c-2.5,0.9-2.1-1.1-1-1.2c-1.3-2.1,2.2-2.1,1.6,0.4l1.4,0.5
			C25.9,9.6,26.3,9.9,26.4,10.3"/>
		<path class="st11" d="M29.2,11.5c0,0.1-0.1,0.1-0.1,0.2c-0.1,0-0.1,0-0.1-0.1c0-0.1,0.1-0.1,0.1-0.1
			C29.1,11.4,29.2,11.5,29.2,11.5L29.2,11.5"/>
		<path class="st11" d="M29.9,11.4c0,0.1,0,0.2-0.1,0.2c0,0,0,0,0,0c-0.1,0-0.2-0.1-0.2-0.1c0-0.1,0.1-0.2,0.2-0.2
			S29.9,11.4,29.9,11.4C29.9,11.5,29.9,11.5,29.9,11.4"/>
		<path class="st7" d="M34.8,5.6C36.5,5.3,35.7,7.9,34,7L32,8.9H32c-0.1-0.3-0.3-0.6-0.5-0.8l1.8-1.7c-0.4-1.5,0.1-2,0.6-2.1
			c0.5-0.1,1,0.3,1,0.8C34.9,5.2,34.9,5.4,34.8,5.6"/>
		<path class="st5" d="M32.8,32c0,0.7-0.4,1.4-1,1.7l-7.5,2.1c-2.1,0.5-2.9,0.1-3.1-0.9l-1.4-6.2c-0.2-1.3,0.4-2,1.7-2.2l7.6-2.1
			c1.3-0.2,2-0.1,2.2,1.2L32.8,32z"/>
		<path class="st15" d="M22.2,31.4c-1.3,0.6-8.8,0.8-12.2,0.8"/>
		<path class="st15" d="M48.5,18.1c0,0-12.8,8.5-18.5,11.2"/>
		<path class="st7" d="M45.2,22.3c2.5-0.1,4.6,1.9,4.7,4.4c0,0,0,0,0,0c0.1,2.5-1.2,5.3-4.7,5.4c-2.5,0.1-4.3-2.6-4.4-5.1
			C40.7,24.4,42.7,22.3,45.2,22.3"/>
		<path class="st11" d="M47.5,26.8c0.4-0.1,0.8,0.2,0.8,0.6c0,0,0,0.1,0,0.1c0,0.4-0.3,0.8-0.7,0.8c0,0,0,0,0,0
			c-0.7,0-0.8-0.4-0.8-0.8C46.8,27.1,47.1,26.8,47.5,26.8"/>
		<path class="st10" d="M37.3,37.5c0.3,0.1,6.4-0.2,6-3c-0.2-1.6-8-4.6-8.2-4.5"/>
		<path class="st1" d="M64.6,69.6c0,0,3.7-5.4,5-4.7s0,3.7,0,3.7s4.3-3.8,5.8-2.7S73,69.8,73,69.8s4.4-1.6,4.7,0s-4.6,2.7-4.6,2.7
			s4.1,0.1,3.4,2s-10.4,0.6-10.4,0.6L64.6,69.6z"/>
		<path class="st16" d="M30.7,67.5c6.4,0,6.8,1.3,14.4,2.8S60.8,69,60.8,69l-0.6,7.9c0,0-8.8,2.6-15.8,1.4
			c-7.7-1.3-9.4-1.9-12.9-3.2C26.8,73.4,26.9,67.5,30.7,67.5"/>
		<path class="st9" d="M59.2,68.7c2.1-0.4,3.5-0.9,5.5-1.4c1,2.9,1.5,6,1.4,9.1l0,0l-5.7,1.4L59.2,68.7z"/>
		<path class="st7" d="M62.2,74.4c0.3-0.3,0.7-0.3,1,0c0,0,0,0,0,0c0.3,0.3,0.2,0.7,0,1c-0.3,0.3-0.7,0.2-1,0
			C62,75.1,62,74.7,62.2,74.4"/>
		<path class="st1" d="M69.9,54.6c0,0,3.1-5.8,4.4-5.2s0.4,3.7,0.4,3.7s3.9-4.2,5.5-3.3s-2,4.2-2,4.2s4.2-2.1,4.7-0.5
			s-4.2,3.2-4.2,3.2s4.1-0.3,3.6,1.6S72,60,72,60L69.9,54.6z"/>
		<path class="st9" d="M64.5,54.3c2-0.6,3.4-1.3,5.3-2c1.3,2.8,2.2,5.8,2.4,8.8l0,0l-5.5,2L64.5,54.3z"/>
		<path class="st7" d="M68.1,59.7c0.2-0.3,0.7-0.4,1-0.1c0.3,0.2,0.4,0.7,0.1,1l0,0c-0.2,0.3-0.7,0.4-1,0.1
			C67.9,60.4,67.9,60,68.1,59.7"/>
	</g>
</g>
</svg>
