<?xml version="1.0" encoding="utf-8"?>
<!-- Generator: Adobe Illustrator 26.2.1, SVG Export Plug-In . SVG Version: 6.00 Build 0)  -->
<svg version="1.1" id="Capa_1" xmlns="http://www.w3.org/2000/svg" xmlns:xlink="http://www.w3.org/1999/xlink" x="0px" y="0px"
	 viewBox="0 0 150.9 112.2" style="enable-background:new 0 0 150.9 112.2;" xml:space="preserve">
<style type="text/css">
	.st0{fill:#EECA1A;}
	.st1{fill:#593D19;}
	.st2{fill:#6F4714;}
	.st3{fill:#538A58;}
	.st4{fill:#945B19;}
	.st5{fill:#6EAA6F;}
	.st6{fill:#DB9600;}
	.st7{fill:#C58021;}
	.st8{fill:#6A4720;}
	.st9{fill:#9C141B;}
	.st10{fill:#E0D6B9;}
	.st11{fill:#111419;}
	.st12{fill:#FFFFFF;}
	.st13{fill:#211915;}
	.st14{fill:none;stroke:#211915;stroke-linecap:round;stroke-linejoin:round;}
	.st15{fill:none;stroke:#211915;stroke-width:0.69;stroke-linecap:round;}
	.st16{fill:#775C7D;}
	.st17{fill:#A886B1;}
	.st18{fill:#C33930;}
	.st19{fill:none;stroke:#DB9600;stroke-width:0.5;stroke-linecap:round;}
	.st20{fill:none;stroke:#BF0811;stroke-width:0.54;stroke-linecap:round;}
</style>
<g id="Capa_2_00000142864837474885964660000002825555737725580214_">
	<g id="Capa_1-2">
		<path class="st0" d="M150.9,105.6c-9.8-9.8-21.7-17.2-34.7-21.9c-2.9-1-5.8-2.1-8.8-2.9c-10.2-2.9-20.8-4.4-31.5-4.4
			c-5.3,0-10.5,0.4-15.7,1.1c-3.2,0.4-6.4,1-9.5,1.7C29.3,84,12.1,92.8,0,105.6c0,0,28.2,4.8,65.9,4.8S150.9,105.6,150.9,105.6z"/>
		<path class="st1" d="M53.6,89l7.2-4.5c-0.1,1.2,0.1,3.4,0,4.5c-2.4,0.7-4.2,0.1-7.2,2.3L53.5,89H53.6z"/>
		<path class="st2" d="M60.8,84.5l-7.2,4.6h-0.2l-0.2-4.5h0.1l7.4-3.9C60.8,80.8,60.8,84.3,60.8,84.5"/>
		<path class="st3" d="M60.9,80.7l-7.5,3.9l-0.2-2.4l7.6-3.7C60.8,79.5,60.8,79.9,60.9,80.7"/>
		<path class="st4" d="M57.3,73.3c0.6,0,1.1,0.2,1.6,0.5c1.2,0.9,1.7,2.4,1.9,4.7l-7.6,3.7c0,0-0.7-5.2,1.8-7.9
			C55.6,73.7,56.4,73.3,57.3,73.3L57.3,73.3z"/>
		<path class="st5" d="M57.3,73.3c-0.9,0-1.7,0.4-2.3,1c-2.6,2.8-1.6,10.3-1.6,10.3l-3.6-2.3c-0.2-3.6,0.3-7.6,2.9-9.4
			C55.4,73.1,57.1,73.3,57.3,73.3"/>
		<path class="st6" d="M53.9,73.5c0.1,0,0.3,0.1,0.3,0.3c0,0.1-0.1,0.3-0.3,0.3c-0.1,0-0.3-0.1-0.3-0.3S53.8,73.5,53.9,73.5
			L53.9,73.5"/>
		<path class="st2" d="M53.6,89l0.1,2.3c-5.8,4-12.3,0.7-19,0.6c-0.9,0-2.9,0-4.5,0L29.9,89h10.9L53.6,89z"/>
		<path class="st6" d="M52.2,75.6c0.2,0,0.4,0.2,0.4,0.4s-0.2,0.4-0.4,0.4c-0.2,0-0.4-0.2-0.4-0.4l0,0C51.8,75.8,52,75.6,52.2,75.6"
			/>
		<path class="st6" d="M51.6,79.3c0.3,0,0.6,0.2,0.6,0.6c0,0,0,0,0,0c0,0.3-0.3,0.6-0.6,0.6c0,0,0,0,0,0c-0.3,0-0.6-0.3-0.6-0.6l0,0
			C51,79.6,51.3,79.3,51.6,79.3C51.6,79.3,51.6,79.3,51.6,79.3"/>
		<path class="st7" d="M49.7,82.3L49.7,82.3l-7.2,0.2h-0.2c-0.6-4.5,0.5-7.5,3.3-9.6l0.4-0.2c2.2,0.1,4.7,0.2,6.5,0.3
			C50.2,75,49.5,78.7,49.7,82.3"/>
		<path class="st5" d="M46.2,72.7L46.2,72.7c-3,2.1-4.3,5.3-3.6,9.8v0.2l-3.4-0.1c-0.6-5.1,1-8,3.4-10
			C43.7,72.5,44.9,72.5,46.2,72.7"/>
		<path class="st6" d="M44.2,84.5v3.1c-1.1,0.5-2.2,0.8-3.4,0.8c-1.1,0-2.2-0.3-3.2-0.8v-3.2L44.2,84.5z"/>
		<path class="st6" d="M43.3,73.4c0.2,0,0.3,0.1,0.3,0.3c0,0.2-0.1,0.3-0.3,0.3c0,0,0,0,0,0c-0.2,0-0.3-0.1-0.3-0.3c0,0,0,0,0,0
			C43,73.6,43.1,73.4,43.3,73.4C43.3,73.4,43.3,73.4,43.3,73.4"/>
		<path class="st7" d="M35.2,72.9c2.4-0.3,4.9-0.4,7.3-0.3c-2.3,2-4,4.8-3.4,9.9v0.1l-6.6,0.2v-0.2c-0.4-2.7,0.1-5.4,1.5-7.7
			C34.4,74.2,34.8,73.6,35.2,72.9"/>
		<path class="st6" d="M41.2,75.9c0.2,0,0.4,0.2,0.4,0.4c0,0.2-0.1,0.5-0.4,0.5c-0.2,0-0.5-0.1-0.5-0.4c0,0,0-0.1,0-0.1
			C40.8,76.1,41,75.9,41.2,75.9"/>
		<path class="st8" d="M41.3,85.9c0,0.2-0.1,0.3-0.3,0.4c0,0,0,0,0,0l0.1,0.9h-0.7v-0.9c-0.2,0-0.3-0.1-0.4-0.3c0,0,0,0,0,0
			c0-0.2,0.2-0.4,0.5-0.4S41.2,85.7,41.3,85.9"/>
		<path class="st4" d="M53.4,84.6l-9.1-0.1v3.1c-1.1,0.5-2.2,0.8-3.4,0.8c-1.1,0-2.2-0.3-3.2-0.8v-3.2l-8-0.1l0.3,4.6l23.7,0.1
			L53.4,84.6z"/>
		<path class="st6" d="M40.7,79.7c0.3,0,0.6,0.3,0.6,0.6l0,0c0,0.3-0.3,0.6-0.6,0.6c0,0,0,0,0,0c-0.3,0-0.6-0.2-0.6-0.6c0,0,0,0,0,0
			C40.1,80,40.3,79.7,40.7,79.7C40.7,79.7,40.7,79.7,40.7,79.7"/>
		<path class="st5" d="M33.8,75.5c0.6-1.2,1.6-2.2,2.8-2.8c-1.6,0-3.2,0.5-4.5,1.6c-3.2,2.9-2.7,8.4-2.7,8.4l3.3,0.2l-0.1-0.4
			C32.3,80.1,32.7,77.6,33.8,75.5"/>
		<path class="st6" d="M33.5,74.4C33.5,74.5,33.5,74.5,33.5,74.4c0,0.2-0.1,0.3-0.3,0.3c-0.2,0-0.3-0.2-0.2-0.3
			c0-0.1,0.1-0.2,0.2-0.2C33.3,74.2,33.4,74.3,33.5,74.4"/>
		<path class="st6" d="M31.8,76.5c0.2,0,0.4,0.2,0.4,0.4c0,0.2-0.2,0.4-0.4,0.4s-0.4-0.2-0.4-0.4C31.3,76.7,31.5,76.5,31.8,76.5"/>
		<path class="st6" d="M31.3,79.9c0.3,0,0.5,0.2,0.5,0.5c0,0.3-0.2,0.6-0.5,0.6c0,0,0,0,0,0c-0.3,0-0.5-0.3-0.5-0.6
			C30.8,80.2,31,79.9,31.3,79.9"/>
		<polygon class="st5" points="53.2,82.3 53.4,84.7 44.2,84.5 37.6,84.4 29.6,84.4 29.4,82.2 		"/>
		<path class="st9" d="M106.8,60.3c-4.7,1.7-9.9,1.7-14.6,0l-0.8-0.6c0-0.1-9.5-3-9.5-3s-4.2,14.3-5,18.1c-0.5,2.2-0.9,4.4-1.2,6.6
			c1.1-0.7,13.2-1.9,13.2-1.9c0.7,0.3,1.4,0.5,2.1,0.4c1.5,1.1,5.2,1.5,5.2,3.3c0,0.3,0,0.5,0,0.8h0.1c0.3-4.7,3.2-6.7,8.7-6l0,0
			c1.1-2.6,2-5.2,2.7-7.9l0,0c0.9-3,0.8-10.1,0.5-10.4L106.8,60.3z M98,77.7c-0.3,0-0.6-0.3-0.6-0.6c0-0.3,0.3-0.6,0.6-0.6
			s0.6,0.3,0.6,0.6l0,0C98.6,77.5,98.3,77.7,98,77.7 M98,72.1c-0.3,0-0.6-0.3-0.6-0.6c0-0.3,0.3-0.6,0.6-0.6s0.6,0.3,0.6,0.6l0,0
			C98.6,71.8,98.3,72.1,98,72.1 M98.7,66.4c-0.3,0-0.6-0.2-0.6-0.6c0-0.3,0.2-0.6,0.6-0.6c0,0,0,0,0,0c0.3,0,0.6,0.3,0.6,0.6
			C99.3,66.1,99,66.4,98.7,66.4"/>
		<path class="st2" d="M77,40.8c0.1,1.2,0.8,1.6,0.4,2.7c-1.5,3.9-3.7,1.6-3.1-4.1c0,0-1.4,2.2-1.9,2.9c-1.3,1.9-3,2.8-2.8,1.4
			c0.3-1.8,1.7-7.2,1.7-7.2c-5.6,10.6-3.6,1.3-2.8-1.6c-0.6,1.2-1.7,2.1-2.9,2.5c-3.6,1.3,7.2-16.1,7.2-16.1l0,0
			c3.4-0.6,7.2-1,6.6,0.8c-0.4,1.4-2.3,13.6-2.3,13.6C77,37.3,76.9,39.1,77,40.8"/>
		<path class="st2" d="M113.9,38.4c0,1.2-0.8,1.6-0.4,2.7c1.5,3.9,3.7,1.6,3.1-4.1c0,0,1.4,2.2,1.9,2.9c1.3,1.9,3,2.8,2.8,1.4
			c-0.3-1.8-1.7-7.2-1.7-7.2c5.6,10.6,3.6,1.3,2.8-1.6c0.6,1.2,1.7,2.1,2.9,2.5c3.6,1.3-7.2-16.1-7.2-16.1l-0.7-0.5
			c-3.4-0.6-6.6-0.5-5.9,1.3c0.4,1.4,2.3,13.6,2.3,13.6C113.9,34.9,113.9,36.6,113.9,38.4"/>
		<path class="st10" d="M116.3,18.9c-0.4,0-2.5,0.2-2.9,0.2c-4-0.1-8.6-1.5-12.5-2c-1.1-0.2-2.2-0.2-3.3-0.1c-6,0.4-12.7,4-18.2,5.1
			c-0.7,2.4-1.2,4.9-1.6,7.4c0,0.2-0.1,0.3-0.1,0.5c-0.3,1.7-0.5,3.6-0.6,5.6c-0.1,1.7-0.1,3.5-0.1,5.2c5.5,8.5,11.6,21.8,19.5,11.8
			c1.1,0.5,2.3,0.5,3.4,0c6.3,8.4,13.9-8.2,18.7-14.4C118.6,36.7,118.3,25.5,116.3,18.9"/>
		<path class="st2" d="M118.6,38.3c0.3,5.6-0.4,16.5-9.3,21.5c-3.1,1.6-6.6,2.5-10.1,2.4c-18.1-0.5-21.2-12.3-22-17.7
			C77.1,43.2,77,42,77,40.8c9.4,0.1,13.7,19.4,21.6,9.4c1.1,0.5,2.3,0.5,3.4,0C108.2,58.7,113,42.5,118.6,38.3"/>
		<path class="st2" d="M108.5,43c0.2,0.3,0.1,0.8-0.2,1c0,0,0,0,0,0c-0.4,0.1-0.6-0.2-0.8-0.4c-0.4-0.4-0.9-0.8-1.4-1
			c-1.3-0.6-2.7-0.9-4.1-1c-2.5-0.2-5.6,0-7.7,1.5c-0.4,0.3-1,1.1-1.5,0.7s0-1.1,0.3-1.4c0.9-0.8,2-1.4,3.1-1.8
			c2.3-0.8,4.7-1,7.1-0.6C105.1,40.4,107.6,41.2,108.5,43"/>
		<path class="st11" d="M123.4,6.8c0-0.3-0.2-0.6-0.5-0.6c-0.2,0-0.4,0.1-0.5,0.2c-7.2,9.6-12.6,1.7-19.1-3.3
			C100.8,1.3,98.1-0.2,95,0C84.1,0.7,80.6,19.9,70.6,11.1c-0.4-0.3-1-0.3-1.3,0.1c-0.2,0.2-0.2,0.4-0.2,0.7c0.4,5.1,1.7,7.9,3.6,9.3
			c1.7,1.2,4,1.3,6.6,0.8c5.4-1.1,12.2-4.7,18.2-5.1c1.1-0.1,2.2,0,3.3,0.1c3.9,0.5,8.5,1.8,12.5,2c0.4,0,0.8,0,1.3,0
			C119.6,18.9,123.4,16.3,123.4,6.8"/>
		<path class="st10" d="M78.5,32.2c-0.3,1.8-0.2,2.5-0.3,4.5c-0.6,0.4-1.4,0.6-2.2,0.5c-1.6-0.2-2.7-1.7-2.5-3.9s1.6-3.2,3.2-2.9
			C78.5,30.8,78.5,32,78.5,32.2"/>
		<path class="st12" d="M102.3,12.8c2.7-1.6,2.8,1.4,1.2,1.2c0.3,0.7-0.1,1-0.6,1c-0.6,0-1.1-0.6-1.1-1.2c0-0.1,0-0.2,0.1-0.3
			l-2.6-1.2l0.2-0.3c0.2-0.1,0.3-0.3,0.4-0.5l0.2-0.2L102.3,12.8z"/>
		<path class="st12" d="M94.4,8.3c0.1-0.6,0.4-1.1,0.8-1.4c0.5-0.4,1.2-0.6,1.8-0.6c1.5,0,3,0.5,3.6,1.6c0.4,1.3,0.2,2.6-0.4,3.7
			c0,0-1.2,1.2-1.6,1.5c-0.7,0.4-1.6,0.4-2.3,0.1c-0.8-0.4-1.7-2.8-1.8-3.6C94.4,9.2,94.4,8.8,94.4,8.3"/>
		<path class="st13" d="M99.8,8.9c0.2,0.3,0.1,0.8-0.2,1c-0.4,0.2-0.9,0.2-1.2-0.1c-0.2-0.4-0.1-0.9,0.2-1.1
			C99.1,8.4,99.5,8.5,99.8,8.9"/>
		<path class="st12" d="M96.2,12.5v0.1l-3.4,1.6c-0.9,2.6-2.2,1.3-1.6,0.2c-2.4,0-0.9-3.5,1.1-1.3l3.2-1.5c0.3,0.5,0.5,0.8,0.5,0.8
			L96.2,12.5z"/>
		<path class="st13" d="M96.2,8.4c0.3,0,0.6,0.3,0.6,0.8c0,0.4-0.3,0.7-0.6,0.7c0,0-0.1,0-0.1,0c-0.4-0.1-0.7-0.4-0.7-0.8
			c0-0.4,0.3-0.7,0.7-0.7C96.1,8.4,96.2,8.4,96.2,8.4"/>
		<path class="st12" d="M94.9,9.6l-0.3,0.2l-2.1-1.5c-2.5,0.4-1.9-1.4-0.8-1.4c-1-2.3,2.5-1.7,1.5,0.7l1.3,0.7
			C94.4,8.8,94.7,9.2,94.9,9.6"/>
		<path class="st13" d="M97.3,11.2c0,0.1-0.1,0.1-0.1,0.1c0,0,0,0,0,0c-0.1,0-0.1-0.1-0.1-0.2c0-0.1,0.1-0.1,0.2-0.1
			C97.3,11.1,97.3,11.2,97.3,11.2"/>
		<path class="st13" d="M98.1,11.3c0,0.1-0.1,0.2-0.2,0.2c0,0,0,0,0,0c-0.1,0-0.2-0.1-0.2-0.2c0-0.1,0.1-0.1,0.2-0.1
			C98,11.1,98.1,11.2,98.1,11.3L98.1,11.3"/>
		<path class="st12" d="M103.9,6.4c1.7,0,0.4,2.4-1.1,1.2l-2.2,1.6h-0.1c-0.1-0.3-0.2-0.6-0.3-0.9l2-1.4c-0.1-1.5,0.4-2,1-2
			c0.5,0,0.9,0.5,0.8,1C104,6.1,104,6.2,103.9,6.4"/>
		<path class="st11" d="M95,31.3c-0.1,0.7-0.6,1.3-1.3,1.4L86,33.3c-2.2,0.1-2.9-0.5-2.9-1.4l-0.2-6.2c0-1.3,0.7-1.8,2-1.8l7.8-0.6
			c1.3,0,1.9,0.3,1.9,1.6L95,31.3z"/>
		<path class="st14" d="M83.9,29c-1.4,0.3-4.5,1.2-5.9,1.4"/>
		<path class="st14" d="M116.4,19.7c0,0-17.4,6.1-23.6,7.6"/>
		<path class="st12" d="M108.8,23.4c2.5,0.2,4.3,2.4,4.1,4.9c-0.2,2.5-1.9,5-5.3,4.7c-2.5-0.2-3.9-3.1-3.7-5.6
			C104.2,25,106.3,23.2,108.8,23.4C108.8,23.4,108.8,23.4,108.8,23.4"/>
		<path class="st13" d="M108.6,29c0.4,0,0.7,0.3,0.7,0.7c0,0,0,0.1,0,0.1c0,0.4-0.4,0.7-0.8,0.7c0,0,0,0,0,0
			c-0.6-0.1-0.7-0.5-0.7-0.9C107.9,29.3,108.3,29,108.6,29"/>
		<path class="st15" d="M98.9,37.6c0.3,0.1,6.8,1.1,6.3-2.2c-0.2-1.6-7.1-6.4-7.4-6.4"/>
		<path class="st15" d="M95.9,47.5c1.1-1.5,2.8-2.4,4.7-2.6c1.5,0,3,0.5,4.1,1.4"/>
		<path class="st11" d="M89,103.9c0,0,10.7,8,6.1,8.3c-6.3,0.4-11.1-4.9-11.1-4.9l-0.9,2.3l-3.3-0.9L83.6,94
			c0.8,0.3,1.6,0.5,2.5,0.5c1.8,0.2,3.7,0.2,5.6,0L89,103.9z"/>
		<path class="st11" d="M108,105.7c0.2,1.3,0.4,2.7,0.4,4l-4.7,0.7l-0.6-4.1L108,105.7z"/>
		<path class="st16" d="M88.9,92.7c2.2,0.6,4.4,0.9,6.7,0.9c3.1,0,5.7,0.3,7.5-1.6s0.6-8-3.1-9.3s-2.5-2-7.3-1.8s-5.7,0.3-6.3,1.8
			S88.9,92.7,88.9,92.7"/>
		<path class="st4" d="M108,105.7l-4.9,0.8L101.4,95l5-0.5C107.3,98.1,107.9,101.9,108,105.7"/>
		<path class="st10" d="M117.8,58.1c0.3-0.3,3.5-2.9,4.3-2c1,1.1-3.8,4.6-5,5.8c-1.7,1.8-2,2.3-2.9,2.2c-4.1-0.4-6.2-4.2-6.2-4.2
			c1.6-3.5,4.3-2.6,5.2-5c2.4-6.2,5-5.3,3.2-0.8c-0.2,0.8-0.5,1.6-0.9,2.3C121.4,49.6,123.4,52.2,117.8,58.1"/>
		<path class="st17" d="M107.1,94.4c-1.9,0.3-3.8,0.5-5.7,0.6c0,0-1.6,0.3-2.2-0.5c-0.4-0.6-3-6.8-3-10.5c0-4.7,3.4-7.3,8.8-6.2
			c2.5,0.5,2.6,0.8,3.3,1.4c1.9,1.5,1.9,6,1.2,9.4C109.1,90.6,108.3,92.6,107.1,94.4"/>
		<path class="st12" d="M98.7,65.3c0.3,0,0.6,0.3,0.6,0.6c0,0.3-0.3,0.6-0.6,0.6s-0.6-0.3-0.6-0.6l0,0
			C98.2,65.5,98.4,65.3,98.7,65.3"/>
		<path class="st12" d="M98,70.9c0.3,0,0.6,0.2,0.6,0.5s-0.2,0.6-0.5,0.6c-0.3,0-0.6-0.2-0.6-0.5c0,0,0,0,0,0
			C97.5,71.2,97.7,70.9,98,70.9"/>
		<path class="st12" d="M98,76.6c0.3,0,0.6,0.2,0.6,0.6c0,0.3-0.2,0.6-0.6,0.6c-0.3,0-0.6-0.2-0.6-0.6c0,0,0,0,0,0
			C97.5,76.9,97.7,76.6,98,76.6"/>
		<path class="st17" d="M83.4,93.6h-1.2c-5.1,0.1-7.5-3.6-6.5-12.3c1.1-0.7,6.4-3.7,12.1-4l0,0c1.6-0.1,3.2,0.1,4.8,0.6
			c2.1,0.9,3.6,2.9,3.6,5.2c0,0.3,0,0.5,0,0.8c-0.6,3.8-2,7.4-4.1,10.7c-0.2,0.2-7.9,0-8.4-0.7l0,0C83.5,93.9,83.4,93.7,83.4,93.6"
			/>
		<path class="st18" d="M93.8,73.6c0.5,1.6-0.1,3.2-1.3,4.3c-0.4,0.3-0.8,0.5-1.2,0.6c-0.3,0.1-0.5,0.1-0.8,0.1c-1,0-2-0.5-2.7-1.3
			c-0.5-0.5-0.8-1.2-1-1.9L84.6,67v-0.1c2.4-0.2,4.8-0.7,7.1-1.7v0.1L93.8,73.6z"/>
		<path class="st10" d="M89.8,59.9l-7.2,2.2c-0.2,0.1-1-0.8-2-1.2c-2.4-0.9-4.4-2.3-4.4-4.3c0-1.5,3.1,1.4,4.6,1.6
			c-2.9-2.9-4.1-4.5-3.4-4.9s2.9,1.4,6.1,3.3c-1.8-1.1-2.6-3.2-2.3-3.9c0.9-2.2,1.6,1.7,5.5,3.9C88.8,57.8,89.8,59.3,89.8,59.9"/>
		<path class="st18" d="M114.8,66.2l-2.2,5.6l0,0l-1.6,4.2c-0.5,1.4-2.7,3.4-5.3,2.4c-1.6-0.6-2.7-2.1-2.6-3.9c0-0.5,0.1-1,0.3-1.5
			l3.2-8.4c2.1,1.3,4.6,1.9,7.1,1.7C114.1,66.3,114.5,66.3,114.8,66.2"/>
		<path class="st9" d="M116,64c-0.9,2-1.2,3.5-2,5.6c-3.1-0.8-6-2.2-8.6-4.1c-0.2-0.1,0.2,0.1,0,0l2.1-5.8L116,64z"/>
		<path class="st12" d="M109.3,63.3c0.1,0.4-0.2,0.8-0.5,0.8c-0.4,0.1-0.8-0.2-0.8-0.5c0,0,0,0,0,0c-0.1-0.4,0.1-0.7,0.5-0.8
			c0,0,0,0,0,0C108.9,62.6,109.3,62.9,109.3,63.3C109.3,63.3,109.3,63.3,109.3,63.3"/>
		<path class="st9" d="M82.4,62.2c0.7,2.1,0.9,3.6,1.4,5.8c2.8-0.3,7.9-2.7,8.7-3.1L90.7,59L82.4,62.2z"/>
		<path class="st12" d="M89.1,62.1c-0.1,0.4,0.1,0.8,0.5,0.9c0.4,0.1,0.8-0.1,0.9-0.5c0.1-0.4-0.1-0.8-0.5-0.9
			C89.7,61.6,89.3,61.8,89.1,62.1"/>
		<path class="st19" d="M26.3,93.3c0,0,3.2-2.2,10.3-1.2s11.5,2.4,17.1-0.7s12.3-2.2,12.3-2.2"/>
		<path class="st20" d="M97.4,63.4c0,0-0.7,5.4-1.2,9.2c-0.3,2.2-0.4,4.5-0.4,6.8"/>
	</g>
</g>
</svg>
