<svg xmlns="http://www.w3.org/2000/svg" viewBox="0 0 209.53 217.7"><defs><style>.cls-1,.cls-10,.cls-12{fill:none;stroke-linecap:round;}.cls-1,.cls-10{stroke:#dad8cc;stroke-width:0.28px;}.cls-2,.cls-5{fill:#a4a092;}.cls-3,.cls-6{fill:#dad8cc;}.cls-13,.cls-4{fill:#e30613;}.cls-14,.cls-4,.cls-5,.cls-6{fill-rule:evenodd;}.cls-7{fill:#1d1d1b;}.cls-14,.cls-8{fill:#fff;}.cls-9{fill:#b4b0a4;}.cls-10,.cls-12{stroke-linejoin:round;}.cls-11{fill:#0d181c;}.cls-12{stroke:#1d1d1b;stroke-width:0.6px;}</style></defs><g id="Capa_2" data-name="Capa 2"><g id="Capa_1-2" data-name="Capa 1"><path class="cls-1" d="M161.32,64.54s-4.27,1.13-8.92,2.1a43.54,43.54,0,0,1-10.42.51s-4.76-.62-8.6-.75c-6.76-.21-10.21-2.74-10.21-2.74l2.31,10.73L129.34,66l2.87,10.11,4.2-8s3.91,8.51,4,8,1.64-5.87,2.26-8l4,7.24,1.55-7.64,5.38,7.14,1.48-8.91s6.38,6.87,6.27,6.35S161.32,64.54,161.32,64.54Z"/><path class="cls-2" d="M82,74.45s-2.35,9-5.8,12.59a43.17,43.17,0,0,0-5.37,6.8l5.66-1.66a24.55,24.55,0,0,0-7.64,7.88,31.45,31.45,0,0,0-2.61,5.66l3.66-2.26a64.41,64.41,0,0,0-7.58,11.46c-3.12,6.24.35,2,.35,2s-3.21,11-4.48,18.2a40.63,40.63,0,0,1,4.27-5.85,93,93,0,0,0-3.16,15.49,18.68,18.68,0,0,1,3.82-5,91.49,91.49,0,0,0,1.77,15.79c2,9.79,5.37,14.85,8.49,17.37s36.72,4.42,41.47,0c10.34-9.63,8.12-61,7.72-69.37S128.15,85,128.15,85Z"/><path class="cls-3" d="M122.88,115.63s1.49-9,1.73-14.5a43.73,43.73,0,0,1,1.74-9.69l.55.22s.7-5.52,2.3-8.29c.69-1.19,4.63-3.9,5-5-5.84-2.57-15.34-6.93-17.06-10.11-.82-1.53.87-2.9,1.7-2.85,12.95.69,20.34,5.62,42.86.41,23.12-5.34,50.15-20.71,47.52-24.73s-38.61-5-52.13-8.76S123.6,19.44,123.6,19.44c-11-3.73-23.83.84-35,13.61S82,74.45,82,74.45l22.84,5.23a75.47,75.47,0,0,0,2.27,11,23.64,23.64,0,0,0,2.64,5.78l1.32-4.79s.61,8,1.63,11.5a13.78,13.78,0,0,0,1.72-4.32s3.66,14.72,8.43,16.79"/><path class="cls-4" d="M126.37,84.58s2.69,6.39,4.75,10.64,9.64,7.59,9.64,7.59,1-7.93-3-11.08a103.19,103.19,0,0,0-11.34-7.15"/><path class="cls-5" d="M71,160.14c-1.47-1.48-4.68,1.11-4.68,1.11a86.7,86.7,0,0,1-20.48,9.24c-3.41.94-10.39,1.56-16.81,1.37s-7.7.45-7.7.45L23,173.46s-4,.61-7.4,1.36a30.37,30.37,0,0,0-6.19,2.12l4.19,1.13a43,43,0,0,0-8,2.06A15.85,15.85,0,0,0,0,183.8s14.48,6.48,29.82,4c27.75-4.48,33-13.77,39.71-21.32.56-.62,3.26-4.58,1.51-6.33"/><path class="cls-6" d="M61.91,174.82s-9.44,3.43-14,5a124,124,0,0,1-42.64,5.87s10.06,4.57,25.49,2.7c20.59-2.5,31.2-13.54,31.2-13.54"/><path class="cls-7" d="M182.85,35.45s2.56,7.78,3.74,12.54c1.88,7.56.88,8.75.88,8.75s21.72-9.11,21.72-15.66c0-3.08-26.34-5.63-26.34-5.63"/><path class="cls-8" d="M110,143.17a9.31,9.31,0,0,1-.68,2.41,5.49,5.49,0,0,1-2.11,1.82,3.82,3.82,0,0,0,3.42-1,4.72,4.72,0,0,0,.88-2.29Z"/><path class="cls-8" d="M105.19,139.72a9.59,9.59,0,0,1-1.35,2.11,5.57,5.57,0,0,1-2.55,1.13,3.86,3.86,0,0,0,3.56.08,4.71,4.71,0,0,0,1.49-1.94Z"/><path class="cls-8" d="M117.76,142.41s-.47,2.3-1.59,3.05a7.25,7.25,0,0,1-2.74.94,10.41,10.41,0,0,0,2-2.22,6.77,6.77,0,0,0,.35-2.27Z"/><path class="cls-9" d="M94.75,93c2.38.32,4,4.49,5.83,11.92,1.44,5.67,12.79,23.27,15,26.33,2.73,3.74,4.62,10.81,2,11.52s-2.86-3.48-2.86-3.48-.9,5.44-3.65,4.83-1.46-4.66-1.46-4.66-2.46,3-4.18,1.27,1.66-7.46,1.66-7.46-15.93-18.74-16.88-33.09C89.88,96,91.24,92.56,94.75,93"/><path class="cls-8" d="M88.28,209a9.19,9.19,0,0,1,2.45-.51,5.43,5.43,0,0,1,2.59,1,3.82,3.82,0,0,0-2.43-2.59,4.77,4.77,0,0,0-2.43.28Z"/><path class="cls-10" d="M88.28,209a9.19,9.19,0,0,1,2.45-.51,5.43,5.43,0,0,1,2.59,1,3.82,3.82,0,0,0-2.43-2.59,4.77,4.77,0,0,0-2.43.28Z"/><path class="cls-8" d="M84.5,213.36a10.16,10.16,0,0,1,2.32.93,5.63,5.63,0,0,1,1.59,2.29,3.85,3.85,0,0,0-.59-3.51,4.82,4.82,0,0,0-2.19-1.1Z"/><path class="cls-10" d="M84.5,213.36a10.16,10.16,0,0,1,2.32.93,5.63,5.63,0,0,1,1.59,2.29,3.85,3.85,0,0,0-.59-3.51,4.82,4.82,0,0,0-2.19-1.1Z"/><path class="cls-8" d="M78.54,214.34a9.68,9.68,0,0,1,2.33.93,5.57,5.57,0,0,1,1.59,2.29,3.83,3.83,0,0,0-.6-3.51,4.65,4.65,0,0,0-2.18-1.1Z"/><path class="cls-10" d="M78.54,214.34a9.68,9.68,0,0,1,2.33.93,5.57,5.57,0,0,1,1.59,2.29,3.83,3.83,0,0,0-.6-3.51,4.65,4.65,0,0,0-2.18-1.1Z"/><path class="cls-2" d="M83,169s2.62,11.53,2.37,18.83A108.2,108.2,0,0,1,83,204.44s7.32,1.09,5.71,4.12c-1.38,2.61-5,.08-5,.08s5.1,2.83,2.58,4.64c-3.1,2.22-6.45-2.46-6.45-2.46s1.76,2.32.17,3.64c-3.85,3.21-5.9-5.09-5.55-8.24,0,0,4.3-13.32,3-20.95a138.62,138.62,0,0,0-4.82-17.89Z"/><path class="cls-8" d="M122,207.12a9.91,9.91,0,0,1,2.43-.61,5.65,5.65,0,0,1,2.63.92,3.84,3.84,0,0,0-2.54-2.49,4.75,4.75,0,0,0-2.42.39Z"/><path class="cls-10" d="M122,207.12a9.91,9.91,0,0,1,2.43-.61,5.65,5.65,0,0,1,2.63.92,3.84,3.84,0,0,0-2.54-2.49,4.75,4.75,0,0,0-2.42.39Z"/><path class="cls-8" d="M118.4,211.66a9.36,9.36,0,0,1,2.36.84,5.5,5.5,0,0,1,1.68,2.22,3.84,3.84,0,0,0-.73-3.48,4.78,4.78,0,0,0-2.23-1Z"/><path class="cls-10" d="M118.4,211.66a9.36,9.36,0,0,1,2.36.84,5.5,5.5,0,0,1,1.68,2.22,3.84,3.84,0,0,0-.73-3.48,4.78,4.78,0,0,0-2.23-1Z"/><path class="cls-8" d="M112.49,212.88a9.76,9.76,0,0,1,2.37.83,5.57,5.57,0,0,1,1.68,2.23,3.82,3.82,0,0,0-.74-3.48,4.76,4.76,0,0,0-2.22-1Z"/><path class="cls-10" d="M112.49,212.88a9.76,9.76,0,0,1,2.37.83,5.57,5.57,0,0,1,1.68,2.23,3.82,3.82,0,0,0-.74-3.48,4.76,4.76,0,0,0-2.22-1Z"/><path class="cls-2" d="M115.09,167.36s3.09,11.41,3.14,18.71a109.29,109.29,0,0,1-1.69,16.74s7.35.79,5.87,3.89c-1.28,2.66-5,.27-5,.27s5.21,2.63,2.76,4.54c-3,2.34-6.54-2.2-6.54-2.2s1.85,2.25.32,3.64c-3.72,3.36-6.11-4.85-5.89-8,0,0,3.76-13.48,2.17-21.05a138.51,138.51,0,0,0-5.55-17.68Z"/><path class="cls-4" d="M132.19,86.66a3.82,3.82,0,0,1-3.41,3.63,5.42,5.42,0,0,1-3.35-1.64,2.88,2.88,0,0,1-.93-2c0-2,2.81-3.61,4.28-3.61a3.81,3.81,0,0,1,3.41,3.61"/><path class="cls-4" d="M127.6,86.41s-4,5.66-6.53,9.65-1.36,12.19-1.36,12.19,7.24-3.36,7.8-8.43a104.89,104.89,0,0,0,.09-13.41"/><path class="cls-2" d="M125.92,19.07c10.67,4.24,27.63,9.52,33.91,11.32,7,2,25.17,4.4,25.17,4.4l1.8,3.77s-34.69-3.11-58.65-11.34C101.9,18.21,110,55.55,103.63,70c-18.34-54.41,23.59-50.91,22.29-50.91"/><path class="cls-11" d="M209.53,40.53c0-3.14-26.64-6-26.64-6s2.43,8.21,3.63,13.06c1.91,7.69,1.24,9.17,1.24,9.17s21.77-9.54,21.77-16.21"/><path class="cls-8" d="M116.05,37.8c-1-3.9,1.42-9.7,5.3-9.08,2.75.2,3.4,1.4,5.64.52,2,.83,2.5,1.45,3,2.82,1.43,3.6.92,9.72-4.72,11.1-4.56,1.11-8.25-1.33-9.25-5.36"/><path class="cls-7" d="M127.91,34.37a1.27,1.27,0,0,1-.67,1.86,1.25,1.25,0,0,1-1.72-.76,1.34,1.34,0,0,1,.77-1.74,1.28,1.28,0,0,1,1.62.64"/><path class="cls-12" d="M130.55,29s-4.29,1.05-11.12-.39a19.39,19.39,0,0,1-6.78-2.89"/><path class="cls-2" d="M97.1,22.4S85,13.07,80.06,10.76s-11.36-1.44-10.18,0C78.43,21.23,83.75,36,83.75,36Z"/><path class="cls-2" d="M119.43,16.68S110.38,5.21,106.88,2.49s-6.41-2.92-6.22-2,1.74,8.13,2,10.57,1.09,7.56,1.09,7.56Z"/><polygon class="cls-3" points="85.49 27.45 80.06 17.04 90.01 22.42 85.49 27.45"/><path class="cls-13" d="M129.2,83.37S108.37,77,102.69,55.55,112.17,23.24,117,21a20.84,20.84,0,0,1,11.42-1.77s2.82-.43-4.27-3c-11.23-4.11-25.77.43-32.65,5.07-8.07,5.45-17.37,25.4-21.81,34.32S53.32,75.86,53.32,75.86s13,4.51,23.05,2.12c10.55-2.51,19.66,1.12,23.8,2.29,6.59,1.85,27.78,6.31,27.78,6.31Z"/><path class="cls-14" d="M78.1,64.94a1.69,1.69,0,1,1-1.68-1.69,1.69,1.69,0,0,1,1.68,1.69"/><path class="cls-14" d="M86.73,61.57A1.69,1.69,0,1,1,85,59.88a1.69,1.69,0,0,1,1.69,1.69"/><path class="cls-14" d="M98.49,66.63a1.69,1.69,0,1,1-1.69-1.69,1.68,1.68,0,0,1,1.69,1.69"/><path class="cls-14" d="M102.39,75.28a1.69,1.69,0,1,1-1.69-1.68,1.69,1.69,0,0,1,1.69,1.68"/><path class="cls-14" d="M110.89,77a1.69,1.69,0,1,1-1.69-1.69A1.69,1.69,0,0,1,110.89,77"/><path class="cls-14" d="M119.44,81.37a1.69,1.69,0,1,1-1.68-1.69,1.68,1.68,0,0,1,1.68,1.69"/><path class="cls-14" d="M106.55,68.84a1.69,1.69,0,1,1-1.68-1.69,1.68,1.68,0,0,1,1.68,1.69"/><path class="cls-14" d="M99.28,52.06a1.69,1.69,0,1,1-1.69-1.69,1.69,1.69,0,0,1,1.69,1.69"/><path class="cls-14" d="M87,51.34a1.69,1.69,0,1,1-1.69-1.69A1.68,1.68,0,0,1,87,51.34"/><path class="cls-14" d="M83.35,41.6a1.69,1.69,0,1,1-3.37,0,1.69,1.69,0,0,1,3.37,0"/><path class="cls-14" d="M95.39,45.62a1.69,1.69,0,1,1-1.69-1.68,1.69,1.69,0,0,1,1.69,1.68"/><path class="cls-14" d="M94.92,58.43a1.69,1.69,0,0,1-3.38,0,1.69,1.69,0,1,1,3.38,0"/><path class="cls-14" d="M90.1,70.86a1.69,1.69,0,1,1-1.69-1.69,1.69,1.69,0,0,1,1.69,1.69"/><path class="cls-14" d="M80.06,74.08a1.69,1.69,0,1,1-1.68-1.69,1.69,1.69,0,0,1,1.68,1.69"/><path class="cls-14" d="M68.05,74.08a1.69,1.69,0,1,1-1.69-1.69,1.69,1.69,0,0,1,1.69,1.69"/><path class="cls-14" d="M69.74,65.46a1.69,1.69,0,1,1-1.69-1.69,1.69,1.69,0,0,1,1.69,1.69"/><path class="cls-14" d="M91.16,35.68A1.69,1.69,0,1,1,89.48,34a1.69,1.69,0,0,1,1.68,1.69"/><path class="cls-14" d="M95.39,25.54a1.69,1.69,0,1,1-1.69-1.69,1.69,1.69,0,0,1,1.69,1.69"/><path class="cls-14" d="M100.47,34.74a1.69,1.69,0,1,1-1.68-1.69,1.69,1.69,0,0,1,1.68,1.69"/><path class="cls-14" d="M103.63,25.54A1.69,1.69,0,1,1,102,23.85a1.68,1.68,0,0,1,1.68,1.69"/><path class="cls-14" d="M110,18.05a1.69,1.69,0,1,1-1.69-1.69A1.69,1.69,0,0,1,110,18.05"/><path class="cls-14" d="M78.38,53a1.69,1.69,0,1,1-1.69-1.69A1.69,1.69,0,0,1,78.38,53"/></g></g></svg>