<?xml version="1.0" encoding="utf-8"?>
<!-- Generator: Adobe Illustrator 26.2.1, SVG Export Plug-In . SVG Version: 6.00 Build 0)  -->
<svg version="1.1" id="Capa_1" xmlns="http://www.w3.org/2000/svg" xmlns:xlink="http://www.w3.org/1999/xlink" x="0px" y="0px"
	 viewBox="0 0 400 229.4" style="enable-background:new 0 0 400 229.4;" xml:space="preserve">
<style type="text/css">
	.st0{fill:#A85218;}
	.st1{fill:#1D1D1B;}
	.st2{fill:#DA791B;}
	.st3{fill:#FFFFFF;}
	.st4{fill:#575756;}
	.st5{fill:none;stroke:#1D1D1B;stroke-width:1.7945;stroke-linecap:round;stroke-miterlimit:10;}
</style>
<path class="st0" d="M260,21.5c2.1-5.1,4.3-18.8-4.7-19.2c-8.1,0-5.5,16.2-3.4,21.3"/>
<path class="st1" d="M219.2,205.5c2.2-1,12.3-3.5,14.5-1.6c6.4,2.7,10.6,8.8,13,12.7c-0.2,0.6-9.8-1.7-11.3-2.4c2,2,4,4.1,4.9,7.8
	c-3.2-0.6-11.5-3.6-14-5c2.7,3.1,4.2,7.9,4.2,7.9s-8.5-2-10.9-6.9C216.9,212.6,217.7,210.7,219.2,205.5"/>
<path class="st1" d="M90.5,203.1c2.2-1,12.3-3.5,14.5-1.6c6.4,2.7,10.6,8.8,13,12.7c-0.2,0.6-9.8-1.7-11.3-2.4c2,2,4,4.1,4.9,7.8
	c-3.2-0.6-11.5-3.6-14-5c2.7,3.1,4.2,7.9,4.2,7.9s-8.5-2-10.9-6.9C88.1,210.1,88.9,208.3,90.5,203.1"/>
<path class="st0" d="M215.4,159.1c1.4,1.8,3.5,38.9,3.6,47.5c2.7,2,11.5-0.6,14.7-0.2c3.2-8.6,0.9-21.2,0.6-30.2
	c-0.4-5.7-1.2-11.8-2.3-17.5c-0.1-1.3-1.9-8.2-1.8-6.3"/>
<path class="st0" d="M115.3,153.9c-2.9,4.6-3.9,10.2-5.8,15.2c-1,2.7-4.5,22-6,31.9c-3.5,0.4-10.1,2.7-12.4-1.2
	c-1.6-2.7-0.9-6.5-1.1-9.5c-0.3-7.7-0.6-16,0-23.6c0.3-3.2,2.6-18.5,4.5-18.5"/>
<path class="st2" d="M153.5,29.2c-0.2,0-0.4,0-0.6,0C108,29,77,49.8,66.7,62.7C62,68.6,55.5,79.8,54.8,85c3.5-3.7,5.9-5.3,10.6-7.3
	c-8.2,10-13.8,18.5-14.8,26.7c4.1-5.1,10.7-10.5,14.1-11.8c-6.4,7.2-12.4,17.8-12.4,29.3c2.9-3.4,6.9-5.7,11.1-9.3
	c-4.7,6-9,19.2-8.5,26.9c3.4-2.6,8.8-7.6,12.6-9.7c-4.3,6.8-7.5,15.7-7.1,23.4c4.3-5.3,7.6-6.6,13.2-8.7c-1.7,5.5-2.5,10.7-3.4,16.2
	c2.1-1.7,4.7-3,6.4-5.1c0.9-0.9,3-2.6,4.3-3l0.4,0.4c0.1,0.1,0.8,24.7,0.9,29.6c0.1,4.1,0.4,21.3,1,27.3c2.7,0.9,11.8,0.2,13.9-1.5
	c0-15.2,3.4-35.4,4.7-40.1c2.6-6.8,2.1-6,9-4.7c8.5,1.3,17.1,3.4,26.4,3.8c17.1,0.9,35,0.9,52.1-1.3c6.8-0.9,13.7-2.6,20.1-4.7
	c6.1-1.9,13.7-4.5,15.5,3.7c3.5,15.9,2.5,30.9,3.3,44.7c1.7,0,14.5,0.8,14.5-1.6c-0.1-8.3,2.1-41.7,5.1-50.3c3.4-9.8,14.1-20,23-26
	c7.3-4.7,16.6-14.1,25.2-16.2c1.3,0-1.7,5.5-2.1,9c6.8-1.7,11.9-9,18.8-12c-1.3,3.4-2.1,6.8-3.4,10.2c8.5-2.1,12.8-12.4,23.5-11.1
	c-2.6,3.4-4.7,7.3-4.3,11.1c5.1-3.8,15.4-10.7,21.8-11.1c-2.1,2.1-3.8,6-5.1,9.4c0.2-0.6,7.1-3.1,12.6-7.3c2.6-2,11.5-11.9,13.3-17
	c1.9-5.3,2.7-9.6,2.7-15.3c-0.1-10-2.3-18.3-7.2-27c-5.3-9.2-13.1-14.6-22.8-18.9c-17.4-7.8-35-13.1-53.9-15.9
	c-17.4-2.5-36.2-6-52.3,3.6c-4.8,2.9-9.8,5.7-13.9,9.6c-2.9,2.8-6.2,10.2-10.8,9c-4.5-1.2-21.2-7.1-25.6-8.1
	C176,31.5,164.9,29.7,153.5,29.2"/>
<path class="st2" d="M238.3,27.5c-2.1-6-11.9-17.1-19.2-12.4c-11.9,7.2,7.2,21.3,11.1,25.2"/>
<path class="st0" d="M230.3,29.5c-1.3-3-3.9-7.8-6.9-6c-3.6,2.2,1.4,6.2,4.5,8.3C228,31.9,230.2,29.5,230.3,29.5"/>
<path class="st0" d="M356,61.7c4.9,0.9,12.1,7.2,5.7,11.5c-4.3,2.6-16.1-2-13.4-7.6C350.3,61.5,353.9,61.3,356,61.7"/>
<path class="st3" d="M263.9,32.9c6.6-3.4,17.2-0.8,21.3,4.4c-3,6.5-8.8,9.8-13.9,10.2c-5.8,0.3-12.8-2.9-15.7-7
	C255.7,40.4,260.3,34.8,263.9,32.9"/>
<path class="st1" d="M270.1,38.7c1.6,0.2,2.1,3.1,0.3,3.9C267.2,43.8,266.6,38.2,270.1,38.7"/>
<path class="st4" d="M83.1,209.9c2.2-1,12.3-3.5,14.5-1.6c6.4,2.7,10.6,8.8,13,12.7c-0.2,0.6-9.8-1.7-11.3-2.4c2,2,4,4.1,4.9,7.8
	c-3.2-0.6-11.5-3.6-14-5c2.7,3.1,4.2,7.9,4.2,7.9s-8.5-2-10.9-6.8C80.8,217,81.6,215.1,83.1,209.9"/>
<path class="st4" d="M228.1,209.9c2.2-1,12.3-3.5,14.5-1.6c6.4,2.7,10.6,8.8,13,12.7c-0.2,0.6-9.8-1.7-11.3-2.4c2,2,4.1,4.1,4.9,7.8
	c-3.2-0.6-11.5-3.6-14-5c2.7,3.1,4.2,7.9,4.2,7.9s-8.5-2-10.9-6.8C225.7,217,226.5,215.1,228.1,209.9"/>
<path class="st5" d="M280.2,92.7c-1.3,1.3-6.6,3.6-9.3,3c-9-1.7-3-12.9,0.3-16.3"/>
</svg>
