<?xml version="1.0" encoding="utf-8"?>
<!-- Generator: Adobe Illustrator 26.2.1, SVG Export Plug-In . SVG Version: 6.00 Build 0)  -->
<svg version="1.1" id="Capa_1" xmlns="http://www.w3.org/2000/svg" xmlns:xlink="http://www.w3.org/1999/xlink" x="0px" y="0px"
	 viewBox="0 0 275.3 229.4" style="enable-background:new 0 0 275.3 229.4;" xml:space="preserve">
<style type="text/css">
	.st0{fill:#A49F97;}
	.st1{fill:#C3BFB3;}
	.st2{fill:#D9D7CB;}
	.st3{fill:#FFFFFF;}
	.st4{fill:#1D1D1B;}
	.st5{fill:none;stroke:#575756;stroke-width:1.4222;stroke-linecap:round;stroke-linejoin:round;}
</style>
<path class="st0" d="M161.1,172c0,0,0.3,20.7,1.1,33.4s0,16.6,1.2,16.6c1.3,0,30.7,2.7,32.9-0.7c2.2-3.5-1.5-49.3-1.5-49.3H161.1z"
	/>
<path class="st1" d="M167.7,210.3c2.8-1.7,7.2,2.3,8.3,5.8c0.5,1.7,1.3,4.4,1.9,6.7c-6.3,0.1-11.3,0.1-14.5-0.9
	c-0.1,0-0.2-0.2-0.3-0.6C164.1,217.4,165.8,211.4,167.7,210.3"/>
<path class="st0" d="M119.3,171.9c0,0-0.3,20.7-1.1,33.4c-0.8,12.7,0,16.6-1.2,16.6c-1.3,0-30.7,2.8-32.9-0.7s1.5-49.3,1.5-49.3
	H119.3z"/>
<path class="st1" d="M112.8,210.3c-2.8-1.7-7.2,2.3-8.3,5.8c-0.5,1.7-1.3,4.4-1.9,6.7c6.3,0.1,11.3,0.1,14.5-0.9
	c0.1,0,0.2-0.2,0.3-0.6C116.3,217.4,114.6,211.4,112.8,210.3"/>
<path class="st1" d="M210.9,52.1c-13.9-27.3-29.7-35.5-73.5-35.5c-67.6,0-59.4,23.1-73.6,48.8c-13.5,24.4-13.3,83-4.1,111.1
	c2.3,6.9-0.6,48.9,0.7,50.8c1.3,2,36.9,1.9,42.3,0.5c5.4-1.4,4.3-10.8,3.9-27.6c-0.3-16.9,0.5-12.1,0.5-12.1s6.2,0.2,26,0.4
	c16.8,0.1,33.3-2.2,40.3,0.6c0,0,0.2,3.4,1,11.4c1,10.3,0.9,25.3,5.1,27.3c4.2,2,30.2,1.8,32.6,1.1c2.3-0.7,12.3-0.5,12.8-15.3
	c0.8-20.6-3.2-33.4,1.6-52.7C232.5,134.3,230,89.7,210.9,52.1"/>
<path class="st2" d="M201.9,55.8C194.9,26,176.5,0,137.3,0c-55.6,0-66.6,42.6-67,72c-0.4,25.5,17.1,67.7,59.4,74.1
	c15.8,2.4,18.6,1.8,37.7-7.2C190.5,128,207.6,80.2,201.9,55.8"/>
<path class="st2" d="M109.1,33.6c-1.2-8.1-11.3-22-28.2-23.6c-20.5-1.9-42.7,5.6-50.4,26.4c-9.2,24.9-18.9,31.7-18.9,31.7
	S24.8,81,51.1,83.4C75,85.5,89.7,80.5,104.2,61C110.9,51.9,110.1,40.2,109.1,33.6"/>
<path class="st2" d="M167.4,33.6c1.2-8.1,11.3-22,28.2-23.6c20.5-1.9,42.7,5.6,50.4,26.4c9.2,24.9,18.9,31.7,18.9,31.7
	S251.7,81,225.4,83.4c-23.9,2.1-38.6-2.9-53.1-22.4C165.6,51.9,166.4,40.2,167.4,33.6"/>
<path class="st1" d="M65.7,140.6c-0.7,6.7-2.9,17.9-5.3,22.4c-2.3,4.5-9.3,14.2-17.8,16.7s-2.4,4.9-2.4,4.9s8.8,0.2,17-8.5
	s13-14.6,16.3-29.5C76.8,131.6,65.7,140.6,65.7,140.6"/>
<path class="st3" d="M109.7,70.7c-3.9,1.6-14.5,1.1-16.1-7.6c-2.2-11.6,6.2-17.3,12.8-17.3c9,0,10.9,8,10.9,12.1
	C117.3,64.6,114.5,68.7,109.7,70.7"/>
<path class="st3" d="M177.6,70.1c-7.5,4.1-16.7,0.3-18-7.4c-2.1-12.6,5.9-16.3,11.4-16.3c7.3,0,10.7,5.4,11.3,9.4
	C183.1,59.9,182.9,67.2,177.6,70.1"/>
<path class="st4" d="M109.1,60.4c-1.5,0.3-3.1-1.5-2.7-3.1c0.2-0.8,1.8-2.1,3.3-1C111.2,57.3,111.2,60,109.1,60.4"/>
<path class="st4" d="M174.8,60.3c-1.5,0.3-3-1.5-2.6-3.1c0.2-0.8,1.8-2.1,3.3-1S176.9,59.9,174.8,60.3"/>
<path class="st2" d="M182.6,218.1c1-3,3.9-4.5,6.5-2.2s5.8,10.5,5.8,10.5s0.7-2.1,2.5-8c1.9-5.8,5.4-5.2,7-3.4s4.2,10.5,4.2,10.5
	s0.8-5.2,1.7-10.5c0.9-5.2,6.2-3.9,7.9,0c0.8,1.9,2.1,6.1,2.7,10c-3.1,4.1-8.6,3.5-9.9,3.9c-2.3,0.7-27.3,0.8-31.6-1.2
	c0,0-0.1,0-0.1-0.1C180.5,224.2,182,219.8,182.6,218.1"/>
<path class="st2" d="M69.2,211.4c3.2,2.8,4,12,4,12c2.1-6.1,2.3-13.4,9.5-12.5c5.3,0.7,6,12.6,6,12.6c1.5-3,5.8-14.4,10.1-9.7
	c2.8,3,3.6,8.5,4.9,13.6c-0.3,0.2-0.6,0.3-1,0.4c-5.4,1.4-41,1.4-42.3-0.5c-0.2-0.3-0.5-1.4-0.4-3.2c1.3-2.5,1.9-5,2.6-6.6
	C64.1,213.5,66,208.6,69.2,211.4"/>
<path class="st2" d="M33.3,176c-4.2,1-13.1,6.4-22.8,7.8c7.9,7.3,13.9,8.9,20.8,8.6c6.4-0.3,5.5-2.3,7.2-7.3S41.9,173.9,33.3,176"/>
<path class="st2" d="M121.1,108.8c4.8,17.7,18.2,49.4,38.5,62.4c10.4,6.7,22.9,11.8,22.9,11.8s13.5-5.8,13.4-16
	c-6.3-6.6-19.8-8.9-27.1-26.4c-7.4-17.5-8.2-31.7-9.5-41.3C157.2,85,116.8,93.1,121.1,108.8"/>
<path class="st4" d="M129.2,130c0,0-2.3-4.2-5.2-11.2c-1.4-3.5-3-8.9-3-8.9s-8.3,8.6-2.5,14.6C122.5,128.7,129.2,130,129.2,130"/>
<path class="st5" d="M163.4,125.9c-3.2,0.7-10.4,3.1-15.4,5.6"/>
<path class="st5" d="M167.5,138.1c-3,1.3-6.8,3.2-11.2,6.6"/>
<path class="st5" d="M174.7,151c-2.8,1.6-5.7,3.6-8.9,6.2"/>
<path class="st5" d="M183.9,159.4c-2.5,2-4.3,4.5-7,7.6"/>
<path class="st5" d="M160.8,111.3c-3.4,0.5-14.9,2.1-20.6,5.2"/>
<path class="st3" d="M183.9,102.9c0,0,7.7,7.4,15.2,11c5.5,2.6,13.2,5,13.2,5s-14.3,5.5-23.6,2.3c-9.3-3.1-11.4-7.7-10.4-10
	C179.4,109,183.9,102.9,183.9,102.9"/>
<path class="st3" d="M90.5,102.9c0,0-7.7,7.4-15.2,11c-5.5,2.6-13.2,5-13.2,5s14.3,5.5,23.6,2.3c9.3-3.1,11.4-7.7,10.4-10
	C95.1,109,90.5,102.9,90.5,102.9"/>
</svg>
