<?xml version="1.0" encoding="utf-8"?>
<!-- Generator: Adobe Illustrator 26.2.1, SVG Export Plug-In . SVG Version: 6.00 Build 0)  -->
<svg version="1.1" id="Capa_1" xmlns="http://www.w3.org/2000/svg" xmlns:xlink="http://www.w3.org/1999/xlink" x="0px" y="0px"
	 viewBox="0 0 400 303.5" style="enable-background:new 0 0 400 303.5;" xml:space="preserve">
<style type="text/css">
	.st0{fill:#C5C1B5;}
	.st1{fill:#868177;}
	.st2{fill:#D9D7CB;}
	.st3{fill:#A39F91;}
	.st4{fill:#F2A4C1;}
	.st5{fill:#FFFFFF;}
	.st6{fill:#1D1D1B;}
</style>
<path class="st0" d="M101.4,266.3c4.8,2.9,13.1,35.3-4.2,9.2c0.7,1-0.2,10.8-1.5,11.3c-1.9,0.7-3.6-1.8-4.7-3.1
	c-4.9-5.9-3.4-16.9-3.2-24.4c0,0.4,0,0.9,0,1.3"/>
<path class="st0" d="M217.3,266.3c4.8,2.9,13.1,35.3-4.2,9.2c0.7,1-0.2,10.8-1.5,11.3c-1.9,0.7-3.6-1.8-4.7-3.1
	c-4.9-5.9-3.2-9.1-3-16.5C203.9,267.6,217.3,265.9,217.3,266.3"/>
<path class="st1" d="M264.8,62.4c9.4-23.2-8.1-36.9-21.2-54.4c-6,13.8-8.4,20.8-8.4,32.8c0,5.3,6.1,25,11.4,24.1"/>
<path class="st2" d="M354.8,119.8c0,0-3.7-1.4-6.2-3.1c-4.9-3.2-7.1-8-7.1-8s32.8-13.4,30.1-39.1c0,0,14.8,15.2-1.2,35.7
	C370.5,105.4,356.7,119.1,354.8,119.8"/>
<path class="st1" d="M201.5,219.1c0.5,11.2,2.1,19.1,2.3,48c3.6,1.3,10,2.6,12.4,0.7c0.2-13.4,7.3-41.8,6.9-50.2
	c0-1.9-0.5-3.8-1-4.3"/>
<path class="st1" d="M108.6,213.4c0,0.7-20.5-2.7-20.5-1.9c0.6,11.3,2,28.6,2.2,55.7c3.7,1.3,10,2.6,12.4,0.7
	c0.2-13.4,7.2-41.9,6.8-50.2C109.6,215.7,109.1,213.8,108.6,213.4"/>
<path class="st3" d="M220.4,61.9c38.3-12.5,66,9.6,100.5,26.9c11,5.7,27.8,16.7,41.4,23.3c9.8,4.8,17.2,7.5,26.3,12.3
	c6.3,8.6,3.5,16.9,2.6,26.7c-2.6,3.1-3.9,4.2-6.4,4.8c-6.5-0.3-19.9,2.4-26.8,2.7c-9.6,0.5-59.1,11.4-62.5,14.7
	c-31.1,30.2-47.8,35-54.1,39.6c-6.3,4.5-7,24.8-8.1,31.5c-1.6,9.7-2.2,20.2-3.5,27.3c-2.6,1.3-13.7,0.8-15.8-1
	c-0.1-6.5-0.6-36.1-0.6-46.3c-7.4,1.5-28.2,6.3-60,4.7c-18.3-0.9-42.9-7-56.5-13.5c-1,8.2-3.5,55.2-5.3,59.4
	c-1.2-0.2-14.8-1.3-14.7-0.6c-0.7-13.4-4.2-41.5-10.6-53.4c-3-5.6-19.7-21.2-22.5-67.2c-1.4-23.4,2.9-33.4,13.9-53.1
	c9.1-15.8,48.7-37.4,69.6-37.6c-5.7-4.8-8-5.9-12.5-9.4c6.7,0.5,25.5,2.7,31.2,6.1c-3.6-4.7-7.6-7-12.1-10.3
	c9.4-0.8,23.2,4.9,31.1,9.3c-5.4-5.8-9.4-7.9-16.6-13.6c11.9-0.5,24.6,4.7,35.7,8.5c8.2,2.9,29.2,13.4,37.4,7.7"/>
<path class="st4" d="M393.6,147.1c-1.8,5.3-6.8,9.6-9.8,9c-5.6-1.1-5.7-11.6-5.4-16.7c0.4-6.3,4.4-14.3,10.1-14.9
	C393.7,125.8,397.1,136.9,393.6,147.1"/>
<path class="st3" d="M233.6,65.8c7.2-23-36-32.9-49.8-39.3c1.5,14.3,2.4,21.1,5.8,31.6c3.4,11,13.9,18.7,24.9,22c-0.5-0.5-1-1-1-1.4
	"/>
<path class="st4" d="M223.6,66.3c7.1-7.8-16.3-21.1-23.5-22C199.2,53.8,214,76.8,223.6,66.3"/>
<path class="st3" d="M47.3,147.7c-6.7-2.9-17.2,5.3-23.5,9.6C5.2,171.2,4.2,190.4,4.2,211.4c8.6-24.4,25.4-54.1,55.6-47.9"/>
<path class="st5" d="M278.5,83.3c10.2,10,9.2,28.3-7.6,28.5c-10.3,0.1-15.9-8.5-15.3-18.6C256.2,82.2,271.1,76.1,278.5,83.3"/>
<path class="st6" d="M256.8,136.2c-3.7,12.9-6.1,21,3.4,27c7.9,5,16.5,0.1,23.3-6.9C283.5,156.3,262.9,159.2,256.8,136.2"/>
<path class="st2" d="M229.7,271.7c2.9,3.4,10.8,26.6,3.6,20.4c-3.3-2.4-5.5-5.9-7.3-9.3c-1.9,5.3-6.6,14.4-9.4,3.9
	c-1.4-4.3-4.2-11.6-2.7-16"/>
<path class="st2" d="M92.3,271.7c2.9,3.4,10.8,26.6,3.6,20.4c-3.4-2.4-5.5-5.9-7.3-9.3c-1.9,5.3-6.6,14.4-9.4,3.9
	c-1.4-4.3-4.2-11.6-2.7-16"/>
<path class="st6" d="M267.1,94.8c2.4,0,3.9,5.7,0,6.1C263.4,101.2,262.6,94.8,267.1,94.8"/>
<path class="st2" d="M315.5,157.8c0,0-3.6-1.4-6.2-3.1c-4.9-3.2-7.1-8-7.1-8s32.7-13.4,30.1-39.1c0,0,14.8,15.2-1.2,35.7
	C331.2,143.3,317.4,157.1,315.5,157.8"/>
<path class="st6" d="M380.3,140c0,2.1,1.2,3,2.2,3c1,0,2.2-0.8,2.2-2.9c0-2.2-1.2-3-2.2-3C381.5,137.2,380.3,137.9,380.3,140"/>
<path class="st6" d="M389.4,140.4c0,2.1,0.9,3,1.8,3c0.8,0,1.6-0.6,1.8-2.7c0.2-2.1-0.9-3.2-1.8-3.2
	C390.3,137.5,389.4,138.2,389.4,140.4"/>
</svg>
