<?xml version="1.0" encoding="utf-8"?>
<!-- Generator: Adobe Illustrator 26.2.1, SVG Export Plug-In . SVG Version: 6.00 Build 0)  -->
<svg version="1.1" id="Capa_1" xmlns="http://www.w3.org/2000/svg" xmlns:xlink="http://www.w3.org/1999/xlink" x="0px" y="0px"
	 viewBox="0 0 470.1 229.4" style="enable-background:new 0 0 470.1 229.4;" xml:space="preserve">
<style type="text/css">
	.st0{fill:#DA791B;}
	.st1{fill:#A85218;}
	.st2{fill:#BB641B;}
	.st3{fill:#D3BF9E;}
	.st4{fill:#FFFFFF;}
	.st5{fill:#1D1D1B;}
	.st6{fill:#F3EEE2;}
	.st7{fill:#F2A4C1;}
	.st8{fill:none;stroke:#1D1D1B;stroke-width:1.4328;stroke-linecap:round;stroke-miterlimit:10;}
</style>
<path class="st0" d="M143.2,207.8c0,0-5.6-3.5-5.8-7.2c-0.1-0.8,2.1-3.4,4.5-1.1c2,2,9.1,7.1,9.1,7.1L143.2,207.8z"/>
<path class="st1" d="M195.2,160c0,0-17.4-26.6-28.4-1c-5.2,12.1-0.7,38.8,3.3,51.5c0,0-11.6-4.3-17.6-4.9l0.7,9.7
	c0,0,18.4,6.3,25.7,7.3c1.4,0.2,6.8-0.7,5.6-5.5c0,0-5.3-21.9-3.3-30.4c0,0,0.4,2.9,4.7,22c2,8.8,6.2,13.9,12.8,13.9
	c3.6,0,13.6-4.9,12.4-15.8C211.1,206.8,186.7,190.9,195.2,160"/>
<path class="st0" d="M152.6,205.6c0,0-19.2-2.3-28,5.4c0,0-4.3,3.1,0.4,3.6c0,0,8.8-1.8,10.4-3c0,0-7.3,4.7-10.1,6.8
	c-0.7,0.5-4.3,4.3,0.8,3.7c0,0,6.8-1,14.8-6c0,0-8.3,5.9-9.8,8c0,0-2.9,5.7,3.3,2.8c0,0,17.1-10.3,18.8-11.6
	C154.9,213.9,152.6,205.6,152.6,205.6"/>
<path class="st0" d="M332.1,207.8c0,0,5.6-3.5,5.8-7.2c0.1-0.8-2.1-3.4-4.5-1.1c-2,2-9.1,7.1-9.1,7.1L332.1,207.8z"/>
<path class="st1" d="M280.1,160c0,0,17.4-26.6,28.4-1c5.2,12.1,0.7,38.8-3.3,51.5c0,0,11.6-4.3,17.6-4.9l-0.7,9.7
	c0,0-18.4,6.3-25.7,7.3c-1.4,0.2-6.8-0.7-5.6-5.5c0,0,5.3-21.9,3.3-30.4c0,0-1.1,9-4.5,22.3c-2.5,9.8-6.7,13.7-13.3,13.1
	c-5.3-0.5-13.4-4.3-12.1-15.2C264.3,206.8,288.6,190.9,280.1,160"/>
<path class="st0" d="M322.7,205.6c0,0,19.2-2.3,28,5.4c0,0,4.3,3.1-0.4,3.6c0,0-8.8-1.8-10.4-3c0,0,7.3,4.7,10.1,6.8
	c0.7,0.5,4.3,4.3-0.8,3.7c0,0-6.8-1-14.8-6c0,0,8.3,5.9,9.8,8c0,0,2.9,5.7-3.3,2.8c0,0-17.1-10.3-18.8-11.6
	C320.5,213.9,322.7,205.6,322.7,205.6"/>
<path class="st2" d="M169.9,188.1l9.6-3.6c0,0-4.2-34.7,16.5-52.6c0,0-2.2,13-2.9,22.3c-2.1,26.2-8.3,73,39.3,73.5
	c21.1,0.2,36.1-4.1,43.3-20.1c9.3-20.7,10.9-52.7,4.3-81.7c0,0,26.4,2.5,41.3-9.3c36.3-28.8,3.1-55.2,3.1-55.2l-6.6,7.9
	c0,0,17.6,20.3-4.8,35.7c-19.3,13.3-34,0.2-34,0.2s-16.4,31.8-41.3,30.6c-24.9-1.2-41.2-30-41.2-30S159.7,149.1,169.9,188.1"/>
<path class="st0" d="M170.1,187.2c0,0-3,13.3,2.7,24c0,0,2.6,2.4,3-1.1l-1.1-13.1c0,0,3.4,12.3,5.1,14.3c0,0,3.8,3,4.3-1.3
	c0.4-3.5-1.6-10.1-3-13.8c-1.4-3.7-0.2-0.6-0.2-0.6s5.6,10.1,8,11.9c0,0,5.9,2,1-6.5l-4.3-8.7c0,0,5.4,1.3,6.9-1.6
	c0,0,1-2.9-2.2-3.5l-10.7-2.6L170.1,187.2z"/>
<path class="st3" d="M271.1,160c0,29.4-14.9,53.2-33.3,53.2c-18.4,0-33.3-23.8-33.3-53.2c0-29.4,14.9-53.2,33.3-53.2
	C256.2,106.8,271.1,130.6,271.1,160"/>
<path class="st0" d="M266.8,36.5c0,0,3-3.6,6-9.1c0.5-1,1.6-5.4-4.1-1.9c-1.1,0.7-4.1,3.1-4.1,3.1s-3.4,3.6-1.7-1.7
	c0,0,3.2-7.8,4-9.4c2-4,3-7.8-1.8-4.3c-4.2,3.1-10.8,11.3-12.7,16.3c0,0-1.4-1-0.7-4.8c0,0,1.7-11.2,7.4-19c1.2-1.6,0.2-7.1-7.6,2.1
	c-2.3,2.7-4.9,5.6-7.3,11.9c0,0-3.1,3.6-1.9-1.2c0,0,2.9-14.7,6.2-18.5c0,0-13.7,0.7-19.5,31.5c0,0-15.5,2.6-24.7,12
	c0,0-4.9,0-8,1.6c-3.1,1.6-8.5,5.6-7.4,6.8c0,0,9.9-1.9,11.4-0.9c0,0-7.6,2.2-13.1,5.8c0,0-2.9,2.4-2.9,4.1c0,0,11.8-2.4,13.2,0.7
	c0.3,0.7-0.7,0.9-1.7,1.7c-1.1,0.8-13.2,6.3-18.3,14.4c-1.6,2.5-0.7,3.2,1.9,2.2c1.8-0.7,10.2-4.1,13-4.4c2.9-0.2,3.5,0,1.6,1.9
	c-1.9,1.9-9.5,5.4-13.2,12.5c0,0,5.5-1.3,9.1,0c0,0-2.9,1.6-7.3,4.3c-4.3,2.6-7.1,8.9-7.1,9.7c0,0.7,9.2-4.3,14.2-3.6
	c0,0-9.9,5.9-6.3,13.3c0,0,4.4-7.1,9.5-5.8c0,0-7.5,6.7-1.5,14.5c0,0-0.8-3.1,3.4-7.3c3.9,9.1,12.7,31.3,28.4,35.9
	c0,0-0.2,21.4,5.5,27c0,0,4.2-2.2,5.2-18.9c0,0-0.1,19.2,5.7,23.1c0,0,4.2-19.5,4.7-23.7c0,0-0.3,15.2,5,20.5c0,0,3.6-5.9,3.6-18.6
	v-10.8c0,0,17.4-10.6,26-29.3c0,0,5.3-2.5,10.8,2.8l-7-11.8c0,0,5-2.8,13.9,3.2c0,0-2.3-9-8.3-13.9c0,0,4.2-1.8,12.1,2.6
	c0,0-1.6-7.8-8.6-11.4c0,0,6.4-0.6,14.6,4.6c3.6,2.3-4.4-14.2-10.6-15.9c0,0,2.9-0.9,12.7,3.8c4.9,2.4-6.8-12.9-16.3-15.7
	c0,0,5.6-1.7,14.1-2.4c-12.5-7.7-21.4-9.8-21.4-9.8S282.5,45.7,266.8,36.5"/>
<path class="st0" d="M325,62.1c0,0-5-16.4-19.7-21.3c-2.4-0.8-6.9-2.3-9.7,0.4c0,0-1.3,1.3-0.7,2.6c1.4,3.1,7.9,0.4,12.8,5
	c0,0-7.7-2.2-15.5,0.7c0,0-3.2,2.1-1.7,4.3c2.2,3.3,7.2-2.7,17.5,1.4c0,0-4.5-0.7-10.7,2.9c-1.4,0.8-3.5,2.6-4.1,5.2
	c0,0-0.2,3.5,5.1,1.1c0,0,11.2-8.8,19.4,5.2L325,62.1z"/>
<path class="st0" d="M324.7,62.6c0,0,0.2-11.1,0-13.1c-0.1-1,0.2-4.1-1.6-5.3c-1.3-0.9-3.5-1.2-4.4,0.7c0,0-1.4,3.3-0.2,8
	L324.7,62.6z"/>
<path class="st4" d="M225.6,48.4c-2.8,0.1-6.9,0.8-9.2,7.7c-0.9,2.7-0.5,6.1,1.1,9.2c0,0,2.2,3.6,7.3,3.5c6,0,10.1-6.9,9.2-12.6
	C233.1,51.4,231.2,48.2,225.6,48.4"/>
<path class="st5" d="M224.9,57.2c-0.5,0-1.1,0.1-1.5,1.3c-0.1,0.4-0.1,1,0.2,1.5c0,0,0.4,0.6,1.2,0.6c1,0,1.7-1.1,1.5-2.1
	C226.1,57.7,225.8,57.2,224.9,57.2"/>
<path class="st4" d="M251.2,59.4c0.4-2,1.1-5.5,5-7.9c5-3.1,11.4,0.6,12.2,6c0.5,3.3-0.1,15.2-11.9,12.2
	C253.2,68.8,250,65.4,251.2,59.4"/>
<path class="st5" d="M258.6,60.8c0.1-0.3,0.1-0.9,0.7-1.3c0.8-0.5,1.9,0.1,2.1,0.9c0.1,0.5,0,2.6-1.9,2.1
	C258.9,62.3,258.4,61.7,258.6,60.8"/>
<path class="st6" d="M231.6,127.1c0,0-9.3,0.1-11.7,11.3c0,0-12-20.5-12.4-53.1c0,0-0.3-11.6,15.3-10c0,0,5.1,0.2,12.2,5.1
	C235.1,80.2,232.4,127.1,231.6,127.1"/>
<path class="st6" d="M246.9,123.3l4.2-44c0,0,28.3-8.6,26.5,15c0,0-2.6,20.9-21.6,40.8c0,0,0.9-5.9-4-8.6L246.9,123.3z"/>
<path class="st7" d="M252.9,78.9c-2-6-17.9-8.5-20.8-0.5c-1.1,15.6-0.7,33.1-1.8,48.6l1.6-1.6c-9.7,0-17.4,10.8-10.4,18.8
	c8.6,9.8,27.6,6.7,34.7-3.6c2.7-4,2.2-10.6-1.7-13.6c-1.4-1.1-2.9-1.9-4.4-2.7c-0.6-0.4-1.3-0.7-1.9-1.1c0.6,0.4,0.4,1.7,0.5,0.7
	c0.2-2.4,0.4-4.8,0.6-7.2C250.3,103.6,251.7,92,252.9,78.9"/>
<line class="st5" x1="214.5" y1="86.6" x2="219.2" y2="123.5"/>
<line class="st8" x1="214.5" y1="86.6" x2="219.2" y2="123.5"/>
<line class="st5" x1="224.3" y1="82.6" x2="225.5" y2="115.5"/>
<line class="st8" x1="224.3" y1="82.6" x2="225.5" y2="115.5"/>
<line class="st5" x1="259.3" y1="87.9" x2="252.9" y2="117.8"/>
<line class="st8" x1="259.3" y1="87.9" x2="252.9" y2="117.8"/>
<line class="st5" x1="270.1" y1="89.7" x2="258.1" y2="123.2"/>
<line class="st8" x1="270.1" y1="89.7" x2="258.1" y2="123.2"/>
<path class="st5" d="M234,134.9c0,0-2.9-2.7-5.2-0.8c0,0-2.8,2.6,1.8,5.4c0,0,4.3,2.9,5.5-0.1C236.7,138.2,236.6,136.7,234,134.9"/>
<path class="st5" d="M244.1,133.4c0,0-3.7,3.4-1,6c1,1,2,1.4,5.4-1.4c0,0,3.5-3,1.2-5.5C249.6,132.5,247.5,131,244.1,133.4"/>
</svg>
