<?xml version="1.0" encoding="utf-8"?>
<!-- Generator: Adobe Illustrator 26.2.1, SVG Export Plug-In . SVG Version: 6.00 Build 0)  -->
<svg version="1.1" id="Capa_1" xmlns="http://www.w3.org/2000/svg" xmlns:xlink="http://www.w3.org/1999/xlink" x="0px" y="0px"
	 viewBox="0 0 687 394" style="enable-background:new 0 0 687 394;" xml:space="preserve">
<style type="text/css">
	.st0{fill:#0D181C;}
	.st1{fill:#575756;}
	.st2{fill:#1D1D1B;}
	.st3{fill:#F2A4C1;}
	.st4{fill:#FFFFFF;}
	.st5{fill:none;stroke:#D9D7CB;stroke-width:2.1473;stroke-linecap:round;}
	.st6{fill:none;stroke:#FFFFFF;stroke-width:3.2976;stroke-linecap:round;stroke-miterlimit:10;}
</style>
<path class="st0" d="M517,122.9c0-17.4-7.3-26.1-22.3-36.7c-3.4,7.3-12,33.8-4.9,37.7"/>
<path class="st1" d="M432.4,317c-1,25-4.7,30.6-2.9,35c2.4,6.3,8.3,7.3,12.2,0.5c9.1,12,20.3-0.5,23.7-9.6
	c4.4-12.2-0.5-29.1-4.9-40.6c-4.4-12.5-13.2-30-29.3-26.1C424.1,278.1,433.2,295.2,432.4,317"/>
<path class="st1" d="M281.8,284.5c-10.7,15.9-14.7,29.4-13.7,48.7c3.7,2.2,14.2,3,16.1,9.3c2.2,7.3-4.9,10.5-10.8,5.4
	c5.1,9.5,0.8,10.7-8,6.8c-11.7-4.9-20.3-7.3-24.2-19.8C235.7,317.3,240.3,273.7,281.8,284.5"/>
<path class="st2" d="M225.4,153c-3-19-15.2-37.9-26.2-54.3c-8.6-12.9-19-26.2-28.8-38.4c-9.1-11-22.7-17.8-34.2-25.7
	C113.1,19.8,88.7,10,61.1,10c-23,0-46.7,11-57,32.5C0.8,49.3,0.2,56,0,63.6c4.6-5.6,17.8-13.4,24.7-15.2c7.1-2,19,2.4,25,5.8
	c-9,3.7-17.1,8.3-23.2,16.2c-2.7,3.7-5.1,7.8-6.4,12.2c-0.7,2-1,13.2-1.9,13.9c9.8-8,37.2-9.1,48.9-4.9c-14,2.4-23.9,26.9-12.2,36.7
	c9.1,8,31.8,3,41.6-3c-6.1,12.9-8.5,23.2,6.8,31.1c12.2,6.8,28.1,5.4,39.1-2.4c-20.1,38.4,39.8,37.2,61.1,36
	c4.2,9.1-2.4,25.6,2,49.6c6.6,35.9,22.5,63,21.8,89.2c0,9.1-2.9,26.2,0.8,34.9c1.9,3.7,7.1,7.4,11.3,8c6.8,0.7,7.3-6.8,4.2-12.2
	c2.4,4.2,2.5,11.7,8.6,11c8-1.2,9.6-8,4.2-12.4c4.9,3.7,13,5.8,14.2-2.9c1.4-10.8-10.5-10.3-17.1-15.9c-2.5-12.9,3.7-26.9,9.6-37.9
	c5.8-10.5,11.7-12.4,23-9.1c26.6,7.4,59.1,13.9,86.8,8.3c10.5-2.2,21.2-3.6,31.3-6.9c11-3.7,35.4-8.1,40.8,6.4
	c4.9,12.9,2.4,27.4,1.2,41c0,6.3-4.9,18.1,0.5,22.8c3,2.7,13.4,2.7,11.8-3.7c2.9,11.8,15.2,11.5,14.7-1.9c3.7,6.9,11.2,3.2,9.1-3.9
	c-1.9-6.6-7.1-10-7.3-17.6c-0.3-8.1,0.3-15.9,1.4-24c1.7-11.5,5.2-26.1,13.9-34c9.6-9,21.5-22.5,33.5-27.9
	c7.8-3.6,16.4-4.2,24.5-5.6c14-2.4,28.9-4.4,42.3-8.8c20-6.8,38.9-9.8,59.9-20.3c5.1-2.5,16.8-6.1,18.4-11.8
	c2.2-8.1-4.2-11.5-9.5-15.9c-10-8.5-24.9-17.4-36.6-23.5c-10.3-5.4-22.7-13.7-33.2-19c-23-11.3-47.2-21.5-72.6-25.9
	c-12.4-2-25-2.9-37.4-0.8c-11.5,1.9-22.8,10.7-31.6,18.1c-5.8,4.9-8,14-13.5,18.3c-6.4,4.7-12.4-1.5-18.6-3.7
	c-8-2.7-14.7-5.9-22-9.8c-17.4-8.8-33.8-22.7-53.1-27.8c0,3.7,7.4,9.1,5.4,12.5c-2.2,3.9-8.6-1.2-11-2.7
	c-10.8-6.1-22.7-10.3-35.2-9.5c5.4-0.3,13,8,12,13c-6.8-1.2-16.2,0.8-23.4,0.8c-10.7,0-21.5,1.2-31.5,4.9
	c-9.1,3.4-22.7,9.6-29.4,16.6L225.4,153z"/>
<path class="st3" d="M629.9,224.4c-4.4-16.1,0.2-36.4,11.2-51.4c3.6,2.4,37.4,22.8,35.9,31.1C675.6,211.7,637.2,222.1,629.9,224.4"
	/>
<path class="st4" d="M462.9,125.6c5.6-3.6,11.3-6.3,17.3-7.3c12.4-2,25.2-1.2,37.4,0.8c24.2,4.1,47.2,13.5,69,24.2
	c-16.1,3.7-36.4,2.5-51.8,1.7c-19.8-1-43.2-2.9-60.9-11.2C469.6,132,465.9,129,462.9,125.6"/>
<path class="st5" d="M462.9,125.6c5.6-3.6,11.3-6.3,17.3-7.3c12.4-2,25.2-1.2,37.4,0.8c24.2,4.1,47.2,13.5,69,24.2"/>
<path class="st0" d="M469.5,138.8c1.5-14.6-30.5-35.4-43.5-35.9c-5.2,19.8,3.9,39.8,18.4,53.3c0.5,0-1-0.5-1.5-1"/>
<path class="st6" d="M508.7,234.6c-2,1.9-9.6,5.2-13.5,4.4c-13-2.4-4.4-19,0.5-23.7"/>
<path class="st4" d="M488.9,146.1c18.3,0,28.6,36.6,4.2,40.4C462,190.7,462.4,146.1,488.9,146.1"/>
<path class="st2" d="M486.9,166.5c2.7,3-1.2,8.1-4.7,5.1C478.4,168.4,483.3,162.5,486.9,166.5"/>
<path class="st4" d="M18.3,96.1c-0.5-3.2,1.2-11.8,1.9-13.9c1.4-4.4,3.7-8.5,6.4-12.2c6.1-8,14.2-12.5,23.2-16.2
	c13.9,0.8,27.4,5.1,39.8,11.3c12,6.3,24.7,13.5,36.4,20.8c11.2,6.8,19.3,16.9,28.9,25.2c19.3,15.9,36.4,34.9,56.2,50.8
	c18.4,15.4,50.8,15.1,73.6,16.4c26.6,1.5,54.7-2,80.4-8.6c11.2-2.9,21.8-9.6,31-15.9c2.5-1.9,5.8-4.9,9.1-8
	c3.7,1.4,8.1,3.6,12.2,5.1c5.8,1.9,11.7,5.4,15.6,4.9c-6.3,7.3-10.5,15.6-18.1,22.3c-8.3,7.8-18.4,13.5-27.6,19.3
	c-17.9,11.7-44.5,15.1-65.3,16.4c-20.8,1.5-41.6,1.5-61.9-1c-11.2-1.4-23.9-3.9-34-8.8c-6.9-3.2-18.8-9.3-23.2-14.4
	c-22.7,1.2-80,1.4-60.4-36c-11,8-26.9,9.1-39.1,2.4c-15.2-8-12.9-18.3-6.8-31.1c-9.8,6.1-32.3,11-41.6,3C43.2,118.1,53,93.8,67,91.2
	C55.7,87,28.1,88.2,18.3,96.1"/>
<path class="st5" d="M405.2,147.3c5.4,2.5,22.5,7.8,26.9,8.6"/>
<path class="st5" d="M203.6,190.6c-22.7,1.2-80.9,0.5-61.3-37.1c-11,8-26.9,9.1-39.1,2.4c-15.2-8-12.9-18.3-6.8-31.1
	c-9.8,6.1-32.3,11-41.6,3C43.2,118,53,93.6,67,91.1c-11.2-4.2-37.4-3.2-47.9,4.2C16.6,65.2,49.6,53.5,49.8,54"/>
</svg>
