<svg xmlns="http://www.w3.org/2000/svg" xmlns:xlink="http://www.w3.org/1999/xlink" viewBox="0 0 739.65 405.26"><defs><style>.cls-1{fill:none;}.cls-2{isolation:isolate;}.cls-3{fill:#007572;}.cls-4{fill:#2fac66;}.cls-5{fill:#219959;}.cls-5,.cls-7,.cls-8{fill-rule:evenodd;}.cls-6,.cls-8{fill:#814114;}.cls-7{fill:#1b8a4f;}.cls-9{fill:#a85318;}.cls-10{fill:#cfccc1;mix-blend-mode:multiply;}.cls-11{fill:#dad8cc;}.cls-12{fill:#9c6297;}.cls-13{fill:#a4659e;}.cls-14{fill:#b780b1;}.cls-15{fill:#f3a5c2;}.cls-16{fill:#fff;}.cls-17{fill:#1d1d1b;}.cls-18{fill:#f39200;}.cls-19{fill:#0d181c;}.cls-20{clip-path:url(#clip-path);}</style><clipPath id="clip-path"><path class="cls-1" d="M189.16,235.07c-1.65,2.05-2,4.1-1.24,4.09A85.34,85.34,0,0,1,200,240.21a103.11,103.11,0,0,1,11.83,3.84s-5.82-12.24-11.68-13a14.34,14.34,0,0,0-1.92-.12,11.3,11.3,0,0,0-9.07,4.1"/></clipPath></defs><g class="cls-2"><g id="Capa_2" data-name="Capa 2"><g id="Capa_1-2" data-name="Capa 1"><path class="cls-3" d="M574.63,323.94c33.58-5.37,65-28.09,84.74-61.28s27.44-76.34,20.83-116.37c-3.45-20.85-10.72-41-22.09-57.22C642,66,618.56,51.86,594.49,43.61s-49.14-11.15-73.91-15.47C443.73,14.76,365.8-12.48,289.77,6.53,260.5,13.85,232.7,27.83,204,38,154.12,55.69,97.48,64.56,63,111.48c-24.89,33.9-32.71,81.72-31.56,127,.58,22.68,3.65,46.65,15.77,64,7.13,10.2,16.84,17.28,26.79,23.11,62.9,36.9,136.54,29.13,206.45,25.73,99.17-4.83,199.54.72,296.66-24"/><path class="cls-4" d="M509.91,324c-149.23,22.28-301.14-10.83-449.38,21-10,2.16-21.49,5.89-26,18,2.71,17.47,10.48,18.58,18.85,20.28,199.79,40.43,409.9,18,610.8-11.28a15.66,15.66,0,0,0,6.48-2c8.06-5.15,6.61-22.47-.51-29.66s-16.82-7.21-25.77-7.07c-39.23.63-90-13.07-134.46-9.33"/><path class="cls-5" d="M664.45,278.4s-1.18-2.58-15.39,0c-53.29,9.67-93.84-15.85-88.06-16.78,31.82-5.06,57.26-12.14,53.41-14.55s-53.73-6.92-44.29-8.2c12.78-1.73,49.32-17.91,45.14-19.08-4.48-1.26-47.07-2.82-38.78-6.17,30.43-12.32,42.41-25,38.63-23.72s-34.47,5-28.82.91c18.75-13.68,34.48-39.59,34.48-39.59s-18,5.53-24.43,7.05-2.65-2,9.52-12.79c11.57-10.23,21.47-25.15,21.47-25.15s-3.57-.48-13.27,0-8.67,1.69,0-8.61S645.27,79,640.68,77.19s-27.57,12.65-23.24,7.86c12.06-13.37,41.32-67.66,42.63-64s14.3,38.16,23.22,50.27,26.48,22.41,18,21.8-23.53-8-23.53-8,7.87,22.59,13.77,28S704,124.6,695.49,124s-23.62-7.87-19.68-2.42S709,149,703.56,149.8s-24.47-4.32-24.47-4.32S696,170,701.31,173.65s11.88,7,6,8-24-3.43-24-3.43,13.84,24.49,32.53,35.9c2.27,1.39-15.74,1.73-24.27,0s-11.81-3.72-11.15,0,32.14,17.7,44.6,25.61c8.59,5.46-38.69-1.44-41.71,0-3.3,1.57,27.36,24.95,54.63,27.78,8.15.84-14.23,7.21-30.63,10.87s-42.84,0-42.84,0"/><path class="cls-6" d="M640.11,257.33c-.24-14.07,1-41.66,1-41.66l-20.78-20.78,2.72-3.44s2.18.51,7.78,4.86,12.59,8.58,12.59,8.58.38-24.09.8-29.62c.78-10.32-2.74-13.48-2.74-13.48s-3.14-2.33-7.5-5.51-7.91-6.12-7.91-6.12l3.44-3.79a81,81,0,0,1,8.64,4.84,7,7,0,0,0,6.86.36s.07-2.93.38-11.88c.28-8.23,1.57-18.62.2-23.08s-10.09-18.06-10.09-18.06l2.31-4.29a17.81,17.81,0,0,1,4.25,4.51c2.06,3,8,10.74,8,10.74s2.54-5.88,5.63-11.75c3.76-7.16,1.78-8.18,5.81-7.12,4.39,1.17,3.1,1.84,1,7.6-2.31,6.49-3.2,9-4.83,12.63-1.29,2.85-.37,44.12-.37,44.12s-.32,27,.78,27.45c4.91,1.83,18.62-1.43,18.62-1.43l-.14,4.06-19,6.21-.42,46.19s6.47-.24,10-1.93,4.14-1.13,4.14-1.13l1.44,3.66s-4,3.34-7.53,4.12c-2.5.56-6.21,1.54-8.1,2.05l2.33,91.6-20.79-.76s1.69-64.13,1.45-77.75"/><path class="cls-7" d="M547.22,293.27c-7.07,0-33.21-9.74-40.77-30.42s-1.39-65.52,3.57-84.41,37-111,37-111,9.89,21.11,18.18,35.41,33.12,71.53,37.89,93,5,59.95-7.43,76.53c-15.61,20.9-27.75,16.9-48.41,20.9"/><path class="cls-8" d="M549.19,344.15s.36-26.45.36-37.32,1.83-32.25-.36-33.81-6.64-2.65-11.91-4.85a55.34,55.34,0,0,0-15.89-3.48c-4.39-.36-5-.43-5-.43l1-4.72a17.11,17.11,0,0,1,4.39,0c3.65.23,4.76.45,6.58.62,3.44.33,5.58,2,5.5,0s-.73-10,1.09-9.21a23.9,23.9,0,0,0,2.95,1.11,30.48,30.48,0,0,1,1.32,5.84,20.77,20.77,0,0,1,.13,4.21s4.3,1.48,6.84,2c2.21.44,3,.09,3-4.53,0-6.37,1.48-22.43.37-26.52a9.69,9.69,0,0,0-6.71-7.28c-2.17-.79-7.39-1.89-11.13-3.67a17,17,0,0,0-6.3-1.84l.37-3.55a69.22,69.22,0,0,1,6.93,1.51c1.74.63,7.9,2.63,7.9,2.63s-3.13-7.5-3.13-8.51-.37-5.37-.37-5.37h2.82l.84,4.64h5.48l1.1,1.66L543,215.16l2.48,5.73,4.84,2s-.74-19.29-1.47-25.56l-.73-6.26s-4.74-2.55-7.31-3.65-9-3.35-9-3.35l.08-3,10.73,3L539,180l1.55-2.51,7.14,9s-.36-25.8-.72-28.2-9.51-9.35-9.51-9.35l1.36-1.93,2.75,1.64c4,2.2,5.76,4.05,6.86,4.55s7.27-17.42,8.18-19.41c.73-1.61,3.74-.14,3.74-.14a5.56,5.56,0,0,1,1.94,2.34,17.79,17.79,0,0,1-2.14,5.62,64.85,64.85,0,0,0-3.69,9.2l5.78,2.39L562,155s-5.93-1.3-7.3-1c-1,.21-.75,4.39-.75,4.39s3.29,17.81,3.29,22.7,1.32,10.72,2.85,12a2.91,2.91,0,0,0,3.37,0l-2.24-6.5H565l3.24,6.5s9.51-4.56,11.7-5.66,5.48,4.18,5.48,4.18-1.46.57-4.38,1.48-10.24,2.84-13.54,4.25-7.38,4-7.38,5.51c0,2.63,1.57,24.64,2,30.49s.18,17.63.18,17.63,5-3.38,9-5.86,9.79-6,9.79-6l1.46,2.41L576.61,247a11.81,11.81,0,0,0,2.19,3.51l1.1.88L577.71,254a28.3,28.3,0,0,1-3.46-3.47l-.93-1.32-10.61,10.38L566,344.15Z"/><path class="cls-4" d="M620.47,108.09c-11.11-.38-33.25,3.38-51.06,15.81-21,14.69-26.83,24.29-32.21,49.14s2.26,44.14,13.56,61,18.65,34.43,70.33,42.81c29.26,4.74,76.73-13.81,85.36-52.34s-1.65-65.41-11.46-75.4-25.76-39.36-74.52-41.06"/><path class="cls-9" d="M557.23,181.39l13.25,7.41s6.59,1.27,10.06,1.88c3.19.56,11.11,2.22,11.11,2.22l2.77-14.6h3.06s-1.82,14.86,0,15.95c1.47.87,11.12,3.92,17.13,5.4,1.36-13.52,2.89-28.5,2.89-30.28s-4.75-4.74-8.56-6.38-12.28-3.86-15.67-4.92-5.08-1.72-5.08-1.72,3.81-6.11,6.35-4.84,13.56,6.56,13.56,6.56l3.74-7.53h4.35l-2.59,7.53s2.12,1.48,3.9,0,3.3-8.26,3.3-13.91,0-8.19,0-8.19c-1.6-.35-8.13,2.78-8.13,2.78l-1.27-2,7.87-5s-1.94-2.51-4.39-6.33-2.31-3.64,1.92-5.77c0,0,2.73,4.15,4.86,7.48,1.36,2.14,5.32,9.35,6.69,9.58s1.91-.08,5.66-1.39l3.57-.89,1.42,3.09s-8.54,2.3-9,5.09-.85,24.2-.85,24.2l8.28-10.47,2.94,1s1.06-.06-.21,2.34a20.53,20.53,0,0,1-2.73,4l10.16-3.16.1,4s-7.52,2.1-10.49,3.37-8.47,4.23-8.47,4.23l-.85,7.25c-.84,7.26-1.68,29.6-1.68,29.6l10.67-4,2.87-6.64-5.08-2.22,1.27-1.93h6.35l5.15-7.6,3.27,1.6s-4.61,5.69-4.61,6.85-3.62,9.85-3.62,9.85,7.13-2.32,9.15-3,26.7-6.37,26.7-6.37l.43,5.8s-15.72,5.53-20,7.6l-.62.28c.34.24.7.51,1.07.83a31.28,31.28,0,0,0,9.17,5.1l-2,5.1-14.27-8.9c-2.55.76-10.84,3.89-12.18,4.38C636,217.06,628.28,220.2,627,225s.38,19.12.44,26.49c0,5.36.93,5.76,3.49,5.24a79.93,79.93,0,0,0,7.92-2.3,24.61,24.61,0,0,1,.15-4.87,34.52,34.52,0,0,1,1.53-6.76l3.41-1.3a33.11,33.11,0,0,1,.58,8.07c-.1,2.31,5.64,1,8.26-.4a76.66,76.66,0,0,1,12.31-5.59c4-1.41,9.49-2.86,9.49-2.86l2.1,4.92A122,122,0,0,0,662.37,252c-.58.32-1.18.64-1.81,1l7.48,1.68-1.92,3.34a34.32,34.32,0,0,1-4.66-1,54,54,0,0,0-6.47-1.44c-4.91,2.23-8.91,3.69-13.74,5.92-6,2.78-11.26,3.81-13.8,5.61s-.42,54.07-.42,66.67.42,26,.42,26H608l3.81-108.25-15.67-13.71L595,239.25a33.27,33.27,0,0,1-4,4l-2.55-3,1.28-1c1.27-1,2.54-4.06,2.54-4.06l-6.78-6.34,1.7-2.79s6.77,4.05,11.33,6.91l.5.32V220s-.88-2.85,0-3.23a5.36,5.36,0,0,1,2.54,0s.57,2.66,1.07,5.67c.39,2.31,1.34,10.49,1.77,14.18,4,2.45,7.9,4.83,7.9,4.83s-.27-13.64.2-20.42c.12-1.7.5-5.62,1-10.59-7.45-2.28-19.08-6.79-25.74-8.57-8.55-2.28-10.39-4.33-13.12-3s-2.48,13.19-3.34,14.52l-3.65-1.33v-8H559.9l-1.23-2.66,9-1.33v-8s-12-6.33-12.26-7.79,1.82-2.91,1.82-2.91"/><path class="cls-10" d="M13.4,107.62c10.28-1.51,25.47,6.87,42.48,18.42s25.47,16.89,40.58,32.05c0,0,1.14-6.8.45-11.48-6.43-13.79-4.32-28.75-1.8-37.23-10.75-3.33-25.39-8.87-32.42-21.33-4.15-7.37-7.63-26.37.41-32.47,13.38,6.1,35.8,13.15,42.68,30.69,3.85,9.81,5.92.57,20.45-4.78,9.2-3.38,18.26-6,18.26-6S136.81,71.29,129.75,60,120,36.64,127.2,30.69c20,7.11,26,13.45,32.83,23.42s2.3,18.36,2.3,18.36c25,.65,82.76,49.69,82.76,49.69s29.35-30.28,50.79-26.09,18.36,7.39,16.72,8.8c-3.41,2.94-17.79,1.12-13,1.89s17.67,9,13.34,12.46c-5.12,4.13-13.86-3.39-14.14-1.9-.24,1.3,8.2,10.06,1.55,12.58-4.14,1.56-15.21-8.91-23.11-12-6.18,2.74-19.81,14-19.81,14s50.71,35.32,53.76,42.58-50.34,1.73-66.15-.35c-9.13-1.2-39.13-10.07-42.88-2.76s1.35,55.87,3.74,67c4.3,19.93-12.25,100.45-12.43,114.49s31.44,15.34,27.59,20.66c-2.76,3.82-29.36,6.27-35.74,9.63-10.85,5.69-25.84,5.69-25.84,5.69h0l-5.72.77h0s-55-14.49-64.11-25c-40.88-47.23-24.43-137.32.26-188.07-4.79-9.24-23-25.1-34.05-33.59s-19-10.83-19-10.83S28,150.9,24,147.71c-2.69-2.13-1.52-14-1.52-14s-7.36,10.65-9.91,8.4,0-14.13,0-14.13-9.34,8-11.89,5.73,2.46-24.62,12.74-26.12"/><path class="cls-11" d="M291.77,297Z"/><path class="cls-12" d="M147.11,345.17s-8.46,22-20.31,26.78-36.78.13-36.78.13,21.58,13.05,37.2,8.57c9.81-2.81,14.29-3.2,28.28-23.21a37.75,37.75,0,0,1,4.3-4.77Z"/><path class="cls-13" d="M128,380.53a56.19,56.19,0,0,1-7.21-7.62,35.57,35.57,0,0,0,7.86-1.58,62.49,62.49,0,0,0,7.37,6.24c-2.8,1.26-5.47,2-8,3"/><path class="cls-14" d="M134.9,378.27a76.65,76.65,0,0,1-8.88-7.33,18.54,18.54,0,0,0,2.46-1A23.82,23.82,0,0,0,134,366a94.14,94.14,0,0,0,9.73,6.75,37.14,37.14,0,0,1-8.84,5.48"/><path class="cls-13" d="M139.66,356.81a145.55,145.55,0,0,0,12.61,8.8c-2.77,3.4-6.76,5.94-9.36,7.94a86.09,86.09,0,0,1-10.37-7.69c2.88-2.44,4.89-6,7.12-9.05"/><path class="cls-14" d="M138.73,356.26c3.09-4.24,5.25-9.16,6.59-11.77,3.9,3.46,11.21,5.95,14.48,8.18,1.4,1.27-5.17,10.31-8.16,13.93-3-2-9.06-7.12-12.91-10.34"/><path class="cls-12" d="M201.11,327.39c-3.43,19.4-8.74,29.22-33.08,30.31C139.8,359,129.58,336,129.58,336Z"/><path class="cls-13" d="M202.46,329.73s-9.76,8.59-41.28,9.73a176.15,176.15,0,0,1-31.49-1.75l-3.71-5.9A223.43,223.43,0,0,0,166.66,330c24.67-3.56,36.91-12.1,36.91-12.1Z"/><path class="cls-14" d="M206.28,316.12s-13.14,10.95-44.36,15.32c-16.93,2.36-37.29.42-37.29.42l-4-8.35s24.91,2.28,45.74-2.94c24.15-6.06,39.4-17.33,39.4-17.33Z"/><path class="cls-12" d="M219.09,231.71s7.47-12.23,10.41-16c3.14-4.05,9.35-9.26,9.35-9.26s8.7,8,9.55,5.29,1-13.73,1-13.73-8.26-3-12.51.6a99.5,99.5,0,0,0-11.24,10.17,172.61,172.61,0,0,0-12.54,15.7c-1,1.35,5.86,5.69,5.86,5.69m-72.16-5.39C161,232,176.58,240.1,196.47,242c2.93.29,6-.19,8.91-.06.34,10.24,1.22,32.87,1.22,32.87S184,289.89,162.82,296.32c-24.38,7.4-48.78,2.85-48.78,2.85s-.6-30.37,18.41-56.24c4.8-6.54,9.38-13.47,14.38-18.18"/><path class="cls-15" d="M249.16,202s5.62-.67,5.43-1-5.68-2.44-5.68-2.44Zm-.39,5.47s6.51,1.57,6.32,1.27-5.85-4.57-5.85-4.57Zm-.94,4.86s4.79,3.64,4.64,3.32-3.75-6.54-3.75-6.54Z"/><path class="cls-14" d="M158,180.28s-5.94-10.88-15.41-15.18-27.46-8.36-27.66-5.65,3.31,20.82,12.51,25.69,24.68,9.36,24.68,9.36l8.59-7.19Z"/><path class="cls-15" d="M157.73,189s-6.54-9.34-12.95-12-9.74-1.7-9.74-1.7,6.05,10.05,10.74,12.42c5.49,2.78,11.95,1.32,11.95,1.32"/><path class="cls-12" d="M198.35,175s-1.51-14.88-10.43-23.53-24.09-14-23.81-12.59,3.23,16.1,7.56,23.56S186.83,175,186.83,175Z"/><path class="cls-15" d="M192.84,172.63s-2.79-11-7.83-15.85-8.5-5.06-8.5-5.06,2.08,11.55,5.62,15.43c4.15,4.55,10.71,5.48,10.71,5.48"/><path class="cls-14" d="M163.93,179.45c6.89-4.28,20-10.06,33-8.95,5.93.51,19,16.59,25,22.81s18.56,26.8,28.21,36.86c5.58,5.83,24.6,22.92,22.16,26.17s-25.22,1.73-65.83-7.26c-35.74,3.7-61.94-22.76-59.59-24.33,4.21-2.8-5.72-15.67,1.75-29.88,4.51-8.58,11.11-12.78,15.35-15.42"/><path class="cls-16" d="M166.78,200.13c-2.59,5.34,0,13.42,6.27,16.46,4.7,2.27,12.38-.47,13.27-8.59.69-6.27-2-10.4-6.69-12.68s-10.26-.52-12.85,4.81"/><path class="cls-17" d="M177.76,208.42a1.91,1.91,0,1,1-3.43-1.67,1.91,1.91,0,0,1,3.43,1.67"/><path class="cls-16" d="M205.2,180.73c-2,4.11,0,10.68,4.8,13,3.62,1.76,9.54-.35,10.22-6.61.53-4.82-1.5-8.36-5.12-10.11s-7.9-.41-9.9,3.7"/><path class="cls-17" d="M213.47,187.4a1.47,1.47,0,1,1-.68-2,1.46,1.46,0,0,1,.68,2"/><path class="cls-18" d="M197.65,210c1.44-10.71-6.52-21.82-18-22.19-16.66-.53-35.48,15.09-35.48,15.09s17.45,22.26,31.32,22.81c13.36.53,21-7.64,22.11-15.71m-18.52-17.9c9,1.2,15.36,9,14.24,17.33s-9.92,12.34-18.89,11.14c-8-1.06-19.16-11.89-21.76-16.21,6-4.48,19.37-13.2,26.41-12.26"/><path class="cls-18" d="M211.63,201.68c9.42,1.26,18.05-5,19.24-13.88,1.16-8.64-12.69-26.58-12.69-26.58s-20.32,13.51-21.46,22c-1.19,8.91,5.5,17.19,14.91,18.45m5.2-34.23c3,1.9,10.63,13.25,9.76,19.78s-7.34,11.11-14.39,10.16-12.07-7-11.2-13.59c.63-4.69,9.68-12.24,15.83-16.35"/><path class="cls-18" d="M192.69,198.77c2.15-.93,8-3.43,9.09-3.83l-1.43-4.08c-1.47.52-8.58,3.6-9.39,3.95Z"/><path class="cls-15" d="M265.17,245.19c8.86,9.37,12.66,14.2,4.93,14.31-3,0-7.92-.78-14-2.31a80.6,80.6,0,0,1,9.07-12"/><path class="cls-19" d="M211.83,244.05s-5.82-12.24-11.68-13c-10.44-1.29-13.84,8.09-12.24,8.07A85.34,85.34,0,0,1,200,240.21a103.11,103.11,0,0,1,11.83,3.84"/><g class="cls-20"><path class="cls-16" d="M207.81,235.58l-3.3,1.94-.42-4.41-3.24,2.53-2.16-4.78-2.28,4.6-2.14-4.18s4.11-2.57,4.21-2.58,6.41,1.57,6.41,1.57l3.69,2.17Z"/></g><path class="cls-12" d="M186.09,344.87s19.62-6.05,22.12-2.08,4.21,18.06,4.21,18.06l-5.35,3.49s-2.88-14.87-4.48-15c-3.36-.21-15.94,2.78-15.94,2.78Z"/><path class="cls-12" d="M207.12,363.21l5.2-3.18s14.2-4.88,13.07-2.09-6.9,11.9-6.9,11.9-12.48,0-11.37-6.63"/><path class="cls-15" d="M220.37,366.89s4.65,3.83,4.31,4-6.49-1.07-6.49-1.07Zm2.56-5.31s6.41,3.12,6,3.23-7.89-.2-7.89-.2Zm2.38-4.54s5.63.22,5.33.36-6.6,2.49-6.6,2.49Z"/><path class="cls-12" d="M150.58,342.65l1.26,33.4s11.52-1.15,10.4,1.64-8.46,11.95-8.46,11.95-9.15-2.2-8.68-7S143,342.35,143,342.35"/><path class="cls-15" d="M156.27,386.19s4.16,4.35,3.79,4.47-6.31-1.84-6.31-1.84Zm3.39-4.76s6.4,3.12,6,3.24-7.89-.21-7.89-.21Zm2.51-4.62s6.39.25,6.05.41-7.5,2.83-7.5,2.83Z"/><path class="cls-12" d="M137.59,246.51s-8.62-11.46-11.9-14.95c-3.52-3.74-10.2-8.33-10.2-8.33s-7.9,8.77-9,6.17-2.32-13.56-2.32-13.56,7.92-3.83,12.51-.6a101.22,101.22,0,0,1,12.16,9,171.84,171.84,0,0,1,14,14.44c1.09,1.25-5.29,6.22-5.29,6.22"/><path class="cls-15" d="M107.12,229.94s-4.42,4.08-4.3,3.75,3.11-6.87,3.11-6.87Z"/><path class="cls-15" d="M104.81,219.78s-5.66-.13-5.5-.45,5.42-3,5.42-3Zm.91,5.42s-6.33,2.18-6.17,1.87,5.38-5.12,5.38-5.12Z"/><path class="cls-14" d="M208.91,289.19s-14.87,12.89-50.5,21.35c-16.72,4-43.21,2.66-43.21,2.66l-2.89-16.34s28.29,1.43,51.18-4.63c31.39-8.31,44.14-19.86,44.14-19.86Z"/><path class="cls-13" d="M208.37,302.11S194.5,317.21,159.6,323c-17.18,2.84-39.37.64-39.37.64L116.51,313s24.5,1.13,47.91-4.68c27.13-6.72,43-18.71,43-18.71Z"/><path class="cls-16" d="M207,249.07a82.26,82.26,0,0,1-32.18-6.59c-19.31-8.21-28.08-21.41-28.08-21.41s-7.09-.91-8.19,2.38,9.34,6.47,9.34,6.47-8.27,3-3,8.56c4.6,4.86,10.25.18,10.25.18s-3.15,5.59,2.06,8.91,9.15-2.6,9.15-2.6-.79,8.33,3.39,8.38,7.25-4.26,7.25-4.26-1.23,7.81,4.25,8,5.85-5.91,5.85-5.91,2.05,7.76,6.61,7.31,4.51-6.31,4.51-6.31,5.35,8.94,9.27,5.48-.45-8.62-.45-8.62"/></g></g></g></svg>