<?xml version="1.0" encoding="utf-8"?>
<!-- Generator: Adobe Illustrator 26.2.1, SVG Export Plug-In . SVG Version: 6.00 Build 0)  -->
<svg version="1.1" id="Capa_1" xmlns="http://www.w3.org/2000/svg" xmlns:xlink="http://www.w3.org/1999/xlink" x="0px" y="0px"
	 viewBox="0 0 328.4 324" style="enable-background:new 0 0 328.4 324;" xml:space="preserve">
<style type="text/css">
	.st0{fill:#E30613;}
	.st1{fill:#A85318;}
	.st2{fill:#814114;}
	.st3{clip-path:url(#SVGID_00000011751747944756366970000010449650656499496598_);}
	.st4{fill:#FFFFFF;}
	.st5{clip-path:url(#SVGID_00000128474580038579079820000015861276296842002355_);}
	.st6{fill:#F39200;}
	.st7{clip-path:url(#SVGID_00000062883507453573272890000010084834748920088965_);}
	.st8{fill:#FCC700;}
	.st9{clip-path:url(#SVGID_00000022525431643544066840000000254285253596577167_);}
	.st10{clip-path:url(#SVGID_00000183963470130690798150000000042716068750760338_);}
	.st11{clip-path:url(#SVGID_00000044147773915821680860000015224750668373819265_);}
	.st12{fill:#1D1D1B;}
	.st13{clip-path:url(#SVGID_00000004530545639799068860000002799000410528527280_);}
	.st14{clip-path:url(#SVGID_00000034056021804321334810000001154080038675503035_);}
	.st15{fill:#F3A5C2;}
	.st16{fill:#DAD8CC;}
	.st17{fill:#0D181C;}
	.st18{fill:none;stroke:#1D1D1B;stroke-width:0.96;stroke-linecap:round;}
	.st19{fill:none;stroke:#1D1D1B;stroke-width:1.19;}
	.st20{fill:none;stroke:#DAD8CC;stroke-width:0.5318;stroke-linecap:round;stroke-linejoin:round;}
	.st21{fill-rule:evenodd;clip-rule:evenodd;fill:#FFFFFF;}
	.st22{fill:none;stroke:#DAD8CC;stroke-width:0.4653;stroke-linecap:round;}
	.st23{fill:#A4A092;}
	.st24{fill:none;stroke:#1D1D1B;stroke-width:0.9972;stroke-linecap:round;}
	.st25{fill-rule:evenodd;clip-rule:evenodd;fill:#E30613;}
	.st26{fill-rule:evenodd;clip-rule:evenodd;fill:#A4A092;}
	.st27{fill-rule:evenodd;clip-rule:evenodd;fill:#DAD8CC;}
	.st28{fill:none;stroke:#DAD8CC;stroke-width:0.4653;stroke-linecap:round;stroke-linejoin:round;}
	.st29{fill:#B4B0A4;}
	.st30{fill:url(#SVGID_00000036967646716899945300000016149740360068752524_);}
	.st31{fill:url(#SVGID_00000154403890315223549190000000203366654387819409_);}
</style>
<g id="Capa_2_00000125579868619514916470000013776087846400831659_">
	<g id="Capa_1-2">
		<path class="st0" d="M82.8,263.9c71.4-6.4,128.6,2.3,200.2,2.7c10.9,0.1,38.4-10.1,43.6,1.7c5,11.4-1,26.1-10.1,32.7
			s-20,7.1-30.5,7.5c-44.5,2-88.8,6-133,12.1c-17.7,2.5-35.8,5.2-53.3,1.1c-13.7-3.2-26.5-10.4-39.1-17.6
			c-6.3-3.6-13.7-9.2-13.2-17.8c0.5-8.9,4.3-12.6,11.1-15.7C65.7,267.5,65.7,267.5,82.8,263.9"/>
		<g>
			<path class="st1" d="M283.4,53.5h-5.9c0,0,4.8-6.2,2.8-11.4c-2-5.5-11.4-5.3-11.4-5.3s5.4,2.3,5.8,6.7c0.4,4.1-2.8,8.2-5.4,9.7
				v0.3H268c-5.8,0.3-38.1,0.3-43.9,0h-1.4v-0.4c-2.6-1.6-5.6-5.6-5.2-9.6c0.4-4.3,5.8-6.7,5.8-6.7s-9.4-0.2-11.4,5.3
				c-1.9,5.2,2.8,11.3,2.8,11.3H195v76.1c0,0,11.7,2.1,14.4,19.8c1.5,9.9,0.6,136,0.6,136h72.3c0,0-1-126.1,0.5-136
				c2.7-17.7,14.4-19.8,14.4-19.8v-76H283.4z M274,272.8h-35.2l-20.7-0.2l-0.4-138.7l56.8,0.2L274,272.8z"/>
			<g>
				<rect x="217.4" y="131.7" class="st2" width="57.1" height="147.7"/>
				<path class="st0" d="M260.9,204.7c0,0,1.9,21.3,3.2,30c1.6,10.8,2.5,21.6,2.8,32.5l-11,0.5l-1.4-5.6c-2.7,0.4-5.4,0.6-8.1,0.7
					c-3.5-0.1-7-0.5-10.4-1.1l-1.4,6h-10.4c0.3-6.6,0-13.1,4-39.7c1.7-11.6,3.1-28.9,3.1-28.9s13,3.6,17.9,3.2s11.3-3.2,11.3-3.2
					L260.9,204.7z"/>
				<g>
					<g>
						<defs>
							<path id="SVGID_1_" d="M249.2,202.2c-4.9,0.4-17.9-3.2-17.9-3.2s-1.4,17.3-3.1,28.9c-3.9,26.7-3.7,33.1-4,39.7h10.4l1.4-6
								c3.4,0.6,6.9,1,10.4,1.1c2.7-0.1,5.4-0.3,8.1-0.7l1.4,5.6l11-0.5c-0.3-10.9-1.3-21.7-2.8-32.5c-1.3-8.7-3.2-30-3.2-30
								l-0.4-5.7C260.5,199,254.1,201.9,249.2,202.2"/>
						</defs>
						<clipPath id="SVGID_00000001631491419074173710000007676039879772343183_">
							<use xlink:href="#SVGID_1_"  style="overflow:visible;"/>
						</clipPath>
						<g style="clip-path:url(#SVGID_00000001631491419074173710000007676039879772343183_);">
							<path class="st4" d="M223.8,251c0,0,6.6,4.3,23.2,4.5c7.5-0.1,15-1.2,22.3-3.4l-0.6-8.5c0,0-12.9,3.7-22.6,3.3
								c-7.1-0.3-14.2-1.6-20.9-3.9L223.8,251z"/>
							<path class="st4" d="M266.9,235.4c0,0-10.5,4-21.1,3.4c-13.6-0.8-19.9-4.2-19.9-4.2l1.1-7.7c6.4,2,13.1,3,19.8,3.1
								c12.9,0.4,18.5-2.8,20.1-2.8V235.4z"/>
							<path class="st4" d="M267.1,217.8c-6.1,2.6-12.7,3.9-19.4,3.9c-13.6-0.1-20.2-3.3-20.2-3.3l0.7-7.8c0,0,6.9,3.9,18.8,3.6
								c13-0.2,18.1-3.7,19.7-3.9C266.9,212.6,267.1,217.8,267.1,217.8"/>
						</g>
					</g>
				</g>
				<g>
					<g>
						<defs>
							<rect id="SVGID_00000015321276033039595430000009040643147434848698_" x="217.4" y="131.7" width="57.1" height="147.7"/>
						</defs>
						<clipPath id="SVGID_00000103233675883477963040000004905708135488434582_">
							<use xlink:href="#SVGID_00000015321276033039595430000009040643147434848698_"  style="overflow:visible;"/>
						</clipPath>
						<g style="clip-path:url(#SVGID_00000103233675883477963040000004905708135488434582_);">
							<path class="st6" d="M239.4,134.9c-5.9-9.7-13.3-11.4-14.1-11.5s5.5,5.9,8.4,14c0.8,2.6,1.3,5.3,1.4,8l7.4-2.1
								C241.9,140.4,240.9,137.6,239.4,134.9"/>
						</g>
					</g>
				</g>
				<g>
					<g>
						<defs>
							<path id="SVGID_00000181059321006954467700000013320344105081331353_" d="M231,131.7c1.1,1.8,2,3.7,2.7,5.7
								c0.8,2.6,1.3,5.3,1.4,8l7.3-2.1c-0.6-2.9-1.6-5.8-3.1-8.4c-0.7-1.1-1.4-2.2-2.2-3.2H231z"/>
						</defs>
						<clipPath id="SVGID_00000079458945873857795510000017242605029077223857_">
							<use xlink:href="#SVGID_00000181059321006954467700000013320344105081331353_"  style="overflow:visible;"/>
						</clipPath>
						<g style="clip-path:url(#SVGID_00000079458945873857795510000017242605029077223857_);">
							<path class="st8" d="M242,138c0,0-2.8,1-5.7,1.8s-3.7,1-3.7,1l-2.2-3.9c2.8-1.2,5.6-2.2,8.4-3C241.9,133,242,138.1,242,138"
								/>
							<path class="st8" d="M236.9,129.1c0,0-2.6,1.2-5.5,2.4c-1.2,0.5-2.4,1-3.6,1.4l-2.7-3.6c0,0,5-2.7,8.1-3.8
								S236.9,129.1,236.9,129.1"/>
						</g>
					</g>
				</g>
				<g>
					<g>
						<defs>
							<rect id="SVGID_00000010990057916579891490000001123735190410935960_" x="217.4" y="131.7" width="57.1" height="147.7"/>
						</defs>
						<clipPath id="SVGID_00000083080525394025741460000002568977194866830524_">
							<use xlink:href="#SVGID_00000010990057916579891490000001123735190410935960_"  style="overflow:visible;"/>
						</clipPath>
						<g style="clip-path:url(#SVGID_00000083080525394025741460000002568977194866830524_);">
							<path class="st6" d="M254.8,135.7c5.9-9.7,13.8-12.3,14.7-12.5s-4.7,6.2-8.8,15.2c-0.9,2.3-1.7,4.7-2.2,7.1l-7.4-2.2
								C252.1,140.7,253.3,138.2,254.8,135.7"/>
						</g>
					</g>
				</g>
				<g>
					<g>
						<defs>
							<path id="SVGID_00000149373059768377604880000001874364592121893823_" d="M257.6,131.7c-1,1.3-2,2.6-2.8,4
								c-1.4,2.4-2.7,5-3.8,7.6l7.4,2.2c0.6-2.4,1.3-4.8,2.2-7.1c1.1-2.3,2.2-4.6,3.5-6.8L257.6,131.7z"/>
						</defs>
						<clipPath id="SVGID_00000004537619654723565900000013302824324779803032_">
							<use xlink:href="#SVGID_00000149373059768377604880000001874364592121893823_"  style="overflow:visible;"/>
						</clipPath>
						<g style="clip-path:url(#SVGID_00000004537619654723565900000013302824324779803032_);">
							<path class="st8" d="M252.1,137.8c0,0,2.8,1,5.7,1.8c1.2,0.4,2.5,0.7,3.7,1l2.2-3.9c-2.8-1.1-5.6-2.1-8.4-3
								C252.1,132.8,252.1,137.8,252.1,137.8"/>
							<path class="st8" d="M257.2,128.8c0,0,2.6,1.2,5.5,2.4c1.2,0.5,2.4,1,3.6,1.3l2.7-3.6c-2.6-1.4-5.3-2.7-8.1-3.9
								C257.8,124,257.2,128.8,257.2,128.8"/>
						</g>
					</g>
				</g>
				<path class="st0" d="M231.8,195.7c0,0-7.8,8.3-9.7,16.8c-2.1,9.7,5.5,19.7,5.5,19.7l5.6-4.1c0,0-5.2-8.3-5.3-11.2
					c-0.1-7.1,5.3-12.2,5.3-12.2L231.8,195.7z"/>
				<g>
					<g>
						<defs>
							<path id="SVGID_00000005964751613709865810000000652273599936514482_" d="M222.1,212.5c-2.1,9.7,5.5,19.7,5.5,19.7l5.6-4.1
								c0,0-5.2-8.3-5.3-11.2c-0.1-7.1,5.3-12.2,5.3-12.2l-1.4-9C231.8,195.7,224,204,222.1,212.5"/>
						</defs>
						<clipPath id="SVGID_00000008141037491684980660000016103590796816577192_">
							<use xlink:href="#SVGID_00000005964751613709865810000000652273599936514482_"  style="overflow:visible;"/>
						</clipPath>
						<g style="clip-path:url(#SVGID_00000008141037491684980660000016103590796816577192_);">
							<polygon class="st4" points="232.2,212 219.5,199.3 221.6,197.4 234.2,210.5 							"/>
							<polygon class="st4" points="229.8,216.5 214.4,207.2 216,204.9 231.4,214.5 							"/>
							<polygon class="st4" points="231,219.7 213.2,221.7 213,218.8 231.1,217.1 							"/>
							<polygon class="st4" points="235.4,221.8 220.4,231.8 219,229.3 234.3,219.6 							"/>
						</g>
					</g>
				</g>
				<path class="st12" d="M227.6,232.2c0,0,5,8.2,6,7.1s-1.5-5.7-1.5-5.7s4.8,3.5,5.7,2.3s-4.8-7.7-4.8-7.7L227.6,232.2z"/>
				<path class="st0" d="M262,196.9c0,0,5.9,7.3,7.4,15.9c1.7,9.8-6.4,19.4-6.4,19.4l-5.4-4.4c0,0,5.6-8,5.8-10.9
					c0.4-7.1-3.3-10.6-3.3-10.6L262,196.9z"/>
				<g>
					<g>
						<defs>
							<path id="SVGID_00000097484398602237826750000018426001667014410926_" d="M260,206.2c0,0,3.8,3.5,3.3,10.6
								c-0.2,2.9-5.8,10.9-5.8,10.9l5.4,4.4c0,0,8.1-9.6,6.4-19.4c-1.5-8.5-7.4-15.9-7.4-15.9L260,206.2z"/>
						</defs>
						<clipPath id="SVGID_00000118399494421941279910000000549323907087111821_">
							<use xlink:href="#SVGID_00000097484398602237826750000018426001667014410926_"  style="overflow:visible;"/>
						</clipPath>
						<g style="clip-path:url(#SVGID_00000118399494421941279910000000549323907087111821_);">
							<polygon class="st4" points="259.3,211.8 272.6,199.7 270.6,197.7 257.4,210.2 							"/>
							<polygon class="st4" points="261.5,216.4 277.3,207.8 275.8,205.4 260,214.3 							"/>
							<polygon class="st4" points="260.1,219.5 277.9,222.4 278.2,219.5 260.2,216.9 							"/>
							<polygon class="st4" points="255.7,221.4 270.2,232.1 271.7,229.7 256.9,219.2 							"/>
						</g>
					</g>
				</g>
				<g>
					<g>
						<defs>
							<rect id="SVGID_00000044171891765130513060000004206974565294575011_" x="217.4" y="131.7" width="57.1" height="147.7"/>
						</defs>
						<clipPath id="SVGID_00000017507232297492034330000017085484098180140673_">
							<use xlink:href="#SVGID_00000044171891765130513060000004206974565294575011_"  style="overflow:visible;"/>
						</clipPath>
						<g style="clip-path:url(#SVGID_00000017507232297492034330000017085484098180140673_);">
							<path class="st15" d="M203.7,168c0,0,11.2-1.6,17.4-6.2c7.8-5.9,12.8-10.8,13-11.9s-5.7-2.8-11.6-0.2S203.7,168,203.7,168"/>
							<path class="st16" d="M235.8,148.5c-5.8-2.3-12.3-2.5-18.2-0.5c-5.9,2.1-10.5,6.7-12.5,12.6c-1.6,5-2.9,7.8-1.6,7.5
								c1.7-1,6.7-8,12.9-12.2C224.7,150.3,235.8,148.5,235.8,148.5"/>
							<path class="st15" d="M288.7,166.5c0,0-9.8,1.1-17.9-4.4s-11.9-10.9-12.2-11.9c-0.3-1,10.9,2.1,17.1,3.7
								S288.7,166.5,288.7,166.5"/>
							<path class="st16" d="M278.5,150.1c6.6,3.6,9.9,10.1,10.5,14.4c0.4,3.5-0.6,2.1-2.1,0.7s-4.6-6.9-11.1-9.9
								c-3.5-1.6-7.2-2.5-11-2.8l-3.7-5C267,146.2,273.2,147.1,278.5,150.1"/>
							<path class="st16" d="M224.5,172.3c1.2,11.3,6.3,40.5,23,38.4s16.1-18.1,19.3-27.1c3.9-10.9,0.3-34.5-5.7-39
								s-21.8-4.4-28.4,1.2S223.4,160.9,224.5,172.3"/>
							<path class="st17" d="M262.6,231.9c0,0-4.3,8.2-5.3,7.2c-1-1.1,1.2-5.7,1.2-5.7s-4.6,3.7-5.6,2.5s4.7-8.1,4.7-8.1
								L262.6,231.9z"/>
							<path class="st4" d="M252.9,160.9c-0.7,3,0.1,7.8,4.9,8.3c5.6,0.6,7-3.2,7.3-5.4c0.7-3.6-1.7-7-5.2-7.6l0,0
								C255.8,155.2,253.4,159,252.9,160.9"/>
							<path class="st12" d="M257.6,163.4c-0.2,0.5,0,1.1,0.5,1.3c0.1,0,0.1,0.1,0.2,0.1c0.5,0.2,1.1-0.1,1.2-0.7V164
								c0.1-0.6-0.2-1.2-0.8-1.3l0,0C258.3,162.6,257.8,162.9,257.6,163.4"/>
							<path class="st4" d="M227.3,162c-0.8,3-0.4,7.8,4.2,8.5c5.4,0.8,6.9-2.9,7.3-5.1c0.6-3.2-0.7-6.8-4.6-7.9
								S227.8,160.1,227.3,162"/>
							<path class="st12" d="M231.8,164.6c-0.2,0.5,0,1.1,0.5,1.3c0.1,0,0.2,0.1,0.2,0.1c0.5,0.2,1.1-0.1,1.2-0.7v-0.1
								c0.1-0.6-0.2-1.1-0.8-1.3l0,0C232.4,163.7,231.9,164,231.8,164.6"/>
							<path class="st18" d="M246.4,203.5c0,1.4,0.1,2.9,0.5,4.3c0.4,0.9,0.8,1.8,1.4,2.7"/>
							<path class="st18" d="M257.2,206.3c0.7-0.9,1-2,0.9-3.1c-0.1-0.7-0.4-1.4-0.9-2"/>
							<path class="st15" d="M246.4,203.8c1,0,2.9-2,4.6-3.9s3.1-3.9,0.3-5.6c-3.2-1.6-6.9-1.6-10.1,0c-2.4,1.5-1.1,3.5-0.1,4.5
								C242.6,200.4,245.4,203.7,246.4,203.8"/>
							<polygon class="st8" points="248.2,128.4 235.1,231.7 230.7,231.3 243.9,128.4 							"/>
							<path class="st8" d="M242.4,240.8c-0.6,5.8-5.7,10-11.4,9.4c-5.8-0.6-10-5.7-9.4-11.4c0.6-5.8,5.7-10,11.4-9.4
								C238.8,229.9,243,235.1,242.4,240.8L242.4,240.8"/>
							<path class="st8" d="M236.9,183.1c0,0-3,12.2-6,19.2s-5.3,13.1-3.5,17.4c1.4,3.4,11.1,4.4,13.4,2c3.6-3.8,2.1-10.7,1.3-17.9
								c-0.8-8-0.9-20.1-0.9-20.1L236.9,183.1z"/>
							<path class="st16" d="M233.2,267.7l-1.6,18.6c0,0-5.6,0.2-5.6,0s1.5-18.6,1.5-18.6H233.2z"/>
							<path class="st16" d="M259.5,267.5l1.4,18.6c0,0,5.6-0.2,5.6-0.5s-1.5-18.4-1.5-18.4L259.5,267.5z"/>
						</g>
					</g>
				</g>
				<path class="st2" d="M205.5,290.5h81.4c0.3,0,0.6,0,0.9-0.1c0.1-0.1,0.3-0.1,0.4-0.2v-3.1c0-1.1-0.9-2-2-2H206c-1.1,0-2,0.9-2,2
					v3c0.2,0.1,0.4,0.2,0.6,0.3C204.9,290.5,205.2,290.5,205.5,290.5"/>
				<path class="st1" d="M201.3,296.7h89.8c0.3,0,0.6,0,0.9-0.1c0.1-0.1,0.3-0.1,0.4-0.2v-4.6c0-1.1-0.9-2-2-2h-88.5
					c-1.1,0-2,0.9-2,2v4.5c0.2,0.1,0.4,0.2,0.6,0.3C200.7,296.7,201,296.7,201.3,296.7"/>
				<path class="st4" d="M276.1,93.6c0,16.6-13.5,30.1-30.1,30.1s-30.1-13.5-30.1-30.1s13.5-30.1,30.1-30.1S276.1,77,276.1,93.6
					L276.1,93.6"/>
				<path class="st1" d="M246,50.7c-2.4-2.2-3.6-5.5-3-8.8c0.9-5.7,3.9-19.1,3.9-19.1s2.9,17.2,3,19.7
					C249.8,45.7,248.4,48.6,246,50.7"/>
				<path class="st2" d="M242.2,40.5h7.7c0.3,0,0.6,0,0.9-0.1l0.4-0.2V37c0-1.1-0.9-2-2-2h-6.5c-1.1,0-2,0.9-2,2v3
					c0.2,0.1,0.4,0.2,0.6,0.3C241.6,40.4,241.9,40.5,242.2,40.5"/>
				<path class="st1" d="M239.5,44.6h13.2c0.3,0,0.6,0,0.9-0.1l0.4-0.2v-3.2c0-1.1-0.9-2-2-2h-12c-1.1,0-2,0.9-2,2v3.1
					c0.2,0.1,0.4,0.2,0.6,0.3C238.8,44.6,239.1,44.6,239.5,44.6"/>
				<path class="st2" d="M228.3,49.4h35.5c0.3,0,0.6,0,0.9-0.1l0.4-0.2v-3.2c0-1.1-0.9-2-2-2h-34.3c-1.1,0-2,0.9-2,2V49l0.6,0.3
					C227.7,49.4,228,49.4,228.3,49.4"/>
				<path class="st1" d="M224.2,54.1H268c0.3,0,0.6,0,0.9-0.1l0.4-0.2v-3.1c0-1.1-0.9-2-2-2h-42.6c-1.1,0-2,0.9-2,2v3.1
					c0.2,0.1,0.4,0.2,0.6,0.3C223.6,54.1,223.9,54.1,224.2,54.1"/>
				<line class="st19" x1="244.6" y1="66.1" x2="244.6" y2="74.6"/>
				<line class="st19" x1="247.4" y1="66.1" x2="247.4" y2="74.6"/>
				<line class="st19" x1="246" y1="112.8" x2="246" y2="121.3"/>
				<line class="st19" x1="218.5" y1="92.8" x2="226.9" y2="92.8"/>
				<line class="st19" x1="265.1" y1="92.8" x2="273.6" y2="92.8"/>
				<path class="st17" d="M248.1,95.4c0,0-10.2-17.2-10.2-18.5c-0.1-0.8,0.2-1.5,0.8-2.1l-6.8-3.7l0.7,7.8c0.7-0.3,1.5-0.3,2.3-0.1
					C236,79.4,248.1,95.4,248.1,95.4"/>
				<path class="st17" d="M243.4,90.6c0,0,11.2,7.9,11.8,9.1c0.3,0.9,0.3,2-0.2,2.9l9.1,0.3l-4.7-7.9c0,0-1.1,1.6-2.4,1.6
					S243.4,90.7,243.4,90.6"/>
				<path class="st8" d="M242.8,93.5c-0.5-2,0.7-4,2.6-4.5s4,0.7,4.5,2.6c0.5,2-0.7,4-2.6,4.5l0,0C245.3,96.6,243.3,95.4,242.8,93.5
					C242.8,93.4,242.8,93.4,242.8,93.5"/>
			</g>
		</g>
		<g>
			<path class="st16" d="M199.3,127c-0.2-0.2,4-20.3,2.5-20.4c-45.5-7.1-67.1-18.4-67.1-18.4s-17.1,2.2-18.3,2.7s-13,13.3-16.5,18.8
				c-3.5,5.5,1.5,28.3,1.8,30.6s33.1,15.8,33.1,15.8s3-12.1,5.2-16.5c2.2-4.3,3-1.2,9.3-1.3c8.5-0.2,17-1.3,25.1-3.3
				C178.2,134.2,199.3,127,199.3,127"/>
			<path class="st20" d="M134.8,156.1c0,0,2.7-12.5,5.2-16.5c1.5-2.3,1.5-1.5,6.5-1c11.1,1,24.9-2.2,52.8-11.6"/>
			<path class="st21" d="M171.7,135.5c0-0.2-0.2,7,0,7.6s-6.6-6.6-6.6-6.6l-1.5,9.5l-5.7-7.6l-1.7,8.1l-4.3-7.6
				c-0.7,2.3-2.3,8-2.3,8.5s-4.2-8.5-4.2-8.5l-4.5,8.5l-3-10.6l-4.2,9l-2.5-11.3c3.3,2,7,3,10.8,3c4.2,0.2,9.1,0.8,9.1,0.8
				c3.7,0.3,7.3,0.2,11-0.5C167.2,136.7,171.7,135.5,171.7,135.5"/>
			<path class="st22" d="M171.7,143.2c0.2,0.7-6.6-6.6-6.6-6.6l-1.5,9.5l-5.7-7.6l-1.7,8.1l-4.3-7.6c-0.7,2.3-2.3,8-2.3,8.5
				s-4.2-8.5-4.2-8.5l-4.5,8.5l-3-10.6l-4.2,9l-2.5-11.3c3.3,2,7,3,10.8,3c4.2,0.2,9.1,0.8,9.1,0.8c3.7,0.3,7.3,0.2,11-0.5
				c5-1,9.5-2.2,9.5-2.2S171.5,142.5,171.7,143.2z"/>
			<path class="st23" d="M134.1,87.3c1.3,0-43-3.7-23.6,53.8c12-10.5-2.8-41.4,17.1-45c6.6-1.2,23.1,4.7,38.4,8
				c11.3,2.5,22.8,4.2,34.4,5.3l-3.8-5.5c0,0-19.1-2.5-26.6-4.7C163.4,97.4,145.4,91.8,134.1,87.3"/>
			<path class="st17" d="M222.7,110.1c-0.2,7-23.1,17.1-23.1,17.1s0.7-1.5-1.3-9.6c-1.2-5.2-3.8-13.8-3.8-13.8
				S222.7,106.8,222.7,110.1"/>
			<path class="st4" d="M123.6,107.3c0,0.2,0.2,0.3,0.2,0.5c1.3,4.2,5.7,6.5,9.6,5.2c6-1.5,6.5-8,5-11.8c-0.5-1.5-1.2-2.2-3.2-3
				c-2.3,1-3-0.3-6-0.5C125.1,97,122.7,103.1,123.6,107.3"/>
			<path class="st12" d="M131.1,103.6c-0.3-0.7-1.2-1-1.7-0.7l0,0c-0.8,0.3-1.2,1.2-0.8,1.8v0.2c0.2,0.7,1,1,1.7,0.7
				c0.2,0,0.2-0.2,0.3-0.2C131.3,105.1,131.5,104.3,131.1,103.6"/>
			<path class="st24" d="M120,94.6c2.2,1.3,4.7,2.5,7.1,3c3.8,0.8,7.8,1,11.8,0.3"/>
			<path class="st4" d="M147.7,204c0.3,0.8,0.7,1.7,0.7,2.5c-0.3,1.3-1.2,2.5-2.3,3c0.5-0.8,0.7-1.8,0.7-2.8c-0.2-0.8-0.5-1.7-1-2.5
				L147.7,204z"/>
			<path class="st22" d="M147.7,204c0.3,0.8,0.7,1.7,0.7,2.5c-0.3,1.3-1.2,2.5-2.3,3c0.5-0.8,0.7-1.8,0.7-2.8
				c-0.2-0.8-0.5-1.7-1-2.5L147.7,204z"/>
			<path class="st4" d="M141.1,204.8c0.2,1,0.2,1.8,0,2.7c-0.5,1.2-1.7,2-3,2.2c0.8-0.8,1.3-1.7,1.5-2.7c0.2-0.8,0-1.8-0.2-2.7
				L141.1,204.8z"/>
			<path class="st22" d="M141.1,204.8c0.2,1,0.2,1.8,0,2.7c-0.5,1.2-1.7,2-3,2.2c0.8-0.8,1.3-1.7,1.5-2.7c0.2-0.8,0-1.8-0.2-2.7
				L141.1,204.8z"/>
			<path class="st4" d="M150.1,199.3c0.5,0.7,0.8,1.3,1.2,2.2c0,1-0.2,2.2-0.3,3.2c0.7-0.7,1.3-1.5,1.7-2.5c0.2-1.3-0.2-2.5-0.7-3.7
				L150.1,199.3z"/>
			<path class="st22" d="M150.1,199.3c0.5,0.7,0.8,1.3,1.2,2.2c0,1-0.2,2.2-0.3,3.2c0.7-0.7,1.3-1.5,1.7-2.5
				c0.2-1.3-0.2-2.5-0.7-3.7L150.1,199.3z"/>
			<path class="st4" d="M151.6,189.9c0.3,0.8,0.7,1.7,0.7,2.5c-0.3,1.3-1.2,2.5-2.3,3c0.5-0.8,0.7-1.8,0.7-2.8
				c-0.3-0.8-0.5-1.7-1-2.5L151.6,189.9z"/>
			<path class="st22" d="M151.6,189.9c0.3,0.8,0.7,1.7,0.7,2.5c-0.3,1.3-1.2,2.5-2.3,3c0.5-0.8,0.7-1.8,0.7-2.8
				c-0.3-0.8-0.5-1.7-1-2.5L151.6,189.9z"/>
			<path class="st4" d="M153.9,185c0.5,0.7,0.8,1.3,1.2,2.2c0,1-0.2,2.2-0.3,3.2c0.7-0.7,1.3-1.5,1.7-2.5c0.2-1.3-0.2-2.5-0.7-3.7
				L153.9,185z"/>
			<path class="st22" d="M153.9,185c0.5,0.7,0.8,1.3,1.2,2.2c0,1-0.2,2.2-0.3,3.2c0.7-0.7,1.3-1.5,1.7-2.5c0.2-1.3-0.2-2.5-0.7-3.7
				L153.9,185z"/>
			<path class="st25" d="M132.8,156.8c4.2,2.3,8.1,4.8,12,7.6c4.2,3.3,3.2,11.6,3.2,11.6s-8-3.5-10.1-8
				C135.6,163.6,132.8,156.8,132.8,156.8"/>
			<path class="st26" d="M75,234.4c2,1.8-1,6-1.5,6.6c-7,8-12.6,17.8-41.9,22.6C15.3,266.1,0,259.3,0,259.3c1.7-1.7,3.8-3,6-3.8
				c2.8-1,5.7-1.7,8.5-2.2l-4.5-1.2c2-0.8,4.2-1.7,6.5-2.2c3.7-0.8,7.8-1.5,7.8-1.5l-1.8-1.2c0,0,1.3-0.7,8.1-0.5
				c6,0.2,12-0.3,17.8-1.5c7.6-2.3,14.8-5.7,21.6-9.8C70,235.6,73.5,232.9,75,234.4"/>
			<path class="st27" d="M65.3,249.8c0,0-11.1,11.6-32.9,14.3c-16.3,2-26.9-2.8-26.9-2.8c15.3,0.7,30.4-1.5,45-6.1
				C55.3,253.5,65.3,249.8,65.3,249.8"/>
			<path class="st28" d="M65.3,249.8c0,0-11.1,11.6-32.9,14.3c-16.3,2-26.9-2.8-26.9-2.8"/>
			<path class="st23" d="M106.5,149c-3.2,2-3.7,7.3-2.7,12.6c1,5.3,2.5,13.1,6.8,18.9c4.7,6.3,29.9,4.5,29.9,4.5s1.5,5.7,4,5.8
				c2.5,0.2,2.5-3.8,2.5-3.8s1.7,4,4.3,2.7c2.7-1.3-0.3-6.3-0.3-6.3s3,3.2,4.7,0.8c1.7-2.3-3.3-7.1-8.1-8.3c-4-1-20.3,0-26.1-2.7
				c-4.2-1.8-5.5-10.3-6.8-18.3C113.3,147,108.7,147.6,106.5,149"/>
			<path class="st4" d="M144.9,190.7c0.2,1,0.2,1.8,0,2.7c-0.5,1.2-1.7,2-3,2.2c0.8-0.8,1.3-1.7,1.5-2.7c0.2-0.8,0-1.8-0.2-2.7
				L144.9,190.7z"/>
			<path class="st20" d="M144.9,190.7c0.2,1,0.2,1.8,0,2.7c-0.5,1.2-1.7,2-3,2.2c0.8-0.8,1.3-1.7,1.5-2.7c0.2-0.8,0-1.8-0.2-2.7
				L144.9,190.7z"/>
			<path class="st23" d="M133.6,158.8c-3,4.5-4.7,10-4.5,15.5c0.5,8.8,2.8,63.2-8.1,73.3c-5,4.7-40.6,2.7-43.9,0
				c-3.3-2.7-6.8-8-9-18.3c-1-5.5-1.7-11-1.8-16.6c-1.7,1.5-3,3.3-4,5.3c0.7-5.5,1.8-11,3.3-16.3c-1.7,2-3.2,4.2-4.5,6.3
				c1.3-7.6,4.8-19.3,4.8-19.3s-3.7,4.7-0.3-2c2.2-4.3,4.8-8.3,8-12.1l-3.8,2.3c0.8-2.2,1.7-4.2,2.8-6c2.2-3.3,4.8-6.1,8.1-8.3
				l-6,1.7c1.7-2.5,3.5-5,5.7-7.1c3.7-3.8,5.2-13.3,5.2-13.3L133.6,158.8z"/>
			<path class="st23" d="M89.2,105.3c0,0-5.5-15.6-14.6-26.8c-1.2-1.5,5.5-2.3,10.8,0c5.3,2.3,18.1,12.3,18.1,12.3L89.2,105.3z"/>
			<path class="st23" d="M110.7,86.8c0,0-0.8-5.5-1.2-8c-0.3-2.5-2-10.1-2.2-11.1s3-0.7,6.6,2.2s13.3,15,13.3,15L110.7,86.8z"/>
			<path class="st29" d="M105,160.6c-3.2,1.8-4,7.3-3.3,12.6s1.7,13.1,5.7,19.3c4.3,6.5,29.6,6.3,29.6,6.3s1.2,5.7,3.7,6
				s2.7-3.7,2.7-3.7s1.5,4.2,4.2,3c2.7-1.2,0-6.3,0-6.3s2.8,3.5,4.7,1.2c1.8-2.3-3-7.5-7.6-8.8c-4-1.2-20.3-1.3-25.9-4.3
				c-4-2.2-4.7-10.8-5.7-18.8C111.8,159.1,107.2,159.3,105,160.6"/>
			<path class="st4" d="M126.6,284.4c-0.5,0.7-1.2,1.3-1.8,1.8c-1.2,0.5-2.5,0.3-3.7-0.3c1-0.2,2-0.5,2.8-1c0.7-0.7,1.2-1.3,1.7-2.2
				L126.6,284.4z"/>
			<path class="st20" d="M126.6,284.4c-0.5,0.7-1.2,1.3-1.8,1.8c-1.2,0.5-2.5,0.3-3.7-0.3c1-0.2,2-0.5,2.8-1
				c0.7-0.7,1.2-1.3,1.7-2.2L126.6,284.4z"/>
			<path class="st4" d="M122.3,279.1c-0.8,0.3-1.8,0.5-2.7,0.3c-1.2-0.3-2.2-1.3-2.5-2.7c0.7,0.7,1.7,1,2.7,1.2c1,0,1.8-0.2,2.7-0.5
				L122.3,279.1z"/>
			<path class="st20" d="M122.3,279.1c-0.8,0.3-1.8,0.5-2.7,0.3c-1.2-0.3-2.2-1.3-2.5-2.7c0.7,0.7,1.7,1,2.7,1.2
				c1,0,1.8-0.2,2.7-0.5L122.3,279.1z"/>
			<path class="st4" d="M131.5,285.1c0,0.8-0.3,1.7-0.7,2.3c-0.8,0.8-1.7,1.5-2.5,2c1,0.2,2-0.2,3-0.5c1.3-0.7,2.2-3,2.2-3
				L131.5,285.1z"/>
			<path class="st20" d="M131.5,285.1c0,0.8-0.3,1.7-0.7,2.3c-0.8,0.8-1.7,1.5-2.5,2c1,0.2,2-0.2,3-0.5c1.3-0.7,2.2-3,2.2-3
				L131.5,285.1z"/>
			<path class="st4" d="M93.4,284.1c0.7-0.3,1.7-0.5,2.5-0.3c1.3,0.3,2.3,1.3,2.7,2.7c-0.7-0.5-1.7-0.8-2.7-1c-1,0-1.8,0.2-2.7,0.5
				L93.4,284.1z"/>
			<path class="st20" d="M93.4,284.1c0.7-0.3,1.7-0.5,2.5-0.3c1.3,0.3,2.3,1.3,2.7,2.7c-0.7-0.5-1.7-0.8-2.7-1c-1,0-1.8,0.2-2.7,0.5
				L93.4,284.1z"/>
			<path class="st4" d="M90.4,289.2c0.8,0.2,1.7,0.7,2.3,1.2c0.8,1,1.2,2.3,0.7,3.7c-0.3-1-0.8-1.8-1.7-2.5c-0.8-0.5-1.7-0.8-2.5-1
				L90.4,289.2z"/>
			<path class="st20" d="M90.4,289.2c0.8,0.2,1.7,0.7,2.3,1.2c0.8,1,1.2,2.3,0.7,3.7c-0.3-1-0.8-1.8-1.7-2.5c-0.8-0.5-1.7-0.8-2.5-1
				L90.4,289.2z"/>
			<path class="st4" d="M84.1,290.2c0.8,0.2,1.7,0.5,2.3,1.2c0.8,1,1,2.3,0.7,3.7c-0.3-0.8-0.8-1.7-1.7-2.3c-0.8-0.5-1.7-0.8-2.5-1
				L84.1,290.2z"/>
			<path class="st20" d="M84.1,290.2c0.8,0.2,1.7,0.5,2.3,1.2c0.8,1,1,2.3,0.7,3.7c-0.3-0.8-0.8-1.7-1.7-2.3c-0.8-0.5-1.7-0.8-2.5-1
				L84.1,290.2z"/>
			
				<linearGradient id="SVGID_00000031889158324662669500000006829490587767329975_" gradientUnits="userSpaceOnUse" x1="308.2239" y1="37.2335" x2="298.2217" y2="75.0682" gradientTransform="matrix(-1 0 0 -1 428.0128 326)">
				<stop  offset="0" style="stop-color:#313131"/>
				<stop  offset="0.5223" style="stop-color:#9D998C"/>
				<stop  offset="0.5586" style="stop-color:#A4A092"/>
			</linearGradient>
			<path style="fill:url(#SVGID_00000031889158324662669500000006829490587767329975_);" d="M116.3,246.4c0,0,13.6,7.6,14.3,14.1
				c0.2,4.5-0.7,9-2.7,13c0,0-6.6,1.8-6.5,5s5.3,1.2,5.3,1.2s-3.2,3.7-1.7,5.2c2.5,2.2,5.7-1.8,5.7-1.8s-0.7,5.5,2.5,3.5
				c4.7-3,7.5-24.9,5-31.9s-18.1-16.6-18.1-16.6L116.3,246.4z"/>
			
				<linearGradient id="SVGID_00000036243348732841632160000016799396669915497147_" gradientUnits="userSpaceOnUse" x1="354.1678" y1="24.3519" x2="339.3819" y2="74.3635" gradientTransform="matrix(-1 0 0 -1 428.0128 326)">
				<stop  offset="0" style="stop-color:#313131"/>
				<stop  offset="0.5223" style="stop-color:#9D998C"/>
				<stop  offset="0.5586" style="stop-color:#A4A092"/>
			</linearGradient>
			<path style="fill:url(#SVGID_00000036243348732841632160000016799396669915497147_);" d="M76.4,242c2.2,6.1,3.8,12.5,5.2,18.9
				c1.3,8-3.2,22.1-3.2,22.1c-0.5,3.3,1.8,12,5.8,8.6c1.7-1.3-0.2-3.8-0.2-3.8s3.5,5,6.8,2.7c2.7-1.8-2.7-4.8-2.7-4.8
				s3.8,2.7,5.3-0.2c1.7-3.2-6-4.3-6-4.3c1.3-5.8,2.2-11.6,2.5-17.6c0.3-7.8-2.5-19.9-2.5-19.9L76.4,242z"/>
			<polygon class="st16" points="96.1,91 85.6,85.2 91.2,96.3 			"/>
			<path class="st16" d="M111.5,146.8c0,0,10.5,0.5,11.8,5.7c1.3,5.2,11.3,5,11.3,5c-1.8,4.7-3,9.6-3.3,14.6
				c-0.3,5.8-1.8,15.3-1.8,15.3c-1.2-1.8-2.2-3.8-2.8-5.8c-0.5-2.3-0.7-4.7-0.8-7c0,0-1.5,1.2-3.2,5.7c-0.8-2-2-10.6-2-10.6
				c-0.5,1.7-1.2,3.2-2,4.7c-0.8-4-1.3-8-1.7-12.1l-1.3,5c-1.2-2-2-4-2.7-6.1c-0.8-2.8-1.2-5.7-1.2-8.6L111.5,146.8z"/>
			<path class="st0" d="M134.9,158.9c0,0-21.1-4.7-28.1-6.6c-4.5-1.3-14.1-5.2-25.3-2.5c-10.6,2.7-24.4-2.2-24.4-2.2
				s12.8-12,17.5-21.4s14.6-30.6,23.1-36.4c7.3-4.8,22.6-9.6,34.6-5.3c7.5,2.7,4.5,3.2,4.5,3.2c-4.2-0.5-8.3,0-12.1,1.8
				c-5.2,2.3-21.1,13.8-15.1,36.6c6,22.8,26.9,29.9,26.9,29.9L134.9,158.9z"/>
			<path class="st21" d="M83.4,135.8L83.4,135.8c0-0.8-0.7-1.7-1.8-1.8l0,0c-1,0-1.8,0.8-1.8,1.8s0.8,1.8,1.8,1.8
				C82.6,137.7,83.4,136.8,83.4,135.8"/>
			<path class="st21" d="M92.6,132.4c0-1-0.8-1.8-1.8-1.8l0,0c-1,0-1.8,0.8-1.8,1.8s0.8,1.8,1.8,1.8
				C91.7,134.2,92.6,133.3,92.6,132.4"/>
			<path class="st21" d="M105,137.7L105,137.7c0-1-0.8-1.8-1.8-1.8l0,0c-1,0-1.8,0.8-1.8,1.8s0.8,1.8,1.8,1.8
				C104.2,139.5,105,138.7,105,137.7"/>
			<path class="st21" d="M109.2,146.8c0-1-0.8-1.7-1.8-1.7h-0.2c-1,0.2-1.7,1-1.7,2c0.2,1,1,1.7,2,1.7
				C108.5,148.6,109.2,147.8,109.2,146.8"/>
			<path class="st21" d="M113.7,140L113.7,140c0-1-0.8-1.7-1.8-1.8c-1,0-1.8,0.8-1.8,1.8s0.8,1.8,1.8,1.8
				C112.8,141.8,113.7,141,113.7,140"/>
			<path class="st21" d="M120.8,149.1c0-0.8-0.7-1.7-1.7-1.8H119c-1,0-1.8,0.8-1.8,1.8s0.8,1.8,1.8,1.8
				C120,151,120.8,150.1,120.8,149.1"/>
			<path class="st21" d="M129.5,155L129.5,155c0-1-0.8-1.7-1.8-1.8l0,0c-1,0-1.8,0.8-1.8,1.8s0.8,1.8,1.8,1.8S129.5,156,129.5,155"
				/>
			<path class="st21" d="M105.9,122.2L105.9,122.2c0-1-0.8-1.7-1.8-1.8l0,0c-1,0-1.8,0.8-1.8,1.8s0.8,1.8,1.8,1.8
				C105,124,105.9,123.2,105.9,122.2"/>
			<path class="st21" d="M92.9,121.5c0-1-0.8-1.8-1.8-1.8l0,0c-1,0-1.8,0.8-1.8,1.8s0.8,1.8,1.8,1.8
				C92.1,123.4,92.9,122.5,92.9,121.5"/>
			<path class="st21" d="M89.1,111.2L89.1,111.2c0-1-0.8-1.8-1.8-1.8s-1.8,0.8-1.8,1.8c0,1,0.8,1.8,1.8,1.8S89.1,112.2,89.1,111.2"
				/>
			<path class="st21" d="M101.7,115.6C101.7,115.4,101.7,115.4,101.7,115.6c0-1.2-0.7-1.8-1.8-1.8l0,0c-1,0-1.8,0.8-1.8,1.8
				s0.8,1.8,1.8,1.8C100.9,117.4,101.7,116.6,101.7,115.6"/>
			<path class="st21" d="M101.2,129c0-1-0.7-1.8-1.8-1.8l0,0c-1,0-1.8,0.8-1.8,1.8s0.8,1.8,1.8,1.8C100.4,130.9,101.2,130,101.2,129
				"/>
			<path class="st21" d="M96.2,142.2c0-1-0.8-1.8-1.8-1.8c-0.8,0.2-1.7,0.8-1.7,1.7c0,1,0.7,1.8,1.7,2l0,0
				C95.4,144,96.2,143.2,96.2,142.2"/>
			<path class="st21" d="M85.6,145.6L85.6,145.6c0-1-0.8-1.8-1.8-1.8l0,0c-1,0-1.8,0.8-1.8,1.8s0.8,1.8,1.8,1.8
				C84.8,147.5,85.6,146.6,85.6,145.6"/>
			<path class="st21" d="M72.8,145.6L72.8,145.6c0-1-0.8-1.8-2-1.8c-0.8,0-1.7,0.8-1.7,1.8s0.8,1.8,1.8,1.8
				C72,147.5,72.8,146.6,72.8,145.6"/>
			<path class="st21" d="M74.6,136.5c0-1-0.8-1.8-1.8-1.8l0,0c-1,0-1.8,0.8-1.8,1.8s0.8,1.8,1.8,1.8S74.6,137.5,74.6,136.5"/>
			<path class="st21" d="M97.4,104.9L97.4,104.9c0-1-0.8-1.8-1.8-1.8l0,0c-1,0-1.8,0.8-1.8,1.8s0.8,1.8,1.8,1.8
				C96.6,106.8,97.4,105.9,97.4,104.9"/>
			<path class="st21" d="M101.7,94.1L101.7,94.1c0-1-0.7-1.7-1.8-1.8l0,0c-1,0-1.8,0.8-1.8,1.8s0.8,1.8,1.8,1.8
				C100.9,96,101.7,95.1,101.7,94.1"/>
			<path class="st21" d="M107.2,103.9L107.2,103.9c0-1-0.8-1.8-1.8-1.8s-1.8,0.8-1.8,1.8s0.8,1.8,1.8,1.8S107.2,104.9,107.2,103.9"
				/>
			<path class="st21" d="M110.5,94.1L110.5,94.1c0-1-0.8-1.7-1.8-1.8c-1,0-1.8,0.8-1.8,1.8s0.8,1.8,1.8,1.8
				C109.7,96,110.5,95.1,110.5,94.1"/>
			<path class="st21" d="M117.3,86.3L117.3,86.3c0-1-0.8-1.8-1.8-1.8c-1,0-1.8,0.8-1.8,1.8s0.8,1.8,1.8,1.8
				C116.5,88.1,117.3,87.3,117.3,86.3"/>
			<path class="st21" d="M83.8,123.4L83.8,123.4c0-1-0.8-1.8-1.8-1.8c-0.8,0.2-1.7,0.8-1.7,1.7c0,1,0.7,1.8,1.7,2
				C82.9,125.2,83.8,124.4,83.8,123.4"/>
			<path class="st24" d="M171.7,135.5c-10.6,3-21.9,3.7-32.7,1.7c-12-1.2-11.3-9.3-11.3-9.3"/>
			<path class="st25" d="M138.9,158.8c-0.2-1.8-1.7-3.5-3.7-3.8c-1.5,0-4.5,1.7-4.5,3.8c0,0.8,0.3,1.7,1,2.2c0.8,1,2.2,1.5,3.5,1.7
				C137.3,162.4,138.8,160.8,138.9,158.8"/>
			<path class="st25" d="M134.1,158.8c0.3,4.7,0.3,9.5,0,14.1c-0.7,5.5-8.3,9-8.3,9s-1-8.8,1.5-13
				C129.8,164.8,134.1,158.8,134.1,158.8"/>
		</g>
	</g>
</g>
</svg>
