<svg xmlns="http://www.w3.org/2000/svg" xmlns:xlink="http://www.w3.org/1999/xlink" viewBox="0 0 191.78 196.48"><defs><style>.cls-1,.cls-24,.cls-25,.cls-26,.cls-5{fill:none;}.cls-2{fill:#2fac66;}.cls-3{fill:#f39200;}.cls-4{fill:#fcc700;}.cls-25,.cls-26,.cls-5{stroke:#1d1d1b;}.cls-24,.cls-25,.cls-26,.cls-5{stroke-linecap:round;}.cls-26,.cls-5{stroke-linejoin:round;}.cls-5{stroke-width:0.73px;}.cls-6{fill:#e4d5b8;}.cls-7{fill:#ba2327;}.cls-8{fill:#f3a5c2;}.cls-9{fill:#0d181c;}.cls-10{fill:#4b2c17;}.cls-11{fill:#db7d2d;}.cls-12{fill:#7b421c;}.cls-13{fill:#cb1e2e;}.cls-14{fill:#1d1d1b;}.cls-15{fill:#e52629;}.cls-16{fill:#f7b74d;}.cls-17{fill:#8d5988;}.cls-18{fill:#d78300;}.cls-19{fill:#a4a092;}.cls-20{clip-path:url(#clip-path);}.cls-21{fill:#fff;}.cls-22{fill:#9c6297;}.cls-23{fill:#b780b1;}.cls-24{stroke:#007572;stroke-miterlimit:10;stroke-width:1.5px;}.cls-25{stroke-width:0.85px;}.cls-26{stroke-width:0.55px;}</style><clipPath id="clip-path"><path class="cls-1" d="M48.36,78.8a4.7,4.7,0,0,0,5.1-.24c1.43-1,2.57-4.86,2.22-6.17a5.73,5.73,0,0,1-4.87,2.1c-1.8-.08-3.54-.56-4.51-2.18-.28,3.33.61,5.61,2.06,6.49"/></clipPath></defs><g id="Capa_2" data-name="Capa 2"><g id="Capa_1-2" data-name="Capa 1"><path class="cls-2" d="M32.85,156.1l91.82.07c19.12,0,39.28.38,55.77,13.46,4.91,3.89,9.58,9.25,11.34,16.56a495.11,495.11,0,0,1-171.63,5.13c-5-.73-10.13-1.62-14.32-5.29s-7.07-11-5.29-17.29c2.22-7.88,9.7-9.74,15.92-10.41l17.81-1.9"/><path class="cls-3" d="M111.59,100.74a6.55,6.55,0,0,1,0,.89c-.21,4.3-2,5.61-4.28,7h0a5.87,5.87,0,0,1-2.17.43c-3.57,0-6.45-3.34-6.45-7.46s2.88-7.45,6.45-7.45c3.3,0,6,2.86,6.4,6.56"/><path class="cls-4" d="M111.09,100.74a4.39,4.39,0,0,1,0,.89c-.2,4.3-2,5.61-4.27,7h0a5.87,5.87,0,0,1-2.17.43c-3.57,0-6.45-3.34-6.45-7.46s2.88-7.45,6.45-7.45c3.3,0,6,2.86,6.39,6.56"/><path class="cls-4" d="M103.53,100.14c2,1.56,5.41,3.71-.37,2.58Z"/><path class="cls-5" d="M105.31,99.2c-.65-.17-1.17-.29-1.59-.36-2.25-.41-1.47.32-.19,1.3,2,1.56,5.42,3.71-.37,2.58-.72-.13-1.59-.32-2.62-.58"/><polyline class="cls-5" points="103.86 97.85 103.72 98.84 103.53 100.14 103.16 102.72 102.86 104.76"/><path class="cls-6" d="M110.71,104.34a8.84,8.84,0,0,0,.43-2.71,6.55,6.55,0,0,0,0-.89A31,31,0,0,1,116,103l.15.83a36.12,36.12,0,0,0,2,7.37c.13.32.28.68.45,1-7.5,6.85-8.38,0-8.38,0-3.64,0-1.91-3.48-1.91-3.48a7.37,7.37,0,0,1-1.45-.11c-3.58-.63-4.54-3.72-1.46-3.69a24.73,24.73,0,0,0,5.3-.62"/><path class="cls-7" d="M159.63,72.07h0a.88.88,0,0,0-.07-.29c0-.13-.06-.27-.1-.4l-.33-.4-.33.27c-3-.74-13.46,4-15.15,2.72l-.11.09-7.38-1.38-1,.55-3.54.38c-1.09,5.3-2.75,14.81-3.69,20.58v0c-1.47,8.36-2.47,18.31-2.78,18.46h0c-.9,6.53-1.75,13.21-2.58,20a15.49,15.49,0,0,0,5.64,0c10-1.7,19.66-10.89,35.93-2.7h0c.52.26,1.06.54,1.6.85a1,1,0,0,0,1.54-.9,238.86,238.86,0,0,0-7.61-57.82"/><path class="cls-8" d="M39.5,152.18A55.92,55.92,0,0,1,40,163.69c-.12,1.62-5.07.93-5-.64a47.91,47.91,0,0,0-.61-10.12Z"/><path class="cls-6" d="M39.5,152.18l-5.14.75c-.34-2.4-1.68-4.71-2.53-7,1.69-.34,4.39-.76,6.1-1.24h0a25.64,25.64,0,0,1,1.57,6.61"/><path class="cls-3" d="M74.77,105.19c-.4,0-5.72.76-5.72.76-1.82.19-5.91,2.33-7.15,4.65a12.09,12.09,0,0,0-1.55,5.65v50.53H65v-46.9c.64-5.15-1-9.85,12.22-10.33a35.9,35.9,0,0,1,4.06-.22V105Z"/><path class="cls-3" d="M174.45,42.72c1.3,5.77.05,8.85-2,6.62,2.66,5.25.93,7.49-2.63,3.9,2.31,7-.49,9.24-3.95,3l-1.43-.2A36.16,36.16,0,0,0,167,46.3l.15,0c1.15.31,2.48-.88,3-2.67s-.06-3.48-1.22-3.8a1.8,1.8,0,0,0-1.52.38,55.11,55.11,0,0,0-2.46-14.56c1.31-.36,2.63-.73,3.94-1.12,8.93,12.27,9,21.34,5.63,18.17"/><path class="cls-9" d="M175.27,15c.18,6.18-2.78,8.05-7.47,8.15A27.07,27.07,0,0,1,164,23c-5.81-.65-13.16-2.58-20.34-2.68-6.75-.09-13.35,1.55-18.56,2.19a32.52,32.52,0,0,1-3.37.24c-4.85,0-7.76-1.87-7.19-9.1A2.15,2.15,0,0,1,117.74,12C125.85,16.69,136.38-.7,146.82,0c9.73.67,15.45,17.86,25.39,13.14A2.15,2.15,0,0,1,175.27,15M152,9c1.92,2.12,4.11-1.34,1.32-1.7,1-1.31-2.07-2.49-1.64.55L148.92,9.2c-.38-1.85-1.57-3.2-3-3.2s-2.72,1.51-3,3.52L141.12,8.4c-.18-4.19-3.7-2.34-2.37-.44-3.26-.24-1.64,2.87,1.7,1.59L142.87,11h0a5.49,5.49,0,0,0,.2,1.1h0l-2.61,1.29c-2.79-1.79-5,1-1.9,1.43-.87,2.68,2.33,3.07,2.39-.58l2.48-1.18h0a2.93,2.93,0,0,0,2.51,1.88,2.53,2.53,0,0,0,1.93-1l0,0,2.23,1.22c1.05,4.44,3.14,1.52,1.82.37,2.47-.92-.45-2.61-1.23-1.22L148.51,13h0a6,6,0,0,0,.55-2.53v-.08Z"/><path class="cls-10" d="M173.31,170.19c.24,1.83-2.68,3.27-4.94,2.53l-1.61-4.42,5-1.87Z"/><polygon class="cls-11" points="165.53 151 171.78 166.43 166.76 168.3 161.2 153.02 165.53 151"/><path class="cls-6" d="M168.86,39.85c1.16.32,1.71,2,1.22,3.8s-1.81,3-3,2.67l-.15,0c.1-.74.19-1.5.25-2.27a33.61,33.61,0,0,0,.12-3.8,1.8,1.8,0,0,1,1.52-.38"/><path class="cls-3" d="M167.81,23.2l1,1.35c-1.31.39-2.63.76-3.94,1.12-.28-.9-.58-1.8-.89-2.69a27.13,27.13,0,0,0,3.82.21Z"/><path class="cls-12" d="M167.62,148.91a1.35,1.35,0,0,1-.75,1.46l-1.34.63-4.33,2-.94.44a3.12,3.12,0,0,1-3.62-.68,6.64,6.64,0,0,1-1-1.44,41.6,41.6,0,0,1-2.21-5.71,15.25,15.25,0,0,0-2.92-5.35,6.55,6.55,0,0,0-5.44-2.28,7.21,7.21,0,0,0-5,3.84,41.07,41.07,0,0,0-2.42,6.09,10.85,10.85,0,0,1-3.67,5.32v0c-.75-.08-7.11-.77-9.38-2.3l-.22-.06,0-.09c-1.41-1.11.65-7.09.9-8.1l2.91-10.1c10-1.7,19.66-10.89,35.92-2.7h0Z"/><path class="cls-3" d="M165.9,56.29c.89,4.37-1.58,4.76-3,2.84a23.62,23.62,0,0,0,1.6-3Z"/><path class="cls-6" d="M164.88,25.67c-.28-.9-.58-1.8-.89-2.69-5.81-.65-13.16-2.58-20.34-2.68-6.75-.09-13.35,1.55-18.56,2.19a50.18,50.18,0,0,0-3.38,10.72,38.73,38.73,0,0,0-.55,3.87c-.57,6.37-.52,12.7,1.19,18a17.12,17.12,0,0,0,10.4,11.31,27.92,27.92,0,0,0,9,1.74,33.15,33.15,0,0,0,9.89-.88,19.42,19.42,0,0,0,6.31-2.85,17.71,17.71,0,0,0,4.93-5.23,23.62,23.62,0,0,0,1.6-3A36.16,36.16,0,0,0,167,46.3c.1-.74.19-1.5.25-2.27a33.61,33.61,0,0,0,.12-3.8,55.11,55.11,0,0,0-2.46-14.56M141.36,62.51c-2,5-4.16,5.34-3.52.18-2.51,4.49-5.07,3.68-2.43-1.7a12.51,12.51,0,0,0,2.6.41,19.49,19.49,0,0,0,3.2-.11,28.54,28.54,0,0,0,3.25-.6c-2.12,5.94-3.39,7.77-3.1,1.82"/><path class="cls-13" d="M118.51,112.25c-.18-.33-.32-.69-.46-1a36.68,36.68,0,0,1-2-7.36l-.15-.83a3.4,3.4,0,0,1,.46-2.83,7.69,7.69,0,0,1,2.41-1.72,61.14,61.14,0,0,1,5.57-2.74l3.48-1.54c3.29-1.44,6.57-2.89,9.71-4.64a25.58,25.58,0,0,0,8.62-7.81c.21-.32,2-2.93,2-2.93l2.13-1.71,2.51,1.16a3.48,3.48,0,0,1,.89.82c1.13,1.52.65,3.63,0,5.25a29.41,29.41,0,0,1-4.44,7.36,86.76,86.76,0,0,1-15.63,15.36,54.4,54.4,0,0,1-7.76,5.15l-.87.45h0a8.39,8.39,0,0,1-4.7,1.2,2.5,2.5,0,0,1-1.8-1.63"/><path class="cls-9" d="M151.63,67.21l-8,6.75-.11.09-4.85,7.71-4.61-14.94c2.49,1,4.13,1.11,7.66,1.28a33.46,33.46,0,0,0,9.89-.89"/><path class="cls-14" d="M150.1,35.73a.61.61,0,1,1,0,1.21.61.61,0,0,1,0-1.21"/><path class="cls-14" d="M148.08,8.45a1.1,1.1,0,0,1,.29,1.52,1.11,1.11,0,0,1-1.46.54A1.11,1.11,0,0,1,146.62,9a1.12,1.12,0,0,1,1.46-.53"/><path class="cls-14" d="M145.4,9.09a1,1,0,1,1-1.82.61,1,1,0,1,1,1.82-.61"/><path class="cls-3" d="M144.46,60.69c-2.12,5.94-3.39,7.77-3.1,1.82l-.15-1.22a28.54,28.54,0,0,0,3.25-.6"/><path class="cls-3" d="M141.21,61.29l.15,1.22c-2,5-4.16,5.34-3.52.18L138,61.4a18.45,18.45,0,0,0,3.2-.11"/><path class="cls-3" d="M138,61.4l-.17,1.29c-2.51,4.49-5.06,3.68-2.43-1.7a12.51,12.51,0,0,0,2.6.41"/><path class="cls-9" d="M137.11,32V34.4c0,3.22-1.4,5.7-4.62,5.7l-5.56.12A3.94,3.94,0,0,1,123,36.28V32.2a3.07,3.07,0,0,1,2.88-3.06l7.73-.46a3.3,3.3,0,0,1,3.47,2.85,2.32,2.32,0,0,1,0,.46"/><path class="cls-15" d="M130.71,77.22c-.37.29-1.62,1.23-1.66.65-.2-3,1.94-9.05,5.25-10.72l1.79,5.74-.89.51a57.74,57.74,0,0,0-4.49,3.82"/><path class="cls-9" d="M134,153.3l-5.25,16.89c-.29,1-.29,1.41-1.29,1.46-4.25.24-16.1.79-16.32-2.23-.28-3.73,9.93-6.1,9.93-6.1l3.26-12.39.22.06c2.27,1.53,8.63,2.22,9.38,2.3H134"/><path class="cls-3" d="M121.71,33.21a38.73,38.73,0,0,0-.55,3.87c-.57,6.37-.52,12.7,1.19,18-2.23,3.34-3.67,1.55-4.37-5-3.46,5.44-1.19-4.76-1.19-4.76-3.39,4.22-5,4.76-1-6.61-6.06,5.11-2.07-2.82,5.93-16a30,30,0,0,0,3.37-.24,50.18,50.18,0,0,0-3.38,10.72"/><path class="cls-6" d="M82.29,87.78c5.67-3.27,4.89-.69,4.89-.69,0,1.54-6.42,5.59-13.19,6.25L72.43,86.8a6.49,6.49,0,0,0,1.29-2.08c.29-.69.51-3,.83-3.35.52-.5,1.13,0,1.45.47a3.68,3.68,0,0,1,.39,3.26c1.79-.64,3.11-4.69,4.52-4.13s-.73,4.1-.73,4.1l3.37-3a1.1,1.1,0,0,1,1.88.78c-.05,1.06-.73,2.64-3.14,4.91"/><path class="cls-16" d="M76.12,176.78c.33,2.06-2,4.14-5.16,4.64s-6-.77-6.33-2.83a2.83,2.83,0,0,1,0-.41c.49,1.28,2.59,2,5.11,1.89a9.13,9.13,0,0,0,1-.12c3-.46,5.22-2,5.29-3.57a2.6,2.6,0,0,1,.1.4"/><path class="cls-6" d="M77.4,102.68c-1.1-.29-3.11,0-5.39.52-.44.1-3.21.35-4.13.49v6c.32.24,1,0,1.29.91,1.72,5,3.1,3.27,2.29-1.58,1,5.74,4.62,6.38,2.67-1.43,1.46,5.37,2.76,4.76,3.08,3.68.19-.62.06-1.25-.29-2.83a5.74,5.74,0,0,0-1.49-3.34,4.72,4.72,0,0,0,1.78-.71c1.49-1,.93-1.52.19-1.72"/><path class="cls-17" d="M75.19,94.12c-9.2,3.16-21.38,5.07-27.82,4.2l-.72-.41q1.08-3.7,2.44-7.47h0c8.58.28,16.43-.78,23.32-3.65a23.07,23.07,0,0,1,2.76,7.32"/><path class="cls-4" d="M69.47,175.55l0-.62-.17-.89.51-.09q.34-.06.69-.09c2.68-.21,5,.84,5.54,2.52-.07,1.55-2.32,3.11-5.29,3.57a9.13,9.13,0,0,1-1,.12l0-.81L69.6,178c3.67,0,1.36-.92-.08-1.63Z"/><path class="cls-4" d="M69.52,176.37c1.44.7,3.74,1.61.08,1.62Z"/><path class="cls-4" d="M69.6,178l.06,1.27,0,.81c-2.51.16-4.62-.61-5.11-1.89,0-1.8,2-3.53,4.63-4.13h0l.17.89,0,.62c-1.41,0-.85.37,0,.82Z"/><path class="cls-6" d="M28.75,78a24,24,0,0,1-4.19-6.37A19.64,19.64,0,0,1,23,66.16c0-.3-.07-.61-.09-.91a20.51,20.51,0,0,1,0-3l0,0A36.62,36.62,0,0,1,26.82,58l2.49-.35a7.79,7.79,0,0,0,7.49,7.12c4.17,0,7.55-3.67,7.55-8.19a7.88,7.88,0,0,0-.07-1.09L54.21,54a8.22,8.22,0,0,0,7.9,7.56,7.42,7.42,0,0,0,3.78-1l0,.18c1.63,12.67-2.06,24.58-14.5,26.18L50.37,87s0,0,0,0l0,0a24,24,0,0,1-5.79-.3A28.45,28.45,0,0,1,29.3,78.56c-.19-.19-.37-.38-.55-.58"/><rect class="cls-18" x="60.35" y="166.78" width="4.61" height="4.98"/><path class="cls-6" d="M63.81,52.67a30.64,30.64,0,0,1,2.08,7.89,7.42,7.42,0,0,1-3.78,1A8.22,8.22,0,0,1,54.21,54Zm-.89,4.59a.57.57,0,0,0-.57-.58.58.58,0,0,0-.58.58.57.57,0,0,0,.58.57.56.56,0,0,0,.57-.57"/><path class="cls-6" d="M44.28,55.48l-15,2.16L26.82,58c8.1-7.47,20.26-13.8,22-17h0c6.22.59,10.93,4.1,13.86,9.46a20.09,20.09,0,0,1,1.07,2.24L54.21,54Z"/><path class="cls-14" d="M62.35,56.68a.57.57,0,0,1,.57.58.56.56,0,0,1-.57.57.57.57,0,0,1-.58-.57.58.58,0,0,1,.58-.58"/><path class="cls-19" d="M48.87,41h0c-1.79,3.22-13.95,9.55-22,17a36.62,36.62,0,0,0-3.95,4.21l0,0a20.51,20.51,0,0,0,0,3,4.36,4.36,0,0,0-1.07.1,3.79,3.79,0,0,0-2.45,1.74,23.26,23.26,0,0,1-3.14-12.46c1.51-20.7,20.37-26.73,26.27-21.76,2.73-4.67,20.63,1.58,20.18,17.56C59.8,45.07,55.1,41.56,48.87,41"/><path class="cls-16" d="M60,178.38c.65,2-1.3,4.4-4.35,5.4s-6.06.2-6.71-1.8a1.92,1.92,0,0,1-.09-.4c.68,1.2,2.88,1.62,5.36,1a9.6,9.6,0,0,0,1-.27C58,181.44,60,179.55,59.8,178a1.38,1.38,0,0,1,.16.37"/><path class="cls-4" d="M53.21,178.22l-.13-.62-.3-.84c.15-.07.32-.12.48-.18h0l.62-.18c2.62-.63,5.08,0,5.88,1.61.17,1.55-1.81,3.44-4.65,4.36a9.6,9.6,0,0,1-1,.27l-.19-.78-.26-1.24c3.61-.59,1.2-1.12-.34-1.59Z"/><path class="cls-9" d="M55.68,72.38c.35,1.32-.79,5.19-2.22,6.18a4.7,4.7,0,0,1-5.1.24c-1.45-.88-2.34-3.16-2.06-6.49,1,1.61,2.71,2.1,4.51,2.18a5.72,5.72,0,0,0,4.87-2.11"/><g class="cls-20"><path class="cls-21" d="M53.35,79.86l-1.94.54V77.1a7.67,7.67,0,0,1,1.94,0Z"/><path class="cls-21" d="M50.11,79.73l-2,.26s.3-2.1.46-3.27A7.65,7.65,0,0,1,50.5,77Z"/></g><path class="cls-4" d="M53.72,180.61l.26,1.24.19.78c-2.48.57-4.68.15-5.36-1-.27-1.8,1.4-3.82,4-4.82l.3.84.13.62c-1.4.24-.79.5.17.8Z"/><path class="cls-4" d="M53.38,179c1.54.47,3.95,1,.34,1.59Z"/><path class="cls-22" d="M50.36,87h0c-.45,1.14-.87,2.28-1.28,3.41-.91,2.51-6.57,41.91-2.35,53.39-3,1.13-5.89,2.11-8.81,2.91-1.71.48-3.41.9-5.1,1.24a60.32,60.32,0,0,1-10.22,1.26,48.83,48.83,0,0,1-5.93-.13,45.3,45.3,0,0,1-9.78-1.88C3,118.61,9.51,94.64,28.75,78c.18.2.36.39.55.58,4.14,5.52,8.36,10.37,12.71,13.8l2.56-5.63,1.72,6.08Z"/><path class="cls-23" d="M50.36,87l-4.07,5.78-1.72-6.08a24,24,0,0,0,5.79.3"/><path class="cls-23" d="M44.57,86.73,42,92.36c-4.35-3.43-8.57-8.28-12.71-13.8a28.45,28.45,0,0,0,15.27,8.17"/><path class="cls-6" d="M44.28,55.48a7.88,7.88,0,0,1,.07,1.09c0,4.52-3.38,8.19-7.55,8.19a7.79,7.79,0,0,1-7.49-7.12Zm-3.09,4.36a.73.73,0,1,0-.73.73.73.73,0,0,0,.73-.73"/><path class="cls-14" d="M40.46,59.11a.73.73,0,1,1-.73.73.73.73,0,0,1,.73-.73"/><path class="cls-9" d="M38.36,105.08A1.53,1.53,0,1,1,37,106.6a1.44,1.44,0,0,1,1.33-1.52"/><path class="cls-9" d="M34.7,128.4a1.61,1.61,0,1,1-1.44,1.6,1.53,1.53,0,0,1,1.44-1.6"/><path class="cls-22" d="M32.36,169.75c1.67,1.41-.27,2.1-.27,2.1l-.21.08c-3.08.74-8.93,1.27-12-1.06l-.27,2a7,7,0,0,1-2.66-.49,70.75,70.75,0,0,0,.46-7.26h0a6,6,0,0,0,5.19-.1l9.51,4.55a1.2,1.2,0,0,1,.24.15"/><path class="cls-8" d="M23,154.15a68.51,68.51,0,0,1-.38,10.9,6,6,0,0,1-5.19.1h0a89.19,89.19,0,0,0-.13-10.21h.14Z"/><path class="cls-6" d="M23,154.15l-5.57.78h-.14c-.14-1.95-.34-3.88-.6-5.83a48.83,48.83,0,0,0,5.93.13v0c.19,1.62.31,3.24.38,4.87"/><path class="cls-19" d="M24.56,71.61c0,2.55-3.42,4.31-6.47,4.21-4.29-.14-8.48-3.13-9.52-8.73s1.55-10.77,5.77-11.55a6.05,6.05,0,0,1,3.13.25l.16,0c-.7,3.92,3.31,5.93,5.31,9.44,1,1.75-.14,6.48,1.62,6.36"/><path class="cls-21" d="M69.06,52.07a9.39,9.39,0,0,1,.08,1.19c0,3.28-.77,5.84-3.25,7.3a7.42,7.42,0,0,1-3.78,1A8.22,8.22,0,0,1,54.21,54"/><path class="cls-24" d="M69.06,52.07a9.39,9.39,0,0,1,.08,1.19c0,3.28-.77,5.84-3.25,7.3a7.42,7.42,0,0,1-3.78,1A8.22,8.22,0,0,1,54.21,54"/><path class="cls-21" d="M46.94,55.17s0,0,0,.06A9.77,9.77,0,0,1,47,56.31c0,4.53-3.38,8.2-7.55,8.2A7.8,7.8,0,0,1,32,57.38v-.05"/><path class="cls-24" d="M46.94,55.17s0,0,0,.06A9.64,9.64,0,0,1,47,56.31c0,4.53-3.38,8.19-7.55,8.19A7.79,7.79,0,0,1,32,57.38v-.05"/><path class="cls-25" d="M50.39,58.32A25.79,25.79,0,0,1,57,65.25a1.6,1.6,0,0,1-1.11,2.41l-6.75,1"/><path class="cls-14" d="M41.46,59.73a1,1,0,1,1-2,.21c-.06-.54.12-1.19.67-1.28a1.1,1.1,0,0,1,1.3,1.07"/><path class="cls-14" d="M63.18,57.26c0,.55-.28,1-.83,1a1,1,0,0,1-1-1c0-.54.24-1,.78-1a1,1,0,0,1,1,1"/><path class="cls-9" d="M37.45,118.39a1.32,1.32,0,1,1-1.3-1.53,1.43,1.43,0,0,1,1.3,1.53"/><path class="cls-26" d="M70.49,175.58l-1,0c-1.41,0-.85.37,0,.82,1.44.7,3.75,1.61.08,1.62-.46,0-1,0-1.66,0"/><polyline class="cls-26" points="69.44 174.93 69.47 175.55 69.52 176.37 69.6 177.99 69.66 179.26"/><path class="cls-26" d="M54.21,178.09c-.4,0-.73.08-1,.13-1.4.24-.79.5.17.8,1.54.46,3.95,1,.34,1.59l-1.65.22"/><polyline class="cls-26" points="53.08 177.6 53.21 178.22 53.38 179.02 53.72 180.61 53.98 181.85"/><path class="cls-25" d="M140.93,38.28s-4.84,5.26-6.36,10.82a1.25,1.25,0,0,0,1.52,1.7,27.54,27.54,0,0,0,6.25-1.64"/><path class="cls-25" d="M146.61,54.12a4.21,4.21,0,0,1-5.49,4"/><path class="cls-21" d="M157.51,37.58A5.73,5.73,0,1,0,146.39,35a5.73,5.73,0,1,0,11.12,2.6"/><path class="cls-5" d="M137.11,31.52a228.84,228.84,0,0,0,27.77-5.85c1.31-.36,2.63-.73,3.94-1.12"/><path class="cls-5" d="M121.7,33.21h0l1.28-.1"/><path class="cls-9" d="M145.4,9.09a1,1,0,1,1-1.82.61,1,1,0,1,1,1.82-.61"/><path class="cls-9" d="M148.37,10a1.11,1.11,0,0,1-1.46.54A1.11,1.11,0,0,1,146.62,9a1.12,1.12,0,0,1,1.46-.53,1.1,1.1,0,0,1,.29,1.52"/><path class="cls-9" d="M144.87,12.29h2.3a4.78,4.78,0,0,1-.4,1.31c-.73.87-1.75-.24-1.9-1.31"/><polyline class="cls-24" points="24.56 58.32 26.82 57.99 29.31 57.63 44.28 55.48 54.21 54.04 63.8 52.67 69.1 51.78"/><path class="cls-6" d="M20.53,67.09A3.79,3.79,0,0,1,23,65.35a4.36,4.36,0,0,1,1.07-.1c0,.3.05.61.09.91a19.64,19.64,0,0,0,1.53,5.45,4,4,0,0,1-1.17.47,4.28,4.28,0,0,1-.61.09,3.54,3.54,0,0,1-3.76-2.63,3.36,3.36,0,0,1,.4-2.45"/><path class="cls-23" d="M44.55,106.54a36.52,36.52,0,0,1-8.09-5.18c-1.87-1.59-4.26-3.71-4.63-6.29a3.52,3.52,0,0,1,4.09-4c2,.35,3.77,1.8,5.29,3a43.13,43.13,0,0,0,5.44,3.8l.72.41a38.09,38.09,0,0,0,20.27,4.93h.24v6.44c0,.2.06.39.08.57l-.54.11a44.08,44.08,0,0,1-5.52.22,43.45,43.45,0,0,1-17.35-4.06"/><path class="cls-22" d="M39.89,163.69s10.16,4.49,9.13,6.11c-1.82,2.83-9.34.12-12-.93l-.36,2.06H34.15l.76-7.88a7.28,7.28,0,0,0,5,.64"/><path class="cls-15" d="M159.73,69.24a2.48,2.48,0,0,1-.6,1.73s-4.27,3.78-5.94,5.46L148.62,81c-.3-3.24-3-5.5-5-7l8-6.75a19.42,19.42,0,0,0,6.31-2.85Z"/><path class="cls-14" d="M151.1,36.34a1,1,0,0,1-1,1,1,1,0,0,1-1-1,1.18,1.18,0,0,1,1.06-1.14,1,1,0,0,1,.92,1.14"/></g></g></svg>