<svg xmlns="http://www.w3.org/2000/svg" viewBox="0 0 156.52 201.53"><defs><style>.cls-1{fill:#db7a1c;}.cls-2{fill:#fcc700;}.cls-3{fill:#e4d5b8;}.cls-4{fill:#2fac66;}.cls-5{fill:#b91919;}.cls-6{fill:#9c6297;}.cls-7{fill:#e52629;}.cls-8{fill:#e30613;}.cls-9{fill:#d3d2c2;}.cls-10{fill:#ffde00;}.cls-11{fill:#f6b6cd;}.cls-12{fill:#0d181c;}.cls-13{fill:#80597f;}.cls-14,.cls-15,.cls-16{fill:none;stroke-linecap:round;}.cls-14{stroke:#1d1d1b;stroke-width:0.85px;}.cls-15{stroke:#f39200;}.cls-15,.cls-16{stroke-linejoin:round;stroke-width:0.75px;}.cls-16{stroke:#fcc700;}.cls-17{fill:#fff;}.cls-18{fill:#1d1d1b;}</style></defs><g id="Capa_2" data-name="Capa 2"><g id="Capa_1-2" data-name="Capa 1"><path class="cls-1" d="M65.67,120l-9.38-7.65L31.58,92.17,4.3,70a2.62,2.62,0,0,0-1.66-.59A2.64,2.64,0,0,0,1,74.11l53.12,43.22,11.22,9.14h0L97.86,153l.09-.12,3.19-4Z"/><path class="cls-2" d="M153.06,177.26c-3.38-3.35-7.93-7.33-10-9.14h0l-1.12-1,0,.05c-2.76-2.2-9.36-7.48-10.11-8a18,18,0,0,0-7.53-3.4,12.08,12.08,0,0,0-10.63,3.47,14.64,14.64,0,0,0-4.35,10.79c.18,5.6,13.53,16.92,17.5,20.22h0l1.14,1,8.36,7.26c.93.81,1.83,1.65,2.8,2.43,2.84,2.27.13-3,.13-3l3.11,1.32a1,1,0,0,0,1.33-1.27l-1.8-4.38,3.62,1.86a.88.88,0,0,0,1.09-1.2l-2.64-4.62,5.07,2.23a.56.56,0,0,0,.68-.82l-4-5.94,5.18,2.45a.75.75,0,0,0,.94-1.06l-2.16-2.71,4,1.62a.57.57,0,0,0,.64-.87l-3.49-4.33,4.32,1.94c.66.29,1,.67,1.45.08.28-.4-.64-2.56-3.41-5"/><path class="cls-3" d="M54.81,88.8c.4,2.36,1.42,3.86,2.61,6.25-2.7,3.07-17.51,1.83-19.41,2.36l-4.43-3.6a2,2,0,0,0-.64-1.29h0C31.71,91,31.44,91,31.41,89.37a1,1,0,0,1,1.61-.9s3.08,3,4.31,3.22c5.83,1.21,11.93,1.13,16.2-.81,1-.44,1.14-2.06,1.14-2.06Z"/><path class="cls-4" d="M136.54,162.89c1.79,1.41,3.58,2.85,5.37,4.28A94.11,94.11,0,0,1,126,189.63c-1.9-1.65-3.79-3.3-5.7-4.93a78.08,78.08,0,0,0,16.22-21.81"/><path class="cls-5" d="M134.39,161.2c.72.55,1.44,1.12,2.15,1.69a78.08,78.08,0,0,1-16.22,21.81c-.73-.64-1.47-1.26-2.22-1.88a88,88,0,0,0,16.29-21.62"/><path class="cls-6" d="M125.09,5.73c-7-.13-14.6.45-19.16,5.78-4,4.66-7.6,15.47-9.76,19l-.09-.18c-3.76-7.4-16.14-17.29-19-17.41A60.68,60.68,0,0,1,90.54,4.21a54.36,54.36,0,0,1,12-3.91c8.37-1.48,14.48,2.85,22.57,5.43"/><path class="cls-4" d="M101.14,148.86l12.47,10.4a14.31,14.31,0,0,0-3,4.3l-.18-.09L97.86,153l.09-.12Z"/><path class="cls-2" d="M106.24,71.32l-7.43-5.54a42.09,42.09,0,0,0,8,19.22c-.37-.33-6.22-5.66-8.41-10.41,0,0,.88,8,5.41,14.08A30,30,0,0,1,93.29,78.36a54.28,54.28,0,0,0,1.5,11.06,39.6,39.6,0,0,1-6.53-9.68,28.8,28.8,0,0,0,1.88,10.81,10.21,10.21,0,0,1-2.58-3.26c-.4-1.26-.83-2.55-1.3-3.89a.76.76,0,0,0-1-.45L81.3,69.5a2,2,0,0,0,.42-1.23,2,2,0,0,0-1.25-1.88,29.11,29.11,0,0,0,3.74-4.63l.19.12A2.74,2.74,0,0,0,86.08,63a2.5,2.5,0,1,0,1.11-4.87,2.92,2.92,0,0,0-.93-.06,37.21,37.21,0,0,0,2-5.18c.24-.75.43-1.5.6-2.24a29.19,29.19,0,0,0,2.69,4.68,17,17,0,0,1,1-7.06q3.25,3.28,6.83,6.74c.06.79.89,10.26,6.79,16.29"/><path class="cls-6" d="M92.62,48.29l-3-3-2.86-2.91-3.53-3.56c-.87-.88-1.73-1.73-2.59-2.57C78.39,34,76.19,31.9,74,29.94a96.18,96.18,0,0,0-8.31-6.75c-.46-.32-.91-.64-1.37-.94-1-.7-2.08-1.36-3.13-2A41.76,41.76,0,0,0,43.51,14.5L69.4,15.76c9.77,3.48,18,11.73,25.64,22.12l6.12,17.6a.45.45,0,0,1-.74.48l-1-.93q-3.57-3.45-6.83-6.74"/><path class="cls-7" d="M96.08,30.27a1.14,1.14,0,0,0,.1.19L95,37.88C87.44,27.49,79.17,19.24,69.4,15.76c0,0,4.78-3,7.67-2.89s15.25,10,19,17.4"/><path class="cls-6" d="M81.32,132.71l-2.18-.59-10.39-2.85-1.86-.51c.11-.25.23-.49.32-.73a17.15,17.15,0,0,0,1.52-5.58C69,118.87,67,118,65.67,120l-9.38-7.65a32.75,32.75,0,0,1,2.53-3.78l0,0c9.66,3.94,21.06,4.57,34,2.33.64,13.31-6.33,14.49-11.23,21.89Z"/><path class="cls-2" d="M92.62,48.29a17,17,0,0,0-1,7.06,29.19,29.19,0,0,1-2.69-4.68,28.42,28.42,0,0,0,.72-5.39l3,3"/><path class="cls-8" d="M77.25,166.06c-.23-1-.47-2.07-.71-3.08.37-.5.52-1,.32-1.25a.41.41,0,0,0-.21-.15l0,0a2.13,2.13,0,0,0-.22-.18l7.51-3.73q2.58,6.13,6.36,13.49L85.93,174,84.1,171.2a1,1,0,0,0-1.61,0c-2.12,3.1-7.92,11-10.51,9-3.21-2.45,5.66-12.25,5.66-12.25q-.18-.94-.39-1.86"/><path class="cls-3" d="M87.19,58.15A2.5,2.5,0,1,1,86.08,63a2.74,2.74,0,0,1-1.68-1.14l-.19-.12a33.14,33.14,0,0,0,2.05-3.67,2.92,2.92,0,0,1,.93.06"/><path class="cls-3" d="M86.26,58.09a33.14,33.14,0,0,1-2.05,3.67,28.67,28.67,0,0,1-3.74,4.63,2.23,2.23,0,0,0-.52-.15h0a2.54,2.54,0,0,0-1.81.69,2.06,2.06,0,0,0-.5,1.35A2,2,0,0,0,78,69.43l-.13.1a2,2,0,0,0-3.57,1.28,2,2,0,0,0,.35,1.13,2.28,2.28,0,0,0-4.07.9,2,2,0,0,0-3.82.76.76.76,0,0,0,0,.15h-.08a1.89,1.89,0,0,0-1.88-1.69A1.87,1.87,0,0,0,63,73.48a1.79,1.79,0,0,0-2.94-1.3C51,69.83,44.06,61.9,43.93,52.35c-.06-4.06.36-6.12,1.59-10.57A29.38,29.38,0,0,1,64.33,22.25c.46.3.91.62,1.37.94,0,0,1.48,9.48,5.8,14.69l1.31-6.1a31.75,31.75,0,0,0,6.87,10l.2-4.24a20.74,20.74,0,0,0,1.81,4.24,27.15,27.15,0,0,0,1.84,2.92l2.28,3,1.07,1.28s.56-3.14.62-2.95a18,18,0,0,0,1.4,4.68c-.17.74-.36,1.49-.6,2.24a37.21,37.21,0,0,1-2,5.18"/><path class="cls-3" d="M85.81,47.66l-2.06.09a4.76,4.76,0,0,0-.86-2.56l0,0,.61-.47c.74,1,1.51,2,2.28,3"/><path class="cls-3" d="M59.73,75.1c0-.17,0-.33,0-.5A1.79,1.79,0,0,0,62.93,74a1.89,1.89,0,0,0,3.77,0,1.28,1.28,0,0,0,0-.19h.08a2,2,0,0,0,3.9.3,2.28,2.28,0,1,0,4-2,2,2,0,0,0,3.63-1.2,2,2,0,0,0-.46-1.28l.13-.1a2.06,2.06,0,0,0,1.68.88,2,2,0,0,0,1.62-.81L85.22,83c-2.79,1.38-9.5.85-13.29.44S64.5,82.32,60.67,86A8.25,8.25,0,0,0,58,82.13a19.82,19.82,0,0,0,.76-2,19.54,19.54,0,0,0,1-5"/><path class="cls-9" d="M83.91,157.64l-7,3.46a54,54,0,0,1-2.57-5.89c2.92-.37,5.48-.93,7.42-3,.55,1.44,1.46,3.81,2.11,5.38"/><path class="cls-10" d="M86.76,42.37,83.23,38.8c-.87-.87-1.73-1.72-2.59-2.56l-.76,1.3a20.74,20.74,0,0,0,1.81,4.24,27.15,27.15,0,0,0,1.84,2.92c.74,1,1.51,2,2.28,3l1.07,1.28s.56-3.14.62-3a18,18,0,0,0,1.4,4.69,29.25,29.25,0,0,0,.72-5.39l-2.86-2.91"/><path class="cls-11" d="M82.16,62.23a4.71,4.71,0,0,1-2.21,4h-.27a2.08,2.08,0,0,0-1.54.69l0,0a4.91,4.91,0,0,1-.67,0,4.71,4.71,0,1,1,4.71-4.72"/><path class="cls-2" d="M80.64,36.24s-.51,1.54-.57,1.91c-.24,1.45-.39,3.63-.39,3.63a31.75,31.75,0,0,1-6.87-10L74,29.94c2.18,2,4.38,4.07,6.63,6.3"/><path class="cls-7" d="M80.3,147.72c.51,1.7.8,2.64,1.5,4.54-1.94,2-4.5,2.58-7.42,3-.62-2.12-1-3.77-1.64-5.75a19.43,19.43,0,0,0,7.56-1.74"/><path class="cls-9" d="M70.35,129.71l8.79,2.41a12.79,12.79,0,0,0-.68,3.53h-.07a29.86,29.86,0,0,1-8.48,1.19,53.13,53.13,0,0,1,.44-7.13"/><path class="cls-9" d="M78.85,141.66a54,54,0,0,0,1.45,6.06c-2.87,1.74-4.78,1.53-7.56,1.74-.82-2.72-1.34-4.21-1.9-6.73a26.13,26.13,0,0,0,8-1.07"/><path class="cls-7" d="M78.39,135.65h.07c0,.49,0,1,0,1.55a29.87,29.87,0,0,0,.43,4.46,26.45,26.45,0,0,1-8,1.08,42.86,42.86,0,0,1-.93-5.9,29.86,29.86,0,0,0,8.48-1.19"/><path class="cls-10" d="M74,29.94s-.82,1.75-1,2.26a53.15,53.15,0,0,0-1.48,5.68c-4.32-5.21-5.8-14.69-5.8-14.69A96.18,96.18,0,0,1,74,29.94"/><path class="cls-12" d="M87.56,87.29c-.4-1.26-.83-2.55-1.3-3.89a.76.76,0,0,0-1-.45c-2.79,1.38-12,.44-14.47.22h0c-3.39-.55-6.65-.47-10.08,2.81A8.25,8.25,0,0,0,58,82.13a8,8,0,0,0-1.11-.76c-2.06,2.88-2.47,5.25-2.08,7.43.4,2.36,1.75,4.51,2.94,6.9a19.59,19.59,0,0,1,1.79,4.66,23.57,23.57,0,0,1-.09,6.35,6.85,6.85,0,0,1-.48,1.63l-.15.19,0,0c9.66,3.94,21.06,4.57,34,2.33C92.55,105.46,91,98,87.56,87.29"/><path class="cls-8" d="M58.89,165.76a15,15,0,0,0,.73-1.82,13.16,13.16,0,0,0,.62-3.13l6.49-1.24c.69,4.22,1.49,8.67,2.42,13.31L65.67,175l-1.44-3.21a.93.93,0,0,0-1.4-.37c-2.6,1.92-9.43,6.65-11.27,4.34-2.3-2.85,5.65-7.3,5.65-7.3a15.85,15.85,0,0,0,1.68-2.72"/><path class="cls-9" d="M66.73,159.57l-6.49,1.24a.32.32,0,0,1,0-.09q-.95-3.28-1.65-6.44a10.94,10.94,0,0,0,7.36,0c.25,1.71.52,3.48.81,5.29"/><path class="cls-6" d="M54.09,117.33l11.22,9.14a80,80,0,0,1-8.84-1c-1.08-.23-2.25-.45-3.53-.63a24.66,24.66,0,0,1,1.15-7.47"/><path class="cls-7" d="M65.09,147.72c.23,2.11.51,4.29.83,6.56a10.94,10.94,0,0,1-7.36,0c-.41-1.74-.75-3.45-1.05-5.13,2.71.41,4.69.45,7.58-1.43"/><path class="cls-9" d="M64.57,142.19c.13,1.78.3,3.61.52,5.53a8.47,8.47,0,0,1-7.58,1.43q-.52-2.91-.84-5.72,3.94,2.08,7.9-1.24"/><path class="cls-7" d="M64.79,126.42c-.19,1.38-.39,3.12-.47,4.74h-.07a14.08,14.08,0,0,1-8.12.44h-.05c0-2.1.18-4.15.39-6.16a72.7,72.7,0,0,0,8.32,1"/><path class="cls-9" d="M64.25,131.15h.07c0,1.17-.08,2.41-.07,3.7a8.76,8.76,0,0,1-8.12,2c-.07-1.78-.09-3.53-.05-5.25h.05a14.08,14.08,0,0,0,8.12-.44"/><path class="cls-7" d="M64.25,134.86c0,2.28.12,4.73.31,7.33q-3.95,3.31-7.89,1.24c-.27-2.25-.45-4.44-.54-6.59a8.76,8.76,0,0,0,8.12-2"/><path class="cls-2" d="M43.93,52.35A21.75,21.75,0,0,0,60.05,72.18a1.77,1.77,0,0,0-.64,1.37,1.74,1.74,0,0,0,.34,1c0,.17,0,.33,0,.5a15.08,15.08,0,0,0-3.15-2.65c.88,2.7.36,5.22,1.39,7.41-3.28-.24-3.65-6-6.67-6.91a12.79,12.79,0,0,1,.56,6.91,28.63,28.63,0,0,1-6.53-9.11l-.5,5.08a58.68,58.68,0,0,1-4.71-15.76L37.85,65c-1.2-19.23,4.63-32.28,16-40.44a45.36,45.36,0,0,1,7.31-4.24c1,.6,2.1,1.26,3.13,2C56.22,24.7,48.86,32.53,45.52,41.78c-.17.47-.34,1-.49,1.44a25.14,25.14,0,0,0-1.1,9.13"/><path class="cls-8" d="M62.56,63.19h0A3.44,3.44,0,0,1,62,60.93a.33.33,0,0,0-.56-.25L60,62a.28.28,0,0,1-.47-.18L59.39,60a.33.33,0,0,0-.6-.15A2.68,2.68,0,0,1,56,61.15a3.58,3.58,0,0,1,.36,1.55,2.66,2.66,0,0,0,4.81,2.15,5.72,5.72,0,0,1,1.44-1.66"/><path class="cls-13" d="M61.2,20.29a45.36,45.36,0,0,0-7.31,4.24l-.2-.29c-5.86-4.18-9.08-7.37-10.18-9.74A41.76,41.76,0,0,1,61.2,20.29"/><path class="cls-11" d="M45.52,41.78a6.07,6.07,0,0,1-1.59,10.57A25.14,25.14,0,0,1,45,43.22c.15-.48.32-1,.49-1.44"/><path class="cls-14" d="M63.31,54.83c-2.27.76-5.28-1.69-5-6.22,2.32.69,5.32.42,6.93-.84"/><path class="cls-14" d="M55.76,60.82l.19.33a8.41,8.41,0,0,0,.7,1,4,4,0,0,0,4.63,1.55,7.06,7.06,0,0,0,1.28-.54,11.16,11.16,0,0,0,1.18-.73"/><line class="cls-14" x1="58.28" y1="30.54" x2="58.15" y2="34.31"/><line class="cls-14" x1="62.49" y1="31.6" x2="60.85" y2="34.36"/><line class="cls-14" x1="65.32" y1="35.74" x2="63.06" y2="37.12"/><polyline class="cls-14" points="82.29 40.7 81.38 42.34 80.53 43.84"/><polyline class="cls-14" points="82.92 45.17 83.53 44.7 85.75 43.03"/><polyline class="cls-14" points="86.56 47.62 85.81 47.66 83.75 47.75 83.73 47.75"/><line class="cls-15" x1="143.03" y1="175.63" x2="147.18" y2="177.77"/><line class="cls-15" x1="138.76" y1="180.41" x2="144.29" y2="184.7"/><line class="cls-15" x1="132.6" y1="188.57" x2="138.76" y2="193.98"/><path class="cls-16" d="M77.25,167.11a6.19,6.19,0,0,0,4.12-1"/><path class="cls-16" d="M76.82,165.31a5.94,5.94,0,0,0,3.48-1.41"/><path class="cls-16" d="M59.62,163.94a5.53,5.53,0,0,0,3.57-.05"/><path class="cls-16" d="M58.89,165.76a3.72,3.72,0,0,0,3.76,1.06"/><path class="cls-16" d="M60.15,160.6c0,.57-1.35,1-3,1h-.21c-1.56,0-2.78-.47-2.78-1s1.34-1,3-1S60.15,160,60.15,160.6Z"/><path class="cls-16" d="M60.15,160.6a.45.45,0,0,1,.06.12c.14.52-.65,1.57-1.9,2.46s-2.7,1.36-3,.89.43-1.52,1.67-2.45l.17-.12C58.46,160.53,59.82,160.14,60.15,160.6Z"/><path class="cls-16" d="M76.16,161.5a1.1,1.1,0,0,1,.46.05"/><path class="cls-16" d="M76.65,161.57a.49.49,0,0,1,.21.16c.2.28.06.75-.32,1.25a5.21,5.21,0,0,1-1.1,1c-1.1.78-2.28,1-2.61.55s.31-1.49,1.41-2.27h0a4.05,4.05,0,0,1,1.89-.77"/><path class="cls-16" d="M76.65,161.57a.46.46,0,0,1,.16.4c0,.15-.18.27-.44.34a4.87,4.87,0,0,1-2.11,0h0c-1.33-.27-2.33-.85-2.25-1.28s1.24-.58,2.57-.31a6.77,6.77,0,0,1,1.52.5l.32.19a2.13,2.13,0,0,1,.22.18Z"/><path class="cls-17" d="M63,38.15a4.39,4.39,0,0,1-4.39,4.38,4.06,4.06,0,0,1-4-4.33,4.14,4.14,0,0,1,4-4.43A4.39,4.39,0,0,1,63,38.15"/><path class="cls-17" d="M83.8,47.75a2.09,2.09,0,0,1,0,.25c0,2.71-1.65,5.26-4.9,5.26a4.73,4.73,0,0,1-4.63-5c0-2.7,1.92-5.19,4.63-5.19a4.92,4.92,0,0,1,4,2.09,4.85,4.85,0,0,1,.87,2.56"/><path class="cls-3" d="M38.19,104.77c-.18-.89.78-1.87.78-1.87-1.65-.13-1.89-2.57.89-3.36L41.77,99c-3.7-2.31-1.05-5.4,2.93-1.66.94.88,3.35,2.59,3.52,3a27,27,0,0,0,10.61.23,26.7,26.7,0,0,0,4.79-1.37,4.36,4.36,0,0,0,2.1-1.72A31.57,31.57,0,0,0,70,86.94a13,13,0,0,1,1.14-3.55,5.1,5.1,0,0,1,.6-.86,2.73,2.73,0,0,1,4.41.47,3.94,3.94,0,0,1,.5,1.34h0a12.18,12.18,0,0,1-.29,4.71,30.18,30.18,0,0,1-5.73,12.38,11.31,11.31,0,0,1-5.58,3.9,36.79,36.79,0,0,1-6.4,1.38,68.9,68.9,0,0,1-9.77.15l-1,.21-2.6,1a5.15,5.15,0,0,1-2.22.87,2.06,2.06,0,0,1-2.22-1.8,0,0,0,0,1,0,0,3.91,3.91,0,0,1-.13-.81c-.31,0-2.36-.7-2.54-1.58"/><path class="cls-3" d="M31.62,95a8.21,8.21,0,0,1,3.21-.36,1,1,0,0,1,1,1.08c-.2.79-1.7.95-2.19,1.19,0,0,.84-.07,1.12-.07,3.68.13,3.71,2.88-1.29,3.44h0s-3.45.2-4.61-1.42a10.39,10.39,0,0,1-1.69-3.79c-.27-1,1-2.21,2.83-2.72a5.7,5.7,0,0,1,1.81-.22,3,3,0,0,1,1.37.34,1.19,1.19,0,0,1,.65.75.83.83,0,0,1,0,.54c-.2.54-1,.89-2.15,1.23m-.54.11.29-.09c-.1,0-.19.06-.29.09"/><path class="cls-18" d="M60.2,38.9a.85.85,0,1,1-.85-.85.85.85,0,0,1,.85.85"/><path class="cls-18" d="M81.19,48.63a.94.94,0,1,1-.94-.94,1,1,0,0,1,.94.94"/></g></g></svg>