<svg xmlns="http://www.w3.org/2000/svg" viewBox="0 0 185.7 208.22"><defs><style>.cls-1{fill:#2fac66;}.cls-2{fill:#007572;}.cls-3{fill:#3caf73;}.cls-4{fill:#fff;}.cls-5{fill:#0d181c;}.cls-18,.cls-6{fill:none;stroke-linecap:round;stroke-width:0.67px;}.cls-6{stroke:#0d181c;}.cls-7{fill:#1d1d1b;}.cls-8{fill:#f39200;}.cls-9{fill:#9c6297;}.cls-10{fill:#cbbea5;}.cls-11{fill:#db7d2d;}.cls-12{fill:#fab415;}.cls-13{fill:#a4659e;}.cls-14{fill:#b780b1;}.cls-15{fill:#ba2327;}.cls-16{fill:#e4d5b8;}.cls-17{fill:#814114;}.cls-18{stroke:#1d1d1b;stroke-linejoin:round;}</style></defs><g id="Capa_2" data-name="Capa 2"><g id="Capa_1-2" data-name="Capa 1"><path class="cls-1" d="M151.05,171.72a187.16,187.16,0,0,1-18.29-4.95c-8.24-2.56-11.35-3.25-23-2.25-2.63.22-8.41.95-11.06.62-2.82-.35-10.3,1.56-12.94.14-7.35-4-20.88-.26-28.74-.14-11.52.18-17.73-3.23-28.87.91A50,50,0,0,0,0,192.42c0,9.58,2.89,6.91,11.8,8.87C22.45,203.63,48,203,58.74,204.8c19.46,3.28,39.17,4.78,58.66,1.84a140.29,140.29,0,0,0,43.95-14.56c2-1,4.25-2.68,4.38-5.64a8.47,8.47,0,0,0-.87-3.78c-3-6.87-8.22-12.68-13.81-10.94"/><path class="cls-2" d="M85.09,62.18a2.92,2.92,0,1,1-1.21,3.94,2.93,2.93,0,0,1,1.21-3.94"/><path class="cls-2" d="M77.61,66.23a2.27,2.27,0,1,1,2.12,4,2.27,2.27,0,0,1-2.12-4"/><path class="cls-2" d="M93.37,54.63a3.81,3.81,0,1,1-1.59,5.14,3.8,3.8,0,0,1,1.59-5.14"/><path class="cls-2" d="M170.22,38.87c4.77,19.68-8.77,33.34-12.3,36.35l.1.12c-8.27,6.62-19.53,10-30.48,6.83-4-1.17-12.74-4.45-18-10.7a35.39,35.39,0,0,1-8.35-31.39c0-.23.1-.46.15-.69.27-1.13.6-2.24,1-3.33a35.44,35.44,0,0,1,22-21.93,35.48,35.48,0,0,1,38.52,10.49,36,36,0,0,1,7.45,14.25"/><path class="cls-2" d="M126.42,3.63c.94,3.12,2.19,7.32,2.75,9.19a35,35,0,0,0-4.92,1.31l-1.31-9.37Z"/><path class="cls-3" d="M167.17,50.3c1.26.29,2.65,1.18,4,.58h0a35.84,35.84,0,0,1-.84,5.06,35.36,35.36,0,0,1-2.33,6.7A37.61,37.61,0,0,1,166.22,66h0A35.23,35.23,0,0,1,158,75.34l-.1-.12a2.32,2.32,0,0,1-1.47-1.72,8.49,8.49,0,0,0-1.1-2.41,3.41,3.41,0,0,1-.33-3.94,3.17,3.17,0,0,1,1.42-1.22c.54-.24,1.2-.36,1.5-.94.53-1-.59-2.24-.36-3.34s2.1-2,1.52-3.34c-.29-.68-1.21-.52-1.63-1.12a2.64,2.64,0,0,1-.4-1.67,4,4,0,0,1,2.2-3.1c1.38-.74,2.82-.63,4.3-.94.75-.16,1.05-.81,1.72-1.12a3,3,0,0,1,1.88-.06"/><path class="cls-3" d="M178.87,23.93,168.53,34a35.86,35.86,0,0,0-3.06-5.74c.23-.19,5-4,9.79-7.55a4.67,4.67,0,0,1,.53-.34Z"/><path class="cls-3" d="M141.43,15.72c.35.15.13-.05.25.24a1.75,1.75,0,0,1,0,.56,5.12,5.12,0,0,1-.15,1,8.67,8.67,0,0,1-.74,2,12,12,0,0,0-1.63,4.59c-.14,1.64,0,3.31-.74,4.85-.3.67-.72,1.3-1.08,1.95a5.14,5.14,0,0,0-.76,2.3c-.05,1.5.56,3,.77,4.5s.31,2.82.43,4.23c.18,2.17.17,5-2.49,5.5-1.47.28-3,0-4.26.9a3.77,3.77,0,0,0-1.53,3.36,13.7,13.7,0,0,0,1.12,3.4,6.5,6.5,0,0,1,.44,1.8,14.6,14.6,0,0,1-.28,2.45A5,5,0,0,0,132,63.27c.79.91,2.26,1.31,2.75,2.48.56,1.37-.7,2.6-1.22,3.77-.7,1.54-.6,3.32-1.26,4.88A3.56,3.56,0,0,1,131,76.09c-.57.37-1.24.51-1.69,1.06s-.67,1.09-1.36,1.4-1.25.38-1.86.59c-.9.3-2.13.88-2.07,2a35,35,0,0,1-14.46-9.64,10.46,10.46,0,0,0-.94-4.22,19.2,19.2,0,0,1-1.7-3.86,2.94,2.94,0,0,1,1.43-3.31c1.1-.59,2.46-.83,2.83-2.21.19-.69.11-1.42.28-2.12a3.66,3.66,0,0,1,1.31-2c1.25-.95,2.83-.6,4.19-1.28a6.28,6.28,0,0,0,2.93-3c.53-1,2.18-1.16,2.11-2.43s-1.38-2.17-2.46-2.65c-1.41-.62-3-.87-4.13-1.95a19.86,19.86,0,0,1-2.71-2.94,3.25,3.25,0,0,1-.3-3.5,3.86,3.86,0,0,1,3.15-1.87,3.42,3.42,0,0,0,3-2.11,5.39,5.39,0,0,0,.36-1.95c0-.56-.3-1.33.38-1.54s1.17.07,1.74-.07a3.28,3.28,0,0,0,1.73-1.38,4.9,4.9,0,0,1,1.16-1.28c.58-.32,1.37.11,2,.06a5.38,5.38,0,0,0,3.8-2c.76-1,.85-2.59,2.44-2.28,1.24.24,2.15.69,2.91-.67a12.3,12.3,0,0,1,2.76-3.38c.92-.82,2.2-2.52,3.64-1.87"/><path class="cls-4" d="M148.52,58.67a5,5,0,1,1-6.55,1.7,4.79,4.79,0,0,1,6.55-1.7"/><path class="cls-4" d="M123.33,51.46c2.25.94,3.33,3.71,2.16,6.55s-3.73,3.86-6,2.93-3.13-4-2-6.84,3.51-3.57,5.77-2.64"/><path class="cls-2" d="M89.92,30.22c.21-1.21,3-1,3-1s-3.05-2.33-1.44-3.56c1.1-.85,3.15,1.8,3.35,2.08-.19-.32-2.15-3.49-.42-3.71s2.2,5.62,2.2,5.62l5.67,6.38h0a33.4,33.4,0,0,0-1,3.32c0,.23-.11.46-.15.69h0l-7.3-8.47s-4.16-.19-4-1.39"/><path class="cls-5" d="M175.79,20.32c1.22-.69,2.2-1.91,3.44-1.54,3.73,1.11,7.28,7,6.3,8.54-1.66,2.59-6.66-3.39-6.66-3.39Z"/><path class="cls-3" d="M165.47,28.21a36.19,36.19,0,0,1,3.06,5.73,32,32,0,0,1,1.13,3.1l-.11,0a1.49,1.49,0,0,0-1.5.78c-.29.53-.23,1-.93,1.08-.49.08-1-.1-1.48.18s-.72.87-1.33,1.12a2.65,2.65,0,0,1-2.55-.32,3.34,3.34,0,0,1-.91-1.39,6.43,6.43,0,0,0-.9-1.4,4.24,4.24,0,0,1-.76-1.67,7,7,0,0,1-.14-.92c0-.19,0-.68-.07-.82-.24-.35-1.25,0-1.64-.67-.29-.48-.05-.86.4-1.1s1-.39.84-1.06-.79-.77-1.31-.9-1.21-.27-1.46-.84.23-.94.65-1.26a20.67,20.67,0,0,0,3-2.69c.46-.51.7-.82,1.43-.76s1.26.11,1.88.18a33.67,33.67,0,0,1,2.7,3.59"/><path class="cls-3" d="M181.16,60.55s2.51-2.77,3.61-1.57-2.57,3.86-2.57,3.86,3.07.44,2.32,2.35-4.58-1.1-4.58-1.1L166.22,66A37.61,37.61,0,0,0,168,62.65c.53.15,10.08-.71,10.08-.71s1.52-4.69,2.55-4.44.55,3,.55,3"/><path class="cls-5" d="M126.42,3.63l-3.48,1.13s-8.19,3.82-9.25-.23c-.82-3.18,6-4,9.85-4.51a2,2,0,0,1,2.21,1.42c.19.62.42,1.36.67,2.19"/><path class="cls-6" d="M132.76,33.17c.47-2,2.93-3,4.81-3.23a4.35,4.35,0,0,1,1.79.08c2.55.61,5,3.4,4.43,6"/><path class="cls-7" d="M122,56.88a1,1,0,0,1-1.18.72,1,1,0,0,1-.59-1.34,1,1,0,0,1,1.22-.61.9.9,0,0,1,.55,1.23"/><path class="cls-7" d="M146.67,62.79a1,1,0,0,1-1.16.58.75.75,0,0,1-.45-1,1,1,0,0,1,1.14-.59.78.78,0,0,1,.47,1.06"/><path class="cls-8" d="M66.54,130l-9.29.47a11.42,11.42,0,0,1-5.4-1,11.63,11.63,0,0,1-6.74-12.07L47,102.2a21.7,21.7,0,0,0,16.84-2.08c1.45-.85,3.85-5.18,4.82-3.87,2.81,3.78,6.79,12.32,9.89,13.26s13.6-2.67,13.6-2.67l1.36,7.22a80,80,0,0,0-14.31,4.7c1.29,3,3.34,6.39,4,9.88-2.71-.14-6.4-.48-9-.52,0,0-6.4,1.74-7.69,1.91"/><path class="cls-9" d="M45.84,115c-1,7.78,5.79,14.42,6,14.52a84,84,0,0,0-15.82,4h0C35.32,127,29,88.19,16.52,88.71l12.37-5.35.11,0c.52,2.14,13.52,17.64,18,18.88Z"/><path class="cls-10" d="M98.3,109.05c-3.32,1-3.56,3.62.39,2.41-1.88.81-2.37,1.59-1.91,1.91-1.08.22-2.16.45-3.23.69,0,0-1.78-5-1.28-6.76,1.27-.45,2.44-2.85,3-3.85.36-.65,2.47,0,.72,4.16h0c-1,1-.8,1.92,2.31,1.43"/><path class="cls-9" d="M85.4,151c1.5,9.79,1.67,21.08-.64,30.27A8.15,8.15,0,0,1,83.3,181a284.74,284.74,0,0,0-49-4.38q-3.07,0-6.17,0c.11-7.46,0-14.79-.33-22l.14-.3c.71.55,56.87-3.37,56.87-3.37Z"/><path class="cls-11" d="M116.38,166.5h0c.62-.4,1.23-.81,1.83-1.25h0c-1,5.61-.52,9.54-.21,14.66l-3.29.44a47.74,47.74,0,0,1-.81-12.17l0-.05c.84-.52,1.68-1.06,2.51-1.63"/><path class="cls-1" d="M98.43,134.85l-2.52,7a17.89,17.89,0,0,1-3.84-1.56c-.33-1.27-.94-3.54-1.39-4.78a14.32,14.32,0,0,0-3.76-6.13,60.06,60.06,0,0,1,11.51,5.46"/><path class="cls-12" d="M54.92,120.92c1.45.79,11.62-.27,11.62-.27v8.74s-13.47,1.51-16.63-1.29c-4.78-4.25-5-15.68-3.78-22.13.55-2.87,5.31-1.62,5.72.13,1.56,6.69,1.62,14,3.07,14.82"/><path class="cls-13" d="M116.38,166.49h0c-.83.57-1.67,1.11-2.51,1.63A119.44,119.44,0,0,1,93.58,178.2c0-.06-.48-7.69-.5-11.71,0-2.44-.3-5-.4-7.47l22.48-10c.36,5.51.66,11.51,1.22,17.44"/><path class="cls-14" d="M36,133.44h0a70.47,70.47,0,0,0-8.28,3.6,3.87,3.87,0,0,0-1.32,1.12A192.9,192.9,0,0,0,22.18,114a.83.83,0,0,0-.82-.62c-19.84.2-16.75-24.24-3.24-24.81C30.56,88,35.32,127,36,133.44"/><path class="cls-14" d="M115,149.23l-13.34,5.94-.14-.12c.14-.18.28-.36.41-.56.33-.54.61-1.13.9-1.7.65-1.24,1.28-2.49,1.92-3.73l.33-.6h0a5.56,5.56,0,0,0,4.7-1.66,6.2,6.2,0,0,0,.62-.81l.36-.61a6.19,6.19,0,0,1,4.23,3.84"/><path class="cls-14" d="M74.22,128.1v0c2.64,0,5.32.14,8,.29-.22,0-.44.08-.67.14A9.58,9.58,0,0,0,74.85,136c-1.35,6.3,2.21,15.66,9.91,15,0,.16-53.9,4.13-53.9,4.13-5.31,0-8.53-3.73-8.53-10.06a9.09,9.09,0,0,1,5.42-8.66,69.6,69.6,0,0,1,8.19-3.66,64.55,64.55,0,0,1,15.33-3.55,123.23,123.23,0,0,1,15.27-.65,74.71,74.71,0,0,1,7.68-.44"/><path class="cls-15" d="M105.47,142.38a2.22,2.22,0,0,1,1.14,2.62,9.49,9.49,0,0,1-1.12,2.69l-.14-.08q-1.51-4.16-4.74-3.93a11.27,11.27,0,0,1,1-.67c1.1-.67,2.63-1.33,3.88-.63"/><path class="cls-15" d="M109.76,146.81a5.56,5.56,0,0,1-4.7,1.66h0l.44-.77a9.49,9.49,0,0,0,1.12-2.69l.07,0a3.15,3.15,0,0,1,3.7,1,6.2,6.2,0,0,1-.62.81"/><path class="cls-9" d="M120,112.24c-4.05,2.86-5.48,11.07-5.57,22a2.3,2.3,0,0,0-.52-.37c-1.24-.7-2.78,0-3.88.63-.34.21-.66.43-1,.66a26.27,26.27,0,0,0-4.43,4.45,45.72,45.72,0,0,0-6-4.45C95,133,85,129.6,82.76,128.61c-1.08-3-2.23-6.87-3.52-9.85a80,80,0,0,1,14.31-4.7c1.07-.24,4-.93,6.1-1.36a59.12,59.12,0,0,1,20.39-.46"/><path class="cls-16" d="M101.77,110.7a1.24,1.24,0,0,1-.53,1.35,9.4,9.4,0,0,1-1.39.77c-.94.42-2.06,1-3.07.55-.52-.22,0-1.1,1.91-1.91-4,1.21-3.71-1.39-.39-2.41-3.11.49-3.31-.41-2.3-1.43h0a7.63,7.63,0,0,1,2-1.37,1.32,1.32,0,0,1,1.4.15,7.88,7.88,0,0,1,2.4,4.31"/><path class="cls-14" d="M94.31,156a4.94,4.94,0,0,0,1.35.7,5.15,5.15,0,0,0,.56.16,5.21,5.21,0,0,0,1,.1v.13l-3.89,2.29c0-.8.93-2.58.88-3.37Z"/><path class="cls-11" d="M84.76,181.25c.94-.29,1.88-.59,2.81-.9-.57,8-.53,12.17,0,17l-3.73.53A61.65,61.65,0,0,1,83.3,181l1.46.26"/><path class="cls-16" d="M75.41,127.24a1.92,1.92,0,0,1-1.19.86c-2.24.79-6.76.51-7.67.44h0v-8.92s1.25-2.5,2.16-2.24c.69.2.34,2.68.16,3.79h0s6.28-2.54,6.75-1.08-4.51,3.27-4.81,3.38c.35-.07,5.66-1.18,5.84.08S72,126,72,126h0c1.66-.1,3.91,0,3.37,1.25"/><path class="cls-13" d="M120,112.24c8.65,1.67,9.56,13.08,2.7,19.47-1.84,9.45-2,19.93-1.16,31-1.11.85-2.23,1.69-3.37,2.49-.61.44-1.73,1.21-2.35,1.61-.55-5.93-.54-11.57-.89-17.08-.24-3.85-.79-11.72-.56-16.17-.06-12.1,1.58-18.5,5.63-21.36"/><path class="cls-14" d="M99.64,144.32a34.58,34.58,0,0,0-3.47,3.8,37.73,37.73,0,0,0-3-2.38c0-.25-.06-.49-.1-.73-.29-1.8-1.23-3.24-1.67-5a24.09,24.09,0,0,1,8.21,4.32"/><path class="cls-15" d="M101.9,154.49c-.13.2-.27.38-.41.56l-.21.24a5.53,5.53,0,0,1-4,1.7,5.21,5.21,0,0,1-1-.1,5.15,5.15,0,0,1-.56-.16c.74-3.22,4.1-4.71,6.24-2.24"/><path class="cls-9" d="M114.49,138.21c.48,4.5.24,7.17.48,11a6.16,6.16,0,0,0-4.23-3.84c.19-.36.36-.73.55-1.08l1.92-3.73c.2-.4.48-.87.76-1.38.18-.31.36-.65.52-1"/><path class="cls-11" d="M34.25,176.63,29.8,194.82l-4.23-.21,2.51-18q3.09,0,6.17,0Z"/><path class="cls-13" d="M82.26,128.41a6.53,6.53,0,0,1,5.18,1.32c1.84,1.57,2.63,3.91,3.44,6.13A35.77,35.77,0,0,1,92,139.64c.45,1.77.78,3.57,1.07,5.37,0,.24.07.48.1.72.52,3.41.84,6.85,1,10.31,0,.78.09,1.57.12,2.36.1,2.45.14,4.9.15,7.35,0,4,0,8-.28,12a.86.86,0,0,1,0,.17c-2.18.86-4.39,1.65-6.64,2.39-.93.32-1.87.62-2.81.91a99.44,99.44,0,0,0,.07-29.78c0-.16,0-.32-.07-.48-7.7.71-11.26-8.65-9.91-15a9.58,9.58,0,0,1,6.72-7.49c.23-.06.45-.1.67-.14Z"/><path class="cls-15" d="M113.83,139.13q-1.52-4.15-4.74-3.94c.32-.24.64-.45,1-.66,1.1-.67,2.64-1.33,3.88-.63a2.3,2.3,0,0,1,.52.37c1.11,1,.7,2.53,0,3.94-.16.34-.34.68-.52,1Z"/><path class="cls-16" d="M30.07,97.4A3.33,3.33,0,0,1,31.8,93a2.65,2.65,0,0,1,.62-.14l0,0c.13.26.28.51.43.76a25.74,25.74,0,0,0,3.06,4.22h0a2.92,2.92,0,0,1-1.76,1.84,3.34,3.34,0,0,1-4.1-2.3"/><path class="cls-16" d="M30,87.32c-.05-.15-.81-2.37-.8-2.21-.28-4.53,1.37-9.48,3.85-16.84,4.59-9.92,25.46-5.85,29.26-6.44A26.11,26.11,0,0,1,72,71.42C78,81.57,76.38,93.9,68.82,101.14a21.06,21.06,0,0,1-3.93,3A21.73,21.73,0,0,1,48,106.2a25.1,25.1,0,0,1-12.1-7.61h0a25.21,25.21,0,0,1-3.07-4.22c-.15-.25-.3-.5-.43-.76A25.33,25.33,0,0,1,30,87.32"/><path class="cls-17" d="M34.06,69.27A41.33,41.33,0,0,0,32,88.87c-.4-.31-2.12-.69-2.54-4.61.23,2.1-1.07,9.94-1.07,9.94a23.4,23.4,0,0,1-2.22-9.39,25.37,25.37,0,0,1-1.43,6.9c-7-29.87,18.44-48.31,40.86-31.95l-6.11-.55,6.75,3c-1,.25-1.92.45-2.87.6a22.83,22.83,0,0,1-11.13-.92l3.4,3a17.67,17.67,0,0,1-11.05-1.54,13.93,13.93,0,0,0,6.17,4.75,17.22,17.22,0,0,1-11.82-1.28,22,22,0,0,0,8.54,6.74,16.18,16.18,0,0,1-13.37-4.26"/><path class="cls-18" d="M56.08,83c.31-.17,4.28-.7,4.69,1.32.53,2.64-2.88,3.27-4.32,3.1"/><path class="cls-18" d="M57.51,94.7c2.52,1.55,5.79.94,7-1.83"/><path class="cls-18" d="M39.23,84.58a12.93,12.93,0,0,0,1.55-.45,15,15,0,0,0,2.32-1A21.46,21.46,0,0,0,46.46,81c.76-.58,1.52-1.23,2.28-1.94"/><path class="cls-18" d="M58.22,74.81a13.79,13.79,0,0,0,2.29-.8,13.07,13.07,0,0,0,2.22-1.31,14.1,14.1,0,0,0,1.39-1.17,15.75,15.75,0,0,0,2.35-2.89"/><line class="cls-18" x1="60.51" y1="74.01" x2="61.74" y2="76.55"/><line class="cls-18" x1="62.73" y1="72.7" x2="65.26" y2="74.81"/><line class="cls-18" x1="64.69" y1="70.95" x2="67.75" y2="72.38"/><line class="cls-18" x1="43.71" y1="82.81" x2="44.79" y2="85.64"/><line class="cls-18" x1="46.46" y1="80.99" x2="48.1" y2="83.49"/><line class="cls-18" x1="40.78" y1="84.13" x2="41.19" y2="87.15"/></g></g></svg>