<svg xmlns="http://www.w3.org/2000/svg" viewBox="0 0 235.09 212.51"><defs><style>.cls-1{fill:#2fac66;}.cls-2{fill:#db7a1c;}.cls-3{fill:#fcc700;}.cls-4{fill:#e4d5b8;}.cls-5{fill:#b91919;}.cls-6{fill:#9c6297;}.cls-7{fill:#e52629;}.cls-8{fill:#e30613;}.cls-9{fill:#d3d2c2;}.cls-10{fill:#ffde00;}.cls-11{fill:#f6b6cd;}.cls-12{fill:#0d181c;}.cls-13{fill:#80597f;}.cls-14,.cls-15,.cls-16,.cls-17,.cls-21,.cls-29,.cls-36{fill:none;stroke-linecap:round;}.cls-14,.cls-21{stroke:#1d1d1b;}.cls-14,.cls-15{stroke-width:0.65px;}.cls-15{stroke:#0d181c;}.cls-16{stroke:#f39200;}.cls-16,.cls-17,.cls-21,.cls-36{stroke-linejoin:round;}.cls-16,.cls-17{stroke-width:0.6px;}.cls-17,.cls-29{stroke:#fcc700;}.cls-18,.cls-31{fill:#fff;}.cls-19,.cls-32{fill:#1d1d1b;}.cls-20{fill:#f39200;}.cls-21{stroke-width:0.62px;}.cls-22{fill:#ba2327;}.cls-23{fill:#4b2c17;}.cls-24{fill:#db7d2d;}.cls-25{fill:#7b421c;}.cls-26{fill:#cb1e2e;}.cls-27{fill:#00a0a4;}.cls-28{fill:#a85318;}.cls-29{stroke-width:0.7px;}.cls-30{fill:#814114;}.cls-31,.cls-32,.cls-34,.cls-35{fill-rule:evenodd;}.cls-33,.cls-34{fill:#a4a092;}.cls-35,.cls-38{fill:#dad8cc;}.cls-36{stroke:#dad8cc;stroke-width:0.28px;}.cls-37{fill:#008f92;}.cls-39{fill:#b4b0a4;}.cls-40{fill:#454444;}</style></defs><g id="Capa_2" data-name="Capa 2"><g id="Capa_1-2" data-name="Capa 1"><path class="cls-1" d="M29.64,150.49c59.74-6.64,107.56,2.39,167.46,2.79,9.15.07,32.16-10.42,36.49,1.81,4.15,11.71-.87,27-8.42,33.76s-16.74,7.31-25.51,7.79A973.71,973.71,0,0,0,88.38,209.17c-14.83,2.54-29.92,5.41-44.58,1.19-11.44-3.3-22.14-10.78-32.7-18.2C5.79,188.43-.38,182.61,0,173.77c.41-9.18,3.62-13,9.31-16.18,6.05-3.4,6.05-3.4,20.31-7.1"/><path class="cls-2" d="M128.58,95.92l-7.5-6.12L101.32,73.7,79.51,56a2.11,2.11,0,0,0-3,.3,2.11,2.11,0,0,0,.3,3l42.47,34.56,9,7.3h0l26,21.21.07-.09,2.55-3.22Z"/><path class="cls-3" d="M198.45,141.73c-2.69-2.68-6.33-5.86-8-7.3h0l-.9-.76s0,0,0,0c-2.21-1.75-7.49-6-8.09-6.41a14.52,14.52,0,0,0-6-2.72,9.71,9.71,0,0,0-8.51,2.77,11.74,11.74,0,0,0-2.41,3.43,11.56,11.56,0,0,0-1.07,5.2c.15,4.48,10.82,13.53,14,16.17h0l.92.8,6.68,5.8c.74.65,1.47,1.33,2.24,1.94,2.26,1.82.1-2.41.1-2.41l2.49,1a.84.84,0,0,0,1.07-1l-1.45-3.5,2.9,1.49a.7.7,0,0,0,.87-1l-2.11-3.7,4.05,1.79a.45.45,0,0,0,.55-.66L192.5,148l4.14,2a.6.6,0,0,0,.75-.85L195.66,147l3.19,1.3a.46.46,0,0,0,.51-.7l-2.79-3.46,3.45,1.54c.53.24.83.55,1.16.07.23-.32-.51-2-2.73-4"/><path class="cls-4" d="M119.9,71c.32,1.89,1.13,3.09,2.09,5-2.17,2.46-14,1.46-15.53,1.89L102.92,75a1.58,1.58,0,0,0-.51-1h0c-1-1.24-1.2-1.24-1.22-2.51a.82.82,0,0,1,1.28-.72s2.47,2.36,3.45,2.57c4.66,1,9.54.91,13-.65.77-.35.91-1.64.91-1.64Z"/><path class="cls-1" d="M185.25,130.24c1.43,1.13,2.86,2.28,4.28,3.42a75,75,0,0,1-12.7,18c-1.51-1.32-3-2.64-4.55-3.94a62.55,62.55,0,0,0,13-17.44"/><path class="cls-5" d="M183.53,128.89c.57.44,1.15.89,1.72,1.35a62.55,62.55,0,0,1-13,17.44q-.89-.77-1.77-1.5a70.72,70.72,0,0,0,13-17.29"/><path class="cls-6" d="M176.1,4.58c-5.61-.1-11.68.36-15.33,4.63-3.18,3.72-6.07,12.36-7.8,15.15l-.08-.15c-3-5.91-12.9-13.82-15.19-13.92a48.47,48.47,0,0,1,10.77-6.92A43.23,43.23,0,0,1,158,.24c6.7-1.18,11.58,2.28,18.06,4.34"/><path class="cls-1" d="M156.94,119l10,8.32a11.74,11.74,0,0,0-2.41,3.43l-.14-.06-10-8.38.07-.09Z"/><path class="cls-3" d="M161,57l-5.94-4.43A33.63,33.63,0,0,0,161.51,68c-.3-.26-5-4.53-6.73-8.32a26,26,0,0,0,4.33,11.25,23.91,23.91,0,0,1-8.45-8.24,43.92,43.92,0,0,0,1.21,8.85,31.72,31.72,0,0,1-5.23-7.75,23.06,23.06,0,0,0,1.51,8.65,8,8,0,0,1-2.06-2.61c-.33-1-.67-2-1-3.1a.61.61,0,0,0-.83-.37l-3.14-10.75a1.59,1.59,0,0,0,.34-1,1.65,1.65,0,0,0-1-1.51,22.86,22.86,0,0,0,3-3.7l.15.1a2.21,2.21,0,0,0,1.35.91,2.08,2.08,0,0,0,2.54-1.47,2.06,2.06,0,0,0-1.65-2.42,1.87,1.87,0,0,0-.74,0,30.61,30.61,0,0,0,1.63-4.15c.18-.59.34-1.19.47-1.79a24.91,24.91,0,0,0,2.15,3.75,13.76,13.76,0,0,1,.83-5.65c1.74,1.75,3.55,3.55,5.46,5.39,0,.63.71,8.21,5.43,13"/><path class="cls-6" d="M150.13,38.61c-.82-.81-1.61-1.62-2.4-2.41l-2.29-2.33L142.62,31c-.7-.7-1.38-1.38-2.07-2.05-1.8-1.79-3.56-3.47-5.3-5a76.87,76.87,0,0,0-6.65-5.4l-1.09-.75c-.83-.56-1.67-1.08-2.5-1.57a33.62,33.62,0,0,0-14.15-4.63l20.71,1c7.8,2.79,14.42,9.38,20.5,17.69L157,44.36a.36.36,0,0,1-.59.38l-.78-.74c-1.91-1.84-3.72-3.64-5.46-5.39"/><path class="cls-7" d="M152.89,24.21a1.09,1.09,0,0,1,.08.15l-.9,5.93C146,22,139.37,15.39,131.57,12.6c0,0,3.82-2.41,6.13-2.31s12.19,8,15.19,13.92"/><path class="cls-6" d="M141.09,106.11l-1.74-.48L131,103.36l-1.48-.41c.09-.2.18-.39.26-.58A13.66,13.66,0,0,0,131,97.9c.17-2.85-1.4-3.56-2.45-2l-7.5-6.12a26.46,26.46,0,0,1,2-3l.05,0c7.72,3.15,16.83,3.65,27.14,1.86.52,10.65-5.06,11.59-9,17.5Z"/><path class="cls-3" d="M150.13,38.61a13.78,13.78,0,0,0-.83,5.65,24.91,24.91,0,0,1-2.15-3.75,22.5,22.5,0,0,0,.58-4.31c.79.79,1.58,1.6,2.4,2.41"/><path class="cls-8" d="M137.84,132.78c-.18-.84-.37-1.66-.57-2.47.3-.39.42-.77.26-1a.37.37,0,0,0-.17-.13l0,0a.85.85,0,0,0-.17-.14l6-3q2.06,4.9,5.08,10.79l-3.47,2.26-1.46-2.21a.79.79,0,0,0-1.29,0c-1.7,2.47-6.33,8.78-8.4,7.19-2.57-2,4.52-9.8,4.52-9.8-.1-.5-.2-1-.31-1.48"/><path class="cls-4" d="M145.79,46.5a2,2,0,1,1-.89,3.89,2.21,2.21,0,0,1-1.35-.91l-.15-.1a25.84,25.84,0,0,0,1.65-2.93,1.87,1.87,0,0,1,.74,0"/><path class="cls-4" d="M145.05,46.45a25.84,25.84,0,0,1-1.65,2.93,22.86,22.86,0,0,1-3,3.7A2,2,0,0,0,140,53v0a2,2,0,0,0-1.44.56,1.59,1.59,0,0,0-.41,1.08,1.65,1.65,0,0,0,.29.93l-.11.08a1.59,1.59,0,0,0-1.24-.59,1.6,1.6,0,0,0-1.33,2.51,1.83,1.83,0,0,0-3.26.72,1.59,1.59,0,0,0-3.05.61.49.49,0,0,0,0,.12h-.06a1.52,1.52,0,0,0-1.5-1.36,1.5,1.5,0,0,0-1.46,1.15A1.43,1.43,0,0,0,125,57.38a1.38,1.38,0,0,0-.92.33A16.87,16.87,0,0,1,111.2,41.86a25.23,25.23,0,0,1,1.27-8.46,23.5,23.5,0,0,1,15-15.61l1.09.75s1.19,7.58,4.65,11.75l1-4.88a25.32,25.32,0,0,0,5.49,8l.16-3.39a16.8,16.8,0,0,0,1.45,3.39,20.1,20.1,0,0,0,1.48,2.34l1.82,2.37c.28.35.57.69.85,1,0,0,.45-2.51.5-2.36a14.34,14.34,0,0,0,1.11,3.74c-.13.6-.29,1.2-.47,1.79a30.61,30.61,0,0,1-1.63,4.15"/><path class="cls-4" d="M144.69,38.11l-1.65.07a3.78,3.78,0,0,0-.69-2l0,0,.5-.38c.59.84,1.2,1.62,1.82,2.37"/><path class="cls-4" d="M123.83,60c0-.13,0-.26,0-.39a1.43,1.43,0,0,0,1.16.59,1.42,1.42,0,0,0,1.38-1.08,1.51,1.51,0,0,0,3,0,.76.76,0,0,0,0-.15h.06a1.59,1.59,0,0,0,3.12.24,1.82,1.82,0,0,0,3.54-.61,1.79,1.79,0,0,0-.32-1,1.63,1.63,0,0,0,1.3.65,1.61,1.61,0,0,0,1.6-1.61,1.59,1.59,0,0,0-.36-1l.1-.08a1.63,1.63,0,0,0,2.64,0l3.14,10.75c-2.24,1.11-7.61.68-10.63.35s-6-.85-9,2.08a6.61,6.61,0,0,0-2.13-3.08c.23-.54.44-1.08.61-1.61a15.59,15.59,0,0,0,.77-4"/><path class="cls-9" d="M143.17,126l-5.57,2.77a41.06,41.06,0,0,1-2-4.71c2.33-.29,4.37-.74,5.93-2.36.44,1.16,1.16,3.05,1.69,4.3"/><path class="cls-10" d="M145.44,33.87,142.62,31c-.7-.7-1.38-1.38-2.07-2.05l-.61,1a16.8,16.8,0,0,0,1.45,3.39,23.17,23.17,0,0,0,1.48,2.34c.59.84,1.2,1.62,1.82,2.37.28.35.57.69.85,1,0,0,.45-2.51.5-2.36a14.34,14.34,0,0,0,1.11,3.74,22.4,22.4,0,0,0,.58-4.31l-2.29-2.33"/><path class="cls-11" d="M141.77,49.76A3.76,3.76,0,0,1,140,53h-.22a1.6,1.6,0,0,0-1.22.56l0,0a4.55,4.55,0,0,1-.53,0,3.77,3.77,0,1,1,3.77-3.77"/><path class="cls-3" d="M140.55,29s-.41,1.23-.46,1.52c-.19,1.16-.31,2.9-.31,2.9a25.32,25.32,0,0,1-5.49-8l1-1.47c1.74,1.57,3.5,3.25,5.3,5"/><path class="cls-7" d="M140.28,118.11c.4,1.36.64,2.11,1.2,3.63-1.56,1.62-3.6,2.07-5.93,2.36-.5-1.69-.84-3-1.32-4.6a15.4,15.4,0,0,0,6.05-1.39"/><path class="cls-9" d="M132.33,103.71l7,1.92a10.09,10.09,0,0,0-.54,2.83h-.06a23.79,23.79,0,0,1-6.78,1,43.13,43.13,0,0,1,.36-5.7"/><path class="cls-9" d="M139.12,113.26a41.43,41.43,0,0,0,1.16,4.85c-2.3,1.39-3.82,1.23-6.05,1.39-.65-2.17-1.07-3.37-1.51-5.37a21.1,21.1,0,0,0,6.4-.87"/><path class="cls-7" d="M138.75,108.46h.06a10.12,10.12,0,0,0,0,1.24,22.42,22.42,0,0,0,.34,3.56,21.1,21.1,0,0,1-6.4.87,34.19,34.19,0,0,1-.75-4.72,23.84,23.84,0,0,0,6.78-1"/><path class="cls-10" d="M135.25,23.94s-.65,1.4-.82,1.81a40.25,40.25,0,0,0-1.18,4.54c-3.46-4.17-4.65-11.75-4.65-11.75a75,75,0,0,1,6.65,5.4"/><path class="cls-12" d="M146.09,69.79c-.33-1-.67-2-1-3.1a.61.61,0,0,0-.83-.37c-2.24,1.11-9.64.35-11.58.18h0c-2.71-.43-5.32-.37-8.06,2.26a6.59,6.59,0,0,0-2.13-3.09,7,7,0,0,0-.89-.61A7.48,7.48,0,0,0,119.9,71c.32,1.89,1.39,3.61,2.35,5.52a15.44,15.44,0,0,1,1.43,3.73,19.09,19.09,0,0,1-.07,5.08,5.89,5.89,0,0,1-.38,1.29c0,.06-.08.11-.13.16l.05,0c7.72,3.15,16.83,3.65,27.14,1.86-.22-4.35-1.44-10.3-4.2-18.88"/><path class="cls-8" d="M123.16,132.54a10.82,10.82,0,0,0,.58-1.46,10.46,10.46,0,0,0,.5-2.5l5.19-1c.55,3.37,1.19,6.93,1.94,10.64l-2.78,1.71-1.16-2.57a.74.74,0,0,0-1.12-.29c-2.08,1.53-7.54,5.31-9,3.47-1.84-2.28,4.52-5.84,4.52-5.84a12.72,12.72,0,0,0,1.34-2.17"/><path class="cls-9" d="M129.43,127.59l-5.19,1,0-.08c-.5-1.75-.94-3.46-1.32-5.15a8.76,8.76,0,0,0,5.89,0c.2,1.38.41,2.79.65,4.24"/><path class="cls-6" d="M119.32,93.82l9,7.3a62.6,62.6,0,0,1-7.07-.83c-.85-.18-1.79-.36-2.82-.5a19.75,19.75,0,0,1,.92-6"/><path class="cls-7" d="M128.11,118.11c.19,1.69.42,3.43.67,5.24a8.76,8.76,0,0,1-5.89,0c-.32-1.38-.59-2.75-.83-4.1a7.39,7.39,0,0,0,6.05-1.14"/><path class="cls-9" d="M127.7,113.69c.11,1.42.24,2.89.41,4.42a6.75,6.75,0,0,1-6.05,1.14c-.28-1.55-.51-3.07-.68-4.57,2.11,1.11,4.21.78,6.32-1"/><path class="cls-7" d="M127.88,101.08c-.16,1.11-.31,2.5-.38,3.79h-.06a11.21,11.21,0,0,1-6.48.35h0c0-1.67.14-3.31.31-4.92a58,58,0,0,0,6.66.79"/><path class="cls-9" d="M127.44,104.86h.07c-.05.94-.07,1.93-.07,3a6.94,6.94,0,0,1-6.48,1.58c-.06-1.42-.08-2.82,0-4.2h0a11.21,11.21,0,0,0,6.48-.35"/><path class="cls-7" d="M127.44,107.83c0,1.82.1,3.78.26,5.86-2.11,1.77-4.21,2.1-6.32,1-.21-1.79-.35-3.55-.42-5.27a6.94,6.94,0,0,0,6.48-1.58"/><path class="cls-3" d="M111.2,41.86a17.37,17.37,0,0,0,12.89,15.85,1.41,1.41,0,0,0-.51,1.1,1.45,1.45,0,0,0,.27.84c0,.13,0,.26,0,.39a12.31,12.31,0,0,0-2.52-2.11c.71,2.16.29,4.17,1.11,5.93-2.62-.2-2.91-4.78-5.33-5.53a10.14,10.14,0,0,1,.45,5.53,22.9,22.9,0,0,1-5.22-7.29l-.4,4.06A47,47,0,0,1,108.15,48L106.34,52c-1-15.37,3.7-25.81,12.82-32.34A36.67,36.67,0,0,1,125,16.22c.84.49,1.67,1,2.5,1.57-6.49,2-12.37,8.22-15,15.61-.14.38-.27.77-.39,1.15a20.11,20.11,0,0,0-.88,7.31"/><path class="cls-8" d="M126.09,50.52h0a2.72,2.72,0,0,1-.47-1.81.26.26,0,0,0-.44-.19l-1.1,1a.22.22,0,0,1-.37-.14l-.15-1.4a.26.26,0,0,0-.48-.13,2.15,2.15,0,0,1-2.27,1,2.84,2.84,0,0,1,.29,1.23A2.13,2.13,0,0,0,125,51.85a4.7,4.7,0,0,1,1.14-1.33"/><path class="cls-13" d="M125,16.22a36.67,36.67,0,0,0-5.85,3.39l-.16-.23c-4.68-3.34-7.26-5.89-8.14-7.79A33.62,33.62,0,0,1,125,16.22"/><path class="cls-11" d="M112.47,33.4a4.86,4.86,0,0,1-1.27,8.46,20.11,20.11,0,0,1,.88-7.31c.12-.38.25-.77.39-1.15"/><path class="cls-14" d="M126.69,43.84c-1.81.61-4.22-1.35-4-5a6.71,6.71,0,0,0,5.54-.68"/><path class="cls-15" d="M120.66,48.63l.15.27a9,9,0,0,0,.56.82,3.19,3.19,0,0,0,3.7,1.24,5.15,5.15,0,0,0,1-.44,6.55,6.55,0,0,0,1-.58"/><line class="cls-14" x1="122.67" y1="24.42" x2="122.57" y2="27.43"/><line class="cls-14" x1="126.04" y1="25.26" x2="124.73" y2="27.47"/><line class="cls-14" x1="128.3" y1="28.58" x2="126.49" y2="29.68"/><polyline class="cls-14" points="141.87 32.54 141.14 33.85 140.46 35.06"/><polyline class="cls-14" points="142.37 36.12 142.87 35.74 144.63 34.41"/><polyline class="cls-14" points="145.28 38.08 144.69 38.11 143.04 38.18 143.02 38.18"/><line class="cls-16" x1="190.43" y1="140.43" x2="193.75" y2="142.14"/><line class="cls-16" x1="187.02" y1="144.25" x2="191.44" y2="147.68"/><line class="cls-16" x1="182.09" y1="150.78" x2="187.02" y2="155.1"/><path class="cls-17" d="M137.84,133.61a5,5,0,0,0,3.3-.82"/><path class="cls-17" d="M137.5,132.17a4.62,4.62,0,0,0,2.78-1.13"/><path class="cls-17" d="M123.74,131.08a4.45,4.45,0,0,0,2.86,0"/><path class="cls-17" d="M123.16,132.54a3,3,0,0,0,3,.84"/><path class="cls-17" d="M124.16,128.41c0,.46-1.07.82-2.39.82h-.17c-1.25,0-2.22-.38-2.22-.82s1.07-.82,2.39-.82S124.16,128,124.16,128.41Z"/><path class="cls-17" d="M124.16,128.41a.2.2,0,0,1,0,.09c.12.42-.52,1.26-1.52,2s-2.15,1.09-2.42.72.34-1.22,1.33-2l.13-.1C122.81,128.36,123.9,128,124.16,128.41Z"/><path class="cls-17" d="M137,129.13a.81.81,0,0,1,.36,0"/><path class="cls-17" d="M137.36,129.19a.31.31,0,0,1,.17.13c.16.22,0,.6-.26,1a3.91,3.91,0,0,1-.88.82c-.88.62-1.82.82-2.09.44s.25-1.19,1.14-1.81h0a3.25,3.25,0,0,1,1.51-.62"/><path class="cls-17" d="M137.36,129.19a.38.38,0,0,1,.13.31c0,.12-.15.22-.35.28a4,4,0,0,1-1.69,0h0c-1.07-.22-1.87-.68-1.81-1s1-.46,2.06-.24a4.77,4.77,0,0,1,1.21.4l.26.15a1.41,1.41,0,0,1,.18.14S137.35,129.18,137.36,129.19Z"/><path class="cls-18" d="M126.47,30.5A3.51,3.51,0,0,1,123,34a3.25,3.25,0,0,1-3.23-3.47A3.31,3.31,0,0,1,123,27a3.51,3.51,0,0,1,3.51,3.5"/><path class="cls-18" d="M143.07,38.18a.68.68,0,0,1,0,.2,3.9,3.9,0,0,1-3.92,4.21,3.78,3.78,0,0,1-3.7-4,3.94,3.94,0,0,1,3.7-4.15,3.9,3.9,0,0,1,3.21,1.68,3.78,3.78,0,0,1,.69,2"/><path class="cls-4" d="M106.61,83.77c-.14-.71.62-1.49.62-1.49-1.32-.11-1.51-2.06.72-2.69l1.52-.43c-3-1.85-.84-4.31,2.34-1.32.75.7,2.68,2.07,2.82,2.37a21.58,21.58,0,0,0,8.49.19,20.9,20.9,0,0,0,3.82-1.1,3.48,3.48,0,0,0,1.68-1.37,25.32,25.32,0,0,0,3.46-8.42,10.46,10.46,0,0,1,.91-2.84,4,4,0,0,1,.48-.68,2.18,2.18,0,0,1,3.53.38,3.47,3.47,0,0,1,.4,1.06h0a9.72,9.72,0,0,1-.23,3.77,24.18,24.18,0,0,1-4.58,9.9,9.09,9.09,0,0,1-4.46,3.12A31.09,31.09,0,0,1,123,85.33a56.27,56.27,0,0,1-7.81.11l-.82.17-2.08.82a4.05,4.05,0,0,1-1.77.7,1.66,1.66,0,0,1-1.78-1.44h0a3.06,3.06,0,0,1-.11-.64c-.24,0-1.88-.56-2-1.27"/><path class="cls-4" d="M101.36,76a6.75,6.75,0,0,1,2.56-.29c.63.09.84.57.76.87-.16.63-1.36.76-1.75,1,0,0,.67-.06.9,0,2.94.1,3,2.3-1,2.74h0s-2.75.16-3.68-1.14a8.06,8.06,0,0,1-1.35-3c-.22-.8.79-1.77,2.26-2.18a4.44,4.44,0,0,1,1.45-.17,2.3,2.3,0,0,1,1.09.27,1,1,0,0,1,.53.59.82.82,0,0,1,0,.44c-.17.43-.82.71-1.72,1m-.44.08a2.1,2.1,0,0,0,.24-.06l-.24.06"/><path class="cls-19" d="M124.2,31.11a.68.68,0,1,1-.67-.68.68.68,0,0,1,.67.68"/><path class="cls-19" d="M141,38.88a.75.75,0,1,1-.75-.75.76.76,0,0,1,.75.75"/><path class="cls-20" d="M155.16,129.72a4.65,4.65,0,0,1,.05.75c-.18,3.63-1.7,4.74-3.62,5.93h0a4.89,4.89,0,0,1-1.83.36c-3,0-5.45-2.82-5.45-6.3s2.43-6.29,5.45-6.29c2.79,0,5.08,2.41,5.4,5.54"/><path class="cls-3" d="M154.75,129.72a4.65,4.65,0,0,1,0,.75c-.18,3.63-1.7,4.74-3.61,5.93h0a4.94,4.94,0,0,1-1.84.36c-3,0-5.45-2.82-5.45-6.3s2.44-6.29,5.45-6.29c2.79,0,5.09,2.41,5.41,5.54"/><path class="cls-3" d="M148.35,129.21c1.74,1.31,4.58,3.13-.31,2.18Z"/><path class="cls-21" d="M149.86,128.41c-.55-.14-1-.24-1.34-.3-1.9-.35-1.25.27-.17,1.1,1.74,1.31,4.58,3.13-.31,2.18-.61-.11-1.34-.27-2.21-.49"/><polyline class="cls-21" points="148.64 127.27 148.52 128.11 148.35 129.21 148.04 131.39 147.79 133.11"/><path class="cls-4" d="M154.42,132.76a7.42,7.42,0,0,0,.37-2.29,6.17,6.17,0,0,0,0-.75,25.88,25.88,0,0,1,4.12,1.94c0,.24.08.47.13.7a31.06,31.06,0,0,0,1.71,6.23c.12.27.24.57.39.86-6.34,5.79-7.08,0-7.08,0-3.08,0-1.61-2.95-1.61-2.95a5.93,5.93,0,0,1-1.23-.09c-3-.53-3.83-3.14-1.24-3.12a20.36,20.36,0,0,0,4.48-.52"/><path class="cls-22" d="M195.76,105.49h0a.48.48,0,0,0-.06-.24c0-.12,0-.23-.08-.34l-.28-.34-.28.23c-2.56-.63-11.38,3.39-12.8,2.3l-.09.07L175.93,106l-.89.47-3,.31c-.93,4.49-2.32,12.52-3.12,17.39v0c-1.25,7.06-2.09,15.47-2.35,15.6h0c-.76,5.51-1.48,11.16-2.18,16.87a13.18,13.18,0,0,0,4.77,0c8.42-1.43,16.61-9.2,30.35-2.28h0c.45.22.9.46,1.36.72a.87.87,0,0,0,1.3-.76,202.1,202.1,0,0,0-6.43-48.86"/><path class="cls-20" d="M208.29,80.69c1.09,4.88,0,7.48-1.67,5.59,2.25,4.44.79,6.33-2.22,3.29,1.95,5.89-.42,7.82-3.34,2.59L199.85,92A31,31,0,0,0,202,83.71l.12,0c1,.27,2.09-.74,2.5-2.25s-.05-3-1-3.21a1.49,1.49,0,0,0-1.28.32,46.38,46.38,0,0,0-2.09-12.31c1.11-.3,2.23-.62,3.33-.94,7.56,10.37,7.61,18,4.77,15.35"/><path class="cls-12" d="M209,57.3c.15,5.22-2.35,6.8-6.31,6.88a23,23,0,0,1-3.23-.17c-4.9-.55-11.12-2.18-17.18-2.26-5.71-.08-11.28,1.31-15.69,1.84a24.87,24.87,0,0,1-2.84.21c-4.1,0-6.56-1.59-6.08-7.69a1.81,1.81,0,0,1,2.71-1.42c6.86,4,15.76-10.69,24.58-10.08,8.22.57,13.06,15.08,21.46,11.1A1.82,1.82,0,0,1,209,57.3m-19.71-5.1c1.63,1.8,3.47-1.13,1.12-1.43.86-1.11-1.76-2.11-1.39.46l-2.29,1.13c-.32-1.56-1.32-2.7-2.51-2.7s-2.3,1.27-2.55,3l-1.53-.94c-.16-3.54-3.13-2-2-.38-2.76-.2-1.39,2.43,1.43,1.35l2,1.22h0a4.64,4.64,0,0,0,.17.93h0l-2.21,1.09c-2.36-1.51-4.23.86-1.6,1.2-.74,2.27,2,2.59,2-.48l2.11-1h0a2.49,2.49,0,0,0,2.13,1.59,2.17,2.17,0,0,0,1.63-.82l0,0,1.88,1c.89,3.74,2.66,1.28,1.54.3,2.09-.77-.38-2.2-1-1l-1.87-1.16h0a4.91,4.91,0,0,0,.46-2.13v-.06Z"/><path class="cls-23" d="M207.32,188.4c.2,1.55-2.26,2.77-4.17,2.14l-1.36-3.74,4.24-1.57Z"/><polygon class="cls-24" points="200.75 172.19 206.03 185.23 201.79 186.81 197.09 173.9 200.75 172.19"/><path class="cls-4" d="M203.56,78.27c1,.26,1.44,1.7,1,3.21s-1.53,2.52-2.5,2.25l-.12,0c.08-.62.15-1.26.21-1.91a30.59,30.59,0,0,0,.1-3.21,1.49,1.49,0,0,1,1.28-.32"/><path class="cls-20" d="M202.67,64.19c.29.39.58.77.85,1.15-1.1.32-2.22.64-3.33.94-.23-.76-.48-1.52-.75-2.27a23,23,0,0,0,3.23.17Z"/><path class="cls-25" d="M202.51,170.42a1.13,1.13,0,0,1-.63,1.23l-1.13.54-3.67,1.71-.79.37a2.64,2.64,0,0,1-3-.58,5.76,5.76,0,0,1-.85-1.21,36.25,36.25,0,0,1-1.87-4.83,12.92,12.92,0,0,0-2.46-4.52,5.54,5.54,0,0,0-4.6-1.93,6.05,6.05,0,0,0-4.25,3.25,34.63,34.63,0,0,0-2.05,5.14,9.19,9.19,0,0,1-3.1,4.5v0c-.64-.07-6-.66-7.93-1.95l-.19-.05v-.08c-1.18-.94.56-6,.77-6.85l2.46-8.53c8.42-1.43,16.61-9.2,30.35-2.28h0Z"/><path class="cls-4" d="M202.28,78.59a30.59,30.59,0,0,1-.1,3.21c-.06.65-.13,1.29-.21,1.91A31,31,0,0,1,199.85,92a18.94,18.94,0,0,1-1.35,2.57A15.16,15.16,0,0,1,194.33,99a16.61,16.61,0,0,1-5.33,2.41,28.27,28.27,0,0,1-8.35.74,23.63,23.63,0,0,1-7.6-1.47,14.44,14.44,0,0,1-8.79-9.56c-1.44-4.44-1.49-9.79-1-15.18a32.59,32.59,0,0,1,.47-3.27l1.08-.08v2.67a3.33,3.33,0,0,0,3.33,3.34h3.69a4.91,4.91,0,0,0,4.91-4.92v-2a2.56,2.56,0,0,0,0-.39h0a191.74,191.74,0,0,0,23.46-4.94,46.38,46.38,0,0,1,2.09,12.31m-22,18.82c-.24,5,.83,3.48,2.62-1.54a23.26,23.26,0,0,1-2.74.51,15.61,15.61,0,0,1-2.7.09,10.67,10.67,0,0,1-2.2-.34c-2.23,4.54-.07,5.23,2,1.44-.54,4.35,1.3,4.05,3-.16"/><path class="cls-20" d="M201.06,92.16c.75,3.69-1.33,4-2.56,2.4A20.13,20.13,0,0,0,199.85,92Z"/><path class="cls-4" d="M199.44,64c.27.75.52,1.51.75,2.27a191.74,191.74,0,0,1-23.46,4.94h0a2.79,2.79,0,0,0-2.93-2.4l-6.54.38a2.59,2.59,0,0,0-2.43,2.59v.77l-1.08.08a42.75,42.75,0,0,1,2.85-9.06c4.41-.53,10-1.92,15.69-1.84,6.06.08,12.28,1.71,17.18,2.26"/><path class="cls-26" d="M161,139.45c-.15-.29-.27-.59-.39-.87a30.79,30.79,0,0,1-1.71-6.22c0-.24-.09-.46-.13-.7a2.9,2.9,0,0,1,.38-2.39,6.79,6.79,0,0,1,2-1.46,51.32,51.32,0,0,1,4.71-2.31l2.94-1.3c2.78-1.22,5.55-2.45,8.2-3.92a21.53,21.53,0,0,0,7.28-6.6c.18-.27,1.73-2.48,1.73-2.48l1.8-1.44,2.13,1a3,3,0,0,1,.74.69c1,1.28.55,3.07,0,4.44a24.88,24.88,0,0,1-3.76,6.22,73.35,73.35,0,0,1-13.2,13,45.55,45.55,0,0,1-6.56,4.36l-.74.38h0a7,7,0,0,1-4,1,2.14,2.14,0,0,1-1.52-1.37"/><path class="cls-12" d="M189,101.39l-6.74,5.7-.09.07-4.1,6.52-3.9-12.62a17.44,17.44,0,0,0,6.48,1.07,28.27,28.27,0,0,0,8.35-.74"/><path class="cls-19" d="M187.71,74.78a.52.52,0,0,1,.52.51.51.51,0,0,1-.52.51.51.51,0,0,1-.51-.51.51.51,0,0,1,.51-.51"/><path class="cls-19" d="M186,51.73a.93.93,0,0,1,.25,1.28.86.86,0,1,1-1.48-.83.93.93,0,0,1,1.23-.45"/><path class="cls-19" d="M183.73,52.27a.81.81,0,1,1-1.53.52.81.81,0,1,1,1.53-.52"/><path class="cls-20" d="M182.94,95.87c-1.79,5-2.86,6.57-2.62,1.54l-.12-1a23.26,23.26,0,0,0,2.74-.51"/><path class="cls-20" d="M180.2,96.38l.12,1c-1.67,4.21-3.51,4.51-3,.16l.15-1.1a15.61,15.61,0,0,0,2.7-.09"/><path class="cls-20" d="M177.5,96.47l-.15,1.1c-2.12,3.79-4.28,3.1-2-1.44a10.67,10.67,0,0,0,2.2.34"/><path class="cls-12" d="M176.73,71.62v2a4.91,4.91,0,0,1-4.91,4.92h-3.69a3.34,3.34,0,0,1-3.33-3.34V71.8a2.58,2.58,0,0,1,2.43-2.58l6.54-.39a2.79,2.79,0,0,1,2.93,2.4,2.56,2.56,0,0,1,0,.39"/><path class="cls-7" d="M171.32,109.84c-.31.25-1.37,1-1.4.55-.17-2.57,1.64-7.65,4.44-9.06l1.51,4.85s-.56.31-.75.43c-1.09.66-2.8,2.44-3.8,3.23"/><path class="cls-12" d="M174.11,174.13l-4.44,14.27c-.24.81-.24,1.2-1.08,1.24-3.59.2-13.61.66-13.79-1.89-.24-3.15,8.38-5.15,8.38-5.15l2.76-10.47.19.05c1.91,1.29,7.29,1.88,7.93,1.94h.05"/><path class="cls-20" d="M163.72,72.65a32.59,32.59,0,0,0-.47,3.27c-.48,5.38-.43,10.74,1,15.18-1.89,2.82-3.1,1.31-3.69-4.2-2.93,4.59-1-4-1-4-2.86,3.57-4.25,4-.84-5.58-5.12,4.31-1.75-2.39,5-13.5a24.87,24.87,0,0,0,2.84-.21,42.75,42.75,0,0,0-2.85,9.06"/><path class="cls-14" d="M180,76.94s-4.09,4.44-5.38,9.14a1.06,1.06,0,0,0,1.29,1.44,23.37,23.37,0,0,0,5.28-1.39"/><path class="cls-14" d="M184.76,90.32a3.55,3.55,0,0,1-4.64,3.38"/><path class="cls-14" d="M176.73,71.22a191.74,191.74,0,0,0,23.46-4.94c1.11-.3,2.23-.62,3.33-1"/><path class="cls-14" d="M163.71,72.65h0l1.08-.08"/><path class="cls-12" d="M183.73,52.27a.81.81,0,1,1-1.53.52.81.81,0,1,1,1.53-.52"/><path class="cls-12" d="M186.25,53a.86.86,0,1,1-1.48-.83.86.86,0,1,1,1.48.83"/><path class="cls-12" d="M183.29,55h1.94a4.12,4.12,0,0,1-.34,1.12c-.61.73-1.47-.21-1.6-1.12"/><path class="cls-7" d="M195.85,103.1a2.16,2.16,0,0,1-.51,1.46s-3.61,3.19-5,4.61c-.76.77-3.86,3.83-3.86,3.83-.26-2.73-2.55-4.65-4.2-5.91l6.74-5.7A16.61,16.61,0,0,0,194.33,99Z"/><path class="cls-18" d="M194,76.35a4.84,4.84,0,1,0-5.88,4,5,5,0,0,0,5.88-4"/><path class="cls-19" d="M188.49,75.29a.79.79,0,0,1-.78.83.83.83,0,0,1,0-1.66.79.79,0,0,1,.78.83"/><path class="cls-12" d="M44,120.15c-.54,9,0,13.18-.13,15.41-.26,6.95-.36,10.72-.36,10.72l6.33,1s3.48-25.19,8.63-23.69,8.19,10.68,9.46,14.7a50.3,50.3,0,0,0,3.3,8.34l6.11-.47s-.9-5-1.66-13.1l-1.37-14.94L54.78,105.52Z"/><path class="cls-5" d="M43.5,146.07l-.18,9s-6.75-.58-8.16.43-2.67,3-2,3.67,3.58,1.58,10,2c4.21.24,5.63-.48,5.63-.48l1-14.2Z"/><path class="cls-27" d="M84.75,87.5c4.26,6.69-3.35,20-3.35,20L76,103.59S80.73,94.38,78.37,91s-8.65-7.3-8.65-7.3S70.1,90,71,95.26c1.06,6.56,2.52,13.15,2.52,13.15l3.31,14.5s-13.46.35-17.5-3.35-4.23-9.74-4.23-9.74-.48,8.1-4.52,9.41-8.4,2.29-8.4,2.29,4-41.31,4-45.24-.35-6.26,5.37-6.61,11.47-.63,15.85,1.7,14.22,11,17.44,16.13"/><polygon class="cls-8" points="50.86 145.44 50.36 148.18 42.8 147.49 42.98 144.84 50.86 145.44"/><path class="cls-5" d="M70.78,146.27,72,155.21s-7.73,0-9,1.21-2.17,3.36-1.41,3.93,4.76,1.5,11.18.86c4.2-.42,5.48-1.36,5.48-1.36L77,145.69Z"/><polygon class="cls-8" points="77.96 144.49 77.89 147.28 70.31 147.78 70.08 145.14 77.96 144.49"/><path class="cls-4" d="M30.14,102.44s-5.31,6.47-4.56,7.49,3-2.11,3-2.11-1.72,3.28-.53,3.88,2.08-3.23,2.08-3.23-.25,3.68,1,4,1-3.61,1-3.61,2,1.49,2.38.57-1.5-5.08-1.5-5.08Z"/><path class="cls-27" d="M51.9,79.29c-3.77,4.25-7.22,7.56-9.9,11.44s-7.5,15.15-7.5,15.15l-6.65-2.26S32.77,92.54,34.64,89A81.57,81.57,0,0,1,43.72,76l6.37-5.87s4.68,6,1.81,9.21"/><path class="cls-3" d="M66.93,71.1a14.89,14.89,0,0,1,6.73,1.31c1.21.79,1.16,2.3-.55,2.77a7,7,0,0,1-4.84-.39c-1.61-.71-3.45-2.29-3.24-3.05s1.48-.59,1.9-.64"/><path class="cls-3" d="M50.44,70a14.92,14.92,0,0,0-6.86.38c-1.3.62-1.46,2.12.16,2.81a6.9,6.9,0,0,0,4.86.27c1.69-.48,4.45-1.59,4.35-2.37s-2.1-1-2.51-1.09"/><path class="cls-3" d="M74.91,74.78s5.45,5.56,4.11,5.48-5.69-4.82-5.69-4.82,4.64,7.17,3,6.39-5.25-6-5.25-6,3.09,6.78,1.9,6S68.86,75,68.86,75s3.92-.08,4.39-.79,1.66.55,1.66.55"/><path class="cls-3" d="M42.15,72.33s-4.65,6.23-3.34,6,5-5.53,5-5.53-3.63,7.73-2.07,6.73,4.4-6.59,4.4-6.59S44,80,45.05,79.12s3.12-7.36,3.12-7.36-3.89.44-4.45-.19-1.57.76-1.57.76"/><path class="cls-28" d="M72.92,103.34s-10,1.28-13.87,1.09c-10-.47-15.57-2.34-15.57-2.34l-.13,4a61.36,61.36,0,0,0,13.56,1.79,94.06,94.06,0,0,0,16.7-1.18Z"/><path class="cls-3" d="M51.56,107.17A1.44,1.44,0,0,0,53,108.59h3.6A1.43,1.43,0,0,0,58,107.16v-2a1.44,1.44,0,0,0-1.44-1.42H53a1.43,1.43,0,0,0-1.43,1.42Z"/><path class="cls-29" d="M62.81,80.51a44.64,44.64,0,0,1-7.51.08,29.24,29.24,0,0,1-6-1.27"/><path class="cls-12" d="M61.71,80.56a1.57,1.57,0,1,0,1.5-1.63,1.55,1.55,0,0,0-1.5,1.63"/><path class="cls-12" d="M47.74,79.85a1.58,1.58,0,0,0,1.65,1.49,1.56,1.56,0,1,0-1.65-1.49"/><path class="cls-29" d="M63,89.59a28.61,28.61,0,0,1-7.51.18,29.18,29.18,0,0,1-5.92-1.62"/><path class="cls-12" d="M61.91,89.58A1.58,1.58,0,1,0,63.5,88a1.57,1.57,0,0,0-1.59,1.55"/><path class="cls-12" d="M48,88.14a1.58,1.58,0,1,0,1.59-1.55A1.57,1.57,0,0,0,48,88.14"/><path class="cls-29" d="M62.64,98.78a31.94,31.94,0,0,1-7.51.22,29,29,0,0,1-6-1.46"/><path class="cls-12" d="M61.54,98.79a1.56,1.56,0,0,0,1.59,1.55,1.57,1.57,0,1,0-1.59-1.55"/><path class="cls-12" d="M47.6,97.65a1.58,1.58,0,1,0,1.55-1.58,1.57,1.57,0,0,0-1.55,1.58"/><path class="cls-4" d="M80,106.45s-4.21,7-5.42,6.62.88-3.56.88-3.56S73,112.29,72,111.4s2.25-3.1,2.25-3.1-3.33,1.54-4,.5,3-2.22,3-2.22-2.1-1.36-1.39-2,5-.41,5-.41Z"/><path class="cls-4" d="M40.62,36.52c-.59-.06-3.36,14.35-2.35,19.25C39.47,61.55,41.1,69,51.73,73.83,59.12,77.16,69.13,73,73,68.29,76.49,64,78.87,56.9,79.23,50.42S76.44,37,76.44,37s-11.16-6.09-11.6-6.14-10.76-.24-11.6-.32-12.62,6-12.62,6"/><path class="cls-30" d="M52.28,32.39c7,8.47,11.7,11.31,11.59,7.4-.06-2.43-.19-4.93-.19-4.93s6.28,7.78,9,8.9S74.3,39.5,74.3,39.5s4.55,8.25,6.29,7.31S77.7,35.29,75.66,34s-12.51-7-17.44-6.45-10.8,1-12.65,2.44S33,40.37,34.83,41.74,42.4,36.4,42.4,36.4s-2.19,7,2.6,4.27,7.28-8.28,7.28-8.28"/><path class="cls-3" d="M42.79,32.32l-1.92-9.6,4.65-.78s1.31,4.65,4.11,3.47,1.56-7.62,1.56-7.62,3.19,7.12,5.73,6.92,2.28-6.29,2.28-6.29l5,.73s-1.76,5.68,1.45,6.19C67.4,25.63,69.7,18,69.7,18s-.34,8.26,2,8.74a4.39,4.39,0,0,0,4.7-2.34l4.05,2.52L76.3,34.62a50.45,50.45,0,0,0-18.45-5.26,30.17,30.17,0,0,0-15.06,3"/><path class="cls-10" d="M53.56,17.31a2.72,2.72,0,1,1-2.14-3.08,2.66,2.66,0,0,1,2.14,3.08"/><path class="cls-10" d="M72.43,18.53a2.72,2.72,0,1,1-2.14-3.08,2.65,2.65,0,0,1,2.14,3.08"/><path class="cls-4" d="M78.81,47.93s4-.22,3.83,2.46S81,54.07,79.42,54.31a3.35,3.35,0,0,1-2.24-.23l-.43-5Z"/><path class="cls-14" d="M57.56,48.94s-6.4,8.27-6.22,9.42,6.74.69,6.74.69"/><path class="cls-12" d="M61.12,69.75a7.34,7.34,0,0,0-4-2.11,15.89,15.89,0,0,0-5.28.51s1.55-5,5.3-4.33c3.92.73,4,5.93,4,5.93"/><path class="cls-31" d="M67,43.51c2.77.27,4.33,2,4.23,4.75S69.53,53,66.91,52.92a4.53,4.53,0,0,1-4.35-5c.1-2.77,1.83-4.69,4.43-4.44"/><path class="cls-32" d="M67.54,48c.52,0,.76.36.74.87a.8.8,0,0,1-.84.86.87.87,0,1,1,.1-1.73"/><path class="cls-31" d="M46.54,43.17c2.31-.51,3.82.85,4.37,3.29s-.4,4.54-2.72,5a4.12,4.12,0,0,1-4.93-3.38,4.06,4.06,0,0,1,3.28-4.95"/><path class="cls-32" d="M47.76,47.36a.67.67,0,0,1,.85.6.72.72,0,0,1-.54.95.79.79,0,1,1-.31-1.55"/><path class="cls-5" d="M46,27.93a1.19,1.19,0,1,1-2.33-.47,1.2,1.2,0,0,1,1.41-.93,1.19,1.19,0,0,1,.92,1.4"/><path class="cls-5" d="M61.68,25.68a1.18,1.18,0,1,1-.92-1.4,1.19,1.19,0,0,1,.92,1.4"/><path class="cls-5" d="M76,30.41a1.19,1.19,0,1,1-2.33-.48,1.19,1.19,0,0,1,1.4-.92,1.2,1.2,0,0,1,.93,1.4"/><path class="cls-14" d="M62.4,45.33a20.41,20.41,0,0,1,3.91-1.83c2.1-.71,3.29-1.09,3.29-1.09"/><path class="cls-14" d="M51.35,44.61a20.64,20.64,0,0,0-4.07-1.43c-2.16-.49-3.38-.75-3.38-.75"/><path class="cls-33" d="M107.92,97.81l0-.1a37.67,37.67,0,0,1,8.54-8.4c1.19-.82,1.73-.77,1.73.77,0,4.55-.8,8.28-2.68,14.28a13.64,13.64,0,0,1,1.69,6.93l-2.63-2.06a17.33,17.33,0,0,1,3.09,8.06l-2.43-1.59a13.69,13.69,0,0,1,.18,7.11c-4.59-5-5.35,2.66,5.43,26.46l-2.24-1.93a19.68,19.68,0,0,1,2.24,8.92L119,154.67c.35,2.79,1.66,9.64,1.19,11.79l-1.59-2.37c-4.55,1.14-9.11,5.76-14.81,7.19-8.09,2-13.83-3.94-18.57-5.52h0c.49-6.19.87-11.14,2.5-15.12l1.41,1.78s1.22-8.85,2.76-10.45l1.08,3.8a21.08,21.08,0,0,0,.28-8.67A5.43,5.43,0,0,1,95.87,139c-2.63-8.38,12.08-14.71,11.28-27.7l1.45.77a10.54,10.54,0,0,0-1.17-3.09l2.67.7c-.84-2-3.72-3.79-3.72-3.79l1.62-.43c-1.13-1.61-4.18-.94-5.45-1.72-2.73-1.67-9.94,4.51-13,5.43l-26.91,1.22,0,.37a13.38,13.38,0,0,0-.65-2.66h0s9.58-2.8,11.76-3.56c5.26-1.82,18-6.74,18-6.74h0l5-1.72v.74a15.18,15.18,0,0,1,3-2.23,10.65,10.65,0,0,1,1.93-.86,5.61,5.61,0,0,0-1,3.17,6.11,6.11,0,0,1,3.72-1.72c-.68.81-1.12,1.22-1,2a9.72,9.72,0,0,1,4.51.59"/><path class="cls-34" d="M115.48,169.28c.73-.73,2.31.55,2.31.55a42.71,42.71,0,0,0,10.1,4.55,33.48,33.48,0,0,0,8.29.68c3.16-.1,3.8.22,3.8.22l-.82.57s2,.3,3.64.67a14.9,14.9,0,0,1,3.06,1l-2.07.56a21,21,0,0,1,4,1,7.83,7.83,0,0,1,2.78,1.8s-7.15,3.2-14.71,2c-13.69-2.22-16.26-6.8-19.58-10.52-.28-.31-1.61-2.26-.75-3.12"/><path class="cls-35" d="M120,176.52s4.66,1.69,6.93,2.45a61.09,61.09,0,0,0,21,2.89,25.34,25.34,0,0,1-12.57,1.34C125.21,182,120,176.52,120,176.52"/><path class="cls-36" d="M147.94,181.86a25.34,25.34,0,0,1-12.57,1.34C125.21,182,120,176.52,120,176.52"/><path class="cls-33" d="M79.85,190c-3.55.9-2.68-2.35,2.73-3.06,1.88-4.11,2.7-7.18,4-10.71l4.64,1.33-4.67,11.23c.38,5.69-5.57,5.54-3.32,2.7-3.39,2.49-5-.23-3.36-1.49"/><path class="cls-37" d="M95.16,175.7a34.42,34.42,0,0,0-2.56,3.83l-8.45-3.24c.16-1.6,2.34-7.26,2.34-7.26,1.91,3.21,4.5,5.15,8.67,6.67"/><path class="cls-38" d="M110.1,109.7l-2.67-.7a10.54,10.54,0,0,1,1.17,3.09l-1.45-.77c.8,13-13.91,19.32-11.28,27.7a5.43,5.43,0,0,0-2.58-1.92,21.08,21.08,0,0,1-.28,8.67L91.93,142c-1.54,1.6-2.76,10.45-2.76,10.45l-1.41-1.78c-1.63,4-2,8.93-2.5,15.12-2.79-15.42,6.3-32,.68-39.82l-24.76-7.85a12.19,12.19,0,0,0,1.45-7.68s12.95-3.07,17.23-4.32c3.87-1.13,15.33-5.19,15.33-5.19a10.36,10.36,0,0,1,8.75,1.16,12.91,12.91,0,0,1,4.06,3.42l-1.62.43s2.88,1.82,3.72,3.79"/><path class="cls-33" d="M126.59,189.83c1.21.26,2,2.71-2.09,2.18-5.72-.74-9.83-3.46-12.21-9.6l4.14-1.56a10.75,10.75,0,0,0,6.25,6.69l.72-1.32c1.78-3,4.67-1,2.92.78,1.21-.05,2.58,2.1.27,2.83"/><path class="cls-27" d="M95.9,176.45A18.12,18.12,0,0,1,86.49,169a14.07,14.07,0,0,1-1.79-6.66c0,.19.38.13.56.18l1.34.42c4.74,1.58,9.8,2.14,16.83,2.14a74,74,0,0,0,16.81-1.83c.37-.09.13,1.87,0,3A11.08,11.08,0,0,1,119,170c-.18.33-.37.65-.58,1a19.35,19.35,0,0,0-.53,2.43,13.27,13.27,0,0,0-.14,2.43,15.7,15.7,0,0,0,1,4.84l-2.72.73-3.71,1-2.75.73L108,177.41a22.19,22.19,0,0,1-7.44.21,22.49,22.49,0,0,1-4.67-1.17"/><path class="cls-38" d="M114.49,94.81c.25-.23,1.1-1,.49.34,0,0-2.29,5.49-2.45,5.38-.58-.4-2.59-1.42-2.4-1.6Z"/><path class="cls-39" d="M107.26,136.1a7.83,7.83,0,0,1,.65-1.42,2.2,2.2,0,0,1,3.58,0c1,1.31.83,3.3.69,4.83A25.42,25.42,0,0,1,103,157.08c-2.28,7-5.47,6.53-4.9,4l0,0c-1.09.57-2.2.59-2.64,0s0-1.75,1-2.61l0,0c-.18.05-2.24.31-2.24-1s4.15-2.11,4.15-2.11c4-3.58,7-9.36,8.24-14.78Z"/><path class="cls-33" d="M97.69,86l2.1,8.79a15.59,15.59,0,0,0-3,2.23l-5,1,4.5-13.53c.18-.5,1,.29,1.38,1.52"/><path class="cls-18" d="M97,102.77a4,4,0,0,1,2.86,4.88c-.5,2.22-2.14,3.77-4.68,3.17a4,4,0,0,1-2.86-4.88c.5-2.22,2-3.68,4.68-3.17"/><path class="cls-40" d="M93.36,166.41a1,1,0,1,1,0,2,1,1,0,1,1,0-2"/><path class="cls-40" d="M94.15,171.33a1,1,0,1,1-1,1,1,1,0,0,1,1-1"/><path class="cls-12" d="M95.92,118.09a4.6,4.6,0,0,1,.35,1.76,3.69,3.69,0,1,1-7.31,0v-.07a4.74,4.74,0,0,0,2.77.88,4.56,4.56,0,0,0,4.19-2.57"/><path class="cls-19" d="M95,105.66a.75.75,0,1,1-.7.7.7.7,0,0,1,.7-.7"/><path class="cls-12" d="M62.68,110.78a11.08,11.08,0,0,1-1.5,7.31l-5.33-2.18c-3.94-2-6.56-5.15-3.09-5.86L62,108.11h0a13.38,13.38,0,0,1,.65,2.66"/></g></g></svg>