<svg xmlns="http://www.w3.org/2000/svg" xmlns:xlink="http://www.w3.org/1999/xlink" viewBox="0 0 236.36 198.24"><defs><style>.cls-1,.cls-13,.cls-8{fill:none;}.cls-2{fill:#2fac66;}.cls-3{fill:#dad8cc;}.cls-4{fill:#f39200;}.cls-5{clip-path:url(#clip-path);}.cls-6{fill:#fcc700;}.cls-7{clip-path:url(#clip-path-2);}.cls-8{stroke:#dad8cc;stroke-width:0.28px;}.cls-13,.cls-8{stroke-linecap:round;}.cls-9{fill:#1d1d1b;}.cls-10{fill:#0d181c;}.cls-11{fill:#f3a5c2;}.cls-12{fill:#fff;}.cls-13{stroke:#1d1d1b;stroke-width:0.6px;}.cls-14{fill:#e30613;}.cls-15{clip-path:url(#clip-path-3);}.cls-16{clip-path:url(#clip-path-4);}.cls-17{clip-path:url(#clip-path-5);}.cls-18,.cls-20{fill:#b780b1;}.cls-18,.cls-19{fill-rule:evenodd;}.cls-19{fill:#9c6297;}.cls-21{clip-path:url(#clip-path-6);}.cls-22{clip-path:url(#clip-path-7);}.cls-23{clip-path:url(#clip-path-8);}.cls-24{clip-path:url(#clip-path-9);}.cls-25{clip-path:url(#clip-path-10);}</style><clipPath id="clip-path"><path class="cls-1" d="M174,19c2.17,4.94,4,9.39,4,9.39l7.14-.8a92.44,92.44,0,0,0-7.7-14.27C172.2,5.79,163,0,162.29,0h0c-.63,0,8.36,11.3,11.74,19"/></clipPath><clipPath id="clip-path-2"><path class="cls-1" d="M146.13,7c-.66.09,10.49,9.32,15.4,16.17,3.15,4.39,5.85,8.37,5.85,8.37l6.81-2.26a92.14,92.14,0,0,0-10.47-12.38C157.11,10.67,147.07,7,146.17,7h0"/></clipPath><clipPath id="clip-path-3"><path class="cls-1" d="M103.42,1.59c-.68,0-10.25,5.32-15.92,12.6a92.51,92.51,0,0,0-8.45,13.94l7.12,1.17s2.06-4.37,4.49-9.23c3.8-7.57,13.42-18.48,12.76-18.48h0"/></clipPath><clipPath id="clip-path-4"><path class="cls-1" d="M57.47,20.07C59.9,24.93,62,29.3,62,29.3l7.12-1.17a93,93,0,0,0-8.46-13.94C55,6.91,45.38,1.6,44.71,1.59s9,10.91,12.76,18.48"/></clipPath><clipPath id="clip-path-5"><path class="cls-1" d="M62.57,28.67c-5.52,4.71-7.82,12.66-6.81,22.11s5.3,33.79,19.18,32.1S88.38,67.72,91.09,60.23c3.28-9.08.25-28.81-4.79-32.55C83.93,25.92,79.77,25,75.45,25c-4.87,0-10,1.18-12.88,3.67"/></clipPath><clipPath id="clip-path-6"><path class="cls-1" d="M126.62,118.75a33.41,33.41,0,0,1-9-2.52l-.28,4.47s-1.51,16.8-2.52,23.68a233.89,233.89,0,0,0-2.24,27.19l8.69.42,1.12-2.9a61.1,61.1,0,0,0,6.37.55,59.59,59.59,0,0,0,8.23-.86l1.11,3.22h8.19c-.21-5.26,0-11.89-3.13-32.94-1.34-9.14-2.44-22.83-2.44-22.83s-10.26,2.8-14.15,2.52"/></clipPath><clipPath id="clip-path-7"><path class="cls-1" d="M141.22,125.74s4.67,3.49,5.26,9.06c.25,2.31-3.09,9.27-3.09,9.27l4.74,2.74s5.07-8.52,2.49-16c-2.24-6.46-9.16-12.27-9.16-12.27Z"/></clipPath><clipPath id="clip-path-8"><path class="cls-1" d="M108.39,130.66c-2.67,7.41,2.3,16,2.3,16l4.77-2.69s-3.26-7-3-9.31c.66-5.57,5.66-8.89,5.66-8.89l-1.81-6.4s-5.62,4.86-7.94,11.29"/></clipPath><clipPath id="clip-path-9"><path class="cls-1" d="M136.55,60.42c-.64.23-6.19,2.53-9.41,10.88a22.88,22.88,0,0,0-1.25,6.93l6,.61a23.25,23.25,0,0,1,0-6.41c1.18-6.54,5.13-12,4.68-12h0"/></clipPath><clipPath id="clip-path-10"><path class="cls-1" d="M102.22,66.36c-.67,0,4.54,4.2,8.94,10.62a41.8,41.8,0,0,1,2.71,5.19l5.45-2.74a47,47,0,0,0-4-5.4c-5.86-6.72-12.37-7.67-13.1-7.67h0"/></clipPath></defs><g id="Capa_2" data-name="Capa 2"><g id="Capa_1-2" data-name="Capa 1"><path class="cls-2" d="M29.64,135.91c59.74-8.57,107.56-3.92,167.46-3.4,9.15.08,33.63-.15,38,15.62,4.15,15.12-2.35,21.54-9.9,30.28S201.58,194,192.86,192.9c-20-2.42-52.22,1.48-85.54,3-15.17.72-58.5,5-73.16-.43-11.44-4.25-12.5-3.28-23.06-12.85C5.79,177.86-.38,173.35,0,162c.41-11.85,3.62-12.76,9.31-16.88,6.05-4.39,6.05-4.39,20.31-9.16"/><path class="cls-3" d="M177.93,26.08c-1.83-2.4-5.85-6-12.5-8.39-8.79-3.18-15.29.62-14.77,1.79s5.5,5.1,9.52,6.74,12.12,4,17.7,4c4,0,1-2.92.05-4.17"/><path class="cls-4" d="M177.46,13.32C172.2,5.79,163,0,162.29,0S170.63,11.28,174,19c2.18,4.94,4,9.39,4,9.39l7.14-.8a93.42,93.42,0,0,0-7.7-14.27"/><g class="cls-5"><path class="cls-6" d="M184.68,22.05s-2.63.85-5.47,1.62a32.5,32.5,0,0,1-3.56.84l-2.29-4a78.48,78.48,0,0,1,8.09-2.7c3.06-.72,3.23,4.26,3.23,4.26"/><path class="cls-6" d="M179.46,13s-2.52,1.13-5.25,2.19a32.11,32.11,0,0,1-3.44,1.21L168,12.69a79.1,79.1,0,0,1,7.74-3.53c2.95-1,3.68,3.81,3.68,3.81"/><path class="cls-6" d="M173.23,4.83s-2.35,1.43-4.93,2.83a29.5,29.5,0,0,1-3.25,1.63L161.88,6a78.48,78.48,0,0,1,7.2-4.47c2.8-1.4,4.15,3.32,4.15,3.32"/></g><path class="cls-4" d="M163.72,16.86c-6.7-6.28-16.92-10-17.59-9.9s10.49,9.32,15.4,16.17c3.15,4.39,5.85,8.37,5.85,8.37l6.81-2.26a92.14,92.14,0,0,0-10.47-12.38"/><g class="cls-7"><path class="cls-6" d="M172.59,23.91s-2.4,1.39-5,2.72a31.18,31.18,0,0,1-3.31,1.56l-3.07-3.46a78.06,78.06,0,0,1,7.36-4.31c2.84-1.34,4,3.49,4,3.49"/><path class="cls-6" d="M165.61,16.11s-2.23,1.63-4.69,3.23a33.16,33.16,0,0,1-3.12,1.89l-3.42-3.05a77.93,77.93,0,0,1,6.84-5c2.68-1.63,4.39,3,4.39,3"/><path class="cls-6" d="M157.84,9.43s-2,1.89-4.24,3.78a31,31,0,0,1-2.85,2.27L147,12.9A79.57,79.57,0,0,1,153.09,7c2.45-1.95,4.75,2.4,4.75,2.4"/></g><path class="cls-8" d="M194.09,22.38A4.28,4.28,0,0,0,189.61,26c-.58,3.68,1.08,4.79,2.61,5.37s6.39-.14,6.27-4.18C198.4,23.63,196.18,22.39,194.09,22.38Z"/><path class="cls-9" d="M195.75,27.35a.75.75,0,0,1,.56-1,.74.74,0,0,1,.95.6.8.8,0,0,1-.61.95.77.77,0,0,1-.9-.53"/><path class="cls-3" d="M190.43,122.77s-.12,7.75,0,10.69,0,4.81,0,4.81-3.51.11-4.45,0l-.94-.11s0-4.34,0-7.12,0-8.27,0-8.27Z"/><path class="cls-3" d="M164.28,120.35s-.12,10.17,0,13.11,0,4.81,0,4.81-3.5.11-4.44,0l-1-.11s0-4.34,0-7.12,0-10.69,0-10.69Z"/><path class="cls-10" d="M190.54,138.13s1.52,7.2.34,7.34-3.17-4.6-3.17-4.6-.62,4.63-1.51,4.19-1.8-5.73-1.3-6.93a39.15,39.15,0,0,0,5.64,0"/><path class="cls-10" d="M158.86,138.12s-1.49,7.21-.34,7.35,3.11-4.6,3.11-4.6.6,4.63,1.47,4.19,1.76-5.73,1.28-6.94c-1.18.35-5.52,0-5.52,0"/><path class="cls-3" d="M163.4,34.86c2.48-3.1,8.14-7.66,13.75-7.92,15.52-.72,32.43,5.19,39.84,11.11,9.91,7.92,7.51,19.23,1.79,23.63s-12.35,5.26-13.56,9.52-1.54,6.14-1.54,6.14-.67-7.26-2-9-9.2-3.63-11.95-3-2.13,3,.74,18.34c.59,3.16,2.44,17.35,2.29,22.74s-16.72,5.23-16.72,5.23l-19.21-5.21s.43-9.21,1.86-23.43c1.19-11.79,1.37-17.58,1.65-20.66.55-6-1.61-10.48-1.4-15.65a21,21,0,0,1,4.45-11.85"/><path class="cls-11" d="M162.18,38.33s-8,2-15,.61c-4.58-.9-13.33-2.39-11.76-3.86s14.95-5.83,20.9-4.62a25.09,25.09,0,0,1,9.07,3.48Z"/><path class="cls-3" d="M162.25,66.42S149.3,72,146.37,75.91c-4.5,6,3.33,15.84,3.33,15.84l4.19-3.41s-4.31-5.39-3.53-7.7,11.16-8.15,11.16-8.15Z"/><path class="cls-3" d="M187.36,70.23s10.3,13.49,13,18.11a35.66,35.66,0,0,1,3.79,9.25l-4.76,2.09S197.11,94,195,90.22s-5.39-8.92-5.39-8.92Z"/><path class="cls-10" d="M204.2,97.24s2.62,7.44,1.76,7.32-3.5-4.37-3.5-4.37.12,5.48-.83,5.37S199,98.78,199,98.78Z"/><path class="cls-10" d="M149.7,91.75s3.6,6.85,4.44,6-1-4.76-1-4.76S157,96,157.75,95.07s-3.89-6.73-3.89-6.73Z"/><path class="cls-12" d="M184.82,34.29c.74,2.6.27,6.76-4.07,7.43-5,.79-6.47-2.44-6.83-4.33a5.79,5.79,0,0,1,4.4-6.93c3.7-.94,6,2.18,6.5,3.83"/><path class="cls-9" d="M182.74,36.38a.85.85,0,0,1-.63,1.15.82.82,0,0,1-1.06-.67.9.9,0,0,1,.68-1.07.87.87,0,0,1,1,.59"/><path class="cls-13" d="M217,49a24.52,24.52,0,0,1,.34,8c-.51,2.71-1,5.47-2.15,6.75"/><path class="cls-10" d="M188.9,53.38s7.47,5.33,5.54,6c-7.08,2.6-5.54-6-5.54-6"/><path class="cls-3" d="M166.26,31.94a38.22,38.22,0,0,0-15.6-3.69c-12.13.07-16,7.41-15.38,7.18,4.85-1.73,11.89-3.18,16.66-2.8a54.46,54.46,0,0,1,12.78,3Z"/><path class="cls-11" d="M216.78,49.53c-2.06.26-6.67-2.59-7.89-4.37-1-1.42,1-4.48,5.79-4.62s4.57,2.39,4.43,4.35c-.17,2.26-1,4.47-2.33,4.64"/><path class="cls-12" d="M164.52,97.24c0,12.87,5.28,19.9,10.81,19.9s10.15-5.87,9.83-18.73c-.4-15.84-4.3-27.85-9.83-27.85-8,0-10.81,13.82-10.81,26.68"/><path class="cls-14" d="M192.82,101.74s.08,10.29,0,13.86c-.08,3.9-.34,8.35-.34,8.35s-1.61,0-3.9,0-7.37-.56-7.37-.56l-.6-6.69a31.73,31.73,0,0,1-6.23.43c-5.8-.21-5.79-.54-5.79-.54L167,122.48a58,58,0,0,1-5.85,0c-2.88-.16-4.8.12-4.94-1s.61-19.78.61-19.78,13.4,1,19,.83,17-.83,17-.83"/><path class="cls-4" d="M87.5,14.19c5.67-7.28,15.24-12.59,15.92-12.6s-9,10.91-12.76,18.48c-2.43,4.86-4.49,9.23-4.49,9.23l-7.12-1.17A92.51,92.51,0,0,1,87.5,14.19"/><g class="cls-15"><path class="cls-6" d="M79.8,22.59s2.6,1,5.41,1.91a34.24,34.24,0,0,0,3.53,1l2.51-3.92a78.91,78.91,0,0,0-8-3.13c-3-.88-3.47,4.11-3.47,4.11"/><path class="cls-6" d="M85.51,13.74S88,15,90.67,16.21a32.18,32.18,0,0,0,3.4,1.39L97,14A78,78,0,0,0,89.4,10.1c-2.91-1.19-3.89,3.64-3.89,3.64"/><path class="cls-6" d="M92.17,5.89S94.46,7.45,97,9a30.26,30.26,0,0,0,3.19,1.8l3.36-3.16a78.79,78.79,0,0,0-7-4.86c-2.73-1.55-4.34,3.13-4.34,3.13"/></g><path class="cls-4" d="M60.63,14.19C55,6.91,45.38,1.6,44.71,1.59s9,10.91,12.76,18.48C59.9,24.93,62,29.3,62,29.3l7.12-1.17a93.46,93.46,0,0,0-8.45-13.94"/><g class="cls-16"><path class="cls-6" d="M68.33,22.59s-2.6,1-5.42,1.91a31.27,31.27,0,0,1-3.53,1l-2.5-3.91a78.91,78.91,0,0,1,8-3.13c3-.88,3.47,4.11,3.47,4.11"/><path class="cls-6" d="M62.62,13.74S60.15,15,57.45,16.21a33.06,33.06,0,0,1-3.39,1.39L51.14,14a78,78,0,0,1,7.59-3.94c2.91-1.19,3.89,3.64,3.89,3.64"/><path class="cls-6" d="M56,5.89S53.67,7.45,51.15,9A30.26,30.26,0,0,1,48,10.78L44.6,7.62a77.22,77.22,0,0,1,7-4.86C54.35,1.21,56,5.89,56,5.89"/></g><path class="cls-3" d="M60.92,66s-2.7,26-2.7,31.7-.43,13,0,14.08,33.38,1,33.38,1S87.69,73,87.27,64.94c-11.57-.67-26.35,1-26.35,1"/><path class="cls-12" d="M84.57,97c0,12.93-5.32,20-10.88,20s-10.2-5.91-9.88-18.84c.4-15.93,4.32-28,9.88-28,8,0,10.88,13.9,10.88,26.83"/><path class="cls-11" d="M34.91,43s9.17.95,14.86-2.07C57,37,62.13,33,62.41,32.12s-4.36-3-9.54-1.71S34.91,43,34.91,43"/><path class="cls-11" d="M109.32,46s-8.15.92-15-3.65-10-9.07-10.23-9.91,9.13,1.77,14.3,3.09S109.32,46,109.32,46"/><path class="cls-3" d="M101.4,32a16.59,16.59,0,0,1,8.19,12.2c.37,3-.61,2.16-1.83.94s-3.71-6.11-9.21-8.66a26.72,26.72,0,0,0-9.17-2.34l-3-4.18a21.42,21.42,0,0,1,15.07,2"/><path class="cls-3" d="M55.76,50.78c1,9.45,5.3,33.79,19.18,32.1S88.38,67.72,91.09,60.23c3.28-9.08.26-28.81-4.79-32.55s-18.2-3.72-23.73,1-7.82,12.65-6.81,22.1"/><g class="cls-17"><path class="cls-12" d="M94.28,56.81a2.43,2.43,0,0,1-2.36,2.46,2.14,2.14,0,0,1-2.38-2.08,2.39,2.39,0,0,1,2.38-2.39c1.32,0,2.36.7,2.36,2"/><path class="cls-12" d="M60.39,57.94a2.87,2.87,0,0,1-5.72,0,2.86,2.86,0,0,1,5.72,0"/><path class="cls-12" d="M88,54.61c0,.9-.43,1.6-1.33,1.6a1.9,1.9,0,0,1-1.94-1.6,1.64,1.64,0,1,1,3.27,0"/></g><path class="cls-3" d="M60.63,125.89s.12,7.79,0,10.75,0,4.83,0,4.83,3.52.12,4.47,0l.94-.11s0-4.36,0-7.16,0-8.31,0-8.31Z"/><path class="cls-3" d="M85.3,123.46s.11,10.22,0,13.18,0,4.83,0,4.83,3.52.12,4.46,0l.95-.11s0-4.36,0-7.16,0-10.74,0-10.74Z"/><path class="cls-10" d="M60.52,141.33s-1.54,7.24-.35,7.38,3.19-4.62,3.19-4.62.62,4.65,1.52,4.21,1.8-5.75,1.31-7a39.56,39.56,0,0,1-5.67,0"/><path class="cls-10" d="M90.75,141.33s1.5,7.24.34,7.38S88,144.09,88,144.09s-.6,4.65-1.48,4.21-1.77-5.75-1.28-7c1.18.35,5.55,0,5.55,0"/><path class="cls-3" d="M85.4,67.61s13,5.61,16,9.54c4.53,6-3.35,15.93-3.35,15.93l-4.21-3.43s4.33-5.42,3.55-7.74-11.22-8.2-11.22-8.2Z"/><path class="cls-10" d="M98,93.08s-3.61,6.88-4.46,6,1-4.79,1-4.79-3.86,3.09-4.64,2.12,3.91-6.76,3.91-6.76Z"/><path class="cls-3" d="M62.78,67.61s-13,5.61-16,9.54c-4.52,6,3.36,15.93,3.36,15.93l4.2-3.43S50,84.23,50.82,81.91,62,73.7,62,73.7Z"/><path class="cls-10" d="M50.17,93.08s3.61,6.88,4.45,6-1-4.79-1-4.79,3.86,3.09,4.64,2.12-3.91-6.76-3.91-6.76Z"/><path class="cls-12" d="M79.48,41.26c-.58,2.53,0,6.49,4.09,6.9,4.69.49,5.88-2.68,6.12-4.51a5.47,5.47,0,0,0-4.37-6.39c-3.47-.71-5.48,2.39-5.84,4"/><path class="cls-9" d="M85.24,41.51a.86.86,0,0,0,.63,1.16A.83.83,0,0,0,86.93,42a.88.88,0,0,0-.68-1.07.86.86,0,0,0-1,.59"/><path class="cls-12" d="M58.06,42.17c-.69,2.49-.32,6.47,3.54,7.07,4.48.7,5.79-2.41,6.12-4.22.49-2.65-.55-5.71-3.84-6.58s-5.39,2.14-5.82,3.73"/><path class="cls-9" d="M63.74,42.74a.84.84,0,0,0,.63,1.15.81.81,0,0,0,1.06-.67.89.89,0,0,0-.69-1.07.84.84,0,0,0-1,.59"/><path class="cls-18" d="M81.18,25.63c1.59,2.57,6.29,6.19,6.66,5.76a26,26,0,0,0,3.76-9.76,16.24,16.24,0,0,0-9.82.85c-1.19-2.59-4-5-7.2-6.64-1.83,3.89-3,9.1-2.64,10.42,0,0,6.59,1.48,9.24-.63"/><path class="cls-19" d="M80.19,27.25c-1.9-.31-1.67-2.34-1-4.25s1.18-2.77,3.17-2.19,1.86,1.85,1.21,3.76-1.26,3-3.36,2.68"/><path class="cls-20" d="M57.56,104.72S53.87,115,52.9,119s-2.91,7.8-2.41,8.72,20.21,1.68,29.72.5,20.38-3.6,19.72-4.76-1.43-3.88-3.67-9S90.7,102.8,90.7,102.8A68.66,68.66,0,0,1,76,105.73a71,71,0,0,1-18.43-1"/><path class="cls-13" d="M74.05,76.85a13.49,13.49,0,0,0,.38,3.57,14.7,14.7,0,0,0,1.14,2.22"/><path class="cls-13" d="M83.08,79.23a3.43,3.43,0,0,0,.72-2.59A3.2,3.2,0,0,0,83.07,75"/><path class="cls-3" d="M64,31.23s-7.46-5.43-15.68-4c-5.57,1-10.26,5.72-12.28,9.64s-2.44,6.2-1.29,6.12c1.51-.59,6.61-5.7,12.28-8.3,7.6-3.48,17-3.48,17-3.48"/><path class="cls-11" d="M74.06,77.09c.83,0,2.4-1.65,3.84-3.27s2.57-3.27.22-4.71a9.31,9.31,0,0,0-8.45,0c-2,1.26-.88,2.9-.12,3.76,1.27,1.41,3.61,4.22,4.51,4.22"/><path class="cls-3" d="M139.25,167.34l1.28,14.72a32.75,32.75,0,0,0,4.43,0c0-.2-1.19-14.72-1.19-14.72Z"/><path class="cls-3" d="M118.45,167.19l-1.08,14.67s-4.38-.17-4.38-.38,1.2-14.49,1.2-14.49Z"/><path class="cls-14" d="M117.39,120.7s-1.51,16.79-2.52,23.68a233.89,233.89,0,0,0-2.24,27.19l8.69.42,1.12-2.9a58.13,58.13,0,0,0,6.37.55,59.59,59.59,0,0,0,8.23-.86l1.11,3.22h8.19c-.21-5.26,0-11.89-3.13-32.94-1.34-9.14-2.44-22.83-2.44-22.83s-10.26,2.8-14.15,2.52a33.41,33.41,0,0,1-9-2.52Z"/><g class="cls-21"><path class="cls-12" d="M146.67,160.39s-5.19,3.4-18.35,3.57a64.21,64.21,0,0,1-17.58-2.69l.49-6.7s10.17,2.93,17.81,2.61a58.27,58.27,0,0,0,16.51-3.07Z"/><path class="cls-12" d="M112.63,148.07a46.18,46.18,0,0,0,16.68,2.65C140,150.1,145,147.37,145,147.37l-.88-6.1a55.73,55.73,0,0,1-15.65,2.48c-10.22.29-14.6-2.17-15.86-2.22Z"/><path class="cls-12" d="M112.51,134.15a40,40,0,0,0,15.34,3.06c10.73-.12,16-2.63,16-2.63l-.59-6.13s-5.43,3-14.85,2.86c-10.22-.2-14.31-2.92-15.58-3l-.27,5.88"/></g><path class="cls-14" d="M141.46,118.58s6.92,5.81,9.15,12.27c2.59,7.44-2.48,16-2.48,16l-4.75-2.74s3.35-7,3.1-9.27c-.59-5.57-5.27-9.06-5.27-9.06Z"/><g class="cls-22"><polygon class="cls-12" points="142.68 131.42 151.46 120.27 149.61 118.98 140.96 130.4 142.68 131.42"/><polygon class="cls-12" points="144.97 134.72 156.17 126.02 154.69 124.32 143.55 133.32 144.97 134.72"/><polygon class="cls-12" points="144.31 137.29 158.5 137.24 158.37 134.99 144.05 135.32 144.31 137.29"/><polygon class="cls-12" points="141.1 139.41 153.76 145.81 154.67 143.75 141.76 137.53 141.1 139.41"/></g><path class="cls-10" d="M148.13,146.81s-2.75,6.32-3.6,5.54.2-4,.2-4-3,2.59-3.83,1.73,2.67-5.91,2.67-5.91Z"/><path class="cls-14" d="M116.33,119.37s-5.62,4.86-7.94,11.29c-2.67,7.41,2.3,16,2.3,16l4.77-2.69s-3.26-7-3-9.31c.66-5.56,5.66-8.89,5.66-8.89Z"/><g class="cls-23"><polygon class="cls-12" points="116.32 131.33 107.68 120.08 109.55 118.8 118.05 130.33 116.32 131.33"/><polygon class="cls-12" points="114 134.6 102.9 125.76 104.4 124.08 115.43 133.21 114 134.6"/><polygon class="cls-12" points="114.62 137.18 100.43 136.95 100.59 134.71 114.91 135.21 114.62 137.18"/><polygon class="cls-12" points="117.8 139.34 105.06 145.58 104.18 143.51 117.17 137.44 117.8 139.34"/></g><path class="cls-10" d="M111,146.47s2,6.46,2.94,5.78.07-4.08.07-4.08,2.8,3,3.68,2.26-2.23-6.46-2.23-6.46Z"/><path class="cls-4" d="M127.14,71.3c3.22-8.35,8.77-10.65,9.41-10.88s-3.45,5.34-4.65,12a23.25,23.25,0,0,0,0,6.41l-6-.61a22.88,22.88,0,0,1,1.25-6.93"/><g class="cls-24"><path class="cls-6" d="M125.6,74s2.27.37,4.69.65a28.55,28.55,0,0,0,3,.25l1.19-3.37a66.6,66.6,0,0,0-7-1.2c-2.59-.22-1.92,3.67-1.92,3.67"/><path class="cls-6" d="M128.34,66.4s2.22.6,4.61,1.11a27.63,27.63,0,0,0,3,.56l1.59-3.17s-4.27-1.4-6.83-1.88-2.36,3.38-2.36,3.38"/></g><path class="cls-4" d="M115.33,74c-5.89-6.75-12.42-7.68-13.11-7.67s4.54,4.2,8.94,10.62a41.8,41.8,0,0,1,2.71,5.19l5.45-2.74a47,47,0,0,0-4-5.4"/><g class="cls-25"><path class="cls-6" d="M117.7,75.25s-2,1.13-4.19,2.22a29.86,29.86,0,0,1-2.74,1.28L108.49,76s3.79-2.43,6.14-3.53,3.07,2.79,3.07,2.79"/><path class="cls-6" d="M112.51,69s-1.88,1.32-4,2.62A25.41,25.41,0,0,1,106,73.18l-2.59-2.42a69,69,0,0,1,5.77-4.11c2.25-1.32,3.38,2.37,3.38,2.37"/></g><path class="cls-11" d="M161.12,81.8s-7.74,4.53-13.83,4.63c-7.75.15-13.24-.41-13.86-1s2.21-4.51,7.09-5.79,20.6,2.14,20.6,2.14"/><path class="cls-3" d="M131.67,85.46a21.47,21.47,0,0,1,11-9.24,16.28,16.28,0,0,1,13.93,1.69c3.47,2.31,5.61,3.42,4.63,3.88-1.53.2-8.08-1.69-14-1.24-7.88.61-15.62,4.91-15.62,4.91"/><path class="cls-11" d="M87.65,90.18s6.59,4.08,14.26,2.92,12.16-3.72,12.74-4.34-8.52-2.17-13.47-3.12-13.53,4.54-13.53,4.54"/><path class="cls-3" d="M100.43,81.87A16.31,16.31,0,0,0,88.11,88.6c-1.5,2.38-.3,1.73,1.24,1.18s5.58-3.35,11.31-3.31a25.47,25.47,0,0,1,8.79,1.7l4.29-2.34a19.53,19.53,0,0,0-13.31-4"/><path class="cls-3" d="M143.86,98.3c.62,9,.64,32.32-12.56,33s-16-11.59-19.76-18.12c-4.55-7.9-6.67-25.82.11-31.38,4.59-3.76,16.33-6.45,22.24-3s9.36,10.49,10,19.45"/><path class="cls-12" d="M120.23,93.34c1,2.26,1,6-2.67,7.1-4.29,1.22-5.91-1.53-6.44-3.19a5.18,5.18,0,0,1,3-6.67c3.1-1.23,5.49,1.33,6.09,2.76"/><path class="cls-9" d="M119.84,94.43a.8.8,0,0,1-.4,1.18.78.78,0,0,1-1.1-.46A.84.84,0,0,1,118.8,94a.82.82,0,0,1,1,.39"/><path class="cls-12" d="M140.31,90.66c1.06,2.21,1.36,6-2.13,7.17-4.06,1.38-5.79-1.29-6.39-2.93-.9-2.38-.43-5.4,2.49-6.75s5.37,1.11,6,2.51"/><path class="cls-9" d="M140.1,91.75a.81.81,0,0,1-.39,1.18.78.78,0,0,1-1.1-.45.84.84,0,0,1,.46-1.12.8.8,0,0,1,1,.39"/><path class="cls-13" d="M131.14,125.58a12.75,12.75,0,0,1,.23,3.37,13.46,13.46,0,0,1-.7,2.26"/><path class="cls-11" d="M131.17,125.79c-.77.14-2.5-1.14-4.11-2.41s-2.93-2.62-1-4.34a8.83,8.83,0,0,1,7.87-1.4c2.05.85,1.3,2.56.73,3.48-.94,1.53-2.67,4.52-3.5,4.67"/><path class="cls-9" d="M145.06,180.71s1.29,6.06.3,6.17-2.67-3.86-2.67-3.86-.51,3.89-1.27,3.52-1.51-4.81-1.09-5.83a31.14,31.14,0,0,0,4.73,0"/><path class="cls-9" d="M112.9,180.71s-1.23,5.92-.28,6,2.55-3.77,2.55-3.77.5,3.8,1.21,3.43,1.45-4.69,1.05-5.69a23,23,0,0,1-4.53,0"/></g></g></svg>