<?xml version="1.0" encoding="utf-8"?>
<!-- Generator: Adobe Illustrator 26.2.1, SVG Export Plug-In . SVG Version: 6.00 Build 0)  -->
<svg version="1.1" id="Capa_1" xmlns="http://www.w3.org/2000/svg" xmlns:xlink="http://www.w3.org/1999/xlink" x="0px" y="0px"
	 viewBox="0 0 200.6 228.1" style="enable-background:new 0 0 200.6 228.1;" xml:space="preserve">
<style type="text/css">
	.st0{fill:#2FAC66;}
	.st1{fill:none;stroke:#DAD8CC;stroke-width:0.28;stroke-linecap:round;}
	.st2{fill:#A4A092;}
	.st3{fill:#DAD8CC;}
	.st4{fill-rule:evenodd;clip-rule:evenodd;fill:#E30613;}
	.st5{fill-rule:evenodd;clip-rule:evenodd;fill:#A4A092;}
	.st6{fill-rule:evenodd;clip-rule:evenodd;fill:#DAD8CC;}
	.st7{fill:#1D1D1B;}
	.st8{fill:#FFFFFF;}
	.st9{fill:#B4B0A4;}
	.st10{fill:none;stroke:#DAD8CC;stroke-width:0.28;stroke-linecap:round;stroke-linejoin:round;}
	.st11{fill:url(#SVGID_1_);}
	.st12{fill:url(#SVGID_00000134214957949054866830000004863101577163847825_);}
	.st13{fill:#0D181C;}
	.st14{fill:none;stroke:#1D1D1B;stroke-width:0.6;stroke-linecap:round;stroke-linejoin:round;}
	.st15{fill:#E30613;}
	.st16{fill-rule:evenodd;clip-rule:evenodd;fill:#FFFFFF;}
</style>
<g id="Capa_2_00000080929302791311085590000010824524796160897712_">
	<g id="Capa_1-2">
		<path class="st0" d="M25.6,194c49.8-3.6,89.6,1.3,139.5,1.5c7.6,0,26.8-5.7,30.4,1c3.4,6.4-0.7,14.8-7,18.5s-13.9,4-21.2,4.3
			c-31,1.1-61.9,3.4-92.7,6.9c-12.3,1.4-24.9,3-37.1,0.6c-9.5-1.8-18.4-5.9-27.2-10c-4.4-2-9.6-5.2-9.2-10.1c0.3-5,3-7.1,7.8-8.9
			C13.7,196,13.7,196,25.6,194"/>
		<path class="st1" d="M154.4,61.8c0,0-4.1,1.1-8.6,2c-3.3,0.6-6.7,0.7-10,0.5c0,0-4.6-0.6-8.2-0.7c-6.5-0.2-9.8-2.6-9.8-2.6
			l2.2,10.3l3.7-8.1l2.8,9.7l4-7.7c0,0,3.7,8.2,3.8,7.6s1.6-5.6,2.2-7.7l3.8,6.9l1.5-7.3l5.2,6.9l1.4-8.5c0,0,6.1,6.6,6,6.1
			S154.4,61.8,154.4,61.8z"/>
		<path class="st2" d="M78.5,71.3c0,0-2.2,8.6-5.6,12c-1.9,2-3.6,4.2-5.1,6.5l5.4-1.6c-3,2-5.4,4.5-7.2,7.6c-1,1.7-1.9,3.5-2.5,5.4
			l3.5-2.2c-2.8,3.4-5.2,7.1-7.3,11c-3,6,0.3,1.9,0.3,1.9s-3.1,10.5-4.3,17.4c1.2-2,2.6-3.9,4.1-5.6c-1.4,4.8-2.4,9.8-3,14.8
			c0.9-1.8,2.2-3.4,3.7-4.8c0.1,5.1,0.7,10.1,1.7,15.1c1.9,9.4,5.1,14.2,8.1,16.6s35.2,4.2,39.7,0c9.9-9.2,7.8-58.4,7.4-66.4
			s5.3-17.6,5.3-17.6L78.5,71.3z"/>
		<path class="st3" d="M117.6,110.7c0,0,1.4-8.6,1.7-13.9c0.2-3.1,0.8-6.3,1.7-9.3l0.5,0.2c0,0,0.7-5.3,2.2-7.9
			c0.7-1.1,4.4-3.7,4.7-4.8c-5.6-2.5-14.7-6.6-16.3-9.7c-0.8-1.5,0.8-2.8,1.6-2.7c12.4,0.7,19.5,5.4,41,0.4
			c22.1-5.1,48-19.8,45.5-23.7s-37-4.8-49.9-8.4s-32-12.3-32-12.3c-10.6-3.6-22.8,0.8-33.5,13s-6.3,39.6-6.3,39.6l21.9,5
			c0.5,3.6,1.2,7.1,2.2,10.5c0.6,1.9,1.4,3.8,2.5,5.5l1.3-4.6c0,0,0.6,7.7,1.6,11c0.8-1.3,1.3-2.7,1.7-4.1
			C109.6,94.6,113.1,108.7,117.6,110.7"/>
		<path class="st4" d="M121,81c0,0,2.6,6.1,4.5,10.2s9.2,7.3,9.2,7.3s0.9-7.6-2.9-10.6C128.4,85.3,124.8,83,121,81"/>
		<path class="st5" d="M68,153.3c-1.4-1.4-4.5,1.1-4.5,1.1c-6.1,3.8-12.7,6.8-19.6,8.8c-3.3,0.9-9.9,1.5-16.1,1.3s-7.4,0.4-7.4,0.4
			l1.6,1.1c0,0-3.8,0.6-7.1,1.3c-2,0.5-4,1.1-5.9,2l4,1.1c-2.6,0.4-5.2,1.1-7.7,2c-2,0.8-3.9,2-5.4,3.6c0,0,13.9,6.2,28.5,3.8
			c26.6-4.3,31.5-13.2,38-20.4C67.1,158.8,69.7,155,68,153.3"/>
		<path class="st6" d="M59.3,167.4c0,0-9,3.3-13.5,4.8c-13.2,4.2-27,6.1-40.8,5.6c0,0,9.6,4.4,24.4,2.6
			C49.1,177.9,59.3,167.3,59.3,167.4"/>
		<path class="st7" d="M175.1,33.9c0,0,2.4,7.5,3.6,12c1.8,7.2,0.8,8.4,0.8,8.4s20.8-8.7,20.8-15C200.3,36.4,175.1,33.9,175.1,33.9"
			/>
		<path class="st8" d="M105.3,137.1c-0.1,0.8-0.3,1.6-0.7,2.3c-0.5,0.7-1.2,1.3-2,1.7c1.2,0.3,2.4-0.1,3.3-0.9
			c0.5-0.6,0.8-1.4,0.8-2.2L105.3,137.1z"/>
		<path class="st8" d="M100.7,133.8c-0.3,0.7-0.8,1.4-1.3,2c-0.7,0.6-1.5,0.9-2.4,1.1c1.1,0.6,2.3,0.6,3.4,0.1
			c0.6-0.5,1.1-1.1,1.4-1.9L100.7,133.8z"/>
		<path class="st8" d="M112.7,136.3c0,0-0.4,2.2-1.5,2.9c-0.8,0.5-1.7,0.8-2.6,0.9c0.7-0.6,1.4-1.3,1.9-2.1c0.2-0.7,0.3-1.4,0.3-2.2
			L112.7,136.3z"/>
		<path class="st9" d="M90.7,89.1c2.3,0.3,3.8,4.3,5.6,11.4c1.4,5.4,12.2,22.3,14.4,25.2c2.6,3.6,4.4,10.4,1.9,11s-2.7-3.3-2.7-3.3
			s-0.9,5.2-3.5,4.6s-1.4-4.4-1.4-4.4s-2.4,2.8-4,1.2s1.6-7.1,1.6-7.1s-15.3-17.9-16.2-31.7C86.1,91.9,87.3,88.6,90.7,89.1"/>
		<path class="st8" d="M84.5,200.1c0.8-0.3,1.5-0.4,2.3-0.5c0.9,0.1,1.8,0.5,2.5,1c-0.3-1.2-1.2-2.1-2.3-2.5c-0.8-0.1-1.6,0-2.3,0.3
			L84.5,200.1z"/>
		<path class="st10" d="M84.5,200.1c0.8-0.3,1.5-0.4,2.3-0.5c0.9,0.1,1.8,0.5,2.5,1c-0.3-1.2-1.2-2.1-2.3-2.5
			c-0.8-0.1-1.6,0-2.3,0.3L84.5,200.1z"/>
		<path class="st8" d="M80.9,204.3c0.8,0.2,1.5,0.5,2.2,0.9c0.7,0.6,1.2,1.3,1.5,2.2c0.4-1.1,0.2-2.4-0.6-3.4
			c-0.6-0.5-1.3-0.9-2.1-1.1L80.9,204.3z"/>
		<path class="st10" d="M80.9,204.3c0.8,0.2,1.5,0.5,2.2,0.9c0.7,0.6,1.2,1.3,1.5,2.2c0.4-1.1,0.2-2.4-0.6-3.4
			c-0.6-0.5-1.3-0.9-2.1-1.1L80.9,204.3z"/>
		<path class="st8" d="M75.2,205.2c0.8,0.2,1.5,0.5,2.2,0.9c0.7,0.6,1.2,1.3,1.5,2.2c0.4-1.1,0.2-2.4-0.6-3.4
			c-0.6-0.5-1.3-0.9-2.1-1.1L75.2,205.2z"/>
		<path class="st10" d="M75.2,205.2c0.8,0.2,1.5,0.5,2.2,0.9c0.7,0.6,1.2,1.3,1.5,2.2c0.4-1.1,0.2-2.4-0.6-3.4
			c-0.6-0.5-1.3-0.9-2.1-1.1L75.2,205.2z"/>
		<linearGradient id="SVGID_1_" gradientUnits="userSpaceOnUse" x1="79.3706" y1="217.7739" x2="75.6573" y2="158.3602">
			<stop  offset="0" style="stop-color:#313131"/>
			<stop  offset="0.5223" style="stop-color:#9D998C"/>
			<stop  offset="0.5586" style="stop-color:#A4A092"/>
		</linearGradient>
		<path class="st11" d="M79.4,161.8c0,0,2.5,11,2.3,18c-0.3,5.4-1.1,10.7-2.3,15.9c0,0,7,1,5.5,3.9c-1.3,2.5-4.8,0.1-4.8,0.1
			s4.9,2.7,2.5,4.4c-3,2.1-6.2-2.4-6.2-2.4s1.7,2.2,0.2,3.5c-3.7,3.1-5.7-4.9-5.3-7.9c0,0,4.1-12.8,2.9-20
			c-1.2-5.8-2.7-11.5-4.6-17.1L79.4,161.8z"/>
		<path class="st8" d="M116.8,198.3c0.7-0.3,1.5-0.5,2.3-0.6c0.9,0.1,1.8,0.4,2.5,0.9c-0.4-1.1-1.3-2-2.4-2.4
			c-0.8-0.1-1.6,0-2.3,0.4L116.8,198.3z"/>
		<path class="st10" d="M116.8,198.3c0.7-0.3,1.5-0.5,2.3-0.6c0.9,0.1,1.8,0.4,2.5,0.9c-0.4-1.1-1.3-2-2.4-2.4
			c-0.8-0.1-1.6,0-2.3,0.4L116.8,198.3z"/>
		<path class="st8" d="M113.3,202.6c0.8,0.2,1.5,0.4,2.3,0.8c0.7,0.6,1.3,1.3,1.6,2.1c0.3-1.2,0.1-2.4-0.7-3.3
			c-0.6-0.5-1.4-0.9-2.1-1L113.3,202.6z"/>
		<path class="st10" d="M113.3,202.6c0.8,0.2,1.5,0.4,2.3,0.8c0.7,0.6,1.3,1.3,1.6,2.1c0.3-1.2,0.1-2.4-0.7-3.3
			c-0.6-0.5-1.4-0.9-2.1-1L113.3,202.6z"/>
		<path class="st8" d="M107.7,203.8c0.8,0.2,1.6,0.4,2.3,0.8c0.7,0.6,1.3,1.3,1.6,2.1c0.3-1.2,0.1-2.4-0.7-3.3
			c-0.6-0.5-1.3-0.9-2.1-1L107.7,203.8z"/>
		<path class="st10" d="M107.7,203.8c0.8,0.2,1.6,0.4,2.3,0.8c0.7,0.6,1.3,1.3,1.6,2.1c0.3-1.2,0.1-2.4-0.7-3.3
			c-0.6-0.5-1.3-0.9-2.1-1L107.7,203.8z"/>
		
			<linearGradient id="SVGID_00000120526167897998853560000002069415912672269239_" gradientUnits="userSpaceOnUse" x1="111.1383" y1="215.7885" x2="107.4249" y2="156.3748">
			<stop  offset="0" style="stop-color:#313131"/>
			<stop  offset="0.5223" style="stop-color:#9D998C"/>
			<stop  offset="0.5586" style="stop-color:#A4A092"/>
		</linearGradient>
		<path style="fill:url(#SVGID_00000120526167897998853560000002069415912672269239_);" d="M110.2,160.2c0,0,3,10.9,3,17.9
			c-0.1,5.4-0.7,10.7-1.6,16c0,0,7,0.8,5.6,3.7c-1.2,2.5-4.8,0.3-4.8,0.3s5,2.5,2.6,4.4c-2.9,2.2-6.3-2.1-6.3-2.1s1.8,2.1,0.3,3.5
			c-3.6,3.2-5.8-4.6-5.6-7.7c0,0,3.6-12.9,2.1-20.1c-1.4-5.8-3.2-11.4-5.3-16.9L110.2,160.2z"/>
		<path class="st4" d="M126.6,83c-0.1,1.8-1.5,3.3-3.3,3.5c-1.2-0.1-2.4-0.7-3.2-1.6c-0.5-0.5-0.9-1.2-0.9-1.9
			c0-1.9,2.7-3.5,4.1-3.5C125.1,79.7,126.5,81.2,126.6,83"/>
		<path class="st4" d="M122.2,82.7c0,0-3.8,5.4-6.2,9.2s-1.3,11.7-1.3,11.7s6.9-3.2,7.5-8.1C122.4,91.3,122.4,87,122.2,82.7"/>
		<path class="st2" d="M120.6,18.2c10.2,4.1,26.4,9.1,32.4,10.8c6.7,1.9,24.1,4.2,24.1,4.2l1.7,3.6c0,0-33.2-3-56.2-10.9
			C97.6,17.4,105.3,53.2,99.2,67C81.7,14.9,121.8,18.2,120.6,18.2"/>
		<path class="st13" d="M200.6,38.8c0-3-25.5-5.8-25.5-5.8s2.3,7.9,3.5,12.5c1.8,7.4,1.2,8.8,1.2,8.8S200.6,45.2,200.6,38.8"/>
		<path class="st8" d="M111.1,36.2c-0.9-3.7,1.4-9.3,5.1-8.7c2.6,0.2,3.2,1.3,5.4,0.5c1.9,0.8,2.4,1.4,2.9,2.7
			c1.4,3.4,0.9,9.3-4.5,10.6C115.6,42.4,112.1,40,111.1,36.2"/>
		<path class="st7" d="M122.4,32.9c0.3,0.6,0.2,1.3-0.4,1.7c-0.1,0-0.2,0.1-0.2,0.1c-0.6,0.3-1.3,0-1.6-0.6c0-0.1,0-0.1-0.1-0.2
			c-0.3-0.7,0.1-1.4,0.7-1.7c0,0,0,0,0,0C121.5,32.1,122.2,32.3,122.4,32.9"/>
		<path class="st14" d="M125,27.8c0,0-4.1,1-10.7-0.4c-2.3-0.5-4.5-1.4-6.5-2.8"/>
		<path class="st2" d="M93,21.4c0,0-11.6-8.9-16.3-11.1s-10.9-1.4-9.8,0c8.2,10,13.3,24.2,13.3,24.2L93,21.4z"/>
		<path class="st2" d="M114.3,16c0,0-8.7-11-12-13.6s-6.2-2.8-6-1.9s1.6,7.8,1.9,10.1s1,7.2,1,7.2L114.3,16z"/>
		<polygon class="st3" points="81.8,26.3 76.7,16.3 86.2,21.5 		"/>
		<path class="st15" d="M123.7,79.8c0,0-19.9-6.1-25.4-26.6s9.1-30.9,13.7-33.1c3.4-1.6,7.2-2.2,11-1.7c0,0,2.7-0.4-4.1-2.9
			c-10.8-3.9-24.7,0.4-31.2,4.9C79.9,25.5,71,44.6,66.8,53.2S51,72.6,51,72.6s12.5,4.3,22.1,2c10.1-2.4,18.8,1.1,22.8,2.2
			c6.3,1.8,26.6,6,26.6,6L123.7,79.8z"/>
		<path class="st16" d="M74.8,62.2c0,0.9-0.7,1.6-1.6,1.6c-0.9,0-1.6-0.7-1.6-1.6c0-0.9,0.7-1.6,1.6-1.6S74.8,61.3,74.8,62.2
			L74.8,62.2"/>
		<path class="st16" d="M83,58.9c0,0.9-0.7,1.6-1.6,1.6c-0.9,0-1.6-0.7-1.6-1.6c0-0.9,0.7-1.6,1.6-1.6S83,58,83,58.9L83,58.9"/>
		<path class="st16" d="M94.3,63.8c0,0.9-0.7,1.6-1.6,1.6c-0.9,0-1.6-0.7-1.6-1.6s0.7-1.6,1.6-1.6C93.6,62.2,94.3,62.9,94.3,63.8
			C94.3,63.8,94.3,63.8,94.3,63.8"/>
		<path class="st16" d="M98,72.1c0,0.9-0.7,1.6-1.6,1.6s-1.6-0.7-1.6-1.6c0-0.9,0.7-1.6,1.6-1.6C97.3,70.4,98,71.2,98,72.1
			C98,72.1,98,72.1,98,72.1"/>
		<path class="st16" d="M106.2,73.7c0,0.9-0.7,1.6-1.6,1.6s-1.6-0.7-1.6-1.6c0-0.9,0.7-1.6,1.6-1.6S106.2,72.8,106.2,73.7
			C106.2,73.7,106.2,73.7,106.2,73.7"/>
		<path class="st16" d="M114.3,77.9c0.1,0.9-0.6,1.7-1.5,1.7c-0.9,0.1-1.7-0.6-1.7-1.5c0-0.1,0-0.2,0-0.3c0.1-0.9,0.9-1.6,1.7-1.5
			C113.7,76.5,114.3,77.1,114.3,77.9"/>
		<path class="st16" d="M102,65.9c0,0.9-0.7,1.6-1.6,1.6s-1.6-0.7-1.6-1.6c0-0.9,0.7-1.6,1.6-1.6S102,65,102,65.9
			C102,65.9,102,65.9,102,65.9"/>
		<path class="st16" d="M95,49.8c0,0.9-0.7,1.6-1.6,1.6c-0.9,0-1.6-0.7-1.6-1.6c0-0.9,0.7-1.6,1.6-1.6C94.3,48.2,95,48.9,95,49.8
			C95,49.8,95,49.8,95,49.8"/>
		<path class="st16" d="M83.3,49.2c0,0.9-0.7,1.6-1.6,1.6c-0.9,0-1.6-0.7-1.6-1.6c0-0.9,0.7-1.6,1.6-1.6c0,0,0,0,0,0
			C82.5,47.5,83.3,48.3,83.3,49.2C83.3,49.1,83.3,49.1,83.3,49.2"/>
		<path class="st16" d="M79.8,39.8c0,0.9-0.7,1.6-1.6,1.6c-0.9,0-1.6-0.7-1.6-1.6c0-0.9,0.7-1.6,1.6-1.6
			C79.1,38.2,79.8,38.9,79.8,39.8C79.8,39.8,79.8,39.8,79.8,39.8"/>
		<path class="st16" d="M91.3,43.7c0,0.9-0.7,1.6-1.6,1.6c-0.9,0-1.6-0.7-1.6-1.6c0-0.9,0.7-1.6,1.6-1.6S91.3,42.8,91.3,43.7
			L91.3,43.7"/>
		<path class="st16" d="M90.9,55.9c0,0.9-0.7,1.6-1.6,1.6c-0.9,0-1.6-0.7-1.6-1.6c0-0.9,0.7-1.6,1.6-1.6c0,0,0,0,0,0
			C90.1,54.3,90.9,55,90.9,55.9L90.9,55.9"/>
		<path class="st16" d="M86.3,67.8c0.1,0.9-0.6,1.7-1.5,1.7c-0.9,0.1-1.7-0.6-1.7-1.5c0-0.1,0-0.2,0-0.3c0.1-0.9,0.9-1.6,1.7-1.5
			C85.6,66.4,86.2,67,86.3,67.8"/>
		<path class="st16" d="M76.7,70.9c0,0.9-0.7,1.6-1.6,1.6c-0.9,0-1.6-0.7-1.6-1.6c0-0.9,0.7-1.6,1.6-1.6
			C75.9,69.3,76.6,70,76.7,70.9C76.6,70.9,76.6,70.9,76.7,70.9"/>
		<path class="st16" d="M65.2,70.9c0,0.9-0.7,1.6-1.6,1.6c-0.9,0-1.6-0.7-1.6-1.6c0-0.9,0.7-1.6,1.6-1.6
			C64.4,69.3,65.2,70,65.2,70.9L65.2,70.9"/>
		<path class="st16" d="M66.8,62.7c0,0.9-0.7,1.6-1.6,1.6c-0.9,0-1.6-0.7-1.6-1.6c0-0.9,0.7-1.6,1.6-1.6c0,0,0,0,0,0
			C66,61,66.8,61.8,66.8,62.7C66.8,62.7,66.8,62.7,66.8,62.7"/>
		<path class="st16" d="M87.3,34.2c0,0.9-0.7,1.6-1.6,1.6c-0.9,0-1.6-0.7-1.6-1.6c0-0.9,0.7-1.6,1.6-1.6S87.3,33.3,87.3,34.2
			L87.3,34.2"/>
		<path class="st16" d="M91.3,24.5c0,0.9-0.7,1.6-1.6,1.6c-0.9,0-1.6-0.7-1.6-1.6c0-0.9,0.7-1.6,1.6-1.6S91.3,23.6,91.3,24.5
			C91.3,24.4,91.3,24.4,91.3,24.5"/>
		<path class="st16" d="M96.2,33.3c0,0.9-0.7,1.6-1.6,1.6c-0.9,0-1.6-0.7-1.6-1.6c0-0.9,0.7-1.6,1.6-1.6S96.2,32.4,96.2,33.3
			L96.2,33.3"/>
		<path class="st16" d="M99.2,24.5c0,0.9-0.7,1.6-1.6,1.6S96,25.3,96,24.4c0-0.9,0.7-1.6,1.6-1.6c0,0,0,0,0,0
			C98.5,22.8,99.2,23.6,99.2,24.5C99.2,24.4,99.2,24.4,99.2,24.5"/>
		<path class="st16" d="M105.3,17.3c0,0.9-0.7,1.6-1.6,1.6c-0.9,0-1.6-0.7-1.6-1.6s0.7-1.6,1.6-1.6
			C104.6,15.7,105.3,16.4,105.3,17.3"/>
		<path class="st16" d="M75,50.8c0,0.9-0.7,1.6-1.6,1.6c-0.9,0-1.6-0.7-1.6-1.6c0-0.9,0.7-1.6,1.6-1.6c0,0,0,0,0,0
			C74.3,49.2,75,49.9,75,50.8"/>
	</g>
</g>
</svg>
