<svg xmlns="http://www.w3.org/2000/svg" xmlns:xlink="http://www.w3.org/1999/xlink" viewBox="0 0 296.67 290.48"><defs><style>.cls-1,.cls-13{fill:none;}.cls-2{fill:#2fac66;}.cls-3{fill:#f3a5c2;}.cls-4{fill:#9c6297;}.cls-5{fill:#a4659e;}.cls-6{fill:#b780b1;}.cls-7{fill:#fff;}.cls-8{fill:#1d1d1b;}.cls-9{fill:#f39200;}.cls-10{fill:#0d181c;}.cls-11{opacity:0.8;}.cls-12{clip-path:url(#clip-path);}.cls-13{stroke:#dad8cc;stroke-linecap:round;stroke-width:0.28px;}</style><clipPath id="clip-path"><rect class="cls-1" x="93.04" y="97.39" width="5.27" height="10.75"/></clipPath></defs><g id="Capa_2" data-name="Capa 2"><g id="Capa_1-2" data-name="Capa 1"><path class="cls-2" d="M59.59,248c49.54-6,76.68-2.65,127.93-2,12.85.17,36.89.05,49.69.6,13.16.58,22.53.21,31,1.55,6.47,1,12.24,1.78,16.55,4.21,12.92,7.26,14.84,13.34,8,22.16a25.49,25.49,0,0,1-11.67,8.34c-12.41,4.65-30.4,7.52-46.48,7.55-23.78,0-28.39,0-53.62-1.73-7.15-.5-17.86-.6-31.88-1-22.2-.69-44.72,1.3-66.59-.56-6.08-.51-12-1.37-17.79-2.35-6.1-1-12.22-2.26-16.94-4.3-9-3.87-13.44-8.15-12.88-13.78a12.85,12.85,0,0,1,5-9.49c3.65-3.14,6.53-7.07,19.93-9.25"/><path class="cls-3" d="M103.62,253.43s-6.37.58-6,.72,7.62,2.44,7.62,2.44Z"/><path class="cls-3" d="M106.57,258.31s-7.07,3.9-6.66,4,8.93-.68,8.93-.68Z"/><path class="cls-3" d="M148.35,258.59s-6.38.58-6,.73,7.62,2.43,7.62,2.43Z"/><path class="cls-3" d="M110.06,263.81s-4.46,5.18-4,5.29,7-2.45,7-2.45Z"/><path class="cls-3" d="M151.29,263.47s-7.07,3.9-6.66,4,8.94-.68,8.94-.68Z"/><path class="cls-3" d="M154.78,269s-4.46,5.18-4,5.29,7-2.45,7-2.45Z"/><path class="cls-4" d="M179.49,218s21.26,19.13,42.34,22.13c17.77,2.53,48.71-3.85,48.71-3.85s-26.91,17.93-50.8,15.78c-15.33-1.38-32.24-7.32-46-15.46a42.52,42.52,0,0,0-7.84-3.18Z"/><path class="cls-5" d="M219.47,252.43a88.9,88.9,0,0,0,7.61-12.64c-3.5.1-6.81-.75-10.14-1a110,110,0,0,1-9.75,11.7c4.24.64,8.46,1.63,12.28,1.91"/><path class="cls-6" d="M208.88,251.46A116.36,116.36,0,0,0,217.79,238c-2.91-.53-8.59-2.18-11.61-3.08a159.61,159.61,0,0,1-10.77,13.6c5.2,1.26,8.94,2.56,13.47,2.93"/><path class="cls-5" d="M194.57,227.37c-3.66,5.68-9.69,12.9-12.93,16.88a75.67,75.67,0,0,0,15.46,5.16c3.2-3.57,7.34-9.94,11-15.48-4.92-1.24-9.15-4.2-13.49-6.56"/><path class="cls-6" d="M195.56,226.24c-6-3.21-11-7.7-14-10-3.67,6.07-12.34,12.86-15.7,17.16-1.31,2.22,11.44,9.07,17,11.62,3.16-3.94,8.93-13.05,12.65-18.81"/><path class="cls-4" d="M124.05,232.29l-7.72-4.63.36,27.3s-14.56-3.72-13.12-.63,8.5,13.08,8.5,13.08,13.43,0,12.62-5.41-.64-29.71-.64-29.71"/><path class="cls-4" d="M105.74,204c5,23.23,7.93,35.19,37.32,35.19,43.08,0,47.59-28,47.59-28Z"/><path class="cls-4" d="M168.77,230.57l-7.71,2.25.35,27.3s-14.55-3.72-13.11-.63,8.49,13.08,8.49,13.08,13.44,0,12.63-5.41-.65-36.59-.65-36.59"/><path class="cls-5" d="M104.16,206.92s12.06,9.91,49.83,9.87a195.87,195.87,0,0,0,36.75-3.49l3.31-7.25a248.16,248.16,0,0,1-47.05-.47c-29.68-3.19-44.71-12.93-44.71-12.93Z"/><path class="cls-6" d="M99,190.68s16.22,12.62,53.78,16.47c20.37,2.09,42.93-1.1,42.93-1.1l3.54-10s-27.16,3.51-52.32-1.85C117.71,188,99,175.14,99,175.14Z"/><path class="cls-5" d="M95.83,173.89s17.28,17.57,59.31,23c20.68,2.65,46.28-1,46.28-1L203.67,183a210.77,210.77,0,0,1-55-3.58c-32.78-6.89-52.28-20.63-52.28-20.63Z"/><path class="cls-4" d="M145.45,20.76c1-1.06,2.83-14.48,18.4-18.31S200-.61,196.41,4s-16.5,17.48-26,21.32a124.16,124.16,0,0,1-17.25,5.56Z"/><path class="cls-3" d="M72.88,98.89s-3.14-6.57-2.77-6.33,7.24,5.49,7.24,5.49Z"/><path class="cls-3" d="M79.69,97.67s-.12-8.24.21-8,4.58,7.7,4.58,7.7Z"/><path class="cls-3" d="M88.27,96.62s1.67-6.63,2-6.35,2,7.17,2,7.17Z"/><path class="cls-4" d="M105.06,107C99,112.36,91.25,123.07,90.3,121.21a42.25,42.25,0,0,1-3.81-13s1.93-1.64,5-6.61a11.9,11.9,0,0,0,1.29-5.1,79.25,79.25,0,0,0-15,.79,19.87,19.87,0,0,0-5.88,2.16,13.36,13.36,0,0,0,2.51,5.27c2,2.8,3.9,5,3.9,5s2.54,9.12,6.13,20.72c3.74,12.09,21.77-11.51,23.62-13.14,11.86-10.45,1.77-14.57-3-10.31"/><path class="cls-6" d="M170.23,86.64c-2.73-6.64-1.82-12.06.37-17.78,4.21-11,1.85-22.47-1.85-28.62C162.94,30.6,155.51,17,137.54,14.3,126,12.55,98.22,20,84.14,21.54,33.11,27.11-7,13.41,4,27.11,15.49,41.42,85.45,81,92.52,90.2c3.94,5.15,5,9.17,4.65,10.85l17.19.67,27.9-.57,18.3-7.52Z"/><path class="cls-6" d="M161.64,40.49s15.49-15.26,32.91-13.72,35,6.68,32.15,10.56-6,10.51-22.65,16-40.16-.09-40.16-.09Z"/><path class="cls-3" d="M162.88,45.55s11.85-6.5,20.08-6,11.24,3.3,11.24,3.3-11.7,7.52-17.92,7.58c-7.3.07-13.4-4.87-13.4-4.87"/><path class="cls-7" d="M131.48,39.07c.71,7-5.62,15.45-13.82,16.28-6.16.62-13.6-5.55-11.28-15,1.8-7.25,6.6-11.28,12.76-11.91s11.64,3.6,12.34,10.59"/><path class="cls-8" d="M111.12,40.59a2.26,2.26,0,1,0,2-2.46,2.24,2.24,0,0,0-2,2.46"/><path class="cls-3" d="M18.33,20.24c-14.92-1-22-.81-16.42,6.17,2.17,2.7,6.66,6.41,12.52,10.71a92.38,92.38,0,0,0,3.9-16.88"/><path class="cls-9" d="M93,38c2.76-12.51,16.14-21.64,29-17.39,18.76,6.19,33.35,31.24,33.35,31.24s-28.49,17.67-44.15,12.64C96.09,59.63,90.87,47.42,93,38m27.91-12.38C110.4,23.3,100.12,29.35,98,39.11s6,17.78,16.5,20.1c9.3,2,26.16-5.45,30.82-9.19-4.85-7.44-16.19-22.59-24.41-24.4"/><path class="cls-9" d="M103.05,27.53c-2-1.91-7.87-7.79-9-8.69l5.67-1.56c1.44,1.18,6.08,5.82,6.84,6.54Z"/><path class="cls-10" d="M102.61,71.92c3.15,5.58,1.65,11.39-3.46,12.48-2.51.53-6-.71-6.45-5.9-1.14-12.15,7.77-10.37,9.91-6.58"/><path class="cls-4" d="M168,82.06,155.9,92.15l-14.64,6.74-24.44,2.49-18.57-.64c0,10.39-1.52,40.19-1.52,40.19s27.94,17.11,53.76,23.91a127.32,127.32,0,0,0,56.38,1.32s.25-32.3-24-66.1c-5.71-8-11.43-13-14.87-18"/><path class="cls-6" d="M94.6,158.33S113,173.2,156,181.8c20.18,4,50.11,1.32,50.11,1.32l1-19.76s-30.37,2.87-58-3.41c-37.93-8.6-53.71-22-53.71-22Z"/><path class="cls-7" d="M96.63,97.57a170.44,170.44,0,0,0,40.82-1.14c21.07-3.37,33.11-19.35,33.11-19.35s8.25.14,8.9,3.83-11.85,5.46-11.85,5.46,8.89,4.55,1.88,9.66c-6.14,4.48-11.74-1.43-11.74-1.43s2.57,6.49-4,9.22-10-4.22-10-4.22-.64,9-5.41,8.44-7.49-5.71-7.49-5.71-.05,8.57-6.33,7.94S119,103,119,103s-3.78,8-8.91,6.79-4-7.47-4-7.47-7.77,8.74-11.61,4.41,2.12-9.17,2.12-9.17"/><g class="cls-11"><g class="cls-12"><g class="cls-12"><g class="cls-12"><path class="cls-13" d="M98.12,107.84a3.56,3.56,0,0,1-3.61-1.1c-3.83-4.32,2.12-9.17,2.12-9.17"/></g></g></g></g><path class="cls-3" d="M149.39,175.33s1.59,7.11,1.29,6.79-5.85-7-5.85-7Z"/><path class="cls-3" d="M142.47,175s-1.71,8.07-2,7.71-2.76-8.52-2.76-8.52Z"/><path class="cls-3" d="M131.89,173.7s-3.09,6.09-3.35,5.75-.42-7.44-.42-7.44Z"/><path class="cls-5" d="M133.7,126.59c3,4.2,7.22,13.6,7.32,20.35s-2.86,16.31-2.86,16.31a26.37,26.37,0,0,0-7.08,5.49c-1.64,1.66-3.67,4-3.67,4a97.39,97.39,0,0,0,16.79,3.06,15.29,15.29,0,0,0,5.18-.49,7.9,7.9,0,0,0-.25-6c-1.38-3.18-2.69-5.74-2.69-5.74A72.75,72.75,0,0,0,149.12,141c-.58-12.13-3.88-18.13-5.31-20.15-5.87-8.31-13.8.47-10.11,5.74"/></g></g></svg>