<svg xmlns="http://www.w3.org/2000/svg" viewBox="0 0 299.67 117.46"><defs><style>.cls-1,.cls-15,.cls-18,.cls-19,.cls-4,.cls-8,.cls-9{fill:none;stroke-linecap:round;}.cls-1,.cls-4{stroke:#dad8cc;}.cls-1,.cls-15,.cls-18,.cls-19,.cls-8,.cls-9{stroke-linejoin:round;}.cls-2{fill:#dad8cc;}.cls-3{fill:#fff;}.cls-4{stroke-width:0.28px;}.cls-5{fill:#1d1d1b;}.cls-6{fill:#c4c0b4;}.cls-7{fill:#ffde00;}.cls-8{stroke:#fcc700;stroke-width:0.67px;}.cls-18,.cls-9{stroke:#1d1d1b;}.cls-9{stroke-width:0.47px;}.cls-10{fill:#06607b;}.cls-11{fill:#fcc700;}.cls-12{fill:#f3a5c2;}.cls-13{fill:#046f89;}.cls-14{fill:#e30613;}.cls-15{stroke:#e30613;}.cls-15,.cls-19{stroke-width:0.42px;}.cls-16{fill:#b780b1;}.cls-17{fill:#85557c;}.cls-19{stroke:#f3a5c2;}</style></defs><g id="Capa_2" data-name="Capa 2"><g id="Capa_1-2" data-name="Capa 1"><path class="cls-1" d="M57.59,95.67a6.62,6.62,0,0,1-5.07,4.47c-7.66,1.65-16.11-8.84-23.22-2.81-2.6,2.21-2.93,6.14-5.29,8.46-8,7.82-7.87-1-14.08,1.34-3.62,1.35-4.16,7.56-9.43,8.08"/><path class="cls-2" d="M31.94,58.27c-.36,3.64-2.29,3.89-2.49.73,0,0-.42,2.76-1.46,2.76s-.62-4.16-.62-4.16S25.91,60,25.08,59.31s0-3.9,4.37-6.19l4.22,1.63Z"/><path class="cls-3" d="M51,55.49C44,49.72,36.57,50,29.33,52.82L32.7,60c5.42-2.39,10.27-2.25,17.16,3.8Z"/><path class="cls-4" d="M51,55.49C44,49.72,36.57,50,29.33,52.82L32.7,60c5.42-2.39,10.27-2.25,17.16,3.8Z"/><path class="cls-3" d="M33.64,51.15a11.47,11.47,0,0,1,1.29,4,10.68,10.68,0,0,0,4-.72c.16-1.06-.69-2.89-1.1-3.76,0-.09-4.15.61-4.2.53"/><path class="cls-4" d="M33.64,51.15a11.47,11.47,0,0,1,1.29,4,10.68,10.68,0,0,0,4-.72c.16-1.06-.69-2.89-1.1-3.76C37.8,50.53,33.69,51.23,33.64,51.15Z"/><path class="cls-5" d="M37.4,53.23c-.09.59-.35.64-.67.64a.62.62,0,0,1-.59-.64.61.61,0,0,1,.59-.63.68.68,0,0,1,.67.63"/><path class="cls-6" d="M63.84,18a9.25,9.25,0,1,1-9.25-9.25A9.25,9.25,0,0,1,63.84,18"/><path class="cls-2" d="M63.9,34.08c-3-5.51,2.89-14.62,8.23-17.57A11.22,11.22,0,0,1,87.3,21.14a11.24,11.24,0,0,1-4.14,15.32C77.82,39.4,67,39.59,63.9,34.08"/><path class="cls-7" d="M83.46,35a1.68,1.68,0,0,0-1.35-1.45,1.57,1.57,0,0,0-.42-3.12,1.38,1.38,0,0,0-.41.11,1.43,1.43,0,0,0,.19-.89,1.53,1.53,0,0,0-.13-.43,1.43,1.43,0,0,0-1.58-1.15,1.45,1.45,0,0,0-.8.37A1.47,1.47,0,0,0,79,28a1.64,1.64,0,0,0-1.58-1.45,1.58,1.58,0,0,0,.95-1.63,1.56,1.56,0,0,0-1-1.28,1.52,1.52,0,0,0-.56-3l-.3.07a1.47,1.47,0,0,0,.26-1,1.49,1.49,0,0,0-1.67-1.32,1.44,1.44,0,0,0-.83.37v-.18a1.55,1.55,0,0,0-1.72-1.36,1.59,1.59,0,0,0-1.06.62,1.21,1.21,0,0,0,0-.19A1.46,1.46,0,0,0,70,16.33,1.43,1.43,0,0,0,70.66,15a1.45,1.45,0,0,0-1.6-1.27,1.54,1.54,0,0,0,.35-1.16,1.56,1.56,0,0,0-1.72-1.36,1.54,1.54,0,0,0-1.22.91v0a1.56,1.56,0,0,0-3.11.34,1.42,1.42,0,0,0-1.12-.35A1.45,1.45,0,0,0,61,13.65c0,.06,0,.12,0,.17a1.62,1.62,0,0,0-1.14-.31,1.68,1.68,0,0,0-.94.46,1.2,1.2,0,0,0,0-.19,1.55,1.55,0,0,0-1.72-1.36,1.51,1.51,0,0,0-.83.37,2.44,2.44,0,0,0,0-.27,1.55,1.55,0,1,0-3.08.36,1.61,1.61,0,0,0,.14.5A1.54,1.54,0,0,0,52.18,13a1.58,1.58,0,0,0-1.39,1.76,1.6,1.6,0,0,0,.62,1.09,1.45,1.45,0,0,0-.95,1.53,1.56,1.56,0,0,0,.18.54,1.44,1.44,0,0,0-2.1.56,1.52,1.52,0,0,0-3,.37,1.64,1.64,0,0,0-3.23.52,1.68,1.68,0,0,0,.22.64,1.93,1.93,0,0,0-.34,0,1.56,1.56,0,0,0,0,3.08,1.45,1.45,0,1,0,1.92,2.07,19.89,19.89,0,0,0,2.4,3.49l17.78-3.54,8.9,12c-.6.26-.11,1.44,0,2.12a1.5,1.5,0,0,0,1.66,1.32,1.52,1.52,0,0,0,1.23-1A1.45,1.45,0,0,0,78.84,39a1.69,1.69,0,0,0-.18-.55s.66,1.37,1.8,1.15a1.61,1.61,0,0,0,.94-2.76,1.4,1.4,0,0,0,.58,0A1.69,1.69,0,0,0,83.46,35"/><path class="cls-7" d="M80.39,23.51A1.55,1.55,0,1,1,78.84,22a1.54,1.54,0,0,1,1.55,1.55"/><path class="cls-7" d="M80.32,20.57a1.74,1.74,0,1,1-1.74-1.74,1.73,1.73,0,0,1,1.74,1.74"/><path class="cls-7" d="M43.63,27.21a1.74,1.74,0,1,1-1.74-1.74,1.73,1.73,0,0,1,1.74,1.74"/><path class="cls-7" d="M42,29.26a1.74,1.74,0,1,1-1.74-1.74A1.73,1.73,0,0,1,42,29.26"/><path class="cls-7" d="M43.73,31A1.74,1.74,0,1,1,42,29.26,1.74,1.74,0,0,1,43.73,31"/><path class="cls-7" d="M78.72,20.57A1.55,1.55,0,1,1,77.18,19a1.54,1.54,0,0,1,1.54,1.55"/><path class="cls-7" d="M77.87,19a1.81,1.81,0,1,1-1.81-1.8A1.81,1.81,0,0,1,77.87,19"/><path class="cls-7" d="M80.55,26.58a1.69,1.69,0,0,1-1.81,1.91,1.92,1.92,0,1,1,1.81-1.91"/><path class="cls-7" d="M74.4,18.15a1.49,1.49,0,1,1-3,0,1.49,1.49,0,0,1,3,0"/><path class="cls-3" d="M49.34,27.64a4.14,4.14,0,1,1-4.14-4.13,4.14,4.14,0,0,1,4.14,4.13"/><path class="cls-2" d="M52.64,88.53l-4,7.58c-.21.65-.68,1.12-.28,1.67l7.37,9.39a3.32,3.32,0,0,1,.63,2.57,38.3,38.3,0,0,1-1.54,6,1.61,1.61,0,0,1-3.14-.46l-.16-4.5a5.75,5.75,0,0,0-1-3.1L44.6,99.18a4.41,4.41,0,0,1-.5-4l4.36-8.69Z"/><path class="cls-2" d="M78,86l3.9,8.2a4.74,4.74,0,0,1-1,4.39l-5.28,7.13a7.21,7.21,0,0,0-1.41,3.86l-.32,5.5a1.35,1.35,0,0,1-2.63.32,25.18,25.18,0,0,1-1.19-7.64,4,4,0,0,1,.71-2.14l5.44-7.81c1.17-1.68,1.11-2.64.37-4.55l-3-5.92Z"/><path class="cls-2" d="M72.37,54.16c-.35-1.33-1-3.87-.66-5.29a29.19,29.19,0,0,0,.67-19.45c-2.51-6.91-13.46-7.63-17.46-7.08a12.84,12.84,0,0,0-6.43,2.8c-11.06,9-19.84,16.22-28.75,22.73a1.68,1.68,0,0,0,.75,3.06c9.79,1.08,19.67.3,30.67-.94L51,53.12,60.69,65.2Z"/><line class="cls-8" x1="46.53" y1="101.81" x2="52.64" y2="103.02"/><polyline class="cls-8" points="50.37 100 49.16 105.69 54.22 106.08"/><line class="cls-8" x1="74.06" y1="100.91" x2="74.62" y2="107.54"/><line class="cls-8" x1="71.59" y1="104.49" x2="77.73" y2="102.83"/><line class="cls-8" x1="51.71" y1="109.2" x2="52.64" y2="103.01"/><path class="cls-8" d="M77.73,102.83c-.11-.39-1.15-5.65-1.15-5.65"/><path class="cls-8" d="M74.06,100.91c.38-.11,5.92-1.48,5.92-1.48"/><path class="cls-2" d="M94.39,49.65s6.94,1.55,6.94,5.94c0,1-1.6,1.42-3-1.05,0,0,.68,2.75-.43,3.15s-1.89-2.53-1.89-2.53.59,2.06-.41,2.51-1.11-1.45-1.11-1.45l-2.3-3.89Z"/><path class="cls-3" d="M75,61.64c5.19-5.23,11.67-7.13,19.52-5.42l-.3-8.14a33.57,33.57,0,0,0-21.86,3.08L69.28,58Z"/><path class="cls-4" d="M75,61.64c5.19-5.23,11.67-7.13,19.52-5.42l-.3-8.14a33.57,33.57,0,0,0-21.86,3.08L69.28,58Z"/><polygon class="cls-3" points="87.59 47.26 87.59 52.69 91.23 52.85 91.5 47.32 87.59 47.26"/><polygon class="cls-4" points="87.59 47.26 87.59 52.69 91.23 52.85 91.5 47.32 87.59 47.26"/><path class="cls-5" d="M90.22,50.64c-.1.59-.35.63-.68.63a.63.63,0,0,1,0-1.26.69.69,0,0,1,.68.63"/><path class="cls-3" d="M61.82,58,50.54,51.91,42,93.74a86.42,86.42,0,0,0,41.21-1.55L72.3,51.2Z"/><path class="cls-4" d="M61.82,58,50.54,51.91,42,93.74a86.42,86.42,0,0,0,41.21-1.55L72.3,51.2Z"/><path class="cls-9" d="M61.77,42.66a3.59,3.59,0,0,1-6.41,3.23"/><path class="cls-10" d="M62.15,57.16c.18.18,6.77,12.53,6.77,12.53-1.29,1.39-2.14,1.68-4.21,2L60.17,55Z"/><path class="cls-10" d="M59.45,57.28l-5.64,12a17.15,17.15,0,0,0,3.66,1.38s3.72-8.27,3.84-14.93Z"/><path class="cls-10" d="M62.59,53.55l8.46-.69c0,2.21.12,7.23-1.77,10.32a18.65,18.65,0,0,1-9-7.85Z"/><path class="cls-10" d="M60.12,53.48a20.32,20.32,0,0,0-3.3-.62c-.44,0-4.43-.7-4.45-.26,0,0,0,5.89,0,9.16,3-.56,7.25-3,8.89-6.44Z"/><path class="cls-3" d="M61.5,62.4a257.77,257.77,0,0,1-.34,31.13"/><path class="cls-4" d="M61.5,62.4a257.77,257.77,0,0,1-.34,31.13"/><path class="cls-5" d="M64.71,91.64A.68.68,0,1,1,64,91a.67.67,0,0,1,.68.67"/><path class="cls-5" d="M64.71,85.45a.68.68,0,1,1-.68-.68.68.68,0,0,1,.68.68"/><path class="cls-5" d="M64.71,79.15a.69.69,0,0,1-.68.68.68.68,0,0,1-.67-.68.67.67,0,0,1,.67-.67.68.68,0,0,1,.68.67"/><path class="cls-5" d="M64.51,73.26a.67.67,0,1,1-.67-.67.67.67,0,0,1,.67.67"/><path class="cls-11" d="M46.76,22.31a.66.66,0,0,1-1.31.15.66.66,0,1,1,1.31-.15"/><path class="cls-11" d="M42.78,21.56a.39.39,0,1,1-.78.09.39.39,0,1,1,.78-.09"/><path class="cls-11" d="M40.55,29.21a.4.4,0,1,1-.44-.34.4.4,0,0,1,.44.34"/><path class="cls-11" d="M44.27,19.25a.39.39,0,1,1-.44-.34.39.39,0,0,1,.44.34"/><path class="cls-11" d="M47.28,18.64a.42.42,0,0,1-.35.44.4.4,0,0,1-.44-.35.39.39,0,0,1,.35-.44.4.4,0,0,1,.44.35"/><path class="cls-11" d="M50,19a.39.39,0,0,1-.35.44A.4.4,0,1,1,50,19"/><path class="cls-11" d="M52.33,17.25a.4.4,0,0,1-.35.43.38.38,0,0,1-.44-.34.39.39,0,0,1,.35-.44.4.4,0,0,1,.44.35"/><path class="cls-11" d="M52.43,14.72a.41.41,0,0,1-.35.44.4.4,0,1,1,.35-.44"/><path class="cls-11" d="M55.34,12.73a.39.39,0,1,1-.78.09.39.39,0,0,1,.34-.44.39.39,0,0,1,.44.35"/><path class="cls-11" d="M57.79,14.09a.41.41,0,0,1-.35.44.4.4,0,1,1-.09-.79.41.41,0,0,1,.44.35"/><path class="cls-11" d="M60.52,15.27a.4.4,0,1,1-.44-.34.4.4,0,0,1,.44.34"/><path class="cls-11" d="M62.85,13.49a.4.4,0,0,1-.35.44.39.39,0,0,1-.1-.78.4.4,0,0,1,.45.34"/><path class="cls-11" d="M52.33,21.92a.41.41,0,0,1-.35.44.4.4,0,0,1-.09-.79.4.4,0,0,1,.44.35"/><path class="cls-11" d="M55,21.16a.4.4,0,0,1-.35.44.39.39,0,0,1-.44-.35.39.39,0,0,1,.35-.44.41.41,0,0,1,.44.35"/><path class="cls-11" d="M57.29,21a.39.39,0,0,1-.35.44.39.39,0,1,1-.09-.78.39.39,0,0,1,.44.34"/><path class="cls-11" d="M59.85,21a.4.4,0,0,1-.35.44.39.39,0,1,1-.09-.78.4.4,0,0,1,.44.34"/><path class="cls-11" d="M62.55,21.27a.39.39,0,0,1-.35.44.4.4,0,0,1-.44-.35.41.41,0,0,1,.35-.44.4.4,0,0,1,.44.35"/><path class="cls-11" d="M65.11,21.86a.4.4,0,1,1-.79.09.41.41,0,0,1,.35-.44.4.4,0,0,1,.44.35"/><path class="cls-11" d="M67.72,22.74a.39.39,0,1,1-.44-.35.39.39,0,0,1,.44.35"/><path class="cls-11" d="M70.13,24.31a.39.39,0,1,1-.78.09.39.39,0,1,1,.78-.09"/><path class="cls-11" d="M72.17,26.16a.4.4,0,0,1-.35.44.39.39,0,0,1-.44-.35.39.39,0,0,1,.34-.44.41.41,0,0,1,.45.35"/><path class="cls-11" d="M73.73,28.48a.39.39,0,0,1-.35.44.41.41,0,0,1-.44-.35.4.4,0,0,1,.35-.44.4.4,0,0,1,.44.35"/><path class="cls-11" d="M74.6,31.35a.39.39,0,0,1-.35.44.41.41,0,0,1-.44-.35.4.4,0,0,1,.35-.44.4.4,0,0,1,.44.35"/><path class="cls-11" d="M75,33.73a.4.4,0,0,1-.35.44.39.39,0,1,1-.09-.78.4.4,0,0,1,.44.34"/><path class="cls-11" d="M75,36.38a.4.4,0,0,1-.35.44.39.39,0,0,1-.44-.35.4.4,0,0,1,.35-.44.41.41,0,0,1,.44.35"/><path class="cls-11" d="M65,12a.4.4,0,1,1-.44-.35A.4.4,0,0,1,65,12"/><path class="cls-11" d="M68.28,12.46a.41.41,0,0,1-.35.44.4.4,0,0,1-.1-.79.41.41,0,0,1,.45.35"/><path class="cls-11" d="M69.84,15.19a.39.39,0,1,1-.44-.35.39.39,0,0,1,.44.35"/><path class="cls-11" d="M70.53,17.64a.4.4,0,0,1-.35.44.41.41,0,0,1-.44-.35.4.4,0,0,1,.35-.44.39.39,0,0,1,.44.35"/><path class="cls-11" d="M73.14,18.4a.4.4,0,0,1-.35.44.41.41,0,0,1-.44-.35.4.4,0,0,1,.35-.44.39.39,0,0,1,.44.35"/><path class="cls-11" d="M76.3,19a.39.39,0,0,1-.35.44.41.41,0,0,1-.44-.35.4.4,0,0,1,.35-.44.4.4,0,0,1,.44.35"/><path class="cls-11" d="M79,20.52a.39.39,0,1,1-.78.09.39.39,0,1,1,.78-.09"/><path class="cls-11" d="M79,23.65a.39.39,0,1,1-.78.1.4.4,0,0,1,.34-.45.4.4,0,0,1,.44.35"/><path class="cls-11" d="M79.37,26.44a.39.39,0,0,1-.35.44.41.41,0,0,1-.44-.35.4.4,0,0,1,.35-.44.4.4,0,0,1,.44.35"/><path class="cls-11" d="M80.45,29.67a.41.41,0,0,1-.35.44.4.4,0,0,1-.1-.79.41.41,0,0,1,.45.35"/><path class="cls-11" d="M82.45,31.9a.39.39,0,1,1-.78.09.39.39,0,1,1,.78-.09"/><path class="cls-11" d="M82.44,35.16a.41.41,0,0,1-.35.44.4.4,0,0,1-.09-.79.41.41,0,0,1,.44.35"/><path class="cls-11" d="M81,38.17a.39.39,0,1,1-.44-.34.39.39,0,0,1,.44.34"/><path class="cls-11" d="M77.7,39.36a.4.4,0,0,1-.35.44.38.38,0,0,1-.44-.34.39.39,0,0,1,.35-.44.4.4,0,0,1,.44.34"/><path class="cls-11" d="M75,39.36a.4.4,0,0,1-.35.44.38.38,0,0,1-.44-.34.39.39,0,0,1,.35-.44.4.4,0,0,1,.44.34"/><path class="cls-11" d="M56,16.82a.66.66,0,1,1-.74-.58.67.67,0,0,1,.74.58"/><path class="cls-11" d="M66.36,16.16a.66.66,0,1,1-1.31.15.66.66,0,0,1,1.31-.15"/><path class="cls-11" d="M75.05,23.23a.65.65,0,0,1-.58.73.66.66,0,1,1-.15-1.31.65.65,0,0,1,.73.58"/><path class="cls-11" d="M79.24,34.36a.66.66,0,0,1-1.32.16.66.66,0,0,1,1.32-.16"/><path class="cls-12" d="M27.18,42s-9,5.72-9,6.83.66,2.32,5.43,2.6a49.12,49.12,0,0,0,5.34.08,19.71,19.71,0,0,0-.13-4.1A30.6,30.6,0,0,0,27.18,42"/><path class="cls-3" d="M64.26,34.54a4.78,4.78,0,0,1-6,2.16c-1.82-.94-2.38-3.49-1.24-5.69s3.53-3.21,5.36-2.27a4.45,4.45,0,0,1,1.83,5.8"/><path class="cls-5" d="M61.2,33.12a.7.7,0,0,1-1,.36A.78.78,0,0,1,60,32.41a.75.75,0,0,1,1-.33.73.73,0,0,1,.18,1"/><path class="cls-5" d="M45.32,26.55a.7.7,0,0,1-1,.36.78.78,0,0,1-.24-1.07.76.76,0,0,1,1-.33.74.74,0,0,1,.18,1"/><path class="cls-11" d="M51.58,111.85a16.23,16.23,0,0,0,.25,4.47c.5,1.56,2.35,1.75,3.14-.91s1.64-5.26,1.46-6.28a12.51,12.51,0,0,0-1.49-3A10.07,10.07,0,0,1,54,109.3a18,18,0,0,1-2.41,2.55"/><path class="cls-11" d="M74,111.27a16.65,16.65,0,0,1-.25,4.47c-.51,1.56-2.36,1.75-3.14-.91s-1.65-5.26-1.47-6.28a13,13,0,0,1,1.49-3,10.1,10.1,0,0,0,1,3.22A17.85,17.85,0,0,0,74,111.27"/><path class="cls-13" d="M64,55a2.65,2.65,0,0,1-2.67,2.52c-1.39,0-1.88-1-1.88-2.43a2.35,2.35,0,0,1,2.33-2.5A2.18,2.18,0,0,1,64,55"/><path class="cls-1" d="M154.31,94s-.28,5.66,2.58,8.81,8.09,7.44,13.89,7.4,6.38-2.12,11.89-1.63,7.25,6.91,10.87,7.72,6.28-.48,6.67-4c.58-5.12-4.93-3.76-4.93-1.17"/><path class="cls-2" d="M152,105.11a39.73,39.73,0,0,1-4.59-4.7c-4-5-2.36-9.21-2.36-9.21s-3.34.15-3.36.21c-3.31,7.29,4.29,10.48,7.81,17.19,0,0-2.16,6.29.26,6.83s5.5-8.21,2.24-10.32"/><path class="cls-2" d="M165.36,91c.21,8.12-2.88,17.84-1,22.47.44,1.06-3.37,3.16-4.57-5.83a49.22,49.22,0,0,0,.9-16c0-.1,4.66-.53,4.65-.63"/><path class="cls-14" d="M152,104.9c-.3.16-.32,4-.72,6.23-.19,1-1.7.33-2.64-.27-.38,1.94-.52,4.3,1,4.63,2.49.55,6.22-7.92,2.4-10.59"/><path class="cls-14" d="M159.79,107.23c.33.1,1.37,4,2.16,6.1.37,1,1.73,0,2.55-.73.72,1.83,1.28,4.12-.11,4.72-2.35,1-7.84-7.11-4.6-10.09"/><line class="cls-15" x1="165.02" y1="97.3" x2="160.85" y2="101.1"/><path class="cls-15" d="M161,96.12c0,.16,3.37,6.21,3.37,6.21"/><line class="cls-15" x1="164.06" y1="103.02" x2="160.27" y2="106.55"/><line class="cls-15" x1="160.59" y1="103.07" x2="163.8" y2="108.12"/><line class="cls-15" x1="143.46" y1="100.66" x2="148.29" y2="101.42"/><polyline class="cls-15" points="146.34 98.99 146.34 104.24 151.24 104.24"/><line class="cls-15" x1="148.81" y1="102.07" x2="149.28" y2="108.12"/><path class="cls-2" d="M144.17,53.32s-2.9-6.58-3.9-6.71c-3-.38-11.06-.59-13.74,4.45,0,.07,0-.06,0,0-4.21,8.3,6.29,16.44,13.22,10.22,1.51-1.36,3.37-4.83,4.42-8"/><path class="cls-12" d="M138,55.67c-1.07,1.26-3.3,2-4.66.56-3.7-3.85,2.59-7,5.69-4.8.8.56.25,2.73-1,4.24"/><path class="cls-2" d="M178.36,35.28s-.55-4.74.49-4.93c1.71-.32,1.51,2.09,1.51,2.09s.78-2.17,1.74-1.87c1.42.43.16,3.06.16,3.06s1.45-1.37,2.22-.87c1,.62-.8,3.15-1.49,4.36-.23.41-4.63-1.84-4.63-1.84"/><path class="cls-3" d="M163,49.69a26.43,26.43,0,0,0,14.81-14.88l5.75,2.08c-2.16,8-9,15.91-17.32,19.8-.14.07-3.09-7.06-3.24-7"/><path class="cls-4" d="M163,49.69a26.43,26.43,0,0,0,14.81-14.88l5.75,2.08c-2.16,8-9,15.91-17.32,19.8C166.14,56.76,163.19,49.63,163,49.69Z"/><path class="cls-3" d="M143.91,54.5A26.51,26.51,0,0,1,123.4,50l-3.72,5.86c6.16,5.58,15.12,7.83,24.2,6.63.15,0-.13-7.93,0-8"/><path class="cls-4" d="M143.91,54.5A26.51,26.51,0,0,1,123.4,50l-3.72,5.86c6.16,5.58,15.12,7.83,24.2,6.63C144,62.43,143.75,54.52,143.91,54.5Z"/><path class="cls-3" d="M143.93,53.43l20.42-7c3.24,9.61,7,33.39,7.61,46-9.49,3.42-25.2,2.75-35.76,2.09,2.07-14.44,6.51-29.67,7.73-41.09"/><path class="cls-4" d="M143.93,53.43l20.42-7c3.24,9.61,7,33.39,7.61,46-9.49,3.42-25.2,2.75-35.76,2.09C138.27,80.08,142.71,64.85,143.93,53.43Z"/><path class="cls-3" d="M157.49,60.87c1.17,10.56,0,19.8-.6,32.39"/><path class="cls-4" d="M157.49,60.87c1.17,10.56,0,19.8-.6,32.39"/><path class="cls-3" d="M173.8,40.56a10.47,10.47,0,0,1,3.5,1.31,9.44,9.44,0,0,0,1.75-3.22c-.65-.71-2.41-1.14-3.26-1.35-.09,0-1.91,3.27-2,3.26"/><path class="cls-4" d="M173.8,40.56a10.47,10.47,0,0,1,3.5,1.31,9.44,9.44,0,0,0,1.75-3.22c-.65-.71-2.41-1.14-3.26-1.35C175.7,37.28,173.88,40.57,173.8,40.56Z"/><path class="cls-3" d="M125,50.47A10.61,10.61,0,0,1,123.8,54a9.75,9.75,0,0,0,3.3,1.59,7.72,7.72,0,0,0,1.19-3.33c0-.08-3.35-1.75-3.34-1.83"/><path class="cls-4" d="M125,50.47A10.61,10.61,0,0,1,123.8,54a9.75,9.75,0,0,0,3.3,1.59,7.72,7.72,0,0,0,1.19-3.33C128.31,52.22,124.94,50.55,125,50.47Z"/><path class="cls-5" d="M161.58,87.54a.68.68,0,0,1-.68.67.67.67,0,0,1,0-1.34.68.68,0,0,1,.68.67"/><path class="cls-5" d="M161.58,81.35a.68.68,0,0,1-.68.67.67.67,0,0,1-.67-.67.68.68,0,0,1,.67-.68.69.69,0,0,1,.68.68"/><path class="cls-5" d="M161.58,75.05a.69.69,0,0,1-.68.68.68.68,0,0,1-.67-.68.67.67,0,0,1,.67-.67.68.68,0,0,1,.68.67"/><path class="cls-5" d="M161.38,69.16a.67.67,0,0,1-1.34,0,.67.67,0,1,1,1.34,0"/><path class="cls-2" d="M164.35,46.44c-.13-.13-12,12.06-20.07,7.36-10.66-11.13-17.8-29.64-20-48.63-.31-2.71,2.11-4.56,4.35-3,16.57,11.43,33.7,28.63,35.68,44.28"/><path class="cls-10" d="M153.86,52.24a17.74,17.74,0,0,0-7.1,1.35l2.11,8.11a10.23,10.23,0,0,0,5.94-5.7c.05-.12-1-3.63-.95-3.76"/><path class="cls-10" d="M156.76,55.25c.13-.16-1.08-3.61-.95-3.77,2-2.37,4.27-4.41,6.75-5.07.8,3,2,6.05,2.47,9.57-3,0-5.77.39-8.27-.73"/><path class="cls-10" d="M158.1,54.69A21.69,21.69,0,0,0,166.48,63a6.94,6.94,0,0,1-2.38,3.16,25.57,25.57,0,0,1-8-10.78c0-.05,2-.61,2-.66"/><path class="cls-10" d="M154.31,54.82a39.22,39.22,0,0,1-2.58,12.57c.94.19,2.81.77,3.69.39a62.37,62.37,0,0,0,1.47-12.16c0-.15-2.59-.66-2.58-.8"/><path class="cls-5" d="M148.94,29.65a10.31,10.31,0,0,0-1.65-1.81c.59,2.51-.06,5-1.9,6.28a5.81,5.81,0,0,1-6.39-.18,10.21,10.21,0,0,0,1.1,2c2.38,3.36,6.3,4.68,8.74,2.95s2.48-5.86.1-9.22"/><path class="cls-2" d="M123.29,50.12c-.59-1-2.4-2.52-3.31-2.18-.5.19-.81.48,0,2,0,0-1.8-1.28-2.45-.28-.5.78,1,1.66,1,1.66s-2-.89-2.68.14,3.42,2.56,4.17,2.81c.07,0,3.2-4.17,3.2-4.17"/><path class="cls-2" d="M157.18,34.37s3.24,6.42,4.25,6.5c3,.22,11.07,0,13.48-5.17,0-.07,0,.07,0,0,3.78-8.5-7.14-16.08-13.73-9.51-1.44,1.44-3.12,5-4,8.18"/><path class="cls-12" d="M162.81,31.68c1.19-1.39,3.65-2.37,5.14-1.11,4.05,3.42-2.9,7.3-6.3,5.46-.88-.47-.26-2.7,1.16-4.35"/><path class="cls-12" d="M134.25,5.58s-3.63,2.15-5.07,2.85-4.34,1.67-4.34,1.67-2.27-8.5-.68-10c1.14-1.06,10.09,5.46,10.09,5.46"/><path class="cls-5" d="M177.38,39.09c.36.39.25.6.07.82a.55.55,0,0,1-.78.06.56.56,0,0,1-.11-.77.61.61,0,0,1,.82-.11"/><path class="cls-5" d="M126.59,54c-.39.38-.59.28-.83.11a.54.54,0,0,1-.09-.77.55.55,0,0,1,.76-.16.62.62,0,0,1,.16.82"/><path class="cls-13" d="M157.49,53.55a2.07,2.07,0,1,1-2.07-2.07,2.07,2.07,0,0,1,2.07,2.07"/><path class="cls-6" d="M226.2,52.19s4.41-.75,5-7.07-5-9.32-10.31-6.16c-5.45,3.24-3.87,12.23.83,13.94s4.53-.71,4.53-.71"/><path class="cls-2" d="M259.5,71.31s.28.86,6.3,1.34,14,1.13,19.41-2,9.31-7.87,12.12-9.23,2.89-3.85,1.28-4.25-7.3,1-7.86,2.08a1.94,1.94,0,0,0-.24,1.69s-4.24,6.56-11,7.62c-12.68,2-17.95-2.28-17.95-2.28Z"/><path class="cls-12" d="M298.61,57.17c-1.6-.4-7.3,1-7.86,2.08a1.93,1.93,0,0,0-.24,1.69s4.88-1.36,5.61-.7a2.19,2.19,0,0,1,.24,1.75,9.34,9.34,0,0,1,1-.57c2.81-1.36,2.89-3.85,1.28-4.25"/><path class="cls-2" d="M210.72,72.65c-3.59-1.93-6.91.73-3.11,1.46-2.65.07-2.62,3.45.54,2.66,0,0-2,.67-1.5,1.83.64,1.44,5-.3,5-.3l1.32-3.63Z"/><path class="cls-3" d="M237.71,66.84c2.27,4-14.93,10.63-26,11.8,0,0-1.74-5.1-1.51-6.83,8-.5,10.8-1,17.68-3.56,4.78-1.8,8.5-3.71,9.81-1.41"/><path class="cls-4" d="M237.71,66.84c2.27,4-14.93,10.63-26,11.8,0,0-1.74-5.1-1.51-6.83,8-.5,10.8-1,17.68-3.56C232.68,66.45,236.4,64.54,237.71,66.84Z"/><path class="cls-2" d="M240.18,59.55c-.62,1.4.18,3.16,1,3.42,3.39,1,22.48-.93,27.29,1.08s-2.32,24-5.12,25.74-15.5.16-22.94-2.48S222.16,74.6,218.9,73.05s-24.76-9-29.42-10.73-5.46-5.4-3.29-5.71,33.95-7,40.62-6.67c4,.19,5.34.74,6.27.09,1.76-10.4,13.22-8.47,16-2.27,3.13,6.93-1.37,11.79-8.92,11.79"/><path class="cls-3" d="M241.23,62l26.38,1.77s.77,8.59-1.76,14.32-6.17,12.29-6.17,12.29-14.34.61-23.39-5.09-9.79-5.6-9.79-5.6,6.09-4.45,8.31-6.62A25.49,25.49,0,0,0,241.23,62"/><path class="cls-4" d="M241.23,62l26.38,1.77s.77,8.59-1.76,14.32-6.17,12.29-6.17,12.29-14.34.61-23.39-5.09-9.79-5.6-9.79-5.6,6.09-4.45,8.31-6.62A25.49,25.49,0,0,0,241.23,62Z"/><path class="cls-2" d="M265.35,73.17a103.79,103.79,0,0,0,2.08,11.9c1.12,3.86.4,24.72.32,25.84s-.8,4.49,1.29,4.73,4-7.51,3.37-9.3a4.19,4.19,0,0,0-.73-1.29s.73-16.69.57-19.74-1.93-14.84-3.53-16-3.37,3.82-3.37,3.82"/><path class="cls-12" d="M236.35,52.82c-.06.73-.37,2.41,1.44,2.54,1.52.1,4.28.15,5.51-1.85s-1.27-5.27-4.16-4.3a3.75,3.75,0,0,0-2.79,3.61"/><path class="cls-3" d="M227.29,60.43c3.81-.08,5-2.9,4.65-5.17s-3-3.93-6.3-2c-3,1.76-2.25,7.25,1.65,7.17"/><path class="cls-5" d="M227.18,56.78a.68.68,0,1,0-.68.67.67.67,0,0,0,.68-.67"/><path class="cls-9" d="M220.58,69.51s.87,1.22,3.25.49,1.88-3.74,1.88-3.74"/><path class="cls-12" d="M187.24,61.24a26.91,26.91,0,0,0,6.11,2.45,21.74,21.74,0,0,0,.73-3.42,26.28,26.28,0,0,0,.26-5.23l-8.15,1.57c-2.47.51-3.18,2,1.05,4.63"/><path class="cls-12" d="M272.41,106.34a3.88,3.88,0,0,0-.44-.89c-.77,2.72-2.23,6.32-3,6.24-.41,0-.82-.6-1.17-1.25,0,.23,0,.4,0,.47-.08,1.12-.8,4.49,1.29,4.73s4-7.51,3.37-9.3"/><path class="cls-16" d="M261.35,90.37s7.2,3,8.43,1-2-2.67-2-2.67,2.73.48,3.41-1-2-2.19-2-2.19,3.48.35,3.83-1-2.26-2.12-2.26-2.12,2.73.82,3.35-1-2.46-2.67-2.46-2.67,2.87.68,3.69-1.09-2.12-2.46-2.12-2.46,2.91.68,3.37-1.44-2.21-2.18-2.21-2.18,3.49.27,3.35-1.84-2.8-1.58-2.8-1.58,2.53-.61,2.12-2.45-2.87-1-2.87-1,2.32-1,1.43-2.6-7.06,2-7.06,2a50.31,50.31,0,0,1-1.41,14.28,46.41,46.41,0,0,1-5.76,12"/><path class="cls-12" d="M258.5,90.56S264,93,265.27,91s-2-2.67-2-2.67,2.73.48,3.41-1-2-2.19-2-2.19,3.49.34,3.83-1S266.22,82,266.22,82s2.74.82,3.35-1-2.46-2.67-2.46-2.67,2.87.68,3.69-1.09-2.12-2.46-2.12-2.46,2.91.68,3.37-1.44-2.21-2.18-2.21-2.18,3.49.27,3.35-1.85-2.8-1.57-2.8-1.57,2.53-.61,2.12-2.46-2.87-1-2.87-1,2.32-1,1.43-2.6-5.8,1.44-5.8,1.44.34,8.81-1.51,15.23a58.68,58.68,0,0,1-5.26,12.16"/><path class="cls-5" d="M242.32,85.28a.67.67,0,1,1-.67-.68.67.67,0,0,1,.67.68"/><path class="cls-5" d="M248.4,87.09a.67.67,0,1,1-.67-.67.67.67,0,0,1,.67.67"/><path class="cls-16" d="M263.91,90.11a.45.45,0,1,1-.9,0,.45.45,0,1,1,.9,0"/><path class="cls-16" d="M265.35,87.09a.45.45,0,1,1-.45-.45.45.45,0,0,1,.45.45"/><path class="cls-16" d="M267,83.7a.46.46,0,0,1-.46.45.45.45,0,0,1,0-.9.46.46,0,0,1,.46.45"/><path class="cls-16" d="M268.22,80.5a.46.46,0,1,1-.91,0,.46.46,0,0,1,.91,0"/><path class="cls-16" d="M269.39,76.67a.46.46,0,1,1-.45-.45.45.45,0,0,1,.45.45"/><path class="cls-16" d="M270.74,73.06a.46.46,0,0,1-.91,0,.46.46,0,1,1,.91,0"/><path class="cls-16" d="M271.43,69.47a.46.46,0,1,1-.91,0,.46.46,0,0,1,.91,0"/><path class="cls-16" d="M270.74,65.92a.46.46,0,0,1-.91,0,.46.46,0,1,1,.91,0"/><path class="cls-16" d="M269.64,62.94a.46.46,0,1,1-.46-.45.45.45,0,0,1,.46.45"/><path class="cls-17" d="M274.38,63.27a.46.46,0,1,1-.91,0,.46.46,0,0,1,.91,0"/><path class="cls-17" d="M275,66.16a.45.45,0,1,1-.45-.45.45.45,0,0,1,.45.45"/><path class="cls-17" d="M275.67,69.69a.45.45,0,1,1-.9,0,.45.45,0,0,1,.9,0"/><path class="cls-17" d="M275.46,73.61a.45.45,0,1,1-.9,0,.45.45,0,1,1,.9,0"/><path class="cls-17" d="M274.1,77a.45.45,0,1,1-.9,0,.45.45,0,1,1,.9,0"/><path class="cls-17" d="M272.7,80.5a.47.47,0,0,1-.46.46.46.46,0,0,1-.45-.46.45.45,0,0,1,.45-.45.46.46,0,0,1,.46.45"/><path class="cls-17" d="M271.37,84.15a.45.45,0,1,1-.9,0,.45.45,0,0,1,.9,0"/><path class="cls-17" d="M269.84,87.31a.45.45,0,1,1-.45-.45.45.45,0,0,1,.45.45"/><path class="cls-17" d="M268.67,90.56a.45.45,0,1,1-.45-.45.45.45,0,0,1,.45.45"/><path class="cls-5" d="M255.47,88.29a.68.68,0,0,1-.68.67.67.67,0,0,1-.67-.67.68.68,0,0,1,.67-.68.69.69,0,0,1,.68.68"/><path class="cls-10" d="M229.5,80.73s14.29-10,13.79-17.72a3.28,3.28,0,0,0-2.47-1.51S237.87,69,227.4,78.12Z"/><path class="cls-10" d="M227.59,78.6c-3.06,1.84-8.06,4.69-7.64,5.39l4.12,6.34c1.36.79,6.33-9.22,6.33-9.22Z"/><path class="cls-10" d="M229.57,78.49C230,78.62,241,79,241,79c0,1.21-.81,6.53-3,9l-9.28-6.73Z"/><path class="cls-10" d="M228.66,81.47c.57,4.87.44,10.48-1,14.85-.22.69,2.65,2.3,2.9,1.67,1.62-4.13,1-11-.49-16.68-.05-.21-1.37.37-1.43.16"/><path class="cls-10" d="M230.13,81.67c2.5,5,6.16,11.6,9.8,16.16l2.52-2.35c-2.76-2.13-6.83-8.1-10-13.13-.14-.22-2.22-.46-2.36-.68"/><path class="cls-13" d="M230.87,78.77a2.61,2.61,0,0,1-1.1,3.54c-1.29.67-2.31-.13-3-1.43a2.64,2.64,0,0,1,1.13-3.55c1.3-.66,2.29.15,3,1.44"/><path class="cls-2" d="M215.1,82.05c-3.77-1.55-6.8,1.45-2.94,1.78-2.62.34-2.25,3.7.82,2.58,0,0-1.93.88-1.3,2,.77,1.36,4.9-.81,4.9-.81l.93-3.75Z"/><path class="cls-3" d="M243.3,72.18c1.76,5.46-15.7,13.42-26.57,15.73,0,0-3.16-6.37-2.21-6.64,6.53-1.9,9.8-2.51,16.37-5.78,4.58-2.28,11.6-5.83,12.41-3.31"/><path class="cls-4" d="M243.3,72.18c1.76,5.46-15.7,13.42-26.57,15.73,0,0-3.16-6.37-2.21-6.64,6.53-1.9,9.8-2.51,16.37-5.78C235.47,73.21,242.49,69.66,243.3,72.18Z"/><polygon class="cls-3" points="221.23 87.42 225.04 85.92 222.48 81.9 219.13 83.21 221.23 87.42"/><polygon class="cls-4" points="221.23 87.42 225.04 85.92 222.48 81.9 219.13 83.21 221.23 87.42"/><path class="cls-18" d="M221.94,84.49a.14.14,0,0,1-.17-.08.12.12,0,0,1,.08-.16.13.13,0,1,1,.09.24Z"/><line class="cls-19" x1="272.09" y1="94.52" x2="267.8" y2="99.45"/><path class="cls-19" d="M268.05,94.52c0,.16,3.73,4.93,3.73,4.93"/><line class="cls-19" x1="271.45" y1="101.01" x2="267.94" y2="105.05"/><line class="cls-19" x1="267.97" y1="101.03" x2="271.68" y2="105.05"/><line class="cls-19" x1="282.09" y1="67.87" x2="289.01" y2="67.98"/><path class="cls-19" d="M284.88,70.83c.12-.11,1.34-5.35,1.34-5.35"/><line class="cls-19" x1="287.56" y1="64.27" x2="293.34" y2="64.27"/><line class="cls-19" x1="290.15" y1="67.14" x2="290.3" y2="61.28"/></g></g></svg>