<svg xmlns="http://www.w3.org/2000/svg" xmlns:xlink="http://www.w3.org/1999/xlink" viewBox="0 0 308.42 121.61"><defs><style>.cls-1,.cls-11,.cls-12,.cls-18,.cls-5,.cls-6,.cls-8{fill:none;}.cls-2{fill:#c4c0b4;}.cls-3{fill:#f3a5c2;}.cls-4{fill:#dad8cc;}.cls-12,.cls-5{stroke:#1d1d1b;}.cls-11,.cls-12,.cls-5,.cls-6,.cls-8{stroke-linecap:round;}.cls-11,.cls-12,.cls-5,.cls-6{stroke-linejoin:round;}.cls-6,.cls-8{stroke:#dad8cc;}.cls-7{fill:#fff;}.cls-8{stroke-width:0.28px;}.cls-9{fill:#1d1d1b;}.cls-10{fill:#0d181c;}.cls-11{stroke:#f39200;stroke-width:1.5px;}.cls-12{stroke-width:0.67px;}.cls-13{fill:#06607b;}.cls-14{fill:#046f89;}.cls-15{fill:#1b8a4f;}.cls-16{fill:#e30613;}.cls-17{clip-path:url(#clip-path);}.cls-18{stroke:#fff;stroke-miterlimit:10;}.cls-19{fill:#2fac66;}.cls-20{clip-path:url(#clip-path-2);}</style><clipPath id="clip-path"><polygon class="cls-1" points="243 34.31 241.78 37.15 256.61 42.18 258.61 6.63 243 34.31"/></clipPath><clipPath id="clip-path-2"><polygon class="cls-1" points="147.75 31.05 146.53 33.89 161.36 38.93 163.36 3.38 147.75 31.05"/></clipPath></defs><g id="Capa_2" data-name="Capa 2"><g id="Capa_1-2" data-name="Capa 1"><path class="cls-2" d="M48.32,26.39a9.21,9.21,0,1,1-9.2-9.21,9.21,9.21,0,0,1,9.2,9.21"/><path class="cls-3" d="M44.21,28.59c.24,2.38-1.13,4.47-3.08,4.66s-5.23-.94-5.48-3.32.78-5.49,4.62-5.73c1.95-.12,3.7,2,3.94,4.39"/><path class="cls-4" d="M40.24,67s2,3.45,8.16,3.25,10.83-8,10.83-8l.19-4.43a18.66,18.66,0,0,0,2.83-10.88,21.64,21.64,0,0,0,12-1.29c6-2.81,6.82-9.09,4.21-14.69s-16.7-12-22.16,3.11c-7.77-5.46-14.06-4-24.35,1.77C23,40.81,6,50.39,2,55.32c-1.09,1.33,1.38,2.51,3.1,2.62,9.91.62,22.13,1.24,31.75,1.92l1.53,3.46Z"/><path class="cls-5" d="M38.35,36.75c6,.47,9.75,0,16.72-1.15"/><path class="cls-3" d="M9,49.49s-9.27,5.1-9,6.26,1.76,2.13,6.85,2.61c2.08.2,6,.2,6,.2a21.6,21.6,0,0,0-1-3.72A33.33,33.33,0,0,0,9,49.49"/><path class="cls-6" d="M62.13,101.85c4.49,4.39,11.61,4.39,17.81,3.4s12.66-2.67,18.62-.68c4.13,1.38,7.61,4.42,11.86,5.41,4.51,1,9.17-.38,13.7-1.39s9.61-1.51,13.47,1a6.29,6.29,0,0,1,2.74,3.52,3.72,3.72,0,0,1-1.41,4c-2,1.25-4.88-.53-5.24-2.86s1.2-4.62,3.23-5.83a18,18,0,0,1,6.75-1.92"/><path class="cls-4" d="M44.68,103l.72,11.54a12.47,12.47,0,0,1,.16,3c-1,3.47-3.53,3.29-2.87.21-2,2.35-5,2.22-2.9-.76-3,.91-2.63-2.42,2-2.64l-.76-12.16a3,3,0,0,1,3.63.77"/><path class="cls-4" d="M62,100.28c.85,4.54.7,10,1.49,14.74s-1.85,5.68-2.38,3.2c-2,2.7-5.44,1.8-3-.93-3.68,1.13-4.28-2.73,1.54-3.22A62.18,62.18,0,0,0,58.1,101.2c-.4-1.75,2-1.82,3.9-.92"/><path class="cls-7" d="M59.23,62.24c1.54,10.72,6.89,24.44,9.18,40.55a115.85,115.85,0,0,1-34,2.15C35.07,92,37.13,86.2,37.33,63.49l9.57,4.3Z"/><path class="cls-8" d="M59.23,62.24c1.54,10.72,6.89,24.44,9.18,40.55a115.85,115.85,0,0,1-34,2.15C35.07,92,37.13,86.2,37.33,63.49l9.57,4.3Z"/><path class="cls-4" d="M35,83.05s4.87,2.72,3.65,4.24S36.06,86,36.06,86s1.9,2.22.89,3.1-2.88-1.83-2.88-1.83,1.68,3.13,0,3.72-4-4.28-4-4.28l1-4.43Z"/><path class="cls-7" d="M37,72.29l-6,4.52c-.6.49-.4,1.25.05,1.88,1.67,2.28,3.49,3.23,5,5.36l-5.75,4.24C27.14,86,25.46,83,23.21,79.64c-.95-1.45-.32-3.12.75-4.49A44.49,44.49,0,0,1,37.08,64.63"/><path class="cls-8" d="M37,72.29l-6,4.52c-.6.49-.4,1.25.05,1.88,1.67,2.28,3.49,3.23,5,5.36l-5.75,4.24C27.14,86,25.46,83,23.21,79.64c-.95-1.45-.32-3.12.75-4.49A44.49,44.49,0,0,1,37.08,64.63"/><path class="cls-4" d="M62.89,81a6.15,6.15,0,0,0-1.37,1.63c-1,1.26-.93,2.9,1.83,1.84-2.26,2.38.35,3.15,1.7,1.44,0,3,2.36,2.41,4.12-1.72l-3-2.49Z"/><path class="cls-7" d="M59.81,63.05A46,46,0,0,1,72.6,69.66a4.93,4.93,0,0,1,1.87,4.93c-1,4.63-3.41,7.47-5.75,11.5L62.24,80.4A28.76,28.76,0,0,0,65.29,76a3.33,3.33,0,0,0-1.39-4.6l-2.77-1.39"/><path class="cls-8" d="M59.81,63.05A46,46,0,0,1,72.6,69.66a4.93,4.93,0,0,1,1.87,4.93c-1,4.63-3.41,7.47-5.75,11.5L62.24,80.4A28.76,28.76,0,0,0,65.29,76a3.33,3.33,0,0,0-1.39-4.6l-2.77-1.39"/><path class="cls-7" d="M73.21,79.35l-3-1.83c-.69-.47-1-.65-1.48,0a6.39,6.39,0,0,0-1.31,2.49,10.22,10.22,0,0,0,4.09,3,31.39,31.39,0,0,0,1.71-3.69"/><path class="cls-8" d="M73.21,79.35l-3-1.83c-.69-.47-1-.65-1.48,0a6.39,6.39,0,0,0-1.31,2.49,10.22,10.22,0,0,0,4.09,3A31.39,31.39,0,0,0,73.21,79.35Z"/><path class="cls-3" d="M69.73,40.56c-2.41,1.15-7.36.44-8.37-1.67s1.56-6.4,4-7.55,5.56.42,6.56,2.53.25,5.54-2.16,6.69"/><path class="cls-7" d="M50.21,46.93a4.72,4.72,0,0,1-5.89,2.13c-1.81-.93-2.37-3.45-1.24-5.63s3.5-3.19,5.31-2.25a4.4,4.4,0,0,1,1.82,5.75"/><path class="cls-9" d="M47.18,45.52a.69.69,0,0,1-1,.35A.78.78,0,0,1,46,44.81a.76.76,0,0,1,1-.33.74.74,0,0,1,.18,1"/><path class="cls-10" d="M38.13,36.26c0,2.7-2,5.8-3.7,5.64-2.68-.26-8-1.74-7-4.22,1.2-2.9,1.52-4.91,4.21-4.91,2,0,6.69,1.81,6.47,3.49"/><path class="cls-11" d="M41,39l-2.9,7.57c4.37,2.71,9.43,4.53,14,4.4,0,0,2.57-6.06,2.55-8A41,41,0,0,0,41,39Z"/><path class="cls-11" d="M38.13,37.24A2.59,2.59,0,0,1,41,39"/><path class="cls-11" d="M26.3,31a83,83,0,0,1,11.82,6.28l-3.9,7.16a38.47,38.47,0,0,1-11.8-6.72A35.28,35.28,0,0,1,26.3,31Z"/><path class="cls-11" d="M54.68,43s11.9,1.85,10.07,5.33"/><path class="cls-12" d="M43,54.36a2.67,2.67,0,0,1,.12.8,2.78,2.78,0,1,1-5.55,0"/><path class="cls-13" d="M48.12,63.64l7.56,16.52-2.24,1.33A.87.87,0,0,1,52.17,81c-.4-1.08-1-2.85-1.45-4.31a12.64,12.64,0,0,0-.47-1.3c-.8-1.85-1.9-8.92-2.13-11.79"/><path class="cls-13" d="M49.05,64.63,45,77.87a1.56,1.56,0,0,0,.25,1.32l.56.76a.88.88,0,0,0,1.41,0c1-1.37,3.23-6.86,1.79-15.31"/><path class="cls-13" d="M48.33,64c5.5-1.84,9.54-4.23,11.66-2.69a35.14,35.14,0,0,1-1.11,10,1.34,1.34,0,0,1-2,.8l-9.08-5.37Z"/><path class="cls-13" d="M47.9,67.67c-3.88,4.47-7.18,5.67-9,5.54L36.76,63.15c-.17-.8.84-1.23,2.79-.91l6.48,1,2.53,1.54Z"/><path class="cls-7" d="M47.7,80.31a203.8,203.8,0,0,0-.4,23.43"/><path class="cls-8" d="M47.7,80.31a203.8,203.8,0,0,0-.4,23.43"/><path class="cls-9" d="M50,97.73a.72.72,0,1,1-.74-.7.72.72,0,0,1,.74.7"/><path class="cls-9" d="M70.61,79.66a.72.72,0,1,1-.74-.7.72.72,0,0,1,.74.7"/><path class="cls-7" d="M27.78,86.19l2.9-2c.71-.44,1-.66.56-1.37a6.47,6.47,0,0,0-1.74-2.22,10.37,10.37,0,0,0-4.39,2.52,28.26,28.26,0,0,0,2.67,3.06"/><path class="cls-8" d="M27.78,86.19l2.9-2c.71-.44,1-.66.56-1.37a6.47,6.47,0,0,0-1.74-2.22,10.37,10.37,0,0,0-4.39,2.52A28.26,28.26,0,0,0,27.78,86.19Z"/><path class="cls-9" d="M28.55,83.7a.72.72,0,0,1-.39-.94.73.73,0,0,1,.95-.39.72.72,0,0,1-.56,1.33"/><path class="cls-9" d="M49.84,91.1a.72.72,0,1,1-.74-.71.73.73,0,0,1,.74.71"/><path class="cls-9" d="M49.67,84.35a.72.72,0,1,1-.74-.7.72.72,0,0,1,.74.7"/><path class="cls-14" d="M50.12,64.79c0,1.59-1,2.88-2.22,2.88s-2.22-1.29-2.22-2.88,1-2.87,2.22-2.87,2.22,1.28,2.22,2.87"/><path class="cls-4" d="M239.35,104.79a48.39,48.39,0,0,0-1.87,11.69c2,4.4-1.42,5.42-2.46,1.78-.26,4-3.56,2.12-1.78.17-3.39,3.3-5.39-1,1-3a33.86,33.86,0,0,1,2-10"/><path class="cls-6" d="M262.07,102.46a56.45,56.45,0,0,0,5,6c1.87,2,4.34,3.84,7.21,3.87a8,8,0,0,0,6.77-3.66c1.23-1.93,2.25-4.42,4.83-4.78s4,2.19,5.38,4a6.81,6.81,0,0,0,2.66,2.48c3,1.25,6-1.06,8-2.94,3.2-2.94,7.18-8.18,5.63-12.79-1.69-5-9.88-3.42-9.12,1.8A1.81,1.81,0,0,0,300.33,98c.91-.14,1.38-1.55.61-2.05"/><path class="cls-4" d="M254,102l-.67,1.94a19,19,0,0,0,1.79,7.53,24.88,24.88,0,0,0,2.82,3.68c-5.19,1.83-2,7.09.73,2.12-.47,3.57,1.76,4.24,2,.22,2.12,3.36,5-1.77,1.63-3.16l-2.64-2.38a8.23,8.23,0,0,1-2.42-4.29c-.6-2.17-1.16-5.21-.44-7.34Z"/><path class="cls-7" d="M237.22,66.11c-2.08,13.57-4.63,24.73-5.72,38.45,12.49,2.33,20.5,2.12,30.74-.9.81-.24.35-1.1.12-2-3.31-13.78-5-33.09-7.41-39.5l-12.31,1.92Z"/><path class="cls-8" d="M237.22,66.11c-2.08,13.57-4.63,24.73-5.72,38.45,12.49,2.33,20.5,2.12,30.74-.9.81-.24.35-1.1.12-2-3.31-13.78-5-33.09-7.41-39.5l-12.31,1.92Z"/><path class="cls-15" d="M259,74.4c.4-10,3.3-7.76,3.3-7.76.48,5.69,5.28,19,5.06,30.1l-4.28-.55Z"/><path class="cls-2" d="M245.76,31a8,8,0,1,1-8-8,8,8,0,0,1,8,8"/><polygon class="cls-7" points="243 34.31 258.61 6.63 256.61 42.18 242.24 36.17 243 34.31"/><polygon class="cls-16" points="243 34.31 258.61 6.63 256.61 42.18 241.78 37.15 243 34.31"/><g class="cls-17"><path class="cls-18" d="M243.63,31.14c4.25.11,12.14,1.07,15.58,3.92"/><path class="cls-18" d="M246.6,26.16c3.41-.26,8.67.64,11.74,3"/><path class="cls-18" d="M248.42,21.15c2.85-.73,8.27,0,10.25,2.19"/><path class="cls-18" d="M251.85,16.84c1.68-.06,5.29.46,6.82,1.75"/><line class="cls-18" x1="254.26" y1="12.57" x2="259.21" y2="13.77"/></g><path class="cls-16" d="M260.88,5.4a2.15,2.15,0,1,1-2.15-2.15,2.15,2.15,0,0,1,2.15,2.15"/><path class="cls-13" d="M238.65,65.25l5.28,16a6.58,6.58,0,0,1-1.71.57c-.54.08-1.83.08-1.91-.46-.16-1.14-.4-3-.5-4.52a10.48,10.48,0,0,0-.18-1.37c-.39-2-1.36-7.38-1-10.23"/><path class="cls-13" d="M239.35,66.41,233.8,77.17c-.22.42,0,.49.18.92l.58.92c.42.48.76.64,1.19.23C237,78.11,239,75,239.35,66.41"/><path class="cls-9" d="M241.13,99.7a.72.72,0,1,1-1.43-.15.72.72,0,1,1,1.43.15"/><path class="cls-9" d="M241.83,93.1A.72.72,0,0,1,240.4,93a.72.72,0,0,1,1.43.15"/><path class="cls-9" d="M242.54,86.39a.72.72,0,1,1-.64-.79.73.73,0,0,1,.64.79"/><path class="cls-4" d="M263.09,29.13a9.42,9.42,0,0,0-10.28,7.55c-3.23-2.26-6.58-2.78-12.15-1.88-9.76,1.56-24,7.11-38.76,11.26a1.66,1.66,0,0,0-.43,3c11.11,7.14,32.86,7.16,33.81,14.8,7.28.17,14,.78,19.67-1.73-.48-4.13,4.3-7.56,3.46-14,3,1.79,13.84.66,13.8-9.19,0-5.69-3.39-9.34-9.12-9.79"/><path class="cls-3" d="M262.89,42.89c-3.14,1-5.93-.43-6.32-1.13-1-1.92-.18-4.37,1.95-5.78a4.75,4.75,0,0,1,6.36,1.42,3.58,3.58,0,0,1-2,5.49"/><path class="cls-7" d="M247.66,45.76a4.91,4.91,0,0,1-6.31,2.1c-1.92-1.1-2.4-3.89-1.06-6.24a4.55,4.55,0,0,1,6-2,4.48,4.48,0,0,1,1.34,6.17"/><path class="cls-9" d="M241.79,44.9a.87.87,0,0,1-1.13.32.79.79,0,0,1,.87-1.32.7.7,0,0,1,.26,1"/><path class="cls-9" d="M242.51,54.62l-.06-.17c0,.08-1.46,1.93-5.14,2.44.65,1.13,2.07,2.35,3.37,2,1.5-.47,2.29-2.72,1.83-4.22"/><path class="cls-13" d="M238.9,64s-2.12-.29-5.05-.44l-3.64-.19c-.26.17-.12,1.43,0,4.49.13,3.28.69,4.5,1,4.34a37.87,37.87,0,0,0,5-2.25c1.7-.93,3.83-2.33,3.83-2.33Z"/><path class="cls-13" d="M242.1,64.6c-.19,0-1.34,3.26-1.52,3.25L241.9,70A15.66,15.66,0,0,0,244,72.59l3.27,3.75c.66,0,1.84-2,2.29-2.65.77-1.13,2.55-4.82,2.55-4.82-2.51-1.69-7.24-3.9-10-4.27"/><path class="cls-13" d="M241.92,66.43c.19,0-1-2.65-.82-2.69,3.88-.89,10.69-3.17,14.44-3.1l.59,3.41Z"/><path class="cls-7" d="M239.35,77c-.41,10.91-1.82,19.2-2.2,27.48"/><path class="cls-8" d="M239.35,77c-.41,10.91-1.82,19.2-2.2,27.48"/><path class="cls-19" d="M267.39,96.74c.1-.19-5.52-30.43-5.32-30.47,3.13-.73,19.15,14.47,15.61,27.12-.13.47-.48,1.78-1.58,2.06a33.36,33.36,0,0,1-8.71,1.29"/><path class="cls-15" d="M267,88.4s3.42-2.9,10.92-3.86c.29,0-1.67-5-2-5A24.18,24.18,0,0,0,266,82.66c-.34.22.57,4.59.93,5.74"/><path class="cls-3" d="M211.52,43s-11.53,2.56-11.87,3.7.3,2.74,5,4.66a54.4,54.4,0,0,0,5.4,1.93A21.56,21.56,0,0,0,211.36,49a32.51,32.51,0,0,0,.16-6.08"/><path class="cls-14" d="M242.55,66a2.53,2.53,0,0,1-2.46,2.79,2.79,2.79,0,0,1,0-5.57A2.52,2.52,0,0,1,242.55,66"/><path class="cls-4" d="M259.89,97c-1,3.69,2.63,5,1.91,1.56,1,2.18,3.78,1,2-1.38,0,0,1.6,1.93,2.39,1.1,1-1-2.32-4.51-2.32-4.51l-3.48.17Z"/><path class="cls-7" d="M256.37,68.54c-1.57-3.32-5.72,3.22-2.08,12.62,1.84,4.73,2.55,8.25,5.17,15.36a14.35,14.35,0,0,0,5.65-1.76,125.76,125.76,0,0,0-8.74-26.22"/><path class="cls-8" d="M256.37,68.54c-1.57-3.32-5.72,3.22-2.08,12.62,1.84,4.73,2.55,8.25,5.17,15.36a14.35,14.35,0,0,0,5.65-1.76A125.76,125.76,0,0,0,256.37,68.54Z"/><polygon class="cls-7" points="265.04 92.36 264 88.78 260.26 90.13 261.55 93.75 265.04 92.36"/><polygon class="cls-8" points="265.04 92.36 264 88.78 260.26 90.13 261.55 93.75 265.04 92.36"/><path class="cls-9" d="M263.06,91.44c-.1.59-.35.63-.67.63a.63.63,0,0,1,0-1.26.68.68,0,0,1,.67.63"/><path class="cls-19" d="M259.4,70.47c.12-1,1-2.8.85-2.9-9.85-6.95-15.73,9.3-4.12,19.55,0,0-1-4.15-2-7.24-1.1-5-2.75-14.63,5.31-9.41"/><path class="cls-4" d="M135.66,100.35,132,112.71s-6.3,0-5.1,2.93c.78,1.85,3.4-.69,3.4-.69-3.09,2.62-1.08,4.55,1.93,1.62.93,3.55,5.4.92,2.55-2l3.09-13.75Z"/><path class="cls-4" d="M153.35,101.43l-.67,1.94a19,19,0,0,0,1.79,7.53,25.61,25.61,0,0,0,2.82,3.68c-5.18,1.83-2,7.08.73,2.12-.47,3.57,1.76,4.23,2,.22,2.12,3.36,5-1.77,1.62-3.16L159,111.38a8.27,8.27,0,0,1-2.42-4.29c-.59-2.17-1.16-5.21-.44-7.34Z"/><path class="cls-6" d="M162.5,101.65a28,28,0,0,0,2.78,12.92c.87,1.77,2.2,3.65,4.17,3.83,1.64.15,3.14-1,4.26-2.18s2.11-2.62,3.57-3.39c2.5-1.33,5.63-.39,8,1.18s4.28,3.72,6.71,5.16a13.6,13.6,0,0,0,18.62-4.81,22.32,22.32,0,0,1,1.6-2.66,3.59,3.59,0,0,1,2.59-1.52,3.42,3.42,0,0,1,3,2.16,10.19,10.19,0,0,1,.65,3.85,7.54,7.54,0,0,1-.33,3.18,2.6,2.6,0,0,1-2.46,1.73c-1.06-.12-1.87-1.51-1.2-2.35"/><path class="cls-7" d="M139,62.15c-3,13.48-6.43,24.53-8.3,38.2,12.79,4.32,24.65,4.11,35.15.32.91-.32.79-.59.45-2a297.21,297.21,0,0,1-6.74-39.75l-12.4-.76Z"/><path class="cls-8" d="M139,62.15c-3,13.48-6.43,24.53-8.3,38.2,12.79,4.32,24.65,4.11,35.15.32.91-.32.79-.59.45-2a297.21,297.21,0,0,1-6.74-39.75l-12.4-.76Z"/><path class="cls-4" d="M157,90.43c-3.33,2.63-1,6.17.65,2.65-.57,2.58,2.71,3.38,2.71.12,0,0,.14,2.77,1.39,2.56,1.55-.27.94-5.55.94-5.55l-3.21-2.15Z"/><path class="cls-7" d="M141,73.62c-1.9,9.73-3.21,16.87-3.88,26.29"/><path class="cls-8" d="M141,73.62c-1.9,9.73-3.21,16.87-3.88,26.29"/><path class="cls-2" d="M149.9,27.79a8.33,8.33,0,1,1-8.33-8.33,8.32,8.32,0,0,1,8.33,8.33"/><path class="cls-4" d="M170.16,27.79c-5.46-.43-10.21,2.38-11.36,7.37-9.62-6.72-31,1.73-54.68,8.41a1.73,1.73,0,0,0-.45,3.12C115.26,54.15,138,54.17,139,62.15c7.6.18,14.6-.67,20.56-3.28C159,54.56,165,52.79,164.13,46a12.89,12.89,0,0,0,4.51,1.19c6,.46,11.13-3,11.59-8.88s-4.09-10.09-10.07-10.56"/><path class="cls-7" d="M157.93,62.11c4.56.15,6.69,17.07,5.15,28.07,0,0-7.06.8-7-.19.45-6.78,1-10.06.16-17.36-.58-5.08,1.37-10.53,1.69-10.52"/><path class="cls-8" d="M157.93,62.11c4.56.15,6.69,17.07,5.15,28.07,0,0-7.06.8-7-.19.45-6.78,1-10.06.16-17.36C155.66,67.55,157.61,62.1,157.93,62.11Z"/><path class="cls-3" d="M170.17,42.22c-3.28,1-6.19-.45-6.6-1.18-1.09-2-.19-4.56,2-6a5,5,0,0,1,6.64,1.48,3.74,3.74,0,0,1-2.07,5.73"/><path class="cls-7" d="M150.76,44c-1.4,2.45-4.57,3.34-6.58,2.19s-2.51-4.06-1.11-6.51a5.28,5.28,0,0,1,6.83-1.87c2,1.14,2.26,3.74.86,6.19"/><path class="cls-9" d="M145.75,42.36a.91.91,0,0,1-1.18.33.85.85,0,0,1-.22-1.16,1,1,0,0,1,1.21-.31.82.82,0,0,1,.19,1.14"/><path class="cls-11" d="M151.38,50.68s-15-6.88-14.46-7.91l5-8.22c.89-1.8,15.6,6.49,15.6,6.49S152.69,51.33,151.38,50.68Z"/><path class="cls-11" d="M157.5,41c2.06.91,10.66,7,8.09,9.67"/><path class="cls-11" d="M138,33.32c1-1.4,3.45-1.47,4,1.23"/><path class="cls-12" d="M146.45,53.37l.06.17A3,3,0,0,1,141,55.66"/><path class="cls-9" d="M143.7,79.93a.74.74,0,1,1-.74-.74.74.74,0,0,1,.74.74"/><path class="cls-9" d="M143,87.27a.74.74,0,0,1-1.48,0,.74.74,0,1,1,1.48,0"/><path class="cls-9" d="M141.78,93.77A.74.74,0,1,1,141,93a.74.74,0,0,1,.74.74"/><polygon class="cls-7" points="164.16 85.79 164.05 81.69 159.4 82.72 159.48 86.32 164.16 85.79"/><polygon class="cls-8" points="164.16 85.79 164.05 81.69 159.4 82.72 159.48 86.32 164.16 85.79"/><circle class="cls-5" cx="161.52" cy="84.12" r="0.13"/><path class="cls-13" d="M138.85,65.49s17.31,1.82,22-4.37a3.27,3.27,0,0,0-.89-2.76s-7.13,3.74-21,3.79Z"/><path class="cls-13" d="M138.47,62.74c-3.57.22-9.31.46-9.27,1.27l.75,7.52c.84,1.33,9.86-5.27,9.86-5.27Z"/><path class="cls-13" d="M140.27,63.54c.31.32,9.92,5.66,9.92,5.66-.57,1.07-3.72,5.42-6.82,6.66l-5.14-10.25Z"/><path class="cls-13" d="M138.09,65.78c-1.73,4.58-4.42,9.51-7.69,12.74-.51.51,1.29,3.26,1.81,2.81,3.34-2.92,6-9.29,7.24-15,0-.21-1.4-.3-1.36-.51"/><path class="cls-13" d="M139.31,66.63c-.06,5.56.14,13.13,1.28,18.85l3.32-.92c-1.47-3.16-2.35-10.33-2.81-16.24,0-.26-1.77-1.43-1.79-1.69"/><path class="cls-3" d="M113.71,40.43S102.18,43,101.84,44.12s.29,2.74,5,4.66a51.25,51.25,0,0,0,5.4,1.93,22.08,22.08,0,0,0,1.28-4.21,33.34,33.34,0,0,0,.16-6.07"/><path class="cls-14" d="M141.3,64.4A2.61,2.61,0,0,1,138.7,67c-1.46,0-2-1.18-2-2.63a2.64,2.64,0,0,1,2.63-2.64c1.46,0,2,1.18,2,2.64"/><polygon class="cls-7" points="147.75 31.05 163.36 3.37 161.36 38.93 146.99 32.91 147.75 31.05"/><polygon class="cls-16" points="147.75 31.05 163.36 3.37 161.36 38.93 146.53 33.89 147.75 31.05"/><g class="cls-20"><path class="cls-18" d="M148.38,27.89c4.25.1,12.14,1.07,15.58,3.92"/><path class="cls-18" d="M151.35,22.9c3.4-.26,8.67.65,11.74,3"/><path class="cls-18" d="M153.17,17.89c2.85-.73,8.27,0,10.25,2.2"/><path class="cls-18" d="M156.6,13.59c1.68-.07,5.29.45,6.82,1.75"/><line class="cls-18" x1="159.01" y1="9.31" x2="163.96" y2="10.52"/></g><path class="cls-16" d="M165.63,2.15A2.15,2.15,0,1,1,163.48,0a2.15,2.15,0,0,1,2.15,2.15"/></g></g></svg>