<?xml version="1.0" encoding="utf-8"?>
<!-- Generator: Adobe Illustrator 26.2.1, SVG Export Plug-In . SVG Version: 6.00 Build 0)  -->
<svg version="1.1" id="Capa_1" xmlns="http://www.w3.org/2000/svg" xmlns:xlink="http://www.w3.org/1999/xlink" x="0px" y="0px"
	 viewBox="0 0 497.7 426.3" style="enable-background:new 0 0 497.7 426.3;" xml:space="preserve">
<style type="text/css">
	.st0{fill:#2FAC66;}
	.st1{fill:#E30613;}
	.st2{fill:#B91919;}
	.st3{fill:#921F18;}
	.st4{fill:#561E18;}
	.st5{fill:#731D16;}
	.st6{fill:#D31926;}
	.st7{fill:#AE3E3B;}
	.st8{fill:#FFFFFF;}
	.st9{fill:#4C4356;}
	.st10{fill:#84385E;}
	.st11{fill:#236C96;}
	.st12{fill:#EDD800;}
	.st13{fill:#B24533;}
	.st14{fill:#999999;}
	.st15{fill:#32662B;}
	.st16{fill:#BE4442;}
	.st17{fill:#E95051;}
	.st18{fill:#E7EBCC;}
	.st19{fill:#A85318;}
	.st20{fill:#EB600A;}
	.st21{fill:#CB4D6F;}
	.st22{fill:#8B8F4C;}
	.st23{fill:#E3D86B;}
	.st24{fill:#513F44;}
	.st25{fill:#5F546C;}
	.st26{fill:#4A3D2E;}
	.st27{fill:#795C4E;}
	.st28{fill:#962A14;}
	.st29{fill:#056126;}
	.st30{fill:#0D181C;}
	.st31{fill:#9C6297;}
	.st32{fill:#B780B1;}
	.st33{fill:#048837;}
	.st34{fill:#007572;}
	.st35{fill:#00A0A4;}
	.st36{fill:#503A09;}
	.st37{fill:#654911;}
	.st38{fill:#06804E;}
	.st39{fill:#00A867;}
	.st40{fill:#A7D9E5;}
	.st41{fill:#3265AE;}
	.st42{fill:#90103B;}
	.st43{fill:#BB134E;}
	.st44{fill:#EF7831;}
	.st45{fill:#E84910;}
	.st46{fill:#63430D;}
	.st47{fill:#7F5616;}
	.st48{fill:#B87927;}
	.st49{fill:#E0B404;}
	.st50{fill:#004720;}
	.st51{fill:#182652;}
	.st52{fill:#20356E;}
	.st53{fill:#B45D24;}
	.st54{fill:#E73C27;}
	.st55{fill:#8C3029;}
	.st56{fill:#CC4B37;}
	.st57{fill:#40B181;}
	.st58{fill:#EB5744;}
	.st59{fill:#817906;}
	.st60{fill:#9F4471;}
	.st61{fill:#5F556C;}
	.st62{fill:#F3A5C2;}
	.st63{fill:#8A322E;}
	.st64{fill:#1D1D1B;}
	.st65{fill:#EBEBEB;}
	.st66{fill:#71B62C;}
	.st67{fill:#C63517;}
	.st68{fill:#85A3D5;}
	.st69{fill:#0282BC;}
	.st70{fill:#878787;}
	.st71{fill:#203463;}
	.st72{fill:#243F92;}
	.st73{fill:#814114;}
	.st74{fill:#F2F2F2;}
	.st75{fill:#B4DAE7;}
	.st76{fill:#794E07;}
	.st77{fill:#FBBA00;}
	.st78{fill:#865609;}
	.st79{fill:#1D394A;}
	.st80{fill:#7A6917;}
	.st81{fill:#4C634C;}
	.st82{fill:#D4B216;}
	.st83{fill:#A76829;}
	.st84{fill:#E7E240;}
	.st85{fill:#59364B;}
	.st86{fill:#E0BD02;}
	.st87{fill:#73250E;}
	.st88{fill:#F3933C;}
	.st89{fill:#B2B2B2;}
	.st90{fill:#917B1C;}
	.st91{fill:#1A4081;}
	.st92{fill:#862608;}
	.st93{fill:#138436;}
	.st94{clip-path:url(#SVGID_00000131327158814265775260000010398232432406594486_);}
	.st95{clip-path:url(#SVGID_00000030487938950926097150000016291965859900076717_);}
	.st96{fill:none;}
	.st97{fill:#A4659E;}
	.st98{opacity:0.8;}
	.st99{clip-path:url(#SVGID_00000016061023740024461150000010853533190623693243_);}
	.st100{clip-path:url(#SVGID_00000145032117149843300430000017045791221309043132_);}
	.st101{clip-path:url(#SVGID_00000085973028080029269280000013391824218838920343_);}
	.st102{fill:none;stroke:#DAD8CC;stroke-width:0.7489;stroke-linecap:round;}
	.st103{fill:#F39200;}
	.st104{fill:none;stroke:#1D1D1B;stroke-width:2.3816;stroke-linecap:round;}
</style>
<g>
	<g id="Capa_2_00000075885556177982614330000009368961543488570518_">
		<g id="Capa_1-2">
			<path class="st0" d="M77.2,321.3c87.9-14.8,136-6.5,226.9-4.9c22.8,0.4,65.4,0.1,88.1,1.5c23.4,1.4,40,0.5,55,3.8
				c11.5,2.5,21.7,4.4,29.4,10.4c22.9,17.9,26.3,32.9,14.3,54.7c-4.7,8.8-11.9,15.9-20.7,20.6c-22,11.5-53.9,18.6-82.4,18.6
				c-42.2,0.1-50.4,0.1-95.1-4.3c-12.7-1.2-31.7-1.5-56.6-2.6c-39.4-1.7-79.3,3.2-118.1-1.4c-10.6-1.3-21.1-3.3-31.5-5.8
				c-10.8-2.5-21.7-5.5-30.1-10.6c-15.9-9.6-23.8-20.1-22.8-34c0.6-8.8,2.4-15.7,8.9-23.4s11.6-17.4,35.3-22.8"/>
			<g>
				<polygon class="st1" points="203.8,316 469,333.2 457.9,19.2 198.6,28.8 				"/>
				<polygon class="st2" points="222.9,62.3 222.9,317.4 269.4,318.7 267.2,62.3 				"/>
				<polygon class="st3" points="239.4,62.3 239.5,62.3 239.5,110.5 222.9,105.3 222.9,119.2 231.1,128.8 239.5,129.9 239.5,176.4 
					222.9,175.2 222.9,188.6 239.4,203.8 239.5,203.7 239.5,247.1 222.9,247.6 222.9,260.7 238.9,273.5 239.5,272.9 239.5,317.9 
					244.2,318 244.2,268.8 250,263.6 250,246.7 244.2,246.9 244.2,202.5 250,201.1 250,177.2 244.2,176.8 244.2,130.4 260.7,132.5 
					251.8,114.3 244.2,111.9 244.2,63.3 256,65.9 255.6,62.3 				"/>
				<polygon class="st4" points="248.8,62.3 249.7,322.8 467.5,328.5 463.8,62.3 				"/>
				<polygon class="st5" points="459.5,62.3 460.2,90.6 222.9,98 222.9,105.3 251.8,114.3 461.9,107.8 461.9,168.7 222.9,171.5 
					222.9,175.9 250,179.2 461.9,176.7 462.8,62.3 				"/>
				<polygon class="st2" points="468.5,62.3 469,333.2 485.5,318.8 485.1,62.3 				"/>
				<path class="st6" d="M222.9,311.7v7.2l6.5,0.8l232.5,7l0.3-12.5L231.7,309L222.9,311.7z M462.1,314.3h2.1l-1.2-34L462.1,314.3z
					 M222.9,241.1v2.7l238.9,4l1.2,32.6l1.1-41.9l-208-2.3L222.9,241.1z"/>
				<polygon class="st7" points="227,268 228.8,259.6 236.1,259 244.3,259.6 240.1,307.9 237,311.1 233.3,313 230.2,311.3 
					227.3,313.4 224.4,306.5 				"/>
				<polygon class="st8" points="227.4,261.6 230.3,260.2 233.1,259.8 235.5,260.6 237.3,260 244,259.3 245,257.5 224.8,259.6 				
					"/>
				<path class="st8" d="M243,263.2l-3.2-5.5c0,0,13.4-1.1,13.8-1.1l11-0.1l7-1l10.1,0.1l-10.9,6.6L243,263.2z"/>
				<path class="st9" d="M260.6,258.8l-7.3,2.6l-2.5-2.9l13.7-2h-0.2l-15.3,1.8l-7.3,3.8l2,50.9c0,0,6.4-2.5,7.5-2.5
					s7.6,3.5,7.6,3.5l22.1-8.4l0.7-50.1L260.6,258.8z"/>
				<polygon class="st10" points="276.5,274.5 278.9,269 298.2,264.7 298.7,308.4 283.4,314.5 280.7,308 				"/>
				<polygon class="st11" points="268,282.6 271.4,270.6 278,268.5 278.4,312.1 275.7,313.7 				"/>
				<polygon class="st8" points="267.5,273.1 265.5,271 282.9,266.5 286.1,266.4 291.2,264.9 298.2,264.7 279.3,269.6 274.1,270.5 
					271.1,271.2 				"/>
				<path class="st12" d="M289.8,277.9l2.4-6.3l12.7-4.3l-0.3,15.9l-10,29.1l-3.7,2.1c0,0-2.3-4.7-2.4-5.1
					C288.4,308.9,289.9,277.8,289.8,277.9"/>
				<polygon class="st8" points="289.2,274.6 285.9,272.5 299.1,267.4 304.9,267.3 292.5,272.6 				"/>
				<polygon class="st8" points="299,280.1 297,272.1 304.2,268.8 308,269.1 309,270.4 				"/>
				<polygon class="st13" points="298.6,276.7 302.2,272.7 308.4,269.7 308.5,303.5 298.8,315.2 297.6,297.6 				"/>
				<polygon class="st8" points="302.4,286 301.6,280.2 308.4,274.4 307.9,311 304.5,315.1 302.6,298 				"/>
				<polygon class="st14" points="299.9,314.7 304.5,315.1 306.2,280.4 301.6,280.2 				"/>
				<polygon class="st15" points="313.8,269.8 317,267.1 322.7,264.6 320.2,300.5 318.7,312.8 315.4,315.5 311.7,313.4 310.2,315.5 
					307.3,298.1 311.6,269 313.6,267.7 				"/>
				<polygon class="st8" points="314,268.7 311.6,269 306.8,268.6 317.5,264.7 322.7,264.6 317,267.1 				"/>
				<polygon class="st16" points="319,313.9 321.5,316.6 324.2,314.4 327.2,316.6 330.3,313.5 333.7,273.8 333.7,265.3 319.8,267.4 
									"/>
				<path class="st17" d="M317,267.6l4.9,0.3l-0.4,48.7l-4.3-0.2L317,267.6z M322.8,267.6l0.1,49.1h4.3l0.3-49L322.8,267.6z"/>
				<polygon class="st18" points="323,265.3 333.7,265.3 327.6,267.6 322.8,267.6 321.9,267.9 317,267.6 				"/>
				<polygon class="st19" points="331.7,276.3 332.6,274.1 341.4,270.1 341.3,272.4 349.2,269.7 349.1,271.4 353.1,269 353.8,272.7 
					353.2,309.3 351,314.7 347.9,317.2 344.1,317 344,315 342.3,316.7 339.4,316.4 336.4,314.4 334.8,316.7 333.6,313.9 331,316.7 
					329.6,314.7 				"/>
				<polygon class="st8" points="339,270 341.4,270.1 333,274.7 330.7,274.6 				"/>
				<polygon class="st8" points="345.2,269.6 349.2,269.7 340.9,274.7 337.7,275.3 335.8,276.5 333.7,276.3 				"/>
				<polygon class="st8" points="351.7,268.7 354.1,268.7 346.8,273.3 345,274.9 343.3,276.4 341.3,276.3 345,273.6 344.6,273.2 
									"/>
				<polygon class="st8" points="348.7,278.2 347.8,277.3 352.9,274 353.3,275.4 350.1,277.4 				"/>
				<polygon class="st20" points="330.7,274.6 333,274.7 331,316.7 328.7,316.6 				"/>
				<polygon class="st20" points="333.7,276.3 335.8,276.5 334.8,316.7 332.8,316.7 				"/>
				<polygon class="st20" points="337.5,274.6 340.9,274.7 339.4,316.4 335.7,316.2 				"/>
				<path class="st20" d="M344.6,273.2l2.2,0.1l-1.2,43.8l-2.1,0.1L344.6,273.2z M341.3,276.2l2,0.1l-1,40.3h-2.1L341.3,276.2z"/>
				<polygon class="st20" points="347.8,277.3 350.1,277.4 347.9,317.2 345.6,317 				"/>
				<polygon class="st8" points="355.4,274.6 353.6,268.8 359.5,266.2 371.1,266.4 365.3,271.6 				"/>
				<polygon class="st21" points="357.1,271.1 371,265.8 372,265.9 371.8,273.7 366.3,315.2 360.7,318 353.2,270.7 352.2,269 
					359.9,265.1 360.7,265.3 360.8,266.1 353.4,270 				"/>
				<polygon class="st14" points="367.2,303.7 369.5,318.1 372.7,315.7 379.5,318.1 388.8,312.5 393,318.1 399.3,313.3 400.3,306.7 
					397.3,271.9 390.7,274.1 390.7,271.7 379.3,274.9 379,271.9 368.4,275.7 				"/>
				<polygon class="st8" points="365,277.2 364.5,276 373.5,271.7 379,271.9 370.6,276.2 				"/>
				<polygon class="st8" points="374.1,278.4 372.2,276.1 383.5,271.6 390.7,271.7 380.9,276.5 				"/>
				<polygon class="st8" points="385.1,278.6 383.1,276.2 391.4,272 397.3,271.9 389.5,276.1 				"/>
				<polygon class="st22" points="395.9,313 395.4,312.4 401.9,311.2 443,312.8 447.3,315.1 445.3,317.9 441.1,320.2 397.3,318.6 
					397.5,313.2 				"/>
				<path class="st8" d="M396.1,313c0.2,1.8,0.1,3.6-0.2,5.4l44.5,1.7l1.6-1.9l-0.5-3.1l-1.2-0.3L396.1,313z"/>
				<path class="st23" d="M395.5,313.5c0,0,45,1.8,45.5,1.8s0.8,1.4,0.8,2.6s-0.8,1.6-1.9,1.6s-44.3-1.5-44.3-1.5v0.9
					c0,0,44.1,1.4,44.8,1.4s2.5-0.3,2.6-2.9s-0.8-3.3-3.6-3.4s-43.8-1.6-43.8-1.6V313.5z"/>
				<polygon class="st8" points="441.2,310.1 444.5,314.2 446.6,312 447.8,303.7 442.8,306.2 				"/>
				<polygon class="st24" points="399.8,307.3 398.6,304.1 406.6,302.7 446.9,303.6 444.3,305.9 431.9,308.2 				"/>
				<path class="st25" d="M398.6,304.1c-0.3,1.5-0.6,3-0.6,4.5c0,1.2,0.1,2.3,0.3,3.5l46.2,2.1c-0.7-2.7-0.8-5.6-0.2-8.3
					L398.6,304.1z"/>
				<polygon class="st8" points="447.3,298 447.2,295.2 442.2,297.3 443.8,305.3 447.7,303.5 				"/>
				<polygon class="st26" points="400.6,298.7 399,294.9 405.9,293.6 447.2,295.2 444,296.9 425.1,300.4 				"/>
				<path class="st27" d="M398.1,303c-0.4-1.4-0.5-2.8-0.4-4.3c0.2-1.3,0.6-2.6,1.2-3.8l45.1,2c-0.3,1.8-0.5,3.6-0.5,5.4
					c0,1,0.1,2,0.3,3L398.1,303z"/>
				<polygon class="st8" points="450.5,279.9 448.1,277 455.7,273.6 463.2,274 462.5,278.5 				"/>
				<polygon class="st28" points="448,319.5 449.9,321.2 452.1,320.2 456.9,321.4 461,318.6 461.8,281.7 454.6,277.1 460.2,274 
					459.5,274 454,277.5 				"/>
				<polygon class="st29" points="249.2,118.3 249.5,115.6 252.7,115.3 253.4,115 253.9,113.7 256.8,114.9 258.4,112.6 261.7,114.5 
					262.8,113.9 273,115.5 274.1,169.6 251.4,170.5 				"/>
				<polygon class="st8" points="217.6,171.4 213.7,117.3 213.7,114 221.2,115.2 221.2,112 223.2,112 238.4,114.8 237.4,170.3 				
					"/>
				<polygon class="st14" points="211.8,117.3 213.7,117.3 218.6,170.3 219.6,170.3 216.3,115.7 217.9,115.7 221.9,170.3 
					223.6,170.3 219.9,115.7 221.2,115.7 225.6,170.3 228.5,170.3 223.6,115.7 226.2,115.7 230.6,170.3 216,170.3 				"/>
				<polygon class="st30" points="213.4,114 214.9,114 219.8,171.4 225.5,171.4 221.2,112.4 222.7,112.4 227.7,171.4 218.4,171.4 
									"/>
				<polygon class="st30" points="226.2,115.7 239.3,116.9 241.2,170.5 230.6,170.3 				"/>
				<polygon class="st31" points="235.6,170.4 250.6,170.2 248.5,117.2 245,116.3 234.1,118.1 				"/>
				<path class="st32" d="M245,116.3c0,0-7.2-0.6-12.2,0.7l2.4,53.3h11.9L245,116.3z M235.3,119.3l7.4-0.5l0.2,2.1l-7.4,0.4
					L235.3,119.3z M238.1,167.3l-0.7-0.1V165h7.2l0.2,2.4L238.1,167.3z"/>
				<polygon class="st33" points="247.5,115 249.9,115 252.8,169.9 253.5,169.9 251.6,113.7 253.9,113.7 256.3,171.2 258.1,169.9 
					256.1,112.6 258.4,112.6 260.8,170.7 261.5,170 261,113.8 262.8,113.9 264.4,170.4 250.2,170.7 				"/>
				<polygon class="st34" points="284.3,169.8 281.1,121.6 276.2,121.3 276,123 267.4,125.3 267.6,147.1 268.9,161 267.8,163.8 
					267.9,167.1 272.9,166.9 272.6,170.7 				"/>
				<path class="st35" d="M276.2,121.3c-3-0.3-6.1-0.2-9.1,0.3l0.6,48.5l8.8-0.2L276.2,121.3z M267.8,126.2h7.8v1h-7.8V126.2z
					 M267.8,127.9h7.8v0.9h-7.8V127.9z M275.8,166.4h-7.7v-0.9h7.8L275.8,166.4z M275.8,164.7h-7.7v-0.9h7.8L275.8,164.7z"/>
				<polygon class="st36" points="285.9,118.8 288,118.3 301.6,118.8 303.6,169.5 283.3,170 279.5,119.2 				"/>
				<path class="st37" d="M288,118.3c-3-0.5-6.1-0.3-9.1,0.5l3.9,51.2l9.9-0.8L288,118.3z M283.8,125.5c-0.9,0.1-1.7-0.6-1.8-1.5
					s0.6-1.7,1.5-1.8c0.1,0,0.2,0,0.3,0c0.9,0.1,1.6,0.9,1.5,1.8C285.2,124.8,284.6,125.4,283.8,125.5 M287.5,166.1
					c-0.9,0-1.7-0.7-1.7-1.6c0-0.9,0.7-1.7,1.6-1.7s1.7,0.7,1.7,1.6c0,0,0,0,0,0C289.1,165.3,288.4,166.1,287.5,166.1"/>
				<polygon class="st38" points="294,125.8 295.4,122.3 308.9,122.9 311.8,170.3 297.8,169.6 				"/>
				<path class="st39" d="M289.7,122.5c1.9-0.2,3.8-0.3,5.7-0.2l3,46.9l-6,0.2L289.7,122.5z"/>
				<polygon class="st40" points="319.7,132.6 328.8,170.3 309.1,169.5 300.4,134.3 302.9,134.5 303.6,134.2 305.4,134.2 
					305.7,132.4 				"/>
				<polygon class="st41" points="298.9,134.6 300.4,134.3 310.7,169.6 310.7,169.9 302.1,134.4 303.6,134.2 312.6,169.6 
					313.4,169.6 304.2,132.7 305.7,132.4 315.6,170.7 308.7,170.3 				"/>
				<polygon class="st42" points="325.9,130.3 334.2,130.5 341.4,132.2 336.1,169.2 319.9,169.4 				"/>
				<path class="st43" d="M325.6,129.4l-6.4,39.8l9,0.4l6.1-39.2L325.6,129.4z M326.7,139.5l1.2-7.9l2.6,0.4l-1.3,7.7L326.7,139.5z"
					/>
				<polygon class="st44" points="345.7,168.6 343.3,168.6 346.2,135.3 342.7,135.2 334.1,170.1 345.7,169.7 				"/>
				<polygon class="st45" points="345.7,168.7 337.2,168.9 342.7,135.2 334.9,134 328,170.2 345.7,169.5 				"/>
				<polygon class="st46" points="347.8,131.3 352.1,125 367.2,126.7 365.2,168.9 347,169.2 				"/>
				<path class="st47" d="M343.3,124.7l-2.3,44.2l8.1,0.5l3.1-44.3C349.2,124.7,346.2,124.6,343.3,124.7"/>
				<polygon class="st48" points="362.7,129.7 360.4,131.7 357.6,168.7 350.9,168.7 350.9,169.6 364.4,169.2 366,130.1 				"/>
				<polygon class="st49" points="354,129.8 352.6,168.5 350.9,168.6 350.9,169.3 360.9,168.9 362.7,129.7 				"/>
				<polygon class="st50" points="365.3,127.7 370.5,125.5 372.7,125.9 375.3,125.4 377,125.9 379.6,125.5 381.7,125.9 384.9,125.3 
					387.3,126.3 390.1,125.7 395,126.4 393.6,168.6 362.3,169.1 				"/>
				<path class="st0" d="M386.2,125.5l-2.1,43.4h-0.4l1.3-43.6h-3.8l-2.1,43.3l-0.5-0.1l1.1-42.9l-3.2-0.2l-2,43.7l-0.5,0.6
					l1.4-44.2l-3.3-0.2l-2.6,43.7l-1.9,0.4l3-43.8l-5.4-0.3l-3.3,44.8l18.5,0.3l8.5-1.5l1.3-43.1L386.2,125.5z M365.2,165.3
					c-0.8,0-1.5-0.7-1.5-1.5s0.7-1.5,1.5-1.5c0.8,0,1.5,0.7,1.5,1.5l0,0C366.7,164.6,366.1,165.3,365.2,165.3 M372,165.5
					c-0.8,0-1.5-0.7-1.5-1.5s0.7-1.5,1.5-1.5c0.8,0,1.5,0.7,1.5,1.5l0,0C373.5,164.8,372.8,165.5,372,165.5 M376.7,165.3
					c-0.8,0-1.5-0.7-1.5-1.5s0.7-1.5,1.5-1.5c0.8,0,1.5,0.7,1.5,1.5l0,0C378.2,164.6,377.5,165.3,376.7,165.3 M381.5,165.2
					c-0.8,0-1.5-0.7-1.5-1.5s0.7-1.5,1.5-1.5c0.8,0,1.5,0.7,1.5,1.5l0,0C383,164.6,382.3,165.2,381.5,165.2 M386.5,165.2
					c-0.8,0-1.5-0.7-1.5-1.5s0.7-1.5,1.5-1.5c0.8,0,1.5,0.7,1.5,1.5l0,0C388,164.6,387.3,165.2,386.5,165.2"/>
				<polygon class="st31" points="391.7,169.6 394.4,122.8 401.5,122.5 405.5,123.6 403.8,169 				"/>
				<polygon class="st14" points="404.1,122.5 404.9,120.6 406.2,120.9 406.7,120.6 406.8,118 409,118.1 409.1,119.5 410.5,119.7 
					412.7,120.6 413.7,120.1 413.7,117.2 415.8,117.1 418.3,119.7 416,168.1 402.5,168.5 				"/>
				<polygon class="st8" points="403.8,120.6 404.9,120.6 404.1,168.1 404.8,168.1 405.9,120.6 406.7,120.6 406.1,168.9 
					407.7,168.1 409.1,119.5 410.5,119.7 409.5,168.4 410.8,168.3 412.2,120.1 413.7,120.1 412.6,168 410.9,169.7 402.2,169.5 				
					"/>
				<polygon class="st38" points="418,121.5 420.5,119.3 435.8,120.7 432.1,168.7 415.8,169.2 				"/>
				<polygon class="st39" points="417.4,119.3 414.8,168.1 417.8,168.1 420.5,119.3 				"/>
				<polygon class="st51" points="425.5,125.9 431.7,123.5 435.1,124 442.5,123.3 445.9,123.8 455.3,123.2 460.3,123.9 461.8,167.7 
					426.9,167.9 422,168.1 424.1,125.9 				"/>
				<path class="st52" d="M444.5,122.9l-2.3,44.3h-0.6l1-43.8l-8.4,0.1l-1.7,43.7h-1.2l0.6-43.7l-8.8,0.3l-1.3,44.2h1.7v0.9h28.5
					v-1.3h2.5l1-44.4L444.5,122.9z M430,158.4h-6.3v-2h6.3V158.4z M440.3,158.5H434v-2h6.3V158.5z M452.8,158.5h-8.7v-2h8.7V158.5z"
					/>
				<path class="st32" d="M393.8,122.3l-2.6,46.6l9,0.1l1.4-46.4L393.8,122.3z M394.3,125.4l6.5,0.3v0.7l-6.5-0.3L394.3,125.4z
					 M398.9,165.7l-6.4-0.1V164l6.6,0.4L398.9,165.7z M394,127.4l0.1-0.7l6.6,0.2v0.8L394,127.4z"/>
				<path class="st48" d="M362,134.6h-7.4v-0.3h7.4V134.6z M362,133.7h-7.4v-0.3h7.4V133.7z M362,132.7h-7.4v-0.3h7.4V132.7z
					 M362,131.7h-7.4v-0.3h7.4V131.7z"/>
				<path class="st53" d="M336.9,157.3c0,1.2-0.9,2.1-2.1,2.1c-1.2,0-2.1-0.9-2.1-2.1c0-1.2,0.9-2.1,2.1-2.1c0,0,0,0,0,0
					C335.9,155.1,336.9,156.1,336.9,157.3C336.9,157.3,336.9,157.3,336.9,157.3 M338.1,151.2c0,1.2-0.9,2.1-2.1,2.1
					c-1.2,0-2.1-0.9-2.1-2.1c0-1.2,0.9-2.1,2.1-2.1c0,0,0,0,0,0C337.2,149,338.1,150,338.1,151.2
					C338.1,151.2,338.1,151.2,338.1,151.2"/>
				<polygon class="st54" points="443.9,320.4 449.9,321.2 454,277.5 448.1,277 				"/>
				<polygon class="st54" points="450.7,320.9 456.9,321.4 460.5,277.7 454.6,277.1 				"/>
				<path class="st30" d="M367.1,310.9h-0.9l0.6-26.4h0.9L367.1,310.9z M388.1,280.5c0,0.9-0.7,1.6-1.6,1.6c-0.9,0-1.6-0.7-1.6-1.6
					c0-0.9,0.7-1.6,1.6-1.6S388.1,279.6,388.1,280.5L388.1,280.5 M377.6,280.7c0,0.9-0.7,1.6-1.6,1.6s-1.6-0.7-1.6-1.6
					s0.7-1.6,1.6-1.6c0,0,0,0,0,0C376.9,279.1,377.6,279.8,377.6,280.7L377.6,280.7 M369,280.3c0,0.9-0.7,1.6-1.6,1.6
					c-0.9,0-1.6-0.7-1.6-1.6c0-0.9,0.7-1.6,1.6-1.6S369,279.4,369,280.3L369,280.3"/>
				<path class="st30" d="M389.9,311.5l-0.9,0.1l-2.2-26.3l0.9-0.1L389.9,311.5z M375.6,311.7h-0.9l0.6-26.4h0.9L375.6,311.7z"/>
				<path class="st26" d="M436.5,304.2h0.6l0.1-5.8h-0.6L436.5,304.2z M437.9,304.2h0.6l0.1-5.8H438L437.9,304.2z M439.3,304.2h0.6
					l0.1-5.8h-0.6L439.3,304.2z"/>
				<polygon class="st55" points="352.2,269 350.3,317.3 360.7,318 363.1,269 				"/>
				<path class="st56" d="M353.3,275l-0.1-1h7.9l-0.1,1H353.3z M353.1,275.7l-0.2,3.5l8.2,0.3l0.2-3.6L353.1,275.7z"/>
				<polygon class="st57" points="312,266.7 317,267.1 315.4,315.5 310.8,315.2 				"/>
				<polygon class="st57" points="306.8,268.6 311.6,269 310.2,315.5 305.7,315.4 				"/>
				<polygon class="st58" points="297,272.1 302.2,272.7 298.8,315.2 293.2,314.8 				"/>
				<polygon class="st59" points="285.9,272.5 292.5,272.6 290.9,314.4 284.9,314.4 				"/>
				<polygon class="st60" points="273.2,269.6 279.3,269.6 283.4,314.5 277.1,314.4 				"/>
				<polygon class="st35" points="265.5,271 271.1,271.2 275.7,313.7 269.5,313.8 				"/>
				<polygon class="st61" points="250.8,258.5 260.6,258.8 258.9,314.1 248.7,313.9 				"/>
				<polygon class="st61" points="239.7,257.7 249.1,258.4 243.7,313 234.2,311.9 				"/>
				<polygon class="st62" points="232,259.5 237.3,260 233.3,313 227.8,312.9 				"/>
				<polygon class="st62" points="225.1,259.7 230.3,260.2 227.3,313.4 221.8,313.1 				"/>
				<path class="st63" d="M325.2,310.9h-0.7V271h0.7V310.9z M320.4,315.3H318v-2.4h2.4V315.3z M326,315.3h-2.4V313h2.4V315.3z"/>
				
					<rect x="299.3" y="290.3" transform="matrix(5.585019e-03 -1 1 5.585019e-03 26.7908 608.3069)" class="st63" width="39.9" height="0.7"/>
				<path class="st12" d="M288.5,310.5h-0.7l1-29.8h0.7L288.5,310.5z M289.1,277.9c-0.8,0-1.5-0.7-1.5-1.5s0.7-1.5,1.5-1.5
					s1.5,0.7,1.5,1.5c0,0,0,0,0,0C290.6,277.2,289.9,277.8,289.1,277.9"/>
				
					<rect x="295.8" y="311.8" transform="matrix(0.1018 -0.9948 0.9948 0.1018 -45.7913 576.1376)" class="st64" width="0.7" height="3.2"/>
				<path class="st9" d="M243.5,309.5l-8.1-0.6l0.1-1l8.1,0.6L243.5,309.5z M243.2,311.2l-8.1-0.6l0.1-1l8.1,0.6L243.2,311.2z"/>
				<path class="st8" d="M223.3,227c0.2,1.2,0.3,2.3,0.3,3.5c-0.2,1.1-0.4,2.2-0.8,3.3l0.4,1.1c0,0,0.2,2.1,0.3,3.4
					c-0.1,1.3-0.4,2.5-0.9,3.7l46.2,0.1l-0.3-15.3L223.3,227z M226.7,217.3h46.7v-3.5h-46.7L226.7,217.3z M273.5,210.3v-1.9h-0.8
					v-2.3H226v3.5h0.8v2.3h1v1.9h46.6v-3.5H273.5z"/>
				<polygon class="st65" points="271.1,227.5 271.3,240.1 268.9,242 268.6,226.7 270.7,225.7 				"/>
				<path class="st66" d="M224.7,206.2c0,0-1.4-5.3,0-9.3l48-0.1l-0.3,9.7L224.7,206.2z"/>
				<path class="st67" d="M222.8,216.1c0,0-2.2,6.1-0.4,9.9H272l-0.6-10.1L222.8,216.1z"/>
				<path class="st68" d="M221.8,233.2v1.4l47.2,0.1l3.2-1.8v-1.9l-3.4,2.5L221.8,233.2z M221.8,227.9v-1.8l47.4-0.2l2.1-0.9
					l-0.1,1.2l-2.2,1.3L221.8,227.9z"/>
				<path class="st69" d="M221.7,241.3l0.1,1.4h47.5l3.6-2.9l-0.3-1.3l-3.6,2.7L221.7,241.3z M221.8,235.9v-1.4l47.2,0.1l3.2-1.8
					l-0.2,1l-2.9,1.9L221.8,235.9z"/>
				<polygon class="st8" points="271.2,191.8 270.6,190.6 278.8,189.7 282.4,189.8 279.5,191.1 				"/>
				<polygon class="st70" points="271.9,194.3 275,190.7 282.4,189.8 282.4,191.3 284.9,190.7 285.3,239.6 278.7,242.6 272.1,242.4 
									"/>
				<polygon class="st14" points="270.6,190.6 275,190.7 274.5,242.7 275.6,192 279.9,192.1 278.7,242.6 270.2,242.8 				"/>
				<polygon class="st8" points="284.7,191 279.9,192.1 275.6,192 283.5,190.5 				"/>
				<polygon class="st8" points="284.8,191.7 282.9,190.3 293.6,188.9 303.9,188.6 294.8,194.1 				"/>
				<polygon class="st71" points="285,192.9 293.4,190.4 303.9,188.6 303,222.4 297.7,240.2 292,242.6 287.6,227.8 				"/>
				<polygon class="st72" points="282.9,190.3 281.6,242.4 292,242.6 293.4,190.4 				"/>
				<polygon class="st8" points="302.4,199.3 297.8,192.8 306.9,191.6 313.5,191.9 308.9,195.5 				"/>
				<polygon class="st73" points="304.1,196.3 307.2,193.7 313.5,191.9 310.1,238.8 304.2,242.2 300,224 				"/>
				<polygon class="st19" points="297.8,192.8 307.2,193.7 304.2,242.2 294.7,242.2 				"/>
				<polygon class="st8" points="339.8,200.1 334.4,198.2 344.5,197.3 378.8,198.2 378.9,200.9 375.3,202.3 				"/>
				<polygon class="st8" points="309.7,204.6 309.1,202.7 314.3,200.2 378.3,200.1 379.6,207.7 				"/>
				<polygon class="st74" points="309.1,202.7 376.7,203.4 376.7,243.2 309,242.9 				"/>
				<path class="st75" d="M314.4,242.9h5.5v-40.1l-5.5-0.1V242.9z M324.9,202.9h-4.2V243h4.2V202.9z M346.9,203.1h-3.6v40h3.6V203.1
					z M335.2,203H331V243h4.3V203z M342.5,203l-6.4-0.1v40h6.4V203z"/>
				<path class="st75" d="M370.9,203.3v39.9h5.7v-39.8L370.9,203.3z M370.1,203.3h-5v39.9h5V203.3z M313.5,202.8h-4.4L309,243h4.5
					V202.8z M359.3,203.2h-4.3v39.9h4.3V203.2z M330.1,202.9h-4.3V243h4.3V202.9z"/>
				<path class="st75" d="M350.3,203.1h-2.5v40h2.5V203.1z M364.2,203.3h-4v39.9h4V203.3z M354.2,203.2h-3v40h3V203.2z"/>
				<path class="st72" d="M353.8,238.8h-2.2v2.2h2.2V238.8z M350.2,238.8h-2.2v2.2h2.2V238.8z M346.2,238.8h-2.2v2.2h2.2V238.8z
					 M318.2,238.8h-2.2v2.2h2.2V238.8z M312.3,238.8h-2.2v2.2h2.2V238.8z"/>
				<path class="st72" d="M369,238.8h-2.2v2.2h2.2V238.8z M340,238.8h-2.2v2.2h2.2V238.8z M324,238.8h-2.2v2.2h2.2V238.8z"/>
				<path class="st72" d="M329.2,238.8h-2.2v2.2h2.2V238.8z M374.9,238.8h-2.2v2.2h2.2V238.8z M363.3,238.8h-2.2v2.2h2.2V238.8z
					 M334.2,238.8H332v2.2h2.2V238.8z"/>
				<rect x="356.1" y="238.8" class="st72" width="2.2" height="2.2"/>
				<polygon class="st75" points="334.4,198.2 334.3,201.6 375.9,202.3 375.8,198.7 				"/>
				<rect x="335.2" y="198.7" class="st72" width="2.2" height="2.2"/>
				<polygon class="st8" points="377,204.5 375.8,199.9 389.1,198.7 403.3,198.8 396.1,206.8 				"/>
				<polyline class="st30" points="380.5,241.6 382.6,243.4 384.5,243.4 391.9,243.5 400.4,242.1 403.6,210 403.3,198.8 
					392.5,200.3 384.7,200.2 396.7,198.8 394.5,198.8 383.2,200.2 380.5,241.3 				"/>
				<polygon class="st8" points="409.6,202.3 402.3,201.5 429.8,201.5 431,201.5 426.1,202 418.5,202 417.6,202 411.8,202 				"/>
				<polygon class="st76" points="401.8,241 405.5,243.7 410.8,239.8 417.6,244 419.6,242.5 426.1,244 429.5,240.3 430.2,201.5 
					426.1,202 417.6,202 409.6,202.3 				"/>
				<path class="st77" d="M418.5,202h7.6v42l-7.6-0.3V202z M410.1,202h7.5v42l-8.1-0.3L410.1,202z M402.3,201.5l7.2,0.7l-4,41.4
					c-2.6,0.5-5.2,0.4-7.7-0.5L402.3,201.5z"/>
				<path class="st78" d="M419.7,204l-0.1,2l5-0.1v-2.1L419.7,204z M411.4,204.4v2.2l4.9-0.2l-0.2-2.4L411.4,204.4z M403.7,204
					l-0.4,2.4l4.1,0.6l0.4-2.6L403.7,204z"/>
				<polygon class="st79" points="446.5,211.1 447.2,197.5 436,198.8 429.4,198.8 428.8,243.3 435.5,244.4 444,241.8 				"/>
				<polygon class="st8" points="460.9,209.7 445.1,209.4 444.3,207.5 446.3,206.8 445.9,205.9 448.3,205.3 447.9,204.9 
					452.7,203.9 452.8,203.3 457.2,202 460.1,202 				"/>
				<polygon class="st80" points="454.4,203.3 459.4,202 460.9,239.7 453.2,244.5 450.3,240 				"/>
				<polygon class="st30" points="289.3,94.3 289.2,56 280.5,53.6 254.8,54.2 254.4,95.4 				"/>
				<path class="st81" d="M246.6,95.6h7.9l0.4-41.4c-1.7-0.5-3.4-0.7-5.2-0.6c-1.4,0-2.7,0.3-4,0.8L246.6,95.6z"/>
				<path class="st14" d="M280.5,53.6l-7.7,0.2l0.6,41.5l-1.3-0.4l0.3-41.1l-8.3,0.3l0.9,41.1h-2.7l1.1-41l-8.7,0.1L254.5,97
					l25.8,0.1l0.5-1.3L280.5,53.6z M258.9,92c-0.5,0-0.9-0.4-0.9-0.9c0-0.5,0.4-0.9,0.9-0.9c0.5,0,0.9,0.4,0.9,0.9c0,0,0,0,0,0
					C259.7,91.6,259.4,92,258.9,92 M259.6,87.2h-1.5l0.1-26.3h1.6L259.6,87.2z M259,58.4c-0.5,0-0.9-0.4-0.9-0.9
					c0-0.5,0.4-0.9,0.9-0.9c0.5,0,0.9,0.4,0.9,0.9C259.9,58,259.5,58.4,259,58.4C259,58.4,259,58.4,259,58.4 M268.2,56.4
					c0.5,0,0.9,0.4,0.9,0.9c0,0.5-0.4,0.9-0.9,0.9c-0.5,0-0.9-0.4-0.9-0.9c0,0,0,0,0,0C267.3,56.8,267.7,56.4,268.2,56.4
					C268.2,56.4,268.2,56.4,268.2,56.4 M268.7,60.8l0.2,26.5h-1.3l-0.2-26.5H268.7z M268.3,91.9c-0.5,0-0.9-0.4-0.9-0.9
					s0.4-0.9,0.9-0.9c0.5,0,0.9,0.4,0.9,0.9c0,0,0,0,0,0C269.2,91.5,268.8,91.9,268.3,91.9 M276.6,56.2c0.5,0,0.9,0.4,0.9,0.9
					c0,0.5-0.4,0.9-0.9,0.9c-0.5,0-0.9-0.4-0.9-0.9c0,0,0,0,0,0C275.7,56.6,276.1,56.2,276.6,56.2 M275.6,60.6h1.4l0.7,26.4
					l-1.5,0.1L275.6,60.6z M277.2,91.5c-0.5,0-0.9-0.4-0.9-0.9c0-0.5,0.4-0.9,0.9-0.9c0.5,0,0.9,0.4,0.9,0.9c0,0,0,0,0,0
					C278.1,91.1,277.7,91.5,277.2,91.5C277.2,91.5,277.2,91.5,277.2,91.5"/>
				<path class="st31" d="M285.5,76.6c-0.8,1.5-1.2,3.1-1.2,4.8c0.3,1.7,0.8,3.3,1.6,4.9l53-1.3v-9.4L285.5,76.6z"/>
				<polygon class="st14" points="285,88.2 285,90.1 339.1,89.8 338.7,87.7 				"/>
				<path class="st8" d="M285,93.9v-3.9l54.1-0.3l-0.4,2.1L285,93.9z M285,85.5v2.7l53.7-0.5l0.1-2.7L285,85.5z"/>
				<polygon class="st82" points="433.6,79.8 433,86.2 441.6,86.4 441.8,79.7 				"/>
				<polygon class="st83" points="413.2,40.6 425.4,39.9 427.9,40.3 418.1,89.7 415.4,90.5 408.7,87.1 				"/>
				<path class="st70" d="M422.9,91c-0.3,0-5.8-0.6-5.8-0.6l10-51.8l10.9,0.8l-5.2,51L422.9,91z"/>
				<polygon class="st84" points="378.2,92.2 372.8,92.2 381.2,39.9 393.5,43 				"/>
				<polygon class="st30" points="385.7,42.1 401.9,43.1 402.1,41.8 413.6,42.9 404.7,90.8 376.7,92.1 				"/>
				<polygon class="st70" points="394.2,42.1 402,42.6 393.5,90.3 384.9,90.9 				"/>
				<polygon class="st85" points="373.8,40.5 360,38.5 351.6,40.2 350,42.1 347.9,90.6 356.1,92.1 360,92.5 360,91.8 364.1,92 				
					"/>
				<polygon class="st14" points="365.3,41.7 371.1,42.1 366.1,91.5 361,91.4 				"/>
				<polygon class="st8" points="365.3,41.7 361.2,41.7 358,91.5 347.5,91.5 349.3,38.1 339.6,38 337.5,92.9 347.4,92.6 347.4,92.5 
					361.3,91.9 				"/>
				<polygon class="st14" points="341.1,37.9 342.5,37.9 341.1,92.5 343,91.6 344.2,35.3 345.9,35.3 344.8,92.6 339.7,93.2 				"/>
				<path class="st31" d="M349.3,38.1l-1.8,54.5l10.1-1l2.4-53.2C356.5,37.9,352.9,37.8,349.3,38.1 M355.6,89.3l-6.9-0.1l-0.1-1.6
					l7,0.1L355.6,89.3z M353.2,66.5L353,79.4l-1.4-0.1l0.4-12.9L353.2,66.5z M352.5,60.9l0.4-9.4h1l-0.3,9.3L352.5,60.9z
					 M350.5,44.1v-1.5l7.6,0.2v1.3L350.5,44.1z"/>
				<path class="st86" d="M369.9,39.8L363.6,92l10.7-0.3l6.9-51.7C381.2,39.9,372.3,39.3,369.9,39.8"/>
				<polygon class="st30" points="419.1,90.1 428.6,41.9 436.8,42.5 429.4,88.8 				"/>
				<polygon class="st82" points="442.6,90.2 459.1,88.9 459.5,37.9 445.8,37.9 				"/>
				<polygon class="st87" points="430.3,89.8 444.1,89.5 447.3,36.6 434.4,36.7 				"/>
				<path class="st88" d="M413,38.4l-11,52.1h13.5l10-50.7C425.5,39.9,417.5,37.7,413,38.4 M421.3,46.9l-7.6-1.3l0.3-1.1l7.5,1.3
					L421.3,46.9z M414.1,42.9l0.4-0.9l8,0.8l-0.2,1.3L414.1,42.9z"/>
				<polygon class="st30" points="215.6,55.7 216.8,94.5 245.9,94.1 245.3,55.3 				"/>
				<path class="st8" d="M246,53.8l-30.6,0.3l0.8,42.5l30.4-0.6L246,53.8z M219.2,94h-1.6v-2.5h1.6V94z M217.7,85.7l-0.8-29.3h1.6
					l0.8,29.3H217.7z M219.8,56.4h1.6l0.4,29.3h-1.6L219.8,56.4z M222.2,94h-1.6v-2.5h1.6V94z M226.3,94h-1.6v-2.5h1.6V94z
					 M224.8,85.7l-0.6-29.3h1.6l0.6,29.3H224.8z M230.6,93.8h-1.6v-2.5h1.6V93.8z M229.1,85.7l-0.3-29.2h1.6l0.3,29.2H229.1z
					 M235.4,93.8h-1.6v-2.5h1.6V93.8z M235.4,85.7h-1.6V56.4h1.6V85.7z M240.6,93.8H239v-2.5h1.6V93.8z M240.6,85.7H239V56.4h1.6
					V85.7z M245.5,93.8h-1.6v-2.5h1.6V93.8z M243.9,85.7l-0.6-29.3h1.6l0.6,29.3L243.9,85.7z"/>
				<path class="st89" d="M242,97.8l-0.4-43.9h0.8l0.4,43.9H242z M237.3,97.8h-0.8V54.1h0.8V97.8z M232.4,97.8h-0.8V54.1h0.8V97.8z
					 M227.3,98.1l-0.8-44h0.8l0.8,44H227.3z"/>
				<polygon class="st82" points="461.4,204.4 456.8,206 453.2,244.5 443.9,244.2 443.8,243.7 440.9,243.6 444.3,207.5 447.6,207.6 
					447.9,204.9 449.6,205 449.3,207.5 451,207.4 451.1,204.9 452.6,205.1 452.4,207.6 453.9,207.5 454.1,205.4 458.8,203.9 				"/>
				<polygon class="st90" points="445.9,205.9 442.3,243.6 443.8,243.7 447.8,205.9 				"/>
				<polygon class="st90" points="449.4,206.2 451,206.2 447.4,244.3 445.6,244.3 				"/>
				<polygon class="st90" points="452.8,203.3 449,244.3 450.4,244.4 454.4,203.3 				"/>
				<polygon class="st8" points="428.8,198.3 436,198.8 447.2,197.5 440.4,197.5 				"/>
				<path class="st91" d="M428.8,198.3l-0.5,45.4l7.2,0.7l0.5-45.6L428.8,198.3z M431.7,242.3c-0.8,0-1.5-0.7-1.5-1.5
					c0-0.8,0.7-1.5,1.5-1.5s1.5,0.7,1.5,1.5c0,0,0,0,0,0C433.2,241.6,432.6,242.3,431.7,242.3C431.8,242.3,431.7,242.3,431.7,242.3
					 M432.3,203.8c-0.8,0-1.5-0.7-1.5-1.5c0-0.8,0.7-1.5,1.5-1.5s1.5,0.7,1.5,1.5l0,0C433.8,203.2,433.2,203.8,432.3,203.8"/>
				<path class="st14" d="M384.7,200.2l-0.2,43.1l7.4,0.1l0.6-43.2L384.7,200.2z M375.7,199.9l7.4,0.3l-0.6,43.3l-7.4-0.2
					L375.7,199.9z"/>
				<path class="st73" d="M297.1,239.6l4.5,0.4l0.1-1.2l-4.8-0.4L297.1,239.6z M299.5,195.7l5.2,0.5l-0.2,1.4l-5.2-0.4L299.5,195.7z
					"/>
				<path class="st92" d="M235,224.1h-1.4v-5.4h1.4V224.1z M232.3,224.1H227v-5.4h5.3V224.1z"/>
				<path class="st93" d="M262.8,203.3h5.4v0.9h-5.4V203.3z M262.8,199.8h5.4v0.9h-5.4V199.8z M262.8,201.5h5.4v0.9h-5.4V201.5z"/>
				<rect x="265.2" y="218.7" class="st92" width="1.4" height="5.4"/>
				<path class="st14" d="M271.9,207.2h-46.7v-1.1h46.7V207.2z M271.9,214.3h-47.4v-1h47.4V214.3z M271.9,212.7h-46.1v-1.5h46.1
					V212.7z M271.9,209.8h-48.4v-1.5h48.4V209.8z"/>
				<polygon class="st2" points="206.7,243.5 207,248.1 460.9,249.9 461.2,323.7 464.3,323.8 463.7,88.8 461.6,88.8 461.6,88.3 
					206.7,95.6 206.8,100.3 458.8,92.3 461.4,166.5 206.7,169.6 207,174 460.9,170.9 460.9,245 				"/>
				<path class="st3" d="M468.4,8.2l-274.3,14V326l274.9,7.2L468.4,8.2z M457.9,19.2l0.9,304.5L203.8,316V32.3L457.9,19.2z"/>
				<g>
					<defs>
						<rect id="SVGID_1_" x="239.6" y="210" width="253.4" height="192.3"/>
					</defs>
					<clipPath id="SVGID_00000085949934647203542880000003189227646921511817_">
						<use xlink:href="#SVGID_1_"  style="overflow:visible;"/>
					</clipPath>
					<g style="clip-path:url(#SVGID_00000085949934647203542880000003189227646921511817_);">
						<g>
							<defs>
								<rect id="SVGID_00000119829957777339894110000004802193156879095459_" x="239.6" y="210" width="253.4" height="192.3"/>
							</defs>
							<clipPath id="SVGID_00000132072067744266673560000009276772357500717229_">
								<use xlink:href="#SVGID_00000119829957777339894110000004802193156879095459_"  style="overflow:visible;"/>
							</clipPath>
							<g style="clip-path:url(#SVGID_00000132072067744266673560000009276772357500717229_);">
								
									<image style="overflow:visible;enable-background:new    ;" width="2048" height="1555" xlink:href="ECABC671.png"  transform="matrix(0.1199 0 0 0.1199 564.7248 105.7103)">
								</image>
							</g>
						</g>
					</g>
				</g>
				<rect x="210.2" y="49.7" class="st96" width="304.5" height="384.9"/>
			</g>
			<g>
				<path class="st31" d="M105.8,346.9c-2.2,1.6-4.5,3.4-6.4,5.5c-21.1,23.4-27.6,23.7-41.9,26.8c-22.9,4.9-53.5-11.1-53.5-11.1
					s35.8,6.1,53.2,0.7s30.7-31.3,30.7-31.3L105.8,346.9z"/>
				<path class="st97" d="M58.5,379.1c3.7-1,7.6-1.8,11.7-3.3c-3.6-2.2-7-4.8-10.3-7.6c-3.7,0.9-7.5,1.5-11.4,1.6
					C51.4,373.2,54.9,376.4,58.5,379.1"/>
				<path class="st32" d="M68.6,376.5c4.5-1.5,8.8-3.6,13-6.3c-4.8-2.4-9.3-5.2-13.8-8.2c-2.5,1.8-5.4,3.3-8.2,4.5
					c-1.2,0.4-2.4,0.7-3.6,1C60.1,370.8,64.3,373.8,68.6,376.5"/>
				<path class="st97" d="M76.4,351.2c-3.3,3.6-6.4,7.8-10.8,10.5c4.6,3.4,9.6,6.6,14.7,9.4c3.9-2.2,9.7-5.2,13.9-9.1
					C89.9,359.4,81.8,355.1,76.4,351.2"/>
				<path class="st32" d="M75.1,350.6c5.5,3.9,13.9,10.2,18.1,12.7c4.5-4.2,14.4-14.8,12.4-16.3c-4.6-2.8-15.1-6-20.5-10.2
					C82.3,341.6,78.8,346.3,75.1,350.6"/>
				<path class="st62" d="M47.4,207.6c0,0-8.5,0.4-9,0.6c-0.4,0.1,6.1,3,6.1,3L47.4,207.6z"/>
				<path class="st62" d="M52.2,202.6c0,0-7.9-2.8-8.4-2.8c-0.4,0,4.9,6,4.9,6L52.2,202.6z"/>
				<path class="st62" d="M59.5,196.2c0,0-5.7-4-6.1-4c-0.4,0,2.5,6,2.5,6L59.5,196.2z"/>
				<path class="st31" d="M92.3,227c0,0,1,11.4-1.3,11.2s-9.1-0.9-19-7.5c-6.1-4.2-11.7-9.3-16.3-15.3c0,0-2.8-0.4-6.1-1.2
					c-2.1-0.4-3.7-1.6-4.9-3.3c0.7-1.5,1.6-3,2.7-4.3c3.6-4.2,7.8-8.1,12.1-11.5c0,0,0.7,3,1,5.2c0.6,3,0.7,5.8,0.3,8.8
					c0,0,5.8,8.1,11.2,11.8S92.3,227,92.3,227"/>
				<path class="st62" d="M212.9,227.5c0,0,8.1,2.7,8.5,2.8c-2.2,0.4-4.5,0.9-6.7,1.2L212.9,227.5z"/>
				<path class="st62" d="M209.3,221.3c0,0,8.4-0.7,8.8-0.6s-6.3,4.6-6.3,4.6L209.3,221.3z"/>
				<path class="st62" d="M203.9,213.3c0,0,6.4-2.2,6.9-2.2s-4,5.1-4,5.1L203.9,213.3z"/>
				<path class="st31" d="M164.4,234.8c0,0-4,10.8-1.6,11.2s9,1.5,20.4-2.4c7.2-2.5,13.8-6.1,19.8-10.6c0,0,2.7,0.3,6.1,0.4
					c1.9,0.1,4-0.6,5.5-1.9c-0.1-1.8-0.6-3.4-1.3-4.9c-2.5-4.9-5.5-9.7-8.8-14.2c0,0-1.5,2.7-2.4,4.8c-1.2,2.7-2.1,5.5-2.4,8.5
					c0,0-7.6,6.3-13.9,8.5C179.3,236.5,164.4,234.8,164.4,234.8"/>
				<path class="st8" d="M168.4,213.7c0,0,5.4,4.8,2.1,9.1c-3.4,4-10.5-4.3-10.5-4.3s1,6-3.6,7.2c-4.6,1.2-8.1-6.6-8.1-6.6
					s0.6,6.4-5.1,7c-5.7,0.6-5.7-7.6-5.7-7.6s-2.4,4.9-6.7,5.5s-4.9-8.2-4.9-8.2s-3.1,6.7-9,4c-5.8-2.7-3.6-9-3.6-9
					s-5.1,5.7-10.6,1.3c-6.4-4.9,1.6-9.3,1.6-9.3s-11.2-1.6-10.6-5.2c0.6-3.6,8.1-3.7,8.1-3.7s10.8,15.4,29.8,18.7
					C143.8,214.6,156.1,214.9,168.4,213.7"/>
				<path class="st62" d="M160.8,369.8c0,0,7.8-2.1,8.2-2.2c0.4-0.1-6.4-1-6.4-1L160.8,369.8z"/>
				<path class="st62" d="M157.5,374.4c0,0,9.1,0.7,9.6,0.6s-7.2-4.2-7.2-4.2L157.5,374.4z"/>
				<path class="st62" d="M152.8,380.4c2.5,1,5.1,1.8,7.6,2.5c0.4-0.1-4.5-5.7-4.5-5.7L152.8,380.4z"/>
				<path class="st62" d="M108.6,376.2c0,0,9.4-1.3,9.7-1.5c0.3-0.1-7.2-2.1-7.2-2.1L108.6,376.2z"/>
				<path class="st62" d="M105.2,381c0,0,9.1,0.7,9.6,0.6s-7.2-4.2-7.2-4.2L105.2,381z"/>
				<path class="st62" d="M100.2,386.6c2.5,1,5.1,1.8,7.6,2.5c0.3-0.1-4.5-5.7-4.5-5.7L100.2,386.6z"/>
				<path class="st31" d="M98.9,203.8c-2.7,3.3-6,7-9.6,11.4c-24.6,29.1-27,66.5-27,66.5c18.3,3.6,37.1,3.1,55.3-1.3
					c25.3-6.6,52.7-23.4,52.7-23.4s1.2-20.7,1.8-31.5L98.9,203.8"/>
				<path class="st31" d="M140.7,343c0,0,0.4,26.2-0.3,32.1s13.6,5.7,13.6,5.7s7.5-10.9,9-14.2s-14.1,0.9-14.1,0.9V335"/>
				<path class="st31" d="M78.2,325.7c0,0,4.3,27.4,46.6,27.4c28.8,0,31.6-11.7,36.5-34.5L78.2,325.7z"/>
				<path class="st32" d="M107.4,190.3c0,0-23.1,5.4-39.2-1S49,175.5,46.3,171.2s14.7-9.4,31.6-10.6s28.5,11.7,28.5,11.7
					L107.4,190.3z"/>
				<path class="st32" d="M132.9,147.8c-4.9-4.2-9.6-8.7-13.8-13.5c-7.2-8.1-13.5-26.4-14.7-32.5c-1.2-6.1,18.7,2.8,31.8,13.8
					c13,10.9,8.4,24.6,8.8,26.1L132.9,147.8z"/>
				<path class="st31" d="M89.2,329.3c0,0,1.5,43.4,0.7,49.3c-0.7,5.8,10.3,9,10.3,9s9.3-10.8,10.8-14.2s-12.6-2.5-12.6-2.5v-40.9"
					/>
				<path class="st62" d="M106.2,177.9c0.1,0-6,4.6-13.2,4.5c-6.1-0.1-17.4-7.6-17.4-7.6s3.1-2.5,11.1-3S106.2,177.9,106.2,177.9"/>
				<path class="st62" d="M142.9,143.8c0,0-7.6-0.7-12.6-5.8c-4.3-4.3-7.3-17.5-7.3-17.5s4,0,10,5.4
					C139,131.2,142.9,143.8,142.9,143.8"/>
				<path class="st32" d="M196.9,159c47.6,16,88.8,11.5,75.3,22.3c-13.9,11.2-99,36.7-99,41.8c0,1.2,0,4.2,0,8.1
					c-9.1-0.1-18.9-0.1-18.9-0.1l-39.7-11.8l-17.4-13.6c5.4-7,8.2-12.7,7.2-19.6c-1.5-9.7,1.3-19.5,7.8-27
					c7.5-7.9,28.2-19.3,39.5-19.3S183.7,154.5,196.9,159"/>
				<path class="st8" d="M129.7,173.6c2.2-6.4,8.1-9.6,13.9-7.6c5.8,1.9,9.6,6.7,9.7,14.1c0.3,9.6-9.6,13.3-15.3,11.4
					C130.5,188.8,127.7,180.2,129.7,173.6"/>
				<path class="st64" d="M141.3,179.6v-0.1c0.3-1.2-0.3-2.4-1.5-2.7c-1.2-0.3-2.4,0.3-2.7,1.5s0.3,2.2,1.3,2.7
					C139.6,181.2,140.8,180.8,141.3,179.6"/>
				<path class="st8" d="M170.9,146c0-0.1,0-0.3,0-0.3c1.5-4.5,6.1-6.9,10.6-5.4c4.5,1.5,7.3,5.1,7.5,10.8
					c0.3,7.3-6.3,10.6-10.6,9.1C172.6,158.3,169.3,151.1,170.9,146"/>
				<g class="st98">
					<g>
						<g>
							<g>
								<defs>
									<rect id="SVGID_00000065072888379273861390000011787468135561484707_" x="170.6" y="139.4" width="18.9" height="16"/>
								</defs>
								<clipPath id="SVGID_00000084520718857074971060000004018952368383793077_">
									<use xlink:href="#SVGID_00000065072888379273861390000011787468135561484707_"  style="overflow:visible;"/>
								</clipPath>
								<g style="clip-path:url(#SVGID_00000084520718857074971060000004018952368383793077_);">
									<g>
										<g>
											<g>
												<defs>
													<rect id="SVGID_00000045619036958990113340000000335222588473504946_" x="170.6" y="139.4" width="18.9" height="16"/>
												</defs>
												<clipPath id="SVGID_00000153688436885401548730000012871538192075160246_">
													<use xlink:href="#SVGID_00000045619036958990113340000000335222588473504946_"  style="overflow:visible;"/>
												</clipPath>
												<g style="clip-path:url(#SVGID_00000153688436885401548730000012871538192075160246_);">
													<g>
														<g>
															<g>
																<defs>
																	
																		<rect id="SVGID_00000019651571372846582190000014349465422901690537_" x="170.6" y="139.4" width="18.9" height="16"/>
																</defs>
																<clipPath id="SVGID_00000136401298922417423630000013657126714518394498_">
																	<use xlink:href="#SVGID_00000019651571372846582190000014349465422901690537_"  style="overflow:visible;"/>
																</clipPath>
																<g style="clip-path:url(#SVGID_00000136401298922417423630000013657126714518394498_);">
																	<path class="st8" d="M170.9,146.2c0-0.1,0.1-0.3,0.1-0.4c1.5-4.5,6.1-6.9,10.6-5.4s7.3,5.1,7.5,10.8
																		c0,1.3-0.3,2.7-0.7,4"/>
																	<path class="st102" d="M170.9,146.2c0-0.1,0.1-0.3,0.1-0.4c1.5-4.5,6.1-6.9,10.6-5.4s7.3,5.1,7.5,10.8
																		c0,1.3-0.3,2.7-0.7,4"/>
																</g>
															</g>
														</g>
													</g>
												</g>
											</g>
										</g>
									</g>
								</g>
							</g>
						</g>
					</g>
				</g>
				<path class="st64" d="M181.4,152.3c0.3-0.9-0.1-1.8-1-2.1l0,0c-0.9-0.3-1.8,0.1-2.1,1c-0.3,0.9,0.1,1.8,1,2.1
					C180.2,153.6,181.1,153.2,181.4,152.3"/>
				<path class="st62" d="M259.9,171.6c-0.4,5.7-0.4,11.4,0.1,16.9c5.1-2.1,9.7-4.6,14.2-7.6C281,175.5,274.3,173.9,259.9,171.6"/>
				<path class="st103" d="M166.7,180.8c0,9.4-7.5,19.9-23.1,21.4c-15.9,1.5-39.4-21.4-39.4-21.4s19.3-20.8,38.5-22.8
					C156,156.6,166.7,168.2,166.7,180.8 M142.8,162.9c-8.1,0-22.2,12.1-28.3,18.1c3.6,4.6,18.1,15.3,27.4,15.3
					c10.5,0,19.9-6,19.9-15.7S153.3,162.9,142.8,162.9"/>
				<path class="st103" d="M181.6,168.9c-10.9,0.1-19.9-8.4-19.9-18.9c0-10,21.3-28.6,21.3-28.6s18.6,18.6,18.6,28.6
					C201.5,160.4,192.7,168.9,181.6,168.9 M182.2,128.9c-6.4,5.7-15.6,15.7-15.7,21.1c0,7.6,6.7,13.9,15,13.9s15-6.4,15-13.9
					S185.9,130.6,182.2,128.9"/>
				<path class="st103" d="M156.9,164.3c0.9-0.6,8.5-5.1,10.2-6l2.2,4.5c-1.2,0.7-7.5,4.5-9.9,5.8L156.9,164.3z"/>
				<path class="st32" d="M171.4,254.1c0,0-15.4,13.2-52.6,21.6c-27.1,6.1-56.9,3.3-56.9,3.3l1,19.3c0,0,29.4,2.5,49.1-1.3
					c42.2-8.5,60.2-23.1,60.2-23.1L171.4,254.1z"/>
				<path class="st97" d="M170.5,274.5c0,0-19,13.5-51.2,20.2c-17.7,3.4-35.8,4.6-53.9,3.4l2.2,12.6c0,0,25.2,3.4,45.4,0.9
					c41.2-5.2,58.1-22.5,58.1-22.5L170.5,274.5z"/>
				<path class="st32" d="M167.9,290.5c0,0-18.4,12.6-47,18.7c-24.6,5.2-51.2,1.8-51.2,1.8l3.6,9.7c0,0,22.2,3.1,42.1,1
					c36.8-3.7,52.7-16.2,52.7-16.2L167.9,290.5z"/>
				<path class="st97" d="M164.9,307.6c0,0-14.8,9.6-43.9,12.7c-15.3,1.6-30.7,1.8-46.1,0.4l3.3,7c11.8,2.2,23.8,3.4,35.9,3.4
					c37,0,48.8-9.7,48.8-9.7L164.9,307.6z"/>
				<path class="st8" d="M173.3,224.6c0,0,6,5.4,2.2,10c-3.7,4.6-11.5-4.6-11.5-4.6s1.2,6.7-3.9,7.9c-5.1,1.2-8.8-7.3-8.8-7.3
					s0.7,7.2-5.5,7.8c-6.3,0.6-6.3-8.5-6.3-8.5s-2.7,5.5-7.5,6.1c-4.8,0.6-5.4-9-5.4-9s-3.4,7.5-9.9,4.5c-6.4-3-3.9-9.9-3.9-9.9
					s-5.5,6.3-11.7,1.5c-7-5.5,1.8-10.3,1.8-10.3S90.5,211,91.1,207c0.6-4,8.5-4.6,8.5-4.6s12.1,17.5,33.1,21.1
					C146.2,225.5,159.9,226,173.3,224.6"/>
				<path class="st104" d="M169.3,196.6c0,0,0.3,10,5.4,10.3c5.2,0.3,5.8-9,5.8-9"/>
			</g>
		</g>
	</g>
</g>
</svg>
