<?xml version="1.0" encoding="utf-8"?>
<!-- Generator: Adobe Illustrator 26.2.1, SVG Export Plug-In . SVG Version: 6.00 Build 0)  -->
<svg version="1.1" id="Capa_1" xmlns="http://www.w3.org/2000/svg" xmlns:xlink="http://www.w3.org/1999/xlink" x="0px" y="0px"
	 viewBox="0 0 46.8 68.3" style="enable-background:new 0 0 46.8 68.3;" xml:space="preserve">
<style type="text/css">
	.st0{fill:#F8EBE6;}
	.st1{fill:#EFD6CC;}
</style>
<path class="st0" d="M46.8,41.4c0,14.8-10.5,26.9-23.4,26.9S0,56.3,0,41.4S10.5,0,23.4,0S46.8,26.6,46.8,41.4z"/>
<path class="st1" d="M24.3,63.3C13.1,63.3,4,52.5,4,39.3c0-7.4,2.9-18.2,7.4-26.2C6,21.2,2.4,33.5,2.4,41.8c0,13.3,9.1,24,20.4,24
	c7.3,0,13.7-4.5,17.3-11.3C36.3,59.9,30.7,63.3,24.3,63.3z"/>
</svg>
