<?xml version="1.0" encoding="utf-8"?>
<!-- Generator: Adobe Illustrator 26.2.1, SVG Export Plug-In . SVG Version: 6.00 Build 0)  -->
<svg version="1.1" id="Capa_1" xmlns="http://www.w3.org/2000/svg" xmlns:xlink="http://www.w3.org/1999/xlink" x="0px" y="0px"
	 viewBox="0 0 75.1 71.5" style="enable-background:new 0 0 75.1 71.5;" xml:space="preserve">
<style type="text/css">
	.st0{fill:none;stroke:#211915;stroke-width:0.7;stroke-linecap:round;}
	.st1{fill:none;stroke:#85B266;stroke-width:0.48;stroke-linecap:round;stroke-miterlimit:10;}
	.st2{fill:#DEA8C3;}
	.st3{fill:#FFFFFF;}
	.st4{fill:#F0DAE9;}
	.st5{fill:none;stroke:#D7D7CE;stroke-width:0.28;stroke-linecap:round;}
	.st6{fill:#211915;}
	.st7{fill:#6F4714;}
	.st8{fill:#945B19;}
	.st9{fill:#BF0811;}
	.st10{fill:#111419;}
	.st11{fill:none;stroke:#DEA8C3;stroke-width:0.5;stroke-linecap:round;}
</style>
<g>
	<path class="st0" d="M53.1,61.5c-1.1,0.8-2.4,1.2-3.7,1.2c-0.7-0.9-3.9-11-3.9-11"/>
	<path class="st0" d="M31.2,70.4c-1.2,0.1-2.5,0-3.6-0.4c-0.6-1,0.2-11.4,0.2-11.4"/>
	<path class="st0" d="M63.3,47.3c0,0-0.9,3-2,3.2s-10.6-6.4-10.6-6.4"/>
	<line class="st1" x1="54.8" y1="57.5" x2="68" y2="53.5"/>
	<path class="st2" d="M68.8,56.1c-0.3-0.7-0.4-2.2,0.3-2.6s1.7,0.4,2.1,1.1c0.8,1.2,1.1,3.1,0.3,3.3C70,58.4,69.1,57,68.8,56.1"/>
	<path class="st2" d="M69.2,51.3c0.3,0.4,0.5,0.8,0.7,1.2c0.9,0.1,1.9-0.1,2.7-0.4c3-1.4,1.1-3.1,1.1-3.1
		C71.7,47.7,69.2,51.3,69.2,51.3"/>
	<path class="st2" d="M69.3,53.4c0,0,1,0.5,1.3,0.7c1.7,1.3,3.5,1.5,4.1,0.7c1.4-1.8-1-2.5-1-2.5c-1.3-0.2-2.7-0.2-4,0.1L69.3,53.4z
		"/>
	<path class="st2" d="M69.5,51.4c-0.4-0.1-0.8,0-1.1,0.3l-0.5-0.8c-1.1-3.4,0.4-3.9,1.4-4C72.5,46.7,69.5,51.4,69.5,51.4"/>
	<path class="st2" d="M67.9,53.1c-0.6,0.1-4,2.9-1.6,4.3c2.1,1.3,3.1-3.5,3.1-3.5C68.7,54,68.1,53.6,67.9,53.1"/>
	<path class="st2" d="M68.3,51.4c-0.2,0-0.5,1-0.5,1c-1.2-0.5-2-0.7-2.6-1.1c-2.2-1.4-0.1-2.8,0.6-2.8
		C67.8,48.6,68.3,51.3,68.3,51.4"/>
	<path class="st2" d="M67.7,52.1c-0.1,0.1,0.3,1.1,0.3,1.1c-0.4,0.4-0.9,0.7-1.5,0.7c-2.1,0.5-2.6-1.1-2.4-1.6
		C64.7,51,67.7,52.1,67.7,52.1"/>
	<path class="st3" d="M67.6,52.5C67.6,52.5,67.6,52.5,67.6,52.5c0-0.9,0.6-1.6,1.4-1.6c0.1,0,0.1,0,0.2,0c0.9,0,1.6,0.8,1.6,1.7
		c0,0.8-0.6,1.5-1.4,1.5c-0.1,0-0.1,0-0.2,0C68.3,54.1,67.6,53.4,67.6,52.5"/>
	<path class="st4" d="M34.7,20.5c-0.5,0.5-18.9,12.6-21.8,14.4s-4.5,0.9-4.5,0.9c-3.2-3.4-2.1-3.7-1.9-7.3S1.7,25.8,0.3,22
		c-0.9-2.1,0-4.5,2.1-5.6c4.4-6.7,2.3-9.4-0.1-12S3.5,1,3.5,1c25.2-5.2,42.6,12.3,42.6,12.3L34.7,20.5z"/>
	<path class="st2" d="M36.7,19.2c-0.2,0.1-2.2,1.5-2.2,1.5L34.1,20c0.3-0.9,0.9-1.7,1.6-2.3L36.7,19.2"/>
	<path class="st3" d="M39,18c-0.5-0.1-2.3,1.2-2.3,1.2l-1.1-1.5c0.3-0.9,1-1.6,1.9-1.9L39,18"/>
	<path class="st2" d="M41.4,16.5c-0.9,0.4-1.7,0.9-2.5,1.4l-1.6-2.4c0.6-0.8,1.5-1.3,2.4-1.7L41.4,16.5"/>
	<path class="st3" d="M44.5,15.3c-0.6-0.1-3,1.2-3,1.2l-1.9-2.8c0.8-0.7,1.8-1.2,2.9-1.4L44.5,15.3"/>
	<path class="st2" d="M47.5,14.3c-1.1,0.2-2.2,0.6-3.2,1l-2-3c0.6-0.2,1.2-0.4,1.8-0.6C45.9,11.5,47.5,14.2,47.5,14.3"/>
	<path class="st3" d="M58.6,21.9C58.6,21.9,58.6,21.9,58.6,21.9c0-1.9,1.5-3.5,3.4-3.5c0,0,0.1,0,0.1,0c2,0,3.6,1.6,3.6,3.6
		c0,2-0.5,4-3.6,4C59.3,26.1,58.6,23.8,58.6,21.9"/>
	<path class="st5" d="M58.6,21.9C58.6,21.9,58.6,21.9,58.6,21.9c0-1.9,1.5-3.5,3.4-3.5c0,0,0.1,0,0.1,0c2,0,3.6,1.6,3.6,3.6
		c0,2-0.5,4-3.6,4C59.3,26.1,58.6,23.8,58.6,21.9"/>
	<path class="st6" d="M62.1,22.9c0,0,0-0.1,0-0.1c0-0.3,0.3-0.5,0.6-0.5s0.5,0.3,0.5,0.6c0,0,0,0.1,0,0.1c0,0.3-0.3,0.5-0.6,0.5
		S62,23.2,62.1,22.9"/>
	<line class="st1" x1="56.1" y1="58.6" x2="61.4" y2="49.8"/>
	<path class="st7" d="M41.4,59.3c0,0-8.4-3.7-13.7-9c-4.3-4.3-8.3-12.1-8.3-12.1S11.5,51.4,19.2,59C23.8,63.5,35.2,63.9,41.4,59.3"
		/>
	<path class="st8" d="M42.4,59.8c0,0,1.9-1.5,3-2.5c1.3-1.3,2.5-2.7,3.6-4.1c-5.7-2.8-10.9-6.5-15.6-10.8
		c-6.1-5.6-6.9-16.2-6.9-16.2S25,28.1,22,32.1c-1.2,1.7-2.1,3.6-2.8,5.5c0,0,2.8,7.3,7.1,11.8C34.2,57.6,42.4,59.8,42.4,59.8"/>
	<path class="st8" d="M54.9,45.2c3.8-5.2,6.3-13.7,6.3-13.7c3.3-16.1-7.6-17.4-7.6-17.4c-7.8-2.3-20.1,7.2-20.1,7.2
		C37.3,37.5,54.9,45.2,54.9,45.2"/>
	<path class="st7" d="M49.6,53.7c1.1-1.2,2.1-2.5,2.9-3.9c2-3,2.8-4.6,2.8-4.6c-5-2.4-9.5-5.6-13.5-9.5c-4.1-4-7-9-8.4-14.5
		c0,0,0-0.5-3.6,1.9c-1.3,0.9-2.6,1.9-3.8,2.9c0,0,0.4,10.2,7.9,16.9C44,52.1,49.6,53.7,49.6,53.7"/>
	<path class="st9" d="M65.5,49.5c-0.6,0-1.2-0.1-1.7-0.5c-0.2,0.4-0.5,0.7-0.8,1c-0.2,0.7,0.1,1.5,0.7,1.9c2,1.6,2.6,0.8,3.1,0.2
		C67.4,51.2,65.5,49.5,65.5,49.5"/>
	<path class="st9" d="M62,44.4C62,44.4,62,44.4,62,44.4c0-1,0.9-1.8,1.9-1.8c0.9,0,1.6,1.1,1.4,2.1c-0.2,1.9-1.7,3.1-2.5,3.1
		S61.9,45.6,62,44.4"/>
	<path class="st9" d="M63.5,47.3c0.2,0.6,0.3,1.2,0.3,1.8c0.7,0.4,1.6,0.6,2.4,0.5c2.6-0.3,2.2-2.2,1.6-2.9
		C66.6,45.2,63.5,47.3,63.5,47.3"/>
	<path class="st9" d="M62.3,47.3c-0.4,0.4-1,0.8-1,0.8c-1-0.2-2-0.9-2.6-1.7c-1-1.7-0.2-2.7,0.6-2.8C62.4,43,62.3,47.3,62.3,47.3"/>
	<path class="st9" d="M61.3,48c-0.2,0.3,0.5,1.3,0.5,1.3c-0.4,1.3-2,1.6-2,1.6c-3,0.3-2.9-1.9-2.2-2.4C58.6,47.5,60.1,47.3,61.3,48"
		/>
	<path class="st9" d="M61.7,49.6C62,50,63.1,50,63.1,50c1.1,3.4-1.1,4.2-2.1,3.8c-2.1-1,0.4-4.4,0.4-4.4"/>
	<path class="st2" d="M62.6,47c-0.9,0.1-1.7,0.9-1.7,1.8c0,0,0,0.1,0,0.1c0,0.8,0.8,1.5,1.6,1.4c0,0,0,0,0,0c0.9,0,1.7-0.6,1.7-1.6
		C64.2,47.8,63.5,47.1,62.6,47"/>
	<path class="st10" d="M49.4,29.3c0.1,3.8,2.8,4.7,2.8,4.7c4.2,0.5,4.6-3.9,4.6-3.9C53.6,31,49.4,29.3,49.4,29.3"/>
	<path class="st3" d="M45.7,21.4c0-0.1,0-0.1,0-0.2c0-2.2,1.8-4,4-4c1.8,0.1,3.3,2,3.3,4.1s-1.6,4.1-3.4,4c-0.2,0-0.3,0-0.5,0
		C47.1,25.2,45.6,23.4,45.7,21.4"/>
	<path class="st6" d="M47.9,21.5c0-0.1,0-0.1,0-0.2c0-0.4,0.4-0.6,0.7-0.6s0.6,0.4,0.6,0.7c0,0.1,0,0.1,0,0.2c0,0.4-0.4,0.6-0.7,0.6
		S47.8,21.8,47.9,21.5"/>
	<path class="st11" d="M11.8,8.1c5.2-0.9,13.5,0.1,17.9,2.5"/>
	<path class="st11" d="M14.2,20.3c4.5-2.4,9.5-3.6,14.6-3.7"/>
	<path class="st0" d="M23.3,71.1c-1.3,0.1-2.7-0.1-3.8-0.7c-0.6-1,2-12.7,2-12.7"/>
	<path class="st0" d="M47.7,68.3c0,0-3.5,1-4.3,0.1s-2.1-12-2.1-12"/>
	<path class="st0" d="M62.2,53.6c0,0-1.5,2.8-2.7,2.7s-9.1-8.5-9.1-8.5"/>
</g>
</svg>
