<?xml version="1.0" encoding="utf-8"?>
<!-- Generator: Adobe Illustrator 26.2.1, SVG Export Plug-In . SVG Version: 6.00 Build 0)  -->
<svg version="1.1" id="Capa_1" xmlns="http://www.w3.org/2000/svg" xmlns:xlink="http://www.w3.org/1999/xlink" x="0px" y="0px"
	 viewBox="0 0 114.2 73.4" style="enable-background:new 0 0 114.2 73.4;" xml:space="preserve">
<style type="text/css">
	.st0{fill:#3F7473;}
	.st1{fill:#C3C1B9;}
	.st2{clip-path:url(#SVGID_00000121261781413450587450000000014268575500381350_);}
	.st3{fill:none;stroke:#FFFFFF;stroke-width:0.5567;}
	.st4{fill:none;stroke:#211915;stroke-width:1.0137;stroke-linecap:round;}
	.st5{fill:#5B5B5F;}
	.st6{fill:#FFFFFF;}
	.st7{fill:none;stroke:#D7D7CE;stroke-width:0.3323;stroke-linecap:round;}
	.st8{fill:#211915;}
	.st9{fill:none;stroke:#D7D7CE;stroke-width:0.8724;stroke-linecap:round;}
	.st10{fill:#D7D7CE;}
	.st11{clip-path:url(#SVGID_00000171715762214385980170000006847289357416916371_);}
	.st12{fill:#111419;}
	.st13{fill:#61A0A2;}
</style>
<g>
	<path class="st0" d="M81.6,51.6c0.1,1-0.2,2-0.8,2.9c0.8,1.4,5.3,4.7,5.3,4.7s3.2-4.6,3.2-8.4C86.8,50.4,81.6,51.6,81.6,51.6"/>
	<path class="st1" d="M69.6,35.7c-3.1-4.5-12.5-17.4-27.8-27.4C26.7-1.5,14.2-3.3,19.3,6.8s27.6,21.7,38.6,28.5
		C62.4,38.1,71.9,39,69.6,35.7"/>
	<g>
		<defs>
			<path id="SVGID_1_" d="M19.3,6.8C24.4,17,46.8,28.5,57.9,35.3c4.6,2.8,14,3.7,11.7,0.3c-3.1-4.5-12.5-17.4-27.8-27.4
				C33.7,3,26.2,0,22,0C18.3,0,16.9,2.1,19.3,6.8"/>
		</defs>
		<clipPath id="SVGID_00000083791193318640439760000012320270806887477436_">
			<use xlink:href="#SVGID_1_"  style="overflow:visible;"/>
		</clipPath>
		<g style="clip-path:url(#SVGID_00000083791193318640439760000012320270806887477436_);">
			<path class="st3" d="M64.9,37.1c0,0-6.2-11.3-14.1-13.5c-4.6-1.3-9.4-1.5-14.1-0.6"/>
			<path class="st3" d="M42.2,12.4c0.1,1.7,0.3,3.4,0.7,5.1c0.5,1.7,1.1,3.4,2,5"/>
			<path class="st3" d="M54.1,25c0,0-0.8-5.2-0.3-8c0.2-1.4,0.6-2.7,1.3-4"/>
			<path class="st3" d="M61.6,32.1c0,0-5.7-1.7-7.9-1.1l-2.2,0.5"/>
			<path class="st3" d="M42.8,16.9c0,0-5.5-3.3-11.1-3.3c-2-0.1-4,0.2-5.9,0.9"/>
			<path class="st3" d="M53.9,16.6c-4.1-0.8-8-2.2-11.6-4.2C35.3,8.3,33,0.2,33,0.2"/>
			<path class="st3" d="M32,13.6c0,0-4-4.3-4.7-10c-0.4-4,0-4.1,0-4.1"/>
			<path class="st3" d="M59.5,29.7c0,0,2-4.6,3.5-5.8s1.2-0.6,1.2-0.6"/>
		</g>
	</g>
	<path class="st4" d="M46.1,60.8c1.5,3.9,2.7,7.9,3.6,12c0.1,0.3,4.2-0.8,3.9-0.8"/>
	<path class="st4" d="M60.4,57.6c2.9,8.3,2.6,6.6,3.3,9.8c0.1,0.3,4.2-0.8,3.9-0.8"/>
	<path class="st4" d="M74.1,53.8c5,7.2,4.6,6.8,6.2,9.6c0.1,0.2,3.8-1.9,3.6-1.8"/>
	<path class="st5" d="M40.7,44.8c7.5-6.5,26.5-10.5,26.5-10.5s8.5-9.3,15.2-9.4c6.7-0.1,14.6,5.6,18.3,11.7c2.1,3.5,0.8,6.1,0.8,8.1
		c0,3.6,9.7,11.3,11.9,13.7c2.2,2.5-0.4,4.2-2,2.8c-1.5-1.3-10.5-9.5-13.4-11.4c0,0-2.7,2.6-9.5,3c-3.7,0.2-7.9-1.6-7.9-1.6
		s-8.2,5.3-24.3,8.6s-21.6,4.2-23.3-0.3C31.4,55.1,35.6,49.2,40.7,44.8"/>
	<path class="st6" d="M92.5,32.9c3,0.2,5.5-2.1,5.6-5.1c0-0.5,0-1-0.1-1.5c-0.7-3.6-5.4-5.6-8.6-4.2C84.7,24.1,85.2,32.4,92.5,32.9"
		/>
	<path class="st6" d="M96.6,31.4c1.2-1.4,1.7-3.2,1.4-5c-0.7-3.6-5.4-5.6-8.6-4.2c-1.3,0.7-2.3,1.9-2.8,3.3"/>
	<path class="st7" d="M96.6,31.4c1.2-1.4,1.7-3.2,1.4-5c-0.7-3.6-5.4-5.6-8.6-4.2c-1.3,0.7-2.3,1.9-2.8,3.3"/>
	<path class="st6" d="M81.2,32.7c-2.6-1.4-5.8-0.6-7.5,1.9c-1.7,2.6-1.2,6,1.2,8c2.7,2,6.5,1.5,8.5-1.2c0.1-0.1,0.1-0.2,0.2-0.3
		C85.6,38.2,84.3,34.2,81.2,32.7"/>
	<path class="st8" d="M92.7,26.3c0,0.4,0.4,0.7,0.8,0.7c0.1,0,0.1,0,0.2,0c0.4-0.1,0.7-0.5,0.6-0.9c0,0,0,0,0-0.1
		c-0.1-0.5-0.5-0.8-0.9-0.7c0,0,0,0,0,0C92.9,25.4,92.6,25.9,92.7,26.3"/>
	<path class="st8" d="M79.5,37.7c0,0.5,0.5,0.8,0.9,0.7c0,0,0.1,0,0.1,0c0.5-0.1,0.8-0.6,0.7-1.1c-0.1-0.5-0.5-0.8-1-0.7
		c0,0,0,0-0.1,0C79.7,36.7,79.4,37.2,79.5,37.7"/>
	<path class="st9" d="M57.4,37.5c0.6,4.9,2.2,9.7,4.7,13.9c2.4,3.7,4.2,4.9,4.2,4.9"/>
	<path class="st9" d="M41.1,46.6c0,0,1.3,6.5,5.3,10c1.7,1.5,3.5,2.7,5.4,3.8"/>
	<path class="st9" d="M48.6,40.6c0.2,4.1,1.6,8,3.9,11.3c2.3,3.3,6.9,5.6,6.9,5.6"/>
	<path class="st10" d="M64.3,37.5c-5-2.4-18.4-10.2-38.1-13.3C8.4,21.5-6.5,28.1,3,34.4s39.1,7.1,52,7.6
		C60.3,42.2,67.9,39.3,64.3,37.5"/>
	<g>
		<defs>
			<path id="SVGID_00000045618800013266466120000003818206159517902527_" d="M3,34.4c9.5,6.3,39.1,7.1,52,7.6
				c5.4,0.2,13-2.7,9.3-4.5c-5-2.4-18.4-10.2-38.1-13.3c-2.7-0.4-5.5-0.7-8.3-0.7C4.2,23.6-5,29.1,3,34.4"/>
		</defs>
		<clipPath id="SVGID_00000036219569331709824640000014032795531963166592_">
			<use xlink:href="#SVGID_00000045618800013266466120000003818206159517902527_"  style="overflow:visible;"/>
		</clipPath>
		<g style="clip-path:url(#SVGID_00000036219569331709824640000014032795531963166592_);">
			<path class="st3" d="M62,40.1c0,0-10.9-6.8-19-4.8c-4.7,1.1-9,3.3-12.6,6.4"/>
			<path class="st3" d="M30,29.7c0.9,1.4,1.9,2.8,3.1,4.1c1.2,1.3,2.6,2.4,4.2,3.4"/>
			<path class="st3" d="M46.6,34.9c0,0-3.3-4.1-4.2-6.8c-0.5-1.3-0.8-2.7-0.8-4.1"/>
			<path class="st3" d="M56.6,37.4c0,0-5.8,1.4-7.5,2.9l-1.7,1.5"/>
			<path class="st3" d="M32.7,33.4c0,0-6.4-0.1-11.3,2.6c-1.8,0.9-3.4,2.2-4.6,3.7"/>
			<path class="st3" d="M42.2,27.5c-3.9,1.4-8,2.1-12.2,2.2c-8-0.2-14.8-7.2-14.8-7.2"/>
			<path class="st3" d="M21.7,35.8c0,0-5.6-1.7-9-6.4c-1.5-2.1-2.4-4.5-2.9-7"/>
			<path class="st3" d="M53.5,36.3c0,0-0.6-5,0.2-6.7c0.7-1.7,0.7-1.1,0.7-1.1"/>
		</g>
	</g>
	<path class="st12" d="M88.2,43.2c0,0,2.6,4.5,6.8,1.8c0,0-1,4.5-4.8,3.3C90.1,48.3,87.7,47.1,88.2,43.2"/>
	<path class="st0" d="M74.5,46.6c-1.8,2.8-2.5,6.2-2.1,9.5c2.3-0.4,4.6-1.2,6.7-2.2l0.4-2.7C79.5,51.2,76.7,47.5,74.5,46.6"/>
	<path class="st13" d="M82.1,53.3c-0.4,1-1.5,1.4-2.5,1c-1-0.4-1.4-1.5-1-2.5c0.3-0.9,1.2-1.5,2.2-1.2c0.1,0,0.2,0.1,0.3,0.1
		c1,0.3,1.5,1.4,1.2,2.3C82.2,53.2,82.2,53.2,82.1,53.3"/>
</g>
</svg>
