<?xml version="1.0" encoding="utf-8"?>
<!-- Generator: Adobe Illustrator 26.2.1, SVG Export Plug-In . SVG Version: 6.00 Build 0)  -->
<svg version="1.1" id="Capa_1" xmlns="http://www.w3.org/2000/svg" xmlns:xlink="http://www.w3.org/1999/xlink" x="0px" y="0px"
	 viewBox="0 0 202 181.5" style="enable-background:new 0 0 202 181.5;" xml:space="preserve">
<style type="text/css">
	.st0{fill:#FF8212;}
	.st1{fill:#EA6206;}
	.st2{fill:#FF971A;}
	.st3{fill:#EA7706;}
	.st4{fill:#FFB600;}
	.st5{fill:#F48021;}
	.st6{fill:#FFEA92;}
	.st7{opacity:0.51;fill:#FFA829;}
	.st8{fill:#FFC200;}
	.st9{opacity:0.56;fill:#FFD41F;}
	.st10{fill:#F49921;}
	.st11{opacity:0.57;}
	.st12{fill:#FFE66C;}
	.st13{fill:#FFAA00;}
	.st14{opacity:0.56;fill:#FFC200;}
	.st15{fill:#FFA20D;}
	.st16{opacity:0.51;fill:#F98F03;}
	.st17{opacity:0.49;fill:#FFEA92;}
	.st18{opacity:0.29;}
	.st19{opacity:0.44;fill:#FFEA92;}
	.st20{opacity:0.63;}
	.st21{opacity:0.25;fill:#FF8212;}
	.st22{opacity:0.42;fill:#FFEA92;}
	.st23{opacity:0.57;fill:#FFE66C;}
	.st24{fill:#FFA33E;}
	.st25{fill:#FFC612;}
</style>
<g>
	<path class="st0" d="M16.8,65.7l1.4,2.2c4.5,5.6,20.8,4,25.8-0.1c6.3-5.3,13.6-17,16.7-24.2C48.5,32.9,24.3,56.4,16.8,65.7z"/>
	<path class="st1" d="M49.8,41.7c-0.7,0.7-1.4,1.5-2.1,2.2c-1,1.6-2.2,3-3.4,4.4c-2.4,2.8-4.6,6-7.3,8.5c-5.1,4.8-11.1,7.1-17.9,6.5
		c-0.9,1-1.6,1.9-2.2,2.6l1.4,2.2c4.5,5.6,20.8,4,25.8-0.1c6.3-5.3,13.6-17,16.7-24.2c-3-2.6-6.6-3.2-10.6-2.4
		C50,41.5,49.9,41.6,49.8,41.7z"/>
	<path class="st2" d="M60.4,30.8C53.6,37.6,48.6,45.2,43.7,53l0.7,2.9c0.8-0.4,1.5-1,2.2-1.5c9.9,3.1,21.3-1.3,28.3-9.1
		c3.7-4.1,29-28.1,17-28.2C78.1,17,72.1,19.1,60.4,30.8z"/>
	<path class="st3" d="M89.1,17.1c0,0-0.1,0.1-0.1,0.1c-0.6,0.4-1.2,0.8-1.8,1.3c-6.3,4.7-11.1,11-16.5,16.7c-1.2,1.7-2.5,3.4-4,4.8
		c-3.6,3.4-7.8,4.5-12.3,4.6c-0.3,0.1-0.6,0.1-0.9,0.1c-1,0-1.9-0.1-2.8-0.2c-0.2,0-0.3,0-0.5-0.1c-0.3,0-0.5-0.1-0.8-0.1
		c-2,2.9-3.9,5.8-5.8,8.8l0.7,2.9c0.8-0.4,1.5-1,2.2-1.5c9.9,3.1,21.3-1.3,28.3-9.1c3.7-4.1,29-28.1,17-28.2
		C90.9,17.1,90,17.1,89.1,17.1z"/>
	<path class="st4" d="M86.2,23.4c-4,3.4-10.5,9.9-11.5,11.5l2.7,9.9c-3.6-9.9,0,0.8,0,1.3c2.6,0.5,5.1,2.9,7.3,4.3
		c4.2,2.8,8.9,5.7,13.4,7.9c3.7,1.8,4.4,1.3,7.2-1.6c0.2-0.2,0.5-0.5,0.7-0.7c0,0.8,0.1,1.6,0.2,2.4c1.1,5.7,3.3,9.5,7.4,13.9
		c8,8.8,19.7,17.3,31.3,20.7c2.7,0.8,5.3,1.9,7.8,2.7c-0.5,0.8-1.1,1.6-1.6,2.3c-6.2,9.1-5.4,17-1.1,26.5c2,4.4,3.2,14.6,9.3,12.5
		c4.7-1.6,13.8-12.2,17-15.9c4.6-5.4,8.8-11.4,12.6-17.3c4.5-7.2,4.6-14.5,3-22.7c-0.6-3.3-2.5-6.7-3-10c-0.3-1.9-0.7-10.8-0.4-12.8
		c1.4-7.3-3.8-14.9-7.3-17.1c-6.3-4-6-1.3-12.3-4.1c-7-3.2-6.6-10.9-13.1-14.4c-5.7-3-12.5-1.9-16.6-4.3c-4-3.1-8-7.3-11-8.4
		c-8.9-3.2-22.2-1.7-29.3,3.5C94.7,16.3,90.2,20.1,86.2,23.4z"/>
	<path class="st2" d="M103.8,32.4c-3.4-1.2-6.7-3.6-10.3-4.1c-3.9-0.6-8.2-0.5-12.1,0.3c-0.3,0.1-0.6,0.1-0.9,0.1
		c-2.7,2.7-5.2,5.3-5.8,6.2l0.8,2.9c9.9-0.8,19.6-1,27.1,6.7c2.3,2.4,4.2,4.9,6,7.7c0.1,0.1,0.2,0.2,0.4,0.3
		c4.2,3.6,9.9,3.4,14.8,5.1c5,1.8,8.2,4.6,11.2,8.9c1.2,1.7,2.3,3.7,4.1,4.8c2.8,1.7,6,2.3,9.1,3.3c4.6,1.5,9.5,3.8,11.7,8.5
		c2,4.2,0.7,8.9-0.4,13.2c-1.4,5.4,0.1,11.1,1.4,16.3c1.3,5.2,2.2,10.3,1.7,15.7c-0.3,2.7-0.9,5.3-1.7,7.9
		c4.9-3,12.6-11.8,15.4-15.1c4.6-5.4,8.8-11.4,12.6-17.3c3-4.8,4.1-9.6,4-14.8c-3.9,8.5-8,16.9-15.3,22.9c-1.2,1-2.9,1.5-4.4,0.6
		c-9-5.9-2.8-16.3,4.4-25c3.1-5.6,7.2-10.6,11.5-15.4c-0.1-0.4-0.2-0.7-0.2-1.1c-0.2-1.4-0.5-6.6-0.5-10c-3.9,3.8-8.3,7-13.3,9.3
		c-2.9,2-5.6,2.8-9.3,1.1c-4.2-1.9-8.1-4.8-12.5-6.2c-2.4-0.8-3.8-4.2-1.6-6c8.2-6.7,17-12.8,24.3-20.5c-1.9-0.4-3.3,0-7.2-1.8
		c-2.8-1.3-4.4-3.3-5.8-5.5c-4.1,6.8-9,13.3-15.2,17.9c-2.6,1.9-8.8,5.8-12.1,3.7c-0.8-0.5-1.2-1.3-1.7-2c-0.5-0.7-2-1.2-2.8-1.5
		c-2.5-1.2-5-2-7.7-2.4c-3.1-0.4-4.8-3.6-2.5-6.2c6.8-7.6,13.9-14.9,21.7-21.5c-1.3-0.3-2.5-0.6-3.5-1.2c-2.1-1.6-4.1-3.5-6-5.1
		c-0.9,1.4-1.9,2.8-2.8,4c-3.4,4.5-7.4,8.6-12,11.9C114.2,32,109.1,34.2,103.8,32.4z"/>
	<path class="st5" d="M101.6,32.4c-2.4-1.1-5.2-1.6-7.8-1.8c-5.2-0.3-10.4,0.4-15.6,0.5c0,0,0,0,0,0c-1.7,1.7-3,3.2-3.4,3.8l0.8,2.9
		c9.9-0.8,19.6-1,27.1,6.7c2.3,2.4,4.2,4.9,6,7.7c0.1,0.1,0.2,0.2,0.4,0.3c4.2,3.6,9.9,3.4,14.8,5.1c5,1.8,8.2,4.6,11.2,8.9
		c1.2,1.7,2.3,3.7,4.1,4.8c2.8,1.7,6,2.3,9.1,3.3c4.6,1.5,9.5,3.8,11.7,8.5c2,4.2,0.7,8.9-0.4,13.2c-1.4,5.4,0.1,11.1,1.4,16.3
		c1.3,5.2,2.2,10.3,1.7,15.7c-0.3,2.7-0.9,5.3-1.7,7.9c4.9-3,12.6-11.8,15.4-15.1c4.6-5.4,8.8-11.4,12.6-17.3
		c1.8-2.9,2.9-5.8,3.5-8.8c-2.1,4.6-4.6,8.9-7.7,12.8c-3.7,4.6-12.6,11-16.9,3.1c-3.9-7.3-0.9-16.5,3.4-22.9
		c4.7-6.9,10.8-12.7,17.7-17.3c-0.1-0.9-0.2-2.5-0.3-4.4c-2.9,3.1-6.1,5.8-9.6,7.6c-3.5,1.8-8.2,3.3-11.8,0.8
		c-2.1-1.5-3.8-3.3-5.2-5.3c-2.5-1.4-4.9-2.8-7.5-3.7c-0.5,0-1,0-1.5,0.1c-3.6,0.5-5.9-3.1-3.5-6c6.8-8.3,17.3-12.9,23.9-21.4
		c-1-0.2-2.3-0.5-4.1-1.3c-0.1,0.1-0.2,0.2-0.3,0.4c-2.6,3.4-5.6,6.5-8.9,9.3c-3.8,4.3-8.2,8.1-12.9,10.3c-4.1,1.9-8.4,2.4-12.1-0.9
		c-2.3-2-3.8-5-5.9-7.1c-3.2-1.3-7.2-0.8-10.6-1.7c-0.5-0.1-0.9-0.4-1.2-0.7c-1.9-1.2-2.8-3.6-0.7-5.4c8.4-7.1,15.3-15.8,24.2-22.4
		c-0.6-0.2-1.1-0.4-1.6-0.7c-0.7-0.6-1.5-1.2-2.2-1.8c-4,6.5-9.2,12.6-14.8,16.8c-4.5,3.4-11.1,6.2-16.4,2.8
		C104.4,35,103.2,33.2,101.6,32.4z"/>
	<path class="st6" d="M95.8,32.2c-5.2-0.9-17.1-0.8-21,2.3c-3.5,2.9-4,9.5-7,11.9c-3.8,3.1-11,0.1-15.4,0.6
		C42.8,47.9,36.6,64.4,36,64.5c-6.5,0-15.8-0.9-21.2,2.3c-4.3,2.6-7.5,8.9-9,16.2c-1.1,5.6,7.8,12.1,6.9,17.8
		c-1.1,6.9-8.8,10.2-7.3,17.9c0.8,4,5.2,13,8.1,15.9c5.5,5.4,12.4,0.1,19,2.5c5.7,2,7.2,10.5,11.2,14.4c4.4,4.3,14.3,3.9,20.1,4.1
		c1,3.1,3.5,4.7,5.3,7.2c2,2.7,3.2,5.4,6,7.7c4.3,3.4,17.4,2.8,21.2,0.1c1.9-1.3,4.2-5.2,5.4-7.2c2-3.2,2.9-5.9,7-7.3
		c6.3-2.2,15.8,2.3,21-3c4.5-4.6,3.9-13,12-14.4c7.4-1.3,12.9,1.7,19-2.4c4.9-3.4,8.3-11.9,8.1-17.7c-0.2-5.3-7-11.5-7.1-16.2
		c0-4.7,4.8-7,6.3-12.1c1.7-5.8-0.7-8.6-3.3-13.7c-2.5-5-4.3-7.7-10.3-8.6c-4.9-0.8-11.3-0.3-14.3-1.7c-3-1.4-8.7-13.6-12.3-15.4
		c-6.1-3.1-13.9,1.2-19.3-4.2C104.2,41.8,103.1,33.5,95.8,32.2z"/>
	<path class="st7" d="M101,163.1c-3.5,4.8-7.8,9.4-13.6,8.1c-2.6,0.3-5.3,0.3-7.6-0.3c-3-0.6-5.7-2.2-7-5c-2.7-2.9-4.6-6.8-6.9-9.7
		c-0.2-0.3-0.4-0.6-0.5-0.9c-0.5-0.4-1-0.9-1.5-1.3c-2.1-0.2-4.3-0.4-6.4-0.5c-3.2-0.2-7.4,0.4-10.3-1.3c-0.3-0.2-0.5-0.3-0.8-0.5
		c-3.9-2.1-6.6-6.4-8.2-10.8c-2-2.5-4.2-4.5-7.4-5.7c0,0,0,0,0,0c-1-0.1-2.1,0-3.1,0.1c-3.6,0.6-8.3,2-11.7,0
		c-4.8-2.8-8.1-9.4-9-15.2c-1.7-3.7,0.3-7.9,3.1-11.1c0.5-1.2,1.1-2.4,1.8-3.5c1.4-2.3,2.9-4.6,1.9-7.4c-1.7-4.6-5.3-8.2-6.4-13.2
		c-1.9-8.4,5-15.3,11.3-19.8c-1.5,0.4-2.8,0.9-4,1.6c-4.3,2.6-7.5,8.9-9,16.2c-1.1,5.6,7.8,12.1,6.9,17.8
		c-1.1,6.9-8.8,10.2-7.3,17.9c0.8,4,5.2,13,8.1,15.9c5.5,5.4,12.4,0.1,19,2.5c5.7,2,7.2,10.5,11.2,14.4c4.4,4.3,14.3,3.9,20.1,4.1
		c1,3.1,3.5,4.7,5.3,7.2c2,2.7,3.2,5.4,6,7.7c4.3,3.4,17.4,2.8,21.2,0.1c1.9-1.3,4.2-5.2,5.4-7.2c2-3.2,2.9-5.9,7-7.3
		c6.3-2.2,15.8,2.3,21-3c4.5-4.6,3.9-13,12-14.4c7.4-1.3,12.9,1.7,19-2.4c3.6-2.4,6.3-7.6,7.5-12.4c-2,4.9-4.8,10.4-9.9,12.3
		c-2.3,1.5-4.9,2.2-7.4,1.2c-0.7,0-1.3-0.1-2-0.3c0,0-0.1,0-0.1,0c-4.3,0-9.3,0.4-12.2,4c-2.8,3.4-4.2,8.2-7.9,10.8
		c-3.7,2.6-8.7,3.2-13.3,2.3c-2.5,0.1-5.1,0.3-7.2,1.5C104.9,157.5,103.1,160.1,101,163.1z"/>
	<path class="st8" d="M17.4,68.3C14,70.1,8.5,79,8.7,83c0.1,4,5.8,13.4,8.7,14.7c3,1.3,14.6,1.6,17.4,0c2.8-1.6,8.5-11.8,8.7-14.7
		c0.2-3-5.9-12.8-8.7-14.7C32,66.3,20.7,66.5,17.4,68.3z"/>
	<path class="st9" d="M27,74.5c3.2-1.5,7.3-2.3,11.3-2.2c-1.3-1.8-2.6-3.4-3.5-4c-2.8-1.9-14.1-1.8-17.4,0C14,70.1,8.5,79,8.7,83
		c0.1,3.8,5.3,12.6,8.3,14.5C14.7,88.9,18.6,78.3,27,74.5z"/>
	<path class="st4" d="M33.5,83.8c-6.1,4.1-14.4,5.5-20.9,1.1c-1.5-1-2.8-2.2-3.8-3.4c-0.1,0.6-0.2,1.1-0.2,1.5
		c0.1,4,5.8,13.4,8.7,14.7c3,1.3,14.6,1.6,17.4,0c2.8-1.6,8.5-11.8,8.7-14.7c0.1-1.6-1.5-5-3.5-8.2C39.2,78.4,36.9,81.5,33.5,83.8z"
		/>
	<path class="st7" d="M27.2,89.4c-4.4,0.4-9.3-0.2-11.5-4.4c-0.7-1.2-1.3-2.5-3-2.5c-0.7,0-1.6-0.1-1.8,0.7
		c-0.4,1.8,0.1,3.7,0.7,5.4c1.8,5.3,5.9,8.9,11.8,9c5.8,0.1,11.7-0.6,15-5.9c1.6-2.5,3-5.5,3.1-8.4c0.1-2.7-0.5-4.6-1.4-7
		c-0.3-0.3-0.8-0.5-1.3-0.6c-0.2,0-0.3,0.1-0.5,0.1c0.5,1.9,0.9,4.1,0.2,6C36.8,86.8,32.5,88.9,27.2,89.4z"/>
	<path class="st10" d="M35.2,91.5c-2.3,1.9-5.2,2.7-8.2,2.6c-2.1,0.4-4.3,0.3-6.5-0.4c-3.2-1.1-7.3-3.6-9-6.9
		c-0.1,0-0.3,0.1-0.4,0.1c-0.1,0-0.1,0-0.2,0.1c0.1,0.6,0.3,1.1,0.5,1.7c1.8,5.3,5.9,8.9,11.8,9c5.8,0.1,11.7-0.6,15-5.9
		c1.6-2.5,3-5.5,3.1-8.4c0.1-2.1-0.3-3.8-0.9-5.6c0,0-0.1,0-0.1,0c0,0-0.1,0-0.1-0.1c-0.1,0.1-0.1,0.1-0.2,0.2
		C40.5,82.6,39.2,88.7,35.2,91.5z"/>
	<g class="st11">
		<path class="st12" d="M17.7,69.9c-3,2-6.4,6.3-6.8,9.8c-0.6,3.7,3.5,0,4.3-1.4c2.2-3.4,6-6.1,10.1-6.7c2.3-0.3,4.2-0.2,6.4,0.8
			c1.6,0.7,4.1,2.7,6,2.4c-0.1-3.8-5.6-6-8.6-6.2C25.7,68.3,20.5,67.9,17.7,69.9z"/>
	</g>
	<path class="st6" d="M14.3,76.3c1.6,0.3,3.4-2.5,4.6-3.3c1-0.7,5-1.7,5.3-2.6c-1.2-0.5-2.2-0.6-3.5-0.2c-0.8,0.2-2.6,0.5-3.1,1.3
		l0.1-0.2C16.3,72.1,14,74.3,14.3,76.3z"/>
	<path class="st6" d="M31.7,69.7c-0.6-0.4-3.1-0.2-2.4,0.5c0.8,0.5,2.7,1,3.5,0.6C33,70.1,32.4,69.6,31.7,69.7z"/>
	<path class="st8" d="M48.6,51.6c-3.3,1.8-8.8,10.8-8.7,14.7c0.1,4,5.8,13.4,8.7,14.7c3,1.3,14.6,1.6,17.4,0
		c2.8-1.6,8.5-11.8,8.7-14.7c0.2-3-5.9-12.8-8.7-14.7C63.2,49.6,52,49.7,48.6,51.6z"/>
	<path class="st9" d="M58.3,57.7c3.2-1.5,7.3-2.3,11.3-2.2c-1.3-1.8-2.6-3.4-3.5-4c-2.8-2-14.1-1.8-17.4,0
		c-3.3,1.8-8.8,10.8-8.7,14.7c0.1,3.8,5.3,12.6,8.3,14.5C45.9,72.2,49.9,61.6,58.3,57.7z"/>
	<path class="st4" d="M64.8,67.1c-6.1,4.1-14.4,5.5-20.9,1.1c-1.5-1-2.8-2.2-3.8-3.4c-0.1,0.6-0.2,1.1-0.2,1.5
		c0.1,4,5.8,13.4,8.7,14.7c3,1.3,14.6,1.6,17.4,0c2.8-1.6,8.5-11.8,8.7-14.7c0.1-1.6-1.5-5-3.5-8.2C70.5,61.6,68.1,64.8,64.8,67.1z"
		/>
	<path class="st7" d="M58.5,72.7c-4.4,0.4-9.3-0.2-11.5-4.4c-0.7-1.2-1.3-2.5-3-2.5c-0.7,0-1.6-0.1-1.8,0.7
		c-0.4,1.8,0.1,3.7,0.7,5.4c1.8,5.3,5.9,8.9,11.8,9c5.8,0.1,11.7-0.6,15-5.9c1.6-2.5,3-5.5,3.1-8.4c0.1-2.7-0.5-4.6-1.4-7
		C71,59.2,70.6,59,70.1,59c-0.2,0-0.3,0.1-0.5,0.1c0.5,1.9,0.9,4.1,0.2,6C68,70.1,63.7,72.2,58.5,72.7z"/>
	<path class="st10" d="M66.5,74.8c-2.3,1.9-5.2,2.7-8.2,2.6c-2.1,0.4-4.3,0.3-6.5-0.4c-3.2-1.1-7.3-3.6-9-6.9
		c-0.1,0-0.3,0.1-0.4,0.1c-0.1,0-0.1,0-0.2,0.1c0.1,0.6,0.3,1.1,0.5,1.7c1.8,5.3,5.9,8.9,11.8,9c5.8,0.1,11.7-0.6,15-5.9
		c1.6-2.5,3-5.5,3.1-8.4c0.1-2.1-0.3-3.8-0.9-5.6c0,0-0.1,0-0.1,0c0,0-0.1,0-0.1-0.1c-0.1,0.1-0.1,0.1-0.2,0.2
		C71.7,65.9,70.4,71.9,66.5,74.8z"/>
	<g class="st11">
		<path class="st12" d="M48.9,53.1c-3,2-6.4,6.3-6.8,9.8c-0.6,3.7,3.5,0,4.3-1.4c2.2-3.4,6-6.1,10.1-6.7c2.3-0.3,4.2-0.2,6.4,0.8
			c1.6,0.7,4.1,2.7,6,2.4c-0.1-3.8-5.6-6-8.6-6.2C56.9,51.6,51.7,51.2,48.9,53.1z"/>
	</g>
	<path class="st6" d="M45.6,59.6c1.6,0.3,3.4-2.5,4.6-3.3c1-0.7,5-1.7,5.3-2.6c-1.2-0.5-2.2-0.6-3.5-0.2c-0.8,0.2-2.6,0.6-3.1,1.3
		l0.1-0.2C47.6,55.4,45.2,57.6,45.6,59.6z"/>
	<path class="st6" d="M63,53c-0.6-0.4-3.1-0.2-2.4,0.5c0.8,0.5,2.7,1,3.5,0.6C64.3,53.3,63.7,52.9,63,53z"/>
	<path class="st8" d="M78.7,70.4c-3.3,1.8-8.8,10.8-8.7,14.7c0.1,4,5.8,13.4,8.7,14.7c3,1.3,14.6,1.6,17.4,0
		c2.8-1.6,8.5-11.8,8.7-14.7c0.2-3-5.9-12.8-8.7-14.7C93.3,68.4,82,68.5,78.7,70.4z"/>
	<path class="st9" d="M88.3,76.5c3.2-1.5,7.3-2.3,11.3-2.2c-1.3-1.8-2.6-3.4-3.5-4c-2.8-1.9-14.1-1.8-17.4,0
		c-3.3,1.8-8.8,10.8-8.7,14.7c0.1,3.8,5.3,12.6,8.3,14.5C76,91,79.9,80.4,88.3,76.5z"/>
	<path class="st4" d="M94.8,85.9C88.7,90,80.3,91.3,73.9,87c-1.5-1-2.8-2.2-3.8-3.4c-0.1,0.6-0.2,1.1-0.2,1.5
		c0.1,4,5.8,13.4,8.7,14.7c3,1.3,14.6,1.6,17.4,0c2.8-1.6,8.5-11.8,8.7-14.7c0.1-1.6-1.5-5-3.5-8.2C100.5,80.4,98.1,83.6,94.8,85.9z
		"/>
	<path class="st7" d="M88.5,91.5c-4.4,0.4-9.3-0.2-11.5-4.4c-0.7-1.2-1.3-2.5-3-2.5c-0.7,0-1.6-0.1-1.8,0.7
		c-0.4,1.8,0.1,3.7,0.7,5.4c1.8,5.3,5.9,8.9,11.8,9c5.8,0.1,11.7-0.6,15-5.9c1.6-2.5,3-5.5,3.1-8.4c0.1-2.7-0.5-4.6-1.4-7
		c-0.3-0.3-0.8-0.5-1.3-0.6c-0.2,0-0.3,0.1-0.5,0.1c0.5,1.9,0.9,4.1,0.2,6C98.1,88.9,93.8,91,88.5,91.5z"/>
	<path class="st10" d="M96.5,93.6c-2.3,1.9-5.2,2.7-8.2,2.6c-2.1,0.4-4.3,0.3-6.5-0.4c-3.2-1.1-7.3-3.6-9-6.9
		c-0.1,0-0.3,0.1-0.4,0.1c-0.1,0-0.1,0-0.2,0.1c0.1,0.6,0.3,1.1,0.5,1.7c1.8,5.3,5.9,8.9,11.8,9c5.8,0.1,11.7-0.6,15-5.9
		c1.6-2.5,3-5.5,3.1-8.4c0.1-2.1-0.3-3.8-0.9-5.6c0,0-0.1,0-0.1,0c0,0-0.1,0-0.1-0.1c-0.1,0.1-0.1,0.1-0.2,0.2
		C101.8,84.7,100.5,90.7,96.5,93.6z"/>
	<g class="st11">
		<path class="st12" d="M79,71.9c-3,2-6.4,6.3-6.8,9.8c-0.6,3.7,3.5,0,4.3-1.4c2.2-3.4,6-6.1,10.1-6.7c2.3-0.3,4.2-0.2,6.4,0.8
			c1.6,0.7,4.1,2.7,6,2.4c-0.1-3.8-5.6-6-8.6-6.2C87,70.4,81.8,70,79,71.9z"/>
	</g>
	<path class="st6" d="M75.6,78.4c1.6,0.3,3.4-2.5,4.6-3.3c1-0.7,5-1.7,5.3-2.6c-1.2-0.5-2.2-0.6-3.5-0.2c-0.8,0.2-2.6,0.5-3.1,1.3
		l0.1-0.2C77.6,74.2,75.3,76.4,75.6,78.4z"/>
	<path class="st6" d="M93,71.8c-0.6-0.4-3.1-0.2-2.4,0.5c0.8,0.5,2.7,1,3.5,0.6C94.3,72.1,93.7,71.7,93,71.8z"/>
	<path class="st8" d="M100.3,137.1c0.1,4,5.8,13.4,8.7,14.7c3,1.3,14.6,1.6,17.4,0c2.8-1.6,8.5-11.8,8.7-14.7
		c0.2-3-5.9-12.8-8.7-14.7c-2.8-1.9-14.1-1.8-17.4,0C105.7,124.1,100.2,133.1,100.3,137.1z"/>
	<path class="st9" d="M100.3,137.1c0.1,3.8,5.3,12.6,8.3,14.5c-2.3-8.6,1.7-19.2,10.1-23.1c3.2-1.5,7.3-2.3,11.3-2.2
		c-1.3-1.8-2.6-3.4-3.5-4c-2.8-1.9-14.1-1.8-17.4,0C105.7,124.1,100.2,133.1,100.3,137.1z"/>
	<path class="st4" d="M100.5,135.6c-0.1,0.6-0.2,1.1-0.2,1.5c0.1,4,5.8,13.4,8.7,14.7c3,1.3,14.6,1.6,17.4,0
		c2.8-1.6,8.5-11.8,8.7-14.7c0.1-1.6-1.5-5-3.5-8.2c-0.8,3.5-3.1,6.7-6.5,9c-6.1,4.1-14.4,5.5-20.9,1.1
		C102.8,138,101.5,136.8,100.5,135.6z"/>
	<path class="st7" d="M104.4,136.6c-0.7,0-1.6-0.1-1.8,0.7c-0.4,1.8,0.1,3.7,0.7,5.4c1.8,5.3,5.9,8.9,11.8,9
		c5.8,0.1,11.7-0.6,15-5.9c1.6-2.5,3-5.5,3.1-8.4c0.1-2.7-0.5-4.6-1.4-7c-0.3-0.3-0.8-0.5-1.3-0.6c-0.2,0-0.3,0.1-0.5,0.1
		c0.5,1.9,0.9,4.1,0.2,6c-1.8,5-6.1,7.1-11.4,7.6c-4.4,0.4-9.3-0.2-11.5-4.4C106.8,137.8,106.1,136.5,104.4,136.6z"/>
	<path class="st10" d="M103.3,140.8c-0.1,0-0.3,0.1-0.4,0.1c-0.1,0-0.1,0-0.2,0.1c0.1,0.6,0.3,1.1,0.5,1.7c1.8,5.3,5.9,8.9,11.8,9
		c5.8,0.1,11.7-0.6,15-5.9c1.6-2.5,3-5.5,3.1-8.4c0.1-2.1-0.3-3.8-0.9-5.6c0,0-0.1,0-0.1,0c0,0-0.1,0-0.1-0.1
		c-0.1,0.1-0.1,0.1-0.2,0.2c0.3,4.8-1,10.9-4.9,13.8c-2.3,1.9-5.2,2.7-8.2,2.6c-2.1,0.4-4.3,0.3-6.5-0.4
		C109,146.6,105,144.1,103.3,140.8z"/>
	<g class="st11">
		<path class="st12" d="M102.5,133.8c-0.6,3.7,3.5,0,4.3-1.4c2.2-3.4,6-6.1,10.1-6.7c2.3-0.3,4.2-0.2,6.4,0.8c1.6,0.7,4.1,2.7,6,2.4
			c-0.1-3.8-5.6-6-8.6-6.2c-3.4-0.2-8.6-0.6-11.4,1.3C106.4,126,103,130.2,102.5,133.8z"/>
	</g>
	<path class="st6" d="M106,130.4c1.6,0.3,3.4-2.5,4.6-3.3c1-0.7,5-1.7,5.3-2.6c-1.2-0.5-2.2-0.6-3.5-0.2c-0.8,0.2-2.6,0.6-3.1,1.3
		l0.1-0.2C108,126.2,105.7,128.4,106,130.4z"/>
	<path class="st6" d="M124.5,124.9c0.2-0.7-0.4-1.2-1.1-1.1c-0.6-0.4-3.1-0.2-2.4,0.5C121.7,124.7,123.6,125.3,124.5,124.9z"/>
	<path class="st13" d="M47.5,86.4c-3.3,1.8-8.8,10.8-8.7,14.7c0.1,4,5.8,13.4,8.7,14.7c3,1.3,14.6,1.6,17.4,0
		c2.8-1.6,8.5-11.8,8.7-14.7c0.2-3-5.9-12.8-8.7-14.7C62.1,84.4,50.8,84.5,47.5,86.4z"/>
	<path class="st14" d="M57.1,92.5c3.2-1.5,7.3-2.3,11.3-2.2c-1.3-1.8-2.6-3.4-3.5-4c-2.8-1.9-14.1-1.8-17.4,0
		c-3.3,1.8-8.8,10.8-8.7,14.7c0.1,3.8,5.3,12.6,8.3,14.5C44.8,107,48.7,96.4,57.1,92.5z"/>
	<path class="st15" d="M63.6,101.9c-6.1,4.1-14.4,5.5-20.9,1.1c-1.5-1-2.8-2.2-3.8-3.4c-0.1,0.6-0.2,1.1-0.2,1.5
		c0.1,4,5.8,13.4,8.7,14.7c3,1.3,14.6,1.6,17.4,0c2.8-1.6,8.5-11.8,8.7-14.7c0.1-1.6-1.5-5-3.5-8.2C69.3,96.4,67,99.6,63.6,101.9z"
		/>
	<path class="st16" d="M57.3,107.5c-4.4,0.4-9.3-0.2-11.5-4.4c-0.7-1.2-1.3-2.5-3-2.5c-0.7,0-1.6-0.1-1.8,0.7
		c-0.4,1.8,0.1,3.7,0.7,5.4c1.8,5.3,5.9,8.9,11.8,9c5.8,0.1,11.7-0.6,15-5.9c1.6-2.5,3-5.5,3.1-8.4c0.1-2.7-0.5-4.6-1.4-7
		c-0.3-0.3-0.8-0.5-1.3-0.6c-0.2,0-0.3,0.1-0.5,0.1c0.5,1.9,0.9,4.1,0.2,6C66.9,104.9,62.6,107,57.3,107.5z"/>
	<path class="st0" d="M65.3,109.6c-2.3,1.9-5.2,2.7-8.2,2.6c-2.1,0.4-4.3,0.3-6.5-0.4c-3.2-1.1-7.3-3.6-9-6.9
		c-0.1,0-0.3,0.1-0.4,0.1c-0.1,0-0.1,0-0.2,0.1c0.1,0.6,0.3,1.1,0.5,1.7c1.8,5.3,5.9,8.9,11.8,9c5.8,0.1,11.7-0.6,15-5.9
		c1.6-2.5,3-5.5,3.1-8.4c0.1-2.1-0.3-3.8-0.9-5.6c0,0-0.1,0-0.1,0c0,0-0.1,0-0.1-0.1c-0.1,0.1-0.1,0.1-0.2,0.2
		C70.6,100.7,69.3,106.7,65.3,109.6z"/>
	<g class="st11">
		<path class="st12" d="M47.8,87.9c-3,2-6.4,6.3-6.8,9.8c-0.6,3.7,3.5,0,4.3-1.4c2.2-3.4,6-6.1,10.1-6.7c2.3-0.3,4.2-0.2,6.4,0.8
			c1.6,0.7,4.1,2.7,6,2.4c-0.1-3.8-5.6-6-8.6-6.2C55.8,86.4,50.6,86,47.8,87.9z"/>
	</g>
	<path class="st17" d="M44.4,94.4c1.6,0.3,3.4-2.5,4.6-3.3c1-0.7,5-1.7,5.3-2.6c-1.2-0.5-2.2-0.6-3.5-0.2c-0.8,0.2-2.6,0.5-3.1,1.3
		l0.1-0.2C46.4,90.2,44.1,92.4,44.4,94.4z"/>
	<path class="st6" d="M61.8,87.8c-0.6-0.4-3.1-0.2-2.4,0.5c0.8,0.5,2.7,1,3.5,0.6C63.1,88.1,62.5,87.7,61.8,87.8z"/>
	<path class="st6" d="M46,95.3l0.4-0.6C46.3,94.9,46.1,95.1,46,95.3z"/>
	<path class="st6" d="M47.9,100.1c3.1-2.1,0.7-7.7-1.5-5.4L46,95.3c0.1-0.2,0.3-0.4,0.4-0.6l0.2-0.2
		C43.3,94.8,43.1,103.4,47.9,100.1z"/>
	<path class="st6" d="M53.4,93.8c3-0.5,2.5-4.9-0.2-3.7l0.4-0.4C51.7,90.6,49.5,94.5,53.4,93.8z"/>
	<path class="st0" d="M64.3,102.6l-0.2-0.2c-2.2,3.4,1.3,5.7,3.7,2.4C69.9,101.8,65.8,99.1,64.3,102.6z"/>
	<path class="st0" d="M53.4,110.8c1.9,1.1,4.1,1,5.9-0.1c0.4-1.8-2.9-2.4-4.1-1.8h0.6C54,108.9,50.2,109,53.4,110.8z"/>
	<g class="st18">
		<path class="st12" d="M51.3,97.6c-2.9,3.5,1.4,5.1,4.5,4.9c6.6-0.6,8-8.6,0.6-7h0.4C55,95.7,52.4,95.9,51.3,97.6z"/>
	</g>
	<path class="st13" d="M16.9,103.2c-3.3,1.8-8.8,10.8-8.7,14.7c0.1,4,5.8,13.4,8.7,14.7c3,1.3,14.6,1.6,17.4,0
		c2.8-1.6,8.5-11.8,8.7-14.7c0.2-3-5.9-12.8-8.7-14.7C31.5,101.2,20.3,101.4,16.9,103.2z"/>
	<path class="st14" d="M26.6,109.3c3.2-1.5,7.3-2.3,11.3-2.2c-1.3-1.8-2.6-3.4-3.5-4c-2.8-1.9-14.1-1.8-17.4,0
		c-3.3,1.8-8.8,10.8-8.7,14.7c0.1,3.8,5.3,12.6,8.3,14.5C14.2,123.8,18.2,113.2,26.6,109.3z"/>
	<path class="st15" d="M33.1,118.7c-6.1,4.1-14.4,5.4-20.9,1.1c-1.5-1-2.8-2.2-3.8-3.4c-0.1,0.6-0.2,1.1-0.2,1.5
		c0.1,4,5.8,13.4,8.7,14.7c3,1.3,14.6,1.6,17.4,0c2.8-1.6,8.5-11.8,8.7-14.7c0.1-1.6-1.5-5-3.5-8.2
		C38.8,113.2,36.4,116.4,33.1,118.7z"/>
	<path class="st16" d="M26.8,124.3c-4.4,0.4-9.3-0.2-11.5-4.4c-0.7-1.2-1.3-2.5-3-2.5c-0.7,0-1.6-0.1-1.8,0.7
		c-0.4,1.8,0.1,3.7,0.7,5.4c1.8,5.3,5.9,8.9,11.8,9c5.8,0.1,11.7-0.6,15-5.9c1.6-2.5,3-5.5,3.1-8.4c0.1-2.7-0.5-4.6-1.4-7
		c-0.3-0.3-0.8-0.5-1.3-0.6c-0.2,0-0.3,0.1-0.5,0.1c0.5,1.9,0.9,4.1,0.2,6C36.4,121.7,32,123.8,26.8,124.3z"/>
	<path class="st0" d="M34.8,126.4c-2.3,1.9-5.2,2.7-8.2,2.6c-2.1,0.4-4.3,0.3-6.5-0.4c-3.2-1.1-7.3-3.6-9-6.9
		c-0.1,0-0.3,0.1-0.4,0.1c-0.1,0-0.1,0-0.2,0.1c0.1,0.6,0.3,1.1,0.5,1.7c1.8,5.3,5.9,8.9,11.8,9c5.8,0.1,11.7-0.6,15-5.9
		c1.6-2.5,3-5.5,3.1-8.4c0.1-2.1-0.3-3.8-0.9-5.6c0,0-0.1,0-0.1,0c0,0-0.1,0-0.1-0.1c-0.1,0.1-0.1,0.1-0.2,0.2
		C40,117.5,38.7,123.6,34.8,126.4z"/>
	<g class="st11">
		<path class="st12" d="M17.2,104.8c-3,2-6.4,6.3-6.8,9.8c-0.6,3.7,3.5,0,4.3-1.4c2.2-3.4,6-6.1,10.1-6.7c2.3-0.3,4.2-0.2,6.4,0.8
			c1.6,0.7,4.1,2.7,6,2.4c-0.1-3.8-5.6-6-8.6-6.2C25.2,103.2,20,102.8,17.2,104.8z"/>
	</g>
	<path class="st17" d="M13.9,111.2c1.6,0.3,3.4-2.5,4.6-3.3c1-0.7,5-1.7,5.3-2.6c-1.2-0.5-2.2-0.6-3.5-0.2c-0.8,0.2-2.6,0.5-3.1,1.3
		l0.1-0.2C15.9,107,13.6,109.2,13.9,111.2z"/>
	<path class="st6" d="M31.3,104.6c-0.6-0.4-3.1-0.2-2.4,0.5c0.8,0.5,2.7,1,3.5,0.6C32.6,104.9,32,104.5,31.3,104.6z"/>
	<path class="st6" d="M15.5,112.2l0.4-0.6C15.7,111.7,15.6,111.9,15.5,112.2z"/>
	<path class="st6" d="M17.4,116.9c3.1-2.1,0.7-7.7-1.5-5.4l-0.4,0.6c0.1-0.2,0.3-0.4,0.4-0.6l0.2-0.2
		C12.8,111.6,12.5,120.2,17.4,116.9z"/>
	<path class="st6" d="M22.8,110.6c3-0.5,2.5-4.9-0.2-3.7l0.4-0.4C21.2,107.4,19,111.3,22.8,110.6z"/>
	<path class="st0" d="M33.8,119.4l-0.2-0.2c-2.2,3.4,1.3,5.7,3.7,2.4C39.3,118.6,35.3,115.9,33.8,119.4z"/>
	<path class="st0" d="M22.9,127.7c1.9,1.1,4.1,1,5.9-0.1c0.4-1.8-2.9-2.4-4.1-1.8h0.6C23.5,125.8,19.6,125.8,22.9,127.7z"/>
	<g class="st18">
		<path class="st12" d="M20.8,114.4c-2.9,3.5,1.4,5.1,4.5,4.9c6.6-0.6,8-8.6,0.6-7h0.4C24.5,112.5,21.8,112.7,20.8,114.4z"/>
	</g>
	<path class="st13" d="M77.5,105.2c-3.3,1.8-8.8,10.8-8.7,14.7c0.1,4,5.8,13.4,8.7,14.7c3,1.3,14.6,1.6,17.4,0
		c2.8-1.6,8.5-11.8,8.7-14.7c0.2-3-5.9-12.8-8.7-14.7C92.1,103.3,80.8,103.4,77.5,105.2z"/>
	<path class="st14" d="M87.2,111.4c3.2-1.5,7.3-2.3,11.3-2.2c-1.3-1.8-2.6-3.4-3.5-4c-2.8-1.9-14.1-1.8-17.4,0
		c-3.3,1.8-8.8,10.8-8.7,14.7c0.1,3.8,5.3,12.6,8.3,14.5C74.8,125.9,78.8,115.3,87.2,111.4z"/>
	<path class="st15" d="M93.6,120.8c-6.1,4.1-14.4,5.5-20.9,1.1c-1.5-1-2.8-2.2-3.8-3.4c-0.1,0.6-0.2,1.1-0.2,1.5
		c0.1,4,5.8,13.4,8.7,14.7c3,1.3,14.6,1.6,17.4,0c2.8-1.6,8.5-11.8,8.7-14.7c0.1-1.6-1.5-5-3.5-8.2C99.3,115.3,97,118.5,93.6,120.8z
		"/>
	<path class="st16" d="M87.4,126.4c-4.4,0.4-9.3-0.2-11.5-4.4c-0.7-1.2-1.3-2.5-3-2.5c-0.7,0-1.6-0.1-1.8,0.7
		c-0.4,1.8,0.1,3.7,0.7,5.4c1.8,5.3,5.9,8.9,11.8,9c5.8,0.1,11.7-0.6,15-5.9c1.6-2.5,3-5.5,3.1-8.4c0.1-2.7-0.5-4.6-1.4-7
		c-0.3-0.3-0.8-0.5-1.3-0.6c-0.2,0-0.3,0.1-0.5,0.1c0.5,1.9,0.9,4.1,0.2,6C96.9,123.8,92.6,125.9,87.4,126.4z"/>
	<path class="st0" d="M95.4,128.5c-2.3,1.9-5.2,2.7-8.2,2.6c-2.1,0.4-4.3,0.3-6.5-0.4c-3.2-1.1-7.3-3.6-9-6.9
		c-0.1,0-0.3,0.1-0.4,0.1c-0.1,0-0.1,0-0.2,0.1c0.1,0.6,0.3,1.1,0.5,1.7c1.8,5.3,5.9,8.9,11.8,9c5.8,0.1,11.7-0.6,15-5.9
		c1.6-2.5,3-5.5,3.1-8.4c0.1-2.1-0.3-3.8-0.9-5.6c0,0-0.1,0-0.1,0c0,0-0.1,0-0.1-0.1c-0.1,0.1-0.1,0.1-0.2,0.2
		C100.6,119.5,99.3,125.6,95.4,128.5z"/>
	<g class="st11">
		<path class="st12" d="M77.8,106.8c-3,2-6.4,6.3-6.8,9.8c-0.6,3.7,3.5,0,4.3-1.4c2.2-3.4,6-6.1,10.1-6.7c2.3-0.3,4.2-0.2,6.4,0.8
			c1.6,0.7,4.1,2.7,6,2.4c-0.1-3.8-5.6-6-8.6-6.2C85.8,105.3,80.6,104.9,77.8,106.8z"/>
	</g>
	<path class="st17" d="M74.4,113.3c1.6,0.3,3.4-2.5,4.6-3.3c1-0.7,5-1.7,5.3-2.6c-1.2-0.5-2.2-0.6-3.5-0.2c-0.8,0.2-2.6,0.6-3.1,1.3
		l0.1-0.2C76.5,109.1,74.1,111.3,74.4,113.3z"/>
	<path class="st6" d="M91.8,106.7c-0.6-0.4-3.1-0.2-2.4,0.5c0.8,0.5,2.7,1,3.5,0.6C93.1,107,92.6,106.5,91.8,106.7z"/>
	<path class="st6" d="M76,114.2l0.4-0.6C76.3,113.8,76.2,114,76,114.2z"/>
	<path class="st6" d="M77.9,119c3.1-2.1,0.7-7.7-1.5-5.4l-0.4,0.6c0.1-0.2,0.3-0.4,0.4-0.6l0.2-0.2C73.4,113.7,73.1,122.3,77.9,119z
		"/>
	<path class="st6" d="M83.4,112.7c3-0.5,2.5-4.9-0.2-3.7l0.4-0.4C81.7,109.5,79.6,113.4,83.4,112.7z"/>
	<path class="st0" d="M94.3,121.4l-0.2-0.2c-2.2,3.4,1.3,5.7,3.7,2.4C99.9,120.7,95.9,117.9,94.3,121.4z"/>
	<path class="st0" d="M83.4,129.7c1.9,1.1,4.1,1,5.9-0.1c0.4-1.8-2.9-2.4-4.1-1.8h0.6C84.1,127.8,80.2,127.9,83.4,129.7z"/>
	<g class="st18">
		<path class="st12" d="M81.4,116.4c-2.9,3.5,1.4,5.1,4.5,4.9c6.6-0.6,8-8.6,0.6-7h0.4C85.1,114.6,82.4,114.8,81.4,116.4z"/>
	</g>
	<path class="st13" d="M77.2,139.3c-3.3,1.8-8.8,10.8-8.7,14.7c0.1,4,5.8,13.4,8.7,14.7c3,1.3,14.6,1.6,17.4,0
		c2.8-1.6,8.5-11.8,8.7-14.7c0.2-3-5.9-12.8-8.7-14.7C91.8,137.3,80.6,137.5,77.2,139.3z"/>
	<path class="st14" d="M86.9,145.4c3.2-1.5,7.3-2.3,11.3-2.2c-1.3-1.8-2.6-3.4-3.5-4c-2.8-1.9-14.1-1.8-17.4,0
		c-3.3,1.8-8.8,10.8-8.7,14.7c0.1,3.8,5.3,12.6,8.3,14.5C74.5,159.9,78.5,149.3,86.9,145.4z"/>
	<path class="st15" d="M93.4,154.8c-6.1,4.1-14.4,5.5-20.9,1.1c-1.5-1-2.8-2.2-3.8-3.4c-0.1,0.6-0.2,1.1-0.2,1.5
		c0.1,4,5.8,13.4,8.7,14.7c3,1.3,14.6,1.6,17.4,0c2.8-1.6,8.5-11.8,8.7-14.7c0.1-1.6-1.5-5-3.5-8.2
		C99.1,149.3,96.7,152.5,93.4,154.8z"/>
	<path class="st16" d="M87.1,160.4c-4.4,0.4-9.3-0.2-11.5-4.4c-0.7-1.2-1.3-2.5-3-2.5c-0.7,0-1.6-0.1-1.8,0.7
		c-0.4,1.8,0.1,3.7,0.7,5.4c1.8,5.3,5.9,8.9,11.8,9c5.8,0.1,11.7-0.6,15-5.9c1.6-2.5,3-5.5,3.1-8.4c0.1-2.7-0.5-4.6-1.4-7
		c-0.3-0.3-0.8-0.5-1.3-0.6c-0.2,0-0.3,0.1-0.5,0.1c0.5,1.9,0.9,4.1,0.2,6C96.7,157.8,92.3,159.9,87.1,160.4z"/>
	<path class="st0" d="M95.1,162.5c-2.3,1.9-5.2,2.7-8.2,2.6c-2.1,0.4-4.3,0.3-6.5-0.4c-3.2-1.1-7.3-3.6-9-6.9
		c-0.1,0-0.3,0.1-0.4,0.1c-0.1,0-0.1,0-0.2,0.1c0.1,0.6,0.3,1.1,0.5,1.7c1.8,5.3,5.9,8.9,11.8,9c5.8,0.1,11.7-0.6,15-5.9
		c1.6-2.5,3-5.5,3.1-8.4c0.1-2.1-0.3-3.8-0.9-5.6c0,0-0.1,0-0.1,0c0,0-0.1,0-0.1-0.1c-0.1,0.1-0.1,0.1-0.2,0.2
		C100.3,153.6,99,159.6,95.1,162.5z"/>
	<g class="st11">
		<path class="st12" d="M77.6,140.8c-3,2-6.4,6.3-6.8,9.8c-0.6,3.7,3.5,0,4.3-1.4c2.2-3.4,6-6.1,10.1-6.7c2.3-0.3,4.2-0.2,6.4,0.8
			c1.6,0.7,4.1,2.7,6,2.4c-0.1-3.8-5.6-6-8.6-6.2C85.6,139.3,80.3,138.9,77.6,140.8z"/>
	</g>
	<path class="st17" d="M74.2,147.3c1.6,0.3,3.4-2.5,4.6-3.3c1-0.7,5-1.7,5.3-2.6c-1.2-0.5-2.2-0.6-3.5-0.2c-0.8,0.2-2.6,0.5-3.1,1.3
		l0.1-0.2C76.2,143.1,73.9,145.3,74.2,147.3z"/>
	<path class="st6" d="M91.6,140.7c-0.6-0.4-3.1-0.2-2.4,0.5c0.8,0.5,2.7,1,3.5,0.6C92.9,141,92.3,140.6,91.6,140.7z"/>
	<path class="st6" d="M75.8,148.2l0.4-0.6C76.1,147.8,75.9,148,75.8,148.2z"/>
	<path class="st6" d="M77.7,153c3.1-2.1,0.7-7.7-1.5-5.4l-0.4,0.6c0.1-0.2,0.3-0.4,0.4-0.6l0.2-0.2C73.1,147.7,72.8,156.3,77.7,153z
		"/>
	<path class="st6" d="M83.1,146.7c3-0.5,2.5-4.9-0.2-3.7l0.4-0.4C81.5,143.5,79.3,147.4,83.1,146.7z"/>
	<path class="st0" d="M94.1,155.5l-0.2-0.2c-2.2,3.4,1.3,5.7,3.7,2.4C99.6,154.7,95.6,152,94.1,155.5z"/>
	<path class="st0" d="M83.2,163.7c1.9,1.1,4.1,1,5.9-0.1c0.4-1.8-2.9-2.4-4.1-1.8h0.6C83.8,161.8,79.9,161.9,83.2,163.7z"/>
	<g class="st18">
		<path class="st12" d="M81.1,150.5c-2.9,3.5,1.4,5.1,4.5,4.9c6.6-0.6,8-8.6,0.6-7h0.4C84.8,148.6,82.1,148.8,81.1,150.5z"/>
	</g>
	<path class="st13" d="M139.9,134.7c3,1.3,14.6,1.6,17.4,0c2.8-1.6,8.5-11.8,8.7-14.7c0.2-3-5.9-12.8-8.7-14.7
		c-2.8-1.9-14.1-1.8-17.4,0c-3.3,1.8-8.8,10.8-8.7,14.7C131.3,123.9,136.9,133.4,139.9,134.7z"/>
	<path class="st14" d="M139.5,134.5c-2.3-8.6,1.7-19.2,10.1-23.1c3.2-1.5,7.3-2.3,11.3-2.2c-1.3-1.8-2.6-3.4-3.5-4
		c-2.8-1.9-14.1-1.8-17.4,0c-3.3,1.8-8.8,10.8-8.7,14.7C131.3,123.8,136.4,132.5,139.5,134.5z"/>
	<path class="st15" d="M139.9,134.7c3,1.3,14.6,1.6,17.4,0c2.8-1.6,8.5-11.8,8.7-14.7c0.1-1.6-1.5-5-3.5-8.2c-0.8,3.5-3.1,6.7-6.5,9
		c-6.1,4.1-14.4,5.5-20.9,1.1c-1.5-1-2.8-2.2-3.8-3.4c-0.1,0.6-0.2,1.1-0.2,1.5C131.3,123.9,136.9,133.4,139.9,134.7z"/>
	<path class="st16" d="M145.9,134.5c5.8,0.1,11.7-0.6,15-5.9c1.6-2.5,3-5.5,3.1-8.4c0.1-2.7-0.5-4.6-1.4-7c-0.3-0.3-0.8-0.5-1.3-0.6
		c-0.2,0-0.3,0.1-0.5,0.1c0.5,1.9,0.9,4.1,0.2,6c-1.8,5-6.1,7.1-11.4,7.6c-4.4,0.4-9.3-0.2-11.5-4.4c-0.7-1.2-1.3-2.5-3-2.5
		c-0.7,0-1.6-0.1-1.8,0.7c-0.4,1.8,0.1,3.7,0.7,5.4C135.9,130.9,140,134.4,145.9,134.5z"/>
	<path class="st0" d="M145.8,134.5c5.8,0.1,11.7-0.6,15-5.9c1.6-2.5,3-5.5,3.1-8.4c0.1-2.1-0.3-3.8-0.9-5.6c0,0-0.1,0-0.1,0
		c0,0-0.1,0-0.1-0.1c-0.1,0.1-0.1,0.1-0.2,0.2c0.3,4.8-1,10.9-4.9,13.8c-2.3,1.9-5.2,2.7-8.2,2.6c-2.1,0.4-4.3,0.3-6.5-0.4
		c-3.2-1.1-7.3-3.6-9-6.9c-0.1,0-0.3,0.1-0.4,0.1c-0.1,0-0.1,0-0.2,0.1c0.1,0.6,0.3,1.1,0.5,1.7
		C135.9,130.9,139.9,134.4,145.8,134.5z"/>
	<g class="st11">
		<path class="st12" d="M137.7,115.2c2.2-3.4,6-6.1,10.1-6.7c2.3-0.3,4.2-0.2,6.4,0.8c1.6,0.7,4.1,2.7,6,2.4c-0.1-3.8-5.6-6-8.6-6.2
			c-3.4-0.2-8.6-0.6-11.4,1.3c-3,2-6.4,6.3-6.8,9.8C132.8,120.3,136.8,116.6,137.7,115.2z"/>
	</g>
	<path class="st17" d="M141.4,109.9c1-0.7,5-1.7,5.3-2.6c-1.2-0.5-2.2-0.6-3.5-0.2c-0.8,0.2-2.6,0.6-3.1,1.3l0.1-0.2
		c-1.4,1-3.7,3.2-3.4,5.1C138.4,113.6,140.2,110.8,141.4,109.9z"/>
	<path class="st6" d="M155.3,107.7c0.2-0.7-0.4-1.2-1.1-1.1c-0.6-0.4-3.1-0.2-2.4,0.5C152.5,107.6,154.4,108.2,155.3,107.7z"/>
	<path class="st6" d="M138.4,114.2l0.4-0.6C138.7,113.8,138.5,114,138.4,114.2z"/>
	<path class="st6" d="M140.3,119c3.1-2.1,0.7-7.7-1.5-5.4l-0.4,0.6c0.1-0.2,0.3-0.4,0.4-0.6l0.2-0.2
		C135.7,113.7,135.4,122.3,140.3,119z"/>
	<path class="st6" d="M145.8,112.7c3-0.5,2.5-4.9-0.2-3.7l0.4-0.4C144.1,109.5,141.9,113.4,145.8,112.7z"/>
	<path class="st0" d="M160.1,123.6c2.1-3-1.9-5.7-3.4-2.2l-0.2-0.2C154.3,124.7,157.8,126.9,160.1,123.6z"/>
	<path class="st0" d="M145.8,129.7c1.9,1.1,4.1,1,5.9-0.1c0.4-1.8-2.9-2.4-4.1-1.8h0.6C146.4,127.8,142.6,127.9,145.8,129.7z"/>
	<g class="st18">
		<path class="st12" d="M148.3,121.4c6.6-0.6,8-8.6,0.6-7h0.4c-1.9,0.2-4.5,0.4-5.6,2.1C140.8,119.9,145.2,121.6,148.3,121.4z"/>
	</g>
	<path class="st13" d="M46.7,121.2C43.4,123,37.9,132,38,136c0.1,4,5.8,13.4,8.7,14.7c3,1.3,14.6,1.6,17.4,0
		c2.8-1.6,8.5-11.8,8.7-14.7c0.2-3-5.9-12.8-8.7-14.7C61.3,119.3,50,119.4,46.7,121.2z"/>
	<path class="st14" d="M56.3,127.4c3.2-1.5,7.3-2.3,11.3-2.2c-1.3-1.8-2.6-3.4-3.5-4c-2.8-1.9-14.1-1.8-17.4,0
		C43.4,123,37.9,132,38,136c0.1,3.8,5.3,12.6,8.3,14.5C44,141.9,48,131.3,56.3,127.4z"/>
	<path class="st15" d="M62.8,136.8c-6.1,4.1-14.4,5.5-20.9,1.1c-1.5-1-2.8-2.2-3.8-3.4C38,135,38,135.5,38,136
		c0.1,4,5.8,13.4,8.7,14.7c3,1.3,14.6,1.6,17.4,0c2.8-1.6,8.5-11.8,8.7-14.7c0.1-1.6-1.5-5-3.5-8.2
		C68.5,131.3,66.2,134.5,62.8,136.8z"/>
	<path class="st16" d="M56.5,142.4c-4.4,0.4-9.3-0.2-11.5-4.4c-0.7-1.2-1.3-2.5-3-2.5c-0.7,0-1.6-0.1-1.8,0.7
		c-0.4,1.8,0.1,3.7,0.7,5.4c1.8,5.3,5.9,8.9,11.8,9c5.8,0.1,11.7-0.6,15-5.9c1.6-2.5,3-5.5,3.1-8.4c0.1-2.7-0.5-4.6-1.4-7
		c-0.3-0.3-0.8-0.5-1.3-0.6c-0.2,0-0.3,0.1-0.5,0.1c0.5,1.9,0.9,4.1,0.2,6C66.1,139.8,61.8,141.9,56.5,142.4z"/>
	<path class="st0" d="M64.6,144.5c-2.3,1.9-5.2,2.7-8.2,2.6c-2.1,0.4-4.3,0.3-6.5-0.4c-3.2-1.1-7.3-3.6-9-6.9
		c-0.1,0-0.3,0.1-0.4,0.1c-0.1,0-0.1,0-0.2,0.1c0.1,0.6,0.3,1.1,0.5,1.7c1.8,5.3,5.9,8.9,11.8,9c5.8,0.1,11.7-0.6,15-5.9
		c1.6-2.5,3-5.5,3.1-8.4c0.1-2.1-0.3-3.8-0.9-5.6c0,0-0.1,0-0.1,0c0,0-0.1,0-0.1-0.1c-0.1,0.1-0.1,0.1-0.2,0.2
		C69.8,135.5,68.5,141.6,64.6,144.5z"/>
	<g class="st11">
		<path class="st12" d="M47,122.8c-3,2-6.4,6.3-6.8,9.8c-0.6,3.7,3.5,0,4.3-1.4c2.2-3.4,6-6.1,10.1-6.7c2.3-0.3,4.2-0.2,6.4,0.8
			c1.6,0.7,4.1,2.7,6,2.4c-0.1-3.8-5.6-6-8.6-6.2C55,121.3,49.8,120.9,47,122.8z"/>
	</g>
	<path class="st17" d="M43.6,129.3c1.6,0.3,3.4-2.5,4.6-3.3c1-0.7,5-1.7,5.3-2.6c-1.2-0.5-2.2-0.6-3.5-0.2c-0.8,0.2-2.6,0.6-3.1,1.3
		l0.1-0.2C45.7,125.1,43.3,127.3,43.6,129.3z"/>
	<path class="st6" d="M61,122.7c-0.6-0.4-3.1-0.2-2.4,0.5c0.8,0.5,2.7,1,3.5,0.6C62.3,123,61.8,122.5,61,122.7z"/>
	<path class="st6" d="M45.2,130.2l0.4-0.6C45.5,129.8,45.4,130,45.2,130.2z"/>
	<path class="st6" d="M47.1,135c3.1-2.1,0.7-7.7-1.5-5.4l-0.4,0.6c0.1-0.2,0.3-0.4,0.4-0.6l0.2-0.2C42.6,129.7,42.3,138.3,47.1,135z
		"/>
	<path class="st6" d="M52.6,128.7c3-0.5,2.5-4.9-0.2-3.7l0.4-0.4C50.9,125.5,48.7,129.4,52.6,128.7z"/>
	<path class="st0" d="M63.5,137.4l-0.2-0.2c-2.2,3.4,1.3,5.7,3.7,2.4C69.1,136.7,65.1,133.9,63.5,137.4z"/>
	<path class="st0" d="M52.6,145.7c1.9,1.1,4.1,1,5.9-0.1c0.4-1.8-2.9-2.4-4.1-1.8h0.6C53.3,143.8,49.4,143.9,52.6,145.7z"/>
	<g class="st18">
		<path class="st12" d="M50.6,132.4c-2.9,3.5,1.4,5.1,4.5,4.9c6.6-0.6,8-8.6,0.6-7h0.4C54.3,130.6,51.6,130.8,50.6,132.4z"/>
	</g>
	<path class="st8" d="M100.5,103.3c0.1,4,5.8,13.4,8.7,14.7c3,1.3,14.6,1.6,17.4,0c2.8-1.6,8.5-11.8,8.7-14.7
		c0.2-3-5.9-12.8-8.7-14.7c-2.8-2-14.1-1.8-17.4,0C105.9,90.4,100.4,99.4,100.5,103.3z"/>
	<path class="st9" d="M100.5,103.3c0.1,3.8,5.3,12.6,8.3,14.5c-2.3-8.6,1.7-19.2,10.1-23.1c3.2-1.5,7.3-2.3,11.3-2.2
		c-1.3-1.8-2.6-3.4-3.5-4c-2.8-2-14.1-1.8-17.4,0C105.9,90.4,100.4,99.4,100.5,103.3z"/>
	<path class="st4" d="M100.7,101.8c-0.1,0.6-0.2,1.1-0.2,1.5c0.1,4,5.8,13.4,8.7,14.7c3,1.3,14.6,1.6,17.4,0
		c2.8-1.6,8.5-11.8,8.7-14.7c0.1-1.6-1.5-5-3.5-8.2c-0.8,3.5-3.1,6.7-6.5,9c-6.1,4.1-14.4,5.5-20.9,1.1
		C103,104.2,101.7,103.1,100.7,101.8z"/>
	<path class="st7" d="M104.5,102.8c-0.7,0-1.6-0.1-1.8,0.7c-0.4,1.8,0.1,3.7,0.7,5.4c1.8,5.3,5.9,8.9,11.8,9
		c5.8,0.1,11.7-0.6,15-5.9c1.6-2.5,3-5.5,3.1-8.4c0.1-2.7-0.5-4.6-1.4-7c-0.3-0.3-0.8-0.5-1.3-0.6c-0.2,0-0.3,0.1-0.5,0.1
		c0.5,1.9,0.9,4.1,0.2,6c-1.8,5-6.1,7.1-11.4,7.6c-4.4,0.4-9.3-0.2-11.5-4.4C106.9,104.1,106.2,102.8,104.5,102.8z"/>
	<path class="st10" d="M103.4,107c-0.1,0-0.3,0.1-0.4,0.1c-0.1,0-0.1,0-0.2,0.1c0.1,0.6,0.3,1.1,0.5,1.7c1.8,5.3,5.9,8.9,11.8,9
		c5.8,0.1,11.7-0.6,15-5.9c1.6-2.5,3-5.5,3.1-8.4c0.1-2.1-0.3-3.8-0.9-5.6c0,0-0.1,0-0.1,0c0,0-0.1,0-0.1-0.1
		c-0.1,0.1-0.1,0.1-0.2,0.2c0.3,4.8-1,10.9-4.9,13.8c-2.3,1.9-5.2,2.7-8.2,2.6c-2.1,0.4-4.3,0.3-6.5-0.4
		C109.2,112.9,105.1,110.4,103.4,107z"/>
	<g class="st11">
		<path class="st12" d="M102.7,100c-0.6,3.7,3.5,0,4.3-1.4c2.2-3.4,6-6.1,10.1-6.7c2.3-0.3,4.2-0.2,6.4,0.8c1.6,0.7,4.1,2.7,6,2.4
			c-0.1-3.8-5.6-6-8.6-6.2c-3.4-0.2-8.6-0.6-11.4,1.3C106.5,92.2,103.2,96.4,102.7,100z"/>
	</g>
	<path class="st6" d="M106.1,96.6c1.6,0.3,3.4-2.5,4.6-3.3c1-0.7,5-1.7,5.3-2.6c-1.2-0.5-2.2-0.6-3.5-0.2c-0.8,0.2-2.6,0.6-3.1,1.3
		l0.1-0.2C108.2,92.5,105.8,94.7,106.1,96.6z"/>
	<path class="st6" d="M124.6,91.1c0.2-0.7-0.4-1.2-1.1-1.1c-0.6-0.4-3.1-0.2-2.4,0.5C121.9,91,123.8,91.5,124.6,91.1z"/>
	<path class="st19" d="M107.3,99.6v-0.4c-1.1,1.8-0.1,4.6,2.5,4.3c0.5-1.2,3.2-4.8,2.6-6.1C111,94.5,107.6,97.6,107.3,99.6z"/>
	<path class="st19" d="M118.5,97.1c2.5,1.2,6.9-2.8,2.9-3.3C119,92.9,114.9,95.4,118.5,97.1z"/>
	<path class="st10" d="M125.1,110.7c2.5-0.5,4.9-3.1,4.9-5.7c-1.7-0.8-2.6,0.8-3.5,2.1l1.1-1.1c-1.1,1.1-2.2,2.5-2.9,4
		C124.6,110.1,125.1,110.7,125.1,110.7z"/>
	<path class="st8" d="M79.4,35.6c-3.3,1.8-8.8,10.8-8.7,14.7c0.1,4,5.8,13.4,8.7,14.7c3,1.3,14.6,1.6,17.4,0
		c2.8-1.6,8.5-11.8,8.7-14.7c0.2-3-5.9-12.8-8.7-14.7C94,33.6,82.7,33.7,79.4,35.6z"/>
	<path class="st9" d="M89,41.7c3.2-1.5,7.3-2.3,11.3-2.2c-1.3-1.8-2.6-3.4-3.5-4c-2.8-1.9-14.1-1.8-17.4,0
		c-3.3,1.8-8.8,10.8-8.7,14.7c0.1,3.8,5.3,12.6,8.3,14.5C76.7,56.2,80.7,45.6,89,41.7z"/>
	<path class="st4" d="M95.5,51.1c-6.1,4.1-14.4,5.5-20.9,1.1c-1.5-1-2.8-2.2-3.8-3.4c-0.1,0.6-0.2,1.1-0.2,1.5
		c0.1,4,5.8,13.4,8.7,14.7c3,1.3,14.6,1.6,17.4,0c2.8-1.6,8.5-11.8,8.7-14.7c0.1-1.6-1.5-5-3.5-8.2C101.2,45.6,98.9,48.8,95.5,51.1z
		"/>
	<path class="st7" d="M89.2,56.7c-4.4,0.4-9.3-0.2-11.5-4.4c-0.7-1.2-1.3-2.5-3-2.5c-0.7,0-1.6-0.1-1.8,0.7
		c-0.4,1.8,0.1,3.7,0.7,5.4c1.8,5.3,5.9,8.9,11.8,9c5.8,0.1,11.7-0.6,15-5.9c1.6-2.5,3-5.5,3.1-8.4c0.1-2.7-0.5-4.6-1.4-7
		c-0.3-0.3-0.8-0.5-1.3-0.6c-0.2,0-0.3,0.1-0.5,0.1c0.5,1.9,0.9,4.1,0.2,6C98.8,54.1,94.5,56.2,89.2,56.7z"/>
	<path class="st10" d="M97.3,58.8c-2.3,1.9-5.2,2.7-8.2,2.6c-2.1,0.4-4.3,0.3-6.5-0.4c-3.2-1.1-7.3-3.6-9-6.9
		c-0.1,0-0.3,0.1-0.4,0.1c-0.1,0-0.1,0-0.2,0.1c0.1,0.6,0.3,1.1,0.5,1.7c1.8,5.3,5.9,8.9,11.8,9c5.8,0.1,11.7-0.6,15-5.9
		c1.6-2.5,3-5.5,3.1-8.4c0.1-2.1-0.3-3.8-0.9-5.6c0,0-0.1,0-0.1,0c0,0-0.1,0-0.1-0.1c-0.1,0.1-0.1,0.1-0.2,0.2
		C102.5,49.9,101.2,55.9,97.3,58.8z"/>
	<g class="st11">
		<path class="st12" d="M79.7,37.1c-3,2-6.4,6.3-6.8,9.8c-0.6,3.7,3.5,0,4.3-1.4c2.2-3.4,6-6.1,10.1-6.7c2.3-0.3,4.2-0.2,6.4,0.8
			c1.6,0.7,4.1,2.7,6,2.4c-0.1-3.8-5.6-6-8.6-6.2C87.7,35.6,82.5,35.2,79.7,37.1z"/>
	</g>
	<path class="st6" d="M76.3,43.6c1.6,0.3,3.4-2.5,4.6-3.3c1-0.7,5-1.7,5.3-2.6c-1.2-0.5-2.2-0.6-3.5-0.2c-0.8,0.2-2.6,0.6-3.1,1.3
		l0.1-0.2C78.4,39.4,76,41.6,76.3,43.6z"/>
	<path class="st6" d="M93.7,37c-0.6-0.4-3.1-0.2-2.4,0.5c0.8,0.5,2.7,1,3.5,0.6C95,37.3,94.5,36.9,93.7,37z"/>
	<path class="st19" d="M80,50.5c0.6-1.2,3.2-4.8,2.6-6.1c-1.4-3-4.8,0.1-5.1,2.2v-0.4C76.5,48,77.5,50.8,80,50.5z"/>
	<path class="st19" d="M88.7,44.1c2.5,1.2,6.9-2.8,2.9-3.3C89.2,39.9,85.1,42.4,88.7,44.1z"/>
	<path class="st10" d="M95.3,57.7c2.5-0.5,4.9-3.1,4.9-5.7c-1.7-0.8-2.6,0.8-3.5,2.1l1.1-1.1c-1.1,1.1-2.2,2.5-2.9,4
		C94.8,57.1,95.3,57.7,95.3,57.7z"/>
	<path class="st8" d="M139.9,100.6c3,1.3,14.6,1.6,17.4,0c2.8-1.6,8.5-11.8,8.7-14.7c0.2-3-5.9-12.8-8.7-14.7
		c-2.8-2-14.1-1.8-17.4,0c-3.3,1.8-8.8,10.8-8.7,14.7C131.3,89.8,136.9,99.3,139.9,100.6z"/>
	<path class="st9" d="M139.5,100.4c-2.3-8.6,1.7-19.2,10.1-23.1c3.2-1.5,7.3-2.3,11.3-2.2c-1.3-1.8-2.6-3.4-3.5-4
		c-2.8-2-14.1-1.8-17.4,0c-3.3,1.8-8.8,10.8-8.7,14.7C131.3,89.7,136.4,98.4,139.5,100.4z"/>
	<path class="st4" d="M139.9,100.6c3,1.3,14.6,1.6,17.4,0c2.8-1.6,8.5-11.8,8.7-14.7c0.1-1.6-1.5-5-3.5-8.2c-0.8,3.5-3.1,6.7-6.5,9
		c-6.1,4.1-14.4,5.5-20.9,1.1c-1.5-1-2.8-2.2-3.8-3.4c-0.1,0.6-0.2,1.1-0.2,1.5C131.3,89.8,136.9,99.3,139.9,100.6z"/>
	<path class="st7" d="M145.9,100.4c5.8,0.1,11.7-0.6,15-5.9c1.6-2.5,3-5.5,3.1-8.4c0.1-2.7-0.5-4.6-1.4-7c-0.3-0.3-0.8-0.5-1.3-0.6
		c-0.2,0-0.3,0.1-0.5,0.1c0.5,1.9,0.9,4.1,0.2,6c-1.8,5-6.1,7.1-11.4,7.6c-4.4,0.4-9.3-0.2-11.5-4.4c-0.7-1.2-1.3-2.5-3-2.5
		c-0.7,0-1.6-0.1-1.8,0.7c-0.4,1.8,0.1,3.7,0.7,5.4C135.9,96.8,140,100.3,145.9,100.4z"/>
	<path class="st10" d="M145.8,100.4c5.8,0.1,11.7-0.6,15-5.9c1.6-2.5,3-5.5,3.1-8.4c0.1-2.1-0.3-3.8-0.9-5.6c0,0-0.1,0-0.1,0
		c0,0-0.1,0-0.1-0.1c-0.1,0.1-0.1,0.1-0.2,0.2c0.3,4.8-1,10.9-4.9,13.8c-2.3,1.9-5.2,2.7-8.2,2.6c-2.1,0.4-4.3,0.3-6.5-0.4
		c-3.2-1.1-7.3-3.6-9-6.9c-0.1,0-0.3,0.1-0.4,0.1c-0.1,0-0.1,0-0.2,0.1c0.1,0.6,0.3,1.1,0.5,1.7C135.9,96.8,139.9,100.3,145.8,100.4
		z"/>
	<g class="st11">
		<path class="st12" d="M137.7,81.1c2.2-3.4,6-6.1,10.1-6.7c2.3-0.3,4.2-0.2,6.4,0.8c1.6,0.7,4.1,2.7,6,2.4c-0.1-3.8-5.6-6-8.6-6.2
			c-3.4-0.2-8.6-0.6-11.4,1.3c-3,2-6.4,6.3-6.8,9.8C132.8,86.2,136.8,82.5,137.7,81.1z"/>
	</g>
	<path class="st6" d="M141.4,75.8c1-0.7,5-1.7,5.3-2.6c-1.2-0.5-2.2-0.6-3.5-0.2c-0.8,0.2-2.6,0.6-3.1,1.3l0.1-0.2
		c-1.4,1-3.7,3.2-3.4,5.1C138.4,79.5,140.2,76.7,141.4,75.8z"/>
	<path class="st6" d="M155.3,73.6c0.2-0.7-0.4-1.2-1.1-1.1c-0.6-0.4-3.1-0.2-2.4,0.5C152.5,73.5,154.4,74.1,155.3,73.6z"/>
	<path class="st19" d="M140.5,86.1c0.5-1.2,3.2-4.8,2.6-6.1c-1.4-3-4.8,0.1-5.1,2.2v-0.4C136.9,83.6,137.9,86.4,140.5,86.1z"/>
	<path class="st19" d="M149.2,79.6c2.5,1.2,6.9-2.8,2.9-3.3C149.6,75.4,145.6,77.9,149.2,79.6z"/>
	<path class="st10" d="M155.7,93.3c2.5-0.5,4.9-3.1,4.9-5.7c-1.7-0.8-2.6,0.8-3.5,2.1l1.1-1.1c-1.1,1.1-2.2,2.5-2.9,4
		C155.3,92.6,155.7,93.2,155.7,93.3z"/>
	<path class="st8" d="M100.5,67.8c0.1,4,5.8,13.4,8.7,14.7c3,1.3,14.6,1.6,17.4,0c2.8-1.6,8.5-11.8,8.7-14.7
		c0.2-3-5.9-12.8-8.7-14.7c-2.8-1.9-14.1-1.8-17.4,0C105.9,54.8,100.4,63.8,100.5,67.8z"/>
	<path class="st9" d="M100.5,67.8c0.1,3.8,5.3,12.6,8.3,14.5c-2.3-8.6,1.7-19.2,10.1-23.1c3.2-1.5,7.3-2.3,11.3-2.2
		c-1.3-1.8-2.6-3.4-3.5-4c-2.8-1.9-14.1-1.8-17.4,0C105.9,54.8,100.4,63.8,100.5,67.8z"/>
	<path class="st4" d="M100.7,66.3c-0.1,0.6-0.2,1.1-0.2,1.5c0.1,4,5.8,13.4,8.7,14.7c3,1.3,14.6,1.6,17.4,0
		c2.8-1.6,8.5-11.8,8.7-14.7c0.1-1.6-1.5-5-3.5-8.2c-0.8,3.5-3.1,6.7-6.5,9c-6.1,4.1-14.4,5.5-20.9,1.1
		C103,68.7,101.7,67.5,100.7,66.3z"/>
	<path class="st7" d="M104.5,67.3c-0.7,0-1.6-0.1-1.8,0.7c-0.4,1.8,0.1,3.7,0.7,5.4c1.8,5.3,5.9,8.9,11.8,9c5.8,0.1,11.7-0.6,15-5.9
		c1.6-2.5,3-5.5,3.1-8.4c0.1-2.7-0.5-4.6-1.4-7c-0.3-0.3-0.8-0.5-1.3-0.6c-0.2,0-0.3,0.1-0.5,0.1c0.5,1.9,0.9,4.1,0.2,6
		c-1.8,5-6.1,7.1-11.4,7.6c-4.4,0.4-9.3-0.2-11.5-4.4C106.9,68.5,106.2,67.3,104.5,67.3z"/>
	<path class="st10" d="M103.4,71.5c-0.1,0-0.3,0.1-0.4,0.1c-0.1,0-0.1,0-0.2,0.1c0.1,0.6,0.3,1.1,0.5,1.7c1.8,5.3,5.9,8.9,11.8,9
		c5.8,0.1,11.7-0.6,15-5.9c1.6-2.5,3-5.5,3.1-8.4c0.1-2.1-0.3-3.8-0.9-5.6c0,0-0.1,0-0.1,0c0,0-0.1,0-0.1-0.1
		c-0.1,0.1-0.1,0.1-0.2,0.2c0.3,4.8-1,10.9-4.9,13.8c-2.3,1.9-5.2,2.7-8.2,2.6c-2.1,0.4-4.3,0.3-6.5-0.4
		C109.2,77.3,105.1,74.8,103.4,71.5z"/>
	<g class="st11">
		<path class="st12" d="M102.7,64.5c-0.6,3.7,3.5,0,4.3-1.4c2.2-3.4,6-6.1,10.1-6.7c2.3-0.3,4.2-0.2,6.4,0.8c1.6,0.7,4.1,2.7,6,2.4
			c-0.1-3.8-5.6-6-8.6-6.2c-3.4-0.2-8.6-0.6-11.4,1.3C106.5,56.7,103.2,60.9,102.7,64.5z"/>
	</g>
	<path class="st6" d="M106.1,61.1c1.6,0.3,3.4-2.5,4.6-3.3c1-0.7,5-1.7,5.3-2.6c-1.2-0.5-2.2-0.6-3.5-0.2c-0.8,0.2-2.6,0.6-3.1,1.3
		l0.1-0.2C108.2,56.9,105.8,59.1,106.1,61.1z"/>
	<path class="st6" d="M124.6,55.6c0.2-0.7-0.4-1.2-1.1-1.1c-0.6-0.4-3.1-0.2-2.4,0.5C121.9,55.4,123.8,56,124.6,55.6z"/>
	<path class="st19" d="M107.3,64.1v-0.4c-1.1,1.8-0.1,4.6,2.5,4.3c0.5-1.2,3.2-4.8,2.6-6.1C111,58.9,107.6,62,107.3,64.1z"/>
	<path class="st19" d="M118.5,61.6c2.5,1.2,6.9-2.8,2.9-3.3C119,57.3,114.9,59.9,118.5,61.6z"/>
	<path class="st10" d="M125.1,75.2c2.5-0.5,4.9-3.2,4.9-5.7c-1.7-0.8-2.6,0.8-3.5,2.1l1.1-1.1c-1.1,1.1-2.2,2.5-2.9,4
		C124.6,74.6,125.1,75.2,125.1,75.2z"/>
	<g class="st20">
		<path class="st0" d="M106.7,141.2v-0.7C106.7,140.7,106.7,141,106.7,141.2z"/>
	</g>
	<g class="st20">
		<path class="st0" d="M129.9,131.3c-5.8,12.1-9.7,17.4-23.2,10.2C107.5,155.7,135.6,150.2,129.9,131.3z"/>
	</g>
	<g class="st20">
		<path class="st0" d="M106.7,141.5c0-0.1,0-0.2,0-0.2L106.7,141.5C106.7,141.5,106.7,141.5,106.7,141.5z"/>
	</g>
	<path class="st21" d="M109.1,133.7c-2.7,6.4,8.4,3.9,5.2-2.8c-2.3-0.7-5.3,1.9-6.2,4.3L109.1,133.7z"/>
	<path class="st21" d="M124.6,129.8c-0.6-1.3-1.3-1.3-2.5-1.5l1,0.5c-1.2-0.7-3.2-0.5-4.8,0.1c-0.1,0.6,0,1.2,0,1.8
		C120.5,130.9,123.1,131.2,124.6,129.8z"/>
	<path class="st22" d="M77.2,88.5c5.4,5.8,3.6-4.7,4.8-7c2.6-4.9,10.8,0.9,12.8-3.5c1.1-2.8-3.6-2.8-4.7-2.5l0.5,0.5
		C83.9,70.9,69.7,80.6,77.2,88.5z"/>
	<path class="st9" d="M133.8,47.7c5,0.5,8.8-6,11.6-9.3c1.8-2.1,3.4-4.2,5.7-5.8c2.4-1.7,5.5-2.5,5.4-6.1c-2.1-0.3-3.7,0.4-5.7,1
		c0.5-0.6,0.4-1.5,0.6-2.1c-1.9,0-3.6-0.1-5.4-0.4l-0.7-1.1c-5.1,3.8-10,8-14.3,12.7c-1.3,1.4-5.1,4.5-4.2,6.5
		C127.8,45.4,132.8,44.2,133.8,47.7z"/>
	<path class="st9" d="M106.7,13.5c-0.3-0.1-0.6-0.2-0.9-0.2c-0.2,0.1-0.4,0.1-0.6,0.2H106.7z"/>
	<path class="st9" d="M106.7,13.5h-1.4c0.2-0.1,0.4-0.1,0.6-0.2C101,13,90.3,21.6,87.7,24.9c1.4,0.7,6.5,1.9,7.8,1.5
		c2.5-0.6,5.2-4.9,7.6-6.4c4.4-2.6,12.8-3.9,15.4-8.3c-4.4-0.3-8.8,0.3-12.7,1.6C106.1,13.3,106.4,13.4,106.7,13.5z"/>
	<path class="st9" d="M186.4,50.6c0.1,0.1,0.2,0.3,0.2,0.4v-0.7C186.6,50.4,186.5,50.5,186.4,50.6z"/>
	<path class="st9" d="M158.9,63.2c1.6,0.1,5.6-3.7,6.8-4.8c3.7-3.3,8.4-10.1,14.1-9.7c2.2,0.2,4.9,3.8,6.6,1.8
		c-2.9-5.1-6.1-8.9-12-5.3c-5.3,3.3-9,8.5-13.6,12.6C159.5,59,154.3,62.8,158.9,63.2z"/>
	<path class="st9" d="M172.3,101c3.9-0.5,8.3-8.3,10.3-11.5c0.8-1.3,1.1-2.8,2-4c0.8-1,2.2-1.5,2.8-2.4c1.5-2.2,1.2-6.1-1.8-3.3h0.4
		C181.5,86.6,171.8,91.8,172.3,101z"/>
	<path class="st22" d="M141.4,32.3c3.7-3.1,7.2-4.6,7.5-8.7c-3.3-0.5-8.2,3-10.5,5.1l1.7-1.2c-3.4,3.3-10.3,7.9-11.3,12.3
		C132.6,40.5,138.8,34.5,141.4,32.3z"/>
	<path class="st23" d="M102.4,17c3.9,0.2,6.6-1,10-1.7c2.6-0.5,8,0.6,9.8-1.5c-1.1-1.5-2.8-2-4.7-1.8l0.7,0.4
		C115.2,11.3,102.1,12.5,102.4,17z"/>
	<path class="st23" d="M177.6,46l-1.7-0.1c-3.3,0.9-8.1,5.1-9.7,8.2c4,0.7,6.1-3.3,9-5.3C175.8,48.4,180.5,47.7,177.6,46z"/>
	<path class="st4" d="M54.5,41.9c3.6,1.7,11.7-9.5,14.6-11.9c2.4-2,5.2-3.9,7.8-5.6c2.2-1.4,5.8-2.7,7-5.3c-3.3-1.2-8.3,1.6-11.4,4
		L71,24.3c0.4-0.4,0.9-0.8,1.4-1.2l0.7-0.6C68.6,24.7,53.7,36.4,54.5,41.9z"/>
	<path class="st4" d="M71,24.3l1.4-1.2C71.9,23.5,71.4,23.9,71,24.3z"/>
	<path class="st24" d="M25.2,60.7c3.2-1.9,6.5-4.7,9.3-7.3c2.4-2.3,6.1-4.3,8.3-6.7c-2.5-0.3-5.8,2.3-7.9,3.5l0.4-0.7
		C32.3,52.4,26.3,56.4,25.2,60.7z"/>
	<path class="st13" d="M34.8,132.6c1-0.8,6-6.4,5.3-7.8c-1.5-2.1-2.9-4.3-5.4-3.9c-4.2,0.6-5.9,2.8-7,3.5c-1.3,0.8-1.4,2.2-2.3,3.3
		c-1.8,2.3-4.5,1.1-6.9,2.1c-2.7,1.2-2.5,3.6,0,4.6c2.7,1.1,3.4,2.3,3.3,5.4c-0.1,2.7-1.9,5.9-1.9,9.6c0,5.1,2.8,10.8,9.7,9.5
		c6.6-1.3,6.4-8.3,4.6-13.2C32.3,140.9,29.9,136.6,34.8,132.6z"/>
	<path class="st23" d="M27.7,124.4c-1,1.1-1.4,2.2-2.3,3.3c-1.8,2.3-4.5,1.1-6.9,2.1c-1.4,0.6-2,1.5-1.9,2.5
		c1.7-1.5,1.9-2.5,6.3-2.5c3,0,4.8-3.7,7.5-5c2.1-1,2.6-2.4,5.2-3.1c0.5-0.1,2.7,1.1,3.3,1.3c-1.4-1-1.5-2.1-4-2.1
		C30.9,120.9,29.4,122.5,27.7,124.4z"/>
	<path class="st0" d="M25.7,157.8c-0.7,0.2-1.4,0.3-2.1,0.2c1.5,1,3.4,1.4,5.9,0.9c6.6-1.3,6.4-8.3,4.6-13.2
		c-1.8-4.8-4.1-9,0.3-12.9c-0.2-0.1-0.5-0.1-0.7-0.2c-0.3,0.5-0.7,0.9-1.2,1.2c-5.3,3.4-2.1,8.7-1.2,13.4
		C32.3,152.2,30.6,156.3,25.7,157.8z"/>
	<path class="st25" d="M28.8,134.2c2.2-1.8,5.3-3.2,6.7-5.7c-0.8-1.4-2.5-2.4-4.3-1.8c-1.8,0.5-3.2,2.3-4.9,3.2
		c-1.4,0.7-3,1-4.6,0.9c-2.1,0-2.9,1.6,0,2.2c2.3,0.4,1.7,4.2,1.1,6.5c-1.3,4.7-4.3,12.9,1.8,15.5c1.8,0.8,4.6,0.3,3.7-2.4
		c-0.8-2.5-2.5-4.7-3-7.3C24.4,141.1,25.3,137,28.8,134.2z"/>
	<path class="st6" d="M21.6,130.9v0.2c-2.5-1-4,2.6-0.9,2.1c0.2,0,2.9-0.8,2.8-0.7C24.3,131.4,22.5,130.7,21.6,130.9z"/>
	<path class="st6" d="M24.5,152.1c0.8-2,0.1-5.9-0.1-8c-0.1-1.5,0.4-6.8-0.5-7.8c-0.3,0.3-0.4,0.8-0.3,1.3c0,2.9-0.7,4.9-1,7.6
		C22.4,147.1,22.2,151.5,24.5,152.1z"/>
	<path class="st6" d="M24.3,131.1c1,0.9,3-0.3,3.9-1c1.6-1.1,2.6-2.7,4-3.9c0.9-0.8,1.5-1.3,2.5-1.8c0.9-0.5,2-0.9,0.9-2
		c-1.2-1.1-4.5,1-5.5,2c-1.1,1-2.6,4.3-3.7,4.5l0.4-0.1C26.3,129.6,24.6,130,24.3,131.1z"/>
	<path class="st13" d="M65.1,149.5c-0.2-1.9-4-4.4-5.7-4.2c-2.4,0.3-2.6,2.2-4.6,3.3c-2.2,1.2-11.3-1.7-9.1,2.8
		c0.7,1.6,2.8,1.5,3.5,3.5c0.6,1.8-0.9,5.1,0.4,6.6c3.7,4.5,2.2-8.8,6.8-5.6c2.3,1.6,0.6,6.8,1.5,9.1c1.2,2.9,5.1,4.2,6.5,0.8
		c1.2-2.7,0-6.9-0.6-9.5c-0.3-1.3-0.4-1.6-0.2-3.1C63.8,151.6,65.1,151.6,65.1,149.5z"/>
	<path class="st0" d="M53.1,156.8C53.1,156.8,53.1,156.8,53.1,156.8c-0.5,1.4-1,2.7-2,3.7c-0.4,0.5-1,0.8-1.6,0.9c0,0,0,0.1,0,0.1
		c2.8,3.4,2.6-3.4,4.3-5.5c0,0-0.1,0-0.1,0c-0.1,0.1-0.3,0.2-0.4,0.4C53.4,156.5,53.2,156.7,53.1,156.8z"/>
	<path class="st0" d="M65.1,149.5c0-0.4-0.3-0.8-0.6-1.3c0.1,0.5,0.1,1.1-0.1,1.6c-0.7,2.3-2.4,3.6-2.3,6.2c0.1,2.1,0.8,4,1,6.1
		c0.3,2.5-0.8,4.5-2.8,5.4c1.5,0.6,3.1,0.2,4-1.8c1.2-2.7,0-6.9-0.6-9.5c-0.3-1.3-0.4-1.6-0.2-3.1C63.8,151.6,65.1,151.6,65.1,149.5
		z"/>
	<path class="st23" d="M59.4,145.3c-2.4,0.3-2.6,2.2-4.6,3.3c-2.1,1.2-10.5-1.5-9.3,2.3c0.7-0.6,1.5-1.1,2.5-1.3
		c2.1-0.6,4.2,0.1,6.4,0c1.8-0.1,2.7-2,4.4-2.5c2.6-0.8,4.8,0.2,6.3,1.9C64.2,147.2,60.9,145.1,59.4,145.3z"/>
	<path class="st25" d="M61.1,151.3c0.2-0.4,0.4-0.7,0.6-1.1c0.2-0.5,0.3-1.1,0.4-1.7c-0.1-0.3-0.1-0.6-0.1-0.9
		c-0.2-0.2-0.4-0.4-0.7-0.2c-1.5,0.6-2.8,1.8-4.2,2.6c-0.6,0.3-1.3,0.6-1.9,0.7l-0.1,0c0,0-0.1,0.1-0.2,0.1
		c-0.5,0.1-0.9,0.2-1.4,0.2c-1-0.1-2.1-0.4-2.8-0.5c-0.8-0.1-4.6-0.2-2.7,1.2c0.9,0.7,2.4,1.1,2.8,2.4c0.4,1.3-0.4,2.8-0.5,4.1
		c-0.1,1.4,0.5,2.9,1.3,0.9c0.5-1.3,0.4-2.7,0.4-4.1c0-1.3,0.8-2.4,2.3-2.4c0.2,0,0.3,0,0.5,0.1c1.3,0.6,2.3,1.5,3,2.9
		c0.9,1.9,0.6,3.7,0.4,5.6c-0.1,2.2,0.4,3.2,1.4,4.5c0.8-0.2,1.3-0.9,1.1-2.7c-0.2-2-0.6-3.9-0.6-5.9c0-1.5,0.2-2.9,0.5-4.1
		C60.7,152.2,60.9,151.7,61.1,151.3z"/>
	<path class="st6" d="M53.4,152c1.3,0.2,3.1,0,4.3-0.4c1.7-0.7,2.1-1.8,2-2.4c-0.2-0.8-1.1-0.2-2.1,0.5c-1,1.3-3.1,1.9-4.8,1.8
		c-2-0.1-4-1.1-4.1-0.3c-0.1,0.6,1,1.1,1.3,1.5c0.5,0.6,0.7,1.1,0.7,1.9c0,0.7-0.3,1.3-0.3,2c0,0.6,0.4,1.7,0.9,0.8
		c0.6-0.9,0-2.7-0.2-3.6C50.8,151.8,51.9,151.7,53.4,152z"/>
	<path class="st6" d="M58.9,159l0-0.5c0,1.3-1.3,4.5,0.2,5.4c1.1-1.3,0.7-3.6,0-5.1C58.9,158.8,58.9,159,58.9,159z"/>
</g>
</svg>
