<?xml version="1.0" encoding="utf-8"?>
<!-- Generator: Adobe Illustrator 26.2.1, SVG Export Plug-In . SVG Version: 6.00 Build 0)  -->
<svg version="1.1" id="Capa_1" xmlns="http://www.w3.org/2000/svg" xmlns:xlink="http://www.w3.org/1999/xlink" x="0px" y="0px"
	 viewBox="0 0 277.6 167.4" style="enable-background:new 0 0 277.6 167.4;" xml:space="preserve">
<style type="text/css">
	.st0{fill:none;stroke:#211915;stroke-linecap:round;}
	.st1{fill:#211915;}
	.st2{fill:#FFFFFF;}
	.st3{fill:#111419;}
	.st4{fill:none;stroke:#211915;stroke-width:1.06;stroke-linecap:round;stroke-linejoin:round;}
	.st5{fill:#E0D6B9;}
	.st6{fill:#6EAA6F;}
	.st7{fill:#BF0811;}
	.st8{clip-path:url(#SVGID_00000053504879781910033930000017555977706661424059_);}
	.st9{fill:none;stroke:#FFFFFF;stroke-width:2.04;}
	.st10{clip-path:url(#SVGID_00000013893397690206130130000016882441345266152850_);}
	.st11{fill:#D7D7CE;}
	.st12{fill:#DB9600;}
	.st13{fill:#727176;}
	.st14{fill:#6F4714;}
	.st15{fill:none;stroke:#211915;stroke-linecap:round;stroke-linejoin:round;}
	.st16{fill:none;stroke:#211915;stroke-width:0.73;stroke-linecap:round;}
	.st17{fill:#EECA1A;}
</style>
<g id="Capa_2_00000124126710804144451910000006620566618375566511_">
	<g id="Capa_1-2">
		<g>
			<path class="st0" d="M198.2,44.1c0.1,8.5,4.4,16.4,11.5,21.2c4.6,3,10,4.5,15.2,6.3s10.5,4.3,13.8,8.7s4.3,10.3,4.7,15.9
				s0.2,11.3,1.9,16.7s5.6,10.4,11.1,11.6c3.5,0.7,7.5-0.6,9.2-3.7s0-7.8-3.5-8.4"/>
			<path class="st1" d="M175.2,21.2c-2.3,2-2.4,5.5-0.4,7.7c2,2.3,5.5,2.4,7.7,0.4c2.2-2,2.4-5.5,0.4-7.7
				C180.9,19.4,177.4,19.2,175.2,21.2C175.2,21.2,175.2,21.2,175.2,21.2"/>
			<path class="st2" d="M187.8,28.4c-0.2,0.2-0.3,0.6-0.1,0.8c0,0,0,0,0,0c0.2,0.2,0.6,0.2,0.8,0c0.2-0.2,0.3-0.6,0-0.8
				S188,28.1,187.8,28.4L187.8,28.4"/>
			<path class="st2" d="M193.3,25.9c-0.3,0.3-0.4,0.7-0.1,1c0.3,0.3,0.7,0.4,1,0.1c0.3-0.3,0.4-0.7,0.1-1c0,0,0,0,0,0
				C194,25.6,193.6,25.6,193.3,25.9"/>
			<path class="st1" d="M194.8,15c-1.9,1.7-2.1,4.7-0.4,6.6c1.7,1.9,4.7,2.1,6.6,0.4c1.9-1.7,2.1-4.7,0.4-6.6
				C199.7,13.4,196.8,13.3,194.8,15C194.8,15,194.8,15,194.8,15"/>
			<path class="st3" d="M173,40.8c8.6,9.7,21.9,11.9,29.6,5.1s10.5-26.1-0.6-36.3c-9.6-8.7-22-4.1-29.7,2.8S164.4,31.1,173,40.8"/>
			<path class="st2" d="M174.7,28.9c2,2.3,5.5,2.5,7.7,0.4s2.5-5.5,0.4-7.7c-2-2.3-5.5-2.5-7.7-0.4c0,0,0,0,0,0
				C172.9,23.2,172.7,26.6,174.7,28.9"/>
			<path class="st2" d="M194.5,21.6c1.7,1.9,4.7,2.1,6.6,0.4c1.9-1.7,2.1-4.7,0.4-6.6c-1.7-1.9-4.7-2.1-6.6-0.4
				C192.9,16.7,192.7,19.6,194.5,21.6C194.5,21.6,194.5,21.6,194.5,21.6"/>
			<path class="st2" d="M201.2,36.7l-1-2.9c-0.3-0.9-1.3-1.3-2.1-1c0,0,0,0,0,0l-3.1,1.2l-5.2,1.9l-2.5,0.9c-1,0.4-1.5,1.4-1.1,2.4
				c0,0.1,0.1,0.1,0.1,0.2l0.9,1.7l0.6,1.2c0.5,1,1.6,1.5,2.7,1.3L193,43l5.1-1.2l2.1-0.5c1.2-0.3,1.9-1.4,1.7-2.6
				c0-0.1,0-0.2-0.1-0.2L201.2,36.7z"/>
			<polyline class="st4" points="201.2,36.7 201.2,36.7 196.6,38.1 191.5,39.7 187.2,41 			"/>
			<polyline class="st4" points="189.8,35.9 191.5,39.7 193.3,43.7 			"/>
			<polyline class="st4" points="194.9,34 196.6,38.1 198.2,42.8 			"/>
			<path class="st2" d="M187.7,29.2c0.2,0.2,0.6,0.2,0.8,0c0,0,0,0,0,0c0.2-0.2,0.3-0.6,0-0.8s-0.6-0.3-0.8,0
				C187.6,28.5,187.5,28.9,187.7,29.2C187.7,29.1,187.7,29.1,187.7,29.2"/>
			<path class="st2" d="M193.2,26.9c0.3,0.3,0.7,0.3,1,0c0.3-0.3,0.3-0.7,0-1c-0.3-0.3-0.7-0.3-1-0.1
				C192.9,26.1,192.9,26.6,193.2,26.9C193.2,26.9,193.2,26.9,193.2,26.9"/>
			<polygon class="st3" points="197.4,47.2 197.1,54.2 200.6,52.4 203.9,50.8 			"/>
		</g>
		<path class="st5" d="M89,86.9c1.4,0.4,0.4,2.1,0.2,2.4c-1.5,0.3-3.1,0.5-4.8,0.7C84.4,90,87.4,86.4,89,86.9"/>
		<path class="st5" d="M86.7,96.3l-6.5,1.4c-4.5,0.7-9.1,0.9-13.7,0.8l0,0l1.7-6.1l0,0c3.9,0.1,7.7-0.2,11.5-0.8l3-0.9
			C82.9,91.8,86.5,96.1,86.7,96.3"/>
		<path class="st3" d="M46.2,160.7c0,0.3,0,0.5-0.1,0.8c-0.4,1.6-1.8,2.7-3.5,2.8l-9.7,0.5c-1.2,0.1-2.2-0.8-2.3-2
			c0-0.3,0-0.6,0.2-1l4.1-11.1c2.7,2.2,8.3-0.2,8.6-0.3l-4.3,8l4-0.2c0.7-0.1,1.4,0.2,2,0.6C45.9,159.2,46.3,159.9,46.2,160.7"/>
		<path class="st6" d="M12.9,148.9c-0.5,0.1-1,0.1-1.5,0.1h-0.4c-1.7-0.2-3.3-0.9-4.5-2.1c-0.3-0.4-0.6-0.8-0.8-1.2
			c-0.5-1.2-0.7-3.1,1.3-5.6c3.3-4.2,9-17,9-17c9.7,2.3,19.6,3.2,29.5,2.7c-0.2,7.8,6.7,15.6-1.9,24.5l0,0c-0.3,0.1-5.9,2.5-8.6,0.3
			l1.6-5.4c-8.8-15.6-13.6-3-19.9,2.1C15.6,148.2,14.3,148.8,12.9,148.9"/>
		<path class="st3" d="M10.6,158.7c1.3,0.6,3.8,1.9,3.4,4.6c-0.3,2.2-3,2.6-5,2.6c-1.4,0-2.8-0.5-3.9-1.3c-1.8-1.3-3.4-2.9-4.6-4.8
			c-0.6-1-0.7-2.2-0.1-3.2l5.2-10.8l0,0c0.2,0.5,0.5,0.9,0.8,1.2c1.2,1.2,2.8,1.9,4.5,2.1h0.4c0.5,0,1,0,1.5-0.1
			c-0.4,0.7-2.9,5.5-3.2,8.1C9.5,157.7,9.9,158.4,10.6,158.7"/>
		<path class="st7" d="M68.8,91.6l-1.8,8.5l-12.5,0.7C54.7,98,55.2,93,55,90.5h2L68.8,91.6z"/>
		<g>
			<defs>
				<path id="SVGID_1_" d="M55,90.5c0.2,2.5-0.3,7.5-0.5,10.3l12.5-0.7l1.8-8.5L57,90.5H55z"/>
			</defs>
			<clipPath id="SVGID_00000078013108370847191490000011660218302035594119_">
				<use xlink:href="#SVGID_1_"  style="overflow:visible;"/>
			</clipPath>
			<g style="clip-path:url(#SVGID_00000078013108370847191490000011660218302035594119_);">
				<path class="st9" d="M62.9,102.4c1.7-5.1,2.9-10.4,3.6-15.7"/>
				<path class="st9" d="M57.9,102.5c1.7-5.1,2.9-10.4,3.6-15.7"/>
			</g>
		</g>
		<path class="st7" d="M30.6,128.5c5,0.9,13.3,0.1,16.5-1.3c0-0.2,0.1-0.4,0.1-0.6c0.9-5.5,2.3-10.4,5.3-20.4
			c0.8-2.7,5.1-13.5,5.2-14.7c-7.6,2.8-18.1,1.3-23.5-3.5c-4.9,0.5-9.6,1.8-14.2,3.6c-3.3,1.4-5.9,2.8-5.9,2.8l5,7.4
			c2.8-0.9,5-2,7.9-2.6L14.4,123C16.1,124.4,22.5,127.1,30.6,128.5"/>
		<g>
			<defs>
				<path id="SVGID_00000109719304627863936010000010011237432804701344_" d="M20,91.5c-3.3,1.4-5.9,2.8-5.9,2.8l5,7.4
					c2.8-0.9,5-2,7.9-2.6L14.4,123c1.6,1.4,8.1,4.1,16.2,5.5c5,0.9,13.3,0.1,16.5-1.3c0-0.2,0-0.4,0.1-0.6
					c0.9-5.5,2.3-10.4,5.3-20.4c0.8-2.7,5.1-13.5,5.2-14.7c-7.6,2.8-18.1,1.3-23.5-3.5C29.4,88.4,24.6,89.7,20,91.5"/>
			</defs>
			<clipPath id="SVGID_00000160154206988014794760000012912785101637502874_">
				<use xlink:href="#SVGID_00000109719304627863936010000010011237432804701344_"  style="overflow:visible;"/>
			</clipPath>
			<g style="clip-path:url(#SVGID_00000160154206988014794760000012912785101637502874_);">
				<path class="st9" d="M27.5,87.6c0,0,6.6,7.3,14.5,9c5.3,1.2,10.7,1.2,15.9,0.1"/>
				<path class="st9" d="M21.7,89.9c0,0,5.9,10.3,17.8,13c5.3,1.2,10.8,1.2,16.1,0"/>
				<path class="st9" d="M16.7,92.1c0,0,4.7,7.6,8.5,11.2c3.4,3,7.5,5,11.9,5.8c5.3,1.2,10.8,1.2,16.1,0"/>
				<path class="st9" d="M20.3,108.9c3,2.7,9.4,5.3,14.5,6.4c5.6,1.2,11.4,1.1,16.9-0.3"/>
				<path class="st9" d="M17.3,116.6c4.6,2.7,9.6,4.6,14.9,5.4c5.6,0.8,11.3,0.7,16.9-0.3"/>
			</g>
		</g>
		<path class="st5" d="M18.1,119.4l0.5,3.3c0.3,1.2-1.3,2-1.7,1.2c-0.9-1.3-1.6-2.8-1.9-4.4l0,0l-0.3,2.7c-0.6,2.1-2.2,0.2-2-1.3
			c0.1-1.3,0.3-3.5,0.4-4.9l-4.3-14.2c-0.9-3.1,5.6-6,5.6-6l0.2-0.5l3.4,5.1c-1,0.2-3.4,1.5-3.1,2.5l3.9,11.9c0.7,0.3,1.3,0.6,2,0.9
			c1.2,0.4,2.2,0.9,2,1.4c-0.5,1.5-3.1,0.8-3.1,0.8l1.9,2.4c1.1,1.4-0.4,2.1-1.2,1.8C19.5,121.3,18.6,120.4,18.1,119.4"/>
		<path class="st11" d="M156.8,70.6C145.3,90.1,120.3,95.2,99.5,94h-0.1c0.2-1.9,0.1-3.9-0.2-5.8h0.1c22.2-3.1,39-11.3,44.5-26.7
			l22.5-14.7l0.3-0.2C166.3,47.7,165,56.7,156.8,70.6"/>
		<path class="st12" d="M96.8,88.5c-1.4,0.2-2.8,0.3-4.2,0.4c-0.8,0.1-1.6,0.1-2.5,0.2s-2,0.1-3,0.2c-1.5,0.1-3,0.1-4.5,0.2
			c-1,0-4.6-0.1-7.1,0.1c-1.3,0.1-0.8,5.2,0,5.1c1.5-0.2,19.6-0.9,21.2-0.9h0.1C97,92.1,97,90.3,96.8,88.5"/>
		<path class="st13" d="M73.4,48.8c-4.9,2.1-8.2-0.8-11.6-3.7C66.4,47.9,73.4,48.8,73.4,48.8"/>
		<path class="st5" d="M63.3,54.8c-1.4,0.1-2.8,0.1-4.2,0c-4.3-0.3-8.7-0.9-12.3-0.4c-1.4,0.2-2.8,0.6-4.1,1
			c-5.4,1.7-12.3,4.8-17.8,5.8c-0.1,0.4-0.2,0.8-0.2,1.2c-0.3,1.5-0.4,3-0.5,4.4c-0.1,1.4,0,2.8,0.1,4.2c0,0.2,0,0.4,0.1,0.6
			c0.2,1.9,0.7,3.7,1.3,5.5c1.4,4.3,3.9,8.2,7.1,11.3c6.8,7.1,17.8,8,25.7,2.1c6-4.2,8.6-10.6,9-19.1C67.7,65.7,66.2,59.9,63.3,54.8
			"/>
		<path class="st3" d="M54.1,80.3c0.2,1.8-0.8,6-4.3,6.3c-2.7,0.3-5.2-1.6-5.7-4.3c1.8,0.5,3.7,0.6,5.6,0.2
			C52,82.1,53.3,81.3,54.1,80.3"/>
		<path class="st3" d="M73.4,48.8c-4.2,1.3-7.7-0.5-11-3.2c-3.3-2.7-6.4-6.1-10-8c-2-1.1-4.2-1.7-6.5-1.6c-4.9,0.3-8.7,5-12.5,9.6
			c-5.2,6.4-10.3,12.8-18.1,8.1c0,7.1,4.1,8.3,9.7,7.4s12.4-4.1,17.8-5.8c1.3-0.4,2.7-0.8,4.1-1c3.6-0.4,8,0.1,12.3,0.4
			c2,0.2,3.9,0.3,5.6,0.3C69.8,55.1,73.5,53.9,73.4,48.8 M53.3,49.3c1.2,2.9-3.2,2.7-3.2,0.5c-0.9-0.5-1.8-1.1-2.7-1.7l-0.1,0.1
			c-1.2,1-2.4,1.9-3.7,2.7c-0.4,1.6-1.2,2.1-1.9,2.1c-0.9,0-1.6-1.1-0.5-1.8c-4.2-1.7-0.3-3.3,1.6-1.7c1.1-0.7,2.2-1.5,3.2-2.4
			l0.1-0.1c-0.8-0.8-1.6-1.6-2.4-2.5c-4.8,1.4-3.3-4,0.4-2.2c1.6-4.3,4,0,1.4,0.8l2.3,2.2l0.1-0.1c0.9-1,1.7-2,2.5-3.2
			c-0.6-1.7,0.1-2.5,0.8-2.4s1.3,0.8,1,2.2c2.7-0.2,1.1,2.7-0.6,1.7c-0.7,1-1.5,1.9-2.4,2.8l-0.1,0.1l2.1,2
			C53.4,46,55.2,49,53.3,49.3"/>
		<path class="st13" d="M33.3,45.6L33.3,45.6c-4.6,7.1-10.2,12.8-18.1,8.2C21.4,51.4,27.4,48.7,33.3,45.6"/>
		<path class="st5" d="M25.8,77.1L25.8,77.1c-0.7,0.5-1.4,0.8-2.2,0.8c-1.8-0.3-3.2-1.8-3.2-3.7c0.1-0.9,0.7-1.7,1.5-2.1
			c0.6-0.3,1.3-0.5,2-0.4c0.1,0,0.2,0,0.3,0h0.3C24.7,73.5,25.1,75.4,25.8,77.1"/>
		<path class="st14" d="M21.9,66.7c-6.4,4.4-5.5-0.7,3.1-5.5l-0.2,1.2c-0.3,1.5-0.4,3-0.5,4.4c-0.1,1.4,0,2.8,0.1,4.2
			c0,0.2,0,0.4,0.1,0.6h-0.3c-0.1,0-0.2,0-0.3,0c-0.7,0-1.4,0.1-2,0.4l0,0c-0.2-0.9-0.2-1.8,0.1-2.7C17.6,72.1,17.4,70,21.9,66.7"/>
		<path class="st3" d="M43.8,68.1c0.1,0.7-0.3,1.5-0.9,1.8l-7.6,3c-2.2,0.8-3.1,0.4-3.4-0.6l-2.1-6.3c-0.4-1.3,0.2-2.1,1.5-2.5
			l7.8-3c1.3-0.4,2.1-0.3,2.4,1L43.8,68.1z"/>
		<path class="st15" d="M32.3,68.8c-1.5,0.5-6.5,1.8-7.9,2.2"/>
		<path class="st15" d="M58.1,54.1c0,0-11.6,8.3-17.9,10.7"/>
		<path class="st2" d="M56.1,57.5c2.6-0.4,5.1,1.4,5.5,4c0.4,2.6-0.6,5.7-4.2,6.2c-2.6,0.4-4.9-2.2-5.3-4.8
			C51.7,60.4,53.5,57.9,56.1,57.5C56.1,57.5,56.1,57.5,56.1,57.5"/>
		<path class="st1" d="M58.5,61.7c0.4-0.1,0.8,0.1,0.9,0.5c0,0.1,0,0.1,0,0.2c0.1,0.4-0.1,0.9-0.6,1c0,0-0.1,0-0.1,0
			c-0.7,0.1-0.9-0.4-0.9-0.8C57.8,62.2,58,61.8,58.5,61.7"/>
		<path class="st16" d="M47.7,74.8c0.4,0.2,4.9,0.2,4.7-3.1c-0.1-2-4.6-2.3-4.9-2.2"/>
		<path class="st5" d="M92.1,92.8c-1.2-2.5-1-5.3,0.2-5.5c0.8-0.1,2.2,0.5,3.1,3.4c0.4,1.5,0.8,2.2,0.5,3.1c-0.7,1.7-2.1,3-3.8,3.7
			c-4.7,2-6.8-2.8-7.3-4.7c-0.6-2.3,2.1-1.7,3.9,0.3c0.3,0.5,0.2,0.3,0,0c-0.9-1.3-2.2-3.5-0.9-4.1C89.6,88.4,91.7,92.1,92.1,92.8"
			/>
		<path class="st17" d="M96.8,88.5c0-0.1,0-0.3-0.1-0.4c-0.2-1.4-0.7-3.4-2.3-3.9c-0.8-0.3-1.7,0-2.2,0.7c-0.3,0.6-0.1,1.4,0.5,1.7
			c0.1,0,0.2,0.1,0.2,0.1c-0.2,0-0.4,0-0.6,0c-1.4-0.1-2.3-1.3-2.2-2.7c0-0.4,0.2-0.8,0.4-1.1c1.1-1.8,3.6-2,5.4-1s2.5,3.2,3,5
			c0.1,0.4,0.2,0.8,0.2,1.2c0.3,1.9,0.4,3.9,0.2,5.8c0,0.4-0.1,0.7-0.1,1.1c-0.1,2.8-1,5.5-2.4,7.9c-3,4.5-9,5.8-13.7,3
			c-2.1-1.4-3.7-3.6-4.6-6c-0.3-1-0.7-1.9-1.3-2.8l0,0c-0.2-0.2-0.4-0.4-0.6-0.5c-0.9-0.8-2.3-0.8-3.1,0.1c0.3-1.5,1.8-2.5,3.4-2.3
			h0.1c1.4,0.2,2.1,1.4,2.6,2.6c0.1,0.2,0.2,0.5,0.3,0.7c1.3,3,3.6,5.6,7,6.1c3.4,0.4,6.6-1.2,8.4-4.1c0.9-1.7,1.4-3.5,1.5-5.5
			c0-0.2,0-0.3,0-0.5c0.2-1.8,0.1-3.6-0.1-5.4"/>
	</g>
</g>
</svg>
