<?xml version="1.0" encoding="utf-8"?>
<!-- Generator: Adobe Illustrator 26.2.1, SVG Export Plug-In . SVG Version: 6.00 Build 0)  -->
<svg version="1.1" id="Capa_1" xmlns="http://www.w3.org/2000/svg" xmlns:xlink="http://www.w3.org/1999/xlink" x="0px" y="0px"
	 viewBox="0 0 104 141.7" style="enable-background:new 0 0 104 141.7;" xml:space="preserve">
<style type="text/css">
	.st0{fill:#E0D6B9;}
	.st1{fill:#BF0811;}
	.st2{clip-path:url(#SVGID_00000026879754254250645440000012011482210493856388_);}
	.st3{fill:none;stroke:#FFFFFF;stroke-width:2.04;}
	.st4{clip-path:url(#SVGID_00000008843425057169819250000016888282754316590236_);}
	.st5{fill:none;stroke:#211915;stroke-width:0.68;stroke-linecap:round;}
	.st6{fill:#211915;}
	.st7{fill:#FFFFFF;}
	.st8{fill:#111419;}
	.st9{fill:none;stroke:#211915;stroke-width:1.06;stroke-linecap:round;stroke-linejoin:round;}
	.st10{fill:#6F4714;}
	.st11{fill:#6EAA6F;}
	.st12{clip-path:url(#SVGID_00000078762865083301411660000011366230536646187136_);}
	.st13{fill:none;stroke:#FFFFFF;stroke-width:1.87;}
	.st14{fill:none;stroke:#211915;stroke-width:0.85;stroke-linecap:round;stroke-linejoin:round;}
	.st15{fill:none;stroke:#211915;stroke-linecap:round;stroke-linejoin:round;}
	.st16{fill:none;stroke:#211915;stroke-width:0.73;stroke-linecap:round;}
	.st17{fill:#EFE6CD;}
</style>
<g id="Capa_2_00000026128320277115528720000009961188727045993404_">
	<g id="Capa_1-2">
		<path class="st0" d="M72.9,78.9c-2.3,1.3,1.7,3-1.3,4.1c1-0.3,0.8,1.1,0.4,1.8l-2.6,0.2c-6,0.4-15.1,1.3-23.2-4.7l5.1-4
			c5.1,4.2,12.6,3.9,18.6,3.6L72.9,78.9z"/>
		<path class="st1" d="M52.3,75.4l-6.8,5.4l-10.1-7.4c0-5.2,4.8-6.7,7-7.6l1.5,1.3L52.3,75.4z"/>
		<g>
			<defs>
				<path id="SVGID_1_" d="M35.4,73.4l10.1,7.4l6.8-5.4L43.9,67l-1.5-1.3C40.2,66.6,35.4,68.2,35.4,73.4"/>
			</defs>
			<clipPath id="SVGID_00000101815885965888426930000017444413604437359266_">
				<use xlink:href="#SVGID_1_"  style="overflow:visible;"/>
			</clipPath>
			<g style="clip-path:url(#SVGID_00000101815885965888426930000017444413604437359266_);">
				<path class="st3" d="M40.8,80c4.6-2.8,8.9-6.1,12.8-9.8"/>
				<path class="st3" d="M36.9,76.8c4.6-2.8,8.9-6.1,12.8-9.8"/>
			</g>
		</g>
		<path class="st1" d="M6.4,74.6l6.3,6l10.7-6.4c-2.2-2.6-4.3-5.4-6.2-8.2l-1.7,1.2L6.4,74.6z"/>
		<g>
			<defs>
				<path id="SVGID_00000013888278072233741440000006223989728324321185_" d="M15.6,67.1l-9.1,7.5l6.3,6l10.7-6.4
					c-1.7-2.2-5-6-6.2-8.2L15.6,67.1z"/>
			</defs>
			<clipPath id="SVGID_00000003792869324862016140000009315481067859972285_">
				<use xlink:href="#SVGID_00000013888278072233741440000006223989728324321185_"  style="overflow:visible;"/>
			</clipPath>
			<g style="clip-path:url(#SVGID_00000003792869324862016140000009315481067859972285_);">
				<path class="st3" d="M17.4,80.3c-4.3-3.3-8.3-7-11.8-11"/>
				<path class="st3" d="M21.6,77.5c-4.3-3.3-8.2-7-11.8-11"/>
			</g>
		</g>
		<path class="st5" d="M74.3,40.1c-5.4,4.3-8.3,10.9-7.9,17.8c0.3,4.4,6.5,25.3-3.2,36.9c-2.9,3.5-7.2,5.7-9.8,9.5
			s-3.9,8.8-1.9,12.8c1.3,2.6,4.1,4.5,6.9,4.1s5-3.9,3.6-6.4"/>
		<path class="st6" d="M78.4,7.9c-3-0.6-5.8,1.4-6.4,4.4s1.4,5.8,4.4,6.4c3,0.6,5.8-1.4,6.4-4.4c0,0,0,0,0,0
			C83.3,11.3,81.3,8.5,78.4,7.9C78.4,7.9,78.4,7.9,78.4,7.9"/>
		<path class="st7" d="M80.4,22.3c-0.3-0.1-0.6,0.1-0.7,0.4c-0.1,0.3,0.1,0.6,0.4,0.7c0.3,0.1,0.6-0.1,0.7-0.4c0,0,0,0,0,0
			C80.9,22.7,80.7,22.4,80.4,22.3C80.4,22.3,80.4,22.3,80.4,22.3"/>
		<path class="st7" d="M85.7,25.1c-0.4-0.1-0.8,0.2-0.9,0.6c0,0,0,0,0,0c0,0.4,0.2,0.8,0.7,0.8c0.4,0,0.7-0.2,0.8-0.6
			C86.4,25.6,86.1,25.2,85.7,25.1C85.7,25.1,85.7,25.1,85.7,25.1"/>
		<path class="st6" d="M95.3,19.7c-2.5-0.5-5,1.2-5.4,3.7c-0.5,2.5,1.2,5,3.7,5.4c2.5,0.5,5-1.2,5.4-3.7
			C99.5,22.6,97.8,20.2,95.3,19.7C95.3,19.7,95.3,19.7,95.3,19.7"/>
		<path class="st8" d="M61.6,18.2c-2.4,12.7,3.9,24.6,14,26.5s27.1-7.6,28.3-22.6C105,9.2,93.7,2.2,83.6,0.3S63.9,5.5,61.6,18.2"/>
		<path class="st7" d="M72,12.3c-0.6,3,1.4,5.8,4.4,6.4c3,0.6,5.8-1.4,6.4-4.4s-1.4-5.8-4.4-6.4c0,0,0,0,0,0
			C75.4,7.4,72.5,9.3,72,12.3"/>
		<path class="st7" d="M89.8,23.4c-0.5,2.5,1.2,5,3.7,5.4s5-1.2,5.4-3.7c0.5-2.5-1.2-5-3.7-5.4C92.7,19.2,90.3,20.9,89.8,23.4
			C89.8,23.4,89.8,23.4,89.8,23.4"/>
		<path class="st7" d="M81.9,38l1.7-2.5c0.5-0.8,0.3-1.8-0.5-2.3c0,0,0,0,0,0l-2.8-1.8l-4.7-2.9L73.4,27c-0.9-0.5-2-0.3-2.6,0.6
			c0,0.1-0.1,0.1-0.1,0.2l-0.8,1.7l-0.6,1.2c-0.5,1-0.2,2.2,0.7,2.9l2,1.6l4,3.3l1.7,1.4c0.9,0.8,2.3,0.6,3.1-0.3
			c0-0.1,0.1-0.1,0.1-0.2L81.9,38z"/>
		<polyline class="st9" points="82,38 81.9,38 78,35.2 73.7,32.2 70,29.6 		"/>
		<polyline class="st9" points="75.6,28.5 73.7,32.2 71.6,36.1 		"/>
		<polyline class="st9" points="80.3,31.4 78,35.2 75.3,39.4 		"/>
		<path class="st7" d="M79.7,22.8c-0.1,0.3,0.1,0.6,0.4,0.7c0.3,0.1,0.6-0.1,0.7-0.4c0,0,0,0,0,0c0-0.3-0.2-0.6-0.5-0.7
			C80.1,22.3,79.8,22.5,79.7,22.8"/>
		<path class="st7" d="M84.8,25.7c0,0.4,0.3,0.8,0.7,0.8c0.4,0,0.7-0.2,0.8-0.5c0.1-0.4-0.2-0.8-0.5-0.9c0,0,0,0,0,0
			C85.3,25,84.9,25.3,84.8,25.7C84.8,25.7,84.8,25.7,84.8,25.7"/>
		<polygon class="st8" points="71.3,41.5 65.6,45.4 69.2,47.2 72.5,48.8 		"/>
		<path class="st0" d="M53.4,43.3c0.4,0.4,0.7,0.9,0.7,1.5c0,1.3-1.5,2.4-3.3,2.4c-0.1,0-0.3,0-0.4,0c0.1-1.5,0-4.1-0.1-5.7
			C51.4,42,52.5,42.6,53.4,43.3"/>
		<path class="st0" d="M9.6,47.5L9.6,47.5c-0.5,0.2-1,0.3-1.5,0.3c-1.6,0.1-2.9-1.2-3-2.7c0,0,0,0,0,0c0-0.1,0-0.2,0-0.3
			c0.3-1.4,1.5-2.5,3-2.4c0.4,0,0.7,0.1,1.1,0.2h0.1c0,1,0.1,2,0.1,3C9.4,46.2,9.5,46.8,9.6,47.5"/>
		<path class="st10" d="M4.6,41.6c-6.7,6.3,0.3-3.3,0.3-3.3c-9.6,9-1.3-3.7,1.3-5.7c0.9,0.2,1.8,0.3,2.6,0.3
			c-0.5,3.2-0.7,6.5-0.6,9.7H8.2C7.5,43.9,0.4,49.4,4.6,41.6"/>
		<path class="st8" d="M42.2,135c5.8,0.8,7.2,2.8,7.2,4.8s-7.6,1.9-11.7,1.9c-1.3,0-2.6-0.7-2.7-1.6l-1.2-15.9c0,0,4.7,1.4,8-0.6
			L42.2,135z"/>
		<path class="st11" d="M16.2,102.5l27.9-1.9c-1.6,7.6-2.3,15.4-2.2,23.1c-3.4,2-8,0.6-8,0.6l-4.1-15.1c-1.9,4.6-3.4,9.3-4.4,14.2
			c-2.7,2.3-7.6,0.3-7.6,0.3l-2.4-21.3C15.7,102.5,15.9,102.5,16.2,102.5"/>
		<path class="st8" d="M25.4,123.4l0.1,15.9c0,1-4.3,2.4-8.6,2.4s-6.9-0.6-6.9-2.3s3.5-4,7.8-4h0.7l-0.6-11.7
			C17.7,123.7,22.7,125.7,25.4,123.4"/>
		<path class="st1" d="M17.8,69.8l0.2-3.2c0.6,0.1,20.5,0.3,21.5-0.4l2.6,13.3l3.4,22.9c-15.7,3.4-31.1,1.1-32.1,0.7
			C14.8,97.3,17.2,74.7,17.8,69.8"/>
		<g>
			<defs>
				<path id="SVGID_00000114760473009574061100000016109934824120102811_" d="M18,66.6l-0.2,3.2c-0.7,5-3,27.5-4.4,33.4
					c1,0.5,16.4,2.8,32.1-0.7l-3.3-22.9l-2.6-13.3C38.5,67,18.6,66.7,18,66.6"/>
			</defs>
			<clipPath id="SVGID_00000030471886657792352000000018294815796111012494_">
				<use xlink:href="#SVGID_00000114760473009574061100000016109934824120102811_"  style="overflow:visible;"/>
			</clipPath>
			<g style="clip-path:url(#SVGID_00000030471886657792352000000018294815796111012494_);">
				<path class="st13" d="M49.2,69c-5.4,3.3-11.6,5.3-18,5.7c-7.1,0.2-14.2-1.3-20.6-4.3"/>
				<path class="st13" d="M53.6,72.9c-7.2,4.5-15.5,7-24,7.3c-6.2,0.3-12.4-1-18-3.8"/>
				<path class="st13" d="M53.1,80c-6.9,3.3-14.3,5.4-21.9,6c-8.3,0.4-16.6-1-24.2-4.3"/>
				<path class="st13" d="M53.6,87.9c-4.7,1.4-15.8,4.5-25.4,4.6c-5.9,0-11.7-0.6-17.4-1.8"/>
				<path class="st13" d="M51.7,94.8c-23,6.8-39.6,2.4-39.6,2.4"/>
			</g>
		</g>
		<path class="st10" d="M57.9,38.6c0.8-4-7.1-9.3-7.1-9.3c-0.9,0.2-0.7,1.4-1.8,1.4v0.6c0.6,2.4,1,4.7,1.3,6.9
			c0.1,1.2,0.3,2.3,0.4,3.4c1.7,5.8,3.9,4.3,4,1.1c0.1-1.5-1.9-3.7-1.9-3.7c0.5,0.4,2.8,3.1,3.3,2.6s0.2-2-2.1-5.3
			C54.7,36.7,57.5,40.4,57.9,38.6"/>
		<path class="st0" d="M50.4,38.2c-0.3-2.2-0.7-4.5-1.3-6.9v-0.6c-1.5,0.1-3.2-0.4-5.1-0.4c-2.5-0.4-5-1-7.4-1.7
			c-1-0.3-1.8,0.8-2.9,0.7c-2.5-0.1-5,0.1-7.5,0.7c-1.2,0.2-3.7-0.4-4.7,0c-5.9,2.4-8.8,3-12.6,2.9c-0.5,3.5-1.5,13.2,0,20.1
			c1.1,5.1,4.3,11.3,10.3,14.9c5.4,3.2,14,3.3,20.8-0.3c7.7-4.1,10.6-11.8,10.9-18.6C50.9,47.6,50.5,39.4,50.4,38.2"/>
		<path class="st8" d="M29.9,13.1C12,13.1,13.3,38,0,28.4C1.1,32,3.2,34,6.2,34.7C7.1,34.9,8,35,8.8,35c3.9,0,8.8-1.4,14.7-3.7
			c1.1-0.4,2.2-0.8,3.3-1c2.2-0.4,4.4-0.5,6.6-0.3c1,0.1,2,0.3,3,0.6c2.4,0.7,4.9,1.3,7.4,1.8c1.7,0.3,3.4,0.4,5.1,0.4
			c1,0,2-0.2,3-0.4c3.5-0.9,5.5-3.4,5.5-8C46.6,36.3,47.8,13.1,29.9,13.1 M35,26.5c0,1.7-0.7,2.2-1.3,2s-1.2-1.1-0.3-2.2
			c-1.2-0.6-2.4-1.4-3.5-2.3l-0.1,0.1c-1.3,1.5-2.2,2.8-2.2,2.8c0.3,1.5-0.3,2.2-0.9,2.3c-0.8,0.2-1.8-0.6-1-1.6
			c-3.1-1-0.3-2.9,0.8-1.8c0.7-1,1.4-1.9,2.2-2.8l0,0c-0.8-0.7-1.5-1.6-2.1-2.5c-4.1,1.9-3.7-3.1,0-1.5c-0.9-3,3.1-2,1.2,0
			c0.7,0.9,1.5,1.8,2.3,2.6l0.1-0.1c1-1,2.1-1.9,3.2-2.7c-1.3-3.3,2.1-3.4,1.7-0.4c3.1,0.9,0.3,2.8-0.8,1.6c-1.1,0.6-2.2,1.5-3,2.5
			c1,0.8,2.1,1.5,3.3,2C37.4,22.9,37.4,26.6,35,26.5"/>
		<path class="st8" d="M31.4,59.1c1.5,1.4,1.1,2.9,1,4.6c-2.9-2-5-2.2-8.5-2.3C26.2,58.4,28.9,56.7,31.4,59.1"/>
		<path class="st8" d="M26.2,43.7c0,0.8-0.5,1.5-1.2,1.8l-8.2,2c-2.4,0.5-3.2,0-3.4-1.1l-1.3-6.8c-0.2-1.5,0.5-2.1,1.9-2.3l8.4-2
			c1.4-0.2,2.1,0,2.3,1.4L26.2,43.7z"/>
		<path class="st14" d="M40.2,42.3c0,0.8-0.4,1.4-0.9,1.4s-0.9-0.6-0.9-1.4s0.4-1.4,0.9-1.4S40.2,41.5,40.2,42.3z"/>
		<path class="st15" d="M13.1,42.4c-1.7,0.6-3.5,0.8-5.2,0.5"/>
		<path class="st15" d="M44,30.3L44,30.3c-5.9,2.9-13.5,6.6-19.9,9.3"/>
		<path class="st7" d="M40.2,37.3c2.9-0.6,4.8,1.9,4.8,4.7s-1.5,5.7-5.3,5.7c-2.7,0-4.6-3-4.6-5.7S36.8,37.7,40.2,37.3"/>
		<path class="st6" d="M40,41.3c0.4,0,0.8,0.3,0.9,0.7c0,0,0,0.1,0,0.1c0,0.5-0.3,0.9-0.8,0.9c0,0,0,0,0,0c-0.7,0-0.8-0.5-0.8-1
			C39.2,41.7,39.6,41.3,40,41.3"/>
		<path class="st16" d="M27.6,53c0.4,0.1,5.1,0,4.7-3.5c-0.2-2.1-4.8-2.2-5.2-2"/>
		<line class="st16" x1="34.8" y1="39.2" x2="42.1" y2="36.3"/>
		<path class="st0" d="M14.8,95.4l0.9,2.5c0.6,1.2-1,2-1.5,1.4c-0.9-0.9-1.7-2-2.1-3.3l0,0l0.2,1.9c-0.2,2-1.9,1.2-2-0.5
			c-0.1-1.2,0-2.8-0.2-4c-2.3-3.5-4.3-7-6.2-10.7c-1.5-3.2,3.5-7.2,3.5-7.2l4.1,4c-0.8,0.4-2.6,1.2-1.5,3.9c1.3,2.7,2.8,5.3,4.5,7.8
			c0,0,1.4,0.3,2.2,0.4c1.1,0.2,2.1,0.4,2,0.9c-0.1,1.4-2.6,1.3-2.6,1.3l2.1,1.7c1.2,1,0,2-0.8,1.8C16.4,97,15.5,96.3,14.8,95.4"/>
		<path class="st17" d="M73.1,74.3c2.1,0-0.1,7.2-0.6,10c-0.1,0.6-0.5,1-1,1.2c-4.2,1.6-5.1,0.3-4.3-0.9c0.4-0.6,1.5-0.9,2.2-1.4
			c-4.3,0.5-5.1-1.3-1.7-2.3c0.6-0.2,1.2-0.1,1.8-0.3c-7.6-0.5-2-2.9,1.2-2.9C70.7,77.8,71.5,74.3,73.1,74.3"/>
	</g>
</g>
</svg>
