<?xml version="1.0" encoding="utf-8"?>
<!-- Generator: Adobe Illustrator 26.2.1, SVG Export Plug-In . SVG Version: 6.00 Build 0)  -->
<svg version="1.1" id="Capa_1" xmlns="http://www.w3.org/2000/svg" xmlns:xlink="http://www.w3.org/1999/xlink" x="0px" y="0px"
	 viewBox="0 0 265.9 159.9" style="enable-background:new 0 0 265.9 159.9;" xml:space="preserve">
<style type="text/css">
	.st0{fill:#E0D6B9;}
	.st1{fill:#C58021;}
	.st2{fill:#6A4720;}
	.st3{fill:#905D2B;}
	.st4{fill:#BF0811;}
	.st5{clip-path:url(#SVGID_00000101795103577392123400000004069341937122286262_);}
	.st6{fill:none;stroke:#FFFFFF;stroke-width:2.02;}
	.st7{fill:#6EAA6F;}
	.st8{fill:#FFFFFF;}
	.st9{fill:#211915;}
	.st10{fill:#111419;}
	.st11{clip-path:url(#SVGID_00000118365398834180959130000013432875031191692428_);}
	.st12{fill:#727176;}
	.st13{fill:#6F4714;}
	.st14{fill:none;stroke:#211915;stroke-width:0.96;stroke-linecap:round;stroke-linejoin:round;}
	.st15{fill:none;stroke:#211915;stroke-width:0.73;stroke-linecap:round;}
	.st16{fill:none;stroke:#211915;stroke-width:1.01;stroke-linecap:round;stroke-linejoin:round;}
	.st17{fill:none;stroke:#211915;stroke-linecap:round;}
	.st18{fill:#EFE6CD;}
</style>
<g id="Capa_2_00000106112563855468683400000013288901789138833054_">
	<g id="Capa_1-2">
		<path class="st0" d="M157,75l3.1,2.7c-2.6,4-4.6,8.3-6,12.8c0.9,0.4,1.8,1,2.6,1.5c0.7,0.6-0.1,1.6-0.7,1.7
			c-0.9,0.1-1.8-0.1-2.7-0.5c-0.7,7.6-3.9,4.2-2.9,0.9c-1.8,6-4.4,3.1-2.1-1.5c-4.2,6.1-3.1-2.6,1.8-3.8
			C151.4,83.8,153.7,79.1,157,75"/>
		<path class="st0" d="M192.5,31.3c-1.3-1.9-2.9-3.6-4.7-5c-0.4-0.4-0.9-0.7-1.4-1c-2.9,0.7-5.6,1.8-8.3,3.1
			c-0.4,0.2-0.8,0.5-1.3,0.8c-5.6,3.5-13.6,10.5-20.5,11.4c-0.1,3.7,0.7,7.4,2.4,10.7c0.6,1.4,1.4,2.7,2.3,3.9
			c0.1,0.2,0.2,0.3,0.3,0.4c2.2,3,5,5.4,8.2,7.2c6.7,3.6,14.6,3.6,20.7-0.6C199.1,55.8,199.6,41.4,192.5,31.3"/>
		<polygon class="st1" points="112.9,118.2 112.9,83 107,84.9 106.8,118.7 		"/>
		<polygon class="st2" points="214.3,117.6 112.8,117.4 106.8,118.7 214.3,119.1 		"/>
		<path class="st3" d="M213.8,83.2l0.5,35.8l-85.3-0.4h-22.2l0.2-33.8h-6.3v48.9h60.8c0.3-1.1,13.4-3.1,18.7-4.6v5.1l40.2-15.2V83.2
			H213.8z"/>
		<polygon class="st2" points="219.6,81.3 213.8,83.2 220.4,83.2 226.8,81.3 		"/>
		<path class="st0" d="M223.4,67.4c-2.3,1.3,1.7,3.1-1.3,4.1c1-0.3,0.8,1.1,0.4,1.8l-2.6,0.2c-6.3,0.4-12.6-0.2-18.7-1.6l1.4-4.9
			h0.1c5.6,1.6,11.6,1.8,17.6,1.5L223.4,67.4z"/>
		<path class="st4" d="M203.1,65.8l-0.2,1l-1.1,4.8l-0.3,1.5l-11.1-2c0.1-2.7-0.7-6.5-1-9l2,0.3L203.1,65.8z"/>
		<g>
			<defs>
				<path id="SVGID_1_" d="M190.3,71.2l11.1,2l0.3-1.5l1.1-4.8l0.2-1l-11.7-3.4l-2-0.3C189.6,64.7,190.5,68.5,190.3,71.2"/>
			</defs>
			<clipPath id="SVGID_00000024695215374856808640000000313941015513258123_">
				<use xlink:href="#SVGID_1_"  style="overflow:visible;"/>
			</clipPath>
			<g style="clip-path:url(#SVGID_00000024695215374856808640000000313941015513258123_);">
				<path class="st6" d="M197.4,74.9c1.6-4.8,2.7-9.8,3.3-14.9"/>
				<path class="st6" d="M192.4,74.2c1.6-4.8,2.7-9.8,3.3-14.9"/>
			</g>
		</g>
		<path class="st7" d="M202.1,102.1v11.7l-7.4,1.5v-3.4c0-1.3-1.1-2.4-2.4-2.4c-0.2,0-0.3,0-0.5,0l-11,1.1v-8.1
			c4.9-0.4,11.6-3.7,11.6-3.9l7,0.5C201,99.2,202.2,100.5,202.1,102.1"/>
		<path class="st8" d="M189.8,35.4c0.8,2.4-0.5,5-2.9,5.8c-2.4,0.8-5-0.5-5.8-2.9c-0.1-0.3-0.2-0.6-0.2-0.9
			c-0.2-1.1-0.1-2.2,0.3-3.2c0.8-0.8,1.5-1.5,2.2-2.3c0.3-0.1,0.6-0.3,0.9-0.3C186.9,31,189.4,32.8,189.8,35.4"/>
		<path class="st9" d="M186.1,34.6c0.5,0.1,0.8,0.5,0.7,1c-0.1,0.5-0.4,0.8-0.8,0.8c-0.5-0.1-0.8-0.6-0.7-1.1
			C185.3,34.9,185.7,34.6,186.1,34.6"/>
		<path class="st10" d="M192.5,16.7c-0.3,2.5-2.6,1.5-5.9-0.1c-2.3-1.1-4.6-2.1-7.1-2.8c-3.3-0.9-6.9-1-10.2,1.1
			c-4.3,2.8-6.1,7.1-8.1,11.1c-2.6,5.3-5.4,10-14.1,10c1.9,3.1,4.3,4.5,7,4.7c0.7,0.1,1.5,0,2.2-0.1c6.9-0.9,15-7.9,20.5-11.4
			c0.5-0.3,0.9-0.5,1.3-0.8c2.6-1.3,5.4-2.4,8.3-3.1C192.3,23.6,196.8,22.2,192.5,16.7 M182.8,23.4c0.2,2.5-2.5,2.6-2.4,0.1
			l-2.9-0.1l0,0l-0.6,2.5c0.6,0.5,0.7,1.5,0.2,2.1c-0.2,0.2-0.4,0.4-0.7,0.5c-0.5,0.1-1.1-0.1-1.4-1.1c-2.6,1.8-4.5-1.5-0.5-2.6
			l0.4-1.5h-2c-3,2.9-4-0.8-1.8-1.4c-2.4-2.9,1.4-4.5,1.8-1.2l2.5,0.2l0.8-3.3c-2-1-0.4-4,1.7-1c0.1-0.8,0.6-1.1,1.1-1
			c0.8,0.2,1.5,1.2-0.3,2.2l-0.8,3.3l3.1,0.4C184.4,18.6,185.5,22.7,182.8,23.4"/>
		<path class="st3" d="M175.1,97.5v4c-0.5-0.2-1-0.4-1.5-0.7C174.3,99.8,174.8,98.7,175.1,97.5"/>
		<path class="st10" d="M175.3,41.4c1,1.3,1.4,2.4,0.3,3.5c0,0-4.1,4.2-5.6,5.4s-2.4,1.1-3.7-0.3l-2.1-2.3l-0.5-0.6
			c-0.4-0.5-1.8-2.1-0.6-3.2l6.1-5.6c0.7-0.6,2.4-1.7,3.4-0.3l1.8,2.3L175.3,41.4z"/>
		<path class="st10" d="M169.5,128.8v4.1h-8.2c0.4-1.4,0.4-2.8,0.7-4.1H169.5L169.5,128.8z"/>
		<path class="st4" d="M178,103.3c4.9-0.4,12.5-2.6,14.9-4.6c0-0.2-0.1-0.4-0.1-0.7c-1.1-5.5-0.6-11.1-1.3-21.3
			c-0.2-2.7-1-13.5-1.3-14.7c-6,4.2-14,4.2-20.7,0.6c-2.5,1.3-4.9,2.8-7.1,4.6l0,0l-0.2,0.2c-0.5,0.4-1.1,0.9-1.6,1.4l0.1,0.1
			c-2.3,2.2-4.5,4.5-6.5,7l0.7,0.9l4.7,4.1c2.1-2.5,3.7-3,5.7-4.2l-5,25.5c2,1.1,8,1.3,10.3,1.1L178,103.3z"/>
		<g>
			<defs>
				<path id="SVGID_00000160912044155389262580000008296261185265196478_" d="M169.5,62.7c-2.5,1.3-4.9,2.8-7.1,4.6l0,0l-0.2,0.2
					c-0.5,0.4-1.1,0.9-1.6,1.4l0.1,0.1c-2.3,2.2-4.5,4.5-6.5,7l0.7,0.9l4.7,4.1c2.1-2.5,3.7-3,5.7-4.2l-5,25.5c2,1.1,8,1.3,10.3,1.1
					l7.5,0.1c4.9-0.4,12.5-2.6,14.9-4.6c0-0.2-0.1-0.4-0.1-0.7c-1.1-5.5-0.6-11.1-1.3-21.4c-0.2-2.7-1-13.5-1.3-14.7
					C184.1,66.3,176.1,66.3,169.5,62.7"/>
			</defs>
			<clipPath id="SVGID_00000149353579655846904620000008065955027013713549_">
				<use xlink:href="#SVGID_00000160912044155389262580000008296261185265196478_"  style="overflow:visible;"/>
			</clipPath>
			<g style="clip-path:url(#SVGID_00000149353579655846904620000008065955027013713549_);">
				<path class="st6" d="M162.2,65.4c0,0,7.2,4.9,15.2,4.9c9.2,0,14.9-3.2,14.9-3.2"/>
				<path class="st6" d="M158.7,70.2c0,0,6.5,6.4,18.6,6.5c5.2,0.2,10.4-0.9,15-3.2"/>
				<path class="st6" d="M155.6,73.6c2.6,2.5,5.4,4.7,8.5,6.4c4.1,2.2,8.6,3.3,13.2,3.3c5.2,0.2,10.4-0.9,15-3.2"/>
				<path class="st6" d="M161.5,86.5c3.7,2.1,10.6,3.2,15.8,3.3c5.4,0.1,10.8-1.2,15.7-3.7"/>
				<path class="st6" d="M161.5,94.5c5.1,1.7,10.5,2.5,15.8,2.3c5.4-0.3,10.7-1.6,15.7-3.7"/>
			</g>
		</g>
		<path class="st0" d="M157.6,52.1L157.6,52.1c0.4-0.4,0.8-0.9,1.3-1.5c0.6,1.3,1.4,2.6,2.3,3.8c0.1,0.2,0.2,0.3,0.3,0.4l-0.3,0.2
			l-0.2,0.3c-1.3,1.3-3,1.6-4,0.7S156.4,53.4,157.6,52.1"/>
		<path class="st12" d="M161,25.9l0.3,0.1c-2.6,5.3-5.4,10-14.1,10C147.1,36,147.1,30.2,161,25.9"/>
		<path class="st13" d="M154,46.6c-2.5,2.2-3.5,2.5-3.6,1.9c-0.4-1.4,3.7-7.8,3.7-7.8l0,0c0.7,0.1,1.5,0,2.2-0.1
			c-0.1,3.7,0.8,7.3,2.4,10.7c-0.5,0.6-0.9,1.1-1.3,1.5c-5.1,5.5-2.1-3.3-2.1-3.3C148.6,57.4,153.8,47,154,46.6"/>
		<path class="st2" d="M112.9,83l-6,2h-3.3c0-0.3-0.1-0.6-0.1-0.9l3.1-1L112.9,83z"/>
		<path class="st3" d="M103.6,84.9h-3l2.9-0.9C103.5,84.3,103.6,84.6,103.6,84.9"/>
		<polygon class="st1" points="52.9,96.2 52.9,105.2 52.9,107.1 52.9,133.8 58.2,133.8 58.2,131.9 58.2,104.7 58.2,94.5 		"/>
		<path class="st2" d="M58.2,94.5l-5.3,1.7c0,0-6.7,0.2-6.8,0l5.3-1.7H58.2z"/>
		<path class="st9" d="M31.9,38.1c2.8,0,5,2.2,5,5s-2.2,5-5,5s-5-2.2-5-5S29.2,38.1,31.9,38.1"/>
		<path class="st8" d="M27.7,50.6c0.3,0,0.5,0.2,0.5,0.5c0,0.3-0.2,0.5-0.5,0.5c-0.3,0-0.5-0.2-0.5-0.5
			C27.2,50.9,27.4,50.6,27.7,50.6L27.7,50.6"/>
		<path class="st8" d="M22.5,52.2c0.4,0,0.7,0.3,0.7,0.7c0,0.4-0.3,0.7-0.7,0.7c-0.4,0-0.7-0.3-0.7-0.7
			C21.8,52.5,22.1,52.2,22.5,52.2C22.5,52.2,22.5,52.2,22.5,52.2"/>
		<path class="st9" d="M14.8,45.8c2.4,0,4.3,1.9,4.2,4.3s-1.9,4.3-4.3,4.2c-2.3,0-4.2-1.9-4.2-4.3C10.5,47.7,12.4,45.8,14.8,45.8
			C14.8,45.8,14.8,45.8,14.8,45.8"/>
		<path class="st10" d="M45.2,50.1c0,11.8-7.6,21.4-17,21.4S6.4,60,6.4,48.2s12.4-18.5,21.9-18.5S45.2,38.3,45.2,50.1"/>
		<path class="st8" d="M36.9,43.1c0,2.8-2.2,5-5,5s-5-2.2-5-5s2.2-5,5-5S36.9,40.3,36.9,43.1"/>
		<path class="st8" d="M19.1,50.1c0,2.4-1.9,4.3-4.3,4.3s-4.3-1.9-4.3-4.3c0-2.4,1.9-4.3,4.3-4.3c0,0,0,0,0,0
			C17.2,45.8,19.1,47.7,19.1,50.1C19.1,50.1,19.1,50.1,19.1,50.1"/>
		<path class="st8" d="M23.7,64.4l-1.1-2.6c-0.3-0.8,0-1.7,0.8-2c0,0,0,0,0,0l2.8-1.1l4.7-1.8l2.2-0.9c0.9-0.3,1.9,0.1,2.2,0.9
			c0,0.1,0.1,0.1,0.1,0.2l0.4,1.7l0.3,1.2c0.3,1-0.2,2-1.1,2.5l-2,1.1L28.9,66l-1.8,1c-1,0.5-2.2,0.2-2.7-0.8c0-0.1-0.1-0.1-0.1-0.2
			L23.7,64.4z"/>
		<polyline class="st14" points="23.6,64.4 23.7,64.4 27.7,62.6 32,60.6 35.8,58.9 		"/>
		<polyline class="st14" points="30.9,57 32,60.6 33.2,64.4 		"/>
		<polyline class="st14" points="26.3,58.8 27.7,62.6 29.4,66.8 		"/>
		<path class="st8" d="M28.2,51.1c0,0.3-0.2,0.5-0.5,0.5c-0.3,0-0.5-0.2-0.5-0.5c0-0.3,0.2-0.5,0.5-0.5c0,0,0,0,0,0
			C28,50.6,28.2,50.8,28.2,51.1C28.2,51.1,28.2,51.1,28.2,51.1"/>
		<path class="st8" d="M23.1,52.9c0,0.4-0.3,0.7-0.7,0.7c-0.4,0-0.7-0.3-0.7-0.7s0.3-0.7,0.7-0.7l0,0C22.8,52.2,23.1,52.5,23.1,52.9
			C23.1,52.9,23.1,52.9,23.1,52.9"/>
		<path class="st9" d="M214.6,17.2c-2.7,0.4-4.6,3-4.1,5.7c0.4,2.7,3,4.6,5.7,4.1c2.7-0.4,4.6-3,4.1-5.7c0,0,0,0,0,0
			C219.9,18.6,217.3,16.7,214.6,17.2"/>
		<path class="st8" d="M220.8,28.8c-0.3,0.1-0.4,0.4-0.3,0.7c0.1,0.2,0.3,0.3,0.5,0.3c0.3-0.1,0.5-0.3,0.4-0.6
			C221.4,29,221.1,28.8,220.8,28.8"/>
		<path class="st8" d="M226.2,29.6c-0.4,0-0.6,0.4-0.6,0.7c0,0.4,0.4,0.6,0.7,0.6c0,0,0,0,0.1,0c0.4-0.1,0.6-0.4,0.6-0.8
			c0,0,0,0,0,0C227,29.8,226.6,29.5,226.2,29.6C226.2,29.6,226.2,29.6,226.2,29.6"/>
		<path class="st9" d="M232.8,22c-2.3,0.4-3.9,2.6-3.5,4.9s2.6,3.9,4.9,3.5c2.3-0.4,3.9-2.6,3.5-4.9C237.3,23.2,235.1,21.6,232.8,22
			"/>
		<path class="st10" d="M203.4,31.3c2,11.6,11,19.8,20.3,18.3s20.8-15,17.2-28.2C237.8,10,226,7.5,216.7,9S201.5,19.6,203.4,31.3"/>
		<path class="st8" d="M210.5,22.9c0.4,2.7,3,4.6,5.7,4.1c2.7-0.4,4.6-3,4.1-5.7c-0.4-2.7-3-4.6-5.7-4.1c0,0,0,0,0,0
			C211.9,17.6,210.1,20.2,210.5,22.9"/>
		<path class="st8" d="M229.2,26.9c0.4,2.3,2.6,3.9,4.9,3.5c2.3-0.4,3.9-2.6,3.5-4.9s-2.6-3.9-4.9-3.5c0,0,0,0,0,0
			C230.4,22.4,228.8,24.5,229.2,26.9C229.2,26.9,229.2,26.9,229.2,26.9"/>
		<path class="st8" d="M227.1,41.8l0.6-2.7c0.2-0.8-0.3-1.6-1.1-1.8c0,0,0,0,0,0l-3-0.6l-4.9-1l-2.4-0.5c-0.9-0.2-1.8,0.4-2,1.3
			c0,0.1,0,0.1,0,0.2l-0.2,1.7l-0.1,1.2c-0.1,1,0.5,2,1.5,2.3l2.2,0.8l4.5,1.5l1.9,0.7c1,0.4,2.2-0.2,2.6-1.2c0-0.1,0-0.1,0.1-0.2
			L227.1,41.8z"/>
		<polyline class="st14" points="227.1,41.8 227.1,41.8 222.8,40.7 218.2,39.4 214.2,38.3 		"/>
		<polyline class="st14" points="218.7,35.6 218.2,39.4 217.7,43.4 		"/>
		<polyline class="st14" points="223.6,36.7 222.8,40.7 221.9,45.1 		"/>
		<path class="st8" d="M220.4,29.4c0,0.3,0.3,0.5,0.6,0.4c0,0,0,0,0,0c0.3-0.1,0.5-0.3,0.4-0.6c-0.1-0.3-0.3-0.5-0.6-0.4
			C220.6,28.9,220.4,29.2,220.4,29.4C220.4,29.4,220.4,29.4,220.4,29.4"/>
		<path class="st8" d="M225.7,30.4c0.1,0.4,0.4,0.6,0.8,0.6c0,0,0,0,0,0c0.4-0.1,0.6-0.4,0.5-0.8c-0.1-0.3-0.4-0.6-0.7-0.5
			C225.9,29.6,225.6,30,225.7,30.4C225.7,30.3,225.7,30.4,225.7,30.4"/>
		<polygon class="st10" points="35.6,67.6 35.2,75.1 38.5,72.6 40.7,70.3 		"/>
		<path class="st10" d="M150.5,64.3l-1.1,1l0.1,0.2l2.3,5.5c1.3-1,2.4-2.3,3.3-3.7c0.4-0.6,0.7-1.3,1-2L150.5,64.3z"/>
		<path class="st15" d="M187.6,53.4c0.6,1.8-0.2,3.8-2,4.6c-1.6,0.6-3.4-0.5-4.1-2.3"/>
		<path class="st15" d="M179.5,45.3c0,0,4.5-1.6,5.2-0.2c1.9,3.7-3.2,4.8-3.2,4.8"/>
		<polygon class="st10" points="219.1,48.1 215.5,53.3 219,53.6 222.4,54 		"/>
		<polygon class="st10" points="94.2,59.5 94.2,59.7 92.7,66 97,64.2 99.5,63.2 94.4,59.6 		"/>
		<path class="st16" d="M158.8,51.1c1.8-1,3.6-2.1,5.3-3.2"/>
		<path class="st16" d="M174.5,40.3c2.4-2,4.6-4,6.8-6.2c0.7-0.8,1.5-1.5,2.2-2.3c1.5-1.7,2.9-3.5,4.2-5.4"/>
		<path class="st10" d="M103,31.5c1.2,3.4,1.8,6.9,1.7,10.5c0,12.5-5.9,16.3-9.4,17.6c-3.7,1.4-7.7,1.8-11.6,1.2
			c-10.6-2-19.1-11.6-18.4-23.1s11.1-18.5,22-17.8c6.1,0.4,11.6,3.8,14.6,9.2C102.2,29.9,102.6,30.7,103,31.5"/>
		<path class="st8" d="M90.5,42.5c0.4,0,0.7,0.3,0.7,0.7s-0.3,0.7-0.7,0.7c-0.4,0-0.7-0.3-0.7-0.7C89.8,42.8,90.1,42.5,90.5,42.5"/>
		<path class="st8" d="M81.3,32.1c2.8,0.1,5,2.3,5.1,5.1c-0.1,2.7-2.4,4.7-5.1,4.6s-4.7-2.4-4.6-5.1C76.9,34.2,78.8,32.2,81.3,32.1"
			/>
		<path class="st8" d="M101.6,32.6c0.2,2-1.3,3.7-3.2,3.9c-0.2,0-0.4,0-0.6,0c-2.4,0-4.3-1.9-4.3-4.3c-0.1-2.2,1.7-4.1,3.9-4.1
			c0.1,0,0.1,0,0.2,0C99.8,28.2,101.7,30.2,101.6,32.6"/>
		<path class="st8" d="M92.2,47.8l-2.2,0.3c-1.4,0.2-2.5,1.5-2.3,2.9c0,0.2,0.1,0.4,0.1,0.6l0.3,0.8c0.8,2.2,3,3.4,5.3,2.9l0.8-0.2
			l2.3-0.5c0.1,0,0.2,0,0.4-0.1c1.8-0.5,3.2-2.2,3.4-4.1c0-0.1,0-0.2,0-0.3c0-1.7-1.4-3-3-3c-0.1,0-0.2,0-0.3,0L92.2,47.8z"/>
		<path class="st14" d="M87.5,53c1.8-0.8,3.7-1.5,5.5-2c1.2-0.3,2.5-0.5,3.8-0.6c1.1-0.1,2.3-0.1,3.4,0.1"/>
		<polyline class="st14" points="97,47.2 96.9,50.4 96.8,55.2 		"/>
		<polyline class="st14" points="92.2,47.8 93.1,51 94.4,55.6 		"/>
		<path class="st8" d="M91.2,43.2c0,0.4-0.3,0.7-0.7,0.7c-0.4,0-0.7-0.3-0.7-0.7c0-0.4,0.3-0.7,0.7-0.7S91.2,42.8,91.2,43.2
			C91.2,43.2,91.2,43.2,91.2,43.2"/>
		<path class="st8" d="M95.8,41.4c0,0.3-0.3,0.6-0.6,0.6c0,0,0,0,0,0c-0.3,0-0.6-0.3-0.6-0.6c0-0.3,0.3-0.6,0.6-0.6
			C95.6,40.8,95.8,41.1,95.8,41.4C95.8,41.4,95.8,41.4,95.8,41.4"/>
		<path class="st10" d="M127.1,61.9c9.1,8.5,18.8,6,22.1,4.3c3-1.5,4.7-3.1,6.9-6.7c5.8-9,4.7-21.9-4.2-29.3s-21-4.6-28,3.8
			C119.9,39,114.8,50.5,127.1,61.9"/>
		<path class="st8" d="M138.2,51c-0.3,0.3-0.3,0.7,0,1c0.3,0.3,0.7,0.3,1,0c0.3-0.3,0.3-0.7,0-1C138.9,50.7,138.4,50.7,138.2,51"/>
		<path class="st8" d="M140.8,35.2c-1.8,2.1-1.7,5.2,0.2,7.2c2,1.7,5.1,1.5,6.8-0.5s1.5-5.1-0.5-6.8
			C145.3,33.5,142.6,33.5,140.8,35.2"/>
		<path class="st8" d="M127.2,51.3c1.3,1.5,3.5,1.6,5,0.3c0.2-0.1,0.3-0.3,0.4-0.5c1.6-1.7,1.6-4.5-0.2-6.1c0,0,0,0,0,0
			c-1.5-1.6-4.1-1.6-5.7-0.1c-0.1,0.1-0.1,0.1-0.2,0.2C125.2,47,125.4,49.7,127.2,51.3"/>
		<path class="st8" d="M144.1,54.5l1.7-1.4c1.1-0.9,2.8-0.8,3.7,0.3c0.1,0.2,0.2,0.3,0.3,0.5l0.4,0.7c1,2,0.4,4.5-1.5,5.8L148,61
			l-1.9,1.3l-0.3,0.2c-1.7,1-3.7,0.8-5.3-0.3l-0.3-0.2c-1.2-1.2-1.2-3.1-0.1-4.2c0.1-0.1,0.2-0.1,0.2-0.2L144.1,54.5z"/>
		<path class="st14" d="M151.1,54.6c-1.8,0.8-3.6,1.6-5.3,2.7c-1.1,0.7-2.1,1.5-3,2.3c-0.8,0.8-1.6,1.6-2.3,2.6"/>
		<polyline class="st14" points="140.4,57.5 142.8,59.6 146.4,62.8 		"/>
		<polyline class="st14" points="144.1,54.5 145.9,57.3 148.3,61.4 		"/>
		<path class="st8" d="M142,49.1c0.3,0.3,0.7,0.3,1,0c0.3-0.3,0.3-0.7,0-1c-0.2-0.3-0.7-0.4-1-0.2s-0.4,0.7-0.2,1
			C141.9,49,142,49,142,49.1"/>
		<polygon class="st2" points="174.9,91.9 174.4,91.9 169.3,93.6 175.1,93.6 175.2,93.5 181.1,91.9 		"/>
		<path class="st3" d="M169.3,93.6v40.2H52.9V96.2h-6.8v5.9c0,0.2,0,0.4,0,0.6v52.1l129,1.9V93.6H169.3z"/>
		<path class="st17" d="M37.3,72.3c0.1,0.1,8,12.3,10.3,23.4c0,0.2,0.1,0.3,0.1,0.5c0.5,2.6,1,5.2,1.4,7.9c1.2,0.5,2.5,0.8,3.9,1.1
			c1.8,0.4,3.6,0.2,5.3-0.5"/>
		<path class="st17" d="M46.1,104.7c0,0,0.8,1.2,2.9-0.6"/>
		<path class="st17" d="M100.6,91.4c1.2,0.8,2.7,0.7,3.8-0.3c0.9,0,1.7,0,2.6-0.2c2.2-0.3,5.1-1.1,6-3.2"/>
		<path class="st17" d="M94.2,59.5l0.1,0.1c1,1.5,1.9,3,2.7,4.6c3.2,6.2,5.4,12.9,6.5,19.8c0,0.3,0.1,0.6,0.1,0.9
			c0.3,2,0.6,4.1,0.7,6.2"/>
		<polygon class="st3" points="214.2,119 173.5,131.3 172,134.2 220.4,119.1 		"/>
		<path class="st1" d="M220.4,83.2v35.9l-39.3,12.3V91.9l-5.8,1.7c0.2,1.3,0.1,2.7-0.1,4v59.2l51.8-19.3V81.3
			C223.9,82.1,221.9,82.7,220.4,83.2"/>
		<polygon class="st1" points="107,133.8 106.8,118.7 52.9,133.8 58.2,133.8 81.2,133.8 		"/>
		<polygon class="st3" points="100.6,119.1 58.2,130.5 58.2,132.3 105.2,119.1 		"/>
		<polygon class="st2" points="169.3,132.3 58.2,132.3 52.9,133.8 169.3,133.8 		"/>
		<path class="st10" d="M202.1,119.8c0,0,8.7-1.5,8.9,2.3c0,0.1,0,0.1,0,0.2c-0.4,3.7-16.4,5.6-16.4,5.6v-0.1l-0.2-12.9l7.8-1.2
			l-0.1,1.5L202.1,119.8z"/>
		<path class="st7" d="M163.7,115.3c0-4.2-0.3-8.5-0.8-12.7c2.2,0,4.3,0.8,6.6,0.7v25.5h-7.3l0.1-0.4
			C163.1,124.1,163.6,119.7,163.7,115.3"/>
		<path class="st17" d="M219.4,89.1c0,0-4,0.5-5.5,3.1"/>
		<path class="st17" d="M218.9,53.4l0.1,0.2c0.3,0.9,1.1,8.7,1.4,14.8"/>
		<path class="st17" d="M220.5,67.5c0.2,3.4-0.8,20.2-1,21.6c0.3,0,0.7,0,1,0c2.3,0.4,4.5,1.2,6.5,2.4"/>
		<path class="st18" d="M223.6,62.9c2.1,0-0.2,7.2-0.6,10c-0.1,0.6-0.5,1-1,1.2c-4.2,1.6-5.1,0.3-4.3-0.9c0.4-0.6,1.5-0.9,2.2-1.4
			c-4.3,0.5-5.1-1.3-1.7-2.3c0.6-0.2,1.2-0.1,1.8-0.3c-7.6-0.5-2-2.9,1.2-2.9C221.2,66.4,222,62.9,223.6,62.9"/>
		<path class="st17" d="M169.4,101.5c1.4,0.6,3.1,0.3,4.2-0.7c0.7-1,1.2-2.1,1.5-3.3c0.3-1.3,0.3-2.7,0.1-4
			c-0.1-0.6-0.2-1.1-0.3-1.7c-1-4.5-4-9.3-8-13.6c-1.9-2.1-4-4-6.2-5.8c-2.1-1.7-4.4-3.2-6.7-4.4c0,0-0.1,0-0.1-0.1"/>
		<path class="st17" d="M173.6,100.8c0.5,0.3,0.9,0.5,1.5,0.7c2,0.5,4,0.7,6,0.6"/>
	</g>
</g>
</svg>
