<?xml version="1.0" encoding="utf-8"?>
<!-- Generator: Adobe Illustrator 26.2.1, SVG Export Plug-In . SVG Version: 6.00 Build 0)  -->
<svg version="1.1" id="Capa_1" xmlns="http://www.w3.org/2000/svg" xmlns:xlink="http://www.w3.org/1999/xlink" x="0px" y="0px"
	 viewBox="0 0 210.8 202.1" style="enable-background:new 0 0 210.8 202.1;" xml:space="preserve">
<style type="text/css">
	.st0{fill:#0E842C;}
	.st1{fill:#9CBB2C;}
	.st2{fill:#FFFFFF;}
	.st3{fill:#1D1D1B;}
	.st4{fill:#36AC2C;}
	.st5{fill:#36A72C;}
	.st6{fill:#C0C82C;}
	.st7{fill:#6D66B0;}
	.st8{fill:#543DB3;}
	.st9{opacity:0.34;}
	.st10{fill:#349FA9;}
	.st11{fill:#CEEA9A;}
	.st12{fill:#5E9000;}
	.st13{fill:#74B300;}
	.st14{fill:#C4B6B8;}
	.st15{fill:#79898E;}
</style>
<g>
	<g>
		<path class="st0" d="M183.2,75c0,0-1.7-8.2-13.1-3.7c-11.4,4.5-11.3,5.2-13.9,4.5c-2.6-0.7-6.6,2.8-11.8,0.4c-5.2-2.5-4.9-3-11-1
			c-6.1,1.9-6.8,1.9-12.5-1.1c-5.7-3-9.9-4.4-13.8-1.6c-3.9,2.8-3.5,2.5-6.7,3.5c-3.2,1-1.4,1.7-3.8,2.3c-2.4,0.6-6.9-1.7-4.1,2.6
			c2.8,4.3,3.6,5.4,8.1,4.8c4.5-0.6,1.8-3.1,9.8-1.7c8,1.4,4.2,6.2,14.7,6.6c10.5,0.4,5.5-3.1,16.3,0.6c10.8,3.7,18.5,5.6,26,1.5
			c7.5-4.1,10.2-4.7,10.2-4.7L183.2,75z"/>
		<path class="st0" d="M141.4,91.2c-4.6-1.6-6.3-1.8-7.5-1.7c-0.5,0.1-1,0.2-1.5,0.3c-0.7,0.2-1.6,0.5-3.1,0.6
			c-1.2,0.1-2.6,0.1-4.2,0.1c-5.8-0.2-7.2-1.7-8.7-3.4c-1.2-1.3-2.4-2.6-6-3.2c-2.1-0.4-3.6-0.5-4.6-0.4c-1.1,0.1-1.6,0.5-2.2,0.9
			c-0.6,0.5-1.3,1-3,1.2c-0.2,0-0.5,0.1-0.7,0.1c-4.1,0.4-4.9-0.9-7.5-4.9c-0.8-1.2-1-1.9-0.8-2.3c0.1-0.2,0.4-0.4,0.8-0.4
			c0.4,0,1,0,1.6,0.1c0.7,0.1,1.4,0.1,2.1,0.1c0.2,0,0.3,0,0.5-0.1c1.1-0.3,1.3-0.6,1.5-0.9c0.3-0.4,0.6-0.9,2.3-1.4
			c0.2-0.1,0.5-0.1,0.7-0.2c2.4-0.8,2.4-0.8,5.7-3.1l0.3-0.2c1.2-0.8,2.4-1.3,3.8-1.5c1.8-0.2,4.3,0.1,10,3c3.6,1.9,5.2,2.6,7.5,2.4
			c1.3-0.1,2.7-0.5,5-1.3c2-0.6,3.4-1,4.5-1.1c1.7-0.2,2.7,0.3,4.9,1.4c0.5,0.2,1,0.5,1.6,0.8c1.5,0.7,3.1,1,4.9,0.8
			c1.2-0.1,2.3-0.4,3.3-0.7c0.8-0.2,1.6-0.5,2.3-0.5c0.5,0,0.9,0,1.2,0.1c0.7,0.2,1.2,0.3,1.8,0.2c1-0.1,2.1-0.6,4.7-1.7
			c1.7-0.7,4.1-1.7,7.4-3c1.8-0.7,3.4-1.1,4.9-1.3c2-0.2,4.8,0,6.8,2.3c1.2,1.3,1.5,2.8,1.5,2.8l0,0L177.8,88l0,0l0,0
			c0,0-2.8,0.6-10.2,4.7c-2.2,1.2-4.6,1.9-7.1,2.2C155.2,95.5,149.5,94,141.4,91.2z M183.1,75c0-0.1-0.4-1.5-1.5-2.8
			c-1.9-2.2-4.7-2.4-6.7-2.2c-1.5,0.2-3.1,0.6-4.9,1.3c-3.3,1.3-5.7,2.3-7.4,3c-2.6,1.1-3.8,1.6-4.8,1.7c-0.6,0.1-1.1,0-1.8-0.2
			c-0.4-0.1-0.8-0.1-1.2-0.1c-0.7,0.1-1.5,0.3-2.3,0.5c-1,0.3-2.1,0.6-3.3,0.7c-1.7,0.2-3.4-0.1-4.9-0.8c-0.6-0.3-1.2-0.6-1.6-0.8
			c-2.2-1.1-3.2-1.6-4.8-1.4c-1.1,0.1-2.5,0.5-4.5,1.1c-2.3,0.7-3.8,1.2-5,1.3c-2.3,0.2-3.9-0.5-7.5-2.4c-5.7-3-8.2-3.2-10-3
			c-1.3,0.1-2.6,0.6-3.8,1.4l-0.3,0.2c-3.3,2.4-3.3,2.4-5.7,3.1c-0.2,0.1-0.4,0.1-0.7,0.2c-1.7,0.5-2,1-2.2,1.4
			c-0.2,0.4-0.4,0.7-1.6,1c-0.1,0-0.3,0.1-0.5,0.1c-0.6,0.1-1.4,0-2.1-0.1c-0.6-0.1-1.2-0.1-1.6-0.1c-0.4,0-0.6,0.2-0.7,0.4
			c-0.2,0.4,0.1,1.1,0.8,2.3c2.7,4.2,3.6,5.3,7.4,4.9c0.2,0,0.4,0,0.7-0.1c1.7-0.2,2.4-0.7,3-1.2c0.5-0.4,1.1-0.8,2.2-0.9
			c1.1-0.1,2.5,0,4.7,0.4c3.6,0.6,4.8,2,6,3.2c1.5,1.6,2.9,3.1,8.6,3.3c1.7,0.1,3,0,4.2-0.1c1.5-0.1,2.4-0.4,3.1-0.6
			c0.5-0.2,1-0.3,1.5-0.4c1.2-0.1,2.9,0.1,7.5,1.7c8.1,2.8,13.7,4.3,19,3.7c2.5-0.3,4.8-1,7-2.2c7.1-3.9,10-4.6,10.2-4.7L183.1,75z"
			/>
	</g>
	<path class="st0" d="M179.2,74.7c0,0,2-3.7-1.9-3.3c-3.9,0.4-6.5,0-12.6,3.2c-6.1,3.3-7.7,3.7-10.4,3.4c-2.7-0.3-1.6,0.7-6.9,1
		c-5.3,0.3-4.3-2.3-7.7-3.3c-3.4-0.9-2.2-0.1-7.9,1.5c-5.7,1.6-4.6,2.8-9.3,0c-4.7-2.9-10.3-6.9-15.1-3.8c-4.8,3.1-1,3.7-3.3,4.2
		c-2.3,0.5-2.5-0.9-4.8,1.6c-2.4,2.5-5.2,3.9,0.6,4.1c5.7,0.3,6.6-4.7,15-0.4c8.4,4.3,5.9,6.5,15.6,3.8c9.6-2.6,10.8,0.7,15.8,2
		c5,1.3,8.8,4.1,17.4,1.4C172.2,87.6,179.2,74.7,179.2,74.7z"/>
	<g>
		<path class="st1" d="M185.1,74.6c-5.9-3.7-15.4-1.6-23.9,1.7c-8.5,3.3-10.4,4-21.2,1.2c-10.8-2.8-12.7,2.8-18.4-0.1
			c-5.8-2.9-10.2-6.7-18.2-0.9c-8,5.8-7.3,3.9-8.8,3.8C93,80.3,94.9,83,98.9,83c4-0.1,7.7-7,18.1,0.4c0,0,3.7,3.7,12.4,1.9
			c8.7-1.7,9.6-0.1,14,1.2c4.5,1.4,13.9,4.2,21.2,1.6c7.3-2.5,13.2,6,19,0.7C189.4,83.5,191,78.3,185.1,74.6z"/>
	</g>
	<path class="st1" d="M159.2,82.2c0,0,2.7-1.1,1.5,0.2c-1.2,1.3-7.4,4.8-10,5.2c-2.6,0.4-5.5-1.9-1.6-4.4
		C153,80.6,159.2,82.2,159.2,82.2z"/>
	<g>
		<path class="st0" d="M161.2,81.7c-1.3-1-3-0.8-4.5-0.8c-1.7-0.1-3.3-0.4-5-0.6c-2.2-0.2-6.7-0.4-6,3.1c0.8,4.1,3.4,4.7,8,2.1
			c1.7-1,3.6-1.8,5.4-2.5C159.9,82.6,160.8,82.4,161.2,81.7z"/>
		<path class="st0" d="M145.7,83.4c-0.2-0.8-0.1-1.5,0.3-2c0.5-0.7,1.4-1.1,2.8-1.2c0.8-0.1,1.8-0.1,3,0c0.6,0.1,1.3,0.2,1.9,0.3
			c1,0.1,2,0.3,3.1,0.3c0.3,0,0.6,0,0.9,0c1.3,0,2.6,0,3.6,0.8l0,0l0,0c-0.4,0.6-1,0.8-1.6,1.1c-0.2,0.1-0.3,0.1-0.5,0.2
			c-1.9,0.8-3.7,1.6-5.4,2.5c-1.6,0.9-3,1.4-4.1,1.5C147.5,87.3,146.3,86.1,145.7,83.4z M157.6,80.9c-0.3,0-0.6,0-0.9,0
			c-1,0-2.1-0.2-3.1-0.3c-0.6-0.1-1.3-0.2-1.9-0.3c-1.1-0.1-2.1-0.1-2.9,0c-1.3,0.1-2.3,0.5-2.7,1.2c-0.4,0.5-0.5,1.1-0.3,1.9
			c0.5,2.6,1.8,3.8,3.9,3.6c1.1-0.1,2.4-0.6,4.1-1.5c1.7-0.9,3.5-1.7,5.4-2.5c0.2-0.1,0.3-0.1,0.5-0.2c0.6-0.2,1.2-0.5,1.6-1
			C160.2,80.9,158.9,80.9,157.6,80.9z"/>
	</g>
	<path class="st0" d="M148.8,85.9c1.2,0.1,2.4-0.7,3.5-1c1.5-0.5,3.1-0.8,4.7-1.4c0.5-0.2,2.6-0.7,2.8-1.3c0.3-0.9-0.1-0.5-2.7-0.1
		c-2.5,0.5-5.6,1.3-8.6,0.5C145.8,81.7,146.3,85.7,148.8,85.9C148.7,85.9,148.8,85.9,148.8,85.9z"/>
	<g>
		<path class="st2" d="M178.8,81.2c1.7,0.9,4.2-1.5,4.2-3.4c0-1.9-3-4.1-5.1-1.9C175.8,78.2,176.8,80.2,178.8,81.2"/>
		<path class="st3" d="M179,78.7c0.3,0.2,0.8-0.3,0.8-0.7c0-0.4-0.6-0.8-1-0.4C178.4,78.2,178.6,78.5,179,78.7"/>
	</g>
</g>
<g>
	<g>
		<path class="st4" d="M199.2,102.6c0,0-1.4-7-11.1-3.2c-9.6,3.8-9.5,4.4-11.8,3.8c-2.2-0.6-5.6,2.4-9.9,0.3
			c-4.4-2.1-4.1-2.5-9.2-0.9c-5.1,1.6-5.8,1.6-10.5-0.9c-4.8-2.5-8.4-3.7-11.6-1.3c-3.3,2.3-3,2.1-5.6,3c-2.7,0.9-1.2,1.5-3.2,2
			c-2,0.5-5.8-1.4-3.5,2.2c2.4,3.6,3,4.6,6.9,4.1c3.8-0.5,1.6-2.6,8.3-1.4c6.8,1.2,3.5,5.2,12.4,5.6c8.8,0.3,4.7-2.6,13.8,0.5
			c9.1,3.1,15.6,4.7,22,1.3c6.3-3.5,8.6-4,8.6-4L199.2,102.6z"/>
		<path class="st4" d="M164,116.3c-3.9-1.3-5.3-1.5-6.3-1.4c-0.5,0-0.8,0.2-1.3,0.3c-0.6,0.2-1.4,0.4-2.6,0.5
			c-1,0.1-2.2,0.1-3.6,0.1c-4.9-0.2-6.1-1.5-7.3-2.8c-1-1.1-2-2.2-5-2.7c-1.8-0.3-3-0.4-3.9-0.3c-0.9,0.1-1.4,0.4-1.8,0.7
			c-0.5,0.4-1.1,0.8-2.6,1c-0.2,0-0.4,0-0.6,0.1c-3.4,0.3-4.2-0.8-6.3-4.1c-0.6-1-0.9-1.6-0.7-2c0.1-0.2,0.3-0.3,0.7-0.4
			c0.4,0,0.9,0,1.4,0.1c0.6,0.1,1.2,0.1,1.7,0.1c0.1,0,0.3,0,0.4-0.1c0.9-0.2,1.1-0.5,1.3-0.8c0.2-0.3,0.5-0.7,1.9-1.2
			c0.2-0.1,0.4-0.1,0.6-0.2c2-0.6,2-0.6,4.8-2.6l0.2-0.2c1-0.7,2-1.1,3.2-1.2c1.6-0.2,3.7,0,8.5,2.6c3.1,1.6,4.4,2.2,6.3,2
			c1.1-0.1,2.2-0.4,4.2-1.1c1.7-0.5,2.9-0.9,3.8-1c1.4-0.1,2.3,0.3,4.1,1.2c0.4,0.2,0.9,0.4,1.4,0.7c1.3,0.6,2.6,0.8,4.1,0.7
			c1-0.1,2-0.4,2.8-0.6c0.7-0.2,1.4-0.4,2-0.5c0.4,0,0.7,0,1.1,0.1c0.6,0.2,1,0.2,1.5,0.2c0.8-0.1,1.8-0.5,4-1.4
			c1.4-0.6,3.4-1.4,6.2-2.5c1.5-0.6,2.9-1,4.2-1.1c1.7-0.2,4.1,0,5.7,1.9c1,1.1,1.2,2.3,1.2,2.4l0,0l-4.6,11l0,0l0,0
			c0,0-2.4,0.5-8.6,4c-1.9,1-3.8,1.6-6,1.9C175.6,119.9,170.8,118.6,164,116.3z M199.2,102.6c0-0.1-0.3-1.3-1.2-2.3
			c-1.6-1.9-4-2.1-5.7-1.9c-1.2,0.1-2.6,0.5-4.1,1.1c-2.8,1.1-4.8,1.9-6.2,2.5c-2.2,0.9-3.2,1.3-4,1.4c-0.5,0.1-1,0-1.5-0.2
			c-0.3-0.1-0.6-0.1-1-0.1c-0.6,0.1-1.3,0.2-2,0.5c-0.8,0.2-1.8,0.5-2.8,0.6c-1.5,0.1-2.8-0.1-4.1-0.7c-0.5-0.2-1-0.5-1.4-0.7
			c-1.8-0.9-2.7-1.3-4.1-1.2c-0.9,0.1-2.1,0.4-3.8,1c-2,0.6-3.2,1-4.2,1.1c-1.9,0.2-3.3-0.4-6.3-2c-4.8-2.5-6.9-2.7-8.4-2.6
			c-1.1,0.1-2.2,0.5-3.2,1.2l-0.2,0.2c-2.8,2-2.8,2-4.8,2.6c-0.2,0.1-0.4,0.1-0.6,0.2c-1.4,0.4-1.7,0.8-1.9,1.2
			c-0.2,0.3-0.4,0.6-1.3,0.8c-0.1,0-0.3,0.1-0.4,0.1c-0.5,0.1-1.2,0-1.8-0.1c-0.5,0-1-0.1-1.4-0.1c-0.3,0-0.5,0.1-0.6,0.3
			c-0.2,0.3,0.1,1,0.7,1.9c2.3,3.5,3,4.4,6.3,4.1c0.2,0,0.4,0,0.6-0.1c1.4-0.2,2-0.6,2.5-1c0.5-0.3,0.9-0.7,1.9-0.8
			c0.9-0.1,2.1,0,3.9,0.3c3,0.5,4.1,1.7,5.1,2.7c1.2,1.4,2.4,2.6,7.3,2.8c1.4,0.1,2.6,0,3.6-0.1c1.2-0.1,2-0.3,2.6-0.5
			c0.4-0.1,0.8-0.2,1.3-0.3c1-0.1,2.4,0.1,6.3,1.4c6.8,2.3,11.6,3.6,16,3.1c2.1-0.2,4.1-0.8,5.9-1.8c6-3.3,8.4-3.9,8.6-4
			L199.2,102.6z"/>
	</g>
	<path class="st5" d="M195.9,102.4c0,0,1.7-3.1-1.6-2.8c-3.3,0.3-5.5,0-10.6,2.7c-5.1,2.7-6.5,3.1-8.7,2.9c-2.3-0.2-1.3,0.6-5.8,0.8
		c-4.4,0.2-3.6-2-6.5-2.7c-2.9-0.8-1.9,0-6.7,1.3c-4.8,1.3-3.9,2.4-7.9,0c-4-2.4-8.7-5.8-12.8-3.2c-4.1,2.6-0.9,3.1-2.8,3.6
		c-2,0.4-2.1-0.7-4.1,1.4c-2,2.1-4.4,3.3,0.5,3.5c4.8,0.2,5.6-4,12.6-0.3c7.1,3.6,5,5.5,13.1,3.2c8.1-2.2,9.1,0.6,13.3,1.7
		c4.2,1.1,7.4,3.5,14.7,1.2C189.9,113.3,195.9,102.4,195.9,102.4z"/>
	<g>
		<path class="st6" d="M200.9,102.3c-5-3.1-13-1.3-20.2,1.5c-7.2,2.8-8.7,3.4-17.8,1.1c-9.1-2.4-10.7,2.4-15.6-0.1
			c-4.9-2.4-8.6-5.6-15.4-0.7c-6.8,4.9-6.1,3.3-7.4,3.2c-1.3-0.1,0.2,2.2,3.6,2.2c3.4-0.1,6.5-5.9,15.2,0.3c0,0,3.1,3.1,10.5,1.6
			c7.4-1.5,8.1-0.1,11.8,1c3.8,1.1,11.7,3.5,17.9,1.4c6.1-2.1,11.1,5.1,16,0.6C204.4,109.8,205.8,105.4,200.9,102.3z"/>
	</g>
	<path class="st1" d="M179,108.7c0,0,2.3-0.9,1.2,0.1c-1,1.1-6.3,4.1-8.4,4.4c-2.2,0.3-4.7-1.6-1.3-3.7
		C173.8,107.4,179,108.7,179,108.7z"/>
	<g>
		<path class="st0" d="M180.7,108.3c-1.1-0.9-2.5-0.7-3.8-0.7c-1.4-0.1-2.8-0.4-4.2-0.5c-1.9-0.2-5.7-0.3-5.1,2.6
			c0.7,3.4,2.9,3.9,6.8,1.8c1.5-0.8,3-1.5,4.5-2.1C179.6,109.1,180.3,108.9,180.7,108.3z"/>
		<path class="st0" d="M167.6,109.7c-0.1-0.7,0-1.2,0.3-1.7c0.4-0.6,1.2-0.9,2.4-1c0.7-0.1,1.5-0.1,2.5,0c0.5,0.1,1.1,0.1,1.6,0.2
			c0.8,0.1,1.7,0.3,2.6,0.3c0.2,0,0.5,0,0.7,0c1.1,0,2.2,0,3.1,0.7l0,0l0,0c-0.3,0.5-0.9,0.7-1.4,0.9c-0.1,0.1-0.3,0.1-0.4,0.2
			c-1.6,0.7-3.1,1.3-4.5,2.1c-1.4,0.8-2.5,1.2-3.5,1.3C169.2,113,168.1,112,167.6,109.7z M177.6,107.6c-0.2,0-0.5,0-0.7,0
			c-0.9,0-1.7-0.2-2.6-0.3c-0.5-0.1-1.1-0.2-1.6-0.2c-0.9-0.1-1.8-0.1-2.5,0c-1.1,0.1-1.9,0.4-2.3,1c-0.3,0.4-0.4,1-0.3,1.6
			c0.5,2.2,1.5,3.2,3.3,3c0.9-0.1,2.1-0.5,3.4-1.3c1.4-0.8,3-1.5,4.5-2.1c0.1-0.1,0.3-0.1,0.4-0.2c0.5-0.2,1-0.4,1.3-0.8
			C179.8,107.6,178.7,107.6,177.6,107.6z"/>
	</g>
	<path class="st0" d="M170.2,111.8c1,0,2-0.6,2.9-0.9c1.3-0.4,2.6-0.7,3.9-1.1c0.4-0.1,2.2-0.6,2.4-1.1c0.2-0.7-0.1-0.5-2.2-0.1
		c-2.1,0.4-4.8,1.1-7.2,0.4C167.7,108.3,168.1,111.7,170.2,111.8C170.2,111.8,170.2,111.8,170.2,111.8z"/>
	<g>
		<path class="st2" d="M197.4,102.7c-1.4-0.8-3.6,1.1-3.7,2.7c-0.1,1.6,2.3,3.6,4.3,1.7C199.9,105.3,199.1,103.6,197.4,102.7"/>
		<path class="st3" d="M197.2,104.8c-0.3-0.2-0.7,0.2-0.7,0.5c0,0.3,0.5,0.7,0.8,0.3C197.7,105.3,197.5,105,197.2,104.8"/>
	</g>
</g>
<g>
	<path class="st7" d="M49.2,85.5l1.7-5c-1.4-0.4-3.4-0.6-4.4-0.7c-4.6-0.2-9.1,0.3-14.6,2.1l2.8,5.2c0,0,3.6-2.1,9-2.1
		C49,85,49.2,85.5,49.2,85.5"/>
	<path class="st8" d="M38,86.2c-2,0.7-3.4,1.1-3.4,1.1l-2.7-5.5c0.7-0.3,3.1-1,4.8-1.3L38,86.2z"/>
	<path class="st8" d="M45.4,85.1c-0.4,0-1.3-0.1-1.7-0.1c-1.3,0-0.6,0-1.8,0.2L41,79.9c1.9-0.2,3.7-0.2,5.4-0.1L45.4,85.1z"/>
	<path class="st8" d="M24,88.3c0.1,0.1,0.1,0.2,0.1,0.2c1.9-0.9,14.5-7.6,24.1-5.5c9.6,2.1,16.6,9.2,16.6,9.2l-3.3,1.6l2,2.4
		c0,0-3.3,2-8.7,2.7c-5.4,0.7-20.3,0.4-24.5-0.6c-4.1-1-5.5-3-7.3-4.6C23.7,91.8,23.7,90.3,24,88.3"/>
	<path class="st7" d="M18.9,89.5c-1.1-1.9-2.4-9.1-2.4-9.1s2.6,1.1,4.8,3.8c1.7,2,2.2,4.3,2.2,4.3c0.4-0.2,2-0.8,3.4-1.5
		c-0.1,0.5,0.1,0.9,0.6,1.4c0,0-1.7,1.1-1.8,2.6c-0.1,1.3,1.8,1.9,2.4,2.1c-0.5-0.1-2.1,0-2.5,1.7c-0.1,0.4,0,1.1,0.3,1.4
		c-2-1.3-2.9-2.4-3.6-3.1c-1,0.4-2.5,1.9-4.9,2.3c-2.3,0.4-4.7,0.7-4.7,0.7C12.4,96.2,16.1,90.6,18.9,89.5"/>
	<path class="st7" d="M31.6,90.4l2.8-2.3c0,0-3-0.2-2.4-3.1c2.9-1.1,6.3-2,9.7-2.4c-1.2,1.4-2.4,3-2.5,3.7c-0.2,1.5,2.6,2.8,2.6,2.8
		s-3.4,0.2-3.9,2.2c-0.5,1.9,2.1,4.2,2.1,4.2l-0.6,3.3c-2.9-0.1-5.5-0.3-7.4-0.5l0.3-3.8C32.3,94.5,28.8,92.7,31.6,90.4"/>
	<path class="st7" d="M47.9,94.5c0,0-1.8-2.4-1.6-3.4c0.1-1,3.1-1.6,3.1-1.6s-2.4-2.5-1.9-4c0.2-0.7,1.1-1.5,2.1-2.3
		C52,84,54.3,85,56.3,86l-1,12.6c-0.2,0-0.3,0-0.5,0.1c-2,0.3-5.4,0.3-9,0.3c-0.3-0.9-0.5-1.8-0.5-2.4
		C45.2,94.7,47.9,94.5,47.9,94.5"/>
	<path class="st8" d="M51.8,89.4c0.2-2,0.9-3.6,1.6-4.8c6.8,2.9,11.4,7.5,11.4,7.5l-3.3,1.6l2,2.4c0,0-3.3,2-8.7,2.7
		c-0.7,0.1-1.6,0.2-2.7,0.2C51.7,96.7,51.4,92.9,51.8,89.4"/>
	<path class="st2" d="M56.9,90.3c-1.4,0.4-1.6,2.9-0.7,3.9c0.9,1.1,3.7,0.8,3.7-1.5C60.1,90.4,58.5,89.8,56.9,90.3"/>
	<path class="st3" d="M58,91.7c-0.3,0.1-0.3,0.6-0.1,0.8c0.2,0.2,0.7,0.2,0.7-0.3C58.6,91.7,58.3,91.6,58,91.7"/>
</g>
<g class="st9">
	<path class="st10" d="M207.6,30.4C160.6,11.1,99.2,20,87.1,22.6c-13.1,2.8-76.9,3.3-84.4-7.8c0,0,8.9,26.5,2.7,57.9
		c-6.2,31.4-8.1,118.4,20.7,122.5c73.7,10.5,162-0.7,174-15.9C212.2,164,207.6,30.4,207.6,30.4z"/>
</g>
<g>
	<path class="st7" d="M-170.3,159.9l3.8-11.1c-3-0.9-7.4-1.4-9.7-1.5c-10.2-0.5-20.1,0.6-32.1,4.7l6.1,11.5c0,0,8-4.6,19.8-4.6
		C-170.7,158.9-170.3,159.9-170.3,159.9"/>
	<path class="st8" d="M-194.9,161.5c-4.4,1.6-7.6,2.5-7.6,2.5l-5.9-12.1c1.5-0.7,6.8-2.2,10.6-2.9L-194.9,161.5z"/>
	<path class="st8" d="M-178.7,159c-0.9,0-2.8-0.2-3.8-0.2c-2.9,0-1.4-0.1-4,0.5l-1.8-11.8c4.2-0.4,8.1-0.5,11.8-0.3L-178.7,159z"/>
	<path class="st8" d="M-225.8,166c0.1,0.3,0.2,0.5,0.2,0.5c4.2-2,32-16.9,53.1-12.2c21.1,4.7,36.6,20.2,36.6,20.2l-7.2,3.4l4.5,5.3
		c0,0-7.3,4.4-19.2,5.9c-11.8,1.5-44.9,0.8-54.1-1.4c-9.1-2.2-12.1-6.6-16.2-10.1C-226.5,173.9-226.5,170.4-225.8,166"/>
	<path class="st7" d="M-237.1,168.7c-2.4-4.2-5.2-20.1-5.2-20.1s5.7,2.5,10.7,8.4c3.7,4.4,4.9,9.6,4.9,9.6c1-0.5,4.4-1.8,7.6-3.3
		c-0.2,1,0.2,2,1.3,3.1c0,0-3.7,2.3-3.9,5.7c-0.2,2.8,4,4.2,5.2,4.5c-1.1-0.3-4.6,0-5.5,3.7c-0.2,0.8,0.1,2.4,0.7,3.1
		c-4.5-2.8-6.5-5.2-7.9-6.8c-2.2,1-5.6,4.2-10.8,5.1c-5,0.9-10.4,1.5-10.4,1.5C-251.5,183.6-243.3,171.1-237.1,168.7"/>
	<path class="st7" d="M-209.2,170.7l6.1-5.1c0,0-6.5-0.4-5.4-6.8c6.4-2.3,13.9-4.5,21.4-5.2c-2.6,3.1-5.2,6.6-5.4,8.2
		c-0.4,3.3,5.6,6.2,5.6,6.2s-7.6,0.5-8.7,4.8s4.7,9.2,4.7,9.2l-1.2,7.3c-6.3-0.3-12.2-0.7-16.3-1.1l0.8-8.4
		C-207.5,179.8-215.3,175.9-209.2,170.7"/>
	<path class="st7" d="M-173.1,179.8c0,0-4-5.2-3.6-7.5c0.3-2.3,6.9-3.5,6.9-3.5s-5.2-5.6-4.2-8.8c0.5-1.5,2.5-3.4,4.6-5
		c5.5,1.5,10.5,3.7,14.9,6.1l-2.2,27.9c-0.3,0.1-0.7,0.1-1,0.1c-4.4,0.6-11.9,0.7-19.9,0.6c-0.7-1.9-1.1-3.9-1.2-5.3
		C-179.1,180.2-173.1,179.8-173.1,179.8"/>
	<path class="st8" d="M-164.6,168.5c0.5-4.4,1.9-7.9,3.5-10.6c15,6.4,25.2,16.5,25.2,16.5l-7.2,3.4l4.5,5.3c0,0-7.3,4.4-19.2,5.9
		c-1.6,0.2-3.6,0.4-5.9,0.5C-164.8,184.5-165.5,176.3-164.6,168.5"/>
	<path class="st2" d="M-153.2,170.4c-3.1,0.8-3.5,6.4-1.5,8.7c2,2.3,8.1,1.9,8.3-3.3C-146.3,170.7-149.6,169.5-153.2,170.4"/>
	<path class="st3" d="M-150.8,173.6c-0.6,0.2-0.7,1.3-0.3,1.7c0.4,0.5,1.6,0.4,1.6-0.6C-149.4,173.6-150.1,173.4-150.8,173.6"/>
</g>
<g>
	<g>
		<path class="st10" d="M208.3,29.1c-12.2-5.3-25.6-8-38.7-10.1c-14.8-2.3-29.9-3.6-44.9-3.3c-6.1,0.1-12.3,0.6-18.4,1.7
			c-3.7,0.7-7.4,1.4-11.1,2c-12.9,2-25.9,3.2-38.9,3.1c-15.6,0-31.6-1.6-46.3-6.9c-1.8-0.7-3.6-1.4-5.4-2.1
			c-1.8-0.8-3.3,1.8-1.5,2.6c14.5,6.4,30.4,8.8,46.1,9.3C63.1,26,77,25,90.8,23.1c9.3-1.3,18.4-3.5,27.8-4.1c14.6-0.9,29.4,0.1,44,2
			c13.7,1.8,27.6,4.4,40.5,9.2c1.2,0.5,2.5,1,3.7,1.5C208.6,32.5,210.1,29.9,208.3,29.1L208.3,29.1z"/>
	</g>
</g>
<g>
	<circle class="st2" cx="70.4" cy="93.4" r="1.2"/>
	<circle class="st2" cx="75.1" cy="77.3" r="1.7"/>
	<circle class="st2" cx="70.8" cy="58.6" r="2.6"/>
	<circle class="st2" cx="76.8" cy="41.6" r="3.3"/>
</g>
<path class="st11" d="M6,175.2c9-7.4,3.1-5.2,54.8-3.8c24.1,0.7,28.2,0.8,64.6-5.1c36.3-5.9,84,8.2,81.9,15.1
	c-2.1,6.9,0.7,17-15.7,17.9s-138.4,4.1-157.4-3.4S-3,182.5,6,175.2z"/>
<g>
	<g>
		<g>
			<g>
				<path class="st12" d="M121.3,187.6c-0.2-1.8-0.9-3.4-1.5-5.1c-0.6-1.7-1.3-3.8-0.5-5.5c0.8-1.5,2.5-2.6,3.5-4
					c1.1-1.4,1.9-2.8,2.6-4.4c1.3-3.1,1.9-6.5,1.5-9.8c-0.4-4-2.1-7.8-2.6-11.8c-0.5-4.7-0.2-9.4,0.2-14.1c0.1-1.3-2-1.3-2.1,0
					c-0.3,4.1-0.6,8.3-0.3,12.5c0.1,2,0.4,3.9,0.8,5.8c0.5,2.1,1.2,4,1.6,6.1c0.7,3.5,0.3,7.1-1,10.4c-0.7,1.6-1.6,3.1-2.7,4.4
					c-1.1,1.3-2.7,2.4-3.5,4c-2,4,1.3,7.7,1.8,11.5C119.4,188.9,121.5,188.9,121.3,187.6L121.3,187.6z"/>
			</g>
		</g>
		<g>
			<g>
				<path class="st12" d="M127.7,156.9c-0.5-2.9,0.2-5.6,1.5-8.1c1.2-2.3,2.3-4.6,2.6-7.2c0.3-2.4,0.1-4.7,0.2-7.1
					c0-2.2,0.2-4.5,1.9-6.1c0.9-0.9-0.5-2.4-1.5-1.5c-3.7,3.6-2.1,9.3-2.5,13.8c-0.2,1.5-0.5,3-1.1,4.3c-0.6,1.4-1.4,2.7-2.1,4.1
					c-1.2,2.6-1.5,5.4-1,8.3C125.9,158.7,127.9,158.2,127.7,156.9L127.7,156.9z"/>
			</g>
		</g>
		<g>
			<g>
				<path class="st12" d="M122.9,172.1c0-2.2,0-4.5,0-6.7c0-1,0-2-0.3-3c-0.3-0.8-0.8-1.4-1.2-2.1c-1.9-3.4-0.6-7.6-1-11.3
					c-0.1-1.3-2.2-1.3-2.1,0c0.4,3.6-0.7,7.5,0.7,11c0.3,0.8,0.7,1.5,1.1,2.2c0.6,1,0.7,1.9,0.7,3.1c0,2.2,0,4.5,0,6.7
					C120.9,173.4,122.9,173.4,122.9,172.1L122.9,172.1z"/>
			</g>
		</g>
	</g>
	<g>
		<g>
			<path class="st13" d="M110.8,186.5c0.6-5.5-0.5-11-3.1-15.8c-0.6-1.2-2.4-0.1-1.8,1c2.4,4.5,3.4,9.7,2.8,14.8
				C108.6,187.8,110.7,187.8,110.8,186.5L110.8,186.5z"/>
		</g>
	</g>
	<g>
		<g>
			<path class="st13" d="M111.7,184.9c-0.2-6.5,0.2-13,1.3-19.4c0.2-1.3-1.8-1.8-2-0.5c-1.1,6.6-1.6,13.2-1.4,19.9
				C109.7,186.2,111.8,186.3,111.7,184.9L111.7,184.9z"/>
		</g>
	</g>
	<g>
		<g>
			<path class="st13" d="M46.2,187c1.4-4.2,1.2-8.7,1.2-13.1c0-4.7-0.1-9.4,0.2-14c0.1-2.3,0.3-4.7,0.6-7c0.3-2.3,0.7-4.5,0.9-6.8
				c0.3-4.2-1.2-8-3.5-11.5c-2.3-3.6-6.7-8.3-4-12.8c0.7-1.1-1.1-2.2-1.8-1c-2.1,3.5-0.8,7.6,1.2,10.8c2.2,3.5,5.1,6.8,5.8,11.1
				c0.4,2.3,0,4.8-0.4,7.1c-0.3,2.2-0.6,4.5-0.8,6.7c-0.4,4.7-0.4,9.5-0.4,14.3c0,5.2,0.6,10.7-1.1,15.7
				C43.8,187.7,45.8,188.3,46.2,187L46.2,187z"/>
		</g>
	</g>
	<g>
		<g>
			<path class="st13" d="M46,177.5c-0.3-3.1-1.4-6-3.3-8.4c-1.7-2.2-5.5-4.5-4.8-7.7c0.3-1.3-1.7-1.8-2-0.5c-0.7,3.5,1.8,6,4,8.2
				c2.3,2.3,3.7,5.2,4,8.4C44.1,178.8,46.1,178.8,46,177.5L46,177.5z"/>
		</g>
	</g>
	<g>
		<g>
			<path class="st13" d="M47.7,183.3c0.8-2.1,0.7-4.4,1.4-6.5c0.7-2.2,3-3.1,4.2-5c0.7-1.1-1.1-2.1-1.8-1c-0.6,0.9-1.6,1.6-2.4,2.3
				c-0.9,0.8-1.5,1.8-1.9,2.9c-0.8,2.2-0.7,4.5-1.5,6.7c-0.2,0.5,0.2,1.1,0.7,1.3C47,184.1,47.5,183.8,47.7,183.3L47.7,183.3z"/>
		</g>
	</g>
	<g>
		<g>
			<g>
				<path class="st12" d="M21.5,185.6c-0.2-3.7-0.4-7.5-1.9-10.9c-1.4-3.2-3.8-6-4.8-9.5c-0.4-1.3-2.3-0.7-2,0.5
					c0.9,3.3,3,6,4.6,9.1c1.7,3.4,1.9,7.1,2.1,10.8C19.5,186.9,21.6,186.9,21.5,185.6L21.5,185.6z"/>
			</g>
		</g>
		<g>
			<g>
				<path class="st12" d="M20.6,174.5c-0.6-1.5-0.5-3,0-4.4c0.5-1.4,1-2.8,1.1-4.3c0.2-2.8-0.8-5.6-2.6-7.8c-0.9-1-2.3,0.4-1.5,1.5
					c1.7,2,2.4,4.7,1.9,7.3c-0.3,1.4-1,2.6-1.3,4c-0.3,1.5-0.2,2.9,0.3,4.3C19.1,176.3,21,175.7,20.6,174.5L20.6,174.5z"/>
			</g>
		</g>
		<g>
			<g>
				<path class="st12" d="M20.9,185.6c-0.8-0.9-1.5-2-2-3.2c-0.4-1.1-0.8-2.4-1.2-3.6c-0.2-0.5-0.7-0.9-1.3-0.7
					c-0.5,0.1-0.9,0.7-0.7,1.3c0.8,2.7,1.7,5.5,3.7,7.7c0.4,0.4,1.1,0.4,1.5,0C21.3,186.6,21.2,186,20.9,185.6L20.9,185.6z"/>
			</g>
		</g>
		<g>
			<g>
				<path class="st12" d="M22,183.6c0,0.3,0-0.1,0-0.2c0-0.1,0-0.2,0.1-0.4c0-0.2,0.1-0.4,0.1-0.6c0.1-0.4,0.2-0.9,0.4-1.3
					c0,0,0.2-0.4,0.1-0.2c0-0.1,0.1-0.2,0.1-0.2c0.1-0.2,0.2-0.4,0.3-0.6c0.2-0.4,0.4-0.8,0.7-1.1c0.3-0.4,0.1-1.2-0.4-1.4
					c-0.5-0.3-1.1-0.1-1.4,0.4c-1.2,1.7-1.9,3.6-2.1,5.7c-0.1,0.5,0.5,1,1,1C21.5,184.6,21.9,184.2,22,183.6L22,183.6z"/>
			</g>
		</g>
	</g>
	<g>
		<g>
			<path class="st14" d="M121.3,187.8C121.3,187.8,121.2,187.8,121.3,187.8c0,0,0.1,0,0.2,0C121.4,187.8,121.4,187.8,121.3,187.8
				c0.1,0,0.2,0,0.3,0c-0.1,0-0.1,0-0.2,0c0.1,0,0.2,0.1,0.2,0.1c-0.1,0-0.1-0.1-0.2-0.1c0.1,0.1,0.1,0.1,0.2,0.2
				c-0.1-0.1-0.1-0.1-0.2-0.2c0.1,0.1,0.1,0.1,0.2,0.2c-0.1-0.1-0.1-0.1-0.1-0.2c0,0.1,0.1,0.2,0.1,0.2c0-0.1-0.1-0.2-0.1-0.2
				c0,0.1,0,0.2,0,0.3c0-0.1,0-0.1,0-0.2c0,0.1,0,0.2,0,0.3c0-0.1,0-0.2,0.1-0.3c0,0.1-0.1,0.2-0.1,0.2c0-0.1,0.1-0.2,0.2-0.3
				c-0.1,0.1-0.1,0.1-0.2,0.2c0.1-0.1,0.2-0.2,0.2-0.2c-0.1,0.1-0.1,0.1-0.2,0.2c0.1-0.1,0.2-0.1,0.3-0.2c-0.1,0-0.2,0.1-0.2,0.1
				c0.1-0.1,0.3-0.1,0.4-0.1c-0.1,0-0.2,0-0.3,0c0.2,0,0.4,0,0.6,0c-0.1,0-0.2,0-0.3,0c0.3,0,0.6,0.1,0.8,0.2
				c-0.1,0-0.2-0.1-0.2-0.1c0.1,0,0.1,0.1,0.2,0.1c-0.1-0.1-0.1-0.1-0.2-0.2c0,0,0.1,0.1,0.1,0.1c-0.1-0.1-0.1-0.1-0.2-0.2
				c0,0,0,0,0,0.1c0-0.1-0.1-0.2-0.1-0.2c0,0.1,0,0.1,0,0.2c0-0.1,0-0.2,0-0.3c0,0.1,0,0.2,0,0.3c0-0.1,0-0.2,0-0.3
				c0,0.3-0.1,0.7-0.2,1c0-0.1,0.1-0.2,0.1-0.2c-0.1,0.1-0.1,0.2-0.2,0.3c0.1-0.1,0.1-0.1,0.2-0.2c-0.1,0.1-0.1,0.1-0.2,0.2
				c0.1-0.1,0.1-0.1,0.2-0.2c-0.1,0-0.1,0.1-0.2,0.1c0.1,0,0.2-0.1,0.2-0.1c-0.1,0-0.1,0-0.2,0c0.1,0,0.2,0,0.3,0
				c-0.1,0-0.1,0-0.2,0c0.1,0,0.2,0,0.3,0c-0.1,0-0.2,0-0.2-0.1c0.1,0,0.2,0.1,0.2,0.1c-0.1,0-0.1-0.1-0.2-0.1
				c0.1,0.1,0.1,0.1,0.2,0.2c-0.1,0-0.1-0.1-0.1-0.1c0.1,0.1,0.1,0.1,0.2,0.2c0,0,0-0.1-0.1-0.1c0,0.1,0.1,0.2,0.1,0.2
				c0,0,0-0.1,0-0.1c0,0.1,0,0.2,0,0.3c0,0,0-0.1,0-0.1c0,0.1,0,0.2,0,0.3c0,0,0-0.1,0-0.1c0.2-0.5-0.2-1.1-0.7-1.3
				c-0.6-0.1-1.1,0.2-1.3,0.7c-0.2,0.5,0,1.2,0.5,1.5c0.5,0.4,1.1,0.5,1.7,0.4c1-0.2,1.5-1.3,1.6-2.2c0.1-0.3,0.1-0.6,0-1
				c-0.1-0.4-0.4-0.8-0.7-1c-0.5-0.3-1-0.4-1.6-0.4c-1.1-0.1-2.2,0.5-2.7,1.6c-0.2,0.6-0.1,1.3,0.2,1.8c0.2,0.3,0.4,0.5,0.7,0.7
				c0.4,0.2,0.8,0.2,1.2,0.2c0.2,0,0.5-0.3,0.6-0.5c0.1-0.2,0.2-0.5,0.1-0.8c-0.1-0.2-0.2-0.5-0.5-0.6
				C121.8,187.8,121.6,187.8,121.3,187.8L121.3,187.8z"/>
		</g>
	</g>
	<g>
		<g>
			<path class="st14" d="M113,187c0.4-0.3,0.4-0.2,0.2-0.2c0.1,0,0.2,0,0.3,0c0,0-0.1,0-0.1,0c0.1,0,0.2,0,0.3,0c0,0-0.1,0-0.1,0
				c-0.2,0,0.2,0.1,0.1,0c-0.1-0.1,0.2,0.2,0.1,0.1c-0.1-0.1,0,0,0,0.1c0-0.1-0.1-0.1-0.1-0.2c0-0.1-0.1-0.2-0.1-0.3
				c-0.2-0.3-0.4-0.7-0.7-0.9c-0.7-0.7-1.7-0.9-2.7-0.5c-0.8,0.4-1.3,1.4-1,2.3c0.3,0.8,1,1.5,1.8,1.7c0.9,0.3,1.9,0,2.8,0.2
				c-0.1,0-0.2,0-0.3,0c0,0,0,0,0.1,0c0.3,0,0.5,0.1,0.8-0.1c0.2-0.1,0.3-0.3,0.4-0.5c0.2-0.5,0-1-0.4-1.3c-0.7-0.5-1.4-0.8-2.2-0.9
				c-0.3,0-0.5,0-0.8,0.1c-0.2,0.1-0.4,0.4-0.5,0.6c-0.1,0.5,0.2,1.2,0.7,1.3c0.2,0,0.3,0.1,0.5,0.1c0.2,0,0.3,0.1,0.5,0.2
				c0,0-0.2-0.1-0.1,0c0,0,0.1,0,0.1,0.1c0.1,0,0.1,0.1,0.2,0.1c0.2,0.1,0.3,0.2,0.5,0.3c0.3-0.6,0.5-1.3,0.8-1.9
				c-0.5-0.1-0.9-0.1-1.4-0.1c-0.4,0-0.8,0-1.2,0c0.1,0,0.2,0,0.3,0c-0.1,0-0.2,0-0.3-0.1c0,0-0.1,0-0.1,0c-0.1,0,0.2,0.1,0.1,0
				c-0.1,0-0.1-0.1-0.2-0.1c0,0-0.1,0-0.1-0.1c0,0,0.2,0.2,0.1,0.1c-0.1,0-0.1-0.1-0.2-0.2c-0.1-0.1,0.1,0.2,0.1,0.1
				c0,0,0-0.1-0.1-0.1c0,0,0-0.1-0.1-0.1c-0.1-0.1,0.1,0.3,0,0.1c0-0.1,0-0.1-0.1-0.2c0,0.1,0,0.2,0,0.3c0-0.1,0-0.1,0-0.2
				c0,0.1,0,0.2,0,0.3c0,0,0-0.1,0-0.1c0-0.2-0.1,0.2,0,0.1c0,0,0-0.1,0.1-0.1c-0.1,0.1-0.1,0.2-0.1,0.1c0,0,0,0,0-0.1
				c0.1-0.1-0.2,0.1-0.1,0.1c0,0,0.1,0,0.1-0.1c-0.2,0.1-0.2,0.1-0.1,0c0,0,0.1,0,0.1,0c-0.1,0-0.2,0-0.3,0c0.1,0,0.2,0,0.3,0
				c-0.1,0-0.2,0-0.3,0c0.1,0,0.1,0,0.2,0c0,0,0.1,0,0.1,0c0,0-0.2-0.1-0.1,0c0,0,0.1,0,0.1,0.1c0,0,0.2,0.1,0,0
				c-0.1-0.1,0,0,0.1,0.1c0.1,0.1,0.1,0.1,0.1,0.2c0.1,0.1-0.1-0.2-0.1-0.1c0,0,0,0.1,0.1,0.1c0.1,0.1,0.2,0.3,0.2,0.4
				c0.2,0.4,0.4,0.7,0.8,1c0.2,0.1,0.5,0.2,0.8,0.2c0.4,0,0.7-0.2,1-0.4c0.2-0.2,0.3-0.5,0.3-0.7c0-0.3-0.1-0.6-0.3-0.7
				c-0.2-0.2-0.5-0.3-0.7-0.3C113.4,186.7,113.2,186.8,113,187L113,187z"/>
		</g>
	</g>
	<g>
		<g>
			<path class="st14" d="M44.8,186.8c0.4-0.3,0.4-0.2,0.2-0.2c0.1,0,0.2,0,0.3,0c0,0-0.1,0-0.1,0c0.1,0,0.2,0,0.3,0c0,0-0.1,0-0.1,0
				c-0.2,0,0.2,0.1,0.1,0c-0.1-0.1,0.2,0.2,0.1,0.1c-0.1-0.1,0,0,0,0.1c0-0.1-0.1-0.1-0.1-0.2c0-0.1-0.1-0.2-0.1-0.3
				c-0.2-0.3-0.4-0.7-0.7-0.9c-0.7-0.7-1.7-0.9-2.7-0.5c-0.8,0.4-1.3,1.4-1,2.3c0.3,0.8,1,1.5,1.8,1.7c0.9,0.3,1.9,0,2.8,0.2
				c-0.1,0-0.2,0-0.3,0c0,0,0,0,0.1,0c0.3,0,0.5,0.1,0.8-0.1c0.2-0.1,0.3-0.3,0.4-0.5c0.2-0.5,0-1-0.4-1.3c-0.7-0.5-1.4-0.8-2.2-0.9
				c-0.3,0-0.5,0-0.8,0.1c-0.2,0.1-0.4,0.4-0.5,0.6c-0.1,0.5,0.2,1.2,0.7,1.3c0.2,0,0.3,0.1,0.5,0.1c0.2,0,0.3,0.1,0.5,0.2
				c0,0-0.2-0.1-0.1,0c0,0,0.1,0,0.1,0.1c0.1,0,0.1,0.1,0.2,0.1c0.2,0.1,0.3,0.2,0.5,0.3c0.3-0.6,0.5-1.3,0.8-1.9
				c-0.5-0.1-0.9-0.1-1.4-0.1c-0.4,0-0.8,0-1.2,0c0.1,0,0.2,0,0.3,0c-0.1,0-0.2,0-0.3-0.1c0,0-0.1,0-0.1,0c-0.1,0,0.2,0.1,0.1,0
				c-0.1,0-0.1-0.1-0.2-0.1c0,0-0.1,0-0.1-0.1c0,0,0.2,0.2,0.1,0.1c-0.1,0-0.1-0.1-0.2-0.2c-0.1-0.1,0.1,0.2,0.1,0.1
				c0,0,0-0.1-0.1-0.1c0,0,0-0.1-0.1-0.1c-0.1-0.1,0.1,0.3,0,0.1c0-0.1,0-0.1-0.1-0.2c0,0.1,0,0.2,0,0.3c0-0.1,0-0.1,0-0.2
				c0,0.1,0,0.2,0,0.3c0,0,0-0.1,0-0.1c0-0.2-0.1,0.2,0,0.1c0,0,0-0.1,0.1-0.1c-0.1,0.1-0.1,0.2-0.1,0.1c0,0,0,0,0-0.1
				c0.1-0.1-0.2,0.1-0.1,0.1c0,0,0.1,0,0.1-0.1c-0.2,0.1-0.2,0.1-0.1,0c0,0,0.1,0,0.1,0c-0.1,0-0.2,0-0.3,0c0.1,0,0.2,0,0.3,0
				c-0.1,0-0.2,0-0.3,0c0.1,0,0.1,0,0.2,0c0,0,0.1,0,0.1,0c0,0-0.2-0.1-0.1,0c0,0,0.1,0,0.1,0.1c0,0,0.2,0.1,0,0
				c-0.1-0.1,0,0,0.1,0.1c0.1,0.1,0.1,0.1,0.1,0.2c0.1,0.1-0.1-0.2-0.1-0.1c0,0,0,0.1,0.1,0.1c0.1,0.1,0.2,0.3,0.2,0.4
				c0.2,0.4,0.4,0.7,0.8,1c0.2,0.1,0.5,0.2,0.8,0.2c0.4,0,0.7-0.2,1-0.4c0.2-0.2,0.3-0.5,0.3-0.7c0-0.3-0.1-0.6-0.3-0.7
				c-0.2-0.2-0.5-0.3-0.7-0.3C45.2,186.5,45,186.6,44.8,186.8L44.8,186.8z"/>
		</g>
	</g>
	<g>
		<g>
			<path class="st15" d="M107.3,187.3c0,0-0.1-0.1-0.1-0.1c0,0.1,0.1,0.2,0.1,0.2c0-0.1-0.1-0.2-0.1-0.2c0,0.1,0,0.2,0,0.3
				c0-0.1,0-0.2,0-0.3c0,0.1,0,0.2,0,0.3c0-0.1,0-0.2,0.1-0.3C107.3,187.2,107.3,187.3,107.3,187.3c0,0,0-0.1,0.1-0.2
				C107.3,187.2,107.3,187.2,107.3,187.3c0,0,0.1-0.1,0.1-0.2C107.4,187.1,107.3,187.2,107.3,187.3c0.1-0.1,0.2-0.2,0.3-0.2
				c-0.1,0-0.2,0.1-0.2,0.1c0.2-0.1,0.3-0.1,0.5-0.1c-0.1,0-0.2,0-0.3,0c0.2,0,0.4,0,0.6,0c-0.1,0-0.2,0-0.3,0
				c0.2,0,0.3,0.1,0.5,0.1c-0.1,0-0.2-0.1-0.2-0.1c0.1,0.1,0.2,0.1,0.3,0.2c-0.1-0.1-0.1-0.1-0.2-0.2c0.1,0.1,0.2,0.1,0.2,0.2
				c-0.1-0.1-0.1-0.1-0.2-0.2c0.1,0.1,0.1,0.2,0.1,0.2c0-0.1-0.1-0.2-0.1-0.2c0,0.1,0.1,0.2,0.1,0.3c0-0.1,0-0.2,0-0.3
				c0,0.1,0,0.2,0,0.3c0-0.1,0-0.2,0-0.3c0,0.1,0,0.2-0.1,0.2c0-0.1,0.1-0.2,0.1-0.2c0,0.1-0.1,0.1-0.1,0.2c0.1-0.1,0.1-0.1,0.2-0.2
				c0,0.1-0.1,0.1-0.1,0.1c0.1-0.1,0.1-0.1,0.2-0.2c-0.1,0-0.1,0.1-0.2,0.1c0.1,0,0.2-0.1,0.2-0.1c-0.1,0-0.1,0-0.2,0.1
				c0.1,0,0.2,0,0.3,0c-0.1,0-0.2,0-0.3,0c0.1,0,0.2,0,0.3,0c-0.1,0-0.2,0-0.2-0.1c0.1,0,0.2,0.1,0.2,0.1c-0.1,0-0.1-0.1-0.2-0.1
				c0.1,0.1,0.1,0.1,0.2,0.2c0,0-0.1-0.1-0.1-0.1c0.1,0.1,0.1,0.1,0.2,0.2c0,0-0.1-0.1-0.1-0.1c0,0.1,0.1,0.2,0.1,0.2c0,0,0,0,0,0
				c-0.1-0.3-0.2-0.5-0.5-0.6c-0.2-0.1-0.5-0.2-0.8-0.1c-0.2,0.1-0.5,0.2-0.6,0.5c-0.1,0.2-0.2,0.5-0.1,0.8c0.1,0.3,0.2,0.5,0.4,0.7
				c0.2,0.2,0.4,0.3,0.7,0.4c0.4,0.1,0.8,0.1,1.1,0c0.5-0.1,0.8-0.4,1.1-0.8c0.3-0.4,0.3-1,0.2-1.5c-0.1-0.9-0.9-1.6-1.7-1.8
				c-0.8-0.2-1.8-0.1-2.5,0.3c-0.5,0.3-0.8,0.7-1,1.3c-0.2,0.5-0.1,1.2,0.2,1.6c0.1,0.2,0.4,0.4,0.6,0.5c0.2,0.1,0.6,0,0.8-0.1
				C107.4,188.4,107.6,187.7,107.3,187.3L107.3,187.3z"/>
		</g>
	</g>
	<g>
		<g>
			<path class="st15" d="M122.8,191.8c0-0.2,0-0.3,0-0.5c0-0.1,0-0.1,0-0.2c0,0,0,0,0-0.1c0-0.1,0-0.1,0,0.1c0,0,0.1-0.4,0.1-0.4
				c-0.1,0.1-0.1,0.2,0,0.1c0,0,0-0.1,0.1-0.1c0,0,0-0.1,0.1-0.1c-0.1,0.1-0.1,0.1-0.1,0.1c0.1-0.1,0.1-0.1,0.2-0.2
				c0.1-0.1-0.2,0.1,0,0c0.1-0.1,0.2-0.1,0.3-0.2c0.2-0.1-0.2,0.1,0,0c0.1,0,0.1,0,0.2-0.1c0.1,0,0.2,0,0.2-0.1c0.2-0.1-0.2,0,0,0
				c0.1,0,0.3,0,0.4,0c0.2,0-0.2,0,0,0c0.1,0,0.2,0,0.2,0.1c0,0,0.1,0,0.1,0c0.1,0,0.1,0-0.1,0c0,0,0.2,0.1,0.2,0.1c0,0,0,0,0.1,0
				c0.1,0,0,0-0.1-0.1c0,0,0.1,0.1,0.1,0.1c0,0,0.1,0.1,0.1,0.1c0,0-0.1-0.1-0.1-0.1c0,0.1,0.1,0.1,0.1,0.2c0,0,0,0.1,0,0.1
				c0,0.1,0,0.1,0-0.1c0,0.1,0,0.1,0.1,0.2c0,0.1,0,0.1,0,0.2c-0.1-0.3,0-0.1,0,0c0,0.2,0,0,0,0c0,0,0,0.2-0.1,0.2
				c0.2-0.2,0.3-0.4,0.5-0.6c0.1,0,0.1-0.1,0,0c-0.1,0-0.1,0-0.2,0.1c-0.1,0-0.2,0.1-0.3,0.1c-0.1,0-0.2,0-0.3,0.1c0.1,0,0.2,0,0,0
				c-0.1,0-0.1,0-0.2,0c-0.2,0-0.4,0-0.6,0c0.2,0,0.1,0,0,0c-0.1,0-0.1,0-0.2,0c-0.1,0-0.2-0.1-0.3-0.1c0,0.7,0,1.3,0,2
				c0.7-0.2,1.5-0.4,2-1c0.6-0.7,0.8-1.7,0.3-2.5c-0.2-0.2-0.3-0.4-0.6-0.5c-0.2-0.1-0.6,0-0.8,0.1c-0.4,0.3-0.7,0.9-0.4,1.4
				c0,0,0,0,0,0.1c0,0.1,0,0,0-0.1c0,0,0,0.2,0,0c0-0.2,0,0,0,0c0,0.1,0,0.1,0,0c0-0.1,0-0.1,0,0c0,0-0.1,0.2,0,0c0.1-0.2,0,0,0,0
				c0,0,0,0,0,0.1c0,0.1,0,0,0.1-0.1c0,0-0.1,0.1-0.1,0.1c-0.1,0.1,0.2-0.1,0,0c0,0-0.1,0.1-0.1,0.1c0,0-0.1,0.1-0.1,0.1
				c0.1-0.1,0.2-0.1,0.1,0c0,0-0.1,0-0.1,0c-0.2,0.1-0.5,0.1-0.7,0.2c-0.4,0.1-0.8,0.6-0.8,1c0,0.5,0.3,0.8,0.8,1
				c0.9,0.3,1.9,0.3,2.8,0.1c0.2-0.1,0.5-0.1,0.7-0.2c0.4-0.2,0.6-0.5,0.7-0.9c0.1-0.5,0.1-0.9-0.1-1.4c-0.4-0.9-1.2-1.6-2.1-1.8
				c-0.9-0.2-2,0-2.8,0.6c-0.5,0.4-0.9,0.8-1.1,1.4c-0.2,0.5-0.2,1-0.1,1.5c0,0.5,0.5,1.1,1,1C122.3,192.8,122.8,192.4,122.8,191.8
				L122.8,191.8z"/>
		</g>
	</g>
	<g>
		<g>
			<path class="st15" d="M46.9,186.9c0-0.2,0-0.3,0-0.5c0-0.1,0-0.1,0-0.2c0,0,0,0,0-0.1c0-0.1,0-0.1,0,0.1c0,0,0.1-0.4,0.1-0.4
				c-0.1,0.1-0.1,0.2,0,0.1c0,0,0-0.1,0.1-0.1c0,0,0-0.1,0.1-0.1c-0.1,0.1-0.1,0.1-0.1,0.1c0.1-0.1,0.1-0.1,0.2-0.2
				c0.1-0.1-0.2,0.1,0,0c0.1-0.1,0.2-0.1,0.3-0.2c0.2-0.1-0.2,0.1,0,0c0.1,0,0.1,0,0.2-0.1c0.1,0,0.2,0,0.2-0.1c0.2-0.1-0.2,0,0,0
				c0.1,0,0.3,0,0.4,0c0.2,0-0.2,0,0,0c0.1,0,0.2,0,0.2,0.1c0,0,0.1,0,0.1,0c0.1,0,0.1,0-0.1,0c0,0,0.2,0.1,0.2,0.1c0,0,0,0,0.1,0
				c0.1,0,0,0-0.1-0.1c0,0,0.1,0.1,0.1,0.1c0,0,0.1,0.1,0.1,0.1c0,0-0.1-0.1-0.1-0.1c0,0.1,0.1,0.1,0.1,0.2c0,0,0,0.1,0,0.1
				c0,0.1,0,0.1,0-0.1c0,0.1,0,0.1,0.1,0.2c0,0.1,0,0.1,0,0.2c-0.1-0.3,0-0.1,0,0c0,0.2,0,0,0,0c0,0,0,0.2-0.1,0.2
				c0.2-0.2,0.3-0.4,0.5-0.6c0.1,0,0.1-0.1,0,0c-0.1,0-0.1,0-0.2,0.1c-0.1,0-0.2,0.1-0.3,0.1c-0.1,0-0.2,0-0.3,0.1c0.1,0,0.2,0,0,0
				c-0.1,0-0.1,0-0.2,0c-0.2,0-0.4,0-0.6,0c0.2,0,0.1,0,0,0c-0.1,0-0.1,0-0.2,0c-0.1,0-0.2-0.1-0.3-0.1c0,0.7,0,1.3,0,2
				c0.7-0.2,1.5-0.4,2-1c0.6-0.7,0.8-1.7,0.3-2.5c-0.2-0.2-0.3-0.4-0.6-0.5c-0.2-0.1-0.6,0-0.8,0.1c-0.4,0.3-0.7,0.9-0.4,1.4
				c0,0,0,0,0,0.1c0,0.1,0,0,0-0.1c0,0,0,0.2,0,0c0-0.2,0,0,0,0c0,0.1,0,0.1,0,0c0-0.1,0-0.1,0,0c0,0-0.1,0.2,0,0c0.1-0.2,0,0,0,0
				c0,0,0,0,0,0.1c0,0.1,0,0,0.1-0.1c0,0-0.1,0.1-0.1,0.1c-0.1,0.1,0.2-0.1,0,0c0,0-0.1,0.1-0.1,0.1c0,0-0.1,0.1-0.1,0.1
				c0.1-0.1,0.2-0.1,0.1,0c0,0-0.1,0-0.1,0c-0.2,0.1-0.5,0.1-0.7,0.2c-0.4,0.1-0.8,0.6-0.8,1c0,0.5,0.3,0.8,0.8,1
				c0.9,0.3,1.9,0.3,2.8,0.1c0.2-0.1,0.5-0.1,0.7-0.2c0.4-0.2,0.6-0.5,0.7-0.9c0.1-0.5,0.1-0.9-0.1-1.4c-0.4-0.9-1.2-1.6-2.1-1.8
				c-0.9-0.2-2,0-2.8,0.6c-0.5,0.4-0.9,0.8-1.1,1.4c-0.2,0.5-0.2,1-0.1,1.5c0,0.5,0.5,1.1,1,1C46.4,187.9,46.9,187.5,46.9,186.9
				L46.9,186.9z"/>
		</g>
	</g>
	<g>
		<g>
			<path class="st15" d="M22.9,187.3c0-0.2,0-0.3,0-0.5c0-0.1,0-0.1,0-0.2c0,0,0,0,0-0.1c0-0.1,0-0.1,0,0.1c0,0,0.1-0.4,0.1-0.4
				c-0.1,0.1-0.1,0.2,0,0.1c0,0,0-0.1,0.1-0.1c0,0,0-0.1,0.1-0.1c-0.1,0.1-0.1,0.1-0.1,0.1c0.1-0.1,0.1-0.1,0.2-0.2
				c0.1-0.1-0.2,0.1,0,0c0.1-0.1,0.2-0.1,0.3-0.2c0.2-0.1-0.2,0.1,0,0c0.1,0,0.1,0,0.2-0.1c0.1,0,0.2,0,0.2-0.1c0.2-0.1-0.2,0,0,0
				c0.1,0,0.3,0,0.4,0c0.2,0-0.2,0,0,0c0.1,0,0.2,0,0.2,0.1c0,0,0.1,0,0.1,0c0.1,0,0.1,0-0.1,0c0,0,0.2,0.1,0.2,0.1c0,0,0,0,0.1,0
				c0.1,0,0,0-0.1-0.1c0,0,0.1,0.1,0.1,0.1c0,0,0.1,0.1,0.1,0.1c0,0-0.1-0.1-0.1-0.1c0,0.1,0.1,0.1,0.1,0.2c0,0,0,0.1,0,0.1
				c0,0.1,0,0.1,0-0.1c0,0.1,0,0.1,0.1,0.2c0,0.1,0,0.1,0,0.2c-0.1-0.3,0-0.1,0,0c0,0.2,0,0,0,0c0,0,0,0.2-0.1,0.2
				c0.2-0.2,0.3-0.4,0.5-0.6c0.1,0,0.1-0.1,0,0c-0.1,0-0.1,0-0.2,0.1c-0.1,0-0.2,0.1-0.3,0.1c-0.1,0-0.2,0-0.3,0.1c0.1,0,0.2,0,0,0
				c-0.1,0-0.1,0-0.2,0c-0.2,0-0.4,0-0.6,0c0.2,0,0.1,0,0,0c-0.1,0-0.1,0-0.2,0c-0.1,0-0.2-0.1-0.3-0.1c0,0.7,0,1.3,0,2
				c0.7-0.2,1.5-0.4,2-1c0.6-0.7,0.8-1.7,0.3-2.5c-0.2-0.2-0.3-0.4-0.6-0.5c-0.2-0.1-0.6,0-0.8,0.1c-0.4,0.3-0.7,0.9-0.4,1.4
				c0,0,0,0,0,0.1c0,0.1,0,0,0-0.1c0,0,0,0.2,0,0c0-0.2,0,0,0,0c0,0.1,0,0.1,0,0c0-0.1,0-0.1,0,0c0,0-0.1,0.2,0,0c0.1-0.2,0,0,0,0
				c0,0,0,0,0,0.1c0,0.1,0,0,0.1-0.1c0,0-0.1,0.1-0.1,0.1c-0.1,0.1,0.2-0.1,0,0c0,0-0.1,0.1-0.1,0.1c0,0-0.1,0.1-0.1,0.1
				c0.1-0.1,0.2-0.1,0.1,0c0,0-0.1,0-0.1,0c-0.2,0.1-0.5,0.1-0.7,0.2c-0.4,0.1-0.8,0.6-0.8,1c0,0.5,0.3,0.8,0.8,1
				c0.9,0.3,1.9,0.3,2.8,0.1c0.2-0.1,0.5-0.1,0.7-0.2c0.4-0.2,0.6-0.5,0.7-0.9c0.1-0.5,0.1-0.9-0.1-1.4c-0.4-0.9-1.2-1.6-2.1-1.8
				c-0.9-0.2-2,0-2.8,0.6c-0.5,0.4-0.9,0.8-1.1,1.4c-0.2,0.5-0.2,1-0.1,1.5c0,0.5,0.5,1.1,1,1C22.5,188.3,23,187.9,22.9,187.3
				L22.9,187.3z"/>
		</g>
	</g>
</g>
</svg>
