<svg xmlns="http://www.w3.org/2000/svg" viewBox="0 0 137.75 88.16"><defs><style>.cls-1{fill:#dad8cc;}.cls-2{fill:#c6c2b5;}.cls-3{fill:#878277;}.cls-4{fill:#a4a092;}.cls-5{fill:#f3a5c2;}.cls-6{fill:#fff;}.cls-7{fill:#1d1d1b;}.cls-8{fill:none;stroke:#1d1d1b;stroke-linecap:round;stroke-width:0.67px;}</style></defs><g id="Capa_2" data-name="Capa 2"><g id="Capa_1-2" data-name="Capa 1"><path class="cls-1" d="M15.48,32.27a14.9,14.9,0,0,0,2.17-1.05,7.52,7.52,0,0,0,2.52-2.77S8.78,23.63,9.8,14.65c0,0-5.23,5.27.27,12.5,0,0,4.75,4.86,5.41,5.12"/><path class="cls-2" d="M39.68,75.47s-4.81,4.45-4.5,5.5c.48,1.56,5.61-1.79,5.61-1.79s-2.63,4.39-1.43,5.17c1.94,1.25,6.51-6.59,6.51-6.59Z"/><path class="cls-1" d="M50.49,81.36s-1.42,6.66-4.44,6.8c-1.68.08.17-5,.17-5s-3.92,5.13-5.28,3.15c-1.06-1.54,2-4.49,3.49-6.94Z"/><polygon class="cls-3" points="51.15 62.52 39.68 75.47 45.87 77.76 53.62 65 51.15 62.52"/><path class="cls-3" d="M115.93,61.93s2.58,8,11.28,3.67l.61,5.11s-10.9,6-13.93-3.93Z"/><path class="cls-4" d="M122,39.81s6.54,10.12,11.62,6c0,0,3.16-4.09-3.61-8.33,0,0-2.19-2.47,1.13-2.21,0,0,10.1,3.69,5.41,12.71,0,0-4.87,8.88-15.5-2.39Z"/><path class="cls-3" d="M46.08,15.77S40.65,1.79,52.37.13C56-.38,64.63,0,64.45,12.2c0,0-4.5,4.6-2.77,8,0,0-9.82-5.43-15.6-4.39"/><path class="cls-4" d="M126.19,76.8l.07-5.88S118,75,115.42,68.13c0,0,11.76-15.15,8.08-27.2-1.69-5.51-5.68-15.3-15.65-17l5.88-1.56s-9.18-1.68-12.38-1a52.52,52.52,0,0,1,7.31-3.34S99.59,16.7,94,20.19c0,0,.74-1.06,7.41-5.36,0,0-7.36-.33-17.17,5.24,0,0,6.34-5.79,9.34-7.65,0,0-7.71-.57-16.86,7.26C80.36,16.86,84.11,4,71.2,2.36,64.62,1.51,57.31,7.75,59.56,16a27,27,0,0,0-25.2,1.32S19.42,26.12,3.84,26.52c0,0,8,5.51,1.75,14.18a232,232,0,0,0,23.54,6.7c13.28,3,22.66,17.12,23.75,18.24,0,0-2.66,2.31-8.45,13.78l6.06,1.94L62,66S76,78.55,98.75,70.6c0,0,5.8-2.37,7.75,1.64,0,0,4.54,10.82,19.69,4.56"/><path class="cls-5" d="M71.89,15.47c-.48,3-4.86,5.59-5.82,4.48a6.76,6.76,0,0,1-1-7.26c1.25-2.31,2.81-2.42,4.22-2,2.15.61,3,2.2,2.61,4.8"/><path class="cls-5" d="M8.43,34c0,4.11-1.26,6.76-3.59,6.73S0,38,0,33.86s2-7.4,4.3-7.38S8.48,29.86,8.43,34"/><path class="cls-6" d="M52.49,22.82c0,3.06-2.76,6.21-5,6.42-4.22.39-6.27-2.34-5.92-5.66.32-3,3.11-6.11,6.49-5.7a4.77,4.77,0,0,1,4.39,4.94"/><path class="cls-1" d="M126.26,70.92s6-4.84,8-4.37c1.88.43.64,2.09-4,5.69,0,0,6.18-3.55,6.15-1.43s-2,4.32-10.22,6l0-5.26"/><path class="cls-2" d="M126.84,65.78s4-2.8,6.06-3.24c2.48-.52.18,4.14-5.79,7.84Z"/><path class="cls-7" d="M45.68,23.19a.89.89,0,0,1-.77.89.87.87,0,0,1-.82-.84.89.89,0,0,1,.84-.83.78.78,0,0,1,.75.78"/><path class="cls-6" d="M51.65,37.89l2.47,8.38-3.36,1L49,40.78l-.32,6.84L45,47l.84-6.48s3.15.78,5.8-2.6"/><path class="cls-8" d="M42.33,38.76S47.85,44.32,53,35.91"/><path class="cls-7" d="M6.26,33.17c0,.74-.42,1-.78,1s-.75-.28-.75-1,.42-1,.78-1,.76.28.75,1"/><path class="cls-7" d="M3.1,33.25c0,.74-.33,1.06-.62,1s-.56-.22-.62-1,.35-1.1.64-1.1.61.28.6,1"/><path class="cls-1" d="M29.07,45.69a13.83,13.83,0,0,0,2.17-1,7.54,7.54,0,0,0,2.52-2.76s-11.39-4.82-10.37-13.8c0,0-5.22,5.27.27,12.49,0,0,4.75,4.87,5.41,5.12"/></g></g></svg>