<svg xmlns="http://www.w3.org/2000/svg" viewBox="0 0 129.81 102.12"><defs><style>.cls-1,.cls-13,.cls-9{fill:none;stroke-linecap:round;}.cls-1,.cls-9{stroke:#dad8cc;}.cls-1{stroke-linejoin:round;}.cls-2{fill:#dad8cc;}.cls-3{fill:#fcc700;}.cls-4{fill:#1b8a4f;}.cls-5{fill:#e4d5b8;}.cls-6{fill:#2fac66;}.cls-7{fill:#f39200;}.cls-8{fill:#fff;}.cls-9{stroke-width:0.28px;}.cls-10{fill:#c4c0b4;}.cls-11{fill:#06607b;}.cls-12{fill:#1d1d1b;}.cls-13{stroke:#1d1d1b;stroke-width:0.67px;}.cls-14{fill:#f3a5c2;}.cls-15{fill:#046f89;}</style></defs><g id="Capa_2" data-name="Capa 2"><g id="Capa_1-2" data-name="Capa 1"><path class="cls-1" d="M70,87.42a6.66,6.66,0,0,0,6.61,1.43c7.49-2.31,9.74-15.59,18.89-13.79,3.34.65,5.56,3.92,8.75,4.79,10.75,3,6.39-4.69,12.94-5.7,3.82-.59,7.32,4.56,12.17,2.44"/><path class="cls-2" d="M25.61,60.94l-2.49-1.73c-5.39-1.52-10.63.36-3.66,2.14L16.1,63.56l7.23,2c2.29-2.74,2.28-4.66,2.28-4.66"/><path class="cls-3" d="M13,31.87a7,7,0,0,1-1.33,4.5C9,40.57,13.36,43.9,13.36,43.9c2.29-3.08.71-9-.36-12"/><path class="cls-4" d="M13.14,61.28c-5.27,0-9.54.55-9.54,1.67s4.27,2,9.54,2c1.82,0,9.53-.31,9.53-2,0-1.12-4.26-1.67-9.53-1.67"/><path class="cls-5" d="M15.48,61.31c0-.29-4.33.11-4.32-.19.14-15.69.61-9.39.61-18.22l3.2-.36c.78,10.69.48,8.73.51,18.77"/><path class="cls-6" d="M11,54s1.52.16,2.29.16A21.94,21.94,0,0,0,15.58,54l.17,8.4s-.37.55-2.24.57S11,62.5,11,62.5Z"/><path class="cls-7" d="M12.93,37.25a8.53,8.53,0,0,1-.41,1.89,3.87,3.87,0,0,0,.63,3.19c.75-1.28.17-3.78-.22-5.08"/><path class="cls-2" d="M66.66,85.88c1.11,4,2.79,7.13,5.42,8.68,4.09,1.67,2.43,5.14.69,3.33,1.81,3.55-.86,5.72-1.66,2.37-1.88,3.33-4.52.27-1.39-2.37a13.42,13.42,0,0,1-6.46-11.8Z"/><path class="cls-8" d="M44.81,46.6c-4,6.53-12.78,10.17-21.74,11.47,0,0,.88,5.61,2.33,7.05,11.73-.26,24.23-12.5,24.23-12.5l0-4.7Z"/><path class="cls-9" d="M44.81,46.6c-4,6.53-12.78,10.17-21.74,11.47,0,0,.88,5.61,2.33,7.05,11.73-.26,24.23-12.5,24.23-12.5l0-4.7Z"/><path class="cls-2" d="M45.29,87.23A66.93,66.93,0,0,1,43.4,97.46s-4.37-.3-4.5,1.59,3,1.23,3,1.23c-1.54,1.69.88,2.7,2.5.21,1,2.46,1.74,2,2.33-.31,1-3.79,1.74-9.82,2.13-11.92Z"/><path class="cls-10" d="M52.43,7.28c0,4.69-3.45,8.49-7.7,8.49S37,12,37,7.28,40.49,0,44.73,0s7.7,2.59,7.7,7.28"/><path class="cls-8" d="M44.81,46.6c-3.12,16.59-4,29.79-5.91,41.43,10.9,2.2,19.26,1.93,32.7-.22L61.36,44.7Z"/><path class="cls-9" d="M44.81,46.6c-3.12,16.59-4,29.79-5.91,41.43,10.9,2.2,19.26,1.93,32.7-.22L61.36,44.7Z"/><path class="cls-2" d="M41.55,40.55c1.18,1,3.53,3.35,3.91,5.12,0,0,16.15-2.87,16.3-3.12.39-.62-.15-1.78.3-2.39C65.17,35.92,67,29.1,65.85,24.69c2.92.3,6.8-2.06,8.84-4.22,3.69-3.91,3.78-9.46-.57-13.57S63.73,2.61,60,6.52c-1.78,1.89-3.24,4.09-3.1,6.63a8.57,8.57,0,0,0-1-.49c-6.52-2.37-10.69-1.8-53.39,9.08-1.59.41-1.26,2.4.14,3.24C10.82,29.84,32,35.92,41.55,40.55"/><path class="cls-11" d="M44.31,46a134.31,134.31,0,0,1,18-4l-.11,4.41L46.05,48Z"/><path class="cls-8" d="M54.17,21.73a5.09,5.09,0,0,1-5.23,5.14c-2.36,0-4.06-2.66-3.81-5.15s2.14-4.6,4.51-4.6a4.8,4.8,0,0,1,4.53,4.61"/><path class="cls-12" d="M49.08,21.53a.74.74,0,0,1-.92.75.76.76,0,0,1-.55-1c.13-.43.33-.68.78-.62s.69.45.69.9"/><path class="cls-13" d="M45.15,32.16c0,2.07-1.08,3.76-2.42,3.76s-2.42-1.69-2.42-3.76"/><path class="cls-14" d="M63.21,11.44a3.89,3.89,0,0,1,5.91.46A4.11,4.11,0,0,1,68.58,18c-2.11,1.82-5.12,1.23-6.19-.25a4.53,4.53,0,0,1,.82-6.3"/><path class="cls-2" d="M68,75.23s-1.07,6,1.18,5.64,1.51-2.73,1.51-2.73.35,3,1.9,2.8.3-3.11.3-3.11.87,1.74,1.59,1.19c1.32-1-1.76-5.47-1.76-5.47h-3.4Z"/><path class="cls-8" d="M61.29,46.5c3.55,2.81,10.42,17.11,12.86,27.29.24,1-6,2.83-7.85,2.8a94.58,94.58,0,0,0-7.21-21.5"/><path class="cls-9" d="M61.29,46.5c3.55,2.81,10.42,17.11,12.86,27.29.24,1-6,2.83-7.85,2.8a94.58,94.58,0,0,0-7.21-21.5"/><path class="cls-8" d="M48.1,58.29c-.37,12.54-.9,19.73-1.24,29.33"/><path class="cls-9" d="M48.1,58.29c-.37,12.54-.9,19.73-1.24,29.33"/><path class="cls-11" d="M46.44,49.05c.25,6.2.76,12.16,3,16.49-1.86,0-2.83.44-4.36.44-1.2-5.64-.94-12.13.17-19.12Z"/><path class="cls-11" d="M43.48,49s-4.2,10.46-10,15.44l4.28,1.76S47,52,45.83,48.51s-2.35.44-2.35.44"/><path class="cls-11" d="M35.7,42.44c.13-.76,1.84-.11,2.61,0a14.31,14.31,0,0,1,7.47,3.19l.26,3.5-9.89,3.36s-.72-8.42-.45-10.05"/><path class="cls-11" d="M47.76,46.6c6.49,2.21,9.08,4.63,9.08,4.63.67.35.6,1.11.2,1.76a20.32,20.32,0,0,1-5.56,6.12C50,60.23,50,59,49.64,58.34l-4.56-9.79s1.85-1.89,2.68-1.95"/><path class="cls-2" d="M23.33,65.6c-2-4.08-4.83-4.16-4.32-.67-.89-2.41-2.19-2.2-2.19-.73a2.84,2.84,0,0,0,1.57,2.41c1.7.92,3.35.53,4.94-1"/><path class="cls-14" d="M12.06,19.32S.29,21.57.05,22.82s.57,1.57,5.54,3.85C8.29,27.91,12,29.33,12,29.33s.19-2,.41-4.37a27.77,27.77,0,0,0-.3-5.64"/><path class="cls-15" d="M48.65,48.18a2.44,2.44,0,1,1-4.6-1.42,2.44,2.44,0,1,1,4.6,1.42"/><path class="cls-8" d="M72.23,67.18l-4.36,1c-.9.18-1.29.29-1.11,1.2a7.18,7.18,0,0,0,.95,3,13.86,13.86,0,0,0,6.1-1,31.86,31.86,0,0,0-1.58-4.19"/><path class="cls-9" d="M72.23,67.18l-4.36,1c-.9.18-1.29.29-1.11,1.2a7.18,7.18,0,0,0,.95,3,13.86,13.86,0,0,0,6.1-1A31.86,31.86,0,0,0,72.23,67.18Z"/><path class="cls-12" d="M69.88,69.54a.8.8,0,1,1-1.13,0,.8.8,0,0,1,1.13,0"/><path class="cls-12" d="M50.89,83.78a.8.8,0,1,1-.79-.8.81.81,0,0,1,.79.8"/><path class="cls-12" d="M51.14,76.64a.8.8,0,1,1-.79-.81.81.81,0,0,1,.79.81"/><path class="cls-12" d="M51,70.64a.79.79,0,0,1-.8.79.81.81,0,0,1-.79-.81.8.8,0,1,1,1.59,0"/><path class="cls-12" d="M51.2,63.85a.79.79,0,0,1-.8.79.8.8,0,0,1-.79-.81.79.79,0,0,1,.8-.78.79.79,0,0,1,.79.8"/></g></g></svg>