<?xml version="1.0" encoding="utf-8"?>
<!-- Generator: Adobe Illustrator 26.2.1, SVG Export Plug-In . SVG Version: 6.00 Build 0)  -->
<svg version="1.1" id="Capa_1" xmlns="http://www.w3.org/2000/svg" xmlns:xlink="http://www.w3.org/1999/xlink" x="0px" y="0px"
	 viewBox="0 0 161.6 196.4" style="enable-background:new 0 0 161.6 196.4;" xml:space="preserve">
<style type="text/css">
	.st0{fill:#814114;}
	.st1{fill:#FFFFFF;}
	.st2{clip-path:url(#SVGID_00000121242250293958291480000014788770156155297468_);fill:#814114;}
	.st3{fill:#A85318;}
	.st4{clip-path:url(#SVGID_00000056389851660395351410000016468132987611858067_);fill:#FFFFFF;}
	.st5{fill:#1D1D1B;}
	.st6{fill:#F3A5C2;}
	.st7{fill:none;stroke:#1D1D1B;stroke-width:0.8405;stroke-linecap:round;}
</style>
<g>
	<path class="st0" d="M23.1,153.9c0.6-9.7-5.3-11.2-6.9-14c-1.5-2.8-2.3-5.2-3.4-5.8c-3.6-2.1-10.3,1-12.4,11.1
		C-4.1,167.3,22.3,166.7,23.1,153.9"/>
	<path class="st1" d="M102.5,118.1c0,0-41.5-15.3-66.6,0.8c-15.6,10.1-24.3,32.1-16.3,52.9c5.4,14,48.7,13.1,73.6,2.9
		c6.1-2.5,34.3-14.4,35.5-36.9C129.9,115.2,102.5,118.1,102.5,118.1"/>
	<g>
		<defs>
			<path id="SVGID_1_" d="M102.5,118.1c0,0,27.4-2.9,26.2,19.7c-1.2,22.5-29.4,34.5-35.5,36.9c-25,10.3-68.3,11.1-73.6-2.9
				c-8-20.8,0.7-42.9,16.3-52.9c8.6-5.6,19.2-7.4,29.4-7.4C84.6,111.5,102.5,118.1,102.5,118.1"/>
		</defs>
		<clipPath id="SVGID_00000090976600307915720320000005467370512924852148_">
			<use xlink:href="#SVGID_1_"  style="overflow:visible;"/>
		</clipPath>
		<path style="clip-path:url(#SVGID_00000090976600307915720320000005467370512924852148_);fill:#814114;" d="M74.3,169.3
			c-28.3,1.5-43.7,22.1-33.6,38.9c10.1,16.7,42.2,20.4,67.9,4.9c25.7-15.5,27.5-48.3,14.6-63C117,142.7,96.7,168.1,74.3,169.3"/>
		<path style="clip-path:url(#SVGID_00000090976600307915720320000005467370512924852148_);fill:#814114;" d="M80.4,101.1
			c0,0,17.7,2.4,21.8,20.1c3.5,14.9,1.9,23.8-13.2,30.5c-14,6.2-26.6-0.4-43.4,6.7c-14.1,5.9-23.1-1.6-28.5-8.1
			c-6.3-7.5-7.3-20.6-0.7-30.1c6.6-9.6,15.9-12,28.7-17.5C57.9,97.2,80.4,101.1,80.4,101.1"/>
	</g>
	<path class="st0" d="M121.7,135.3c-6.2,24.2,5.6,34.8,8.4,40.2c0.6,1.2,3.6,7.5,6.3,7.5c3.6,0-0.1-4.8-0.1-4.8s5.7,4.6,6.9,1.1
		c0.5-1.4-3.3-4.4-3.3-4.4s5.8,1.6,5-1.4c-0.8-3-8-4.2-8-4.2s-5.6-5.9-6.7-13.2c-1.4-8.8,3.7-22.3-0.2-25
		C126.1,128.5,122.2,133.3,121.7,135.3"/>
	<path class="st3" d="M106.7,146.6c4.2,21.4,11.8,32,14.6,37.4c0.6,1.2,3.5,7.5,6.3,7.5c3.6,0-0.1-4.8-0.1-4.8s5.7,4.6,6.9,1.1
		c0.5-1.4-3.3-4.4-3.3-4.4s5.8,1.6,5-1.4c-0.8-3-8-4.2-8-4.2s-4.4-6.3-6.7-13.2c-2.9-8.4-4.2-18.3-6.9-22.2
		C111.7,138.5,106.3,144.6,106.7,146.6"/>
	<path class="st3" d="M30.6,193.6c0,0,1.9-11.3-1.8-15.8c-5.3-1.9-21.5-16.5-10.3-32.1c5.5-7.7,33.8-11.5,39.2,7.1
		c3.8,13.4-7.5,35.7-7.5,35.7s21.7-6.1,28.3-2.7c5.3,2.7-0.1,4.9-2.5,4.6c-1.1-0.1-4.8-1.1-4.8-1.1s5.9,1.6,2.4,3.3
		c-2.9,1.4-5.8,0-5.8,0s3.8,1,1.6,2.6C66.1,197.5,33.4,196.2,30.6,193.6"/>
	<path class="st3" d="M161.4,110.5c-2.5,25.7-21.6,34.4-29.1,36.3c-14,3.5-46.6,9.8-59.8-24.5c-6.1-16,0.5-40.1,0.5-40.1
		s-3.7-15.1-5.6-31.8c-1.9-16.8-2.9-29-0.5-40c2.4-10.9,14.3,6,20.4,22.7c6.1,16.7,8.9,35.7,8.9,35.7s5.4-2.3,14.7-2.8
		c8.5-0.5,15.7,0,15.7,0s-1.6-28,0.8-49.6c2-17.5,9.1-24.6,16.6-3c13.5,38.9,10.4,58.9,10.4,58.9S163.2,91.6,161.4,110.5"/>
	<g>
		<defs>
			<path id="SVGID_00000131324981132780276310000015703358785984846517_" d="M144,13.4c13.5,38.9,10.4,58.9,10.4,58.9
				s8.9,19.3,7,38.2c-2.5,25.7-21.6,34.4-29.1,36.3c-14,3.5-46.6,9.8-59.8-24.5c-6.1-16,0.5-40.1,0.5-40.1s-3.7-15.1-5.6-31.8
				c-1.9-16.8-2.9-29-0.5-40c2.4-10.9,14.3,6,20.4,22.7c6.1,16.7,8.9,35.7,8.9,35.7s5.4-2.3,14.7-2.8c8.5-0.5,15.7,0,15.7,0
				s-1.6-28,0.8-49.6c1.1-9.9,3.9-16.4,7.4-16.4C137.5,0,140.7,4,144,13.4"/>
		</defs>
		<clipPath id="SVGID_00000132778874280278005550000011217768467505467289_">
			<use xlink:href="#SVGID_00000131324981132780276310000015703358785984846517_"  style="overflow:visible;"/>
		</clipPath>
		<path style="clip-path:url(#SVGID_00000132778874280278005550000011217768467505467289_);fill:#FFFFFF;" d="M144.2,143
			c0,0,3.5-15.8-1-22.8c-4.1-6.3-9.5-8.3-14.2-10c-4.7-1.7-5.7-11.6-9.4-11.6c-3.6,0-3.7,6.2-6.3,11.8c-2.6,5.6-13.8,8-13.2,19.5
			c0.4,8.6,2.6,20.4,11,22.5C119.4,154.4,144.2,143,144.2,143"/>
	</g>
	<path class="st1" d="M131.4,98.1c1,5.9,5.4,9.4,11.1,8.4c5.7-1,9.4-6.6,8.4-12.5c-1.1-5.9-4.8-8.4-10.6-7.8
		C134.6,86.7,130.4,92.3,131.4,98.1"/>
	<path class="st5" d="M140.3,97.6c0.9,0.8,2.1,0.8,2.9-0.1c0.8-0.9,0.7-2.3-0.2-3.1c-0.9-0.8-1.9-0.8-2.7,0.1
		C139.3,95.3,139.4,96.7,140.3,97.6"/>
	<path class="st1" d="M105.7,97.2c-1.5-5.4-5.9-8.2-11.1-6.7c-5.2,1.5-8.2,7-6.6,12.3c1.5,5.4,5.2,7.3,10.5,6.3
		C103.8,108.1,107.2,102.6,105.7,97.2"/>
	<path class="st5" d="M97.5,98.6c-0.9-0.7-2-0.6-2.7,0.3c-0.7,0.9-0.4,2.2,0.5,2.9c0.9,0.7,1.8,0.5,2.5-0.3
		C98.6,100.6,98.5,99.3,97.5,98.6"/>
	<path class="st1" d="M95.4,124.9c-0.6-0.4-1.2-0.3-1.6,0.2c-0.4,0.5-0.3,1.3,0.3,1.7c0.6,0.4,1.1,0.3,1.5-0.2
		C96,126.1,96,125.3,95.4,124.9"/>
	<path class="st1" d="M90.9,118.8c-0.6-0.4-1.2-0.3-1.6,0.2c-0.4,0.5-0.3,1.3,0.3,1.7c0.6,0.4,1.1,0.3,1.5-0.2
		C91.5,120,91.4,119.2,90.9,118.8"/>
	<path class="st1" d="M88.6,125c-0.6-0.4-1.2-0.3-1.6,0.2c-0.4,0.5-0.3,1.3,0.3,1.7c0.6,0.4,1.1,0.3,1.5-0.2
		C89.3,126.2,89.2,125.4,88.6,125"/>
	<path class="st1" d="M148.9,112.7c-0.1,0.7,0.3,1.2,0.9,1.3c0.7,0.1,1.3-0.4,1.4-1.1c0.1-0.7-0.2-1.1-0.9-1.2
		C149.6,111.5,148.9,112,148.9,112.7"/>
	<path class="st1" d="M145.8,119.6c-0.1,0.7,0.3,1.2,1,1.3c0.7,0.1,1.3-0.4,1.3-1.1c0.1-0.7-0.2-1.1-0.9-1.2
		C146.5,118.5,145.8,118.9,145.8,119.6"/>
	<path class="st1" d="M152.3,118.5c-0.1,0.7,0.3,1.2,1,1.3c0.7,0.1,1.3-0.4,1.3-1.1c0.1-0.7-0.2-1.1-0.9-1.2
		C153,117.4,152.3,117.8,152.3,118.5"/>
	<path class="st6" d="M88.3,72c0,0-1.7-15.6-3.9-24.5C82.6,40.4,77,32.7,77,32.7s-2.4,10.1,0.3,21.1c2.6,10.8,4.5,19.4,4.5,19.4
		L88.3,72z"/>
	<path class="st7" d="M122.4,126.8c0,0,0.4,5.4-1.9,7.2c-3.6,2.9-6.1-1.7-6.1-1.7"/>
	<path class="st7" d="M131.4,129.6c0,0-0.6,5.6-5.4,3.7c-3.3-1.3-3.2-5.5-3.4-6.5"/>
	<path class="st6" d="M129.8,112.9c0.6,3.9-5.2,13.4-6.7,14.2c-1.5,0.8-12.2-10.3-11.6-11.2C112.9,113.5,129.7,112.3,129.8,112.9"/>
	<path class="st6" d="M144.6,67.7c0,0,1.3-6.9-0.3-20.3c-1-8.6-5.3-20.4-5.3-20.4s-4.2,11.2-2.6,24.1c1.2,9.5,1.5,15.7,1.5,15.7
		L144.6,67.7z"/>
</g>
</svg>
