<?xml version="1.0" encoding="utf-8"?>
<!-- Generator: Adobe Illustrator 26.2.1, SVG Export Plug-In . SVG Version: 6.00 Build 0)  -->
<svg version="1.1" id="Capa_1" xmlns="http://www.w3.org/2000/svg" xmlns:xlink="http://www.w3.org/1999/xlink" x="0px" y="0px"
	 viewBox="0 0 210.8 79" style="enable-background:new 0 0 210.8 79;" xml:space="preserve">
<style type="text/css">
	.st0{fill:#6D66B0;}
	.st1{fill:#543DB3;}
	.st2{fill:#FFFFFF;}
	.st3{fill:#1D1D1B;}
</style>
<g>
	<path class="st0" d="M146.4,22.8l6.3-20.7c-5.7-1.4-13.8-2.1-18-2.1c-18.8-0.3-37,2.4-58.9,10.9l12.1,20.7c0,0,14.5-9.1,36.2-9.8
		C145.7,20.9,146.4,22.8,146.4,22.8"/>
	<path class="st1" d="M101.2,27.5c-8,3.2-13.8,5.2-13.8,5.2L75.7,10.9C78.4,9.5,88,6.4,95,4.7L101.2,27.5z"/>
	<path class="st1" d="M131,21.8c-1.6,0.1-5.2-0.1-7,0c-5.3,0.2-2.6,0-7.4,1.2l-4-21.6c7.7-1.1,14.8-1.4,21.8-1.3L131,21.8z"/>
	<path class="st1" d="M44.5,37.8c0.3,0.5,0.4,0.8,0.4,0.8c7.5-4,57.9-33.3,97.1-26.1c39.2,7.2,68.8,34.8,68.8,34.8l-13,6.8l8.6,9.4
		c0,0-13.2,8.7-34.9,12.2c-21.7,3.6-82.7,4.6-99.9,1.1c-17-3.5-22.8-11.3-30.5-17.4C43.8,52.4,43.6,46.1,44.5,37.8"/>
	<path class="st0" d="M23.9,43.5c-4.7-7.6-11-36.6-11-36.6S23.6,11,33.2,21.7c7.1,7.9,9.7,17.3,9.7,17.3c1.8-0.9,7.9-3.7,13.7-6.6
		c-0.3,1.9,0.5,3.7,2.6,5.7c0,0-6.6,4.6-6.7,10.7c-0.1,5.2,7.6,7.5,9.9,8c-2.1-0.4-8.5,0.4-9.9,7.2c-0.3,1.5,0.3,4.4,1.4,5.7
		c-8.4-4.8-12.3-9.2-15.1-12c-4,1.9-10,8.1-19.6,10.2c-9.2,2-19.1,3.5-19.1,3.5C-1.7,72,12.6,48.5,23.9,43.5"/>
	<path class="st0" d="M75.6,45.5l10.9-9.9c0,0-12.1-0.4-10.3-12.1c11.6-4.7,25.3-9.2,39-11.1c-4.6,5.9-9.1,12.6-9.4,15.6
		c-0.6,6.1,10.8,11,10.8,11s-13.9,1.5-15.6,9.4c-1.7,7.9,9.3,16.6,9.3,16.6l-1.7,13.5c-11.7-0.1-22.5-0.4-30.1-1L79.2,62
		C79.2,62,64.7,55.3,75.6,45.5"/>
	<path class="st0" d="M142.6,59.6c0,0-7.6-9.3-7.2-13.5c0.4-4.2,12.5-6.8,12.5-6.8s-9.9-10-8.4-16c0.7-2.9,4.3-6.4,8.2-9.5
		c10.1,2.4,19.6,6.1,27.8,10.1l-2.2,51.5c-0.6,0.1-1.2,0.2-1.9,0.3c-8.2,1.3-21.8,2.1-36.6,2.5c-1.4-3.5-2.3-7.1-2.6-9.7
		C131.5,60.9,142.6,59.6,142.6,59.6"/>
	<path class="st1" d="M157.5,38.3c0.6-8.1,3-14.7,5.7-19.7c28.2,10.7,47.5,28.8,47.5,28.8l-13,6.8l8.6,9.4c0,0-13.2,8.7-34.9,12.2
		c-2.9,0.5-6.6,0.9-10.8,1.2C158.3,67.9,156.4,52.7,157.5,38.3"/>
	<path class="st2" d="M178.6,41.1c-5.6,1.7-6,12-2.2,16.2c3.9,4.2,15,2.9,15-6.6C191.4,41.2,185.2,39.1,178.6,41.1"/>
	<path class="st3" d="M183.4,46.7c-1.1,0.3-1.2,2.4-0.4,3.2c0.8,0.8,2.9,0.6,2.9-1.3C185.9,46.7,184.7,46.3,183.4,46.7"/>
</g>
</svg>
