<?xml version="1.0" encoding="utf-8"?>
<!-- Generator: Adobe Illustrator 26.2.1, SVG Export Plug-In . SVG Version: 6.00 Build 0)  -->
<svg version="1.1" id="Capa_1" xmlns="http://www.w3.org/2000/svg" xmlns:xlink="http://www.w3.org/1999/xlink" x="0px" y="0px"
	 viewBox="0 0 210.8 202.1" style="enable-background:new 0 0 210.8 202.1;" xml:space="preserve">
<style type="text/css">
	.st0{fill:#6D66B0;}
	.st1{fill:#543DB3;}
	.st2{fill:#FFFFFF;}
	.st3{fill:#1D1D1B;}
	.st4{opacity:0.34;}
	.st5{fill:#349FA9;}
	.st6{fill:#CEEA9A;}
	.st7{fill:#5E9000;}
	.st8{fill:#74B300;}
	.st9{fill:#C4B6B8;}
	.st10{fill:#79898E;}
</style>
<g>
	<path class="st0" d="M86.4,125.2l2.8-8.3c-2.3-0.6-5.6-1-7.3-1.1c-7.6-0.4-15,0.4-24,3.5l4.6,8.6c0,0,6-3.5,14.8-3.4
		C86.1,124.4,86.4,125.2,86.4,125.2"/>
	<path class="st1" d="M68,126.4c-3.3,1.2-5.7,1.9-5.7,1.9l-4.4-9c1.1-0.5,5.1-1.6,7.9-2.2L68,126.4z"/>
	<path class="st1" d="M80.1,124.5c-0.7,0-2.1-0.1-2.8-0.1c-2.1,0-1.1,0-3,0.4L73,116c3.1-0.3,6-0.4,8.8-0.2L80.1,124.5z"/>
	<path class="st1" d="M44.9,129.7c0.1,0.2,0.1,0.3,0.1,0.3c3.1-1.5,23.9-12.6,39.7-9.1c15.8,3.5,27.3,15.1,27.3,15.1l-5.4,2.6
		l3.3,3.9c0,0-5.5,3.3-14.3,4.4c-8.8,1.1-33.5,0.6-40.4-1c-6.8-1.6-9.1-4.9-12.1-7.5C44.4,135.6,44.4,133.1,44.9,129.7"/>
	<path class="st0" d="M36.5,131.7c-1.8-3.1-3.9-15-3.9-15s4.2,1.8,8,6.3c2.7,3.3,3.7,7.1,3.7,7.1c0.7-0.4,3.3-1.4,5.7-2.5
		c-0.2,0.8,0.1,1.5,1,2.4c0,0-2.8,1.8-2.9,4.2c-0.1,2.1,3,3.1,3.9,3.4c-0.9-0.2-3.5,0-4.1,2.8c-0.1,0.6,0.1,1.8,0.5,2.3
		c-3.3-2.1-4.8-3.9-5.9-5.1c-1.6,0.7-4.2,3.1-8.1,3.8c-3.7,0.7-7.8,1.1-7.8,1.1C25.7,142.9,31.8,133.6,36.5,131.7"/>
	<path class="st0" d="M57.4,133.3l4.6-3.8c0,0-4.9-0.3-4-5c4.8-1.7,10.4-3.3,16-3.9c-1.9,2.3-3.9,4.9-4,6.2
		c-0.3,2.5,4.2,4.6,4.2,4.6s-5.7,0.4-6.5,3.6c-0.8,3.2,3.5,6.8,3.5,6.8l-0.9,5.4c-4.7-0.2-9.1-0.5-12.2-0.8l0.6-6.3
		C58.6,140,52.8,137.1,57.4,133.3"/>
	<path class="st0" d="M84.3,140c0,0-3-3.9-2.7-5.6c0.2-1.7,5.2-2.6,5.2-2.6s-3.9-4.2-3.2-6.6c0.3-1.1,1.8-2.5,3.4-3.7
		c4.1,1.1,7.8,2.8,11.1,4.5l-1.7,20.8c-0.3,0-0.5,0.1-0.8,0.1c-3.3,0.4-8.9,0.5-14.9,0.5c-0.5-1.5-0.8-2.9-0.9-4
		C79.8,140.4,84.3,140,84.3,140"/>
	<path class="st1" d="M90.6,131.6c0.4-3.3,1.4-5.9,2.6-7.9c11.2,4.8,18.8,12.3,18.8,12.3l-5.4,2.6l3.3,3.9c0,0-5.5,3.3-14.3,4.4
		c-1.2,0.2-2.7,0.3-4.4,0.3C90.5,143.6,90,137.4,90.6,131.6"/>
	<path class="st2" d="M99.1,133.1c-2.3,0.6-2.6,4.8-1.1,6.5c1.5,1.7,6,1.4,6.2-2.5C104.3,133.3,101.8,132.4,99.1,133.1"/>
	<path class="st3" d="M101,135.4c-0.4,0.1-0.5,0.9-0.2,1.3c0.3,0.3,1.2,0.3,1.2-0.5C102,135.5,101.5,135.3,101,135.4"/>
</g>
<g class="st4">
	<path class="st5" d="M2.5,30.4C49.5,11.1,110.9,20,123,22.6c13.1,2.8,76.9,3.3,84.4-7.8c0,0-8.9,26.5-2.7,57.9
		c6.2,31.4,8.1,118.4-20.7,122.5c-73.7,10.5-162-0.7-174-15.9S2.5,30.4,2.5,30.4z"/>
</g>
<g>
	<g>
		<path class="st5" d="M3.3,31.7c5.6-2.4,11.4-4.2,17.3-5.6c7-1.8,14.2-3.2,21.4-4.3c14.7-2.3,29.7-3.5,44.7-3
			c5.8,0.2,11.7,0.6,17.4,1.8c3.8,0.7,7.6,1.4,11.4,2c13.1,2,26.5,3.1,39.8,3c15.6-0.1,31.6-1.9,46.4-7.3c1.8-0.7,3.6-1.4,5.4-2.2
			c1.8-0.8,0.2-3.4-1.5-2.6c-14.4,6.3-30.4,8.5-46.1,9c-13.6,0.4-27.3-0.6-40.8-2.5c-9.5-1.4-18.7-3.5-28.3-4
			c-14.7-0.8-29.6,0.3-44.2,2.3c-13.6,1.8-27.4,4.4-40.3,9.3c-1.3,0.5-2.6,1-3.9,1.6C0,29.9,1.5,32.5,3.3,31.7L3.3,31.7z"/>
	</g>
</g>
<g>
	<circle class="st2" cx="118.8" cy="135.7" r="1.7"/>
	<circle class="st2" cx="125.4" cy="113.3" r="2.3"/>
	<circle class="st2" cx="119.4" cy="87.3" r="3.6"/>
	<circle class="st2" cx="127.7" cy="63.6" r="4.6"/>
</g>
<path class="st6" d="M6,175.2c9-7.4,3.1-5.2,54.8-3.8c24.1,0.7,28.2,0.8,64.6-5.1c36.3-5.9,84,8.2,81.9,15.1
	c-2.1,6.9,0.7,17-15.7,17.9s-138.4,4.1-157.4-3.4S-3,182.5,6,175.2z"/>
<g>
	<g>
		<g>
			<path class="st7" d="M175.4,182.2c-0.3-2.8-1.4-5.3-2.4-8c-0.9-2.4-1.7-5.3-0.4-7.6c0.6-1.2,1.7-2.1,2.7-3
				c0.9-0.9,1.8-1.9,2.5-2.9c1.5-1.9,2.7-4,3.7-6.3c1.9-4.5,2.7-9.4,2.2-14.3c-0.3-2.9-1.1-5.6-1.9-8.4c-0.8-2.9-1.5-5.8-1.8-8.8
				c-0.7-6.8-0.2-13.7,0.3-20.6c0.1-1.9-2.9-1.9-3,0c-0.4,6.1-0.9,12.2-0.5,18.2c0.2,3,0.6,6.1,1.3,9c0.7,2.9,1.7,5.7,2.3,8.6
				c1,4.8,0.4,9.8-1.3,14.4c-0.9,2.3-2.2,4.5-3.7,6.5c-1.6,2-3.8,3.5-5.1,5.7c-3.7,5.8,1.5,11.7,2.2,17.5
				C172.6,184.1,175.6,184.1,175.4,182.2L175.4,182.2z"/>
		</g>
	</g>
	<g>
		<g>
			<path class="st7" d="M184.7,137.4c-0.6-3.9,0.1-7.7,1.9-11.1c1.8-3.6,3.6-6.9,4.2-10.9c0.5-3.6,0.2-7.2,0.3-10.8
				c0-3.1,0.4-6.5,2.7-8.7c1.4-1.3-0.7-3.5-2.1-2.1c-5.5,5.3-2.9,14.1-3.8,20.9c-0.3,2.1-0.8,4.2-1.7,6.1c-0.9,1.9-2,3.6-2.8,5.5
				c-1.7,3.8-2.2,7.9-1.5,12.1C182.1,140.1,185,139.3,184.7,137.4L184.7,137.4z"/>
		</g>
	</g>
	<g>
		<g>
			<path class="st7" d="M177.7,159.6c0-3.3,0-6.6,0-9.9c0-1.3,0-2.6-0.4-3.9c-0.5-1.3-1.3-2.4-2-3.5c-2.6-4.8-0.7-11-1.3-16.3
				c-0.2-1.9-3.2-1.9-3,0c0.6,5.4-1,11.1,1,16.3c0.5,1.2,1.2,2.3,1.9,3.4c0.8,1.3,0.8,2.6,0.8,4c0,3.3,0,6.6,0,9.9
				C174.7,161.5,177.7,161.6,177.7,159.6L177.7,159.6z"/>
		</g>
	</g>
</g>
<g>
	<g>
		<path class="st8" d="M160,180.7c0.9-8-0.7-16.1-4.5-23.1c-0.9-1.7-3.5-0.2-2.6,1.5c3.5,6.6,4.9,14.1,4.1,21.6
			C156.8,182.6,159.8,182.6,160,180.7L160,180.7z"/>
	</g>
</g>
<g>
	<g>
		<path class="st8" d="M161.3,178.4c-0.3-9.5,0.3-19,1.9-28.3c0.3-1.9-2.6-2.7-2.9-0.8c-1.7,9.6-2.4,19.3-2,29.1
			C158.4,180.3,161.4,180.3,161.3,178.4L161.3,178.4z"/>
	</g>
</g>
<g>
	<g>
		<path class="st8" d="M65.6,181.4c2.1-6.3,1.7-13.1,1.7-19.6c0-6.8-0.1-13.7,0.3-20.5c0.2-3.4,0.4-6.8,0.9-10.2
			c0.4-3.3,1.1-6.6,1.3-9.9c0.3-6.4-2.2-12-5.8-17.2c-3.3-4.9-8.9-11.5-5.2-17.7c1-1.7-1.6-3.2-2.6-1.5c-3.2,5.2-1,11.4,2,16.2
			c3.4,5.2,7.7,10.1,8.4,16.5c0.4,3.3-0.2,6.7-0.7,9.9c-0.5,3.3-0.9,6.7-1.2,10.1c-0.5,6.8-0.5,13.7-0.5,20.5c0,3.9,0.1,7.8,0,11.6
			c-0.1,3.8-0.4,7.5-1.6,11.1C62.1,182.4,65,183.2,65.6,181.4L65.6,181.4z"/>
	</g>
</g>
<g>
	<g>
		<path class="st8" d="M65.4,167.5c-0.4-4.5-2-8.7-4.8-12.3c-2.5-3.2-8-6.6-7-11.3c0.4-1.9-2.5-2.7-2.9-0.8c-1,5.1,2.6,8.7,5.9,12
			c3.3,3.4,5.5,7.6,5.9,12.3C62.6,169.4,65.6,169.5,65.4,167.5L65.4,167.5z"/>
	</g>
</g>
<g>
	<g>
		<path class="st8" d="M67.9,175.9c1.1-3.1,1-6.4,2.1-9.5c1.1-3.2,4.4-4.5,6.1-7.2c1.1-1.6-1.5-3.1-2.6-1.5
			c-0.9,1.4-2.3,2.3-3.5,3.4c-1.3,1.2-2.2,2.6-2.8,4.3c-1.2,3.2-1,6.6-2.1,9.8c-0.3,0.8,0.3,1.6,1,1.8
			C66.8,177.2,67.6,176.7,67.9,175.9L67.9,175.9z"/>
	</g>
</g>
<g>
	<g>
		<g>
			<path class="st7" d="M29.6,179.3c-0.3-5.6-0.6-11.2-3-16.4c-2.1-4.6-5.4-8.6-6.8-13.5c-0.5-1.9-3.4-1.1-2.9,0.8
				c1.4,4.8,4.4,8.7,6.6,13.1c2.5,5,2.9,10.5,3.1,15.9C26.7,181.2,29.7,181.2,29.6,179.3L29.6,179.3z"/>
		</g>
	</g>
	<g>
		<g>
			<path class="st7" d="M28.2,163.1c-0.8-2.2-0.7-4.3,0.1-6.5c0.8-2.1,1.5-4,1.6-6.3c0.3-4.1-1.2-8.2-3.8-11.3
				c-1.2-1.5-3.4,0.7-2.1,2.1c2.4,2.9,3.5,6.9,2.8,10.6c-0.4,2-1.4,3.8-1.9,5.8c-0.4,2.1-0.3,4.3,0.5,6.3
				C26,165.7,28.9,164.9,28.2,163.1L28.2,163.1z"/>
		</g>
	</g>
	<g>
		<g>
			<path class="st7" d="M28.6,179.3c-1.2-1.3-2.1-2.9-2.9-4.6c-0.6-1.6-1.2-3.5-1.7-5.3c-0.2-0.8-1.1-1.3-1.8-1
				c-0.8,0.2-1.3,1.1-1,1.8c1.2,4,2.5,8.1,5.4,11.2c0.6,0.6,1.6,0.6,2.1,0C29.2,180.8,29.2,179.9,28.6,179.3L28.6,179.3z"/>
		</g>
	</g>
	<g>
		<g>
			<path class="st7" d="M30.2,176.5c0,0.4,0-0.2,0-0.3c0-0.2,0.1-0.3,0.1-0.5c0.1-0.3,0.1-0.6,0.2-0.9c0.2-0.6,0.4-1.3,0.6-1.9
				c0-0.1,0.2-0.6,0.1-0.2c0.1-0.1,0.1-0.2,0.2-0.4c0.1-0.3,0.3-0.6,0.5-0.9c0.3-0.6,0.7-1.1,1-1.7c0.4-0.6,0.1-1.7-0.5-2.1
				c-0.8-0.4-1.6-0.2-2.1,0.5c-1.7,2.5-2.7,5.3-3.1,8.3c-0.1,0.8,0.8,1.5,1.5,1.5C29.6,177.9,30.1,177.3,30.2,176.5L30.2,176.5z"/>
		</g>
	</g>
</g>
<g>
	<g>
		<path class="st9" d="M175.3,182.6C175.3,182.6,175.2,182.6,175.3,182.6c0.1,0,0.2,0,0.3,0C175.5,182.6,175.4,182.6,175.3,182.6
			c0.2,0,0.3,0,0.4,0c-0.1,0-0.2,0-0.2-0.1c0.1,0.1,0.2,0.1,0.4,0.2c-0.1,0-0.2-0.1-0.3-0.2c0.1,0.1,0.2,0.2,0.3,0.2
			c-0.1-0.1-0.2-0.2-0.3-0.3c0.1,0.1,0.2,0.2,0.2,0.3c-0.1-0.1-0.1-0.2-0.2-0.3c0.1,0.1,0.1,0.2,0.2,0.4c0-0.1-0.1-0.2-0.1-0.4
			c0,0.1,0,0.3,0.1,0.4c0-0.1,0-0.2,0-0.3c0,0.1,0,0.3-0.1,0.4c0-0.1,0.1-0.3,0.1-0.4c-0.1,0.1-0.1,0.2-0.2,0.4
			c0.1-0.2,0.2-0.3,0.3-0.4c-0.1,0.1-0.2,0.2-0.2,0.3c0.1-0.1,0.2-0.2,0.4-0.4c-0.1,0.1-0.2,0.2-0.3,0.2c0.2-0.1,0.3-0.2,0.5-0.3
			c-0.1,0.1-0.2,0.1-0.4,0.2c0.2-0.1,0.4-0.1,0.6-0.2c-0.1,0-0.3,0-0.4,0.1c0.3,0,0.6,0,0.9,0c-0.1,0-0.3,0-0.4-0.1
			c0.4,0.1,0.8,0.2,1.2,0.3c-0.1-0.1-0.2-0.1-0.4-0.2c0.1,0,0.2,0.1,0.3,0.2c-0.1-0.1-0.2-0.2-0.3-0.2c0.1,0,0.1,0.1,0.1,0.1
			c-0.1-0.1-0.2-0.2-0.2-0.3c0,0,0,0.1,0.1,0.1c-0.1-0.1-0.1-0.2-0.2-0.4c0,0.1,0.1,0.2,0.1,0.3c0-0.1,0-0.3-0.1-0.4
			c0,0.1,0,0.3,0,0.4c0-0.1,0-0.3,0.1-0.4c-0.1,0.5-0.2,1-0.3,1.4c0.1-0.1,0.1-0.2,0.2-0.4c-0.1,0.2-0.2,0.3-0.3,0.5
			c0.1-0.1,0.2-0.2,0.2-0.3c-0.1,0.1-0.2,0.2-0.3,0.3c0.1-0.1,0.2-0.2,0.3-0.2c-0.1,0.1-0.2,0.1-0.2,0.1c0.1-0.1,0.2-0.1,0.4-0.2
			c-0.1,0-0.2,0.1-0.2,0.1c0.1,0,0.3,0,0.4-0.1c-0.1,0-0.2,0-0.3,0c0.1,0,0.3,0,0.4,0.1c-0.1,0-0.2,0-0.3-0.1
			c0.1,0.1,0.2,0.1,0.4,0.2c-0.1,0-0.2-0.1-0.3-0.1c0.1,0.1,0.2,0.2,0.3,0.2c-0.1-0.1-0.1-0.1-0.2-0.2c0.1,0.1,0.2,0.2,0.2,0.3
			c0,0-0.1-0.1-0.1-0.2c0.1,0.1,0.1,0.2,0.2,0.4c0-0.1,0-0.1,0-0.2c0,0.1,0,0.3,0.1,0.4c0,0,0-0.1,0-0.1c0,0.1,0,0.3-0.1,0.4
			c0,0,0-0.1,0-0.1c0.2-0.7-0.3-1.7-1-1.8c-0.8-0.2-1.6,0.2-1.8,1c-0.3,0.8,0,1.7,0.7,2.3c0.7,0.6,1.5,0.8,2.4,0.6
			c1.5-0.3,2.1-1.9,2.3-3.3c0.1-0.5,0.1-0.9,0-1.4c-0.1-0.6-0.5-1.1-1.1-1.4c-0.7-0.4-1.5-0.6-2.3-0.6c-1.7-0.2-3.3,0.8-3.9,2.3
			c-0.3,0.8-0.2,1.9,0.3,2.6c0.3,0.4,0.6,0.7,1.1,1c0.6,0.3,1.2,0.3,1.8,0.2c0.4-0.1,0.7-0.4,0.9-0.7c0.2-0.3,0.3-0.8,0.2-1.2
			c-0.1-0.4-0.3-0.7-0.7-0.9C176.1,182.6,175.7,182.5,175.3,182.6L175.3,182.6z"/>
	</g>
</g>
<g>
	<g>
		<path class="st9" d="M163.2,181.4c0.5-0.4,0.6-0.3,0.4-0.3c0.1,0,0.3,0,0.4-0.1c0,0-0.1,0-0.1,0c0.1,0,0.3,0,0.4,0.1
			c0,0-0.1,0-0.1,0c-0.3,0,0.3,0.1,0.1,0.1c-0.2-0.1,0.2,0.2,0.1,0.1c-0.1-0.2,0-0.1,0.1,0.1c0-0.1-0.1-0.2-0.2-0.3
			c-0.1-0.1-0.1-0.2-0.2-0.4c-0.3-0.5-0.6-1-1-1.4c-1.1-1-2.5-1.3-3.9-0.7c-1.2,0.6-1.8,2.1-1.4,3.4c0.4,1.2,1.4,2.1,2.6,2.5
			c1.4,0.4,2.8,0,4.1,0.2c-0.1,0-0.3,0-0.4-0.1c0,0,0.1,0,0.1,0c0.4,0.1,0.8,0.1,1.2-0.2c0.3-0.2,0.5-0.4,0.6-0.7
			c0.3-0.7,0-1.4-0.6-1.9c-1-0.7-2.1-1.2-3.3-1.3c-0.4-0.1-0.8-0.1-1.2,0.2c-0.3,0.2-0.6,0.5-0.7,0.9c-0.2,0.7,0.2,1.7,1,1.8
			c0.3,0,0.5,0.1,0.8,0.2c0.2,0.1,0.5,0.2,0.7,0.2c-0.1,0-0.3-0.1-0.1,0c0.1,0,0.1,0.1,0.2,0.1c0.1,0.1,0.2,0.1,0.3,0.2
			c0.2,0.1,0.5,0.3,0.7,0.4c0.4-0.9,0.8-1.8,1.2-2.7c-0.7-0.1-1.3-0.1-2-0.1c-0.6,0-1.1,0-1.7,0c0.1,0,0.3,0,0.4,0.1
			c-0.2,0-0.3,0-0.5-0.1c-0.1,0-0.1,0-0.2-0.1c-0.1,0,0.4,0.2,0.1,0.1c-0.1-0.1-0.2-0.1-0.3-0.2c0,0-0.1-0.1-0.1-0.1
			c0,0.1,0.3,0.2,0.1,0.1c-0.1-0.1-0.2-0.2-0.2-0.2c-0.2-0.2,0.2,0.2,0.1,0.1c0-0.1-0.1-0.1-0.1-0.1c0,0,0-0.1-0.1-0.1
			c-0.1-0.1,0.1,0.4,0.1,0.1c0-0.1-0.1-0.2-0.1-0.3c0,0.1,0,0.3,0.1,0.4c0-0.1,0-0.2,0-0.3c0,0.1,0,0.3-0.1,0.4c0-0.1,0-0.1,0-0.2
			c0-0.2-0.2,0.3-0.1,0.1c0,0,0.1-0.1,0.1-0.1c-0.2,0.2-0.2,0.3-0.1,0.2c0,0,0-0.1,0.1-0.1c0.2-0.2-0.3,0.2-0.1,0.1
			c0,0,0.1-0.1,0.1-0.1c-0.2,0.2-0.3,0.1-0.1,0.1c0.1,0,0.1,0,0.2,0c-0.1,0-0.3,0-0.4,0.1c0.2,0,0.3,0,0.5,0c-0.1,0-0.3,0-0.4-0.1
			c0.1,0,0.2,0,0.3,0.1c0,0,0.1,0,0.1,0c0,0-0.3-0.2-0.1-0.1c0,0,0.1,0.1,0.1,0.1c0,0,0.3,0.2,0,0c-0.2-0.2,0.1,0.1,0.1,0.1
			c0.1,0.1,0.1,0.2,0.2,0.2c0.1,0.1-0.2-0.3-0.1-0.1c0,0,0.1,0.1,0.1,0.1c0.1,0.2,0.2,0.4,0.3,0.6c0.3,0.6,0.6,1.1,1.2,1.4
			c0.4,0.2,0.8,0.3,1.2,0.3c0.6,0,1-0.2,1.4-0.6c0.3-0.2,0.4-0.7,0.4-1.1c0-0.4-0.2-0.8-0.4-1.1c-0.3-0.3-0.7-0.5-1.1-0.4
			C163.8,181,163.5,181.1,163.2,181.4L163.2,181.4z"/>
	</g>
</g>
<g>
	<g>
		<path class="st9" d="M63.6,181.1c0.5-0.4,0.6-0.3,0.4-0.3c0.1,0,0.3,0,0.4-0.1c0,0-0.1,0-0.1,0c0.1,0,0.3,0,0.4,0.1
			c0,0-0.1,0-0.1,0c-0.3,0,0.3,0.1,0.1,0.1c-0.2-0.1,0.2,0.2,0.1,0.1c-0.1-0.2,0-0.1,0.1,0.1c0-0.1-0.1-0.2-0.2-0.3
			c-0.1-0.1-0.1-0.2-0.2-0.4c-0.3-0.5-0.6-1-1-1.4c-1.1-1-2.5-1.3-3.9-0.7c-1.2,0.6-1.8,2.1-1.4,3.4c0.4,1.2,1.4,2.1,2.6,2.5
			c1.4,0.4,2.8,0,4.1,0.2c-0.1,0-0.3,0-0.4-0.1c0,0,0.1,0,0.1,0c0.4,0.1,0.8,0.1,1.2-0.2c0.3-0.2,0.5-0.4,0.6-0.7
			c0.3-0.7,0-1.4-0.6-1.9c-1-0.7-2.1-1.2-3.3-1.3c-0.4-0.1-0.8-0.1-1.2,0.2c-0.3,0.2-0.6,0.5-0.7,0.9c-0.2,0.7,0.2,1.7,1,1.8
			c0.3,0,0.5,0.1,0.8,0.2c0.2,0.1,0.5,0.2,0.7,0.2c-0.1,0-0.3-0.1-0.1,0c0.1,0,0.1,0.1,0.2,0.1c0.1,0.1,0.2,0.1,0.3,0.2
			c0.2,0.1,0.5,0.3,0.7,0.4c0.4-0.9,0.8-1.8,1.2-2.7c-0.7-0.1-1.3-0.1-2-0.1c-0.6,0-1.1,0-1.7,0c0.1,0,0.3,0,0.4,0.1
			c-0.2,0-0.3,0-0.5-0.1c-0.1,0-0.1,0-0.2-0.1c-0.1,0,0.4,0.2,0.1,0.1c-0.1-0.1-0.2-0.1-0.3-0.2c0,0-0.1-0.1-0.1-0.1
			c0,0.1,0.3,0.2,0.1,0.1c-0.1-0.1-0.2-0.2-0.2-0.2c-0.2-0.2,0.2,0.2,0.1,0.1c0-0.1-0.1-0.1-0.1-0.1c0,0,0-0.1-0.1-0.1
			c-0.1-0.1,0.1,0.4,0.1,0.1c0-0.1-0.1-0.2-0.1-0.3c0,0.1,0,0.3,0.1,0.4c0-0.1,0-0.2,0-0.3c0,0.1,0,0.3-0.1,0.4c0-0.1,0-0.1,0-0.2
			c0-0.2-0.2,0.3-0.1,0.1c0,0,0.1-0.1,0.1-0.1c-0.2,0.2-0.2,0.3-0.1,0.2c0,0,0-0.1,0.1-0.1c0.2-0.2-0.3,0.2-0.1,0.1
			c0,0,0.1-0.1,0.1-0.1c-0.2,0.2-0.3,0.1-0.1,0.1c0.1,0,0.1,0,0.2,0c-0.1,0-0.3,0-0.4,0.1c0.2,0,0.3,0,0.5,0c-0.1,0-0.3,0-0.4-0.1
			c0.1,0,0.2,0,0.3,0.1c0,0,0.1,0,0.1,0c0,0-0.3-0.2-0.1-0.1c0,0,0.1,0.1,0.1,0.1c0,0,0.3,0.2,0,0c-0.2-0.2,0.1,0.1,0.1,0.1
			c0.1,0.1,0.1,0.2,0.2,0.2c0.1,0.1-0.2-0.3-0.1-0.1c0,0,0.1,0.1,0.1,0.1c0.1,0.2,0.2,0.4,0.3,0.6c0.3,0.6,0.6,1.1,1.2,1.4
			c0.4,0.2,0.8,0.3,1.2,0.3c0.6,0,1-0.2,1.4-0.6c0.3-0.2,0.4-0.7,0.4-1.1c0-0.4-0.2-0.8-0.4-1.1c-0.3-0.3-0.7-0.5-1.1-0.4
			C64.2,180.7,63.9,180.8,63.6,181.1L63.6,181.1z"/>
	</g>
</g>
<g>
	<g>
		<path class="st10" d="M154.9,181.8c0-0.1-0.1-0.1-0.1-0.2c0.1,0.1,0.1,0.2,0.2,0.4c0-0.1-0.1-0.2-0.1-0.3c0,0.1,0,0.3,0.1,0.4
			c0-0.1,0-0.3,0-0.4c0,0.1,0,0.3-0.1,0.4c0-0.1,0.1-0.3,0.1-0.4c-0.1,0.1-0.1,0.2-0.2,0.4c0.1-0.1,0.1-0.3,0.2-0.4
			C154.9,181.6,154.9,181.7,154.9,181.8c0-0.1,0.1-0.2,0.2-0.3C155,181.6,154.9,181.7,154.9,181.8c0.1-0.1,0.3-0.3,0.5-0.3
			c-0.1,0.1-0.2,0.1-0.4,0.2c0.2-0.1,0.5-0.2,0.8-0.2c-0.1,0-0.3,0-0.4,0.1c0.3,0,0.6,0,0.8,0c-0.1,0-0.3,0-0.4-0.1
			c0.3,0,0.5,0.1,0.7,0.2c-0.1-0.1-0.2-0.1-0.4-0.2c0.2,0.1,0.3,0.2,0.5,0.3c-0.1-0.1-0.2-0.2-0.3-0.2c0.1,0.1,0.2,0.2,0.3,0.3
			c-0.1-0.1-0.2-0.2-0.2-0.3c0.1,0.1,0.1,0.2,0.2,0.4c-0.1-0.1-0.1-0.2-0.2-0.4c0.1,0.2,0.1,0.3,0.1,0.5c0-0.1,0-0.3-0.1-0.4
			c0,0.2,0,0.3,0,0.5c0-0.1,0-0.3,0.1-0.4c0,0.1,0,0.2-0.1,0.3c0.1-0.1,0.1-0.2,0.2-0.4c0,0.1-0.1,0.2-0.2,0.3
			c0.1-0.1,0.2-0.2,0.2-0.3c-0.1,0.1-0.1,0.2-0.2,0.2c0.1-0.1,0.2-0.2,0.3-0.2c-0.1,0.1-0.2,0.1-0.2,0.1c0.1-0.1,0.2-0.1,0.4-0.2
			c-0.1,0-0.2,0.1-0.3,0.1c0.1,0,0.3,0,0.4-0.1c-0.1,0-0.3,0-0.4,0c0.1,0,0.3,0,0.4,0.1c-0.1,0-0.2,0-0.4-0.1
			c0.1,0.1,0.2,0.1,0.4,0.2c-0.1,0-0.2-0.1-0.2-0.1c0.1,0.1,0.2,0.2,0.3,0.2c-0.1,0-0.1-0.1-0.2-0.2c0.1,0.1,0.2,0.2,0.2,0.3
			c0-0.1-0.1-0.1-0.1-0.2c0.1,0.1,0.1,0.2,0.2,0.4c0,0,0,0,0,0c-0.1-0.4-0.3-0.7-0.7-0.9c-0.3-0.2-0.8-0.3-1.2-0.2
			c-0.4,0.1-0.7,0.3-0.9,0.7c-0.2,0.3-0.3,0.8-0.2,1.2c0.2,0.4,0.3,0.7,0.6,1c0.3,0.3,0.6,0.5,1,0.6c0.5,0.2,1.1,0.2,1.7,0.1
			c0.7-0.2,1.2-0.6,1.6-1.2c0.4-0.7,0.5-1.4,0.3-2.1c-0.2-1.3-1.3-2.3-2.5-2.6c-1.2-0.3-2.6-0.2-3.6,0.5c-0.7,0.5-1.2,1.1-1.4,1.9
			c-0.2,0.8-0.1,1.7,0.3,2.4c0.2,0.3,0.5,0.6,0.9,0.7c0.4,0.1,0.8,0.1,1.2-0.2C155,183.4,155.3,182.5,154.9,181.8L154.9,181.8z"/>
	</g>
</g>
<g>
	<g>
		<path class="st10" d="M177.6,188.4c0-0.2,0-0.5,0-0.7c0-0.1,0-0.2,0-0.3c0,0,0-0.1,0-0.1c0-0.2,0-0.1,0,0.1c0-0.1,0.1-0.6,0.1-0.6
			c-0.1,0.2-0.1,0.2,0,0.1c0,0,0-0.1,0.1-0.1c0,0,0-0.1,0.1-0.1c-0.1,0.2-0.2,0.2-0.1,0.1c0.1-0.1,0.2-0.2,0.2-0.2
			c0.2-0.2-0.3,0.2,0,0c0.2-0.1,0.3-0.2,0.5-0.3c0.3-0.1-0.3,0.1,0,0c0.1,0,0.2-0.1,0.3-0.1c0.1,0,0.2-0.1,0.3-0.1
			c0.3-0.1-0.3,0,0,0c0.2,0,0.4,0,0.6,0c0.3,0-0.3-0.1,0,0c0.1,0,0.2,0,0.3,0.1c0,0,0.1,0,0.1,0c0.2,0.1,0.1,0-0.1,0
			c0,0,0.2,0.1,0.2,0.1c0,0,0.1,0,0.1,0.1c0.1,0.1,0,0-0.1-0.1c0,0.1,0.1,0.1,0.2,0.2c0,0,0.1,0.1,0.1,0.1c0-0.1-0.1-0.1-0.1-0.2
			c0,0.1,0.1,0.2,0.2,0.2c0,0,0,0.1,0.1,0.1c0.1,0.1,0.1,0.1,0-0.1c0,0.1,0.1,0.2,0.1,0.2c0,0.1,0,0.2,0.1,0.2c-0.1-0.4,0-0.2,0-0.1
			c0,0.3,0,0,0-0.1c0,0.1-0.1,0.2-0.1,0.3c0.2-0.3,0.5-0.6,0.7-0.9c0.2-0.1,0.2-0.1,0,0c-0.1,0-0.2,0.1-0.2,0.1
			c-0.2,0-0.3,0.1-0.5,0.1c-0.2,0-0.3,0-0.5,0.1c0.2,0,0.3,0,0,0c-0.1,0-0.2,0-0.3,0c-0.3,0-0.6-0.1-0.9,0c0.3,0,0.2,0,0,0
			c-0.1,0-0.2,0-0.3-0.1c-0.2,0-0.3-0.1-0.5-0.1c0,1,0,1.9,0,2.9c1-0.2,2.2-0.6,2.9-1.4c0.8-1,1.2-2.5,0.4-3.6
			c-0.2-0.3-0.5-0.6-0.9-0.7c-0.4-0.1-0.8-0.1-1.2,0.2c-0.6,0.4-1,1.4-0.5,2.1c0,0,0,0.1,0.1,0.1c0.1,0.1,0,0-0.1-0.2
			c0,0.1,0,0.3,0,0c0-0.3,0,0,0,0c0,0.1,0,0.1,0,0c0-0.1,0-0.2,0,0c0,0.1-0.1,0.3,0,0.1c0.1-0.2,0,0,0,0c0,0,0,0.1-0.1,0.1
			c-0.1,0.1,0,0,0.1-0.1c0,0-0.1,0.1-0.1,0.1c-0.1,0.1,0.3-0.2,0,0c-0.1,0-0.1,0.1-0.2,0.1c0,0-0.2,0.1-0.2,0.1
			c0.2-0.1,0.2-0.1,0.1-0.1c0,0-0.1,0-0.1,0c-0.3,0.1-0.7,0.2-1,0.3c-0.6,0.1-1.1,0.8-1.1,1.4c0,0.7,0.4,1.2,1.1,1.4
			c1.3,0.4,2.8,0.5,4.1,0.1c0.3-0.1,0.7-0.2,1-0.3c0.6-0.2,0.9-0.7,1.1-1.3c0.1-0.7,0.1-1.4-0.2-2c-0.5-1.3-1.7-2.3-3.1-2.6
			c-1.4-0.2-2.9,0-4.1,0.9c-0.7,0.5-1.3,1.2-1.6,2.1c-0.2,0.7-0.2,1.5-0.2,2.2c0,0.8,0.7,1.5,1.5,1.5
			C176.9,189.9,177.6,189.3,177.6,188.4L177.6,188.4z"/>
	</g>
</g>
<g>
	<g>
		<path class="st10" d="M66.7,181.2c0-0.2,0-0.5,0-0.7c0-0.1,0-0.2,0-0.3c0,0,0-0.1,0-0.1c0-0.2,0-0.1,0,0.1c0-0.1,0.1-0.6,0.1-0.6
			c-0.1,0.2-0.1,0.2,0,0.1c0,0,0-0.1,0.1-0.1c0,0,0-0.1,0.1-0.1c-0.1,0.2-0.2,0.2-0.1,0.1c0.1-0.1,0.2-0.2,0.2-0.2
			c0.2-0.2-0.3,0.2,0,0c0.2-0.1,0.3-0.2,0.5-0.3c0.3-0.1-0.3,0.1,0,0c0.1,0,0.2-0.1,0.3-0.1c0.1,0,0.2-0.1,0.3-0.1
			c0.3-0.1-0.3,0,0,0c0.2,0,0.4,0,0.6,0c0.3,0-0.3-0.1,0,0c0.1,0,0.2,0,0.3,0.1c0,0,0.1,0,0.1,0c0.2,0.1,0.1,0-0.1,0
			c0,0,0.2,0.1,0.2,0.1c0,0,0.1,0,0.1,0.1c0.1,0.1,0,0-0.1-0.1c0,0.1,0.1,0.1,0.2,0.2c0,0,0.1,0.1,0.1,0.1c0-0.1-0.1-0.1-0.1-0.2
			c0,0.1,0.1,0.2,0.2,0.2c0,0,0,0.1,0.1,0.1c0.1,0.1,0.1,0.1,0-0.1c0,0.1,0.1,0.2,0.1,0.2c0,0.1,0,0.2,0.1,0.2c-0.1-0.4,0-0.2,0-0.1
			c0,0.3,0,0,0-0.1c0,0.1-0.1,0.2-0.1,0.3c0.2-0.3,0.5-0.6,0.7-0.9c0.2-0.1,0.2-0.1,0,0c-0.1,0-0.2,0.1-0.2,0.1
			c-0.2,0-0.3,0.1-0.5,0.1c-0.2,0-0.3,0-0.5,0.1c0.2,0,0.3,0,0,0c-0.1,0-0.2,0-0.3,0c-0.3,0-0.6-0.1-0.9,0c0.3,0,0.2,0,0,0
			c-0.1,0-0.2,0-0.3-0.1c-0.2,0-0.3-0.1-0.5-0.1c0,1,0,1.9,0,2.9c1-0.2,2.2-0.6,2.9-1.4c0.8-1,1.2-2.5,0.4-3.6
			c-0.2-0.3-0.5-0.6-0.9-0.7c-0.4-0.1-0.8-0.1-1.2,0.2c-0.6,0.4-1,1.4-0.5,2.1c0,0,0,0.1,0.1,0.1c0.1,0.1,0,0-0.1-0.2
			c0,0.1,0,0.3,0,0c0-0.3,0,0,0,0c0,0.1,0,0.1,0,0c0-0.1,0-0.2,0,0c0,0.1-0.1,0.3,0,0.1c0.1-0.2,0,0,0,0c0,0,0,0.1-0.1,0.1
			c-0.1,0.1,0,0,0.1-0.1c0,0-0.1,0.1-0.1,0.1c-0.1,0.1,0.3-0.2,0,0c-0.1,0-0.1,0.1-0.2,0.1c0,0-0.2,0.1-0.2,0.1
			c0.2-0.1,0.2-0.1,0.1-0.1c0,0-0.1,0-0.1,0c-0.3,0.1-0.7,0.2-1,0.3c-0.6,0.1-1.1,0.8-1.1,1.4c0,0.7,0.4,1.2,1.1,1.4
			c1.3,0.4,2.8,0.5,4.1,0.1c0.3-0.1,0.7-0.2,1-0.3c0.6-0.2,0.9-0.7,1.1-1.3c0.1-0.7,0.1-1.4-0.2-2c-0.5-1.3-1.7-2.3-3.1-2.6
			c-1.4-0.2-2.9,0-4.1,0.9c-0.7,0.5-1.3,1.2-1.6,2.1c-0.2,0.7-0.2,1.5-0.2,2.2c0,0.8,0.7,1.5,1.5,1.5C66,182.7,66.7,182,66.7,181.2
			L66.7,181.2z"/>
	</g>
</g>
<g>
	<g>
		<path class="st10" d="M31.7,181.8c0-0.2,0-0.5,0-0.7c0-0.1,0-0.2,0-0.3c0,0,0-0.1,0-0.1c0-0.2,0-0.1,0,0.1c0-0.1,0.1-0.6,0.1-0.6
			c-0.1,0.2-0.1,0.2,0,0.1c0,0,0-0.1,0.1-0.1c0,0,0-0.1,0.1-0.1c-0.1,0.2-0.2,0.2-0.1,0.1c0.1-0.1,0.2-0.2,0.2-0.2
			c0.2-0.2-0.3,0.2,0,0c0.2-0.1,0.3-0.2,0.5-0.3c0.3-0.1-0.3,0.1,0,0c0.1,0,0.2-0.1,0.3-0.1c0.1,0,0.2-0.1,0.3-0.1
			c0.3-0.1-0.3,0,0,0c0.2,0,0.4,0,0.6,0c0.3,0-0.3-0.1,0,0c0.1,0,0.2,0,0.3,0.1c0,0,0.1,0,0.1,0c0.2,0.1,0.1,0-0.1,0
			c0,0,0.2,0.1,0.2,0.1c0,0,0.1,0,0.1,0.1c0.1,0.1,0,0-0.1-0.1c0,0.1,0.1,0.1,0.2,0.2c0,0,0.1,0.1,0.1,0.1c0-0.1-0.1-0.1-0.1-0.2
			c0,0.1,0.1,0.2,0.2,0.2c0,0,0,0.1,0.1,0.1c0.1,0.1,0.1,0.1,0-0.1c0,0.1,0.1,0.2,0.1,0.2c0,0.1,0,0.2,0.1,0.2c-0.1-0.4,0-0.2,0-0.1
			c0,0.3,0,0,0-0.1c0,0.1-0.1,0.2-0.1,0.3c0.2-0.3,0.5-0.6,0.7-0.9c0.2-0.1,0.2-0.1,0,0c-0.1,0-0.2,0.1-0.2,0.1
			c-0.2,0-0.3,0.1-0.5,0.1c-0.2,0-0.3,0-0.5,0.1c0.2,0,0.3,0,0,0c-0.1,0-0.2,0-0.3,0c-0.3,0-0.6-0.1-0.9,0c0.3,0,0.2,0,0,0
			c-0.1,0-0.2,0-0.3-0.1c-0.2,0-0.3-0.1-0.5-0.1c0,1,0,1.9,0,2.9c1-0.2,2.2-0.6,2.9-1.4c0.8-1,1.2-2.5,0.4-3.6
			c-0.2-0.3-0.5-0.6-0.9-0.7c-0.4-0.1-0.8-0.1-1.2,0.2c-0.6,0.4-1,1.4-0.5,2.1c0,0,0,0.1,0.1,0.1c0.1,0.1,0,0-0.1-0.2
			c0,0.1,0,0.3,0,0c0-0.3,0,0,0,0c0,0.1,0,0.1,0,0c0-0.1,0-0.2,0,0c0,0.1-0.1,0.3,0,0.1c0.1-0.2,0,0,0,0c0,0,0,0.1-0.1,0.1
			c-0.1,0.1,0,0,0.1-0.1c0,0-0.1,0.1-0.1,0.1c-0.1,0.1,0.3-0.2,0,0c-0.1,0-0.1,0.1-0.2,0.1c0,0-0.2,0.1-0.2,0.1
			c0.2-0.1,0.2-0.1,0.1-0.1c0,0-0.1,0-0.1,0c-0.3,0.1-0.7,0.2-1,0.3c-0.6,0.1-1.1,0.8-1.1,1.4c0,0.7,0.4,1.2,1.1,1.4
			c1.3,0.4,2.8,0.5,4.1,0.1c0.3-0.1,0.7-0.2,1-0.3c0.6-0.2,0.9-0.7,1.1-1.3c0.1-0.7,0.1-1.4-0.2-2c-0.5-1.3-1.7-2.3-3.1-2.6
			c-1.4-0.2-2.9,0-4.1,0.9c-0.7,0.5-1.3,1.2-1.6,2.1c-0.2,0.7-0.2,1.5-0.2,2.2c0,0.8,0.7,1.5,1.5,1.5
			C31,183.3,31.7,182.6,31.7,181.8L31.7,181.8z"/>
	</g>
</g>
</svg>
