<?xml version="1.0" encoding="utf-8"?>
<!-- Generator: Adobe Illustrator 26.2.1, SVG Export Plug-In . SVG Version: 6.00 Build 0)  -->
<svg version="1.1" id="Capa_1" xmlns="http://www.w3.org/2000/svg" xmlns:xlink="http://www.w3.org/1999/xlink" x="0px" y="0px"
	 viewBox="0 0 210.8 202.1" style="enable-background:new 0 0 210.8 202.1;" xml:space="preserve">
<style type="text/css">
	.st0{fill:#6D66B0;}
	.st1{fill:#543DB3;}
	.st2{fill:#FFFFFF;}
	.st3{fill:#1D1D1B;}
	.st4{fill:#349FA9;}
	.st5{opacity:0.34;}
</style>
<g>
	<path class="st0" d="M128.5,93.4l15.3-4.8c-1.5-4-4.5-9.3-6.3-11.9c-7.7-11.6-17-21.7-31.3-31.5l-7.6,16.1c0,0,11.6,5.1,21.2,18
		C129.4,92.2,128.5,93.4,128.5,93.4"/>
	<path class="st1" d="M106.7,67.7c-5.3-3.6-9-6.3-9-6.3l8.5-16.3c2,1.1,7.9,5.7,11.8,9.2L106.7,67.7z"/>
	<path class="st1" d="M122.7,83.6c-0.7-1-2.1-3.2-2.9-4.3c-2.3-3.1-1.1-1.6-3.8-4.1l11.5-11.5c3.9,4.2,7.1,8.5,9.9,12.8L122.7,83.6z
		"/>
	<path class="st1" d="M76.6,37.3c-0.2,0.4-0.3,0.6-0.3,0.6c5.6,2.9,44.6,21.5,56.7,48.5c12,27,7.5,56.7,7.5,56.7l-9.6-5.1l-2.2,9.2
		c0,0-10.8-4.4-22.1-16.3C95.3,119.1,69.1,82.2,64,70.3c-5-11.8-2.6-18.7-2.1-26C67.4,43,71.2,40.2,76.6,37.3"/>
	<path class="st0" d="M64.5,27.1C67.2,21,82.3,5,82.3,5s1.9,8.2-0.6,18.6c-1.9,7.6-6.5,13.2-6.5,13.2c1.3,0.7,5.6,3.3,9.8,5.6
		c-1.3,0.6-2.1,1.9-2.4,4c0,0-5.6-2.1-9.4,0.4c-3.3,2.1-1.4,7.8-0.8,9.4c-0.7-1.5-3.8-5.1-8.6-3c-1,0.4-2.6,2-2.9,3.3
		c-0.6-7.2,0.5-11.4,1-14.3c-2.8-1.6-9.2-2.7-14.4-7.7c-5.1-4.8-10.2-10.2-10.2-10.2C36.3,23.4,56.7,22.2,64.5,27.1"/>
	<path class="st0" d="M85,59.6l10.6,2.6c0,0-4.8-7.5,3.1-11.4c7.8,5.1,16.2,11.7,23.1,19.3c-5.5-0.3-11.5-0.3-13.5,0.8
		c-4,2.2-2.2,11.2-2.2,11.2s-6.7-7.9-12.3-5.6S87.5,89,87.5,89l-9,4.6c-4.8-7.2-9.1-13.9-12-18.8l9.9-6C76.4,68.7,74.4,57,85,59.6"
		/>
	<path class="st0" d="M104.4,106.5c0,0,2.5-8.6,5.3-10.1c2.8-1.5,9.4,4.8,9.4,4.8s2-10.3,6.3-11.9c2.1-0.7,5.7,0,9.2,1
		c2.8,7.2,4.5,14.5,5.5,21.3L107.6,132c-0.3-0.3-0.7-0.7-1-1c-4.2-4.4-10.5-12.5-16.9-21.4c1.6-2.3,3.3-4.4,4.8-5.6
		C98.9,100.3,104.4,106.5,104.4,106.5"/>
	<path class="st1" d="M123.7,106.7c5.2-3,10.3-4.3,14.5-4.8c5.2,21.7,2.3,41.2,2.3,41.2l-9.6-5.1l-2.2,9.2c0,0-10.8-4.4-22.1-16.3
		c-1.5-1.6-3.3-3.7-5.3-6.1C105.9,119.6,114.4,112.1,123.7,106.7"/>
	<path class="st2" d="M130.8,120.8c-3.4-2.7-9.9,1.3-10.8,5.4c-0.9,4.1,4.5,10.4,10.4,6.4C136.1,128.7,134.8,124,130.8,120.8"/>
	<path class="st3" d="M129.4,126.1c-0.7-0.5-1.9,0.3-2.1,1.1c-0.2,0.8,0.9,2,2,1.3C130.4,127.6,130.1,126.7,129.4,126.1"/>
</g>
<g>
	<g>
		<path class="st4" d="M3.3,86c13.5-5.9,28.1-9.3,42.7-10.7c7.4-0.7,14.8-0.8,22.2-0.3c7.6,0.5,15.1,1.8,22.5,3.7
			c8.2,2.1,16.2,4.6,24.4,6.6c8.1,1.9,16.4,3.3,24.8,3.5c7.5,0.2,14.9-0.6,22.1-2.5c5.2-1.3,10.3-2.9,15.3-4.8
			c5.6-2.1,11.2-4.4,16.5-7.2c4.5-2.4,9.2-5.2,12.7-9c0.7-0.8,1.4-1.6,2-2.5c1.1-1.6-1.5-3.1-2.6-1.5c-2.7,3.9-6.9,6.6-10.9,8.9
			c-5.1,2.9-10.5,5.3-15.9,7.4c-11.5,4.4-23.5,8-35.9,8.1c-8.4,0.1-16.8-1-25-2.9c-8.2-1.9-16.3-4.4-24.5-6.5
			c-7.4-1.9-14.8-3.4-22.3-4.1c-7.3-0.7-14.7-0.7-22.1-0.2c-14.6,1-29.2,4-42.8,9.4c-1.6,0.6-3.2,1.3-4.8,2C0,84.2,1.5,86.7,3.3,86
			L3.3,86z"/>
	</g>
</g>
<g class="st5">
	<path class="st4" d="M2.5,84.7c23.9-10.5,55-14.4,80.6-9.3c12.1,2.4,23.9,6.6,35.9,9.2c13.1,2.8,26.8,3.8,39.8,0.9
		c13.1-2.9,40.9-12.4,48.4-23.5c0,0-8.8,33.6-2.6,65c6.2,31.4,8.1,65.9-20.7,70c-73.7,10.5-162-0.7-174-15.9S2.5,84.7,2.5,84.7z"/>
</g>
<g>
	<g>
		<path class="st4" d="M149.6,79.7c0-0.6,0-1.3,0.1-1.9c0,0.1,0,0.3-0.1,0.4c0.1-0.6,0.2-1.1,0.4-1.7c0-0.1,0.1-0.3,0.1-0.4
			c0-0.1,0-0.1,0.1-0.2c0.1-0.3-0.1,0.2,0,0.1c0.1-0.3,0.2-0.5,0.4-0.8c0.4-0.7,0.2-1.7-0.5-2.1c-0.7-0.4-1.6-0.2-2.1,0.5
			c-1,1.8-1.5,3.9-1.4,6c0.1,0.8,0.6,1.5,1.5,1.5C148.8,81.2,149.6,80.5,149.6,79.7L149.6,79.7z"/>
	</g>
</g>
<g>
	<g>
		<path class="st4" d="M142.7,65.8c1.1-4.1,1-8.4-0.3-12.5c-0.6-1.8-3.5-1.1-2.9,0.8c1.1,3.5,1.2,7.3,0.3,10.9
			C139.3,66.9,142.2,67.7,142.7,65.8L142.7,65.8z"/>
	</g>
</g>
<g>
	<g>
		<path class="st4" d="M49.4,61.2c-2.4-3.4-5.4-6.4-8.8-8.7c-0.7-0.4-1.7-0.1-2.1,0.5c-0.4,0.8-0.2,1.6,0.5,2.1
			c0.4,0.3,0.8,0.5,1.2,0.8c0.1,0.1,0.2,0.2,0.3,0.3c0.1,0.1,0.2,0.1,0,0c0.2,0.1,0.4,0.3,0.6,0.4c0.7,0.6,1.5,1.3,2.1,1.9
			c0.7,0.7,1.3,1.3,1.9,2.1c0.2,0.2,0.3,0.4,0.4,0.5c0.1,0.1,0.1,0.2,0.2,0.3c0.2,0.2,0,0,0.1,0.1c0.3,0.4,0.6,0.8,0.9,1.2
			c0.4,0.6,1.3,1,2.1,0.5C49.5,62.9,49.9,61.9,49.4,61.2L49.4,61.2z"/>
	</g>
</g>
<g>
	<g>
		<path class="st4" d="M21.9,47.6c-2.3-1.1-4.7-1.7-7.3-1.7c-0.8,0-1.5,0.7-1.5,1.5c0,0.8,0.7,1.5,1.5,1.5c0.6,0,1.1,0,1.6,0.1
			c0.1,0,0.2,0,0.4,0c-0.4-0.1,0.1,0,0.2,0c0.3,0,0.5,0.1,0.8,0.1c0.5,0.1,1,0.3,1.5,0.4c0.3,0.1,0.5,0.2,0.8,0.3
			c-0.3-0.2,0,0,0.1,0c0.1,0.1,0.3,0.1,0.4,0.2c0.7,0.3,1.7,0.2,2.1-0.5C22.8,49,22.7,47.9,21.9,47.6L21.9,47.6z"/>
	</g>
</g>
<g>
	<g>
		<path class="st4" d="M134.8,31.9c0-1.1,0-2.1,0.1-3.2c0-0.1,0-0.3,0-0.4c-0.1,0.4,0,0,0-0.1c0-0.3,0.1-0.6,0.1-0.8
			c0.1-0.5,0.2-1,0.4-1.5c0.2-0.8-0.3-1.7-1-1.8c-0.8-0.2-1.6,0.2-1.8,1c-0.6,2.2-0.9,4.5-0.8,6.8c0,0.8,0.7,1.5,1.5,1.5
			C134.1,33.4,134.8,32.7,134.8,31.9L134.8,31.9z"/>
	</g>
</g>
<g>
	<g>
		<path class="st4" d="M162.2,75.2c0.2-0.2,0.3-0.5,0.5-0.7c0.1-0.1,0.2-0.2,0.3-0.3c0-0.1,0.1-0.1,0.1-0.2c0.1-0.1-0.2,0.3,0,0
			c0.4-0.4,0.7-0.9,1.1-1.3c0.7-0.9,1.5-1.7,2.4-2.5c0.6-0.5,0.6-1.6,0-2.1c-0.6-0.6-1.5-0.6-2.1,0c-1.8,1.7-3.4,3.5-4.8,5.5
			c-0.5,0.6-0.1,1.7,0.5,2.1C160.9,76.2,161.7,75.9,162.2,75.2L162.2,75.2z"/>
	</g>
</g>
<g>
	<g>
		<path class="st4" d="M24.6,68.8c-0.2-0.1-0.5-0.1-0.7-0.2c0.1,0.1,0.2,0.1,0.4,0.2c-0.3-0.1-0.6-0.3-0.9-0.5
			c0.1,0.1,0.2,0.2,0.3,0.2c-0.1-0.1-0.2-0.1-0.3-0.2c-0.3-0.3-0.7-0.4-1.1-0.4c-0.2,0-0.4,0-0.6,0.1c-0.2,0.1-0.3,0.2-0.5,0.3
			c-0.3,0.3-0.5,0.7-0.4,1.1c0,0.4,0.1,0.8,0.4,1.1c0.2,0.2,0.5,0.4,0.7,0.6c0.2,0.1,0.3,0.2,0.5,0.3c0.3,0.1,0.5,0.3,0.8,0.4
			c0.2,0.1,0.4,0.1,0.5,0.2c0.4,0.1,0.8,0.1,1.2-0.2c0.2-0.1,0.3-0.2,0.4-0.4c0.1-0.1,0.2-0.3,0.3-0.5c0.1-0.4,0.1-0.8-0.2-1.2
			C25.2,69.1,24.9,68.8,24.6,68.8L24.6,68.8z"/>
	</g>
</g>
</svg>
