<?xml version="1.0" encoding="utf-8"?>
<!-- Generator: Adobe Illustrator 26.2.1, SVG Export Plug-In . SVG Version: 6.00 Build 0)  -->
<svg version="1.1" id="Capa_1" xmlns="http://www.w3.org/2000/svg" xmlns:xlink="http://www.w3.org/1999/xlink" x="0px" y="0px"
	 viewBox="0 0 62.8 129.9" style="enable-background:new 0 0 62.8 129.9;" xml:space="preserve">
<style type="text/css">
	.st0{fill:#E0D6B9;}
	.st1{fill:#BF0811;}
	.st2{clip-path:url(#SVGID_00000011726248293683034000000004201995943595652796_);}
	.st3{fill:none;stroke:#FFFFFF;stroke-width:1.79;}
	.st4{fill:#6EAA6F;}
	.st5{clip-path:url(#SVGID_00000070109983589003711840000008745345871515146671_);}
	.st6{fill:#6F4714;}
	.st7{fill:#111419;}
	.st8{fill:#FFFFFF;}
	.st9{fill:#211915;}
	.st10{fill:none;stroke:#211915;stroke-width:0.73;stroke-linecap:round;}
	.st11{fill:#727176;}
</style>
<g>
	<path class="st0" d="M53.5,84.2c1.3,2.1,4.1,5.6,4.7,4.8s0.2-1.2-0.6-2.3c0.8,0.6,1.1,0.8,1.2,0.8c1.5,0.8,1.7,0.4,2.1-0.2
		s-0.8-1.3-1.5-1.8c-0.5-0.4-0.5-0.5-0.7-0.6l0,0c0.2,0.1,0.4,0.2,0.6,0.2c1,0.3,2.7,0,2.9-0.6c0.1-0.3,0-0.5-0.1-0.8
		c-0.4-0.6-1.9-0.5-3.5-1.2c0.4-0.1,2.2-0.8,1.9-1.6c-0.2-0.6-0.9-0.8-2.5-0.6c-0.5,0.1-1.5,0.3-1.5,0.3c-3.7-1.7-7.1-4.1-9.9-7
		l-4.4,2.1C48.2,81.3,53.1,83.4,53.5,84.2"/>
	<path class="st1" d="M47.7,73c0,0-1.8-3.1-3.1-5.2c-1-1.6-5.6-9.9-5.6-9.9l-1.1,0.5l3.6,17.7L47.7,73z"/>
	<g>
		<defs>
			<path id="SVGID_1_" d="M44.6,67.8c-1-1.6-5.6-9.9-5.6-9.9l-1.1,0.5l3.6,17.7l6.2-3.2C47.7,72.9,45.9,69.8,44.6,67.8"/>
		</defs>
		<clipPath id="SVGID_00000111176125061186705130000012271792379101887423_">
			<use xlink:href="#SVGID_1_"  style="overflow:visible;"/>
		</clipPath>
		<g style="clip-path:url(#SVGID_00000111176125061186705130000012271792379101887423_);">
			<path class="st3" d="M44,58.8c-5,3.2-10.9,4.8-16.8,4.5c-8.9-0.4-16.9-5.1-16.9-5.1"/>
			<path class="st3" d="M45,64.4c0,0-5,4.3-14.8,4.7c-8.1,0.1-16.1-1.8-23.2-5.7"/>
			<path class="st3" d="M49,67.8c-5.6,4.7-12.7,7.3-20,7.3c-10.5,0.1-21.2-4.5-21.2-4.5"/>
		</g>
	</g>
	<path class="st0" d="M9.8,90.1c-1.6,1.8-2.9,3.7-1.9,4.1s1.2-0.2,2-1.2c-0.2,0.5-0.3,1-0.4,1.4c-0.3,1.7,0.1,1.8,0.9,1.9
		s1-1.2,1.2-2c0.1-0.3,0.2-0.6,0.3-0.8l0,0c0,0.2,0,0.4,0,0.6c0,1,0.8,2.6,1.5,2.6c0.3,0,0.5-0.2,0.7-0.4c0.5-0.6-0.1-2,0.1-3.7
		c0.2,0.3,1.4,1.8,2.1,1.3c0.5-0.3,0.5-1.1-0.2-2.6c-0.2-0.5-0.8-1.4-0.8-1.4c0-0.5,0.9-10.9,1.2-12.9l-3.9-1.6
		c-0.5,2.3-0.6,6.6-0.9,9c-0.1,1.2-0.3,2.3-0.6,3.5C10.8,88.7,10.3,89.4,9.8,90.1"/>
	<path class="st4" d="M32.2,103.6c-2.8,0.8-10.8,10.9-14.1,11.3c-2.6,0.3-5-1.1-7.1-4c-0.2-0.3-0.1-0.7-0.2-0.3c1.6-3,3-6,4.3-9.1
		c1.2-3.1,2.1-6.3,2.7-9.6h0.5c8,0.7,16,0.4,23.9-1l0.6,2.8l7.3,17.8c0.2,0.5,0.2,1-0.1,1.5c-0.1,0.3-0.4,0.6-0.7,0.7
		c-1.8,1.3-3.9,1.9-6.1,1.6c-3.6-0.6-7.4-8.7-9.8-11.6L32.2,103.6z"/>
	<path class="st1" d="M42.1,75.7c0.9,4.9,1.3,9.8,2.9,15.6c-0.9,0.6-14.6,4-29,1.6c0,0,1.5-13.1,1.8-15.3l1.2-7.7l-1.9,7.5l-6.4-2
		c1.1-4.9,2.9-10.7,7.1-20.4l1.3,0.9c1,0.6,19.3,2.2,19.9,2l0,0"/>
	<g>
		<defs>
			<path id="SVGID_00000055680295419802325930000015429895028544664251_" d="M17.9,54.9c-4.2,9.7-6,15.5-7.1,20.4l6.4,2l1.9-7.5
				l-1.2,7.7c-0.2,2.2-1.8,15.3-1.8,15.3c14.4,2.4,28.1-1,29-1.6c-1.6-5.8-2-10.6-2.9-15.6L39,57.8l0,0c-0.6,0.2-18.9-1.4-19.9-2
				L17.9,54.9z"/>
		</defs>
		<clipPath id="SVGID_00000148652963781482285000000012694057252882047644_">
			<use xlink:href="#SVGID_00000055680295419802325930000015429895028544664251_"  style="overflow:visible;"/>
		</clipPath>
		<g style="clip-path:url(#SVGID_00000148652963781482285000000012694057252882047644_);">
			<path class="st3" d="M44,61.2c0,0-6.5,2.5-16.8,2.1c-8.9-0.4-16.9-5.1-16.9-5.1"/>
			<path class="st3" d="M44.7,66.2c0,0-4.7,2.5-14.5,2.9c-8.1,0.1-16.1-1.8-23.2-5.7"/>
			<path class="st3" d="M49.4,70.3c-6.3,3.2-13.3,4.9-20.4,4.9c-10.5,0.1-21.2-4.5-21.2-4.5"/>
			<path class="st3" d="M46.6,78.4C41.5,80,36.3,81,31,81.4c-7.8,0.4-15.5-0.1-23.1-1.7"/>
			<path class="st3" d="M45.8,85.2c0,0-14.7,5-35.9,1.4"/>
		</g>
	</g>
	<path class="st0" d="M9.7,29.3c-0.2,2.6-0.8,5.2-1.8,7.7l0,0c0.1,0.7,0.3,1.5,0.4,2.2c0.1,0.4,0.1,0.7,0.2,1
		c0.3,1.2,0.7,2.5,1.1,3.7c1.8,4.9,5.1,9.2,9.5,12c5.8,2.9,12.4,3.8,18.7,2.6c12.2-2.1,15.8-16.7,11-29.8c-1.5-4.2-3.3-8.2-5.4-12.2
		C37.5,8.7,13.7,28.9,9.7,29.3L9.7,29.3"/>
	<path class="st6" d="M3.7,33c-3.7,4.9-6.1,2.7,0.2-5.5l0.1-0.1c1.6,1.5,3.7,2.1,5.8,1.9l0,0c-0.2,2.6-0.8,5.2-1.8,7.7
		c-1.4,3.1-3.1,4.7-2.4-2C3.6,41.7-0.3,41.9,3.7,33"/>
	<path class="st7" d="M42.9,16.2c-5.3-1.6-11.8,2.2-18.3,6.2L23,23.3c-4.7,2.9-9.3,5.9-13.3,6.2c-2.2,0.3-4.4-0.4-6.1-1.9
		c-1.4-1.3-2.2-3.5-3.2-6.3c0-0.1,0-0.3,0-0.4c2.6,1.3,5.6,1.6,8.5,1.1c3-0.3,5.9-1.6,8.1-3.7c1.8-1.9,3.3-4.1,4.5-6.5l0,0
		c0.5-1.1,1.1-2.2,1.6-3.2c1.7-3.3,4-6.7,7.5-8.2C34.1-0.7,38,0,40.8,2.4c-1.4,0.9-1.4,1.8,0.1,2.6c-0.6,0.8-1.2,1.6-1.8,2.4
		l-2.2-1.3c1.7-3.1-2.2-3.3-1.6-1.3c-1.9-1.3-3.1,2.5,0.3,2.2l2.8,1.5c-0.4,0.7-0.7,1.4-1,2.2c-2.6-1.1-3.2,3,0,2
		c0.2,1.5,2.4,1.1,1.6-1.7c0.2-0.6,0.4-1.2,0.6-1.8V9.1l1.8,1c-0.8,2.1,2.1,2.9,2.1,0.2l0.9-0.8v0.1c0.3,2.4,0.4,4.8,0.2,7.2l0,0
		C44,16.6,43.5,16.4,42.9,16.2"/>
	<path class="st7" d="M0.6,119.9c0-2,10.4-9,10.4-9c2.1,2.9,4.5,4.3,7.1,4l0,0c-3.5,1.5-6.7,3.8-9.3,6.6c0.8,1.4,4.3,3.3,5,4.2
		s1.2,2.2-0.2,4c-2.2,0.3-4.4,0.1-6.4-0.7C4,127.7,0.6,121.8,0.6,119.9"/>
	<path class="st0" d="M8.3,38.8c0.1,0.3,1.2,4.2,1.6,5.4l-0.2,0.1C4.9,45.6,4.1,39.9,8.3,38.8"/>
	<path class="st8" d="M26.5,26.1C26.5,26.1,26.6,26.1,26.5,26.1c2.8,0,5,2.3,5,5c0,2.7-1.9,5.7-4.6,5.7c-3.7,0-5.3-3-5.3-5.7
		C21.5,28.3,23.8,26.1,26.5,26.1"/>
	<path class="st9" d="M23,23.3l1.5-0.9c4.8,1.4,9.7,2.3,14.7,2.7l0.1,1c-5.4-0.5-10.7-1.5-15.9-3"/>
	<path class="st9" d="M28,29.5c0.4,0,0.8,0.4,0.8,0.8c0,0.5-0.1,1-0.8,1c0,0,0,0,0,0c-0.5,0-0.8-0.4-0.8-0.9c0,0,0-0.1,0-0.1
		C27.2,29.9,27.6,29.5,28,29.5"/>
	<path class="st8" d="M35.2,4.9c-0.6-2,3.3-1.8,1.6,1.3l2.2,1.2l1,0.6l1.8,1c0.6-1.4,2-1.5,2.2-0.6c0.1,0.4,0.2,0.9,0.3,1.3
		l-0.9,0.8c0,2.6-2.9,1.9-2.1-0.2l-1.8-1l-1.2-0.6L35.5,7C32.2,7.3,33.3,3.5,35.2,4.9"/>
	<path class="st8" d="M37.4,10.7c0.3-0.8,0.6-1.5,1-2.2l1.2,0.6v0.1c-0.2,0.6-0.5,1.2-0.6,1.8c0.8,2.7-1.3,3.1-1.5,1.7
		C34.2,13.7,34.8,9.6,37.4,10.7"/>
	<path class="st7" d="M39,24.3c-0.3-1.5-0.1-3.4,1.4-3.7l4.9-1.2c1.5-0.3,2.4,1,2.9,2.6c0.3,1.1,0.9,4.6,0.9,4.6
		c0.3,0.9,0,2-0.7,2.6c-0.3,0.2-0.7,0.4-1.1,0.5l-4.2,0.8c-3.1,0.5-3.4-1-3.7-2.5L39,24.3z"/>
	<path class="st8" d="M39.1,7.4c0.5-0.8,1.1-1.6,1.8-2.4c-1.5-0.9-1.5-1.7-0.1-2.6C41,2.7,41.3,3,41.5,3.2c0.6,0.6,1,1.4,1.4,2.1
		l-1,0.2c-0.8,0.7-1.4,1.5-1.9,2.4l0,0L39.1,7.4"/>
	<path class="st7" d="M40.2,7.9C40.6,7,41.3,6.2,42,5.5l1-0.2c0.5,1,0.9,2,1.1,3c-0.2-0.9-1.6-0.7-2.2,0.6L40.2,7.9L40.2,7.9"/>
	<path class="st7" d="M43.2,115.2c2.2,0.2,4.3-0.4,6.1-1.6c0.3-0.2,0.5-0.4,0.7-0.7l4.2,9.1c7.7-7.7,16.3,0-3.3,7.1
		C47.4,125.5,45,120.8,43.2,115.2L43.2,115.2"/>
	<path class="st10" d="M39.1,34.4c0.4-0.2,5-0.1,5.2,2c0.4,3.5-4.3,3.6-4.7,3.5"/>
	<path class="st7" d="M33.9,43.1c0,0-1.2,8.7,5,8.7c3,0,4.9-4.1,5.2-6.1C38.4,48.2,33.8,43.1,33.9,43.1"/>
	<path class="st11" d="M13.6,18.3c3-1.5,5.9-3.6,7.9-6.3c-1.1,2.3-2.7,4.5-4.5,6.5C12.7,23,5.8,24,0.2,21.1c0.1-0.5,0.6-0.9,1.1-0.8
		c1.6,0.2,3.3,0.3,4.9,0.1c0.4,0,0.7-0.1,1-0.1C8,20.1,8.7,20,9.4,19.8l1.7-0.4c0.4-0.2,0.8-0.3,1.2-0.5S13.2,18.5,13.6,18.3"/>
</g>
</svg>
