<?xml version="1.0" encoding="utf-8"?>
<!-- Generator: Adobe Illustrator 26.2.1, SVG Export Plug-In . SVG Version: 6.00 Build 0)  -->
<svg version="1.1" id="Capa_1" xmlns="http://www.w3.org/2000/svg" xmlns:xlink="http://www.w3.org/1999/xlink" x="0px" y="0px"
	 viewBox="0 0 93.1 105.5" style="enable-background:new 0 0 93.1 105.5;" xml:space="preserve">
<style type="text/css">
	.st0{fill:#6A4720;}
	.st1{fill:#EECA1A;}
	.st2{fill:#6F4714;}
	.st3{fill:#BF0811;}
	.st4{fill:#FFFFFF;}
	.st5{fill:#DB9600;}
	.st6{fill:#945B19;}
	.st7{fill:#905D2B;}
	.st8{fill:#D7D7CE;}
	.st9{fill:#61A0A2;}
	.st10{fill:#111419;}
	.st11{fill:#FBFCFC;}
	.st12{fill:#211915;}
	.st13{fill:none;stroke:#211915;stroke-width:0.28;stroke-linecap:round;stroke-linejoin:round;}
</style>
<g>
	<path class="st0" d="M41.2,61.9l-2.3,0.2l-0.1,0c0-2.1-4.7-47.3-4.7-49.3c0.7-0.1,0.8-0.2,1.5-0.2C35.7,14.6,41.2,59.8,41.2,61.9"
		/>
	<path class="st1" d="M41.4,63.9L39,64.1c0,0-0.1-1.5-0.1-2l2.3-0.3C41.3,62.6,41.4,63.4,41.4,63.9"/>
	<path class="st2" d="M12.5,44.1c0,0,1.7,3.6,0.2,3.7S12.5,44.1,12.5,44.1"/>
	<path class="st2" d="M65.6,15.5c0-0.1-1.2-4.5-1.2-4.5L64,14.6c0,0.4-0.1,0.8-0.1,1c0,0.4,0.3,0.7,0.7,0.8l0.6-0.1
		C65.5,16.1,65.6,15.8,65.6,15.5"/>
	<path class="st0" d="M69.4,68l-2.7,0.4c0,0-2.1-45.9-2.1-49.4l0.9-0.2C65.5,22.2,69.4,64.6,69.4,68"/>
	<path class="st3" d="M73.3,20.9c1.6,3.8,2,7.9,1.3,12l-5.3,0.9l0,0c1.7-4.1,1-8.7-1.8-12.1l0,0L73.3,20.9z"/>
	<path class="st4" d="M66.1,34.4l-3,0.5c1.1-4.2,0.3-8.7-2.2-12.2l6.6-0.9l0,0c2.8,3.4,3.5,8,1.8,12.1l0,0l-1.7,0.3L66.1,34.4z"/>
	<path class="st3" d="M60.9,22.7c2.5,3.6,3.3,8,2.2,12.2l-6.7,1.2c2.5-3.5,1.8-7.9-0.7-12.7L60.9,22.7z"/>
	<path class="st0" d="M35,5L35.2,6l-0.9,0.1c0-0.3-0.1-0.6-0.1-0.9l0,0c0.1,0,0.3,0,0.4,0C34.7,5.2,34.9,5.1,35,5"/>
	<path class="st0" d="M56.1,23.3c0,0.3-0.2,0.5-0.4,0.6c-0.3,0-0.5-0.2-0.5-0.5c0-0.3,0.1-0.5,0.4-0.5c0,0,0,0,0,0
		C55.8,22.8,56.1,23,56.1,23.3"/>
	<path class="st0" d="M53.7,40.9c0.1,0.3-0.1,0.6-0.4,0.6s-0.6-0.1-0.6-0.4c0,0,0-0.1,0-0.2c0-0.3,0.2-0.6,0.5-0.7
		C53.5,40.4,53.7,40.6,53.7,40.9"/>
	<path class="st0" d="M24.4,37c0,0.3-0.2,0.6-0.4,0.7l-0.1,0c-0.3,0-0.7-0.2-0.7-0.6c0,0,0,0,0,0c0-0.3,0.2-0.6,0.6-0.7
		C24.1,36.4,24.4,36.7,24.4,37C24.4,37,24.4,37,24.4,37"/>
	<path class="st0" d="M24.4,19.7c0,0.2-0.1,0.4-0.3,0.5l-0.1,0l0,0c-0.3,0-0.5-0.2-0.5-0.5c0-0.2,0.1-0.5,0.4-0.5l0.1,0
		C24.1,19.2,24.3,19.4,24.4,19.7"/>
	<path class="st2" d="M13.3,47.6L14.4,68l-1.6-0.5c0,0-0.3-19-0.4-19.7L13.3,47.6z"/>
	<path class="st1" d="M14.4,67l0.2,2.3l-1.3,0l-0.7,0l-0.1-2.1C13.1,67,13.8,66.9,14.4,67"/>
	<path class="st5" d="M57.6,72.1l1.9-0.2c2.4-0.3,4.7-0.6,7.1-1l2.5-0.4l0.3-0.1c2.8-0.5,5.6-1.1,8.3-1.9c1.4-0.4,2.7-0.9,4-1.6
		c1.3-0.6,2.5-1.4,3.6-2.3c1.1-0.9,2.2-2.1,3.6-2.6c1-0.5,2.2-0.4,3.2,0.2c0.8,0.6,1.2,1.6,1.1,2.6c-0.1,1-0.8,1.8-1.6,2.2
		c-0.4,0.2-0.9,0.2-1.3,0c-0.3-0.2-0.5-0.5-0.5-0.9c0.1-0.3,0.3-0.6,0.6-0.6c0.2-0.1,0.4-0.2,0.6-0.3c0.2-0.2,0.3-0.5,0.1-0.8
		c-0.5-0.8-1.8-0.3-2.4,0.1c-1,0.7-1.9,1.6-2.9,2.3c-1,0.7-2.1,1.4-3.2,1.9C64.3,75.8,24.9,77.5,0,76.3c0-2.3,0-4.2,0-6.5
		c0-0.2,0-0.2,0.1-0.2c0.1,0,0.5,0,0.7,0L4,69.5l8-0.1l1.3,0l1.3,0l6.1-0.1c0.2,0,0.4,0,0.7,0c0,0,0.1,0,0.1,0c0,0,0.1,0.3,0.2,0.4
		l1.5,3.8c0.1,0.3,0.1,0.3,0.4,0.3c0.7,0.1,1.5,0.1,2.2,0.1l0.1,0c1.6,0.1,3.2,0,4.7,0c3.2-0.1,6.4-0.2,9.7-0.4
		C46,73.2,51.8,72.7,57.6,72.1"/>
	<path class="st6" d="M82.5,68.7c-3.2,8.5-5,14.2-9.8,21.8c-5,8.2-13.6,13.4-23.2,14c-13.8,1.1-34.8,3.1-39.9-4.5l0,0
		c-4.6-6.1-7-14.1-7.6-23.6C23.9,76.9,64.3,75.8,82.5,68.7"/>
	<path class="st3" d="M77.6,38.3c3.4,6.2,3.3,12.3-0.5,18.1l-7.3,1.2c3.3-6.1,3.1-12.2-0.3-18.2L77.6,38.3z"/>
	<path class="st7" d="M69.5,39.4l-7.7,1.1l-8.1,1.1l-0.5,0.1l0,0c0.3-0.1,0.5-0.5,0.4-0.8c-0.1-0.2-0.3-0.4-0.5-0.5l0,0l1.6-0.2
		l11.5-1.5l1.6-0.2l9.4-1.3c0.4,0.1,0.6,0.6,0.4,0.9c0,0.1-0.1,0.2-0.2,0.3L69.5,39.4z"/>
	<path class="st7" d="M73.2,20.5c0.3,0.2,0.4,0.6,0.3,0.9c0,0.1-0.1,0.1-0.1,0.1l-5.9,0.8l-6.6,0.9l-5.2,0.7l0,0
		c0.3,0,0.4-0.3,0.4-0.6c0-0.3-0.2-0.5-0.5-0.5l9.3-1.2l1-0.1L73.2,20.5z"/>
	<path class="st8" d="M67.4,77.7c1.8,0.1,3.1,1.6,3,3.3c-0.1,1.8-1.6,3.1-3.3,3c-1.8-0.1-3.1-1.6-3-3.3c0,0,0,0,0,0
		C64.1,79,65.6,77.6,67.4,77.7C67.4,77.7,67.4,77.7,67.4,77.7"/>
	<path class="st4" d="M69.2,57.7l-2.4,0.4l-6.6,1.1c3.4-5.8,3.6-12.1,1.5-18.8l7.6-1c3.4,6.1,3.6,12.2,0.3,18.2L69.2,57.7z"/>
	<path class="st9" d="M67.3,79.1c1,0,1.7,0.9,1.7,1.9s-0.9,1.7-1.9,1.7c-1,0-1.7-0.9-1.7-1.9v0C65.5,79.8,66.3,79.1,67.3,79.1"/>
	<path class="st3" d="M65.5,19.3L65.5,19.3c-0.3,0-0.6,0-0.9,0.1c-2.4,0.2-6.1,0.8-8.7-1.3c3.3,0.3,5.3-1.2,8.4-1.8l1-0.2
		C65.4,17.2,65.5,18.3,65.5,19.3"/>
	<path class="st3" d="M61.8,40.4c2.1,6.7,1.9,13-1.5,18.8l-8.5,1.4c2.5-4.5,3.8-8.7,3.6-12.8l0,0c-0.1-2.2-0.7-4.3-1.6-6.2
		L61.8,40.4z"/>
	<path class="st2" d="M56.9,64.6l0.6,7.5c-5.8,0.7-11.6,1.1-17.4,1.4c-3.2,0.2-6.4,0.3-9.7,0.4c-1.6,0-3.2,0.1-4.7,0l0,0L25.6,66
		l31.1-1.3L56.9,64.6z"/>
	<path class="st5" d="M56.9,64.4l0,0.2l-0.2,0L25.6,66l-0.1-1.6c0-0.9,0.7-1.7,1.6-1.8l4.5-0.3c0.1,0,0.2,0.1,0.2,0.2
		c0.1,1.8,3,1.6,3,1.6l5.7-0.2l2.4-0.1l12.6-0.5C56.2,63.1,56.8,63.7,56.9,64.4"/>
	<path class="st7" d="M37.3,35.3c-2.3,0.4-4.6,0.8-6.9,1.2c-2.1,0.4-4.2,0.8-6.4,1.3l0,0c0.3-0.1,0.5-0.4,0.4-0.7
		c0-0.3-0.3-0.6-0.7-0.6l0,0c4.8-1,9.6-1.9,14.4-2.6l1.7-0.2c3.5-0.5,7.1-1,10.5-1.5c0.6,0.3,0.7,0.7,0.2,1.3
		c-2.2,0.3-4.4,0.6-6.6,0.8C41.8,34.5,39.5,34.8,37.3,35.3"/>
	<path class="st7" d="M45.9,15.2c0.5,0.2,0.6,0.6,0.2,1c-1.8,0.3-3.6,0.5-5.4,0.8c-1.8,0.3-3.3,0.5-5,0.8c-2,0.4-4,0.7-6.1,1.2
		c-1.4,0.3-2.8,0.6-4.3,0.9c-0.4,0.1-0.8,0.2-1.3,0.3c0.2-0.1,0.3-0.3,0.3-0.5c0-0.3-0.3-0.5-0.5-0.5l-0.1,0l0,0
		c4.2-1,8.4-1.8,12.6-2.6l1.2-0.2C40.3,16,43.1,15.6,45.9,15.2"/>
	<path class="st8" d="M39.7,79.8c1.7,0.1,3.1,1.6,3,3.3c-0.1,1.7-1.6,3.1-3.3,3c-1.7-0.1-3.1-1.6-3-3.3
		C36.4,81.1,37.9,79.7,39.7,79.8C39.7,79.8,39.7,79.8,39.7,79.8"/>
	
		<rect x="36.1" y="67.7" transform="matrix(0.9999 -1.490385e-02 1.490385e-02 0.9999 -1.0289 0.5733)" class="st8" width="3.7" height="3.2"/>
	
		<rect x="30.2" y="67.9" transform="matrix(0.9999 -1.455482e-02 1.455482e-02 0.9999 -1.0079 0.4677)" class="st8" width="2.8" height="3.2"/>
	<path class="st10" d="M36.1,13.5c-0.4-2.5-1-7.7-1-7.7S24.6,7.2,19.2,6.2l3.7,3.9l-3.8,3.1c6.1,1.3,14.3,0.3,15.9,0.4L36.1,13.5z"
		/>
	<path class="st3" d="M42.3,55.2c1.6-6.3,2.2-13.5-0.6-20.6c2.3-0.4,5.7-1,8-1.3c3.3,6.7,3.7,15.4-0.1,20.2
		C48.4,53.7,42.3,55.2,42.3,55.2"/>
	<path class="st3" d="M44.9,16.2c2.4,4.3,2.7,9.5,0.6,14l-5.8,0.8c0,0,2.1-8.5-1.2-13.7c1.7-0.3,5-0.9,6.8-1.1"/>
	<path class="st11" d="M38.9,17.1c2.3,4.3,2.3,9.1,0.9,13.8l-6.7,1.2c1.2-4.5,0.8-9.3-1.1-13.6C34,18.1,36.9,17.5,38.9,17.1"/>
	<path class="st3" d="M32.7,36c2.7,6.6,2,13.6-0.4,20.7c-2.7,0.6-6.4,1.3-9.4,2c2.7-6.7,3.1-14.1,1.1-21l0,0
		c2.1-0.5,4.3-0.9,6.4-1.3"/>
	<path class="st3" d="M32,18.5c1.9,4.3,2.3,9,1.1,13.6l0,0l-7,1.4c1.8-4.4,1.5-9.3-0.8-13.4C26.7,19.7,30.5,18.8,32,18.5"/>
	<path class="st11" d="M41.7,34.6c4.5,8.8,0.6,20.6,0.6,20.6c-1.7,0.2-8.2,1.1-10,1.6c2.4-7.2,3-14.1,0.4-20.7
		C35.2,35.5,39.2,35,41.7,34.6"/>
	<path class="st12" d="M29.4,9c0.3,0,0.5,0.2,0.5,0.5c0,0.3-0.2,0.5-0.5,0.5c-0.3,0-0.5-0.2-0.5-0.5C28.9,9.3,29.1,9,29.4,9"/>
	<path class="st12" d="M28,9.1c0.3,0,0.5,0.2,0.5,0.5c0,0.3-0.2,0.5-0.5,0.5l0,0c-0.3,0-0.5-0.2-0.5-0.5c0,0,0,0,0,0
		C27.6,9.4,27.8,9.1,28,9.1C28,9.1,28,9.1,28,9.1"/>
	<path class="st8" d="M10.9,80.4c1.8,0.1,3.1,1.6,3,3.3c-0.1,1.8-1.6,3.1-3.3,3c-1.8-0.1-3.1-1.6-3-3.3c0,0,0,0,0,0
		C7.6,81.6,9.1,80.3,10.9,80.4C10.9,80.3,10.9,80.3,10.9,80.4"/>
	<path class="st3" d="M12.4,51.8c-2.9-0.6-7.2,0.9-9.6-1.2c5.3,0.4,7.2-2.7,10.5-2.9l0.2,4.5C13.2,52,12.8,51.8,12.4,51.8"/>
	<path class="st1" d="M69.4,70.4L69,70.5l-2.5,0.4l0-2.6l2.9-0.3C69.4,68.8,69.4,69.6,69.4,70.4"/>
	<path class="st9" d="M12.5,83.6c0,1-0.9,1.7-1.9,1.7S8.9,84.4,9,83.4c0-1,0.9-1.7,1.9-1.7c0,0,0,0,0,0
		C11.8,81.8,12.6,82.6,12.5,83.6"/>
	<path class="st9" d="M41.3,83.1c0,1-0.9,1.7-1.9,1.7c-1,0-1.7-0.9-1.7-1.9c0-1,0.9-1.7,1.9-1.7c0,0,0,0,0,0
		C40.6,81.3,41.3,82.1,41.3,83.1"/>
	<path class="st2" d="M35.3,4.4c0-0.1,0-0.2-0.1-0.3L33.9,0l-0.3,4c0,0.2,0,0.4,0,0.6c0,0.3,0.2,0.6,0.5,0.7c0.1,0,0.3,0.1,0.5,0
		c0.2,0,0.3-0.1,0.4-0.2C35.2,4.9,35.3,4.6,35.3,4.4"/>
	<path class="st13" d="M29.9,9.5c0,0.3-0.2,0.5-0.5,0.5c-0.3,0-0.5-0.2-0.5-0.5S29.1,9,29.4,9C29.7,9,29.9,9.2,29.9,9.5z"/>
	<path class="st13" d="M28.7,10.6c0,0.1-0.1,0.1-0.2,0.1c-0.1,0-0.1-0.1-0.1-0.1c0-0.1,0.1-0.1,0.1-0.2
		C28.6,10.4,28.7,10.5,28.7,10.6z"/>
	<path class="st13" d="M29.4,10.6c0,0.1-0.1,0.1-0.1,0.1c0,0,0,0,0,0c-0.1,0-0.1-0.1-0.1-0.2c0-0.1,0.1-0.1,0.1-0.1
		C29.4,10.5,29.4,10.5,29.4,10.6z"/>
	<path class="st13" d="M28.5,9.6c0,0.3-0.2,0.5-0.5,0.5c0,0,0,0,0,0c-0.3,0-0.5-0.2-0.5-0.5c0,0,0,0,0,0c0-0.3,0.2-0.5,0.5-0.5
		C28.3,9.1,28.6,9.3,28.5,9.6L28.5,9.6L28.5,9.6z"/>
	<path class="st4" d="M31.3,11.3c1.4-0.9,1.6,0.7,0.7,0.7c0.2,0.4,0,0.6-0.3,0.6c-0.3,0-0.6-0.3-0.6-0.7c0,0,0-0.1,0-0.1l-1.5-0.6
		l0.1-0.1c0.1-0.1,0.2-0.2,0.2-0.3l0.1-0.1L31.3,11.3z"/>
	<path class="st4" d="M26.9,9c0-0.3,0.2-0.6,0.4-0.8c0.3-0.2,0.6-0.4,1-0.4c0.8-0.1,1.6,0.2,2,0.8c0.2,0.7,0.2,1.4-0.2,2.1
		c0,0-0.6,0.7-0.8,0.9c-0.4,0.2-0.9,0.3-1.3,0.1c-0.4-0.2-1-1.6-1.1-2C26.9,9.4,26.9,9.2,26.9,9"/>
	<path class="st12" d="M29.8,9.1c0.1,0.2,0.1,0.4,0,0.6c-0.2,0.1-0.5,0.1-0.6,0C29,9.5,29.1,9.2,29.3,9C29.5,8.9,29.7,9,29.8,9.1"/>
	<path class="st4" d="M28.2,11L28.2,11l-1.9,1c-0.4,1.4-1.2,0.8-0.9,0.1c-1.3,0.1-0.6-1.9,0.6-0.7l1.7-0.9c0.1,0.2,0.2,0.3,0.3,0.4
		L28.2,11z"/>
	<path class="st12" d="M27.9,8.9c0.2,0,0.3,0.1,0.3,0.5c0,0.2-0.2,0.4-0.4,0.4c0,0,0,0-0.1,0c-0.2,0-0.4-0.2-0.4-0.4
		C27.4,9,27.7,8.9,27.9,8.9"/>
	<path class="st4" d="M27.1,9.6L27,9.8L25.8,9c-1.4,0.3-1.1-0.7-0.5-0.8c-0.6-1.2,1.4-0.9,0.8,0.3L26.9,9
		C26.9,9.2,27.1,9.4,27.1,9.6"/>
	<path class="st12" d="M28.5,10.5C28.5,10.5,28.5,10.6,28.5,10.5c-0.1,0.1-0.2,0-0.2,0v0C28.4,10.5,28.4,10.4,28.5,10.5
		C28.4,10.4,28.4,10.4,28.5,10.5C28.5,10.4,28.5,10.5,28.5,10.5"/>
	<path class="st12" d="M28.9,10.5C28.9,10.6,28.9,10.6,28.9,10.5L28.9,10.5c-0.1,0.1-0.2,0.1-0.2,0c0,0,0,0,0,0
		C28.8,10.5,28.8,10.4,28.9,10.5L28.9,10.5C28.9,10.4,28.9,10.5,28.9,10.5C28.9,10.5,28.9,10.5,28.9,10.5"/>
	<path class="st4" d="M32.1,7.7c0.9,0,0.3,1.3-0.6,0.7l-1.2,0.9l0,0c0-0.2-0.1-0.3-0.2-0.5L31.2,8c-0.1-0.8,0.2-1.1,0.5-1.1
		c0.3,0,0.5,0.2,0.5,0.5C32.2,7.5,32.2,7.6,32.1,7.7"/>
</g>
</svg>
