<?xml version="1.0" encoding="utf-8"?>
<!-- Generator: Adobe Illustrator 26.2.1, SVG Export Plug-In . SVG Version: 6.00 Build 0)  -->
<svg version="1.1" id="Capa_1" xmlns="http://www.w3.org/2000/svg" xmlns:xlink="http://www.w3.org/1999/xlink" x="0px" y="0px"
	 viewBox="0 0 55.3 43.9" style="enable-background:new 0 0 55.3 43.9;" xml:space="preserve">
<style type="text/css">
	.st0{fill:#6EAA6F;}
	.st1{fill:#A1BD43;}
	.st2{fill:#EECA1A;}
	.st3{fill:#DB9600;}
	.st4{fill:#FFFFFF;}
	.st5{fill:#211915;}
	.st6{fill:none;stroke:#211915;stroke-width:0.83;stroke-linecap:round;stroke-linejoin:round;}
	.st7{fill:none;stroke:#211915;stroke-width:0.6;stroke-linecap:round;}
</style>
<g>
	<path class="st0" d="M17.8,28c-5.1-10,4.6-16.6,4.3-16.4C18.2,0.2,30.4-3.3,35.9,3.3c-1.5,1.7-2.5,3.8-2.8,6.1
		c-0.2,1.6,0.1,3.1,0.8,4.5c0.8,1.5,1.8,2.9,3,4c0.9,1.4,1.4,3.1,1.4,4.8c0,5.5-3.5,8.8-8.3,9.6c-0.8,0.1-1.6,0.2-2.4,0.2
		c-0.4,0-0.8,0-1.2,0c-2.5-0.1-4.9-1-6.9-2.5l0,0C18.9,29.3,18.3,28.7,17.8,28"/>
	<path class="st0" d="M0,32.3c3-6.2,18.5-2.7,19.6-2.4l0,0L0,32.3"/>
	<path class="st0" d="M1.3,36.1c4-3.4,10.5-5.2,18.2-6.2l0,0h-0.1L3.9,36.1L1.3,36.1"/>
	<path class="st0" d="M3.3,43.4c1.3-7,15-13,16.3-13.5h0.1l0,0C15.7,36,3.2,43.5,3.3,43.4"/>
	<path class="st1" d="M19.3,29.6c-0.7-0.1-1.3-0.5-1.8-0.9c-1.6-1.7-2.3-4-1.9-6.3c1-7.6,6.1-11.3,6.4-11c6.5,8.8,4.8,17.5,0.3,11
		c3.2,6.5,0.4,6.3-2,3.5C20.3,25.8,20.9,30.1,19.3,29.6"/>
	<path class="st2" d="M33.1,9.5c0.3-2.3,1.3-4.4,2.8-6.1c3.9-2.1,8.6-2.1,12.5-0.1c3.9,2.1,6.5,6,6.9,10.3l-10.4,0.2h-0.2L37,17.9
		c-1.2-1.1-2.2-2.5-3-4C33.2,12.6,32.9,11,33.1,9.5"/>
	<path class="st3" d="M38.8,5.6c0.5-0.2,0.8,0.1,0.9,0.4s0,0.7-0.6,0.9S38.1,7,38,6.6S38.3,5.8,38.8,5.6"/>
	<path class="st4" d="M28.7,3.4c1.7,0,3,1.3,3.1,3c0,1.7-1.2,3.5-2.9,3.5c-0.1,0-0.2,0-0.3,0c-1.8-0.2-3.1-1.7-2.9-3.5
		C25.6,4.8,27,3.4,28.7,3.4"/>
	<path class="st5" d="M29.5,5.7c0.3,0,0.6,0.3,0.6,0.6c0,0.3-0.2,0.7-0.5,0.7c0,0,0,0-0.1,0c-0.3,0-0.6-0.3-0.5-0.7c0,0,0,0,0,0
		C28.9,6,29.2,5.7,29.5,5.7"/>
	<polyline class="st6" points="25.7,43.4 26.2,42.5 27.1,41.1 26.5,32.6 	"/>
	<polyline class="st6" points="35.4,40.7 33.6,40.4 31.4,40.1 30,32.4 	"/>
	<polyline class="st6" points="27.4,43.4 27.3,42.4 27.1,41.1 29.4,41.9 30.9,42.5 31.1,41.5 31.4,40.1 32.4,41 33.5,42 	"/>
	<path class="st7" d="M36.3,11.9c1.8,2.2,3.6,2.6,5.9,1.8"/>
</g>
</svg>
