<?xml version="1.0" encoding="utf-8"?>
<!-- Generator: Adobe Illustrator 26.2.1, SVG Export Plug-In . SVG Version: 6.00 Build 0)  -->
<svg version="1.1" id="Capa_1" xmlns="http://www.w3.org/2000/svg" xmlns:xlink="http://www.w3.org/1999/xlink" x="0px" y="0px"
	 viewBox="0 0 125.5 78.6" style="enable-background:new 0 0 125.5 78.6;" xml:space="preserve">
<style type="text/css">
	.st0{fill:#C58021;}
	.st1{fill:#6F4714;}
	.st2{fill:#945B19;}
	.st3{fill:#6EAA6F;}
	.st4{fill:#EECA1A;}
	.st5{fill:none;stroke:#EECA1A;stroke-width:1.2;stroke-linecap:round;}
</style>
<g>
	<path class="st0" d="M73.3,29.5l-24.7,1.2c5.3,3.6,11.4,10.9,13,22.1l28.3-2.5V50C88.2,36.4,82.2,31.8,73.3,29.5"/>
	<polygon class="st1" points="30.3,44.8 31.2,68.6 55.1,78.6 55.4,53.3 	"/>
	<path class="st2" d="M55.1,53.3C53.6,38.7,46,31.5,39.4,31.1l-2,0.1c-4.7,0.8-7.3,5.5-7.2,13.5"/>
	<path class="st3" d="M36.4,55.8c-0.1,0.6,0.1,1.2,1.1,1.6l0.1-0.1c0.2-0.3,0.6-0.5,1-0.3c0.3,0.1,0.5,0.5,0.4,0.9
		c1.1,0.1,1.7-0.2,1.8-0.8s-0.6-1.6-1.9-1.9S36.6,55.1,36.4,55.8"/>
	<path class="st4" d="M37.5,57.4c-0.6,1.2-0.9,2.5-0.9,3.8c0.1,3.5,2.5,5.4,5.4,5.3s5.1-2.2,4.9-5.7c0-0.3,0-0.7-0.1-1
		c0-0.2-0.1-0.4-0.1-0.6c-0.1-0.5-0.6-0.8-1.1-0.8c-0.4,0-0.7,0.4-0.7,0.8c0,0,0,0.1,0,0.1v0.2c0,0.1,0,0.3,0,0.4
		c0.2,1.8-1,3.4-2.8,3.7c-1.8,0.2-3.4-1-3.7-2.8c0-0.2,0-0.4,0-0.6c0-0.8,0.2-1.6,0.6-2.3v-0.1c0.1-0.3-0.1-0.7-0.4-0.9
		c-0.4-0.1-0.8,0-1,0.3L37.5,57.4"/>
	<path class="st3" d="M48.8,30.7l-9.3,0.5c6.6,0.4,14.2,7.6,15.7,22.1l6.4-0.5C60,41.5,54.5,33.8,48.8,30.7"/>
	<path class="st3" d="M43.5,57.7c-0.2,0.6,0.3,1.4,1.4,1.8v-0.2c0,0,0-0.1,0-0.1c0-0.4,0.3-0.8,0.7-0.8c0.5-0.1,1,0.3,1.1,0.8
		c0,0.2,0.1,0.4,0.1,0.6c0.7-0.1,1-0.3,1.1-0.8c0.2-0.7-0.6-1.6-2-2S43.7,57,43.5,57.7"/>
	<path class="st4" d="M48.8,33.8c0,0.4,0.3,0.6,0.7,0.6s0.7-0.3,0.7-0.6s-0.3-0.7-0.7-0.7S48.8,33.4,48.8,33.8L48.8,33.8"/>
	<polygon class="st2" points="55.1,53.3 55.1,78.6 95.9,68.9 96.2,48.1 	"/>
	<path class="st4" d="M52.5,38c0,0.5,0.4,0.8,0.8,0.9c0.5,0,0.8-0.4,0.8-0.8c0,0,0,0,0,0c0-0.5-0.3-0.8-0.8-0.8c0,0,0,0,0,0
		C52.9,37.2,52.5,37.6,52.5,38C52.5,38,52.5,38,52.5,38"/>
	<path class="st4" d="M55.8,44c0,0.6,0.4,1,0.9,1c0.6,0,1-0.4,1-0.9s-0.4-1-0.9-1c0,0,0,0,0,0C56.3,43,55.8,43.4,55.8,44"/>
	<path class="st4" d="M57.4,49.8c0,0.7,0.5,1.2,1.2,1.2c0.7,0,1.2-0.5,1.2-1.2c0-0.7-0.5-1.2-1.2-1.2C57.9,48.6,57.4,49.1,57.4,49.8
		C57.4,49.8,57.4,49.8,57.4,49.8"/>
	<path class="st3" d="M73.4,48.5L73.4,48.5c-1.7,0.1-3,1.7-2.9,3.4c0,0.1,0,0.2,0,0.3l3.4-0.5c0.1,2.9,0.4,5.7,0.9,8.6
		c0.2,1,5.6,0.3,5.5-0.7l-0.9-8.4l3.5-0.6c-0.2-2.4-1.3-2.9-3.4-2.6l0,0c-0.1-1.7-1.5-3-3.2-2.9c-1.7,0.1-3,1.5-2.9,3.2
		C73.4,48.3,73.4,48.4,73.4,48.5"/>
	<path class="st3" d="M80.1,29.1l-6.8,0.3c9.1,4.3,13.8,8.6,16,19.5l6.9-0.9C94.2,37.2,88.5,32.5,80.1,29.1"/>
	<path class="st1" d="M76.7,58.4l1.6-0.2l-0.6-2.9c0.3-0.1,0.5-0.5,0.5-0.8c-0.1-0.5-0.6-0.8-1.1-0.7c-0.4,0.1-0.8,0.5-0.7,0.9
		c0,0.3,0.2,0.5,0.5,0.6C76.8,56.3,76.7,57.4,76.7,58.4"/>
	<path class="st4" d="M81.1,31.1c-0.4,0-0.6,0.4-0.6,0.7c0,0.4,0.4,0.6,0.7,0.6c0.4,0,0.6-0.4,0.6-0.7
		C81.8,31.4,81.5,31.1,81.1,31.1"/>
	<path class="st4" d="M86.3,34.7c-0.5,0-0.8,0.5-0.8,0.9c0,0.5,0.5,0.8,0.9,0.8c0.5,0,0.8-0.5,0.8-0.9c0,0,0,0,0,0
		C87.2,35,86.7,34.7,86.3,34.7"/>
	<path class="st4" d="M89.8,39.2c-0.5,0.1-0.9,0.5-0.8,1c0.1,0.5,0.5,0.9,1,0.9c0.5-0.2,0.7-0.8,0.5-1.3
		C90.4,39.4,90.1,39.2,89.8,39.2"/>
	<path class="st4" d="M92.1,44.8c-0.6,0.1-1.1,0.6-1.1,1.3c0.1,0.6,0.6,1.1,1.3,1.1s1.1-0.6,1.1-1.3c0,0,0,0,0-0.1
		C93.3,45.2,92.7,44.7,92.1,44.8"/>
	<line class="st5" x1="20.5" y1="39.5" x2="2.5" y2="35.6"/>
	<line class="st5" x1="18.9" y1="61.1" x2="0.6" y2="62.1"/>
	<line class="st5" x1="30.7" y1="23.3" x2="21.6" y2="9.6"/>
	<line class="st5" x1="57.7" y1="17.2" x2="56.1" y2="0.6"/>
	<line class="st5" x1="87" y1="19.7" x2="97.3" y2="6"/>
	<line class="st5" x1="103.6" y1="38.5" x2="119.7" y2="32.2"/>
	<line class="st5" x1="106.4" y1="59.5" x2="124.9" y2="61.4"/>
</g>
</svg>
