<?xml version="1.0" encoding="utf-8"?>
<!-- Generator: Adobe Illustrator 26.2.1, SVG Export Plug-In . SVG Version: 6.00 Build 0)  -->
<svg version="1.1" id="Capa_1" xmlns="http://www.w3.org/2000/svg" xmlns:xlink="http://www.w3.org/1999/xlink" x="0px" y="0px"
	 viewBox="0 0 150.9 105.8" style="enable-background:new 0 0 150.9 105.8;" xml:space="preserve">
<style type="text/css">
	.st0{fill:#538A58;}
	.st1{fill:#6EAA6F;}
	.st2{fill:#765236;}
	.st3{fill:#8E6243;}
	.st4{fill:#6A4720;}
	.st5{fill:#EECA1A;}
	.st6{fill:#FFFFFF;}
	.st7{fill-rule:evenodd;clip-rule:evenodd;fill:#EDEDE2;}
	.st8{fill:#945B19;}
	.st9{fill:#523818;}
	.st10{fill:#6F4714;}
	.st11{fill:#DB9600;}
	.st12{fill:#F8E12E;}
	.st13{fill:none;stroke:#DB9600;stroke-width:0.3661;stroke-linecap:round;}
</style>
<g>
	<path class="st0" d="M113.9,19.6c0,0,3.5,5.9,3.5,12.6c0,0.4,0.1,2.4,0.1,2.8l-0.6-1.2c-0.3-0.3-0.6-0.5-0.9-0.7l-7.3-11.3l1.6-0.2
		c-0.6-1.2-1.9-2-3.3-2.1l-4.3-3.7l1.8-1l-3.8-0.2l-3.4-3.8c3.1,0.3,6.1,1,8.9,2.2l1.1,4.1l0.8-3.3c1.9,0.7,3.5,2.1,4.3,4l0.2,3.4
		L113.9,19.6z"/>
	<path class="st1" d="M117.4,33.3c0-0.4,0-0.7,0-1.1c0.7-3.3,1.9-6.6,3.5-9.6l1,2.6c-0.1-2.9,0.9-5.8,3-7.9l0.6,3l0.4-3.9
		c2.5-2.7,5.6-4.7,9.1-6l-2.6,5.6l-2.9,1.6l1.2,1.7l-3.2,4.7l-2.3,1l0.9,1.3c-1.4,2.3-3.3,4.3-5.5,5.8l-3.1,3.4
		C117.1,35.3,117.4,33.3,117.4,33.3"/>
	<path class="st0" d="M121.3,34.4L121.3,34.4c0-0.5-0.9-1.4-1-1.4c2.4-2.2,5.1-4.2,8-5.7l-0.1,2.7l2.9-3.3l7,0.5l-1.6,2.1l2.9-0.8
		c0,0,4.7,3,5.2,7.6c0,0.4-0.3,0.8-0.7,0.8c-0.1,0-0.2,0-0.2,0l-1.8-0.4l-1.4-4.1l-0.4,2.7l-6.2-1.4l-2.9-3.3l0.4,3
		C128,33.1,124.6,33.4,121.3,34.4"/>
	<path class="st1" d="M116,36.9c-1.5,0.1-5.8-0.4-5.8-0.4l0.5-1.9l-3.1,2.5l-4-0.2l0.7-2.7l-4.2,3l-4.7,0.8l0.7-1.9L94,38.5
		l-4.2,0.9c2-3.9,4.6-6.5,7.8-7.6L96.9,34c2.3-3.3,8.9-3.3,8.9-3.3l1.7,2.3l0.1-2.5c3.4,0.3,6.4,1,8.5,2.6c0.3,0.2,0.6,0.5,0.9,0.7
		l0.6,0.6C117.8,34.8,117.9,36.8,116,36.9"/>
	<path class="st2" d="M119.1,50.7c0-0.6,0.2-9.8-1.4-15.5c1.6-2.6,4.1-2.8,4.8,2c1.6,8.1,1.9,16.4,0.8,24.6
		c-0.3,5.6-4.5,20.3-4.9,21.3c-2.2-1-4.4-1.8-6.6-2.6l0.8-2.5C112.7,78,118.8,63.7,119.1,50.7"/>
	<path class="st3" d="M123.4,42.8c-1.4-0.7-3.1-0.8-4.6-0.4l0,0c-0.2-1.7-0.8-5.9-1.2-7.6c0.3-0.1,4.4,0,4.4-0.1
		C122.7,37.3,123.2,40,123.4,42.8"/>
	<path class="st4" d="M119.5,35.5c0.2,0.5,0.1,1-0.2,1.4c-0.2,0.3-0.5,0.5-0.8,0.7c-0.5,0.2-1.1,0.2-1.6-0.1
		c-0.2-0.1-0.3-0.2-0.4-0.4c-0.6-0.7-0.5-1.8,0.2-2.4c0.2-0.2,0.5-0.3,0.7-0.4c0.4-0.1,0.7,0,1.1,0.1
		C119,34.7,119.3,35.1,119.5,35.5L119.5,35.5z"/>
	<path class="st4" d="M121.3,34.6c-0.4,0.7-1.2,1-1.9,0.8c-0.1,0-0.2-0.1-0.3-0.1c0,0-0.1,0-0.1-0.1c-0.8-0.5-1-1.6-0.5-2.4
		c0.5-0.7,1.4-1,2.2-0.6l0.2,0.1c0.7,0.4,1,1.3,0.7,2.1C121.4,34.4,121.3,34.5,121.3,34.6"/>
	<path class="st3" d="M119.5,79.9c-1.8-1.2-6.8-1.8-6.8-1.8l2.1-5.7c2.6-0.4,4.7-0.3,6.4,0.8C120.7,75.3,120.2,77.6,119.5,79.9"/>
	<path class="st3" d="M122.6,67.3c-1.5-1.1-5.9-1-5.9-1c0.3-1.7,0.8-3.4,1.2-5.3c0.5-1.9,3.8-0.3,5.5,0.8
		C123.3,63.7,123,65.5,122.6,67.3"/>
	<path class="st3" d="M124,54.1c-1.6-0.8-3.4-0.9-5.1-0.2c0.1-2.1,0.2-4.2,0.2-6.3c2-0.4,3.5-0.5,4.8,0.2
		C124,49.9,124.1,52,124,54.1"/>
	<path class="st4" d="M123.1,36.8c-0.4,0.8-1.3,1.1-2.1,0.8c-0.1,0-0.2-0.1-0.2-0.1c-0.7-0.4-1-1.2-0.9-1.9c0.4-1.4,2.9-2,3.4,0
		C123.4,36,123.3,36.4,123.1,36.8"/>
</g>
<path class="st5" d="M150.9,100.7c-9.8-10.2-21.7-18-34.7-22.9c-2.9-1-5.8-2.2-8.8-3.1c-10.2-3-20.8-4.6-31.5-4.6
	c-5.3,0-10.5,0.4-15.7,1.1c-3.2,0.5-6.4,1-9.5,1.8C29.3,78.2,12.1,87.3,0,100.7c0,0,28.2,5,65.9,5S150.9,100.7,150.9,100.7z"/>
<path class="st6" d="M98,70.5c0.3,0,0.6,0.3,0.6,0.6c0,0.3-0.2,0.6-0.6,0.6c-0.3,0-0.6-0.3-0.6-0.6c0,0,0,0,0,0
	C97.5,70.7,97.7,70.5,98,70.5"/>
<path class="st7" d="M2.7,26.7c0-0.9,0.3-8.5,5.9-10.9S19,19.1,19,19.1s0.7-10.5,7.5-9.2s6.6,7.2,6.6,7.2s2.2-3.6,5.9-2.4
	c4.1,1.4,3.4,5.1,3.4,5.1s2.3-2.8,5.7-0.7c3.4,2,5.2,5.6,4.4,9.5c-0.8,3.9-4.2,9-24.8,7.1C7,33.8,2.7,33.1,2.7,26.7"/>
<g>
	<g>
		<path class="st8" d="M58.1,69.8l-5.2,1c1.2,0.6,2.7,1.9,3.3,4.3l6-1.2l0-0.1C61.4,70.9,60,70,58.1,69.8"/>
		<polygon class="st9" points="49.3,74.1 50,79 55.4,80.7 54.8,75.3 		"/>
		<path class="st10" d="M54.8,75.3c-0.7-3.1-2-4.3-3.5-4.3c-1.6,0-2.2,1.9-2.1,3.1C49.2,74.1,54.8,75.3,54.8,75.3"/>
		<path class="st11" d="M50.9,76.3c0,0.1,0.1,0.2,0.3,0.3c0,0,0,0,0,0c0-0.1,0.1-0.1,0.2-0.1c0.1,0,0.1,0.1,0.1,0.2
			c0.2,0,0.4-0.1,0.4-0.2s-0.2-0.3-0.5-0.4C51.1,76.1,50.9,76.2,50.9,76.3"/>
		<path class="st5" d="M51.1,76.7C51,76.9,51,77.2,51,77.5c0,0.6,0.5,1,1,1c0.1,0,0.1,0,0.2,0c0.6,0,1-0.6,1-1.2c0,0,0-0.1,0-0.1
			c0-0.1,0-0.1,0-0.2c0,0,0-0.1,0-0.1c0-0.1-0.1-0.2-0.3-0.1c-0.1,0-0.1,0.1-0.1,0.2c0,0,0,0,0,0l0,0c0,0,0,0,0,0c0,0,0,0.1,0,0.1
			c0.1,0.4-0.1,0.8-0.5,0.9c-0.4,0.1-0.8-0.1-0.9-0.5c0,0,0-0.1,0-0.1c0-0.2,0-0.3,0-0.5l0,0c0-0.1,0-0.2-0.1-0.2
			C51.2,76.5,51.1,76.5,51.1,76.7L51.1,76.7"/>
		<path class="st11" d="M52.4,76.6c0,0.1,0.1,0.3,0.3,0.3c0,0,0,0,0,0l0,0c0-0.1,0-0.2,0.1-0.2c0,0,0,0,0,0c0.1,0,0.2,0,0.3,0.1
			c0,0,0,0.1,0,0.1c0.2,0,0.2-0.1,0.2-0.2c0-0.2-0.2-0.3-0.5-0.4C52.6,76.3,52.4,76.4,52.4,76.6 M52.9,70.7l-1.9,0.4
			c1.5-0.1,3.2,1.1,3.8,4.2l1.4-0.3C55.6,72.4,54.2,71.2,52.9,70.7"/>
		<path class="st12" d="M52.9,71.3c0,0.1,0.1,0.1,0.2,0.1c0,0,0,0,0,0c0.1,0,0.1-0.1,0.1-0.2c0-0.1-0.1-0.1-0.2-0.1
			C53,71.2,52.9,71.2,52.9,71.3"/>
		<polygon class="st10" points="54.8,75.3 55.4,80.7 63.9,77.6 63.4,73.2 		"/>
		<path class="st12" d="M58.6,73.8L58.6,73.8c-0.4,0.1-0.6,0.4-0.5,0.8c0,0,0,0,0,0.1l0.7-0.2c0,0,0.3,1.3,0.4,1.8
			c0,0.2,1.2-0.1,1.2-0.3l-0.4-1.8l0.7-0.2c-0.1-0.5-0.4-0.6-0.8-0.5l0,0c-0.1-0.4-0.4-0.6-0.8-0.5C58.7,73.1,58.5,73.5,58.6,73.8
			 M55.2,74.5c0,0.1,0.1,0.2,0.3,0.2c0,0,0,0,0,0c0.1,0,0.2-0.1,0.2-0.3c0-0.1-0.1-0.2-0.3-0.2l0,0C55.3,74.2,55.2,74.4,55.2,74.5
			C55.2,74.5,55.2,74.5,55.2,74.5 M54.7,73.3c0,0.1,0.1,0.2,0.2,0.2c0,0,0,0,0,0c0.1,0,0.2-0.1,0.2-0.2c0,0,0,0,0,0
			c0-0.1-0.1-0.2-0.2-0.2C54.8,73.1,54.7,73.2,54.7,73.3 M53.9,72.1c0,0.1,0.1,0.2,0.2,0.2c0.1,0,0.2-0.1,0.2-0.2
			c0-0.1-0.1-0.2-0.2-0.2l0,0C53.9,71.9,53.9,72,53.9,72.1"/>
		<path class="st11" d="M59.5,69.5l-1.4,0.2c2,0.7,3.2,1.5,3.9,3.8l1.5-0.4C62.7,70.9,61.4,70,59.5,69.5"/>
		<path class="st10" d="M59.5,75.9l0.3-0.1l-0.2-0.6c0.1,0,0.1-0.1,0.1-0.2c0-0.1-0.1-0.2-0.3-0.1c-0.1,0-0.2,0.1-0.1,0.2
			c0,0.1,0.1,0.1,0.1,0.1C59.5,75.5,59.5,75.9,59.5,75.9"/>
		<path class="st12" d="M62.5,72.6c-0.1,0-0.2,0.2-0.2,0.3c0,0.1,0.2,0.2,0.3,0.2c0.1,0,0.2-0.2,0.2-0.3c0,0,0,0,0,0
			C62.7,72.6,62.6,72.5,62.5,72.6 M61.8,71.4c-0.1,0-0.2,0.1-0.2,0.2c0,0.1,0.1,0.2,0.2,0.2c0.1,0,0.2-0.1,0.2-0.2
			C62.1,71.5,61.9,71.4,61.8,71.4C61.8,71.4,61.8,71.4,61.8,71.4 M61,70.6c-0.1,0-0.2,0.1-0.1,0.2c0,0,0,0,0,0
			c0,0.1,0.1,0.2,0.2,0.1c0,0,0,0,0,0c0.1,0,0.2-0.1,0.2-0.2C61.2,70.6,61.1,70.5,61,70.6C61,70.6,61,70.6,61,70.6 M59.8,69.9
			c-0.1,0-0.1,0.1-0.1,0.2c0,0.1,0.1,0.1,0.2,0.1c0.1,0,0.1-0.1,0.1-0.2c0,0,0,0,0,0C59.9,70,59.9,69.9,59.8,69.9
			C59.8,69.9,59.8,69.9,59.8,69.9"/>
	</g>
	<path class="st5" d="M66.3,81.8L57,83.7l-10.8,0.5L41,79c0,0,2.4-1.5,7.4-0.5c5,1.1,8.1,2.3,12.2,0.2s8.9-1.1,8.9-1.1L66.3,81.8z"
		/>
	<path class="st13" d="M41,79c0,0,2.4-1.5,7.4-0.5c5,1.1,8.1,2.3,12.2,0.2s8.9-1.1,8.9-1.1"/>
</g>
</svg>
