<?xml version="1.0" encoding="utf-8"?>
<!-- Generator: Adobe Illustrator 26.2.1, SVG Export Plug-In . SVG Version: 6.00 Build 0)  -->
<svg version="1.1" id="Capa_1" xmlns="http://www.w3.org/2000/svg" xmlns:xlink="http://www.w3.org/1999/xlink" x="0px" y="0px"
	 viewBox="0 0 150.9 105.8" style="enable-background:new 0 0 150.9 105.8;" xml:space="preserve">
<style type="text/css">
	.st0{fill:#538A58;}
	.st1{fill:#6EAA6F;}
	.st2{fill:#765236;}
	.st3{fill:#8E6243;}
	.st4{fill:#6A4720;}
	.st5{fill:#EECA1A;}
	.st6{fill:#FFFFFF;}
	.st7{fill-rule:evenodd;clip-rule:evenodd;fill:#EDEDE2;}
	.st8{fill:#61A0A2;}
	.st9{fill:#3F7473;}
	.st10{fill:#C48709;}
	.st11{fill:none;stroke:#DB9600;stroke-width:0.477;stroke-linecap:round;}
</style>
<g>
	<path class="st0" d="M122.4,31.2l0.2-2.9c0.7-1.6,2-2.8,3.6-3.4l0.7,2.8l0.9-3.5c2.4-1,5-1.7,7.6-1.9l-2.9,3.2l-3.2,0.1l1.5,0.8
		l-3.7,3.1c-1.2,0.1-2.2,0.8-2.8,1.8l1.3,0.2l-6.2,9.7c-0.3,0.2-0.5,0.4-0.8,0.6l-0.5,1c0-0.3,0.1-2.1,0.1-2.4c0-5.7,3-10.7,3-10.7
		L122.4,31.2z"/>
	<path class="st1" d="M118.5,41.4c0,0,0.2,1.6-0.1,1.8l-2.7-2.9c-1.9-1.3-3.5-3-4.7-5l0.8-1.1l-2-0.9l-2.7-4l1-1.4l-2.5-1.4
		l-2.2-4.8c2.9,1.1,5.6,2.8,7.7,5.1l0.4,3.3l0.6-2.6c1.7,1.8,2.6,4.3,2.5,6.8l0.8-2.2c1.4,2.6,2.4,5.3,3,8.2
		C118.4,40.8,118.4,41.1,118.5,41.4"/>
	<path class="st0" d="M115.1,42.3c-2.8-0.8-5.7-1.1-8.5-0.8l0.3-2.5l-2.5,2.8L99,43l-0.4-2.3l-1.2,3.5L96,44.6c-0.1,0-0.1,0-0.2,0
		c-0.4,0-0.6-0.4-0.6-0.7c0.5-4,4.4-6.5,4.4-6.5l2.5,0.7l-1.4-1.8l6-0.5l2.4,2.8l-0.1-2.3c2.5,1.3,4.8,2.9,6.9,4.8
		C115.9,41.1,115.1,41.9,115.1,42.3L115.1,42.3"/>
	<path class="st1" d="M119.6,44.5c-1.6-0.1-1.5-1.8-1.3-2.2l0.5-0.5c0.2-0.2,0.5-0.4,0.8-0.6c1.8-1.3,4.4-1.9,7.3-2.2l0,2.2l1.4-2
		c0,0,5.6,0.1,7.6,2.8l-0.6-1.9c2.7,1,4.9,3.2,6.6,6.5l-3.6-0.8l-1.8-2.1l0.6,1.6l-4-0.7l-3.6-2.6l0.6,2.3l-3.4,0.2l-2.6-2.1
		l0.4,1.7C124.6,44.2,120.9,44.6,119.6,44.5"/>
	<path class="st2" d="M117,56.3c0.2,11,5.4,23.3,5.4,23.3l0.7,2.2c-1.9,0.7-3.8,1.4-5.6,2.2c-0.3-0.9-3.9-13.4-4.1-18.2
		c-0.9-7-0.6-14.1,0.7-21c0.6-4.1,2.8-3.9,4.1-1.7C116.9,48,117,55.8,117,56.3"/>
	<path class="st3" d="M113.3,49.5c0.3-2.3,0.7-4.6,1.2-6.9c0,0.1,3.5,0,3.7,0.1c-0.3,1.5-0.9,5-1,6.5l0,0
		C115.9,48.8,114.5,48.9,113.3,49.5"/>
	<path class="st4" d="M116.6,43.3c0.2-0.4,0.4-0.7,0.8-0.9c0.3-0.1,0.6-0.2,0.9-0.1c0.2,0,0.4,0.2,0.6,0.3c0.6,0.5,0.7,1.4,0.2,2.1
		c-0.1,0.1-0.2,0.2-0.4,0.3c-0.4,0.2-0.9,0.3-1.3,0.1c-0.3-0.1-0.5-0.3-0.7-0.6C116.5,44.2,116.5,43.7,116.6,43.3L116.6,43.3z"/>
	<path class="st4" d="M115.2,42.5c-0.1-0.1-0.1-0.1-0.1-0.2c-0.3-0.7,0-1.4,0.6-1.8l0.1-0.1c0.7-0.3,1.5-0.1,1.8,0.6
		c0.4,0.7,0.2,1.6-0.5,2c0,0-0.1,0-0.1,0.1c-0.1,0-0.2,0.1-0.3,0.1C116.1,43.3,115.5,43.1,115.2,42.5"/>
	<path class="st3" d="M116.7,81.1c-0.6-1.9-1.1-3.9-1.5-5.8c1.5-0.9,3.3-1,5.5-0.6l1.8,4.8C122.4,79.6,118.2,80.1,116.7,81.1"/>
	<path class="st3" d="M114,70.5c-0.3-1.6-0.6-3.1-0.7-4.7c1.5-0.9,4.3-2.3,4.7-0.7c0.4,1.6,0.8,3.1,1.1,4.5
		C119.1,69.6,115.3,69.5,114,70.5"/>
	<path class="st3" d="M112.8,59.1c-0.1-1.8,0-3.6,0.1-5.4c1.1-0.6,2.4-0.5,4.1-0.1c0,1.8,0,3.6,0.1,5.4
		C115.8,58.4,114.2,58.4,112.8,59.1"/>
	<path class="st4" d="M113.6,44.4c-0.2-0.3-0.2-0.7-0.2-1.1c0.4-1.7,2.5-1.2,2.9,0c0.2,0.6-0.1,1.3-0.7,1.6c-0.1,0-0.1,0.1-0.2,0.1
		C114.7,45.4,113.9,45.1,113.6,44.4"/>
</g>
<path class="st5" d="M150.9,100.7c-9.8-10.2-21.7-18-34.7-22.9c-2.9-1-5.8-2.2-8.8-3.1c-10.2-3-20.8-4.6-31.5-4.6
	c-5.3,0-10.5,0.4-15.7,1.1c-3.2,0.5-6.4,1-9.5,1.8C29.3,78.2,12.1,87.3,0,100.7c0,0,28.2,5,65.9,5S150.9,100.7,150.9,100.7z"/>
<path class="st6" d="M98,70.5c0.3,0,0.6,0.3,0.6,0.6c0,0.3-0.2,0.6-0.6,0.6c-0.3,0-0.6-0.3-0.6-0.6c0,0,0,0,0,0
	C97.5,70.7,97.7,70.5,98,70.5"/>
<path class="st7" d="M6.2,37c0-0.7,0.2-6.2,4.3-7.9c4.1-1.7,7.5,2.3,7.5,2.3s0.5-7.6,5.4-6.7c4.9,0.9,4.8,5.2,4.8,5.2
	s1.6-2.6,4.3-1.7c3,1,2.5,3.7,2.5,3.7s1.7-2,4.1-0.5c2.5,1.5,3.8,4.1,3.2,6.9c-0.6,2.8-3.1,6.5-18.1,5.2S6.2,41.7,6.2,37"/>
<g>
	<g>
		<polygon class="st8" points="74.5,61.1 76.4,72.8 58.4,85.5 58.1,84.9 54.4,72.9 		"/>
		<polygon class="st9" points="54.5,72.8 58.4,85.5 39.4,87.1 35.3,75.8 35.2,75.6 		"/>
		<path class="st5" d="M55.9,67.5l5.3-3.3l-0.6-2.1l6.7-3.9"/>
		<path class="st5" d="M60.6,50.6l2.2-1.2c0.9-0.6,2.1-0.1,3,0.6s1.6,1.9,2.4,2.7c0.9,0.9,2,1.3,3,2c0.9,0.7,1.7,1.6,2.4,2.5
			c0.7,1.1,1.3,2.4,1.5,3.7l-0.5,0.3l-5.3,3.5l0.5,1.9l-6.6,4.3l-0.5-2.4L54.4,73c-0.5-2.6-2-4.9-4.2-6.4c-1.1-0.7-2.3-1.2-3.3-2
			c-1-0.9-1.6-1.9-2.7-2.7c-0.9-0.8-2.2-1-3.4-0.5l3.2-1.8l0,0.1"/>
		<path class="st0" d="M67,62.1c0.3,0.7,0,1.5-0.6,2l0.7,2.3l-1.3,0.8l-0.7-2.6c-0.6,0.1-1.2-0.1-1.5-0.6c-0.4-0.7,0.1-1.7,1-2.2
			C65.6,61.3,66.7,61.4,67,62.1"/>
		<path class="st5" d="M50.1,78.7c0.4,1.4-1,4.3-3.5,5c-2.5,0.7-5.3-1.1-5.6-2.9c-0.2-1.3,0.4-2.1,1.8-2.8l0,0.4l0.2,0.5
			c-0.6,0.3-0.8,0.9-0.7,1.5c0.6,1.6,2.3,2.6,4,2.2c1.7-0.5,2.8-2.6,2.5-3.5c-0.2-0.5-0.7-0.9-1.3-0.9l-0.3-1
			C48.4,77.1,49.8,77.6,50.1,78.7"/>
		<polygon class="st10" points="47.6,78.3 43,79 42.5,77.3 47.2,76.6 		"/>
		<path class="st9" d="M50.2,66.7c2.2,1.5,3.7,3.8,4.2,6.4l-19.2,2.8c-0.4-1-0.5-2-0.2-3c0.1-1.1,0.5-2.2,1.1-3.2
			c0.6-1.1,1.6-2,2-3.1c0.5-1.1,0.5-2.3,1.1-3.4c0.3-0.7,0.9-1.3,1.5-1.6l0.1-0.1l0,0c1.1-0.5,2.4-0.3,3.4,0.5
			c1,0.8,1.7,1.9,2.7,2.7C47.8,65.5,49.1,65.9,50.2,66.7"/>
		<path class="st8" d="M47.4,60.2c-0.9-0.7-2.2-1.1-3.2-0.5l0-0.1l16.5-9c1-0.3,2.1,0,2.9,0.7c1,0.8,1.7,1.9,2.7,2.7
			c1,0.8,2.2,1.3,3.3,2c0.8,0.5,1.5,1.2,2.1,1.9l-3.7,2.2l-0.5-1.9l-6.7,3.9l0.6,2.1l-5.3,3.3c-0.7-1-1.6-1.9-2.6-2.5
			c-1.1-0.7-2.3-1.1-3.3-2S48.4,61,47.4,60.2"/>
	</g>
	<g>
		<path class="st5" d="M64.2,88l-12,2.4L38,91.1l-6.8-6.7c0,0,3.1-2,9.7-0.6s10.6,3,16,0.3s11.5-1.5,11.5-1.5L64.2,88z"/>
		<path class="st11" d="M31.2,84.4c0,0,3.1-2,9.7-0.6s10.6,3,16,0.3s11.5-1.5,11.5-1.5"/>
	</g>
</g>
</svg>
