<?xml version="1.0" encoding="utf-8"?>
<!-- Generator: Adobe Illustrator 26.2.1, SVG Export Plug-In . SVG Version: 6.00 Build 0)  -->
<svg version="1.1" id="Capa_1" xmlns="http://www.w3.org/2000/svg" xmlns:xlink="http://www.w3.org/1999/xlink" x="0px" y="0px"
	 viewBox="0 0 150.9 105.8" style="enable-background:new 0 0 150.9 105.8;" xml:space="preserve">
<style type="text/css">
	.st0{fill:#538A58;}
	.st1{fill:#6EAA6F;}
	.st2{fill:#765236;}
	.st3{fill:#8E6243;}
	.st4{fill:#6A4720;}
	.st5{fill:#EECA1A;}
	.st6{fill:#FFFFFF;}
	.st7{fill-rule:evenodd;clip-rule:evenodd;fill:#EDEDE2;}
	.st8{fill:#903718;}
	.st9{fill:#481A01;}
	.st10{fill:#6D2A0D;}
	.st11{fill:#DB9600;}
	.st12{fill:#F8E12E;}
	.st13{fill:#6F4714;}
	.st14{fill:none;stroke:#DB9600;stroke-width:0.6155;stroke-linecap:round;}
</style>
<g>
	<path class="st0" d="M35.3,44.2l0.1-2.4c0.6-1.3,1.7-2.3,3-2.8l0.6,2.4l0.8-2.9c2-0.9,4.1-1.4,6.3-1.6l-2.4,2.7l-2.7,0l1.3,0.7
		l-3,2.6c-1,0.1-1.8,0.6-2.3,1.5l1.1,0.1l-5.1,8c-0.2,0.2-0.4,0.3-0.6,0.5L32,53.9c0-0.3,0.1-1.7,0.1-2c0-4.7,2.5-8.9,2.5-8.9
		L35.3,44.2z"/>
	<path class="st1" d="M32,52.7c0,0,0.2,1.4-0.1,1.5l-2.2-2.4c-1.6-1.1-2.9-2.5-3.9-4.1l0.6-0.9L24.8,46l-2.2-3.3l0.9-1.2l-2.1-1.1
		l-1.8-4c2.4,0.9,4.6,2.4,6.4,4.2l0.3,2.8l0.5-2.1c1.4,1.5,2.2,3.5,2.1,5.6l0.7-1.8c1.1,2.1,2,4.4,2.5,6.8C32,52.2,32,52.4,32,52.7"
		/>
	<path class="st0" d="M29.2,53.5c-2.3-0.7-4.7-0.9-7.1-0.7l0.3-2.1L20.3,53l-4.4,1l-0.3-1.9l-1,2.9l-1.3,0.3c-0.1,0-0.1,0-0.2,0
		c-0.3,0-0.5-0.3-0.5-0.6c0.4-3.3,3.7-5.4,3.7-5.4l2.1,0.6l-1.1-1.5l5-0.4l2,2.3l-0.1-1.9c2.1,1.1,4,2.4,5.7,4
		C29.8,52.4,29.2,53.1,29.2,53.5L29.2,53.5"/>
	<path class="st1" d="M32.9,55.3c-1.3-0.1-1.2-1.5-1.1-1.8l0.5-0.4c0.2-0.2,0.4-0.4,0.6-0.5c1.5-1.1,3.6-1.6,6-1.8v1.8l1.2-1.6
		c0,0,4.7,0.1,6.3,2.4L46,51.6c2.3,0.8,4.1,2.7,5.5,5.4l-3-0.6L47,54.6l0.5,1.3l-3.3-0.6l-3-2.1l0.5,1.9l-2.8,0.2l-2.2-1.8l0.4,1.4
		C37.1,55,34,55.3,32.9,55.3"/>
	<path class="st2" d="M30.7,65c0.2,9.2,4.5,19.3,4.5,19.3l0.6,1.8c-1.6,0.5-3.1,1.2-4.7,1.8c-0.2-0.8-3.2-11.2-3.4-15.1
		C27,67,27.2,61.1,28.3,55.4c0.5-3.4,2.3-3.3,3.4-1.4C30.6,58.1,30.8,64.6,30.7,65"/>
	<path class="st3" d="M27.7,59.4c0.2-1.9,0.6-3.8,1-5.7c0,0.1,2.9,0,3.1,0.1C31.6,55,31.1,58,31,59.2l0,0
		C29.9,58.8,28.7,58.9,27.7,59.4"/>
	<path class="st4" d="M30.5,54.3c0.1-0.3,0.4-0.5,0.7-0.7c0.2-0.1,0.5-0.1,0.7-0.1s0.4,0.1,0.5,0.3c0.5,0.4,0.6,1.2,0.2,1.7
		c-0.1,0.1-0.2,0.2-0.3,0.3C32,56,31.6,56,31.2,55.9c-0.2-0.1-0.4-0.3-0.6-0.5C30.4,55,30.3,54.6,30.5,54.3L30.5,54.3z"/>
	<path class="st4" d="M29.2,53.6c0-0.1-0.1-0.1-0.1-0.2c-0.2-0.5,0-1.2,0.5-1.5l0.1-0.1c0.6-0.3,1.2-0.1,1.5,0.5
		c0.4,0.6,0.2,1.3-0.4,1.7h-0.1c-0.1,0-0.1,0.1-0.2,0.1C30.1,54.3,29.5,54.1,29.2,53.6"/>
	<path class="st3" d="M30.5,85.7c-0.5-1.6-0.9-3.2-1.2-4.8c1.2-0.7,2.7-0.8,4.6-0.5l1.5,4C35.3,84.4,31.8,84.9,30.5,85.7"/>
	<path class="st3" d="M28.3,76.8c-0.3-1.3-0.5-2.6-0.6-3.9c1.2-0.8,3.6-1.9,3.9-0.6c0.3,1.4,0.7,2.5,0.9,3.7
		C32.5,76.1,29.4,76,28.3,76.8"/>
	<path class="st3" d="M27.3,67.4c-0.1-1.5,0-3,0.1-4.5c0.9-0.5,2-0.4,3.4-0.1c0,1.5,0,3,0.1,4.5C29.7,66.8,28.4,66.8,27.3,67.4"/>
	<path class="st4" d="M27.9,55.2c-0.1-0.3-0.2-0.6-0.2-0.9c0.3-1.4,2.1-1,2.4,0c0.1,0.5-0.1,1.1-0.6,1.4c-0.1,0-0.1,0.1-0.2,0.1
		C28.8,56,28.2,55.7,27.9,55.2"/>
</g>
<path class="st5" d="M150.9,100.7c-9.8-10.2-21.7-18-34.7-22.9c-2.9-1-5.8-2.2-8.8-3.1c-10.2-3-20.8-4.6-31.5-4.6
	c-5.3,0-10.5,0.4-15.7,1.1c-3.2,0.5-6.4,1-9.5,1.8C29.3,78.2,12.1,87.3,0,100.7c0,0,28.2,5,65.9,5S150.9,100.7,150.9,100.7z"/>
<path class="st6" d="M98,70.5c0.3,0,0.6,0.3,0.6,0.6c0,0.3-0.2,0.6-0.6,0.6c-0.3,0-0.6-0.3-0.6-0.6l0,0C97.5,70.7,97.7,70.5,98,70.5
	"/>
<path class="st7" d="M105.7,16.4c0-0.8,0.3-7,4.9-8.9c4.6-2,8.5,2.7,8.5,2.7s0.6-8.6,6.1-7.6c5.6,1,5.4,5.9,5.4,5.9s1.8-3,4.9-2
	c3.4,1.1,2.8,4.2,2.8,4.2s1.9-2.3,4.6-0.6c2.8,1.7,4.3,4.6,3.6,7.8s-3.5,7.4-20.4,5.9S105.6,21.7,105.7,16.4"/>
<g>
	<g>
		<path class="st8" d="M95.7,47l-21.2,1.4c4.6,3.1,9.7,9,11,18.7L110,65v-0.3C108.6,53,103.3,49,95.7,47"/>
		<polygon class="st9" points="58.6,60.2 59.4,79.8 80,89.4 80.3,67.6 		"/>
		<path class="st10" d="M80.1,67.7C78.8,55.1,74,49.6,68.4,49c-6.5-0.6-9.7,6.4-9.8,11.2C58.6,60.2,80,67.6,80.1,67.7"/>
		<path class="st11" d="M64,69.7c-0.1,0.5,0.1,1,0.9,1.4c0,0,0-0.1,0-0.1c0.2-0.3,0.6-0.4,0.9-0.3c0.3,0.1,0.4,0.4,0.4,0.7
			c0.9,0.1,1.5-0.2,1.6-0.7c0.1-0.5-0.5-1.3-1.7-1.6C64.9,68.7,64,69,64,69.7"/>
		<path class="st5" d="M64.9,71.1c-0.6,1-0.8,2.1-0.8,3.3c-0.2,2.2,1.5,4.2,3.7,4.3c0.2,0,0.5,0,0.7,0c2.4,0.1,4.4-1.8,4.4-4.1
			c0-0.2,0-0.3,0-0.5c0-0.3,0-0.6-0.1-0.9c0-0.2-0.1-0.3-0.1-0.5c-0.1-0.4-0.5-0.7-0.9-0.7c-0.4,0-0.6,0.3-0.6,0.7c0,0,0,0,0,0v0.1
			c0,0.1,0,0.1,0,0.2c0,0.1,0,0.2,0,0.3c0.2,1.5-0.9,3-2.5,3.1c-1.5,0.2-3-0.9-3.1-2.5c0-0.2,0-0.3,0-0.5c0-0.7,0.1-1.4,0.4-2v-0.1
			c0.1-0.3-0.1-0.6-0.4-0.7c-0.3-0.1-0.7,0-0.9,0.3L64.9,71.1"/>
		<path class="st11" d="M70.1,71.4c-0.1,0.6,0.2,1.2,1.2,1.6c0-0.1,0-0.1,0-0.2v-0.1c0-0.3,0.2-0.7,0.6-0.7c0,0,0,0,0,0
			c0.4,0,0.8,0.3,0.9,0.7c0,0.1,0.1,0.3,0.1,0.5c0.6,0,0.9-0.3,1-0.6c0.2-0.6-0.5-1.4-1.7-1.7S70.2,70.8,70.1,71.4 M74.6,48.4
			L66.8,49c5.9,0.2,12,6,13.3,18.5l5.6-0.4C84.8,56.3,79.5,50.8,74.6,48.4"/>
		<path class="st12" d="M74.6,50.8c0,0.3,0.2,0.6,0.5,0.6c0,0,0,0,0,0c0.3,0,0.6-0.2,0.6-0.6c0-0.3-0.2-0.6-0.6-0.6
			C74.8,50.2,74.6,50.4,74.6,50.8"/>
		<polygon class="st10" points="80.1,67.6 80,89.4 115.2,81 115.4,63.1 		"/>
		<path class="st12" d="M95.8,63.5L95.8,63.5c-1.5,0.1-2.6,1.4-2.5,2.9c0,0.1,0,0.1,0,0.2l2.9-0.5c0,0,0.7,5.2,0.8,7.3
			c0,0.8,4.9,0.2,4.7-0.6l-0.7-7.2l3-0.5c-0.2-2.1-1.2-2.5-3-2.3l0,0c-0.1-1.5-1.5-2.5-2.9-2.4C96.7,60.6,95.7,62,95.8,63.5
			 M82,64.5c0,0.6,0.4,1,1,1c0,0,0,0,0,0c0.6,0,1-0.5,1-1c0-0.6-0.5-1-1-1l0,0C82.5,63.5,82,63.9,82,64.5C82,64.5,82,64.5,82,64.5
			 M80.6,59.5c0,0.4,0.3,0.8,0.8,0.8c0,0,0,0,0,0c0.5,0,0.8-0.3,0.8-0.8c0,0,0,0,0,0c0-0.5-0.4-0.8-0.8-0.8
			C81,58.7,80.7,59,80.6,59.5 M77.9,54.4c0,0.4,0.3,0.7,0.7,0.7s0.7-0.3,0.7-0.7c0-0.4-0.3-0.7-0.7-0.7l0,0
			C78.2,53.7,77.9,54,77.9,54.4"/>
		<path class="st11" d="M101.6,46.8L95.7,47c7.8,3.7,11.9,7.4,13.7,16.8l5.9-0.7C113.7,53.7,108.8,49.7,101.6,46.8"/>
		<path class="st13" d="M98.6,72l1.4-0.1l-0.6-2.5c0.3-0.1,0.5-0.4,0.5-0.7c-0.1-0.4-0.5-0.7-0.9-0.7c-0.4,0.1-0.7,0.4-0.7,0.8
			c0,0.3,0.2,0.5,0.5,0.6C98.6,70.5,98.6,72,98.6,72"/>
		<path class="st12" d="M111.9,60.3c-0.6,0.1-1,0.6-0.9,1.1c0.1,0.6,0.6,1,1.1,0.9c0.6-0.1,1-0.6,0.9-1.1c0,0,0,0,0,0
			C112.9,60.6,112.4,60.2,111.9,60.3 M109.9,55.4c-0.4,0-0.8,0.5-0.7,0.9c0,0.4,0.5,0.8,0.9,0.7c0.4,0,0.8-0.4,0.7-0.9
			C110.8,55.7,110.4,55.3,109.9,55.4C109.9,55.4,109.9,55.4,109.9,55.4 M106.9,51.6c-0.4,0-0.7,0.4-0.6,0.8c0,0,0,0,0,0
			c0,0.4,0.4,0.7,0.8,0.6c0,0,0,0,0,0c0.4,0,0.7-0.3,0.7-0.7c0-0.4-0.3-0.7-0.7-0.7C107,51.6,106.9,51.6,106.9,51.6 M102.4,48.5
			c-0.3,0-0.5,0.3-0.5,0.6c0,0.3,0.3,0.5,0.6,0.5c0.3,0,0.5-0.3,0.5-0.6c0,0,0,0,0,0C103,48.7,102.8,48.5,102.4,48.5
			C102.5,48.5,102.5,48.5,102.4,48.5"/>
	</g>
	<g>
		<path class="st5" d="M104.8,89.5l-15.6,3.2L71,93.5l-8.8-8.7c0,0,4-2.6,12.5-0.8c8.5,1.7,13.6,3.9,20.6,0.3
			c7-3.6,14.8-1.9,14.8-1.9L104.8,89.5z"/>
		<path class="st14" d="M62.3,84.8c0,0,4-2.6,12.5-0.8c8.5,1.7,13.6,3.9,20.6,0.3c7-3.6,14.8-1.9,14.8-1.9"/>
	</g>
</g>
</svg>
