<?xml version="1.0" encoding="utf-8"?>
<!-- Generator: Adobe Illustrator 26.2.1, SVG Export Plug-In . SVG Version: 6.00 Build 0)  -->
<svg version="1.1" id="Capa_1" xmlns="http://www.w3.org/2000/svg" xmlns:xlink="http://www.w3.org/1999/xlink" x="0px" y="0px"
	 viewBox="0 0 150.9 105.8" style="enable-background:new 0 0 150.9 105.8;" xml:space="preserve">
<style type="text/css">
	.st0{fill:#538A58;}
	.st1{fill:#6EAA6F;}
	.st2{fill:#765236;}
	.st3{fill:#8E6243;}
	.st4{fill:#6A4720;}
	.st5{fill:#EECA1A;}
	.st6{fill:#FFFFFF;}
	.st7{fill:#593D19;}
	.st8{fill:#6F4714;}
	.st9{fill:#945B19;}
	.st10{fill:#DB9600;}
	.st11{fill:#C58021;}
	.st12{fill:none;stroke:#DB9600;stroke-width:0.3661;stroke-linecap:round;}
	.st13{fill-rule:evenodd;clip-rule:evenodd;fill:#EDEDE2;}
</style>
<g>
	<path class="st0" d="M20.8,20.4c0,0,6.1,3.2,9.6,8.9c0.2,0.3,1.4,2,1.6,2.3L30.8,31c-0.4-0.1-0.8-0.1-1.2-0.2l-12.1-5.9l1.2-1
		c-1.2-0.7-2.7-0.7-3.9-0.1l-5.6-0.9l1-1.8L7.1,23l-4.9-1.4c2.8-1.4,5.7-2.3,8.8-2.7l3.1,3l-1-3.3c2-0.4,4.1,0,5.7,1.1l2,2.8
		L20.8,20.4z"/>
	<path class="st1" d="M31,30.3c-0.2-0.3-0.4-0.6-0.6-0.9c-1.1-3.2-1.8-6.6-2-10l2.2,1.7c-1.6-2.4-2.2-5.4-1.6-8.3l2.1,2.2l-1.7-3.5
		c0.8-3.6,2.3-7,4.6-9.9l0.7,6.2L33,10.5l1.9,0.8L34.7,17l-1.4,2.1l1.4,0.6c0,2.7-0.6,5.4-1.7,7.8L32.1,32
		C31.8,32.1,31,30.3,31,30.3"/>
	<path class="st0" d="M34.9,29.1L34.9,29.1c-0.3-0.4-1.5-0.7-1.6-0.7c0.9-3.2,2.2-6.2,3.9-9l1.3,2.4l0.7-4.3l6.3-3.2l-0.2,2.7
		l2.1-2.2c0,0,5.5,0.1,8.4,3.8c0.3,0.3,0.2,0.8-0.1,1.1c-0.1,0-0.1,0.1-0.2,0.1l-1.7,0.6l-3.3-2.8l1,2.5L45.3,22l-4.2-1.3l1.9,2.4
		C39.9,24.6,37.2,26.6,34.9,29.1"/>
	<path class="st1" d="M31.7,34.1c-1.2,0.8-5.2,2.7-5.2,2.7l-0.6-1.9l-1.3,3.7l-3.5,1.9l-0.9-2.7l-2,4.8l-3.5,3.1l-0.4-2l-0.6,3.2
		l-3.1,3c-0.3-4.3,0.5-7.9,2.7-10.6l0.6,2.3c0.3-4,5.9-7.5,5.9-7.5l2.6,1.1L21,33c3.1-1.5,6-2.5,8.6-2.2c0.4,0,0.8,0.1,1.2,0.2
		l0.9,0.2C32.1,31.4,33.2,33,31.7,34.1"/>
	<path class="st2" d="M41.5,44.3c-0.3-0.5-5-8.4-9.3-12.5c0-3,2.1-4.5,5.2-0.8C43,37,47.6,44,51,51.5c2.6,4.9,6.7,19.6,7,20.7
		c-2.4,0.3-4.7,0.7-7,1.2l-0.6-2.6C50.4,70.9,48,55.4,41.5,44.3"/>
	<path class="st3" d="M41.1,35.2c-1.6,0.1-3.1,0.9-4.1,2.1l0,0c-1-1.4-3.8-4.6-5-5.9c0.2-0.3,3.7-2.3,3.7-2.4
		C37.6,31,39.4,33,41.1,35.2"/>
	<path class="st4" d="M34,31.1c0.4,0.3,0.6,0.8,0.6,1.3c0,0.4-0.1,0.7-0.3,1c-0.3,0.5-0.8,0.7-1.4,0.7c-0.2,0-0.4,0-0.6-0.1
		c-0.9-0.3-1.4-1.3-1.1-2.2c0.1-0.3,0.2-0.5,0.4-0.7c0.3-0.3,0.6-0.4,1-0.4C33.1,30.7,33.6,30.8,34,31.1L34,31.1z"/>
	<path class="st4" d="M34.9,29.3c0,0.8-0.5,1.4-1.2,1.6c-0.1,0-0.2,0-0.3,0.1c0,0-0.1,0-0.1,0c-0.9,0-1.7-0.8-1.7-1.7
		c0-0.9,0.7-1.6,1.5-1.7h0.2c0.8,0,1.5,0.6,1.7,1.4C34.9,29.1,34.9,29.2,34.9,29.3"/>
	<path class="st3" d="M57.1,68.9c-2.2-0.1-6.7,2-6.7,2L49.2,65c2-1.7,3.9-2.7,5.9-2.7C55.8,64.4,56.5,66.6,57.1,68.9"/>
	<path class="st3" d="M53.2,56.6c-1.9-0.1-5.6,2.2-5.6,2.2c-0.6-1.6-1.1-3.3-1.7-5.2s3.1-2.2,5.1-2.2C51.9,53.1,52.6,54.9,53.2,56.6
		"/>
	<path class="st3" d="M47.4,44.6c-1.8,0.1-3.4,1-4.4,2.5c-1-1.9-2-3.7-3.1-5.5c1.4-1.4,2.7-2.2,4.2-2.4
		C45.3,40.9,46.4,42.7,47.4,44.6"/>
	<path class="st4" d="M37.7,30.3c0.1,0.9-0.5,1.6-1.4,1.7c-0.1,0-0.2,0-0.3,0c-0.8,0-1.5-0.4-1.7-1.2c-0.4-1.4,1.5-3.2,2.9-1.8
		C37.5,29.4,37.6,29.9,37.7,30.3"/>
</g>
<g id="Capa_2_00000142864837474885964660000002825555737725580214_">
	<g id="Capa_1-2">
		<path class="st5" d="M150.9,100.7c-9.8-10.2-21.7-18-34.7-22.9c-2.9-1-5.8-2.2-8.8-3.1c-10.2-3-20.8-4.6-31.5-4.6
			c-5.3,0-10.5,0.4-15.7,1.1c-3.2,0.5-6.4,1-9.5,1.8C29.3,78.2,12.1,87.3,0,100.7c0,0,28.2,5,65.9,5S150.9,100.7,150.9,100.7z"/>
		<path class="st6" d="M98,70.5c0.3,0,0.6,0.3,0.6,0.6c0,0.3-0.2,0.6-0.6,0.6c-0.3,0-0.6-0.3-0.6-0.6c0,0,0,0,0,0
			C97.5,70.7,97.7,70.5,98,70.5"/>
		<g>
			<path class="st7" d="M121.2,88.5l5.7-2.4c-0.2,0.9-0.4,2.5-0.6,3.3c-1.8,0.2-2.9-0.4-5.3,0.8L121.2,88.5L121.2,88.5z"/>
			<path class="st8" d="M126.9,86.1l-5.7,2.5l-0.1,0l0.4-3.3l0,0l5.7-1.9C127.3,83.4,126.9,86,126.9,86.1"/>
			<path class="st0" d="M127.4,83.4l-5.8,1.9l0.2-1.8l5.8-1.8C127.5,82.4,127.5,82.8,127.4,83.4"/>
			<path class="st9" d="M125.8,77.4c0.4,0.1,0.8,0.3,1,0.6c0.7,0.8,0.9,1.9,0.8,3.7l-5.8,1.8c0,0,0.1-4,2.2-5.6
				C124.5,77.5,125.2,77.3,125.8,77.4L125.8,77.4z"/>
			<path class="st1" d="M125.8,77.4c-0.6-0.1-1.3,0.1-1.8,0.4c-2.2,1.7-2.4,7.4-2.4,7.4l-2.3-2.2c0.3-2.7,1.1-5.5,3.2-6.5
				C124.5,77,125.6,77.4,125.8,77.4"/>
			<path class="st10" d="M123.4,77.1c0.1,0,0.2,0.1,0.2,0.2c0,0.1-0.1,0.2-0.2,0.2c-0.1,0-0.2-0.1-0.2-0.2
				C123.2,77.2,123.3,77.1,123.4,77.1L123.4,77.1"/>
			<path class="st8" d="M121.2,88.5l-0.2,1.7c-4.6,2.2-8.8-1.1-13.5-2c-0.6-0.1-2-0.4-3.2-0.6l0.2-2.2l7.7,1.4L121.2,88.5z"/>
			<path class="st10" d="M121.9,78.5c0.2,0,0.3,0.2,0.2,0.4c0,0.2-0.2,0.3-0.3,0.3c-0.2,0-0.3-0.2-0.2-0.4l0,0
				C121.6,78.6,121.8,78.4,121.9,78.5"/>
			<path class="st10" d="M121,81.1c0.2,0,0.4,0.3,0.3,0.5c0,0,0,0,0,0c0,0.2-0.3,0.4-0.5,0.4c0,0,0,0,0,0c-0.2,0-0.4-0.3-0.4-0.5
				l0,0C120.6,81.3,120.8,81.1,121,81.1C121,81.1,121,81.1,121,81.1"/>
			<path class="st11" d="M119.3,83.1L119.3,83.1l-5.1-0.8l-0.1,0c0.1-3.4,1.2-5.5,3.5-6.6l0.3-0.1c1.5,0.3,3.3,0.8,4.6,1.1
				C120.6,77.8,119.6,80.4,119.3,83.1"/>
			<path class="st1" d="M118,75.5L118,75.5c-2.4,1.2-3.7,3.4-3.8,6.8l0,0.1l-2.4-0.5c0.2-3.8,1.7-5.8,3.6-6.9
				C116.3,75.1,117.1,75.3,118,75.5"/>
			<path class="st10" d="M115.2,84l-0.4,2.3c-0.8,0.3-1.7,0.3-2.5,0.2c-0.8-0.1-1.5-0.5-2.2-1l0.4-2.3L115.2,84z"/>
			<path class="st10" d="M115.9,75.7c0.1,0,0.2,0.1,0.2,0.3c0,0.1-0.1,0.2-0.2,0.2c0,0,0,0,0,0c-0.1,0-0.2-0.1-0.2-0.2c0,0,0,0,0,0
				C115.6,75.8,115.7,75.7,115.9,75.7C115.9,75.7,115.9,75.7,115.9,75.7"/>
			<path class="st11" d="M110.2,74.3c1.8,0.1,3.5,0.3,5.2,0.7c-1.9,1.2-3.4,3-3.6,6.8l0,0.1l-4.7-0.7l0-0.1c0-2,0.7-3.9,2-5.5
				C109.5,75.2,109.8,74.7,110.2,74.3"/>
			<path class="st10" d="M114.1,77.3c0.2,0,0.3,0.2,0.2,0.4c0,0.2-0.1,0.3-0.3,0.3c-0.2,0-0.3-0.2-0.3-0.3c0,0,0-0.1,0-0.1
				C113.8,77.4,114,77.3,114.1,77.3"/>
			<path class="st4" d="M112.9,84.7c0,0.1-0.1,0.2-0.2,0.2c0,0,0,0,0,0l0,0.7l-0.5-0.1l0.1-0.7c-0.1,0-0.2-0.1-0.2-0.3c0,0,0,0,0,0
				c0-0.2,0.2-0.3,0.4-0.2C112.7,84.3,112.9,84.5,112.9,84.7"/>
			<path class="st9" d="M121.6,85.2l-6.4-1.2l-0.4,2.3c-0.8,0.3-1.7,0.3-2.5,0.2c-0.8-0.1-1.5-0.5-2.2-1l0.4-2.3l-5.7-1.1l-0.3,3.5
				l16.7,3.1L121.6,85.2z"/>
			<path class="st10" d="M113.3,80c0.2,0,0.4,0.3,0.4,0.5l0,0c0,0.2-0.3,0.4-0.5,0.4c0,0,0,0,0,0c-0.2,0-0.4-0.3-0.3-0.5
				c0,0,0,0,0,0C112.8,80.2,113,80,113.3,80C113.2,80,113.2,80,113.3,80"/>
			<path class="st1" d="M108.9,76c0.6-0.8,1.4-1.4,2.3-1.7c-1.1-0.2-2.3,0-3.3,0.6c-2.6,1.7-2.9,5.8-2.9,5.8l2.3,0.5l0-0.3
				C107.3,79.2,107.9,77.5,108.9,76"/>
			<path class="st10" d="M108.8,75.2C108.8,75.2,108.8,75.2,108.8,75.2c0,0.2-0.1,0.2-0.2,0.2c-0.1,0-0.2-0.2-0.1-0.3
				c0-0.1,0.1-0.1,0.2-0.1C108.7,75,108.8,75.1,108.8,75.2"/>
			<path class="st10" d="M107.4,76.5c0.2,0,0.3,0.2,0.2,0.3c0,0.2-0.2,0.3-0.3,0.2s-0.3-0.2-0.2-0.3
				C107.1,76.6,107.2,76.5,107.4,76.5"/>
			<path class="st10" d="M106.6,79c0.2,0,0.4,0.2,0.3,0.5c0,0.2-0.2,0.4-0.5,0.3c0,0,0,0,0,0c-0.2,0-0.4-0.3-0.3-0.5
				C106.2,79.1,106.4,79,106.6,79"/>
			<polygon class="st1" points="121.8,83.5 121.6,85.3 115.2,84 110.5,83.1 104.8,82.1 105,80.4 			"/>
			<path class="st12" d="M101.5,88.2c0,0,2.6-1.2,7.4,0.4s7.8,3.3,12.1,1.7s8.9-0.1,8.9-0.1"/>
		</g>
	</g>
</g>
<path class="st13" d="M94.4,18.4c0-0.9,0.3-8.5,5.9-10.9s10.3,3.2,10.3,3.2s0.7-10.5,7.5-9.2c6.8,1.2,6.6,7.2,6.6,7.2
	s2.2-3.6,5.9-2.4c4.1,1.4,3.4,5.1,3.4,5.1s2.3-2.8,5.7-0.7c3.4,2,5.2,5.6,4.4,9.5c-0.8,3.9-4.2,9-24.8,7.1
	C98.6,25.5,94.3,24.9,94.4,18.4"/>
</svg>
