<?xml version="1.0" encoding="utf-8"?>
<!-- Generator: Adobe Illustrator 26.2.1, SVG Export Plug-In . SVG Version: 6.00 Build 0)  -->
<svg version="1.1" id="Capa_1" xmlns="http://www.w3.org/2000/svg" xmlns:xlink="http://www.w3.org/1999/xlink" x="0px" y="0px"
	 viewBox="0 0 449.2 282.7" style="enable-background:new 0 0 449.2 282.7;" xml:space="preserve">
<style type="text/css">
	.st0{clip-path:url(#SVGID_00000084487549714626023500000008819355315546691768_);}
	.st1{clip-path:url(#SVGID_00000127022111528194531380000007707800175057331332_);}
	.st2{opacity:0.1;clip-path:url(#SVGID_00000075865303454195767750000013910577729755057580_);}
	.st3{fill:#111419;}
	.st4{fill:#5C564F;}
	.st5{fill:#FFFFFF;}
	.st6{fill:#211915;}
</style>
<g>
	<g>
		<g>
			<defs>
				<rect id="SVGID_1_" x="81.1" y="185.1" width="268" height="63.7"/>
			</defs>
			<clipPath id="SVGID_00000091007182843649014790000003434139094538000270_">
				<use xlink:href="#SVGID_1_"  style="overflow:visible;"/>
			</clipPath>
			<g style="clip-path:url(#SVGID_00000091007182843649014790000003434139094538000270_);">
				<g>
					<defs>
						<rect id="SVGID_00000064314204344510981470000010622575745516541624_" x="81.1" y="185.1" width="268" height="63.7"/>
					</defs>
					<clipPath id="SVGID_00000039838197271468026880000002999004465391887275_">
						<use xlink:href="#SVGID_00000064314204344510981470000010622575745516541624_"  style="overflow:visible;"/>
					</clipPath>
					<g style="clip-path:url(#SVGID_00000039838197271468026880000002999004465391887275_);">
						<g>
							<defs>
								<rect id="SVGID_00000106131770532364647100000012687471128688566937_" x="81.1" y="185.1" width="268" height="63.7"/>
							</defs>
							<clipPath id="SVGID_00000110451920702446675730000009207208910093104053_">
								<use xlink:href="#SVGID_00000106131770532364647100000012687471128688566937_"  style="overflow:visible;"/>
							</clipPath>
							<g style="opacity:0.1;clip-path:url(#SVGID_00000110451920702446675730000009207208910093104053_);">
								<path d="M110,232.7c-3.8,0.3,2,1.4-2.5,0.5C108.1,232.4,109.2,232.2,110,232.7"/>
								<path d="M240.9,221.3c-12.4,3.2-27.9-2.8-41.4-1.8c-1.5,0,0.7-2.2-2.8-2.1c-13.1,1.6-33.2-3-47.9-8.5l1.1-0.5
									c-2.8-1-6.7,0.3-9.7-0.8c0-0.4,1.1-0.4,0.6-1.1c-1.2,1.1-4.9-1.1-6.7-1.1c-0.7-1-0.3-1.8-0.9-3h-2.1
									c-4.9-0.6,0.6-1.2,3.1-2.6c3.3-0.6,6.6-1.5,9.8-2.7c-0.3,0.4-0.8,0.7-0.3,1c10.4-4.4,24.5-4.4,36.8-4.4
									c-0.5,0.5-1,1.4-0.3,2.1c0.7-1.5,4.4-1.8,7.8-1.9c1.4,1.7,5.8-1.1,9.6,0l-0.4,0.4c3-1.5,4.2,1.3,6.7-0.5l1.7,1.4
									c1.5-2.1,4,1.6,6.5,0.7v-0.4c2.3-0.3,3.3,0.9,5.4,0.8v0.3c4.9,0,7.5,1.7,7.6,0c1.5,1.6-4.7,0-2.4,2.4
									c16.3,0.8,32.4,3.3,48.1,7.4c1.6,1.1,2.7,1.6,2.9,2.4c2.5,0.5,5,0.8,7.5,0.8c-0.5,0,0.8,1.2,1.6,1.5c2.6,1.5,3.6-1,6.4,0.8
									c-1.4,0-1.9,0.4-1.8,1.2c3.3,0,6.6,0.6,9.6,1.9c-0.6,0-1.4,0-1.5,0.4c3.2,0.4,7.6,2.2,6.3,6.3c0.2-0.5,0.2-1,0-1.5
									c-3.7,1.4,0,2.9-4.4,3.5c1-0.6,0.5-0.9,0.6-1.3c-3.6,2.6-10.2,3-14,4.4c0.1-0.1,0.1-0.3,0-0.4c-4.4,1-8.8,1.1-13.5,2.6
									c-1.8,0,0.2-2.5-4.4-1.4c0.5,2-7.7,2-4.6,3.9c-4.3-0.1-8.6,0.3-12.9,1.2c1.7-1-2.2-2.2,1.1-2.8l-2.6-1c0.3-0.8,2.5,0,1.7-1
									c-2.5,0.7-5.2,1.1-7.8,1.3c-3.1,2.3-6.7,3.9-10.5,4.6c2.3-0.9-1.4-2.2,0-2.6l-6.8,4.4c-1.7,0-0.4-1.6-2.8-1.1
									c0,0.5-0.9,0.8-1.7,1.3s-7,0.5-7.6-1.5c-0.7-0.8,2.7-0.4,0.9-1.1c-3,0-3.2,0.6-6.3,0.5v-0.3c-2-0.4-6,0.6-3.9,1.8
									c1.4,0-0.5-1.2,1.6-0.6c-2.6,1.1-5.4,1.5-8.1,1c1.1-0.2,1-0.8,1.4-1.3c-4.3,1-8.7,1.7-13.1,1.9c0,0.9,1.8-1.7,2.5-1.1
									c-5.9-1.5-12.3,1.3-17-1c0.8,0,0.4,1.4,0.3,1.1c-2.8-0.3-2.6-1.7-4.4-1.3c0-0.8-2.4,0-4.4,0c-1.1,0.5-0.5-0.4,1.2-0.4
									c-6.5,0.8-13,0.5-19.3-0.9c0,0.6-3.9,1.6-5.3,1.4l0.7-1.2c-1.2-0.9-4.7-0.4-4.8-1.5c-3.2,1.2,11.6,0,7.5,0.7
									c-0.9-1.1-5.8,1.4-4.8,0c-2.8-0.3-5.7,0.8-8.3-0.7c0.7,0.3,2.5-1.5,0-1.7c-4-0.2-1.2,0.5-4.4,0.5l-2.1,0.3
									c-0.3,1.2-3.5-0.7-2.3,0.9c-0.3-1.1-5.9-0.2-5.2-2.2l0.8-1.5c-1.7,0-3.1,1.2-4.4,1.7c0,0-0.6-0.6-0.5-0.8
									c-0.7,2.4-4.1-0.9-6.5,0.5c-3.5-1.4-9.5-2.2-10.9-4.4c-3.2-0.8-6,1.3-11.4-5.9c1.8,2.6,2.9,2.8,3.4,2.6
									c-1.8-2.1-5.6-6.6-2.6-10.9c2.5-2.1,5.5-3.3,8.8-3.5c2.4-1.6,1.1-2.5,1-3.4c3.3,1.4,7.1-4.1,10.9-3.1
									c-0.8,0.7-3.5,2.5-1.1,2.3c3.1,1.4,4.4-3.2,8.8-3.2l-1.5-1.7c2.1,0.7,5.7-2.7,5.8-0.7c1.2-1.1,4.9-0.6,4-2.3
									c7,0,16.1-4.4,20.9-1.5c0.9-0.5,3.4-0.5,2.7-1.4c-1.8-0.8-2.1,1.1-2.8,0.5c0.6,0,1-0.5,1-1.1c2.2,0,3.9,0,2.1,1.9
									c4.8,0.5,4.4-4.1,10.4-4c0,0.8,0.3,1.1,2.1,0.7l3.1-1.8c3.9,0,2.4,1.6,2.6,2.9c2-0.5,4.4-0.7,5.4-1.8l2.6,1.5
									c-1.9-1.1,1.6-1,2.5-1.4l-0.9,0.4c0.4,0.6,2.8,0,3.9-0.3c-0.4-0.8-2.8-1-4.4-1.1c1-0.7,2.7-0.7,4-1.5
									c-0.4,1.4,3.4,0.7,5.1,0.7c1.7,0,2-1.3,2.6-1.3c0,0.7,3.1,0,1.7,1c-0.6,0.3-1.5-0.6-2.5,0c1.3,0.4,1.2,1.7,3.7,0.7
									s-0.7-2.6,3.1-2c-1,0.4-1.1,0.9-1.8,1.4l3.5,0.5v-1.2c0.4,0.3,0,0.4,0.4,0.5c1-1.3,5.2-0.7,6-2.1c1.8,0.1,3.6,0.4,5.3,0.8
									h-0.3c2.1,0.5,4.4,0.3,6.3-0.7v0.3c1.8,0,3.5-0.3,5.2-0.9c2.9,1,0.9,4.6,4.1,3.2c2.8,0,4.6-2.1,3.5-2.9
									c5.1,1.2,11.2-0.4,15.7,2.1c0.8-0.4,0.4-0.8,1.9-0.9c7.4,1.4,16,0.7,21.4,4.1c-2.2,0-0.4,1.2-0.4,1.9
									c1.9-0.8,1.9,1.5,2.8-0.3c0-1.1,0.3-1.6-1.7-2.4c4.6,0.1,9.2,1.1,13.4,2.9c-1.1-0.7,0-0.9,0.9-1c-0.7,1.7,2.5,2.6,5.1,2.5
									l0.6-1l1.4,1.4c1,0,1.5-2,3.7-0.4c0,0.5,0.1,0.9,0.4,1.3c3-0.7,6.2-0.5,9.1,0.7l1.8,2.1c1.2,0,3.4-0.3,1.4-1.3
									c4.4,2.1,7.4,3,8.5,4.7c10.5-0.3,20.8,2,30.1,6.9l-0.7,0.6c2.3,1.8,1.9-0.8,3.7,0.8c-1.3,0,1.3,2.7-1.3,2.3
									c2.9,2.7,6.1,1.4,9.9,6.7c1.5,0.2-3.2-3.5-1.5-3.3c0,1.4,3.5,0,2.2,10.3c-3.7,8.4-5,5.2-5.6,7.7c-2.3,0.4-1.2-1.4-0.7-2.5
									c-1.7,1.1-1.4,1.8-5.1,2.8c-3.9,0,10.5-8.1,3.8-7.6l-2.3,1.6c-2.5-0.6,4.4-4.4-0.7-2.4c-2,1.9-3.8,3.8-1.7,4.4
									c-4.4,0.9-1.8,4-6.7,4.4c-1.5-0.8,3.9-0.7,2.8-1.9c-2.5-1.1-4.4,1.2-6.7,1c2.4,0.4,0.6,2.2-0.8,2.6
									c-2.6-0.4,1.4-1.7-2.1-1.4c-0.5,1-3.6,2.1-0.7,2.4c-1,2.2-3.7,0-5.4,1.7c-1.4-1.3,3.2-3.8-0.8-4.1c0.8,1.3-4.4,2.5-2.2,4.4
									c-1.6-0.2-1.9-1.3-0.9-2.3c-2.3-0.6-4.9,3.3-6,0.6l-0.5,1.5c-0.7-0.4-1.8-0.6-3-1.2c-1.9,0.2-5.9,2.8-6,0.7
									c-0.6,0.3-5,0.9-3.1,2.1c2.9,0.5,3-1.6,4.9,0c-2.2-1.4-3.9,0.8-5.5,1.6l-0.4-0.8c-0.9,0.5-3.1,0.6-3.6,1.6
									c0.7-0.6,0-1.1-0.6-1.2l-0.8,1.4c-3.8,1.2-1.2-2.1-4.9-1.2l2.7-1.4c-0.6,0.3-2-0.7-3.8,0c-0.6,1.3-1.7,2.8-2.2,3.8
									c-2.1,0.8-1.1-1.2-3.1,0.3l2.6-1.7c0.4-0.4-2.1-1.7-4.9-1.4c-1.8,0.6-4.4,2.6-1.5,2.9c-1.4,0.2-3.5-0.3-2.5-1.3
									c-3.2,0.8,0.6,1.2-2.1,2.2c-1.2-0.6-4.9-1.4-7.1-2.3l2.7-2.3h-1.9c2.3-1.8-1.4-1.1,0-2.9c-1.5,0.1-3,0.5-4.4,1.1
									c4.1,2.4-4.1,3.9-2.8,6.3c-5.4,1-3.6-5.7-9.1-1.7c1,0.6-1.6,2.5,1.8,1.7c-3.3,0-2.2,2.5-6.1,1.6c2.8-1.1-3.2-2.4,0.9-3.9
									c-0.2,0.8,2.4,0.6,3,0.3c-1.4-0.9,0-2.5-3.2-2.4c-2.1,0.3-4.9,0.4-4.4,1.7c0.5,1.3,3.1-0.3,1.8,1.2c-4.1,0.6-4.8-1.5-6.5,1
									c2.6-0.2,3.3,1.2,3.2,2.1l-3,0.6l0.6-0.9c-4.9-0.6-1.4,1.7-6.1,1.5l-2.2-1.8c1.1-1.6,6.8,0.6,6-2c-3.1,0-4,1.3-6.9,0.7
									l2.1-0.5c-1.1,0-2.2-3.5-6.5-1.4c-2.2,0.8-0.6,0.9-0.7,1.8c-4.9,0.4-6.3,1.4-9.5,1.5c0.6-1.9-5.6,0-2.1-2.1
									c3.4,1.1,7.2,0.8,10.4-0.9c-1.8-2.2,3.9,0.3,4.9-2c-3.9,0-3.8-2.2-4.4-3.6c-1,0-1.9,0.3-2.8,0.7c-0.5,1.4,1,1.3,1.1,2.7
									c-3.7-0.4-7.5,0.2-10.9,1.8c-1.5-0.7-1-2,0.7-2.1c-5.2,0.4-10.4,0.4-15.6,0c3.2,2.2-5.5,0.5-3.3,2.3
									c2.6,0.5,4.9,2.1,3.4,3.1c-1.6,0,0-1-0.6-1.4c-2.1,1.2-3.2-1.9-5.3,0c4.8-0.7,1-2.7,1.8-4.4c-3.4,1,0-1.2-3.2-1.2
									c-3.7,1-7.5,1.6-11.3,2c-4.7-1.7-12,0-16.2,0c-2.2-0.9-0.7-2.8-3.1-3.2c-2.4-0.4,2.1,2.1-2.1,1.1l0.4-0.4
									c-1.3,0.4-7.6-1.5-8.8,1.3l1.4-2.1c-0.8,0-1.5,0.3-2.1,0.4c0-0.7-0.9-1.3,0.4-1.8c-2.5-1.5-5.4,0-8.2,0l1.8,1.3
									c-4.2,0.3-8.4,0.3-12.6,0V237l-2.8,0.7c0.7-1.1-1.8-2-3.3-1.1l7.3-2.8c2,0.7-2.2,1.4-1,2.6c1.9,1.1,4.3,0.9,6.1-0.3
									c-1-0.2-2.1,0-3,0.5c-0.5-1.7,2-1.6,3.2-2.7c-0.9,0-2.1-0.5-2.3,0c2-0.8,4.1-1,6.2-0.8c-1.9,0.6,1,1.1,0.3,1.5
									c0.3-1.5,2.9-1.9,6.4-1.4c2.4,1.8,6.5-1,10.5-0.4c-1.8,1.6-3.9,2.7-6.3,3.2c2.5,0.8,2.8,0,5.3,0.8c1.4-1.7,3.3-3,5.5-3.5
									v1.1c3-0.5,3-2.2,6.8-1.8c6.5,0.7,13.1,0.7,18.2,0.9v1.1c2.8-2.3,9.2-0.8,13.1-1.8c6.3,1.1,13.7-1,17,0.9
									c11.2-0.9,20.9-1.8,32.5-1.8l-1.9,1.7c2.1-1.3,1.4,0.9,3.4,0.6c-2.4-1.2,2.8-1.8,4.1-2.8c5.4,0.6,10.9-0.3,15.8-2.5l0.3,1.1
									c4.4-2.6,10-1.4,15.7-1.8c1,0.8,2.3,1.1,3.6,0.9c2.7-1.8,5.6-3.2,8.8-4.1c4.1-0.6,8.2-0.8,12.3-0.7c6.1-2,12.5-3.3,18.9-4
									c5.8,0,16.6-5.1,8.8,5.8c0.4-0.3,0.8-0.5,1-1c-9.5-2.7-24.4-9.5-35-10.8l1.6-1.9c-3-1.6-7.6-1.3-7.1,0.4
									c-3.1-1.5-8.4-1-10-3.2c-3.3-1.2-4.4,0-7.2-0.3c-5-1.8-10.2-2.9-15.5-3.3l1.6,0.4c0.8-0.4,1-1.3-0.5-1.7
									c-2.5,0.2-8.8-2.1-6.7,1c-6.6-2.7-16-1.3-22.4-4c0.5,0.8-1.2,0.7-1.9,1.2c-5.9-0.6-12.1-2.6-16.7-1.3
									c-0.9-0.4,1.5-1.2-0.9-1.4c-1.4,0,0,1-1.8,1.3c-9.6,1.4-19.9-0.9-28.8,0c-15.7,2.4-32.2,3.4-46.9,6.3v-0.5
									c-4.4,2.9-12,0.3-15.2,4.2c-1.3,0-4.4,0.9-3.8-0.3c-3.4,2.5-11.2,1.5-15.9,5.3c0.5-0.1,0.9-0.4,1.3-0.7
									c-2.8,0.5-5.4,1.3-8,2.4c-0.7,0.4-0.9,1.1-2,0.7c-1.1-2.4-1.5-3.9-3.9-4.4c-1.2,0.4,2.7-0.5,2.1-2.1
									c0.2,1.4-2.3,2.5-2.8,2.1c4.8-3.2,5.7-5.4,6.3-2.3c1.1,0.4,1.2-1,0.5-1.1c10.9,4.7,26.7,4.8,40.6,5.9c10,2.6,0,4.4,8.4,3.3
									c0.6,0.6,0.6-0.9,0.7-0.4c3.2-0.4,4.6,3.3,6.9,2.1c-0.7-1.7,1.5-0.7,1.7-1.7c6.2,1.6,7.4,3.1,12.4,2.2l-0.4,0.8
									c6-1.9,12.6-0.3,17.5-2.8c30.9,2.3,61.9,0.2,92.2-6c6.9-1,16.7-2.7,21.2-3.5c0.8,3.2,2.3,6.2,4.4,8.8c1.5,0-2.4,0.9-5.3,4.9
									c-2.8,4.7-1.9,0.7-3.9,1.1c-2.8-1.2-6.2-2.3-9.7-3.4c-14-4.1-29-7.3-44.1-10.6c-4.6-2.8-10-4.1-15.4-3.6
									c0.4-0.3,0.9-0.4,0.4-0.7c-0.7,1.8-5.6-0.6-6.6,1.1c-11.1-1.5-22.3-2.5-33.5-2.7c1.8,0,2.8-1.5,0.6-1.5l-2.3,1.1l-0.4-0.5
									c-1.5,0.2-3.2,1.1-1.6,1.7c-14.3,0.4-29.1,0.4-40.4,3.4c-1.3,0.3-2.5,0.8-3.6,1.3h-0.4h-0.4l2.8-16.5l0.4,0.5
									c0.2,0.3,0.4,0.5,0.6,0.7c0,0,1.6,1.1,3.8,2.5c-0.7-0.6,1,0.5,2.5,0.7c6.8,1.9,13.7,3.4,20.7,4.4c8,1.7,16.1,2.8,24.2,3.2
									c10.9,2.7,21.5,5,32.1,6.7c5.3,0.9,10.6,1.6,16.1,2l8.1,0.5c1.3,0,2.8,0,4,0h1.9c0.6,0,0,0-0.4,0l-0.6,0.2
									c0.7,2.4,1.7,4.8,3,6.9c-1.2-2-2.1-4.1-2.7-6.3c0.5,0,1.6,0.8,0,1.4c-2.9,1.9-6.2,2.8-9.7,2.8"/>
								<path d="M114.5,232.7c0.8,0.9,3.4,1.5,1.3,2.6C115.5,234.4,114.2,233.5,114.5,232.7"/>
								<path d="M184.7,243.3c0-0.3,1,0.4,1.2,0.5c-0.9,0-1.7,0.8-2.4,0.4C184.4,244.1,184.3,243.7,184.7,243.3"/>
								<path d="M202.6,243.9c-0.3,0.8-4.1,1.4-6.4,1.5L202.6,243.9z"/>
								<path d="M219.6,247.2c1.5,0.7,1.1,1-0.9,1C218.7,247.8,219.2,247.5,219.6,247.2"/>
								<path d="M220.7,245.3c1-0.1,2,0.2,2.8,0.9C223.5,245.5,220.3,246.6,220.7,245.3"/>
								<path d="M257.7,246.5c0.6,0,3.2-1,4,0C260.9,246,256.8,247.9,257.7,246.5"/>
								<path d="M274.9,243.5c0.5,0.1,1,0,1.4-0.2c1.1,0.3,0,1-0.8,1.1L274.9,243.5z"/>
								<polygon points="106.4,199.2 108.1,198.4 108.1,199.2 								"/>
								<path d="M194.2,236.7c1.9-0.4,1.2,0.9,1.5,1C194.1,237.7,196.4,236.8,194.2,236.7"/>
								<polygon points="267.4,229.7 266.9,229.7 266.8,228.1 								"/>
							</g>
						</g>
					</g>
				</g>
			</g>
		</g>
	</g>
	<path class="st3" d="M146.8,116c-9.5-10.8-15.9-21.9-26.3-30.6c-2.5-1.8-6-1.7-8.4,0.3c-14,13.3-28.7,25.9-44,37.6l-2.6-3
		c-4-4.4-11.3,1.4-7.3,5.9c1.9,2.1,3.8,4.4,5.6,6.3c1.6,2,4.5,2.3,6.6,0.7c16.1-11.9,42.2-37.8,45.9-38.8c3.7-1,15.4,20.2,27,30.6
		c3.9,3.4,8.8-2.7,3.5-8.8"/>
	<path class="st3" d="M386.4,92.2c-0.6,2.2-1.2,4.4-1.9,6.7c-7.8-7.9-15.1-16.2-21.9-24.9c-7.5-8.3-14.5-17-21-26
		c-1.9-2.8-5.8-3.5-8.6-1.6c-0.1,0-0.1,0.1-0.2,0.1C321,57.4,310.1,69.3,300.2,82c-4,4.4,3.5,10.2,7.5,5.6
		c8.3-9.6,24.6-31,27.2-31.5c2.6-0.5,15.3,17.8,23,26.7c8.8,9.8,15.6,20,26.3,27.9c2.1,1.5,5.1,1,6.6-1.1c0.2-0.3,0.4-0.6,0.5-1
		c1.5-4.4,2.8-8.5,3.9-13.1c1.5-5.8-7.1-9.4-8.8-3.5 M160.8,84.7c-4-4.6-24.1-43.5-35.5-40.6c-9.2,2.4-16.8,11.3-23.5,17.5
		C91.7,71.2,79.3,77,67.6,84.2c-2-2.1-4.3-4-6.6-5.7c-2.2-1.4-5.1-0.7-6.5,1.5c-1.2,2-0.8,4.6,1,6.1c2.9,2,5.4,4.4,7.7,7.1
		c1.6,2,4.5,2.3,6.6,0.7c10.5-7,22.6-11.9,32.4-19.9c7.1-5.9,13.1-12.8,20.7-18.3c10.4-7.7,25.6,30.9,32.3,36.5
		C159.8,96.1,164.6,89.3,160.8,84.7"/>
	<path class="st3" d="M374.6,137.1c-1.8,1.8-3.5,3.5-5.2,5.3c-9.4-14.5-15-31.4-27.3-44c-3.2-3.4-8.1-7.2-13.1-5.4
		c-7.9,2.9-16.7,12-22.6,17.9c-4.4,4.4,1.5,11.7,5.8,7.4s10.4-8.3,15.3-13.1c7.3-7,16.3,10.1,19.3,15.3
		c6.2,10.8,10.9,22.2,18.3,32.3c1.6,2,4.5,2.4,6.6,0.8c0.3-0.2,0.6-0.5,0.8-0.8c2.4-3,4.9-5.8,7.7-8.4
		C384.7,140.1,378.7,132.8,374.6,137.1"/>
	<path class="st4" d="M231.2,43.3c-67-4-84.1,43.8-87.3,73.4c-1,9.2,1.8,48.4,33.6,68.1c19.1,11.9,69,23,96.3,0.7
		c19.3-15.8,34.4-37.3,37.2-62.2c5-46-31.6-74.7-71.1-79.1L231.2,43.3z"/>
	<path class="st3" d="M168.1,168.5c-18.8,0.2-36.8,8.8-54.2,14.9c-2,0.9-3.1,3-2.8,5.1c2.2,8,5.9,15.3,8.8,23
		c-4.8,3.1-11.9,8.2-8.4,11.1c4.9,4,11.7-2.2,15.9-4.6c2.3-1.1,3.3-3.9,2.4-6.3c-2.2-7.3-5.7-14-8.2-21.1
		c14.6-5.5,29.9-12.6,45.5-12.7C173,177.9,174.1,168.4,168.1,168.5"/>
	<path class="st3" d="M358.6,194.4l-6.7,3.9c-2.6-7.4-8.4-43.1-10.9-55.9c-1.4-7.4-4.9-9.7-7.3-9.2c-14.4,2.8-28,8.9-39.8,17.8
		c-4.9,3.6,1,11.1,5.8,7.4c9.1-6.9,19.6-11.9,30.6-14.7c2,11.1,9.8,54.2,14.8,63.5c1,2.4,3.8,3.4,6.2,2.4c0,0,0,0,0,0l10.7-6.4
		c5.1-3.1,1.4-11.8-3.8-8.8 M148.9,145.7c-5.3-3.3-10.4-6.9-15.1-11c-4-3.1-9.5-8.8-15-8.8c-8.2,0.4-11.7,7.4-14.6,14.2
		c-4.9,12-10.8,23.6-17.5,34.7c-2.3-1.4-4.7-2.5-7.2-3.4c-1.3-1.4-3.3-1.8-5-1.1l-1.2,0.5c-2.4,1.2-3.3,4.1-2.2,6.5
		c0.7,1.4,2,2.4,3.5,2.6c3.9,1.1,7.5,2.8,10.8,5c2.1,1.5,5,1.1,6.5-1c6.5-10.4,12.3-21.2,17.5-32.3c2.4-4.7,3.7-9.8,6.4-14.3
		c2.8-4.5,7.6,1.1,10.3,3.2c4.9,3.7,22.1,20.3,26.8,12.1c2.1-3.6-0.5-5.5-4.1-7.3"/>
	<path class="st3" d="M187.6,45.7c1.5,3.9,4.4,7.2,8.1,9.3c1.8,0.9,2.9-2,1.1-2.9c-2.9-1.7-5.2-4.4-6.4-7.6
		c-0.5-0.7-1.4-0.9-2.2-0.5C187.7,44.4,187.4,45.1,187.6,45.7 M237.6,34.9c-1,3.5-1.4,7-2.4,10.5c-0.5,1.9,2.4,3.2,2.9,1.2
		c1-3.5,1.4-7.1,2.4-10.6C241.1,34.1,238.2,32.9,237.6,34.9 M320.2,234c-2.6-0.3-5.2-0.5-7.8-0.6c4.7-11.3,9.5-22.4,15.2-33.3
		c2.1-3.9,5.9-15.4-0.2-17.9c-15.6-6.6-32.6-9.5-49.6-8.2c-6,0.6-4.4,9.9,1.5,9.4c13.7-1.1,27.4,0.9,40.2,5.8l1.3,0.6
		c-1.1,4.7-2.9,9.3-5.4,13.4c-5.4,10.9-10.2,22-14.4,33.4c-0.9,2.5,0.3,5.3,2.8,6.2c0.7,0.3,1.5,0.4,2.3,0.3
		c4.4-0.3,8.8-0.2,13.1,0.4c2.6,0.3,4.9-1.6,5.2-4.2C324.7,236.6,322.8,234.3,320.2,234"/>
	<path class="st3" d="M265.2,178.3c0.3,5.3,3.3,9.6,4.7,14.5c0.5,1.9,3.6,1.4,3.1-0.5c-1.4-4.9-4.4-9.4-4.7-14.5
		C268.3,175.7,265.1,176.2,265.2,178.3 M165.9,156.7c-3.8,2.7-7.8,5-12,7c-1.8,0.8-0.7,3.8,1.2,2.9c4.5-2.1,8.7-4.5,12.7-7.4
		C169.5,158.1,167.5,155.6,165.9,156.7 M168.4,78c2.5,1.7,4.7,3.8,6.6,6.2c1.2,1.6,3.7-0.4,2.4-2c-2-2.6-4.4-4.9-7.1-6.8
		C168.6,74.3,166.7,76.8,168.4,78 M287.7,134.9c2.7,2.4,6.1,4,9.7,4.4c2,0.3,2.3-2.9,0.4-3.2c-3.1-0.4-5.9-1.8-8.2-3.9
		c-1.5-1.4-3.4,1.2-1.9,2.5 M207.2,67.4c1.5,3.7,2.5,7.5,3,11.4c0,2,3.2,1.5,3.1-0.5c-0.5-4.2-1.6-8.3-3.2-12.2
		C209.4,64.2,206.5,65.5,207.2,67.4 M248.9,64.8c-2,2.4-3.7,5-5.2,7.7c-1.1,1.7,1.4,3.6,2.5,1.9c1.5-2.7,3.3-5.2,5.2-7.7
		C252.7,65.2,250.2,63.3,248.9,64.8 M277.3,77.2c-3.1,2.6-5.1,6.3-8.5,8.8c-1.7,1.1,0.3,3.6,2,2.5c3-2.8,5.8-5.7,8.4-8.8
		C280.7,78.3,278.8,75.8,277.3,77.2 M295.1,55c-2.7,3.2-6,5.9-9.7,7.9c-1.8,0.9-0.5,3.9,1.3,2.9c4.2-2.2,7.9-5.2,10.9-8.8
		c1.3-1.6-1.2-3.5-2.5-1.9"/>
	<path class="st3" d="M239.7,208.9c-1.3,8.4-3.6,16.6-7,24.5c17.5-16,20-41.3,19.8-44.8c0-2.2-0.7-6.6-0.7-6.6l-11.7,2.8
		C240.6,192.8,240.4,200.9,239.7,208.9 M155.4,116.3L155.4,116.3l0.5,1.1l0,0l-0.7,1.4c0,0-0.4,0,0,0h0.8h2.3c1.4,0,3,0,4.4-0.4
		c1.4-0.4,1.8-3.4,0-3.2c-1.8,0.2-4.2,0.3-6.3,0.4c-0.7,0.1-1.5,0.2-2.2,0.3c-0.9,0.3-1.3,1.2-1.1,2c0.1,0.3,0.2,0.5,0.5,0.7
		c1.6,1.3,3.7-1.1,2.1-2.3 M299.7,110.1c-2.4,2-4.4,4.4-7,6.2c-1.5,1.3,0.4,3.8,2,2.5c2.4-2,4.4-4.4,7-6.2
		C303.2,111.2,301.3,108.8,299.7,110.1 M295.1,164.4c3.9,1.8,7.9,3.3,12,4.4c1.9,0.5,3.1-2.4,1.1-2.9c-4.1-1.1-8.1-2.6-12-4.4
		C294.4,160.6,293.3,163.6,295.1,164.4"/>
	<path class="st3" d="M187.6,177.2c-3,4.4-5.4,29.6,5.5,51.7c-1.1-15.8-0.6-35,7.5-47.4L187.6,177.2z"/>
	<path class="st3" d="M267,119.6c-6-10.8-15.6-19.1-27.2-23.5c-13.3-5.1-28.1-4.7-41.1,1.2c-13.9,6.8-23.9,19.6-27.3,34.7
		c-3.3,11.5-1.9,23.8,4,34.2c6.6,13.1,25.1,17.8,25.1,17.8c12.9,3,26.2,4.1,39.4,3.3c6.7-1.1,13.2-3.6,18.8-7.5
		c3.6-2.9,6.5-6.4,8.8-10.4c3.1-6.3,5.1-13.1,5.9-20.1c0.5-10.3-1.7-20.6-6.5-29.7"/>
	<path class="st5" d="M197.1,109.7c-9.8-4.3-21.2,0.2-25.5,10.1c-0.3,0.7-0.5,1.3-0.7,2c-4.4,14,5.2,27.8,20.1,25.6
		c18.5-2.4,22.9-31.3,6-37.6 M239.3,122.3c-4.7,6.8-4.7,15.8,0,22.5c6.3,8.5,18.3,10.4,26.9,4.1c2.1-1.6,3.9-3.6,5.3-5.9
		c4.4-6.6,6-25.1-11.4-29.2C252.1,111.7,243.6,115.1,239.3,122.3"/>
	<path class="st6" d="M254.5,131.7c-5.5,0-3.4,7.8,1,6c1.6-0.7,2.3-2.6,1.5-4.2C256.6,132.5,255.6,131.8,254.5,131.7 M188.5,124.5
		c-1.6,0.6-2.4,2.4-1.8,4c0.4,1,1.3,1.7,2.3,1.9C194.8,130.4,193.1,122.6,188.5,124.5"/>
</g>
</svg>
