<?xml version="1.0" encoding="utf-8"?>
<!-- Generator: Adobe Illustrator 26.2.1, SVG Export Plug-In . SVG Version: 6.00 Build 0)  -->
<svg version="1.1" id="Capa_1" xmlns="http://www.w3.org/2000/svg" xmlns:xlink="http://www.w3.org/1999/xlink" x="0px" y="0px"
	 viewBox="0 0 320.8 392.2" style="enable-background:new 0 0 320.8 392.2;" xml:space="preserve">
<style type="text/css">
	.st0{fill:#91C030;}
	.st1{fill:#A85218;}
	.st2{fill:#FFDD00;}
	.st3{fill:#1A894F;}
	.st4{fill:none;stroke:#2DAB66;stroke-linecap:round;}
	.st5{fill:#1D1D1B;}
	.st6{fill:#814115;}
	.st7{fill:#DA791B;}
	.st8{fill:#F29100;}
	.st9{fill:#FFFFFF;}
	.st10{fill:none;stroke:#1D1D1B;stroke-width:0.7;stroke-linecap:round;stroke-linejoin:round;stroke-miterlimit:10;}
	.st11{fill:none;stroke:#DA791B;stroke-width:0.649;stroke-linecap:round;}
	.st12{fill:#0D181C;}
	.st13{clip-path:url(#SVGID_00000115510811090953127250000011868480454411660954_);fill:#FFDD00;}
	.st14{fill:none;stroke:#1D1D1B;stroke-width:0.7;stroke-linecap:round;stroke-linejoin:round;}
	.st15{clip-path:url(#SVGID_00000095340919468596719080000009981158642616446890_);}
	.st16{clip-path:url(#SVGID_00000057863088485076146240000008156696701125977755_);}
	.st17{clip-path:url(#SVGID_00000052819726888128963070000014061814619176420739_);fill:#D9D7CB;}
	.st18{clip-path:url(#SVGID_00000054255347391212127050000011780707308716458674_);}
	.st19{clip-path:url(#SVGID_00000089532181711064646490000001508108729828099227_);}
	.st20{clip-path:url(#SVGID_00000098190388052628939230000011984099369990455171_);fill:#D9D7CB;}
	.st21{fill:#2DAB66;}
</style>
<path class="st0" d="M163.3,10.3c-14.3-0.6-41.3,3.3-64.3,21c-27.1,20.9-37.5,41.5-44.4,76.8c-6.9,35.4,7.1,132.7,111,132.7
	c50.9,0,95.9-15.1,107-69.9c11.1-54.8,1.3-84.1-11.3-105.1C251.4,49.3,226.1,12.7,163.3,10.3"/>
<path class="st1" d="M234.2,186.3l-2.6-6c0,0-6.7,1.8-11.5,3.5c-7.4,2.6-12.7,5.6-15,6.8c-3.2,1.7-10.1,3.3-10,0.5
	c0.1-2.8,0-7.5-0.7-9.8l-4.1,1.6c0,0-1.5,4.5-1.9,8.2c-0.4,4.6-0.2,5.9-0.2,5.9s-6.1,2.1-9.6,2.8c-3.1,0.6-4.2,0.1-4.2-6.4
	c-0.1-9-2.1-26.4-0.5-32.2c1.5-5.8,11-9.6,15.6-11.3c1.6-0.6,11.7-4.4,14.8-5.3c5.4,3.4,17.3,10.8,17.3,10.8l2.4-6.2
	c0,0-6.6-2.2-11.2-6.2c-0.4-0.4-0.9-0.7-1.3-1c0.3-0.1,0.5-0.2,0.8-0.3c5.3-2.5,34.3-10.2,34.3-10.2l-0.5-7c0,0-25.5,6.4-34.4,8.7
	c-2.5,0.7-19.1,3.7-19.1,3.7s4.4-10.6,4.4-12c0-1.4,5.6-8.3,5.6-8.3l-4-1.9l-6.3,9.2h-7.7l-1.5,2.3l6.2,2.7l-3.5,8.1l-13,4.8
	c0,0,1-27.1,2.1-36l1-8.8c0,0,4.7-2.6,8.3-4.1c3.6-1.5,8-3.7,8-3.7l-0.1-4.8l-9.6,2.5c0,0,4.6-5.6,8.7-10.8c0,0,19.3,0.8,24.1-0.4
	c1.1-0.3,1.9-4.5,0.8-4.4c-5.9,0.2-21.4,0.4-21.4,0.4c1.5-2,2.7-3.6,3.1-4.3c1.5-2.9,0.3-2.8,0.3-2.8l-3.6-1.2l-18,20.5
	c0,0,0.5-19,1-22.4c0.5-3.4,10.9-6.2,10.9-6.2l-1.7-3.8l-4.3,1.1c-4.6,1.6-5.2,2-6.9,1.7c-1.7-0.3-8.7-17.2-10.4-19.8
	c-2.6-4-5.9-9.1-5.9-9.1c-5.1,2.6-5.3,2.4-2.3,7c3,4.6,5.3,7.7,5.3,7.7l-12.6-0.9l-0.3,4.2c0,0,12.1,1.2,14,1.7
	c0,0,3.5,8.9,3.9,12.6c0,6.9-2.7,20.8-4.9,22.6c-2.2,1.8-6.1,0.9-6.1,0.9l4.5-10h-5.3l-4.6,9.2c0,0-21.4-8.3-25.2-9.9
	c-3.2-1.3-5.9,4.8-5.9,4.8s9.1,3.8,13.2,5.1c4.1,1.3,14.4,5,19,7c4.6,2,10.4,5.7,10.4,7.8c0,2.1-1.9,19.4-3.5,35.8
	c-7.3-1.8-19-5.5-20.8-6.6c-2.2-1.3,0-19.4,0-19.4h-3.7l-3.4,17.7c0,0-9.6-2-13.5-2.7c-4.2-0.7-12.2-2.3-12.2-2.3l-16.1-9
	c0,0-2.5,1.7-2.2,3.5c0.3,1.8,14.9,9.5,14.9,9.5v9.7l-10.9,1.6l1.5,3.2h9.4v9.7l4.4,1.6c1-1.6,0.7-16,4.1-17.6
	c3.3-1.6,5.6,0.9,15.9,3.7c8.1,2.2,22.2,7.6,31.3,10.4c-0.6,6-1.1,10.8-1.2,12.9c-0.6,8.2-0.2,24.8-0.2,24.8s-4.8-2.9-9.6-5.9
	c-0.5-4.5-1.7-14.4-2.1-17.2c-0.6-3.7-1.3-6.9-1.3-6.9s-2-0.5-3.1,0c-1.1,0.5,0,3.9,0,3.9v16.1c-0.2-0.1-0.4-0.3-0.6-0.4
	c-5.5-3.5-13.8-8.4-13.8-8.4l-2.1,3.4l8.2,7.7c0,0-1.5,3.7-3.1,4.9l-1.5,1.2l3.1,3.7c0,0,3.5-3,4.9-4.9l1.3-1.8l19,16.7L150.7,346
	h23.7c0,0-0.5-16.2-0.5-31.6c0-15.3-2.6-99.9,0.5-102.1c3.1-2.2,9.5-3.4,16.8-6.8c5.9-2.7,10.7-4.5,16.7-7.2
	c1.6,0.4,4.7,0.7,7.8,1.7c2.7,0.9,5.1,1,5.7,1.2l2.3-4.1l-9.1-2c0.8-0.4,1.5-0.8,2.2-1.2C223.9,190,234.2,186.3,234.2,186.3"/>
<path class="st2" d="M131.9,187.1c1.9,1.8,4.8,3.9,4.2,10.1c-0.8,8.7-7.5,9-8.2,9.4c-1.2,2.1-3.8,1.4-4-0.6
	c-0.1-1.3-5.6-1.2-4.5-9.4c1.2-8.6,8.1-8.4,8.9-10.1C129.2,184.8,131.9,185.6,131.9,187.1"/>
<path class="st2" d="M152.4,45.6c2,1.7,5.1,3.6,4.8,9.8c-0.3,8.8-6.9,9.4-7.6,9.9c-1,2.2-3.7,1.6-4-0.4c-0.2-1.3-5.7-0.9-5-9.1
	c0.7-8.6,7.6-8.8,8.3-10.6C149.5,43.4,152.2,44,152.4,45.6"/>
<path class="st2" d="M85.3,158.7c-1.9-1.7-5-3.7-4.7-9.8c0.4-8.8,7-9.3,7.7-9.8c1-2.2,3.7-1.6,4,0.4c0.2,1.3,5.7,1,4.9,9.1
	c-0.8,8.6-7.7,8.8-8.4,10.5C88.2,160.9,85.4,160.2,85.3,158.7"/>
<path class="st2" d="M236.7,157.2c-2.5-0.6-6.2-0.8-8.8-6.4c-3.8-7.9,1.7-11.5,2.1-12.3c-0.1-2.4,2.5-3.2,3.7-1.6
	c0.8,1.1,5.4-1.9,8.7,5.7c3.4,8-2.6,11.4-2.4,13.2C240.2,157.7,237.5,158.5,236.7,157.2"/>
<path class="st2" d="M182.5,176.4c-1.9-1.7-5-3.7-4.7-9.8c0.4-8.8,7-9.3,7.7-9.8c1-2.2,3.7-1.6,4,0.4c0.2,1.3,5.7,1,4.9,9.1
	c-0.8,8.6-7.7,8.8-8.4,10.5C185.4,178.5,182.7,177.9,182.5,176.4"/>
<path class="st2" d="M120.7,101.3c-1.9-1.7-5-3.7-4.7-9.8c0.4-8.8,7-9.3,7.7-9.8c1-2.2,3.7-1.6,4,0.4c0.2,1.3,5.7,1,4.9,9.1
	c-0.8,8.6-7.7,8.8-8.4,10.5C123.5,103.4,120.8,102.8,120.7,101.3"/>
<path class="st2" d="M188.6,94.1c2.3,1.2,5.7,2.5,6.8,8.5c1.6,8.6-4.7,10.6-5.3,11.3c-0.5,2.3-3.3,2.4-4,0.5
	c-0.5-1.2-5.7,0.3-6.8-7.8c-1.2-8.6,5.5-10.3,5.8-12.1C185.3,92.7,188.1,92.7,188.6,94.1"/>
<path class="st2" d="M138.7,158.7c1.9-1.7,5-3.7,4.7-9.8c-0.4-8.8-7-9.3-7.7-9.8c-1-2.2-3.8-1.6-4,0.4c-0.2,1.3-5.7,1-4.9,9.1
	c0.8,8.6,7.7,8.8,8.4,10.5C135.8,160.9,138.5,160.2,138.7,158.7"/>
<path class="st2" d="M238.3,209.7c1.9-1.7,5-3.7,4.7-9.8c-0.4-8.8-7-9.3-7.7-9.8c-1-2.2-3.7-1.6-4,0.4c-0.2,1.3-5.7,1-4.9,9.1
	c0.8,8.6,7.7,8.8,8.4,10.5C235.4,211.8,238.2,211.2,238.3,209.7"/>
<path class="st2" d="M220.2,98.4c1.9-1.7,5-3.7,4.7-9.8c-0.4-8.8-7-9.3-7.7-9.8c-1-2.2-3.7-1.6-4,0.4c-0.2,1.3-5.7,1-4.9,9.1
	c0.8,8.6,7.7,8.8,8.4,10.5C217.3,100.5,220.1,99.9,220.2,98.4"/>
<path class="st3" d="M140.9,364.2c-2.3,0-9.2-0.8-9.2-0.8c-6.1-34.8-6-34.3-6.9-43c-1.4-14.9,3.2-30.5,3.2-30.5s-0.4,28.7,1.1,36.8
	c1.5,8.1,2.8,8.4,2.8,8.4s0.2-11.6,1.6-20c1.7-10.6,7-19.1,7-19.1s-2.7,8.4-3.8,19.3c-1.3,12.9,2.4,19.8,2.4,19.8s3-13.9,5.8-22.3
	c3.6-11,11.3-21.1,11.3-21.1s-6.8,17-8.5,26.1c-1.7,9.1-1.5,20-1.5,20s5.9-18.4,7.9-24.9c2.8-9.2,8.7-14.9,8.7-14.9
	s-6.4,18.9-7.4,26.7c-2.3,17.5,0.8,38.7,0.8,38.7S152.6,364.2,140.9,364.2"/>
<path class="st3" d="M174,371.5c-2.4-0.5-9.4-2.2-9.4-2.2s16.1-32.8,19.9-39.2c6.5-11.1,17.5-19.6,17.5-19.6s-14.7,19.7-17.7,26.2
	c-3,6.4-2.3,7.2-2.3,7.2s5.9-8,11.1-13.1c6.5-6.5,14.4-9.8,14.4-9.8s-6.1,4.5-12.3,11.5c-7.4,8.3-8.3,15-8.3,15s9.1-8.1,15.1-12.6
	c8-5.9,18.4-9,18.4-9s-13.2,8.4-18.9,13.9c-5.7,5.5-11,13.1-11,13.1s13.3-9.8,17.9-13.4c6.5-5,13.5-6,13.5-6s-13.9,10-18.5,14.8
	c-10.3,11-19.2,25-19.2,25S179.2,372.7,174,371.5"/>
<path class="st3" d="M162,367.8c-5.6-0.9-11.2-2.5-11.2-2.5s2.9-17.8,4.7-28.2c0.8-4.9,2.2-11.4,5.1-19.4
	c3.6-10.2,10.2-17.6,10.2-17.6s-4.2,7.8-7.2,18.3c-3.6,12.5-1.2,19.9-1.2,19.9s5.4-13.1,9.6-20.9c5.5-10.2,14.8-18.7,14.8-18.7
	s-9.7,15.5-13,24.2c-3.3,8.7-5,19.4-5,19.4s9-17,12.2-23.1c4.4-8.5,11.2-13.1,11.2-13.1s-9.7,17.5-12,24.9
	c-5.3,16.8-6.3,38.1-6.3,38.1S170.1,369.1,162,367.8"/>
<line class="st4" x1="289.6" y1="353.3" x2="288.9" y2="345.6"/>
<line class="st4" x1="284.9" y1="345.4" x2="286.3" y2="353.1"/>
<line class="st4" x1="282.5" y1="345.7" x2="282.7" y2="354.6"/>
<line class="st4" x1="279" y1="345" x2="279.8" y2="354.5"/>
<line class="st4" x1="276.4" y1="345.7" x2="277.1" y2="352.9"/>
<line class="st4" x1="274" y1="353.3" x2="273.4" y2="345.6"/>
<line class="st4" x1="269.3" y1="353.2" x2="270.8" y2="345.4"/>
<line class="st4" x1="267" y1="353.9" x2="267.1" y2="345"/>
<line class="st4" x1="263.4" y1="354.6" x2="264.2" y2="345.1"/>
<line class="st4" x1="260.8" y1="352.8" x2="261.5" y2="345.7"/>
<line class="st4" x1="258.5" y1="353.3" x2="257.8" y2="345.6"/>
<line class="st4" x1="243.7" y1="353.2" x2="242.2" y2="345.4"/>
<line class="st4" x1="246.1" y1="353.9" x2="245.9" y2="345"/>
<line class="st4" x1="249.6" y1="354.6" x2="248.8" y2="345.1"/>
<line class="st4" x1="252.2" y1="352.8" x2="251.5" y2="345.7"/>
<line class="st4" x1="254.6" y1="353.3" x2="255.2" y2="345.6"/>
<line class="st4" x1="238.8" y1="353.2" x2="240.3" y2="345.4"/>
<line class="st4" x1="236.5" y1="353.9" x2="236.6" y2="345"/>
<line class="st4" x1="232.9" y1="354.6" x2="233.7" y2="345.1"/>
<line class="st4" x1="230.3" y1="345.7" x2="231" y2="352.9"/>
<line class="st4" x1="228" y1="345.3" x2="227.3" y2="352.9"/>
<line class="st4" x1="223.2" y1="345.4" x2="224.7" y2="353.1"/>
<line class="st4" x1="220.9" y1="345.7" x2="221" y2="354.6"/>
<line class="st4" x1="217.3" y1="345" x2="218.1" y2="354.5"/>
<line class="st4" x1="214.8" y1="352.8" x2="215.4" y2="345.7"/>
<line class="st4" x1="212.4" y1="353.3" x2="211.7" y2="345.6"/>
<line class="st4" x1="207.7" y1="345.4" x2="209.1" y2="353.1"/>
<line class="st4" x1="205.3" y1="345.7" x2="205.5" y2="354.6"/>
<line class="st4" x1="201.8" y1="345" x2="202.6" y2="354.5"/>
<line class="st4" x1="199.2" y1="345.7" x2="199.9" y2="352.9"/>
<line class="st4" x1="196.8" y1="353.3" x2="196.2" y2="345.6"/>
<line class="st4" x1="192.1" y1="353.2" x2="193.6" y2="345.4"/>
<line class="st4" x1="189.8" y1="353.9" x2="189.9" y2="345"/>
<line class="st4" x1="186.2" y1="354.6" x2="187" y2="345.1"/>
<line class="st4" x1="183.6" y1="352.8" x2="184.3" y2="345.7"/>
<line class="st4" x1="181.3" y1="353.3" x2="180.6" y2="345.6"/>
<line class="st4" x1="166.5" y1="353.2" x2="165" y2="345.4"/>
<line class="st4" x1="168.9" y1="353.9" x2="168.7" y2="345"/>
<line class="st4" x1="172.4" y1="354.6" x2="171.6" y2="345.1"/>
<line class="st4" x1="175" y1="352.8" x2="174.3" y2="345.7"/>
<line class="st4" x1="177.4" y1="353.3" x2="178" y2="345.6"/>
<line class="st4" x1="161.6" y1="353.2" x2="163.1" y2="345.4"/>
<line class="st4" x1="159.3" y1="353.9" x2="159.4" y2="345"/>
<line class="st4" x1="155.7" y1="354.6" x2="156.5" y2="345.1"/>
<line class="st4" x1="153.1" y1="345.7" x2="153.8" y2="352.9"/>
<line class="st4" x1="150.8" y1="345.3" x2="150.1" y2="352.9"/>
<line class="st4" x1="146" y1="345.4" x2="147.5" y2="353.1"/>
<line class="st4" x1="143.7" y1="345.7" x2="143.8" y2="354.6"/>
<line class="st4" x1="140.1" y1="345" x2="140.9" y2="354.5"/>
<line class="st4" x1="137.6" y1="352.8" x2="138.2" y2="345.7"/>
<line class="st4" x1="135.2" y1="353.3" x2="134.5" y2="345.6"/>
<line class="st4" x1="130.5" y1="345.4" x2="131.9" y2="353.1"/>
<line class="st4" x1="128.1" y1="345.7" x2="128.3" y2="354.6"/>
<line class="st4" x1="124.6" y1="345" x2="125.4" y2="354.5"/>
<line class="st4" x1="122" y1="345.7" x2="122.7" y2="352.9"/>
<line class="st4" x1="119.6" y1="353.3" x2="119" y2="345.6"/>
<line class="st4" x1="114.9" y1="353.2" x2="116.4" y2="345.4"/>
<line class="st4" x1="112.6" y1="353.9" x2="112.7" y2="345"/>
<line class="st4" x1="109" y1="354.6" x2="109.8" y2="345.1"/>
<line class="st4" x1="106.4" y1="352.8" x2="107.1" y2="345.7"/>
<line class="st4" x1="104.1" y1="353.3" x2="103.4" y2="345.6"/>
<line class="st4" x1="89.3" y1="353.2" x2="87.8" y2="345.4"/>
<line class="st4" x1="91.7" y1="353.9" x2="91.5" y2="345"/>
<line class="st4" x1="95.2" y1="354.6" x2="94.4" y2="345.1"/>
<line class="st4" x1="97.8" y1="352.8" x2="97.1" y2="345.7"/>
<line class="st4" x1="100.2" y1="353.3" x2="100.8" y2="345.6"/>
<line class="st4" x1="84.4" y1="353.2" x2="85.9" y2="345.4"/>
<line class="st4" x1="82.1" y1="353.9" x2="82.2" y2="345"/>
<line class="st4" x1="78.5" y1="354.6" x2="79.3" y2="345.1"/>
<line class="st4" x1="75.9" y1="345.7" x2="76.6" y2="352.9"/>
<line class="st4" x1="73.6" y1="345.3" x2="72.9" y2="352.9"/>
<line class="st4" x1="68.8" y1="345.4" x2="70.3" y2="353.1"/>
<line class="st4" x1="66.5" y1="345.7" x2="66.6" y2="354.6"/>
<line class="st4" x1="62.9" y1="345" x2="63.7" y2="354.5"/>
<line class="st4" x1="60.4" y1="352.8" x2="61" y2="345.7"/>
<line class="st4" x1="58" y1="353.3" x2="57.3" y2="345.6"/>
<line class="st4" x1="53.3" y1="345.4" x2="54.7" y2="353.1"/>
<line class="st4" x1="50.9" y1="345.7" x2="51.1" y2="354.6"/>
<line class="st4" x1="47.4" y1="345" x2="48.2" y2="354.5"/>
<line class="st4" x1="44.8" y1="345.7" x2="45.5" y2="352.9"/>
<line class="st4" x1="42.4" y1="353.3" x2="41.8" y2="345.6"/>
<line class="st4" x1="37.7" y1="353.2" x2="39.2" y2="345.4"/>
<line class="st4" x1="35.4" y1="353.9" x2="35.5" y2="345"/>
<line class="st4" x1="31.8" y1="354.6" x2="32.6" y2="345.1"/>
<line class="st4" x1="29.2" y1="352.8" x2="29.9" y2="345.7"/>
<line class="st4" x1="26.9" y1="353.3" x2="26.2" y2="345.6"/>
<line class="st4" x1="23" y1="353.3" x2="23.6" y2="345.6"/>
<path class="st5" d="M209.9,77.6c-0.3,0.1-0.6-0.6-0.8-1.1c2.5-3.9,6-7.2,10.5-6.9c-2.5,0.8-4.4,1.7-6.3,3.6
	C212.6,73.9,210.8,76.2,209.9,77.6"/>
<path class="st5" d="M205.9,75.2c0.4-3.6,2.3-9,5.9-10.8c-1.2,1.8-1.9,2.6-3,5c-0.8,1.8-1.4,5-1.5,6.4
	C206.7,75.6,205.9,75.9,205.9,75.2"/>
<path class="st6" d="M229.7,101.2c1.7,3.5,2.2,18.4,2.5,21.1c0.3,3,0,3.6,1.5,3.7c2.5,0.2,4.1,1.4,0.8,1.5c-1.2,0.1-2.7,0.4-3.8-0.2
	c-0.6-3.1-0.9-7.8-1.4-12.3c-0.2-1.9-0.1-10.2-1.6-11.3c-3.1-2.3-7.7,6.3-9.4,7.9c-1.4,1.3-4,3.2-3.9,0.2c0.1-1.6,2-3.6,2.9-4.9
	C218.1,106.1,226.8,95.2,229.7,101.2"/>
<path class="st6" d="M231.8,118.1c0,0,1,0.3,1.5,0.6c0.5,0.3,0.5,0.4,0.5,0.4s-0.6-0.2-1-0.2c-0.4,0-0.3,0.2-0.3,0.2
	s0.6,0.2,0.9,0.4c0.3,0.2,0.7,0.8,0.7,0.8s-0.9-0.4-1.3-0.5c-0.4-0.1-0.5,0.1-0.5,0.1s1,0.4,1.5,0.9c0.3,0.3,0.5,0.7,0.5,0.7
	s-0.5-0.5-1.5-0.7c-1-0.2-1.1,0.1-1.1,0.1L231.8,118.1z"/>
<path class="st6" d="M240.9,114.1c3.6-0.5,7.1-1.4,9.9-3.7c-1.7,4.6-6.3,5-10.1,5.5c2.4,1.6,9.4,0.3,12.4-0.6
	c-1.9,2.5-5.8,2.9-7.9,2.9c-1.4,0-4-0.1-5.2-1C238.7,116,238.8,114.4,240.9,114.1"/>
<path class="st6" d="M192.8,91.7c2,1.5,3.3,1.5,5.3,2c1,0.2,0.5,0.1,0.9,1.1c0.5,1.9,2,5.9,2.5,7.8c0.9,3.3,1.9,7.4,4.2,10.5
	c1.2,1.7,6.4,5.4,8.5,6.4c2.9,1.4,8.6,2.7,12.7,2.3c4.9-0.5,9.1-2.3,12.8-4.8c0.9-0.6,2-1.7,2.2-2.9c0.4-1.5-3-2.9-4-3.6
	c-1.1-0.9-6.3-3.7-7.1-4.3c-2.2-1.9-9.3-8.7-10.7-10.7c-1.5-2-2.3-4.6-3.6-6.8c-1.1-1.9-2-3.8-3.3-5.6c-0.6-0.9-1-1.2-1.5-1.7
	c-0.7-5.1-3.6-6.4-5.8-6.8c-3-0.7-7.2,1.9-9.7,3.2C189.7,81.2,184.9,89.2,192.8,91.7"/>
<path class="st7" d="M209.1,93.8c1.5,3.9,7.1,15.3,14.1,19.3c2.9,1.6,6.3,2.3,9.8,2.6c1.9,0.1,7.5,0.7,9.1-1c1.6-2-5.6-5.6-7.4-6.9
	c-3.6-2.9-10-7.2-12.8-11c-3.7-4.8-5.2-8.4-6.2-9.5C214.6,86.2,208.3,91.7,209.1,93.8"/>
<path class="st8" d="M198.5,95.3c4.9-2.7,9.9-5.9,14.1-9.6c0.4-0.3,0.8-0.9,1.2-1.1c0.9-0.6,0.6-0.5,1.4,0.2
	c1.1,0.9,1.9,2.1,1.5,3.3c-0.6,1.2-2.1,1.9-3.1,2.7c-2.6,2.4-11.3,7.1-12.5,7.4c-1.1,0.3-1.1,0.4-1.5-0.4
	C199.2,97.2,198.7,96.3,198.5,95.3"/>
<path class="st1" d="M232.8,102.3c2.3,3.5,5,19.3,5.6,22.1c0.7,3.1,0.5,3.8,2.1,3.7c2.7-0.2,4.5,0.9,1.1,1.5
	c-1.3,0.3-2.8,0.8-4.1,0.4c-1-3.2-2.1-8.1-3.2-12.8c-0.5-2-1.6-10.8-3.3-11.7c-3.6-2-7.3,7.8-8.9,9.8c-1.3,1.6-3.8,3.9-4.1,0.8
	c-0.1-1.7,1.6-4.1,2.4-5.6C221.1,109.2,228.9,96.4,232.8,102.3"/>
<path class="st1" d="M203.6,102.5c-4.4,0-6.5-1.4-10.1-3.9c-1.9-1.3-2.4-2.1-3.8-0.1c-0.9,1.2-2,3.7,0.3,3.2
	c0.6-0.1,0.4-1.6,1.3-1.7c0.7-0.1,5.3,3.2,7.1,3.6c1.3,0.4,3.5,0.7,4.9,0.6C204.8,103.9,206.3,102.5,203.6,102.5"/>
<path class="st9" d="M204.2,77.6c-3.4,3.1,0.4,8.2,4.3,4.6C211.7,79.1,207,75,204.2,77.6"/>
<path class="st1" d="M208.8,110.8c-1.4,3-5.6,5.5-10.8,3.8c-1.9-0.7-4.1-1.5-5.1,1.1c-1,2.7-0.4,3.1,0.2,3.4
	c0.9,0.4,1.2-0.8,2.1-3.2c2,0.2,4.3,1.2,6.6,1.3c5.4,0.1,10.9-6.3,9.8-8.2C210.6,107.2,209.6,109.2,208.8,110.8"/>
<path class="st10" d="M198.3,91.3c-0.1-0.1-1-0.7-2.1-1c-1.8-0.3-3.2,1-3.2,1"/>
<path class="st5" d="M205.1,78.7c-0.3,0.1-0.5,0.3-0.6,0.6c-0.1,0.3,0.3,0.6,0.5,0.6c0.4,0,0.6-0.3,0.6-0.7
	C205.6,78.9,205.3,78.7,205.1,78.7"/>
<path class="st1" d="M237.4,120c0,0,1.1,0.1,1.7,0.4c0.5,0.3,0.6,0.4,0.6,0.4s-0.7-0.1-1.1-0.1c-0.4,0-0.3,0.3-0.3,0.3
	s0.6,0.1,1,0.3c0.4,0.2,0.9,0.7,0.9,0.7s-1-0.3-1.4-0.3c-0.4,0-0.5,0.2-0.5,0.2s1.1,0.3,1.7,0.7c0.4,0.3,0.6,0.6,0.6,0.6
	s-0.6-0.4-1.7-0.5c-1.1-0.1-1.1,0.2-1.1,0.2L237.4,120z"/>
<path class="st11" d="M202.5,106.8c4.6,0.2,8.7-2.2,11.5-5.2"/>
<path class="st11" d="M209.7,116.6c5,0,9.1-3.5,11-7.4"/>
<path class="st11" d="M223.5,121.7c3-1.1,5.7-6,5.7-10.3"/>
<path class="st12" d="M180.4,66c-2.5-5.2-3.5-8.2-7.1-10.8c-5.6-4-16.3,6-14.6,13.7C165.9,77.4,190.8,87.3,180.4,66"/>
<path class="st12" d="M166.1,55.6c0,0,1.5-7.2-9.7-11.2c-11.9-4.3-16.7,2.4-16.7,2.4s-3.1,3.5-3.1,11c6.4,9.4,22.1,11.2,22.1,11.2
	C166.8,70.4,166.1,55.6,166.1,55.6"/>
<path class="st12" d="M136.7,57.8c-13.3,9.4-37.2,3.7-44.7,5.6c-0.6,0.2-1.2-0.4-1-1.1c8.4-28.8,35.9-34.4,48.8-15.5
	C139.9,46.9,136.6,57.6,136.7,57.8"/>
<g>
	<defs>
		<path id="SVGID_1_" d="M91,62.3c-0.2,0.6,0.4,1.2,1,1.1c2.5-0.7,7-0.5,12.2-0.2c10.3,0.4,23.7,0.8,32.5-5.4
			c-0.1-0.1,3.2-10.8,3.1-11c-5-7.3-12.2-11-19.7-11C108.4,35.8,96.1,44.8,91,62.3"/>
	</defs>
	<clipPath id="SVGID_00000119830938166786283720000003280975193018015127_">
		<use xlink:href="#SVGID_1_"  style="overflow:visible;"/>
	</clipPath>
	<path style="clip-path:url(#SVGID_00000119830938166786283720000003280975193018015127_);fill:#FFDD00;" d="M115.9,35
		c-0.1,0.2,10.2,1,10.1,1.2c-3.2,7.2-2.6,17.3-1.7,26.9c0.1,1.3-8.5,0.9-8.2,0.8C113.8,54.7,114.2,43.8,115.9,35"/>
	<path style="clip-path:url(#SVGID_00000119830938166786283720000003280975193018015127_);fill:#FFDD00;" d="M136,37
		c-0.1,0.2,9.8,2.9,9.7,3.1c-4.5,6.5-5.8,16.5-6.7,26.1c-0.1,1.3-8.5-0.7-8.2-0.7C130.1,56,132.6,45.3,136,37"/>
	<path style="clip-path:url(#SVGID_00000119830938166786283720000003280975193018015127_);fill:#FFDD00;" d="M96.8,38.1
		c-0.1,0.2,10.2-0.5,10.1-0.3c-2.1,7.6,0,17.5,2.4,26.8c0.3,1.3-8.3,2.2-8,2.1C97.6,57.9,96.4,47.1,96.8,38.1"/>
</g>
<path class="st14" d="M125.8,58.2c3.1-2.1,5.9,1.5-0.5,13.7c1.5,0.7,2.9,1.2,4.6,2.2"/>
<path class="st14" d="M139.8,57.2l1.1,0.6c0.9,0.5,1.8,2.7,0.7,6.1c-1.5,4.5-5.1,12.3-5.1,12.3s2.3-0.1,4.1,1.2"/>
<path class="st14" d="M151.6,65c2.3,0.9,1.9,5.9-1.4,15.2c1.5,0,2.9,0.4,4.4,1"/>
<g>
	<defs>
		<rect id="SVGID_00000020382119311191962170000006423321579207434168_" x="125.6" y="4.1" width="26.4" height="49.4"/>
	</defs>
	<clipPath id="SVGID_00000083057089972663555990000004109049869245295291_">
		<use xlink:href="#SVGID_00000020382119311191962170000006423321579207434168_"  style="overflow:visible;"/>
	</clipPath>
	<g style="clip-path:url(#SVGID_00000083057089972663555990000004109049869245295291_);">
		<defs>
			<rect id="SVGID_00000108998901562920143980000008365329850862614196_" x="125.6" y="4.1" width="26.4" height="49.4"/>
		</defs>
		<clipPath id="SVGID_00000063612058079749457500000001549814679366428077_">
			<use xlink:href="#SVGID_00000108998901562920143980000008365329850862614196_"  style="overflow:visible;"/>
		</clipPath>
		<g style="clip-path:url(#SVGID_00000063612058079749457500000001549814679366428077_);">
			<defs>
				<rect id="SVGID_00000171715641179233736770000014602489836841569982_" x="125.6" y="4.1" width="26.4" height="49.4"/>
			</defs>
			<clipPath id="SVGID_00000178910353443069560220000012364732626043811715_">
				<use xlink:href="#SVGID_00000171715641179233736770000014602489836841569982_"  style="overflow:visible;"/>
			</clipPath>
			<path style="clip-path:url(#SVGID_00000178910353443069560220000012364732626043811715_);fill:#D9D7CB;" d="M146.8,52.4
				c-6.9-9.2-11.6-16.5-19-30.8c-1-2-2.5-3.7-2.1-6.5c0.5-3.9,1.8-13.9,7.2-10.2c6.5,4.4,21.1,32,18.9,45.2
				c-0.1,0.7-0.6,2.2-1.1,2.7C149.8,54,147.7,53.6,146.8,52.4"/>
		</g>
	</g>
</g>
<path class="st14" d="M156.2,67.3c1.1,2.9,1.1,6.8,0,12.1c1.2,0,2.4,0.4,3.5,1.1"/>
<g>
	<defs>
		<rect id="SVGID_00000040573805978073572220000009640385177556439695_" x="145.9" width="13.1" height="45.2"/>
	</defs>
	<clipPath id="SVGID_00000144333354056233914240000011782449471416849808_">
		<use xlink:href="#SVGID_00000040573805978073572220000009640385177556439695_"  style="overflow:visible;"/>
	</clipPath>
	<g style="clip-path:url(#SVGID_00000144333354056233914240000011782449471416849808_);">
		<defs>
			<rect id="SVGID_00000085212385240898965420000004605555222678312089_" x="145.9" width="13.1" height="45.2"/>
		</defs>
		<clipPath id="SVGID_00000145757271078516364770000002830946355795366054_">
			<use xlink:href="#SVGID_00000085212385240898965420000004605555222678312089_"  style="overflow:visible;"/>
		</clipPath>
		<g style="clip-path:url(#SVGID_00000145757271078516364770000002830946355795366054_);">
			<defs>
				<rect id="SVGID_00000141446712519286187800000003022624048348016806_" x="145.9" width="13.1" height="45.2"/>
			</defs>
			<clipPath id="SVGID_00000106132363413829477080000011421214880694419867_">
				<use xlink:href="#SVGID_00000141446712519286187800000003022624048348016806_"  style="overflow:visible;"/>
			</clipPath>
			<path style="clip-path:url(#SVGID_00000106132363413829477080000011421214880694419867_);fill:#D9D7CB;" d="M154.4,4.6
				c2.3,2.6,3.8,5.9,4,9.4c0.8,9.9,0.8,20.4-0.1,31.2l-6.4-1.9l-6-40.7C147.3-3.5,152.9,3,154.4,4.6"/>
		</g>
	</g>
</g>
<path class="st9" d="M166.8,62.2c-0.8,2.1,0,4.6,2.1,5.4c2.1,0.8,4.2-0.3,5.1-2.4c0.8-2.1-0.2-4.5-2.3-5.4
	C169.6,59,167.6,60.1,166.8,62.2"/>
<path class="st5" d="M171.1,63.8c-0.1,0.3,0,0.7,0.3,0.8c0.3,0.1,0.7,0,0.8-0.3c0.1-0.3,0-0.7-0.3-0.8
	C171.5,63.2,171.2,63.5,171.1,63.8"/>
<path class="st14" d="M179.8,44.2c0,0-3.3-7.6-8.6,10.6"/>
<path class="st14" d="M170.8,38.9c0,0-0.7-0.6-1.6-0.6c-1.1-0.1-2.1,0.9-2,2.1c0.3,3.6,0.7,10.7-0.5,15.4"/>
<path class="st21" d="M0.7,373.3c0,0-6.2-17.1,19.3-18.8s266.2-5.9,282.8-1.7c16.6,4.2,29,9.9,3.4,20.5
	c-25.5,10.6-149.2,19.6-165.6,14.7C124.1,383.2,14.5,397.9,0.7,373.3z"/>
</svg>
