<?xml version="1.0" encoding="utf-8"?>
<!-- Generator: Adobe Illustrator 26.2.1, SVG Export Plug-In . SVG Version: 6.00 Build 0)  -->
<svg version="1.1" id="Capa_1" xmlns="http://www.w3.org/2000/svg" xmlns:xlink="http://www.w3.org/1999/xlink" x="0px" y="0px"
	 viewBox="0 0 361.5 213.5" style="enable-background:new 0 0 361.5 213.5;" xml:space="preserve">
<style type="text/css">
	.st0{fill:#6D9243;}
	.st1{fill-rule:evenodd;clip-rule:evenodd;fill:#BF0811;}
	.st2{fill-rule:evenodd;clip-rule:evenodd;fill:#3F7473;}
	.st3{fill-rule:evenodd;clip-rule:evenodd;fill:#364D20;}
	.st4{fill-rule:evenodd;clip-rule:evenodd;fill:#A1BD43;}
	.st5{fill:none;stroke:#F8E12E;stroke-width:3.0975;stroke-linecap:round;stroke-linejoin:round;}
	.st6{clip-path:url(#SVGID_00000080172590966946839280000004410033975734090933_);}
	.st7{clip-path:url(#SVGID_00000041295051165925276710000001526787453421611966_);}
	.st8{opacity:0.1;clip-path:url(#SVGID_00000126302220300426111050000012621825898524954796_);}
	.st9{fill:#FFFFFF;}
	.st10{fill:none;stroke:#DB9600;stroke-width:1.4668;stroke-linecap:round;stroke-linejoin:round;}
	.st11{fill:#211915;}
	.st12{fill:#C58021;}
	.st13{fill:#DB9600;}
</style>
<path class="st0" d="M294.1,198.5c18-2.7,34.9-13.9,45.4-30.3c10.6-16.4,14.7-37.7,11.2-57.5c-1.8-10.3-5.7-20.2-11.8-28.3
	C330.3,71,317.7,64,304.8,59.9s-26.4-5.5-39.6-7.6c-41.2-6.6-83-20.1-123.8-10.7c-15.7,3.6-30.6,10.5-46,15.5
	c-26.8,8.8-57.1,13.1-75.6,36.3C6.4,110.2,2.2,133.9,2.9,156.2c0.3,11.2,2,23.1,8.5,31.6c3.8,5,9,8.5,14.4,11.4
	c33.7,18.2,73.2,14.4,110.7,12.7C189.6,209.6,242.1,210.7,294.1,198.5z"/>
<g>
	<polygon class="st1" points="102.1,125.9 68.2,114.2 68.2,73.4 102.1,80.4 	"/>
	<polygon class="st2" points="140.6,116.6 102.1,125.9 102.1,80.4 140.6,73.4 	"/>
	<polygon class="st3" points="106.2,67.6 140.3,73.4 102.1,80.4 68.2,73.4 	"/>
	<polygon class="st4" points="97.6,48.1 135.6,46.3 106.2,67.6 68.2,73.4 	"/>
	<line class="st5" x1="102.1" y1="37.6" x2="104.2" y2="3.5"/>
	<line class="st5" x1="140.3" y1="49.8" x2="160.9" y2="25.4"/>
	<line class="st5" x1="155.9" y1="89" x2="182.9" y2="88.1"/>
	<line class="st5" x1="60.6" y1="48.7" x2="30.6" y2="30.1"/>
	<line class="st5" x1="48.3" y1="96.2" x2="8.8" y2="91.6"/>
</g>
<g>
	<g>
		<g>
			<defs>
				
					<rect id="SVGID_1_" x="230.6" y="89.6" transform="matrix(0.2755 -0.9613 0.9613 0.2755 57.2924 349.8704)" width="60.3" height="94.7"/>
			</defs>
			<clipPath id="SVGID_00000060718856864720141400000000843452686305110699_">
				<use xlink:href="#SVGID_1_"  style="overflow:visible;"/>
			</clipPath>
			<g style="clip-path:url(#SVGID_00000060718856864720141400000000843452686305110699_);">
				<g>
					<defs>
						
							<rect id="SVGID_00000094577989496046646560000007497286290528488070_" x="230.6" y="89.6" transform="matrix(0.2755 -0.9613 0.9613 0.2755 57.2924 349.8704)" width="60.3" height="94.7"/>
					</defs>
					<clipPath id="SVGID_00000124882473040374903220000002991086566790462596_">
						<use xlink:href="#SVGID_00000094577989496046646560000007497286290528488070_"  style="overflow:visible;"/>
					</clipPath>
					<g style="clip-path:url(#SVGID_00000124882473040374903220000002991086566790462596_);">
						<g>
							<defs>
								
									<rect id="SVGID_00000181068029670604553610000008695317257676922551_" x="230.6" y="89.6" transform="matrix(0.2755 -0.9613 0.9613 0.2755 57.2924 349.8704)" width="60.3" height="94.7"/>
							</defs>
							<clipPath id="SVGID_00000177470313479382620350000013365491419955082924_">
								<use xlink:href="#SVGID_00000181068029670604553610000008695317257676922551_"  style="overflow:visible;"/>
							</clipPath>
							<g style="opacity:0.1;clip-path:url(#SVGID_00000177470313479382620350000013365491419955082924_);">
								<path d="M228.6,104.7c-1.4-0.4,0.6,0.6-0.9-0.2C227.9,104.4,228.3,104.5,228.6,104.7"/>
								<path d="M240.4,110.1c4.4,1.7,8.5,6.4,12.8,9c0.5,0.3-0.5,0.4,0.6,1.1c4.3,2.5,9.8,7.9,13.7,12.4l-0.4-0.1
									c0.7,0.9,2.2,1.4,3,2.3c0,0.1-0.4-0.1-0.3,0.2c0.5-0.1,1.7,1.3,2.2,1.5c0.3,0.4,0,0.6,0.4,1.1l0.8,0.2
									c2,0.6,3.3,3.3,5.4,4.8c-0.2,0-0.4-0.1-0.3,0.1c3.6,3,6.9,6.4,9.9,10c-0.2-0.1-0.5,0-0.5,0.3c0.5-0.1,1.4,1,2.3,1.9
									c0,0.7,1.5,1.6,2.2,3l-0.2,0c0.9,0.8,0.5,1.7,1.4,2.2c-0.3,0.4,0.7,0.2-0.7,1.1c-0.8,0-0.8-1.4-1.6-1.9l0,0.1
									c-0.7-0.6-0.7-1.1-1.3-1.6l0-0.1c-1.3-1.3-1.7-2.3-2.1-2c-0.1-0.7,1.3,1.3,1,0.1c-4.3-4.3-8.5-8.8-12.8-13.2
									c-0.4-0.6-0.6-0.9-0.6-1.2c-0.7-0.7-1.5-1.3-2.4-1.8c0.2,0-0.1-0.5-0.3-0.7c-0.7-0.9-1.2-0.5-2-1.4c0.4,0.2,0.7,0.2,0.7,0
									c-1.1-0.6-2-1.4-3-2.2c0.2,0.1,0.5,0.2,0.5,0.1c-1.3-0.6-1.8-1.7-2.8-2.3l0.5,0.1c-1.2-1.5-0.8,0-1.9-1.2
									c0.4,0.2,0.3,0.1,0.4,0c-1.6-0.9-3.1-2-4.5-3.2c0,0,0.1,0,0.1,0c-1.3-1.2-2.7-2.2-4.1-3.2c-0.4-0.5,0.6-0.4-0.8-1.4
									c-0.3,0.5-2.5-1.7-2-0.6c-1.1-1.1-2.4-2.1-3.7-3.1c0.7,0.2-0.2-1,0.8-0.2l-0.5-0.8c0.2-0.1,0.7,0.6,0.7,0.2
									c-0.5-0.4-2.1-1.3-2.5-1.7c-1.4-0.3-2.7-0.9-3.9-1.7c0.8,0.4,0-0.8,0.5-0.5l-2.7-0.8c-0.5-0.4,0.1-0.4-0.7-0.9
									c0,0.2-0.4,0-0.7-0.1c-0.3-0.1-2.2-1.4-2.1-2c-0.1-0.3,0.9,0.5,0.4-0.1c-0.9-0.7-1.1-0.6-2-1.2l0-0.1
									c-0.6-0.5-1.9-1.1-1.4-0.4c0.4,0.3,0-0.4,0.6,0.2c-1-0.3-1.9-0.8-2.6-1.5c0.4,0.1,0.4,0,0.6,0c-1.5-0.7-3-1.5-4.4-2.4
									c-0.2,0.2,0.8,0,0.9,0.3c-1.5-1.6-3.9-2.5-5-4.2c0.3,0.2-0.1,0.4-0.1,0.3c-0.8-0.8-0.5-1-1.1-1.5c0-0.2-0.7-0.7-1.1-1.3
									c-0.4-0.3,0-0.2,0.4,0.3c-0.4-0.3-0.7-0.7-0.9-1.1c-0.8-1-0.7-2.4,0.3-3.2c0.2-0.2,0.4-0.3,0.7-0.4c1.7-0.1,3.5,0.4,4.9,1.4
									c0.7,0,1.4,0.1,2,0.4l-0.3,0.2c0.3,0.4,1.6,0.8,1.5,1.1c1.2,0.2-4.1-1.8-2.5-1.3c0.2,0.4,2.2,0.5,1.7,0.8
									c1,0.3,1.9,0.8,2.8,1.5c-0.2-0.2-1,0-0.2,0.4c1.3,0.7,0.5,0.1,1.6,0.6l0.7,0.3c0.2-0.2,1.1,0.8,0.8,0.1c0,0.3,2,1,1.5,1.4
									l-0.4,0.2c0.5,0.2,1.1,0.3,1.7,0.3c0.1,0,0.2,0.2,0.1,0.3c0.4-0.5,1.3,0.9,2.2,0.9c1,0.9,2.9,2,3.2,2.7c1,0.4,2,0.9,2.8,1.6
									c-0.2-0.1-0.5-0.3-0.6-0.2c0.4,0.4,0.9,0.7,1.4,0.9c-0.2,0,1,1.2,1.6,1.9c1,0.5,0.9,0,1.1-0.1c0.4,1.1,2.7,1.4,3.3,2.6
									c-0.4-0.1-1.4-0.7-0.8,0c0.4,1.1,1.8,0.8,2.9,2l0-0.7c0.4,0.7,2,1.1,1.5,1.5c0.5,0.2,1.4,1.2,1.5,0.7
									c1.7,1.9,5.1,3.6,5.7,5.3c0.4,0.1,1,0.8,1,0.5c-0.3-0.6-0.8-0.4-0.8-0.7c0.3,0.2,0.4,0.1,0.5,0.1c0.5,0.6,1,1,0.1,0.9
									c1.1,1.4,2,0.5,3.6,2.1c-0.2,0.1-0.1,0.3,0.4,0.7l1.2,0.5c1,1,0.3,0.9,0.1,1.2c0.5,0.5,1.1,0.9,1.8,1.1l0.4,1
									c-0.3-0.7,0.6,0.2,0.9,0.4l-0.4-0.1c-0.1,0.2,0.7,0.7,1.1,1c0.1-0.2-0.5-0.9-0.9-1.3c0.4,0.1,0.8,0.6,1.3,0.8
									c-0.4,0.2,0.7,1.1,1.2,1.5c0.4,0.5,0.8,0.3,0.9,0.5c-0.1,0.1,0.8,0.9,0.2,0.6c-0.2-0.1-0.3-0.5-0.7-0.7
									c0.2,0.4,0,0.6,0.8,1.2c0.6,0.4,0.4-0.6,1.2,0.5c-0.2-0.1-0.5-0.2-0.8-0.2l0.8,1.1l0.3-0.2c0.1,0.2,0,0.1-0.1,0.2
									c0.5,0,1.4,1.4,1.9,1.4c0.4,0.6,0.7,1.2,1,1.8l-0.1,0c0.4,0.7,1,1.4,1.6,1.8l0,0c0.4,0.6,0.8,1,1.3,1.4c0.4,1-0.8,1,0.2,1.7
									c0.6,0.9,1.4,1.1,1.4,0.6c0.9,1.8,2.5,3.3,3,5.1c0.3,0.2,0.2,0,0.6,0.4c1.3,2.5,3.2,5.1,3.6,7.5c-0.5-0.7-0.3,0.1-0.5,0.2
									c0.6,0.5,0.1,0.9,0.6,0.9c0.3-0.2,0.4-0.2,0.2-1c0.9,1.5,1.5,3.2,1.9,4.9c0-0.5,0.2-0.2,0.4,0.1c-0.5,0-0.1,1.2,0.3,2.1
									l0.3,0.1l-0.1,0.7c0.2,0.3,0.7,0.2,0.7,1.2c-0.1,0.1-0.2,0.2-0.2,0.4c0.7,1,1.1,2.2,1.1,3.4l-0.3,1c0.1,0.5,0.4,1.3,0.5,0.4
									c0.1,1.5-0.3,3-1.1,4.3c-0.3,1.7-1.9,2.8-3.6,2.5c-0.3-0.1-0.6-0.1-0.8-0.3c-1.1-0.7-2.1-1.7-2.7-2.9
									c-1-1.7-1.9-3.5-2.6-5.3l0.2,0.1c-0.2-1-0.5-0.3-0.7-1c0.3,0.2,0.1-0.9,0.7-0.3c-0.3-1.4-1.1-1.5-1.5-2.3
									c-0.3,0,0.5,0.6,0,0.6c-0.4,0-0.5-1.8-1-1.8c0-0.4,0.4-0.3,0.7-0.2l-0.5-0.7c0.1-1.1,1.8,1.8,1.9,0.5l-0.4-0.7
									c0.1-0.9,1.3,1.7,0.6-0.2c-0.5-0.7-1.4-1.1-1.3-0.4c-0.8-1.5-1.2-0.4-2-2.1c0-0.6,0.7,1.3,0.9,0.9c0-0.9-0.9-1.5-1.1-2.3
									c0.2,0.9-0.5,0.4-0.8-0.1c-0.2-0.9,0.6,0.4,0.1-0.9c-0.3-0.1-1-1.1-0.7-0.1c-0.7-0.2-0.5-1.3-1.2-1.8c0.2-0.6,1.4,0.8,1-0.6
									c-0.2,0.4-1.3-1.4-1.4-0.4c-0.1-0.6,0.1-0.8,0.5-0.5c-0.2-0.8-1.5-1.4-0.9-2l-0.5-0.1c0-0.3-0.1-0.7-0.1-1.1
									c-0.3-0.7-1.6-1.8-1.1-2c-0.2-0.2-1-1.6-1-0.9c0.3,1,0.8,0.9,0.7,1.6c0-0.8-0.8-1.2-1.2-1.7l0.1-0.2c-0.2-0.3-0.6-1-0.9-1
									c0.3,0.2,0.3,0,0.2-0.3l-0.5-0.1c-0.9-1.1,0.3-0.6-0.5-1.7l0.8,0.8c-0.2-0.2-0.2-0.7-0.6-1.3c-0.4,0-1-0.3-1.3-0.3
									c-0.5-0.6,0.1-0.5-0.6-0.9l0.9,0.6c0.2,0.1,0.1-0.9-0.6-1.7c-0.5-0.5-1.4-1.1-1-0.1c-0.3-0.4-0.6-1.1-0.1-0.9
									c-0.8-0.9-0.2,0.3-0.9-0.4c-0.2-0.8-0.5-1.7-0.8-2.5l1.1,0.5l-0.4-0.6c0.9,0.5,0-0.6,0.7-0.4c-0.3-0.4-0.7-0.8-1.1-1.1
									c0.3,1.6-1.8-0.7-2,0.1c-1.3-1.4,0.4-1.9-1.7-2.8c0.1,0.4-0.9,0,0,0.8c-0.8-0.9-1-0.2-1.8-1.4c0.9,0.6-0.3-1.3,1-0.4
									c-0.2,0.1,0.4,0.7,0.7,0.9c-0.1-0.5,0.6-0.4-0.3-1.3c-0.5-0.5-1.3-1.3-1.4-0.9c-0.1,0.4,0.8,0.8,0.2,0.7
									c-1.2-1-0.9-1.5-1.8-1.5c0.7,0.6,0.6,1.1,0.4,1.2l-0.9-0.7l0.3,0c-1.1-1.4-0.7,0-1.8-1.3l-0.2-0.9c0.6,0,1.6,1.9,1.9,1.2
									c-0.7-0.5-1.3-1.1-1.9-1.6l0.7,0.4c-0.3-0.3,0-1.2-1.5-1.9c-0.8-0.4-0.3,0-0.5,0.2c-0.9-0.7-1.9-1.4-2.9-2
									c0.5-0.2-1.6-1.3-0.3-0.9c0.8,1,1.9,1.8,3.1,2.3c-0.1-0.9,1,1,1.7,0.8c-1.1-1-0.6-1.4-0.6-1.8c-0.3-0.2-0.6-0.4-0.9-0.5
									c-0.4,0.2,0,0.5-0.2,0.8c-0.9-1.1-2.1-2-3.4-2.6c-0.3-0.5,0-0.6,0.6-0.3c-1.6-1.1-3.2-2.4-4.6-3.5c0.6,1.2-1.7-1.1-1.4-0.2
									c0.7,0.7,1.1,1.5,0.6,1.4c-0.5-0.4,0.2-0.2,0-0.5c-0.8-0.2-0.7-1.1-1.6-1.1c1.6,0.8,0.7-0.4,1.2-0.6
									c-1.2-0.5,0.2-0.2-0.8-0.9c-1.2-0.5-2.6-1.2-3.9-1.8c-1.6-1.2-3.4-2.3-5.2-3c-0.6-0.6,0.1-0.8-0.6-1.3
									c-0.8-0.5,0.4,0.9-0.8-0.1l0.2,0c-0.5-0.1-2.4-1.7-3.1-1.2l0.7-0.3c-0.2-0.1-0.5-0.2-0.8-0.2c0.1-0.2-0.2-0.5,0.3-0.4
									c-0.8-0.6-1.8-1.1-2.8-1.3l0.5,0.6c-1.8-0.5-2.7-1.4-4.4-2l0.2-0.3l-1-0.3c0.4-0.2-0.4-0.8-1-0.7l2.8,0.4
									c0.6,0.5-0.9,0-0.6,0.5c0.6,0.5,1.3,0.8,2.1,0.8c-0.3-0.2-0.7-0.3-1.1-0.3c0-0.5,0.9-0.1,1.4-0.2c-0.3-0.1-0.7-0.4-0.8-0.3
									c0.8,0.1,1.5,0.4,2.3,0.8c-0.7-0.2,0.2,0.4-0.1,0.4c0.3-0.3,1.2,0,2.4,0.7c0.6,0.8,2.4,0.9,3.6,1.7c-0.8,0.1-1.7,0-2.5-0.3
									c0.8,0.6,0.9,0.5,1.7,1.1c0.8-0.2,1.5-0.1,2.3,0.1l-0.1,0.3c1.1,0.4,1.3,0,2.5,0.8c2.1,1.4,4.3,2.7,5.8,3.8l-0.1,0.3
									c1.2,0,3.1,1.7,4.4,2.4c1.8,1.6,4.4,3,5,4.1c3.4,2.4,6.5,5.2,9.3,8.3l-0.8-0.2c0.8,0.4,0.2,0.6,0.7,1.1
									c-0.3-0.9,1,0.5,1.6,0.7c1.2,1.7,2.6,3.3,4.2,4.7l-0.2,0.2c1.5,1.5,2.6,3.2,3.4,5.1c0,0.5,0.1,0.9,0.4,1.3
									c1,0.8,1.8,1.7,2.5,2.7c0.8,1.4,1.4,2.8,2,4.2c2.9,4,4.5,8.7,6.8,13.1l-0.1,0.5c1.3,2,2.3,4.5,3.4,6.7
									c0.3,1.3,1.7,1.5,0.8,2.5c-0.8-0.5-0.7-0.7-0.5-1.4l0.5,0.3c0.4-0.9-0.1-2.4-0.5-2.1c0.1-1.1-0.7-2.8-0.4-3.6
									c-0.2-1.2-0.6-1.4-1-2.4c-0.4-1.9-1.1-3.8-2-5.5l0.2,0.6c0.2,0.2,0.5,0.1,0.3-0.4c-0.5-0.8-1.2-3.1-1.5-2
									c-0.7-2.5-3-5.2-3.8-7.7c-0.1,0.3-0.4-0.2-0.7-0.4c-1-1.9-2.1-3.8-3.5-5.5c-0.1-0.3,0.6,0.3,0.1-0.5
									c-0.4-0.4-0.2,0.1-0.7-0.3c-2.4-2.8-4.2-6.1-6.7-8.3c-4.5-3.9-9.2-8.1-13.8-11.7l0.1-0.1c-1.9-0.8-3.2-3.3-5-3.5
									c-0.3-0.4-1.4-1.1-0.9-1.1c-1.5-0.6-3.2-2.9-5.4-3.8c0.1,0.1,0.3,0.2,0.5,0.3c-1.6-1.6-3.5-2.4-5.3-4
									c0.2,0.1,0.6,0.3,0.8,0.2c-0.6-0.8-2.1-0.8-2.2-1.6c-0.4-0.3-0.5,0.1-0.2,0.2c-4.3-3.2-9-6-13.8-8.4
									c-3.1-2.2,0.3-1.2-2.5-2.1c-0.2-0.2-0.3,0.2-0.2,0c-1.1-0.3-1.3-1.4-2.1-1.3c0.2,0.5-0.5,0.1-0.5,0.4c0,0.7-0.6-2.2-0.3-1.5
									c1.5,0.2,1-0.2,1.1,0.2c0.1,0.4,0.5,0.9,1,1.4l-0.2,0c1.7,1.1,3.4,2.9,5.3,3.5c9.6,7.3,19.6,13.8,28.9,21.5
									c9.2,7.5,17.8,15.8,25.8,24.7c1,1.8,2.3,3.5,3.8,4.8c-0.2,0-0.3-0.2-0.2,0.1c0.5-0.2,1.5,1.6,2,1.6l2.1,2.6l0.5,0.6l0.3,0.3
									l0,0l-4.9,2.7l0,0l0,0l0,0l-0.1-0.1l-0.6-1.2c-1-1.8-2.1-3.4-3.4-5c0.5,0.5,1,0.5,0.5-0.1l-0.8-0.5l0.1-0.2
									c-0.4-0.4-1-0.7-0.7-0.2c-7.3-8.6-15.2-16.7-23.5-24.3c-2.2-2.1-4.6-4.2-7.1-6c-6.1-5.9-11.8-11.4-19.1-15.6
									C235.8,108.8,237.3,108.2,240.4,110.1"/>
								<path d="M230.2,105.3c0.2,0.3,1.1,0.9,0.2,0.8C230.4,105.9,230,105.5,230.2,105.3"/>
								<path d="M252.4,119.9c0,0,0.3,0.3,0.3,0.4c-0.3-0.1-0.6-0.2-0.8-0.4C252.2,120.1,252.2,120,252.4,119.9"/>
								<path d="M257.8,124c-0.8-0.2-1.5-0.6-2.2-1.1L257.8,124z"/>
								<path d="M262,128.6c0.3,0.5,0.1,0.5-0.4,0C261.6,128.5,261.8,128.7,262,128.6"/>
								<path d="M262.6,128.5c0.3,0.2,0.5,0.5,0.6,0.9C263.4,129.2,262.3,128.7,262.6,128.5"/>
								<path d="M271.4,138.6c0.2,0.2,0.8,0.7,0.8,1.1C272.1,139.3,270.9,138.6,271.4,138.6"/>
								<path d="M275.3,143.4c0.1,0.2,0.2,0.3,0.3,0.4c0.1,0.3-0.2,0.1-0.4-0.1L275.3,143.4z"/>
								<polygon points="256.2,114.4 256.8,114.7 256.6,114.8 								"/>
								<path d="M233.2,108.9c0.6,0.3,0.3,0.5,0.3,0.6C233.1,109.1,233.9,109.4,233.2,108.9"/>
								<polygon points="255.7,124.7 255.6,124.6 255.9,124.3 								"/>
							</g>
						</g>
					</g>
				</g>
			</g>
		</g>
	</g>
	<path class="st9" d="M214.6,68.9c1.9,0.9,2.9,2.9,2.5,4.9c-0.6,2.7-5.5,6.7-8.6,2c-0.8-1.5-0.8-3.3-0.1-4.8
		C209.6,68.7,212.3,67.8,214.6,68.9"/>
	<path class="st10" d="M241,73c0.6,0.8,1.7,1.1,2.5,0.6c0.9-0.5,1.3-1.4,1.2-2.4c-0.1-1-0.7-1.8-1.5-2.4c-2.9-1.9-6.7-0.1-9.2,1.6
		c-2.5,1.7-4.9,3.7-7.1,5.8"/>
	<path class="st10" d="M224,73.9c1.6-1.9,3.1-3.8,4.4-5.9c1.7-2.3,3-4.7,4-7.4c0.5-1.5,0.3-3.2-0.6-4.5c-1.2-1.3-3.2-1.5-4.5-0.3
		c-1,0.8-1.3,2.2-0.9,3.4"/>
	<path class="st10" d="M303.7,129.8c-1.4,2.9-3.4,5.4-5.9,7.5"/>
	<path class="st10" d="M235.9,75.5c1.8,3.5,2.2,7.6,1.1,11.4"/>
	<path class="st10" d="M248.6,93.7c1.4-2.7,0.7-6.6-1.3-11.2"/>
	<path class="st10" d="M311.6,155.8c0,0-3,6.6-7.4,7.3"/>
	<path class="st10" d="M319.4,166.7c-1.3,3.1-3,6-5,8.7"/>
	<path class="st10" d="M330.5,173.2c-1,3-2.6,5.8-4.8,8"/>
	<path class="st10" d="M340.8,177.6c-0.6,2.9-1.9,5.7-3.7,8.1"/>
	<path class="st10" d="M262.6,102.9c2-3.7,2.1-8.2,0.1-12"/>
	<path class="st10" d="M286.3,106.2c0.1,4.6-0.8,8.5-4,10.6"/>
	<path class="st10" d="M276,98c0.8,5-0.9,9.5-4.3,11.4"/>
	<path class="st10" d="M295.2,115.2c-0.1,4.1-2.1,7.6-6.4,10.1"/>
	<path class="st10" d="M307.6,142.3c-1.7,5.1-5.4,8.2-8.8,8.3"/>
	<path class="st11" d="M210.9,71.4c-0.2,0.4-0.1,0.8,0.3,1c0,0,0,0,0,0c0.4,0.2,0.8,0,1-0.3c0.2-0.4,0-0.8-0.3-1
		C211.5,70.9,211.1,71,210.9,71.4C210.9,71.4,210.9,71.4,210.9,71.4"/>
	<path class="st12" d="M335.3,184.7c-1.8-2.9-5.2-4.4-8.6-3.9c-3.3-6.1-11.6-6.8-11.6-6.8c-1.9-2.1-4.5-3.5-7.3-3.9
		c1.2-2.5-0.5-7.3-5-8.9c0.5-3.5-0.4-7.1-2.6-9.9c0.9-6.4-0.3-11.6-3.7-15.5c-1.1-5.4-4.6-10-9.5-12.5c-3.7-6.6-8.5-10.8-12.8-11.3
		c-2.5-5.3-7.5-8.3-11.1-8.3c-3.2-4.4-10.4-8.9-12.4-7.2c-2.2-4.1-8.6-7.3-9.9-5.4c-1.6-2.9-4.3-4.9-7.5-5.6c0,0-7.4-14.4-15.4-13.6
		c-8,0.8-16.9,7.4-15,14.4c2,7.5,17.5,5.5,23.8,11.4c2.4,2.9,5,5.2,8.5,4.7c3.2,3.3,7.4,5.6,12,6.5c2.3,3.4,6.2,5.5,10.4,5.4
		c2.4,4.4,6.4,7.6,11.1,9c2.6,4.2,6.4,7.6,10.9,9.6c1.5,3.3,3.7,6.3,6.4,8.7c-0.3,3.7,0.8,7.3,3,10.3c-0.2,4.2,1.1,8.4,3.7,11.7
		c0.2,5.9,2.2,10.2,6.5,12.6c1.5,4.5,5.7,7.6,10.5,7.7c2.8,3.7,7.3,5.7,12,5.3c2.2,2.4,5.3,3.7,8.6,3.4c0,0,12.9,5.4,15.3-1.9
		C347.5,184.3,335.2,184.8,335.3,184.7"/>
	<g>
		<path class="st13" d="M335.6,183.2c0.1-0.3,3.9-4.8,3.9-5.2c0,0,15.1,15.9,16.2,16.8c-1-0.3-20.5,3.9-20.9,3.3
			c-1.8-2.6-5.3-4.2-5.2-4.2C332.1,192.2,335.2,185.9,335.6,183.2 M313.8,190.5c-2-1.6-3.6-3.5-4.8-5.8c2.8-2.1,6.6-9.6,7-13.3
			c2.8,0.3,5.5,1,8.1,2.1c3.2,1.5,3.6,7,3.6,6.8c-0.5,3.3-4.3,8.5-7,10.8C320.3,190.9,316,192.1,313.8,190.5 M303.6,160.8
			c0.2-0.2,7.1-0.2,8.4,1.9c1.4,2.1-2.8,5.9-4.2,7.5c-2.6,2.9-5.1,5.3-8.6,6.1l0,0c0.2,0-8,1.5-9.4-1.5c-1.4-3,1.6-11.1,1.8-11.1
			C295.4,164.1,302.2,161.7,303.6,160.8 M289,151.9c0.1,0-5.1-1.5-5.7-4.1c-0.6-2.7,2-6.2,2.1-6.2c4.3-1.1,8.2-3.2,11.4-6.3
			c0-0.1,7.1,3.1,8.1,7c1,3.7-4.7,9.1-4.6,9l0,0C296.7,152.9,292.7,153.1,289,151.9L289,151.9z M274.6,110.9c0-0.2,7.2,1.5,10.5,4.3
			c3.1,2.6,1.8,8.2,1.9,8.2l0,0c-1.8,4.5-4.9,8.7-8.1,10.5c0.1-0.1-5.4,0.3-8-2.6c-2.3-2.6-3.1-7-2.3-8
			C271.3,119.6,273.3,115.4,274.6,110.9 M250.1,95.7c3.2-0.2,6.4,0.3,9.3,1.5c2.9,1.5,3.7,6.7,3.6,6.5c-0.2,3.5-3.3,8.2-6.6,11.7
			c-2.1,0-4.2-0.7-5.9-2.1c-1.5-1.2-2.8-2.5-4-4C249.3,105.4,250.6,100.5,250.1,95.7 M233.2,85.6c0-0.1,3.8-1.8,5.9-0.4
			c1.7,1.1,1.6,6.1,1.6,5.9c-0.4,4.3-2.4,8.3-5.6,11.2c0.1-0.1-5.3,2.9-7.4,1.6s-1.1-6.3-1.1-6.3C230.1,94.5,232.4,90.2,233.2,85.6"
			/>
	</g>
	<path class="st9" d="M211.9,79.5c-1.4,2.3-0.6,5.3,1.7,6.7c2.3,1.3,5.3,0.5,6.6-1.9c0,0,0,0,0,0c1.3-2.4,0.5-5.4-1.8-6.9
		C216.1,76.2,213.2,77.1,211.9,79.5C212,79.5,212,79.5,211.9,79.5"/>
	<path class="st11" d="M215.5,81c-0.2,0.4-0.1,0.8,0.3,1.1c0.4,0.2,0.8,0.1,1.1-0.3c0.2-0.4,0.1-0.8-0.3-1.1c0,0,0,0,0,0
		C216.2,80.5,215.7,80.6,215.5,81"/>
	<path class="st10" d="M288.9,149.2c-1.7,5.2-4.7,9.9-8.6,13.6"/>
	<path class="st10" d="M236.4,102.3c-2.8,5-6,7.4-11.3,9.6"/>
	<path class="st10" d="M240.3,121.5c5.1-2.7,8.2-4.8,10.8-10.3"/>
	<path class="st10" d="M266.7,122.5c-1.4,5.8-4.1,8.4-9.1,11.3"/>
	<path class="st10" d="M280.5,132.7c-2.5,6.9-5.7,9.9-11,12.7"/>
	<path class="st10" d="M294.3,168.4c-2.3,5.9-6.3,8.7-9.6,9.6"/>
	<path class="st10" d="M301.9,179.3c-1.4,4-3.9,7.6-7.3,10.3"/>
	<path class="st10" d="M311.6,184.9c-1.2,4.5-3.3,8.6-6.3,12.2"/>
	<path class="st10" d="M324,190c-0.7,5-2.6,9.7-5.6,13.8"/>
	<path class="st10" d="M332.2,192.2c0.9,5.3-0.8,9.5-4,13.4"/>
	<path class="st10" d="M338.9,193.7c1.5,4,1.5,8.8-0.4,14.6"/>
</g>
</svg>
