<?xml version="1.0" encoding="utf-8"?>
<!-- Generator: Adobe Illustrator 26.2.1, SVG Export Plug-In . SVG Version: 6.00 Build 0)  -->
<svg version="1.1" id="Capa_1" xmlns="http://www.w3.org/2000/svg" xmlns:xlink="http://www.w3.org/1999/xlink" x="0px" y="0px"
	 viewBox="0 0 497.4 405.9" style="enable-background:new 0 0 497.4 405.9;" xml:space="preserve">
<style type="text/css">
	.st0{fill:#F3DFCF;}
	.st1{fill:#A85318;}
	.st2{fill:#814114;}
	.st3{fill:#B91919;}
	.st4{clip-path:url(#SVGID_00000065754922557079852760000014952187085420770694_);}
	.st5{clip-path:url(#SVGID_00000042008602936179946060000016776645633408346287_);}
	.st6{clip-path:url(#SVGID_00000129891588840596676190000002992343068141482393_);}
	.st7{fill:#DAD8CC;}
	.st8{fill:none;stroke:#1D1D1B;stroke-width:0.8595;stroke-linecap:round;stroke-linejoin:round;}
	.st9{fill:#00A0A4;}
	.st10{fill:#007572;}
	.st11{fill:#1D1D1B;}
	.st12{fill:#C4C0B4;}
	.st13{fill:#FFFFFF;}
	.st14{fill:none;stroke:#1D1D1B;stroke-width:0.3907;stroke-linecap:round;stroke-linejoin:round;}
	.st15{fill:#F3A5C2;}
	.st16{fill:#F39200;}
	.st17{clip-path:url(#SVGID_00000180333277644054162620000013188621268999211692_);}
	.st18{clip-path:url(#SVGID_00000165947461194423214000000016372151825769791376_);}
	.st19{clip-path:url(#SVGID_00000116953803971962508120000015201560525668361116_);}
	.st20{fill:#DAEFF6;}
	.st21{fill:#2FAC66;}
	.st22{fill:#008688;}
	.st23{fill:#E8E6DB;}
	.st24{fill:none;stroke:#1B8A4F;stroke-width:3.2663;}
	.st25{fill:#A39E93;}
	.st26{fill:#E17CA1;}
	.st27{fill:#095A56;}
	.st28{fill:#DB7A1C;}
	.st29{fill:none;stroke:#AEA993;stroke-width:0.68;stroke-linecap:round;stroke-linejoin:round;}
	.st30{fill:#DC7D0E;}
	.st31{fill:none;stroke:#FFFFFF;stroke-width:0.84;stroke-linecap:round;stroke-linejoin:round;}
	.st32{fill:none;stroke:#FFFFFF;stroke-width:1.3718;stroke-linecap:round;stroke-linejoin:round;}
</style>
<g>
	<g id="Capa_1-2">
		<path class="st0" d="M415,263.2c25.7-4.4,49.7-22.8,64.7-49.8s21-62,15.9-94.5c-2.6-16.9-8.2-33.3-16.9-46.5
			c-12.3-18.7-30.2-30.2-48.6-36.9s-37.5-9.1-56.5-12.6C315,12,255.4-10.1,197.4,5.3c-22.4,6-43.6,17.3-65.5,25.6
			C93.8,45.2,50.5,52.5,24.2,90.6c-19,27.5-25,66.4-24.1,103.1c0.4,18.4,2.8,37.9,12.1,52c5.4,8.3,12.9,14,20.5,18.8
			c48,30,104.3,23.7,157.7,20.9c75.8-3.9,152.4,0.6,226.6-19.5"/>
		<path class="st1" d="M36,334.5h420.8l40.6,64.9c0,0-144.7,5.8-241.8,5.8s-255.8-5.8-255.8-5.8L36,334.5z"/>
		<path class="st2" d="M423.5,347.5c0.1-0.1,0.2-0.1,0.1-0.2C423.4,347.4,423.5,347.4,423.5,347.5 M426.3,345.8
			c-0.3,0.2-0.6,0.4-1,0.5l0.9-0.4 M427.9,345.1c0.1-0.1,0.3-0.1,0.4-0.2c-0.2,0-0.6,0.2-0.8,0.3
			C427.4,345.2,427.7,345.2,427.9,345.1"/>
		<path class="st2" d="M412.4,353c0.2-0.1,0.3-0.2,0.2-0.2l-0.6,0.3v0.1c-0.5,0.1-0.9,0.3-1.4,0.6c-0.1,0,0.1,0,0.1,0l0.4-0.2
			c-0.2,0.3,0.9-0.4,1.5-0.6 M414.2,351.7c0-0.1,0.1-0.1,0-0.1c-0.2,0.2-0.5,0.3-0.8,0.4l0.4-0.2c-0.3,0.1-0.5,0.2-0.8,0.4
			c0.1,0.1,1.4-0.5,1.2-0.5 M420.3,348.7c-0.5,0.2-1,0.5-1.5,0.8c-0.4,0.3-0.3,0.4-1,0.7c0.4,0-1.1,0.6-1.3,0.7
			c-1.1,0.7-1.7,0.6-1.6,0.4c0.7-0.3,1.4-0.6,2.1-1c0.6-0.3,1.3-0.8,1.9-1c0.1,0.2,1.2-0.6,1.6-0.6 M423.6,347.1
			c-0.2,0.1-0.5,0.2-0.7,0.3c0,0,0,0,0.1,0c0.2-0.1,0.4-0.2,0.6-0.4"/>
		<path class="st2" d="M408.8,354.6c-0.8,0.5-1.7,1-2.6,1.4c-0.6,0.5-1.3,0.8-2,1c-0.4,0.3-1,0.5-1.3,0.8c0,0-0.2,0-0.2,0
			c-0.8,0.5-1.5,0.7-1.1,0.3c-0.3,0.2-0.7,0.3-0.9,0.4c0.3-0.2,0.9-0.5,1.2-0.7s0.5-0.4,0.8-0.7s0.7-0.3,0.8-0.2l0.3-0.2v-0.1
			c0.3-0.2,0.7-0.3,1-0.4c-0.1,0.1-0.1,0.1-0.1,0.2c0.4-0.2,0.7-0.4,1.1-0.6c-0.1,0,0.1-0.2,0.1-0.2c0.1-0.1,0.4-0.2,0.6-0.2
			c-0.3-0.1,1.3-0.8,1.2-0.5c0.4-0.2,0.9-0.3,1.3-0.6c0.2,0,0.6-0.3,1-0.4c-0.5,0.3-1,0.6-1.4,0.8L408.8,354.6
			C408.7,354.7,408.8,354.6,408.8,354.6 M415.6,351.4c-0.4,0.3-1.4,0.7-1.3,0.5s1-0.5,0.5-0.2l0.7-0.3 M411.6,352.9
			c0,0,0.2-0.1,0.1,0c-0.2,0.1-0.3,0.2-0.5,0.3c0.1-0.1,0.1-0.1,0.5-0.4C411.8,352.9,411.7,352.9,411.6,352.9"/>
		<path class="st2" d="M400.2,358.6c-0.4,0.3-0.9,0.5-1.3,0.6C399.3,359,399.7,358.8,400.2,358.6 M412.8,352.5
			c-0.3,0.2-0.6,0.4-0.9,0.5c-0.3,0.2-0.6,0.3-0.9,0.4c-0.3,0.1-0.3,0.1,0.1-0.1c0,0,0.2-0.1,0.3-0.1l0.5-0.2
			C412,353,412.6,352.6,412.8,352.5c0.1,0,0.1,0,0.1,0"/>
		<path class="st2" d="M398.4,359.6c-0.3,0.1-0.6,0.3-0.9,0.6l-0.9,0.5c0,0,0,0,0.2,0c-0.7,0.5-1.4,1-2.2,1.4
			c-0.8,0.4-0.7,0.2-0.8,0.1s0.2-0.1,0-0.1s-0.4,0.1-0.5,0.2c0.3-0.3,0.7-0.5,1.2-0.5c0.1-0.1,0-0.1,0-0.2s0.1-0.1,0.2-0.2
			c0.3-0.2,0.6-0.4,1-0.6l1.3-0.7c0.4-0.2,0.8-0.3,1.1-0.5 M400.4,358.8c-0.5,0.3-1.1,0.6-1.6,0.8c-0.1-0.1,0.7-0.4,0.8-0.4
			S400.1,358.9,400.4,358.8"/>
		<path class="st2" d="M392.6,362.6c0.3-0.1,0,0.1-0.3,0.2c-0.2,0.1-0.4,0.2-0.5,0.3c-0.1,0.1-0.1,0.1-0.2,0.2
			c-0.2,0.1-0.3,0.2-0.4,0.3c-0.1,0-0.3,0.1-0.4,0.1c-0.1,0,0.3-0.2,0.2-0.2s-1,0.5-1.2,0.6s0,0.1-0.1,0.2c-0.2,0.2-0.3,0.3-0.5,0.4
			c0,0-0.3,0.1-0.4,0.1s0.2-0.2,0.1-0.2s-0.5,0.2-0.8,0.3c0.3-0.3,0.3-0.2,0.8-0.5s0.5-0.3,0.4-0.4c0.4-0.2,0.8-0.4,1.3-0.5
			c0.3-0.2,0.9-0.5,0.8-0.5c0.3-0.1,0.6-0.3,0.9-0.4C392.5,362.5,392.8,362.3,392.6,362.6 M403.5,356.4c-0.2,0-0.8,0.3-0.7,0.4
			L403.5,356.4 M397.8,359.3c0.4-0.3-0.5,0.1-0.8,0.2c-0.3,0.3,0.6-0.1,1-0.4"/>
		<path class="st2" d="M383.1,367.5c-0.4,0.3-0.9,0.5-1.4,0.7c-0.3,0.2-0.6,0.4-1,0.5c0.2-0.2,0.4-0.3,0.6-0.4
			c0.2-0.1,0.4-0.2,0.5-0.2c0.1-0.1,0.5-0.4,0.5-0.3c0.3-0.1,0.9-0.5,0.9-0.3 M387.4,365.6c-0.1-0.1,0.1-0.3-0.2-0.2
			c-0.3,0.2-0.7,0.3-0.7,0.2c0.2-0.1,0.3-0.3,0.5-0.4c0.4-0.3,1.2-0.5,0.9-0.5c-0.7,0.2-1.3,0.5-1.9,1c-0.2,0.2,0.4-0.1,0.3,0.1
			c-0.2,0.2-0.5,0.3-0.7,0.3c-0.3,0.2-0.6,0.4-0.9,0.5s-0.2,0.3-0.7,0.5s0.4-0.1,0.6-0.2c-0.2,0.3,0.3,0,0.6,0
			c0.3-0.2,0.5-0.4,0.8-0.5c0.3-0.1,0.2,0,0.5-0.2s0.3-0.2,0.2-0.2C387.1,365.8,387.3,365.7,387.4,365.6"/>
		<path class="st2" d="M383.4,367.6c-0.2,0-0.4,0.1-0.6,0.3c-0.2,0.1-0.1,0.1-0.4,0.3c0.3-0.3-0.7,0.3-0.9,0.4
			c-0.4,0.1-0.7,0.3-1,0.5c-0.2,0.1-0.3,0.2-0.5,0.3c0.5-0.2,1-0.4,1.5-0.7l0.7-0.4l0.7-0.3L383.4,367.6"/>
		<path class="st2" d="M356.3,382.1c0.2-0.1,0.5-0.4,0.4-0.4s-0.2,0-0.3,0.1c0.4-0.2,0.6-0.3,0.9-0.5s0.5-0.4,0.1-0.1
			c-0.2,0.1-0.8,0.5-0.5,0.2c0.1-0.1,0.6-0.3,0.7-0.4s-1.5,0.7-1.3,0.5c-0.1,0-0.3,0.1-0.4,0.1c0.1,0-0.2,0.2-0.4,0.3
			s-0.1,0-0.3,0.1s-0.2,0.1-0.3,0.2c0.2,0,0.4-0.1,0.1,0.1c0,0-0.2-0.1-0.4,0l-0.3,0.2c-0.1,0.1-0.3,0.1-0.4,0.2l-1.1,0.6
			c-0.2,0.1-0.4,0.2-0.6,0.4c0.2,0,0.6-0.2,0.5-0.1c0.1-0.1,0.2-0.2,0.4-0.3c0.3-0.1,0.6-0.3,0.9-0.4l-0.6,0.3
			c0.4-0.2,0.7-0.4,1.1-0.6c0.3-0.1,0,0.2,0.3,0.1s0.2-0.2,0.4-0.3s-0.2,0.2,0,0.2c0.3-0.1,0.5-0.2,0.8-0.4c0.3,0,0.6-0.1,0.8-0.3
			 M368,375.8c0.1-0.1,0.4-0.3,0.4-0.4l-1.1,0.6c0.1-0.1,0.3-0.2,0.4-0.3c-0.3,0.1-0.1-0.1-0.4,0.1c-0.2,0.1-0.5,0.3-0.7,0.4
			l-0.4,0.1c0.1-0.1,0.1-0.1,0.2-0.2c-0.5,0.2-0.9,0.4-1.3,0.7c-0.3,0.2-0.6,0.4-1,0.5c-0.3,0.2-0.7,0.5-1.1,0.6
			c-0.8,0.4-0.1-0.1-0.3-0.1c-0.4,0-2.2,1.2-1.6,1.1c-0.2,0.1-0.9,0.5-1.1,0.5s-0.1-0.1-0.6,0s-0.5,0.5-0.5,0.6l0.1-0.1
			c-0.2,0.1-0.9,0.5-1.2,0.6c0,0.1,0.4-0.1,0.8-0.3c0,0.1-0.5,0.4-0.4,0.4c0.2,0,0.4-0.1,0.6-0.2l0.3-0.2l0.2-0.1
			c0.3-0.1,0.3-0.1,0.5-0.2s-0.1-0.1-0.3,0s-0.9,0.4-0.8,0.2c0.4-0.3,0.8-0.5,1.3-0.7c0.6-0.3,0.1,0.2,0.6,0
			c0.2-0.1,0.3-0.2,0.5-0.2s-0.1,0.2,0.4-0.1s1-0.7,0.3-0.4c0.3-0.1,0.6-0.2,0.6-0.4s-0.4,0.1-0.2,0c0.4-0.3,0.8-0.5,1.3-0.7
			c0.4-0.2,0.4-0.3,0.5-0.2s-0.2,0.3,0.1,0.2s0.3-0.2,0.6-0.3c0,0-0.1,0.1,0,0.1s0.2,0,0.3-0.1c0.4-0.3,0-0.2,0.6-0.5
			c0.2-0.1,0.4-0.2,0.6-0.3c0.1-0.1,0.1-0.1-0.1-0.1c0.3-0.2,0.7-0.3,1-0.4C367.5,376.1,367.7,376,368,375.8 M372.2,373.5l0.6-0.4
			c-0.1-0.1-0.6,0.1-1.1,0.3c0.2-0.1,0.2-0.2,0-0.1s-0.5,0.3-0.8,0.5s-0.4,0.1-0.8,0.3s-0.5,0.3-0.8,0.4c-0.1,0.1-0.1,0.2-0.2,0.3
			c0.2-0.1,0.4-0.2,0.6-0.2c-0.1,0.1-0.5,0.4,0,0.2s0.6-0.4,0.9-0.4c0.3-0.2,0.7-0.4,1.1-0.6h0.1C372,373.7,372.1,373.6,372.2,373.5
			 M375.6,371.6c-0.3,0.1-1,0.5-1.3,0.6s-0.2,0,0.1-0.2c-0.1-0.1,0-0.2-0.8,0.2c0.1,0,0.1,0,0.2,0s0,0.1,0,0.1
			c0.2,0.1,0.4,0.1,0.5,0c0.3-0.2,0.3-0.3,0.6-0.5c0.1-0.1,0.2-0.1,0.5-0.2S375.8,371.6,375.6,371.6
			C375.5,371.6,375.6,371.6,375.6,371.6 M377.9,370.6c-0.3,0.2-0.1,0.2-0.2,0.4c-0.3,0.2-0.6,0.4-0.9,0.6c-0.4,0.1-0.3,0-0.3-0.1
			c0.2-0.2,0.5-0.4,0.9-0.5c-0.1,0-0.2,0-0.3,0.1h-0.1c0,0,0-0.1,0,0c-0.1,0.1-0.3,0.1-0.4,0.2c-0.4,0.1-0.1-0.1-0.2-0.1
			c0.3-0.2,1.1-0.6,0.8-0.6c-0.1,0-0.3,0.1-0.3,0c0.2-0.1,0.4-0.3,0.6-0.4c0.4-0.1,0.4,0,0.5,0s0.3-0.1,0.4-0.1s0,0.1,0.3,0
			s0.4-0.3,0.3-0.3s-0.2,0-0.2,0c0.4-0.3,0.9-0.5,1.3-0.7c0,0.1,0.3,0,0.3,0s-0.5,0.4-0.3,0.3c-0.2,0.2-0.4,0.4-0.7,0.6
			C379,370.1,378.2,370.4,377.9,370.6"/>
		<path class="st2" d="M346.5,386.9l-0.6,0.3l-0.5,0.3c-0.5,0.3-1,0.5-1.5,0.7c0.1,0-0.1-0.1-0.2-0.1s-0.5,0.3-0.7,0.4
			s0.2,0.2-0.3,0.4s-0.3-0.1-0.3-0.1l-0.7,0.4c-0.2,0.1-0.4,0.1-0.5,0.2c0.1,0.1,0.3,0.1-0.3,0.4l-0.5,0.3l-0.4,0.2
			c-0.4,0.2-0.7,0.3-0.3,0s0.9-0.5,1.2-0.7c-0.1-0.1-0.2-0.1,0.4-0.5l2-1l1.5-0.8l0.7-0.3c0.1-0.1,0.3-0.1,0.4-0.1
			c-0.4,0.2-0.9,0.5-1.3,0.7L344,388c0.1,0,0.2,0,0.4,0C345,387.6,345.7,387.3,346.5,386.9 M353.4,383.4c0.1-0.1,0.2-0.2,0.3-0.2
			c-0.2,0.1-0.5,0.3-0.7,0.4c0.2-0.1-0.2,0,0-0.1c-0.1,0.1-0.2,0.2-0.4,0.3c-0.2,0.1-0.7,0.3-0.9,0.5l0.1-0.2
			c-0.7,0.5-1.5,0.9-2.3,1.2c-0.1-0.1,0.6-0.3,0.8-0.5s0.2-0.2,0.5-0.3l0.4-0.1l0.3-0.2c0.2-0.1,0.4-0.2,0.5-0.3
			c-0.4,0.1-0.8,0.3-1.2,0.5c-0.6,0.3-1.2,0.6-1.8,0.9c-0.4,0.2-0.8,0.4-1.1,0.6s-0.3,0.2-0.5,0.3c-0.3,0.1-0.5,0.3-0.8,0.4
			c0.2,0,0.4-0.1,0.5-0.2c0.1-0.1,0.5-0.3,0.5-0.2l0.7-0.4c0.3-0.1,0.5-0.2,0.8-0.3c-0.1,0.1-0.1,0.1-0.2,0.2
			c-0.3,0.1-0.9,0.3-0.9,0.5l0.8-0.3l-0.1,0.1l0.3-0.1l-1.3,0.6c0.4-0.2,0.9-0.5,1.3-0.6l-0.2,0.1l0.5-0.3l0,0l2-1.1l2.1-1.1l0,0
			c0.1-0.1,0.2-0.1,0.3-0.1l0.1-0.1"/>
		<path class="st2" d="M337.9,391.3c-0.2,0-0.2-0.2-0.2-0.3l-1.2,0.6c0.3-0.1,0.6-0.2,0.9-0.4c-0.4,0.3-0.4,0.4-0.1,0.3
			c0.3-0.1,0.5-0.3,0.8-0.5 M341.3,389.2c-0.2,0.1-0.4,0.2-0.6,0.2l0.1-0.1c-0.3,0.2-0.4,0.3-0.4,0.4c-0.4,0.2-0.7,0.3-1.1,0.5v-0.1
			c-0.1,0.1-0.3,0.3-0.4,0.3c-0.3,0.1-0.5,0.3-0.8,0.5c0.3-0.1,0.5-0.2,0.8-0.3c-0.2,0.2-0.4,0.3-0.6,0.4c0.4-0.1,0.9-0.3,1.3-0.5
			c-0.2,0.2,0.4,0,0.6-0.2c-0.6,0.2,0.2-0.2,0.5-0.5c0.8-0.5,0.3-0.2,0.3-0.4l0.4-0.2C341.5,389.2,341.4,389.2,341.3,389.2"/>
		<path class="st2" d="M353.7,382.9c-0.3,0.1-0.5,0.1-0.5,0.1c-0.2,0.2-0.4,0.4-0.5,0.5 M337,391.2c-0.4,0.2-0.9,0.5-0.9,0.4
			c0.4-0.2,0.8-0.4,1.1-0.5C337.1,391.2,337.1,391.2,337,391.2"/>
		<path class="st2" d="M445.5,357.8c0.1-0.1,0.2-0.1,0.3-0.2c-0.2,0.1-0.4,0.2-0.6,0.3C445.1,357.9,445.3,357.9,445.5,357.8
			 M334.8,392.6c-0.6,0.4-0.8,0.6-0.8,0.8c0-0.1-0.5,0-0.6,0c-0.1,0.1-0.3,0.2-0.4,0.3c0.1-0.1,0-0.1,0-0.1s-0.3,0.2-0.4,0.3h-0.1
			c-0.1,0.1-0.6,0.5-0.6,0.3c-0.5,0.3-0.8,0.4-0.9,0.3c0.9-0.4,1.7-0.8,2.5-1.3c-0.1-0.1,0-0.2,0.3-0.4c0.1,0,0.2,0,0.2,0
			s0.2-0.1,0.2-0.2C334.7,392.4,334.3,392.8,334.8,392.6 M336.5,391.8c-0.2,0.1-0.2,0.2-0.3,0.4c0.1-0.1,0-0.2-0.1-0.2l-0.5,0.3
			c-0.1,0-0.2,0-0.2,0L336.5,391.8 M348.6,385.8c-0.3,0.2-0.8,0.5-1.3,0.7c0.2-0.1,0.3-0.3,0.4-0.3c0.2-0.1,0.4-0.2,0.6-0.3"/>
		<path class="st2" d="M442.2,360.1c0-0.1,0.2-0.1,0.1-0.2C442.1,360,442.2,360,442.2,360.1 M444.2,358.5c-0.2,0.2-0.5,0.4-0.8,0.4
			L444.2,358.5"/>
		<path class="st2" d="M433.7,365.2c0.1-0.1,0.2-0.2,0.1-0.2l-0.4,0.3v0.1c-0.4,0.1-0.7,0.3-1.1,0.6c-0.1,0,0.1,0,0.1,0l0.3-0.2
			c-0.1,0.3,0.7-0.4,1.1-0.5 M435,364c0-0.1,0.1-0.1,0-0.1c-0.2,0.2-0.4,0.3-0.6,0.4l0.3-0.2c-0.2,0.1-0.4,0.2-0.6,0.3
			c0.1,0.1,1.1-0.4,0.9-0.5 M439.6,361.2c-0.4,0.2-0.8,0.5-1.1,0.8c-0.3,0.3-0.2,0.3-0.7,0.7c0.3,0-0.8,0.6-1,0.6
			c-0.8,0.6-1.3,0.6-1.3,0.4c0.5-0.3,1.1-0.6,1.6-0.9c0.5-0.4,0.9-0.7,1.5-1c0.1,0.2,0.9-0.5,1.2-0.5 M442.2,359.6
			c-0.2,0.1-0.4,0.2-0.5,0.3c0,0,0,0,0.1,0S442.2,359.6,442.2,359.6"/>
		<path class="st2" d="M430.9,366.7c-0.6,0.5-1.3,0.9-2,1.2c-0.4,0.4-0.9,0.7-1.5,0.9c-0.3,0.3-0.7,0.5-1,0.7c0,0-0.1,0-0.2,0
			c-0.6,0.4-1.2,0.6-0.9,0.2c-0.2,0.1-0.5,0.2-0.7,0.3c0.2-0.2,0.7-0.4,1-0.6s0.4-0.4,0.6-0.6s0.6-0.2,0.6-0.1l0.3-0.2v-0.1
			c0.2-0.2,0.5-0.3,0.8-0.4c0,0.1,0,0.1-0.1,0.2c0.3-0.2,0.6-0.4,0.9-0.5c-0.1,0,0-0.1,0-0.2s0.3-0.2,0.5-0.2
			c-0.3-0.1,1-0.7,0.9-0.4c0.3-0.1,0.7-0.3,1-0.5c0.2,0,0.5-0.2,0.8-0.4c-0.4,0.3-0.8,0.5-1.1,0.8L430.9,366.7
			C430.9,366.8,430.9,366.7,430.9,366.7 M436.1,363.8c-0.3,0.2-1.1,0.7-1,0.5s0.8-0.5,0.4-0.1L436.1,363.8 M433.1,365.2
			c0,0,0.1-0.1,0.1,0s-0.2,0.2-0.4,0.3c0.1-0.1,0-0.1,0.4-0.3C433.2,365.1,433.1,365.2,433.1,365.2"/>
		<path class="st2" d="M424.3,370.3c-0.3,0.2-0.7,0.4-1,0.6C423.5,370.7,423.9,370.5,424.3,370.3 M434,364.8
			c-0.2,0.2-0.5,0.3-0.7,0.5c-0.2,0.2-0.4,0.3-0.7,0.4c-0.3,0.1-0.3,0.1,0.1-0.1l0.2-0.1l0.4-0.2C433.3,365.2,433.8,364.9,434,364.8
			L434,364.8"/>
		<path class="st2" d="M422.8,371.2c-0.3,0.1-0.5,0.3-0.7,0.5l-0.7,0.4c0,0,0,0,0.2,0c-0.5,0.5-1.1,0.9-1.7,1.2
			c-0.6,0.3-0.6,0.2-0.6,0.1s0.1-0.1,0-0.1s-0.3,0.1-0.4,0.1c0.2-0.3,0.6-0.4,0.9-0.4c0.1-0.1,0-0.1,0-0.2s0,0,0.2-0.2
			c0.2-0.2,0.5-0.4,0.8-0.5l1-0.6C422.2,371.4,422.4,371.3,422.8,371.2 M424.4,370.4c-0.4,0.3-0.8,0.5-1.2,0.7
			c-0.1-0.1,0.5-0.3,0.6-0.4S424.2,370.5,424.4,370.4"/>
		<path class="st2" d="M418.3,373.8c0.2-0.1,0,0.1-0.2,0.2s-0.2,0.1-0.4,0.2s-0.1,0.1-0.1,0.2c-0.1,0.1-0.2,0.2-0.3,0.3
			c-0.1,0-0.2,0.1-0.3,0.1c-0.1,0,0.2-0.2,0.1-0.2s-0.8,0.4-1,0.5s0,0.1-0.1,0.2s-0.3,0.3-0.4,0.4s-0.3,0.1-0.4,0.1s0.1-0.2,0.1-0.2
			s-0.4,0.2-0.7,0.3c0.2-0.2,0.2-0.2,0.6-0.4s0.4-0.3,0.3-0.4c0.3-0.2,0.7-0.3,1-0.4c0.2-0.1,0.7-0.4,0.6-0.5
			c0.2-0.1,0.5-0.2,0.7-0.3C418.1,373.8,418.4,373.6,418.3,373.8 M426.7,368.4c-0.1,0-0.6,0.2-0.6,0.3L426.7,368.4 M422.2,370.9
			c0.3-0.3-0.4,0.1-0.6,0.2c-0.2,0.3,0.5-0.1,0.8-0.3"/>
		<path class="st2" d="M410.9,378c-0.3,0.2-0.7,0.5-1.1,0.6c-0.2,0.2-0.5,0.3-0.8,0.4c0.1-0.1,0.3-0.3,0.4-0.4
			c0.2-0.1,0.4-0.2,0.5-0.2c0.1-0.1,0.4-0.4,0.4-0.2C410.5,378.2,411,377.9,410.9,378 M414.3,376.4c-0.1-0.1,0-0.2-0.2-0.2
			s-0.6,0.3-0.5,0.2c0.1-0.1,0.2-0.2,0.4-0.3c0.3-0.2,1-0.4,0.7-0.5c-0.6,0.1-1.1,0.4-1.5,0.8c-0.1,0.2,0.4,0,0.2,0.1
			c-0.2,0.1-0.4,0.2-0.6,0.2c-0.2,0.2-0.5,0.3-0.7,0.5s-0.1,0.2-0.5,0.4s0.3-0.1,0.5-0.2c-0.2,0.3,0.3,0,0.5,0
			c0.3-0.3,0.2-0.2,0.6-0.4c0.2-0.1,0.1,0,0.4-0.2s0.2-0.2,0.1-0.2C414,376.6,414.2,376.5,414.3,376.4"/>
		<path class="st2" d="M411.1,378.2c-0.2,0-0.4,0.1-0.5,0.2c-0.1,0.1,0,0.1-0.3,0.2c0.2-0.2-0.6,0.2-0.7,0.3
			c-0.3,0.1-0.5,0.3-0.8,0.5l-0.4,0.3c0.4-0.1,0.8-0.3,1.2-0.6c0.1-0.1,0.4-0.3,0.5-0.4l0.5-0.3L411.1,378.2"/>
		<path class="st2" d="M389.8,390.3c0.1-0.1,0.4-0.3,0.3-0.4s-0.2,0-0.3,0c0.3-0.2,0.5-0.2,0.7-0.4s0.4-0.3,0.1-0.1
			c-0.1,0.1-0.6,0.4-0.4,0.1c0.2-0.1,0.4-0.3,0.6-0.4c0-0.2-1.2,0.6-1,0.4l-0.3,0.1c0.1,0-0.2,0.1-0.3,0.2s-0.1,0-0.2,0.1
			s-0.1,0.1-0.2,0.2c0.2,0,0.3-0.1,0.1,0.1c-0.1-0.1-0.2-0.1-0.4,0l-0.2,0.2l-0.3,0.2l-0.9,0.5c-0.2,0.1-0.4,0.2-0.5,0.3
			c0.2,0,0.5-0.2,0.4-0.1l0.3-0.2c0.2-0.1,0.5-0.2,0.7-0.3l-0.5,0.3c0.3-0.2,0.6-0.4,0.9-0.5c0.2,0,0,0.2,0.3,0.1l0.3-0.2
			c0.1,0-0.1,0.2,0,0.2s0.4-0.2,0.6-0.3s0.5,0,0.6-0.2 M399,385c0-0.1,0.3-0.3,0.3-0.4l-0.9,0.5c0.1-0.1,0.2-0.2,0.3-0.3
			c-0.3,0.1-0.1-0.1-0.3,0s-0.4,0.2-0.6,0.3l-0.3,0.1c0.1,0,0.1-0.1,0.2-0.1c-0.4,0.1-0.7,0.4-1,0.6c-0.2,0.2-0.5,0.3-0.8,0.5
			c-0.3,0.2-0.6,0.4-0.9,0.5c-0.6,0.3-0.1-0.1-0.2-0.1c-0.3,0-1.8,1-1.3,0.9c-0.2,0.1-0.7,0.4-0.9,0.4s-0.1-0.1-0.5,0
			s-0.4,0.4-0.3,0.5l0.1,0c-0.3,0.2-0.6,0.4-0.9,0.5c0,0.1,0.4,0,0.7-0.2c0,0.1-0.4,0.3-0.3,0.4s0.3-0.1,0.5-0.1l0.3-0.1l0.2-0.1
			c0.2-0.1,0.2-0.1,0.4-0.2s0-0.1-0.2,0s-0.7,0.4-0.6,0.2c0.3-0.2,0.7-0.4,1-0.6c0.5-0.2,0.1,0.2,0.5,0c0.2-0.1,0.2-0.1,0.4-0.2
			s-0.1,0.1,0.3,0s0.8-0.6,0.2-0.3c0.2-0.1,0.5-0.2,0.5-0.3s-0.3,0-0.2-0.1c0.3-0.2,0.6-0.4,1-0.6c0.4-0.2,0.3-0.2,0.4-0.1
			s-0.2,0.3,0.1,0.2s0.2-0.2,0.5-0.2c0,0,0,0.1,0,0.1h0.2c0.3-0.2,0-0.2,0.5-0.5c0.2-0.1,0.3-0.2,0.5-0.3c0.1-0.1,0-0.1-0.1-0.1
			c0.3-0.1,0.5-0.3,0.8-0.3C398.6,385.3,398.8,385.2,399,385 M402.3,383.1l0.5-0.3c-0.1-0.1-0.5,0.1-0.9,0.2c0.1-0.1,0.2-0.2,0-0.1
			s-0.4,0.3-0.6,0.4s-0.3,0.1-0.6,0.2c-0.2,0.1-0.4,0.3-0.6,0.4c-0.1,0.1-0.1,0.2-0.1,0.2c0.1-0.1,0.3-0.1,0.4-0.2
			c0,0.1-0.3,0.3,0,0.2s0.5-0.3,0.7-0.4c0.3-0.2,0.6-0.4,0.9-0.5h0.1C402.1,383.3,402.2,383.2,402.3,383.1 M405,381.6
			c-0.3,0.1-0.8,0.5-1,0.5s-0.2,0,0.1-0.2c-0.1-0.1-0.1-0.2-0.6,0.2l0.2,0v0.1c0.1,0.1,0.3,0.1,0.5,0c0.2-0.2,0.2-0.3,0.4-0.5
			c0.1,0,0.2-0.1,0.4-0.2C405,381.5,405.1,381.5,405,381.6L405,381.6 M406.8,380.6c-0.3,0.2,0,0.2-0.1,0.3c-0.2,0.2-0.5,0.3-0.7,0.5
			c-0.3,0.1-0.3,0-0.2-0.1s0.3-0.3,0.7-0.4c-0.1,0-0.1,0-0.2,0H406c0,0,0,0,0,0s-0.2,0.1-0.3,0.2c-0.3,0.1-0.1-0.1-0.2-0.1
			c0.2-0.2,0.9-0.5,0.6-0.5c-0.1,0-0.3,0.1-0.2,0c0.1-0.1,0.3-0.2,0.5-0.3c0.3-0.1,0.3,0,0.5,0l0.3-0.1c0.1,0,0,0.1,0.2,0
			s0.3-0.2,0.2-0.3s-0.2,0-0.2,0c0.3-0.2,0.7-0.4,1-0.6c0,0.1,0.2,0,0.3,0s-0.4,0.3-0.2,0.3c-0.2,0.2-0.1,0.3-0.5,0.5
			S407,380.5,406.8,380.6"/>
		<path class="st2" d="M387.4,391.3c0.1-0.1,0.2-0.1,0.2-0.2c-0.2,0.1-0.4,0.2-0.6,0.3c0.1-0.1-0.2,0,0-0.1
			c-0.1,0.1-0.2,0.2-0.3,0.3l-0.7,0.4l0.1-0.1c-0.5,0.4-1.1,0.8-1.8,1c-0.1-0.1,0.5-0.3,0.6-0.4s0.2-0.1,0.4-0.2l0.3-0.1l0.2-0.1
			c0.1-0.1,0.2-0.1,0.4-0.2c-0.3,0.1-0.7,0.2-0.9,0.4l-1.5,0.8c-0.3,0.1-0.6,0.3-0.9,0.5l-0.4,0.3c-0.2,0.1-0.4,0.2-0.6,0.3
			c0.1,0,0.3-0.1,0.4-0.1c0.1,0,0.4-0.2,0.4-0.2l0.6-0.3c0.2-0.1,0.4-0.2,0.6-0.3l-0.1,0.2c-0.2,0.1-0.7,0.2-0.7,0.4l0.6-0.2
			l-0.1,0.1l0.2-0.1l-1,0.5c0.3-0.1,0.7-0.4,1-0.5l-0.2,0.1l0.4-0.2l0,0l1.6-0.9l1.7-0.9l0,0C387.3,391.3,387.4,391.3,387.4,391.3
			l0.2-0.1"/>
		<path class="st2" d="M446.3,383.5l0.2-0.1c-0.1,0-0.3,0.1-0.4,0.1C446.1,383.6,446.2,383.5,446.3,383.5 M387.6,390.8
			c-0.2,0.1-0.4,0.1-0.4,0c-0.2,0.1-0.3,0.4-0.4,0.5"/>
		<path class="st2" d="M444.5,384.8c0,0,0.1-0.1,0-0.1S444.4,384.8,444.5,384.8 M445.6,383.8c-0.1,0.1-0.3,0.2-0.5,0.2L445.6,383.8"
			/>
		<path class="st2" d="M439.6,387.8c0.1-0.1,0.1-0.1,0.1-0.2l-0.2,0.1v0.1c-0.2,0-0.5,0.1-0.6,0.3h0.1l0.2-0.1
			c0,0.3,0.4-0.2,0.7-0.2 M440.2,386.9c0,0,0-0.1,0-0.1c-0.1,0.1-0.2,0.2-0.3,0.2l0.1-0.1l-0.4,0.2
			C439.8,387.2,440.4,386.9,440.2,386.9 M443,385.3c-0.2,0.1-0.5,0.3-0.6,0.5c-0.2,0.2-0.1,0.3-0.4,0.5c0.2,0.1-0.5,0.4-0.6,0.4
			c-0.5,0.4-0.8,0.3-0.8,0.1c0.3-0.1,0.6-0.3,0.9-0.5c0.3-0.2,0.5-0.4,0.8-0.6c0.1,0.2,0.5-0.3,0.8-0.2 M444.5,384.5
			c-0.1,0-0.2,0.1-0.3,0.1l0.1,0L444.5,384.5"/>
		<path class="st2" d="M437.9,388.5c-0.4,0.3-0.6,0.6-1.2,0.7c-0.2,0.2-0.5,0.6-0.9,0.5c-0.1,0.2-0.4,0.3-0.5,0.5l-0.1-0.1
			c-0.3,0.3-0.7,0.4-0.5,0.1c-0.1,0.1-0.3,0.1-0.4,0.2c0.1-0.2,0.4-0.2,0.5-0.4s0.2-0.3,0.3-0.4s0.4-0.1,0.4,0l0.1-0.1l0,0
			c0.1-0.1,0.3-0.2,0.4-0.2v0.1c0.1-0.1,0.3-0.2,0.5-0.3c0,0,0-0.1,0-0.2l0.3-0.1c-0.2-0.1,0.5-0.5,0.5-0.2c0.2-0.1,0.4-0.1,0.6-0.3
			c0.2,0,0.3-0.1,0.5-0.2C438.2,388.3,438,388.4,437.9,388.5L437.9,388.5 M441,387c-0.2,0.1-0.6,0.4-0.6,0.2s0.4-0.3,0.3,0L441,387
			 M439.1,387.7C439.1,387.7,439.2,387.6,439.1,387.7l-0.1,0.2C439,387.7,439,387.7,439.1,387.7L439.1,387.7"/>
		<path class="st2" d="M434,390.6c-0.1,0.1-0.5,0.4-0.6,0.3C433.5,390.8,433.9,390.5,434,390.6 M439.6,387.4
			c-0.1,0.1-0.3,0.2-0.4,0.3c-0.1,0.1-0.3,0.2-0.4,0.2c-0.2,0-0.2,0,0-0.1l0.1-0.1l0.2-0.1C439.3,387.7,439.5,387.5,439.6,387.4
			L439.6,387.4"/>
		<path class="st2" d="M433.2,391.1c-0.2,0.1-0.4,0.2-0.4,0.3l-0.4,0.2c0,0,0,0,0.1,0c-0.2,0.3-0.6,0.6-0.9,0.8
			c-0.4,0.2-0.4,0.1-0.4,0s0.1-0.1,0-0.1s-0.2,0.1-0.2,0c0.1-0.2,0.4-0.3,0.6-0.2c0-0.1,0-0.1,0-0.1s0,0,0.1-0.1
			c0.1-0.1,0.3-0.2,0.4-0.3l0.6-0.3C432.8,391.2,433,391.1,433.2,391.1 M434.2,390.7c-0.1,0-0.6,0.5-0.7,0.4s0.3-0.2,0.4-0.2
			L434.2,390.7"/>
		<path class="st2" d="M391.5,339.5c0.1-0.1,0.3-0.2,0.2-0.2C391.4,339.5,391.5,339.4,391.5,339.5 M395.1,337.4
			c-0.4,0.3-0.8,0.5-1.3,0.6l1.1-0.5 M397.2,336.4c0.2-0.1,0.3-0.2,0.5-0.3c-0.2,0.1-0.8,0.3-1.1,0.4c0,0.1,0.3,0,0.7-0.2
			 M430.6,392.6c0.1,0,0,0.1-0.1,0.1s-0.1,0-0.2,0.1s0,0.1,0,0.1s-0.1,0.1-0.2,0.2s-0.2,0-0.2,0s0.1-0.1,0-0.2s-0.4,0.2-0.6,0.3
			s0,0.1,0,0.2c-0.1,0.1-0.1,0.2-0.2,0.3c0,0-0.2,0-0.2,0s0-0.1,0-0.2s-0.2,0.1-0.4,0.1c0.1-0.2,0.1-0.1,0.3-0.3s0.2-0.2,0.1-0.3
			c0.2-0.1,0.4-0.2,0.6-0.2c0.1-0.1,0.4-0.2,0.3-0.3c0.1-0.1,0.3-0.1,0.4-0.2C430.5,392.5,430.6,392.4,430.6,392.6 M435.3,389.2
			c-0.1,0-0.4,0.1-0.3,0.2L435.3,389.2 M432.7,390.7c0.1-0.2-0.3,0-0.4,0c-0.1,0.2,0.3,0,0.5-0.1"/>
		<path class="st2" d="M377,346.7c0.2-0.2,0.4-0.3,0.3-0.3l-0.7,0.4c0,0,0,0,0,0.1c-0.6,0.2-1.2,0.5-1.8,0.8c-0.1,0,0.2,0,0.2,0
			l0.5-0.2c-0.3,0.4,1.1-0.5,1.9-0.8 M379.5,345.1c0.1-0.1,0.1-0.1,0-0.1c-0.3,0.2-0.6,0.4-1,0.5l0.5-0.3c-0.3,0.1-0.7,0.3-1,0.5
			c0.1,0.1,1.9-0.6,1.6-0.7 M387.4,341.1c-0.7,0.3-1.3,0.6-1.9,1c-0.4,0.3-0.8,0.6-1.3,0.9c0.5,0-1.5,0.8-1.7,0.9
			c-1.5,0.9-2.2,0.9-2,0.6c1.1-0.5,1.8-0.8,2.7-1.3s1.7-1,2.5-1.3c0.1,0.2,1.6-0.8,2-0.8 M391.8,339c-0.3,0.1-0.6,0.2-0.9,0.4
			c0.1,0,0.1,0,0.2,0l0.9-0.5"/>
		<path class="st2" d="M372.3,348.8c-1.1,0.7-2.3,1.2-3.5,1.7c-0.8,0.6-1.6,1-2.6,1.3c-0.5,0.4-1.2,0.7-1.7,1c0,0-0.2,0-0.2,0
			c-1,0.6-2,0.9-1.4,0.4c-0.5,0.2-0.9,0.4-1.2,0.5c0.5-0.3,1.1-0.6,1.6-0.9s0.7-0.5,1.1-0.8s1-0.4,1-0.3l0.5-0.3c0,0,0,0,0-0.1
			c0.4-0.2,0.8-0.4,1.2-0.5c-0.1,0.1-0.1,0.1-0.1,0.2c0.5-0.3,1-0.5,1.5-0.8c-0.1,0,0.1-0.2,0.1-0.2c0.2-0.1,0.5-0.2,0.7-0.3
			c-0.4-0.1,1.7-1,1.5-0.6c0.6-0.2,1.1-0.4,1.6-0.7c0.5-0.1,0.9-0.3,1.3-0.6c-0.7,0.4-1.4,0.7-1.9,1L372.3,348.8
			C372.2,348.9,372.3,348.8,372.3,348.8 M381.1,344.6c-0.6,0.3-1.9,0.9-1.7,0.7s1.3-0.7,0.7-0.2l0.9-0.4 M376.1,346.7
			c0.1,0,0.3-0.1,0.2,0s-0.4,0.2-0.6,0.3c0.2-0.1,0.1-0.1,0.7-0.4C376.3,346.6,376.2,346.7,376.1,346.7"/>
		<path class="st2" d="M361.1,354c-0.6,0.3-1.2,0.6-1.8,0.8c0.5-0.3,1.1-0.6,1.7-0.8 M377.5,346.1c-0.6,0.3-0.7,0.4-1.2,0.6
			c-0.4,0.2-0.8,0.4-1.2,0.6c-0.4,0.1-0.4,0.1,0.2-0.2l0.4-0.2l0.6-0.3C376.8,346.5,377.2,346.3,377.5,346.1c0.1,0,0.1,0,0.1,0"/>
		<path class="st2" d="M358.7,355.2c-0.4,0.2-0.8,0.4-1.2,0.7l-1.2,0.6c0,0,0.1,0,0.3,0c-0.9,0.6-1.9,1.2-2.9,1.6
			c-1,0.5-1,0.3-1,0.2s0.2-0.1,0-0.1s-0.5,0.2-0.6,0.2c0.5-0.3,1-0.6,1.5-0.6c0.1-0.1,0-0.1,0.1-0.2c0.1-0.1,0.2-0.1,0.3-0.2
			c0.4-0.3,0.9-0.5,1.3-0.7l1.8-0.8c0.7-0.3,1-0.4,1.5-0.6 M361.3,354.1c-0.3,0.1-2,1.1-2.1,1c0.3-0.2,0.7-0.4,1.1-0.5
			C360.7,354.4,360.9,354.2,361.3,354.1"/>
		<path class="st2" d="M351,358.9c0.4-0.1,0,0.1-0.4,0.3s-0.4,0.1-0.7,0.4s-0.2,0.2-0.3,0.2c-0.2,0.1-0.4,0.3-0.6,0.4
			c-0.2,0.1-0.3,0.1-0.5,0.1c-0.1,0,0.4-0.2,0.3-0.3s-1.3,0.6-1.6,0.7c-0.2,0.1-0.1,0.1-0.2,0.3s-0.5,0.4-0.7,0.5
			c-0.1,0-0.5,0.1-0.5,0.1s0.2-0.2,0.2-0.3s-0.6,0.3-1.1,0.4c0.3-0.2,0.6-0.4,1-0.6c0.8-0.4,0.7-0.4,0.6-0.5
			c0.5-0.3,1.1-0.5,1.7-0.7c0.4-0.2,1.2-0.6,1-0.6c0.6-0.3,0.7-0.3,1.2-0.5S351.3,358.7,351,358.9 M365.4,351.3
			c-0.2,0.1-1,0.4-1,0.5L365.4,351.3 M357.9,355c0.5-0.4-0.6,0.2-1,0.3c-0.4,0.4,0.7-0.2,1.3-0.5"/>
		<path class="st2" d="M338.5,365c-0.6,0.3-1.2,0.7-1.8,0.9c-0.4,0.2-0.9,0.5-1.4,0.6c0.2-0.2,0.5-0.4,0.8-0.5
			c0.2-0.1,0.5-0.2,0.7-0.3c0.2-0.2,0.7-0.5,0.7-0.3c0.4-0.2,1.2-0.6,1.1-0.5 M344.1,362.6c-0.1-0.1,0.2-0.3-0.2-0.2
			c-0.4,0.3-0.9,0.4-0.9,0.3c0.2-0.2,0.4-0.3,0.7-0.4c0.6-0.3,1.6-0.6,1.2-0.6c-0.9,0.3-1.7,0.7-2.5,1.2c-0.2,0.2,0.5-0.1,0.3,0.1
			c-0.3,0.2-0.6,0.3-0.9,0.4c-0.4,0.2-0.8,0.4-1.1,0.6c-0.3,0.2-0.6,0.4-0.9,0.6c-0.5,0.4,0.5-0.2,0.9-0.3c-0.4,0.3,0.4-0.1,0.7-0.1
			c0.3-0.3,0.7-0.5,1.1-0.6c0.2-0.1,0.4-0.1,0.6-0.3c0.2-0.1,0.4-0.2,0.3-0.2C343.7,362.9,343.9,362.7,344.1,362.6"/>
		<path class="st2" d="M338.8,365.1c-0.3,0.1-0.6,0.2-0.8,0.3c-0.3,0.1-0.1,0.1-0.5,0.3c0.4-0.3-0.9,0.4-1.2,0.5
			c-0.4,0.2-0.9,0.4-1.2,0.7c-0.2,0.1-0.5,0.3-0.7,0.4c0.7-0.2,1.4-0.5,2-0.9c0.2-0.1,0.7-0.4,0.9-0.5l0.9-0.4
			c0.3-0.1,0.6-0.3,0.9-0.5"/>
		<path class="st2" d="M302.9,382.9c0.2-0.1,0.6-0.4,0.6-0.5s-0.3,0.1-0.4,0.1c0.5-0.3,0.8-0.4,1.2-0.5s0.7-0.4,0.1-0.2
			c-0.2,0.1-1.1,0.5-0.7,0.3c0.1-0.1,0.8-0.4,1-0.5s-2,0.9-1.7,0.7c-0.2,0.1-0.4,0.1-0.5,0.2c0.1,0-0.3,0.2-0.5,0.3
			s-0.2,0.1-0.4,0.2s-0.2,0.2-0.5,0.3c0.3,0,0.5-0.1,0.1,0.1c0,0-0.2-0.1-0.5,0s-0.2,0.2-0.4,0.3s-0.4,0.2-0.5,0.2l-1.5,0.7
			c-0.3,0.1-0.6,0.3-0.9,0.4c0.3,0,0.8-0.3,0.7-0.1c0.2-0.1,0.3-0.2,0.6-0.3s0.9-0.4,1.1-0.5l-0.8,0.4c0.5-0.3,1-0.5,1.5-0.7
			c0.4-0.1,0,0.2,0.4,0.1c0.2-0.1,0.3-0.2,0.5-0.3s-0.2,0.2-0.1,0.2c0.4-0.1,0.7-0.3,1-0.5c0.4,0,0.7-0.2,1-0.4 M318.4,375.2
			c0.1-0.1,0.5-0.4,0.6-0.5l-1.5,0.7c0.1-0.1,0.4-0.2,0.6-0.4c-0.4,0.2-0.1-0.1-0.5,0.1c-0.2,0.1-0.7,0.3-1,0.4
			c-0.2,0.1-0.3,0.1-0.5,0.2c0.1-0.1,0.2-0.1,0.3-0.2c-0.6,0.2-1.2,0.5-1.7,0.9c-0.4,0.3-0.9,0.5-1.4,0.7c-0.5,0.3-1,0.6-1.5,0.8
			c-1,0.4-0.1-0.1-0.3-0.1c-0.5,0-2.9,1.5-2.2,1.3c-0.3,0.1-1.2,0.6-1.4,0.6c-0.4,0.1-0.1-0.1-0.8,0.1s-0.7,0.5-0.6,0.6l0.2-0.1
			c-0.3,0.2-1.1,0.6-1.6,0.8c0,0.1,0.6-0.1,1.1-0.4c0,0.1-0.7,0.4-0.6,0.5c0.3,0,0.5-0.1,0.8-0.3c0.1,0,0.4-0.2,0.5-0.2
			s0.2-0.1,0.3-0.1c0.3-0.1,0.4-0.1,0.6-0.3s-0.1,0-0.3,0s-1.2,0.5-1,0.3c0.6-0.3,1.1-0.6,1.7-0.9c0.8-0.4,0.1,0.2,0.7,0
			c0.3-0.1,0.4-0.2,0.7-0.3s-0.2,0.2,0.4-0.1c0.8-0.4,1.4-0.8,0.5-0.4c0.3-0.1,0.6-0.3,0.9-0.5c0.1-0.1-0.5,0.1-0.3,0
			c0.6-0.3,1.1-0.6,1.7-0.9c0.6-0.3,0.6-0.3,0.6-0.2s-0.3,0.3,0.1,0.2c0.2-0.1,0.5-0.2,0.8-0.3c0,0-0.1,0.1-0.1,0.1s0.3-0.1,0.4-0.1
			c0.5-0.3,0.1-0.2,0.8-0.6c0.3-0.1,0.6-0.3,0.8-0.4c0.2-0.1,0.1-0.1-0.1-0.1c0.4-0.2,0.9-0.4,1.4-0.5c0.4-0.1,0.7-0.2,1-0.4
			 M324,372.4l0.8-0.5c-0.1-0.1-0.7,0.1-1.4,0.4c0.2-0.1,0.3-0.2,0-0.1s-0.7,0.4-1,0.6s-0.5,0.2-1,0.4s-0.6,0.4-1.1,0.5
			c-0.2,0.1-0.2,0.2-0.3,0.3c0.2-0.1,0.5-0.2,0.7-0.3c-0.1,0.1-0.6,0.4,0,0.2s0.8-0.4,1.2-0.5c0.5-0.3,1-0.5,1.5-0.8h0.1
			C323.7,372.7,323.9,372.5,324,372.4 M328.6,370.1c-0.5,0.2-1.3,0.7-1.7,0.8s-0.2,0,0.2-0.2c-0.1-0.1,0-0.2-1,0.3
			c0.1,0,0.2,0,0.2,0s0,0.1,0,0.1c0.2,0.1,0.5,0,0.7,0c0.3-0.2,0.4-0.4,0.8-0.6c0.1-0.1,0.3-0.1,0.6-0.3S328.9,370,328.6,370.1
			C328.5,370.1,328.7,370.1,328.6,370.1 M331.7,368.8c-0.5,0.2-0.2,0.2-0.3,0.4c-0.4,0.2-0.8,0.5-1.2,0.7c-0.5,0.2-0.4,0.1-0.3,0
			c0.3-0.3,0.7-0.5,1.1-0.6c-0.1,0-0.2,0-0.3,0.1h-0.1c0,0,0-0.1,0,0s-0.4,0.2-0.5,0.2c-0.5,0.2,0-0.1-0.3-0.1
			c0.4-0.3,1.5-0.7,1.1-0.7c-0.1,0-0.5,0.1-0.4,0.1c0.2-0.2,0.5-0.3,0.8-0.4c0.5-0.2,0.5-0.1,0.7-0.1s0.4-0.1,0.5-0.1s0,0.1,0.4-0.1
			s0.5-0.3,0.5-0.4s-0.3,0-0.3,0s1.5-0.8,1.7-0.9c0,0.1,0.4-0.1,0.4,0s-0.7,0.4-0.4,0.3c-0.3,0.3-0.6,0.5-0.9,0.6
			C333.1,368.1,332.1,368.5,331.7,368.8"/>
		<path class="st2" d="M290,388.9c-0.2,0.1-0.5,0.2-0.8,0.4s-0.5,0.3-0.7,0.4c-0.5,0.3-1.4,0.7-1.9,0.9c0.1-0.1-0.1-0.1-0.2-0.1
			s-0.7,0.4-1,0.5s0.2,0.2-0.4,0.4s-0.3,0-0.3-0.1c-0.2,0.1-0.7,0.4-1,0.5c-0.2,0.1-0.5,0.2-0.7,0.3c0.1,0,0.3,0-0.4,0.5l-0.7,0.4
			l-0.5,0.3c-0.5,0.2-0.9,0.4-0.3,0s1.1-0.6,1.6-0.8c-0.2,0-0.3-0.1,0.5-0.5l2.7-1.3l2-1c0.3-0.1,0.6-0.3,0.9-0.4
			c0.2-0.1,0.4-0.2,0.6-0.2c-0.6,0.3-1.2,0.6-1.7,0.8l-0.9,0.5c0.1,0,0.3-0.1,0.5-0.1c0.8-0.4,2-0.9,2.7-1.2 M299,384.5
			c0.1-0.1,0.3-0.2,0.4-0.3c-0.3,0.1-0.6,0.3-1,0.5c0.2-0.2-0.3,0.1,0-0.1c-0.2,0.2-0.3,0.3-0.5,0.4l-1.2,0.6
			c0.1-0.1,0.1-0.1,0.2-0.2c-1,0.6-2,1.1-3,1.5c-0.1-0.1,0.8-0.4,1-0.5s0.3-0.2,0.6-0.3l0.5-0.2l0.4-0.2c0.2-0.1,0.4-0.2,0.6-0.3
			c-0.5,0.2-1,0.4-1.5,0.7c-0.8,0.4-1.6,0.8-2.4,1.1c-0.5,0.2-1.1,0.5-1.5,0.7c-0.2,0.1-0.4,0.3-0.7,0.4c-0.3,0.2-0.7,0.3-1,0.4
			c0.2-0.1,0.5-0.1,0.7-0.2c0.2-0.1,0.6-0.4,0.7-0.3l1-0.5c0.4-0.2,0.7-0.3,1-0.4c-0.1,0.1-0.2,0.2-0.3,0.2
			c-0.4,0.1-1.1,0.4-1.2,0.6l1-0.4l-0.2,0.1l0.4-0.2l-1.7,0.8c0.6-0.2,1.2-0.6,1.7-0.8l-0.3,0.2l0.7-0.3h0l2.6-1.3l2.8-1.4h0
			C298.8,384.6,298.9,384.5,299,384.5l0.1-0.1"/>
		<path class="st2" d="M299.5,383.9c-0.4,0.2-0.6,0.2-0.7,0.1c-0.3,0.2-0.5,0.5-0.7,0.6 M283.2,391.9c-0.3,0.1-0.5,0.2-0.8,0.3
			l0.2-0.1c-0.4,0.2-0.6,0.4-0.5,0.4c-0.5,0.2-1,0.4-1.4,0.7V393l-0.5,0.4c-0.4,0.2-0.7,0.4-1,0.6c0.3-0.1,0.7-0.2,1-0.4
			c-0.2,0.2-0.5,0.4-0.8,0.5c0.6-0.2,1.1-0.4,1.6-0.7c-0.3,0.3,0.5-0.1,0.8-0.3c-0.8,0.2,0.2-0.2,0.7-0.5c1.1-0.6,0.4-0.3,0.4-0.5
			l0.5-0.2C283.5,391.8,283.4,391.8,283.2,391.9"/>
		<path class="st2" d="M362.1,329.3c0.2-0.1,0.3-0.2,0.5-0.3c-0.2,0.1-0.7,0.3-1,0.4c0,0.1,0.2,0,0.6-0.2 M292.8,387.5
			c-0.4,0.2-1.1,0.6-1.7,0.9c0.2-0.1,0.4-0.2,0.5-0.4c0.3-0.1,0.5-0.2,0.8-0.3"/>
		<path class="st2" d="M356.7,332.1c0.1-0.1,0.3-0.2,0.2-0.2C356.5,332.1,356.7,332.1,356.7,332.1 M360.1,330.2
			c-0.4,0.2-0.8,0.4-1.2,0.5l1.1-0.5"/>
		<path class="st2" d="M342.8,338.6c0.2-0.1,0.4-0.2,0.3-0.3l-0.7,0.3v0.1c-0.6,0.2-1.2,0.4-1.7,0.7c-0.1,0,0.2,0,0.1,0l0.4-0.2
			c-0.3,0.4,1.1-0.5,1.8-0.7 M345.1,337.2c0.1-0.1,0.1-0.1,0.1-0.1c-0.3,0.2-0.6,0.4-0.9,0.5l0.5-0.3c-0.3,0.1-0.6,0.2-1,0.4
			c0.1,0.1,1.8-0.6,1.5-0.6 M352.7,333.6c-0.6,0.3-1.3,0.6-1.9,0.9c-0.4,0.3-0.8,0.6-1.2,0.8c0.5,0-1.4,0.8-1.7,0.8
			c-1.4,0.8-2.1,0.8-1.9,0.5c1-0.4,1.7-0.8,2.6-1.2s1.6-0.9,2.4-1.2c0.1,0.2,1.5-0.7,1.9-0.7 M356.9,331.7c-0.3,0.1-0.6,0.2-0.9,0.4
			c0.1,0,0.1,0,0.2,0c0.3-0.1,0.6-0.4,0.8-0.5"/>
		<path class="st2" d="M338.3,340.5c-1.1,0.6-2.2,1.1-3.3,1.6c-0.7,0.5-1.6,0.9-2.5,1.1c-0.5,0.3-1.2,0.6-1.6,0.9c0,0-0.2,0-0.2,0
			c-1,0.6-1.9,0.8-1.3,0.4c-0.4,0.2-0.9,0.4-1.1,0.5c0.4-0.3,1.1-0.5,1.6-0.8s0.6-0.5,1-0.7s0.9-0.3,1-0.2l0.4-0.2c0,0,0,0,0-0.1
			c0.4-0.2,0.8-0.4,1.2-0.5c-0.1,0.1-0.1,0.1-0.1,0.2c0.5-0.3,0.9-0.5,1.4-0.7c-0.1,0,0.1-0.2,0.1-0.2c0.2-0.1,0.5-0.2,0.7-0.3
			c-0.4-0.1,1.6-0.9,1.4-0.5c0.5-0.2,1.1-0.4,1.6-0.7c0.4-0.1,0.9-0.3,1.3-0.5c-0.6,0.4-1.3,0.7-1.8,0.9L338.3,340.5
			C338.2,340.7,338.3,340.5,338.3,340.5 M346.7,336.8c-0.5,0.3-1.8,0.8-1.7,0.6s1.2-0.6,0.7-0.2l0.8-0.4 M341.9,338.6
			c0,0,0.2-0.1,0.1,0s-0.3,0.2-0.6,0.3c0.1-0.1,0.1-0.1,0.7-0.4C342.2,338.6,342,338.7,341.9,338.6"/>
		<path class="st2" d="M327.6,345.2c-0.5,0.3-1.1,0.5-1.7,0.8C326.4,345.7,327,345.5,327.6,345.2 M343.3,338.1
			c-0.5,0.3-0.6,0.3-1.1,0.6c-0.4,0.2-0.7,0.4-1.1,0.5c-0.4,0.1-0.4,0.1,0.2-0.2c0.1,0,0.3-0.1,0.4-0.1l0.6-0.3
			C342.3,338.7,343.1,338.2,343.3,338.1c0.1,0,0.1,0,0.1,0"/>
		<path class="st2" d="M325.3,346.4c-0.4,0.1-0.8,0.4-1.1,0.6l-1.1,0.5c0,0,0,0,0.3,0c-0.9,0.6-1.8,1.1-2.8,1.5
			c-1,0.4-0.9,0.3-0.9,0.2s0.2-0.1,0-0.1s-0.5,0.2-0.6,0.2c0.4-0.3,0.9-0.5,1.5-0.5c0.1-0.1,0-0.1,0.1-0.2c0.1-0.1,0.2-0.1,0.3-0.2
			c0.4-0.2,0.8-0.5,1.3-0.7l1.7-0.8C324.4,346.6,324.7,346.6,325.3,346.4 M327.9,345.4c-0.3,0.1-2,1-2,0.9s0.9-0.4,1-0.5
			C327.2,345.7,327.5,345.5,327.9,345.4"/>
		<path class="st2" d="M318,349.7c0.4-0.1,0,0.1-0.3,0.2c-0.2,0.1-0.5,0.2-0.7,0.3c-0.2,0.1-0.2,0.1-0.3,0.2
			c-0.2,0.1-0.4,0.2-0.6,0.4c-0.1,0-0.4,0.1-0.5,0.1s0.3-0.2,0.2-0.2s-1.2,0.5-1.5,0.6c-0.2,0.1-0.1,0.1-0.2,0.3s-0.5,0.4-0.7,0.5
			c-0.1,0-0.4,0.1-0.5,0.1s0.2-0.2,0.2-0.2s-0.6,0.3-1,0.4c0.3-0.2,0.6-0.4,1-0.5c0.8-0.3,0.6-0.4,0.6-0.4c0.5-0.2,1.1-0.4,1.6-0.6
			c0.4-0.2,1.1-0.5,1-0.6c0.4-0.2,0.7-0.3,1.1-0.4c0.4-0.2,0.9-0.4,0.6-0.1 M331.8,342.8c-0.2,0.1-0.9,0.3-0.9,0.4L331.8,342.8
			 M324.6,346.1c0.5-0.3-0.6,0.1-1,0.3c-0.4,0.4,0.7-0.1,1.2-0.4"/>
		<path class="st2" d="M306,355.3c-0.6,0.3-1.2,0.6-1.8,0.8c-0.4,0.2-0.8,0.4-1.3,0.5c0.2-0.2,0.5-0.3,0.8-0.5
			c0.2-0.1,0.4-0.2,0.7-0.2c0.2-0.1,0.7-0.5,0.6-0.3c0.4-0.2,1.2-0.5,1.1-0.4 M311.4,353.1c-0.1-0.1,0.1-0.3-0.2-0.2
			c-0.4,0.2-0.9,0.4-0.8,0.3c0.2-0.2,0.4-0.3,0.6-0.4c0.5-0.3,1.5-0.6,1.2-0.6c-0.9,0.2-1.7,0.6-2.4,1.1c-0.2,0.2,0.5-0.1,0.3,0.1
			c-0.3,0.2-0.6,0.3-0.9,0.3c-0.4,0.2-0.8,0.4-1.1,0.6c-0.3,0.2-0.5,0.4-0.9,0.5c-0.5,0.4,0.5-0.1,0.8-0.3c-0.3,0.3,0.4,0,0.7,0
			c0.3-0.2,0.7-0.4,1.1-0.5c0.2,0,0.4-0.1,0.6-0.2c0.2-0.1,0.4-0.2,0.3-0.2C310.9,353.4,311.2,353.3,311.4,353.1"/>
		<path class="st2" d="M306.3,355.4c-0.3,0.1-0.6,0.2-0.8,0.3c-0.2,0.1-0.1,0.1-0.5,0.3c0.4-0.3-0.9,0.3-1.2,0.5
			c-0.4,0.2-0.8,0.4-1.2,0.6c-0.2,0.1-0.4,0.2-0.7,0.3c0.7-0.2,1.3-0.4,1.9-0.8c0.2-0.1,0.6-0.4,0.9-0.5l0.8-0.4
			C305.8,355.7,306.1,355.5,306.3,355.4"/>
		<path class="st2" d="M272.1,371.8c0.2-0.1,0.6-0.4,0.6-0.4s-0.3,0.1-0.4,0.1c0.5-0.2,0.7-0.3,1.1-0.5s0.7-0.4,0.1-0.1
			c-0.2,0.1-1,0.5-0.6,0.2c0.3-0.2,0.6-0.3,0.9-0.5c0.1-0.2-1.9,0.8-1.6,0.6c-0.2,0-0.3,0.1-0.5,0.2c0.1,0-0.3,0.2-0.5,0.3
			s-0.2,0.1-0.4,0.2s-0.2,0.2-0.4,0.3c0.3,0,0.5-0.1,0.1,0.1c0,0-0.2-0.1-0.5,0s-0.2,0.2-0.4,0.2s-0.4,0.2-0.5,0.2l-1.4,0.7
			c-0.3,0.1-0.6,0.3-0.8,0.4c0.2,0,0.7-0.3,0.6-0.1c0.2-0.1,0.3-0.2,0.5-0.3c0.4-0.2,0.7-0.3,1.1-0.5l-0.8,0.4
			c0.4-0.3,0.9-0.5,1.4-0.7c0.4-0.1,0,0.2,0.4,0.1c0.2-0.1,0.3-0.2,0.5-0.3s-0.2,0.2-0.1,0.2c0.3-0.1,0.7-0.3,1-0.5
			c0.4,0,0.7-0.1,1-0.3 M286.9,364.6c0.1-0.1,0.5-0.4,0.6-0.5l-1.4,0.7c0.2-0.1,0.4-0.2,0.6-0.4c-0.4,0.2-0.1-0.1-0.5,0.1
			c-0.2,0.1-0.7,0.3-0.9,0.4c-0.2,0.1-0.3,0.1-0.5,0.2c0.1-0.1,0.2-0.1,0.3-0.2c-0.6,0.2-1.1,0.5-1.6,0.8c-0.4,0.3-0.8,0.5-1.3,0.6
			c-0.4,0.3-0.9,0.5-1.4,0.7c-1,0.4-0.1-0.1-0.3-0.1c-0.4,0-2.8,1.4-2.1,1.2c-0.3,0.1-1.1,0.5-1.3,0.6c-0.4,0.1-0.1-0.1-0.7,0.1
			s-0.6,0.5-0.6,0.6l0.1-0.1c-0.3,0.2-1.1,0.5-1.5,0.7c0,0.1,0.5-0.1,1-0.4c0,0.1-0.7,0.4-0.5,0.5c0.3,0,0.5-0.1,0.7-0.2l0.4-0.2
			c0.1,0,0.2-0.1,0.3-0.1c0.3-0.1,0.4-0.1,0.6-0.3s-0.1,0-0.3,0s-1.1,0.5-1,0.3c0.5-0.3,1.1-0.6,1.6-0.8c0.8-0.3,0.1,0.2,0.7,0
			c0.3-0.1,0.4-0.2,0.6-0.3s-0.2,0.2,0.4-0.1s1.3-0.7,0.4-0.4c0.3-0.1,0.6-0.2,0.8-0.4c0.1-0.1-0.5,0.1-0.3,0
			c0.5-0.3,1.1-0.6,1.6-0.8c0.6-0.2,0.5-0.3,0.6-0.2s-0.3,0.3,0.1,0.2c0.2-0.1,0.5-0.2,0.7-0.3c0,0-0.1,0.1-0.1,0.1s0.3-0.1,0.4-0.1
			c0.5-0.3,0.1-0.2,0.8-0.6c0.3-0.1,0.5-0.2,0.8-0.4c0.1-0.1,0.1-0.1-0.1-0.1c0.4-0.2,0.8-0.4,1.3-0.5c0.3-0.1,0.6-0.2,0.9-0.4
			 M292.2,362c0.2-0.1,0.5-0.3,0.8-0.4c-0.1-0.1-0.7,0.1-1.3,0.4c0.2-0.1,0.3-0.2,0-0.1s-0.6,0.4-1,0.5s-0.5,0.2-1,0.4
			s-0.6,0.3-1,0.5c-0.1,0.1-0.2,0.2-0.2,0.3c0.2-0.1,0.4-0.2,0.7-0.3c-0.1,0.1-0.6,0.4,0,0.2s0.8-0.4,1.1-0.5
			c0.4-0.3,0.9-0.5,1.4-0.7h0.1C291.9,362.2,292.1,362.1,292.2,362 M296.5,359.9c-0.4,0.2-1.3,0.6-1.6,0.7s-0.2,0,0.2-0.2
			c-0.1-0.1,0-0.2-1,0.3c0.1,0,0.2,0,0.2,0s0,0.1,0,0.1c0.2,0.1,0.4,0.1,0.7,0c0.3-0.2,0.4-0.4,0.8-0.6c0.1-0.1,0.3-0.1,0.6-0.2
			S296.7,359.8,296.5,359.9L296.5,359.9 M299.4,358.7c-0.4,0.2-0.1,0.2-0.3,0.4c-0.4,0.2-0.8,0.4-1.2,0.6c-0.4,0.2-0.4,0-0.3-0.1
			c0.3-0.3,0.7-0.5,1.1-0.6c-0.1,0-0.2,0-0.3,0.1h-0.1c0,0,0-0.1,0,0s-0.4,0.2-0.5,0.2c-0.5,0.2,0-0.1-0.3-0.1
			c0.4-0.3,1.4-0.6,1-0.6c-0.1,0-0.4,0.1-0.4,0c0.2-0.2,0.5-0.3,0.8-0.4c0.4-0.2,0.5,0,0.6-0.1s0.4-0.1,0.5-0.1s0,0.1,0.4-0.1
			s0.5-0.3,0.4-0.3s-0.3,0-0.3,0c0.5-0.3,1.1-0.6,1.6-0.8c0,0.1,0.4-0.1,0.4,0s-0.6,0.4-0.4,0.3c-0.3,0.3-0.6,0.5-0.9,0.6
			C300.8,358.1,299.8,358.4,299.4,358.7"/>
		<path class="st2" d="M259.9,377.4l-0.7,0.3l-0.7,0.4c-0.5,0.3-1.3,0.7-1.8,0.9c0.1-0.1-0.1-0.1-0.2-0.1s-0.7,0.3-0.9,0.4
			s0.2,0.2-0.4,0.4s-0.3,0-0.3-0.1c-0.2,0.1-0.7,0.4-0.9,0.5c-0.2,0.1-0.4,0.2-0.6,0.3c0.1,0,0.3,0.1-0.4,0.4l-0.7,0.3l-0.5,0.3
			c-0.4,0.2-0.8,0.3-0.3,0s1.1-0.6,1.5-0.8c-0.2,0-0.3-0.1,0.5-0.5l2.6-1.2l1.9-1l0.8-0.4c0.2-0.1,0.4-0.2,0.5-0.2
			c-0.5,0.3-1.2,0.5-1.6,0.8l-0.9,0.5c0.1,0,0.3-0.1,0.4-0.1C258,378.1,259.1,377.7,259.9,377.4 M268.5,373.2
			c0.1-0.1,0.3-0.2,0.4-0.3c-0.2,0.1-0.6,0.3-0.9,0.4c0.2-0.2-0.3,0,0-0.1c-0.1,0.2-0.3,0.3-0.5,0.4l-1.2,0.5
			c0.1-0.1,0.1-0.1,0.2-0.2c-0.9,0.6-1.9,1.1-2.8,1.5c-0.1-0.1,0.7-0.4,1-0.5s0.3-0.2,0.6-0.3l0.4-0.2l0.4-0.2
			c0.2-0.1,0.4-0.2,0.6-0.3c-0.5,0.1-1,0.4-1.5,0.6c-0.7,0.4-1.5,0.7-2.3,1.1c-0.4,0.2-1,0.4-1.4,0.7c-0.2,0.1-0.4,0.2-0.7,0.4
			s-0.6,0.2-1,0.4c0.2-0.1,0.4-0.1,0.6-0.2c0.2-0.1,0.6-0.3,0.7-0.3l0.9-0.5c0.4-0.2,0.6-0.3,1-0.4c0,0.1-0.2,0.2-0.3,0.2
			c-0.4,0.1-1.1,0.4-1.1,0.5l0.9-0.4l-0.1,0.1l0.3-0.2l-1.6,0.8c0.5-0.2,1.1-0.5,1.6-0.8l-0.3,0.2l0.7-0.3l0,0l2.5-1.2l2.6-1.3l0,0
			c0.1-0.1,0.2-0.1,0.4-0.1l0.1-0.1"/>
		<path class="st2" d="M249.2,382.6c-0.2,0-0.2-0.2-0.2-0.3l-1.5,0.8c0.4-0.1,0.7-0.2,1.1-0.5c-0.5,0.3-0.5,0.4-0.1,0.3
			c0.3-0.2,0.7-0.4,1-0.6 M253.5,380.2c-0.3,0.1-0.5,0.2-0.8,0.3l0.2-0.1c-0.4,0.2-0.6,0.4-0.5,0.4c-0.5,0.2-0.9,0.4-1.3,0.6v-0.2
			l-0.5,0.4c-0.4,0.2-0.7,0.4-1,0.5c0.3-0.1,0.6-0.2,0.9-0.4c-0.2,0.2-0.5,0.4-0.7,0.5c0.5-0.2,1.1-0.4,1.6-0.7
			c-0.3,0.3,0.4-0.1,0.8-0.3c-0.8,0.2,0.2-0.2,0.7-0.5c1-0.6,0.4-0.3,0.4-0.5C253.3,380.3,253.4,380.2,253.5,380.2
			C253.7,380.1,253.6,380.1,253.5,380.2"/>
		<path class="st2" d="M268.9,372.7c-0.4,0.1-0.6,0.2-0.6,0.1c-0.3,0.2-0.5,0.5-0.7,0.6 M248.1,382.6c-0.4,0.2-1.1,0.5-1.1,0.5
			c0.4-0.2,1-0.4,1.4-0.6C248.3,382.5,248.2,382.6,248.1,382.6"/>
		<path class="st2" d="M245.4,384.2c-0.8,0.5-1,0.7-1,0.9c0-0.1-0.5,0-0.7,0c-0.2,0.1-0.3,0.2-0.5,0.4c0.1-0.1,0-0.1,0.1-0.1
			c-0.1,0.1-0.4,0.2-0.5,0.3h-0.1c-0.2,0.1-0.8,0.6-0.8,0.4c-0.6,0.4-1,0.5-1.1,0.4c1.1-0.5,2.1-1,3.1-1.5c-0.1-0.1,0-0.2,0.4-0.4
			c0.1,0,0.2,0,0.3,0s0.2-0.2,0.2-0.2c0.7-0.2,0.1,0.2,0.9-0.1 M247.5,383.2c-0.2,0.2-0.2,0.3-0.4,0.5c0.1-0.1,0-0.2-0.1-0.2
			l-0.6,0.3c-0.1,0-0.2,0-0.2,0l1.4-0.7 M262.5,376.1c-0.4,0.2-1,0.5-1.6,0.8c0.2-0.1,0.3-0.2,0.5-0.4c0.2-0.1,0.5-0.2,0.8-0.3"/>
		<path class="st2" d="M241.1,386.1c0,0,0,0-0.1,0s-0.4,0.3-0.6,0.4h-0.1c-0.4,0.3-0.5,0.5-0.2,0.4c-0.6,0.3-1.5,0.8-1.4,0.9l0,0
			c-0.6,0.2-1.5,0.7-2.1,1c0.4-0.2,0.8-0.5,1.3-0.7c-1.6,0.7-3.4,1.6-5,2.4c-1.4,0.7-2.7,1.5-4.1,2.1v-0.1c0.8-0.4,2.4-1.2,3-1.6
			c-0.9,0.4-0.6,0.1-0.2-0.2c0.3-0.1,0.6-0.2,0.9-0.2c0-0.2,0.9-0.7,1.5-0.8l0.1-0.1c0.1,0,0.3-0.1,0.3,0s0-0.1-0.1-0.1
			c0.8-0.4,0.2,0.1,1.5-0.6c1.8-0.9-0.4,0,0.6-0.5l0.8-0.3c0,0.1,0.1,0,0.2,0c0.1-0.2,0-0.2,0.5-0.5c0.1,0,0.2,0,0.3,0.1
			c0.2-0.1,0.2-0.2,0.2-0.3c0.4-0.2,0.9-0.4,1.3-0.6l-0.1,0.2c0.1-0.2,0.9-0.6,1.6-1C241,385.9,241,386,241.1,386.1"/>
		<path class="st2" d="M292.2,336.7c0.2-0.1,0.3-0.2,0.4-0.3c-0.2,0.1-0.6,0.3-0.9,0.4C291.8,336.9,292,336.8,292.2,336.7
			 M226.3,393.7c0.6-0.3,2.1-1,1.8-1c0.6-0.4,1.4-0.7,1.9-1c-0.5,0.1-0.9,0.3-1.3,0.6c0.3-0.2,0.7-0.4,1.1-0.6
			c-0.9,0.4-1.7,0.8-2.5,1.3l-2.4,1.2c0.3-0.1,0.3,0,0.1,0.1c-0.8,0.3-0.8,0.6-0.8,0.6c0.5-0.2,0.7-0.4,1.1-0.6S226,394,226.3,393.7
			"/>
		<path class="st2" d="M287.4,339.5c0.1-0.1,0.2-0.2,0.2-0.2C287.3,339.5,287.4,339.4,287.4,339.5 M290.4,337.5
			c-0.3,0.3-0.7,0.4-1.1,0.5L290.4,337.5"/>
		<path class="st2" d="M275.1,346c0.2-0.1,0.3-0.2,0.2-0.3l-0.6,0.3v0.1c-0.5,0.2-1.1,0.4-1.5,0.7c-0.1,0,0.2,0,0.1,0l0.4-0.2
			c-0.2,0.4,1-0.5,1.6-0.7 M277.1,344.5c0.1-0.1,0.1-0.1,0-0.1c-0.2,0.2-0.5,0.4-0.8,0.5l0.4-0.2c-0.3,0.1-0.6,0.3-0.9,0.4
			c0.1,0.1,1.6-0.6,1.3-0.6 M283.8,341c-0.6,0.3-1.1,0.6-1.6,0.9c-0.3,0.3-0.7,0.6-1.1,0.8c0.4,0-1.2,0.7-1.5,0.8
			c-1.2,0.8-1.9,0.8-1.8,0.5c0.9-0.4,1.5-0.8,2.3-1.2s1.5-0.9,2.1-1.2c0.1,0.2,1.4-0.7,1.8-0.7 M287.6,339c-0.3,0.1-0.5,0.2-0.8,0.4
			c0,0,0.1,0,0.1,0c0.2-0.1,0.6-0.3,0.7-0.4"/>
		<path class="st2" d="M271,347.9c-0.9,0.6-2,1.1-3,1.5c-0.7,0.5-1.4,0.9-2.2,1.1c-0.4,0.3-1.1,0.6-1.5,0.9c0,0-0.2,0-0.2,0
			c-0.9,0.5-1.7,0.8-1.2,0.4c-0.4,0.2-0.8,0.4-1,0.4c0.4-0.3,1-0.5,1.4-0.8s0.6-0.5,0.9-0.7s0.8-0.3,0.9-0.2l0.4-0.2c0,0,0,0,0-0.1
			c0.3-0.2,0.7-0.4,1.1-0.5c-0.1,0.1-0.1,0.1-0.1,0.2c0.4-0.3,0.8-0.5,1.3-0.7c-0.1,0,0.1-0.2,0.1-0.2c0.2-0.1,0.5-0.2,0.6-0.3
			c-0.3-0.1,1.4-0.9,1.3-0.5c0.5-0.2,1-0.4,1.4-0.6c0.4-0.1,0.8-0.3,1.1-0.5c-0.6,0.4-1.2,0.6-1.6,0.9L271,347.9L271,347.9
			 M278.6,344.2c-0.5,0.3-1.6,0.8-1.5,0.6s1.1-0.6,0.6-0.2l0.8-0.4 M274.2,346c0,0,0.2-0.1,0.1,0c-0.2,0.1-0.3,0.2-0.5,0.3
			c0.1-0.1,0.1-0.1,0.6-0.4C274.4,345.9,274.3,346,274.2,346"/>
		<path class="st2" d="M261.3,352.5c-0.5,0.3-1,0.5-1.5,0.7C260.3,352.9,260.8,352.7,261.3,352.5 M275.5,345.5
			c-0.5,0.3-0.6,0.3-1,0.6c-0.3,0.2-0.7,0.4-1,0.5c-0.4,0.1-0.4,0.1,0.1-0.2l0.4-0.1l0.5-0.3C274.6,346.1,275.3,345.6,275.5,345.5
			C275.6,345.5,275.6,345.5,275.5,345.5"/>
		<path class="st2" d="M259.2,353.5c-0.4,0.1-0.7,0.4-1,0.6l-1,0.5c0,0,0,0,0.2,0c-0.8,0.6-1.6,1.1-2.5,1.5
			c-0.9,0.4-0.8,0.3-0.9,0.1s0.2-0.1,0.1-0.1s-0.4,0.2-0.6,0.2c0.4-0.3,0.9-0.5,1.3-0.5c0.1-0.1,0-0.1,0-0.2s0.1-0.1,0.2-0.2
			c0.4-0.2,0.7-0.5,1.2-0.6l1.5-0.7C258.4,353.8,258.7,353.7,259.2,353.5 M261.6,352.6c-0.6,0.3-1.2,0.6-1.8,0.9
			c-0.1-0.1,0.8-0.4,0.9-0.5S261.2,352.7,261.6,352.6"/>
		<path class="st2" d="M252.6,356.8c0.3-0.1,0,0.1-0.3,0.2c-0.2,0.1-0.4,0.2-0.6,0.3c-0.2,0.1-0.1,0.2-0.2,0.2
			c-0.2,0.1-0.3,0.2-0.5,0.4c-0.1,0-0.4,0.1-0.4,0.1s0.3-0.2,0.2-0.2s-1.1,0.5-1.4,0.6s-0.1,0.1-0.2,0.3s-0.4,0.3-0.6,0.5
			c0,0-0.4,0.1-0.5,0.1s0.2-0.2,0.2-0.2s-0.5,0.3-0.9,0.3c0.3-0.3,0.3-0.2,0.9-0.5s0.6-0.4,0.5-0.4c0.5-0.2,1-0.4,1.5-0.5
			c0.3-0.2,1-0.5,0.9-0.6c0.3-0.2,0.7-0.3,1-0.4C252.5,356.7,252.9,356.5,252.6,356.8 M265,350.1c-0.2,0.1-0.8,0.3-0.8,0.4
			L265,350.1 M258.5,353.3c0.5-0.3-0.5,0.1-0.9,0.2c-0.4,0.4,0.6-0.1,1.1-0.4"/>
		<path class="st2" d="M241.8,362c-0.5,0.3-1,0.6-1.6,0.8c-0.4,0.2-0.8,0.4-1.2,0.5c0.2-0.2,0.4-0.3,0.7-0.4
			c0.2-0.1,0.4-0.2,0.6-0.2c0.2-0.1,0.6-0.4,0.6-0.3c0.3-0.1,1.1-0.5,1-0.4 M246.7,360c-0.1-0.1,0.1-0.3-0.2-0.2
			c-0.4,0.2-0.8,0.4-0.8,0.2c0.2-0.1,0.4-0.3,0.6-0.4c0.5-0.3,1.4-0.5,1.1-0.6c-0.8,0.2-1.5,0.5-2.2,1c-0.2,0.2,0.5-0.1,0.3,0.1
			c-0.2,0.2-0.5,0.3-0.8,0.3c-0.3,0.2-0.7,0.4-1,0.5c-0.2,0.2-0.5,0.4-0.8,0.5c-0.4,0.3,0.5-0.1,0.7-0.3c-0.3,0.3,0.3,0,0.6,0
			c0.3-0.2,0.6-0.4,1-0.5c0.2,0,0.4-0.1,0.5-0.2c0.2-0.1,0.3-0.2,0.3-0.2C246.3,360.2,246.6,360.1,246.7,360"/>
		<path class="st2" d="M242.1,362.2c-0.3,0.1-0.5,0.1-0.7,0.3c-0.2,0.1-0.1,0.1-0.4,0.3c0.4-0.3-0.8,0.3-1.1,0.4
			c-0.4,0.1-0.8,0.3-1.1,0.6c-0.2,0.1-0.4,0.2-0.6,0.3c0.6-0.2,1.2-0.4,1.7-0.7c0.2-0.1,0.6-0.3,0.8-0.4l0.8-0.3
			C241.7,362.4,241.9,362.3,242.1,362.2"/>
		<path class="st2" d="M210.9,377.2c0.2-0.1,0.6-0.4,0.5-0.4s-0.3,0-0.4,0c0.4-0.2,0.7-0.3,1-0.5s0.6-0.4,0.1-0.1
			c-0.2,0.1-1,0.5-0.6,0.2c0.3-0.2,0.6-0.3,0.9-0.4c0.1-0.2-1.7,0.7-1.5,0.5c-0.2,0-0.3,0.1-0.4,0.2c0.1,0-0.2,0.2-0.5,0.3
			c-0.1,0-0.2,0.1-0.3,0.1c-0.2,0.1-0.2,0.1-0.4,0.2c0.2,0,0.4-0.1,0.1,0.1c0,0-0.2-0.1-0.5,0s-0.2,0.1-0.4,0.2s-0.3,0.1-0.5,0.2
			l-1.3,0.6c-0.3,0.1-0.5,0.2-0.8,0.4c0.2,0,0.7-0.2,0.6-0.1c0.2-0.1,0.3-0.2,0.5-0.3s0.8-0.3,1-0.4l-0.7,0.3
			c0.4-0.2,0.8-0.4,1.3-0.6c0.3-0.1,0,0.2,0.4,0.1c0.1-0.1,0.3-0.2,0.5-0.3s-0.2,0.2-0.1,0.2c0.3-0.1,0.6-0.2,0.9-0.4
			c0.3,0,0.6-0.1,0.9-0.3 M224.3,370.7c0.2-0.1,0.4-0.3,0.5-0.5l-1.3,0.6c0.1-0.1,0.3-0.2,0.5-0.3c-0.4,0.1-0.1-0.1-0.5,0.1
			c-0.2,0.1-0.6,0.3-0.8,0.4c-0.2,0.1-0.3,0.1-0.5,0.1c0.1-0.1,0.2-0.1,0.2-0.2c-0.5,0.2-1,0.4-1.5,0.8c-0.4,0.2-0.8,0.4-1.2,0.6
			c-0.4,0.3-0.8,0.5-1.3,0.7c-0.9,0.4-0.1-0.1-0.3-0.1c-0.4,0-2.6,1.2-1.9,1.1c-0.2,0.1-1,0.5-1.2,0.5c-0.4,0.1-0.1-0.1-0.7,0
			s-0.6,0.5-0.6,0.6l0.1-0.1c-0.2,0.2-1,0.5-1.4,0.6c0,0.1,0.5-0.1,0.9-0.3c0,0.1-0.6,0.4-0.5,0.4c0.2,0,0.5-0.1,0.7-0.2l0.4-0.2
			l0.3-0.1c0.3-0.1,0.4-0.1,0.5-0.3s-0.1,0-0.3,0s-1,0.5-0.9,0.2c0,0,1.1-0.6,1.5-0.8c0.7-0.3,0.1,0.2,0.6,0
			c0.3-0.1,0.3-0.2,0.6-0.2s-0.2,0.2,0.4-0.1s1.2-0.7,0.4-0.4c0.3-0.1,0.5-0.2,0.8-0.4c0.1-0.1-0.4,0.1-0.3,0c0.5-0.3,1-0.5,1.5-0.7
			c0.5-0.2,0.5-0.3,0.5-0.2s-0.3,0.3,0.1,0.2s0.3-0.2,0.7-0.3c0,0-0.1,0.1-0.1,0.1s0.2,0,0.3-0.1c0.4-0.3,0.1-0.2,0.7-0.5
			c0.2-0.1,0.5-0.2,0.7-0.4c0.1-0.1,0.1-0.1-0.1-0.1c0.4-0.2,0.8-0.3,1.2-0.4C223.7,371,224,370.9,224.3,370.7 M229.2,368.3
			c0.2-0.1,0.4-0.3,0.7-0.4c-0.1-0.1-0.6,0.1-1.2,0.3c0.2-0.1,0.3-0.2,0-0.1s-0.6,0.4-0.9,0.5s-0.5,0.1-0.9,0.3s-0.6,0.3-0.9,0.5
			c-0.1,0.1-0.2,0.2-0.2,0.3c0.2-0.1,0.4-0.2,0.6-0.2c-0.1,0.1-0.5,0.4,0,0.2s0.7-0.4,1-0.4c0.4-0.2,0.8-0.5,1.3-0.6h0.1
			C228.9,368.5,229.1,368.4,229.2,368.3 M233.2,366.3c-0.4,0.2-1.1,0.6-1.5,0.7s-0.2,0,0.2-0.2c-0.1-0.1,0-0.2-0.9,0.2
			c0.1,0,0.2,0,0.2,0s0,0.1,0,0.1c0.2,0.1,0.4,0.1,0.6,0c0.3-0.2,0.3-0.4,0.7-0.5c0.2-0.1,0.4-0.1,0.5-0.2
			C233.3,366.3,233.4,366.2,233.2,366.3C233.1,366.3,233.2,366.3,233.2,366.3 M235.8,365.2c-0.4,0.2-0.1,0.2-0.3,0.4
			c-0.3,0.2-0.7,0.4-1.1,0.6c-0.4,0.1-0.4,0-0.3-0.1c0.3-0.2,0.6-0.4,1-0.5c-0.1,0-0.2,0-0.3,0.1h-0.1c0,0,0,0,0,0s-0.3,0.2-0.5,0.2
			c-0.5,0.2-0.1-0.1-0.2-0.1c0.4-0.2,1.3-0.6,0.9-0.6c-0.1,0-0.4,0.1-0.3,0c0.2-0.2,0.4-0.3,0.7-0.4c0.4-0.2,0.4,0,0.6,0
			s0.3-0.1,0.4-0.1s0,0.1,0.3,0s0.4-0.3,0.4-0.3s-0.3,0-0.2,0c0.5-0.3,1-0.5,1.5-0.7c0,0.1,0.3-0.1,0.4,0s-0.6,0.4-0.3,0.3
			c-0.2,0.2-0.5,0.4-0.8,0.6C237.1,364.6,236.2,365,235.8,365.2"/>
		<path class="st2" d="M199.6,382.1l-0.7,0.3c-0.2,0.1-0.4,0.2-0.6,0.3c-0.5,0.2-1.2,0.6-1.7,0.8c0.1-0.1-0.1-0.1-0.2-0.1
			s-0.6,0.3-0.8,0.4s0.2,0.2-0.3,0.4s-0.3-0.1-0.3-0.1c-0.2,0.1-0.6,0.3-0.8,0.4c-0.2,0.1-0.4,0.2-0.6,0.3c0.1,0.1,0.3,0.1-0.4,0.4
			c-0.2,0.1-0.4,0.2-0.6,0.3l-0.5,0.2c-0.4,0.2-0.8,0.3-0.3,0s1-0.5,1.4-0.7c-0.1-0.1-0.2-0.1,0.5-0.5l2.4-1.1l1.8-0.8l0.8-0.3
			c0.2-0.1,0.3-0.1,0.5-0.1c-0.5,0.2-1.1,0.5-1.5,0.7l-0.8,0.4c0.1,0,0.3,0,0.4,0C197.9,382.8,198.9,382.4,199.6,382.1 M207.6,378.5
			c0.1-0.1,0.2-0.2,0.3-0.2c-0.2,0.1-0.6,0.3-0.8,0.4c0.2-0.1-0.3,0,0-0.1c-0.1,0.1-0.3,0.3-0.4,0.3l-1.1,0.5l0.2-0.2
			c-0.8,0.5-1.7,0.9-2.6,1.3c-0.1-0.1,0.7-0.3,0.9-0.5s0.3-0.2,0.5-0.3l0.4-0.2l0.3-0.2c0.2-0.1,0.4-0.2,0.5-0.3
			c-0.5,0.1-0.9,0.3-1.3,0.5c-0.7,0.3-1.4,0.6-2.1,1c-0.4,0.2-0.9,0.4-1.3,0.6c-0.2,0.1-0.4,0.2-0.6,0.4s-0.5,0.2-0.9,0.4
			c0.2,0,0.4-0.1,0.6-0.2c0.1-0.1,0.6-0.3,0.6-0.2l0.8-0.4c0.4-0.1,0.6-0.2,0.9-0.4l-0.2,0.2c-0.3,0.1-1,0.3-1,0.5l0.8-0.3l-0.1,0.1
			l0.3-0.2l-1.4,0.7c0.5-0.2,1-0.5,1.5-0.6l-0.3,0.1l0.6-0.3l0,0l2.3-1.1l2.4-1.1l0,0C207.4,378.6,207.5,378.5,207.6,378.5l0.2-0.1"
			/>
		<path class="st2" d="M189.8,386.7c-0.2,0-0.2-0.2-0.2-0.3l-1.4,0.7c0.4-0.1,0.7-0.2,1-0.4c-0.4,0.3-0.4,0.4-0.1,0.3
			c0.3-0.1,0.6-0.3,0.9-0.5 M193.7,384.5c-0.2,0.1-0.5,0.2-0.7,0.2l0.1-0.1c-0.4,0.2-0.5,0.3-0.4,0.4c-0.4,0.2-0.8,0.3-1.2,0.5v-0.2
			c-0.1,0.1-0.4,0.3-0.5,0.3c-0.4,0.2-0.6,0.3-0.9,0.5c0.3-0.1,0.6-0.2,0.9-0.3c-0.2,0.2-0.4,0.3-0.7,0.5c0.5-0.1,1-0.3,1.4-0.6
			c-0.3,0.2,0.4,0,0.7-0.2c-0.7,0.2,0.2-0.2,0.6-0.5c0.9-0.5,0.3-0.2,0.3-0.4l0.4-0.2C193.9,384.5,193.8,384.5,193.7,384.5"/>
		<path class="st2" d="M207.9,377.9c-0.4,0.1-0.6,0.1-0.6,0.1c-0.3,0.2-0.4,0.4-0.6,0.6 M188.7,386.6c-0.4,0.2-1,0.5-1,0.4
			c0.4-0.2,0.9-0.4,1.2-0.5C188.9,386.4,188.8,386.5,188.7,386.6"/>
		<path class="st2" d="M186.2,388c-0.8,0.4-0.9,0.7-0.9,0.8c0-0.1-0.5,0-0.7,0c-0.2,0.1-0.3,0.2-0.5,0.3c0.1-0.1,0-0.1,0-0.1
			l-0.4,0.3h-0.1c-0.1,0.1-0.8,0.5-0.8,0.4c-0.5,0.3-0.9,0.4-1,0.3c1-0.5,1.9-0.8,2.8-1.3c-0.1-0.1,0-0.2,0.3-0.4c0.1,0,0.2,0,0.3,0
			s0.2-0.2,0.2-0.2C186.1,387.8,185.6,388.2,186.2,388 M188.2,387.2c-0.2,0.1-0.2,0.3-0.4,0.4c0.1-0.1,0-0.2-0.1-0.2l-0.6,0.3
			c-0.1,0-0.2,0-0.2,0L188.2,387.2 M202.1,381c-0.4,0.2-1,0.5-1.5,0.7c0.2-0.1,0.3-0.2,0.4-0.4c0.2-0.1,0.4-0.2,0.7-0.3"/>
		<path class="st2" d="M238.3,343.3c0.1-0.1,0.3-0.1,0.4-0.2c-0.2,0-0.6,0.2-0.9,0.3c0,0.1,0.2,0,0.6-0.1 M182.2,389.6
			c0,0,0,0-0.1,0s-0.4,0.3-0.5,0.4h-0.1c-0.4,0.2-0.5,0.4-0.2,0.4c-0.5,0.2-1.4,0.7-1.3,0.8s0,0,0,0c-0.6,0.2-1.4,0.6-2,0.8l1.2-0.6
			c-1.4,0.6-3.1,1.4-4.6,2.1c-1.2,0.6-2.5,1.3-3.8,1.8V395c0.8-0.4,2.2-1,2.8-1.3c-0.9,0.4-0.5,0-0.2-0.2c0.3-0.1,0.5-0.1,0.8-0.2
			c0-0.3,0.8-0.7,1.4-0.7l0.1-0.1c0.1,0,0.3-0.1,0.3,0s0-0.1-0.1-0.1c0.8-0.3,0.2,0.1,1.4-0.4c1.7-0.8-0.3,0,0.5-0.5l0.8-0.2
			c0,0.1,0.1,0,0.2,0s0-0.2,0.4-0.5c0.1,0,0.2,0,0.3,0.1c0.1-0.1,0.2-0.2,0.2-0.3c0.4-0.1,0.8-0.3,1.2-0.5l-0.1,0.2
			c0.1-0.2,0.8-0.5,1.4-0.9C182.2,389.5,182.2,389.5,182.2,389.6"/>
		<path class="st2" d="M233.5,345.7c0.1-0.1,0.2-0.1,0.2-0.2C233.4,345.6,233.5,345.6,233.5,345.7 M236.5,344
			c-0.3,0.2-0.7,0.4-1.1,0.4L236.5,344"/>
		<path class="st2" d="M221.3,351c0.2-0.1,0.3-0.2,0.3-0.2L221,351v0.1c-0.5,0.1-1,0.3-1.5,0.6c-0.1,0,0.1,0,0.1,0l0.4-0.2
			c-0.3,0.4,1-0.4,1.6-0.5 M223.4,349.7c0.1-0.1,0.1-0.1,0-0.1c-0.2,0.2-0.5,0.3-0.8,0.4l0.4-0.2c-0.3,0.1-0.6,0.2-0.9,0.3
			c0.1,0.1,1.6-0.4,1.3-0.5 M230.1,346.8c-0.6,0.2-1.1,0.5-1.6,0.8c-0.3,0.3-0.7,0.5-1.1,0.7c0.4,0-1.2,0.6-1.5,0.6
			c-1.2,0.7-1.8,0.6-1.7,0.4c0.9-0.3,1.5-0.6,2.3-1c0.7-0.4,1.4-0.7,2.1-1c0.1,0.2,1.3-0.6,1.7-0.5 M233.7,345.2
			c-0.3,0.1-0.5,0.2-0.8,0.3c0,0,0.1,0,0.1,0c0.2-0.1,0.6-0.3,0.7-0.4"/>
		<path class="st2" d="M217.3,352.5c-0.9,0.5-1.9,1-2.9,1.3c-0.6,0.5-1.4,0.8-2.2,1c-0.4,0.3-1.1,0.5-1.4,0.8c0,0-0.2,0-0.2,0
			c-0.9,0.5-1.7,0.7-1.2,0.2c-0.3,0.1-0.7,0.3-1,0.4c0.4-0.2,1-0.4,1.4-0.7s0.6-0.4,0.9-0.6s0.8-0.2,0.9-0.2l0.4-0.2v-0.1
			c0.3-0.2,0.7-0.3,1-0.4c-0.1,0.1-0.1,0.1-0.1,0.2c0.4-0.2,0.8-0.4,1.3-0.6c-0.1,0,0.1-0.2,0.1-0.2c0.2,0,0.4-0.2,0.6-0.2
			c-0.3-0.1,1.4-0.7,1.3-0.4c0.5-0.1,0.9-0.3,1.4-0.5c0.3,0,0.7-0.3,1.1-0.4c-0.6,0.3-1.1,0.5-1.6,0.8L217.3,352.5L217.3,352.5
			 M224.7,349.6c-0.5,0.2-1.6,0.7-1.5,0.5s1.1-0.5,0.6-0.1l0.7-0.3 M220.5,351c0.1,0,0.2-0.1,0.1,0s-0.3,0.2-0.5,0.3
			c0.1-0.1,0.1-0.1,0.6-0.3C220.7,350.9,220.6,351,220.5,351"/>
		<path class="st2" d="M207.9,356.4c-0.5,0.2-1,0.5-1.5,0.6C206.8,356.7,207.3,356.5,207.9,356.4 M221.8,350.6
			c-0.5,0.2-0.6,0.3-1,0.5c-0.3,0.2-0.7,0.3-1,0.4c-0.4,0.1-0.4,0.1,0.1-0.1l0.4-0.1l0.5-0.2C220.8,351,221.5,350.6,221.8,350.6
			C221.8,350.5,221.8,350.5,221.8,350.6"/>
		<path class="st2" d="M205.8,357.3c-0.4,0.1-0.7,0.3-1,0.5l-1,0.5c0,0,0.1,0,0.2,0c-0.8,0.5-1.6,0.9-2.5,1.3
			c-0.8,0.3-0.8,0.2-0.8,0.1s0.2-0.1,0.1-0.1s-0.4,0.1-0.5,0.1c0.4-0.3,0.8-0.4,1.3-0.4c0.1-0.1,0-0.1,0-0.2s0.1-0.1,0.2-0.2
			c0.4-0.2,0.7-0.4,1.1-0.6l1.5-0.6c0.4-0.2,0.8-0.3,1.3-0.4 M208.1,356.5c-0.2,0.1-1.7,0.9-1.8,0.8s0.8-0.3,0.9-0.4
			C207.5,356.7,207.7,356.6,208.1,356.5"/>
		<path class="st2" d="M199.4,360c0.3-0.1,0,0.1-0.3,0.2c-0.2,0.1-0.4,0.2-0.6,0.3c-0.2,0.1-0.1,0.1-0.2,0.2
			c-0.2,0.1-0.3,0.2-0.5,0.3c-0.1,0-0.3,0.1-0.4,0.1c-0.1,0,0.3-0.2,0.2-0.2s-1.1,0.5-1.4,0.5s-0.1,0.1-0.2,0.2s-0.4,0.3-0.6,0.4
			c-0.1,0-0.4,0.1-0.5,0.1s0.2-0.2,0.2-0.2s-0.5,0.2-0.9,0.3c0.3-0.3,0.3-0.2,0.9-0.4s0.6-0.3,0.5-0.4c0.5-0.2,0.9-0.3,1.4-0.4
			c0.3-0.2,1-0.4,0.9-0.5c0.3-0.1,0.7-0.3,1-0.4C199.2,360,199.6,359.8,199.4,360 M211.5,354.3c-0.2,0-0.8,0.2-0.8,0.3L211.5,354.3
			 M205.2,357c0.4-0.3-0.5,0.1-0.9,0.2c-0.4,0.3,0.6-0.1,1.1-0.3"/>
		<path class="st2" d="M188.9,364.6c-0.5,0.3-1,0.5-1.6,0.7c-0.4,0.2-0.7,0.4-1.1,0.5c0.2-0.2,0.4-0.3,0.7-0.4
			c0.2-0.1,0.4-0.2,0.6-0.2c0.2-0.1,0.6-0.4,0.6-0.2c0.3-0.1,1-0.4,1-0.3 M193.6,362.9c-0.1-0.1,0.1-0.3-0.2-0.2s-0.8,0.3-0.8,0.2
			c0.2-0.1,0.4-0.3,0.6-0.4c0.5-0.2,1.3-0.4,1-0.5c-0.8,0.2-1.5,0.5-2.1,0.9c-0.2,0.2,0.5,0,0.3,0.1c-0.2,0.1-0.5,0.2-0.8,0.3
			c-0.3,0.2-0.7,0.3-1,0.5s-0.2,0.3-0.8,0.4s0.4-0.1,0.7-0.2c-0.3,0.3,0.3,0,0.6,0c0.3-0.2,0.6-0.4,0.9-0.5c0.2,0,0.4-0.1,0.5-0.2
			c0.2-0.1,0.3-0.2,0.2-0.2C193.1,363.1,193.4,363,193.6,362.9"/>
		<path class="st2" d="M189.1,364.8c-0.2,0-0.5,0.1-0.7,0.2c-0.2,0.1-0.1,0.1-0.4,0.3c0.3-0.3-0.8,0.3-1,0.4
			c-0.4,0.1-0.7,0.3-1.1,0.5c-0.2,0.1-0.4,0.2-0.6,0.3c0.6-0.1,1.1-0.3,1.6-0.6c0.2-0.1,0.6-0.3,0.8-0.4l0.8-0.3
			c0.2-0.1,0.5-0.2,0.8-0.4"/>
		<path class="st2" d="M159,378.4c0.2-0.1,0.6-0.3,0.5-0.4s-0.3,0-0.4,0c0.4-0.2,0.6-0.3,1-0.4s0.6-0.3,0.1-0.1
			c-0.2,0.1-0.9,0.4-0.6,0.2c0.3-0.2,0.5-0.3,0.8-0.4c0.1-0.2-1.6,0.7-1.4,0.5c-0.2,0-0.3,0.1-0.4,0.1c0.1,0-0.2,0.2-0.5,0.2
			c-0.1,0-0.2,0.1-0.3,0.1c-0.2,0.1-0.2,0.1-0.4,0.2c0.2,0,0.4-0.1,0.1,0.1c0,0-0.2-0.1-0.5,0l-0.3,0.2c-0.1,0.1-0.3,0.1-0.4,0.2
			l-1.3,0.6c-0.3,0.1-0.5,0.2-0.7,0.3c0.2,0,0.6-0.2,0.6-0.1c0.2-0.1,0.3-0.2,0.5-0.3s0.7-0.3,1-0.4l-0.7,0.3
			c0.4-0.2,0.8-0.4,1.2-0.5c0.3-0.1,0,0.2,0.3,0.1s0.3-0.2,0.5-0.3s-0.2,0.2-0.1,0.2c0.3-0.1,0.6-0.2,0.8-0.4c0.3,0,0.6-0.1,0.9-0.3
			 M172,372.4c0.1-0.1,0.4-0.3,0.5-0.4l-1.2,0.5c0.2-0.1,0.3-0.2,0.5-0.3c-0.4,0.1-0.1-0.1-0.4,0c-0.2,0.1-0.6,0.3-0.8,0.3l-0.4,0.1
			c0.1,0,0.2-0.1,0.2-0.2c-0.5,0.2-1,0.4-1.4,0.7c-0.4,0.2-0.7,0.4-1.1,0.5c-0.4,0.2-0.8,0.4-1.2,0.6c-0.9,0.3-0.1-0.1-0.2-0.1
			c-0.4,0-2.5,1.1-1.8,1c-0.2,0.1-1,0.4-1.2,0.5s-0.1-0.1-0.6,0s-0.6,0.4-0.5,0.5l0.1-0.1c-0.2,0.1-1,0.4-1.3,0.6
			c0,0.1,0.5,0,0.9-0.3c0,0.1-0.6,0.4-0.5,0.4c0.2,0,0.4-0.1,0.6-0.2l0.4-0.2l0.3-0.1c0.3-0.1,0.3-0.1,0.5-0.2s0-0.1-0.3,0
			s-1,0.4-0.9,0.2c0.5-0.3,0.9-0.5,1.4-0.7c0.7-0.3,0.1,0.2,0.6,0c0.3-0.1,0.3-0.2,0.6-0.2s-0.2,0.2,0.4,0s1.1-0.6,0.4-0.3
			c0.3-0.1,0.6-0.2,0.7-0.4s-0.4,0.1-0.3-0.1c0.5-0.2,0.9-0.5,1.4-0.6c0.5-0.2,0.5-0.2,0.5-0.1s-0.3,0.3,0.1,0.2s0.3-0.2,0.6-0.3
			c0,0-0.1,0.1-0.1,0.1l0.3,0c0.4-0.3,0.1-0.2,0.7-0.5c0.2-0.1,0.5-0.2,0.7-0.3c0.1-0.1,0.1-0.1-0.1-0.1c0.4-0.2,0.7-0.3,1.1-0.4
			C171.4,372.6,171.7,372.5,172,372.4 M176.7,370.1c0.2-0.1,0.4-0.2,0.7-0.4c-0.1-0.1-0.6,0.1-1.2,0.3c0.2-0.1,0.3-0.2,0-0.1
			s-0.6,0.3-0.9,0.5s-0.4,0.1-0.9,0.3c-0.3,0.2-0.6,0.3-0.9,0.4c-0.1,0.1-0.2,0.2-0.2,0.3c0.2-0.1,0.4-0.2,0.6-0.2
			c-0.1,0.1-0.5,0.4,0,0.2s0.7-0.3,1-0.4c0.4-0.2,0.8-0.4,1.2-0.6h0.1C176.4,370.3,176.6,370.2,176.7,370.1 M180.6,368.4
			c-0.4,0.1-1.1,0.5-1.4,0.6s-0.2,0,0.2-0.2c-0.1-0.1,0-0.2-0.9,0.2c0.1,0,0.2,0,0.2,0.1s0,0.1,0,0.1c0.2,0.1,0.4,0.1,0.6,0
			c0.3-0.2,0.3-0.3,0.7-0.5c0.2-0.1,0.3-0.1,0.5-0.2C180.6,368.4,180.7,368.3,180.6,368.4C180.4,368.4,180.6,368.4,180.6,368.4
			 M183,367.4c-0.4,0.2-0.1,0.2-0.3,0.3c-0.3,0.2-0.7,0.4-1,0.5c-0.4,0.1-0.4,0-0.3-0.1c0.3-0.2,0.6-0.4,1-0.5c-0.1,0-0.2,0-0.3,0
			H182c0,0,0-0.1,0,0s-0.3,0.1-0.4,0.2c-0.4,0.1,0-0.1-0.2-0.1c0.4-0.2,1.2-0.5,0.9-0.5c-0.1,0-0.4,0.1-0.3,0
			c0.2-0.1,0.4-0.3,0.7-0.3c0.4-0.1,0.4,0,0.6,0s0.3-0.1,0.4-0.1s0,0.1,0.3,0s0.4-0.2,0.4-0.3s-0.3,0-0.2,0c0.5-0.3,1-0.5,1.5-0.7
			c0,0.1,0.3,0,0.3,0s-0.6,0.3-0.3,0.3c-0.2,0.2-0.5,0.4-0.8,0.5C184.3,366.9,183.4,367.2,183,367.4"/>
		<path class="st2" d="M148.2,383l-0.6,0.3l-0.6,0.3c-0.4,0.2-1.2,0.5-1.6,0.7c0.1,0-0.1-0.1-0.2-0.1s-0.6,0.3-0.8,0.4
			s0.2,0.2-0.3,0.4s-0.3-0.1-0.3-0.1l-0.8,0.4c-0.2,0.1-0.4,0.1-0.6,0.2c0.1,0,0.3,0.1-0.4,0.4l-0.6,0.3l-0.4,0.2
			c-0.4,0.2-0.7,0.3-0.3,0s1-0.5,1.4-0.7c-0.1-0.1-0.2-0.1,0.4-0.5l2.2-1l1.7-0.8l0.7-0.3c0.1-0.1,0.3-0.1,0.5-0.1
			c-0.5,0.2-1,0.5-1.4,0.6l-0.8,0.4c0.1,0,0.3,0,0.4,0C146.6,383.7,147.5,383.3,148.2,383 M155.8,379.6c0.1-0.1,0.2-0.1,0.3-0.2
			c-0.2,0.1-0.5,0.3-0.8,0.4c0.2-0.1-0.3,0,0-0.1c-0.1,0.1-0.3,0.2-0.4,0.3c-0.2,0.1-0.8,0.3-1,0.4l0.2-0.2
			c-0.8,0.5-1.6,0.9-2.5,1.2c-0.1-0.1,0.6-0.3,0.9-0.4s0.3-0.1,0.5-0.3l0.4-0.1l0.3-0.2c0.2-0.1,0.4-0.2,0.5-0.3
			c-0.4,0.1-0.9,0.3-1.3,0.5c-0.6,0.3-1.4,0.6-2,0.9c-0.4,0.2-0.9,0.4-1.3,0.5c-0.2,0.1-0.4,0.2-0.6,0.3c-0.3,0.1-0.6,0.2-0.9,0.3
			c0.2,0,0.4-0.1,0.6-0.2c0.1-0.1,0.5-0.3,0.6-0.2l0.8-0.4c0.3-0.1,0.6-0.2,0.9-0.3c-0.1,0.1-0.2,0.1-0.2,0.2
			c-0.3,0.1-0.9,0.3-1,0.4l0.8-0.3l-0.1,0.1l0.3-0.1l-1.4,0.6c0.5-0.2,1-0.5,1.4-0.6l-0.2,0.1l0.6-0.2l0,0l2.2-1l2.3-1l0,0
			c0.1-0.1,0.2-0.1,0.3-0.1l0.1-0.1"/>
		<path class="st2" d="M138.8,387.3c-0.2,0-0.1-0.2-0.2-0.3l-1.3,0.6c0.3-0.1,0.6-0.2,0.9-0.4c-0.4,0.2-0.4,0.4-0.1,0.3
			c0.3-0.1,0.6-0.3,0.8-0.5 M142.5,385.2c-0.2,0.1-0.5,0.2-0.7,0.2l0.1-0.1c-0.4,0.2-0.5,0.3-0.4,0.4c-0.4,0.2-0.8,0.3-1.2,0.5v-0.1
			c-0.1,0.1-0.4,0.3-0.4,0.3c-0.3,0.1-0.6,0.3-0.8,0.5c0.3-0.1,0.6-0.2,0.8-0.3c-0.2,0.2-0.4,0.3-0.6,0.5c0.5-0.1,0.9-0.3,1.4-0.5
			c-0.2,0.2,0.4,0,0.7-0.2c-0.7,0.2,0.2-0.2,0.6-0.4c0.9-0.5,0.3-0.2,0.3-0.4l0.4-0.2C142.7,385.2,142.7,385.2,142.5,385.2"/>
		<path class="st2" d="M156.1,379c-0.3,0.1-0.5,0.1-0.6,0.1c-0.2,0.2-0.4,0.4-0.6,0.5 M137.8,387.2c-0.4,0.2-0.9,0.5-1,0.4
			c0.4-0.2,0.8-0.4,1.2-0.5C137.9,387.1,137.9,387.2,137.8,387.2"/>
		<path class="st2" d="M135.4,388.6c-0.7,0.4-0.8,0.6-0.9,0.8c0-0.1-0.5,0-0.6,0c-0.2,0.1-0.3,0.2-0.4,0.3c0.1-0.1,0-0.1,0-0.1
			l-0.4,0.3H133c-0.1,0.1-0.7,0.5-0.7,0.3c-0.5,0.3-0.9,0.4-1,0.3c0.9-0.5,1.8-0.8,2.7-1.3c-0.1-0.1,0-0.2,0.3-0.4
			c0.1,0,0.2,0,0.2,0s0.2-0.1,0.2-0.2C135.3,388.4,134.8,388.8,135.4,388.6 M137.2,387.8c-0.2,0.1-0.2,0.2-0.4,0.4
			c0.1-0.1,0-0.2-0.1-0.2l-0.5,0.3c-0.1,0-0.1,0-0.2,0l1.2-0.6 M150.5,381.9c-0.4,0.2-0.9,0.5-1.4,0.7c0.2-0.1,0.4-0.3,0.4-0.3
			c0.2-0.1,0.4-0.2,0.7-0.2"/>
		<path class="st2" d="M187.7,343.4c0.2-0.1,0.3-0.2,0.5-0.3c-0.3,0.1-0.6,0.2-0.9,0.4c0,0.1,0.2,0,0.6-0.2 M131.6,390.1
			c0,0,0,0-0.1,0s-0.4,0.2-0.5,0.4h-0.1c-0.4,0.2-0.4,0.4-0.1,0.3c-0.5,0.2-1.3,0.6-1.3,0.7s0,0,0,0c-0.5,0.2-1.3,0.6-1.9,0.8
			l1.1-0.6c-1.4,0.6-3,1.4-4.4,2c-1.2,0.6-2.4,1.3-3.6,1.8v-0.1c0.7-0.4,2.1-1,2.7-1.3c-0.8,0.4-0.5,0-0.2-0.2
			c0.3-0.1,0.5-0.1,0.8-0.2c0-0.2,0.8-0.6,1.3-0.7l0.1-0.1c0.1,0,0.3-0.1,0.3,0s0-0.1,0-0.1c0.7-0.3,0.2,0.1,1.3-0.4
			c1.6-0.8-0.3,0,0.5-0.5l0.7-0.2c0,0.1,0.1,0,0.2,0s0-0.2,0.4-0.4c0.1,0,0.2,0,0.2,0.1c0.1-0.1,0.2-0.2,0.2-0.3
			c0.3-0.1,0.7-0.3,1.1-0.5l-0.1,0.2c0.1-0.2,0.8-0.5,1.4-0.8C131.6,389.9,131.6,390,131.6,390.1"/>
		<path class="st2" d="M182.7,346.1c0.1-0.1,0.3-0.2,0.2-0.2C182.5,346.1,182.7,346.1,182.7,346.1 M185.9,344.2
			c-0.3,0.2-0.7,0.4-1.1,0.5l1-0.5"/>
		<path class="st2" d="M169.7,352.3c0.2-0.1,0.4-0.2,0.3-0.3l-0.6,0.3v0.1c-0.6,0.2-1.1,0.4-1.6,0.7c-0.1,0,0.2,0,0.1,0l0.4-0.2
			c-0.3,0.4,1-0.5,1.7-0.6 M171.9,350.9c0.1-0.1,0.1-0.1,0-0.1c-0.3,0.2-0.6,0.3-0.9,0.4l0.4-0.2c-0.3,0.1-0.6,0.3-0.9,0.4
			c0.1,0.1,1.7-0.5,1.4-0.6 M178.9,347.5c-0.6,0.3-1.2,0.6-1.7,0.9c-0.3,0.3-0.7,0.6-1.1,0.8c0.4,0-1.3,0.7-1.6,0.8
			c-1.3,0.8-1.9,0.7-1.8,0.5c1-0.4,1.6-0.7,2.4-1.1s1.5-0.9,2.2-1.1c0.1,0.2,1.4-0.6,1.8-0.7 M182.8,345.7c-0.3,0.1-0.5,0.2-0.8,0.4
			c0,0,0.1,0,0.2,0c0.3-0.1,0.6-0.3,0.8-0.4"/>
		<path class="st2" d="M165.5,354.1c-1,0.6-2,1.1-3.1,1.5c-0.7,0.5-1.5,0.9-2.3,1.1c-0.4,0.3-1.1,0.6-1.5,0.9c0,0-0.2,0-0.2,0
			c-0.9,0.5-1.8,0.8-1.2,0.3c-0.4,0.2-0.8,0.3-1.1,0.4c0.4-0.3,1-0.5,1.5-0.8s0.6-0.5,1-0.7s0.9-0.3,0.9-0.2l0.4-0.2c0,0,0,0,0-0.1
			c0.4-0.2,0.7-0.3,1.1-0.5c-0.1,0.1-0.1,0.1-0.1,0.2c0.4-0.2,0.9-0.5,1.3-0.6c-0.1,0,0.1-0.2,0.1-0.2c0.2-0.1,0.5-0.2,0.7-0.3
			c-0.4-0.1,1.5-0.8,1.4-0.5c0.5-0.2,1-0.4,1.5-0.6c0.4-0.1,0.8-0.3,1.2-0.5c-0.6,0.3-1.2,0.6-1.7,0.9L165.5,354.1
			C165.4,354.2,165.5,354.1,165.5,354.1 M173.4,350.6c-0.5,0.3-1.7,0.8-1.6,0.6s1.2-0.6,0.6-0.2l0.8-0.4 M168.9,352.3
			c0.1,0,0.2-0.1,0.1,0s-0.3,0.2-0.6,0.3c0.1-0.1,0.1-0.1,0.6-0.4C169.1,352.2,169,352.3,168.9,352.3"/>
		<path class="st2" d="M155.4,358.5c-0.5,0.3-1,0.5-1.6,0.7C154.3,358.9,154.8,358.7,155.4,358.5 M170.2,351.8
			c-0.5,0.3-0.6,0.3-1.1,0.5c-0.3,0.2-0.7,0.3-1,0.5c-0.4,0.1-0.4,0.1,0.1-0.2l0.4-0.1l0.6-0.3C169.2,352.4,170,351.9,170.2,351.8
			c0.2,0,0.2,0,0.2,0"/>
		<path class="st2" d="M153.2,359.5c-0.4,0.1-0.7,0.3-1.1,0.6l-1.1,0.5c0,0,0.1,0,0.2,0c-0.8,0.6-1.7,1-2.6,1.4
			c-0.9,0.4-0.9,0.3-0.9,0.1s0.2-0.1,0.1-0.1s-0.4,0.2-0.6,0.2c0.4-0.3,0.9-0.5,1.4-0.5c0.1-0.1,0-0.1,0.1-0.2s0.1-0.1,0.3-0.2
			c0.4-0.2,0.8-0.5,1.2-0.6l1.6-0.7C152.4,359.8,152.7,359.7,153.2,359.5 M155.7,358.6c-0.6,0.3-1.3,0.6-1.9,0.9
			c0-0.1,0.8-0.4,1-0.5C155.1,358.9,155.3,358.8,155.7,358.6"/>
		<path class="st2" d="M146.3,362.7c0.3-0.1,0,0.1-0.3,0.2c-0.2,0.1-0.4,0.2-0.6,0.3c-0.2,0.1-0.1,0.1-0.2,0.2
			c-0.2,0.1-0.4,0.2-0.5,0.4c-0.1,0-0.3,0.1-0.4,0.1c-0.1,0,0.3-0.2,0.2-0.2s-1.1,0.5-1.5,0.6s-0.1,0.1-0.2,0.3s-0.5,0.3-0.6,0.5
			c-0.1,0-0.4,0.1-0.5,0.1s0.2-0.2,0.2-0.2s-0.6,0.2-1,0.3c0.3-0.3,0.3-0.2,0.9-0.5s0.6-0.3,0.5-0.4c0.5-0.2,1-0.4,1.5-0.5
			c0.3-0.2,1.1-0.5,0.9-0.5c0.3-0.2,0.7-0.3,1.1-0.4C146.2,362.6,146.6,362.4,146.3,362.7 M159.3,356.2c-0.2,0-0.9,0.3-0.9,0.4
			L159.3,356.2 M152.5,359.3c0.5-0.3-0.6,0.1-0.9,0.2c-0.4,0.4,0.6-0.1,1.1-0.4"/>
		<path class="st2" d="M135.1,367.8c-0.5,0.3-1.1,0.6-1.6,0.8c-0.4,0.2-0.8,0.4-1.2,0.5c0.2-0.2,0.5-0.3,0.7-0.4
			c0.2-0.1,0.4-0.2,0.6-0.2c0.2-0.1,0.7-0.4,0.6-0.3C134.5,368,135.3,367.7,135.1,367.8 M140.2,365.8c-0.1-0.1,0.1-0.3-0.2-0.2
			c-0.4,0.2-0.8,0.4-0.8,0.2c0.2-0.2,0.4-0.3,0.6-0.4c0.5-0.3,1.4-0.5,1.1-0.5c-0.8,0.2-1.6,0.5-2.3,1c-0.2,0.2,0.5-0.1,0.3,0.1
			c-0.3,0.2-0.5,0.3-0.8,0.3c-0.3,0.2-0.8,0.4-1,0.5c-0.2,0.2-0.5,0.4-0.8,0.5c-0.5,0.3,0.5-0.1,0.8-0.3c-0.3,0.3,0.4,0,0.6,0
			c0.3-0.2,0.6-0.4,1-0.5c0.2,0,0.4-0.1,0.6-0.2c0.2-0.1,0.3-0.2,0.3-0.2C139.8,366.1,140,366,140.2,365.8"/>
		<path class="st2" d="M135.4,368c-0.3,0.1-0.5,0.1-0.8,0.3c-0.2,0.1-0.1,0.1-0.5,0.3c0.4-0.3-0.8,0.3-1.1,0.4
			c-0.4,0.1-0.8,0.3-1.1,0.6c-0.2,0.1-0.4,0.2-0.6,0.3c0.6-0.2,1.2-0.4,1.8-0.7c0.2-0.1,0.6-0.3,0.8-0.4l0.8-0.3L135.4,368"/>
		<path class="st2" d="M103.1,383c0.2-0.1,0.6-0.4,0.6-0.4s-0.3,0-0.4,0.1c0.4-0.2,0.7-0.3,1-0.5s0.6-0.4,0.1-0.1
			c-0.2,0.1-1,0.5-0.6,0.2c0.3-0.2,0.6-0.3,0.9-0.5c0.1-0.2-1.8,0.8-1.5,0.5c-0.2,0-0.3,0.1-0.5,0.2c0.1,0-0.2,0.2-0.5,0.3
			s-0.2,0-0.4,0.1s-0.2,0.1-0.4,0.2c0.2,0,0.4-0.1,0.1,0.1c0,0-0.2-0.1-0.5,0s-0.2,0.1-0.4,0.2l-0.5,0.2l-1.3,0.6
			c-0.3,0.1-0.5,0.2-0.8,0.4c0.2,0,0.7-0.2,0.6-0.1c0.2-0.1,0.3-0.2,0.5-0.3s0.8-0.3,1-0.4l-0.7,0.3c0.4-0.2,0.9-0.4,1.3-0.6
			c0.3-0.1,0,0.2,0.4,0.1c0.2-0.1,0.3-0.2,0.5-0.3c0.2,0-0.2,0.2-0.1,0.2c0.3-0.1,0.6-0.2,0.9-0.4c0.3,0,0.6-0.1,0.9-0.3 M117,376.5
			c0.1-0.1,0.5-0.3,0.6-0.5l-1.3,0.6c0.2-0.1,0.4-0.2,0.5-0.3c-0.4,0.1-0.1-0.1-0.5,0.1c-0.2,0.1-0.6,0.3-0.9,0.4s-0.4,0.1-0.5,0.1
			c0.2-0.1,0.2-0.1,0.3-0.2c-0.5,0.2-1,0.4-1.5,0.8c-0.4,0.2-0.8,0.4-1.2,0.6c-0.4,0.3-0.9,0.5-1.3,0.7c-0.9,0.4-0.1-0.1-0.3-0.1
			c-0.4,0-2.6,1.3-2,1.1c-0.2,0.1-1,0.5-1.3,0.5s-0.1-0.1-0.7,0s-0.6,0.5-0.6,0.6l0.1-0.1c-0.3,0.2-1,0.5-1.4,0.7
			c0,0.1,0.5-0.1,1-0.3c0,0.1-0.7,0.4-0.5,0.4c0.2,0,0.5-0.1,0.7-0.2c0.1,0,0.3-0.2,0.4-0.2l0.3-0.1c0.3-0.1,0.4-0.1,0.5-0.3
			s-0.1,0-0.3,0s-1.1,0.5-0.9,0.3s1.2-0.6,1.5-0.8c0.8-0.3,0.1,0.2,0.6,0c0.3-0.1,0.3-0.2,0.6-0.2s-0.2,0.2,0.4-0.1s1.2-0.7,0.4-0.4
			c0.3-0.1,0.5-0.2,0.8-0.4c0.1-0.1-0.4,0.1-0.3,0c0.5-0.3,1-0.5,1.5-0.7c0.5-0.2,0.5-0.3,0.6-0.2s-0.3,0.3,0.1,0.2s0.4-0.2,0.7-0.3
			c0,0-0.1,0.1-0.1,0.1s0.2,0,0.3-0.1c0.4-0.3,0.1-0.2,0.7-0.5c0.3-0.1,0.5-0.2,0.7-0.4c0.1-0.1,0.1-0.1-0.1-0.1
			c0.4-0.2,0.8-0.3,1.2-0.4C116.4,376.7,116.7,376.6,117,376.5 M122,374c0.2-0.1,0.5-0.3,0.7-0.4c-0.1-0.1-0.7,0.1-1.2,0.3
			c0.2-0.1,0.3-0.2,0-0.1s-0.6,0.4-0.9,0.5s-0.5,0.1-0.9,0.3s-0.6,0.3-1,0.5c-0.2,0.1-0.2,0.2-0.2,0.3c0.2-0.1,0.4-0.2,0.7-0.2
			c-0.1,0.1-0.6,0.4,0,0.2s0.8-0.4,1-0.4c0.4-0.2,0.9-0.5,1.3-0.6h0.1C121.7,374.2,121.8,374.1,122,374 M126.1,372.1
			c-0.4,0.2-1.2,0.6-1.5,0.7s-0.2,0,0.2-0.2c-0.1-0.1,0-0.2-0.9,0.2c0.1,0,0.2,0,0.2,0s0,0.1,0,0.1c0.2,0.1,0.4,0.1,0.6,0
			c0.3-0.2,0.3-0.4,0.7-0.5c0.1-0.1,0.3-0.1,0.5-0.2S126.3,372,126.1,372.1C125.9,372.1,126.1,372.1,126.1,372.1 M128.8,371
			c-0.4,0.2-0.1,0.2-0.3,0.4c-0.4,0.2-0.7,0.4-1.1,0.6c-0.4,0.1-0.4,0-0.3-0.1c0.3-0.2,0.6-0.4,1-0.5c-0.1,0-0.2,0-0.3,0.1h-0.1
			c0,0,0-0.1,0,0s-0.3,0.2-0.5,0.2c-0.5,0.2,0-0.1-0.2-0.1c0.4-0.2,1.3-0.6,1-0.6c-0.1,0-0.4,0.1-0.3,0c0.2-0.2,0.5-0.3,0.7-0.4
			c0.4-0.1,0.4,0,0.6,0s0.3-0.1,0.4-0.1s0,0.1,0.3,0s0.4-0.3,0.4-0.3s-0.3,0-0.3,0c0.5-0.3,1-0.5,1.6-0.7c0,0.1,0.3,0,0.4,0
			s-0.6,0.4-0.3,0.3c-0.3,0.2-0.5,0.4-0.8,0.6C130.1,370.4,129.2,370.8,128.8,371"/>
		<path class="st2" d="M91.6,388.1c-0.2,0.1-0.5,0.2-0.7,0.3s-0.4,0.2-0.7,0.3c-0.5,0.2-1.3,0.6-1.7,0.8c0.1-0.1-0.1-0.1-0.2-0.1
			s-0.7,0.3-0.9,0.4s0.2,0.2-0.3,0.4s-0.3-0.1-0.3-0.1c-0.2,0.1-0.6,0.3-0.8,0.4c-0.2,0.1-0.4,0.2-0.6,0.3c0.1,0,0.3,0.1-0.4,0.4
			l-0.6,0.3l-0.5,0.2c-0.4,0.2-0.8,0.3-0.3,0s1-0.5,1.4-0.7c-0.2-0.1-0.3-0.1,0.5-0.5l2.4-1.1l1.8-0.9c0.2-0.1,0.6-0.3,0.8-0.4
			c0.2-0.1,0.3-0.1,0.5-0.2c-0.5,0.2-1.1,0.5-1.5,0.7l-0.8,0.4c0.1,0,0.3,0,0.4,0C89.8,388.8,90.8,388.4,91.6,388.1 M99.7,384.4
			c0.1-0.1,0.3-0.2,0.4-0.3c-0.2,0.1-0.6,0.3-0.9,0.4c0.2-0.1-0.3,0,0-0.1c-0.1,0.1-0.3,0.3-0.5,0.3c-0.3,0.1-0.8,0.4-1.1,0.5
			c0.1-0.1,0.1-0.1,0.2-0.2c-0.9,0.5-1.8,1-2.7,1.3c-0.1-0.1,0.7-0.4,0.9-0.5s0.3-0.2,0.6-0.3l0.4-0.2l0.3-0.2
			c0.2-0.1,0.4-0.2,0.6-0.3c-0.5,0.1-0.9,0.3-1.4,0.6c-0.7,0.3-1.5,0.6-2.2,1c-0.4,0.2-1,0.4-1.3,0.6c-0.2,0.1-0.4,0.2-0.6,0.4
			c-0.3,0.1-0.6,0.3-0.9,0.4c0.2,0,0.4-0.1,0.6-0.2c0.1-0.1,0.6-0.3,0.6-0.3l0.9-0.4c0.3-0.2,0.6-0.2,0.9-0.4
			c-0.1,0.1-0.2,0.2-0.3,0.2c-0.3,0.1-1,0.3-1.1,0.5L94,387l-0.2,0.1l0.3-0.2l-1.5,0.7c0.5-0.2,1.1-0.5,1.6-0.7l-0.3,0.1l0.6-0.3
			l0,0l2.4-1.1l2.5-1.1h-0.1C99.5,384.5,99.6,384.4,99.7,384.4l0.2,0"/>
		<path class="st2" d="M81.4,392.8c-0.2,0-0.2-0.2-0.2-0.3l-1.4,0.7c0.4-0.1,0.7-0.2,1-0.4c-0.4,0.3-0.4,0.4-0.1,0.3
			c0.3-0.2,0.6-0.3,0.9-0.5 M85.4,390.6c-0.3,0.1-0.6,0.2-0.7,0.3l0.2-0.1c-0.4,0.2-0.5,0.4-0.5,0.4c-0.4,0.2-0.8,0.3-1.2,0.6v-0.2
			c-0.1,0.1-0.4,0.3-0.5,0.3c-0.4,0.2-0.7,0.3-0.9,0.5c0.3-0.1,0.6-0.2,0.9-0.3c-0.2,0.2-0.4,0.3-0.7,0.5c0.5-0.1,1-0.3,1.5-0.6
			c-0.3,0.2,0.4,0,0.7-0.3c-0.7,0.2,0.2-0.2,0.7-0.5c1-0.5,0.3-0.2,0.3-0.4l0.4-0.2C85.6,390.6,85.6,390.6,85.4,390.6"/>
		<path class="st2" d="M100.1,383.8c-0.4,0.1-0.6,0.1-0.6,0.1c-0.3,0.2-0.4,0.4-0.7,0.6 M80.3,392.8c-0.4,0.2-1,0.5-1.1,0.4
			c0.4-0.2,0.9-0.4,1.3-0.5C80.5,392.7,80.4,392.7,80.3,392.8"/>
		<path class="st2" d="M128.5,344.1l0.2-0.2c-0.2,0.1-0.4,0.1-0.6,0.2C128.2,344.2,128.3,344.1,128.5,344.1 M94.1,387
			c-0.4,0.2-1,0.5-1.5,0.7c0.2-0.1,0.3-0.2,0.4-0.4c0.2-0.1,0.5-0.2,0.7-0.3"/>
		<path class="st2" d="M125.7,346c0-0.1,0.1-0.1,0.1-0.1S125.7,346,125.7,346 M127.4,344.7c-0.2,0.2-0.4,0.3-0.7,0.4L127.4,344.7"/>
		<path class="st2" d="M118.3,350.3c0.1-0.1,0.2-0.2,0.1-0.2l-0.4,0.2v0.1c-0.3,0.1-0.7,0.2-0.9,0.4h0.1l0.2-0.1
			c-0.1,0.3,0.6-0.3,1-0.4 M119.5,349.2c0-0.1,0.1-0.1,0-0.1c-0.1,0.1-0.3,0.2-0.5,0.3l0.2-0.2c-0.2,0.1-0.4,0.2-0.5,0.3
			C118.8,349.6,119.7,349.2,119.5,349.2 M123.5,346.9c-0.4,0.2-0.7,0.4-1,0.6c-0.3,0.2-0.2,0.3-0.6,0.6c0.3,0-0.7,0.5-0.9,0.5
			c-0.7,0.6-1.2,0.5-1.1,0.2c0.5-0.2,0.9-0.5,1.4-0.8c0.4-0.3,0.8-0.6,1.3-0.8c0.1,0.2,0.8-0.4,1.1-0.4 M125.7,345.7
			c-0.2,0-0.3,0.1-0.4,0.2h0.1C125.5,345.8,125.6,345.7,125.7,345.7"/>
		<path class="st2" d="M115.9,351.4c-0.5,0.4-1.1,0.8-1.8,1c-0.4,0.4-0.8,0.6-1.3,0.7c-0.2,0.2-0.6,0.4-0.8,0.6c0,0-0.1,0-0.1-0.1
			c-0.5,0.4-1,0.5-0.8,0.1c-0.2,0.1-0.4,0.2-0.6,0.3c0.2-0.2,0.6-0.3,0.8-0.5c0.2-0.2,0.3-0.3,0.5-0.5c0.3-0.1,0.5-0.1,0.6-0.1
			l0.2-0.2v-0.1c0.2-0.1,0.4-0.2,0.7-0.3l-0.1,0.1c0.2-0.2,0.5-0.3,0.8-0.4c-0.1,0,0-0.1,0-0.2c0.1-0.1,0.3-0.1,0.4-0.2
			c-0.3-0.1,0.8-0.6,0.8-0.3c0.3-0.1,0.6-0.2,0.9-0.4c0.2,0,0.4-0.2,0.7-0.3c-0.3,0.2-0.7,0.4-1,0.6L115.9,351.4L115.9,351.4
			 M120.4,349.1c-0.3,0.2-1,0.5-0.9,0.4s0.7-0.4,0.4-0.1L120.4,349.1 M117.7,350.1C117.7,350.1,117.8,350.1,117.7,350.1
			c0,0.1-0.1,0.2-0.2,0.2c0.1-0.1,0-0.1,0.3-0.3C117.8,350.1,117.8,350.2,117.7,350.1"/>
		<path class="st2" d="M110,354.2c-0.3,0.2-0.6,0.3-0.9,0.4C109.3,354.5,109.6,354.3,110,354.2 M118.5,349.9
			c-0.2,0.1-0.4,0.3-0.6,0.4c-0.2,0.1-0.4,0.2-0.6,0.3c-0.2,0.1-0.2,0,0.1-0.1l0.2-0.1l0.3-0.2C117.9,350.2,118.4,349.9,118.5,349.9
			L118.5,349.9"/>
		<path class="st2" d="M108.8,354.9c-0.2,0.1-0.4,0.2-0.6,0.4l-0.6,0.3c0,0,0,0,0.2,0c-0.4,0.4-0.9,0.8-1.5,1
			c-0.5,0.2-0.5,0.1-0.6,0s0.1-0.1,0-0.1s-0.3,0.1-0.3,0.1c0.2-0.2,0.5-0.3,0.8-0.3c0.1-0.1,0-0.1,0-0.2s0,0,0.1-0.1
			c0.2-0.2,0.4-0.3,0.7-0.4l0.9-0.5C108.2,355.1,108.4,355,108.8,354.9 M110.2,354.3c-0.2,0-1,0.7-1.1,0.6s0.4-0.2,0.6-0.3
			L110.2,354.3"/>
		<path class="st2" d="M104.8,356.9c0.2-0.1,0,0.1-0.2,0.2s-0.2,0-0.4,0.2s-0.1,0.1-0.1,0.2s-0.2,0.2-0.3,0.3c-0.1,0-0.2,0-0.3,0
			c0,0,0.2-0.2,0.1-0.2s-0.7,0.3-0.8,0.4s0,0.1-0.1,0.2s-0.2,0.2-0.3,0.3s-0.2,0-0.3,0s0.1-0.2,0.1-0.2s-0.3,0.2-0.6,0.2
			c0.2-0.2,0.2-0.2,0.5-0.3s0.3-0.2,0.3-0.3c0.3-0.1,0.6-0.2,0.9-0.3c0.2-0.1,0.6-0.3,0.5-0.4c0.2-0.1,0.4-0.2,0.6-0.2
			C104.7,356.8,104.9,356.7,104.8,356.9 M112.2,352.5c-0.1,0-0.5,0.2-0.5,0.3L112.2,352.5 M108.3,354.5c0.2-0.2-0.4,0-0.6,0.1
			c-0.2,0.3,0.4,0,0.7-0.2"/>
		<path class="st2" d="M98.3,360.3c-0.3,0.2-0.6,0.4-1,0.5c-0.2,0.1-0.5,0.3-0.7,0.3c0.1-0.1,0.2-0.2,0.4-0.3
			c0.1-0.1,0.3-0.2,0.4-0.1s0.4-0.3,0.3-0.2C97.9,360.4,98.3,360.2,98.3,360.3 M101.2,359.1c-0.1-0.1,0-0.2-0.2-0.2
			s-0.5,0.2-0.5,0.1s0.2-0.2,0.3-0.3c0.3-0.2,0.9-0.3,0.6-0.4c-0.5,0.1-0.9,0.3-1.3,0.6c-0.1,0.1,0.3,0,0.2,0.1
			c-0.1,0.1-0.3,0.2-0.5,0.2c-0.2,0.1-0.4,0.2-0.6,0.4s-0.1,0.2-0.4,0.3s0.3,0,0.5-0.1c-0.2,0.3,0.2,0,0.4,0
			c0.3-0.2,0.2-0.2,0.6-0.3c0.2-0.1,0.1,0,0.3-0.1s0.2-0.2,0.1-0.2C101,359.2,101.1,359.2,101.2,359.1"/>
		<path class="st2" d="M98.5,360.4c-0.2,0-0.3,0.1-0.4,0.2c-0.1,0.1,0,0.1-0.2,0.2c0.2-0.2-0.5,0.2-0.7,0.2
			c-0.2,0.1-0.5,0.2-0.7,0.4l-0.4,0.2c0.4-0.1,0.7-0.2,1-0.4c0.1-0.1,0.3-0.2,0.5-0.3l0.5-0.2L98.5,360.4"/>
		<path class="st2" d="M79.9,370.1c0.1-0.1,0.3-0.3,0.3-0.3s-0.2,0-0.3,0c0.2-0.1,0.4-0.2,0.6-0.3c0.2-0.1,0.4-0.3,0.1-0.1
			c-0.1,0.1-0.6,0.3-0.4,0.1c0.2-0.1,0.3-0.2,0.5-0.3c0-0.2-1,0.5-0.9,0.3l-0.3,0.1c0.1,0-0.1,0.1-0.3,0.2c-0.1,0-0.1,0-0.2,0.1
			c-0.1,0.1-0.1,0.1-0.2,0.2c0.2,0,0.3,0,0.1,0.1c-0.1-0.1-0.2-0.1-0.3-0.1l-0.2,0.2l-0.3,0.1l-0.8,0.4c-0.2,0.1-0.3,0.1-0.4,0.2
			c0.2,0,0.4-0.1,0.4,0l0.3-0.2c0.2-0.1,0.4-0.2,0.6-0.2l-0.4,0.2c0.2-0.2,0.5-0.3,0.8-0.4c0.2,0,0.1,0.1,0.3,0.1l0.3-0.2
			c0.1,0-0.1,0.1,0,0.1s0.4-0.2,0.5-0.3s0.4,0,0.6-0.1 M87.9,365.9c0-0.1,0.3-0.2,0.3-0.4l-0.8,0.4c0.1-0.1,0.2-0.2,0.3-0.2
			c-0.2,0.1-0.1-0.1-0.3,0s-0.4,0.2-0.5,0.2l-0.3,0.1c0.1-0.1,0.1-0.1,0.1-0.1c-0.3,0.1-0.6,0.3-0.9,0.5c-0.2,0.2-0.4,0.3-0.7,0.4
			c-0.2,0.2-0.5,0.3-0.8,0.4c-0.5,0.2-0.1-0.1-0.2-0.1s-1.5,0.8-1.1,0.8c-0.2,0.1-0.6,0.3-0.7,0.3s-0.1-0.1-0.4,0s-0.3,0.4-0.3,0.5
			h0.1c-0.3,0.2-0.5,0.3-0.8,0.4c0,0.1,0.3,0,0.6-0.2c0,0.1-0.4,0.3-0.3,0.3s0.2,0,0.4-0.1l0.2-0.1l0.2,0c0.2-0.1,0.2,0,0.3-0.2
			s0,0-0.2,0s-0.6,0.3-0.6,0.1c0.3-0.2,0.6-0.4,0.9-0.5c0.4-0.2,0.1,0.2,0.4,0.1c0.2,0,0.2-0.1,0.4-0.1s-0.1,0.1,0.2,0
			s0.7-0.5,0.2-0.3c0.2-0.1,0.4-0.1,0.4-0.2s-0.3,0-0.2-0.1c0.3-0.2,0.6-0.3,0.9-0.5c0.3-0.1,0.3-0.2,0.3-0.1s-0.1,0.2,0.1,0.2
			s0.2-0.2,0.4-0.2v0.1h0.2c0.2-0.2,0-0.2,0.4-0.4c0.2-0.1,0.3-0.1,0.4-0.2c0.1-0.1,0-0.1-0.1-0.1c0.2-0.1,0.5-0.2,0.7-0.2
			c0.2,0,0.4-0.1,0.5-0.2 M90.9,364.5l0.4-0.3c-0.1-0.1-0.4,0-0.8,0.1c0.1-0.1,0.2-0.1,0-0.1s-0.3,0.2-0.5,0.3s-0.3,0.1-0.6,0.2
			c-0.2,0.1-0.4,0.2-0.6,0.3c-0.1,0.1-0.1,0.1-0.1,0.2l0.4-0.1c0,0.1-0.3,0.3,0,0.2s0.4-0.2,0.6-0.3c0.3-0.2,0.4-0.2,0.8-0.4h0.1
			C90.7,364.6,90.8,364.6,90.9,364.5 M93.2,363.2c-0.2,0.1-0.7,0.4-0.9,0.4s-0.1,0,0.1-0.1c-0.1-0.1,0-0.2-0.6,0.1l0.2,0.1v0.1
			c0.1,0.1,0.3,0.1,0.4,0.1c0.2-0.1,0.2-0.3,0.4-0.4c0.1,0,0.2-0.1,0.3-0.1C93.2,363.3,93.3,363.2,93.2,363.2L93.2,363.2
			 M94.7,362.5c-0.2,0.1,0,0.2-0.1,0.3c-0.2,0.2-0.4,0.3-0.6,0.4c-0.2,0.1-0.2,0-0.2-0.1s0.3-0.2,0.6-0.4h-0.2h-0.1l0,0
			c-0.1,0-0.2,0.1-0.3,0.1c-0.3,0.1-0.1-0.1-0.2-0.1c0.2-0.2,0.8-0.4,0.5-0.4c-0.1,0-0.2,0.1-0.2,0c0.1-0.1,0.3-0.2,0.4-0.2
			c0.2-0.1,0.3,0,0.4,0H95c0.1,0,0,0.1,0.2,0s0.2-0.2,0.2-0.2s-0.2,0-0.2,0c0.3-0.2,0.6-0.4,0.9-0.5c0,0.1,0.2,0,0.2,0
			s-0.3,0.3-0.2,0.2c-0.2,0.1-0.1,0.2-0.4,0.4S95,362.3,94.7,362.5"/>
		<path class="st2" d="M73.1,373.3l-0.4,0.2l-0.4,0.2c-0.3,0.2-0.7,0.3-1,0.5c0,0-0.1-0.1-0.2-0.1s-0.4,0.2-0.5,0.2s0.2,0.2-0.2,0.3
			s-0.2-0.1-0.2-0.2s-0.4,0.2-0.5,0.3s-0.2,0-0.3,0.2c0.1,0.1,0.2,0.1-0.2,0.3l-0.4,0.2l-0.3,0.2c-0.2,0.1-0.5,0.2-0.2,0
			c0.3-0.2,0.5-0.3,0.8-0.5c-0.1-0.1-0.2-0.1,0.2-0.4l1.4-0.7l1-0.6l0.4-0.2c0.2-0.1,0.2-0.1,0.3-0.1c-0.3,0.2-0.6,0.3-0.9,0.5
			l-0.5,0.3c0.1,0,0.2,0,0.3,0C72.1,373.7,72.5,373.5,73.1,373.3 M77.8,370.9c0.1,0,0.1-0.1,0.2-0.2c-0.2,0.1-0.3,0.2-0.5,0.2
			c0.1-0.1-0.2,0,0-0.1c-0.1,0.1-0.1,0.2-0.3,0.2c-0.2,0.1-0.5,0.2-0.6,0.3l0.1-0.1c-0.5,0.4-1,0.7-1.5,0.9
			c-0.1-0.1,0.4-0.2,0.5-0.3c0.1-0.1,0.2-0.1,0.3-0.2l0.2-0.1l0.2-0.1c0.1-0.1,0.2-0.1,0.3-0.2c-0.3,0-0.6,0.2-0.8,0.3l-1.3,0.6
			c-0.2,0.1-0.6,0.2-0.8,0.4l-0.3,0.2c-0.2,0.1-0.3,0.2-0.5,0.2c0.1,0,0.3,0,0.4-0.1c0.1,0,0.3-0.2,0.4-0.2l0.5-0.2l0.5-0.2
			l-0.1,0.2c-0.2,0.1-0.6,0.2-0.6,0.3l0.5-0.2h-0.1l0.2-0.1l-0.9,0.4c0.3-0.1,0.6-0.3,0.9-0.4l-0.2,0.1l0.4-0.2l0,0l1.4-0.7
			L77.8,370.9L77.8,370.9l0.2,0l0.1,0"/>
		<path class="st2" d="M67.2,376.3c-0.2,0-0.2-0.2-0.2-0.3l-0.8,0.5c0.2,0,0.4-0.1,0.6-0.2c-0.2,0.2-0.2,0.3,0,0.3
			C67,376.4,67.2,376.3,67.2,376.3 M69.5,374.8c-0.1,0.1-0.3,0.1-0.4,0.1l0.1-0.1c-0.2,0.1-0.3,0.2-0.2,0.3
			c-0.3,0.1-0.5,0.2-0.7,0.4v-0.1l-0.2,0.2c-0.2,0.1-0.3,0.2-0.5,0.3c0.2,0,0.4-0.1,0.5-0.2c-0.1,0.1-0.2,0.3-0.4,0.3
			c0.3-0.1,0.6-0.2,0.9-0.3c-0.1,0.2,0.3,0,0.4-0.1c-0.4,0.1,0.1-0.2,0.3-0.4c0.6-0.4,0.2-0.2,0.2-0.4l0.2-0.1c0,0,0,0,0,0.1"/>
		<path class="st2" d="M78,370.5c-0.2,0.1-0.4,0.1-0.4,0c-0.1,0.1-0.2,0.3-0.3,0.4 M66.5,376.1c-0.2,0.1-0.6,0.3-0.6,0.2
			c0.2-0.1,0.5-0.2,0.8-0.3L66.5,376.1"/>
		<path class="st2" d="M65.1,377.1c-0.4,0.3-0.5,0.5-0.5,0.6c0-0.1-0.3-0.1-0.5-0.1c-0.1,0.1-0.2,0.2-0.3,0.2v-0.1l-0.3,0.2l0,0
			c-0.1,0.1-0.4,0.4-0.5,0.2c-0.3,0.2-0.6,0.3-0.6,0.2c0.6-0.3,1.1-0.6,1.7-0.9c0-0.1,0-0.2,0.1-0.3c0.1,0,0.2,0,0.2,0.1
			s0.1-0.1,0.1-0.2C65,377,64.8,377.3,65.1,377.1 M66.3,376.6c-0.1,0.1-0.1,0.2-0.2,0.3c0-0.1,0-0.2-0.1-0.2l-0.3,0.2
			c-0.1,0-0.1,0-0.1,0L66.3,376.6 M74.6,372.6c-0.2,0.1-0.6,0.3-0.9,0.5c0.1-0.1,0.2-0.2,0.2-0.3c0.2-0.1,0.4-0.2,0.4-0.2"/>
		<path class="st2" d="M62.7,378.1C62.7,378.1,62.7,378.1,62.7,378.1c-0.2,0.1-0.3,0.2-0.4,0.3h-0.1c-0.2,0.2-0.2,0.3,0,0.3
			c-0.3,0.2-0.8,0.5-0.8,0.5l0,0c-0.3,0.1-0.8,0.4-1.2,0.5l0.7-0.4c-0.9,0.4-1.9,0.9-2.7,1.4c-0.7,0.5-1.5,0.9-2.2,1.3v-0.1
			c0.6-0.3,1.1-0.6,1.6-0.9c-0.5,0.2-0.3,0-0.2-0.2c0.2,0,0.4-0.1,0.5-0.1c-0.1-0.2,0.4-0.5,0.8-0.5v-0.1c0.1,0,0.2,0,0.2,0
			l-0.1-0.1c0.5-0.2,0.2,0.1,0.9-0.2c1-0.5-0.2,0,0.2-0.4l0.5-0.1c0,0,0.1,0,0.2,0s0-0.2,0.2-0.4c0.1,0,0.1,0,0.2,0.1
			c0.1-0.1,0.1-0.1,0.1-0.2l0.7-0.3v0.2c0-0.2,0.5-0.4,0.8-0.6L62.7,378.1"/>
		<path class="st2" d="M46.5,387.1c0.5-0.3,1-0.6,1.5-0.9l-0.2,0.3c0.5-0.2,0.9-0.5,1.3-0.9l-1.1,0.5l0.9-0.5c0,0-0.2,0.1-0.3,0.1
			s0.1-0.1,0-0.1l-0.5,0.3l0.3-0.3c-0.2,0.1-0.6,0.3-0.8,0.5c0.3-0.1,0.2,0,0.4,0.1 M54.6,382.6c0.3-0.2,1.2-0.6,1-0.6
			c0.3-0.2,0.7-0.4,1-0.6c-0.3,0-0.5,0.2-0.7,0.3c0.2-0.1,0.4-0.3,0.6-0.4c-0.5,0.2-1,0.4-1.4,0.7l-1.3,0.7c0.2,0,0.2,0,0.1,0.1
			c-0.5,0.1-0.4,0.4-0.4,0.4c0.3-0.1,0.3-0.2,0.6-0.4S54.5,382.8,54.6,382.6"/>
		<path class="st2" d="M82.2,344l0.1-0.1L82,344C82,344.1,82.1,344,82.2,344 M49.4,385.5c0.4-0.3,0.8-0.5,1.3-0.6
			c0.4-0.1,0.8-0.4,0.6-0.5l0.7-0.3v0.1l0.5-0.2c0.2,0.1,0.4-0.1,0.6-0.3c-0.2,0.1-0.4,0.1-0.6,0.2c0.1-0.1,0.2-0.2,0.3-0.3
			c-0.7,0.3-1.4,0.6-2,1c-0.1,0.1,0.1-0.1,0.2-0.1c-0.2,0.1-0.4,0.2-0.6,0.3l-0.2,0.2l-0.5,0.2c0,0-0.1,0.2-0.1,0.2l0.5-0.2"/>
		<path class="st2" d="M81.1,345c0,0,0-0.1,0-0.1S81.1,345,81.1,345 M81.8,344.2c0,0.1-0.2,0.2-0.3,0.1L81.8,344.2"/>
		<path class="st2" d="M78,346.9c0-0.1,0.1-0.1,0-0.1l-0.2,0.1v0c-0.2,0-0.3,0.1-0.4,0.2l0,0l0.1-0.1
			C77.5,347.3,77.8,346.9,78,346.9 M78.3,346.3v-0.1c0,0.1-0.1,0.1-0.2,0.1l0.1-0.1l-0.2,0.1C78,346.4,78.4,346.3,78.3,346.3
			 M80,345.2c-0.2,0.1-0.3,0.2-0.4,0.3s0,0.2-0.2,0.4c0.2,0.1-0.3,0.3-0.4,0.2c-0.3,0.3-0.6,0.1-0.6-0.1c0.2-0.1,0.4-0.2,0.6-0.3
			c0.2-0.1,0.3-0.4,0.5-0.4C79.7,345.5,79.9,345.1,80,345.2 M81,344.7c-0.1,0-0.1,0-0.2,0.1h0.1L81,344.7"/>
		<path class="st2" d="M76.8,347.4c-0.3,0.2-0.4,0.5-0.8,0.5c-0.1,0.2-0.3,0.4-0.6,0.3c-0.1,0.1-0.2,0.2-0.3,0.3l-0.1-0.1
			c-0.2,0.2-0.4,0.2-0.4,0l-0.3,0.1c0.1-0.1,0.2-0.1,0.3-0.3s0.1-0.2,0.2-0.3s0.2,0,0.3,0.1l0.1-0.1v0c0.1-0.1,0.2-0.1,0.3-0.1v0.1
			c0.1-0.1,0.2-0.2,0.3-0.2c0,0,0-0.1,0-0.2l0.2-0.1c-0.2-0.2,0.3-0.3,0.4-0.1c0.1,0,0.3-0.1,0.4-0.1c0.1,0.1,0.2-0.1,0.3-0.1
			L76.8,347.4L76.8,347.4L76.8,347.4 M78.9,346.4c-0.1,0.1-0.4,0.2-0.4,0.1s0.3-0.2,0.2,0L78.9,346.4 M77.6,346.7
			C77.6,346.7,77.7,346.7,77.6,346.7l-0.1,0.1C77.5,346.7,77.5,346.7,77.6,346.7L77.6,346.7"/>
		<path class="st2" d="M74.3,348.5c-0.1,0-0.3,0.2-0.4,0.2S74.2,348.5,74.3,348.5 M78,346.6c-0.1,0.1-0.2,0.1-0.2,0.2
			c-0.1,0.1-0.1,0.1-0.3,0.1s-0.1,0,0-0.1h0.1l0.1-0.1C77.7,346.9,77.9,346.7,78,346.6L78,346.6"/>
		<path class="st2" d="M72.1,349.8c0.1,0,0,0.1,0,0.1s-0.1,0-0.2,0.1v0.1c0,0.1-0.1,0.1-0.1,0.2s-0.1,0-0.1,0s0-0.1,0-0.1
			s-0.3,0.1-0.4,0.1s0,0.1,0,0.2l-0.1,0.2c0,0-0.1,0-0.2,0s0-0.1,0-0.1s-0.1,0.1-0.3,0c0-0.1,0-0.1,0.2-0.2s0.1-0.1,0.1-0.2
			c0.1,0,0.4-0.1,0.4-0.1s0.2-0.1,0.2-0.2c0.1,0,0.2-0.1,0.3-0.1C72.1,349.8,72.2,349.7,72.1,349.8 M75.1,347.6
			c-0.1,0-0.2,0-0.2,0.1L75.1,347.6 M73.5,348.5c0.1-0.1-0.2,0-0.3,0C73.2,348.7,73.4,348.5,73.5,348.5 M73.8,348.9
			c-0.1,0-0.2,0.1-0.2,0.2l-0.2,0.2h0.1c0,0.2-0.4,0.4-0.6,0.5s-0.2,0-0.3-0.1s0,0,0-0.1h-0.2c0.1-0.1,0.2-0.2,0.3-0.1
			c0,0,0,0,0.1,0v-0.1v-0.1c0.1-0.1,0.2-0.2,0.3-0.2l0.4-0.2C73.5,348.9,73.6,348.9,73.8,348.9 M74.4,348.7c-0.1,0-0.4,0.3-0.5,0.3
			s0.2-0.1,0.2-0.1L74.4,348.7"/>
		<path class="st2" d="M69.3,351.3c-0.1,0.2-0.2,0.1-0.4,0.2s-0.2,0.1-0.3,0.1l0.1-0.2c0.1,0,0.2-0.1,0.2,0s0.1-0.2,0.2-0.1
			C69.1,351.3,69.3,351.2,69.3,351.3 M70.7,351c0-0.1,0-0.2-0.2-0.2s-0.2,0.1-0.2,0s0.1-0.1,0.1-0.2s0.4-0.1,0.3-0.2
			s-0.5,0.1-0.6,0.3s0.2,0.1,0.2,0.2s-0.2,0.1-0.2,0l-0.2,0.2c-0.1,0.1,0,0.2-0.2,0.2s0.2,0,0.2,0c0,0.2,0.1,0,0.2,0.1
			c0.1-0.1,0-0.1,0.2-0.2s0.1,0,0.2,0s0.1-0.1,0-0.1L70.7,351"/>
		<path class="st2" d="M69.5,351.5c-0.1,0-0.1,0-0.2,0c-0.1,0,0,0.1-0.1,0.1c0-0.1-0.2,0-0.3,0.1s-0.2,0-0.3,0.2l-0.2,0.1
			c0.2,0,0.3,0,0.5-0.1l0.2-0.2l0.2-0.1L69.5,351.5"/>
		<path class="st2" d="M65,354c0-0.1,0.1-0.2,0.1-0.2l-0.3,0.2l0.1-0.1c-0.1,0,0-0.1-0.2-0.1l-0.2,0.1h-0.1v-0.1
			c-0.2,0-0.3,0.1-0.3,0.3s-0.1,0.1-0.3,0.2c-0.1,0.1-0.2,0.2-0.3,0.2c-0.2,0.1-0.1-0.1-0.1-0.1s-0.6,0.4-0.4,0.4
			c-0.1,0-0.3,0.1-0.3,0.1s-0.1-0.2-0.2-0.1c-0.1,0.1-0.1,0.2,0,0.3l0,0c0,0.1-0.2,0.1-0.3,0.2s0.2,0.1,0.3,0c0,0.1-0.1,0.1-0.1,0.2
			s0.1,0,0.2,0l0.1,0h0.1c0.1,0,0.1,0,0.1-0.1s0-0.1-0.1-0.1s-0.3,0.1-0.3,0c0.1-0.1,0.2-0.2,0.4-0.2c0.2-0.1,0.1,0.2,0.2,0.2
			s0.1-0.1,0.2,0s0,0.1,0.1,0s0.3-0.3,0-0.2c0.1,0,0.2,0,0.2-0.1s-0.1,0-0.1-0.1s0.3-0.2,0.4-0.2s0.1-0.1,0.2,0s0,0.2,0.1,0.2
			s0.1-0.1,0.2-0.1v0.1h0.1c0.1-0.1,0-0.2,0.1-0.3s0.1,0,0.2-0.1s0-0.1-0.1-0.1c0.1-0.1,0.2-0.1,0.3,0C64.8,354.1,64.9,354.1,65,354
			 M66.1,353.3l0.2-0.2c-0.1-0.1-0.2-0.1-0.4,0c0,0,0-0.1,0-0.1s-0.1,0.1-0.2,0.2s-0.2,0-0.2,0s-0.1,0.1-0.2,0.1v0.2h0.2
			c0,0.1-0.1,0.2,0.1,0.2s0.2-0.1,0.3-0.1C65.8,353.4,65.9,353.5,66.1,353.3L66.1,353.3L66.1,353.3 M67.1,352.6
			c-0.1,0-0.3,0.2-0.4,0.2s-0.1-0.1,0-0.1c-0.1-0.1-0.1-0.2-0.3,0l0.1,0.1v0.1c0.1,0.1,0.1,0.1,0.2,0.1c0-0.1,0-0.2,0.1-0.3
			s0.1,0,0.1,0S67.1,352.7,67.1,352.6L67.1,352.6 M67.8,352.4c-0.1,0.1,0,0.2,0,0.2c-0.1,0.1-0.2,0.2-0.3,0.2
			c-0.1,0-0.1-0.1-0.1-0.1s0.1-0.1,0.2-0.2h-0.1l0,0l0,0l-0.1,0c-0.1,0-0.1-0.1-0.1-0.2s0.3-0.2,0.2-0.2s-0.1,0-0.1,0
			s0.1-0.1,0.2-0.1s0.2,0.1,0.2,0.1h0.2c0.1,0,0,0.1,0.1,0s0.1-0.1,0.1-0.2h-0.1c0-0.1,0.3-0.2,0.4-0.2s0.1,0,0.2,0.1
			s-0.1,0.2,0,0.2s0,0.2-0.1,0.3s-0.4,0.1-0.4,0.2"/>
		<path class="st2" d="M61.6,356c0-0.1,0.1-0.1,0.1-0.2h-0.1c0.1-0.1,0.2-0.1,0.3-0.1c0.1-0.1,0.1-0.1,0-0.1s-0.2,0.1-0.2,0
			c0.1-0.1,0.1-0.1,0.2-0.1c0-0.2-0.5,0.2-0.4,0.1h-0.1c0,0.1,0,0.1-0.1,0.1h-0.1l-0.1,0.1c0.1,0,0.1,0,0.1,0.1c0,0-0.1-0.2-0.2-0.1
			l-0.1,0.1l-0.1,0l-0.3,0.2c-0.1,0-0.2,0-0.2,0.1s0.2,0,0.2,0.1l0.1-0.1c0.1,0,0.2-0.1,0.3-0.1l-0.2,0.1c0.1,0,0.2-0.2,0.3-0.2
			s0.1,0.1,0.2,0.2l0.1-0.1c0.1,0,0,0.1,0,0.1s0.2-0.1,0.2-0.1S61.6,356.1,61.6,356"/>
		<path class="st2" d="M60.7,356.2l0-0.1l-0.2,0.1c0-0.1-0.1,0-0.1-0.1c0,0.1,0,0.1-0.1,0.2l-0.3,0.1v-0.1c-0.2,0.2-0.4,0.4-0.6,0.4
			c-0.1-0.1,0.2-0.1,0.2-0.2l0.1-0.1h0.1l0.1-0.1l0.1-0.1c-0.2,0-0.2,0-0.4,0.1l-0.5,0.3l-0.3,0.2l-0.1,0.1c-0.1,0.1-0.2,0-0.2,0.1
			h0.2c0,0,0.1-0.1,0.2,0l0.2-0.1l0.2-0.1v0.1c-0.1,0-0.3,0-0.3,0.1l0.2-0.1l0,0l0.1,0l-0.4,0.2l0.4-0.2l0,0.1l0.2-0.1l0,0l0.6-0.3
			L60.7,356.2L60.7,356.2L60.7,356.2L60.7,356.2"/>
		<path class="st2" d="M58.6,357.3l-0.2,0.1l-0.2,0.1c-0.1,0.1-0.3,0.2-0.4,0.2c0,0-0.1-0.1-0.1-0.1s-0.2,0.1-0.2,0.1s0.1,0.2,0,0.3
			s-0.1-0.1-0.2-0.2l-0.2,0.1c-0.1,0-0.1,0-0.2,0.1s0.1,0.1,0,0.2l-0.2,0.1l-0.1,0.1c-0.1,0.1-0.2,0-0.1-0.1
			c0.1-0.1,0.2-0.2,0.3-0.2c-0.1-0.1-0.1-0.2,0-0.3l0.6-0.3l0.4-0.3l0.2-0.1c0.1,0,0.1,0,0.2,0l-0.4,0.2l-0.2,0.1l0.2,0.1
			C58.2,357.4,58.4,357.3,58.6,357.3"/>
		<path class="st2" d="M57,357.8h-0.2v-0.1c-0.1,0.1-0.1,0.1-0.1,0.2s-0.2,0.1-0.3,0.1l-0.1-0.1c0,0-0.1,0.1-0.1,0.2l-0.2,0.2
			c0.1,0,0.2,0,0.2,0c0,0.1-0.1,0.2-0.1,0.2c0.1,0,0.3,0,0.4-0.1c0,0.1,0.2,0.1,0.2,0c-0.2,0,0-0.1,0.1-0.2s0-0.1,0-0.3L57,357.8
			L57,357.8"/>
		<path class="st2" d="M56.1,358.6c-0.1-0.1-0.1-0.2-0.2-0.3l-0.3,0.2c0.1,0,0.2,0,0.3-0.1c-0.1,0.1,0,0.2,0.1,0.2L56.1,358.6"/>
		<path class="st2" d="M60.6,355.8c-0.1,0-0.2,0-0.2-0.1c0,0.1,0,0.3-0.1,0.3 M55.7,358.3c-0.1,0.1-0.2,0.2-0.3,0.1L55.7,358.3
			L55.7,358.3"/>
		<path class="st2" d="M55.1,358.8c-0.1,0.1-0.2,0.3-0.1,0.5c0-0.1-0.2-0.2-0.3-0.2l-0.1,0.1v-0.1l-0.1,0.1v0c0,0.1-0.1,0.2-0.2,0.1
			c-0.1,0.1-0.2,0.1-0.3,0c0.2-0.1,0.5-0.2,0.7-0.4c0-0.1,0-0.2,0-0.3l0.1,0.1v-0.1C55,358.6,55,358.8,55.1,358.8 M55.7,358.6v0.2
			c0-0.1,0-0.2-0.1-0.2l-0.1,0.1l-0.1,0L55.7,358.6 M59.3,356.9c-0.1,0-0.2,0.2-0.4,0.2c0-0.1,0.1-0.1,0.1-0.2c0.1,0,0.2-0.1,0.2,0"
			/>
		<path class="st2" d="M54,359.1L54,359.1l-0.1,0.2l0,0c-0.1,0.1-0.1,0.2,0,0.3c-0.1,0.1-0.3,0.2-0.3,0.3l0,0
			c-0.2,0-0.4,0.1-0.5,0.2l0.3-0.2c-0.4,0.2-0.8,0.3-1.2,0.6c-0.3,0.2-0.6,0.4-1,0.5v-0.1c0.2-0.1,0.5-0.2,0.7-0.4
			c-0.2,0.1-0.2-0.1-0.2-0.2c0.1,0,0.2,0,0.3,0.1c-0.1-0.2,0.1-0.3,0.3-0.2V360c0,0,0.1,0,0.1,0.1l-0.1-0.1c0.2,0,0.1,0.2,0.4,0
			s-0.1-0.1,0-0.3H53l0.1,0.1c0-0.1-0.1-0.2,0-0.3l0.1,0.1v-0.2l0.3-0.1v0.1c0-0.2,0.2-0.2,0.3-0.3v0.1"/>
		<path class="st2" d="M46.9,362.9c0.2-0.1,0.4-0.3,0.7-0.4v0.2c0.2-0.1,0.4-0.2,0.5-0.4l-0.5,0.1l0.4-0.2h-0.1c0,0,0-0.1,0-0.1
			l-0.2,0.1l0.1-0.2l-0.4,0.2c0.2,0,0.2,0.1,0.2,0.2 M50.6,361.2c0.1-0.1,0.5-0.2,0.4-0.3c0.1-0.1,0.3-0.2,0.4-0.3
			c-0.1-0.1-0.2,0-0.3,0.1c0.1-0.1,0.1-0.1,0.2-0.2c-0.2,0-0.4,0.2-0.6,0.3l-0.6,0.3c0.1,0,0.1,0.1,0.1,0.1c-0.2,0-0.1,0.2-0.1,0.3
			s0.1-0.1,0.2-0.2L50.6,361.2"/>
		<rect x="35.2" y="151" class="st3" width="421.6" height="182.2"/>
		<rect x="35.2" y="327.5" class="st2" width="421.6" height="8.5"/>
		<g>
			<g>
				<defs>
					<rect id="SVGID_1_" x="384" y="161.6" width="63.2" height="70.4"/>
				</defs>
				<clipPath id="SVGID_00000151541867304571573560000002090440527175189153_">
					<use xlink:href="#SVGID_1_"  style="overflow:visible;"/>
				</clipPath>
				<g style="clip-path:url(#SVGID_00000151541867304571573560000002090440527175189153_);">
					<g>
						<defs>
							<rect id="SVGID_00000153693581208079927630000010225364555659555470_" x="384" y="161.6" width="63.2" height="70.4"/>
						</defs>
						<clipPath id="SVGID_00000001626950021837170960000007302950435394107045_">
							<use xlink:href="#SVGID_00000153693581208079927630000010225364555659555470_"  style="overflow:visible;"/>
						</clipPath>
						<g style="clip-path:url(#SVGID_00000001626950021837170960000007302950435394107045_);">
							<g>
								<defs>
									<rect id="SVGID_00000142869501604581049990000009918162404158067079_" x="384" y="161.6" width="63.2" height="70.4"/>
								</defs>
								<clipPath id="SVGID_00000121275242861809384940000018400185144575059087_">
									<use xlink:href="#SVGID_00000142869501604581049990000009918162404158067079_"  style="overflow:visible;"/>
								</clipPath>
								<g style="clip-path:url(#SVGID_00000121275242861809384940000018400185144575059087_);">
									<path class="st7" d="M385.5,162.7l59.1-1.1c2.2,0,2.6,0.4,2.6,1.9l-0.5,66.1c0,0.6-0.5,1.1-1.1,1.2l-60.8,1.3
										c-0.4,0-0.8-0.3-0.8-0.8c0,0,0,0,0,0l0.1-67.1C384.1,163.3,384.7,162.7,385.5,162.7"/>
								</g>
							</g>
						</g>
					</g>
				</g>
			</g>
		</g>
		<path class="st8" d="M404,162.3c4-9.6,7.3-15.8,8.8-22.4c2.8,9,6,15.9,9.6,20.8"/>
		<path class="st9" d="M382.8,160.8l59.1-1.5c2.2,0,2.6,0.4,2.6,1.8v66.1c0,0.6-0.5,1.1-1.1,1.2l-60.8,1.8c-0.4,0-0.8-0.3-0.8-0.8
			c0,0,0,0,0,0l-0.4-67.1C381.4,161.5,382,160.9,382.8,160.8C382.8,160.8,382.8,160.8,382.8,160.8"/>
		<polygon class="st10" points="388.7,167.8 388.7,222.3 437.1,220.7 437.1,166.8 		"/>
		<path class="st11" d="M414.3,138.3c0,0.8-0.7,1.5-1.5,1.5s-1.5-0.7-1.5-1.5c0-0.8,0.7-1.5,1.5-1.5l0,0
			C413.7,136.8,414.3,137.5,414.3,138.3"/>
		<path class="st12" d="M421.4,184.3c0.2,2.6-1.7,4.9-4.3,5.1c-2.6,0.2-4.9-1.7-5.1-4.3c0-0.3,0-0.6,0-0.9c0.1-2.6,2.4-4.6,5-4.5
			C419.4,179.9,421.3,181.9,421.4,184.3"/>
		<path class="st7" d="M413.8,202.4c1.5,0.7,2.8,1.6,3.9,2.9c1.7,0.5,3.5,0.6,5.3,0.4c1.2-0.3,2.4-0.9,3.3-1.7
			c2-3.3,3.2-7.7,2.5-10.4c1.6,0.2,3.3-0.3,4.5-1.5c2-1.9,2-5.1,0.1-7c-0.1-0.1-0.2-0.2-0.4-0.3c-2-2.2-5.3-2.3-7.5-0.4
			c-0.1,0-0.1,0.1-0.2,0.1c-1,0.9-1.6,2.2-1.7,3.6c-0.2-0.1-0.4-0.2-0.5-0.3c-4.2-2.9-5.5-1.3-28.6,4.6c-0.7,0.3-0.9,1.1-0.6,1.7
			c0.1,0.2,0.2,0.3,0.3,0.4C398.6,197.2,408.8,199.5,413.8,202.4"/>
		<path class="st13" d="M422.1,192.7c0,1.5-1.2,2.8-2.7,2.8c0,0-0.1,0-0.1,0c-1.3-0.2-2.3-1.4-2.1-2.8c0,0,0,0,0,0
			c0.1-1.3,1.1-2.4,2.4-2.5C421,190.3,422.1,191.4,422.1,192.7"/>
		<path class="st11" d="M419.4,192.6c0,0.2-0.2,0.4-0.4,0.4c0,0-0.1,0-0.1,0c-0.2-0.1-0.4-0.3-0.3-0.5c0,0,0,0,0,0
			c0.1-0.2,0.2-0.4,0.4-0.3C419.2,192.2,419.4,192.4,419.4,192.6"/>
		<path class="st14" d="M417.2,198.4c0,1.1-0.6,2-1.3,2c-0.7,0-1.3-0.9-1.3-2"/>
		<path class="st15" d="M399.3,191.1c0,0-6.3,1.2-6.5,1.9c-0.2,0.7,0.3,1.3,3,2.5c1.1,0.5,2.2,0.9,3.3,1.3c0.2-0.7,0.3-1.4,0.4-2.2
			C399.5,193.5,399.5,192.3,399.3,191.1 M427,187.2c0.8-0.8,2.2-0.8,3,0c0.1,0.1,0.2,0.2,0.2,0.3c0.8,0.9,0.8,2.3-0.1,3.1
			c-0.1,0.1-0.1,0.1-0.2,0.2c-1,0.9-2.5,0.8-3.4-0.1C425.7,189.6,425.9,188.1,427,187.2"/>
		<path class="st16" d="M417,204.7c1.5,0.2,3,0.3,4.6,0.3c1.7-0.1,3.4-0.5,4.9-1.1c0,0,1.6,4.3,2.8,8.6c1,3.3,1.9,8.5,1.9,8.5
			l-18.3,0.6c0,0,0.8-4.8,1.3-6.9C415.5,209.6,417,204.7,417,204.7"/>
		<path class="st13" d="M416.3,206.5c1.8,0.3,3.5,0.4,5.3,0.3c1.9-0.2,3.8-0.7,5.6-1.4l-0.6-1.7c-1.8,0.6-3.7,1-5.6,1.2
			c-1.5,0.1-2.9-0.1-4.3-0.4L416.3,206.5z"/>
		<g>
			<g>
				<defs>
					<rect id="SVGID_00000044179001428983394180000006612536344470346368_" x="196.5" y="58.6" width="169.2" height="209.4"/>
				</defs>
				<clipPath id="SVGID_00000036250419977774639770000001806315796196843699_">
					<use xlink:href="#SVGID_00000044179001428983394180000006612536344470346368_"  style="overflow:visible;"/>
				</clipPath>
				<g style="clip-path:url(#SVGID_00000036250419977774639770000001806315796196843699_);">
					<g>
						<defs>
							<rect id="SVGID_00000006676922451281362650000007750824840659073718_" x="196.5" y="58.6" width="169.2" height="209.4"/>
						</defs>
						<clipPath id="SVGID_00000101814954943086597500000009429963007820369084_">
							<use xlink:href="#SVGID_00000006676922451281362650000007750824840659073718_"  style="overflow:visible;"/>
						</clipPath>
						<g style="clip-path:url(#SVGID_00000101814954943086597500000009429963007820369084_);">
							<g>
								<defs>
									<rect id="SVGID_00000127754913405851672820000008047622237203550596_" x="196.5" y="58.6" width="169.2" height="209.4"/>
								</defs>
								<clipPath id="SVGID_00000015348480516831607290000007167185211331008896_">
									<use xlink:href="#SVGID_00000127754913405851672820000008047622237203550596_"  style="overflow:visible;"/>
								</clipPath>
								<g style="clip-path:url(#SVGID_00000015348480516831607290000007167185211331008896_);">
									<path class="st7" d="M356.7,161.8c-1.1-1.4-1.3-3.2-0.6-4.8c16.6-38.4-15.7-68.6,2.3-80.9c-4.1,0.1-5.8-0.9-6.1-5.8
										c-0.3-2.8-2.7-4.9-5.5-4.7c-4.3,0.4-8.9-3.2-6.2-7c-13.5,19-37.3-11.3-55.5,7.3c-1.3,1.3-3.4,1.3-4.7,0.1
										c-21.6-19.9-54.4,14.7-62.7-3.9c-1.1,2.9-1.5,7.7-5.6,7.4c-6.7-0.5-4.7,3.1-7.5,7.1c-0.9,1.4-8,1.9-8,1.9
										c22.9,13.9-9.5,50.1,7.5,84.6c0.7,1.4,0.6,3-0.3,4.3c-17.2,26.8,15.1,58.5-2.8,83.9c5-0.2,7.8,1.4,7.1,6.9
										c-0.5,3.6,4.3,4.9,7,4.3c4.9-1.2,7.7,1.6,9.8,5.5c6.8-15.2,37.3,7.2,56.1-6.4c2-1.4,4.6-1.6,6.7-0.3
										c25,14.7,52-7.4,59.6,5.6c0.5-3.7,0.5-9,3-9.3c5.3-0.8,8.4-3.7,8.2-8.5c-0.1-3.1,4.3-4.4,7.3-5.7
										C345.6,240.9,374.3,183.3,356.7,161.8 M349,252.1l-130.2,2.2c-1.6-15.4-7.7-116.7-5.5-178.5l132.7-2.3
										C344.8,137.3,345.7,189.2,349,252.1"/>
								</g>
							</g>
						</g>
					</g>
				</g>
			</g>
		</g>
		<path class="st20" d="M345.2,250.5H214.9c-1.3-15.5-5.7-116.8-2.4-178.6h132.7C343,135.6,343,187.5,345.2,250.5"/>
		<path class="st21" d="M354.5,160.3c-1-1.4-1.2-3.2-0.5-4.8c17.2-38.1-14.5-68.9,3.6-80.9c-4.1,0-5.8-1-6-5.9
			c-0.2-2.8-2.6-4.9-5.4-4.8c-4.3,0.3-8.8-3.3-6.1-7.1c-13.8,18.7-37.1-11.9-55.6,6.4c-1.3,1.3-3.4,1.3-4.7,0
			c-21.2-20.3-54.6,13.8-62.6-4.9c-1.2,2.8-1.6,7.6-5.7,7.3c-6.7-0.6-4.8,3.1-7.6,7c-1,1.3-8.1,1.7-8.1,1.7
			c22.6,14.3-10.3,49.9,6.1,84.7c0.6,1.4,0.5,3-0.4,4.3c-17.6,26.5,14.1,58.8-4.2,83.9c5-0.2,7.8,1.6,7,7c-0.5,3.6,4.2,4.9,6.9,4.4
			c4.9-1.1,7.7,1.7,9.6,5.7c7-15.1,37.2,7.8,56.2-5.5c2-1.4,4.6-1.5,6.7-0.2c24.7,15.2,52.1-6.5,59.5,6.6c0.6-3.7,0.7-8.9,3.2-9.3
			c5.3-0.7,8.5-3.6,8.4-8.4c-0.1-3.1,4.4-4.3,7.4-5.6C342,239.1,371.7,182.1,354.5,160.3 M345.2,250.4H214.9
			c-1.3-15.5-5.7-116.8-2.4-178.6h132.7C343,135.5,343,187.5,345.2,250.4"/>
		<path class="st12" d="M281.2,204.2c-0.3,0-10.5-2.4-10.6-2c-0.3,2.3,0.1,4.6,1.4,6.5l-2.6,13.5c-1.5,8.9,2.5,9.2,7,9.1
			c1.4,0,5.7-0.5,5.7-0.5l-1.2-8.4c0,0-3.3,1.1-4.2,0.3c-0.1-4.4,0.6-8.8,1.8-13.1C281.6,207.1,281.8,204.1,281.2,204.2"/>
		<path class="st13" d="M279.4,163.5c-1.7,3.7-6,5.3-9.8,3.8c-3.3-1.3-4.7-5.2-3-9.2c1.4-3.7,5.5-5.7,9.2-4.4
			c3.6,1.4,5.3,5.4,3.9,8.9C279.7,162.9,279.6,163.2,279.4,163.5"/>
		<path class="st11" d="M273.4,160.2c-0.3,0.6-1,0.8-1.5,0.6c0,0-0.1,0-0.1,0c-0.5-0.4-0.6-1-0.2-1.5c0.3-0.6,0.8-0.8,1.2-0.7
			c0.6,0.2,0.9,0.9,0.7,1.5C273.4,160.1,273.3,160.2,273.4,160.2"/>
		<path class="st12" d="M287.6,159c-2.4-2.6-3.7-6-3.5-9.5c0-9.4,8.7-18.4,18-18.4s15.3,7.6,15.3,16.9c-0.4,5.7-2.4,11.3-5.7,16
			C311.2,164.5,288,158.6,287.6,159"/>
		<path class="st7" d="M328.4,183c0,0,10.6,1.3,16.1-10.9c-0.6-0.3,0-16.1,0-16.8c0.1-9.4-10.3-11.8-14.4-12.1
			c-9.4-1-17.9,5.7-18.9,15.1c0,0.1,0,0.2,0,0.3c-7.2-5.4-18.3-5.4-23-3.3c-14.7,6.7-33.9,14.6-66.2,27c-3.3,1.2-2.9,0.8-3,4.3
			c0,5.3,18.6,8.5,68.7,20.2c0,0,2.7,0.8,4.3,5.4c0.7,1.9-0.4,28.8,7.2,27.6c7.6-1.2,24.8-32.9,24.5-33.7c-0.3-0.8-0.7-5.6-0.8-6.4
			C326.3,194,328.4,188.4,328.4,183"/>
		<path class="st10" d="M325.1,205.8c-0.1-0.5-1.3-2.1-1.4-2.6c-0.1-0.5-9.3,3.8-15.3,9.2c-1.9,1.7-6.2,9.6-6.9,10.2L290,211.2
			c-3.7,17.6-6.1,26.9-7.6,39.5c2.7,0.1,53.2-0.5,53.2,0C332.1,236.5,329.3,221.1,325.1,205.8"/>
		<path class="st15" d="M320.4,159.3c4.3-3.8,9-2.7,12.2,0.9c3.2,3.7,3.8,9.5-1.1,12.6c-5.6,3.5-10.8,1.7-12.8-0.5
			C315.5,168.6,316,163.1,320.4,159.3"/>
		<path class="st13" d="M299.9,172.2c-1.7,3.7-6,5.3-9.8,3.8c-3.3-1.3-4.7-5.2-3-9.2c1.4-3.7,5.5-5.7,9.2-4.4c3.6,1.4,5.3,5.4,3.9,9
			C300.2,171.5,300,171.9,299.9,172.2"/>
		<path class="st11" d="M295.5,171.3c-0.3,0.6-1.1,0.9-1.7,0.6c0,0,0,0,0,0c-0.5-0.4-0.6-1.1-0.3-1.6c0.3-0.6,0.9-0.8,1.5-0.7
			C295.5,169.7,296,170.3,295.5,171.3"/>
		<path class="st22" d="M321.6,216.9l-11.1,11.6c3.2,3.3,1.9,8.2,5.1,13c6-6.5,11.2-7.1,12.2-15.9
			C327.8,220.1,325.8,212.5,321.6,216.9"/>
		<path class="st10" d="M296.8,211.4l-16.4,7.4c0.9,4.4,0.2,9.5,0.2,15.2c8.6-2.1,13-4.4,18.6-11.1
			C302.3,218.3,302.8,210.1,296.8,211.4"/>
		<path class="st9" d="M289.6,208.2c-4.5,2.6-3.6,5.6,0.4,12.6l4.2-7L289.6,208.2z"/>
		<path class="st23" d="M314.3,231.9c-1-1.4-4.5-0.2-4.9-1.1c-2.1-4-6.3-16.8-6.3-16.8c2.3-3.9,0.9-9.4-1.5-9.1
			c-1.5,0-1.6,1.4-1.2,3.2c-2.3-5.3-7.4-2.3-4.4,2.1c0,0-2.3-2.8-4.6-0.7c-2.3,2.1,4.9,7,4.9,7s5.8,16.9,8.3,21.7
			c2,3.9,5.3,3.2,11.8,0.8C316.4,236.5,315.7,234,314.3,231.9"/>
		<path class="st11" d="M297.2,196.3c-5.1-8.7-20.7-8.6-23.8,3.4c0,0,8.8-2.3,11.8-2.8C287.7,196.5,297.2,196.3,297.2,196.3"/>
		<path class="st13" d="M290,199.2l-2.5-9.1c-1.4-0.3-2.9-0.3-4.4,0c-1.4,0.2-2.8,0.8-3.9,1.6l0.9,8.5l3.8-0.4l-0.5-9.1l1.9,9
			L290,199.2z"/>
		<path class="st15" d="M234.4,177.5c0,0-16.3,5.2-16.8,6.9c-0.4,1.7,0.7,4,7.4,7c2.7,1.2,5.4,2.1,8.3,2.8c0.4-1.9,0.7-3.9,0.9-5.8
			C234.6,185.1,234.4,177.5,234.4,177.5"/>
		<path class="st9" d="M312.7,225.9c1.2,2.3,2.2,4.8,2.9,7.3c1,4.4,1.5,8.2,1.5,8.2s-3.1,2.3-3.7,1.6c-0.3-0.3-0.6-4.1-1.6-7.6
			c-1.1-3.9-2.6-6.8-2.4-7.3C309.7,227.2,312.7,225.9,312.7,225.9 M283.7,216.9l-0.5,16.8c0,0-3.6,1.2-4.1,0.4
			c-0.4-0.8-0.7-14.7,0-15.4C280.5,217.8,282.1,217.2,283.7,216.9"/>
		<path class="st9" d="M311.7,222.2c0,0,20.9-15.5,12-21.9c0,0-3,3.8-12.1,9.1c-2.9,1.7-3.5,2.5-3.1,3.7L311.7,222.2z"/>
		<path class="st24" d="M345.2,250.5H214.9c-1.3-15.5-5.7-116.8-2.4-178.6h132.7C343,135.6,343,187.5,345.2,250.5z"/>
		<g>
			<path class="st12" d="M169.4,234.4c-0.4-1.9-0.6-3.9-0.6-5.9c0-15.5,12.6-28.8,28.1-28.1c18.2,0.8,30.8,14.5,29.5,29.9
				c-1.5,18-14,26.3-29.5,26.3c-1.1,0-2.2-0.1-3.3-0.2 M108.6,251.4c-10-4.7-22.4-12.7-22.4-28.1c0-16.3,16.1-31.2,32.4-31.2
				c16.3,0,29.5,13.2,29.5,29.5c0,3.9-0.8,7.8-2.3,11.5"/>
			<path class="st12" d="M186.8,306.6c-19.3,22.7-65.3,22.1-65.5,21.7c-1.6-7.8-4.1-14-9.1-17.3c-24.6-7.4-78.9-17.4-96.1-30.4
				c-2.3-1.8-2.7-5.1-1-7.4c0.8-1,1.8-1.7,3-1.9c38.2-8.9,95.4-31.5,121.2-41.3c55.5-14.9,70.6,34.8,47.9,66.9
				c-1.9,2.6-1.8,6.2-0.7,9.2L186.8,306.6z"/>
			<path class="st25" d="M186.8,306.6c-6.4,7.5-6.2,9.9-15.8,13.2c-5.2-16.2,15.2-40,11.7-62.8c-1.6-10.4-8.2-24.1-24.4-29.7
				c39.8,0,48.8,41.5,28.9,69.6c-1.9,2.6-1.8,6.2-0.7,9.2L186.8,306.6z"/>
			<path class="st10" d="M189.7,322.3c-0.2-0.7-0.4-1.3-0.5-1.9c-0.3-0.9-66.8,23.5-67,22.8l-5.4,63.7h93.3
				C207.3,386.7,192.9,333.8,189.7,322.3"/>
			<path class="st26" d="M40.7,265.1c0,0-28.9,6.3-29.4,9.2c-0.6,3.2,1.4,5.6,13,10.9c6.3,2.9,14.2,5.5,14.2,5.5
				c0.8-3.1,1.4-6.3,1.6-9.5C40.7,275.6,40.7,265.1,40.7,265.1"/>
			<path class="st27" d="M170.8,329c0,0,6.1,14.7,10.8,42.3c4.2,24.8,3.9,31.5,4.7,35.6h24c-2.8-20.3-11.3-61.4-20.4-84.7
				c-0.3-0.7-0.4-1.3-0.5-1.9C189,319.7,170.8,329,170.8,329"/>
			<path class="st7" d="M104.3,308.6c0-14-7.7-11.8-8.9-2.1c-3.3-10.3-13.3-5.2-5.5,8.8c-2.7,15.3-4,24.2-3.1,40.8
				c0.5,8.8,11,11.6,19.1,9.6l2.8-15c0,0-6.6,1.9-7.1,0.3c-1.7-4.5,1.3-31.2,1.3-31.2C114.7,317.5,114.3,298.1,104.3,308.6"/>
			<path class="st9" d="M119.1,327.7c23.1-3.8,49.1-12,68.4-22.8c1.6,4.2,3.2,9,3,13.6c0,0.7-0.5,2.2-3.7,3.7
				c-21.8,10.8-44.6,19.3-68.2,25.3L119.1,327.7z"/>
			<path class="st22" d="M130.4,340.3c-6.6,1.8-11.1,3.9-23.8,7.4c-2,6-0.7,24.6-0.7,24.6c8.4-0.8,16.6-2.8,24.4-5.9
				C145.7,360.3,144,336.6,130.4,340.3 M171.8,312.5c5.3-2.2,10.6-4.8,15.6-7.6c1.6,4.2,3.2,9,3,13.6c0,0.7-0.5,2.2-3.7,3.7
				c-4.7,2.2-8.7,4.2-13.7,6.4C173.8,325.6,172.9,319.4,171.8,312.5"/>
			<path class="st9" d="M112.2,345.6c0,0,0.2,5.9-0.1,13.2c-0.3,8.2,0.1,11.2,0,13.1c-2.1,0.8-7.5,1.1-7.5,1.1s0.1-6.2,0.1-13.5
				c-0.1-8.2,0.3-12.4,0.3-12.4L112.2,345.6z"/>
			<path class="st25" d="M188.3,245.4c-2.5,0-5.1-0.2-7.6-0.7l12.9,11.7c1.1,0.1,2.2,0.2,3.3,0.2c15.5,0,28-8.3,29.5-26.3
				c0.3-3,0-6-0.8-8.8C220.8,243.3,205.3,245.4,188.3,245.4"/>
		</g>
		<path class="st28" d="M349.5,400.6l-32.3-20.5c2.2-2.4,11.3-12.2,13.2-14.6c0-0.4,24,32.8,27.8,35
			C356.2,400.7,349.5,400.7,349.5,400.6"/>
		<path class="st7" d="M355.5,400.6h19.8l-25-50.5L327.1,369l-5.4,4.6c0,0,2.6,0.9,3,1.7c0.5,1.1,1.4,2.6-0.1,4.2
			c3.5,0.5,1.6,3.4,1.6,3.4L355.5,400.6z M406,372.3l-27.5,28.6l6.9-0.3l24.6-22.9l-0.9-4.6L406,372.3z"/>
		<path class="st13" d="M363.3,356.3l-33.9,9.2l-4.1,3.3c3.5,0,2.9,1,0.6,3c1.6,1.2,1.6,2.7,0.1,4.4c3.7-0.7,5.5,0.9,3.1,4.5
			c3.1,0.4,4.5,0.8,2.9,3.8l27.8,16.1h4.4L363.3,356.3z"/>
		<path class="st16" d="M357.3,343.1c-1.6-0.7-3.5-0.4-4.8,0.8l-23.8,21.4c3.1-0.1,4.9,2.6,3.2,8.4c3.1-2,6.5,2.5,3.2,7.2
			c5.4-0.5,5.6,1.7,2.6,4.1l34.2,20.3l34.8-32.2l2.4-1.2C390.8,360.7,372.2,350.1,357.3,343.1"/>
		<line class="st29" x1="384.9" y1="399" x2="406.5" y2="378.5"/>
		<path class="st30" d="M410.6,373c-0.8-1.2-2.3-1.8-3.7-1.3c-2.2,0.7-35,33.4-35,33.4l1.7,0.7l23.3-23.1c0,0,7.4-7.2,8.9-8.4
			c0.2-0.6,2-1.8,3.2,0.4c0.4,0.8,0.7,3-0.3,3.5c-0.6,0.7-23.2,22.4-23.2,22.4l1.9-0.1c2.8-2.6,14.6-13.7,22.2-21
			C411.1,379.1,412.5,375.5,410.6,373"/>
		<polyline class="st31" points="378.1,357.3 382.8,364.1 374.6,361.4 		"/>
		<polyline class="st31" points="373.7,362.8 379.6,366.9 371.4,366.3 378,369.8 		"/>
		<line class="st31" x1="369.2" y1="367.8" x2="375.2" y2="371.2"/>
		<polyline class="st31" points="368,369.5 373.9,373.7 367,372.6 372.4,377.4 364.3,373 		"/>
		<polyline class="st31" points="363.1,374.4 368.8,380.8 359.8,377.9 		"/>
		<line class="st31" x1="363.2" y1="379.9" x2="364.8" y2="376.3"/>
		<polyline class="st31" points="363.8,383.1 358.2,379.2 356.7,381.3 		"/>
		<line class="st31" x1="380.2" y1="358.4" x2="377.1" y2="363.1"/>
		<polyline class="st31" points="359.5,388.2 361.5,385.1 355.4,382.5 353.6,384.4 		"/>
		<line class="st31" x1="356.5" y1="385.9" x2="358" y2="384.1"/>
		<path class="st31" d="M352.5,385.9c0,0-1,1.6-0.5,2c1.1,1,5.1-0.1,5.8,0.9s-0.9,2.6-0.9,2.6"/>
		<line class="st29" x1="383" y1="398.6" x2="406.5" y2="375.8"/>
		<line class="st32" x1="260.4" y1="99.4" x2="242.8" y2="128"/>
		<line class="st32" x1="274.6" y1="94.8" x2="241.7" y2="148.2"/>
	</g>
</g>
</svg>
