<?xml version="1.0" encoding="utf-8"?>
<!-- Generator: Adobe Illustrator 26.2.1, SVG Export Plug-In . SVG Version: 6.00 Build 0)  -->
<svg version="1.1" id="Capa_1" xmlns="http://www.w3.org/2000/svg" xmlns:xlink="http://www.w3.org/1999/xlink" x="0px" y="0px"
	 viewBox="0 0 126 94.2" style="enable-background:new 0 0 126 94.2;" xml:space="preserve">
<style type="text/css">
	.st0{fill:#D3D2C2;}
	.st1{fill:#A4A092;}
	.st2{fill:#00A0A4;}
	.st3{fill:#454444;}
	.st4{fill:#0D181C;}
	.st5{fill:#DAD8CC;}
	.st6{fill:#FFFFFF;}
	.st7{fill:#1D1D1B;}
	.st8{fill:none;stroke:#1D1D1B;stroke-width:0.4688;stroke-linecap:round;}
</style>
<g>
	<path class="st0" d="M2.3,49l1.9-0.4c0.1,0.1,0.3,0.2,0.5,0.3c7.4,0.3,39.2,1.8,39.1,1.8c-7.9,4.5-17.1,6.3-26.1,5.1l3-2.5
		c-2.6,1.7-6.7,1.1-6.7,1.1l2.1-2.2c-2.1,1.2-5,1.4-8.2,1.2L9.5,52c-1-0.6-2.1-1.2-3.2-1.7L5,50.4c-1.8,0.2-3.7,1.3-5,3.7
		C0.2,52.2,1,50.4,2.3,49"/>
	<path class="st1" d="M3.6,47.4c0,0,2.4,1.2,2.8,1.8h1.4c2.7,0.9,5.6,1.7,8.4,2.2c1.5,0.3,3.1,0.5,4.6,0.7
		c7.3,0.8,14.7,0.3,21.9-1.4l0,0c0.1-1.4,0.2-2.7,0.5-4.1l-0.4-0.1c-2.4-0.5-16.9-3.6-28.3-2.4c-1.9,0.2-3.8,0.5-5.6,1
		c-0.4,0.1-1.7,0.6-1.3,0.4C6.2,46.2,3.6,47.4,3.6,47.4"/>
	<path class="st1" d="M58.2,35.6c6.1-3,21.5-7.3,28.3-15.3l27.7,23.3c-0.1,0.3-4.6,13.6-6.3,15.9c-1.5,2.1-4.8,4.1-5.6,7.4
		c-0.5-0.9-0.6-2.1-0.3-3.1c-0.4,0.7-0.9,1.4-1.4,2c-1.3,1.6-2.7,3.1-4.3,4.4h-0.3c0,8.3-0.8,15.5-0.1,16.4c0,0,4.9,3,3.9,5
		c-1.1,2.4-4.6-1.1-4.9-1.4c0.2,0.3,1.4,2.4,0,2.9c-1.2,0.4-2.2-1-2.8-2.1c0,0-1.5,1.6-2.6,0.8c-1.5-1.1,1.3-5.4,1.3-5.4l-0.2-18
		l-3.6,3.5l-0.3-1.2c-0.1-0.5-0.6-0.8-1.1-0.6c-0.1,0-0.2,0.1-0.3,0.1l-3.3,2.4l0.5-2.5L77,74.8l-1-3.9l0-0.2
		c-1.7,1.7-3.8,3-6.2,3.6l0.3-3.2c0,0-2.1,2.1-7,2l0,0C59.7,58.9,56.3,48.8,58.2,35.6"/>
	<path class="st1" d="M59.4,89.6c1.2,0.6,3.1,0.7,3.3,0c0.5-2-4.5-3.4-4.5-3.4c-0.2-5.5,0-10.2,0.6-13.7c-1.7-0.2-3.4-0.1-5,0.2
		l-0.4,16c-0.8,3.1,2.6,4.4,2.8,2C59.6,93.2,61,91.1,59.4,89.6"/>
	<path class="st1" d="M51.3,90.3l-0.1-0.1C51.2,90.2,51.3,90.3,51.3,90.3 M51.4,90.4c0.8,0.9,3.3,3.3,4.3,1c0-0.1,0-0.1,0.1-0.2
		c0.4-1.2-0.9-2.1-2.4-2.6c-1.1-0.4-2.3-0.6-3.5-0.8l0.2-9.8c-1.5-0.9-3.2-1.2-4.9-1l-0.1,11.9c0,0-1.4,4.7,0.5,5
		c1.9,0.4,2.5-2.5,2.5-2.5S50.3,95,52,94C53.4,93.1,52,91.2,51.4,90.4"/>
	<path class="st2" d="M42.6,78.8c3.1,0.3,9.4,0.1,9.4,0.1l0-4.7c1.6-0.5,3.2-0.7,4.9-0.6c2.2,0.2,4.4,0.2,6.6-0.1
		C60,59.1,58.2,47.9,60,34.7c0,0-18.4,0.6-21,12.1c-0.3,1.3-0.4,2.7-0.5,4.1C38.2,57.7,42.4,76,42.6,78.8"/>
	<path class="st3" d="M53.5,66.8c-0.7-0.1-1.4,0.5-1.5,1.2c-0.1,0.7,0.5,1.4,1.2,1.5c0.7,0.1,1.4-0.5,1.5-1.2c0,0,0,0,0,0
		C54.7,67.5,54.2,66.9,53.5,66.8"/>
	<path class="st3" d="M58.2,65.3c-0.7-0.1-1.4,0.5-1.5,1.2c-0.1,0.7,0.5,1.4,1.2,1.5c0.7,0.1,1.4-0.5,1.5-1.2c0,0,0,0,0,0
		C59.4,66.1,58.9,65.4,58.2,65.3"/>
	<path class="st4" d="M76.2,66.8c-0.2,1-1.1,3.2-0.5,3.7c0.8,0.6,3.8,0,4.8-0.7l6-4.4l-3.8-3.1l-2-1.6l-2.8-2.2L76.2,66.8z"/>
	<path class="st5" d="M81,37.8l-3.1,20.5l2.8,2.3c22.9-37.7,7.4-46.4,7.4-46.4s-2.6,4.5-3.1,5.8C82.1,27.6,81,37.8,81,37.8"/>
	<path class="st6" d="M85.7,23.2c-2,0.4-3.4,2-3.6,4c-0.2,1.5,0.4,3,1.6,4c0.6,0.5,1.3,0.8,2,0.9c2.2,0.2,4.3-1.6,4.5-4
		s-1.4-4.6-3.6-4.8C86.3,23.1,86,23.1,85.7,23.2"/>
	<path class="st1" d="M82.7,62.3c0,0,9.2-17.9,18.2-30.4c6.1-8.4,13.7-3.8,17.8-0.1l5.7-16.4c0.2-0.8,2.1-6.6,1.4-6.1l-14.6,9.6
		l1.8-3.7l-4.3,2.6c-0.1-1.4,0.2-2.8,0.9-4c-1.7,0.4-3.4,1.3-4.7,2.5c1-1.6,0.2-3.5,1.9-5.7c-1.8,0.5-3.5,1.9-5.1,3.9l0.3-2.9
		l-2.6,1.7L99.3,0.7c0.1-1.3-0.7-1-3,2c0,0-3.8,4.9-5.2,6.4c-1.3,1.5-2.3,3.2-3,5.1c0,0,3.7,4.6,3.4,8.9C92.9,29,88,42.3,79.7,59.8"
		/>
	<path class="st7" d="M85.1,26c-0.4,0-0.7,0.3-0.8,0.7c-0.1,0.4,0.1,0.8,0.5,0.9c0,0,0.1,0,0.1,0c0.4,0,0.8-0.3,0.9-0.7
		C85.8,26.4,85.5,26,85.1,26C85.1,26,85.1,26,85.1,26"/>
	<path class="st5" d="M82.7,62.3l3.8,3.1l27.5-21.8l0,0l2.4-1.9l2.2,1c0.4-1.9,0.4-3.9,0.1-5.8l2,1.7c0-1.6-0.5-3.1-1.4-4.5l2.5,0.9
		c-1-1.2-2-2.3-3.2-3.3c-4.2-3.7-11.8-8.3-17.8,0.1C91.9,44.3,82.7,62.3,82.7,62.3"/>
	<path class="st1" d="M106.2,89.5c0.9,1.4,2.2,2.4,3.1,0.9c1.2-2-5.1-5.5-5.1-5.5c0.3-11.7,5.1-37.7,3.5-29.3c0.8-4-6.8,7.1-8.1,9.1
		c0.1,7.6-0.3,15.2-1.4,22.8c-0.5,1.5,0.9,4,2.6,3.5c0.9-0.3,1.7-1.3,1.5-2.1c0.6,1.6,1.4,3.7,3,3C106.6,91.6,106.8,90.8,106.2,89.5
		"/>
	<polygon class="st6" points="121.5,15.7 115.4,20.5 118.8,22.9 	"/>
	<path class="st6" d="M104.2,33.8c-0.8,2.1,0.3,4.5,2.4,5.2c2.1,0.8,4.5-0.3,5.2-2.4c0.7-2-0.2-4.3-2.2-5.1
		C107.5,30.7,105.1,31.7,104.2,33.8"/>
	<path class="st7" d="M105.6,34.2c0,0.4,0.3,0.8,0.7,0.8c0.4,0.1,0.9-0.2,1-0.6c0.1-0.4-0.1-0.9-0.5-1c-0.1,0-0.1,0-0.2,0
		C106.1,33.3,105.6,33.8,105.6,34.2"/>
	<path class="st8" d="M102,47c0.1,1.5,0.8,2.7,1.8,2.8c1.2,0.1,2.3-1.3,2.5-3.2c0-0.4,0-0.8,0-1.3"/>
</g>
</svg>
