<?xml version="1.0" encoding="utf-8"?>
<!-- Generator: Adobe Illustrator 26.2.1, SVG Export Plug-In . SVG Version: 6.00 Build 0)  -->
<svg version="1.1" id="Capa_1" xmlns="http://www.w3.org/2000/svg" xmlns:xlink="http://www.w3.org/1999/xlink" x="0px" y="0px"
	 viewBox="0 0 99.4 109.1" style="enable-background:new 0 0 99.4 109.1;" xml:space="preserve">
<style type="text/css">
	.st0{fill:none;stroke:#DAD8CB;stroke-width:0.28;stroke-linecap:round;stroke-linejoin:round;}
	.st1{fill:#A39F91;}
	.st2{fill-rule:evenodd;clip-rule:evenodd;fill:#A39F91;}
	.st3{fill-rule:evenodd;clip-rule:evenodd;fill:#DAD8CB;}
	.st4{fill:#008E91;}
	.st5{fill:#DAD8CB;}
	.st6{fill:#009FA3;}
	.st7{fill:#B3AFA3;}
	.st8{fill:#FFFFFF;}
	.st9{fill:#454444;}
	.st10{fill:#0D181C;}
	.st11{fill:#1D1E1C;}
</style>
<g>
	<path class="st0" d="M30.6,92.2c0,0-5.2,5.5-15.4,6.7C11,99.5,6.6,99,2.6,97.5"/>
	<g>
		<path class="st1" d="M42.7,13.4c1.4-0.6,3-0.8,4.5-0.6c0.1-0.8-0.3-1.2-1-2c1.4,0.1,2.7,0.7,3.7,1.7c0-1.1-0.4-2.2-1-3.2
			c0.7,0.2,1.3,0.5,1.9,0.9c1.1,0.6,2.1,1.4,3,2.2v-0.7l5,1.7l0,0c0,0,12.7,4.9,18,6.7c2.2,0.8,11.8,3.6,11.8,3.6l0,0
			c-0.3,0.9-0.5,1.8-0.7,2.7v-0.4L61,24.8c-3.1-0.9-10.3-7.1-13-5.4c-1.3,0.8-4.3,0.1-5.4,1.7l1.6,0.4c0,0-2.9,1.8-3.7,3.8l2.7-0.7
			c-0.6,1-0.9,2-1.2,3.1l1.4-0.8c-0.8,13,13.9,19.3,11.3,27.7c0.7-0.9,1.6-1.5,2.6-1.9c-0.5,2.9-0.4,5.8,0.3,8.7l1.1-3.8
			c1.5,1.6,2.8,10.4,2.8,10.4l1.4-1.8c1.6,4,2,8.9,2.5,15.1l0,0c-4.7,1.6-10.5,7.5-18.6,5.5c-5.7-1.4-10.3-6.1-14.8-7.2l-1.6,2.4
			c-0.5-2.1,0.8-9,1.2-11.8l-1.8,1.6c0-3.1,0.8-6.2,2.2-8.9l-2.2,1.9c10.8-23.8,10-31.5,5.4-26.5c-0.6-2.3-0.5-4.8,0.2-7.1L32.9,33
			c0.3-2.9,1.4-5.7,3.1-8.1L33.4,27c-0.1-2.4,0.5-4.8,1.7-6.9c-1.9-6-2.7-9.7-2.7-14.3c0-1.5,0.5-1.6,1.7-0.8
			C37.4,7.3,40.3,10.1,42.7,13.4L42.7,13.4"/>
		<path class="st2" d="M35,84.9c0.9,0.9-0.5,2.8-0.8,3.1c-3.3,3.7-5.9,8.3-19.6,10.5c-7.6,1.2-14.7-2-14.7-2
			c0.8-0.8,1.7-1.4,2.8-1.8c1.3-0.5,2.6-0.8,4-1l-2.1-0.6c1-0.4,2-0.8,3.1-1c1.6-0.4,3.6-0.7,3.6-0.7l-0.8-0.6c0,0,0.6-0.3,3.8-0.2
			c2.8,0.1,5.6-0.1,8.3-0.7c3.5-1.1,6.9-2.6,10.1-4.6C32.8,85.5,34.4,84.2,35,84.9"/>
		<path class="st3" d="M30.6,92.2c0,0-5.2,5.5-15.4,6.7C11,99.5,6.6,99,2.6,97.5c7.1,0.3,14.2-0.7,21-2.9
			C25.9,93.9,30.6,92.2,30.6,92.2"/>
		<path class="st1" d="M70.7,105.7c1.6,1.3,0,4-3.4,1.5c2.2,2.8-3.7,3-3.3-2.7l-4.7-11.2l4.6-1.3c1.3,3.5,2.1,6.6,4,10.7
			C73.4,103.3,74.3,106.6,70.7,105.7"/>
		<path class="st4" d="M55.4,91.4c4.2-1.5,6.8-3.5,8.7-6.7c0,0,2.2,5.7,2.3,7.3L58,95.2C57.2,93.9,56.3,92.6,55.4,91.4"/>
		<path class="st5" d="M40.5,25.4c0.8-2,3.7-3.8,3.7-3.8l-1.6-0.4c1.1-1.4,2.5-2.6,4.1-3.4c2.6-1.7,5.8-2.1,8.8-1.2
			c0,0,11.5,4.1,15.3,5.2c4.3,1.2,17.2,4.3,17.2,4.3c-0.4,2.6,0.1,5.3,1.4,7.7l-24.8,7.8C59,49.5,68.1,66,65.3,81.5
			c-0.5-6.2-0.9-11.1-2.5-15.1l-1.4,1.8c0,0-1.2-8.8-2.8-10.4l-1.1,3.8c-0.7-2.8-0.8-5.8-0.3-8.7c-1,0.4-1.9,1-2.6,1.9
			C57.3,46.3,42.6,40,43.4,27L42,27.8c0.2-1.1,0.6-2.1,1.2-3.1L40.5,25.4"/>
		<path class="st1" d="M24,105.5c-2.3-0.7-0.9-2.9,0.3-2.8c-1.8-1.8,1.1-3.8,2.9-0.8l0.7,1.3c3-1.2,5.3-3.6,6.2-6.7l4.1,1.6
			c-2.4,6.1-6.5,8.9-12.2,9.6C22,108.2,22.8,105.8,24,105.5"/>
		<path class="st6" d="M54.7,92.1c-1.5,0.6-3.1,0.9-4.7,1.2c-2.5,0.3-5,0.3-7.4-0.2L41,98.8l-2.8-0.7l-3.7-1l-2.7-0.7
			c0.6-1.6,0.9-3.2,1-4.8c0-0.8,0-1.6-0.1-2.4c-0.1-0.8-0.3-1.6-0.5-2.4c-0.2-0.4-0.4-0.7-0.6-1c-0.6-1.2-1.1-2.4-1.2-3.8
			c-0.1-1.1-0.4-3.1,0-3c5.5,1.3,11.2,1.9,16.8,1.8c7,0,12.1-0.6,16.8-2.1l1.3-0.4c0.2,0,0.6,0,0.6-0.2c0,2.3-0.7,4.6-1.8,6.7
			C61.9,88.1,58.6,90.8,54.7,92.1"/>
		<path class="st5" d="M40.4,14.6c0.2,0.2-1.8,1.2-2.4,1.6c-0.2,0.1-2.4-5.4-2.4-5.4c-0.6-1.3,0.2-0.6,0.5-0.3L40.4,14.6z"/>
		<path class="st7" d="M44,56.2c1.2,5.4,4.2,11.2,8.2,14.8c0,0,4.2,0.8,4.2,2.1s-2.1,1.1-2.2,1l0,0c1,0.9,1.4,2,1,2.6
			s-1.6,0.6-2.6,0l0,0c0.6,2.5-2.6,3-4.9-4c-5.3-4.4-8.6-10.7-9.2-17.6c-0.1-1.5-0.3-3.5,0.7-4.8c0.1-0.2,0.3-0.4,0.5-0.5
			c1-0.7,2.4-0.5,3.1,0.5c0.3,0.5,0.5,0.9,0.7,1.4L44,56.2z"/>
		<path class="st1" d="M52.9,1.7c0.4-1.2,1.2-2,1.4-1.5l4.5,13.5l-5-1c-0.9-0.9-1.9-1.6-3-2.2L52.9,1.7"/>
		<path class="st8" d="M53.6,18.4c2.7-0.5,4.2,0.9,4.7,3.2c0.6,2.1-0.7,4.3-2.9,4.9c-2.5,0.6-4.2-0.9-4.7-3.2
			C50.2,21.2,51.4,19,53.6,18.4"/>
		<path class="st9" d="M57.2,82.1c0.6,0,1,0.4,1,1s-0.4,1-1,1s-1-0.4-1-1S56.7,82.1,57.2,82.1"/>
		<path class="st9" d="M56.4,87c0.6,0,1,0.4,1,1s-0.4,1-1,1s-1-0.4-1-1S55.9,87,56.4,87"/>
		<path class="st10" d="M54.6,33.8c0.8,1.6,2.4,2.6,4.2,2.6c1,0,2-0.3,2.8-0.9v0.1c0,0.3,0,0.7,0,1c-0.3,2-2.1,3.4-4.2,3.1
			s-3.4-2.1-3.1-4.2C54.3,34.9,54.4,34.3,54.6,33.8"/>
		<path class="st11" d="M55.6,21.3c0.4,0,0.7,0.3,0.7,0.7c0,0,0,0.1,0,0.1c0,0.4-0.4,0.7-0.8,0.7c-0.4,0-0.7-0.4-0.7-0.8
			C54.8,21.6,55.2,21.3,55.6,21.3"/>
		<path class="st10" d="M87.9,26.4c0.1-0.9,0.3-1.8,0.7-2.7l0,0l9.2,1.9c3.5,0.7,0.8,3.9-3.1,5.9l-5.3,2.2
			C88.1,31.6,87.5,29,87.9,26.4"/>
	</g>
</g>
</svg>
