<?xml version="1.0" encoding="utf-8"?>
<!-- Generator: Adobe Illustrator 26.2.1, SVG Export Plug-In . SVG Version: 6.00 Build 0)  -->
<svg version="1.1" id="Capa_1" xmlns="http://www.w3.org/2000/svg" xmlns:xlink="http://www.w3.org/1999/xlink" x="0px" y="0px"
	 viewBox="0 0 57.8 118.7" style="enable-background:new 0 0 57.8 118.7;" xml:space="preserve">
<style type="text/css">
	.st0{fill:#007572;}
	.st1{fill:#DAD8CC;}
	.st2{fill:#0D181C;}
	.st3{fill:#F3A5C2;}
	.st4{fill:#F39200;}
	.st5{clip-path:url(#SVGID_00000062879627049026171320000011384706237714600879_);}
	.st6{fill:#FCC700;}
	.st7{clip-path:url(#SVGID_00000083086874303103828730000017160114185814862752_);}
	.st8{fill:#FFFFFF;}
	.st9{clip-path:url(#SVGID_00000076564622402121692850000018043211493255627417_);}
	.st10{fill:#1D1D1B;}
	.st11{fill-rule:evenodd;clip-rule:evenodd;fill:#B780B1;}
	.st12{fill-rule:evenodd;clip-rule:evenodd;fill:#9C6297;}
	.st13{fill:#00A0A4;}
	.st14{fill:none;stroke:#1D1D1B;stroke-width:0.7687;stroke-linecap:round;}
	.st15{fill:#DED6C5;}
	.st16{fill:#EEE8DE;}
	.st17{fill:#40963B;}
	.st18{opacity:0.2;}
	.st19{clip-path:url(#SVGID_00000100378114662644766870000015888013986729002924_);}
	.st20{clip-path:url(#SVGID_00000132085761290282302980000003718542374704407962_);}
	.st21{clip-path:url(#SVGID_00000163040083173639146900000002134138625570446752_);}
	.st22{fill:#FFDE00;}
	.st23{fill:#30702A;}
</style>
<g>
	<path class="st0" d="M43.7,99c0-0.8-9.1-1.1-19.1-1.1s-18,1.1-18,1.9s7.8,1.6,17.8,1.6S42,100.5,43.7,99"/>
	<path class="st1" d="M32.1,96.2c-1.4,2.9-2.5,5.8-3.5,8.8c-0.8,2.8-1.9,7.9-1.9,7.9s1.5,0.1,2.5,0.1c1,0,2.1,0,2.1,0
		s1.2-6.1,2.7-9.2c0.8-1.6,3.4-6.4,3.4-6.4L32.1,96.2z M11.5,102.2c-1.5,3.9-3,8.9-3,8.9c0.7,0.4,1.4,0.7,2.2,0.8
		c0.8,0.2,1.7,0.3,2.5,0.3c0.8-3.2,1.9-6.3,3.5-9.2c0.9-1.7,4.3-6.8,4.3-6.8l-4.9-2.4C14.4,96.5,12.8,99.3,11.5,102.2 M2,74.5
		c0,0-2.4-2.9-1.1-6.1c1.8-4.5,9-7.6,9-7.6s2.8-0.4,3.7,2.9C10.8,64.9,2,74.5,2,74.5"/>
	<path class="st2" d="M8.5,111.1c-0.5,1.1-2.2,5.7-1.2,6c1.1,0.3,2.9-3.7,2.9-3.7s-0.4,4.3,0.6,4.4c1.1,0.1,2.4-5.3,2.4-5.8
		c-1,0-2-0.1-3-0.3C9.7,111.5,9,111.4,8.5,111.1 M26.8,112.6c0,0-0.8,5.7-0.2,5.8c1.2,0.2,2.4-3.6,2.4-3.5c0,0.1,0.2,3.9,0.9,3.9
		c1.4-0.2,1.5-5.8,1.5-5.8L26.8,112.6z"/>
	<path class="st3" d="M0.5,36.6c0,0,7.5-1,11.7-4.2c5.2-4,8.6-7.2,8.7-7.9s-3.9-1.9-7.8-0.1C9.2,26.1,0.5,36.6,0.5,36.6"/>
	<path class="st1" d="M22.1,23.6c-3.9-1.5-8.2-1.6-12.2-0.4c-3.9,1.4-7,4.5-8.4,8.4c-1.1,3.4-1.9,5.2-1,5C1.5,36,4.9,31.3,9,28.5
		C14.6,24.7,22,23.5,22.1,23.6"/>
	<path class="st4" d="M40,10.1C44.5,4.3,52.2,0,52.8,0s-7.2,8.8-10.2,14.8c-2,3.9-3.6,7.4-3.6,7.4l-5.7-0.9
		C35.1,17.4,37.4,13.7,40,10.1"/>
	<g>
		<defs>
			<path id="SVGID_1_" d="M52.8,0C52.2,0,44.5,4.3,40,10.1c-2.6,3.5-4.9,7.2-6.8,11.2l5.7,0.9c0,0,1.6-3.5,3.6-7.4
				C45.6,8.8,53.3,0,52.8,0L52.8,0"/>
		</defs>
		<clipPath id="SVGID_00000036972317717939505990000018218027685045234105_">
			<use xlink:href="#SVGID_1_"  style="overflow:visible;"/>
		</clipPath>
		<g style="clip-path:url(#SVGID_00000036972317717939505990000018218027685045234105_);">
			<path class="st6" d="M38.4,9.8c0,0,2,1,4.2,2c0.9,0.4,1.8,0.8,2.7,1.1l2.4-2.8c-2-1.2-4-2.2-6.1-3.2C39.2,6,38.4,9.8,38.4,9.8
				 M33.8,16.9c0,0,2.1,0.8,4.3,1.5c0.9,0.3,1.9,0.6,2.8,0.8l2-3.1c-2.1-1-4.2-1.8-6.4-2.5C34.1,12.9,33.8,16.9,33.8,16.9"/>
			<path class="st6" d="M43.7,3.5c0,0,1.9,1.3,3.9,2.5c0.8,0.5,1.7,1,2.6,1.5l2.7-2.5C51,3.5,49.2,2.2,47.2,1
				C45-0.3,43.7,3.5,43.7,3.5"/>
		</g>
	</g>
	<path class="st4" d="M18.4,10.5C13.8,4.6,6.2,0.3,5.6,0.3s7.2,8.8,10.2,14.8c1.9,3.9,3.6,7.4,3.6,7.4l5.7-0.9
		C23.2,17.7,21,14,18.4,10.5"/>
	<g>
		<defs>
			<path id="SVGID_00000002354907700440413810000000048715242734720440_" d="M15.9,15.2c1.9,3.9,3.6,7.4,3.6,7.4l5.7-0.9
				c-1.9-3.9-4.2-7.7-6.8-11.2C13.8,4.6,6.2,0.3,5.6,0.3S12.8,9.1,15.9,15.2"/>
		</defs>
		<clipPath id="SVGID_00000101809186159409413990000016349882033190752668_">
			<use xlink:href="#SVGID_00000002354907700440413810000000048715242734720440_"  style="overflow:visible;"/>
		</clipPath>
		<g style="clip-path:url(#SVGID_00000101809186159409413990000016349882033190752668_);">
			<path class="st6" d="M20,10.1c0,0-2,1-4.1,2c-0.9,0.4-1.8,0.8-2.7,1.1l-2.3-2.8c2-1.2,4-2.2,6.1-3.2C19.2,6.3,20,10.2,20,10.1
				 M24.5,17.2c0,0-2.1,0.8-4.3,1.5c-0.9,0.3-1.9,0.6-2.8,0.8l-2-3.1c2.1-1,4.3-1.8,6.5-2.6c2.4-0.7,2.8,3.3,2.8,3.3"/>
			<path class="st6" d="M14.6,3.8c0,0-1.9,1.3-3.9,2.5c-0.8,0.5-1.7,1-2.6,1.5L5.5,5.2c1.8-1.4,3.7-2.7,5.6-3.9
				C13.4,0,14.6,3.8,14.6,3.8"/>
		</g>
	</g>
	<path class="st1" d="M18.6,51.7c0,0-2.2,20.9-2.2,25.5s-0.3,10.5,0,11.3c0.3,0.8,26.8,0.8,26.8,0.8s-3.1-31.9-3.5-38.4
		C32.7,50.6,25.7,50.9,18.6,51.7"/>
	<path class="st8" d="M37.6,76.6c0,10.4-4.3,16.1-8.7,16.1s-8.2-4.7-7.9-15.1c0.3-12.8,3.5-22.5,7.9-22.5
		C35.3,55.1,37.6,66.2,37.6,76.6"/>
	<path class="st3" d="M57.5,35.6c-4.2,0.3-8.4-0.7-12-2.9c-5.5-3.7-8-7.3-8.2-8s7.3,1.4,11.5,2.5S57.5,35.7,57.5,35.6"/>
	<path class="st1" d="M50.7,24.6c3.7,2,6.2,5.5,7,9.6c0.3,2.4-0.4,1.4-1.4,0.5c-1-1-3.1-4.6-7.5-6.7c-2.3-1.1-4.8-1.7-7.4-1.9
		L39,22.8C43,22,47.1,22.6,50.7,24.6"/>
	<path class="st1" d="M14.5,39.5c0.8,7.6,4.3,27.2,15.4,25.8s10.8-12.2,13-18.2C45.5,39.8,43.1,24,39,21S24.4,18,20,21.8
		S13.7,31.9,14.5,39.5"/>
	<g>
		<defs>
			<path id="SVGID_00000077294042284322661150000011427711503417636751_" d="M20,21.8c-4.4,3.7-6.3,10.2-5.5,17.7
				s4.3,27.2,15.4,25.8s10.8-12.2,13-18.2C45.5,39.8,43.1,24,39,21c-1.9-1.4-5.2-2.2-8.7-2.2C26.4,18.8,22.3,19.8,20,21.8"/>
		</defs>
		<clipPath id="SVGID_00000098187088792337910090000015999980956538644415_">
			<use xlink:href="#SVGID_00000077294042284322661150000011427711503417636751_"  style="overflow:visible;"/>
		</clipPath>
		<g style="clip-path:url(#SVGID_00000098187088792337910090000015999980956538644415_);">
			<path class="st8" d="M18.2,45.3c-0.1,1.3-1.2,2.2-2.4,2.1c-1.2-0.1-2.1-1-2.1-2.1c-0.1-1.3,0.9-2.4,2.1-2.4
				c1.3-0.1,2.4,0.9,2.4,2.1C18.2,45.1,18.2,45.2,18.2,45.3 M45.4,44.3c0,1.1-0.8,1.9-1.9,2c-0.9,0.1-1.8-0.6-1.9-1.5
				c0,0,0-0.1,0-0.1c0-1.1,0.9-1.9,1.9-1.9C44.6,42.7,45.4,43.3,45.4,44.3"/>
			<path class="st8" d="M40.3,42.6c0,0.7-0.3,1.3-1.1,1.3c-0.8,0-1.4-0.5-1.6-1.3c-0.1-0.7,0.5-1.4,1.2-1.4c0.7-0.1,1.4,0.5,1.4,1.2
				C40.3,42.4,40.3,42.5,40.3,42.6"/>
		</g>
	</g>
	<path class="st1" d="M38.3,53c0,0,10.3,5.8,12.7,9c3.6,4.9-2.6,11.5-2.6,11.5L45,70.7c0,0,3.7-3.5,3.1-5.4
		c-0.7-1.9-9.3-7.4-9.3-7.4L38.3,53z"/>
	<path class="st10" d="M48.4,73.5c0,0-2.9,5.5-3.6,4.8c-0.7-0.7,0.8-3.8,0.8-3.8s-3.1,2.5-3.7,1.7c-0.6-0.8,3.1-5.4,3.1-5.4
		L48.4,73.5z"/>
	<path class="st1" d="M18.9,54.1c0,0-10,5.4-12.1,8.8c-3.2,5.2,3.9,12.5,3.9,12.5l3.1-3.1c0,0-3.9-4-3.4-5.9
		c0.5-1.9,8.4-7.4,8.4-7.4L18.9,54.1z"/>
	<path class="st10" d="M10.7,75.4c0,0,3.4,5.2,4,4.5c0.6-0.8-1.2-3.7-1.2-3.7s3.3,2.2,3.9,1.3s-3.6-5.1-3.6-5.1L10.7,75.4z"/>
	<path class="st8" d="M33.5,31.9c-0.4,2,0,5.2,3.3,5.5c3.7,0.4,4.7-2.1,4.9-3.6c0.5-2.4-1.1-4.7-3.5-5.1c0,0,0,0,0,0
		C35.4,28.1,33.8,30.6,33.5,31.9"/>
	<path class="st10" d="M35.7,35.5c-0.1,0.3,0,0.7,0.4,0.9c0,0,0.1,0,0.1,0c0.3,0.1,0.7-0.1,0.8-0.4c0,0,0-0.1,0-0.1
		c0.1-0.4-0.2-0.8-0.5-0.9C36.2,34.9,35.9,35.2,35.7,35.5"/>
	<path class="st8" d="M16.3,32.6c-0.6,2-0.2,5.2,2.8,5.7c3.6,0.6,4.7-1.9,4.9-3.4c0.6-2.3-0.8-4.7-3.1-5.3
		C18.3,28.9,16.6,31.3,16.3,32.6"/>
	<path class="st10" d="M20.3,36.2c-0.2,0.3,0,0.7,0.3,0.9c0.1,0,0.1,0,0.2,0c0.3,0.1,0.7-0.1,0.8-0.4c0,0,0-0.1,0-0.1
		c0.1-0.4-0.1-0.8-0.5-0.9c0,0,0,0,0,0C20.7,35.7,20.4,35.9,20.3,36.2"/>
	<path class="st11" d="M34.9,19.3c1.3,2.1,5.1,5,5.4,4.6c1.5-2.4,2.6-5,3-7.8c-2.6-0.6-5.4-0.4-7.9,0.7c-0.9-2.1-3.2-4-5.8-5.3
		c-1.5,3.1-2.4,7.3-2.1,8.4C27.5,19.8,32.8,21,34.9,19.3"/>
	<path class="st12" d="M34.1,20.6c-1.5-0.3-1.3-1.9-0.8-3.4c0.5-1.5,0.9-2.2,2.5-1.8c1.6,0.5,1.5,1.5,0.9,3
		C36.2,20,35.7,20.9,34.1,20.6"/>
	<path class="st13" d="M15.9,82.8c0,0-5.4,8.6-7,11.5s-2.8,4.8-2.4,5.5c2.8-0.4,7.5-1.3,19-1.3c9,0,16,0.3,18.1,0.5
		c0.6-0.9,0.7-3.5,0.1-9.1c-0.5-4.4-1.3-8.6-1.3-8.6c-3.8,1.2-7.8,2-11.8,2.4C25.8,84,20.8,83.8,15.9,82.8"/>
	<path class="st14" d="M29.2,60.5c0,0.9,0.1,1.9,0.3,2.8c0.3,0.6,0.6,1.2,0.9,1.8"/>
	<path class="st14" d="M36.4,62.4c0.5-0.6,0.7-1.3,0.6-2.1c-0.1-0.5-0.3-1-0.6-1.3"/>
	<path class="st3" d="M29.2,60.7c0.7,0,1.9-1.3,3.1-2.6c1.2-1.3,2.1-2.6,0.2-3.7c-2.1-1.1-4.7-1.1-6.8,0c-1.6,1-0.7,2.3-0.1,3
		C26.6,58.5,28.5,60.7,29.2,60.7"/>
	<path class="st1" d="M56.2,74.6c0,0,2.3-3,0.8-6.2c-2-4.4-9.4-7.1-9.4-7.1S44.8,61,44,64.3C46.8,65.4,56.2,74.6,56.2,74.6"/>
	<path class="st15" d="M27.8,62.6c0,0,0.6-3.7,5.7-4.2c3.8-0.3,18.3-1.9,18.3-1.9l-1.1,30.9c0,0-15.4-1.1-18.6-0.4
		c-3.1,0.7-4.1-0.1-4.1-0.1L27.8,62.6z"/>
	<path class="st16" d="M27.8,63.4c0,0,0.8-3.7,5.8-4.2c3.8-0.3,18.9-1.6,18.9-1.6l-1.9,31c0,0-15.4-1.1-18.6-0.4
		c-3.1,0.7-4-0.1-4-0.1L27.8,63.4z"/>
	<path class="st8" d="M27.8,63.7c1.3-2,3.4-3.3,5.7-3.7c3.8-0.5,19.7-1.6,19.7-1.6l-2.6,31c0,0-15.4-1.1-18.6-0.4
		C29,89.8,28,89,28,89L27.8,63.7z"/>
	<path class="st15" d="M27.9,62.1c0,0-0.4-3.3-4.8-3.9c-3.3-0.4-15.6-2.6-15.6-2.6L7,86.5c0,0,13.5-0.5,16.2,0.3s3.5,0.1,3.5,0.1
		L27.9,62.1z"/>
	<path class="st16" d="M27.9,62.9c0,0-0.7-3.4-5.1-3.9c-3.3-0.4-16.2-2.3-16.2-2.3L7,85.8c0,0,13.5,1.4,16.2,2.2s3.5,0.1,3.5,0.1
		L27.9,62.9z"/>
	<path class="st8" d="M27.9,63.7c-1-1.9-2.7-3.4-4.8-3.9c-3.3-0.7-17.1-2.3-17.1-2.3L5.7,85.5c0,0,14.7,2.5,17.4,3.4
		s3.5,0.1,3.5,0.1L27.9,63.7z"/>
	<path class="st17" d="M35.8,60.5c-2.2,0.4-3.3-0.1-4.1,0.9c-1.1,1-2.6,1.6-4.2,1.6c-1.3,0-2.6-0.4-3.5-1.3c-1.4-1.5-4.2-1.3-7-1.8
		c-5.2-0.9-12-1.7-12-1.7L4.5,87.2c3.2,0,6.4,0.2,9.5,0.6c6.4,0.8,9.6,3.8,9.6,3.8c-0.2,1.9,6.7,2.5,7.4,0.1
		c0.9-3,21.6-2.2,21.6-2.2l1.2-30.4C53.7,59.2,41.8,59.5,35.8,60.5"/>
	<g class="st18">
		<g>
			<defs>
				<rect id="SVGID_00000083047047638676842700000003866993244106732711_" x="23" y="61.5" width="8.7" height="32.1"/>
			</defs>
			<clipPath id="SVGID_00000106864672197154979060000017002335668754698423_">
				<use xlink:href="#SVGID_00000083047047638676842700000003866993244106732711_"  style="overflow:visible;"/>
			</clipPath>
			<g style="clip-path:url(#SVGID_00000106864672197154979060000017002335668754698423_);">
				<g>
					<defs>
						<rect id="SVGID_00000072988884441996196890000000765625811836378290_" x="23" y="61.5" width="8.7" height="32.1"/>
					</defs>
					<clipPath id="SVGID_00000021803717980478031780000009620623576250227336_">
						<use xlink:href="#SVGID_00000072988884441996196890000000765625811836378290_"  style="overflow:visible;"/>
					</clipPath>
					<g style="clip-path:url(#SVGID_00000021803717980478031780000009620623576250227336_);">
						<g>
							<defs>
								<rect id="SVGID_00000042003232834318671730000001860709690286196893_" x="23" y="61.5" width="8.7" height="32.1"/>
							</defs>
							<clipPath id="SVGID_00000057144159349299259040000006639388906446586559_">
								<use xlink:href="#SVGID_00000042003232834318671730000001860709690286196893_"  style="overflow:visible;"/>
							</clipPath>
							<g style="clip-path:url(#SVGID_00000057144159349299259040000006639388906446586559_);">
								<path class="st22" d="M31.7,61.6c-1.1,1-2.6,1.6-4.1,1.5c-1.3,0-2.6-0.4-3.5-1.3c-0.1-0.1-0.3-0.3-0.4-0.4L23,91.4
									c0.2,0.1,0.4,0.3,0.6,0.5c-0.2,1.9,6.7,2.5,7.4,0.1c0-0.1,0-0.1,0.1-0.1L31.7,61.6z"/>
							</g>
						</g>
					</g>
				</g>
			</g>
		</g>
	</g>
	<path class="st23" d="M27.4,74c1.1,0,2.2-0.2,3.2-0.7l0.1-4.3c-1,0.6-2.1,0.9-3.2,0.9c-1.1-0.1-2.2-0.5-3.1-1.1l-0.1,4.3
		C25.2,73.7,26.3,73.9,27.4,74 M27.3,79c-1.1-0.1-2.1-0.3-3.1-0.8L24,83.7c1.8,1.4,4.4,1.5,6.3,0.1l0.1-5.5
		C29.4,78.7,28.4,79,27.3,79"/>
	<path class="st23" d="M27.4,75.5c-1.1-0.1-2.2-0.3-3.1-0.8v2c1,0.5,2,0.7,3.1,0.8c1.1,0,2.2-0.2,3.2-0.7l0-2
		C29.6,75.3,28.5,75.5,27.4,75.5"/>
	<path class="st2" d="M2.3,69c0,0,4.4,0.2,5.8,1.7C9.6,72.3,4.3,72,4.3,72s4.7,1.8,4,2.5c-0.7,0.7-4.7,0.8-6.4,0
		C1.5,72.7,1.6,70.8,2.3,69 M55.5,69.1c0,0-4.4,0.4-5.7,2c-1.3,1.6,3.9,1.1,3.9,1.1s-4.6,2-3.9,2.7c0.7,0.7,4.8,0.6,6.4-0.4
		C56.5,72.7,56.3,70.8,55.5,69.1"/>
</g>
</svg>
