<?xml version="1.0" encoding="utf-8"?>
<!-- Generator: Adobe Illustrator 26.2.1, SVG Export Plug-In . SVG Version: 6.00 Build 0)  -->
<svg version="1.1" id="Capa_1" xmlns="http://www.w3.org/2000/svg" xmlns:xlink="http://www.w3.org/1999/xlink" x="0px" y="0px"
	 viewBox="0 0 202.6 178.2" style="enable-background:new 0 0 202.6 178.2;" xml:space="preserve">
<style type="text/css">
	.st0{fill:none;stroke:#D7D7CE;stroke-width:0.7574;stroke-linecap:round;stroke-linejoin:round;}
	.st1{clip-path:url(#SVGID_00000064334998471128015660000011837557073962427827_);}
	.st2{clip-path:url(#SVGID_00000052092881919382738310000015145796077472371361_);}
	.st3{clip-path:url(#SVGID_00000008135737085426325820000010341775900369223864_);}
	.st4{fill:#D7D7CE;}
	.st5{fill:none;stroke:#211915;stroke-width:0.7;stroke-linecap:round;}
	.st6{fill:none;stroke:#85B266;stroke-width:0.48;stroke-linecap:round;stroke-miterlimit:10;}
	.st7{fill:#DEA8C3;}
	.st8{fill:#FFFFFF;}
	.st9{fill:#F0DAE9;}
	.st10{fill:none;stroke:#D7D7CE;stroke-width:0.35;stroke-linecap:round;}
	.st11{fill:#211915;}
	.st12{fill:#6F4714;}
	.st13{fill:#945B19;}
	.st14{fill:#BF0811;}
	.st15{fill:#111419;}
	.st16{fill:none;stroke:#DEA8C3;stroke-width:0.5;stroke-linecap:round;}
	.st17{fill:none;stroke:#211915;stroke-width:1.03;stroke-linecap:round;}
	.st18{fill:none;stroke:#D7D7CE;stroke-width:0.4;stroke-linecap:round;}
	.st19{fill:#DB9600;}
	.st20{fill:#EECA1A;}
</style>
<g id="Capa_2_00000082360210376339492310000015660338526527470210_">
	<g id="Capa_1-2">
		<path class="st0" d="M198,45.4c0-29.1-29.2-42.1-65.3-42.1s-65.3,13-65.3,42.1c0,24.7,20.9,36.7,49.1,39.8c1.7,4.1,4.1,7.7,7,10.9
			c5.8,5.9,14.5,8.8,14.5,8.8s-6.5-6.1-9.1-12.1c-0.9-2.1-1.5-4.5-1.8-6.8c1.8,0,3.6,0.2,5.6,0.2C168.7,86.2,198,74.7,198,45.4z"/>
	</g>
</g>
<g>
	<g id="Capa_2_00000121969485928544745810000012784102478978840463_">
		<g id="Capa_1-2_00000023998672858301905660000009023136369183410311_">
			<g>
				<g>
					<defs>
						<rect id="SVGID_1_" x="16.9" y="152.5" width="60.5" height="10.9"/>
					</defs>
					<clipPath id="SVGID_00000076571281741666790750000012661791211001994895_">
						<use xlink:href="#SVGID_1_"  style="overflow:visible;"/>
					</clipPath>
					<g style="clip-path:url(#SVGID_00000076571281741666790750000012661791211001994895_);">
						<g>
							<defs>
								<rect id="SVGID_00000140729065806904972000000016007767458791401109_" x="16.9" y="152.5" width="60.5" height="10.9"/>
							</defs>
							<clipPath id="SVGID_00000112634575275341743390000000013249910051205261_">
								<use xlink:href="#SVGID_00000140729065806904972000000016007767458791401109_"  style="overflow:visible;"/>
							</clipPath>
							<g style="clip-path:url(#SVGID_00000112634575275341743390000000013249910051205261_);">
								<g>
									<defs>
										<rect id="SVGID_00000176031123899625408710000006333279149063466122_" x="16.9" y="152.5" width="60.5" height="10.9"/>
									</defs>
									<clipPath id="SVGID_00000003099507435888451230000016099217126835832754_">
										<use xlink:href="#SVGID_00000176031123899625408710000006333279149063466122_"  style="overflow:visible;"/>
									</clipPath>
									<g style="clip-path:url(#SVGID_00000003099507435888451230000016099217126835832754_);">
										<path class="st4" d="M20.9,162.8c-0.7,0.1,0.4,0.2-0.5,0.1C20.5,162.8,20.7,162.7,20.9,162.8"/>
										<path class="st4" d="M34.2,155.9c-1.2-0.1-2.7,0.5-3.9-0.4c-0.9-0.7,2-1.1,2.8-1.6c0.3-0.1,0,0.4,0.7,0.2
											c2.4-1,6.5-0.8,9.5-0.1l-0.2,0.1c0.6,0.1,1.3-0.2,1.9-0.1c0,0.1-0.2,0.1-0.1,0.2c0.2-0.2,1.1,0,1.4-0.1
											c0.2,0.1,0.2,0.3,0.5,0.4l0.4-0.2c1.1-0.4,2.4,0.4,3.7,0.4c-0.1,0-0.2,0.1-0.1,0.1c2.4,0.2,4.9,0.7,7.2,1.6
											c-0.1,0-0.3,0.1-0.2,0.3c0.2-0.2,0.9,0.1,1.5,0.3c0.2,0.3,1.1,0.3,1.7,0.8h-0.1c0.6,0.1,0.6,0.6,1.2,0.6
											c0,0.3,0.2-0.1,0.1,0.8c-0.1,0.4-0.9,0.1-1.2,0.4v0.1c-0.4,0.2-0.7,0.1-1.1,0.2l0,0c-0.9,0.3-1.5,0.1-1.5,0.4
											c-0.4-0.2,0.9-0.2,0.3-0.5c-3.1,0.6-6.3,0.8-9.5,0.5c-0.4-0.1-0.6-0.2-0.7-0.3c-0.5,0-1,0-1.5,0.1c0.1,0-0.2-0.2-0.4-0.2
											c-0.6-0.1-0.6,0.3-1.3,0.1c0.3-0.1,0.3-0.1,0.3-0.3c-0.6,0.1-1.3,0.2-1.9,0.2c0.1-0.1,0.3-0.1,0.2-0.2
											c-0.7,0.2-1.3-0.1-1.9,0l0.2-0.1c-1-0.3-0.3,0.3-1.2,0.1c0.2,0,0.1-0.1,0.2-0.2c-1,0.1-1.9,0.2-2.9,0.1v-0.1
											c-0.9-0.1-1.8-0.1-2.7,0c-0.3-0.1,0.1-0.4-0.8-0.4c0,0.3-1.5,0.2-1,0.5c-0.8-0.1-1.7-0.1-2.5-0.1c0.3-0.1-0.4-0.4,0.3-0.4
											l-0.5-0.2c0.1-0.1,0.5,0.1,0.3-0.1c-0.5,0.1-1,0.1-1.5,0.1c-0.7,0.3-1.4,0.5-2.1,0.6c0.5-0.1-0.2-0.4,0.1-0.4l-1.4,0.6
											c-0.3,0-0.1-0.3-0.5-0.2c0,0.1-0.2,0.1-0.3,0.2s-1.4,0-1.5-0.3c-0.1-0.1,0.5,0,0.2-0.2c-0.6,0-0.6,0.1-1.2,0l0,0
											c-0.4-0.1-1.2,0-0.8,0.2c0.3,0-0.1-0.2,0.3-0.1c-0.5,0.1-1.1,0.2-1.6,0.1c0.2,0,0.2-0.1,0.3-0.2c-0.9,0.1-1.8,0.1-2.7,0
											c0,0.1,0.4-0.2,0.5-0.1c-0.6-0.2-1.2-0.3-1.9-0.6c-1.3-0.2-0.5-2.8,0.1-2.4c-0.1,0.1-0.2-0.1-0.2-0.1
											c0.6-0.4,0.7-0.2,1-0.4c0.1,0.1,0.5-0.2,0.9-0.4c0.2-0.1,0.1,0-0.2,0.1c1.2-0.5,2.5-0.8,3.8-0.8c0-0.1,0.7-0.4,1-0.4
											l-0.1,0.2c0.3,0.1,0.9-0.1,1,0c0.6-0.3-2.2,0.5-1.5,0.2c0.2,0.1,1.1-0.4,0.9-0.1c0.5-0.2,1.1-0.2,1.6-0.2
											c-0.1,0-0.4,0.3,0,0.3c0.8-0.1,0.2-0.1,0.8-0.2l0.4-0.1c0-0.2,0.7,0,0.4-0.2c0.1,0.1,1.1-0.2,1.1,0.1l-0.1,0.3
											c0.3,0,0.5-0.3,0.8-0.4c0,0,0.1,0.1,0.1,0.1c0-0.4,0.8,0,1.2-0.4c0.7,0.1,1.8-0.1,2.2,0.1c0.5-0.2,1.1-0.3,1.7-0.3
											c-0.1,0.1-0.3,0.1-0.3,0.1c0.4,0.1,0.5,0,0.8-0.1c0.4,0.1,0.8,0.2,1.2,0.3c0.5-0.1,0.3-0.4,0.4-0.5c0.5,0.4,1.5-0.3,2.2,0
											c-0.2,0.1-0.8,0.2-0.3,0.3c0.5,0.4,1-0.4,1.8-0.2l-0.2-0.3c0.4,0.2,1.2-0.2,1.1,0.1c0.3-0.1,1,0.1,0.8-0.3
											c1.3,0.2,3.2-0.4,4,0.2c0.2-0.1,0.7,0,0.5-0.2c-0.3-0.2-0.4,0.1-0.5,0c0.1,0,0.2-0.1,0.2-0.1c0.4,0,0.8,0,0.4,0.3
											c0.9,0.1,0.9-0.6,2.1-0.5c0,0.1,0,0.2,0.4,0.1l0.6-0.2c0.8,0,0.4,0.3,0.5,0.5c0.4-0.1,0.9-0.1,1.1-0.2l0.5,0.3
											c-0.4-0.2,0.3-0.1,0.5-0.2l-0.2,0.1c0.1,0.1,0.5,0,0.8,0c-0.1-0.1-0.5-0.2-0.8-0.2c0.2-0.1,0.5-0.1,0.8-0.2
											c-0.1,0.2,0.7,0.1,1,0.2s0.4-0.2,0.5-0.2s0.6,0,0.3,0.2c-0.1,0-0.3-0.1-0.5,0c0.2,0.1,0.2,0.3,0.7,0.1s-0.1-0.4,0.6-0.3
											c-0.2,0.1-0.2,0.1-0.4,0.2l0.7,0.1v-0.2c0.1,0.1,0,0.1,0.1,0.1c0.2-0.2,1-0.1,1.2-0.3c0.3,0,0.7,0.1,1,0.2h-0.1
											c0.4,0.1,0.9,0.1,1.3-0.1v0.1c0.3,0,0.7,0,1-0.1c0.5,0.2,0.2,0.7,0.8,0.5c0.6,0,0.9-0.3,0.7-0.4c1,0.2,2.2-0.1,3.1,0.3
											c0.2-0.1,0.1-0.1,0.4-0.1c1.5,0.2,3.2,0,4.3,0.6c-0.4,0,0,0.2-0.1,0.3c0.4-0.1,0.4,0.2,0.6,0c0-0.2,0-0.3-0.4-0.4
											c0.9,0,1.8,0.2,2.7,0.5c-0.2-0.1,0-0.1,0.2-0.1c-0.1,0.3,0.5,0.5,1,0.5l0.1-0.1l0.3,0.2c0.2,0,0.3-0.3,0.7,0
											c0,0.1,0,0.2,0.1,0.2c0.7,0.2,1-0.4,2.4,0.9c0.3-0.1,0.4,1.7-0.6,2.1c-0.3,0.1-0.8,0.5-0.2,0.3c-0.7,0.2-1.5,0.2-2.2,0
											c-1.9,0.6-3.8,0.9-5.8,0.8v-0.1c-0.5-0.1-0.2,0.2-0.6,0.1c0.2-0.1-0.4-0.3,0-0.4c-0.7-0.1-0.9,0.2-1.4,0.3
											c-0.1,0.2,0.4-0.1,0.3,0.1c-0.1,0.1-1-0.1-1.1,0.1c-0.2-0.1,0-0.3,0-0.4l-0.4,0.1c-0.6-0.3,1.2-0.6,0.6-0.9l-0.4,0.1
											c-0.4-0.3,1.1-0.3,0-0.4c-0.4,0.1-0.8,0.5-0.4,0.6c-0.9,0.1-0.4,0.6-1.4,0.6c-0.3-0.1,0.8,0,0.6-0.3
											c-0.5-0.2-0.9,0.1-1.3,0.1c0.5,0.1,0.1,0.4-0.2,0.4c-0.5-0.1,0.3-0.3-0.4-0.3c-0.1,0.1-0.8,0.3-0.2,0.4
											c-0.2,0.3-0.7-0.1-1.1,0.2c-0.2-0.2,0.7-0.6-0.1-0.7c0.1,0.2-1,0.3-0.5,0.7c-0.3-0.1-0.3-0.2-0.1-0.4
											c-0.4-0.1-1,0.4-1.2,0l-0.1,0.2c-0.1-0.1-0.3-0.1-0.6-0.2c-0.4,0-1.2,0.4-1.2,0c-0.1,0-1,0.1-0.6,0.3
											c0.5,0.1,0.6-0.2,0.9,0.1c-0.4-0.2-0.8,0.1-1.1,0.2l-0.1-0.1c-0.2,0.1-0.6,0.1-0.7,0.2c0.1-0.1,0-0.2-0.1-0.2l-0.2,0.2
											c-0.7,0.2-0.2-0.4-0.9-0.2l0.5-0.2c-0.1,0.1-0.4-0.1-0.7,0c-0.1,0.2-0.3,0.4-0.4,0.6c-0.4,0.1-0.2-0.2-0.6,0l0.5-0.3
											c0.1-0.1-0.3-0.3-0.9-0.2c-0.3,0.1-0.8,0.4-0.3,0.5c-0.3,0-0.7,0-0.5-0.2c-0.6,0.1,0.1,0.2-0.4,0.4
											c-0.2-0.1-0.9-0.2-1.4-0.3l0.5-0.4l-0.4,0.1c0.4-0.3-0.3-0.1,0-0.5c-0.3,0-0.5,0.1-0.8,0.2c0.8,0.3-0.7,0.7-0.5,1.1
											c-1,0.3-0.8-0.8-1.8,0c0.2,0.1-0.2,0.4,0.4,0.2c-0.6,0.1-0.4,0.5-1.1,0.4c0.5-0.3-0.7-0.3,0.1-0.7c0,0.1,0.5,0,0.6-0.1
											c-0.3-0.1,0-0.4-0.7-0.3c-0.4,0.1-0.9,0.2-0.8,0.4s0.6-0.1,0.4,0.1c-0.8,0.2-1-0.1-1.2,0.4c0.5-0.1,0.7,0.1,0.7,0.2
											l-0.6,0.2l0.1-0.2c-1,0.1-0.2,0.3-1.1,0.4l-0.5-0.2c0.2-0.3,1.3-0.1,1.1-0.5c-0.6,0.1-0.7,0.3-1.3,0.3l0.4-0.2
											c-0.2,0-0.5-0.5-1.3,0c-0.4,0.2-0.1,0.2-0.1,0.3c-0.9,0.2-1.2,0.4-1.8,0.6c0.1-0.3-1.1,0.2-0.5-0.3c0.7,0.1,1.4-0.1,2-0.5
											c-0.4-0.3,0.8-0.1,0.9-0.5c-0.8,0.1-0.8-0.2-1-0.4c-0.2,0-0.4,0.1-0.5,0.2c0,0.2,0.2,0.2,0.3,0.4
											c-0.7,0.1-1.4,0.3-2.1,0.7c-0.3-0.1-0.2-0.3,0.1-0.4c-1,0.2-2,0.4-3,0.6c0.7,0.2-1,0.3-0.6,0.5c0.5,0,1,0.1,0.8,0.4
											c-0.3,0,0-0.1-0.2-0.2c-0.4,0.3-0.7-0.2-1,0.2c0.9-0.3,0.1-0.5,0.2-0.8c-0.6,0.3,0-0.2-0.7-0.1c-0.7,0.3-1.4,0.6-2.1,0.8
											c-1.1,0.1-2.1,0.3-3.2,0.6c-0.5-0.1-0.2-0.4-0.7-0.4s0.5,0.3-0.4,0.3l0.1-0.1c-0.2,0.1-1.5,0-1.7,0.5l0.2-0.4
											c-0.1,0-0.3,0.1-0.4,0.1c0-0.1-0.2-0.2,0-0.3c-0.5-0.2-1,0.2-1.6,0.3l0.4,0.1c-0.8,0.2-1.6,0.3-2.5,0.4v-0.2l-0.5,0.2
											c0.1-0.2-0.4-0.3-0.7-0.1l1.4-0.6c0.4,0.1-0.4,0.3-0.1,0.4c0.4,0.1,0.8,0,1.2-0.2c-0.2,0-0.4,0.1-0.6,0.2
											c-0.1-0.3,0.3-0.3,0.6-0.5c-0.2,0-0.4,0-0.4,0.1c0.4-0.2,0.8-0.3,1.2-0.3c-0.4,0.2,0.2,0.1,0.1,0.2c0-0.2,0.5-0.4,1.2-0.4
											c0.5,0.2,1.2-0.4,2-0.4c-0.3,0.3-0.7,0.6-1.1,0.7c0.5,0,0.5-0.1,1.1-0.1c0.2-0.4,0.6-0.6,1-0.8l0.1,0.2
											c0.6-0.2,0.5-0.4,1.3-0.5c1.3-0.1,2.6-0.4,3.5-0.6l0.1,0.2c0.5-0.5,1.8-0.5,2.5-0.8c1.3-0.1,2.6-0.7,3.3-0.5
											c2.1-0.6,4.2-1.1,6.3-1.4l-0.3,0.3c0.4-0.3,0.3,0.1,0.7,0c-0.5-0.1,0.5-0.4,0.8-0.6c1.1-0.1,2.2-0.3,3.2-0.7l0.1,0.2
											c1-0.3,2.1-0.5,3.2-0.4c0.2,0.1,0.5,0.2,0.7,0.2c0.6-0.3,1.3-0.6,2-0.7c0.8,0,1.6,0,2.4,0.1c2.5-0.5,5-0.3,7.6-0.6
											l0.2,0.2c2.5-0.5,5.6-0.2,7.6-0.7l-0.1,0.4c0.7,0,1.2-0.3,1-0.5c0.2-0.4,0.2,1.2,0.7,1c-1.5,0.6-0.7,0.9-0.9,0.8
											c-0.3,0-0.5-0.2-0.7-0.4c-0.6-0.2-0.8,0-1.4-0.1c-1-0.4-2-0.6-3-0.6l0.3,0.1c0.2-0.1,0.2-0.2-0.1-0.3
											c-0.5,0-1.7-0.4-1.3,0.1c-1.3-0.5-3.2-0.1-4.4-0.6c0.1,0.1-0.2,0.1-0.4,0.2c-1.1-0.2-2.3-0.2-3.4-0.2
											c-0.2-0.1,0.3-0.2-0.2-0.2c-0.3,0,0,0.1-0.4,0.2c-1.9,0.2-3.9-0.3-5.7-0.2c-3.2,0.3-6.4,0.3-9.5,0.6v-0.1
											c-1,0.4-2.4-0.2-3.2,0.4c-0.2-0.1-0.9,0-0.8-0.2c-0.8,0.3-2.3-0.1-3.4,0.3l0.3-0.1c-1.2-0.1-2.2,0.2-3.5,0.1
											c0.1-0.1,0.3-0.1,0.4-0.2c-0.5-0.1-1.1,0.4-1.4,0c-0.3,0-0.2,0.2,0,0.2c-2.8,0.1-5.6,0.4-8.4,0.9c-2,0-0.2-0.7-1.7-0.2
											c-0.1-0.1-0.1,0.2-0.1,0.1c-0.6,0.2-1-0.3-1.4,0c0.2,0.2-0.3,0.2-0.2,0.3c-1.2,0-1.5-0.1-2.3,0.3v-0.1
											c-0.4,0.1-0.6,1-1,0.4c-1,0.2,0.5-0.7,0.3-0.6c0,0,0.3,0,0.5-0.1c5.6,1.1,11.9,0.5,18.2,0.6c6.2,0.4,12.2,0.8,18.2,0.8
											c1,0.3,2,0.3,3-0.1c0,0.1-0.1,0.1,0,0.1c0-0.3,1-0.2,1.1-0.5c0.5-0.1,0.9-0.2,1.4-0.4l0.3-0.1h0.1h0.1
											c0.4-2.6-0.5,3.5-0.4,2.9l0,0l-0.1-0.1l-0.6-0.4c-0.9-0.5-1.8-1-2.7-1.4c0.3,0.1,0.6,0,0.2-0.2h-0.5v-0.1
											c-0.3-0.1-0.6,0-0.4,0.1c-5.3-1.6-11-3.1-16.7-3.1c-1.6-0.1-3.1,0-4.7,0.2c-1,0-2,0.1-3,0.3c-0.5,0.1-0.9,0.2-1.4,0.3
											l-0.7,0.2l-0.2,0.1h0c0,0.4,0.4-3.9,0.2-2l0,0l0,0l0.2,0.1c0.5,0.8,4.5-0.2,5.7,1.8C36.1,154.6,36.6,156.4,34.2,155.9"/>
										<path class="st4" d="M21.7,162.7c0.2,0.1,0.7,0.1,0.3,0.4C22,163,21.7,162.8,21.7,162.7"/>
										<path class="st4" d="M35.6,161.9c0-0.1,0.2,0,0.3,0c-0.2,0-0.3,0.2-0.5,0.1C35.6,162.1,35.6,162,35.6,161.9"/>
										<path class="st4" d="M39.1,161.4c0,0.1-0.8,0.4-1.2,0.5L39.1,161.4z"/>
										<path class="st4" d="M42.5,161.2c0.3,0.1,0.2,0.1-0.1,0.2C42.3,161.4,42.4,161.3,42.5,161.2"/>
										<path class="st4" d="M42.7,160.9c0.2-0.1,0.4-0.1,0.6,0C43.2,160.8,42.6,161.1,42.7,160.9"/>
										<path class="st4" d="M49.7,160c0.2,0,0.5-0.2,0.7-0.1C50.2,159.8,49.6,160.2,49.7,160"/>
										<path class="st4" d="M52.9,159.3c0.2,0,0.2,0,0.3,0s0,0.1-0.2,0.2C53.1,159.4,52.9,159.4,52.9,159.3"/>
										<polygon class="st4" points="39.6,153.4 39.9,153.3 39.9,153.4 										"/>
										<path class="st4" d="M20.9,159.9c0.4,0,0.2,0.2,0.3,0.2C20.9,160.1,21.4,159.9,20.9,159.9"/>
										<polygon class="st4" points="35.4,159.7 35.3,159.7 35.3,159.5 										"/>
									</g>
								</g>
							</g>
						</g>
					</g>
				</g>
			</g>
			<path class="st5" d="M154.7,144.6c0,0-3.2,10.1-3.9,11c-1.3,0-2.7-0.4-3.7-1.2"/>
			<path class="st5" d="M172.3,151.5c0,0,0.8,10.4,0.2,11.4c-1.2,0.4-2.4,0.5-3.6,0.4"/>
			<path class="st5" d="M149.4,137c0,0-9.5,6.6-10.6,6.4s-2-3.2-2-3.2"/>
			<line class="st6" x1="132.1" y1="146.4" x2="145.3" y2="150.4"/>
			<path class="st7" d="M131.3,149c-0.3,0.9-1.2,2.2-2.8,1.7c-0.8-0.2-0.5-2.1,0.3-3.3c0.4-0.6,1.4-1.5,2.1-1.1
				S131.6,148.3,131.3,149"/>
			<path class="st7" d="M130.9,144.2c0,0-2.5-3.6-4.5-2.3c0,0-1.9,1.6,1,3.1c0.9,0.4,1.8,0.5,2.7,0.4
				C130.3,145,130.6,144.6,130.9,144.2"/>
			<path class="st7" d="M130.5,145.3c-1.3-0.3-2.7-0.3-4-0.1c0,0-2.4,0.7-1,2.5c0.6,0.8,2.4,0.6,4.1-0.7c0.3-0.2,1.3-0.7,1.3-0.7
				L130.5,145.3z"/>
			<path class="st7" d="M130.6,144.3c0,0-3-4.7,0.1-4.5c1,0.1,2.5,0.6,1.4,4l-0.5,0.8C131.4,144.3,130.9,144.2,130.6,144.3"/>
			<path class="st7" d="M132.2,146c-0.3,0.6-0.9,0.9-1.5,0.8c0,0,1,4.8,3.1,3.5C136.2,148.9,132.9,146.1,132.2,146"/>
			<path class="st7" d="M131.8,144.2c0,0,0.5-2.8,2.5-2.8c0.8,0,2.8,1.5,0.6,2.8c-0.6,0.4-1.4,0.5-2.6,1.1
				C132.3,145.3,132,144.3,131.8,144.2"/>
			<path class="st7" d="M132.4,145c0,0,3-1.1,3.6,0.2c0.2,0.5-0.3,2.1-2.4,1.6c-0.6,0-1.1-0.2-1.5-0.7
				C132.1,146.1,132.5,145.2,132.4,145"/>
			<path class="st8" d="M132.5,145.4c0,0.9-0.7,1.6-1.5,1.6c-0.1,0-0.1,0-0.2,0c-0.8-0.1-1.4-0.7-1.4-1.5c0-0.9,0.7-1.7,1.6-1.7
				c0.1,0,0.1,0,0.2,0C131.9,143.8,132.5,144.5,132.5,145.4C132.5,145.4,132.5,145.4,132.5,145.4"/>
			<path class="st9" d="M154,106.2c0,0,17.4-17.5,42.6-12.3c0,0,3.6,0.9,1.2,3.5s-4.6,5.3-0.1,12c2,1,2.9,3.4,2.1,5.6
				c-1.4,3.8-6.5,2.8-6.3,6.4s1.3,3.9-1.9,7.3c0,0-1.6,0.9-4.5-0.9c-2.8-1.7-21.3-13.9-21.8-14.4L154,106.2z"/>
			<path class="st7" d="M163.4,112.1l1-1.4c0.8,0.6,1.3,1.4,1.6,2.3l-0.4,0.6C165.6,113.5,163.5,112.1,163.4,112.1"/>
			<path class="st8" d="M161.1,110.9l1.5-2.2c0.9,0.3,1.6,1,1.9,1.9l-1.1,1.5C163.4,112.1,161.6,110.8,161.1,110.9"/>
			<path class="st7" d="M158.7,109.4l1.7-2.6c0.9,0.3,1.8,0.9,2.4,1.7l-1.6,2.4C160.4,110.3,159.6,109.8,158.7,109.4"/>
			<path class="st8" d="M155.6,108.2l2-2.9c1.1,0.2,2.1,0.7,2.9,1.4l-1.9,2.8C158.6,109.5,156.2,108.1,155.6,108.2"/>
			<path class="st7" d="M152.6,107.1c0,0,1.6-2.7,3.4-2.5c0.6,0.1,1.2,0.3,1.8,0.5l-2,3C154.7,107.7,153.7,107.4,152.6,107.1"/>
			<path class="st8" d="M141.5,114.8c0,1.9-0.7,4.2-3.6,4.2c-3.1,0-3.6-2-3.6-4c0-2,1.6-3.6,3.6-3.6c0,0,0.1,0,0.1,0
				C140,111.4,141.5,112.9,141.5,114.8C141.5,114.8,141.5,114.8,141.5,114.8"/>
			<path class="st10" d="M141.5,114.8c0,1.9-0.7,4.2-3.6,4.2c-3.1,0-3.6-2-3.6-4c0-2,1.6-3.6,3.6-3.6c0,0,0.1,0,0.1,0
				C140,111.4,141.5,112.9,141.5,114.8C141.5,114.8,141.5,114.8,141.5,114.8"/>
			<path class="st11" d="M138,115.8c0,0.3-0.2,0.6-0.5,0.6s-0.6-0.2-0.6-0.5c0,0,0-0.1,0-0.2c0-0.3,0.2-0.6,0.5-0.6s0.6,0.2,0.6,0.5
				C138,115.7,138,115.8,138,115.8"/>
			<line class="st6" x1="138.7" y1="142.7" x2="144" y2="151.5"/>
			<path class="st12" d="M158.7,152.3c6.2,4.6,17.6,4.2,22.2-0.3c7.7-7.6-0.2-20.8-0.2-20.8s-4,7.8-8.3,12.1
				C167.1,148.6,158.7,152.2,158.7,152.3"/>
			<path class="st13" d="M157.7,152.7c0,0,8.2-2.2,16.1-10.4c4.2-4.5,7.1-11.8,7.1-11.8c-0.7-2-1.6-3.8-2.8-5.5
				c-3-4-4.6-5.9-4.6-5.9s-0.8,10.5-6.9,16.2c-4.6,4.3-9.9,7.9-15.6,10.8c1.1,1.4,2.3,2.8,3.6,4.1
				C155.7,151.2,157.7,152.7,157.7,152.7"/>
			<path class="st13" d="M145.2,138.1c0,0,17.7-7.7,21.4-23.9c0,0-12.3-9.5-20.1-7.2c0,0-10.9,1.3-7.6,17.4
				C138.9,124.4,141.4,133,145.2,138.1"/>
			<path class="st12" d="M150.5,146.6c0,0,5.6-1.6,15.6-10.6c7.5-6.7,7.9-16.9,7.9-16.9c-1.2-1.1-2.5-2-3.8-2.9
				c-3.6-2.5-3.6-1.9-3.6-1.9c-1.4,5.5-4.3,10.5-8.4,14.5c-3.9,3.9-8.5,7.1-13.5,9.5c0,0,0.8,1.6,2.8,4.6
				C148.4,144.1,149.4,145.4,150.5,146.6"/>
			<path class="st14" d="M134.6,142.4c0,0-1.9,1.7-1.2,2.6c0.5,0.6,1.1,1.4,3.1-0.2c0.6-0.4,0.8-1.2,0.7-1.9c-0.3-0.3-0.6-0.6-0.8-1
				C135.8,142.3,135.2,142.4,134.6,142.4"/>
			<path class="st14" d="M138.1,137.3c0.2,1.2,0.1,3.4-0.8,3.4s-2.3-1.2-2.5-3.1c-0.1-0.9,0.6-2.1,1.4-2.1
				C137.2,135.5,138,136.3,138.1,137.3C138.1,137.3,138.1,137.3,138.1,137.3"/>
			<path class="st14" d="M136.6,140.2c0,0-3.1-2.1-4.3-0.6c-0.5,0.6-1,2.6,1.6,2.9c0.8,0.1,1.7-0.1,2.4-0.5
				C136.4,141.4,136.5,140.8,136.6,140.2"/>
			<path class="st14" d="M137.8,140.2c0,0-0.1-4.3,3-3.7c0.8,0.1,1.6,1.2,0.6,2.8c-0.6,0.9-1.5,1.5-2.6,1.7
				C138.7,141,138.2,140.5,137.8,140.2"/>
			<path class="st14" d="M138.8,140.9c1.2-0.7,2.7-0.5,3.7,0.4c0.6,0.5,0.8,2.7-2.2,2.4c0,0-1.6-0.3-2-1.6
				C138.3,142.2,139,141.2,138.8,140.9"/>
			<path class="st14" d="M138.6,142.3c0,0,2.5,3.4,0.4,4.4c-1,0.4-3.1-0.3-2.1-3.8c0,0,1.1,0,1.4-0.4"/>
			<path class="st7" d="M137.5,139.9c-0.9,0.1-1.7,0.9-1.6,1.8c0,0.9,0.8,1.6,1.7,1.6c0,0,0,0,0,0c0.8,0,1.5-0.6,1.6-1.4
				c0,0,0-0.1,0-0.1C139.2,140.7,138.5,139.9,137.5,139.9"/>
			<path class="st15" d="M143.3,126.9c0,0,4.2-1.7,7.4-0.8c0,0-0.3-4.4-4.6-3.9C146.2,122.2,143.5,123.1,143.3,126.9"/>
			<path class="st8" d="M154.4,114.3c0.1,2-1.4,3.8-3.4,3.9c-0.2,0-0.3,0-0.5,0c-1.8,0.1-3.4-1.9-3.4-4s1.5-4,3.3-4.1
				c2.2,0,4,1.8,4,4C154.4,114.2,154.4,114.3,154.4,114.3"/>
			<path class="st11" d="M152.2,114.4c0,0.4-0.2,0.7-0.6,0.7s-0.7-0.2-0.7-0.6c0-0.1,0-0.1,0-0.2c0-0.4,0.2-0.7,0.6-0.7
				s0.7,0.2,0.7,0.6C152.2,114.3,152.2,114.3,152.2,114.4"/>
			<path class="st16" d="M170.5,103.6c4.3-2.4,12.7-3.4,17.9-2.5"/>
			<path class="st16" d="M171.2,109.5c5.1,0.1,10.1,1.4,14.6,3.7"/>
			<path class="st5" d="M178.7,150.5c0,0,2.6,11.7,2,12.7c-1.2,0.6-2.5,0.9-3.8,0.7"/>
			<path class="st5" d="M158.8,149.3c0,0-1.3,11.1-2.1,12s-4.3-0.1-4.3-0.1"/>
			<path class="st5" d="M149.6,140.8c0,0-7.9,8.4-9.1,8.5s-2.7-2.7-2.7-2.7"/>
			<path class="st17" d="M43.7,133.4c0,0,1,17.2,2.1,18.7s5.3,0.5,5.3,0.5"/>
			<path class="st17" d="M59.3,122.1c0,0,15,8.5,16.9,8.4s3.3-4.2,3.3-4.2"/>
			<path class="st17" d="M28.5,138.5c0,0-1.3,16.8-0.4,18.4s5.9,1.2,5.9,1.2"/>
			<path class="st17" d="M56.5,79c0,0-2.2-20.5-0.9-21.8s8.2,0.9,8.2,0.9"/>
			<path class="st17" d="M69.1,81.9c0,0,3.9-20.2,5.5-21.1s7.5,3.3,7.5,3.3"/>
			<path class="st12" d="M21.6,123.5c6.1-2.8,12.9-3.6,19.5-2.5c0.7-7.5,7.5-14.9,18.3-10.3c2.8,1.4,6.4,3.6,6.8,7.1
				c0,0,0.5,5-1,8.4c-2.8,6.4-7.7,7.8-14.4,7.1c-1.1-0.1-2.2-0.4-3.2-0.8c-1.1,7.6-13.5,12.9-19.7,12.9c-5.4,0.1-16.9-1-18.5-6.9
				C7.1,131.6,16.7,125.4,21.6,123.5"/>
			<path class="st13" d="M82.5,105.9c-7.8,15.2-26.9,10.6-34.7-1.2c-4.7-7.3-5-14.9,0.9-22.1c6.3-7.4,17.4-6.2,20-5.6
				C71,77.5,93.2,85,82.5,105.9"/>
			<path class="st8" d="M82.3,84.3c5.3,3.2,2.2,11.1-3.2,10.6c-3.7-0.4-5.9-4.8-4.4-8.4C76.4,83,80,82.5,82.3,84.3"/>
			<path class="st8" d="M80,83.3c0.8,0.1,1.6,0.5,2.3,1c2.2,1.3,3.3,3.9,2.6,6.3"/>
			<path class="st18" d="M80,83.3c0.8,0.1,1.6,0.5,2.3,1c2.2,1.3,3.3,3.9,2.6,6.3"/>
			<path class="st8" d="M67.2,86.5c-2.3-6-10.7-5.2-12.1,1.3c-0.7,3.2,0.8,7.8,6.3,7.8C66.3,95.6,68.7,90.3,67.2,86.5"/>
			<path class="st11" d="M79.4,88.4c-0.3-0.5-0.9-0.7-1.4-0.4s-0.7,0.9-0.4,1.4c0.2,0.3,0.5,0.5,0.8,0.5c0.5,0.1,1-0.2,1.1-0.7
				C79.7,88.9,79.6,88.6,79.4,88.4"/>
			<path class="st11" d="M59.5,89.2c-0.5,0.2-1.1,0-1.3-0.5c-0.2-0.5,0-1.1,0.5-1.3c0.1-0.1,0.3-0.1,0.4-0.1
				c0.6,0.1,0.9,0.7,0.8,1.3C59.9,88.8,59.7,89.1,59.5,89.2"/>
			<path class="st15" d="M74.7,104.9c-5,7.2-10.2,5-9.9-2.4C68.3,105.9,71.2,106,74.7,104.9"/>
			<path class="st17" d="M23,141.3c0,0-1.3,16.8-0.4,18.4s7,1.2,7,1.2"/>
			<path class="st17" d="M40,139.4c0,0,0.3,16.1,1.2,17.8s7,1.2,7,1.2"/>
			<path class="st17" d="M59.6,127.7c0,0,13.1,10.8,15,10.9s4.4-4.5,4.4-4.5"/>
			<path class="st19" d="M55,70.3c-0.7,3.9-0.1,8,1.8,11.5c2.3-1.4,4.5-3.2,6.3-5.2l-0.5-3.5C62.6,73.1,57.9,70.3,55,70.3"/>
			<path class="st19" d="M65.9,72.6c0,0,4.6-3.6,7.4-4.3c1.8,4.2,0.2,10.8,0.2,10.8s-6.5-1.4-8-2.7C65.6,76.4,66.8,74.2,65.9,72.6"
				/>
			<path class="st20" d="M66.6,74.3c-0.2,1.3-1.4,2.1-2.7,1.9c-1.3-0.2-2.1-1.4-1.9-2.7c0.2-1.1,1.2-1.9,2.3-1.9
				C65.7,71.7,66.7,72.9,66.6,74.3"/>
		</g>
	</g>
</g>
</svg>
