<?xml version="1.0" encoding="utf-8"?>
<!-- Generator: Adobe Illustrator 26.2.1, SVG Export Plug-In . SVG Version: 6.00 Build 0)  -->
<svg version="1.1" id="Capa_1" xmlns="http://www.w3.org/2000/svg" xmlns:xlink="http://www.w3.org/1999/xlink" x="0px" y="0px"
	 viewBox="0 0 202.6 178.2" style="enable-background:new 0 0 202.6 178.2;" xml:space="preserve">
<style type="text/css">
	.st0{fill:#FFFFFF;stroke:#D7D7CE;stroke-width:0.7041;stroke-linecap:round;stroke-linejoin:round;}
	.st1{fill:none;stroke:#211915;stroke-width:0.7;stroke-linecap:round;}
	.st2{fill:none;stroke:#85B266;stroke-width:0.48;stroke-linecap:round;stroke-miterlimit:10;}
	.st3{fill:#DEA8C3;}
	.st4{fill:#FFFFFF;}
	.st5{fill:#F0DAE9;}
	.st6{fill:none;stroke:#D7D7CE;stroke-width:0.35;stroke-linecap:round;}
	.st7{fill:#211915;}
	.st8{fill:#6F4714;}
	.st9{fill:#945B19;}
	.st10{fill:#BF0811;}
	.st11{fill:#111419;}
	.st12{fill:none;stroke:#DEA8C3;stroke-width:0.5;stroke-linecap:round;}
	.st13{clip-path:url(#SVGID_00000077323536155585672950000001837852210635435428_);}
	.st14{clip-path:url(#SVGID_00000124866894993018078500000003756750502762852511_);}
	.st15{clip-path:url(#SVGID_00000144299346589525746180000014269065882917969308_);}
	.st16{fill:#D7D7CE;}
	.st17{fill:#A29E90;}
	.st18{fill-rule:evenodd;clip-rule:evenodd;fill:#A29E90;}
	.st19{fill-rule:evenodd;clip-rule:evenodd;fill:#D7D7CE;}
	.st20{fill:none;stroke:#D7D7CE;stroke-width:0.2266;stroke-linecap:round;stroke-linejoin:round;}
	.st21{fill:#3F7473;}
	.st22{fill:#61A0A2;}
	.st23{fill:#B1AEA2;}
	.st24{fill:#4B4A4B;}
	.st25{fill:none;stroke:#D7D7CE;stroke-width:0.3237;stroke-linecap:round;}
</style>
<g id="Capa_2_00000082360210376339492310000015660338526527470210_">
	<g id="Capa_1-2">
		<path class="st0" d="M189.1,45.4c0-29.1-25.3-42.1-56.4-42.1s-56.4,13-56.4,42.1c0,24.7,18.1,36.7,42.4,39.8
			c1.4,4.1,3.5,7.7,6,10.9c5,5.9,12.6,8.8,12.6,8.8s-5.6-6.1-7.9-12.1c-0.8-2.1-1.3-4.5-1.6-6.8c1.6,0,3.1,0.2,4.8,0.2
			C163.8,86.2,189.1,74.7,189.1,45.4z"/>
	</g>
</g>
<g>
	<g id="Capa_2_00000121969485928544745810000012784102478978840463_">
		<g id="Capa_1-2_00000023998672858301905660000009023136369183410311_">
			<path class="st1" d="M154.7,144.6c0,0-3.2,10.1-3.9,11c-1.3,0-2.7-0.4-3.7-1.2"/>
			<path class="st1" d="M172.3,151.5c0,0,0.8,10.4,0.2,11.4c-1.2,0.4-2.4,0.5-3.6,0.4"/>
			<path class="st1" d="M149.4,137c0,0-9.5,6.6-10.6,6.4s-2-3.2-2-3.2"/>
			<line class="st2" x1="132.1" y1="146.4" x2="145.3" y2="150.4"/>
			<path class="st3" d="M131.3,149c-0.3,0.9-1.2,2.2-2.8,1.7c-0.8-0.2-0.5-2.1,0.3-3.3c0.4-0.6,1.4-1.5,2.1-1.1
				S131.6,148.3,131.3,149"/>
			<path class="st3" d="M130.9,144.2c0,0-2.5-3.6-4.5-2.3c0,0-1.9,1.6,1,3.1c0.9,0.4,1.8,0.5,2.7,0.4
				C130.3,145,130.6,144.6,130.9,144.2"/>
			<path class="st3" d="M130.5,145.3c-1.3-0.3-2.7-0.3-4-0.1c0,0-2.4,0.7-1,2.5c0.6,0.8,2.4,0.6,4.1-0.7c0.3-0.2,1.3-0.7,1.3-0.7
				L130.5,145.3z"/>
			<path class="st3" d="M130.6,144.3c0,0-3-4.7,0.1-4.5c1,0.1,2.5,0.6,1.4,4l-0.5,0.8C131.4,144.3,130.9,144.2,130.6,144.3"/>
			<path class="st3" d="M132.2,146c-0.3,0.6-0.9,0.9-1.5,0.8c0,0,1,4.8,3.1,3.5C136.2,148.9,132.9,146.1,132.2,146"/>
			<path class="st3" d="M131.8,144.2c0,0,0.5-2.8,2.5-2.8c0.8,0,2.8,1.5,0.6,2.8c-0.6,0.4-1.4,0.5-2.6,1.1
				C132.3,145.3,132,144.3,131.8,144.2"/>
			<path class="st3" d="M132.4,145c0,0,3-1.1,3.6,0.2c0.2,0.5-0.3,2.1-2.4,1.6c-0.6,0-1.1-0.2-1.5-0.7
				C132.1,146.1,132.5,145.2,132.4,145"/>
			<path class="st4" d="M132.5,145.4c0,0.9-0.7,1.6-1.5,1.6c-0.1,0-0.1,0-0.2,0c-0.8-0.1-1.4-0.7-1.4-1.5c0-0.9,0.7-1.7,1.6-1.7
				c0.1,0,0.1,0,0.2,0C131.9,143.8,132.5,144.5,132.5,145.4L132.5,145.4"/>
			<path class="st5" d="M154,106.2c0,0,17.4-17.5,42.6-12.3c0,0,3.6,0.9,1.2,3.5s-4.6,5.3-0.1,12c2,1,2.9,3.4,2.1,5.6
				c-1.4,3.8-6.5,2.8-6.3,6.4s1.3,3.9-1.9,7.3c0,0-1.6,0.9-4.5-0.9c-2.8-1.7-21.3-13.9-21.8-14.4L154,106.2z"/>
			<path class="st3" d="M163.4,112.1l1-1.4c0.8,0.6,1.3,1.4,1.6,2.3l-0.4,0.6C165.6,113.5,163.5,112.1,163.4,112.1"/>
			<path class="st4" d="M161.1,110.9l1.5-2.2c0.9,0.3,1.6,1,1.9,1.9l-1.1,1.5C163.4,112.1,161.6,110.8,161.1,110.9"/>
			<path class="st3" d="M158.7,109.4l1.7-2.6c0.9,0.3,1.8,0.9,2.4,1.7l-1.6,2.4C160.4,110.3,159.6,109.8,158.7,109.4"/>
			<path class="st4" d="M155.6,108.2l2-2.9c1.1,0.2,2.1,0.7,2.9,1.4l-1.9,2.8C158.6,109.5,156.2,108.1,155.6,108.2"/>
			<path class="st3" d="M152.6,107.1c0,0,1.6-2.7,3.4-2.5c0.6,0.1,1.2,0.3,1.8,0.5l-2,3C154.7,107.7,153.7,107.4,152.6,107.1"/>
			<path class="st4" d="M141.5,114.8c0,1.9-0.7,4.2-3.6,4.2c-3.1,0-3.6-2-3.6-4s1.6-3.6,3.6-3.6h0.1
				C140,111.4,141.5,112.9,141.5,114.8L141.5,114.8"/>
			<path class="st6" d="M141.5,114.8c0,1.9-0.7,4.2-3.6,4.2c-3.1,0-3.6-2-3.6-4s1.6-3.6,3.6-3.6h0.1
				C140,111.4,141.5,112.9,141.5,114.8L141.5,114.8"/>
			<path class="st7" d="M138,115.8c0,0.3-0.2,0.6-0.5,0.6s-0.6-0.2-0.6-0.5c0,0,0-0.1,0-0.2c0-0.3,0.2-0.6,0.5-0.6s0.6,0.2,0.6,0.5
				C138,115.7,138,115.8,138,115.8"/>
			<line class="st2" x1="138.7" y1="142.7" x2="144" y2="151.5"/>
			<path class="st8" d="M158.7,152.3c6.2,4.6,17.6,4.2,22.2-0.3c7.7-7.6-0.2-20.8-0.2-20.8s-4,7.8-8.3,12.1
				C167.1,148.6,158.7,152.2,158.7,152.3"/>
			<path class="st9" d="M157.7,152.7c0,0,8.2-2.2,16.1-10.4c4.2-4.5,7.1-11.8,7.1-11.8c-0.7-2-1.6-3.8-2.8-5.5c-3-4-4.6-5.9-4.6-5.9
				s-0.8,10.5-6.9,16.2c-4.6,4.3-9.9,7.9-15.6,10.8c1.1,1.4,2.3,2.8,3.6,4.1C155.7,151.2,157.7,152.7,157.7,152.7"/>
			<path class="st9" d="M145.2,138.1c0,0,17.7-7.7,21.4-23.9c0,0-12.3-9.5-20.1-7.2c0,0-10.9,1.3-7.6,17.4
				C138.9,124.4,141.4,133,145.2,138.1"/>
			<path class="st8" d="M150.5,146.6c0,0,5.6-1.6,15.6-10.6c7.5-6.7,7.9-16.9,7.9-16.9c-1.2-1.1-2.5-2-3.8-2.9
				c-3.6-2.5-3.6-1.9-3.6-1.9c-1.4,5.5-4.3,10.5-8.4,14.5c-3.9,3.9-8.5,7.1-13.5,9.5c0,0,0.8,1.6,2.8,4.6
				C148.4,144.1,149.4,145.4,150.5,146.6"/>
			<path class="st10" d="M134.6,142.4c0,0-1.9,1.7-1.2,2.6c0.5,0.6,1.1,1.4,3.1-0.2c0.6-0.4,0.8-1.2,0.7-1.9c-0.3-0.3-0.6-0.6-0.8-1
				C135.8,142.3,135.2,142.4,134.6,142.4"/>
			<path class="st10" d="M138.1,137.3c0.2,1.2,0.1,3.4-0.8,3.4s-2.3-1.2-2.5-3.1c-0.1-0.9,0.6-2.1,1.4-2.1
				C137.2,135.5,138,136.3,138.1,137.3L138.1,137.3"/>
			<path class="st10" d="M136.6,140.2c0,0-3.1-2.1-4.3-0.6c-0.5,0.6-1,2.6,1.6,2.9c0.8,0.1,1.7-0.1,2.4-0.5
				C136.4,141.4,136.5,140.8,136.6,140.2"/>
			<path class="st10" d="M137.8,140.2c0,0-0.1-4.3,3-3.7c0.8,0.1,1.6,1.2,0.6,2.8c-0.6,0.9-1.5,1.5-2.6,1.7
				C138.7,141,138.2,140.5,137.8,140.2"/>
			<path class="st10" d="M138.8,140.9c1.2-0.7,2.7-0.5,3.7,0.4c0.6,0.5,0.8,2.7-2.2,2.4c0,0-1.6-0.3-2-1.6
				C138.3,142.2,139,141.2,138.8,140.9"/>
			<path class="st10" d="M138.6,142.3c0,0,2.5,3.4,0.4,4.4c-1,0.4-3.1-0.3-2.1-3.8c0,0,1.1,0,1.4-0.4"/>
			<path class="st3" d="M137.5,139.9c-0.9,0.1-1.7,0.9-1.6,1.8c0,0.9,0.8,1.6,1.7,1.6l0,0c0.8,0,1.5-0.6,1.6-1.4v-0.1
				C139.2,140.7,138.5,139.9,137.5,139.9"/>
			<path class="st11" d="M143.3,126.9c0,0,4.2-1.7,7.4-0.8c0,0-0.3-4.4-4.6-3.9C146.2,122.2,143.5,123.1,143.3,126.9"/>
			<path class="st4" d="M154.4,114.3c0.1,2-1.4,3.8-3.4,3.9c-0.2,0-0.3,0-0.5,0c-1.8,0.1-3.4-1.9-3.4-4s1.5-4,3.3-4.1
				c2.2,0,4,1.8,4,4C154.4,114.2,154.4,114.3,154.4,114.3"/>
			<path class="st7" d="M152.2,114.4c0,0.4-0.2,0.7-0.6,0.7s-0.7-0.2-0.7-0.6c0-0.1,0-0.1,0-0.2c0-0.4,0.2-0.7,0.6-0.7
				s0.7,0.2,0.7,0.6C152.2,114.3,152.2,114.3,152.2,114.4"/>
			<path class="st12" d="M170.5,103.6c4.3-2.4,12.7-3.4,17.9-2.5"/>
			<path class="st12" d="M171.2,109.5c5.1,0.1,10.1,1.4,14.6,3.7"/>
			<path class="st1" d="M178.7,150.5c0,0,2.6,11.7,2,12.7c-1.2,0.6-2.5,0.9-3.8,0.7"/>
			<path class="st1" d="M158.8,149.3c0,0-1.3,11.1-2.1,12s-4.3-0.1-4.3-0.1"/>
			<path class="st1" d="M149.6,140.8c0,0-7.9,8.4-9.1,8.5s-2.7-2.7-2.7-2.7"/>
		</g>
	</g>
</g>
<g>
	<g>
		<g>
			<g>
				<g>
					<defs>
						<rect id="SVGID_1_" x="5.1" y="168.8" width="57.7" height="8.7"/>
					</defs>
					<clipPath id="SVGID_00000028320809677309565110000006820504185018918819_">
						<use xlink:href="#SVGID_1_"  style="overflow:visible;"/>
					</clipPath>
					<g style="clip-path:url(#SVGID_00000028320809677309565110000006820504185018918819_);">
						<g>
							<g>
								<g>
									<defs>
										<rect id="SVGID_00000177463632997295458060000016438461737937105294_" x="5.1" y="168.8" width="57.7" height="8.7"/>
									</defs>
									<clipPath id="SVGID_00000150081674947299498540000011205473711418002332_">
										<use xlink:href="#SVGID_00000177463632997295458060000016438461737937105294_"  style="overflow:visible;"/>
									</clipPath>
									<g style="clip-path:url(#SVGID_00000150081674947299498540000011205473711418002332_);">
										<g>
											<g>
												<g>
													<defs>
														<rect id="SVGID_00000003077901942241291600000008818212476558984326_" x="5.1" y="168.8" width="57.7" height="8.7"/>
													</defs>
													<clipPath id="SVGID_00000022544505236211998420000001988056096901503167_">
														<use xlink:href="#SVGID_00000003077901942241291600000008818212476558984326_"  style="overflow:visible;"/>
													</clipPath>
													<g style="clip-path:url(#SVGID_00000022544505236211998420000001988056096901503167_);">
														<path class="st16" d="M9,176.9c-0.6,0.1,0.4,0.2-0.4,0.1C8.6,176.9,8.8,176.9,9,176.9"/>
														<path class="st16" d="M21.7,171.6c-1.1-0.1-2.6,0.4-3.7-0.3c-0.7-0.6,2-0.9,2.8-1.2c0.3-0.1,0,0.3,0.6,0.2
															c2.3-0.8,6.1-0.6,9.1-0.1l-0.2,0.1c0.6,0.1,1.2-0.2,1.9-0.1c0,0.1-0.2,0.1-0.1,0.2c0.2-0.2,1.1,0,1.4-0.1
															c0.2,0.1,0.2,0.2,0.5,0.3l0.3-0.2c1-0.4,2.3,0.3,3.6,0.3c-0.1,0-0.2,0.1-0.1,0.1c2.3,0.2,4.6,0.6,6.8,1.2
															c-0.1,0.1-0.2,0.2-0.2,0.2c0.2-0.2,0.9,0,1.5,0.2c0.2,0.3,1.1,0.2,1.7,0.6h-0.1c0.6,0.1,0.6,0.6,1.1,0.5
															c0,0.3,0.2-0.4,0,0.6h-0.2c-0.2,0.3-0.8,0.1-1.2,0.3v0.1c-0.4,0.2-0.6,0-1.1,0.2H46c-0.9,0.2-1.5,0.1-1.4,0.3
															c-0.3-0.2,0.9-0.2,0.3-0.4c-3,0.5-6,0.6-9.1,0.4c-0.3-0.1-0.6-0.2-0.6-0.2c-0.5,0-1,0-1.4,0.1c0.1,0-0.2-0.2-0.3-0.2
															c-0.6-0.1-0.6,0.2-1.2,0.1c0.2-0.1,0.3-0.2,0.2-0.2c-0.6,0.1-1.2,0.2-1.8,0.2c0.1-0.1,0.2-0.1,0.2-0.2
															c-0.6,0.2-1.2-0.1-1.8,0l0.2-0.2c-0.9-0.2-0.3,0.3-1.1,0.2c0.2-0.1,0.2-0.1,0.2-0.2c-0.9,0.2-1.8,0.2-2.8,0.1v-0.1
															c-0.9-0.1-1.7-0.1-2.6-0.1c-0.3-0.1,0.2-0.3-0.7-0.3c0,0.3-1.5,0.2-1,0.5c-0.8-0.1-1.6-0.1-2.4-0.1
															c0.3-0.1-0.4-0.3,0.2-0.4l-0.5-0.2c0.1-0.1,0.5,0.1,0.3-0.1c-0.5,0.1-1,0.1-1.5,0.1c-0.6,0.2-1.3,0.5-2,0.5
															c0.4-0.1-0.2-0.3,0.1-0.3l-1.3,0.5c-0.3,0-0.1-0.2-0.5-0.2c0,0.1-0.2,0.1-0.3,0.2c-0.2,0.1-1.3,0-1.4-0.2
															c-0.2-0.1,0.5,0,0.2-0.2c-0.6,0-0.6,0.1-1.1,0l0,0c-0.4-0.1-1.1,0-0.7,0.2c0.2,0-0.1-0.2,0.3-0.1
															c-0.5,0.2-1.1,0.2-1.5,0.1c0.2,0,0.2-0.1,0.2-0.2c-0.8,0.1-1.7,0.1-2.5,0c0,0.2,0.4-0.2,0.5-0.1
															c-0.6-0.2-1.1-0.2-1.8-0.5c-0.2,0.2-1.1-1.1-0.6-1.5c0.4-0.6,0.6-0.5,0.9-0.6c-0.2,0.1-0.2-0.1-0.2-0.1
															c0.6-0.3,0.6-0.1,1-0.2c0.1,0.1,0.5-0.2,0.8-0.2c0.2-0.1,0.1,0-0.2,0.1c1.1-0.4,2.3-0.6,3.6-0.6c0-0.1,0.6-0.3,1-0.3
															l-0.1,0.2c0.2,0.1,0.9-0.1,1,0.1c0.6-0.2-2.1,0.4-1.4,0.2c0.2,0.2,1.1-0.4,0.9-0.2c0.5-0.2,1.1-0.2,1.5-0.2
															c-0.2,0-0.4,0.2,0,0.2c0.7-0.1,0.2-0.1,0.8-0.2l0.4-0.1c0-0.2,0.6,0,0.4-0.2c0.1,0.2,1.1-0.2,1.1,0.2l-0.1,0.2
															c0.3-0.1,0.5-0.2,0.7-0.4c0,0,0.2,0.1,0.1,0.1c0-0.3,0.8,0,1.1-0.3c0.6,0,1.4,0,2,0.1c0.5-0.2,1.1-0.2,1.6-0.2
															c-0.1,0-0.2,0.1-0.3,0.2c0.2,0.1,0.6,0,0.8-0.1c0.4,0.2,0.8,0.2,1.2,0.2c0.5-0.2,0.3-0.3,0.4-0.4c0.5,0.3,1.5-0.3,2,0
															c-0.2,0.1-0.7,0.2-0.3,0.2c0.5,0.3,1-0.3,1.7-0.2l-0.2-0.2c0.3,0.2,1.1-0.2,1.1,0.1c0.2-0.1,0.9,0.1,0.8-0.2
															c1.3,0.2,3-0.3,3.8,0.2c0.2-0.1,0.6,0,0.6-0.2c-0.3-0.2-0.4,0.2-0.6,0c0.2,0,0.2-0.1,0.2-0.2c0.4,0,0.7,0.1,0.3,0.3
															c0.9,0.2,0.9-0.5,1.9-0.4c-0.1,0.1,0,0.2,0.3,0.1l0.6-0.2c0.7,0,0.4,0.2,0.4,0.5c0.3,0,0.7-0.1,1-0.2l0.5,0.2
															c-0.3-0.2,0.3-0.2,0.5-0.2l-0.2,0.1c0.1,0.1,0.5,0,0.7,0c-0.1-0.1-0.5-0.2-0.7-0.2c0.2-0.1,0.5-0.1,0.7-0.2
															c-0.1,0.2,0.6,0.1,0.9,0.2c0.2,0.1,0.4-0.2,0.5-0.2s0.6,0,0.3,0.2c-0.1,0-0.2-0.1-0.5,0c0.2,0.1,0.2,0.2,0.6,0.1
															c0.4-0.2-0.1-0.4,0.6-0.2c-0.2,0-0.2,0.1-0.3,0.2l0.6,0.1V169c0.1,0.1,0,0.1,0.1,0.1c0.2-0.2,1-0.1,1.1-0.2
															c0.3,0,0.6,0.1,1,0.2h-0.1c0.4,0.1,0.8,0.1,1.2-0.1l0,0c0.3,0,0.6,0,1-0.1c0.5,0.2,0.2,0.6,0.7,0.5
															c0.6,0,0.8-0.2,0.6-0.4c1,0.2,2-0.1,2.9,0.2c0.2-0.1,0.1-0.1,0.3-0.2c1.4,0.2,3,0,4,0.6c-0.4,0-0.1,0.2-0.1,0.2
															c0.3-0.1,0.4,0.2,0.6,0c0-0.2,0-0.2-0.3-0.3c0.9,0,1.7,0.2,2.5,0.4c-0.2-0.1,0-0.2,0.2-0.2c-0.1,0.2,0.5,0.4,1,0.4
															l0.1-0.2l0.2,0.2c0.2,0,0.2-0.2,0.6-0.1c0,0.1,0.1,0.2,0.1,0.2c0.6,0.2,0.9-0.4,2.3,0.8c0.1,0.1,0.3,0.2,0.1,1.1
															c-0.3,0.8-0.8,0.7-0.8,0.7c-0.2,0.1-0.8,0.3-0.2,0.3c-0.6,0.2-1.4,0.2-2-0.1c-1.8,0.5-3.6,0.7-5.5,0.6l0.1-0.1
															c-0.5-0.1-0.2,0.2-0.6,0.2c0.2-0.1-0.4-0.2,0-0.3c-0.6-0.1-0.9,0.2-1.3,0.2c-0.1,0.2,0.3-0.1,0.2,0.1
															c-0.1,0.1-1-0.1-1.1,0.1c-0.2-0.1,0-0.2,0.1-0.3l-0.4,0.1c-0.5-0.2,1.1-0.5,0.6-0.8l-0.4,0.1c-0.4-0.2,1-0.3,0-0.3
															c-0.4,0.1-0.7,0.5-0.4,0.6c-0.9,0.1-0.4,0.6-1.3,0.6c-0.2-0.2,0.7-0.1,0.6-0.2c-0.4-0.2-0.9,0.1-1.3,0.1
															c0.4,0.1,0.1,0.3-0.2,0.3c-0.5-0.1,0.3-0.2-0.3-0.2c-0.1,0.2-0.7,0.2-0.2,0.3c-0.2,0.3-0.7-0.1-1.1,0.2
															c-0.2-0.2,0.6-0.5-0.1-0.6c0.2,0.2-0.9,0.3-0.5,0.6c-0.3-0.1-0.3-0.2-0.2-0.3c-0.4-0.1-1,0.4-1.1,0l-0.2,0.2
															c-0.2-0.1-0.3-0.1-0.6-0.2c-0.3,0-1.1,0.3-1.1,0c-0.1,0.1-1,0.1-0.6,0.2c0.5,0.1,0.6-0.2,0.9,0.1
															c-0.4-0.2-0.7,0.1-1.1,0.2l-0.1-0.1c-0.2,0.1-0.6,0.1-0.6,0.2c0.2-0.1,0.1-0.2-0.1-0.2l-0.2,0.2
															c-0.7,0.2-0.2-0.3-0.9-0.2l0.5-0.2c-0.1,0.1-0.3-0.1-0.6,0c-0.1,0.2-0.3,0.4-0.4,0.6c-0.3,0.1-0.2-0.2-0.6,0l0.5-0.2
															c0.1-0.1-0.3-0.2-0.9-0.2c-0.3,0.1-0.8,0.4-0.2,0.4c-0.2,0-0.6,0-0.4-0.2c-0.6,0.1,0.1,0.2-0.4,0.3
															c-0.2-0.1-0.9-0.2-1.3-0.2l0.5-0.3l-0.3,0.1c0.4-0.2-0.2-0.2,0-0.4c-0.2,0-0.5,0.1-0.7,0.2c0.7,0.2-0.7,0.6-0.5,0.9
															c-1,0.2-0.7-0.7-1.6-0.1c0.2,0.1-0.2,0.4,0.3,0.2c-0.6,0.1-0.3,0.4-1.1,0.4c0.5-0.2-0.6-0.2,0.1-0.6
															c0,0.1,0.4,0,0.6,0c-0.2-0.1,0-0.3-0.6-0.2c-0.4,0.1-0.9,0.2-0.8,0.3c0.1,0.2,0.6-0.1,0.3,0.1
															c-0.7,0.2-0.9-0.1-1.1,0.3c0.5-0.1,0.6,0.1,0.6,0.2l-0.6,0.2l0.1-0.2c-0.9,0.1-0.2,0.2-1.1,0.4l-0.5-0.2
															c0.2-0.2,1.3-0.1,1.1-0.4c-0.6,0.1-0.7,0.3-1.3,0.2l0.4-0.2c-0.2,0-0.5-0.4-1.2,0c-0.4,0.2-0.1,0.2-0.1,0.2
															c-0.9,0.2-1.1,0.3-1.7,0.5c0.1-0.2-1.1,0.2-0.4-0.2c0.6,0.1,1.3-0.1,1.9-0.4c-0.4-0.2,0.7-0.1,0.9-0.4
															c-0.7,0.1-0.7-0.2-0.9-0.4c-0.2,0-0.3,0.1-0.5,0.2c-0.1,0.2,0.2,0.2,0.2,0.3c-0.7,0.1-1.4,0.2-1.9,0.6
															c-0.2-0.1-0.2-0.2,0.1-0.3c-1,0.2-1.9,0.3-2.9,0.4c0.6,0.2-1,0.2-0.6,0.4c0.5,0,1,0.2,0.7,0.3c-0.3,0,0-0.2-0.2-0.2
															c-0.3,0.2-0.6-0.2-1,0.2c0.9-0.2,0.1-0.4,0.2-0.6c-0.6,0.2,0-0.2-0.6-0.1c-0.6,0.2-1.4,0.5-2,0.6c-1.1,0-2,0.2-3,0.5
															c-0.4-0.1-0.2-0.4-0.6-0.3c-0.5,0.1,0.4,0.2-0.4,0.2L16,177c-0.2,0.1-1.5,0-1.6,0.4l0.2-0.3c-0.2,0-0.2,0.1-0.4,0.2
															c0-0.1-0.2-0.2,0-0.2c-0.5-0.2-1,0.2-1.5,0.2l0.3,0.2c-0.8,0.2-1.5,0.2-2.3,0.3v-0.2l-0.3,0.1
															c0.1-0.2-0.4-0.2-0.6-0.1l1.3-0.6c0.4,0.1-0.4,0.2-0.2,0.4c0.4,0.1,0.8,0,1.1-0.2c-0.2,0-0.4,0.1-0.6,0.2
															c-0.2-0.2,0.3-0.2,0.6-0.5c-0.2,0-0.4,0-0.4,0.1c0.3-0.2,0.7-0.2,1.1-0.2c-0.3,0.2,0.2,0.1,0.1,0.2
															c0-0.2,0.5-0.3,1.1-0.3c0.5,0.2,1.2-0.3,1.9-0.3c-0.3,0.3-0.6,0.5-1.1,0.6c0.5,0,0.6-0.1,1-0.1c0.2-0.3,0.6-0.5,1-0.6
															l0.1,0.2c0.6-0.2,0.5-0.4,1.2-0.5c1.2-0.1,2.4-0.3,3.4-0.4l0.1,0.2c0.5-0.4,1.7-0.4,2.3-0.6c1.2-0.1,2.5-0.6,3.2-0.4
															c2-0.5,3.8-0.9,6-1.1l-0.3,0.3c0.3-0.2,0.2,0.1,0.6,0c-0.5-0.1,0.5-0.3,0.7-0.5c1.1,0,2-0.2,3-0.6l0,0
															c0.8-0.4,1.9-0.2,3-0.3c0.2,0.1,0.4,0.2,0.6,0.2c0.6-0.2,1.1-0.4,1.7-0.5c0.7,0,1.5,0,2.3,0.1
															c2.3-0.4,4.8-0.2,7.2-0.5l0.2,0.2c2.3-0.5,5.3-0.2,7.2-0.5l-0.2,0.3c0.6,0,1.3-0.2,1.1-0.5c0.1-0.2,0.1,0.1,0.5,0.9
															c-0.6,0.3-0.6,0.9-0.6,0.7c-0.2,0-0.5-0.2-0.7-0.3c-0.6-0.2-0.8,0-1.3-0.1c-0.9-0.3-1.9-0.5-2.9-0.6l0.3,0.1
															c0.2-0.1,0.2-0.2-0.2-0.2c-0.5,0-1.6-0.3-1.2,0.2c-1.2-0.4-3-0.1-4.2-0.5c0.1,0.1-0.2,0.1-0.3,0.2
															c-1.1-0.2-2.2-0.2-3.2-0.2c-0.2-0.1,0.3-0.2-0.2-0.2c-0.2,0,0,0.2-0.3,0.2c-1.9,0.2-3.7-0.2-5.4-0.2
															c-3,0.2-6.1,0.2-9,0.4v-0.1c-1,0.3-2.3-0.2-3.1,0.2c-0.2-0.1-0.9,0-0.7-0.2c-0.7,0.2-2.2-0.1-3.2,0.2l0.2-0.1
															c-1.1-0.1-2.1,0.2-3.3,0.1c0.2,0,0.3-0.1,0.4-0.2c-0.5-0.1-1.1,0.4-1.4,0c-0.2,0-0.2,0.2,0,0.2
															c-2.7,0.1-5.3,0.3-8,0.7c-1.9-0.1-0.2-0.6-1.6-0.2c-0.2-0.1-0.1,0.2-0.1,0.1c-0.6,0.2-1-0.3-1.3-0.1
															c0.2,0.2-0.2,0.2-0.2,0.3c-1.1,0-1.5-0.2-2.3,0.2v-0.2c-0.3,0.2-0.9,0.6-0.9,0.6c-0.3-0.4-0.9-0.2-0.4-0.4
															c0-0.2,0.5-0.6,0.4-0.5c0.2,0,0.3,0,0.5-0.1c5.5,1,11.4,0.5,17.4,0.6c6,0.3,11.7,0.6,17.5,0.6c1,0.2,1.9,0.2,2.9,0
															c-0.1,0.1-0.2,0.1-0.1,0.1c0.1-0.2,1-0.2,1.1-0.4c0.5-0.1,1-0.2,1.4-0.2l0.3-0.1l0.2-0.1h0.1h0.1
															c-0.7,5.3-0.2,1.5-0.4,2.6l0,0L47,175c-0.9-0.5-1.8-0.9-2.7-1.1c0.3,0.1,0.6-0.1,0.2-0.2H44v-0.1
															c-0.2-0.1-0.6,0-0.3,0.2c-5.2-1.4-10.6-2.5-16-2.6c-1.5-0.1-3,0-4.5,0.2c-1,0-1.9,0.1-2.9,0.2
															c-0.5,0.1-0.9,0.2-1.4,0.2l-0.6,0.2l-0.2,0.1l0,0l0,0c0,0.4,0.4-3.6,0.2-1.9l0,0h0.1l0.2,0.1c0.6,0.4,4.5,0.6,5.2,0.7
															C23.9,170.9,23.7,171.6,21.7,171.6"/>
														<path class="st16" d="M9.8,176.8c0.2,0.1,0.6,0.2,0.2,0.3C10.1,177.1,9.7,177,9.8,176.8"/>
														<path class="st16" d="M23,176.4c0-0.1,0.2,0,0.2,0c-0.2,0.1-0.3,0.2-0.4,0.1C22.9,176.6,22.9,176.5,23,176.4"/>
														<path class="st16" d="M26.3,176c0,0.1-0.7,0.3-1.1,0.4L26.3,176z"/>
														<path class="st16" d="M29.5,176c0.2,0.1,0.2,0.1-0.2,0.2C29.3,176,29.4,176,29.5,176"/>
														<path class="st16" d="M29.6,175.7c0.2,0,0.3,0,0.6,0.1C30.2,175.6,29.6,175.9,29.6,175.7"/>
														<path class="st16" d="M36.4,175c0.2,0,0.5-0.2,0.6-0.1C36.9,174.8,36.3,175.1,36.4,175"/>
														<path class="st16" d="M39.4,174.4c0.2,0,0.2,0,0.2,0c0.1,0,0,0.2-0.2,0.2C39.4,174.6,39.6,174.5,39.4,174.4"/>
														<polygon class="st16" points="27,169.5 27.3,169.4 27.2,169.6 														"/>
														<path class="st16" d="M9,174.7c0.3,0,0.2,0.2,0.2,0.2C9,174.9,9.4,174.7,9,174.7"/>
														<polygon class="st16" points="22.7,174.7 22.6,174.7 22.6,174.4 														"/>
													</g>
												</g>
											</g>
										</g>
									</g>
								</g>
							</g>
						</g>
					</g>
				</g>
			</g>
		</g>
	</g>
	<path class="st17" d="M27.4,56.8L27.4,56.8c-2.8-4-6.3-7.4-10.3-10.2c-1.5-1-2.1-1-2.1,1c0,5.5,1,10,3.2,17.2
		c-1.4,2.6-2.1,5.4-2,8.3l3.2-2.5c-1.9,2.3-3.1,5.6-3.7,9.7l2.9-1.9c-0.8,2.8-0.9,5.7-0.2,8.6c5.5-6,6.5,3.2-6.6,31.9l2.7-2.3
		c-1.7,3.3-2.6,7-2.7,10.8l2.2-1.9c-0.4,3.3-2,11.7-1.5,14.2l1.9-2.8c5.5,1.4,11,7,17.8,8.7c9.7,2.4,16.7-4.8,22.3-6.6l0,0
		c-0.6-7.4-1.1-13.4-3-18.2l-1.7,2.1c0,0-1.5-10.7-3.3-12.6l-1.3,4.5c0,0-1.5-5.7-0.3-10.4c-1.2,0.4-2.3,1.2-3.1,2.3
		C45,96.4,27.3,88.8,28.3,73.2l-1.8,1c0-1.2,1.5-3.7,1.5-3.7l-3.2,0.8c1.1-2.3,4.5-4.6,4.5-4.6l-1.9-0.5c1.4-1.9,5-1.1,6.6-2.1
		c3.3-2,12,5.4,15.7,6.6l32.2,2.9l0.2-1c0.2-1.1,0.4-2.2,0.8-3.2l0,0c0,0-11.6-3.4-14.2-4.3C62.4,62.9,47,57,47,57l0,0l-6-2.1v0.9
		c-1.1-1.1-2.3-1.9-3.6-2.7c-0.7-0.4-1.5-0.7-2.3-1.1c0.8,1.1,1.2,2.4,1.3,3.8c-1.3-1.4-2.8-1.7-4.5-2.1c0.8,1,1.4,1.5,1.2,2.4
		C31,56,29.2,56.1,27.4,56.8"/>
	<path class="st18" d="M14.9,139.9c1-0.8-0.3-2.8-0.3-2.8c-1.9-4.1-3.2-8.3-4-12.7c-0.2-3.3-0.1-6.7,0.3-10c0.6-3.7,0.3-4.6,0.3-4.6
		l-0.7,0.9c0,0-0.1-2.4-0.2-4.5c-0.1-1.3-0.4-2.6-0.8-3.8l-1,2.4c0-1.6-0.3-3.2-0.6-4.8c-0.3-1.3-0.9-2.5-1.7-3.6
		c0,0-4.9,8.1-4.5,17.3c0.7,16.7,5.8,20.4,9.8,24.9C11.6,139,13.8,140.8,14.9,139.9"/>
	<path class="st19" d="M6.9,133.6c0,0-1.3-5.8-1.9-8.6c-1.6-8.4-1.7-17-0.4-25.6c0,0-3.4,5.6-3.4,14.8
		C1.2,126.5,6.9,133.6,6.9,133.6"/>
	<path class="st20" d="M4.6,99.3c0,0-3.4,5.6-3.4,14.8c0,12.3,5.7,19.4,5.7,19.4"/>
	<path class="st17" d="M51.8,170c3.9,2.2,3.9-1.9-2.2-4.5c-0.9-5.3-0.9-9.2-1.3-13.7l-5.8,0.1l1.9,14.5c-2.3,6.5,4.7,8.2,3,4.2
		C50.6,174.6,53.3,171.9,51.8,170"/>
	<path class="st17" d="M28.1,171.7c3.9,2.2,3.9-1.9-2.2-4.5c-0.9-5.3-0.9-9.2-1.3-13.7l-5.8,0.1l1.9,14.6c-2.3,6.5,4.7,8.2,3,4.2
		C26.9,176.4,29.6,173.8,28.1,171.7"/>
	<path class="st21" d="M39.4,149.4c0.2,2.1,0.4,4.1,0.8,6.1l10.8-1.1c0.3-1.9,0-12.5,0-12.5C47.8,145,44.7,148.9,39.4,149.4"/>
	<path class="st16" d="M53.9,90.7l29.9-9.5c-1.6-2.8-1.5-4-1.9-7.8c0,0-12.4-1.7-21.7-4c-10.8-2.8-14-5.1-18.6-7
		c-3.6-1.5-8.3-1.8-11.6,0.2c-1.9,1.1-3.6,2.4-4.9,4.1l1.9,0.5c0,0-3.5,2.2-4.5,4.6l3.2-0.8c0,0-1.4,2.5-1.4,3.7l3.5-0.6
		C26.9,90.7,45,97.6,42.2,106.7c0.7-1.1,1.8-1.9,3-2.3c-1.1,4.8,0.3,10.4,0.3,10.4l1.3-4.5c1.9,1.9,3.3,12.6,3.3,12.6l1.7-2.1
		c1.9,4.8,2.4,10.8,3,18.2C58,120.1,47.1,100.1,53.9,90.7"/>
	<path class="st22" d="M41.9,151.6c4.7-1.6,8.7-4.8,11.3-8.9c1.5-2.5,1.9-4.9,2.2-8c0,0.2-0.5,0.2-0.6,0.2l-1.6,0.5
		c-5.7,1.9-11.8,2.6-20.2,2.6c-6.8,0-13.6-0.7-20.2-2.2c-0.4-0.1-0.2,2.3,0,3.6c0.2,1.6,0.7,3.2,1.5,4.5c0.2,0.4,0.4,0.8,0.7,1.1
		c0.2,1,0.5,1.9,0.6,2.9c0.2,1,1.1,7.4,1.1,9.3l10.9-0.3l-0.2-4.3C32.2,153.7,37.2,153.3,41.9,151.6"/>
	<path class="st16" d="M19.5,53.2C19.2,53,18.2,52,19,53.6c0,0,2.8,6.6,3,6.5c0.7-0.5,3.1-1.7,2.9-1.9L19.5,53.2z"/>
	<path class="st23" d="M28.2,103c-0.2-0.6-0.5-1.1-0.8-1.7c-0.8-1.2-2.5-1.5-3.7-0.6c-0.2,0.2-0.5,0.4-0.6,0.6c-1.1,1.6-1,4-0.8,5.8
		c0.6,8.3,4.6,15.9,11,21.2c2.8,8.4,6.6,7.8,5.9,4.9l0,0c1.3,0.7,2.7,0.7,3.2,0s0-2.1-1.1-3.2l0.1-0.1c0.2,0.1,2.7,0.4,2.7-1.3
		s-5-2.6-5-2.6c-4.8-4.3-8.4-11.2-10-17.8L28.2,103z"/>
	<path class="st17" d="M39.8,42.7l-2.5,10.6c1.3,0.7,2.5,1.6,3.6,2.7l6,1.2l-5.5-16.3C41.1,40.3,40.2,41.1,39.8,42.7"/>
	<path class="st4" d="M37.2,64.1c-2.8,0.7-4.5,3.5-3.9,6.3s2.9,4.6,6.2,3.9c2.8-0.6,4.4-3.4,3.7-6.1c0,0,0,0,0-0.1
		C42.7,65.3,40.8,63.5,37.2,64.1"/>
	<path class="st24" d="M44.9,139.5c-0.6,0.1-1.1,0.6-1.1,1.4c0.1,0.6,0.5,1,1.1,1.1c0.6,0,1.2-0.6,1.2-1.2S45.6,139.5,44.9,139.5"/>
	<path class="st24" d="M44,145.4c-0.6,0-1.1,0.5-1.1,1.1s0.5,1.1,1.1,1.1s1.1-0.5,1.1-1.1l0,0C45.2,145.9,44.6,145.4,44,145.4
		L44,145.4"/>
	<path class="st11" d="M41.9,81.3c-0.2,0.6-0.4,1.4-0.4,2.1c0,2.8,1.9,5.1,4.4,5.1c2.4,0,4.4-2.3,4.4-5v-0.1c-1,0.7-2.2,1.1-3.3,1.1
		C44.8,84.4,42.8,83.2,41.9,81.3"/>
	<path class="st7" d="M37.7,68.5c-0.5,0-0.9,0.4-0.9,0.9s0.3,0.9,0.8,1c0.5,0,0.9-0.3,1-0.8c0-0.1,0-0.1,0-0.2
		C38.5,68.9,38.2,68.6,37.7,68.5"/>
	<path class="st4" d="M54.7,54.7c-2.6,0.6-4.2,3.2-3.6,5.9c0.6,2.7,2.7,4.5,5.8,3.8c2.6-0.6,4.1-3.2,3.6-5.8
		C59.9,56,58,54.2,54.7,54.7"/>
	<path class="st4" d="M60.2,61.9c0.4-1.1,0.6-2.2,0.3-3.2c-0.6-2.7-2.4-4.5-5.8-3.8 M54.7,54.7c-1.8,0.5-3.2,1.9-3.6,3.6"/>
	<path class="st25" d="M60.2,61.9c0.4-1.1,0.6-2.2,0.3-3.2c-0.6-2.7-2.4-4.5-5.8-3.8 M54.7,54.7c-1.8,0.5-3.2,1.9-3.6,3.6"/>
	<path class="st7" d="M54.9,59.2c-0.5,0-0.9,0.4-0.9,0.9s0.4,0.9,0.9,0.9s0.9-0.4,0.9-0.9C55.7,59.5,55.4,59.2,54.9,59.2"/>
	<path class="st11" d="M81.9,72.5c-0.4,3.1,0.2,6.1,1.8,8.8l6.4-2.6c4.8-2.4,7.9-6.2,3.7-7l-11.2-2.3l0,0
		C82.3,70.3,82,71.4,81.9,72.5"/>
</g>
</svg>
