<?xml version="1.0" encoding="utf-8"?>
<!-- Generator: Adobe Illustrator 26.2.1, SVG Export Plug-In . SVG Version: 6.00 Build 0)  -->
<svg version="1.1" id="Capa_1" xmlns="http://www.w3.org/2000/svg" xmlns:xlink="http://www.w3.org/1999/xlink" x="0px" y="0px"
	 viewBox="0 0 216.8 190" style="enable-background:new 0 0 216.8 190;" xml:space="preserve">
<style type="text/css">
	.st0{clip-path:url(#SVGID_00000109001727541626408260000010215459613664918671_);}
	.st1{clip-path:url(#SVGID_00000054948472782470564110000013358002185382904738_);}
	.st2{clip-path:url(#SVGID_00000089564768727111147630000002827301226875053503_);}
	.st3{fill:#D7D7CE;}
	.st4{fill:#A29E90;}
	.st5{fill-rule:evenodd;clip-rule:evenodd;fill:#A29E90;}
	.st6{fill-rule:evenodd;clip-rule:evenodd;fill:#D7D7CE;}
	.st7{fill:none;stroke:#D7D7CE;stroke-width:0.28;stroke-linecap:round;stroke-linejoin:round;}
	.st8{fill:#3F7473;}
	.st9{fill:#61A0A2;}
	.st10{fill:#B1AEA2;}
	.st11{fill:#FFFFFF;}
	.st12{fill:#4B4A4B;}
	.st13{fill:#111419;}
	.st14{fill:#211915;}
	.st15{fill:none;stroke:#D7D7CE;stroke-width:0.4;stroke-linecap:round;}
	.st16{fill:none;stroke:#211915;stroke-width:0.7;stroke-linecap:round;}
	.st17{fill:none;stroke:#85B266;stroke-width:0.48;stroke-linecap:round;stroke-miterlimit:10;}
	.st18{fill:#DEA8C3;}
	.st19{fill:#F0DAE9;}
	.st20{fill:none;stroke:#D7D7CE;stroke-width:0.28;stroke-linecap:round;}
	.st21{fill:#6F4714;}
	.st22{fill:#945B19;}
	.st23{fill:#BF0811;}
	.st24{fill:none;stroke:#DEA8C3;stroke-width:0.5;stroke-linecap:round;}
</style>
<g>
	<g id="Capa_2_00000134212748651934794140000006461401540087144584_">
		<g id="Capa_1-2">
			<g>
				<g>
					<defs>
						<rect id="SVGID_1_" x="37.7" y="167.2" width="71.3" height="10.7"/>
					</defs>
					<clipPath id="SVGID_00000165207404700262231900000000624910702504454035_">
						<use xlink:href="#SVGID_1_"  style="overflow:visible;"/>
					</clipPath>
					<g style="clip-path:url(#SVGID_00000165207404700262231900000000624910702504454035_);">
						<g>
							<defs>
								<rect id="SVGID_00000119101150959512600800000001460861169697194883_" x="37.7" y="167.2" width="71.3" height="10.7"/>
							</defs>
							<clipPath id="SVGID_00000016070891796535186940000010067068300005117337_">
								<use xlink:href="#SVGID_00000119101150959512600800000001460861169697194883_"  style="overflow:visible;"/>
							</clipPath>
							<g style="clip-path:url(#SVGID_00000016070891796535186940000010067068300005117337_);">
								<g>
									<defs>
										<rect id="SVGID_00000016064421555686273970000008963881909431912376_" x="37.7" y="167.2" width="71.3" height="10.7"/>
									</defs>
									<clipPath id="SVGID_00000093865731370817289260000000711402367780994980_">
										<use xlink:href="#SVGID_00000016064421555686273970000008963881909431912376_"  style="overflow:visible;"/>
									</clipPath>
									<g style="clip-path:url(#SVGID_00000093865731370817289260000000711402367780994980_);">
										<path class="st3" d="M42.5,177.3c-0.8,0.1,0.5,0.2-0.5,0.1C42,177.3,42.3,177.3,42.5,177.3"/>
										<path class="st3" d="M58.2,170.7c-1.4-0.1-3.2,0.5-4.6-0.4c-0.9-0.7,2.5-1.1,3.4-1.5c0.4-0.1,0,0.4,0.8,0.2
											c2.9-1,7.6-0.8,11.2-0.1l-0.2,0.1c0.7,0.1,1.5-0.2,2.3-0.1c0,0.1-0.2,0.1-0.1,0.2c0.2-0.2,1.3,0,1.7-0.1
											c0.3,0.1,0.2,0.3,0.6,0.4l0.4-0.2c1.2-0.5,2.8,0.4,4.4,0.4c-0.1,0-0.2,0.1-0.1,0.1c2.9,0.2,5.7,0.7,8.4,1.5
											c-0.1,0.1-0.3,0.2-0.2,0.3c0.2-0.2,1.1,0,1.8,0.2c0.2,0.4,1.3,0.3,2.1,0.8h-0.1c0.7,0.1,0.8,0.7,1.4,0.6
											c0,0.4,0.2-0.5,0,0.8h-0.2c-0.2,0.4-1,0.1-1.5,0.4v0.1c-0.5,0.2-0.8,0-1.3,0.2h-0.1c-1.1,0.2-1.8,0.1-1.7,0.4
											c-0.4-0.2,1.1-0.2,0.4-0.5c-3.7,0.6-7.4,0.7-11.2,0.5c-0.4-0.1-0.7-0.2-0.8-0.3c-0.6,0-1.2,0-1.7,0.1
											c0.1,0-0.2-0.2-0.4-0.2c-0.7-0.1-0.8,0.3-1.5,0.1c0.3-0.1,0.4-0.2,0.3-0.3c-0.7,0.1-1.5,0.2-2.2,0.2
											c0.1-0.1,0.3-0.1,0.3-0.2c-0.8,0.2-1.5-0.1-2.2,0l0.3-0.2c-1.1-0.3-0.4,0.4-1.3,0.2c0.2-0.1,0.2-0.1,0.2-0.2
											c-1.1,0.2-2.2,0.2-3.4,0.1c0,0,0-0.1,0-0.1c-1.1-0.1-2.1-0.1-3.2-0.1c-0.4-0.1,0.2-0.4-0.9-0.4c0,0.4-1.8,0.2-1.2,0.6
											c-1-0.1-2-0.1-3-0.1c0.4-0.1-0.5-0.4,0.3-0.5l-0.6-0.2c0.1-0.1,0.6,0.1,0.4-0.1c-0.6,0.1-1.2,0.1-1.8,0.1
											c-0.8,0.3-1.6,0.6-2.5,0.6c0.5-0.1-0.3-0.4,0.1-0.4l-1.6,0.6c-0.4,0-0.1-0.3-0.6-0.2c0,0.1-0.2,0.1-0.4,0.2
											s-1.6,0-1.7-0.3c-0.2-0.1,0.6,0,0.2-0.2c-0.7,0-0.7,0.1-1.4,0l0,0c-0.5-0.1-1.4,0-0.9,0.3c0.3,0-0.1-0.2,0.4-0.1
											c-0.6,0.2-1.3,0.2-1.9,0.1c0.2,0,0.2-0.1,0.3-0.2c-1,0.1-2.1,0.1-3.1,0c0,0.2,0.5-0.2,0.6-0.1c-0.7-0.3-1.3-0.2-2.2-0.6
											c-0.3,0.2-1.4-1.4-0.7-1.9c0.5-0.8,0.8-0.6,1.1-0.8c-0.2,0.1-0.2-0.1-0.2-0.1c0.7-0.4,0.8-0.1,1.2-0.3
											c0.1,0.1,0.6-0.2,1-0.3c0.2-0.1,0.1,0-0.3,0.1c1.4-0.5,2.9-0.8,4.5-0.8c0-0.1,0.8-0.4,1.2-0.4l-0.1,0.2
											c0.3,0.1,1.1-0.1,1.2,0.1c0.7-0.3-2.6,0.5-1.7,0.2c0.3,0.2,1.3-0.5,1.1-0.2c0.6-0.2,1.3-0.2,1.9-0.2c-0.2,0-0.5,0.3,0,0.3
											c0.9-0.1,0.2-0.1,1-0.3l0.5-0.1c0-0.2,0.8,0,0.5-0.2c0.1,0.2,1.3-0.2,1.3,0.2l-0.1,0.3c0.4-0.1,0.6-0.3,0.9-0.5
											c0,0,0.2,0.1,0.1,0.1c0-0.4,1,0,1.4-0.4c0.8,0,1.7,0,2.5,0.1c0.6-0.2,1.3-0.3,2-0.3c-0.1,0-0.3,0.1-0.4,0.2
											c0.3,0.1,0.7,0,1-0.1c0.5,0.2,1,0.3,1.5,0.3c0.6-0.2,0.4-0.4,0.5-0.5c0.6,0.4,1.8-0.4,2.5,0c-0.2,0.1-0.9,0.2-0.4,0.3
											c0.6,0.4,1.2-0.4,2.1-0.2l-0.2-0.3c0.4,0.2,1.4-0.3,1.3,0.1c0.3-0.1,1.1,0.1,1-0.3c1.6,0.2,3.7-0.4,4.7,0.2
											c0.2-0.1,0.8,0,0.7-0.2c-0.4-0.2-0.5,0.2-0.7,0c0.2,0,0.2-0.1,0.2-0.2c0.5,0,0.9,0.1,0.4,0.4c1.1,0.2,1.1-0.6,2.4-0.5
											c-0.1,0.1,0,0.2,0.4,0.1l0.8-0.3c0.9,0,0.5,0.3,0.5,0.6c0.4,0,0.9-0.1,1.2-0.2l0.6,0.3c-0.4-0.2,0.4-0.2,0.6-0.2l-0.2,0.1
											c0.1,0.1,0.6,0,0.9,0c-0.1-0.1-0.6-0.2-0.9-0.2c0.2-0.1,0.6-0.1,0.9-0.2c-0.1,0.2,0.8,0.1,1.1,0.2s0.5-0.2,0.6-0.2
											s0.7,0,0.4,0.2c-0.1,0-0.3-0.1-0.6,0c0.3,0.1,0.3,0.3,0.8,0.1s-0.1-0.5,0.7-0.3c-0.2,0-0.3,0.1-0.4,0.2l0.8,0.1v-0.2
											c0.1,0.1,0,0.1,0.1,0.1c0.2-0.2,1.2-0.1,1.4-0.3c0.4,0,0.8,0.1,1.2,0.2h-0.1c0.5,0.1,1,0.1,1.5-0.1l0,0
											c0.4,0,0.8,0,1.2-0.1c0.6,0.2,0.2,0.8,0.9,0.6c0.7,0,1-0.3,0.8-0.5c1.2,0.2,2.5-0.1,3.6,0.3c0.2-0.1,0.1-0.1,0.4-0.2
											c1.7,0.2,3.7,0,5,0.7c-0.5,0-0.1,0.2-0.1,0.3c0.4-0.1,0.5,0.3,0.7,0c0-0.2,0-0.3-0.4-0.4c1.1,0,2.1,0.2,3.1,0.5
											c-0.3-0.1,0-0.2,0.2-0.2c-0.1,0.3,0.6,0.5,1.2,0.5l0.1-0.2l0.3,0.3c0.2,0,0.3-0.3,0.8-0.1c0,0.1,0.1,0.2,0.1,0.2
											c0.8,0.2,1.1-0.5,2.8,1c0.1,0.1,0.4,0.3,0.1,1.4c-0.4,1-1,0.9-1,0.9c-0.3,0.1-1,0.4-0.2,0.4c-0.8,0.2-1.7,0.2-2.5-0.1
											c-2.2,0.6-4.5,0.9-6.8,0.8l0.1-0.1c-0.6-0.1-0.3,0.2-0.7,0.2c0.2-0.1-0.5-0.3,0-0.4c-0.8-0.1-1.1,0.3-1.6,0.3
											c-0.1,0.2,0.4-0.1,0.3,0.1c-0.1,0.1-1.2-0.1-1.3,0.1c-0.2-0.1,0-0.3,0.1-0.4l-0.5,0.1c-0.6-0.3,1.4-0.6,0.8-1l-0.5,0.1
											c-0.5-0.3,1.2-0.4,0-0.4c-0.5,0.1-0.9,0.6-0.5,0.7c-1.1,0.1-0.5,0.7-1.6,0.7c-0.3-0.2,0.9-0.1,0.7-0.3
											c-0.5-0.2-1.1,0.1-1.6,0.1c0.5,0.1,0.1,0.4-0.3,0.4c-0.6-0.1,0.4-0.3-0.4-0.3c-0.1,0.2-0.9,0.3-0.2,0.4
											c-0.3,0.4-0.9-0.1-1.3,0.2c-0.3-0.2,0.8-0.6-0.1-0.7c0.2,0.2-1.1,0.4-0.6,0.7c-0.4-0.1-0.4-0.3-0.2-0.4
											c-0.5-0.1-1.2,0.5-1.4,0l-0.2,0.3c-0.2-0.1-0.4-0.1-0.7-0.3c-0.4,0-1.4,0.4-1.4,0c-0.1,0.1-1.2,0.1-0.8,0.3
											c0.6,0.1,0.7-0.2,1.1,0.1c-0.5-0.3-0.9,0.1-1.3,0.2l-0.1-0.1c-0.2,0.1-0.7,0.1-0.8,0.2c0.2-0.1,0.1-0.2-0.1-0.2l-0.2,0.2
											c-0.9,0.2-0.2-0.4-1.1-0.3l0.6-0.2c-0.1,0.1-0.4-0.1-0.8,0c-0.1,0.2-0.4,0.5-0.5,0.7c-0.4,0.1-0.2-0.2-0.7,0l0.6-0.3
											c0.1-0.1-0.4-0.3-1.1-0.2c-0.4,0.1-1,0.5-0.3,0.5c-0.3,0-0.8,0-0.5-0.2c-0.7,0.1,0.1,0.2-0.5,0.4
											c-0.3-0.1-1.1-0.2-1.6-0.3l0.6-0.4l-0.4,0.1c0.5-0.3-0.3-0.2,0-0.5c-0.3,0-0.6,0.1-0.9,0.3c0.9,0.3-0.9,0.8-0.6,1.1
											c-1.2,0.3-0.9-0.9-2-0.1c0.2,0.1-0.3,0.5,0.4,0.2c-0.8,0.1-0.4,0.5-1.3,0.5c0.6-0.3-0.8-0.3,0.1-0.7c0,0.1,0.5,0,0.7,0
											c-0.3-0.1,0-0.4-0.8-0.3c-0.5,0.1-1.1,0.2-1,0.4s0.7-0.1,0.4,0.1c-0.9,0.2-1.1-0.1-1.4,0.4c0.6-0.1,0.8,0.1,0.8,0.3
											l-0.7,0.2l0.1-0.2c-1.1,0.1-0.3,0.3-1.3,0.5l-0.6-0.2c0.2-0.3,1.6-0.1,1.3-0.5c-0.7,0.1-0.9,0.4-1.6,0.3l0.5-0.2
											c-0.2,0-0.6-0.5-1.5,0c-0.5,0.2-0.1,0.2-0.1,0.3c-1.1,0.2-1.4,0.4-2.1,0.6c0.1-0.3-1.3,0.2-0.5-0.3
											c0.8,0.1,1.6-0.1,2.3-0.5c-0.5-0.3,0.9-0.1,1.1-0.5c-0.9,0.1-0.9-0.2-1.1-0.5c-0.2,0-0.4,0.1-0.6,0.2
											c-0.1,0.2,0.2,0.2,0.3,0.4c-0.9,0.1-1.7,0.3-2.4,0.7c-0.3-0.1-0.3-0.3,0.1-0.4c-1.2,0.3-2.4,0.4-3.6,0.5
											c0.8,0.3-1.2,0.3-0.7,0.5c0.6,0,1.2,0.2,0.9,0.4c-0.4,0,0-0.2-0.2-0.2c-0.4,0.3-0.8-0.2-1.2,0.2c1.1-0.3,0.1-0.5,0.3-0.8
											c-0.8,0.3,0-0.2-0.8-0.1c-0.8,0.3-1.7,0.6-2.5,0.8c-1.3,0-2.5,0.2-3.7,0.6c-0.5-0.1-0.2-0.5-0.8-0.4s0.5,0.3-0.5,0.3
											l0.1-0.1c-0.3,0.1-1.8,0-2,0.5l0.2-0.4c-0.2,0-0.3,0.1-0.5,0.2c0-0.1-0.2-0.2,0-0.3c-0.6-0.2-1.2,0.2-1.9,0.3l0.4,0.2
											c-1,0.2-1.9,0.3-2.9,0.4v-0.2L45,178c0.1-0.2-0.5-0.3-0.8-0.1l1.6-0.7c0.5,0.1-0.5,0.3-0.2,0.5c0.5,0.1,1,0,1.4-0.2
											c-0.2,0-0.5,0.1-0.7,0.2c-0.2-0.3,0.4-0.3,0.7-0.6c-0.2,0-0.5,0-0.5,0.1c0.4-0.2,0.9-0.3,1.4-0.3
											c-0.4,0.2,0.3,0.1,0.1,0.3c0-0.3,0.6-0.4,1.4-0.4c0.6,0.2,1.5-0.4,2.4-0.4c-0.4,0.4-0.8,0.6-1.3,0.8
											c0.6,0,0.7-0.1,1.2-0.1c0.3-0.4,0.7-0.6,1.2-0.8l0.1,0.2c0.7-0.2,0.6-0.5,1.5-0.6c1.5-0.1,3-0.4,4.2-0.5l0.1,0.2
											c0.6-0.5,2.1-0.5,2.9-0.8c1.5-0.1,3.1-0.7,3.9-0.5c2.5-0.6,4.7-1.1,7.4-1.4l-0.4,0.4c0.4-0.3,0.3,0.1,0.8,0
											c-0.6-0.1,0.6-0.4,0.9-0.6c1.3,0,2.5-0.3,3.7-0.7L78,172c1-0.5,2.3-0.3,3.7-0.4c0.2,0.1,0.5,0.2,0.8,0.2
											c0.7-0.3,1.4-0.5,2.1-0.6c0.9,0,1.9,0,2.8,0.1c2.9-0.5,5.9-0.3,8.9-0.6l0.2,0.2c2.9-0.6,6.6-0.2,8.9-0.6l-0.2,0.4
											c0.8,0,1.6-0.3,1.3-0.6c0.1-0.3,0.1,0.1,0.6,1.1c-0.8,0.4-0.8,1.1-0.7,0.9c-0.3,0-0.6-0.2-0.9-0.4c-0.7-0.2-1,0-1.6-0.1
											c-1.1-0.4-2.3-0.6-3.6-0.7l0.4,0.1c0.2-0.1,0.2-0.2-0.2-0.3c-0.6,0-2-0.4-1.5,0.2c-1.5-0.5-3.7-0.1-5.2-0.6
											c0.1,0.1-0.3,0.1-0.4,0.2c-1.3-0.2-2.7-0.3-4-0.2c-0.2-0.1,0.4-0.2-0.2-0.2c-0.3,0,0,0.2-0.4,0.2
											c-2.3,0.2-4.6-0.3-6.7-0.2c-3.7,0.3-7.5,0.3-11.1,0.5v-0.1c-1.2,0.4-2.8-0.2-3.8,0.3c-0.3-0.1-1.1,0-0.9-0.2
											c-0.9,0.3-2.7-0.1-4,0.3l0.3-0.1c-1.4-0.1-2.6,0.2-4.1,0.1c0.2,0,0.4-0.1,0.5-0.2c-0.6-0.1-1.3,0.5-1.7,0
											c-0.3,0-0.2,0.2,0,0.2c-3.3,0.1-6.6,0.4-9.9,0.9c-2.4-0.1-0.2-0.8-2-0.2c-0.2-0.1-0.1,0.2-0.1,0.1
											c-0.7,0.2-1.2-0.4-1.6-0.1c0.2,0.2-0.3,0.2-0.3,0.4c-1.4,0-1.8-0.2-2.8,0.2l0-0.2c-0.4,0.2-1.1,0.8-1.1,0.7
											c-0.4-0.5-1.1-0.3-0.5-0.5c0-0.2,0.6-0.8,0.5-0.6c0.2,0,0.4,0,0.6-0.1c6.8,1.2,14.1,0.6,21.5,0.7
											C69,172.6,76,173,83.2,173c1.2,0.3,2.4,0.3,3.6,0c-0.1,0.1-0.2,0.1-0.1,0.1c0.1-0.3,1.2-0.2,1.4-0.5
											c0.6-0.1,1.2-0.2,1.7-0.3l0.4-0.1l0.2-0.1h0.1h0.1c-0.9,6.5-0.3,1.8-0.5,3.2l0,0l-0.7-0.4c-1.1-0.6-2.2-1.1-3.3-1.4
											c0.4,0.1,0.7-0.1,0.2-0.2h-0.6v-0.1c-0.3-0.1-0.7,0-0.4,0.2c-6.4-1.7-13.1-3.1-19.8-3.2c-1.8-0.1-3.7,0-5.5,0.2
											c-1.2,0-2.4,0.1-3.6,0.2c-0.6,0.1-1.1,0.2-1.7,0.3l-0.8,0.2l-0.2,0.1h0l0,0c0,0.5,0.5-4.4,0.2-2.3l0,0h0.1l0.2,0.1
											c0.8,0.5,5.6,0.8,6.4,0.9c0.3-0.1,0.1,0.8-2.3,0.7"/>
										<path class="st3" d="M43.5,177.2c0.2,0.1,0.8,0.2,0.3,0.4C43.8,177.5,43.4,177.4,43.5,177.2"/>
										<path class="st3" d="M59.8,176.7c0-0.1,0.2,0,0.3,0c-0.2,0.1-0.4,0.2-0.5,0.1C59.7,176.9,59.7,176.8,59.8,176.7"/>
										<path class="st3" d="M63.9,176.1c0,0.1-0.9,0.4-1.4,0.5L63.9,176.1z"/>
										<path class="st3" d="M67.8,176.1c0.3,0.1,0.3,0.1-0.2,0.2C67.6,176.2,67.7,176.2,67.8,176.1"/>
										<path class="st3" d="M68,175.8c0.2,0,0.4,0,0.7,0.1C68.7,175.7,67.9,176,68,175.8"/>
										<path class="st3" d="M76.4,174.9c0.2,0,0.6-0.2,0.8-0.1C77,174.7,76.2,175.1,76.4,174.9"/>
										<path class="st3" d="M80.1,174.2c0.2,0,0.2,0,0.3,0s0,0.2-0.2,0.2S80.3,174.3,80.1,174.2"/>
										<polygon class="st3" points="64.7,168.1 65.1,168 65,168.2 										"/>
										<path class="st3" d="M42.5,174.6c0.4,0,0.3,0.2,0.3,0.2C42.5,174.8,43,174.6,42.5,174.6"/>
										<polygon class="st3" points="59.4,174.5 59.3,174.5 59.3,174.2 										"/>
									</g>
								</g>
							</g>
						</g>
					</g>
				</g>
			</g>
			<path class="st4" d="M65.2,28.9v-0.1c-3.5-4.8-7.8-9-12.7-12.5c-1.8-1.2-2.6-1.2-2.6,1.2c0,6.8,1.2,12.3,4,21.3
				c-1.7,3.2-2.6,6.7-2.5,10.3l3.9-3.1c-2.3,2.9-3.8,6.9-4.6,12l3.6-2.4c-1,3.4-1.1,7.1-0.3,10.6c6.8-7.4,8,4-8.1,39.4l3.3-2.9
				c-2.1,4.1-3.2,8.7-3.3,13.3l2.7-2.4c-0.5,4.1-2.5,14.4-1.8,17.6l2.4-3.5c6.8,1.7,13.6,8.6,22,10.7c12,3,20.6-5.9,27.6-8.2l0,0
				c-0.7-9.2-1.3-16.6-3.7-22.5l-2.1,2.6c0,0-1.8-13.2-4.1-15.6l-1.6,5.6c0,0-1.8-7-0.4-12.9c-1.5,0.5-2.9,1.5-3.8,2.9
				c3.9-12.5-18-21.9-16.8-41.2l-2.2,1.2c0-1.5,1.8-4.6,1.8-4.6l-4,1c1.3-2.9,5.5-5.7,5.5-5.7l-2.4-0.6c1.7-2.4,6.2-1.4,8.1-2.6
				c4.1-2.5,14.8,6.7,19.4,8.1l39.8,3.6l0.2-1.2c0.2-1.4,0.5-2.7,1-4l0,0c0,0-14.3-4.2-17.5-5.3c-7.8-2.7-26.8-10-26.8-10l0,0
				l-7.4-2.6v1.1c-1.3-1.3-2.8-2.4-4.5-3.3c-0.9-0.5-1.9-0.9-2.9-1.3c1,1.4,1.5,3,1.6,4.7c-1.6-1.7-3.4-2.1-5.5-2.6
				c1,1.2,1.7,1.8,1.5,3C69.7,27.8,67.4,28,65.2,28.9"/>
			<path class="st5" d="M51.5,135.9c-1.4-0.7-3,1.8-3,1.8c-3.6,4.2-7.7,7.9-12.2,11.1c-3.6,2-7.4,3.6-11.4,4.8
				c-4.5,1.3-5.3,2.1-5.3,2.1L21,156c0,0-2.6,1.3-4.9,2.6c-1.4,0.8-2.7,1.8-3.9,2.9l3.2-0.1c-1.8,0.9-3.5,2-5.1,3.2
				c-1.3,1-2.4,2.3-3.1,3.8c0,0,11.6,1.3,21.7-3.9c18.4-9.4,19.9-17.1,22.9-23.9C52.2,140.1,53.1,136.7,51.5,135.9"/>
			<path class="st6" d="M48.5,148.2c0,0-5.8,4.5-8.7,6.6c-8.6,6.2-18.2,10.8-28.5,13.7c0,0,8.1,0.9,18.4-3.9
				C43.6,158.3,48.5,148.2,48.5,148.2"/>
			<path class="st7" d="M11.3,168.5c0,0,8.1,0.9,18.4-3.9c13.8-6.4,18.8-16.5,18.8-16.5"/>
			<path class="st4" d="M95.4,168.7c4.8,2.7,4.8-2.3-2.7-5.5c-1.1-6.6-1.1-11.4-1.6-16.9l-7.2,0.1l2.3,17.9c-2.8,8,5.8,10.1,3.7,5.2
				C93.9,174.4,97.2,171.1,95.4,168.7"/>
			<path class="st4" d="M66.1,170.9c4.8,2.7,4.8-2.3-2.7-5.5c-1.1-6.6-1.1-11.4-1.6-16.9l-7.2,0.1l2.3,18c-2.8,8,5.8,10.1,3.7,5.2
				C64.6,176.7,67.9,173.4,66.1,170.9"/>
			<path class="st8" d="M80.1,143.3c0.2,2.6,0.5,5.1,1,7.6l13.4-1.4c0.4-2.4,0-15.5,0-15.5C90.5,137.9,86.6,142.7,80.1,143.3"/>
			<path class="st3" d="M98,70.8l36.9-11.7c-2-3.4-1.8-5-2.4-9.6c0,0-15.3-2.1-26.8-5c-13.4-3.4-17.3-6.3-23-8.7
				c-4.4-1.9-10.3-2.2-14.3,0.3c-2.3,1.3-4.4,3-6,5.1l2.4,0.6c0,0-4.3,2.7-5.5,5.7l4-1c0,0-1.7,3.1-1.7,4.6l4.3-0.8
				c-1.3,20.5,21.1,29,17.6,40.2c0.9-1.3,2.2-2.3,3.7-2.9c-1.4,5.9,0.4,12.9,0.4,12.9l1.6-5.6c2.3,2.4,4.1,15.6,4.1,15.6l2.1-2.6
				c2.4,5.9,3,13.3,3.7,22.5C103.1,107.1,89.6,82.4,98,70.8"/>
			<path class="st9" d="M83.1,146c5.8-2,10.7-5.9,14-11c1.8-3.1,2.4-6.1,2.7-9.9c0,0.3-0.6,0.2-0.8,0.3l-2,0.6
				c-7,2.4-14.6,3.2-25,3.2c-8.4,0-16.8-0.9-25-2.7c-0.5-0.1-0.2,2.8,0,4.4c0.3,2,0.9,3.9,1.9,5.6c0.3,0.5,0.5,1,0.9,1.4
				c0.3,1.2,0.6,2.4,0.8,3.6c0.2,1.2,1.4,9.1,1.4,11.5l13.5-0.4l-0.2-5.3C71.1,148.6,77.4,148.1,83.1,146"/>
			<path class="st3" d="M55.5,24.4c-0.4-0.3-1.6-1.5-0.7,0.5c0,0,3.4,8.2,3.7,8c0.9-0.6,3.8-2.1,3.6-2.4L55.5,24.4z"/>
			<path class="st10" d="M66.2,85.9c-0.3-0.7-0.6-1.4-1-2.1c-1-1.5-3.1-1.8-4.6-0.8c-0.3,0.2-0.6,0.5-0.8,0.8c-1.4,2-1.2,4.9-1,7.2
				c0.8,10.2,5.7,19.6,13.6,26.2c3.4,10.4,8.1,9.7,7.3,6l0,0c1.6,0.9,3.3,0.9,3.9,0s0-2.6-1.4-3.9l0.1-0.1c0.3,0.1,3.3,0.5,3.3-1.6
				s-6.2-3.2-6.2-3.2c-5.9-5.3-10.4-13.9-12.3-22L66.2,85.9z"/>
			<path class="st4" d="M80.5,11.4l-3.1,13.1c1.6,0.9,3.1,2,4.5,3.3l7.4,1.5L82.5,9.1C82.2,8.4,81,9.5,80.5,11.4"/>
			<path class="st11" d="M77.4,37.9c-3.5,0.9-5.6,4.3-4.8,7.8c0.8,3.5,3.6,5.7,7.7,4.8c3.4-0.8,5.4-4.2,4.6-7.6c0,0,0,0,0-0.1
				C84.1,39.4,81.8,37.1,77.4,37.9"/>
			<path class="st12" d="M86.9,131c-0.8,0.1-1.4,0.8-1.3,1.7c0.1,0.7,0.6,1.2,1.3,1.3c0.8,0,1.5-0.7,1.5-1.5
				C88.4,131.7,87.7,131,86.9,131"/>
			<path class="st12" d="M85.7,138.4c-0.8,0-1.4,0.6-1.4,1.4s0.6,1.4,1.4,1.4c0.8,0,1.4-0.6,1.4-1.4c0,0,0,0,0,0
				C87.2,139,86.5,138.4,85.7,138.4C85.7,138.4,85.7,138.4,85.7,138.4"/>
			<path class="st13" d="M83.1,59.1c-0.3,0.8-0.5,1.7-0.5,2.6c0,3.4,2.4,6.3,5.4,6.3s5.4-2.8,5.4-6.2v-0.1c-1.2,0.9-2.7,1.3-4.1,1.3
				C86.7,63,84.2,61.5,83.1,59.1"/>
			<path class="st14" d="M78,43.3c-0.6,0-1.1,0.5-1.1,1.1c0,0.6,0.4,1.1,1,1.2c0.6,0,1.1-0.4,1.2-1c0-0.1,0-0.1,0-0.2
				C79,43.8,78.6,43.4,78,43.3"/>
			<path class="st11" d="M99,26.3c-3.2,0.8-5.2,4-4.4,7.3c0.8,3.3,3.3,5.6,7.2,4.7c3.2-0.8,5.1-4,4.4-7.2
				C105.4,27.8,103.1,25.6,99,26.3"/>
			<path class="st11" d="M105.8,35.1c0.5-1.3,0.7-2.7,0.4-4c-0.8-3.3-3-5.5-7.2-4.7 M99,26.3c-2.2,0.6-3.9,2.3-4.4,4.5"/>
			<path class="st15" d="M105.8,35.1c0.5-1.3,0.7-2.7,0.4-4c-0.8-3.3-3-5.5-7.2-4.7 M99,26.3c-2.2,0.6-3.9,2.3-4.4,4.5"/>
			<path class="st14" d="M99.2,31.8c-0.6,0-1.1,0.5-1.1,1.1c0,0.6,0.5,1.1,1.1,1.1s1.1-0.5,1.1-1.1C100.2,32.2,99.8,31.8,99.2,31.8"
				/>
			<path class="st13" d="M132.6,48.2c-0.5,3.8,0.2,7.6,2.2,10.9l7.9-3.2c5.9-3,9.8-7.7,4.6-8.7l-13.8-2.9l0,0
				C133.1,45.5,132.7,46.9,132.6,48.2"/>
			<path class="st11" d="M169.8,99.7c0-19.2-14.3-26.9-38.1-26.9s-39.1,7.6-39.1,26.9c0,16.3,9.8,24.2,28.4,26.3
				c1.1,2.7,2.7,5.1,4.6,7.2c3.8,3.9,9.6,5.7,9.6,5.7s-4.3-4-6-8c-0.6-1.4-1-3-1.2-4.5c1.2,0.1,2.5,0.1,3.7,0.1
				C155.5,126.5,169.8,118.9,169.8,99.7"/>
			<path class="st16" d="M157.1,156.2c0,0-3.2,10.1-3.9,11c-1.3,0-2.7-0.4-3.7-1.2"/>
			<path class="st16" d="M174.7,163.1c0,0,0.8,10.4,0.2,11.4c-1.2,0.4-2.4,0.5-3.6,0.4"/>
			<path class="st16" d="M151.8,148.6c0,0-9.5,6.6-10.6,6.4s-2-3.2-2-3.2"/>
			<line class="st17" x1="134.5" y1="158" x2="147.7" y2="162.1"/>
			<path class="st18" d="M133.7,160.6c-0.3,0.9-1.2,2.2-2.8,1.7c-0.8-0.2-0.5-2.1,0.3-3.3c0.4-0.6,1.4-1.5,2.1-1.1
				S134,159.9,133.7,160.6"/>
			<path class="st18" d="M133.3,155.8c0,0-2.5-3.6-4.4-2.3c0,0-1.9,1.6,1.1,3.1c0.9,0.4,1.8,0.5,2.7,0.4
				C132.8,156.6,133,156.2,133.3,155.8"/>
			<path class="st18" d="M132.9,156.9c-1.3-0.3-2.7-0.3-4-0.1c0,0-2.4,0.7-1,2.5c0.6,0.8,2.4,0.6,4.1-0.7c0.3-0.2,1.3-0.7,1.3-0.7
				L132.9,156.9z"/>
			<path class="st18" d="M133,155.9c0,0-3-4.7,0.1-4.5c1,0.1,2.5,0.6,1.4,4l-0.5,0.8C133.8,155.9,133.4,155.8,133,155.9"/>
			<path class="st18" d="M134.6,157.6c-0.3,0.6-0.9,0.9-1.5,0.8c0,0,1,4.8,3.1,3.5C138.6,160.5,135.2,157.7,134.6,157.6"/>
			<path class="st18" d="M134.2,155.8c0,0,0.5-2.8,2.5-2.8c0.8,0,2.8,1.5,0.6,2.8c-0.6,0.4-1.4,0.5-2.6,1.1
				C134.7,156.9,134.3,155.9,134.2,155.8"/>
			<path class="st18" d="M134.8,156.6c0,0,3-1.1,3.6,0.2c0.2,0.5-0.3,2.1-2.4,1.6c-0.6,0-1.1-0.2-1.5-0.7
				C134.5,157.7,134.9,156.8,134.8,156.6"/>
			<path class="st11" d="M134.9,157c0,0.9-0.7,1.6-1.5,1.6c-0.1,0-0.1,0-0.2,0c-0.8-0.1-1.4-0.7-1.4-1.5c0-0.9,0.7-1.7,1.6-1.7
				c0.1,0,0.1,0,0.2,0C134.3,155.4,134.9,156.1,134.9,157C134.9,157,134.9,157,134.9,157"/>
			<path class="st19" d="M156.4,117.8c0,0,17.4-17.5,42.6-12.3c0,0,3.6,0.9,1.2,3.5s-4.6,5.3-0.1,12c2,1,2.9,3.4,2.1,5.6
				c-1.4,3.8-6.5,2.8-6.3,6.4s1.3,3.9-1.9,7.3c0,0-1.6,0.9-4.5-0.9s-21.3-13.9-21.8-14.4L156.4,117.8z"/>
			<path class="st18" d="M165.8,123.7l1-1.4c0.8,0.6,1.3,1.4,1.6,2.3l-0.4,0.6C168,125.1,165.9,123.7,165.8,123.7"/>
			<path class="st11" d="M163.4,122.5l1.5-2.2c0.9,0.3,1.6,1,1.9,1.9l-1.1,1.5C165.8,123.7,164,122.4,163.4,122.5"/>
			<path class="st18" d="M161.1,121l1.7-2.6c0.9,0.3,1.8,0.9,2.4,1.7l-1.6,2.4C162.8,121.9,162,121.4,161.1,121"/>
			<path class="st11" d="M158,119.8l2-2.9c1.1,0.2,2.1,0.7,2.9,1.4l-1.9,2.8C161,121.1,158.6,119.7,158,119.8"/>
			<path class="st18" d="M155,118.7c0,0,1.6-2.7,3.4-2.5c0.6,0.1,1.2,0.3,1.8,0.6l-2,3C157.2,119.4,156.1,119,155,118.7"/>
			<path class="st11" d="M143.9,126.4c0,1.9-0.7,4.2-3.6,4.2c-3.1,0-3.6-2-3.6-4c0-2,1.6-3.6,3.6-3.6c0,0,0.1,0,0.1,0
				C142.4,123,143.9,124.5,143.9,126.4C143.9,126.4,143.9,126.4,143.9,126.4"/>
			<path class="st20" d="M143.9,126.4c0,1.9-0.7,4.2-3.6,4.2c-3.1,0-3.6-2-3.6-4c0-2,1.6-3.6,3.6-3.6c0,0,0.1,0,0.1,0
				C142.4,123,143.9,124.5,143.9,126.4C143.9,126.4,143.9,126.4,143.9,126.4"/>
			<path class="st14" d="M140.4,127.4c0,0.3-0.2,0.6-0.5,0.6s-0.6-0.2-0.6-0.5c0,0,0-0.1,0-0.1c0-0.3,0.2-0.6,0.5-0.6
				s0.6,0.2,0.6,0.5C140.4,127.3,140.4,127.4,140.4,127.4"/>
			<line class="st17" x1="141.1" y1="154.3" x2="146.4" y2="163.1"/>
			<path class="st21" d="M161.1,163.9c6.2,4.6,17.6,4.2,22.2-0.3c7.7-7.6-0.2-20.8-0.2-20.8s-4,7.8-8.3,12.1
				C169.4,160.2,161.1,163.8,161.1,163.9"/>
			<path class="st22" d="M160.1,164.3c0,0,8.2-2.2,16.1-10.4c4.2-4.5,7.1-11.8,7.1-11.8c-0.7-2-1.6-3.8-2.8-5.5
				c-3-4-4.6-5.9-4.6-5.9s-0.8,10.6-6.9,16.2c-4.6,4.3-9.9,7.9-15.6,10.8c1.1,1.4,2.3,2.8,3.6,4.1
				C158.1,162.8,160.1,164.3,160.1,164.3"/>
			<path class="st22" d="M147.6,149.7c0,0,17.6-7.7,21.4-23.9c0,0-12.3-9.5-20.1-7.2c0,0-10.9,1.3-7.6,17.4
				C141.3,136,143.8,144.6,147.6,149.7"/>
			<path class="st21" d="M152.9,158.2c0,0,5.6-1.6,15.6-10.6c7.5-6.7,7.9-16.9,7.9-16.9c-1.2-1.1-2.5-2-3.8-2.9
				c-3.6-2.5-3.6-1.9-3.6-1.9c-1.4,5.5-4.3,10.5-8.4,14.5c-3.9,3.9-8.5,7.1-13.5,9.5c0,0,0.8,1.6,2.8,4.6
				C150.8,155.7,151.8,157,152.9,158.2"/>
			<path class="st23" d="M137,154c0,0-1.9,1.7-1.2,2.6c0.5,0.6,1.1,1.4,3.1-0.2c0.6-0.4,0.8-1.2,0.7-1.9c-0.3-0.3-0.6-0.6-0.8-1
				C138.2,153.9,137.6,154,137,154"/>
			<path class="st23" d="M140.4,148.9c0.2,1.2,0.1,3.4-0.8,3.4s-2.3-1.2-2.5-3.1c-0.1-0.9,0.6-2.1,1.4-2.1
				C139.6,147.1,140.4,147.9,140.4,148.9C140.4,148.9,140.4,148.9,140.4,148.9"/>
			<path class="st23" d="M139,151.8c0,0-3.1-2.1-4.3-0.6c-0.5,0.6-1,2.6,1.6,2.9c0.8,0.1,1.7-0.1,2.4-0.5
				C138.7,153,138.8,152.4,139,151.8"/>
			<path class="st23" d="M140.1,151.8c0,0-0.1-4.3,3-3.7c0.8,0.1,1.6,1.2,0.6,2.8c-0.6,0.9-1.5,1.5-2.6,1.7
				C141.1,152.6,140.6,152.2,140.1,151.8"/>
			<path class="st23" d="M141.2,152.5c1.2-0.7,2.7-0.5,3.7,0.4c0.6,0.5,0.8,2.7-2.2,2.4c0,0-1.6-0.3-2-1.6
				C140.6,153.8,141.4,152.8,141.2,152.5"/>
			<path class="st23" d="M141,153.9c0,0,2.5,3.4,0.4,4.4c-1,0.4-3.1-0.3-2.1-3.8c0,0,1.1,0,1.4-0.4"/>
			<path class="st18" d="M139.9,151.5c-0.9,0.1-1.7,0.9-1.6,1.8c0,0.9,0.8,1.6,1.7,1.6c0,0,0,0,0,0c0.8,0,1.5-0.6,1.6-1.4
				c0,0,0-0.1,0-0.1C141.6,152.3,140.9,151.5,139.9,151.5"/>
			<path class="st13" d="M145.7,138.5c0,0,4.2-1.7,7.4-0.8c0,0-0.3-4.4-4.6-3.9C148.6,133.8,145.8,134.7,145.7,138.5"/>
			<path class="st11" d="M156.8,125.9c0.1,2-1.4,3.8-3.4,3.9c-0.2,0-0.3,0-0.5,0c-1.8,0.1-3.4-1.9-3.4-4s1.5-4,3.3-4.1
				c2.2,0,4,1.8,4,4C156.8,125.8,156.8,125.9,156.8,125.9"/>
			<path class="st14" d="M154.6,126c0,0.4-0.2,0.7-0.6,0.7s-0.7-0.2-0.7-0.6c0-0.1,0-0.1,0-0.2c0-0.4,0.2-0.7,0.6-0.7
				s0.7,0.2,0.7,0.6C154.6,125.9,154.6,125.9,154.6,126"/>
			<path class="st24" d="M172.9,115.2c4.3-2.4,12.7-3.4,17.9-2.5"/>
			<path class="st24" d="M173.6,121.1c5.1,0.1,10.1,1.4,14.6,3.7"/>
			<path class="st16" d="M181,162.1c0,0,2.6,11.8,2,12.7c-1.2,0.6-2.5,0.9-3.8,0.7"/>
			<path class="st16" d="M161.2,160.9c0,0-1.3,11.1-2.1,12s-4.3-0.1-4.3-0.1"/>
			<path class="st16" d="M152,152.4c0,0-7.9,8.4-9.1,8.5s-2.7-2.7-2.7-2.7"/>
		</g>
	</g>
</g>
</svg>
