<?xml version="1.0" encoding="utf-8"?>
<!-- Generator: Adobe Illustrator 26.2.1, SVG Export Plug-In . SVG Version: 6.00 Build 0)  -->
<svg version="1.1" id="Capa_1" xmlns="http://www.w3.org/2000/svg" xmlns:xlink="http://www.w3.org/1999/xlink" x="0px" y="0px"
	 viewBox="0 0 202.6 178.2" style="enable-background:new 0 0 202.6 178.2;" xml:space="preserve">
<style type="text/css">
	.st0{fill-rule:evenodd;clip-rule:evenodd;fill:#6EAA6F;}
	.st1{fill:#6F4714;}
	.st2{fill:#3F7473;}
	.st3{fill:#C3C1B9;}
	.st4{clip-path:url(#SVGID_00000019668556791652765390000017462683648037067415_);}
	.st5{fill:none;stroke:#FFFFFF;stroke-width:0.5916;}
	.st6{fill:none;stroke:#211915;stroke-width:1.0772;stroke-linecap:round;}
	.st7{fill:#5B5B5F;}
	.st8{fill:#FFFFFF;}
	.st9{fill:none;stroke:#D7D7CE;stroke-width:0.3532;stroke-linecap:round;}
	.st10{fill:#211915;}
	.st11{fill:none;stroke:#D7D7CE;stroke-width:0.9271;stroke-linecap:round;}
	.st12{fill:#D7D7CE;}
	.st13{clip-path:url(#SVGID_00000068641748301706247920000004773621498003639224_);}
	.st14{fill:#111419;}
	.st15{fill:#61A0A2;}
	.st16{fill:#FFFFFF;stroke:#D7D7CE;stroke-width:0.6995;stroke-linecap:round;stroke-linejoin:round;}
	.st17{fill:none;stroke:#211915;stroke-width:0.7;stroke-linecap:round;}
	.st18{fill:none;stroke:#85B266;stroke-width:0.48;stroke-linecap:round;stroke-miterlimit:10;}
	.st19{fill:#DEA8C3;}
	.st20{fill:#F0DAE9;}
	.st21{fill:none;stroke:#D7D7CE;stroke-width:0.35;stroke-linecap:round;}
	.st22{fill:#945B19;}
	.st23{fill:#BF0811;}
	.st24{fill:none;stroke:#DEA8C3;stroke-width:0.5;stroke-linecap:round;}
</style>
<g>
	<path class="st0" d="M54.6,145.5c-1.5-0.1-3-0.1-4.5,0.1c-30.2,5.2-53.1-9-49.9-9.5c18-2.9,32.4-6.9,30.2-8.2S0,124,5.4,123.3
		c7.2-1,27.9-10.1,25.6-10.8c-2.5-0.7-26.7-1.6-22-3.5c17.3-7,24.1-14.2,21.9-13.4S11.4,98.4,14.5,96C25.2,88.3,34,73.6,34,73.6
		s-10.2,3.1-13.8,4s-1.5-1.2,5.4-7.2c6.5-5.8,12.2-14.2,12.2-14.2c-2.5-0.2-5-0.2-7.5,0c-5.5,0.3-4.9,1,0-4.9s17.7-18.6,15-19.6
		c-2.6-1-15.6,7.2-13.2,4.5C39,28.6,55.6-2.2,56.3-0.1c0.8,2.1,8.1,21.6,13.2,28.5s15,12.7,10.2,12.3c-4.8-0.3-13.3-4.6-13.3-4.6
		s4.5,12.8,7.8,15.9s7,6.5,2.2,6.2S63,53.7,65.3,56.8c2.2,3.1,18.8,15.5,15.7,16s-13.9-2.4-13.9-2.4s9.6,13.9,12.6,16
		s6.7,3.9,3.4,4.5C79.8,91.5,69.5,89,69.5,89s7.8,13.9,18.4,20.3c1.3,0.8-8.9,1-13.7,0s-6.7-2.1-6.3,0c0.4,2.1,18.2,10,25.3,14.5
		c4.9,3.1-21.9-0.8-23.6,0c-1.9,0.9,15.5,14.1,30.9,15.7c4.6,0.5-8.1,4.1-17.3,6.2S54.6,145.5,54.6,145.5"/>
	<path class="st1" d="M45,133.7c-0.1-8,0.6-23.6,0.6-23.6L33.8,98.4l1.6-2c0,0,1.2,0.3,4.4,2.8s7.1,4.9,7.1,4.9s0.2-13.6,0.5-16.8
		c0.4-5.8-1.6-7.6-1.6-7.6s-1.8-1.3-4.2-3.1C39.1,74.7,37,73,37,73l1.9-2.2c1.7,0.8,3.3,1.7,4.9,2.8c1.2,0.7,2.7,0.8,3.9,0.2
		c0,0,0-1.7,0.2-6.7c0.2-4.7,0.9-10.5,0.1-13.1c-0.8-2.5-5.7-10.2-5.7-10.2l1.3-2.4c0.9,0.7,1.8,1.6,2.4,2.5
		c1.2,1.7,4.5,6.1,4.5,6.1s1.4-3.3,3.2-6.7c2.1-4,1-4.6,3.3-4c2.5,0.7,1.8,1,0.6,4.3c-1.3,3.7-1.8,5.1-2.7,7.1
		c-0.7,1.6-0.2,25-0.2,25S54.5,91,55.1,91.2c2.8,1,10.5-0.8,10.5-0.8l-0.1,2.3l-10.8,3.5l-0.2,26.2c0,0,3.7-0.1,5.7-1.1
		s2.3-0.6,2.3-0.6l0.8,2.1c-1.3,1-2.7,1.8-4.3,2.3c-1.4,0.3-3.5,0.9-4.6,1.2l1.3,51.9l-11.8-0.4C44.2,177.7,45.1,141.4,45,133.7"/>
	<g>
		<path class="st2" d="M89.1,117.7c0.1,1.1-0.2,2.2-0.9,3c0.8,1.5,5.7,5,5.7,5s3.4-4.9,3.4-8.9C94.7,116.4,89.1,117.7,89.1,117.7"/>
		<path class="st3" d="M76.3,100.7C73,95.9,63.1,82.2,46.9,71.6C30.8,61.2,17.5,59.3,23,70.1s29.3,23,41,30.3
			C68.8,103.4,78.8,104.3,76.3,100.7"/>
		<g>
			<g>
				<defs>
					<path id="SVGID_1_" d="M22.9,70.1c5.5,10.8,29.3,23,41,30.3c4.8,3,14.9,3.9,12.4,0.3C73,95.9,63.1,82.2,46.9,71.6
						c-8.7-5.6-16.5-8.8-21.1-8.8C21.9,62.8,20.4,65.1,22.9,70.1"/>
				</defs>
				<clipPath id="SVGID_00000069385364302244410680000000609456628332276115_">
					<use xlink:href="#SVGID_1_"  style="overflow:visible;"/>
				</clipPath>
				<g style="clip-path:url(#SVGID_00000069385364302244410680000000609456628332276115_);">
					<path class="st5" d="M71.4,102.3c0,0-6.5-12-15-14.4c-4.9-1.4-10-1.6-15-0.6"/>
					<path class="st5" d="M47.3,76c0.1,1.8,0.3,3.6,0.7,5.4c0.5,1.8,1.2,3.6,2.1,5.3"/>
					<path class="st5" d="M60,89.5c0,0-0.9-5.5-0.4-8.5c0.2-1.5,0.7-2.9,1.4-4.2"/>
					<path class="st5" d="M67.9,96.9c0,0-6.1-1.8-8.4-1.2l-2.4,0.6"/>
					<path class="st5" d="M47.9,80.8c0,0-5.8-3.5-11.8-3.5c-2.1-0.1-4.3,0.2-6.2,1"/>
					<path class="st5" d="M59.7,80.4c-4.3-0.8-8.5-2.3-12.4-4.4c-7.4-4.4-9.9-12.9-9.9-12.9"/>
					<path class="st5" d="M36.4,77.3c0,0-4.3-4.5-4.9-10.7c-0.5-4.3,0-4.3,0-4.3"/>
					<path class="st5" d="M65.6,94.4c0,0,2.1-4.9,3.7-6.1s1.2-0.7,1.2-0.7"/>
				</g>
			</g>
		</g>
		<path class="st6" d="M51.4,127.5c1.6,4.2,2.8,8.4,3.8,12.8c0.1,0.3,4.4-0.9,4.2-0.9"/>
		<path class="st6" d="M66.6,124.1c3.1,8.8,2.7,7.1,3.5,10.4c0.1,0.3,4.4-0.9,4.2-0.9"/>
		<path class="st6" d="M81.2,120c5.3,7.7,4.9,7.2,6.6,10.2c0.2,0.3,4-2.1,3.8-1.9"/>
		<path class="st7" d="M45.7,110.4c7.9-6.9,28.2-11.2,28.2-11.2s9.1-9.9,16.2-10c7.1-0.1,15.6,5.9,19.4,12.4
			c2.2,3.8,0.9,6.4,0.9,8.6c0,3.8,10.3,12,12.6,14.6s-0.5,4.4-2.1,3c-1.6-1.4-11.2-10.1-14.2-12.1c0,0-2.9,2.8-10.1,3.2
			c-3.9,0.2-8.4-1.7-8.4-1.7s-8.8,5.6-25.8,9.1s-23,4.4-24.8-0.3C35.7,121.4,40.2,115.1,45.7,110.4"/>
		<path class="st8" d="M100.7,97.8c3.1,0.2,5.8-2.3,6-5.4c0-0.5,0-1-0.1-1.6c-0.8-3.8-5.7-5.9-9.1-4.5C92.4,88.5,93,97.3,100.7,97.8
			"/>
		<path class="st8" d="M105.1,96.2c1.3-1.5,1.8-3.4,1.5-5.4c-0.8-3.8-5.7-5.9-9.1-4.5c-1.4,0.8-2.5,2-3,3.5"/>
		<path class="st9" d="M105.1,96.2c1.3-1.5,1.8-3.4,1.5-5.4c-0.8-3.8-5.7-5.9-9.1-4.5c-1.4,0.8-2.5,2-3,3.5"/>
		<path class="st8" d="M88.8,97.6c-2.8-1.4-6.2-0.6-7.9,2c-1.8,2.7-1.3,6.4,1.3,8.5c2.9,2.1,6.9,1.6,9.1-1.3
			c0.1-0.1,0.1-0.2,0.2-0.3C93.4,103.4,92,99.2,88.8,97.6"/>
		<path class="st10" d="M100.9,90.8c0,0.4,0.5,0.8,0.9,0.7c0.1,0,0.1,0,0.2,0c0.5-0.1,0.7-0.5,0.7-1c0,0,0,0,0-0.1
			c-0.1-0.5-0.5-0.8-1-0.8l0,0C101.1,89.8,100.8,90.3,100.9,90.8"/>
		<path class="st10" d="M86.9,102.9c0,0.5,0.5,0.8,1,0.8c0.1,0,0.1,0,0.2,0c0.5-0.1,0.8-0.6,0.7-1.2c-0.1-0.5-0.5-0.8-1-0.7
			c0,0,0,0-0.1,0C87.2,101.9,86.8,102.4,86.9,102.9"/>
		<path class="st11" d="M63.4,102.7c0.6,5.2,2.3,10.3,5,14.8c2.5,4,4.4,5.2,4.4,5.2"/>
		<path class="st11" d="M46,112.3c0,0,1.4,6.9,5.6,10.6c1.8,1.6,3.7,2.9,5.8,4.1"/>
		<path class="st11" d="M54.1,106c0.2,4.3,1.7,8.5,4.2,12c2.4,3.5,7.4,6,7.4,6"/>
		<path class="st12" d="M70.7,102.7c-5.3-2.6-19.5-10.8-40.5-14.1c-18.9-3-34.7,4.1-24.7,10.8c10.1,6.7,41.5,7.5,55.2,8
			C66.5,107.7,74.6,104.6,70.7,102.7"/>
		<g>
			<g>
				<defs>
					<path id="SVGID_00000048495001989436934710000006797782643367930546_" d="M5.6,99.5c10.1,6.7,41.5,7.5,55.2,8
						c5.7,0.2,13.8-2.9,9.9-4.8c-5.3-2.6-19.5-10.8-40.5-14.1c-2.9-0.5-5.9-0.7-8.8-0.7C6.9,88-2.9,93.8,5.6,99.5"/>
				</defs>
				<clipPath id="SVGID_00000003814081744189838170000012715798277884703144_">
					<use xlink:href="#SVGID_00000048495001989436934710000006797782643367930546_"  style="overflow:visible;"/>
				</clipPath>
				<g style="clip-path:url(#SVGID_00000003814081744189838170000012715798277884703144_);">
					<path class="st5" d="M68.3,105.4c0,0-11.6-7.2-20.2-5.1c-5,1.2-9.5,3.5-13.4,6.8"/>
					<path class="st5" d="M34.3,94.4c1,1.5,2.1,3,3.3,4.3c1.3,1.4,2.8,2.6,4.4,3.6"/>
					<path class="st5" d="M52,99.9c0,0-3.5-4.4-4.5-7.2c-0.5-1.4-0.8-2.9-0.9-4.4"/>
					<path class="st5" d="M62.5,102.5c0,0-6.1,1.5-7.9,3.1l-1.8,1.6"/>
					<path class="st5" d="M37.2,98.3c0,0-6.8-0.1-12,2.7c-1.9,0.9-3.6,2.3-4.9,4"/>
					<path class="st5" d="M47.3,92.1c-4.2,1.5-8.5,2.3-13,2.3c-8.5-0.2-15.7-7.7-15.7-7.7"/>
					<path class="st5" d="M25.5,100.9c0,0-6-1.8-9.6-6.9c-1.5-2.2-2.6-4.8-3.1-7.4"/>
					<path class="st5" d="M59.3,101.4c0,0-0.6-5.3,0.2-7.2c0.8-1.9,0.7-1.2,0.7-1.2"/>
				</g>
			</g>
		</g>
		<path class="st14" d="M96.1,108.8c0,0,2.7,4.8,7.2,1.9c0,0-1.1,4.8-5.1,3.5C98.1,114.2,95.6,112.9,96.1,108.8"/>
		<path class="st2" d="M81.5,112.4c-1.9,3-2.7,6.5-2.3,10.1c2.5-0.4,4.9-1.2,7.1-2.3l0.5-2.8C86.9,117.2,83.9,113.4,81.5,112.4"/>
		<path class="st15" d="M89.7,119.5c-0.4,1-1.6,1.5-2.6,1.1S85.6,119,86,118c0.3-1,1.3-1.5,2.3-1.3c0.1,0,0.2,0.1,0.3,0.1
			c1,0.3,1.6,1.4,1.2,2.5C89.8,119.4,89.7,119.4,89.7,119.5"/>
	</g>
</g>
<g id="Capa_2_00000082360210376339492310000015660338526527470210_">
	<g id="Capa_1-2">
		<path class="st16" d="M188.4,45.4c0-29.1-24.9-42.1-55.7-42.1S77,16.3,77,45.4c0,24.7,17.8,36.7,41.9,39.8c1.5,4.1,3.5,7.7,6,10.9
			c4.9,5.9,12.4,8.8,12.4,8.8s-5.5-6.1-7.8-12.1c-0.8-2.1-1.3-4.5-1.5-6.8c1.5,0,3.1,0.2,4.8,0.2C163.4,86.2,188.4,74.7,188.4,45.4z
			"/>
	</g>
</g>
<g>
	<g id="Capa_2_00000121969485928544745810000012784102478978840463_">
		<g id="Capa_1-2_00000023998672858301905660000009023136369183410311_">
			<path class="st17" d="M154.7,144.6c0,0-3.2,10.1-3.9,11c-1.3,0-2.7-0.4-3.7-1.2"/>
			<path class="st17" d="M172.3,151.5c0,0,0.8,10.4,0.2,11.4c-1.2,0.4-2.4,0.5-3.6,0.4"/>
			<path class="st17" d="M149.4,137c0,0-9.5,6.6-10.6,6.4s-2-3.2-2-3.2"/>
			<line class="st18" x1="132.1" y1="146.4" x2="145.3" y2="150.4"/>
			<path class="st19" d="M131.3,149c-0.3,0.9-1.2,2.2-2.8,1.7c-0.8-0.2-0.5-2.1,0.3-3.3c0.4-0.6,1.4-1.5,2.1-1.1
				S131.6,148.3,131.3,149"/>
			<path class="st19" d="M130.9,144.2c0,0-2.5-3.6-4.5-2.3c0,0-1.9,1.6,1,3.1c0.9,0.4,1.8,0.5,2.7,0.4
				C130.3,145,130.6,144.6,130.9,144.2"/>
			<path class="st19" d="M130.5,145.3c-1.3-0.3-2.7-0.3-4-0.1c0,0-2.4,0.7-1,2.5c0.6,0.8,2.4,0.6,4.1-0.7c0.3-0.2,1.3-0.7,1.3-0.7
				L130.5,145.3z"/>
			<path class="st19" d="M130.6,144.3c0,0-3-4.7,0.1-4.5c1,0.1,2.5,0.6,1.4,4l-0.5,0.8C131.4,144.3,130.9,144.2,130.6,144.3"/>
			<path class="st19" d="M132.2,146c-0.3,0.6-0.9,0.9-1.5,0.8c0,0,1,4.8,3.1,3.5C136.2,148.9,132.9,146.1,132.2,146"/>
			<path class="st19" d="M131.8,144.2c0,0,0.5-2.8,2.5-2.8c0.8,0,2.8,1.5,0.6,2.8c-0.6,0.4-1.4,0.5-2.6,1.1
				C132.3,145.3,132,144.3,131.8,144.2"/>
			<path class="st19" d="M132.4,145c0,0,3-1.1,3.6,0.2c0.2,0.5-0.3,2.1-2.4,1.6c-0.6,0-1.1-0.2-1.5-0.7
				C132.1,146.1,132.5,145.2,132.4,145"/>
			<path class="st8" d="M132.5,145.4c0,0.9-0.7,1.6-1.5,1.6c-0.1,0-0.1,0-0.2,0c-0.8-0.1-1.4-0.7-1.4-1.5c0-0.9,0.7-1.7,1.6-1.7
				c0.1,0,0.1,0,0.2,0C131.9,143.8,132.5,144.5,132.5,145.4L132.5,145.4"/>
			<path class="st20" d="M154,106.2c0,0,17.4-17.5,42.6-12.3c0,0,3.6,0.9,1.2,3.5s-4.6,5.3-0.1,12c2,1,2.9,3.4,2.1,5.6
				c-1.4,3.8-6.5,2.8-6.3,6.4s1.3,3.9-1.9,7.3c0,0-1.6,0.9-4.5-0.9c-2.8-1.7-21.3-13.9-21.8-14.4L154,106.2z"/>
			<path class="st19" d="M163.4,112.1l1-1.4c0.8,0.6,1.3,1.4,1.6,2.3l-0.4,0.6C165.6,113.5,163.5,112.1,163.4,112.1"/>
			<path class="st8" d="M161.1,110.9l1.5-2.2c0.9,0.3,1.6,1,1.9,1.9l-1.1,1.5C163.4,112.1,161.6,110.8,161.1,110.9"/>
			<path class="st19" d="M158.7,109.4l1.7-2.6c0.9,0.3,1.8,0.9,2.4,1.7l-1.6,2.4C160.4,110.3,159.6,109.8,158.7,109.4"/>
			<path class="st8" d="M155.6,108.2l2-2.9c1.1,0.2,2.1,0.7,2.9,1.4l-1.9,2.8C158.6,109.5,156.2,108.1,155.6,108.2"/>
			<path class="st19" d="M152.6,107.1c0,0,1.6-2.7,3.4-2.5c0.6,0.1,1.2,0.3,1.8,0.5l-2,3C154.7,107.7,153.7,107.4,152.6,107.1"/>
			<path class="st8" d="M141.5,114.8c0,1.9-0.7,4.2-3.6,4.2c-3.1,0-3.6-2-3.6-4s1.6-3.6,3.6-3.6h0.1
				C140,111.4,141.5,112.9,141.5,114.8L141.5,114.8"/>
			<path class="st21" d="M141.5,114.8c0,1.9-0.7,4.2-3.6,4.2c-3.1,0-3.6-2-3.6-4s1.6-3.6,3.6-3.6h0.1
				C140,111.4,141.5,112.9,141.5,114.8L141.5,114.8"/>
			<path class="st10" d="M138,115.8c0,0.3-0.2,0.6-0.5,0.6s-0.6-0.2-0.6-0.5c0,0,0-0.1,0-0.2c0-0.3,0.2-0.6,0.5-0.6s0.6,0.2,0.6,0.5
				C138,115.7,138,115.8,138,115.8"/>
			<line class="st18" x1="138.7" y1="142.7" x2="144" y2="151.5"/>
			<path class="st1" d="M158.7,152.3c6.2,4.6,17.6,4.2,22.2-0.3c7.7-7.6-0.2-20.8-0.2-20.8s-4,7.8-8.3,12.1
				C167.1,148.6,158.7,152.2,158.7,152.3"/>
			<path class="st22" d="M157.7,152.7c0,0,8.2-2.2,16.1-10.4c4.2-4.5,7.1-11.8,7.1-11.8c-0.7-2-1.6-3.8-2.8-5.5
				c-3-4-4.6-5.9-4.6-5.9s-0.8,10.5-6.9,16.2c-4.6,4.3-9.9,7.9-15.6,10.8c1.1,1.4,2.3,2.8,3.6,4.1
				C155.7,151.2,157.7,152.7,157.7,152.7"/>
			<path class="st22" d="M145.2,138.1c0,0,17.7-7.7,21.4-23.9c0,0-12.3-9.5-20.1-7.2c0,0-10.9,1.3-7.6,17.4
				C138.9,124.4,141.4,133,145.2,138.1"/>
			<path class="st1" d="M150.5,146.6c0,0,5.6-1.6,15.6-10.6c7.5-6.7,7.9-16.9,7.9-16.9c-1.2-1.1-2.5-2-3.8-2.9
				c-3.6-2.5-3.6-1.9-3.6-1.9c-1.4,5.5-4.3,10.5-8.4,14.5c-3.9,3.9-8.5,7.1-13.5,9.5c0,0,0.8,1.6,2.8,4.6
				C148.4,144.1,149.4,145.4,150.5,146.6"/>
			<path class="st23" d="M134.6,142.4c0,0-1.9,1.7-1.2,2.6c0.5,0.6,1.1,1.4,3.1-0.2c0.6-0.4,0.8-1.2,0.7-1.9c-0.3-0.3-0.6-0.6-0.8-1
				C135.8,142.3,135.2,142.4,134.6,142.4"/>
			<path class="st23" d="M138.1,137.3c0.2,1.2,0.1,3.4-0.8,3.4s-2.3-1.2-2.5-3.1c-0.1-0.9,0.6-2.1,1.4-2.1
				C137.2,135.5,138,136.3,138.1,137.3L138.1,137.3"/>
			<path class="st23" d="M136.6,140.2c0,0-3.1-2.1-4.3-0.6c-0.5,0.6-1,2.6,1.6,2.9c0.8,0.1,1.7-0.1,2.4-0.5
				C136.4,141.4,136.5,140.8,136.6,140.2"/>
			<path class="st23" d="M137.8,140.2c0,0-0.1-4.3,3-3.7c0.8,0.1,1.6,1.2,0.6,2.8c-0.6,0.9-1.5,1.5-2.6,1.7
				C138.7,141,138.2,140.5,137.8,140.2"/>
			<path class="st23" d="M138.8,140.9c1.2-0.7,2.7-0.5,3.7,0.4c0.6,0.5,0.8,2.7-2.2,2.4c0,0-1.6-0.3-2-1.6
				C138.3,142.2,139,141.2,138.8,140.9"/>
			<path class="st23" d="M138.6,142.3c0,0,2.5,3.4,0.4,4.4c-1,0.4-3.1-0.3-2.1-3.8c0,0,1.1,0,1.4-0.4"/>
			<path class="st19" d="M137.5,139.9c-0.9,0.1-1.7,0.9-1.6,1.8c0,0.9,0.8,1.6,1.7,1.6l0,0c0.8,0,1.5-0.6,1.6-1.4v-0.1
				C139.2,140.7,138.5,139.9,137.5,139.9"/>
			<path class="st14" d="M143.3,126.9c0,0,4.2-1.7,7.4-0.8c0,0-0.3-4.4-4.6-3.9C146.2,122.2,143.5,123.1,143.3,126.9"/>
			<path class="st8" d="M154.4,114.3c0.1,2-1.4,3.8-3.4,3.9c-0.2,0-0.3,0-0.5,0c-1.8,0.1-3.4-1.9-3.4-4s1.5-4,3.3-4.1
				c2.2,0,4,1.8,4,4C154.4,114.2,154.4,114.3,154.4,114.3"/>
			<path class="st10" d="M152.2,114.4c0,0.4-0.2,0.7-0.6,0.7s-0.7-0.2-0.7-0.6c0-0.1,0-0.1,0-0.2c0-0.4,0.2-0.7,0.6-0.7
				s0.7,0.2,0.7,0.6C152.2,114.3,152.2,114.3,152.2,114.4"/>
			<path class="st24" d="M170.5,103.6c4.3-2.4,12.7-3.4,17.9-2.5"/>
			<path class="st24" d="M171.2,109.5c5.1,0.1,10.1,1.4,14.6,3.7"/>
			<path class="st17" d="M178.7,150.5c0,0,2.6,11.7,2,12.7c-1.2,0.6-2.5,0.9-3.8,0.7"/>
			<path class="st17" d="M158.8,149.3c0,0-1.3,11.1-2.1,12s-4.3-0.1-4.3-0.1"/>
			<path class="st17" d="M149.6,140.8c0,0-7.9,8.4-9.1,8.5s-2.7-2.7-2.7-2.7"/>
		</g>
	</g>
</g>
</svg>
