<?xml version="1.0" encoding="utf-8"?>
<!-- Generator: Adobe Illustrator 26.2.1, SVG Export Plug-In . SVG Version: 6.00 Build 0)  -->
<svg version="1.1" id="Capa_1" xmlns="http://www.w3.org/2000/svg" xmlns:xlink="http://www.w3.org/1999/xlink" x="0px" y="0px"
	 viewBox="0 0 148.3 126.1" style="enable-background:new 0 0 148.3 126.1;" xml:space="preserve">
<style type="text/css">
	.st0{fill:none;stroke:#211915;stroke-width:0.7;stroke-linecap:round;}
	.st1{fill:none;stroke:#85B266;stroke-width:0.48;stroke-linecap:round;stroke-miterlimit:10;}
	.st2{fill:#DEA8C3;}
	.st3{fill:#FFFFFF;}
	.st4{fill:#F0DAE9;}
	.st5{fill:none;stroke:#D7D7CE;stroke-width:0.35;stroke-linecap:round;}
	.st6{fill:#211915;}
	.st7{fill:#6F4714;}
	.st8{fill:#945B19;}
	.st9{fill:#BF0811;}
	.st10{fill:#111419;}
	.st11{fill:none;stroke:#DEA8C3;stroke-width:0.5;stroke-linecap:round;}
	.st12{fill:#E0D6B9;}
	.st13{fill:#CDBF9F;}
	.st14{fill:none;stroke:#211915;stroke-width:0.78;stroke-linecap:round;}
	.st15{fill:#504F41;}
	.st16{fill:#9C141B;}
</style>
<g id="Capa_2_00000082360210376339492310000015660338526527470210_">
	<g id="Capa_1-2">
		<path class="st0" d="M99.1,96c0,0-3.2,10.1-3.9,11c-1.4,0-2.7-0.4-3.8-1.2"/>
		<path class="st0" d="M116.7,103c0,0,0.8,10.4,0.2,11.4c-1.2,0.4-2.4,0.5-3.6,0.4"/>
		<path class="st0" d="M93.8,88.4c0,0-9.5,6.6-10.6,6.4s-2.1-3.2-2.1-3.2"/>
		<line class="st1" x1="76.5" y1="97.8" x2="89.7" y2="101.9"/>
		<path class="st2" d="M75.7,100.5c-0.4,0.9-1.2,2.2-2.8,1.7c-0.8-0.2-0.5-2.1,0.3-3.3c0.4-0.6,1.4-1.5,2.1-1.1S76,99.8,75.7,100.5"
			/>
		<path class="st2" d="M75.3,95.6c0,0-2.5-3.6-4.4-2.3c0,0-1.9,1.6,1.1,3.1c0.9,0.4,1.8,0.5,2.7,0.4C74.8,96.4,75.1,96,75.3,95.6"/>
		<path class="st2" d="M74.9,96.8c-1.3-0.3-2.7-0.3-4-0.1c0,0-2.4,0.7-1,2.5c0.6,0.8,2.4,0.6,4.1-0.7c0.4-0.3,0.8-0.5,1.3-0.7
			L74.9,96.8z"/>
		<path class="st2" d="M75,95.7c0,0-3-4.7,0.1-4.5c1,0.1,2.6,0.6,1.4,4L76.1,96C75.8,95.7,75.4,95.6,75,95.7"/>
		<path class="st2" d="M76.6,97.4c-0.3,0.6-0.9,0.9-1.5,0.8c0,0,1,4.8,3.1,3.5C80.6,100.3,77.3,97.5,76.6,97.4"/>
		<path class="st2" d="M76.2,95.7c0,0,0.5-2.8,2.5-2.8c0.8,0,2.8,1.5,0.6,2.8c-0.6,0.4-1.4,0.5-2.6,1.1
			C76.7,96.7,76.4,95.7,76.2,95.7"/>
		<path class="st2" d="M76.8,96.5c0,0,3.1-1.1,3.6,0.2c0.2,0.5-0.3,2.1-2.4,1.6c-0.6,0-1.1-0.2-1.5-0.7
			C76.5,97.5,76.9,96.6,76.8,96.5"/>
		<path class="st3" d="M76.9,96.8c0,0.9-0.7,1.6-1.5,1.6c-0.1,0-0.1,0-0.2,0c-0.8-0.1-1.4-0.7-1.4-1.5c0-0.9,0.7-1.7,1.6-1.7
			c0,0,0.1,0,0.1,0C76.3,95.3,76.9,96,76.9,96.8C76.9,96.8,76.9,96.8,76.9,96.8"/>
		<path class="st4" d="M98.4,57.6c0,0,17.4-17.5,42.6-12.3c0,0,3.6,0.9,1.2,3.5s-4.6,5.3-0.1,12c2,1,2.9,3.4,2.1,5.6
			c-1.4,3.8-6.5,2.8-6.3,6.4s1.3,3.9-1.9,7.3c0,0-1.6,0.9-4.5-0.9s-21.3-13.9-21.7-14.4L98.4,57.6z"/>
		<path class="st2" d="M107.8,63.5l1-1.4c0.8,0.6,1.3,1.4,1.6,2.3L110,65C110,65,107.9,63.6,107.8,63.5"/>
		<path class="st3" d="M105.4,62.3l1.5-2.2c0.9,0.3,1.6,1,1.9,1.9l-1.1,1.5C107.7,63.5,106,62.2,105.4,62.3"/>
		<path class="st2" d="M103.1,60.8l1.7-2.6c0.9,0.3,1.8,0.9,2.4,1.7l-1.6,2.4C104.8,61.7,104,61.2,103.1,60.8"/>
		<path class="st3" d="M100,59.7l2-2.9c1.1,0.2,2.1,0.7,2.9,1.4l-1.9,2.8C103,60.9,100.6,59.5,100,59.7"/>
		<path class="st2" d="M97,58.6c0,0,1.6-2.7,3.4-2.5c0.6,0.1,1.2,0.3,1.8,0.5l-2,3C99.2,59.2,98.1,58.8,97,58.6"/>
		<path class="st3" d="M85.9,66.2c0,1.9-0.7,4.2-3.6,4.2c-3.1,0-3.6-2-3.6-4c0-2,1.6-3.6,3.6-3.6c0,0,0.1,0,0.1,0
			C84.4,62.8,85.9,64.4,85.9,66.2"/>
		<path class="st5" d="M85.9,66.2c0,1.9-0.7,4.2-3.6,4.2c-3.1,0-3.6-2-3.6-4c0-2,1.6-3.6,3.6-3.6c0,0,0.1,0,0.1,0
			C84.4,62.8,85.9,64.4,85.9,66.2"/>
		<path class="st6" d="M82.4,67.3c0,0.3-0.2,0.6-0.5,0.6c0,0,0,0,0,0c-0.3,0-0.6-0.3-0.6-0.6v0c0-0.3,0.2-0.6,0.6-0.6
			C82.2,66.7,82.4,66.9,82.4,67.3"/>
		<line class="st1" x1="83.1" y1="94.1" x2="88.4" y2="103"/>
		<path class="st7" d="M103.1,103.7c6.2,4.6,17.6,4.2,22.2-0.3c7.7-7.6-0.2-20.8-0.2-20.8s-4,7.8-8.3,12.1
			C111.5,100,103.1,103.7,103.1,103.7"/>
		<path class="st8" d="M102.1,104.1c0,0,8.2-2.2,16.1-10.4c4.2-4.5,7.1-11.8,7.1-11.8c-0.7-2-1.6-3.8-2.8-5.5c-3-4-4.6-5.9-4.6-5.9
			s-0.8,10.6-6.9,16.2c-4.7,4.3-9.9,7.9-15.6,10.8c1.1,1.5,2.3,2.8,3.6,4.1C100.1,102.6,102.1,104.1,102.1,104.1"/>
		<path class="st8" d="M89.6,89.6c0,0,17.6-7.7,21.4-23.9c0,0-12.3-9.5-20.1-7.2c0,0-10.9,1.3-7.6,17.4
			C83.3,75.9,85.8,84.4,89.6,89.6"/>
		<path class="st7" d="M94.9,98c0,0,5.6-1.6,15.6-10.6c7.5-6.7,7.9-16.9,7.9-16.9c-1.2-1.1-2.5-2-3.8-2.9c-3.6-2.5-3.6-1.9-3.6-1.9
			c-1.4,5.5-4.3,10.5-8.4,14.5c-3.9,3.9-8.5,7.1-13.4,9.5c0,0,0.8,1.6,2.8,4.6C92.8,95.5,93.8,96.8,94.9,98"/>
		<path class="st9" d="M79,93.8c0,0-1.9,1.7-1.2,2.6c0.5,0.6,1.1,1.4,3.1-0.2c0.6-0.4,0.8-1.2,0.7-1.9c-0.3-0.3-0.6-0.6-0.8-1
			C80.2,93.7,79.6,93.9,79,93.8"/>
		<path class="st9" d="M82.4,88.7c0.2,1.2,0.1,3.4-0.8,3.4s-2.3-1.2-2.5-3.1c-0.1-0.9,0.6-2.1,1.4-2.1
			C81.6,86.9,82.4,87.7,82.4,88.7C82.4,88.7,82.4,88.7,82.4,88.7"/>
		<path class="st9" d="M81.1,91.6c0,0-3.1-2.1-4.3-0.6c-0.5,0.6-1,2.6,1.7,2.9c0.8,0.1,1.7-0.1,2.4-0.5
			C80.8,92.8,80.9,92.2,81.1,91.6"/>
		<path class="st9" d="M82.2,91.6c0,0-0.1-4.3,3-3.7c0.8,0.1,1.6,1.2,0.6,2.8c-0.6,0.9-1.5,1.5-2.6,1.7C83.2,92.4,82.6,92,82.2,91.6
			"/>
		<path class="st9" d="M83.2,92.3c1.2-0.7,2.7-0.5,3.7,0.4c0.6,0.5,0.8,2.7-2.2,2.4c0,0-1.6-0.3-2-1.6
			C82.7,93.6,83.4,92.6,83.2,92.3"/>
		<path class="st9" d="M83,93.7c0,0,2.5,3.4,0.4,4.4c-1,0.4-3.1-0.3-2.1-3.8c0,0,1.1,0,1.4-0.4"/>
		<path class="st2" d="M81.9,91.3c-0.9,0.1-1.7,0.9-1.6,1.8c0,0.9,0.8,1.6,1.7,1.6c0,0,0,0,0,0c0.8,0,1.5-0.6,1.6-1.4
			c0,0,0-0.1,0-0.1C83.6,92.2,82.9,91.4,81.9,91.3"/>
		<path class="st10" d="M95.2,73.7c0,0-4.3,1.7-7.4,0.7c0,0,0.3,4.5,4.5,4C92.3,78.3,95,77.5,95.2,73.7"/>
		<path class="st3" d="M98.8,65.7c0.1,2-1.4,3.8-3.4,3.9c-0.2,0-0.3,0-0.5,0c-1.8,0.1-3.4-1.9-3.4-4s1.5-4,3.3-4.1c2.2,0,4,1.8,4,4
			C98.8,65.6,98.8,65.7,98.8,65.7"/>
		<path class="st6" d="M96.6,65.8c0,0.4-0.3,0.6-0.6,0.6c-0.4,0-0.6-0.3-0.6-0.6c0,0,0,0,0,0c0-0.4,0.3-0.6,0.6-0.6
			C96.4,65.2,96.6,65.5,96.6,65.8C96.6,65.8,96.6,65.8,96.6,65.8"/>
		<path class="st11" d="M114.9,55c4.3-2.4,12.7-3.4,17.9-2.5"/>
		<path class="st11" d="M115.6,60.9c5.1,0.1,10.1,1.4,14.6,3.7"/>
		<path class="st0" d="M123.1,102c0,0,2.6,11.7,2,12.7c-1.2,0.6-2.5,0.9-3.8,0.7"/>
		<path class="st0" d="M103.2,100.8c0,0-1.3,11.1-2.1,12s-4.3-0.1-4.3-0.1"/>
		<path class="st0" d="M94,92.2c0,0-7.9,8.4-9,8.5S82.3,98,82.3,98"/>
		<path class="st12" d="M56,15.2c-1-0.6-2.2-0.8-3.4-0.4c-0.3-4.6-2.3-8.9-5.6-12.1c0,0,0.8-0.5,1.9,0.3C49,3,54.7,6.5,56,15.2"/>
		<path class="st12" d="M46.9,15.9l-2.5,1.7c-2.3-4.4-5.4-8.3-9.1-11.6c0,0,0.5-0.6,1.9,0.2C37.2,6.1,42.5,8.6,46.9,15.9"/>
		<path class="st13" d="M35.9,104.4c-7.2,4.6-19.2,2.7-22.4,0.3c-4.2-3.1-2.6-19.1-2.6-19.1c3.2,3.9,6.6,7.6,10.4,10.9
			C26.2,100.7,35.9,104.4,35.9,104.4"/>
		<path class="st12" d="M36.2,104.5c0,0-5-0.5-15.3-7.8c-4.2-3-7.7-6.9-10.4-11.3c-0.1-2.4,0.1-4.8,0.6-7.1c0.3-1.9,0.9-3.7,1.6-5.5
			c0,0,5.5,9.9,13.5,14.8c6.7,4,13.7,7.3,21,10c-1.5,1.5-3.1,2.9-4.8,4.1C40.4,102.9,38.3,103.8,36.2,104.5"/>
		<path class="st13" d="M47.6,97.8c-8.1-2.6-15.7-6.3-22.7-11c-9.8-6.5-13.1-13.4-13.1-13.4c0.5-1.9,1.3-3.7,2.1-5.5
			c2.4-4,2.3-2.5,2.3-2.5s8.1,8.6,16.5,14.1c9.7,6.3,22,7.8,22,7.8c-1,2.3-2.3,4.5-3.8,6.6C49.9,95.2,48.8,96.6,47.6,97.8"/>
		<path class="st12" d="M54.9,87.5c-8.9-0.9-17.5-4.2-24.8-9.4c-4.9-3.9-9.6-8.1-13.8-12.7l7.3-6.1c4.2,5,9.3,9.2,15,12.4
			c11,6.2,17.3,5.1,17.3,5.1s-0.1,3.3-0.3,5.3S54.9,87.5,54.9,87.5"/>
		<path class="st14" d="M52.1,83.3c0,0,3.5,11.2,4.4,12.2c1.5,0,2.9-0.4,4.1-1.3"/>
		<path class="st14" d="M57.2,57.7c0,0,11.6,1.8,12.9,1.5c0.7-1.3,0.9-2.8,0.7-4.3"/>
		<path class="st14" d="M29.9,46.3c0,0-10-6.3-10.7-7.3c0.3-1.4,1.2-2.7,2.3-3.7"/>
		<path class="st14" d="M35.7,103.3c0,0-0.8,11.5-0.2,12.6c1.2,0.6,4,0.4,4,0.4"/>
		<path class="st14" d="M20.7,102.2c0,0-2.9,13-2.2,14.1c1.3,0.7,2.8,0.9,4.3,0.8"/>
		<path class="st14" d="M35.1,77.8c0,0,1.5,12.3,2.3,13.3s4.7-0.1,4.7-0.1"/>
		<polygon class="st6" points="37.6,35.8 36.4,32.4 37.9,32.6 		"/>
		<polygon class="st6" points="61.9,41.6 59.5,41.6 58.5,45.3 		"/>
		<path class="st13" d="M56.2,77c0,0-6.1,1.2-18.6-5.5c-8.2-4.4-14-12.2-14-12.2l6.8-7.3c0,0,4.4-0.2,14,5.2
			C54.9,62.9,56.9,63,56.9,63L56.2,77z"/>
		<path class="st10" d="M49.4,56.7l-4.5,10.2c-6.1-2.8-11.8-6.2-17.1-10.3c-5.3,3.6-12.4,12.5-19,14.2c0,0,9.6-17.4,19.7-24.6
			c2.1-1.7,3.9-3.6,5.5-5.8C33.9,40.4,46,55.8,49.4,56.7"/>
		<path class="st10" d="M59.5,51.1c0,0-1.1,13.3-1.3,15.9c0,0-3.5,3.4-11.7,0.6l0.8-6.1l1.6-6L59.5,51.1z"/>
		<path class="st13" d="M58.7,45c0,0,8.2-17.4,1.1-27.6c0,0-2.2-3.5-8.9-3.1c-4.3,0.5-8,3.1-10.1,6.8c-2,4.4-3.1,9.2-3.3,14.1
			l11.2,20.6L58.7,45z"/>
		<path class="st15" d="M43.7,59.6c0.1,0.6,0.7,1,1.3,0.9c0.6-0.1,1-0.7,0.9-1.3c-0.1-0.6-0.6-1-1.1-1C44.1,58.4,43.6,59,43.7,59.6"
			/>
		<path class="st3" d="M58.1,25.3c-0.1,2.2,1.6,4.1,3.8,4.2c0.1,0,0.3,0,0.4,0c1.9,0.1,3.6-2.1,3.6-4.4s-1.6-4.4-3.6-4.4
			c-2.4,0-4.3,1.9-4.3,4.2C58.1,25.1,58.1,25.3,58.1,25.3"/>
		<path class="st3" d="M62.7,29.5c1.9,0.1,3.3-2.1,3.3-4.4s-1.8-4.7-4.2-4.4"/>
		<path class="st5" d="M62.7,29.5c1.9,0.1,3.3-2.1,3.3-4.4s-1.8-4.7-4.2-4.4"/>
		<path class="st3" d="M44.7,22.8c0,2.1,0.8,4.5,3.9,4.5c3.3,0,3.9-2.2,3.9-4.4c0-2.2-1.8-3.9-3.9-3.9c0,0-0.1,0-0.1,0
			C46.3,19.1,44.6,20.8,44.7,22.8C44.7,22.8,44.7,22.8,44.7,22.8"/>
		<path class="st10" d="M57.7,32.5c0,0-3.3,5.2-7-0.8c-0.8,2.1-0.1,4.6,1.8,5.9C52.4,37.6,56.7,41.2,57.7,32.5"/>
		<path class="st15" d="M61.9,41.6L48.3,55.9l14.6-6.2C62.9,49.7,62.5,43.2,61.9,41.6"/>
		<path class="st15" d="M36.4,32.4l-4.5,6.1c0,0,13.2,17.4,17.5,18.2c0,0-7.8-16.2-11.9-21.8C37.5,35,37,34,36.4,32.4"/>
		<path class="st16" d="M51.5,43.6h0.2H51.5c0,0,3.5-0.4,4.4-0.1c0,0,0.5,0.2,0.3,0.6c-0.1,1.4-0.7,2.8-1.5,3.9
			c-0.7,1.3-1.1,0.9-1.1,0.9c-0.8-0.4-2.7-3.1-2.7-3.1C51.5,45.6,51.5,43.6,51.5,43.6"/>
		<path class="st16" d="M44.4,45.8c0.1-1.9,0.4-3.7,0.9-5.5c0-0.3,0.3-0.4,0.3-0.4c1.4-0.4,4.1,3.2,4.1,3.2l-0.6-0.2
			c-1.1,2.2,0.5,2.5,0,2.5c-0.9,0.2-1.9,0.5-2.8,0.9C44.6,47,44.4,45.8,44.4,45.8"/>
		<path class="st6" d="M62.6,25.4c0,0.3,0.3,0.6,0.6,0.6c0.3,0,0.6-0.3,0.6-0.6l0,0c0-0.4-0.3-0.7-0.6-0.7
			C62.9,24.7,62.6,25,62.6,25.4"/>
		<path class="st6" d="M49.8,23.9c0,0.4,0.3,0.7,0.7,0.7s0.7-0.3,0.7-0.7s-0.3-0.7-0.7-0.7S49.8,23.6,49.8,23.9"/>
		<path class="st9" d="M51.9,43.8c-0.1-0.9-1-1.5-1.8-1.4c-0.1,0-0.2,0-0.3,0.1c-0.9,0.3-1.4,1.2-1.2,2.1c0.3,0.9,1.2,1.4,2.1,1.2
			c0.1,0,0.2-0.1,0.4-0.2C51.8,45.3,52.1,44.5,51.9,43.8"/>
	</g>
</g>
</svg>
