<?xml version="1.0" encoding="utf-8"?>
<!-- Generator: Adobe Illustrator 26.2.1, SVG Export Plug-In . SVG Version: 6.00 Build 0)  -->
<svg version="1.1" id="Capa_1" xmlns="http://www.w3.org/2000/svg" xmlns:xlink="http://www.w3.org/1999/xlink" x="0px" y="0px"
	 viewBox="0 0 202.6 178.2" style="enable-background:new 0 0 202.6 178.2;" xml:space="preserve">
<style type="text/css">
	.st0{fill:none;stroke:#D7D7CE;stroke-width:0.7574;stroke-linecap:round;stroke-linejoin:round;}
	.st1{fill:none;stroke:#211915;stroke-width:0.7;stroke-linecap:round;}
	.st2{fill:none;stroke:#85B266;stroke-width:0.48;stroke-linecap:round;stroke-miterlimit:10;}
	.st3{fill:#DEA8C3;}
	.st4{fill:#FFFFFF;}
	.st5{fill:#F0DAE9;}
	.st6{fill:none;stroke:#D7D7CE;stroke-width:0.35;stroke-linecap:round;}
	.st7{fill:#211915;}
	.st8{fill:#6F4714;}
	.st9{fill:#945B19;}
	.st10{fill:#BF0811;}
	.st11{fill:#111419;}
	.st12{fill:none;stroke:#DEA8C3;stroke-width:0.5;stroke-linecap:round;}
	.st13{fill:#E0D6B9;}
	.st14{fill:#CDBF9F;}
	.st15{fill:none;stroke:#211915;stroke-width:0.78;stroke-linecap:round;}
	.st16{fill:#504F41;}
	.st17{fill:#9C141B;}
</style>
<g id="Capa_2_00000082360210376339492310000015660338526527470210_">
	<g id="Capa_1-2">
		<path class="st0" d="M198,45.4c0-29.1-29.2-42.1-65.3-42.1s-65.3,13-65.3,42.1c0,24.7,20.9,36.7,49.1,39.8c1.7,4.1,4.1,7.7,7,10.9
			c5.8,5.9,14.5,8.8,14.5,8.8s-6.5-6.1-9.1-12.1c-0.9-2.1-1.5-4.5-1.8-6.8c1.8,0,3.6,0.2,5.6,0.2C168.7,86.2,198,74.7,198,45.4z"/>
		<path class="st1" d="M154.7,144.4c0,0-3.2,10.1-3.9,11c-1.4,0-2.7-0.4-3.8-1.2"/>
		<path class="st1" d="M172.3,151.3c0,0,0.8,10.4,0.2,11.4c-1.2,0.4-2.4,0.5-3.6,0.4"/>
		<path class="st1" d="M149.4,136.8c0,0-9.5,6.6-10.6,6.4s-2.1-3.2-2.1-3.2"/>
		<line class="st2" x1="132.1" y1="146.2" x2="145.3" y2="150.3"/>
		<path class="st3" d="M131.3,148.9c-0.4,0.9-1.2,2.2-2.8,1.7c-0.8-0.2-0.5-2.1,0.3-3.3c0.4-0.6,1.4-1.5,2.1-1.1
			C131.6,146.6,131.6,148.1,131.3,148.9"/>
		<path class="st3" d="M130.9,144c0,0-2.5-3.6-4.4-2.3c0,0-1.9,1.6,1.1,3.1c0.9,0.4,1.8,0.5,2.7,0.4
			C130.4,144.8,130.6,144.4,130.9,144"/>
		<path class="st3" d="M130.5,145.1c-1.3-0.3-2.7-0.3-4-0.1c0,0-2.4,0.7-1,2.5c0.6,0.8,2.4,0.6,4.1-0.7c0.4-0.3,0.8-0.5,1.3-0.7
			L130.5,145.1z"/>
		<path class="st3" d="M130.6,144.1c0,0-3-4.7,0.1-4.5c1,0.1,2.6,0.6,1.4,4l-0.5,0.8C131.3,144.1,130.9,144,130.6,144.1"/>
		<path class="st3" d="M132.2,145.8c-0.3,0.6-0.9,0.9-1.5,0.8c0,0,1,4.8,3.1,3.5C136.2,148.7,132.8,145.9,132.2,145.8"/>
		<path class="st3" d="M131.8,144c0,0,0.5-2.8,2.5-2.8c0.8,0,2.8,1.5,0.6,2.8c-0.6,0.4-1.4,0.5-2.6,1.1
			C132.3,145.1,131.9,144.1,131.8,144"/>
		<path class="st3" d="M132.4,144.9c0,0,3.1-1.1,3.6,0.2c0.2,0.5-0.3,2.1-2.4,1.6c-0.6,0-1.1-0.2-1.5-0.7
			C132.1,145.9,132.5,145,132.4,144.9"/>
		<path class="st4" d="M132.5,145.2c0,0.9-0.7,1.6-1.5,1.6c-0.1,0-0.1,0-0.2,0c-0.8-0.1-1.4-0.7-1.4-1.5c0-0.9,0.7-1.7,1.6-1.7h0.1
			C131.9,143.6,132.5,144.3,132.5,145.2L132.5,145.2"/>
		<path class="st5" d="M154,106c0,0,17.4-17.5,42.6-12.3c0,0,3.6,0.9,1.2,3.5s-4.6,5.3-0.1,12c2,1,2.9,3.4,2.1,5.6
			c-1.4,3.8-6.5,2.8-6.3,6.4s1.3,3.9-1.9,7.3c0,0-1.6,0.9-4.5-0.9s-21.3-13.9-21.7-14.4L154,106z"/>
		<path class="st3" d="M163.4,111.9l1-1.4c0.8,0.6,1.3,1.4,1.6,2.3l-0.4,0.6C165.6,113.3,163.5,111.9,163.4,111.9"/>
		<path class="st4" d="M161,110.7l1.5-2.2c0.9,0.3,1.6,1,1.9,1.9l-1.1,1.5C163.3,111.9,161.5,110.6,161,110.7"/>
		<path class="st3" d="M158.7,109.2l1.7-2.6c0.9,0.3,1.8,0.9,2.4,1.7l-1.6,2.4C160.4,110.1,159.6,109.6,158.7,109.2"/>
		<path class="st4" d="M155.6,108l2-2.9c1.1,0.2,2.1,0.7,2.9,1.4l-1.9,2.8C158.6,109.3,156.2,107.9,155.6,108"/>
		<path class="st3" d="M152.6,106.9c0,0,1.6-2.7,3.4-2.5c0.6,0.1,1.2,0.3,1.8,0.5l-2,3C154.7,107.6,153.7,107.2,152.6,106.9"/>
		<path class="st4" d="M141.5,114.6c0,1.9-0.7,4.2-3.6,4.2c-3.1,0-3.6-2-3.6-4s1.6-3.6,3.6-3.6h0.1
			C140,111.2,141.5,112.8,141.5,114.6"/>
		<path class="st6" d="M141.5,114.6c0,1.9-0.7,4.2-3.6,4.2c-3.1,0-3.6-2-3.6-4s1.6-3.6,3.6-3.6h0.1
			C140,111.2,141.5,112.8,141.5,114.6"/>
		<path class="st7" d="M138,115.6c0,0.3-0.2,0.6-0.5,0.6l0,0c-0.3,0-0.6-0.3-0.6-0.6l0,0c0-0.3,0.2-0.6,0.6-0.6
			C137.8,115,138,115.3,138,115.6"/>
		<line class="st2" x1="138.7" y1="142.5" x2="144" y2="151.3"/>
		<path class="st8" d="M158.7,152.1c6.2,4.6,17.6,4.2,22.2-0.3c7.7-7.6-0.2-20.8-0.2-20.8s-4,7.8-8.3,12.1
			C167,148.4,158.7,152,158.7,152.1"/>
		<path class="st9" d="M157.7,152.5c0,0,8.2-2.2,16.1-10.4c4.2-4.5,7.1-11.8,7.1-11.8c-0.7-2-1.6-3.8-2.8-5.5c-3-4-4.6-5.9-4.6-5.9
			s-0.8,10.6-6.9,16.2c-4.7,4.3-9.9,7.9-15.6,10.8c1.1,1.5,2.3,2.8,3.6,4.1C155.7,151,157.6,152.5,157.7,152.5"/>
		<path class="st9" d="M145.2,137.9c0,0,17.6-7.7,21.4-23.9c0,0-12.3-9.5-20.1-7.2c0,0-10.9,1.3-7.6,17.4
			C138.9,124.2,141.3,132.8,145.2,137.9"/>
		<path class="st8" d="M150.5,146.4c0,0,5.6-1.6,15.6-10.6c7.5-6.7,7.9-16.9,7.9-16.9c-1.2-1.1-2.5-2-3.8-2.9
			c-3.6-2.5-3.6-1.9-3.6-1.9c-1.4,5.5-4.3,10.5-8.4,14.5c-3.9,3.9-8.5,7.1-13.4,9.5c0,0,0.8,1.6,2.8,4.6
			C148.4,143.9,149.4,145.2,150.5,146.4"/>
		<path class="st10" d="M134.6,142.2c0,0-1.9,1.7-1.2,2.6c0.5,0.6,1.1,1.4,3.1-0.2c0.6-0.4,0.8-1.2,0.7-1.9c-0.3-0.3-0.6-0.6-0.8-1
			C135.8,142.1,135.2,142.3,134.6,142.2"/>
		<path class="st10" d="M138,137.1c0.2,1.2,0.1,3.4-0.8,3.4s-2.3-1.2-2.5-3.1c-0.1-0.9,0.6-2.1,1.4-2.1
			C137.1,135.3,138,136.1,138,137.1L138,137.1"/>
		<path class="st10" d="M136.6,140c0,0-3.1-2.1-4.3-0.6c-0.5,0.6-1,2.6,1.7,2.9c0.8,0.1,1.7-0.1,2.4-0.5
			C136.3,141.2,136.4,140.6,136.6,140"/>
		<path class="st10" d="M137.7,140c0,0-0.1-4.3,3-3.7c0.8,0.1,1.6,1.2,0.6,2.8c-0.6,0.9-1.5,1.5-2.6,1.7
			C138.7,140.8,138.2,140.4,137.7,140"/>
		<path class="st10" d="M138.8,140.7c1.2-0.7,2.7-0.5,3.7,0.4c0.6,0.5,0.8,2.7-2.2,2.4c0,0-1.6-0.3-2-1.6
			C138.2,142,139,141,138.8,140.7"/>
		<path class="st10" d="M138.6,142.1c0,0,2.5,3.4,0.4,4.4c-1,0.4-3.1-0.3-2.1-3.8c0,0,1.1,0,1.4-0.4"/>
		<path class="st3" d="M137.5,139.7c-0.9,0.1-1.7,0.9-1.6,1.8c0,0.9,0.8,1.6,1.7,1.6l0,0c0.8,0,1.5-0.6,1.6-1.4v-0.1
			C139.2,140.5,138.5,139.8,137.5,139.7"/>
		<path class="st11" d="M143.3,126.7c0,0,4.2-1.7,7.4-0.8c0,0-0.3-4.4-4.6-3.9C146.1,122,143.4,122.9,143.3,126.7"/>
		<path class="st4" d="M154.4,114.1c0.1,2-1.4,3.8-3.4,3.9c-0.2,0-0.3,0-0.5,0c-1.8,0.1-3.4-1.9-3.4-4s1.5-4,3.3-4.1
			c2.2,0,4,1.8,4,4C154.4,114,154.4,114.1,154.4,114.1"/>
		<path class="st7" d="M152.2,114.2c0,0.4-0.3,0.6-0.6,0.6c-0.4,0-0.6-0.3-0.6-0.6l0,0c0-0.4,0.3-0.6,0.6-0.6
			S152.2,113.9,152.2,114.2L152.2,114.2"/>
		<path class="st12" d="M170.4,103.4c4.3-2.4,12.7-3.4,17.9-2.5"/>
		<path class="st12" d="M171.2,109.3c5.1,0.1,10.1,1.4,14.6,3.7"/>
		<path class="st1" d="M178.6,150.4c0,0,2.6,11.7,2,12.7c-1.2,0.6-2.5,0.9-3.8,0.7"/>
		<path class="st1" d="M158.8,149.1c0,0-1.3,11.1-2.1,12c-0.8,0.9-4.3-0.1-4.3-0.1"/>
		<path class="st1" d="M149.6,140.6c0,0-7.9,8.4-9,8.5c-1.1,0.1-2.7-2.7-2.7-2.7"/>
		<path class="st13" d="M62.4,63.6c-1-0.6-2.2-0.8-3.4-0.4c-0.3-4.6-2.3-8.9-5.6-12.1c0,0,0.8-0.5,1.9,0.3
			C55.3,51.4,61,54.8,62.4,63.6"/>
		<path class="st13" d="M53.2,64.3L50.7,66c-2.3-4.4-5.4-8.3-9.1-11.6c0,0,0.5-0.6,1.9,0.2C43.5,54.5,48.8,57,53.2,64.3"/>
		<path class="st14" d="M42.2,152.7c-7.2,4.6-19.2,2.7-22.4,0.3c-4.2-3.1-2.6-19.1-2.6-19.1c3.2,3.9,6.6,7.6,10.4,10.9
			C32.5,149.1,42.2,152.7,42.2,152.7"/>
		<path class="st13" d="M42.5,152.9c0,0-5-0.5-15.3-7.8c-4.2-3-7.7-6.9-10.4-11.3c-0.1-2.4,0.1-4.8,0.6-7.1c0.3-1.9,0.9-3.7,1.6-5.5
			c0,0,5.5,9.9,13.5,14.8c6.7,4,13.7,7.3,21,10c-1.5,1.5-3.1,2.9-4.8,4.1C46.7,151.2,44.6,152.2,42.5,152.9"/>
		<path class="st14" d="M53.9,146.2c-8.1-2.6-15.7-6.3-22.7-11c-9.8-6.5-13.1-13.4-13.1-13.4c0.5-1.9,1.3-3.7,2.1-5.5
			c2.4-4,2.3-2.5,2.3-2.5s8.1,8.6,16.5,14.1c9.7,6.3,22,7.8,22,7.8c-1,2.3-2.3,4.5-3.8,6.6C56.2,143.6,55.1,145,53.9,146.2"/>
		<path class="st13" d="M61.2,135.9c-8.9-0.9-17.5-4.2-24.8-9.4c-4.9-3.9-9.6-8.1-13.8-12.7l7.3-6.1c4.2,5,9.3,9.2,15,12.4
			c11,6.2,17.3,5.1,17.3,5.1s-0.1,3.3-0.3,5.3S61.2,135.9,61.2,135.9"/>
		<path class="st15" d="M58.4,131.7c0,0,3.5,11.2,4.4,12.2c1.5,0,2.9-0.4,4.1-1.3"/>
		<path class="st15" d="M63.5,106.1c0,0,11.6,1.8,12.9,1.5c0.7-1.3,0.9-2.8,0.7-4.3"/>
		<path class="st15" d="M36.2,94.7c0,0-10-6.3-10.7-7.3c0.3-1.4,1.2-2.7,2.3-3.7"/>
		<path class="st15" d="M42,151.6c0,0-0.8,11.5-0.2,12.6c1.2,0.6,4,0.4,4,0.4"/>
		<path class="st15" d="M27,150.5c0,0-2.9,13-2.2,14.1c1.3,0.7,2.8,0.9,4.3,0.8"/>
		<path class="st15" d="M41.5,126.2c0,0,1.5,12.3,2.3,13.3s4.7-0.1,4.7-0.1"/>
		<polygon class="st7" points="44,84.1 42.8,80.8 44.2,81 		"/>
		<polygon class="st7" points="68.3,90 65.8,90 64.8,93.6 		"/>
		<path class="st14" d="M62.5,125.4c0,0-6.1,1.2-18.6-5.5c-8.2-4.4-14-12.2-14-12.2l6.8-7.3c0,0,4.4-0.2,14,5.2
			c10.5,5.9,12.5,5.9,12.5,5.9L62.5,125.4z"/>
		<path class="st11" d="M55.8,105.1l-4.5,10.2c-6.1-2.8-11.8-6.2-17.1-10.3c-5.3,3.6-12.4,12.5-19,14.2c0,0,9.6-17.4,19.7-24.6
			c2.1-1.7,3.9-3.6,5.5-5.8C40.2,88.8,52.3,104.2,55.8,105.1"/>
		<path class="st11" d="M65.9,99.4c0,0-1.1,13.3-1.3,15.9c0,0-3.5,3.4-11.7,0.6l0.8-6.1l1.6-6L65.9,99.4z"/>
		<path class="st14" d="M65.1,93.4c0,0,8.2-17.4,1.1-27.6c0,0-2.2-3.5-8.9-3.1c-4.3,0.5-8,3.1-10.1,6.8c-2,4.4-3.1,9.2-3.3,14.1
			L55,104.1L65.1,93.4z"/>
		<path class="st16" d="M50,108c0.1,0.6,0.7,1,1.3,0.9s1-0.7,0.9-1.3s-0.6-1-1.1-1C50.5,106.8,50,107.4,50,108"/>
		<path class="st4" d="M64.4,73.7c-0.1,2.2,1.6,4.1,3.8,4.2c0.1,0,0.3,0,0.4,0c1.9,0.1,3.6-2.1,3.6-4.4c0-2.3-1.6-4.4-3.6-4.4
			c-2.4,0-4.3,1.9-4.3,4.2C64.4,73.5,64.4,73.6,64.4,73.7"/>
		<path class="st4" d="M69,77.9c1.9,0.1,3.3-2.1,3.3-4.4c0-2.3-1.8-4.7-4.2-4.4"/>
		<path class="st6" d="M69,77.9c1.9,0.1,3.3-2.1,3.3-4.4c0-2.3-1.8-4.7-4.2-4.4"/>
		<path class="st4" d="M51,71.2c0,2.1,0.8,4.5,3.9,4.5c3.3,0,3.9-2.2,3.9-4.4c0-2.2-1.8-3.9-3.9-3.9h-0.1C52.6,67.5,51,69.1,51,71.2
			L51,71.2"/>
		<path class="st11" d="M64,80.9c0,0-3.3,5.2-7-0.8c-0.8,2.1-0.1,4.6,1.8,5.9C58.8,86,63,89.5,64,80.9"/>
		<path class="st16" d="M68.3,90l-13.7,14.3l14.6-6.2C69.2,98.1,68.8,91.6,68.3,90"/>
		<path class="st16" d="M42.8,80.8l-4.5,6.1c0,0,13.2,17.4,17.5,18.2c0,0-7.8-16.2-11.9-21.8C43.9,83.4,43.4,82.4,42.8,80.8"/>
		<path class="st17" d="M57.8,92H58H57.8c0,0,3.5-0.4,4.4-0.1c0,0,0.5,0.2,0.3,0.6c-0.1,1.4-0.7,2.8-1.5,3.9
			c-0.7,1.3-1.1,0.9-1.1,0.9c-0.8-0.4-2.7-3.1-2.7-3.1C57.8,93.9,57.8,92,57.8,92"/>
		<path class="st17" d="M50.8,94.2c0.1-1.9,0.4-3.7,0.9-5.5c0-0.3,0.3-0.4,0.3-0.4c1.4-0.4,4.1,3.2,4.1,3.2l-0.6-0.2
			c-1.1,2.2,0.5,2.5,0,2.5c-0.9,0.2-1.9,0.5-2.8,0.9C50.9,95.4,50.7,94.2,50.8,94.2"/>
		<path class="st7" d="M68.9,73.8c0,0.3,0.3,0.6,0.6,0.6c0.3,0,0.6-0.3,0.6-0.6l0,0c0-0.4-0.3-0.7-0.6-0.7
			C69.2,73.1,68.9,73.4,68.9,73.8"/>
		<path class="st7" d="M56.1,72.3c0,0.4,0.3,0.7,0.7,0.7s0.7-0.3,0.7-0.7s-0.3-0.7-0.7-0.7S56.1,72,56.1,72.3"/>
		<path class="st10" d="M58.2,92.2c-0.1-0.9-1-1.5-1.8-1.4c-0.1,0-0.2,0-0.3,0.1c-0.9,0.2-1.4,1.2-1.1,2.1s1.2,1.4,2.1,1.2
			c0.1,0,0.2-0.1,0.4-0.2C58.1,93.7,58.4,92.9,58.2,92.2"/>
	</g>
</g>
</svg>
