<svg xmlns="http://www.w3.org/2000/svg" viewBox="0 0 86.18 134.05"><defs><style>.cls-1{fill:#2fac66;}.cls-2{fill:#e4d5b8;}.cls-3{fill:#fff;}.cls-11,.cls-13,.cls-4{fill:none;stroke-linecap:round;}.cls-4{stroke:#dad8cc;stroke-width:0.28px;}.cls-5{fill:#1d1d1b;}.cls-6{fill:#0d181c;}.cls-7{fill:#814114;}.cls-8{fill:#00a0a4;}.cls-9{fill:#007572;}.cls-10{fill:#dad8cc;}.cls-11,.cls-13{stroke:#1d1d1b;}.cls-11{stroke-width:0.6px;}.cls-12{fill:#d3c09f;}</style></defs><g id="Capa_2" data-name="Capa 2"><g id="Capa_1-2" data-name="Capa 1"><path class="cls-1" d="M58.93,120.14c3,.2,6.08.44,8.65,2s4.37,4.78,3.27,7.55c-1.37,3.49-6,4.1-9.71,4.15q-28.38.39-56.75.15A6.16,6.16,0,0,1,2,133.61c-1.77-.78-2.38-3.17-1.7-5a8.06,8.06,0,0,1,4.06-4c3.91-2,8.43-2.43,12.82-2.73,13.6-.93,28.17-2.49,41.78-1.79"/><path class="cls-2" d="M68,59.46l-4.89,7.43-2.85-2.07c-2.39.75-1.95,3.42-1.31,5.71l3,2.34a3.31,3.31,0,0,0,4.57-1.05,75.46,75.46,0,0,0,4.12-7.93c1.73-.09,4.07-5.47.24-8.33"/><path class="cls-3" d="M49.33,52.44c4.21,3.4,9.7,9.69,11.89,12.38a33.22,33.22,0,0,1-3.21,7c-2.14-2-5.21-3.93-6.91-7.21-1.46-3.67-2.59-7.94-1.77-12.17"/><path class="cls-4" d="M49.33,52.44c4.21,3.4,9.7,9.69,11.89,12.38a33.22,33.22,0,0,1-3.21,7c-2.14-2-5.21-3.93-6.91-7.21C49.64,60.94,48.51,56.67,49.33,52.44Z"/><path class="cls-3" d="M29.42,53a60.1,60.1,0,0,0-10.71,9.37l3.64,5.43c.28.42.46.52.81.15l8.52-8.77s1.65-3.6-2.26-6.18"/><path class="cls-4" d="M29.42,53a60.1,60.1,0,0,0-10.71,9.37l3.64,5.43c.28.42.46.52.81.15l8.52-8.77S33.33,55.6,29.42,53Z"/><path class="cls-5" d="M49.65,123.66l-.37,4.27a1.1,1.1,0,0,0,1,1.18c2.91.16,10.43.42,10.52-.93.11-1.68-7.59-3.19-7.59-3.19l-.11-1.8a3.82,3.82,0,0,0-3.48.47"/><path class="cls-6" d="M49.65,123.14l-.37,4.67a1.16,1.16,0,0,0,1,1.29c2.91.17,10.52.46,10.52-1,0-2.6-7.59-3.48-7.59-3.48l-.11-2a3.58,3.58,0,0,0-3.48.5"/><path class="cls-6" d="M28.4,121.84A8.72,8.72,0,0,0,26.62,127a1.32,1.32,0,0,0,1.06,1.33c2.9.59,10.76,2,10.25-.58-.22-1-1-1.7-2.83-2.53-.9-.41-2.14-.84-3.25-1.21-.17-1-.33-2-.33-2a3,3,0,0,0-3.12-.14"/><path class="cls-7" d="M35.93,106.78l-2.69,16.59a22.91,22.91,0,0,1-6.62-.14,121,121,0,0,1,.08-16.89s3.94-2,9.23.44"/><path class="cls-7" d="M54.13,107.41l.64,16.45a9.52,9.52,0,0,1-3.11.85l-3.06.42a126.07,126.07,0,0,1-3-17.34,11.86,11.86,0,0,1,8.53-.38"/><path class="cls-8" d="M49.7,49.5l-17,.9-3.41,1.31c1.45,19.48-1.83,41.84-4.43,61.25,12.63,1.31,24.26,1.62,34.19.25A491.1,491.1,0,0,0,49.7,49.5"/><path class="cls-9" d="M50.89,95l.63,13L35.13,108c.06-4.33-.2-8.67.22-13.38,5.91.49,9.32.21,15.54.34"/><path class="cls-3" d="M46.2,51.49A80.53,80.53,0,0,1,49.07,65a1.27,1.27,0,0,1-1,1.38,40.37,40.37,0,0,1-11,.79,2.1,2.1,0,0,1-1.83-1.27c-1.44-3.41-2.23-11.21-2.54-17Z"/><path class="cls-4" d="M46.2,51.49A80.53,80.53,0,0,1,49.07,65a1.27,1.27,0,0,1-1,1.38,40.37,40.37,0,0,1-11,.79,2.1,2.1,0,0,1-1.83-1.27c-1.44-3.41-2.23-11.21-2.54-17Z"/><path class="cls-1" d="M85.59,67.13a31.21,31.21,0,0,1-8.65,3.69,1.2,1.2,0,0,1-1.34-.69C64.72,46.27,73.9,56,67.7,37.85l3.64-1.52C77.41,54.71,77.71,40,86.12,65.71a1.22,1.22,0,0,1-.53,1.42"/><path class="cls-10" d="M66.69,37.39c0,.73.1,2.81,1.36,2.58s.43-2.45.43-2.45c1.06,2.88,2.84,1.5,1.62-.79,1.05,2.62,3.37,1.65,1.65-.85-.88-1.29-5.06-.09-5.06,1.51"/><path class="cls-3" d="M79.76,55l-7,3.31c.8,2,1.95,4.54,3.29,7.74A14.19,14.19,0,0,0,83,62.78Z"/><path class="cls-3" d="M77.19,58.26s4.58,3.71,2,5-2-5-2-5"/><path class="cls-8" d="M77.05,58.26s4.57,3.71,1.94,5-1.94-5-1.94-5"/><path class="cls-2" d="M28.67,78.29S32.5,80,32.09,81s-3.38-.52-3.38-.52,2.61,2.27,2,3.23-3.44-1.91-3.44-1.91,2.43,3.07.8,3.26-3.4-4.39-3.67-5.86c-3.91-2.58-7.21-4.84-8.72-7.13a2.68,2.68,0,0,1-.14-2.67,30.47,30.47,0,0,1,3.92-5.91s2.87,4.31,2.93,4.36l-1.66,2.9c1.46,1.21,4,4.36,5.85,5.52"/><path class="cls-2" d="M68,59.46c.14-1.89.62-3,1.88-5.72.16-.34.94-.29,1.18,0,.6.73.94,2.24-.46,4.65"/><path class="cls-2" d="M26.39,76.39s4.14-1.14,4.61-.1c.82,1.83-2.33,2-2.33,2"/><path class="cls-2" d="M53.38,29.53c0,1.43,3.2,2.58,4.61,2.58A2.58,2.58,0,0,0,58,27c-1.41,0-4.61,1.15-4.61,2.58"/><path class="cls-6" d="M49.32,15.22s3.46,9.83,4.6,8.77-.36-3.45-.36-3.45,3,6.5,3.73,4.52-1.11-4.65-1.11-4.65,2.11,4.21,3.2,2.75c1.81-2.43-5.64-11.27-5.64-11.27Z"/><rect class="cls-8" x="56.4" y="24.56" width="12.68" height="3.15" transform="translate(-2.96 8.75) rotate(-7.79)"/><path class="cls-2" d="M20,30.53l.42,0a54.71,54.71,0,0,1-.53-9.26L35.1,9.42l18.41,3.21S66.84,49.28,45,53c-15.17,2.57-21.23-7.79-23.62-17.34a4.77,4.77,0,0,1-1.4.25,2.68,2.68,0,1,1,0-5.36"/><path class="cls-11" d="M38.56,23.93s6.77,7.86,8.76,11.45c.4.71-.47,1.31-1.29,1.35l-7-.06"/><path class="cls-3" d="M26.2,29.94c1.18,2.29,3.67,3.37,5.56,2.4s2.47-3.62,1.29-5.92-3.66-3.37-5.56-2.4S25,27.64,26.2,29.94"/><path class="cls-5" d="M28.79,28.63a.75.75,0,0,0,1,.41A.75.75,0,0,0,30,28a.75.75,0,0,0-1-.41.75.75,0,0,0-.22,1"/><path class="cls-3" d="M45.52,26.63c1.18,2.3,3.44,3.11,5.33,2.14a4.07,4.07,0,0,0,1.53-5.65c-1.18-2.3-3.67-3.37-5.56-2.4s-2.47,3.61-1.3,5.91"/><path class="cls-5" d="M48.12,25.32a.64.64,0,0,0,.88.37.72.72,0,0,0,.3-1,.67.67,0,1,0-1.18.6"/><path class="cls-11" d="M38.55,41a3.87,3.87,0,0,0-.08.77,3.69,3.69,0,0,0,6,2.85"/><polygon class="cls-12" points="68.81 23.71 74.49 24.6 69.24 26.84 68.81 23.71"/><path class="cls-5" d="M26.41,44.17a.38.38,0,0,0,.38.37.36.36,0,0,0,.37-.37.37.37,0,0,0-.37-.39.38.38,0,0,0-.38.39"/><path class="cls-5" d="M28,41.8a.38.38,0,0,0,.37.37.38.38,0,1,0,0-.75.38.38,0,0,0-.37.38"/><path class="cls-5" d="M51.57,41.42a.38.38,0,0,0,.37.38.38.38,0,0,0,.38-.38.37.37,0,0,0-.38-.38.38.38,0,0,0-.37.38"/><path class="cls-5" d="M55.46,42.18a.38.38,0,0,0,.38.37.38.38,0,1,0,0-.75.38.38,0,0,0-.38.38"/><path class="cls-5" d="M30.67,44.54a.38.38,0,0,0,.38.37.38.38,0,1,0,0-.75.39.39,0,0,0-.38.38"/><path class="cls-5" d="M28.37,47.1a.38.38,0,0,0,.38.37.38.38,0,1,0,0-.75.38.38,0,0,0-.38.38"/><path class="cls-5" d="M31.05,47.48a.38.38,0,0,0,.38.37.38.38,0,0,0,0-.75.38.38,0,0,0-.38.38"/><path class="cls-5" d="M34,49.89a.38.38,0,0,0,.37.37.37.37,0,0,0,.38-.37.38.38,0,0,0-.38-.39.38.38,0,0,0-.37.39"/><path class="cls-5" d="M34.41,46.73a.38.38,0,0,0,.38.37.36.36,0,0,0,.37-.37.37.37,0,0,0-.37-.39.38.38,0,0,0-.38.39"/><path class="cls-5" d="M36.5,49.51a.38.38,0,0,0,.38.37.38.38,0,0,0,0-.75.38.38,0,0,0-.38.38"/><path class="cls-5" d="M40.32,48.9a.38.38,0,0,0,.37.37.38.38,0,1,0,0-.75.38.38,0,0,0-.37.38"/><path class="cls-5" d="M42.24,51.23a.38.38,0,0,0,.37.37.38.38,0,1,0,0-.75.38.38,0,0,0-.37.38"/><path class="cls-5" d="M43,48.15a.38.38,0,0,0,.37.37.38.38,0,1,0,0-.75.38.38,0,0,0-.37.38"/><path class="cls-5" d="M53.14,44.17a.38.38,0,0,0,.37.37.37.37,0,0,0,.38-.37.38.38,0,0,0-.38-.39.38.38,0,0,0-.37.39"/><path class="cls-5" d="M37.56,47.1a.38.38,0,0,0,.37.37.38.38,0,1,0,0-.75.38.38,0,0,0-.37.38"/><path class="cls-5" d="M45.91,49.13a.38.38,0,0,0,.37.37.38.38,0,1,0,0-.75.38.38,0,0,0-.37.38"/><path class="cls-5" d="M45.15,51.61a.38.38,0,0,0,.38.37.37.37,0,0,0,.38-.37.38.38,0,0,0-.38-.39.39.39,0,0,0-.38.39"/><path class="cls-5" d="M49.06,48.9a.38.38,0,0,0,.38.37.38.38,0,1,0,0-.75.38.38,0,0,0-.38.38"/><path class="cls-5" d="M47.71,46.35a.38.38,0,0,0,.37.37.38.38,0,1,0,0-.75.38.38,0,0,0-.37.38"/><path class="cls-5" d="M52.7,47.48a.38.38,0,0,0,.37.37.38.38,0,1,0,0-.75.38.38,0,0,0-.37.38"/><path class="cls-5" d="M50.2,46a.38.38,0,0,0,.38.37.38.38,0,0,0,0-.75.38.38,0,0,0-.38.38"/><path class="cls-5" d="M37.93,52.06a.39.39,0,0,0,.38.38.38.38,0,0,0,.38-.38.37.37,0,0,0-.38-.38.38.38,0,0,0-.38.38"/><path class="cls-6" d="M54.54,12.26A203.94,203.94,0,0,1,17.3,22S7.08,10.22,31.92,2.77C57.72-5,54.54,12.26,54.54,12.26"/><polygon class="cls-8" points="71.53 24.14 74.49 24.6 71.73 25.77 71.53 24.14"/><path class="cls-6" d="M18.45,19.78s-3.24,9-2,9.17,1.66-2.55,1.66-2.55-1.7,6.51-.18,5.73,1.85-3.88,1.85-3.88-1,6.23.48,6.06c2.43-.26,2-15,2-15Z"/><path class="cls-13" d="M31.34,4.1S28.07,1,27.3.5"/></g></g></svg>