<svg xmlns="http://www.w3.org/2000/svg" xmlns:xlink="http://www.w3.org/1999/xlink" viewBox="0 0 127.26 125.04"><defs><style>.cls-1,.cls-13,.cls-8{fill:none;}.cls-2{fill:#2fac66;}.cls-3{fill:#dad8cc;}.cls-4{fill:#f39200;}.cls-5{clip-path:url(#clip-path);}.cls-6{fill:#fcc700;}.cls-7{clip-path:url(#clip-path-2);}.cls-8{stroke:#dad8cc;stroke-width:0.28px;}.cls-13,.cls-8{stroke-linecap:round;}.cls-9{fill:#1d1d1b;}.cls-10{fill:#0d181c;}.cls-11{fill:#f3a5c2;}.cls-12{fill:#fff;}.cls-13{stroke:#1d1d1b;stroke-width:0.6px;}.cls-14{fill:#e30613;}.cls-15{clip-path:url(#clip-path-3);}.cls-16{clip-path:url(#clip-path-4);}.cls-17{clip-path:url(#clip-path-5);}.cls-18,.cls-20{fill:#b780b1;}.cls-18,.cls-19{fill-rule:evenodd;}.cls-19{fill:#9c6297;}.cls-21{clip-path:url(#clip-path-6);}.cls-22{clip-path:url(#clip-path-7);}.cls-23{clip-path:url(#clip-path-8);}.cls-24{clip-path:url(#clip-path-9);}.cls-25{clip-path:url(#clip-path-10);}</style><clipPath id="clip-path"><path class="cls-1" d="M85.58,0C85.17,0,91,7.28,93.14,12.24c1.4,3.18,2.58,6,2.58,6l4.6-.52a60,60,0,0,0-5-9.19A30.86,30.86,0,0,0,85.58,0Z"/></clipPath><clipPath id="clip-path-2"><path class="cls-1" d="M75.18,4.48c-.43.06,6.75,6,9.91,10.42,2,2.83,3.77,5.39,3.77,5.39l4.39-1.45a59.78,59.78,0,0,0-6.74-8A31.09,31.09,0,0,0,75.2,4.48h0"/></clipPath><clipPath id="clip-path-3"><path class="cls-1" d="M47.66,1c-.44,0-6.61,3.42-10.26,8.11a59.67,59.67,0,0,0-5.44,9l4.58.76s1.33-2.82,2.9-5.95C41.88,8.05,48.08,1,47.66,1"/></clipPath><clipPath id="clip-path-4"><path class="cls-1" d="M18.05,12.93c1.57,3.13,2.89,5.95,2.89,5.95l4.6-.76a60.16,60.16,0,0,0-5.45-9C16.44,4.45,10.27,1,9.83,1s5.77,7,8.22,11.9"/></clipPath><clipPath id="clip-path-5"><path class="cls-1" d="M21.34,18.47c-3.55,3-5,8.16-4.39,14.24s3.42,21.78,12.36,20.68S38,43.63,39.71,38.8c2.12-5.85.17-18.56-3.08-21-1.53-1.13-4.21-1.73-7-1.73-3.14,0-6.41.76-8.3,2.37"/></clipPath><clipPath id="clip-path-6"><path class="cls-1" d="M62.61,76.5a21.56,21.56,0,0,1-5.77-1.62l-.18,2.88S55.69,88.58,55,93a150.92,150.92,0,0,0-1.45,17.52l5.6.27.72-1.86a38.57,38.57,0,0,0,4.11.35,38,38,0,0,0,5.3-.56l.72,2.08h5.27c-.14-3.38,0-7.66-2-21.22-.86-5.89-1.57-14.71-1.57-14.71s-6.61,1.81-9.11,1.62"/></clipPath><clipPath id="clip-path-7"><path class="cls-1" d="M72,81a9.29,9.29,0,0,1,3.39,5.84c.16,1.48-2,6-2,6l3,1.77s3.27-5.5,1.6-10.29c-1.44-4.16-5.89-7.9-5.89-7.9Z"/></clipPath><clipPath id="clip-path-8"><path class="cls-1" d="M50.86,84.18c-1.72,4.77,1.48,10.3,1.48,10.3l3.08-1.73s-2.1-4.51-1.93-6A8.93,8.93,0,0,1,57.14,81L56,76.9a20,20,0,0,0-5.11,7.28"/></clipPath><clipPath id="clip-path-9"><path class="cls-1" d="M69,38.92h0c-.41.14-4,1.62-6.06,7a15,15,0,0,0-.81,4.46l3.86.39a14.68,14.68,0,0,1,0-4.12c.76-4.22,3.3-7.75,3-7.75"/></clipPath><clipPath id="clip-path-10"><path class="cls-1" d="M46.89,42.75c-.44,0,2.92,2.71,5.75,6.85a26.41,26.41,0,0,1,1.75,3.34l3.51-1.77a29.07,29.07,0,0,0-2.57-3.47c-3.77-4.33-8-5-8.44-5Z"/></clipPath></defs><g id="Capa_2" data-name="Capa 2"><g id="Capa_1-2" data-name="Capa 1"><path class="cls-2" d="M126.08,81.65l-75.64-1c-9.77-.13-19.74-.22-29,2.79S3.44,93.2.73,102.59c-1.44,5-.88,10.88,2.83,14.47,2.54,2.45,6.11,3.46,9.54,4.26a147.05,147.05,0,0,0,89.41-7.59c6.29-2.64,12.52-5.8,17.33-10.64s8.07-11.62,7.32-18.4"/><path class="cls-3" d="M95.66,16.8a17.85,17.85,0,0,0-8-5.4c-5.67-2.05-9.85.4-9.52,1.15s3.55,3.29,6.13,4.34,7.81,2.59,11.41,2.6c2.59,0,.65-1.88,0-2.69"/><path class="cls-4" d="M95.36,8.58A30.86,30.86,0,0,0,85.58,0C85.15,0,91,7.27,93.14,12.24c1.4,3.19,2.58,6,2.58,6l4.6-.52a60,60,0,0,0-5-9.19"/><g class="cls-5"><path class="cls-6" d="M100,14.2s-1.69.55-3.52,1.05a21.37,21.37,0,0,1-2.29.54L92.72,13.2a52.18,52.18,0,0,1,5.21-1.74C99.9,11,100,14.2,100,14.2"/><path class="cls-6" d="M96.65,8.36S95,9.09,93.26,9.77a21,21,0,0,1-2.21.78L89.29,8.17a51.77,51.77,0,0,1,5-2.27c1.91-.67,2.38,2.46,2.38,2.46"/><path class="cls-6" d="M92.64,3.11S91.12,4,89.46,4.94a21.88,21.88,0,0,1-2.1,1l-2-2.13A51.4,51.4,0,0,1,90,1c1.8-.9,2.68,2.14,2.68,2.14"/></g><path class="cls-4" d="M86.51,10.86A31,31,0,0,0,75.18,4.48c-.43.07,6.75,6,9.92,10.42,2,2.83,3.76,5.39,3.76,5.39l4.39-1.45a58.93,58.93,0,0,0-6.74-8"/><g class="cls-7"><path class="cls-6" d="M92.22,15.41s-1.54.89-3.23,1.75a20.83,20.83,0,0,1-2.13,1l-2-2.23a50.62,50.62,0,0,1,4.74-2.78c1.83-.86,2.6,2.26,2.6,2.26"/><path class="cls-6" d="M87.73,10.38s-1.44,1-3,2.08a19.41,19.41,0,0,1-2,1.22l-2.2-2A51.08,51.08,0,0,1,84.9,8.46c1.72-1,2.83,1.92,2.83,1.92"/><path class="cls-6" d="M82.72,6.07S81.43,7.29,80,8.51A19.35,19.35,0,0,1,78.15,10L75.71,8.31a52.62,52.62,0,0,1,4-3.78c1.58-1.25,3.06,1.54,3.06,1.54"/></g><path class="cls-8" d="M106.07,14.42a2.76,2.76,0,0,0-2.88,2.31c-.38,2.37.69,3.09,1.68,3.46s4.11-.09,4-2.69C108.85,15.22,107.42,14.42,106.07,14.42Z"/><path class="cls-9" d="M107.14,17.62a.49.49,0,0,1,.36-.66.47.47,0,0,1,.61.39.5.5,0,0,1-.39.61.49.49,0,0,1-.58-.34"/><path class="cls-3" d="M103.71,79.1s-.07,5,0,6.88,0,3.1,0,3.1-2.25.07-2.86,0l-.61-.07s0-2.8,0-4.59,0-5.32,0-5.32Z"/><path class="cls-3" d="M86.87,77.54s-.08,6.55,0,8.44,0,3.1,0,3.1-2.26.07-2.86,0L83.4,89s0-2.79,0-4.59,0-6.88,0-6.88Z"/><path class="cls-10" d="M103.78,89s1,4.64.23,4.73-2.05-3-2.05-3-.39,3-1,2.71-1.16-3.69-.84-4.47a24.81,24.81,0,0,0,3.63,0"/><path class="cls-10" d="M83.38,89s-1,4.64-.23,4.73,2-3,2-3,.38,3,1,2.71,1.13-3.69.82-4.47a18.65,18.65,0,0,1-3.55,0"/><path class="cls-3" d="M86.3,22.46c1.6-2,5.24-4.94,8.86-5.1,10-.47,20.89,3.34,25.67,7.16,6.38,5.1,4.83,12.38,1.15,15.22s-8,3.39-8.74,6.13-1,4-1,4S111.82,45.15,111,44s-5.93-2.34-7.7-1.91-1.37,1.91.48,11.82a115.64,115.64,0,0,1,1.47,14.65c-.1,3.47-10.77,3.37-10.77,3.37L82.07,68.58s.28-5.93,1.2-15.09c.77-7.6.88-11.33,1.06-13.31.36-3.9-1-6.76-.89-10.08a13.39,13.39,0,0,1,2.86-7.64"/><path class="cls-11" d="M85.51,24.69a26,26,0,0,1-9.64.39c-2.94-.57-8.58-1.53-7.57-2.48s9.63-3.76,13.46-3a16.12,16.12,0,0,1,5.85,2.25Z"/><path class="cls-3" d="M85.56,42.79s-8.34,3.6-10.23,6.12c-2.9,3.87,2.15,10.2,2.15,10.2l2.69-2.2S77.39,53.44,77.9,52s7.19-5.26,7.19-5.26Z"/><path class="cls-3" d="M101.73,45.25s6.64,8.68,8.42,11.66a23,23,0,0,1,2.44,6l-3.07,1.35s-1.5-3.69-2.85-6.1-3.47-5.74-3.47-5.74Z"/><path class="cls-10" d="M112.59,62.65s1.68,4.79,1.13,4.72-2.25-2.82-2.25-2.82.07,3.53-.54,3.45-1.71-4.36-1.71-4.36Z"/><path class="cls-10" d="M77.48,59.11s2.31,4.42,2.85,3.85-.64-3.07-.64-3.07,2.48,2,3,1.36-2.5-4.34-2.5-4.34Z"/><path class="cls-12" d="M100.1,22.09c.47,1.68.17,4.36-2.62,4.79-3.25.5-4.17-1.58-4.4-2.79a3.72,3.72,0,0,1,2.83-4.46,3.57,3.57,0,0,1,4.19,2.46"/><path class="cls-9" d="M98.76,23.44a.55.55,0,0,1-.41.74.53.53,0,0,1-.68-.43.57.57,0,0,1,.44-.69.55.55,0,0,1,.65.38"/><path class="cls-13" d="M120.8,31.57A15.85,15.85,0,0,1,121,36.7c-.33,1.74-.66,3.52-1.38,4.34"/><path class="cls-9" d="M102.73,34.39s4.81,3.44,3.57,3.89c-4.57,1.68-3.57-3.89-3.57-3.89"/><path class="cls-3" d="M88.15,20.58A24.72,24.72,0,0,0,78.09,18.2c-7.81.05-10.33,4.78-9.91,4.62A30.13,30.13,0,0,1,78.91,21,35.11,35.11,0,0,1,87.15,23Z"/><path class="cls-11" d="M120.69,31.91c-1.33.17-4.3-1.67-5.08-2.82-.62-.91.63-2.88,3.73-3s3,1.54,2.85,2.8c-.11,1.45-.66,2.88-1.5,3"/><path class="cls-12" d="M87,62.65c0,8.29,3.4,12.82,7,12.82s6.53-3.79,6.33-12.07c-.26-10.21-2.77-17.94-6.33-17.94-5.14,0-7,8.9-7,17.19"/><path class="cls-14" d="M105.26,65.55s0,6.63,0,8.93c-.06,2.51-.22,5.38-.22,5.38h-2.51c-1.48,0-4.75-.37-4.75-.37l-.39-4.31a20.07,20.07,0,0,1-4,.28c-3.74-.14-3.74-.35-3.74-.35l-1,3.79a37.2,37.2,0,0,1-3.77,0c-1.86-.11-3.09.08-3.18-.62s.39-12.74.39-12.74,8.63.64,12.23.53,11-.53,11-.53"/><path class="cls-4" d="M37.4,9.14C41.05,4.45,47.22,1,47.66,1s-5.78,7-8.22,11.9c-1.57,3.13-2.9,5.95-2.9,5.95L32,18.12a59.67,59.67,0,0,1,5.44-9"/><g class="cls-15"><path class="cls-6" d="M32.44,14.55s1.67.65,3.49,1.23a19.37,19.37,0,0,0,2.27.66l1.62-2.52a49.35,49.35,0,0,0-5.15-2c-2-.57-2.23,2.64-2.23,2.64"/><path class="cls-6" d="M36.12,8.85s1.59.82,3.33,1.59a19.42,19.42,0,0,0,2.18.9L43.51,9a51.24,51.24,0,0,0-4.88-2.53c-1.88-.77-2.51,2.34-2.51,2.34"/><path class="cls-6" d="M40.41,3.79s1.48,1,3.1,2A21.4,21.4,0,0,0,45.56,7l2.16-2a51.07,51.07,0,0,0-4.51-3.13c-1.77-1-2.8,2-2.8,2"/></g><path class="cls-4" d="M20.09,9.14C16.44,4.45,10.27,1,9.83,1s5.78,7,8.22,11.9c1.57,3.13,2.89,5.95,2.89,5.95l4.6-.76a60.16,60.16,0,0,0-5.45-9"/><g class="cls-16"><path class="cls-6" d="M25.05,14.55s-1.67.65-3.49,1.23a19.37,19.37,0,0,1-2.27.66l-1.62-2.52a49.35,49.35,0,0,1,5.15-2c1.95-.57,2.23,2.64,2.23,2.64"/><path class="cls-6" d="M21.37,8.85s-1.59.82-3.33,1.59-2.18.9-2.18.9L14,9a51.24,51.24,0,0,1,4.88-2.53c1.88-.77,2.51,2.34,2.51,2.34"/><path class="cls-6" d="M17.08,3.79s-1.48,1-3.1,2A21.4,21.4,0,0,1,11.93,7l-2.17-2a51.82,51.82,0,0,1,4.52-3.13c1.76-1,2.8,2,2.8,2"/></g><path class="cls-3" d="M20.27,42.51s-1.73,16.77-1.73,20.42-.28,8.4,0,9.07,21.5.65,21.5.65S37.52,47,37.25,41.84a118.93,118.93,0,0,0-17,.67"/><path class="cls-12" d="M35.51,62.48c0,8.33-3.42,12.89-7,12.89s-6.58-3.81-6.37-12.14c.26-10.26,2.78-18,6.37-18,5.16,0,7,9,7,17.29"/><path class="cls-11" d="M3.52,27.67s5.9.62,9.57-1.33c4.67-2.48,8-5.1,8.14-5.65s-2.81-2-6.14-1.1S3.52,27.67,3.52,27.67"/><path class="cls-11" d="M51.46,29.61a15.94,15.94,0,0,1-9.64-2.36c-4.38-2.95-6.41-5.84-6.59-6.39s5.88,1.14,9.22,2,7,6.75,7,6.75"/><path class="cls-3" d="M46.36,20.63a10.72,10.72,0,0,1,5.27,7.86c.24,1.9-.39,1.39-1.18.61s-2.39-3.94-5.93-5.58A17.18,17.18,0,0,0,38.61,22l-2-2.69a13.82,13.82,0,0,1,9.71,1.31"/><path class="cls-3" d="M17,32.71c.65,6.09,3.41,21.78,12.35,20.68S38,43.63,39.71,38.8c2.12-5.85.17-18.56-3.08-21s-11.73-2.39-15.29.64-5,8.16-4.38,14.24"/><g class="cls-17"><path class="cls-12" d="M41.77,36.6a1.56,1.56,0,0,1-1.52,1.58,1.38,1.38,0,0,1-1.54-1.34,1.54,1.54,0,0,1,1.54-1.53c.85,0,1.52.44,1.52,1.29"/><path class="cls-12" d="M19.93,37.33A1.72,1.72,0,0,1,18.09,39a1.73,1.73,0,0,1-1.84-1.69,1.84,1.84,0,0,1,3.68,0"/><path class="cls-12" d="M37.7,35.18c0,.58-.28,1-.86,1a1.22,1.22,0,0,1-1.25-1,1.06,1.06,0,0,1,2.11,0"/></g><path class="cls-3" d="M20.09,81.11s.08,5,0,6.92,0,3.11,0,3.11,2.27.08,2.88,0l.61-.07s0-2.81,0-4.61,0-5.35,0-5.35Z"/><path class="cls-3" d="M36,79.54s.08,6.59,0,8.49,0,3.11,0,3.11,2.27.08,2.88,0l.61-.07s0-2.81,0-4.61,0-6.92,0-6.92Z"/><path class="cls-10" d="M20,91.05s-1,4.67-.23,4.76,2.06-3,2.06-3,.4,3,1,2.71,1.17-3.7.85-4.49a25.08,25.08,0,0,1-3.65,0"/><path class="cls-10" d="M39.49,91.05s1,4.67.22,4.76-2-3-2-3-.39,3-1,2.71-1.14-3.7-.82-4.49a18,18,0,0,0,3.57,0"/><path class="cls-3" d="M36.05,43.56s8.39,3.61,10.29,6.15C49.25,53.6,44.18,60,44.18,60l-2.71-2.22s2.79-3.49,2.29-5-7.24-5.28-7.24-5.28Z"/><path class="cls-10" d="M44.18,60s-2.33,4.43-2.88,3.86.65-3.08.65-3.08-2.49,2-3,1.36,2.52-4.36,2.52-4.36Z"/><path class="cls-3" d="M21.47,43.56s-8.38,3.61-10.28,6.14C8.27,53.6,13.35,60,13.35,60l2.71-2.22s-2.8-3.49-2.29-5S21,47.48,21,47.48Z"/><path class="cls-10" d="M13.35,60s2.32,4.43,2.87,3.86-.65-3.08-.65-3.08,2.49,2,3,1.36S16,57.75,16,57.75Z"/><path class="cls-12" d="M32.23,26.58c-.37,1.63,0,4.18,2.64,4.45,3,.31,3.78-1.73,3.94-2.91A3.52,3.52,0,0,0,36,24a3.34,3.34,0,0,0-3.77,2.57"/><path class="cls-9" d="M36,26.74a.57.57,0,1,0,1.09.31.58.58,0,0,0-.44-.69.55.55,0,0,0-.65.38"/><path class="cls-12" d="M18.43,27.17c-.44,1.61-.2,4.17,2.29,4.56A3.16,3.16,0,0,0,24.66,29a3.5,3.5,0,0,0-2.48-4.24c-2.11-.55-3.47,1.38-3.75,2.41"/><path class="cls-9" d="M22.09,27.54a.55.55,0,0,0,.41.74.52.52,0,0,0,.68-.44.58.58,0,0,0-.44-.69.56.56,0,0,0-.65.39"/><path class="cls-18" d="M33.33,16.51c1,1.66,4.05,4,4.29,3.71A16.62,16.62,0,0,0,40,13.93a10.56,10.56,0,0,0-6.33.55,10.29,10.29,0,0,0-4.64-4.27c-1.17,2.5-1.91,5.86-1.69,6.71,0,0,4.24.95,5.95-.41"/><path class="cls-19" d="M32.69,17.56c-1.22-.2-1.07-1.51-.65-2.74s.76-1.79,2-1.42,1.19,1.2.78,2.43-.82,2-2.17,1.73"/><path class="cls-20" d="M18.11,67.47s-2.37,6.65-3,9.19-1.87,5-1.55,5.62,13,1.08,19.14.32,13.14-2.32,12.71-3.06-.92-2.51-2.36-5.79-3.59-7.52-3.59-7.52A43.72,43.72,0,0,1,30,68.11a46,46,0,0,1-11.87-.64"/><path class="cls-13" d="M28.74,49.51a8.64,8.64,0,0,0,.24,2.3,9.3,9.3,0,0,0,.74,1.43"/><path class="cls-13" d="M34.56,51A2.22,2.22,0,0,0,35,49.38a2.11,2.11,0,0,0-.47-1.08"/><path class="cls-3" d="M22.29,20.12s-4.81-3.5-10.1-2.56c-3.6.64-6.62,3.68-7.92,6.2s-1.56,4-.83,3.95c1-.38,4.26-3.67,7.91-5.35a30.33,30.33,0,0,1,10.94-2.24"/><path class="cls-11" d="M28.74,49.66c.53,0,1.55-1.06,2.47-2.1s1.66-2.11.15-3a6,6,0,0,0-5.45,0c-1.27.81-.57,1.87-.07,2.42.81.92,2.32,2.72,2.9,2.72"/><path class="cls-3" d="M70.74,107.81l.83,9.48a20.85,20.85,0,0,0,2.85,0c0-.13-.77-9.48-.77-9.48Z"/><path class="cls-3" d="M57.34,107.71l-.69,9.45a20.78,20.78,0,0,1-2.83-.24c0-.13.78-9.34.78-9.34Z"/><path class="cls-14" d="M56.66,77.76S55.69,88.58,55,93a150.68,150.68,0,0,0-1.45,17.51l5.6.27.72-1.86a38.57,38.57,0,0,0,4.11.35,38,38,0,0,0,5.3-.56l.72,2.08h5.27c-.14-3.38,0-7.66-2-21.22-.87-5.89-1.58-14.71-1.58-14.71s-6.61,1.81-9.11,1.62a21.56,21.56,0,0,1-5.77-1.62Z"/><g class="cls-21"><path class="cls-12" d="M75.52,103.33s-3.34,2.19-11.82,2.3a41.49,41.49,0,0,1-11.33-1.73l.32-4.32s6.55,1.89,11.47,1.69a37.64,37.64,0,0,0,10.64-2Z"/><path class="cls-12" d="M53.59,95.4a29.71,29.71,0,0,0,10.75,1.7c6.9-.4,10.12-2.16,10.12-2.16L73.89,91a35.51,35.51,0,0,1-10.08,1.6c-6.59.19-9.41-1.4-10.22-1.43Z"/><path class="cls-12" d="M53.51,86.43a25.9,25.9,0,0,0,9.89,2c6.91-.08,10.27-1.7,10.27-1.7l-.37-4a20.29,20.29,0,0,1-9.57,1.85c-6.59-.13-9.23-1.89-10-2,0,1.13-.18,3.79-.18,3.79"/></g><path class="cls-14" d="M72.17,76.4s4.45,3.74,5.89,7.9c1.67,4.79-1.6,10.29-1.6,10.29l-3-1.77s2.15-4.49,2-6A9.29,9.29,0,0,0,72,81Z"/><g class="cls-22"><polygon class="cls-12" points="72.95 84.67 78.61 77.49 77.41 76.65 71.84 84.01 72.95 84.67"/><polygon class="cls-12" points="74.42 86.79 81.64 81.19 80.69 80.09 73.51 85.89 74.42 86.79"/><polygon class="cls-12" points="74 88.45 83.14 88.42 83.06 86.97 73.83 87.18 74 88.45"/><polygon class="cls-12" points="71.94 89.81 80.09 93.94 80.67 92.61 72.36 88.6 71.94 89.81"/></g><path class="cls-10" d="M76.46,94.59s-1.77,4.06-2.32,3.56.13-2.57.13-2.57-2,1.67-2.46,1.12,1.72-3.81,1.72-3.81Z"/><path class="cls-14" d="M56,76.9a20,20,0,0,0-5.11,7.28c-1.72,4.77,1.48,10.3,1.48,10.3l3.08-1.73s-2.1-4.51-1.93-6A8.93,8.93,0,0,1,57.14,81Z"/><g class="cls-23"><polygon class="cls-12" points="55.97 84.61 50.4 77.36 51.6 76.54 57.08 83.97 55.97 84.61"/><polygon class="cls-12" points="54.47 86.72 47.32 81.02 48.29 79.94 55.4 85.82 54.47 86.72"/><polygon class="cls-12" points="54.87 88.38 45.73 88.23 45.84 86.78 55.06 87.11 54.87 88.38"/><polygon class="cls-12" points="56.92 89.77 48.71 93.79 48.15 92.46 56.51 88.55 56.92 89.77"/></g><path class="cls-10" d="M52.54,94.36s1.3,4.17,1.89,3.73,0-2.63,0-2.63,1.8,1.94,2.37,1.45-1.43-4.16-1.43-4.16Z"/><path class="cls-4" d="M62.94,45.94c2.07-5.39,5.65-6.87,6.06-7s-2.22,3.44-3,7.74a14.68,14.68,0,0,0,0,4.12l-3.86-.39a15,15,0,0,1,.81-4.46"/><g class="cls-24"><path class="cls-6" d="M62,47.7s1.46.24,3,.42a15.87,15.87,0,0,0,2,.16l.77-2.17a41.89,41.89,0,0,0-4.5-.77C61.51,45.2,62,47.7,62,47.7"/><path class="cls-6" d="M63.71,42.78s1.44.38,3,.72a16.89,16.89,0,0,0,1.93.35l1-2s-2.75-.9-4.4-1.21-1.52,2.18-1.52,2.18"/></g><path class="cls-4" d="M55.33,47.7c-3.79-4.35-8-5-8.44-5s2.92,2.71,5.75,6.85a26.41,26.41,0,0,1,1.75,3.34l3.51-1.77a29.07,29.07,0,0,0-2.57-3.47"/><g class="cls-25"><path class="cls-6" d="M56.86,48.48s-1.29.73-2.7,1.43a15.58,15.58,0,0,1-1.77.82L50.92,49a45,45,0,0,1,4-2.28c1.53-.7,2,1.8,2,1.8"/><path class="cls-6" d="M53.51,44.46s-1.21.85-2.54,1.7a18.43,18.43,0,0,1-1.68,1l-1.67-1.56a43.18,43.18,0,0,1,3.72-2.65c1.44-.85,2.17,1.52,2.17,1.52"/></g><path class="cls-11" d="M84.83,52.7s-5,2.92-8.91,3c-5,.09-8.53-.27-8.93-.64s1.43-2.9,4.57-3.73S84.83,52.7,84.83,52.7"/><path class="cls-3" d="M65.86,55.06a13.77,13.77,0,0,1,7.1-6,10.5,10.5,0,0,1,9,1.08c2.23,1.49,3.62,2.21,3,2.5-1,.13-5.2-1.08-9-.79a28.57,28.57,0,0,0-10.06,3.16"/><path class="cls-11" d="M37.5,58.1A15,15,0,0,0,46.68,60c4.94-.74,7.84-2.4,8.21-2.79s-5.48-1.4-8.68-2S37.5,58.1,37.5,58.1"/><path class="cls-3" d="M45.73,52.74a10.5,10.5,0,0,0-7.93,4.34c-1,1.53-.2,1.12.79.76s3.6-2.16,7.29-2.13a16.19,16.19,0,0,1,5.66,1.1l2.77-1.51a12.63,12.63,0,0,0-8.58-2.56"/><path class="cls-3" d="M73.71,63.33c.4,5.77.41,20.82-8.09,21.28S55.31,77.14,52.89,72.93C50,67.84,48.59,56.3,53,52.72c3-2.43,10.52-4.16,14.33-1.92s6,6.76,6.42,12.53"/><path class="cls-12" d="M58.49,60.13c.61,1.46.66,3.9-1.72,4.58-2.77.79-3.81-1-4.15-2.06a3.33,3.33,0,0,1,1.94-4.29,3.16,3.16,0,0,1,3.93,1.77"/><path class="cls-9" d="M58.23,60.84a.51.51,0,0,1-.26.76.5.5,0,0,1-.7-.3.53.53,0,0,1,.29-.71.52.52,0,0,1,.67.25"/><path class="cls-12" d="M71.43,58.41c.68,1.42.87,3.85-1.38,4.62a3,3,0,0,1-4.12-1.89,3.31,3.31,0,0,1,1.61-4.35c1.88-.87,3.46.71,3.89,1.62"/><path class="cls-9" d="M71.29,59.11a.52.52,0,0,1-.25.76.5.5,0,0,1-.71-.29.54.54,0,0,1,.29-.72.52.52,0,0,1,.67.25"/><path class="cls-13" d="M65.51,80.9a8.35,8.35,0,0,1,.16,2.18,9.15,9.15,0,0,1-.45,1.45"/><path class="cls-11" d="M65.54,81c-.5.09-1.62-.73-2.65-1.55s-1.89-1.69-.64-2.8a5.7,5.7,0,0,1,5.07-.9c1.32.55.84,1.65.47,2.24-.61,1-1.72,2.92-2.25,3"/><path class="cls-10" d="M74.49,116.43s.82,3.9.19,4S73,117.91,73,117.91s-.33,2.51-.82,2.27-1-3.1-.7-3.75a21.28,21.28,0,0,0,3,0"/><path class="cls-10" d="M53.77,116.43s-.8,3.81-.19,3.88,1.65-2.43,1.65-2.43.32,2.45.78,2.21.93-3,.67-3.66a15.32,15.32,0,0,1-2.91,0"/></g></g></svg>