<?xml version="1.0" encoding="utf-8"?>
<!-- Generator: Adobe Illustrator 26.2.1, SVG Export Plug-In . SVG Version: 6.00 Build 0)  -->
<svg version="1.1" id="Capa_1" xmlns="http://www.w3.org/2000/svg" xmlns:xlink="http://www.w3.org/1999/xlink" x="0px" y="0px"
	 viewBox="0 0 130.3 135.6" style="enable-background:new 0 0 130.3 135.6;" xml:space="preserve">
<style type="text/css">
	.st0{fill:#2FAC66;}
	.st1{fill:#DAD8CC;}
	.st2{fill:none;stroke:#DAD8CC;stroke-width:0.31;stroke-linecap:round;stroke-linejoin:round;}
	.st3{fill-rule:evenodd;clip-rule:evenodd;fill:#FFFFFF;}
	.st4{fill:none;stroke:#DAD8CC;stroke-width:0.28;stroke-linecap:round;}
	.st5{fill:#A4A092;}
	.st6{fill:#0D181C;}
	.st7{fill:#FFFFFF;}
	.st8{fill:#1D1D1B;}
	.st9{fill:none;stroke:#1D1D1B;stroke-width:0.6;stroke-linecap:round;stroke-linejoin:round;}
	.st10{fill-rule:evenodd;clip-rule:evenodd;fill:#E30613;}
	.st11{fill-rule:evenodd;clip-rule:evenodd;fill:#A4A092;}
	.st12{fill-rule:evenodd;clip-rule:evenodd;fill:#DAD8CC;}
	.st13{fill:none;stroke:#DAD8CC;stroke-width:0.28;stroke-linecap:round;stroke-linejoin:round;}
	.st14{fill:#B4B0A4;}
	.st15{fill:url(#SVGID_1_);}
	.st16{fill:url(#SVGID_00000027592501746872020790000012579044176407912635_);}
	.st17{fill:#E30613;}
</style>
<g id="Capa_2_00000016050796822841817180000016920847014532608419_">
	<g id="Capa_1-2">
		<path class="st0" d="M96.4,120.9l-53-2.6c-6.6-0.3-13.4-0.6-19.7,1.4c-2.5,0.8-5.2,2.2-5.9,4.7c-1,3.2,1.5,6.4,4.4,8.1
			c4.8,2.8,10.6,2.9,16.2,2.9l22.1,0.1c11,0.1,22.1,0.1,32.8-2.3c2.3-0.4,4.6-1.3,6.5-2.7c1.8-1.5,3-4,2.4-6.2
			S98.7,121.1,96.4,120.9"/>
		<path class="st1" d="M116.6,35c0,0-12.3,4.1-14.6,4.6c-4.8,1.2-9.7,1.9-14.7,2c-3.7,0.1-4.2-1.7-5.4,0.8s-3,9.6-3,9.6
			S59.8,44,59.6,42.7s-3.2-14.7-1-17.9s9-10.7,9.6-11S79,12.2,79,12.2s12.7,6.6,39.3,10.8C119.1,23.2,116.7,35,116.6,35"/>
		<path class="st2" d="M116.6,35c-16.3,5.5-24.4,7.4-30.9,6.8c-2.9-0.3-3-0.8-3.8,0.6c-1.4,2.4-3,9.6-3,9.6"/>
		<path class="st3" d="M100.5,40c0,0-2.6,0.7-5.5,1.3c-2.1,0.4-4.3,0.5-6.5,0.3c0,0-2.9-0.4-5.3-0.5c-2.2,0-4.4-0.6-6.3-1.7l1.4,6.7
			l2.4-5.2l1.8,6.3l2.6-5c0,0,2.4,5.3,2.5,5s1-3.6,1.4-5l2.5,4.5l1-4.7l3.3,4.4l0.9-5.5c0,0,4,4.3,3.9,3.9S100.5,40,100.5,40"/>
		<path class="st4" d="M100.5,40c0,0-2.6,0.7-5.5,1.3c-2.1,0.4-4.3,0.5-6.5,0.3c0,0-2.9-0.4-5.3-0.5c-2.2,0-4.4-0.6-6.3-1.7l1.4,6.7
			l2.4-5.2l1.8,6.3l2.6-5c0,0,2.4,5.3,2.5,5s1-3.6,1.4-5l2.5,4.5l1-4.7l3.3,4.4l0.9-5.5c0,0,4,4.3,3.9,3.9S100.5,40,100.5,40z"/>
		<path class="st5" d="M78.5,11.8c6.6,2.6,17.1,5.9,21,7c4.4,1.2,15.6,2.7,15.6,2.7l2.2,3.2c-6.8-0.6-13.5-1.7-20.2-3.1
			c-8.9-1.9-17.5-5.4-21.4-4.7c-13.8,2.4-4,20.2-11.1,26.4C53.4,9.6,79.3,11.8,78.5,11.8"/>
		<path class="st6" d="M130.3,25.1c0-1.9-16.5-3.7-16.5-3.7s1.5,5.1,2.2,8.1c1.2,4.8,0.8,5.7,0.8,5.7S130.3,29.2,130.3,25.1"/>
		<path class="st7" d="M72.4,23.4c-0.6-2.4,0.9-6,3.3-5.6c1.7,0.1,2.1,0.9,3.5,0.3c1.2,0.5,1.6,0.9,1.9,1.7c0.9,2.2,0.6,6-2.9,6.9
			c-2.4,0.7-4.9-0.6-5.6-3C72.5,23.7,72.5,23.5,72.4,23.4"/>
		<path class="st8" d="M76.8,21.3c0.2,0.4,0.1,0.8-0.3,1.1c0,0-0.1,0.1-0.1,0.1c-0.4,0.2-0.8,0-1-0.3c0,0,0-0.1,0-0.1
			c-0.2-0.4,0-0.9,0.5-1.1C76.1,20.8,76.6,20.9,76.8,21.3"/>
		<path class="st9" d="M81.4,18c-2.3,0.4-4.6,0.3-6.9-0.2c-1.5-0.3-2.9-0.9-4.2-1.8"/>
		<path class="st7" d="M85.3,80.2c0.2,0.5,0.4,0.9,0.6,1.4c0,0.6-0.1,1.2-0.4,1.7c0.7-0.3,1.2-1,1.3-1.8c0-0.5-0.2-1-0.4-1.4
			L85.3,80.2z"/>
		<path class="st4" d="M85.3,80.2c0.2,0.5,0.4,0.9,0.6,1.4c0,0.6-0.1,1.2-0.4,1.7c0.7-0.3,1.2-1,1.3-1.8c0-0.5-0.2-1-0.4-1.4
			L85.3,80.2z"/>
		<path class="st7" d="M81.7,80.2c0.1,0.5,0.1,1,0.1,1.5c-0.1,0.6-0.4,1.1-0.8,1.5c0.8-0.1,1.4-0.6,1.8-1.3c0.1-0.5,0.1-1,0-1.5
			L81.7,80.2z"/>
		<path class="st4" d="M81.7,80.2c0.1,0.5,0.1,1,0.1,1.5c-0.1,0.6-0.4,1.1-0.8,1.5c0.8-0.1,1.4-0.6,1.8-1.3c0.1-0.5,0.1-1,0-1.5
			L81.7,80.2z"/>
		<path class="st7" d="M89,76.8c0.3,0.6,0.5,1.4,0.3,2.1c-0.2,0.6-0.6,1.1-1,1.5c0.1-0.6,0.2-1.2,0.2-1.8c-0.1-0.4-0.4-0.9-0.7-1.2
			L89,76.8z"/>
		<path class="st4" d="M89,76.8c0.3,0.6,0.5,1.4,0.3,2.1c-0.2,0.6-0.6,1.1-1,1.5c0.1-0.6,0.2-1.2,0.2-1.8c-0.1-0.4-0.4-0.9-0.7-1.2
			L89,76.8z"/>
		<path class="st7" d="M87.6,71.9c0.2,0.5,0.4,0.9,0.6,1.4c0,0.6-0.1,1.2-0.4,1.7c0.7-0.3,1.2-1,1.3-1.8c0-0.5-0.2-1-0.4-1.4
			L87.6,71.9z"/>
		<path class="st4" d="M87.6,71.9c0.2,0.5,0.4,0.9,0.6,1.4c0,0.6-0.1,1.2-0.4,1.7c0.7-0.3,1.2-1,1.3-1.8c0-0.5-0.2-1-0.4-1.4
			L87.6,71.9z"/>
		<path class="st7" d="M91.2,68.5c0.3,0.6,0.5,1.4,0.4,2.1c-0.2,0.6-0.6,1.1-1,1.5c0.1-0.6,0.2-1.2,0.2-1.8
			c-0.2-0.5-0.4-0.9-0.7-1.3L91.2,68.5z"/>
		<path class="st4" d="M91.2,68.5c0.3,0.6,0.5,1.4,0.4,2.1c-0.2,0.6-0.6,1.1-1,1.5c0.1-0.6,0.2-1.2,0.2-1.8
			c-0.2-0.5-0.4-0.9-0.7-1.3L91.2,68.5z"/>
		<path class="st10" d="M77.8,52.5c0,0,1.7,4,2.9,6.5s6,4.7,6,4.7s0.6-4.9-1.9-6.8C82.6,55.2,80.2,53.7,77.8,52.5"/>
		<path class="st11" d="M43.9,97.8C43,96.9,41,98.5,41,98.5c-4,2.4-8.2,4.4-12.7,5.7c-3.4,0.7-6.9,1-10.4,0.8
			c-4-0.1-4.8,0.3-4.8,0.3l1,0.7c0,0-2.4,0.4-4.6,0.8c-1.3,0.3-2.6,0.7-3.8,1.3l2.6,0.7c-1.7,0.3-3.3,0.7-4.9,1.3
			c-1.3,0.5-2.5,1.3-3.5,2.3c0,0,9,4,18.4,2.5c17.2-2.8,20.4-8.5,24.6-13.2C43.3,101.4,45,98.9,43.9,97.8"/>
		<path class="st12" d="M38.3,106.9c0,0-5.8,2.1-8.7,3.1c-8.5,2.7-17.4,4-26.4,3.6c0,0,6.2,2.8,15.8,1.7
			C31.7,113.8,38.3,106.9,38.3,106.9"/>
		<path class="st13" d="M3.2,113.6c0,0,6.2,2.8,15.8,1.7c12.7-1.5,19.3-8.4,19.3-8.4"/>
		<path class="st5" d="M62.4,47.9c1.2-0.8,4-1.2,4.8,3.5s1.6,9.6,4,10.7c3.4,1.5,13,1,15.2,1.5c2.8,0.7,5.8,3.5,4.8,4.9
			S88.5,68,88.5,68s1.8,2.9,0.2,3.7s-2.6-1.6-2.6-1.6s0,2.4-1.4,2.3s-2.3-3.4-2.3-3.4s-14.8,1-17.5-2.6c-2.5-3.4-3.5-8-4-11.1
			S60.6,49.1,62.4,47.9"/>
		<path class="st7" d="M83.9,72c0.1,0.5,0.1,1,0.1,1.5c-0.2,0.5-0.4,1.1-0.8,1.5c0.8-0.1,1.4-0.6,1.8-1.3c0.1-0.5,0.1-1,0-1.5
			L83.9,72z"/>
		<path class="st2" d="M83.9,72c0.1,0.5,0.1,1,0.1,1.5c-0.2,0.5-0.4,1.1-0.8,1.5c0.8-0.1,1.4-0.6,1.8-1.3c0.1-0.5,0.1-1,0-1.5
			L83.9,72z"/>
		<path class="st5" d="M50.1,44.8c0,0-0.9,5.6-3,7.8c-1.2,1.3-2.4,2.7-3.3,4.2l3.5-1c-1.9,1.2-3.5,2.9-4.7,4.9
			C42,61.8,41.4,63,41,64.2l2.3-1.4c-1.8,2.2-3.4,4.6-4.7,7.1c-1.9,3.9,0.2,1.2,0.2,1.2s-2,6.8-2.8,11.3c0.8-1.3,1.6-2.5,2.6-3.6
			c-0.9,3.1-1.6,6.3-2,9.6c0.6-1.2,1.4-2.2,2.4-3.1c0.1,3.3,0.5,6.6,1.1,9.8c1.2,6,3.3,9.2,5.2,10.7s22.7,2.7,25.7,0
			c6.4-6,5-37.7,4.8-42.9c-0.1-3.2,0.8-6.4,2.7-9L50.1,44.8z"/>
		<path class="st5" d="M60.7,13.9c0,0-7.5-5.8-10.5-7.2s-7-0.9-6.3,0c5.3,6.5,8.6,15.6,8.6,15.6L60.7,13.9z"/>
		<path class="st5" d="M74.5,10.3c0,0-5.6-7.1-7.8-8.8s-4-1.8-3.8-1.2s1.1,5,1.3,6.6s0.7,4.7,0.7,4.7L74.5,10.3z"/>
		<path class="st14" d="M61.6,54.7c1.3-0.7,4-0.9,4.5,3.8s0.9,9.7,3.3,11c3.3,1.7,12.9,1.8,15.1,2.5c2.7,0.8,5.5,3.8,4.5,5.2
			s-2.7-0.7-2.7-0.7s1.6,3,0,3.8s-2.5-1.8-2.5-1.8s-0.1,2.4-1.6,2.2s-2.1-3.5-2.1-3.5s-14.8,0.1-17.3-3.7c-2.3-3.6-2.9-8.2-3.3-11.3
			S59.6,55.8,61.6,54.7"/>
		<path class="st7" d="M73.5,126.2c-0.3,0.4-0.6,0.9-1,1.2c-0.5,0.3-1,0.5-1.5,0.6c0.6,0.4,1.5,0.5,2.2,0.2c0.4-0.3,0.8-0.7,1-1.1
			L73.5,126.2z"/>
		<path class="st2" d="M73.5,126.2c-0.3,0.4-0.6,0.9-1,1.2c-0.5,0.3-1,0.5-1.5,0.6c0.6,0.4,1.5,0.5,2.2,0.2c0.4-0.3,0.8-0.7,1-1.1
			L73.5,126.2z"/>
		<path class="st7" d="M71.7,123c-0.5,0.2-1,0.3-1.5,0.3c-0.6-0.1-1.1-0.3-1.6-0.6c0.2,0.7,0.8,1.3,1.5,1.6c0.5,0.1,1,0,1.5-0.2
			L71.7,123z"/>
		<path class="st2" d="M71.7,123c-0.5,0.2-1,0.3-1.5,0.3c-0.6-0.1-1.1-0.3-1.6-0.6c0.2,0.7,0.8,1.3,1.5,1.6c0.5,0.1,1,0,1.5-0.2
			L71.7,123z"/>
		<path class="st7" d="M78.1,128c0,0-0.5,1.4-1.2,1.7c-0.6,0.2-1.2,0.3-1.8,0.3c0.5-0.3,1-0.7,1.4-1.2c0.2-0.4,0.3-0.9,0.4-1.4
			L78.1,128z"/>
		<path class="st2" d="M78.1,128c0,0-0.5,1.4-1.2,1.7c-0.6,0.2-1.2,0.3-1.8,0.3c0.5-0.3,1-0.7,1.4-1.2c0.2-0.4,0.3-0.9,0.4-1.4
			L78.1,128z"/>
		<path class="st7" d="M54.6,128c0.5-0.2,1-0.3,1.5-0.3c0.6,0.1,1.1,0.3,1.6,0.6c-0.2-0.7-0.8-1.3-1.5-1.6c-0.5-0.1-1,0-1.5,0.2
			L54.6,128z"/>
		<path class="st2" d="M54.6,128c0.5-0.2,1-0.3,1.5-0.3c0.6,0.1,1.1,0.3,1.6,0.6c-0.2-0.7-0.8-1.3-1.5-1.6c-0.5-0.1-1,0-1.5,0.2
			L54.6,128z"/>
		<path class="st7" d="M52.2,130.8c0.5,0.1,1,0.3,1.4,0.6c0.4,0.4,0.8,0.9,1,1.4c0.2-0.7,0.1-1.5-0.4-2.2c-0.4-0.3-0.9-0.6-1.4-0.7
			L52.2,130.8z"/>
		<path class="st2" d="M52.2,130.8c0.5,0.1,1,0.3,1.4,0.6c0.4,0.4,0.8,0.9,1,1.4c0.2-0.7,0.1-1.5-0.4-2.2c-0.4-0.3-0.9-0.6-1.4-0.7
			L52.2,130.8z"/>
		<path class="st7" d="M48.6,131.4c0.5,0.1,1,0.3,1.4,0.6c0.5,0.4,0.8,0.9,1,1.4c0.2-0.7,0.1-1.6-0.4-2.2c-0.4-0.3-0.8-0.6-1.3-0.7
			L48.6,131.4z"/>
		<path class="st2" d="M48.6,131.4c0.5,0.1,1,0.3,1.4,0.6c0.5,0.4,0.8,0.9,1,1.4c0.2-0.7,0.1-1.6-0.4-2.2c-0.4-0.3-0.8-0.6-1.3-0.7
			L48.6,131.4z"/>
		<linearGradient id="SVGID_1_" gradientUnits="userSpaceOnUse" x1="76.4639" y1="132.7561" x2="74.7577" y2="106.6978">
			<stop  offset="0" style="stop-color:#313131"/>
			<stop  offset="0.5223" style="stop-color:#9D998C"/>
			<stop  offset="0.5586" style="stop-color:#A4A092"/>
		</linearGradient>
		<path class="st15" d="M70.4,99.8c0,0,9.2,5.7,10.6,9.7s-0.2,16.9-2.9,18.6c-1.8,1.2-1.4-2.1-1.4-2.1s-1.9,2.4-3.3,1.1
			c-0.9-0.9,1-3,1-3s-3,1.1-3.2-0.7s3.7-2.9,3.7-2.9c1.1-2.4,1.7-5,1.6-7.6c-0.4-3.8-8.3-8.2-8.3-8.2L70.4,99.8z"/>
		
			<linearGradient id="SVGID_00000137112869238162704200000005231551957777614247_" gradientUnits="userSpaceOnUse" x1="50.9691" y1="134.4255" x2="49.2629" y2="108.3671">
			<stop  offset="0" style="stop-color:#313131"/>
			<stop  offset="0.5223" style="stop-color:#9D998C"/>
			<stop  offset="0.5586" style="stop-color:#A4A092"/>
		</linearGradient>
		<path style="fill:url(#SVGID_00000137112869238162704200000005231551957777614247_);" d="M51.3,103.3c0,0,1.6,7.1,1.5,11.6
			c-0.2,3.5-0.7,6.9-1.5,10.3c0,0,4.5,0.7,3.5,2.6c-0.9,1.6-3.1,0-3.1,0s3.2,1.8,1.6,2.9c-1.9,1.4-4-1.5-4-1.5s1.1,1.4,0.1,2.3
			c-2.4,2-3.7-3.1-3.4-5.1c0,0,2.7-8.2,1.9-12.9c-0.8-3.8-1.8-7.5-3-11.1L51.3,103.3z"/>
		<polygon class="st1" points="53.5,17 50.1,10.6 56.3,13.9 		"/>
		<path class="st1" d="M65.5,49.8c0,1.7,0.2,3.4,0.7,5c0.4,1.3,0.9,2.5,1.6,3.6l0.8-3c0.2,2.4,0.5,4.8,1,7.1
			c0.5-0.8,0.9-1.7,1.1-2.7c0,0,0.7,5.1,1.2,6.2c1-2.6,1.9-3.3,1.9-3.3c0.1,1.4,0.2,2.8,0.5,4.1c0.4,1.2,1,2.4,1.7,3.5
			c0,0,0.9-5.6,1.1-9c0.2-2.9,0.9-5.8,1.9-8.5c0,0-5.8,0.1-6.6-3s-6.9-3.2-6.9-3.2L65.5,49.8z"/>
		<path class="st17" d="M79.9,51.9c0,0-12.2-4.2-15.7-17.5S70,14.4,73,13c2.2-1,4.7-1.4,7.1-1.1c0,0,1.8-0.3-2.6-1.9
			c-7-2.6-16,0.3-20.2,3.1c-5,3.4-10.8,15.7-13.5,21.3S33.6,47,33.6,47s8.1,2.8,14.3,1.3c6.5-1.6,12.2,0.7,14.7,1.4
			c4.1,1.2,16.4,3.9,16.4,3.9L79.9,51.9z"/>
		<path class="st3" d="M48.9,40.2c0,0.6-0.5,1-1,1c-0.6,0-1-0.5-1-1s0.5-1,1-1C48.4,39.2,48.9,39.7,48.9,40.2"/>
		<path class="st3" d="M54.3,38.1c0,0.6-0.4,1.1-1,1.1s-1.1-0.4-1.1-1s0.4-1.1,1-1.1c0,0,0.1,0,0.1,0C53.8,37.1,54.3,37.6,54.3,38.1
			"/>
		<path class="st3" d="M61.5,41.3c0,0.6-0.4,1.1-1,1.1s-1.1-0.4-1.1-1s0.4-1.1,1-1.1c0,0,0.1,0,0.1,0C61.1,40.3,61.5,40.7,61.5,41.3
			"/>
		<path class="st3" d="M64,46.6c0,0.6-0.5,1-1,1c-0.6,0-1-0.5-1-1s0.5-1,1-1C63.5,45.6,64,46.1,64,46.6L64,46.6"/>
		<path class="st3" d="M66.5,42.7c0,0.6-0.4,1-1,1s-1-0.4-1-1c0-0.5,0.4-1,0.9-1C66,41.6,66.5,42,66.5,42.7
			C66.5,42.6,66.5,42.6,66.5,42.7"/>
		<path class="st3" d="M70.8,48c0,0.6-0.5,1-1,1s-1-0.5-1-1s0.5-1,1-1S70.8,47.4,70.8,48"/>
		<path class="st3" d="M75.8,51.4c0,0.6-0.4,1-1,1s-1-0.4-1-1s0.4-1,1-1S75.8,50.8,75.8,51.4"/>
		<path class="st3" d="M62,32.3c0,0.6-0.4,1-1,1s-1-0.4-1-1c0-0.5,0.4-1,1-1C61.5,31.2,62,31.7,62,32.3C62,32.2,62,32.2,62,32.3"/>
		<path class="st3" d="M54.4,31.8c0,0.6-0.4,1-1,1s-1-0.4-1-1c0-0.6,0.4-1,1-1S54.4,31.3,54.4,31.8"/>
		<path class="st3" d="M52.2,25.8c0,0.6-0.5,1-1,1c-0.6,0-1-0.5-1-1s0.5-1,1-1C51.7,24.7,52.2,25.2,52.2,25.8"/>
		<path class="st3" d="M59.6,28.3c0,0.6-0.5,1-1,1c-0.6,0-1-0.5-1-1s0.5-1,1-1C59.2,27.2,59.6,27.7,59.6,28.3"/>
		<path class="st3" d="M59.3,36.2c0,0.6-0.4,1-1,1s-1-0.4-1-1s0.4-1,1-1S59.3,35.6,59.3,36.2"/>
		<path class="st3" d="M56.3,43.9c0,0.6-0.5,1-1,1c-0.6,0-1-0.5-1-1s0.5-1,1-1C55.9,42.9,56.3,43.3,56.3,43.9"/>
		<path class="st3" d="M50.1,45.9c0,0.6-0.4,1-1,1s-1-0.4-1-1c0-0.5,0.4-1,1-1C49.6,44.9,50.1,45.3,50.1,45.9
			C50.1,45.9,50.1,45.9,50.1,45.9"/>
		<path class="st3" d="M42.7,45.9c0,0.6-0.5,1-1,1c-0.6,0-1-0.5-1-1s0.5-1,1-1C42.2,44.9,42.7,45.3,42.7,45.9"/>
		<path class="st3" d="M43.7,40.6c0,0.6-0.5,1-1,0.9s-1-0.5-0.9-1c0-0.5,0.5-0.9,1-1C43.3,39.5,43.7,40,43.7,40.6
			C43.7,40.5,43.7,40.5,43.7,40.6"/>
		<path class="st3" d="M57,22.1c0,0.6-0.5,1-1.1,1s-1-0.5-1-1.1s0.5-1,1.1-1c0,0,0,0,0,0C56.6,21.1,57,21.5,57,22.1
			C57,22.1,57,22.1,57,22.1"/>
		<path class="st3" d="M59.6,15.8c0,0.6-0.4,1-1,1s-1-0.4-1-1c0-0.6,0.4-1,1-1S59.6,15.3,59.6,15.8"/>
		<path class="st3" d="M62.8,21.5c0,0.6-0.5,1-1,0.9s-1-0.5-0.9-1c0-0.5,0.5-0.9,1-0.9C62.3,20.5,62.8,20.9,62.8,21.5
			C62.8,21.5,62.8,21.5,62.8,21.5"/>
		<path class="st3" d="M64.7,15.8c0,0.6-0.4,1-1,1s-1-0.4-1-1c0-0.6,0.4-1,1-1S64.7,15.3,64.7,15.8"/>
		<path class="st3" d="M68.7,11.2c0,0.6-0.4,1-1,1s-1-0.4-1-1s0.4-1,1-1S68.7,10.6,68.7,11.2"/>
		<path class="st3" d="M49.1,32.9c0,0.6-0.5,1-1,1c-0.6,0-1-0.5-1-1s0.5-1,1-1C48.6,31.8,49.1,32.3,49.1,32.9"/>
		<path class="st9" d="M74.8,35.5c0,0-0.4,4.7,6.6,5.4c6.4,1.1,12.9,0.8,19.1-0.9"/>
		<path class="st10" d="M81.3,53.6c0,1.2-0.9,2.1-2.1,2.2c-0.8-0.1-1.5-0.4-2.1-1c-0.3-0.3-0.5-0.8-0.6-1.2c0-1.2,1.7-2.2,2.7-2.2
			C80.4,51.5,81.3,52.5,81.3,53.6"/>
		<path class="st10" d="M78.5,53.6c0,0-2.5,3.5-4,6s-0.8,7.5-0.8,7.5s4.5-2.1,4.8-5.2C78.7,59.1,78.7,56.4,78.5,53.6"/>
	</g>
</g>
</svg>
