<svg xmlns="http://www.w3.org/2000/svg" viewBox="0 0 106.84 143.23"><defs><style>.cls-1{fill:#2fac66;}.cls-2{fill:#db7a1c;}.cls-3{fill:#fcc700;}.cls-4{fill:#a85318;}.cls-5{fill:#e4d5b8;}.cls-6{fill:#00a0a4;}.cls-12,.cls-7{fill:none;stroke:#1d1d1b;stroke-width:0.6px;}.cls-8{fill:#0d181c;}.cls-9{fill:#1b8a4f;}.cls-10{fill:#fff;}.cls-11{fill:#1d1d1b;}.cls-12{stroke-linecap:round;}</style></defs><g id="Capa_2" data-name="Capa 2"><g id="Capa_1-2" data-name="Capa 1"><path class="cls-1" d="M29,121.1,79.33,121c4.64,0,9.36,0,13.83,1.22a25.76,25.76,0,0,1,11.58,6.86c1.21,1.25,2.36,2.87,2.05,4.59-.49,2.66-3.88,3.43-6.58,3.62L17.26,143.1c-6.3.44-14.22,0-16.67-5.87-1.5-3.59,0-7.92,2.84-10.6s6.67-4,10.49-4.75A49.26,49.26,0,0,1,30,121.33"/><path class="cls-2" d="M14.19,84.75a47.83,47.83,0,0,1,14.67-1.88,53.58,53.58,0,0,1,13.43,2.59s3.32,12.26,3.38,23.13a91,91,0,0,1-3,22.17,93.87,93.87,0,0,1-15.41,1.47,40,40,0,0,1-14-2.67,106.93,106.93,0,0,1-2.12-20.66C11,98.77,14.19,84.75,14.19,84.75"/><path class="cls-2" d="M15.94,85.33S14,81,11.79,80A8.25,8.25,0,0,0,8,79.06S7.36,81,9.63,83.56a13.42,13.42,0,0,0,5,3.51Z"/><path class="cls-2" d="M39.78,86.57A14.77,14.77,0,0,1,42.06,82a6,6,0,0,1,5.12-1.93A16.28,16.28,0,0,1,45,85.21a9.6,9.6,0,0,1-3.08,2.56Z"/><path class="cls-2" d="M43.1,129.05a9.54,9.54,0,0,1,3.67,1.1c2.36,1.4,4.13,3.33,3.48,3.37a7.62,7.62,0,0,1-5.46-.27,7,7,0,0,1-3.72-3Z"/><path class="cls-2" d="M13.73,128.22a36.84,36.84,0,0,0-4.47,1.52c-2.42,1.08-4.06,4-3.38,4.17a8.64,8.64,0,0,0,5.91-.79,17.76,17.76,0,0,0,3.54-3.32Z"/><path class="cls-3" d="M28.39,114.19s1.38-3.17,2.77-4.35a9.05,9.05,0,0,1,4.05-1.48S34,111.82,32.64,113s-4.25,1.18-4.25,1.18"/><path class="cls-3" d="M28.39,114.19S27,111,25.62,109.84a9.05,9.05,0,0,0-4.05-1.48s1.19,3.46,2.57,4.65,4.25,1.18,4.25,1.18"/><path class="cls-3" d="M28.55,109.73A13.5,13.5,0,0,1,30.94,106a7.79,7.79,0,0,1,3.49-1.28s-1,3-2.22,4-3.66,1-3.66,1"/><path class="cls-3" d="M28.55,109.73A13.39,13.39,0,0,0,26.17,106a7.85,7.85,0,0,0-3.5-1.28s1,3,2.22,4,3.66,1,3.66,1"/><path class="cls-3" d="M28.46,105.7a11,11,0,0,1,2-3.09,6.38,6.38,0,0,1,2.87-1,10,10,0,0,1-1.82,3.3,5.64,5.64,0,0,1-3,.84"/><path class="cls-3" d="M28.53,103.63a6.15,6.15,0,0,1-1.75-3.83c0-1.57,1.77-4.93,1.77-4.93s1.8,3.34,1.79,4.9a6.07,6.07,0,0,1-1.81,3.86"/><path class="cls-3" d="M28.46,105.7a11.14,11.14,0,0,0-2-3.09,6.38,6.38,0,0,0-2.87-1,9.76,9.76,0,0,0,1.82,3.3,5.61,5.61,0,0,0,3,.84"/><path class="cls-4" d="M53.16,20.11s-7,6.53-5.92,7.16,2.64-1.33,2.64-1.33-4.09,5.35-2.39,5.21,3.35-2.71,3.35-2.71-2.69,5.09-1.38,5.75,6.18-11.7,6.18-11.7Z"/><path class="cls-5" d="M38.73,82.29l-1.4-4s-9.25.93-9.45,2.32,4,.69,4,.69-4.22.88-3.76,2.28S32.58,83,32.58,83s-3.75,1.88-3,3.07,4.3-1.23,4.3-1.23.08,2.63,1.69,2.58c1.11,0,1.57-4.07,1.57-4.07Z"/><path class="cls-5" d="M89.79,84.83s7.75,5.12,7.29,6.45S93.21,90,93.21,90s2.91,2.92,1.85,3.94-3.27-2.74-3.27-2.74,1.47,3.83.28,4.54-2.77-4.07-2.77-4.07-.34,2.57-1.82,2c-1-.41-.08-5.88-.08-5.88Z"/><path class="cls-6" d="M51.59,95.63s1.63,18.8,3.06,25.07a19.86,19.86,0,0,0,5.87.11s.3-7.16,1-12.1,5-3.7,5.68-.31c.6,3,1,10.37,1.55,12.09,1.38.49,6.17.11,6.17.11a127,127,0,0,0,2.56-14.44c.94-7.82.71-9.42.71-9.42Z"/><path class="cls-5" d="M61.08,56.32l4.14,16.62,6.89-16.36a28.94,28.94,0,0,1-6.35-.92c-3.07-.86-4.68.66-4.68.66"/><line class="cls-7" x1="64.07" y1="69.3" x2="68.99" y2="66.16"/><line class="cls-7" x1="67.12" y1="69.44" x2="62.94" y2="65.93"/><line class="cls-7" x1="62.94" y1="65.93" x2="70.88" y2="61.39"/><line class="cls-7" x1="68.99" y1="66.16" x2="61.76" y2="60.89"/><line class="cls-7" x1="62" y1="60.89" x2="71.78" y2="58.56"/><line class="cls-7" x1="70.65" y1="61.39" x2="61.08" y2="58.04"/><path class="cls-3" d="M71.78,56.66,65.23,72.11,61.76,56.4l-5.43-1s-5.26,32.93-5.66,36.74-.55,5.6,5.66,6.67,23.61,3.22,23.61-3.33c0-4.41-2.61-38.84-2.61-38.84Z"/><path class="cls-3" d="M77.33,56.66s16.1,26.78,15.5,28.93c-.3,1.08-5.59,5.36-7.86,2.86s-6.79-17.67-6.79-17.67Z"/><path class="cls-3" d="M56.6,55.77s-6.56,7-12.54,13.78c-5,5.67-9.25,6.38-9.26,8.17,0,2.38,4.6,8,7.33,5.55A56.49,56.49,0,0,0,48.82,77c3.44-4,5.37-6.26,5.37-6.26Z"/><path class="cls-8" d="M75.36,120.49l-.45,8.56a19.92,19.92,0,0,1,5.64,2.43c1.59,1.19,2,3-3.22,3s-9.24-.05-9.42-1.34.16-12.69.16-12.69Z"/><path class="cls-8" d="M54.12,120.49h7s-.35,6.41-.84,12.33c-.11,1.23-3.47,1.7-9.73,1.7-4.41,0-4.79-1.88-2.59-3.41a18.87,18.87,0,0,1,6.44-2.39Z"/><path class="cls-5" d="M54.64,21.44s-5.33,9.41-4.13,24c.75,9.08,7.59,13.15,16,13.15,5.18,0,14.43-3.17,17.37-9.29a34.79,34.79,0,0,0,1.47-25.84Z"/><path class="cls-4" d="M88.07,22.79s4.42,7.56,3.17,7.85-1.93-2.34-1.93-2.34,2.42,6.27.83,5.67-2.28-3.65-2.28-3.65,1.67,6.08.2,6.08c-2.44,0-3.32-12.82-3.32-12.82Z"/><path class="cls-9" d="M47.92,15.27c-2.12-1.4,4.84,0,10.44,1.26s17.38,1.32,22.23,1.59c5.18.28,8.38-.47,11.68-.07-8.68,8.9-29.86,3.69-37,.81s-5.39-2.31-7.32-3.59"/><path class="cls-9" d="M83.36,8c.78,7.22,1,13.87,1,13.87L54.13,20.76S63,5.42,65.87,2.58C72-3.38,82.72,2.06,83.36,8"/><path class="cls-10" d="M58.11,27.12c1.32.27,3.79,1.72,3.08,5.34-.54,2.84-2.51,3.86-4.87,3.39a4,4,0,0,1-2.94-5c.57-3,2.85-4.1,4.73-3.73"/><path class="cls-11" d="M58.31,30.87a.65.65,0,0,1,.52.82.66.66,0,0,1-.8.57.72.72,0,0,1,.28-1.39"/><path class="cls-10" d="M77.15,28.55a4.33,4.33,0,0,1,3.27,5.38c-.55,2.83-2.33,4.29-5.18,3.73-2.23-.43-3.64-2.39-3.07-5.34a4.41,4.41,0,0,1,5-3.77"/><path class="cls-11" d="M77.33,32.68a.75.75,0,0,1,.57.93.73.73,0,1,1-1.43-.28.77.77,0,0,1,.86-.65"/><path class="cls-12" d="M65.48,34.87S58.92,41,58.92,41.78c0,2,7.63.83,7.63.83"/><path class="cls-8" d="M60.74,49.57s3.17.76,5.05-.47a24,24,0,0,0,3.3-3.22s.43,5.95-2.72,6.78-5.63-3.09-5.63-3.09"/><path class="cls-1" d="M47.47,15c.15-.41,5.9,1.73,9.86,3.09,3,1,8.71,3,14.32,3.43,18.22,1.28,18.82-2.26,20.62-3.43C92,19.41,89,27.9,70.68,26.59c-18-1.28-21.14-6.54-23.21-11.63"/><path class="cls-5" d="M82.61,36.86c0-1.42,3.2-2.58,4.61-2.58a2.58,2.58,0,0,1,0,5.16c-1.41,0-4.61-1.15-4.61-2.58"/></g></g></svg>