<svg xmlns="http://www.w3.org/2000/svg" viewBox="0 0 88.33 146.88"><defs><style>.cls-1{fill:#2fac66;}.cls-2,.cls-8{fill:#0d181c;}.cls-12,.cls-13,.cls-15,.cls-16,.cls-2,.cls-3,.cls-4,.cls-5,.cls-7{fill-rule:evenodd;}.cls-14,.cls-3{fill:#e4d5b8;}.cls-11,.cls-4{fill:#dad8cc;}.cls-10,.cls-5{fill:#fff;}.cls-6,.cls-9{fill:none;stroke-linecap:round;}.cls-6{stroke:#dad8cc;stroke-width:0.28px;}.cls-7{fill:#2b2523;}.cls-9{stroke:#1d1d1b;stroke-width:0.6px;}.cls-12{fill:#b91919;}.cls-13{fill:#fcc700;}.cls-15{fill:#a85318;}.cls-16{fill:#814114;}</style></defs><g id="Capa_2" data-name="Capa 2"><g id="Capa_1-2" data-name="Capa 1"><path class="cls-1" d="M73.93,126,19,124.85c-4.63-.1-9.51-.14-13.58,2.07s-6.86,7.52-4.7,11.62,7.3,4.79,11.76,5.16l32.6,2.68c6.36.52,12.87,1,19-.67s12-6.07,13.52-12.25a14.93,14.93,0,0,0,.43-2.07c0-2.63.32-5-4.15-5.35"/><path class="cls-2" d="M27,132.36c-1.22,1.21-5.45,1.43-6.55,3s-1.3,1.93,2.25,2,7.07.77,9.33,0c1.62-.55-.18-6.82-.18-6.82l-4.63.17s.24,1.13-.22,1.59"/><path class="cls-2" d="M52.76,131.48c-.79,1.38-4.6,2.4-5.41,4.16s-.93,2.14,2.59,1.62,6.57-.76,8.7-1.58c1.74-.66-1.86-7.2-1.86-7.2l-4.66,1s1.05,1.32.64,2"/><path class="cls-3" d="M6.74,78.93l.79-5.26s1.3-3.29,2.89-3.12c1,.1.22,2-.16,3-.33.83.65,1.46.65,1.46L9.77,79.61Z"/><path class="cls-4" d="M25.61,132.2l3-34.64,26.79,0,2.68,32-7.38,1.88s-3.93-18-7.59-19S34,131.91,34,131.91Z"/><path class="cls-5" d="M45.3,63.51c5,4.86,11.09,11.43,12.45,14.2C59.37,81,66.63,93,66.63,93l6-1.64s-5.43-12.19-9-18.67A57.59,57.59,0,0,0,52.19,58.6C47.8,54.74,41,56.92,46.68,62.4"/><path class="cls-6" d="M45.3,63.51c5,4.86,11.09,11.43,12.45,14.2C59.37,81,66.63,93,66.63,93l6-1.64s-5.43-12.19-9-18.67A57.59,57.59,0,0,0,52.19,58.6C47.8,54.74,41,56.92,46.68,62.4"/><path class="cls-5" d="M32.42,73.83c-1.11.47-4.35,4.55-9.33,6.84-4.75,2.18-11.63-.26-13.33-.94l.94-5.27c3.73,0,6.27,1.07,11-1.08s6.86-8.83,10.72-11.88Z"/><path class="cls-6" d="M32.42,73.83c-1.11.47-4.35,4.55-9.33,6.84-4.75,2.18-11.63-.26-13.33-.94l.94-5.27c3.73,0,6.27,1.07,11-1.08s6.86-8.83,10.72-11.88Z"/><path class="cls-5" d="M32.3,59.62l20.51.52s9.88,29.32,2.63,37.44c-.24,2.18-18.14,4.21-28.2-.84C21.09,86.58,32.3,59.62,32.3,59.62"/><path class="cls-6" d="M32.3,59.62l20.51.52s9.88,29.32,2.63,37.44c-.24,2.18-18.14,4.21-28.2-.84C21.09,86.58,32.3,59.62,32.3,59.62Z"/><path class="cls-3" d="M24.69,28.05s-5.55,19,2.07,29.94c5.75,8.22,23.48,7.65,29.89.25s3.84-27.41,3.84-27.41l-7.73-5.51L41.65,24.25Z"/><path class="cls-5" d="M29.66,31.74c1.87,0,3.42,1.6,3.42,4s-1.23,4.6-4.06,4.6c-2.28,0-3.76-2.18-3.49-4.6.3-2.69,1.85-4,4.13-4"/><path class="cls-7" d="M27.69,35.07c.41,0,.61.26.61.67a.62.62,0,0,1-.64.69.68.68,0,1,1,0-1.36"/><path class="cls-5" d="M47.83,32.64c2.47,0,3.71,2.14,3.71,4.37,0,2.63-1.64,5.07-4.1,5.07-3.17,0-4.31-2.45-4.08-5.07s2-4.37,4.47-4.37"/><path class="cls-7" d="M45.82,36.31c.45,0,.69.32.69.8s-.27.85-.72.85a.83.83,0,0,1,0-1.65"/><path class="cls-8" d="M39.54,53.61C37.68,60.12,34,55,34,55s3.36.93,5.52-1.39"/><path class="cls-3" d="M60.75,40a2.55,2.55,0,1,0,2.89,2.53A2.72,2.72,0,0,0,60.75,40"/><path class="cls-9" d="M37.68,35.53s-5.87,8.84-3.94,11.25c.82,1,5.65.67,5.65.67"/><path class="cls-2" d="M56.62,35s-.09,11.22,1,8.52,1.56-3.93,1.56-3.93-.67,7.46.54,4.18A21,21,0,0,0,61,38.64s1.19,7.33,1.46,3.07-.94-8.1-1.13-8.14-5.09-3.11-5.09-3.11Z"/><path class="cls-10" d="M24.69,28.05A62.78,62.78,0,0,1,40.92,27a46,46,0,0,1,20.67,6.83l1-11.3s10.77,1,9-8.86c-3.24-17.57-25.31-8-25.31-8s-5.91-7.4-15-4.47-10.09,12.16-6.9,13.94l3.19,1.77Z"/><path class="cls-11" d="M72.47,15.28a29.11,29.11,0,0,1-7.57,2.59,9.9,9.9,0,0,1-7.13-1.44L56.08,31a48.61,48.61,0,0,1,6,3.17l1-11.58s9.67.92,9.32-7.29"/><path class="cls-6" d="M24.51,28.29A63.54,63.54,0,0,1,41.05,27.2a46.87,46.87,0,0,1,21.05,7l1-11.58s11,1,9.12-9C69-4.35,46.49,5.39,46.49,5.39s-6-7.54-15.22-4.55S21,13.23,24.24,15l3.25,1.82Z"/><path class="cls-2" d="M36.1,51.49a2.87,2.87,0,0,0-2.48-.58c-1.5.3-1.35,1-3.19.56a11.2,11.2,0,0,1-2.11-.88,15.07,15.07,0,0,0,1.28,2.54c1.52,1.84,5.21-.08,6.57-.18,1.19-.09,5.76.38,7-1.63a3.66,3.66,0,0,0,0-2.86,3.59,3.59,0,0,1-2.27,2c-1,.22-2.09-.44-3-.27a3.72,3.72,0,0,0-1.77,1.27"/><path class="cls-4" d="M34.92,69.13a1.32,1.32,0,0,1-2.63-.08,1.33,1.33,0,0,1,1.36-1.27,1.32,1.32,0,0,1,1.27,1.35"/><path class="cls-4" d="M47.84,69.15a1.32,1.32,0,1,1-1.26-1.36,1.31,1.31,0,0,1,1.26,1.36"/><path class="cls-4" d="M34.7,76.16a1.31,1.31,0,1,1-1.27-1.35,1.32,1.32,0,0,1,1.27,1.35"/><path class="cls-4" d="M47.53,76.18a1.31,1.31,0,1,1-1.26-1.37,1.32,1.32,0,0,1,1.26,1.37"/><path class="cls-4" d="M34.49,83.2a1.32,1.32,0,1,1-1.28-1.36,1.32,1.32,0,0,1,1.28,1.36"/><path class="cls-4" d="M47.22,83.21A1.31,1.31,0,1,1,46,81.84a1.31,1.31,0,0,1,1.25,1.37"/><path class="cls-4" d="M34.27,90.23A1.32,1.32,0,1,1,33,88.87a1.32,1.32,0,0,1,1.27,1.36"/><path class="cls-4" d="M46.91,90.24a1.31,1.31,0,1,1-1.25-1.37,1.31,1.31,0,0,1,1.25,1.37"/><path class="cls-12" d="M24.89,119.23s11.24,1.09,17.39,1,10.48,0,10.48,0l-1-20,4.1-.64V97.05A80.76,80.76,0,0,1,40.8,98.17c-9.22-.14-13.55-1.43-13.55-1.43Z"/><path class="cls-13" d="M46.52,104.16a10.94,10.94,0,0,1,7.22-5.37,8,8,0,0,1,5,.27A14.64,14.64,0,0,1,69.59,94c7.28-.32,9.13,2,9.13,2s5.15-1.34,8.27.57,1.84,4.7-15.6,7.86c-15.09,2.74-27.76,5.82-24.87-.22"/><path class="cls-14" d="M72.29,91.66s1.87,6,.85,6.72-2.32-2.87-2.32-2.87.76,3.65-.56,3.89-1.12-3.7-1.12-3.7-.8,3.62-2.06,3.57,0-3.76,0-3.76-2.37.87-2.48-.12S67.51,93,67.51,93Z"/><path class="cls-15" d="M10,96.92a9.48,9.48,0,0,1-4.52-.41A13.63,13.63,0,0,1,.86,94.12L11.79,58.41a15,15,0,0,0,4.05,2.08,17.11,17.11,0,0,0,5.11.72Z"/><path class="cls-16" d="M21,61.21c-.15.48-2.31.24-4.85-.53s-4.46-1.79-4.31-2.27,2.32-.24,4.85.53S21.1,60.73,21,61.21"/><path class="cls-15" d="M16.42,59.67a2.43,2.43,0,0,1-.91-.46s.52-4.19.89-6c.48-2.34,4.42-1.13,3.69,1a44.4,44.4,0,0,1-2.75,5.53,1.6,1.6,0,0,1-.92-.1"/><path class="cls-15" d="M5.55,95.21a2.27,2.27,0,0,1,.91.46s-.52,4.18-.89,6c-.48,2.34-4.42,1.14-3.68-1a42.67,42.67,0,0,1,2.74-5.53,1.49,1.49,0,0,1,.92.1"/><path class="cls-3" d="M5.61,78.66c.57.52,2.43,1.07,3.08-.16.5-.94-1.69-2-1.69-2s3.39,1,2.88-.55-2.77-2.45-2.77-2.45,2.74,1.15,2-.44A3.13,3.13,0,0,0,6.69,71.6s-1.4-.49-1.88,2.05-.12,4.14.8,5"/></g></g></svg>