<svg xmlns="http://www.w3.org/2000/svg" viewBox="0 0 364.15 141.5"><defs><style>.cls-1,.cls-5,.cls-7{fill:none;stroke-linecap:round;}.cls-1,.cls-5{stroke:#dad8cc;}.cls-1{stroke-linejoin:round;}.cls-2{fill:#dad8cc;}.cls-3{fill:#c4c0b4;}.cls-4{fill:#fff;}.cls-5{stroke-width:0.28px;}.cls-6{fill:#1d1d1b;}.cls-7{stroke:#1d1d1b;stroke-width:0.67px;}.cls-8{fill:#f3a5c2;}.cls-9{fill:#06607b;}.cls-10{fill:#046f89;}.cls-11{fill:#1b8a4f;}.cls-12{fill:#62b87e;}.cls-13{fill:#2fac66;}.cls-14{fill:#0d181c;}</style></defs><g id="Capa_2" data-name="Capa 2"><g id="Capa_1-2" data-name="Capa 1"><path class="cls-1" d="M69,124.65c1.63,1.68,5.35,3.12,7.61,2.42,7.49-2.3,9.74-15.58,18.89-13.78,3.34.65,5.56,3.92,8.75,4.79,10.75,3,6.16-8.43,15.37-8.43,9.46,0,5.34-13.75-2.3-17.49a7.36,7.36,0,0,0-10.67,5.91c-.15,1.81.62,5.39,4.36,5.83,2.55.3,5.09-3.05,3.15-5.32"/><path class="cls-2" d="M66.66,124.11c1.11,4,2.79,7.13,5.42,8.68,4.09,1.67,2.43,5.14.69,3.33,1.81,3.55-.86,5.71-1.66,2.36-1.88,3.34-4.52.28-1.39-2.36a13.42,13.42,0,0,1-6.46-11.8Z"/><path class="cls-2" d="M45.29,125.46a67.18,67.18,0,0,1-1.89,10.23s-4.37-.3-4.5,1.58,3,1.24,3,1.24c-1.54,1.68.88,2.7,2.5.2,1,2.46,1.74,2,2.33-.3,1-3.79,1.74-9.82,2.13-11.93Z"/><path class="cls-3" d="M50.43,45.51C50.43,50.2,47,54,42.73,54S35,50.2,35,45.51s3.45-7.28,7.69-7.28,7.7,2.58,7.7,7.28"/><path class="cls-4" d="M44.81,84.83c-3.12,16.58-3,28.79-4.91,40.42,10.9,2.21,18.26,1.94,31.7-.21L61.36,82.92Z"/><path class="cls-5" d="M44.81,84.83c-3.12,16.58-3,28.79-4.91,40.42,10.9,2.21,18.26,1.94,31.7-.21L61.36,82.92Z"/><path class="cls-2" d="M40.55,78.78a10.84,10.84,0,0,1,2.91,5.12S61.61,81,61.76,80.77c.39-.61-.15-1.77.3-2.38,3.11-4.24,4.92-11.06,3.79-15.47,2.92.3,6.8-2.07,8.84-4.22,3.69-3.91,3.78-9.46-.57-13.57S63.73,40.84,60,44.75c-1.78,1.89-3.24,4.09-3.1,6.62a10.49,10.49,0,0,0-1-.49C49.41,48.52,45.24,49.09,2.54,60c-1.59.4-1.26,2.4.14,3.24C10.82,68.07,31,74.15,40.55,78.78"/><path class="cls-4" d="M57.17,60a5.1,5.1,0,0,1-5.23,5.14c-2.36,0-4.06-2.66-3.81-5.15s2.14-4.6,4.51-4.6A4.8,4.8,0,0,1,57.17,60"/><path class="cls-6" d="M55.38,60.76a.73.73,0,0,1-.91.75.76.76,0,0,1-.56-1c.14-.43.33-.68.79-.62s.68.45.68.9"/><path class="cls-7" d="M45.15,70.38c0,2.08-1.08,3.77-2.42,3.77s-2.42-1.69-2.42-3.77"/><path class="cls-8" d="M63.21,49.67a3.89,3.89,0,0,1,5.91.46,4.1,4.1,0,0,1-.54,6.08C66.47,58,63.46,57.45,62.39,56a4.52,4.52,0,0,1,.82-6.29"/><path class="cls-2" d="M68,113.45s-1.07,6,1.18,5.65,1.51-2.73,1.51-2.73.35,3,1.9,2.8.3-3.11.3-3.11.87,1.74,1.59,1.19c1.32-1-1.76-5.47-1.76-5.47h-3.4Z"/><path class="cls-4" d="M61.29,84.72c3.55,2.81,10.42,17.12,12.86,27.3.24,1-6,2.83-7.85,2.8a94.58,94.58,0,0,0-7.21-21.5"/><path class="cls-5" d="M61.29,84.72c3.55,2.81,10.42,17.12,12.86,27.3.24,1-6,2.83-7.85,2.8a94.58,94.58,0,0,0-7.21-21.5"/><path class="cls-4" d="M48.1,96.52c-.37,12.54-.9,19.72-1.24,29.33"/><path class="cls-5" d="M48.1,96.52c-.37,12.54-.9,19.72-1.24,29.33"/><path class="cls-8" d="M12.06,57.55S.29,59.79.05,61s.57,1.57,5.54,3.86C8.29,66.14,12,67.56,12,67.56s.19-2,.41-4.37a27.7,27.7,0,0,0-.3-5.64"/><path class="cls-4" d="M72.23,105.41l-4.36,1c-.9.18-1.29.29-1.11,1.2a7.18,7.18,0,0,0,.95,3,13.86,13.86,0,0,0,6.1-1,31.86,31.86,0,0,0-1.58-4.19"/><path class="cls-5" d="M72.23,105.41l-4.36,1c-.9.18-1.29.29-1.11,1.2a7.18,7.18,0,0,0,.95,3,13.86,13.86,0,0,0,6.1-1A31.86,31.86,0,0,0,72.23,105.41Z"/><path class="cls-6" d="M69.88,107.77a.8.8,0,0,1,0,1.13.81.81,0,0,1-1.13,0,.79.79,0,0,1,0-1.12.8.8,0,0,1,1.13,0"/><path class="cls-6" d="M50.89,122a.8.8,0,1,1-.79-.8.79.79,0,0,1,.79.8"/><path class="cls-6" d="M51.14,114.87a.8.8,0,1,1-.79-.81.81.81,0,0,1,.79.81"/><path class="cls-6" d="M51,108.87a.79.79,0,0,1-.8.78.8.8,0,0,1,0-1.59.8.8,0,0,1,.79.81"/><path class="cls-6" d="M51.2,102.08a.79.79,0,0,1-.8.79.8.8,0,0,1-.79-.81.78.78,0,0,1,.8-.78.79.79,0,0,1,.79.8"/><path class="cls-9" d="M44.31,84.25a134.31,134.31,0,0,1,18-4l-.11,4.41L46.05,86.27Z"/><path class="cls-9" d="M46.44,87.28c.25,6.19.76,12.16,3,16.49-1.86,0-2.83.43-4.36.43-1.2-5.63-.94-12.13.17-19.12Z"/><path class="cls-9" d="M43.48,87.18s-4.2,10.46-10,15.44l4.28,1.76S47,90.24,45.83,86.74s-2.35.44-2.35.44"/><path class="cls-9" d="M35.7,80.67c.13-.77,1.84-.11,2.61,0a14.4,14.4,0,0,1,7.47,3.2l.26,3.5-9.89,3.36s-.72-8.42-.45-10"/><path class="cls-9" d="M47.76,84.83c6.49,2.21,9.08,4.63,9.08,4.63.67.34.6,1.11.2,1.76a20.56,20.56,0,0,1-5.56,6.12c-1.47,1.12-1.53-.09-1.84-.77l-4.56-9.79s1.85-1.89,2.68-2"/><path class="cls-10" d="M48.65,86.41A2.43,2.43,0,1,1,44.05,85a2.44,2.44,0,1,1,4.6,1.42"/><path class="cls-2" d="M158.88,126.55a37.26,37.26,0,0,1,0,10.28c-2.66,4.07.61,5.58,2.17,2.13-.34,4,3.21,2.62,1.74.43,2.86,3.77,5.47-.19-.6-3.15a31.58,31.58,0,0,0-.38-9.92"/><path class="cls-2" d="M143.7,122.08l.38,2a19.11,19.11,0,0,1-2.88,7.19,25.1,25.1,0,0,1-3.34,3.23c4.87,2.57,1,7.3-1,2-.06,3.6-2.36,3.93-2-.07-2.59,3-4.67-2.49-1.15-3.36l3-2a8.29,8.29,0,0,0,3-3.89c.91-2.06,1.92-5,1.51-7.19Z"/><path class="cls-4" d="M167.56,89.05c-1.67,11.88-2.67,23.76-.33,38-12.7.45-21.5.36-31.17-4.14-.77-.36-.74-1.44-.6-2.39,3.16-21,9.82-32,13.15-38l11.9,3.71Z"/><path class="cls-5" d="M167.56,89.05c-1.67,11.88-2.67,23.76-.33,38-12.7.45-21.5.36-31.17-4.14-.77-.36-.74-1.44-.6-2.39,3.16-21,9.82-32,13.15-38l11.9,3.71Z"/><path class="cls-3" d="M161.51,51a8.41,8.41,0,1,0,8.77-8,8.41,8.41,0,0,0-8.77,8"/><path class="cls-9" d="M163.15,87.28l-6.46,15.77s.77.65,1.06.82c1.29.78,2.19.88,2.35.35.33-1.1,1-3.44,1.32-4.92A10.56,10.56,0,0,1,161.8,98c.68-1.9,1.3-7.81,1.35-10.69"/><path class="cls-9" d="M162.78,88.89l4.38,11.16a1.55,1.55,0,0,1-.16,1.34l-.51.79a.87.87,0,0,1-1.41.08c-1-1.3-3.17-4.85-2.3-13.37"/><path class="cls-6" d="M156.74,121.71a.74.74,0,0,0,.69.75.72.72,0,0,0,.07-1.44.73.73,0,0,0-.76.69"/><path class="cls-6" d="M157,115.08a.72.72,0,1,0,.75-.69.71.71,0,0,0-.75.69"/><path class="cls-6" d="M157.32,108.34a.72.72,0,1,0,1.43.06.72.72,0,1,0-1.43-.06"/><path class="cls-2" d="M138.8,48.71c5.71-.19,9,2.59,11.51,8.21,11.8-8.21,32.24,3.21,56.66,11.26a1.81,1.81,0,0,1,.32,3.29c-12.43,7.24-38.56,8.87-39.95,17.15-7.94-.16-12.81-2.46-18.9-5.46.72-4.48-5.4-8.13-4.19-15.13a13.3,13.3,0,0,1-4.75,1c-6.27.22-11.48-3.59-11.69-9.78s4.72-10.35,11-10.57"/><path class="cls-8" d="M138.13,63.77c3.38,1.2,6.48-.19,6.93-.94,1.23-2,.41-4.74-1.84-6.38a5.19,5.19,0,0,0-7,1.24c-1.46,2.26-.83,5.12,1.9,6.08"/><path class="cls-4" d="M154.66,67.05a4.4,4.4,0,0,0,6.06,2,4.32,4.32,0,0,0,1.89-6,4.8,4.8,0,0,0-6.26-2.42,4.73,4.73,0,0,0-1.69,6.44"/><path class="cls-6" d="M156.63,65.48a.91.91,0,0,0,1.17.39.85.85,0,0,0,.28-1.16,1,1,0,0,0-1.21-.37.83.83,0,0,0-.24,1.14"/><path class="cls-4" d="M168.75,59.83a4.17,4.17,0,0,0,5.74,1.91A4.11,4.11,0,0,0,176.28,56a4.54,4.54,0,0,0-5.93-2.28,4.47,4.47,0,0,0-1.6,6.1"/><path class="cls-6" d="M172,57.78a.88.88,0,0,0-1-.6.83.83,0,0,0-.5,1,.92.92,0,0,0,1.05.59.8.8,0,0,0,.46-1"/><path class="cls-7" d="M163.87,76.93a1.34,1.34,0,0,0-.07.18,3,3,0,0,0,5.51,2.38"/><path class="cls-9" d="M164.21,86.71s2.14,0,5.06.31a36.06,36.06,0,0,1,3.63.35c1.08.25-1.17,8.13-2.19,8.26-1.65.2-2.42-.9-4.71-2.63-1.55-1.17-3.45-2.88-3.45-2.88Z"/><path class="cls-9" d="M161,86.85c.2,0,.85,3.42,1,3.43l-1.61,1.89c-.73.85-5,5.11-5.25,5-1.72-.84-4.05-5.9-3.69-8.1.14-.91,6.74-2.24,9.52-2.19"/><path class="cls-9" d="M160.87,88.68c-.19-.07,1.4-2.47,1.2-2.54-3.71-1.45-10.1-4.71-13.82-5.19l-1.09,3.28Z"/><path class="cls-4" d="M161.85,99.5c-1.2,10.86-1.87,17.07-1.87,25.58"/><path class="cls-5" d="M161.85,99.5c-1.2,10.86-1.87,17.07-1.87,25.58"/><path class="cls-8" d="M196.64,64.35s12.43,3.33,12.75,4.59-.46,3-5.7,4.84a47.83,47.83,0,0,1-6.38,1.84s-.45-2.23-.79-4.65a36.29,36.29,0,0,1,.12-6.62"/><path class="cls-10" d="M160.3,88.21a2.51,2.51,0,0,0,2,3.11,2.79,2.79,0,0,0,.82-5.5,2.52,2.52,0,0,0-2.84,2.39"/><path class="cls-2" d="M150.25,111.46c3.57,1.38,2.49,5.05.15,2.47,1.19,2.06-1.43,3.63-2.3.82,0,0,.62,2.43-.51,2.58-1.41.19-2.29-4.53-2.29-4.53l2.18-2.71Z"/><path class="cls-4" d="M139.74,99.88c2.14-4.27,2.95-6,6.18-9.32,2.53-2.58,5.55,1.32,2.79,7.14-1.05,2.2-1.83,2.77-2.86,4.88-1.1,2.3,2.57,5.79,3.94,7.82a17,17,0,0,1-5.11,4c-2.92-2.69-6.93-10.53-4.94-14.51"/><path class="cls-5" d="M139.74,99.88c2.14-4.27,2.95-6,6.18-9.32,2.53-2.58,5.55,1.32,2.79,7.14-1.05,2.2-1.83,2.77-2.86,4.88-1.1,2.3,2.57,5.79,3.94,7.82a17,17,0,0,1-5.11,4C141.76,111.7,137.75,103.86,139.74,99.88Z"/><polygon class="cls-4" points="145.15 111.15 143.18 108.22 146.2 105.42 148.35 108.58 145.15 111.15"/><polygon class="cls-5" points="145.15 111.15 143.18 108.22 146.2 105.42 148.35 108.58 145.15 111.15"/><path class="cls-6" d="M145.61,108.83c.57.19.72,0,.87-.3a.63.63,0,0,0-1.11-.59.69.69,0,0,0,.24.89"/><path class="cls-1" d="M136.06,122.87s-12,7.14-20,3.46S103.15,107.64,111.73,96c10.68-14.52,6.15-28.88-6.52-28.79C96.82,67.25,91.88,79,94.72,84.8c3.64,7.47,11.82,5.81,14.19,2.11,2.12-3.29,2-7.36-1.76-8.5s-4.64,3-4.64,3"/><path class="cls-11" d="M269.34,90c-35.45,0-40.68,2.78-40.77,4.74-.17,3.27,18.31,6.23,41,6.61s41.31-2,41.23-5.23c-.06-2.47-18-6.12-41.48-6.12"/><path class="cls-12" d="M308,103.75c2-1.5,2.77-4.61,2.83-7.63,0-.33-.44-.75-.44-.75s-2.51,4.87-41.91,4.21c-36.12-.61-39.19-6.06-39.25-5.93-.36.16-.75.82-.66,1.09a6.34,6.34,0,0,0,2.35,7.13l2.44,9,72.1-.55Z"/><path class="cls-13" d="M308,104.88c2.19-1.66,2.94-5.5,2.83-8.76h0s-1.13,5.28-42.35,4.59c-36.12-.61-39.85-6.1-39.91-6-.51,1.3-1.68,4.9,2.35,8.26l-.56,9,.16,19c10.94,6.89,25,9.34,39.18,9.51,13.75.17,27.56-1.76,38.57-7.26l.19-21.84Z"/><path class="cls-14" d="M308.05,105.77c3.15-2.45,5.11-3.6,10.24-5.06,1.21-.35,2.44-.67,2.81-.41,2.54,1.74,5.45,6.67,5.43,7.21s-3.44,2-4.95,2.51a61,61,0,0,0-16.64,8.69c-.56.39-.56-3.25-.56-4,2.15-2.49,7.91-6,16.1-8.86l-2-2.81c-3.72.56-7.3,2.75-10.33,5.27"/><path class="cls-14" d="M230.79,105a46.1,46.1,0,0,0-13.58-4.24,1.52,1.52,0,0,0-1.41.59,27.07,27.07,0,0,0-4,7.79,1,1,0,0,0,.77,1.27A62.15,62.15,0,0,1,234,117.29c.38.22.57-.75.57-1.18v-2.5a1.14,1.14,0,0,0-.51-1c-4.74-3.08-14.08-5.6-17.42-6l1.75-3.3a.4.4,0,0,1,.47-.22,64.12,64.12,0,0,1,11.83,3.7"/><path class="cls-2" d="M248.43,44.18A5.13,5.13,0,0,0,244.79,42c-1.73-.25-2.51-.23-2.63.38-.19,1,1.54,1.06,1.54,1.06-3.16-.1-4,2.61-.44,2.1-2.89.68-2.18,3,.79,2l5.34-1.29Z"/><path class="cls-2" d="M283.07,78.06l1,5.35c.26,1.32,8.3,2.4,8.3,2.4,2-4.45,5.29-5,3.09-1,2.29-1.78,3.68-.17,1.14,2.18,2.57-1.11,2.32,2.71-2.13,2.28,0,0-13.69-.37-14.3-3.46l-1.48-7.6"/><path class="cls-2" d="M266.07,78.49a98.12,98.12,0,0,0-4,17.41c.28,5.74-4,4.76-3,1.48-2.51,4.55-5.27,1.85-2.82.06-4.28,3.19-4.8-2.34,1.53-2.81a78.73,78.73,0,0,1,3.74-14.9"/><path class="cls-4" d="M259.88,47.21A57.09,57.09,0,0,0,252,51.69a46.15,46.15,0,0,1-2-6,18.83,18.83,0,0,0-6.55,2.38c.78,3.34,3.31,7.8,4.84,10.88,1.07,2.16,8.24-2,11-4.54"/><path class="cls-5" d="M259.88,47.21A57.09,57.09,0,0,0,252,51.69a46.15,46.15,0,0,1-2-6,18.83,18.83,0,0,0-6.55,2.38c.78,3.34,3.31,7.8,4.84,10.88,1.07,2.16,8.24-2,11-4.54"/><path class="cls-4" d="M250.92,47l-3.79,1.68a6.88,6.88,0,0,0,1.07,3l3.44-1.89Z"/><path class="cls-5" d="M250.92,47l-3.79,1.68a6.88,6.88,0,0,0,1.07,3l3.44-1.89Z"/><path class="cls-4" d="M279.86,41.41c4.69-.68,10.74-1.53,15-.55.72.16,1.39,1.44,1.46,2.17a16.85,16.85,0,0,0,1.73,6.1l-4.49,4.07c-.49.43-.69-.24-1.06-.79a11.31,11.31,0,0,1-1.92-5.95l-8.9,3"/><path class="cls-5" d="M279.86,41.41c4.69-.68,10.74-1.53,15-.55.72.16,1.39,1.44,1.46,2.17a16.85,16.85,0,0,0,1.73,6.1l-4.49,4.07c-.49.43-.69-.24-1.06-.79a11.31,11.31,0,0,1-1.92-5.95l-8.9,3"/><polygon class="cls-4" points="296.81 44.06 293.06 46.45 294.12 50.13 297.61 47.31 296.81 44.06"/><polygon class="cls-5" points="296.81 44.06 293.06 46.45 294.12 50.13 297.61 47.31 296.81 44.06"/><path class="cls-2" d="M303.38,50.49c-.68-.38-.95-.06-2.31,1,1.75-2.45-.32-5.06-1.68,0,1.45-4.53-1.07-5.53-1.78-2l-4.07,3.38c1.79,2.25,6.46,3,8.41.92,0,0,2.66-2.61,1.43-3.3"/><path class="cls-3" d="M271.73,9.21A9.21,9.21,0,1,1,262.53,0a9.2,9.2,0,0,1,9.2,9.21"/><path class="cls-2" d="M261.65,48.78s2,3.45,8.16,3.25,10.83-8,10.83-8l.19-4.43a18.66,18.66,0,0,0,2.83-10.88A19.79,19.79,0,0,0,295.1,27c6-2.81,5.77-8.61,3.16-14.2s-15.12-12-20.58,3.1c-7.77-5.45-12.75-4.23-23.05,1.54-8.9,5-27.18,14.79-31.25,19.72-1.1,1.33,1.37,2.51,3.1,2.62,9.91.62,22.13,1.24,31.75,1.92l1.53,3.46Z"/><path class="cls-8" d="M230.41,31.32s-9.27,5.09-9,6.25,1.76,2.13,6.85,2.61c2.08.2,6,.2,6,.2a22.57,22.57,0,0,0-1-3.71,32.86,32.86,0,0,0-2.89-5.35"/><path class="cls-4" d="M280.64,42.06c1.54,10.72,6.89,25.44,9.18,41.55a116.24,116.24,0,0,1-34,2.16c.65-12.94,2.71-19.75,2.91-42.46l9.57,4.3Z"/><path class="cls-5" d="M280.64,42.06c1.54,10.72,6.89,25.44,9.18,41.55a116.24,116.24,0,0,1-34,2.16c.65-12.94,2.71-19.75,2.91-42.46l9.57,4.3Z"/><path class="cls-8" d="M290.62,22.41c-2.26,1.08-6.91.42-7.86-1.56s1.47-6,3.73-7.1,5.22.39,6.17,2.37.23,5.21-2,6.29"/><path class="cls-9" d="M268.63,44.45,276.09,60l-2.24,1.33a.87.87,0,0,1-1.27-.45c-.4-1.08-1-2.85-1.45-4.31a12.64,12.64,0,0,0-.47-1.3c-.8-1.85-1.8-7.93-2-10.8"/><path class="cls-9" d="M269.46,44.45l-4,13.24A1.56,1.56,0,0,0,265.7,59l.56.76a.88.88,0,0,0,1.41,0c.95-1.37,3.23-6.86,1.79-15.31"/><path class="cls-9" d="M269.74,43.83c5.5-1.85,9.54-4.24,11.66-2.7a35.46,35.46,0,0,1-1.11,10,1.35,1.35,0,0,1-2,.8l-9.08-5.37Z"/><path class="cls-9" d="M269.31,47.49c-3.88,4.47-7.18,5.68-9,5.54L258.17,43c-.17-.8.84-1.23,2.79-.91l7,1.31,2,1.24Z"/><path class="cls-4" d="M269.11,60.13a222.49,222.49,0,0,0-.4,24.43"/><path class="cls-5" d="M269.11,60.13a222.49,222.49,0,0,0-.4,24.43"/><path class="cls-6" d="M271.41,78.55a.72.72,0,1,1-.74-.7.72.72,0,0,1,.74.7"/><path class="cls-6" d="M271.25,71.92a.72.72,0,1,1-.74-.71.73.73,0,0,1,.74.71"/><path class="cls-6" d="M271.08,65.17a.72.72,0,1,1-.74-.7.72.72,0,0,1,.74.7"/><path class="cls-6" d="M250,49.41a.72.72,0,1,1-.74-.7.72.72,0,0,1,.74.7"/><path class="cls-6" d="M295.56,47.08a.72.72,0,1,1-.74-.71.72.72,0,0,1,.74.71"/><path class="cls-10" d="M271.52,45.61c0,1.59-1,2.88-2.21,2.88s-2.22-1.29-2.22-2.88,1-2.87,2.22-2.87,2.21,1.28,2.21,2.87"/><path class="cls-4" d="M274.33,25c-2.16,3.06-4.91,2.17-6.7.59s-1.36-4.53.22-6.31A4.32,4.32,0,1,1,274.33,25"/><path class="cls-6" d="M272.51,23.15a.77.77,0,0,1-1.12.19.84.84,0,0,1-.12-1.11.73.73,0,0,1,1-.19.86.86,0,0,1,.22,1.11"/><path class="cls-4" d="M261.88,16.54A4.1,4.1,0,0,1,257.24,20,3.89,3.89,0,0,1,254,15.4a3.89,3.89,0,0,1,4.4-3.49,4.09,4.09,0,0,1,3.47,4.63"/><path class="cls-6" d="M259.49,16.07a.69.69,0,0,1-.68.7.7.7,0,1,1,0-1.4.69.69,0,0,1,.68.7"/><path class="cls-6" d="M263.81,36.09c2.07.08,4.57-1.15,7.06-4.77,2.59,7.15-.88,10.12-7.06,4.77"/><path class="cls-1" d="M288.37,85.89c2.24,1.5,6.43,3.32,14.38.33,3.41-1.28,6.48-3.29,9.67-5s6.8-3.16,10.4-2.62c5.19.79,8.89,5.3,11.94,9.56s6.43,8.91,11.5,10.24c2.55.67,5.24.39,7.87.59s5.45,1,6.93,3.2a4.14,4.14,0,0,1,.72,3.15,2.77,2.77,0,0,1-2.22,2.19c-1.8.23-3.17-1.61-3.7-3.34a11.93,11.93,0,0,1,7.79-14.36"/><path class="cls-4" d="M34.93,52.35a4.13,4.13,0,0,0,1,5.93,4.08,4.08,0,0,0,5.86-1.07A4.52,4.52,0,0,0,41,50.93a4.45,4.45,0,0,0-6.11,1.42"/><path class="cls-6" d="M39,55.06a.78.78,0,0,0,.4,1,.74.74,0,0,0,.91-.47.83.83,0,0,0-.43-1,.71.71,0,0,0-.88.48"/></g></g></svg>