<svg xmlns="http://www.w3.org/2000/svg" viewBox="0 0 117.1 104.43"><defs><style>.cls-1,.cls-16,.cls-4{fill:none;stroke-linecap:round;}.cls-1,.cls-4{stroke:#dad8cc;}.cls-1{stroke-linejoin:round;}.cls-2{fill:#dad8cc;}.cls-3{fill:#fff;}.cls-4{stroke-width:0.28px;}.cls-5{fill:#fcc700;}.cls-6{fill:#f39200;}.cls-7{fill:#1b8a4f;}.cls-8{fill:#e4d5b8;}.cls-9{fill:#2fac66;}.cls-10{fill:#c4c0b4;}.cls-11{fill:#f3a5c2;}.cls-12{fill:#814114;}.cls-13{fill:#1d1d1b;}.cls-14{fill:#06607b;}.cls-15{fill:#a85318;}.cls-16{stroke:#1d1d1b;stroke-width:0.67px;}.cls-17{fill:#046f89;}</style></defs><g id="Capa_2" data-name="Capa 2"><g id="Capa_1-2" data-name="Capa 1"><path class="cls-1" d="M1.78,85.61c-3.39,3.16.77,6,3,5.26,7.48-2.31,9.74-15.59,18.89-13.79,3.34.66,5.87,3.16,8.75,4.79,2.09,1.19,9.74,3.1,12.31-2.6"/><path class="cls-2" d="M82.3,85.61l4,13.76c4.19-3.34,6.87,2.47,2.81,1.32,2.21,2.2-.75,4.36-3,1.26-.23,4-4.09,3-3-1.71-1.27-4.43-3.84-9.66-4.44-14.13,0-.32,3.78-.18,3.74-.5"/><path class="cls-3" d="M84.43,51.12c1,2.64,3.63,9.73,4.84,10.8a12.53,12.53,0,0,0,8.11,3.15,24.63,24.63,0,0,1-.09,7.25c-4.05.35-9.1-2.36-12.56-5.2-.14-.11-.16-15.88-.3-16"/><path class="cls-4" d="M84.43,51.12c1,2.64,3.63,9.73,4.84,10.8a12.53,12.53,0,0,0,8.11,3.15,24.63,24.63,0,0,1-.09,7.25c-4.05.35-9.1-2.36-12.56-5.2C84.59,67,84.57,51.24,84.43,51.12Z"/><path class="cls-5" d="M109.15,31.66a6.37,6.37,0,0,0,1.21,4.08c2.43,3.81-1.53,6.82-1.53,6.82-2.08-2.79-.64-8.14.32-10.9"/><path class="cls-6" d="M109.21,38.54a7.63,7.63,0,0,0,.38,1.71,3.49,3.49,0,0,1-.57,2.89c-.68-1.16-.15-3.43.19-4.6"/><path class="cls-7" d="M108.46,67.57c4.77,0,8.64.49,8.64,1.51s-3.87,1.84-8.64,1.84c-1.65,0-8.65-.27-8.65-1.84,0-1,3.87-1.51,8.65-1.51"/><path class="cls-8" d="M106.33,67.59c0-.27,3.93.1,3.92-.17-.13-14.22,0-17.76,0-25.76l-2.91-.33c-.7,9.69-1,17.16-1,26.26"/><path class="cls-9" d="M110.38,61s-1.38.14-2.08.14a19.52,19.52,0,0,1-2-.11l-.16,7.61s.33.5,2,.52,2.26-.45,2.26-.45Z"/><path class="cls-2" d="M103.41,65.83c.85,1.09-3.48,2.92-3.48,2.92s.6,1.15.62,1.07c.91-3.25,3.28-1.73,2.92,1.16.73-3.09,4.52-1.72,2.91,1-1.82,3.11-6.51,1.46-9-1-.22-.22.23-5,0-5.22,0,0,5.21-1,6.06.08"/><path class="cls-2" d="M48.77,96.89A12.5,12.5,0,0,1,55,91.36c3.87-1.29,6.73-2.38,8.84-6.26,0-.08,3.45.07,3.49,0a12.25,12.25,0,0,1-6.22,7.34c-3.2,1.31-8.47,2.83-8.1,3.91,0,0,3.43-.13,3.26,1.57s-2.92.56-2.92.56,2.23,1.79.77,2.54c-1.91,1-3.4-1.64-3.4-1.64s-.21,2.36-1.75,1.4c-1.14-.72-.91-2.64-.18-3.88"/><path class="cls-3" d="M53.94,73.71l-6.45-3.33a80.47,80.47,0,0,1,14.6-22.63,27.94,27.94,0,0,1,6.21-5.34l16.13,4.81C86.24,63,88,77,89.21,87.22c-8.75,1.73-25,3-34.8-1.8-.55-.27,8.14-25.94,8.55-28.19-4.06,5.87-5.73,9.84-9,16.48"/><path class="cls-4" d="M53.94,73.71l-6.45-3.33a80.47,80.47,0,0,1,14.6-22.63,27.94,27.94,0,0,1,6.21-5.34l16.13,4.81C86.24,63,88,77,89.21,87.22c-8.75,1.73-25,3-34.8-1.8-.55-.27,8.14-25.94,8.55-28.19C58.9,63.1,57.23,67.07,53.94,73.71Z"/><line class="cls-3" x1="77.87" y1="52.58" x2="78.32" y2="85.66"/><line class="cls-4" x1="77.87" y1="52.58" x2="78.32" y2="85.66"/><path class="cls-3" d="M54.24,65.6A12.53,12.53,0,0,0,52,69.44a11.18,11.18,0,0,1-4-1.68c.07-1.14,1.38-2.85,2-3.68.06-.08,4.2,1.6,4.27,1.52"/><path class="cls-4" d="M54.24,65.6A12.53,12.53,0,0,0,52,69.44a11.18,11.18,0,0,1-4-1.68c.07-1.14,1.38-2.85,2-3.68C50,64,54.17,65.68,54.24,65.6Z"/><path class="cls-10" d="M87.9,19.33s-7.45-3.76-7.72-4.77c-.8-3-1.81-9.52,3-13,.06-.05-.07,0,0,0,7.9-5.46,17.67,4.17,12.27,12.1-1.18,1.74-4.48,4.12-7.53,5.63"/><path class="cls-11" d="M89.44,12.65C90.58,11.38,91,9,89.37,7.8c-4.45-3.24-6.79,3.62-4.12,6.49.69.74,2.83-.12,4.19-1.64"/><path class="cls-12" d="M54.08,79.92s.56-3.71.12-4.29-3.62-1.94-4.52-2.42-3.44-1.78-4.2-1.64-2.29,4.89-2.29,4.89l1.42.5s.87-3.75,1.6-3.68,6.61,2.89,6.69,3.22-.14,3.12-.14,3.12Z"/><path class="cls-2" d="M52.76,72.93c0,5-2.77,4.81-2.79,1.84-.54,3.31-2.5,1.87-2.11-.4-1,1.37-3.82,1.08.08-3.63.05-.07,4.76,2.26,4.82,2.19"/><path class="cls-2" d="M52,16c1.42-5.44,5.49-7.82,10.32-6.56,3.51.92,5.92,2.51,6.44,5.94.21-.21.41-.43.64-.64,9.22-6.7,16.32-4,20.68,1.21,3.77,7.2,11,16.09,18.52,29.66.9,1.61,1.92,5.08.09,4.88-4.56-.49-16.24-5-20.61-6.15s-2-1.13-3.13.23c-.13-.24-17.5-3-17.63-3.3C67.81,38.54,64,30.43,64.06,27a8.52,8.52,0,0,1-6.85,1.22C52.38,26.9,50.61,21.48,52,16"/><path class="cls-13" d="M73.57,79.11a.72.72,0,0,0,.69.75.73.73,0,0,0,.75-.7.72.72,0,0,0-.7-.74.71.71,0,0,0-.74.69"/><path class="cls-13" d="M73.79,72.16a.73.73,0,0,0,.7.75.72.72,0,0,0,.74-.7.71.71,0,0,0-.69-.74.73.73,0,0,0-.75.69"/><path class="cls-13" d="M74,65a.73.73,0,0,0,.7.75.72.72,0,0,0,.74-.7.72.72,0,0,0-.69-.74A.72.72,0,0,0,74,65"/><path class="cls-3" d="M71.27,26.4a4.25,4.25,0,1,0,7-4.83c-1.58-2.25-4.37-3-6.23-1.72s-2.3,4.3-.72,6.55"/><path class="cls-3" d="M88.08,20.88c1.49,2.12,3.61,2.59,5.35,1.36a4.24,4.24,0,0,0,1.15-5.91,5.54,5.54,0,0,0-.77-.89,4.08,4.08,0,0,0-5.09-.72c-1.74,1.22-2.12,4-.64,6.16"/><path class="cls-3" d="M93.77,22.12c1.74-1.23,2.74-3.95,0-6.68"/><path class="cls-4" d="M93.77,22.12c1.74-1.23,2.74-3.95,0-6.68"/><path class="cls-13" d="M73.68,24.94a.81.81,0,0,0,1.08.2.73.73,0,0,0,.08-1.05.79.79,0,0,0-1-.27.74.74,0,0,0-.11,1.12"/><path class="cls-13" d="M90.8,19.29a.61.61,0,0,0,.9.18.72.72,0,0,0,.07-1,.64.64,0,0,0-.92-.18.71.71,0,0,0,0,1"/><path class="cls-14" d="M78,43.33l-10.51.93a14.37,14.37,0,0,0,1.23,5.64c.34.79,1.23,2.19,1.71,2.18l8.9-5.59Z"/><path class="cls-14" d="M78.5,46.28c2.47,2.76,3.7,4.6,6.85,6.94.51.38,1.08-.74,1.24-1.35a31.7,31.7,0,0,0,.92-7.26c.07-.67,0-.85-1.31-1.06-2.77-.45-5.06-.43-7.08-.66-.22,0-.41,3.45-.62,3.39"/><path class="cls-14" d="M79.61,45.94c.9,4.82,2.68,10.15,5.32,13.9.42.6-1.84,3-2.27,2.45-2.77-3.46-4.24-10.2-4.47-16.08,0-.21,1.43-.05,1.42-.27"/><path class="cls-14" d="M79,45.29c-1.42,5.38-3.63,12.62-6.24,17.83l-3-1.77c3.64-5.26,4.72-8.53,7-14.9.09-.25,2.08-.91,2.17-1.16"/><path class="cls-12" d="M35.56,92c3.66,1.68,10.4,3.34,15.72,4.65,3,.75,3.52-.29,4.54-3.26l2.6-7.56a4.73,4.73,0,0,0-3.07-6.05l-17.3-5.33a1.22,1.22,0,0,0-1.55.93L34,89a2.77,2.77,0,0,0,1.59,3"/><path class="cls-15" d="M48.21,77.06c-5.56-1.84-11.36-3.77-11.85-2.57C35.54,76.45,34,83,34,83c-.23.79.43,1.56,1.59,1.9,4.09,1.18,8.65,2.65,13.33,3.86,3.09.8,6.27,2,7.29.11,0,0,1.64-5.33,2-6.91s-4.71-3.13-10-4.88"/><path class="cls-14" d="M79.12,42.68c-4.34-.12-9.29-.84-12.34-2.22-.37,1.07-1.16,2.09-.79,3.6,2.24.31,8.69,1.29,11,.86.23,0,1.95-2.19,2.11-2.24"/><path class="cls-11" d="M57.71,15.78c-1.52,1.53-1.8,3.69-.27,5.21s3.83,1.16,5.54.46c2-.82,1.32-2.42.19-4.26s-3.94-2.94-5.46-1.41"/><path class="cls-16" d="M77.46,35.37a2.51,2.51,0,0,0,4.36,2.46"/><rect class="cls-5" x="42.91" y="83.77" width="3.92" height="6.05" transform="translate(-51.16 104.82) rotate(-73.29)"/><path class="cls-11" d="M105,39.54s-2.47,3.3-3.49,4.83-2.27,3.72-2.27,3.72,9.64,4,11.58,2.45c1.37-1.13-5.82-11-5.82-11"/><path class="cls-13" d="M49.83,66.92c0,.64.22.74.55.82a.68.68,0,0,0,.29-1.33.74.74,0,0,0-.84.51"/><path class="cls-17" d="M76.09,44.61a2.35,2.35,0,1,0,2.34-2.35,2.35,2.35,0,0,0-2.34,2.35"/></g></g></svg>