<svg xmlns="http://www.w3.org/2000/svg" viewBox="0 0 372.28 137.43"><defs><style>.cls-1{fill:#0d181c;}.cls-12,.cls-16,.cls-2,.cls-3,.cls-4,.cls-9{fill:none;stroke-linecap:round;}.cls-2,.cls-3,.cls-4{stroke:#fff;}.cls-16,.cls-2,.cls-3,.cls-4{stroke-linejoin:round;}.cls-3{stroke-width:0.82px;}.cls-4{stroke-width:0.98px;}.cls-5{fill:#fff;}.cls-6{fill:#2fac66;}.cls-7{fill:#dad8cc;}.cls-8{fill:#c4c0b4;}.cls-16,.cls-9{stroke:#dad8cc;}.cls-9{stroke-width:0.28px;}.cls-10{fill:#e30613;}.cls-11{fill:#1d1d1b;}.cls-12{stroke:#1d1d1b;stroke-width:0.67px;}.cls-13{fill:#f3a5c2;}.cls-14{fill:#fcc700;}.cls-15{fill:#f39200;}.cls-17{fill:#06607b;}.cls-18{fill:#046f89;}</style></defs><g id="Capa_2" data-name="Capa 2"><g id="Capa_1-2" data-name="Capa 1"><path class="cls-1" d="M287.64,105.9c-1.43-29-.44-57.54-1.55-72.36-38,.46-66.81-.76-108.79,1.23l-.48,72.55"/><path class="cls-2" d="M194.42,65.25s4.9,22.14,5.37,22.14,29.83-8.56,29.83-8.56c-1.16-8.11-2.58-15.68-4.87-21.4A18.39,18.39,0,0,0,216.89,53Z"/><path class="cls-2" d="M194.42,65.25l26.71-6.75c2.27-.56,2.75,1.53,3.07,2.76,0,0,2.82,12.8,2.83,15.89,0,1.81-2.59,3.19-2.59,3.19"/><path class="cls-2" d="M254,65.36c.55,5.87-3.2,9.89-7.19,10.64s-7.37-3-7.25-7.92,3.24-9.83,7.22-10.58S253.53,60.51,254,65.36Z"/><line class="cls-2" x1="247.12" y1="69.42" x2="252.53" y2="78.52"/><path class="cls-2" d="M266.57,88.62c-.65-8.51.52-15.08,1.42-22.58"/><path class="cls-2" d="M261.21,81.6a25.28,25.28,0,0,0,8.46,0"/><path class="cls-2" d="M267,67.36c.8,1.46.05,3.43-2.08,4.59s-4.7.52-5.6-1.27c-.76-1.48.28-3.58,2.41-4.75S266.28,65.31,267,67.36Z"/><path class="cls-2" d="M212.64,71.93a3.5,3.5,0,0,1-1.41,4.49c-2.28,1.15-3.66-.06-4.4-1.48a3.3,3.3,0,0,1,5.81-3Z"/><path class="cls-3" d="M218.23,75.51a1.5,1.5,0,1,1-1.49-1.68A1.59,1.59,0,0,1,218.23,75.51Z"/><path class="cls-4" d="M204.77,83.3a1.34,1.34,0,0,1-1.56,1.31A1.3,1.3,0,0,1,202,83a1.54,1.54,0,0,1,1.62-1.5C204.36,81.61,204.87,82.3,204.77,83.3Z"/><polygon class="cls-5" points="209.35 106.76 209.23 103.42 223.07 103.18 223.07 106.79 209.35 106.76"/><polygon class="cls-5" points="246.11 106.63 245.98 103.3 259.82 103.05 259.82 106.66 246.11 106.63"/><path class="cls-6" d="M288.31,111.65c-48.69,2.09-64.08,1.73-111.49,1.91a1,1,0,0,1-.92-.66,18,18,0,0,1-.19-6.64.6.6,0,0,1,.6-.52c45.46.29,68.22,0,112.49-1.56a1,1,0,0,1,1.09,1,28.51,28.51,0,0,1,0,4.53c-.21,1.33.06,1.72-1.57,1.9"/><path class="cls-7" d="M296.37,61.49a4.17,4.17,0,0,0,3.6,3.08,18.46,18.46,0,0,0,2.44-2c-4.05-3.71-6.48-2.77-6-1"/><polygon class="cls-7" points="295.28 67.81 303.37 69.29 303.62 62.04 299.13 62.35 295.28 67.81"/><path class="cls-8" d="M335.68,12.53C331,1.18,351.35-6.32,354.92,7.4c-2.32,19.37-17.91,7.22-19.24,5.13"/><path class="cls-7" d="M360.21,5.59c-5.92,0-9.12,3.27-9.79,8.78h0c-3.91-2-8.09-2.22-16.8-1-17.17,2.32-45.32,6.8-51.86,8.09-1.91.38,4.86,7.14,8.67,9.35,14.72,8.57,34.84,14.14,44.88,19l-3.09,22.49L354,49.8c.24-1.12-.9-4.34-.59-5.83,4.67-6.33,5.43-14.67,5.58-14.67,6.38,0,12.06-1.71,13.2-10.4.8-6.06-5.62-13.31-12-13.31"/><path class="cls-7" d="M349.43,109.29c-1.43,8.37-1.79,15.85-.37,21.81a2.82,2.82,0,0,1-.37,2.23c-3,4.48-6.61,4.45-5.14.19-2.47,3-6.47,1.33-2.65-2.07,0,0-3.72,2-3.72-.17s6.26-1.86,6.26-1.86l.5-19.77a8.44,8.44,0,0,1,5.49-.36"/><path class="cls-7" d="M349.43,109.29c-1.43,8.37-1.79,15.85-.37,21.81a2.82,2.82,0,0,1-.37,2.23c-3,4.48-6.61,4.45-5.14.19-2.47,3-6.47,1.33-2.65-2.07,0,0-3.72,2-3.72-.17s6.26-1.86,6.26-1.86l.5-19.77a8.44,8.44,0,0,1,5.49-.36"/><path class="cls-7" d="M332.2,109.85l-.44,21c.37,3.61-3.31,3.61-3.46,1.32-1.25,2.58-5.07,1.18-2.5-1.32-4.79,1-4.79-2.41-.47-2.77a1.85,1.85,0,0,0,1.66-1.37c1.1-4.41,1.35-10.31,1-17.26Z"/><path class="cls-7" d="M332.2,109.85l-.44,21c.37,3.61-3.31,3.61-3.46,1.32-1.25,2.58-5.07,1.18-2.5-1.32-4.79,1-4.79-2.41-.47-2.77a1.85,1.85,0,0,0,1.66-1.37c1.1-4.41,1.35-10.31,1-17.26Z"/><path class="cls-5" d="M356.61,55.78c0-.38-5.17-.55-9.06,3.22-.29.27-15.17,13.46-15.33,13.29-1.91,9.62-5.05,25.92-6,39.51,7.43,1.57,20.13.89,31.21-.06-1-4.69.27-38.81-.78-56"/><path class="cls-9" d="M356.61,55.78c0-.38-5.17-.55-9.06,3.22-.29.27-15.17,13.46-15.33,13.29-1.91,9.62-5.05,25.92-6,39.51,7.43,1.57,20.13.89,31.21-.06C356.42,107.05,357.66,72.93,356.61,55.78Z"/><path class="cls-5" d="M330.16,53.5c-4.24,18.91-7.53,37.17-10.28,56a24.12,24.12,0,0,0,7.29,2.5c.19,0,5.58-35.37,7.1-42.51.22-1-4.14-16-4.11-16"/><path class="cls-9" d="M330.16,53.5c-4.24,18.91-7.53,37.17-10.28,56a24.12,24.12,0,0,0,7.29,2.5c.19,0,5.58-35.37,7.1-42.51C334.49,68.44,330.13,53.5,330.16,53.5Z"/><path class="cls-5" d="M329.06,56.25c-10.51,3.25-19.8,4.29-26.47,5.72,0,0-1.75,5-.18,8.83,9.65-.73,15.9-2.43,24.67-5.25"/><path class="cls-9" d="M329.06,56.25c-10.51,3.25-19.8,4.29-26.47,5.72,0,0-1.75,5-.18,8.83,9.65-.73,15.9-2.43,24.67-5.25"/><path class="cls-5" d="M311.12,70.21s-4.84.74-4.84.69a17.9,17.9,0,0,1,.87-6.51l4.47-.54a17.83,17.83,0,0,0-.5,6.36"/><path class="cls-9" d="M311.12,70.21s-4.84.74-4.84.69a17.9,17.9,0,0,1,.87-6.51l4.47-.54A17.83,17.83,0,0,0,311.12,70.21Z"/><path class="cls-10" d="M299.8,66.19c0-1,.25-2.81.25-2.81L259,60.71l-.3,2Z"/><path class="cls-5" d="M354,49.8,334.2,68.74l.84-17-5.3,1.16a.85.85,0,0,0-.59,1.2l1.54,3.24c.4.83.27,1.36-.19,1.64l-2.17,1,5.28,12.88L351,62.7l-2.56-4L357,56.25c.42-.19-3-6.45-3-6.45"/><path class="cls-9" d="M354,49.8,334.2,68.74l.84-17-5.3,1.16a.85.85,0,0,0-.59,1.2l1.54,3.24c.4.83.27,1.36-.19,1.64l-2.17,1,5.28,12.88L351,62.7l-2.56-4L357,56.25C357.46,56.06,354,49.8,354,49.8Z"/><path class="cls-11" d="M327.63,39.45c3.11,8,9,4.24,7.8-2.42-1.85,2.87-5.18,4.22-7.8,2.42"/><path class="cls-12" d="M338.43,22.46c1.69-.91,2.86-2.09,3-3.81"/><path class="cls-12" d="M340.3,26c1.91.12,3.53-.26,4.55-1.65"/><path class="cls-12" d="M340.12,23.89c1.84-.52,3.24-1.42,3.74-3.08"/><path class="cls-13" d="M363.87,20.63a6.76,6.76,0,0,1-7.41,1.55c-1.54-.79-1.72-3.77-.35-6.12a4.46,4.46,0,0,1,6.21-1.61c3.14,2.13,2.9,4.25,1.55,6.18"/><path class="cls-7" d="M292.82,66.36c-.28-3.84,2.78-3.94,2.67-.48,1.2-3.43,3.32-2.89,3.34.32,1-3.15,4-.06,1.74,2.82-1.52,1.92-7.48.12-7.75-2.66"/><path class="cls-13" d="M290.43,30.77s.89-2.91,1.49-5.81c.37-1.77,1-5.53,1-5.53S281.21,20,280,22.18c-.83,1.55,10.4,8.59,10.4,8.59"/><path class="cls-11" d="M309,66.41c.29-.58.56-.54.89-.44a.65.65,0,0,1,.4.83.66.66,0,0,1-.8.47.75.75,0,0,1-.49-.86"/><path class="cls-11" d="M331.78,103.64a.72.72,0,1,1-.65-.78.71.71,0,0,1,.65.78"/><path class="cls-11" d="M332.89,96.27a.72.72,0,1,1-.65-.78.71.71,0,0,1,.65.78"/><path class="cls-11" d="M334.33,88.88a.72.72,0,0,1-.78.65.72.72,0,1,1,.13-1.43.72.72,0,0,1,.65.78"/><path class="cls-11" d="M335.64,80.75A.72.72,0,1,1,335,80a.72.72,0,0,1,.65.78"/><path class="cls-7" d="M354.12,80.9s-7.75,3.1-2.3,3.86c-1.54.45-1.55,3.49.93,2.12,0,0-.85,4.6,4.29-.38,0,0-3-5.56-2.92-5.6"/><path class="cls-5" d="M357,69.3c.81,1.29,3.28,4.6,2.15,5.62l-5.74,5.77a19.07,19.07,0,0,0,3.65,7.12,55.41,55.41,0,0,0,11.11-10.15c1.85-2.3.25-5.13-.71-6.76C364,65,361.85,62.33,357,56.25"/><path class="cls-9" d="M357,69.3c.81,1.29,3.28,4.6,2.15,5.62l-5.74,5.77a19.07,19.07,0,0,0,3.65,7.12,55.41,55.41,0,0,0,11.11-10.15c1.85-2.3.25-5.13-.71-6.76C364,65,361.85,62.33,357,56.25"/><path class="cls-5" d="M364.88,82.65c-1.65-1.6-2.83-3-3.21-5L358.37,80a12.33,12.33,0,0,0,3,5.63,28.1,28.1,0,0,0,3.51-3"/><path class="cls-9" d="M364.88,82.65c-1.65-1.6-2.83-3-3.21-5L358.37,80a12.33,12.33,0,0,0,3,5.63A28.1,28.1,0,0,0,364.88,82.65Z"/><path class="cls-11" d="M360.05,80.49c.28-.57.56-.54.89-.44a.68.68,0,0,1-.4,1.3.73.73,0,0,1-.49-.86"/><path class="cls-5" d="M342.18,25.5a5.43,5.43,0,0,1-5.24,5.11,4.55,4.55,0,0,1-4.44-5.11c.36-2.65,2.16-4.84,4.84-4.84a4.84,4.84,0,0,1,4.84,4.84"/><path class="cls-11" d="M337,25.24a.83.83,0,0,1-.8.74.72.72,0,0,1-.72-.72.94.94,0,0,1,.82-.86.77.77,0,0,1,.7.84"/><path class="cls-10" d="M137.09,70.59c2,4,2.18,10.6,2.13,15.24-.34,11-2.17,13.74-7.53,13.78L132.44,73l.11-3.63Z"/><path class="cls-14" d="M101.33,70.92,99,98.3c14.56,2.42,30.28,3.28,35,.6,1.39-.79,2.64-3,3.31-9.07,1.29-11.59-.17-21.07-5.6-20.88Z"/><path class="cls-15" d="M127.12,79.05a3.12,3.12,0,0,1-6.24-.19c.05-1.73,1.51-3.51,3.23-3.46s3.06,1.93,3,3.65"/><path class="cls-15" d="M112.45,81.31a1.68,1.68,0,1,1-1.63-1.74,1.68,1.68,0,0,1,1.63,1.74"/><path class="cls-15" d="M120.19,90.09A2.2,2.2,0,1,1,115.8,90a2.2,2.2,0,1,1,4.39.14"/><path class="cls-15" d="M132.09,90.12a2.46,2.46,0,1,1-2.38-2.54,2.45,2.45,0,0,1,2.38,2.54"/><path class="cls-15" d="M109.53,92a2.37,2.37,0,1,1-4.74-.15,2.38,2.38,0,1,1,4.74.15"/><path class="cls-10" d="M135.09,70.6c-6.75-1.11-19.48-.23-33.77.32l26.28-7.14a30.09,30.09,0,0,1,9.49,6.81c-.65-.2-1.16.15-2,0"/><path class="cls-16" d="M183.35,116.81c6.61,3.93,12.18,9.55,22.54,12.47,11.53,3.26,20.21-1.41,20.24-5.89a4.69,4.69,0,0,0-1.46-3.59,3.09,3.09,0,0,0-3.7-.32,3.33,3.33,0,0,0-.78,4,7,7,0,0,0,3.23,3,16.67,16.67,0,0,0,16-.39c2.26-1.33,4.17-3.2,6.38-4.62,2.64-1.69,6.48-3,9.18-.7,1.92,1.61,2.81,4.82.35,6.39-1.3.83-3.44.28-3.73-1.37a2,2,0,0,1,1.41-2.27"/><path class="cls-7" d="M160.33,114.46l-.18,15c2.73,4.43-2.23,5-1.56,2.72-1.08,3.69-3.84,3.23-3.32.41-2.81,1.48-3.89-1.15.19-2.25a1.41,1.41,0,0,0,1-1.18c.65-5.49.24-11.3-.23-17.59a4.29,4.29,0,0,1,4.05,2.9"/><path class="cls-7" d="M175.33,113.14c.66,8.21,5,12.68,11.08,13.44.61.08.71.88.72,1.5.05,4.31,3.53,3.42,2.27.15,1.25,3.26,3.93,1.27,1.55-1.79,2.1,2.71,4.69-3.26-2.24-3.43a9.69,9.69,0,0,1-2.72-.46,10.38,10.38,0,0,1-7.49-9.61s-1.17-.82-3.17.2"/><path class="cls-5" d="M159.91,118a23,23,0,0,1-7-1.92,238.71,238.71,0,0,1,10.24-43.87l2.65.08Z"/><path class="cls-9" d="M159.91,118a23,23,0,0,1-7-1.92,238.71,238.71,0,0,1,10.24-43.87l2.65.08Z"/><path class="cls-5" d="M180.13,71l6.19,44.92c-8.62,4.32-20.09,2.68-29.79,1.63,1.27-16.26,3.81-28,6.5-45.33Z"/><path class="cls-9" d="M180.13,71l6.19,44.92c-8.62,4.32-20.09,2.68-29.79,1.63,1.27-16.26,3.81-28,6.5-45.33Z"/><path class="cls-17" d="M159.61,77.87a39.25,39.25,0,0,0,2.27,12.83c-1,.17-2.91.7-3.8.29-.62-2.62-.36-8.87-.25-12.47,0-.15,1.78-.51,1.78-.65"/><path class="cls-8" d="M186,41.27c-2.57,6.52-3.84,7.74-8.67,7.59s-8.08-1.15-8.83-8.42c-.5-4.81,4.54-9.25,9.38-9.1s10.77,4.09,8.12,9.93"/><path class="cls-7" d="M197.62,47.33c-.59-3.35-2.26-8-6.54-9.24-8.5-2.48-12.07,4.28-12.71,7.06l-.61-.72c-10.89-6.31-30.13.27-56.45,7.48-1.27.35-3.81,2.81-2.68,3.48,10.68,6.32,24.47,8.51,37.66,12.92a2.13,2.13,0,0,1,1.44,2.09l-.08,3.2,7.16,9.12c-3.73-7.19,14.92-4.46,15.66-9,.35-1.13-.15-2.37.18-4.33,3-3.64,4.26-7.4,4-11.24,4.65.39,7.68-.53,9.63-1.82,2.49-1.65,3.9-6,3.37-9"/><path class="cls-12" d="M163.27,46.24a12.92,12.92,0,0,0,6.43,7.52"/><path class="cls-12" d="M163.91,47.86a5.82,5.82,0,0,0-2.49,1.91"/><path class="cls-12" d="M165.22,50.09a5.73,5.73,0,0,0-2.49,1.9"/><path class="cls-12" d="M168.15,52.82a5.63,5.63,0,0,0-2.49,1.91"/><path class="cls-13" d="M191.71,48.8c.37,2.29-1.33,3.59-3.61,4s-4.31-.34-4.67-2.62a4.19,4.19,0,0,1,8.28-1.34"/><path class="cls-17" d="M181.33,71.69l0,4c-4.88,2.86-11.37,2.9-18.61,1.6l-1.08-2.69c6.84,1.27,13.44-.2,19.71-2.92"/><path class="cls-17" d="M159.07,74.06l9.35,1.35a21.81,21.81,0,0,1-3.91,10.42l-7.37-8.93Z"/><path class="cls-17" d="M150.44,73.68s-.69,6.41.27,8.76l8.93-4.66.09-2.83-1.06-.65Z"/><path class="cls-7" d="M145.05,82.17s-6.52-4.18-8.19-1.67c-1.18,1.78,2.32,2.29,2.32,2.29s-2.41.45-2.44,1.43,2.36,1.22,2.36,1.22-1.34,1-.94,1.66c.74,1.21,7.08-.81,7.08-.81l2-2.22Z"/><path class="cls-5" d="M143.29,80.35,168.5,83c2.76.29,3.69,4.4,1.06,5.31-6.49,2.23-16,2.09-27.2-.18-1.33-.27.7-7.25.93-7.79"/><path class="cls-9" d="M143.29,80.35,168.5,83c2.76.29,3.69,4.4,1.06,5.31-6.49,2.23-16,2.09-27.2-.18C141,87.87,143.06,80.89,143.29,80.35Z"/><path class="cls-10" d="M118.29,46.57c-11.54-12.78-5.21-19,.28-11.53,6.24-7.61,10.21,0,.64,11.51a.62.62,0,0,1-.92,0"/><path class="cls-13" d="M127.59,59.9s.16-2.62.1-5.17a40.4,40.4,0,0,0-.57-4.48s-9.46,2-10,4c-.39,1.47,10.48,5.6,10.48,5.6"/><path class="cls-5" d="M150.47,90a10.38,10.38,0,0,1,.05-3.84,9.91,9.91,0,0,0-3.72-.56c-.45.87-.26,2.72-.16,3.61,0,.09,3.81.7,3.83.79"/><path class="cls-9" d="M150.47,90a10.38,10.38,0,0,1,.05-3.84,9.91,9.91,0,0,0-3.72-.56c-.45.87-.26,2.72-.16,3.61C146.65,89.31,150.45,89.92,150.47,90Z"/><path class="cls-11" d="M147.79,87.61c.26-.49.49-.45.77-.36a.59.59,0,0,1-.37,1.11.63.63,0,0,1-.4-.75"/><path class="cls-11" d="M162.12,110a.62.62,0,0,1-.69.54.63.63,0,0,1-.54-.7.61.61,0,0,1,.69-.53.62.62,0,0,1,.54.69"/><path class="cls-11" d="M161.23,103.24a.62.62,0,1,1-.53-.69.61.61,0,0,1,.53.69"/><path class="cls-11" d="M162,96.62a.63.63,0,0,1-.7.54.61.61,0,0,1-.53-.69.62.62,0,1,1,1.23.15"/><path class="cls-16" d="M.5,132.8a10.83,10.83,0,0,0,16.33-.56,4.65,4.65,0,0,0,1.2-3.3,2.39,2.39,0,0,0-2.48-2.14,2.26,2.26,0,0,0-1.81,1.92,4,4,0,0,0,.68,2.65,7.57,7.57,0,0,0,8.4,3c2.69-.84,4.6-3.08,6.76-4.85s5.24-3.13,7.75-1.85a16,16,0,0,1,3.11,2.71,10.89,10.89,0,0,0,10.32,1.92,13.79,13.79,0,0,0,7.92-7A19.56,19.56,0,0,0,60.48,115"/><path class="cls-7" d="M63.18,114.41c.54,7.79.44,13-.29,17.68a11.33,11.33,0,0,0-.37,3.14c.94,3,4.11,2.72,3,.34,2,2.65,4.6.45,2.33-1.71,0,0,2.72,1.63,2.78-.26s-3.49-1.6-3.49-1.6l.1-17a5.53,5.53,0,0,0-4.07-.57"/><path class="cls-7" d="M78.21,115.37,78,133.48c-.42,3.09,2.75,3.19,2.93,1.23,1,2.25,4.34,1.15,2.19-1.07,4.09,1,4.19-1.94.49-2.38a1.6,1.6,0,0,1-1.4-1.22c-.82-3.82-.88-8.9-.41-14.87Z"/><path class="cls-8" d="M80.21,41.38a9.4,9.4,0,1,1-18.78-.59c.17-5.39,4.49-8.76,9.67-8.6s9.28,3.81,9.11,9.19"/><path class="cls-7" d="M60.1,73V71.39c-.68-1.17-3-3.62-2.94-6.58a14.71,14.71,0,0,1-3.87,1.33c-5.63,1-10.11-2.76-11.07-8.2s1.95-10.51,7.57-11.51a17.68,17.68,0,0,1,11.34,2.29l.15-.5c7.26-9.35,25.34-2.42,49.43,2.71,2.25.48,3.64,1.34,6,1.78,1.33.24,2.54,1.62,1.36,2.29-8.9,5-23.08,9-34.72,15.08a11.31,11.31,0,0,0,.6,4.76s-3.15,7.52-8.81,8.59C64.59,85.4,60.1,73,60.1,73"/><path class="cls-5" d="M78.7,119.31c2,.63,6.78-.44,8.71-1.61.64-.39.33-31.24-5.36-40.53-1.18,15.64-4.58,30.14-3.35,42.14"/><path class="cls-9" d="M78.7,119.31c2,.63,6.78-.44,8.71-1.61.64-.39.33-31.24-5.36-40.53C80.87,92.81,77.47,107.31,78.7,119.31Z"/><path class="cls-5" d="M60.91,75.36c-2.8,16-6,29.05-7.29,42.87a81,81,0,0,0,28.44,1.22c-.12-9.46,1.18-29.11-1-42.16a53.32,53.32,0,0,1-20.18-1.93"/><path class="cls-9" d="M60.91,75.36c-2.8,16-6,29.05-7.29,42.87a81,81,0,0,0,28.44,1.22c-.12-9.46,1.18-29.11-1-42.16A53.32,53.32,0,0,1,60.91,75.36Z"/><path class="cls-17" d="M81.51,80.35A34,34,0,0,1,78.5,92c1,.23,2.85.88,3.76.53a63.55,63.55,0,0,0,1.9-12.4c0-.15-2.67.32-2.65.18"/><path class="cls-7" d="M96.43,85.42s3.73-4,4.87-2.88-.87,3-.87,3,2.3-.93,2.7-.18c.7,1.31-1.7,2.52-1.7,2.52s2.13.37,1.88,1.45c-.41,1.75-6.26.67-6.26.67Z"/><path class="cls-12" d="M76.33,51.13a11.39,11.39,0,0,1-6.67,5"/><path class="cls-17" d="M60,72s-2.46,4.69,23.19,3.52l-1.33,3.37A69.16,69.16,0,0,1,59.2,77.07Z"/><path class="cls-5" d="M97,83.23C90.8,85.68,81.62,86.37,73,87a2.42,2.42,0,0,0-.71,4.66c6.6,2.6,19.4,1.62,25.86-.81Z"/><path class="cls-9" d="M97,83.23C90.8,85.68,81.62,86.37,73,87a2.42,2.42,0,0,0-.71,4.66c6.6,2.6,19.4,1.62,25.86-.81Z"/><path class="cls-5" d="M92.12,90.28a.29.29,0,0,1-.57,0,.29.29,0,1,1,.57,0"/><path class="cls-13" d="M58.66,57.59c-.35,2.2-4.25,4.28-6.45,3.94S48.64,58.27,49,56.07a4,4,0,0,1,4.62-3.36c2.2.34,5.4,2.68,5.06,4.88"/><path class="cls-5" d="M74.9,53.09A5.16,5.16,0,0,0,77.05,55"/><path class="cls-12" d="M74.9,53.09A5.16,5.16,0,0,0,77.05,55"/><path class="cls-5" d="M73.33,54.34a7.25,7.25,0,0,0,1.79,2.5"/><path class="cls-12" d="M73.33,54.34a7.25,7.25,0,0,0,1.79,2.5"/><line class="cls-5" x1="70.85" y1="55.68" x2="72.17" y2="58.62"/><line class="cls-12" x1="70.85" y1="55.68" x2="72.17" y2="58.62"/><path class="cls-17" d="M81.83,76.13l-8.67,1c-.51.06-1,.42-1,.93.05,2.28.31,7.62,1.35,8.94,0,0,7.92-4.32,9-8Z"/><path class="cls-17" d="M82.85,76.05a19.56,19.56,0,0,1,6.39-1.14s.6,2.44.79,3.26c.33,1.48,1.23,6,1.23,6C88,83.46,85,82,83.29,79.19Z"/><path class="cls-13" d="M108.53,59.86s-.16-2.62-.07-5.17a38.78,38.78,0,0,1,.59-4.48s9.45,2,10,4.11c.39,1.48-10.5,5.54-10.5,5.54"/><path class="cls-5" d="M90,89a19.6,19.6,0,0,1,.93,4,9.71,9.71,0,0,0,3.71-.58,9.19,9.19,0,0,0-.75-3.83c0-.08-3.84.47-3.89.39"/><path class="cls-9" d="M90,89a19.6,19.6,0,0,1,.93,4,9.71,9.71,0,0,0,3.71-.58,9.19,9.19,0,0,0-.75-3.83C93.86,88.48,90.06,89,90,89Z"/><path class="cls-11" d="M93.43,91c-.1.55-.33.58-.63.57a.56.56,0,0,1-.53-.59.58.58,0,0,1,.56-.58.63.63,0,0,1,.6.6"/><path class="cls-11" d="M80.58,111.15a.62.62,0,1,1-.6-.63.61.61,0,0,1,.6.63"/><path class="cls-11" d="M80.66,104.58a.62.62,0,1,1-.6-.64.62.62,0,0,1,.6.64"/><path class="cls-11" d="M80.74,97.92a.62.62,0,0,1-1.24,0,.62.62,0,1,1,1.24,0"/><path class="cls-18" d="M84.79,77.68a2,2,0,1,1-2.24-2.18,2.25,2.25,0,0,1,2.24,2.18"/><path class="cls-18" d="M160.56,76.22a2.5,2.5,0,0,1-2.72,2.25c-1.38,0-2.11-1.33-2.07-2.71a2.5,2.5,0,0,1,2.58-2.42c1.38,0,2.25,1.5,2.21,2.88"/></g></g></svg>