<?xml version="1.0" encoding="utf-8"?>
<!-- Generator: Adobe Illustrator 26.2.1, SVG Export Plug-In . SVG Version: 6.00 Build 0)  -->
<svg version="1.1" id="Capa_1" xmlns="http://www.w3.org/2000/svg" xmlns:xlink="http://www.w3.org/1999/xlink" x="0px" y="0px"
	 viewBox="0 0 249.6 123.1" style="enable-background:new 0 0 249.6 123.1;" xml:space="preserve">
<style type="text/css">
	.st0{fill:#A1BD43;}
	.st1{fill:#F8E12E;}
	.st2{fill:#945B19;}
	.st3{fill:#A886B1;}
	.st4{fill:#FFFFFF;}
	.st5{fill:#211915;}
	.st6{fill:none;stroke:#DB9600;stroke-width:0.75;stroke-linecap:round;stroke-linejoin:round;}
	.st7{fill:#DB9600;}
	.st8{fill:#C58021;}
	.st9{clip-path:url(#SVGID_00000018959481144725692260000005322567200928797366_);}
	.st10{fill:#111419;}
	.st11{clip-path:url(#SVGID_00000062906708880540093500000001965382829677682341_);}
	.st12{fill:none;stroke:#211915;stroke-width:0.77;stroke-linecap:round;stroke-linejoin:round;}
	.st13{opacity:0.6;}
	.st14{clip-path:url(#SVGID_00000162352429649213010340000009441638721359490963_);}
	.st15{clip-path:url(#SVGID_00000041263197386174086150000010053140238793703811_);}
	.st16{clip-path:url(#SVGID_00000040544502320763804420000017907916902287815069_);}
	.st17{fill:#D7D7CE;}
	.st18{clip-path:url(#SVGID_00000080175191505528035950000017554460965499210139_);}
	.st19{clip-path:url(#SVGID_00000096028133201643363620000008916072406036540802_);}
	.st20{clip-path:url(#SVGID_00000021806311457856214310000002669039089622374588_);}
</style>
<g id="Capa_2_00000017517692971389611250000006261874485789433517_">
	<g id="Capa_1-2">
		<path class="st0" d="M64.5,71c0,0-10.3,11.4-19.9,11.1s-18.3-5.1-18.3-5.1s9.8-10.9,16.9-12C50.8,63.8,58.7,65.9,64.5,71"/>
		<path class="st0" d="M80.2,59.9c0,0-9.6-12-7.9-21.4s7.9-17.3,7.9-17.3s9.2,11.4,9.2,18.5C89.5,47.5,86.2,54.9,80.2,59.9"/>
		<path class="st1" d="M205,70.4c3.9-4.5,10.3-10,7.7-24c-3.7-19.9-19-19.1-20.8-19.9c-3.1-4.6-9.1-2.5-9.1,2.2
			c0,3.1-12.6,4-8.3,22.5c4.5,19.5,20.4,17.5,22.5,21.3S205.2,73.9,205,70.4"/>
		<path class="st0" d="M171.8,26.5c0,0-3.3,15-11.7,19.6c-8.4,4.6-18.4,4.7-18.4,4.7s3.1-14.3,8.7-18.8
			C156.3,27,164.2,25,171.8,26.5"/>
		<path class="st0" d="M91.9,46.4c0,0,16.2-5.5,25.4-0.1c9.2,5.4,15,14.8,15,14.8s-15.4,5.3-22.8,2.6
			C101.3,60.8,94.8,54.5,91.9,46.4"/>
		<path class="st0" d="M40,110.8c0,0,12.9-23.8,29.4-27.5s33.5,1,33.5,1S90.6,107,79,111.9C66.5,117.4,52.2,116.9,40,110.8"/>
		<path class="st2" d="M249.6,106.4c0,0-48.3-12.7-61.2-15.7c-14.5-3.4-33.9-9.1-33.9-9.1s-9.1-20.4-16.4-34.3
			c-8.4-15.7-8.7-17.3-10.4-18.1c-2.2-1-9.8,1.4-8.9,3.6c3.6,8.8,8,12.9,12.3,22.9c7.3,16.8,9.9,23.3,9.9,23.3s-26.3-7.6-37.8-10.3
			s-37.6-12.8-42-11.8s-3.5,7.7-3.5,7.7s3.2,1.4,11.1,4s56.1,19.4,68,22.6c24.6,6.6,112.9,31.9,112.9,31.9L249.6,106.4z"/>
		<path class="st3" d="M177.3,16.2c-15.6-1.5-53.2-2.3-71.1-0.4c-9.8,1-14.9,6.5-14.9,16.8c0,8.5,4,16,13.2,16.8
			c10.3,0.9,39.8,0.9,42.3,0.9c-0.3,1.3-0.7,2.5-1.3,3.7c-1.8,3.8-5.7,8-5.7,8s4.6-0.3,9.5-6c1.3-1.7,2.2-3.6,2.6-5.7
			c11.5-0.2,20.1,0.9,28.6-1.3c8.7-2.2,9.5-12.6,9.5-17.7C189.9,24.5,187.8,17.2,177.3,16.2"/>
		<path class="st4" d="M114.1,53.9c1.3,0.1,2.3,1.2,2.5,2.5c0.2,1.8-2,5.2-4.8,3c-0.8-0.7-1.1-1.8-1-2.9
			C111.1,54.8,112.5,53.7,114.1,53.9"/>
		<path class="st5" d="M112.4,56.2c0,0.3,0.1,0.5,0.3,0.5c0.2,0.1,0.5-0.1,0.5-0.3c0,0,0,0,0,0c0-0.2,0-0.5-0.3-0.6
			C112.7,55.8,112.4,55.9,112.4,56.2"/>
		<path class="st6" d="M130.9,50.9c0.5,0.4,1.2,0.3,1.7-0.1c0.4-0.5,0.5-1.1,0.2-1.7c-0.3-0.6-0.8-1-1.4-1.1
			c-2.1-0.6-4.1,1.3-5.2,2.9c-1.2,1.6-2.2,3.3-3.1,5"/>
		<path class="st6" d="M120.8,55c0.6-1.5,1.1-3,1.4-4.5c0.5-1.7,0.8-3.5,0.9-5.3c0-1-0.5-2-1.3-2.6c-1-0.6-2.2-0.2-2.8,0.8
			c-0.4,0.7-0.3,1.6,0.1,2.2"/>
		<path class="st7" d="M207.5,82.4c3.3-1.6,6.3-4,8.7-6.8c-1.1,4-3.3,6.9-7.6,8.2C208.8,83.7,207.3,82.4,207.5,82.4"/>
		<path class="st7" d="M208.6,85.1c4.3,0.5,8.6-0.8,11.9-3.6c-0.8,4.3-6.4,6.5-12.4,5.1C207.9,86.6,208.8,85.1,208.6,85.1"/>
		<path class="st6" d="M134.3,69.5c-0.6,3.6-2.1,7.6-4.8,10.1"/>
		<path class="st6" d="M145,73.8c-0.4,3.9-1.9,5.8-4.4,8.5"/>
		<path class="st6" d="M156.8,77.4c0.3,3.8-0.8,5.9-3.2,8.7"/>
		<path class="st6" d="M167.2,79.7c0.1,3.8-1.3,7.4-4,10"/>
		<path class="st6" d="M175.6,83.3c-0.1,3.7-1.2,5.9-3.6,8.8"/>
		<path class="st6" d="M186.6,84.1c0.1,3.9-1,6-3.1,9"/>
		<path class="st6" d="M198.8,86c0.9,3.7,0.1,6-1.9,9.1"/>
		<path class="st6" d="M206.1,83.9c1.6,3.4,1.6,7.3,0.1,10.8"/>
		<path class="st8" d="M209.3,83.7c-1.2-1.6-5.6-3.2-7.2-2.2c-1.5-1.3-4.2-1.5-7-0.9c-2.1-1.4-5.8-2.6-8.1-1.6
			c-2.5-2-5.7-2.9-8.9-2.4c-1.6-1.9-6.2-3.5-9.6-2.9c-1.2-2.3-6.9-4.7-9.5-4.1c-2.6-2.7-6.2-3.5-8.4-2.8c-2.8-2-7-3.1-7.9-1.6
			c0-1.7-4.6-4.1-8.2-3.2c-1.5-1.4-3.6-2.1-5.7-1.8c0,0-7.5-7.2-12.2-5.1s-8.7,8-6.1,11.9c2.8,4.1,11.7-0.3,16.7,1.9
			c1.9,1.1,4,1.4,6.1,1.1c1.4,1.7,5.8,3.7,8.6,3.3c2.1,1.6,4.9,2,7.4,1.1c2.3,2.2,5.4,3.3,8.6,3.1c2.3,2,5.5,2.8,8.9,3.2
			c1.4,1.4,5.8,4.6,10.7,3.9c2.8,2.4,6.7,2.9,8.8,2c3,1.8,7,1.9,8.8,0.4c2.3,1.9,7.1,1.8,7.4,0.3c2,1.4,5.6,0.4,6.9-1
			C210.6,85.4,210,84.6,209.3,83.7"/>
		<g>
			<defs>
				<path id="SVGID_1_" d="M116.7,55c-4.7,2.1-8.7,8-6.1,11.9c1.6,2.3,5.1,1.9,8.8,1.6c2.8-0.3,5.8-0.6,8,0.4c1.9,1.1,4,1.4,6.1,1.1
					c1.4,1.7,5.8,3.7,8.6,3.3c2.1,1.6,4.9,2,7.4,1.1c2.3,2.2,5.4,3.3,8.6,3.1c2.3,2,5.5,2.8,8.9,3.2c1.4,1.4,5.8,4.6,10.7,3.9
					c2.8,2.4,6.7,2.9,8.8,2c3,1.8,7,1.9,8.8,0.4c2.3,1.9,7.1,1.8,7.4,0.3c2,1.4,5.6,0.4,6.9-1c1-1,0.4-1.8-0.3-2.7
					c-1.2-1.6-5.6-3.2-7.2-2.2c-1.5-1.3-4.2-1.5-7-0.9c-2.1-1.4-5.8-2.6-8.1-1.6c-2.5-2-5.7-2.9-8.9-2.5c-1.6-1.9-6.2-3.5-9.6-2.9
					c-1.2-2.3-6.9-4.7-9.5-4.1c-2.6-2.7-6.2-3.5-8.4-2.8c-2.8-2-7-3.1-7.9-1.6c0-1.6-4.6-4.1-8.2-3.2c-1.5-1.4-3.6-2.1-5.7-1.8
					c0,0-5.7-5.5-10.2-5.5C118,54.6,117.4,54.8,116.7,55"/>
			</defs>
			<clipPath id="SVGID_00000132780900209722655850000010620660367609558676_">
				<use xlink:href="#SVGID_1_"  style="overflow:visible;"/>
			</clipPath>
			<g style="clip-path:url(#SVGID_00000132780900209722655850000010620660367609558676_);">
				<path class="st7" d="M128.9,60.1c0-0.1,1.9-1.9,3.5-1.4c1.3,0.3,2.2,3.3,2.2,3.3c0.7,2.7,0.3,5.6-1.1,8c0.1-0.1-2.6,2.9-4.2,2.5
					s-2-3.6-1.9-3.6C128.8,66.1,129.3,63.1,128.9,60.1"/>
				<path class="st7" d="M142.8,64.4c1.3-0.8,2.8-1.1,4.3-0.9c2.1,0.3,3.6,3.3,3.6,3.2c0.6,2.2-0.2,5.7-1.5,8.5
					c-1.3,0.5-2.7,0.5-4,0c-1.1-0.4-2.2-0.9-3.2-1.6C142.9,70.7,143.2,67.6,142.8,64.4"/>
				<path class="st7" d="M159.1,68.8c2.4-0.4,4.9-0.2,7.2,0.4c2.4,0.9,1.9,1.5,1.8,1.4l0.5,1.4c-0.1,3.1-0.7,8-2.3,9.8
					c0-0.1-3.2,1.3-5.4,0.1c-1.9-1.1-3.1-4.1-3.1-4.2C158.9,74.8,159.2,71.8,159.1,68.8"/>
				<path class="st7" d="M184.6,76c-2.1-0.6-4.3-0.7-6.4-0.5c0.2,2.3,0,7.5-0.7,9.8c0.4,1.4,1.4,2.6,2.6,3.5
					c2.1,1.2,5.5-0.2,5.5-0.1c1.4-1.8,1.9-6.3,1.5-9.4C186.9,77,184.4,76,184.6,76"/>
				<path class="st7" d="M198.7,77.9c-2.6-0.3-3.8,0.9-3.8,0.9c0.7,2.2,0.5,7.6,0.3,9.9c-0.1,1.2,0.7,2.3,1.9,2.6
					c2.3,0.8,5-1.3,5-1.2c1-2,1.1-5.8,0.1-8.8C201.3,79.3,198.5,77.9,198.7,77.9"/>
			</g>
		</g>
		<path class="st4" d="M114.7,60.8c-0.3,1.7,0.7,3.4,2.4,3.7c1.7,0.3,3.3-0.8,3.6-2.5c0,0,0,0,0,0c0.3-1.7-0.8-3.4-2.6-3.8
			C116.6,58,115,59.1,114.7,60.8C114.7,60.8,114.7,60.8,114.7,60.8"/>
		<path class="st5" d="M117.2,61c-0.1,0.3,0.1,0.5,0.4,0.6c0,0,0,0,0.1,0c0.3,0.1,0.5-0.1,0.6-0.4c0,0,0,0,0,0
			c0-0.3-0.1-0.5-0.4-0.6C117.5,60.6,117.2,60.7,117.2,61C117.2,61,117.2,61,117.2,61"/>
		<path class="st4" d="M97.8,66.4c2.5,0,4.5,2,4.5,4.5c0,0,0,0.1,0,0.1c-0.1,1.7-0.9,3.3-2.3,4.4c-0.3,0.3-6.3-6.5-6.5-6.3
			C94,67.3,95.7,66.4,97.8,66.4"/>
		<path class="st10" d="M100.5,74.3c-4.9-4.2-7.3-6.9-12.2-8c-7.6-1.7-14.2,13.5-9,20.6C90.6,92.5,120.8,91.7,100.5,74.3"/>
		<path class="st10" d="M81.1,69.9c0,0-1.6-8.1-15-7.3C52,63.5,50,72.4,50,72.4s-1.7,5,1.7,12.7c10.8,6.9,27.8,1.7,27.8,1.7
			C88.4,84.9,81.2,69.9,81.1,69.9"/>
		<path class="st10" d="M51.7,85.1c-9.5,15.6-36.8,20.3-43.7,25.7c-0.5,0.3-1.1,0.2-1.4-0.3c-0.1-0.1-0.1-0.2-0.1-0.3
			C2.3,76.7,28.3,58.7,50,72.4C50.2,72.5,51.5,85,51.7,85.1"/>
		<g>
			<defs>
				<path id="SVGID_00000125588383791552661590000013071171198437327240_" d="M6.4,110.2c0.1,0.5,0.6,0.9,1.2,0.8
					c0.1,0,0.2-0.1,0.4-0.1c6.9-5.4,34.2-10.1,43.7-25.7C51.5,85,50.1,72.5,50,72.4c-4.5-3-9.8-4.6-15.2-4.7
					C17.9,67.8,3.3,84.4,6.4,110.2"/>
			</defs>
			<clipPath id="SVGID_00000060027812291865588340000017074650881025287574_">
				<use xlink:href="#SVGID_00000125588383791552661590000013071171198437327240_"  style="overflow:visible;"/>
			</clipPath>
			<g style="clip-path:url(#SVGID_00000060027812291865588340000017074650881025287574_);">
				<path class="st1" d="M20.1,70.8c0,0.2,11-3.4,11-3.2c-0.1,8.9,5,19,10.2,28.6c0.7,1.3-8.4,4.7-8.2,4.5
					C26.7,92.2,22.2,80.7,20.1,70.8"/>
				<path class="st1" d="M41.7,64c0,0.2,11.4-1.3,11.4-1.1c-1.8,8.7,1.3,19.6,4.7,30c0.5,1.4-9.2,3-8.8,2.9
					C44.1,86.2,41.9,74.1,41.7,64"/>
				<path class="st1" d="M1.7,82.5c0,0.2,10.3-5.1,10.3-4.8c1.2,8.8,7.8,18.1,14.4,26.7c0.9,1.2-7.6,5.9-7.4,5.7
					C11.3,102.7,5.2,92,1.7,82.5"/>
			</g>
		</g>
		<path class="st12" d="M40.4,93.3c2.3-3.5,6.7-1.1,5.6,14.4c1.9,0.1,3.6,0,5.7,0.2"/>
		<path class="st12" d="M54.5,85.9l1.3,0.1c1.1,0.1,3,1.9,3.4,6c0.5,5.4,0.2,14.9,0.2,14.9c1.5-0.7,3.1-0.9,4.7-0.6"/>
		<path class="st12" d="M70.7,87.1c2.8,0,4.6,5.2,5.4,16.4c1.6-0.6,3.3-0.9,5-0.9"/>
		<g class="st13">
			<g>
				<defs>
					<rect id="SVGID_00000128465544981633550000000010852834076687725191_" x="19.7" y="32.1" width="44.4" height="43.4"/>
				</defs>
				<clipPath id="SVGID_00000124130935554115920190000013015068032598379139_">
					<use xlink:href="#SVGID_00000128465544981633550000000010852834076687725191_"  style="overflow:visible;"/>
				</clipPath>
				<g style="clip-path:url(#SVGID_00000124130935554115920190000013015068032598379139_);">
					<g>
						<defs>
							<rect id="SVGID_00000119840019017376893280000010982002830368677261_" x="19.7" y="32.1" width="44.4" height="43.4"/>
						</defs>
						<clipPath id="SVGID_00000011725164254696789330000005934534586922866879_">
							<use xlink:href="#SVGID_00000119840019017376893280000010982002830368677261_"  style="overflow:visible;"/>
						</clipPath>
						<g style="clip-path:url(#SVGID_00000011725164254696789330000005934534586922866879_);">
							<g>
								<defs>
									<rect id="SVGID_00000104692848584553207310000015751620762271252873_" x="19.7" y="32.1" width="44.4" height="43.4"/>
								</defs>
								<clipPath id="SVGID_00000003088848698104434800000002385513171983902362_">
									<use xlink:href="#SVGID_00000104692848584553207310000015751620762271252873_"  style="overflow:visible;"/>
								</clipPath>
								<g style="clip-path:url(#SVGID_00000003088848698104434800000002385513171983902362_);">
									<path class="st17" d="M59.8,75.1c-11.2-6.4-19.3-11.9-33.3-23.3c-1.9-1.6-4.2-2.7-5.1-5.8c-1.2-4.3-4.3-15.2,2.9-13.8
										c8.6,1.7,36,23.7,39.6,38.4c0.3,1.1,0.3,2.2,0.1,3.3C63.5,75.4,61.2,75.9,59.8,75.1"/>
								</g>
							</g>
						</g>
					</g>
				</g>
			</g>
		</g>
		<path class="st12" d="M76.5,87.5c2.4,2.6,4.2,6.6,5.3,12.6c1.3-0.5,2.7-0.7,4.1-0.4"/>
		<g class="st13">
			<g>
				<defs>
					<rect id="SVGID_00000158728505679704949260000001460884691811104921_" x="36.5" y="20.1" width="31.9" height="43.3"/>
				</defs>
				<clipPath id="SVGID_00000035511051576123833600000008427333946142667918_">
					<use xlink:href="#SVGID_00000158728505679704949260000001460884691811104921_"  style="overflow:visible;"/>
				</clipPath>
				<g style="clip-path:url(#SVGID_00000035511051576123833600000008427333946142667918_);">
					<g>
						<defs>
							<rect id="SVGID_00000082346360649625497540000014299374628085110169_" x="36.5" y="20.1" width="31.9" height="43.3"/>
						</defs>
						<clipPath id="SVGID_00000171697774871323103930000013160082778116084665_">
							<use xlink:href="#SVGID_00000082346360649625497540000014299374628085110169_"  style="overflow:visible;"/>
						</clipPath>
						<g style="clip-path:url(#SVGID_00000171697774871323103930000013160082778116084665_);">
							<g>
								<defs>
									<rect id="SVGID_00000010308536451560024440000009608933052906976412_" x="36.5" y="20.1" width="31.9" height="43.3"/>
								</defs>
								<clipPath id="SVGID_00000150060786606298585010000007416867052152315290_">
									<use xlink:href="#SVGID_00000010308536451560024440000009608933052906976412_"  style="overflow:visible;"/>
								</clipPath>
								<g style="clip-path:url(#SVGID_00000150060786606298585010000007416867052152315290_);">
									<path class="st17" d="M46.3,22.4c3.5,1.7,6.5,4.4,8.3,7.9c5.4,10.4,10.1,21.2,13.8,32.3L61,63.4L36.7,24
										C35.5,17,44.2,21.3,46.3,22.4"/>
								</g>
							</g>
						</g>
					</g>
				</g>
			</g>
		</g>
		<path class="st4" d="M83.6,78.7c0,2.6,2.1,4.6,4.6,4.6c0,0,0,0,0,0c2.4-0.1,4.3-2.1,4.2-4.5c0-0.1,0-0.2,0-0.2
			C92.3,76,90.2,74,87.6,74C85.1,74.1,83.6,76.1,83.6,78.7"/>
		<path class="st5" d="M88.7,77.4c0,0.4,0.3,0.8,0.8,0.8c0,0,0,0,0,0c0.4,0,0.6-0.3,0.6-0.7c0,0,0-0.1,0-0.1c0-0.4-0.3-0.7-0.7-0.7
			C89,76.7,88.7,77,88.7,77.4C88.7,77.4,88.7,77.4,88.7,77.4"/>
		<path class="st5" d="M98.6,69.4c0,0.4,0.3,0.6,0.7,0.6c0.3,0,0.6-0.3,0.6-0.6c0-0.4-0.3-0.6-0.7-0.6
			C98.8,68.8,98.6,69.1,98.6,69.4C98.6,69.4,98.6,69.4,98.6,69.4"/>
		<path class="st12" d="M90.2,51.9c0,0-6.8-6.3-4.2,14.7"/>
		<path class="st12" d="M78.5,50.5c-0.7-0.1-1.3-0.1-2,0.1c-1.1,0.4-1.7,1.6-1.3,2.7c0,0.1,0.1,0.2,0.1,0.3
			c1.9,3.5,5.5,10.7,6.3,16.1"/>
		<path class="st4" d="M95.2,86c1.2,0.4,2.6,0.4,3.8,0c0.6-0.3,1.2-0.7,1.7-1.1c0,0-0.1,2.5-1.3,3.1C97,89,95.2,86,95.2,86"/>
	</g>
</g>
</svg>
