<?xml version="1.0" encoding="utf-8"?>
<!-- Generator: Adobe Illustrator 26.2.1, SVG Export Plug-In . SVG Version: 6.00 Build 0)  -->
<svg version="1.1" id="Capa_1" xmlns="http://www.w3.org/2000/svg" xmlns:xlink="http://www.w3.org/1999/xlink" x="0px" y="0px"
	 viewBox="0 0 196.6 96" style="enable-background:new 0 0 196.6 96;" xml:space="preserve">
<style type="text/css">
	.st0{fill:#A886B1;}
	.st1{fill:#211915;}
	.st2{fill:#6F4714;}
	.st3{fill:#C58021;}
	.st4{fill:#DB9600;}
	.st5{fill:#945B19;}
	.st6{fill:#FFFFFF;}
	.st7{fill:none;stroke:#211915;stroke-width:0.7;stroke-linecap:round;stroke-linejoin:round;}
	.st8{fill:none;stroke:#C58021;stroke-width:0.88;stroke-linecap:round;}
	.st9{fill:#111419;}
	.st10{fill:#5C564F;}
</style>
<g id="Capa_2_00000012447609324892735000000009443442026565253810_">
	<g id="Capa_1-2">
		<path class="st0" d="M22,1.2c16-1.6,30.8-1.5,49-0.4C81.2,1.4,85.5,7.5,85.5,18c0,8.8-3.1,15.8-12.4,17.1
			c-5.3,0.7-25.2,1.2-37,1.1c0.3,1.3,0.8,2.6,1.3,3.8c1.4,2.7,3.1,5.2,5.1,7.4c-3.2-1-6.1-2.9-8.3-5.5c-1.5-1.7-2.6-3.7-3.3-5.8
			c-3.8-0.1-7.6-0.5-11.3-1.3C10.7,32.5,8.3,23.3,8.3,18.1C8.3,11.3,11.3,2.2,22,1.2"/>
		<path class="st1" d="M136.4,23.8c-0.5,0.2-0.8-0.8-1.1-1.4c3.4-5.3,8.1-9.9,14.3-9.4c-3.4,1.1-6,2.3-8.6,4.9
			C139.3,19.7,137.7,21.7,136.4,23.8"/>
		<path class="st1" d="M130.9,20.5c0.6-4.9,3.1-12.3,8-14.7c-1.6,2.1-3,4.4-4.1,6.9c-1.1,2.8-1.8,5.8-2.1,8.8
			C132,21,131,21.4,130.9,20.5"/>
		<path class="st2" d="M163.3,56c2.3,4.8,3,25.2,3.4,28.8c0.4,4.1,0,4.9,2,5.1c3.4,0.2,5.6,1.9,1.1,2c-1.7,0.1-3.6,0.5-5.2-0.2
			c-0.8-4.3-1.3-10.6-1.9-16.8c-0.3-2.7-0.1-14-2.2-15.4c-4.2-3.2-10.5,8.6-12.9,10.8c-1.9,1.8-5.5,4.3-5.3,0.3c0.1-2.2,2.7-5,4-6.6
			C147.4,62.7,159.3,47.8,163.3,56"/>
		<path class="st2" d="M166.2,79.2c0.7,0.2,1.4,0.4,2,0.8c0.3,0.2,0.5,0.3,0.7,0.6c-0.4-0.2-0.9-0.3-1.4-0.3c-0.5,0-0.4,0.3-0.4,0.3
			c0.4,0.1,0.9,0.3,1.2,0.5c0.4,0.3,0.7,0.6,1,1c-0.6-0.3-1.2-0.5-1.8-0.7c-0.6-0.1-0.6,0.2-0.6,0.2c0.7,0.3,1.4,0.7,2,1.2
			c0.2,0.3,0.5,0.6,0.6,0.9c-0.6-0.5-1.3-0.8-2.1-1c-1.3-0.3-1.5,0.1-1.5,0.1L166.2,79.2z"/>
		<path class="st2" d="M178.6,73.7c4.9-0.7,9.6-2,13.6-5.1c-2.4,6.3-8.6,6.8-13.7,7.6c3.2,2.2,12.8,0.4,17-0.9
			c-2.7,3.3-8,3.9-10.7,3.9c-2,0-5.5-0.2-7.1-1.4C175.6,76.2,175.9,74.1,178.6,73.7"/>
		<path class="st2" d="M113,43.1c2.7,2,4.5,2.1,7.2,2.7c1.3,0.3,0.7,0.1,1.2,1.4c0.7,2.5,2.7,8,3.4,10.6c1.2,4.4,2.6,10.1,5.7,14.3
			c1.7,2.3,8.8,7.4,11.6,8.7c4,1.9,11.8,3.7,17.3,3.1c6.2-0.7,12.2-2.9,17.4-6.5c1.5-0.9,2.5-2.4,3.1-4c0.6-2-4.1-3.9-5.5-4.9
			c-1.6-1.2-8.6-5-9.7-5.9c-3-2.5-12.6-11.9-14.6-14.6s-3.1-6.3-4.9-9.2c-1.5-2.5-2.8-5.2-4.5-7.6c-0.5-0.9-1.2-1.6-2-2.3
			c-1-7-4.9-8.8-7.9-9.3c-4.1-0.9-9.8,2.6-13.3,4.4C108.8,28.8,102.3,39.6,113,43.1"/>
		<path class="st3" d="M135.3,45.9c2.1,5.3,9.6,20.9,19.3,26.4c4.2,2.1,8.7,3.3,13.4,3.5c2.6,0.2,10.2,1,12.4-1.4
			c2.2-2.8-7.7-7.7-10-9.4c-4.9-3.9-13.6-9.9-17.5-14.9c-5.1-6.6-7.1-11.5-8.5-13C142.8,35.5,134.2,43,135.3,45.9"/>
		<path class="st4" d="M120.8,48c6.9-3.6,13.3-8,19.2-13.1c0.5-0.5,1.1-1.1,1.6-1.5c1.2-0.8,0.8-0.7,1.9,0.2c1.5,1.2,2.6,2.9,2,4.5
			s-2.9,2.6-4.2,3.7c-3.5,3.3-15.4,9.7-17.1,10.1c-1.4,0.4-1.6,0.6-2.1-0.5C121.5,50.3,121.1,49.2,120.8,48"/>
		<path class="st5" d="M167.5,57.5c3.1,4.7,6.8,26.3,7.7,30.1c1,4.3,0.7,5.2,2.9,5.1c3.7-0.3,6.2,1.2,1.5,2
			c-1.8,0.4-3.8,1.1-5.5,0.5c-1.4-4.4-2.9-11.1-4.4-17.5c-0.7-2.8-2.1-14.8-4.5-16c-4.9-2.8-9.9,10.6-12.1,13.3
			c-1.8,2.2-5.2,5.4-5.6,1.1c-0.2-2.4,2.1-5.6,3.3-7.6C151.7,66.9,162.2,49.4,167.5,57.5"/>
		<path class="st5" d="M127.7,57.9c-6,0-8.8-2-13.8-5.3c-2.6-1.8-3.2-2.9-5.2-0.1c-1.2,1.6-2.8,5.1,0.4,4.3c0.8-0.2,0.6-2.2,1.8-2.4
			c1-0.2,7.3,4.3,9.6,4.9c2.2,0.7,4.4,0.9,6.7,0.8C129.4,59.7,131.4,57.9,127.7,57.9"/>
		<path class="st6" d="M128.5,23.9c-4.6,4.3,0.6,11.2,5.8,6.3C138.7,25.9,132.4,20.3,128.5,23.9"/>
		<path class="st5" d="M134.9,69.2c-1.9,4-7.6,7.5-14.7,5.2c-2.6-1-5.6-2.1-6.9,1.5s-0.5,4.3,0.2,4.6c1.2,0.6,1.7-1.1,2.9-4.4
			c2.8,0.2,5.9,1.7,9,1.7c7.3,0.1,14.8-8.6,13.3-11.2C137.3,64.2,135.9,67,134.9,69.2"/>
		<path class="st7" d="M113.5,43.1c1.1,0.2,2.2,0.2,3.2-0.1c1.5-0.4,2.9-1.2,3.9-2.5"/>
		<path class="st1" d="M129.7,25.5c-0.4,0.1-0.7,0.4-0.7,0.8c0,0.4,0.3,0.7,0.7,0.8c0,0,0,0,0.1,0c0.5,0,0.9-0.4,0.8-0.9
			c0,0,0,0,0,0C130.5,25.7,130.1,25.4,129.7,25.5C129.7,25.5,129.7,25.5,129.7,25.5"/>
		<path class="st5" d="M173.9,81.7c0.8,0.1,1.5,0.3,2.3,0.5c0.3,0.1,0.6,0.3,0.9,0.5c-0.5-0.1-1-0.2-1.5-0.1
			c-0.5,0.1-0.4,0.4-0.4,0.4c0.5,0.1,0.9,0.2,1.4,0.4c0.4,0.3,0.9,0.6,1.2,0.9c-0.7-0.2-1.3-0.3-2-0.4c-0.6-0.1-0.6,0.3-0.6,0.3
			c0.8,0.2,1.6,0.5,2.3,1c0.3,0.2,0.6,0.5,0.8,0.9c-0.7-0.4-1.5-0.7-2.3-0.7c-1.4-0.1-1.6,0.3-1.6,0.3L173.9,81.7z"/>
		<path class="st8" d="M126.3,63.7c6.3,0.3,11.9-3,15.7-7.1"/>
		<path class="st8" d="M136.1,77c6.8,0,12.4-4.8,14.9-10.1"/>
		<path class="st8" d="M154.9,84c4.1-1.5,7.7-8.2,7.7-14"/>
		<path class="st9" d="M36.7,69c-2.6-2.3-4.5-4.8-7.3-6.6c-0.7-0.4-1.5-0.2-2,0.3c-2.9,3.7-6.1,7.2-9.4,10.5l-0.7-0.6
			c-1.1-1-2.7,0.7-1.6,1.7l1.5,1.4c0.4,0.4,1.2,0.4,1.6,0c3.5-3.4,8.9-10.5,9.8-10.8s4.4,4.4,7.5,6.4C37.2,72,38.2,70.3,36.7,69"/>
		<path class="st9" d="M39,61.1c-1.1-1-7.2-9.7-9.9-8.6c-2.1,0.9-3.7,3.3-5.1,5c-2.1,2.6-4.9,4.4-7.5,6.5c-0.6-0.4-1.1-0.8-1.8-1.2
			c-0.6-0.2-1.3,0.1-1.5,0.6c-0.2,0.5,0,1,0.4,1.4c0.8,0.4,1.4,0.9,2.1,1.5c0.4,0.4,1.2,0.4,1.6,0c2.3-2,5.1-3.6,7.2-5.8
			c1.5-1.6,2.8-3.5,4.4-5.1c2.3-2.2,7.2,6.6,9,7.7C39.2,63.9,40.1,62.1,39,61.1"/>
		<path class="st9" d="M93.6,55.5c-0.1,0.6-0.2,1.1-0.2,1.7c-2.1-1.6-4.2-3.4-6.1-5.3c-2.1-1.8-4-3.6-5.9-5.6
			c-0.6-0.6-1.5-0.7-2.1-0.1c0,0,0,0,0,0c-2.5,3-4.7,6.2-6.7,9.6c-0.8,1.2,1.2,2.4,2,1.1c1.7-2.6,4.9-8.2,5.5-8.5s4.2,3.8,6.4,5.7
			c2.4,2.1,4.4,4.3,7.2,5.9c0.6,0.3,1.3,0.1,1.6-0.5c0-0.1,0.1-0.2,0.1-0.3c0.2-1.1,0.4-2.1,0.5-3.2C96,54.6,93.8,54.1,93.6,55.5"/>
		<path class="st9" d="M92.2,66.7c-0.4,0.5-0.7,1-1.1,1.5c-2.7-3.2-4.6-7.1-8-9.7c-0.9-0.7-2.2-1.5-3.3-0.9c-1.8,0.9-3.6,3.4-4.8,5
			c-0.9,1.2,0.8,2.8,1.6,1.6s2.2-2.3,3.3-3.6c1.5-1.9,4.2,1.9,5.1,3.1c1.8,2.4,3.3,5,5.5,7.2c0.5,0.4,1.2,0.4,1.6,0
			c0.1-0.1,0.1-0.1,0.2-0.2c0.5-0.8,1-1.5,1.6-2.3C94.7,67.1,93,65.5,92.2,66.7"/>
		<path class="st10" d="M54.6,48.8C38.4,50,35.8,62.1,36,69.3c0.1,2.3,2,11.6,10.3,15.3c5,2.2,17.3,3.3,23.2-2.9
			c4.2-4.4,7.1-10.1,6.9-16.2c-0.3-11.2-10-17-19.7-16.8L54.6,48.8z"/>
		<path class="st9" d="M43.5,81c-4.5,0.6-8.6,3.3-12.6,5.3c-0.4,0.3-0.6,0.8-0.5,1.3c0.8,1.9,1.9,3.5,2.8,5.3
			c-1.1,0.9-2.6,2.4-1.7,2.9c1.3,0.8,2.7-0.9,3.7-1.6c0.5-0.4,0.7-1,0.4-1.6c-0.8-1.7-1.8-3.2-2.7-4.8c3.3-1.8,6.8-4,10.5-4.5
			C45,83,44.9,80.7,43.5,81"/>
		<path class="st9" d="M38.1,76.1c-1.4-0.6-2.7-1.3-4-2.2c-1.1-0.6-2.6-1.8-3.9-1.6c-2,0.3-2.6,2.1-3.1,3.9c-0.8,3-1.8,6-3.1,8.9
			c-0.6-0.3-1.2-0.5-1.9-0.6c-0.4-0.3-0.9-0.3-1.3-0.1l-0.3,0.1c-0.5,0.4-0.7,1.1-0.3,1.6c0.2,0.3,0.6,0.5,0.9,0.5
			c1,0.1,1.9,0.4,2.8,0.9c0.6,0.3,1.2,0.1,1.5-0.4c1.2-2.7,2.3-5.5,3.2-8.3c0.4-1.2,0.6-2.5,1.1-3.6s1.9,0,2.6,0.4
			c1.3,0.7,6,4.2,6.8,2.1C39.7,76.8,39,76.4,38.1,76.1"/>
		<path class="st9" d="M90.2,81l-1.5,1.2c-0.9-1.7-3.4-10.1-4.4-13.1c-0.6-1.7-1.5-2.2-2-2c-3.4,1.2-6.5,3.1-9,5.6
			c-1,1,0.6,2.6,1.6,1.6c2-2,4.3-3.5,6.9-4.5c0.8,2.6,4.1,12.7,5.6,14.8c0.3,0.5,1,0.7,1.6,0.4l2.4-1.9C92.5,82.1,91.4,80.1,90.2,81
			"/>
		<path class="st9" d="M82.2,91.8c-0.6,0-1.3,0.1-1.9,0.1c0.8-2.9,1.6-5.7,2.6-8.5c0.4-1,0.9-3.9-0.6-4.3c-4-1.1-8.2-1.2-12.2-0.4
			c-1.4,0.3-0.8,2.5,0.7,2.2c3.3-0.7,6.6-0.7,9.9,0.1l0.3,0.1c-0.1,1.2-0.4,2.3-0.9,3.4c-0.9,2.8-1.7,5.6-2.4,8.5
			c-0.2,0.6,0.2,1.3,0.8,1.4c0.2,0.1,0.4,0.1,0.6,0c1-0.2,2.1-0.3,3.2-0.3c0.6-0.1,1.1-0.6,1-1.3C83.2,92.3,82.8,91.9,82.2,91.8"/>
		<path class="st1" d="M55.9,46.5c-0.1,0.9-0.1,1.8-0.2,2.6c-0.1,0.5,0.7,0.7,0.7,0.2c0.1-0.9,0.1-1.8,0.2-2.6
			C56.7,46.2,56,46.1,55.9,46.5"/>
		<path class="st1" d="M44.2,50.8c0.5,0.9,1.3,1.6,2.2,2c0.5,0.2,0.7-0.6,0.2-0.7c-0.8-0.3-1.4-0.9-1.8-1.6
			c-0.1-0.2-0.4-0.2-0.5-0.1C44.2,50.5,44.2,50.6,44.2,50.8"/>
		<path class="st1" d="M70.4,49.6c-0.5,0.9-1.2,1.6-2.1,2.2c-0.4,0.3,0,0.9,0.4,0.6c0.9-0.7,1.7-1.5,2.3-2.5
			C71.3,49.6,70.7,49.2,70.4,49.6"/>
		<path class="st1" d="M66.8,55.5c-0.5,0.8-1.1,1.6-1.8,2.4c-0.4,0.3,0.2,0.9,0.6,0.5c0.6-0.8,1.2-1.5,1.8-2.4
			C67.7,55.7,67.2,55.1,66.8,55.5"/>
		<path class="st1" d="M59.6,53.5c-0.4,0.6-0.7,1.3-1,2c-0.2,0.4,0.5,0.8,0.7,0.4c0.3-0.7,0.6-1.4,1-2
			C60.5,53.5,59.9,53.1,59.6,53.5"/>
		<path class="st1" d="M49.6,55.4c0.5,0.8,0.9,1.7,1.1,2.6c0.1,0.5,0.8,0.3,0.7-0.2c-0.3-1-0.7-1.9-1.2-2.8
			C50.1,54.6,49.4,55,49.6,55.4"/>
		<path class="st1" d="M71.2,69c0.7,0.5,1.6,0.8,2.5,0.8c0.5,0,0.5-0.8,0-0.8c-0.8,0-1.5-0.2-2.1-0.7C71.2,68.1,70.8,68.7,71.2,69"
			/>
		<path class="st1" d="M40.6,59.1c0.7,0.3,1.3,0.8,1.8,1.3c0.3,0.3,0.9-0.2,0.5-0.6c-0.6-0.5-1.2-1-1.9-1.4
			C40.6,58.3,40.2,58.9,40.6,59.1"/>
		<path class="st1" d="M42.6,78.2c-0.8,0.8-1.7,1.5-2.7,2.1c-0.2,0.1-0.2,0.3-0.1,0.5c0.1,0.2,0.3,0.2,0.5,0.1
			c1-0.6,1.9-1.4,2.8-2.2C43.5,78.4,42.9,77.9,42.6,78.2"/>
		<path class="st1" d="M67.2,80.2c0.2,1.3,1.1,2.2,1.6,3.4c0.2,0.4,0.9,0.2,0.7-0.2c-0.5-1.1-1.4-2.1-1.6-3.4
			C67.8,79.5,67.1,79.7,67.2,80.2"/>
		<path class="st1" d="M73.8,75.8c1,0.3,2,0.6,3.1,0.7c0.5,0.1,0.7-0.7,0.2-0.7c-1-0.2-2-0.4-3-0.7C73.6,74.9,73.4,75.7,73.8,75.8"
			/>
		<path class="st1" d="M73.2,62.6c-0.5,0.6-1,1.2-1.5,1.7c-0.3,0.4,0.2,0.9,0.6,0.5c0.5-0.6,0.9-1.2,1.5-1.7
			C74.1,62.8,73.5,62.2,73.2,62.6"/>
		<path class="st1" d="M38.7,68.8L38.7,68.8l0.2,0.2l0,0l-0.1,0.4c0,0-0.1,0.1,0,0H39l0.5-0.1l1.1-0.2c0.5-0.1,0.3-0.9-0.1-0.8
			s-1,0.2-1.5,0.3c-0.2,0-0.4,0.1-0.5,0.1c-0.2,0.1-0.3,0.3-0.2,0.5c0,0.1,0.1,0.1,0.1,0.2C38.8,69.7,39.2,69.1,38.7,68.8"/>
		<path class="st9" d="M62,88.4c0,2.1-0.3,4.1-0.9,6.1c3.7-4.4,3.5-10.6,3.3-11.4c-0.1-0.5-0.4-1.6-0.4-1.6l-2.7,1
			C61.7,84.4,61.9,86.4,62,88.4"/>
		<path class="st9" d="M48.5,82.4c-0.6,1.1-0.3,7.3,3,12.3c-0.8-3.8-1.3-8.4,0.3-11.6L48.5,82.4z"/>
		<path class="st9" d="M65.7,66c-1.8-2.4-4.4-4.1-7.3-4.8c-3.4-0.8-6.9-0.2-9.9,1.6c-3.1,2.1-5.1,5.5-5.5,9.2
			c-0.4,2.9,0.3,5.8,2.1,8.1c2,2.9,6.6,3.5,6.6,3.5c3.2,0.3,6.4,0.1,9.6-0.5c0,0,3-0.9,4.3-2.4c0.8-0.8,1.4-1.8,1.8-2.8
			c0.5-1.6,0.8-3.3,0.8-5C68,70.5,67.1,68.1,65.7,66"/>
		<path class="st6" d="M59.2,67.5c-0.9,1.8-0.6,4,0.7,5.4c1.8,1.9,4.7,1.9,6.6,0.2c0.5-0.4,0.8-1,1.1-1.6c0.9-1.7,0.6-6.2-3.7-6.7
			C61.9,64.6,60,65.7,59.2,67.5"/>
		<path class="st6" d="M48.6,65.9c-2.5-0.7-5.1,0.8-5.8,3.3c0,0.1-0.1,0.3-0.1,0.5c-0.5,3.5,2.2,6.5,5.7,5.5
			C52.7,73.9,52.8,66.8,48.6,65.9"/>
		<path class="st1" d="M49.3,68.7c-0.4,0.2-0.5,0.7-0.3,1c0.1,0.2,0.4,0.4,0.6,0.4C51,70,50.3,68.1,49.3,68.7"/>
		<path class="st1" d="M66.1,68.3c-1.3,0.2-0.6,2,0.4,1.4c0.4-0.2,0.5-0.7,0.3-1C66.7,68.4,66.4,68.3,66.1,68.3"/>
	</g>
</g>
</svg>
