<?xml version="1.0" encoding="utf-8"?>
<!-- Generator: Adobe Illustrator 26.2.1, SVG Export Plug-In . SVG Version: 6.00 Build 0)  -->
<svg version="1.1" id="Capa_1" xmlns="http://www.w3.org/2000/svg" xmlns:xlink="http://www.w3.org/1999/xlink" x="0px" y="0px"
	 viewBox="0 0 249.1 122.1" style="enable-background:new 0 0 249.1 122.1;" xml:space="preserve">
<style type="text/css">
	.st0{fill:#B8A98D;}
	.st1{fill:#6F4714;}
	.st2{fill:#C58021;}
	.st3{fill:#FFFFFF;}
	.st4{fill:#211915;}
	.st5{fill:#CCBF9F;}
	.st6{clip-path:url(#SVGID_00000129201659839932592950000013213246568690387845_);}
	.st7{fill:#CDBF9F;}
	.st8{fill:#945B19;}
	.st9{fill:#61A0A2;}
	.st10{fill:#BF0811;}
	.st11{fill:none;stroke:#211915;stroke-width:0.7;stroke-linecap:round;stroke-linejoin:round;}
	.st12{fill:none;stroke:#211915;stroke-width:0.91;stroke-linecap:round;stroke-linejoin:round;}
	.st13{fill:#A1BD43;}
	.st14{fill:#BCCC55;}
	.st15{fill:#538A58;}
	.st16{fill:none;stroke:#211915;stroke-width:0.77;stroke-linecap:round;stroke-linejoin:round;}
</style>
<g id="Capa_2_00000034775997832734065910000001370919002320998799_">
	<g id="Capa_1-2">
		<polygon class="st0" points="135.2,62.3 133.9,63.4 133.3,65.2 126.5,62.5 125.5,62.8 124.6,64.1 119.6,63 117.2,63.6 115.6,65.6 
			113,66.6 111.4,67.6 112.6,70.2 124.5,75.1 132.4,76.1 139.9,75 144.2,71.2 		"/>
		<path class="st1" d="M157.4,110.2c-0.6,1.7-1.7,2.9-2.6,2.6s-1-1.9-0.4-3.6s1.7-2.9,2.6-2.6S158,108.5,157.4,110.2"/>
		<path class="st1" d="M163.9,111.6c-0.6,1.7-1.7,2.9-2.6,2.6s-1-1.9-0.4-3.6s1.7-2.9,2.6-2.6S164.5,109.9,163.9,111.6"/>
		<path class="st1" d="M171.4,113.3c-0.6,1.7-1.7,2.9-2.6,2.6s-1-1.9-0.4-3.6s1.7-2.9,2.6-2.6S172,111.6,171.4,113.3"/>
		<path class="st1" d="M97.9,80.2c-2,0.9-2.8,2.7-2.9,4.9c0,0.1,0.1,0.3,0.2,0.3c0.1,0,0.2,0,0.2-0.1c1.3-2,3.4-3.1,6.2-3.5
			C100.1,80.1,99.7,79.8,97.9,80.2"/>
		<path class="st1" d="M93.4,73.2c-1.9,0.7-3.4,2.1-4.2,4c0,0.1,0,0.2,0.1,0.3c0.1,0,0.1,0,0.2,0c1.2-1,2.6-1.7,4.1-2.1
			C93.7,75.4,93.3,73.2,93.4,73.2"/>
		<path class="st1" d="M97.2,94.9c-0.4-0.1-0.9,0.4-0.6,0.8c4.3,4.5,14,3.5,21.7-3c0.2-0.2,0.7-9.1,0.9-9.2
			C112.4,94.3,105,96.7,97.2,94.9"/>
		<path class="st1" d="M118.8,97.2c-3.5,7.3-7.8,9.7-12.1,9.6c-0.3,0-0.5,0.2-0.5,0.5c0,0.1,0.1,0.3,0.2,0.4
			c3.8,3.1,11.2,0.3,16.4-8.2C122.8,99.3,119.3,96.7,118.8,97.2"/>
		<path class="st1" d="M128.4,102.2c-0.5,1.5-3.6,9.3-10.1,12c-0.3,0.1-0.5,0.5-0.3,0.8c0.1,0.2,0.3,0.4,0.5,0.4
			c3,0.3,9-1.5,15.2-12.1C133.6,103.2,128.5,101.9,128.4,102.2"/>
		<path class="st2" d="M124.5,68.5c-3.9-3.9-9-6.3-14.5-6.7c-6.6-0.4-16.5,2.5-16.8,10.5c-0.2,6.2,4.2,9.5,8.9,9.7
			c1.2,3.8,3.3,7.3,6.2,10c1.1,1.1,5.4,4.7,8.4,4.2c5-0.8,9.4-8,12.5-21.9C129.5,74.1,124.7,68.8,124.5,68.5"/>
		<path class="st3" d="M114.9,73.1c-1.5,2.3-4.5,2.9-6.8,1.5c0,0,0,0,0,0c-2.1-1.1-2.8-3.7-1.7-5.7c0.1-0.2,0.2-0.3,0.3-0.5
			c1.5-2.3,4.7-3.3,7-1.9c2.1,1.4,2.7,4.3,1.3,6.4C115,73,115,73,114.9,73.1"/>
		<path class="st4" d="M110.2,68.8c-0.3,0.4-0.8,0.6-1.2,0.4c-0.4-0.3-0.5-0.9-0.2-1.3c0.3-0.4,0.8-0.5,1.2-0.2
			C110.3,67.9,110.5,68.5,110.2,68.8"/>
		<path class="st5" d="M137,86.4c2.4-9.5,0.6-19.9-6.5-22.2c-2.9-0.9-11.4-3.4-13.3-0.6c9-1.7,11.2,14-2.2,33.1
			c2.1,2.2,4.7,3.8,7.6,4.6C122.7,101.2,134.8,95.2,137,86.4"/>
		<path class="st0" d="M140.2,66c-11.3-5.6-14.6-3.2-14.6-3.2c5.3-2,13.9,17.9-3.1,38.6c2.8,2,6.7,4.1,10.2,4.5
			c5.5-3.7,9.5-9.4,11.1-15.8c5.6-21.5-2-23.3-2.1-23.4L140.2,66"/>
		<path class="st2" d="M192.6,95.2c-0.2-4.2-4.2-5-6.4-1.9c0-4.8-2.8-4.9-5.3-3c0.8-7.1-2.5-8.5-6-8.1c-1.1-5.2-5.7-7.1-8.8-4.4
			c-1.8-4.9-5.8-5.8-8.8-3.4c-1.9-4-4.1-5.4-6.6-3.6c-0.5-4.8-15.3-11.9-16.8-7.4c5-3.7,11.1,20.7-1.6,43c0,0,13.2,4.2,14.7-0.3
			c-1,3.6,3.4,6.1,7.4,0.5c-0.3,3.9,5,3.5,6.7,0.1c-0.7,3.4,2.9,5.7,5.8,3.2c-0.4,2.8,4.2,3.8,8.2-0.4c-0.7,3.4,3.3,3.1,6.7-0.3
			c2,0.6,4.1,0.2,6.3-2.1c6.7-1.8,10.7-5.5,10.2-12.2c-0.1-0.7-0.6-1.2-1.3-1.2C195.4,93.6,193.9,94.1,192.6,95.2"/>
		<g>
			<defs>
				<path id="SVGID_1_" d="M133.9,63.4c5-3.7,11.1,20.7-1.6,43c0,0,13.2,4.2,14.7-0.3c-1,3.6,3.4,6.1,7.4,0.5
					c-0.3,3.9,5,3.5,6.7,0.1c-0.7,3.4,2.9,5.7,5.8,3.2c-0.4,2.8,4.2,3.8,8.2-0.4c-0.7,3.4,3.3,3.1,6.7-0.3c2,0.6,4.1,0.2,6.3-2.1
					c6.7-1.8,10.7-5.5,10.2-12.2c-0.1-0.7-0.6-1.2-1.3-1.2c-1.6,0-3.2,0.6-4.5,1.6c-0.2-4.2-4.2-5-6.4-1.9c0-4.8-2.8-4.9-5.3-3
					c0.8-7.1-2.5-8.5-6-8.1c-1.2-5.2-5.7-7.1-8.8-4.4c-1.8-4.9-5.8-5.8-8.8-3.4c-1.9-4-4.1-5.4-6.6-3.6c-0.4-3.7-9.4-8.8-14.1-8.8
					C135.2,61.9,134.2,62.3,133.9,63.4"/>
			</defs>
			<clipPath id="SVGID_00000064338578953773291950000010375684244777768639_">
				<use xlink:href="#SVGID_1_"  style="overflow:visible;"/>
			</clipPath>
			<g style="clip-path:url(#SVGID_00000064338578953773291950000010375684244777768639_);">
				<polygon class="st7" points="149.6,63.5 153.6,75.3 152.7,103.4 147,111.4 134.3,113 128.5,108.7 135.4,76.1 129.7,61.7 
					135.9,58 				"/>
				<path class="st8" d="M157.3,74.3c-1.2-4.3-5.8-9.6-6.6-3.6c3,10.8,1.1,25.8-4.4,37.3c-0.2,0.3,2.9,6,6.4,2.3
					C158.3,99.3,160.8,84.8,157.3,74.3"/>
				<path class="st8" d="M174.9,81.5c0.5-0.9-0.3-5.9-2.2-6.9c-2.2-1.2-6.6,1.2-6.5,3.1c1.1,9.8,0.5,20.5-4.5,28.3
					c-1,1.6-1.7,4.1-0.5,5.2s4.9,0.4,6-1.4C174.2,102.6,175.3,87.6,174.9,81.5"/>
				<path class="st8" d="M186.2,92.8c0.9-8.5-5.3-3.2-5.3-2.7c-0.2,2.3-3,14-5.5,18.8c-2.7,6.3,2.9,6.3,6.4,0.2
					C184.9,104.1,186.4,98.5,186.2,92.8"/>
				<path class="st8" d="M194.4,90.5c0,0.1-1.8,4.5-1.8,4.6c-0.3,3.3-2.3,8.3-4.4,11.9c-0.1,0.1,6.6,3.8,6.6,4s6.9-15,6.9-14.8
					S194.5,90.4,194.4,90.5"/>
			</g>
		</g>
		<path class="st1" d="M147,89.7c-0.7-0.3-1.6,0-1.9,0.8c0,0.1-0.1,0.1-0.1,0.2c-0.2,1.1,0.1,2.2,1.6,2c1-0.1,1.1-0.8,1.2-1.5
			C147.9,90.6,147.5,90,147,89.7"/>
		<path class="st1" d="M144.8,76.7c-0.4-0.7-1.3-0.9-2-0.5c-0.1,0-0.1,0.1-0.2,0.1c-0.8,0.7-1.3,1.9,0.1,2.6c0.9,0.5,1.4,0,1.8-0.4
			C144.9,77.9,145,77.3,144.8,76.7"/>
		<path class="st1" d="M138.4,101.9c-0.6-0.3-1.3-0.1-1.7,0.5c-0.1,0.1-0.1,0.2-0.1,0.4c-0.2,0.8,0.2,1.6,1,1.8
			c0.1,0,0.3,0.1,0.4,0.1c0.7,0,1.2-0.6,1.2-1.2C139.3,102.8,139,102.1,138.4,101.9"/>
		<path class="st1" d="M132.1,92.7c-0.6-0.3-1.3,0-1.6,0.6c-0.1,0.1-0.1,0.2-0.1,0.4c-0.2,0.8,0.2,1.6,1,1.8c0.1,0,0.3,0.1,0.4,0.1
			c0.7,0,1.2-0.6,1.2-1.3C133.1,93.6,132.7,92.9,132.1,92.7"/>
		<path class="st1" d="M149.8,81.3c-0.6-0.3-1.3,0-1.6,0.6c-0.1,0.1-0.1,0.2-0.1,0.4c-0.2,0.8,0.2,1.6,1,1.8c0.1,0,0.3,0.1,0.4,0.1
			c0.7,0,1.2-0.6,1.2-1.2C150.7,82.2,150.4,81.5,149.8,81.3"/>
		<path class="st1" d="M137,74.4c-0.6-0.3-1.3,0-1.6,0.6c-0.1,0.1-0.1,0.2-0.1,0.4c-0.2,0.8,0.2,1.6,1,1.8c0.1,0,0.3,0.1,0.4,0.1
			c0.7,0,1.2-0.6,1.2-1.3C138,75.3,137.6,74.7,137,74.4"/>
		<path class="st1" d="M143.7,83.5c-0.6-0.1-1.2,0.1-1.6,0.6c-0.4,0.6,0.1,2.4,1.4,2.1c1-0.2,1.1-0.8,1.1-1.4
			C144.6,84.2,144.2,83.7,143.7,83.5"/>
		<path class="st1" d="M126.9,65.3c-0.6-0.1-1.2,0.1-1.6,0.6c-0.4,0.5,0.1,2.4,1.4,2.1c1-0.2,1.1-0.8,1.1-1.4
			C127.8,66,127.4,65.5,126.9,65.3"/>
		<path class="st1" d="M136.4,86.8c-0.6-0.1-1.2,0.1-1.6,0.6c-0.4,0.6,0.1,2.4,1.4,2.1c1-0.2,1.1-0.8,1.1-1.4
			C137.3,87.5,136.9,87,136.4,86.8"/>
		<path class="st1" d="M143.5,95.7c0.2-0.6,0-1.2-0.5-1.6c-0.5-0.4-2.4-0.1-2.2,1.2c0.1,1,0.6,1.2,1.3,1.3
			C142.6,96.6,143.2,96.3,143.5,95.7"/>
		<path class="st1" d="M131.9,101.6c0.2-0.6,0-1.2-0.5-1.7c-0.5-0.4-2.4-0.1-2.2,1.2c0.1,1,0.6,1.2,1.3,1.3
			C131.1,102.4,131.6,102.1,131.9,101.6"/>
		<path class="st1" d="M147.9,75.6c0.6,0.1,1.2-0.2,1.6-0.7c0.4-0.6-0.2-2.4-1.5-2c-1,0.2-1.1,0.8-1.1,1.5
			C146.9,74.9,147.3,75.4,147.9,75.6"/>
		<path class="st1" d="M134.5,82.9c0.6,0.1,1.2-0.2,1.6-0.7c0.4-0.6-0.2-2.4-1.5-2c-1,0.2-1.1,0.8-1.1,1.5
			C133.6,82.3,134,82.8,134.5,82.9"/>
		<path class="st1" d="M146,101.7c0.2-0.6,0-1.2-0.4-1.7c-0.6-0.5-1.5-0.3-2,0.3c-0.2,0.3-0.3,0.6-0.3,0.9c0,0.7,0.5,1.3,1.3,1.4
			c0,0,0,0,0,0C145.2,102.8,145.9,102.4,146,101.7"/>
		<path class="st1" d="M143.3,69.2c0.2-0.5,0-1.1-0.4-1.5c-0.6-0.4-1.4-0.3-1.8,0.3c-0.2,0.2-0.2,0.5-0.2,0.8c0,0.7,0.5,1.2,1.1,1.2
			c0,0,0,0,0,0C142.6,70.1,143.2,69.8,143.3,69.2"/>
		<path class="st1" d="M135.3,69.7c0.2-0.5,0-1.1-0.4-1.5c-0.6-0.4-1.4-0.3-1.8,0.3c-0.2,0.2-0.2,0.5-0.2,0.8c0,0.7,0.5,1.2,1.1,1.2
			c0,0,0,0,0,0C134.6,70.6,135.2,70.2,135.3,69.7"/>
		<path class="st1" d="M125.4,80.5c-0.7-0.1-1.1-0.8-1-1.5c0-0.1,0.1-0.2,0.1-0.3c0.3-0.8,1.2-1.1,1.9-0.8c0.1,0.1,0.3,0.1,0.4,0.2
			c0.5,0.4,0.6,1.2,0.2,1.8C126.7,80.4,126,80.7,125.4,80.5"/>
		<path class="st1" d="M123.3,96.3c-0.7-0.1-1.1-0.8-1-1.4c0-0.1,0.1-0.2,0.1-0.4c0.3-0.8,1.2-1.1,1.9-0.8c0.1,0.1,0.2,0.1,0.4,0.2
			c0.5,0.4,0.6,1.2,0.2,1.8C124.6,96.2,123.9,96.4,123.3,96.3"/>
		<path class="st1" d="M127,86.4c-0.6-0.3-0.9-0.9-0.9-1.5c0-0.7,1.5-1.8,2.4-0.8c0.5,0.5,0.5,1.3,0,1.8c0,0,0,0,0,0
			C128.2,86.4,127.6,86.5,127,86.4"/>
		<path class="st1" d="M128.9,73.8c-0.2,0.6-0.8,1-1.4,1c-0.7,0-1.9-1.3-1-2.3c0.4-0.6,1.2-0.7,1.7-0.3c0,0,0,0,0.1,0.1
			C128.8,72.6,129.1,73.2,128.9,73.8"/>
		<path class="st1" d="M123.2,88c0.5,0.3,0.9,0.9,0.8,1.5c-0.1,0.7-1.6,1.7-2.5,0.7c-0.5-0.5-0.5-1.3,0-1.8c0,0,0,0,0.1,0
			C122.1,87.9,122.7,87.8,123.2,88"/>
		<path class="st1" d="M120.3,96.9c-0.2,0.5-0.7,0.9-1.2,0.9c-0.7,0-1.3-0.6-1.2-1.3c0-0.3,0.1-0.6,0.3-0.8c0.4-0.5,1.1-0.7,1.7-0.3
			c0,0,0,0,0,0C120.3,95.7,120.5,96.3,120.3,96.9"/>
		<path class="st9" d="M230.8,8c-6.7,1.9-14.8-1.6-19.9-0.2s-8.8,7.4-12.6,9.4c-8.3,4.2-26.9,6.7-26.9,6.7s0.8,6.8,1.6,6.6
			s20.2-1.1,30.2-10c4.5-4,6-8.2,10.3-8.8s12.2,2,19.6-2c2.8-1.5,4.9-4.1,5.8-7.2C239,2.5,235.4,6.7,230.8,8"/>
		<path class="st9" d="M80.7,28.2c-0.3-12.2,2-17.5,19-18.1c19-0.7,52-0.7,72.3,1c11.6,1,13.5,5.4,14.1,15.5s-2.6,15.5-13.6,15.7
			C147.2,42.8,122.1,44,95,42C82.8,41.2,80.8,35.2,80.7,28.2"/>
		<path class="st10" d="M6.8,31.8c5.5,1.5,12.2-1.4,16.3-0.2s7.2,6.1,10.4,7.7c6.8,3.5,22.1,5.4,22.1,5.4s-0.6,5.6-1.3,5.5
			s-16.6-0.8-24.9-8.2c-3.7-3.3-5-6.7-8.5-7.2s-10.1,1.7-16.2-1.5c-2.3-1.2-4.1-3.4-4.8-5.9C1.8,29.3,4.2,30.9,6.8,31.8"/>
		<path class="st10" d="M37.4,49.7C37.1,40,39,35.7,52.7,35.2c16.3-0.7,32.7-0.4,48.9,0.8c9.3,0.8,10.9,4.3,11.3,12.4
			s-2.1,12.4-11,12.6c-20.3,0.4-30.1,0.7-53.1-0.2C39.1,60.4,37.5,55.3,37.4,49.7"/>
		<path class="st11" d="M31.4,109.2c0,0-1,9.7-0.5,10.6s4,0.8,4,0.8"/>
		<path class="st11" d="M41.2,107.2c0,0-1,9.9-0.5,10.9s4,0.8,4,0.8"/>
		<path class="st11" d="M50.7,102.4c0,0,7.4,6.4,8.5,6.5s2.6-2.5,2.6-2.5"/>
		<path class="st11" d="M48.8,75.1c0,0-1-11.9-0.2-12.6s4.7,0.6,4.7,0.6"/>
		<path class="st11" d="M56,76.9c0,0,2.6-11.6,3.5-12.1s4.3,2,4.3,2"/>
		<path class="st1" d="M27.9,100.2c3.6-1.5,7.5-1.9,11.3-1.1c0.5-4.3,4.6-8.5,10.7-5.7c1.6,0.8,3.6,2.2,3.8,4.2
			c0.1,1.6-0.1,3.3-0.7,4.8c-1.8,3.6-4.6,4.4-8.5,3.9c-0.6-0.1-1.2-0.3-1.8-0.5c-0.8,4.4-8,7.2-11.6,7.1c-3.1,0-9.8-0.9-10.6-4.3
			C19.4,104.6,25,101.2,27.9,100.2"/>
		<path class="st8" d="M63.3,91c-4.3,8.1-15.7,5.7-20-1.2c-2.6-4.3-2.7-8.7,0.9-12.8c3.8-4.2,10.1-3,11.6-2.9
			C59.9,74.3,69,80.4,63.3,91"/>
		<path class="st3" d="M58.4,80.2c-0.8-2.4-3.4-3.6-5.8-2.8c-1.5,0.5-2.7,1.8-3,3.4c-0.4,2.1,0,5,4.3,5.5c2.6,0,4.7-2,4.7-4.6
			C58.7,81.2,58.6,80.7,58.4,80.2"/>
		<path class="st4" d="M56.2,80.7c-0.4,0.2-0.9,0-1-0.4c0-0.1-0.1-0.2-0.1-0.3c-0.1-0.6,0.6-0.8,0.9-0.7c0.4,0.1,0.6,0.5,0.5,0.9
			C56.5,80.4,56.4,80.6,56.2,80.7"/>
		<path class="st12" d="M178.7,62.6c0.7-9.7-3.5-19-11.2-24.9"/>
		<path class="st12" d="M183.3,62.9c2.3-14.2,0.8-23.9-4-29.8"/>
		<path class="st13" d="M190.6,64.4c-0.3-0.3-11.1,23.7-11.4,23.4c-4.5-4.2-9.4-9-11.5-14.8c-0.4-1.4-0.3-2.9,0.2-4.3
			c0.7-1.7,1.4-3.4,2.3-5.1c1-1.7,2.5-3.1,4.3-4.1C178,57.9,184.5,56.4,190.6,64.4"/>
		<path class="st14" d="M195.3,61.5c2-1,4.3-1.2,6.5-0.6l5,1.4c0.3,0.1-20.1,42.5-20.4,42.7c-1.5,0.5-3.1,0.4-4.5-0.2
			c-1.3-0.6-2.3-1.9-2.5-3.3C175.7,81.3,183,67.6,195.3,61.5"/>
		<path class="st13" d="M200.3,69.5l0.3-0.1c18.7,5.9,33.8,15.7,43,28.5c1.8,2.6,1.2,6.1-1.4,8c-0.5,0.4-1.1,0.6-1.6,0.8
			c-18.2,5.3-37.5,4.9-55.4-1.3C188,87.8,190.3,76.5,200.3,69.5"/>
		<path class="st13" d="M205.5,64.2c29.5,7.9,47.3,28.8,42.9,32c-2.3,1.7-7.9-3.8-10.9-5.9c-0.9-0.6-30.6-17.2-37.2-20.9
			C199.5,69,205.5,64.2,205.5,64.2"/>
		<path class="st15" d="M248.8,95.7c-0.4,1.9-3.4,6.4-4.6,7.4c-0.2,0.2-7.5-12.5-9.5-14.4C237,90.2,248.9,95.5,248.8,95.7"/>
		<path class="st3" d="M172.3,65.5c-0.1,2.4,1.7,4.4,4.1,4.5c2.4,0.1,4.4-1.7,4.5-4.1c0-0.1,0-0.3,0-0.4c0-2.4-1.9-4.4-4.3-4.4
			c0,0,0,0,0,0c-2.3,0-4.2,1.9-4.2,4.3C172.3,65.4,172.3,65.4,172.3,65.5"/>
		<path class="st4" d="M175.2,64.3c0,0.4,0.3,0.7,0.7,0.8c0,0,0.1,0,0.1,0c0.4,0,0.6-0.4,0.6-0.8c0-0.4-0.3-0.7-0.7-0.7
			C175.5,63.6,175.2,63.9,175.2,64.3"/>
		<path class="st16" d="M208.9,107.1c0,0-4.3,4.8-1.8,14.6l-6.9-0.8"/>
		<path class="st16" d="M231.9,106.6c0,0-2.7,8,0.5,15l-6.9-1"/>
		<path class="st16" d="M187.1,103.5c-1.9,2.7-3.3,9.4-2.4,13.3l-6-1.5"/>
		<path class="st4" d="M52.8,90.9c1.2,0,2.3-0.3,3.4-0.8c0.5-0.3,0.9-0.7,1.3-1.2c0,0,0.4,2.5-1.1,3.2
			C54.3,92.9,52.8,90.9,52.8,90.9"/>
	</g>
</g>
</svg>
