<?xml version="1.0" encoding="utf-8"?>
<!-- Generator: Adobe Illustrator 26.2.1, SVG Export Plug-In . SVG Version: 6.00 Build 0)  -->
<svg version="1.1" id="Capa_1" xmlns="http://www.w3.org/2000/svg" xmlns:xlink="http://www.w3.org/1999/xlink" x="0px" y="0px"
	 viewBox="0 0 227.5 100" style="enable-background:new 0 0 227.5 100;" xml:space="preserve">
<style type="text/css">
	.st0{fill-rule:evenodd;clip-rule:evenodd;fill:#FFFFFF;}
	.st1{fill:#A1BD43;}
	.st2{fill:#945B19;}
	.st3{fill:#6F4714;}
	.st4{fill-rule:evenodd;clip-rule:evenodd;fill:#BF0811;}
	.st5{fill-rule:evenodd;clip-rule:evenodd;fill:#3F7473;}
	.st6{fill-rule:evenodd;clip-rule:evenodd;fill:#A1BD43;}
	.st7{fill:none;stroke:#F8E12E;stroke-linecap:round;stroke-linejoin:round;}
	.st8{opacity:0.8;}
	.st9{clip-path:url(#SVGID_00000170266080808659654810000012436273414428044953_);}
	.st10{clip-path:url(#SVGID_00000055674935272118853530000006069351078545025194_);}
	.st11{clip-path:url(#SVGID_00000125561446945929281300000000935180691412148625_);}
	.st12{fill:none;stroke:#D7D7CE;stroke-width:0.28;stroke-linecap:round;}
	.st13{fill:#211915;}
	.st14{fill:none;stroke:#211915;stroke-width:0.7;stroke-linecap:round;stroke-linejoin:round;}
	.st15{fill:#FFFFFF;}
	.st16{clip-path:url(#SVGID_00000088850612738461809530000007587444529601540256_);}
	.st17{clip-path:url(#SVGID_00000179632759924460724120000011745090460709786273_);}
	.st18{clip-path:url(#SVGID_00000160164176513173627220000017725079327601767829_);}
	.st19{clip-path:url(#SVGID_00000091724435428537658070000002444062974701294265_);}
	.st20{clip-path:url(#SVGID_00000149376092603135748080000006355339380735578243_);}
	.st21{clip-path:url(#SVGID_00000173146250599444247530000007307506040110750118_);}
</style>
<g id="Capa_2_00000109000892955553715330000004318750605955061635_">
	<g id="Capa_1-2">
		<path class="st0" d="M148.9,88.4c-0.3,0.1-0.6,0.1-0.9,0.1l-1-4.9c0.3,0,0.7,0,1-0.1c0.4-0.1,0.7-0.2,1.1-0.3l1.1,4.9
			C149.8,88.2,149.3,88.3,148.9,88.4"/>
		<path class="st0" d="M131.4,87.6c-0.3-0.2-0.5-0.6-0.7-0.9L134,83c0.2,0.4,0.4,0.7,0.7,1c0.6,0.6,0.8,0.4,0.8,0.4l-3.2,4
			C132,88.2,131.7,87.9,131.4,87.6"/>
		<path class="st0" d="M142.9,61c0,0-3.2,0.2-3.7-0.5c-0.2-0.3-0.3-0.6-0.4-0.9l-2.1,0.8c0.1,0.7,0.4,1.4,0.9,1.9
			c1.9,1.3,5.8,0.8,5.8,0.8L142.9,61z"/>
		<path class="st1" d="M38,41.2c-0.3-1.3-1-2.6-1.9-3.7c-1.4-1.6-2.7-3-2.7-3l0.7,4.4c-1.6-2.6-3.5-5-5.6-7.1
			c-3.1-2.8-4.1-2.5-4.1-2.5c2,2.4,3.7,5,5.1,7.8c0.8,1.8,1.4,3.7,1.6,5.7c-1.1-1.3-2.4-2.5-3.7-3.7c-0.8-0.8-1.9-1.2-3.1-1.3
			c1.6,1.2,2.9,2.7,3.8,4.4c0.9,1.7,1.7,3.5,2.3,5.2L38,41.2z"/>
		<path class="st1" d="M15.2,54c-3.1-1.7-5.8-2.8-5.8-2.8c1.8,1.7,3.5,3.5,5,5.4c0.9,1.4,1.8,2.8,2.5,4.2c0,0-2.5-1.6-5.4-3
			S1,55.5,1,55.5s7.4,3,9.9,5.3s6.4,5.8,6.4,5.8l4.7-4.6C22,61.9,18.3,55.7,15.2,54"/>
		<path class="st1" d="M110.8,61c0.5-1.3,1.2-2.5,2.2-3.5C114.5,56,117,53,117,53l-2.3,6c1.8-2.5,3.9-4.7,6.3-6.6
			c3.3-2.4,4.3-2.1,4.3-2.1c-2.2,2.2-4.1,4.6-5.9,7.2c-1,1.7-1.7,3.6-2.2,5.5c0,0,2-1.1,3.9-2.4c0.9-0.7,2-1.1,3.2-1
			c-1.7,1-3.1,2.4-4.2,4c-1.6,2.5-2.7,4.1-2.7,4.1L110.8,61z"/>
		<path class="st1" d="M89.5,24.1c0.7-1.3,1.5-2.6,2.4-3.9c-0.4,1.7-0.7,3.4-0.9,5.1c0,1.2,0,2.3,0.1,3.5c0,0,0.9-1.9,2-3.8
			s5.4-5.3,5.4-5.3s-3.2,4.6-3.9,6.9S93,32.3,93,32.3l-4.5-1C88.5,31.3,88.3,26.2,89.5,24.1"/>
		<path class="st2" d="M120.6,71.6c-2.1-3.4-11.2-16.4-12-20.3c-1.3-6-8.8-12.2-10.1-17.6c-0.8-3.5-5.2-9.1-7.4-13.4s-6-5.9-6.8-8.9
			c-1-4-2.2-5.2-3.2-5.5s-1,2.8-2.2,3.1c-2.4,0.6-4.8,0.7-7.2,0.1c-2.3-0.5-4.9-1.1-6.9-2.7c-1.1-0.9-2.2-2-3.5-2.3
			s-2.1,4.6-3.7,6.4c-3.8,4.4-8,7.5-11.3,13.4c-2.9,5.2-8.2,7.8-11,13.1c-3.3,6.5-4.4,8.9-8.1,13.8c-4.3,5.7-5.5,7-7.9,11.7
			C15.5,70.2,8.3,77,5.4,83c7.8,4.8,28.3,11.3,63.6,11.4c30.4,0.1,47-6.2,58.8-11.1C126.2,77.6,123,75.6,120.6,71.6"/>
		<path class="st3" d="M82.2,7.3c0.8,1.7-6.1,4.6-11.8,3.5c-5.4-1-11.2-3.1-9.7-6.1c4.2-2.6,6.8-2.4,11.2-2
			C78.3,3.5,80.9,5.9,82.2,7.3"/>
		<path class="st3" d="M75.6,35.5c0,1,0.8,1.8,1.8,1.8c0,0,0,0,0,0c1,0,2.4-0.8,2.4-1.8s-1.4-1.8-2.4-1.8
			C76.4,33.6,75.6,34.5,75.6,35.5C75.6,35.5,75.6,35.5,75.6,35.5"/>
		<path class="st3" d="M63.6,23.9c0,1,0.8,1.8,1.8,1.8l0,0c1,0,2.4-0.8,2.4-1.8s-1.4-1.8-2.4-1.8C64.4,22.1,63.6,22.9,63.6,23.9
			C63.6,23.9,63.6,23.9,63.6,23.9"/>
		<path class="st3" d="M40.7,47.6c0,1,0.8,1.8,1.8,1.8c0,0,0,0,0,0c1,0,2.4-0.8,2.4-1.8s-1.4-1.8-2.4-1.8
			C41.6,45.8,40.7,46.6,40.7,47.6C40.7,47.6,40.7,47.6,40.7,47.6"/>
		<path class="st3" d="M70.4,64.5c0,1,0.8,1.8,1.8,1.8c0,0,0,0,0,0c1,0,2.4-0.8,2.4-1.8s-1.4-1.8-2.4-1.8
			C71.3,62.7,70.4,63.5,70.4,64.5L70.4,64.5"/>
		<path class="st3" d="M60.8,47.6c-0.4,1.1,0.8,1.8,1.8,1.8c1,0.1,1.9-0.7,2-1.7s-0.7-1.9-1.7-2c-0.1,0-0.2,0-0.3,0
			C61.6,45.8,61.2,46.7,60.8,47.6"/>
		<path class="st3" d="M85.8,50.3c-0.4,1.1,0.8,1.8,1.8,1.8c1,0,1.8-0.8,1.8-1.8c0-1-0.8-1.8-1.8-1.8c0,0,0,0,0,0
			C86.6,48.5,86.2,49.4,85.8,50.3"/>
		<path class="st3" d="M62.7,80.2c-0.4,1.1,0.8,1.8,1.8,1.8c1,0.1,1.9-0.7,2-1.7s-0.7-1.9-1.7-2c-0.1,0-0.2,0-0.3,0
			C63.5,78.4,63.1,79.3,62.7,80.2"/>
		<path class="st3" d="M31.8,54.6c-0.2,0.7,0.1,1.5,0.9,1.8c0.2,0.1,0.3,0.1,0.5,0.1c0.9,0,1.7-0.4,1.7-1.3c0-0.9-0.8-1.6-1.7-1.6
			C32.3,53.5,32.2,53.8,31.8,54.6"/>
		<path class="st3" d="M86.1,73.5c-0.2,0.7,0.1,1.5,0.9,1.8c0.2,0.1,0.3,0.1,0.5,0.1c0.9,0,1.7-0.4,1.7-1.3c0-0.9-0.8-1.6-1.7-1.6
			C86.6,72.4,86.5,72.7,86.1,73.5"/>
		<path class="st3" d="M74.1,18c-0.2,0.7,0.2,1.5,0.9,1.8c0.2,0,0.3,0.1,0.5,0.1c0.9,0,1.7-0.4,1.7-1.3c0-0.9-0.8-1.6-1.7-1.6
			C74.6,17,74.5,17.2,74.1,18"/>
		<path class="st3" d="M31,79.8c-0.2,0.7,0.1,1.5,0.9,1.8c0.2,0.1,0.3,0.1,0.5,0.1c0.9,0,1.7-0.4,1.7-1.3c0-0.9-0.8-1.6-1.7-1.6
			C31.5,78.7,31.3,79,31,79.8"/>
		<path class="st3" d="M53.6,59.9c-0.2,0.7,0.1,1.5,0.9,1.8c0.2,0.1,0.3,0.1,0.5,0.1c0.9,0,1.7-0.4,1.7-1.3c0-0.9-0.8-1.6-1.7-1.6
			C54,58.9,53.9,59.1,53.6,59.9"/>
		<path class="st3" d="M101.5,79.8c-0.2,0.7,0.1,1.5,0.9,1.8c0.2,0.1,0.3,0.1,0.5,0.1c0.9,0,1.7-0.4,1.7-1.3c0-0.9-0.8-1.6-1.7-1.6
			C102,78.7,101.8,79,101.5,79.8"/>
		<path class="st3" d="M98.6,56c-0.2,0.7,0.1,1.5,0.9,1.8c0.2,0.1,0.3,0.1,0.5,0.1c0.9,0,1.7-0.4,1.7-1.3c0-0.9-0.8-1.6-1.7-1.6
			C99.1,55,99,55.2,98.6,56"/>
		<path class="st3" d="M47,31.6c0,1,0.8,1.8,1.8,1.8c1,0,2.4-0.8,2.4-1.8s-1.4-1.8-2.4-1.8C47.8,29.8,47,30.6,47,31.6
			C47,31.6,47,31.6,47,31.6"/>
		<path class="st3" d="M21.2,69.7c0,1,0.8,1.8,1.8,1.8c1,0,2.4-0.8,2.4-1.8S24,67.9,23,67.9C22,67.9,21.2,68.7,21.2,69.7
			C21.2,69.7,21.2,69.7,21.2,69.7"/>
		<path class="st3" d="M45.5,72c0,1,0.8,1.8,1.8,1.8c1,0,2.4-0.8,2.4-1.8s-1.4-1.8-2.4-1.8C46.3,70.2,45.5,71,45.5,72L45.5,72"/>
		<path class="st3" d="M102,69.3c0,1,0.8,1.8,1.8,1.8c0,0,0,0,0,0c1,0,2.4-0.8,2.4-1.8s-1.4-1.8-2.4-1.8
			C102.8,67.4,102,68.2,102,69.3C102,69.3,102,69.3,102,69.3"/>
		<path class="st1" d="M47.2,73.8c-0.4-1.1-0.9-2.4-1.1-2.8c-0.7-1.6-1.6-3.1-2.6-4.5c-1.2-1.6-2.4-3.1-3.8-4.5
			c1.8,0.8,3.5,2,4.9,3.4c1.5,1.9,2.9,3.9,4,6c0.2,0.5,0.4,1,0.6,1.6C48.7,73.5,47.9,73.8,47.2,73.8"/>
		<path class="st1" d="M78.4,36.2c0.4-1.4,1.1-2.8,1.9-4C81.5,30.8,83,29,83,29c-1.3,0.6-2.5,1.4-3.4,2.4c-1.1,1.3-2,2.7-2.8,4.2
			c0,0-0.5,1.1,0.1,1.5S78.2,36.6,78.4,36.2"/>
		<polygon class="st4" points="150.8,90.3 137.7,85.8 137.7,70 150.8,72.7 		"/>
		<polygon class="st5" points="165.6,86.7 150.8,90.3 150.8,72.7 165.6,70 		"/>
		<polygon class="st6" points="152.4,67.8 165.5,70 150.8,72.7 137.7,70 		"/>
		<line class="st7" x1="150.8" y1="56.2" x2="151.6" y2="43"/>
		<line class="st7" x1="165.5" y1="60.9" x2="173.5" y2="51.5"/>
		<line class="st7" x1="171.5" y1="76.1" x2="186.6" y2="75.7"/>
		<line class="st7" x1="134.7" y1="60.5" x2="123.2" y2="53.3"/>
		<line class="st7" x1="130" y1="78.8" x2="114.7" y2="77.1"/>
		<g class="st8">
			<g>
				<defs>
					<rect id="SVGID_1_" x="132.1" y="39.8" width="6.4" height="6.3"/>
				</defs>
				<clipPath id="SVGID_00000069385611767685332410000006511529058080605845_">
					<use xlink:href="#SVGID_1_"  style="overflow:visible;"/>
				</clipPath>
				<g style="clip-path:url(#SVGID_00000069385611767685332410000006511529058080605845_);">
					<g>
						<defs>
							<rect id="SVGID_00000126297027422547620380000017995497024000968609_" x="132.1" y="39.8" width="6.4" height="6.3"/>
						</defs>
						<clipPath id="SVGID_00000067236099658265484740000000207299668324227482_">
							<use xlink:href="#SVGID_00000126297027422547620380000017995497024000968609_"  style="overflow:visible;"/>
						</clipPath>
						<g style="clip-path:url(#SVGID_00000067236099658265484740000000207299668324227482_);">
							<g>
								<defs>
									<rect id="SVGID_00000143605989469519896340000004667239996404276375_" x="132.1" y="39.8" width="6.4" height="6.3"/>
								</defs>
								<clipPath id="SVGID_00000181055832618023855260000015393483084620879264_">
									<use xlink:href="#SVGID_00000143605989469519896340000004667239996404276375_"  style="overflow:visible;"/>
								</clipPath>
								<g style="clip-path:url(#SVGID_00000181055832618023855260000015393483084620879264_);">
									<path class="st12" d="M138.4,43c-0.2,3.4-4.8,4-5.9,1.3c-0.6-1.7,0.3-3.6,2.1-4.2c0.2-0.1,0.5-0.1,0.8-0.2
										c1.5-0.2,2.9,0.8,3.1,2.4C138.4,42.5,138.4,42.8,138.4,43z"/>
								</g>
							</g>
						</g>
					</g>
				</g>
			</g>
		</g>
		<path class="st13" d="M135.6,44.6c-0.2,0.2-0.5,0.3-0.7,0.1c-0.1-0.1-0.1-0.1-0.2-0.2c-0.1-0.3,0-0.6,0.3-0.7c0,0,0.1,0,0.1,0
			C135.5,43.8,135.9,44.1,135.6,44.6"/>
		<path class="st14" d="M104.1,30.8c0,0-6.9,3.1-7.3,3.8s1,3,1,3"/>
		<path class="st14" d="M109.5,36.9c0,0-7,3.2-7.4,4s1,3,1,3"/>
		<path class="st14" d="M115.7,41.2c0,0-1.4,7.5-1,8.2s2.7,0.8,2.7,0.8"/>
		<path class="st14" d="M133.2,29.1c0,0,7.5-5.3,8.4-5.1s1.4,3.4,1.4,3.4"/>
		<path class="st14" d="M134.8,34.7c0,0,8.8-2.9,9.5-2.4s0.4,3.7,0.4,3.7"/>
		<path class="st3" d="M108.2,25.1c2.4,1.8,4.2,4.3,5.2,7.1c3.1-1.4,7.5-0.3,8,4.9c0.1,1.4,0,3.3-1.3,4.2c-1.1,0.7-2.2,1.2-3.5,1.4
			c-3.1,0.3-4.8-1.3-5.9-4.1c-0.2-0.5-0.3-0.9-0.4-1.4c-3.2,1.2-8-2.5-9.3-4.9c-1.2-2.1-3.3-6.9-1.3-8.8
			C101.8,21.2,106.3,23.5,108.2,25.1"/>
		<path class="st2" d="M128.3,45.1c-7.6,0.3-10-8.3-7.1-13.9c1.8-3.4,4.8-5.2,8.9-4.5c4.3,0.9,6.2,5.5,6.5,6.6
			S138.8,44.8,128.3,45.1"/>
		<path class="st15" d="M129.9,31.7c-1.9,0.7-2.9,2.8-2.2,4.7c0.1,0.2,0.2,0.5,0.3,0.7c1.2,2.3,4.4,1.9,5.8,0.2
			C136.1,34.5,133.2,30.3,129.9,31.7"/>
		<path class="st13" d="M131.2,37.2c-0.3-0.2-0.4-0.7-0.2-1c0-0.1,0.1-0.1,0.2-0.2c0.3-0.2,0.6-0.2,0.9,0.1c0.1,0.1,0.1,0.2,0.1,0.3
			c0.1,0.4-0.1,0.7-0.5,0.8C131.6,37.3,131.5,37.3,131.2,37.2"/>
		<path class="st13" d="M126.2,42.6c-0.3-0.4-0.2-1.1,0.2-1.4c0.2-0.2,0.6-0.2,0.8-0.2c1.3,0.1,2.2,1.6,1.3,2.1
			C127.7,43.6,126.7,43.4,126.2,42.6"/>
		<path class="st14" d="M207.9,90.7c0,0,0.9,7.4,0.5,8.2s-2.4,0.6-2.4,0.6"/>
		<path class="st14" d="M199.9,90.6c0,0,0.9,7.6,0.5,8.4s-2.9,0.6-2.9,0.6"/>
		<path class="st14" d="M189.8,89.7c0,0-2.9,7-3.6,7.4s-3-1-3-1"/>
		<path class="st14" d="M183,72.1c0,0,2.4-8.8,2-9.5s-3.6-0.2-3.6-0.2"/>
		<path class="st14" d="M178.9,72c0,0-0.3-9.2-0.9-9.7s-3.5,0.9-3.5,0.9"/>
		<path class="st3" d="M187.8,82.4c1.1-2.8,7-0.9,8.9,2.4c2.9-1.4,6.1-1.8,9.2-1.2c2.4,0.3,7.1,2,6.9,5.2c-0.1,2.7-4.9,4.4-7.3,4.9
			c-2.6,0.6-8.2-0.3-9.7-3.2C191.8,94.7,182,87,187.8,82.4"/>
		<path class="st2" d="M187.9,71.4c7.8,7.1-2,19.5-11,15.1c-2-1-7.3-6.3-3.8-12.4C175.3,70.1,182.1,66.2,187.9,71.4"/>
		<path class="st15" d="M172.8,74.2c3.7-0.7,5.6,5.6,1.1,6.4c-1.6,0.4-3.1-0.6-3.5-2.2c-0.1-0.3-0.1-0.5-0.1-0.8
			C170.1,76,171.2,74.5,172.8,74.2"/>
		<g class="st8">
			<g>
				<defs>
					<rect id="SVGID_00000010999296781895643790000013079882109508452785_" x="170.2" y="74" width="2.9" height="6.6"/>
				</defs>
				<clipPath id="SVGID_00000134932669650617439860000003037179513533870730_">
					<use xlink:href="#SVGID_00000010999296781895643790000013079882109508452785_"  style="overflow:visible;"/>
				</clipPath>
				<g style="clip-path:url(#SVGID_00000134932669650617439860000003037179513533870730_);">
					<g>
						<defs>
							<rect id="SVGID_00000181061271061362732770000006641239177022057094_" x="170.2" y="74" width="2.9" height="6.6"/>
						</defs>
						<clipPath id="SVGID_00000152242102182754536020000014874469679118065584_">
							<use xlink:href="#SVGID_00000181061271061362732770000006641239177022057094_"  style="overflow:visible;"/>
						</clipPath>
						<g style="clip-path:url(#SVGID_00000152242102182754536020000014874469679118065584_);">
							<g>
								<defs>
									<rect id="SVGID_00000062187050698879631300000014798129985152207241_" x="170.2" y="74" width="2.9" height="6.6"/>
								</defs>
								<clipPath id="SVGID_00000166644105593238261110000007532449587693006228_">
									<use xlink:href="#SVGID_00000062187050698879631300000014798129985152207241_"  style="overflow:visible;"/>
								</clipPath>
								<g style="clip-path:url(#SVGID_00000166644105593238261110000007532449587693006228_);">
									<path class="st12" d="M172.2,80.5c-1.2-0.5-2-1.6-1.9-2.9c-0.2-1.7,1-3.2,2.6-3.5"/>
								</g>
							</g>
						</g>
					</g>
				</g>
			</g>
		</g>
		<path class="st13" d="M172.9,76.6c0.6-0.2,1.1,1,0.2,1.2c-0.3,0.1-0.6-0.1-0.6-0.4c0-0.1,0-0.1,0-0.2
			C172.4,76.9,172.6,76.7,172.9,76.6"/>
		<path class="st14" d="M223.9,62.3c0,0,0.9,7.2,0.5,7.9s-2.4,0.6-2.4,0.6"/>
		<path class="st14" d="M214.9,63c0,0,0.9,7.4,0.5,8.1s-2.8,0.6-2.8,0.6"/>
		<path class="st14" d="M206.4,62.7c0,0,0.5,7.3,0.1,8s-3,0.4-3,0.4"/>
		<path class="st14" d="M195.2,48.7c0,0-2.9-8.3-3.7-8.6s-3,1.9-3,1.9"/>
		<path class="st14" d="M191.9,50.9c0,0-5.3-7.1-6.1-7.2s-2.3,2.7-2.3,2.7"/>
		<path class="st3" d="M202.7,57.4c0.6-2.8,6.6-2,8.8,0.9c2.5-1.8,5.5-2.7,8.6-2.6c2.3-0.1,7.1,0.8,7.4,3.8c0.4,2.6-4,5-6.2,5.8
			c-2.4,1-7.9,1-9.8-1.5C208.5,68.5,197.9,62.7,202.7,57.4"/>
		<g class="st8">
			<g>
				<defs>
					<rect id="SVGID_00000168823564554206527200000013323217124228149424_" x="184.9" y="51.4" width="6.1" height="6.5"/>
				</defs>
				<clipPath id="SVGID_00000121997582243762908330000011803681810008296861_">
					<use xlink:href="#SVGID_00000168823564554206527200000013323217124228149424_"  style="overflow:visible;"/>
				</clipPath>
				<g style="clip-path:url(#SVGID_00000121997582243762908330000011803681810008296861_);">
					<g>
						<defs>
							<rect id="SVGID_00000039123277349516918200000013925807655655930036_" x="184.9" y="51.4" width="6.1" height="6.5"/>
						</defs>
						<clipPath id="SVGID_00000150088194593774263020000009513210743659633590_">
							<use xlink:href="#SVGID_00000039123277349516918200000013925807655655930036_"  style="overflow:visible;"/>
						</clipPath>
						<g style="clip-path:url(#SVGID_00000150088194593774263020000009513210743659633590_);">
							<g>
								<defs>
									<rect id="SVGID_00000137838326710559487590000005441927969083464856_" x="184.9" y="51.4" width="6.1" height="6.5"/>
								</defs>
								<clipPath id="SVGID_00000016778720084823503820000004137360807589228700_">
									<use xlink:href="#SVGID_00000137838326710559487590000005441927969083464856_"  style="overflow:visible;"/>
								</clipPath>
								<g style="clip-path:url(#SVGID_00000016778720084823503820000004137360807589228700_);">
									<path class="st12" d="M185.9,52.5c-2.3,2.5,0.5,6.1,3.2,5.1c1.6-0.8,2.3-2.8,1.5-4.4c-0.1-0.2-0.2-0.4-0.4-0.6
										c-0.9-1.2-2.6-1.4-3.8-0.6C186.2,52.2,186,52.3,185.9,52.5z"/>
								</g>
							</g>
						</g>
					</g>
				</g>
			</g>
		</g>
		<path class="st13" d="M186.6,55.6c0,0.3,0.1,0.5,0.4,0.6c0.1,0,0.2,0,0.3,0c0.3-0.1,0.4-0.4,0.3-0.7c0,0,0-0.1-0.1-0.1
			C187.3,55,186.8,55,186.6,55.6"/>
		<path class="st2" d="M191.7,62.2c5.4,5.2,12.8,0.5,14.3-5.6c0.9-3.8-0.1-7-3.6-9.1c-3.7-2.2-8.1-0.1-9.1,0.6
			S184.2,55.1,191.7,62.2"/>
		<path class="st15" d="M197.2,56.5c3.4-1.5,2.7-4,2.1-5.2c-1.5-3.2-6.4-1.9-6.5,1.6C192.8,55,195.1,57.4,197.2,56.5"/>
		<path class="st13" d="M194.8,54.5c0.4,0,0.7-0.2,0.8-0.6c0-0.1,0-0.2,0-0.2c-0.1-0.3-0.4-0.5-0.7-0.5c-0.1,0-0.2,0.1-0.2,0.1
			c-0.3,0.2-0.4,0.6-0.2,0.9C194.5,54.3,194.6,54.4,194.8,54.5"/>
		<path class="st13" d="M194.8,61.3c-0.3-0.5-0.4-2.1,1.2-1.9s2.8,2,1.7,2.6C196.6,62.5,195.4,62.2,194.8,61.3"/>
	</g>
</g>
</svg>
