<svg xmlns="http://www.w3.org/2000/svg" xmlns:xlink="http://www.w3.org/1999/xlink" viewBox="0 0 270.08 218.68"><defs><style>.cls-1,.cls-13{fill:none;}.cls-2{fill:#2fac66;}.cls-3{fill:#d3d2c2;}.cls-4{fill:#f39fbb;}.cls-5{fill:#e8e6db;}.cls-6{fill:#0d181c;}.cls-7{fill:#a4a092;}.cls-8{fill:#00a0a4;}.cls-9{fill:#454444;}.cls-10{fill:#fff;}.cls-11{fill:#1d1d1b;}.cls-12{fill:#dad8cc;}.cls-13{stroke:#1d1d1b;stroke-linecap:round;stroke-width:0.77px;}.cls-14{clip-path:url(#clip-path);}</style><clipPath id="clip-path"><path class="cls-1" d="M203.56,41.77c1.71,1.81,4.6,1.33,4.76,1.33a8.81,8.81,0,0,0,6.32-2.69c-2.42,0-6.43-2.21-6.43-2.21-2.33-1.57-3.66-5.35-3.9-7.28-2.2,1.9-4,7.4-.75,10.85"/></clipPath></defs><g id="Capa_2" data-name="Capa 2"><g id="Capa_1-2" data-name="Capa 1"><path class="cls-2" d="M241.77,185.46c-12.32,2.24-24.24-4.31-36.54-6.64s-25.13-.38-37.25,2.52c-3.82.92-7.72,1.94-11.67,1.64-4.2-.32-8-2.09-12-3.38-11-3.6-23-3.54-34.75-3.43-17.18.17-34.57.36-51.19,4.13s-32.65,11.57-42,24l39.87,5.36c15.89,2.13,31.79,4.26,47.75,5.91,29,3,58.44,4.35,87.52,1.67A309.71,309.71,0,0,0,257.14,204c2.94-.93,6.33-2.44,6.54-5.13a5.44,5.44,0,0,0-1.31-3.45c-4.5-6.25-13.8-9.63-22.15-8"/><path class="cls-3" d="M36.6,62.59l-.07.3A3.24,3.24,0,0,0,38,66.53a7.28,7.28,0,0,1,1.36,1.6s0-.07,0-.1c-.3-8.43,3.93-14,8.25-22.68h0c-.31-1.3-.51-2.09-.51-2.09-8.51,4-10.53,19.32-10.53,19.32"/><path class="cls-4" d="M47.63,45.35C43,53.4,39.08,59.6,39.38,68h.43a55.73,55.73,0,0,1,8.51-2.1c2.66-4.3.41-15.81-.68-20.56Z"/><path class="cls-5" d="M64.51,105.41c-.47.1-4.86.85-5.34.94.91.35,9.47,12.12,24,12.53l.57-4.44c-6.08-1.31-12.54-4.54-19.26-9"/><path class="cls-5" d="M3.19,169.14c-3.44-1.08-4.28,3.65-1.62,5.19,3,1.76,7.34,4.46,15.69-3,1.73-1.54,4.24-2.71,6.29-1.64,1.63.87,6.83,5.54,11.48,5.89a10.88,10.88,0,0,0,8.22-3.19c2-2.11,4.51-5.06,5.72-7.74l-3.6-3.35c-.57,2.62-3.12,5-4.58,6.66a6.9,6.9,0,0,1-6,2.18c-4.3-.6-7-4.31-11.06-5.86-3.64-1.41-8.69.59-11,3.77-4.42,6.21-7.65,1.46-9.61,1.11"/><path class="cls-5" d="M56.41,164.63l15.51,25.61c3.76.38,5.27-2,5.27-2L64.51,165.47a59.49,59.49,0,0,1-8.1-.84"/><path class="cls-6" d="M79.48,193.67s4.17,3,5.61,2c.94-.65-4.34-5.4-7.9-7.44,0,0-1.51,2.38-5.27,2,2.15,4.95,9.59,10.59,8.7,6.89-.3-1.24-.71-3.22-1.14-3.46"/><path class="cls-5" d="M74.57,165.69l12.28,20.73L92,183,79.57,162.39a15.33,15.33,0,0,1-5,3.3"/><path class="cls-6" d="M92,183l-5.09,3.44a15.42,15.42,0,0,0,1.81,3.66c1.24,1.81,4,4.21,6.41,3.68,2-.44-1.36-3.54-2.71-5.58,2.38,2.78,7.39,4.28,7,2.31S92,183,92,183"/><path class="cls-3" d="M37.34,104.7a36.93,36.93,0,0,0,8,1.71c3.61.42,6.41-.17,10.36-.48a38.39,38.39,0,0,0,6.38-1.54c3.9-.46,4.17,5.26,4.17,5.26,3.34-.91,4,3.71,4,3.71,4.78-2,4.62,4.34,4.62,4.34,3.16.08,3,4,3.26,6.25,3.16.61,6.36,1.9,6.2,4.69-.05.89-2.55,2.45-2.55,2.45s8,2.06,2.52,6.62c0,0,9.09,4.49,2.78,7.59,0,0,6.31,6.08-.41,7.53,0,0,1.42,8.72-4.55,8.17,0,0,.22,2.14-2.49,4.13a5.26,5.26,0,0,1-5.46.7c-1.36,2.12-7.35,2.75-11.09,2-1.73.05-4,3.18-13.75-.75-5-2-5-3.43-5.46-5.44a5.2,5.2,0,0,1,1.43-4.9c-6.27-1.32-2.43-10.41-2.43-10.41-5.65-2-1.23-6.78-1.23-6.78-7.06-2.21-1.29-9.21-1.29-9.21-4.51-1.26-5-4.93-2.27-10.53,0,0-5-1.34-2.11-7.68-3.35-1.65-.81-6.74,1.41-7.45"/><path class="cls-6" d="M88.86,115.7s5.48-1,4.34-2.06c-2.16-1.9-6.09-.61-9.43.8l-.57,3.25h0c2.84-.82,6.39-.78,9.64-1.12-.88-.67-2.86-.76-4-.88"/><path class="cls-3" d="M66.81,123.82l3.12-.6c.2.13.48.3.82.49,12.17.42,64.36,2.94,64.2,3a67,67,0,0,1-42.81,8.33l5-4.08c-4.29,2.82-11.06,1.77-11.06,1.77l3.49-3.66c-3.4,1.9-8.16,2.22-13.39,2l2.54-2.45a43.31,43.31,0,0,0-5.28-2.81l-2.16.27c-3,.27-6.08,2.07-8.2,6.06a14.29,14.29,0,0,1,3.69-8.34"/><path class="cls-7" d="M69,121.18s3.92,1.9,4.62,3H76a102.78,102.78,0,0,0,13.8,3.68q3.81.75,7.56,1.17a104.5,104.5,0,0,0,35.93-2.32h0a55.51,55.51,0,0,1,.75-6.71l-.69-.12c-4-.89-27.71-5.94-46.55-4a53.14,53.14,0,0,0-9.19,1.72c-.73.21-2.85,1-2.16.7-2.21.88-6.53,2.78-6.53,2.78"/><path class="cls-5" d="M26.33,92.87C18,75.37,39.36,67,39.36,67c2.66-.89,10.26-1.61,16.88-1.4,13.62.44,21.18,2.11,26.78,8,8.75,9.2,2,21.45-4,25.24a46.43,46.43,0,0,1-14.47,6.54l-1.41.31h0a54.06,54.06,0,0,1-6.39.89,58.9,58.9,0,0,1-11.39-.19A45.17,45.17,0,0,1,32,102.87a26.25,26.25,0,0,1-7.81-5.21h0a22.08,22.08,0,0,0,2.19-4.78"/><path class="cls-7" d="M158.6,101.73c10-5,35.37-12.06,46.41-25.08l45.44,38.21c-.23.42-7.57,22.31-10.39,26.18-2.48,3.4-7.93,6.81-9.18,12.22a6.59,6.59,0,0,1-.55-5.11,29,29,0,0,1-2.25,3.28,48.85,48.85,0,0,1-7,7.28h-.53c0,13.61-1.29,25.46-.22,27,0,0,8,4.88,6.41,8.2-1.82,3.88-7.6-1.73-8.13-2.34.27.44,2.31,3.94-.06,4.79-1.93.68-3.63-1.64-4.63-3.44,0,0-2.47,2.67-4.31,1.37-2.5-1.76,2.1-8.82,2.1-8.82l-.28-29.52-5.88,5.78-.53-2a1.45,1.45,0,0,0-2.27-.8l-5.37,4,.9-4.14-8.7,7.37L188,159.7l-.07-.26a22.3,22.3,0,0,1-10.13,5.95l.52-5.18s-3.48,3.4-11.52,3.25h0c-5.69-23.51-11.17-40.08-8.19-61.73"/><path class="cls-5" d="M198.31,62.84h0c.2,2-2.14,5.24-4,6.49,1.31,5.93,6,9.86,9.89,12.53h0l1.59-5.71c-4.1-2.37-6.47-7-7.44-13.31"/><path class="cls-5" d="M200.49,54.22s-.45,3.87-2.48,5.7c2,4.27,7.12,7.58,11.07,10.38l2.71-3.86a27.34,27.34,0,0,1-10-12.57,3.45,3.45,0,0,1-1.34.35"/><path class="cls-7" d="M160.64,190.41c1.94,1,5.06,1.2,5.4,0,.89-3.22-7.43-5.55-7.43-5.55-.28-9.08,0-16.71,1-22.49a25.51,25.51,0,0,0-8.21.31l-.71,26.22c-1.31,5.08,4.28,7.2,4.57,3.27,5.69,4.1,8,.69,5.37-1.73"/><path class="cls-7" d="M147.38,191.6l-.21-.24a2.15,2.15,0,0,1,.21.24m.17.18c1.29,1.4,5.38,5.35,7.08,1.63a2,2,0,0,0,.1-.29c.7-2-1.52-3.39-4-4.25a31.35,31.35,0,0,0-5.71-1.3l.25-16.1a12.62,12.62,0,0,0-8-1.62l-.17,19.5s-2.26,7.64.88,8.23,4.13-4.1,4.13-4.1,3.6,5.89,6.34,4.22c2.4-1.47.07-4.71-.92-5.92"/><path class="cls-8" d="M133.13,172.71c5.1.52,15.38.16,15.38.16l-.06-7.77a24.11,24.11,0,0,1,8-1,42.48,42.48,0,0,0,10.92-.23c-5.69-23.5-8.74-42-5.76-63.64,0,0-30.19,1-34.45,19.85a39.38,39.38,0,0,0-.74,6.71c-.57,11.31,6.31,41.22,6.67,46"/><path class="cls-9" d="M150.93,153a2.19,2.19,0,1,0,1.95,2.4,2.2,2.2,0,0,0-1.95-2.4"/><path class="cls-9" d="M158.61,150.58a2.19,2.19,0,1,0,1.95,2.4,2.2,2.2,0,0,0-1.95-2.4"/><path class="cls-3" d="M18.25,89.79C11.14,92.91,7.72,98.9,6.54,106.65,13.2,97.9,19.8,93.05,26.33,92.87L22.7,88.34a26.69,26.69,0,0,0-4.45,1.45"/><path class="cls-4" d="M26.33,92.87c-6.53.18-13.13,5-19.79,13.78q12.33-.37,17.6-9a22.08,22.08,0,0,0,2.19-4.78"/><path class="cls-3" d="M31.38,76.79c.95,1.54,7.18,1.54,4.64-3.84,0,0,5.77-1.51,3.79-4.93a15.77,15.77,0,0,0-2.05-1.7s-.08-3.38-2.22-3.91c-4-1-5,3.88-5,3.88-1.43-2.54-9.38-.69-5.67,5.07-1-.37-8.44-.45-5,5.09,0,0-5.44,2.14-1.71,5.78,0,0-4.43,1.63-.5,4.91,0,0-1.38,1.29.54,2.65a26.69,26.69,0,0,1,4.45-1.45l3.63,4.53s3.85-2.59.54-5.31c0,0,5-2.1.8-6.09,0,0,5.92,1.86,3.71-4.68"/><path class="cls-10" d="M46.85,74c-3.31-.33-5.8,2-6.14,5.32s1.61,6.37,4.92,6.7a6,6,0,1,0,1.22-12"/><path class="cls-11" d="M46,78.61a1.18,1.18,0,0,0,.32,1.63A1,1,0,0,0,47.89,80a1.26,1.26,0,0,0-.37-1.48,1.12,1.12,0,0,0-1.49.13"/><path class="cls-3" d="M198,70.36c1.89-1.25.47-4,.27-6a13.72,13.72,0,0,0-.39-2.23,4,4,0,0,0,2.18-.91c2-1.83.4-5.48.4-5.48,2.82-3.21,1.57-9.64,1.57-9.64s-3.46-.5-4.48-.7c-12.83-2.54-16.34-4.51-20.82-12.16-8-1.24-7.83,5.15-7.83,5.15-6.14-.73-6.88,6-6.88,6-7.19-1.11-5.34,8.25-5.34,8.25-9.21-3.18-5.91,6.63-5.91,6.63-6.65-1-4.4,4.22-4.4,4.22-11,2.65-3.79,8.94-3.79,8.94-6.41,1.92-2.85,8-2.85,8-2.82,2.29-.59,8.48,0,10.81,2.35,9.86,16.66,14.83,20,13.59,2.11,1,5.55,1.53,7-.76,4.88,0,6.12-5.2,6.12-5.2a7,7,0,0,0,2,.38h0c3.69,0,5.65-3.54,6.48-5.67a12.16,12.16,0,0,0,.5-1.51c6.37,1.61,5-6.45,5-6.45,4.77,1.55,4.33-5.78,4.33-5.78C199.09,78.54,195,71,195,71a4.73,4.73,0,0,0,3-.64"/><path class="cls-5" d="M137.35,111a18.57,18.57,0,0,0,5.56,7.1,15.42,15.42,0,0,1,5.4,8.13c1.67,7.25-7.22,8.69-8.35,3.76-.78-3.41-4.86-4-5.19-.71-.36,3.51,4.57,11.65,13.38,7.73,3.33-1.47,5.36-5.46,5.47-9A13.89,13.89,0,0,0,150,118.3c-2.91-3.27-6.84-5.5-8.2-9.56a7.73,7.73,0,0,1,.41-5.91,7.51,7.51,0,0,1,3.36-3.54,24.87,24.87,0,0,1-3.79-3.15l-.15.1c-7.06,5-4.58,14.15-4.32,14.72"/><path class="cls-5" d="M165.2,104l10.2,5.84c.76.44.5,2.07,0,2.77l-3.93,5.29,5.55,3.89,6.21-8.29a6.12,6.12,0,0,0-1.5-8.77l-8.33-5.55h0a7.05,7.05,0,0,1-2.06-.38s-1.24,5.22-6.11,5.2"/><path class="cls-6" d="M171,124.74c-.47,2.27-1.77,4.31-.65,4.78,2.35,1,6.7-7.71,6.7-7.71l-5.55-3.89c-6.19,3.41-5.43,6.75-4.78,8.06a.67.67,0,0,0,.91.3l3.09-1.6Z"/><path class="cls-6" d="M188.25,153c-.33,1.64-1.84,5.23-.74,6.09,1.35,1.05,6.29.06,7.9-1.18l9.8-7.28-6.31-5.14-3.29-2.68L191,139.13Z"/><path class="cls-12" d="M196.16,105.41,191,139.13l4.58,3.72c37.61-62,12.18-76.15,12.18-76.15s-4.3,7.42-5.11,9.51c-4.79,12.37-6.52,29.2-6.52,29.2"/><path class="cls-10" d="M203.82,81.35a7.16,7.16,0,0,0-5.88,6.56,7.41,7.41,0,0,0,2.56,6.53,6.26,6.26,0,0,0,3.35,1.41c3.69.37,7-2.59,7.39-6.59s-2.24-7.57-5.92-7.94a6.83,6.83,0,0,0-1.5,0"/><path class="cls-7" d="M198.9,145.53S214,116.06,228.75,95.64c10-13.77,22.43-6.24,29.29-.11l9.44-27c.39-1.26,3.45-10.82,2.38-10L245.93,74.32l2.9-6.12-7,4.25a11.64,11.64,0,0,1,1.45-6.57A17.14,17.14,0,0,0,235.6,70c1.59-2.61.28-5.77,3.08-9.39-2.94.82-5.7,3.12-8.36,6.34l.48-4.73L226.55,65l-.41-20.53c.18-2.12-1.11-1.72-5,3.24,0,0-6.23,8.05-8.46,10.59a23,23,0,0,0-4.85,8.39s6,7.53,5.53,14.59c2.32,9.69-5.68,31.4-19.35,60.23"/><path class="cls-11" d="M202.83,85.91c-.67-.07-1.1.44-1.33,1.07a1.15,1.15,0,0,0,1,1.45,1.41,1.41,0,0,0,1.43-1.2,1.2,1.2,0,0,0-1.08-1.32"/><path class="cls-12" d="M198.9,145.53l6.31,5.14,45.24-35.81h0l3.9-3.08,3.55,1.71a28,28,0,0,0,.14-9.47l3.36,2.78a13.62,13.62,0,0,0-2.3-7.34l4.09,1.44A46,46,0,0,0,258,95.53c-6.86-6.13-19.32-13.66-29.29.11C214,116.06,198.9,145.53,198.9,145.53"/><path class="cls-10" d="M221.1,53.25l-5.46,8.31a5.25,5.25,0,0,0,4.3,1.42Z"/><path class="cls-7" d="M237.59,190.31c1.45,2.35,3.54,4,5.1,1.47,2-3.23-8.44-9-8.44-9,.45-19.24,8.45-61.94,5.7-48.07,1.31-6.63-11.24,11.68-13.23,15a238.15,238.15,0,0,1-2.24,37.4c-.78,2.44,1.53,6.64,4.29,5.78,1.51-.46,2.79-2.06,2.46-3.42,1,2.63,2.38,6,5,5,2-.74,2.2-2.09,1.33-4.24"/><polygon class="cls-10" points="262.61 69.04 252.61 76.89 258.15 80.81 262.61 69.04"/><path class="cls-10" d="M234.27,98.83a6.7,6.7,0,1,0,9-3.81,6.95,6.95,0,0,0-9,3.81"/><path class="cls-11" d="M236.47,99.46a1.21,1.21,0,0,0,1.08,1.32,1.41,1.41,0,0,0,1.61-1.06A1.34,1.34,0,0,0,238,98c-.68-.06-1.44.78-1.51,1.46"/><path class="cls-13" d="M230.63,120.5c.14,2.48,1.36,4.43,3,4.6,2,.2,3.82-2.16,4.14-5.29a8.43,8.43,0,0,0-.05-2.08"/><path class="cls-13" d="M82.07,82.59s2,12.54-3.28,16.2c-2.36,1.64-13.75-2-10.16-6.8"/><path class="cls-4" d="M78,74.71c-1.75.4-3.14,1.69-2.31,3a21.78,21.78,0,0,0,3,3.28c.74.73,3,2.19,3.77,1.74.48-.28,1.8-4.65,2-6.62.17-1.53-.5-2.31-1.15-2.33a22.67,22.67,0,0,0-5.32.92"/><path class="cls-5" d="M172.49,34c5.3,7.1,16.27,12.54,29.3,13.64,1,.08,2.07.14,3.09.17,17.66.51,32.21-7.48,33.14-18.61,0-.38,0-1.48,0-1.12-.66-2.82-2.34-7.88-2.34-7.88C231,12.33,222.44,10.08,206.42,6.39,199,4.67,194,4.92,189,6.12c-7.81.39-14.27,15.47-14.27,15.47a76.22,76.22,0,0,1-5.42,7.5A27.67,27.67,0,0,0,172.49,34"/><path class="cls-4" d="M147.91,32.25c12.61,2.54,19-.18,22.51-3.77A49.65,49.65,0,0,0,174,24.24l-.16-1.37c-8.4,3.15-15,5.44-25.93,9.38"/><path class="cls-3" d="M147.91,32.25c10.65-3.77,16.85-5.54,25.93-9.38l.88-1.28a29.54,29.54,0,0,0-5.07-.62c-14.77-.52-21.74,11.28-21.74,11.28"/><path class="cls-3" d="M189,9.17A7.44,7.44,0,0,0,188.59,8s7-1.58,4.89-5.56c-2-3.68-8.12.49-8.12.49s-6.48-7.59-7,1.66c0,0-5.57-1.89-6.28,5.89,0,0-6.58-1.65-3.08,6.5,0,0-4,3.22.68,6.81,0,0,3.34,2.31,5.06.85.9-.75,2.27-2.21.44-4.68,4.1,3.25,3.45-3.62,3.45-3.62,6.36,2.05,4.57-4.27,4.57-4.27,6.37,2,6.32-1.1,5.82-2.9"/><path class="cls-10" d="M194.65,11.19c-3.06.44-5.15,3.55-4.66,7s3.37,5.8,6.44,5.35,5.16-3.55,4.68-6.95-3.39-5.8-6.46-5.35"/><path class="cls-11" d="M196.49,18.29a1,1,0,0,0-.69,1.37,1.07,1.07,0,0,0,1.29.84,1.13,1.13,0,0,0,.7-1.46,1,1,0,0,0-1.3-.75"/><path class="cls-10" d="M204.31,30.92c.24,1.93,1.57,5.71,3.9,7.28,0,0,4,2.25,6.43,2.21a8.75,8.75,0,0,1-6.32,2.68c-.16,0-3,.49-4.76-1.32-3.24-3.45-1.45-9,.75-10.85"/><g class="cls-14"><polyline class="cls-13" points="206.76 36.89 206.75 36.9 202.1 40.85"/><line class="cls-13" x1="210.49" y1="38.58" x2="205.17" y2="43.57"/></g><path class="cls-4" d="M232.2,21.27c-1.93.67-3.67,2.64-2,4.49A16.49,16.49,0,0,0,233.88,29c2.7,1.66,4,1.54,4.48-.64a24.26,24.26,0,0,0,.28-3.87c-.09-2.82-1.24-4.52-3.2-4.23a11.13,11.13,0,0,0-3.24,1"/><path class="cls-7" d="M74.64,124.13s-6,1.64-8.7,4.35-2.82,3.68-2.82,3.68,1.59-7.27,4.68-9.55S72.59,124,72.59,124Z"/><path class="cls-5" d="M45.08,108.4a3,3,0,0,0-3.27,3.51c.4,2.14,2.48,3.84,4.11,5.1,7.28,5.65,17.22,7.76,26.25,6.42l.6-6a34.49,34.49,0,0,1-23.15-6.69,10.49,10.49,0,0,0-4.54-2.36"/><path class="cls-6" d="M77.25,117.57a15.34,15.34,0,0,0-4.48-.12l-.6,6,.58.39c.82.54,8.21,2.84,8.88,2.21s.27-1.26-.09-1.81c-.7-1.14-3.43-2.85-3.43-2.85s4.63.69,5.33-.57-4.71-2.92-6.19-3.23"/></g></g></svg>