<svg xmlns="http://www.w3.org/2000/svg" viewBox="0 0 229.54 263.09"><defs><style>.cls-1{fill:#2fac66;}.cls-2,.cls-3{fill:#a4a092;}.cls-3,.cls-4{fill-rule:evenodd;}.cls-4,.cls-7{fill:#dad8cc;}.cls-5{fill:none;stroke:#dad8cc;stroke-linecap:round;stroke-linejoin:round;stroke-width:0.28px;}.cls-6{fill:#008f92;}.cls-8{fill:#00a0a4;}.cls-9{fill:#b4b0a4;}.cls-10{fill:#fff;}.cls-11{fill:#454444;}.cls-12{fill:#0d181c;}.cls-13{fill:#1d1d1b;}</style></defs><g id="Capa_2" data-name="Capa 2"><g id="Capa_1-2" data-name="Capa 1"><path class="cls-1" d="M42.08,229c49.76-3.64,89.59,1.31,139.48,1.54,7.63,0,26.79-5.73,30.4,1,3.45,6.43-.73,14.82-7,18.54s-13.95,4-21.25,4.28Q137.25,256,91,261.26c-12.35,1.39-24.92,3-37.13.65-9.53-1.81-18.44-5.92-27.24-10-4.42-2-9.56-5.24-9.23-10.09.35-5,3-7.13,7.76-8.89,5-1.86,5-1.86,16.92-3.9"/><path class="cls-2" d="M131.16,31.07l.06-.22c6.14-8,12.31-14.32,19.72-19.42,2.74-1.88,4-1.77,4,1.79,0,10.5-1.85,19.13-6.19,33,2.74,4.62,3.84,10,3.89,16l-6.06-4.75c3.53,4.45,5.85,10.73,7.14,18.61L148.1,72.4a31.84,31.84,0,0,1,.43,16.43c-10.61-11.46-12.36,6.13,12.53,61.1l-5.17-4.44a45.36,45.36,0,0,1,5.17,20.6l-4.23-3.67c.82,6.44,3.85,22.26,2.76,27.23l-3.69-5.49c-10.49,2.65-21,13.31-34.21,16.62C103,205.46,89.76,191.68,78.81,188v0c1.13-14.29,2-25.72,5.78-34.93l3.24,4.12s2.82-20.45,6.39-24.12l2.48,8.76s2.82-10.93.65-20a12.52,12.52,0,0,1,6,4.44c-6.06-19.37,27.91-34,26.07-64l3.35,1.78c0-2.27-2.71-7.14-2.71-7.14l6.17,1.62c-1.94-4.54-8.59-8.76-8.59-8.76l3.73-1c-2.6-3.74-9.66-2.2-12.59-4-6.29-3.87-22.95,10.41-30,12.55L26.53,60.18l.13.86a31.92,31.92,0,0,0-1.5-6.16h0s22.12-6.48,27.15-8.22c12.16-4.2,41.63-15.58,41.63-15.58h0l11.52-4v1.7a35.84,35.84,0,0,1,6.91-5.15,25,25,0,0,1,4.45-2c-1.57,2.69-2.45,4.53-2.41,7.32,2.44-2.63,5.23-3.31,8.58-4-1.56,1.85-2.58,2.82-2.26,4.71,3.81-.66,7.22.42,10.43,1.35"/><path class="cls-3" d="M148.61,196.15c1.67-1.68,5.34,1.27,5.34,1.27s11.16,7.15,23.32,10.52c3.89,1.07,11.84,1.78,19.14,1.57s8.78.5,8.78.5l-1.89,1.32s4.51.69,8.43,1.55a34.29,34.29,0,0,1,7.05,2.41L214,216.58a49.24,49.24,0,0,1,9.11,2.34,18.09,18.09,0,0,1,6.42,4.18s-16.5,7.39-34,4.55C164,222.55,158,212,150.33,203.37c-.63-.71-3.71-5.22-1.72-7.22"/><path class="cls-4" d="M159,212.88s10.76,3.9,16,5.66a141.22,141.22,0,0,0,48.57,6.68s-11.46,5.22-29,3.08C171.09,225.45,159,212.88,159,212.88"/><path class="cls-5" d="M223.59,225.22s-11.46,5.22-29,3.08C171.09,225.45,159,212.88,159,212.88"/><path class="cls-2" d="M66.32,244c-8.2,2.07-6.19-5.44,6.29-7.08,4.36-9.5,6.24-16.59,9.2-24.72l10.73,3.06L81.75,241.22c.87,13.15-12.87,12.79-7.69,6.23-7.81,5.75-11.48-.52-7.74-3.42"/><path class="cls-6" d="M101.66,211a79.08,79.08,0,0,0-5.89,8.84l-19.52-7.48c.35-3.7,5.39-16.76,5.39-16.76,4.41,7.41,10.41,11.87,20,15.4"/><path class="cls-7" d="M136.19,58.54,130,56.92s2.66,4.87,2.71,7.14l-3.35-1.78c1.84,30-32.13,44.62-26.07,64a12.52,12.52,0,0,0-6-4.44c2.17,9.09-.65,20-.65,20l-2.48-8.76c-3.57,3.67-6.39,24.12-6.39,24.12l-3.24-4.12c-3.77,9.21-4.65,20.64-5.78,34.93-6.45-35.62,14.54-73.91,1.56-92L23.18,77.91a28,28,0,0,0,3.35-17.73s29.93-7.09,39.81-10c8.92-2.6,35.41-12,35.41-12A24,24,0,0,1,122,40.89c2.92,1.79,6.77,4.18,9.37,7.91l-3.73,1s6.65,4.22,8.59,8.76"/><path class="cls-2" d="M174.27,243.62c2.79.6,4.56,6.25-4.82,5-13.21-1.7-22.7-8-28.22-22.17l9.57-3.61c3,8.53,8.38,12.79,14.43,15.45l1.68-3.05c4.1-7,10.78-2.24,6.73,1.81,2.8-.11,6,4.85.63,6.53"/><path class="cls-8" d="M103.39,212.71c-9.62-3.53-17.34-9.71-21.75-17.12-2.84-4.75-3.68-9.51-4.12-15.4,0,.45.86.3,1.29.43l3.09,1c10.94,3.65,22.63,4.93,38.87,4.93,13.58,0,28.34-1.56,38.83-4.21.86-.21.31,4.3,0,6.82a27,27,0,0,1-4.25,11,41.45,41.45,0,0,0-1.21,5.62,28.7,28.7,0,0,0-.33,5.61,35.67,35.67,0,0,0,2.33,11.19l-6.3,1.68-8.57,2.27-6.34,1.67-3.53-13.23a51,51,0,0,1-17.19.49,52.36,52.36,0,0,1-10.78-2.71"/><path class="cls-7" d="M146.33,24.14c.56-.54,2.52-2.3,1.13.8,0,0-5.3,12.67-5.67,12.41-1.34-.92-6-3.27-5.53-3.7Z"/><path class="cls-9" d="M129.63,119.52a17.68,17.68,0,0,1,1.49-3.27,5.07,5.07,0,0,1,8.27,0c2.24,3,1.93,7.62,1.6,11.15-1.43,15.78-8.86,30.78-21.15,40.58-5.29,16.18-12.64,15.1-11.34,9.26l0-.07c-2.52,1.33-5.07,1.38-6.09,0s-.06-4,2.23-6l-.08-.09c-.42.12-5.17.71-5.17-2.42s9.58-4.89,9.58-4.89c9.18-8.27,16.17-21.61,19-34.14Z"/><path class="cls-2" d="M107.52,3.86l4.85,20.31a35.49,35.49,0,0,0-6.91,5.16L93.94,31.6,104.34.35c.41-1.16,2.29.67,3.18,3.51"/><path class="cls-10" d="M105.83,42.54c4.8,1.09,7.77,6.13,6.62,11.27s-5,8.69-10.82,7.31A9.26,9.26,0,0,1,95,49.87c1.15-5.14,4.57-8.52,10.8-7.33"/><path class="cls-11" d="M97.52,189.53a2.33,2.33,0,1,1-2.34,2.32,2.33,2.33,0,0,1,2.34-2.32"/><path class="cls-11" d="M99.35,200.89a2.23,2.23,0,1,1-2.23,2.23,2.23,2.23,0,0,1,2.23-2.23"/><path class="cls-12" d="M103.43,77.91a10.87,10.87,0,0,1,.8,4.08c0,5.33-3.79,9.66-8.44,9.66S87.35,87.32,87.35,82v-.16a11,11,0,0,0,6.4,2,10.54,10.54,0,0,0,9.68-6"/><path class="cls-13" d="M101.2,49.2A1.84,1.84,0,0,1,103,50.93a1.69,1.69,0,1,1-3.37-.11,1.62,1.62,0,0,1,1.6-1.62"/><path class="cls-12" d="M26.66,61.05a25.48,25.48,0,0,1-3.48,16.86l-12.31-5C1.77,68.24-4.28,61,3.74,59.36l21.42-4.49h0a31.83,31.83,0,0,1,1.5,6.17"/></g></g></svg>