<svg xmlns="http://www.w3.org/2000/svg" viewBox="0 0 191.78 281.07"><defs><style>.cls-1{fill:#2fac66;}.cls-2{fill:#0d181c;}.cls-3{fill:#b91919;}.cls-4{fill:#00a0a4;}.cls-5{fill:#e30613;}.cls-6{fill:#e4d5b8;}.cls-7{fill:#fcc700;}.cls-8{fill:#a85318;}.cls-12,.cls-9{fill:none;stroke-linecap:round;}.cls-9{stroke:#fcc700;stroke-width:0.85px;}.cls-10{fill:#814114;}.cls-11{fill:#ffde00;}.cls-12{stroke:#1d1d1b;stroke-width:0.85px;}.cls-13{fill:#fff;}.cls-13,.cls-14{fill-rule:evenodd;}.cls-14{fill:#1d1d1b;}</style></defs><g id="Capa_2" data-name="Capa 2"><g id="Capa_1-2" data-name="Capa 1"><path class="cls-1" d="M32.85,251.17l91.82.05c19.12,0,39.28.29,55.77,10,4.91,2.88,9.58,6.85,11.34,12.27a665.92,665.92,0,0,1-171.63,3.79c-5-.53-10.13-1.19-14.32-3.91S-1.24,265.2.54,260.53c2.22-5.83,9.7-7.21,15.92-7.7l17.81-1.41"/><path class="cls-2" d="M64.57,195.93c-1,16.69-.11,24.36-.26,28.48-.46,12.85-.65,19.82-.65,19.82L75.35,246s6.44-46.56,16-43.8,15.14,19.75,17.48,27.18a93.29,93.29,0,0,0,6.11,15.41l11.3-.86s-1.67-9.22-3.06-24.22c-.9-9.66-2.55-27.62-2.55-27.62L84.5,168.88Z"/><path class="cls-3" d="M63.63,243.85l-.32,16.68s-12.48-1.08-15.09.79-4.94,5.5-3.72,6.78S51.13,271,63,271.72c7.78.45,10.4-.89,10.4-.89l1.8-26.24Z"/><path class="cls-4" d="M139.91,135.56c7.86,12.37-6.2,37-6.2,37l-9.92-7.22s8.67-17,4.31-23.24-16-13.49-16-13.49.72,11.58,2.28,21.33c2,12.14,4.66,24.32,4.66,24.32L125.16,201s-24.88.64-32.35-6.21-7.82-18-7.82-18-.89,15-8.35,17.4-15.54,4.23-15.54,4.23,7.34-76.37,7.33-83.64-.64-11.58,9.93-12.21,21.2-1.17,29.29,3.14,26.29,20.42,32.26,29.81"/><polygon class="cls-5" points="77.25 242.68 76.33 247.74 62.34 246.46 62.68 241.58 77.25 242.68"/><path class="cls-3" d="M114.07,244.22l2.3,16.52s-14.3,0-16.58,2.24-4,6.21-2.61,7.27,8.8,2.77,20.66,1.59c7.76-.77,10.14-2.51,10.14-2.51l-2.34-26.19Z"/><polygon class="cls-5" points="127.34 240.93 127.22 246.08 113.21 247 112.78 242.13 127.34 240.93"/><path class="cls-6" d="M38.94,163.19s-9.81,12-8.42,13.84,5.53-3.9,5.53-3.9-3.19,6.06-1,7.17,3.84-6,3.84-6-.45,6.81,1.8,7.36S42.55,175,42.55,175s3.7,2.76,4.4,1.06-2.78-9.38-2.78-9.38Z"/><path class="cls-4" d="M79.17,120.4c-7,7.85-13.35,14-18.31,21.15s-13.87,28-13.87,28l-12.28-4.18s9.1-20.48,12.55-27c6.56-12.38,16.79-24.15,16.79-24.15l11.78-10.86s8.65,11.13,3.34,17"/><path class="cls-7" d="M107,105.24c3.15-.37,10.21,1,12.45,2.43s2.14,4.25-1,5.11a12.7,12.7,0,0,1-9-.72c-3-1.31-6.38-4.22-6-5.63s2.74-1.09,3.51-1.19"/><path class="cls-7" d="M76.47,103.21c-3.08-.8-10.25-.44-12.67.7s-2.71,3.92.29,5.2a12.78,12.78,0,0,0,9,.51c3.14-.89,8.24-3,8-4.4s-3.89-1.82-4.64-2"/><path class="cls-7" d="M121.7,112.05s10.08,10.27,7.6,10.12-10.52-8.9-10.52-8.9,8.59,13.26,5.47,11.81-9.7-11-9.7-11,5.71,12.53,3.52,11.12-7.55-12.71-7.55-12.71,7.24-.15,8.11-1.45,3.07,1,3.07,1"/><path class="cls-7" d="M61.14,107.51s-8.6,11.52-6.17,11,9.22-10.22,9.22-10.22-6.72,14.28-3.82,12.43,8.13-12.18,8.13-12.18-4,13.17-2,11.48,5.78-13.6,5.78-13.6-7.2.82-8.23-.36-2.91,1.4-2.91,1.4"/><path class="cls-8" d="M118,164.86s-18.43,2.36-25.65,2C74,166,63.6,162.54,63.6,162.54l-.24,7.3a113.22,113.22,0,0,0,25.07,3.32c19.35.06,30.88-2.2,30.88-2.2Z"/><path class="cls-7" d="M78.55,171.93a2.63,2.63,0,0,0,2.65,2.62h6.66a2.64,2.64,0,0,0,2.64-2.63v-3.78a2.64,2.64,0,0,0-2.66-2.62H81.18a2.64,2.64,0,0,0-2.64,2.63Z"/><path class="cls-9" d="M99.33,122.65a84.65,84.65,0,0,1-13.88.15,54.12,54.12,0,0,1-11.1-2.36"/><path class="cls-2" d="M97.3,122.74a2.91,2.91,0,1,0,2.78-3,2.9,2.9,0,0,0-2.78,3"/><path class="cls-2" d="M71.48,121.43a2.91,2.91,0,1,0,2.78-3,2.91,2.91,0,0,0-2.78,3"/><path class="cls-9" d="M99.71,139.43s-7.77,1.28-13.88.33a53.92,53.92,0,0,1-11-3"/><path class="cls-2" d="M97.67,139.41a2.92,2.92,0,1,0,3-2.87,2.9,2.9,0,0,0-3,2.87"/><path class="cls-2" d="M72,136.75a2.92,2.92,0,1,0,2.94-2.86A2.92,2.92,0,0,0,72,136.75"/><path class="cls-9" d="M99,156.41a58.25,58.25,0,0,1-13.87.42,54,54,0,0,1-11-2.71"/><path class="cls-2" d="M97,156.44a2.91,2.91,0,1,0,2.87-2.93A2.91,2.91,0,0,0,97,156.44"/><path class="cls-2" d="M71.21,154.34a2.92,2.92,0,1,0,2.88-2.93,2.9,2.9,0,0,0-2.88,2.93"/><path class="cls-6" d="M131.06,170.6s-7.77,12.88-10,12.24,1.63-6.57,1.63-6.57-4.49,5.13-6.3,3.48,4.16-5.73,4.16-5.73-6.16,2.84-7.48.93,5.53-4.12,5.53-4.12-3.89-2.5-2.56-3.76,9.15-.76,9.15-.76Z"/><path class="cls-6" d="M58.31,41.31C57.22,41.2,52.1,67.85,54,76.9c2.21,10.69,5.23,24.52,24.89,33.38,13.65,6.16,32.17-1.48,39.31-10.22C124.63,92.17,129,79,129.69,67s-5.16-24.84-5.16-24.84-20.62-11.27-21.44-11.35-19.9-.44-21.44-.59S58.31,41.31,58.31,41.31"/><path class="cls-10" d="M79.87,33.69c12.94,15.66,21.63,20.9,21.43,13.68-.12-4.51-.36-9.11-.36-9.11s11.62,14.38,16.7,16.44,2.93-7.86,2.93-7.86S129,62.08,132.2,60.35s-5.34-21.3-9.11-23.67S100,23.71,90.86,24.76s-20,1.76-23.4,4.51S44.22,48.43,47.6,51s14-9.89,14-9.89-4,13,4.8,7.9,13.46-15.3,13.46-15.3"/><path class="cls-7" d="M62.33,33.55,58.78,15.8l8.59-1.43S69.79,23,75,20.77,77.87,6.69,77.87,6.69s5.89,13.17,10.58,12.8S92.67,7.86,92.67,7.86l9.2,1.35s-3.26,10.5,2.67,11.45c3.29.52,7.53-13.6,7.53-13.6s-.62,15.28,3.66,16.16c6,1.22,8.69-4.33,8.69-4.33l7.49,4.67L124.28,37.8s-15.48-8.43-34.1-9.72a55.78,55.78,0,0,0-27.85,5.47"/><path class="cls-11" d="M82.23,5.8a4.9,4.9,0,0,1-5.87,3.68,4.9,4.9,0,0,1-4-5.69,5,5,0,0,1,9.83,2"/><path class="cls-11" d="M117.12,8.06a5,5,0,0,1-9.83-2,5,5,0,0,1,9.83,2"/><path class="cls-6" d="M128.92,62.42S136.22,62,136,67s-3.06,6.81-5.95,7.25-4.15-.42-4.15-.42l-.8-9.33Z"/><path class="cls-12" d="M89.64,64.28S77.8,79.57,78.14,81.7,90.6,83,90.6,83"/><path class="cls-2" d="M96.21,102.76a13.67,13.67,0,0,0-7.39-3.91c-4.31-.56-9.77.94-9.77.94s2.86-9.29,9.8-8c7.25,1.35,7.36,11,7.36,11"/><path class="cls-13" d="M107.07,54.24c5.12.5,8,3.68,7.82,8.79s-3.13,8.79-8,8.61-8.22-4.07-8-9.19,3.39-8.67,8.2-8.21"/><path class="cls-14" d="M108.08,62.5c1,0,1.4.67,1.37,1.61a1.49,1.49,0,0,1-1.55,1.6,1.61,1.61,0,1,1,.18-3.21"/><path class="cls-13" d="M69.25,53.61c4.27-.93,7.08,1.58,8.08,6.09s-.74,8.39-5,9.32-8.11-1.73-9.11-6.26a7.5,7.5,0,0,1,6-9.15"/><path class="cls-14" d="M71.52,61.35a1.25,1.25,0,0,1,1.57,1.12,1.35,1.35,0,0,1-1,1.76,1.47,1.47,0,0,1-1.79-1.16,1.45,1.45,0,0,1,1.23-1.72"/><path class="cls-3" d="M68.24,25.44a2.19,2.19,0,1,1-1.71-2.59,2.2,2.2,0,0,1,1.71,2.59"/><path class="cls-3" d="M97.25,21.29a2.19,2.19,0,1,1-1.7-2.59,2.19,2.19,0,0,1,1.7,2.59"/><path class="cls-3" d="M123.71,30A2.19,2.19,0,1,1,122,27.44,2.2,2.2,0,0,1,123.71,30"/><path class="cls-12" d="M98.59,57.61a38.58,38.58,0,0,1,7.21-3.4c3.89-1.3,6.1-2,6.1-2"/><path class="cls-12" d="M78.16,56.28a38.49,38.49,0,0,0-7.52-2.65c-4-.9-6.27-1.38-6.27-1.38"/></g></g></svg>