<?xml version="1.0" encoding="utf-8"?>
<!-- Generator: Adobe Illustrator 26.2.1, SVG Export Plug-In . SVG Version: 6.00 Build 0)  -->
<svg version="1.1" id="Capa_1" xmlns="http://www.w3.org/2000/svg" xmlns:xlink="http://www.w3.org/1999/xlink" x="0px" y="0px"
	 viewBox="0 0 105.6 82" style="enable-background:new 0 0 105.6 82;" xml:space="preserve">
<style type="text/css">
	.st0{clip-path:url(#SVGID_00000132788692336788830930000006236312817248781995_);}
	.st1{clip-path:url(#SVGID_00000020381139509264870160000003276387172907286924_);}
	.st2{clip-path:url(#SVGID_00000163779860336519503070000013847017549656241839_);}
	.st3{fill:#D7D7CE;}
	.st4{fill:#111419;}
	.st5{clip-path:url(#SVGID_00000131358325686929266010000002518534334689399731_);fill:#F8E12E;}
	.st6{fill:none;stroke:#211915;stroke-width:0.77;stroke-linecap:round;stroke-linejoin:round;}
	.st7{clip-path:url(#SVGID_00000176005778612500843790000001842287116046991282_);}
	.st8{clip-path:url(#SVGID_00000008132248390350831970000017506776947412855212_);}
	.st9{clip-path:url(#SVGID_00000070076433468606589380000011840568526753448626_);}
	.st10{fill:#FFFFFF;}
	.st11{fill:none;stroke:#D7D7CE;stroke-width:0.36;stroke-linecap:round;}
	.st12{fill:#F8E12E;}
	.st13{fill:#211915;}
</style>
<g>
	<defs>
		
			<rect id="SVGID_1_" x="35.3" y="4.2" transform="matrix(0.2114 -0.9774 0.9774 0.2114 20.9871 68.6377)" width="35.4" height="34.1"/>
	</defs>
	<clipPath id="SVGID_00000149382338162114049850000011844328121556670622_">
		<use xlink:href="#SVGID_1_"  style="overflow:visible;"/>
	</clipPath>
	<g style="clip-path:url(#SVGID_00000149382338162114049850000011844328121556670622_);">
		<g>
			<defs>
				
					<rect id="SVGID_00000033328716994518967940000001045247975257698734_" x="35.3" y="4.2" transform="matrix(0.2114 -0.9774 0.9774 0.2114 20.9871 68.6377)" width="35.4" height="34.1"/>
			</defs>
			<clipPath id="SVGID_00000080184077559000865160000003916070934184034691_">
				<use xlink:href="#SVGID_00000033328716994518967940000001045247975257698734_"  style="overflow:visible;"/>
			</clipPath>
			<g style="clip-path:url(#SVGID_00000080184077559000865160000003916070934184034691_);">
				<g>
					<defs>
						
							<rect id="SVGID_00000011709764950544659030000001958135376283369617_" x="35.3" y="4.2" transform="matrix(0.2114 -0.9774 0.9774 0.2114 20.9871 68.6377)" width="35.4" height="34.1"/>
					</defs>
					<clipPath id="SVGID_00000181056796821888175830000005971477305338661283_">
						<use xlink:href="#SVGID_00000011709764950544659030000001958135376283369617_"  style="overflow:visible;"/>
					</clipPath>
					<g style="clip-path:url(#SVGID_00000181056796821888175830000005971477305338661283_);">
						<path class="st3" d="M48.8,3.6c3.2,1.8,14.2,7.6,15.6,10.7c4.3,9.6-0.7,16.4,1.9,26.4l-7,0L39.6,4.1C39-2.1,46.7,2.4,48.8,3.6
							"/>
					</g>
				</g>
			</g>
		</g>
	</g>
</g>
<path class="st4" d="M79,46c0,0-0.9-8.3-14.4-8.7c-14.4-0.5-17.2,8.4-17.2,8.4s-2.1,4.9,0.6,13C58.2,66.6,75.8,63,75.8,63
	C85,61.8,79,46,79,46"/>
<path class="st4" d="M48,58.6C36.9,73.5,9,75.7,1.5,80.5c-0.5,0.3-1.1,0.1-1.4-0.3C0.1,80,0,79.9,0,79.7c-1-34.1,26.8-49.9,47.4-34
	C47.5,45.8,47.8,58.5,48,58.6"/>
<g>
	<defs>
		<path id="SVGID_00000121975008728851405250000003464629521134660538_" d="M0,79.7c0,0.6,0.5,1,1.1,0.9c0.1,0,0.3-0.1,0.4-0.1
			c7.5-4.8,35.4-7,46.5-21.9c-0.2-0.1-0.4-12.8-0.6-13c-4.9-3.9-11-6.1-17.3-6.2C14.1,39.5-0.7,54.6,0,79.7"/>
	</defs>
	<clipPath id="SVGID_00000120541157950472843940000004586870256015201924_">
		<use xlink:href="#SVGID_00000121975008728851405250000003464629521134660538_"  style="overflow:visible;"/>
	</clipPath>
	<path style="clip-path:url(#SVGID_00000120541157950472843940000004586870256015201924_);fill:#F8E12E;" d="M17.4,41.3
		c0,0.2,11.4-2.5,11.3-2.2c-0.9,9,3.2,19.6,7.7,29.7c0.6,1.4-8.9,4-8.6,3.8C22,63.4,18.6,51.4,17.4,41.3"/>
	<path style="clip-path:url(#SVGID_00000120541157950472843940000004586870256015201924_);fill:#F8E12E;" d="M39.9,36.4
		c-0.1,0.2,11.6-0.3,11.6-0.1c-2.6,8.6-0.5,19.9,1.9,30.6c0.3,1.5-9.5,2.2-9.2,2.1C40.2,59,39.2,46.6,39.9,36.4"/>
	<path style="clip-path:url(#SVGID_00000120541157950472843940000004586870256015201924_);fill:#F8E12E;" d="M-2.2,51.4
		c0,0.2,10.9-4.2,10.9-3.9c0.4,9,6.2,18.9,12,28.2c0.8,1.3-8.2,5.3-8,5.1C5.7,72.6,0.5,61.3-2.2,51.4"/>
</g>
<path class="st6" d="M35.8,65.8c2.6-3.3,6.9-0.5,4.3,15.1c1.9,0.3,3.6,0.3,5.8,0.8"/>
<path class="st6" d="M50.7,59.7l1.3,0.2c1.1,0.2,2.9,2.2,2.9,6.4c0,5.4-1.2,15.1-1.2,15.1c1.6-0.5,3.2-0.6,4.8-0.1"/>
<path class="st6" d="M67,62.4c2.8,0.2,4.1,5.7,3.9,17c1.7-0.5,3.4-0.6,5.1-0.5"/>
<g>
	<defs>
		<rect id="SVGID_00000003820134518572135370000005482722774363182249_" x="15.8" y="11" width="49.1" height="39"/>
	</defs>
	<clipPath id="SVGID_00000074434147169412872090000008438444203470941624_">
		<use xlink:href="#SVGID_00000003820134518572135370000005482722774363182249_"  style="overflow:visible;"/>
	</clipPath>
	<g style="clip-path:url(#SVGID_00000074434147169412872090000008438444203470941624_);">
		<g>
			<defs>
				<rect id="SVGID_00000180337784958734449690000016503851212720371355_" x="15.8" y="11" width="49.1" height="39"/>
			</defs>
			<clipPath id="SVGID_00000091706666551270889140000001994820046955062191_">
				<use xlink:href="#SVGID_00000180337784958734449690000016503851212720371355_"  style="overflow:visible;"/>
			</clipPath>
			<g style="clip-path:url(#SVGID_00000091706666551270889140000001994820046955062191_);">
				<g>
					<defs>
						<rect id="SVGID_00000129925249866779958800000008658356636713409949_" x="15.8" y="11" width="49.1" height="39"/>
					</defs>
					<clipPath id="SVGID_00000081620530533997427840000004640384489084687769_">
						<use xlink:href="#SVGID_00000129925249866779958800000008658356636713409949_"  style="overflow:visible;"/>
					</clipPath>
					<g style="clip-path:url(#SVGID_00000081620530533997427840000004640384489084687769_);">
						<path class="st3" d="M60.9,49.8c-12-5.1-22.4-1.7-37.8-11.5C20.9,37,20,28.3,18.7,25.2C17,21.1,12.6,10.5,20,11.1
							c8.9,0.6,39.1,19.4,44.4,33.7c0.4,1.1,0.5,2.2,0.5,3.3C64.7,49.7,62.4,50.5,60.9,49.8"/>
					</g>
				</g>
			</g>
		</g>
	</g>
</g>
<path class="st6" d="M72.8,63.4c2.2,2.8,3.6,7,4.2,13.2c1.4-0.4,2.8-0.4,4.2-0.1"/>
<g>
	<path class="st10" d="M94.6,40c2.5,0,4.6,2,4.6,4.5c0,0,0,0.1,0,0.1c-0.1,1.8-0.9,3.4-2.3,4.5c-0.3,0.3-6.4-6.5-6.7-6.3
		C90.8,41,92.5,40.1,94.6,40"/>
	<path class="st11" d="M94.6,40c2.5,0,4.6,2,4.6,4.5c0,0,0,0.1,0,0.1c-0.1,1.8-0.9,3.4-2.3,4.5c-0.3,0.3-6.4-6.5-6.7-6.3
		C90.8,41,92.5,40.1,94.6,40z"/>
	<path class="st12" d="M97.4,48c-5-4.3-7.4-7-12.3-8c-7.7-1.6-14.2,13.8-9,20.9C87.5,66.6,118.1,65.5,97.4,48"/>
	<path class="st10" d="M80.4,52.5c0,2.6,2.1,4.7,4.7,4.7c0,0,0,0,0,0c2.6-0.1,4.2-2.2,4.2-4.8c-0.1-2.6-2.2-4.6-4.8-4.6c0,0,0,0,0,0
		C81.8,47.9,80.3,49.9,80.4,52.5"/>
	<path class="st13" d="M85.5,51.2c0,0.4,0.3,0.7,0.7,0.8c0.4,0,0.7-0.2,0.7-0.6c0,0,0,0,0,0c0-0.4-0.3-0.8-0.7-0.8
		C85.8,50.5,85.5,50.8,85.5,51.2C85.5,51.2,85.5,51.2,85.5,51.2"/>
	<path class="st13" d="M95.4,43.1c0,0.3,0.3,0.6,0.7,0.6c0.3,0,0.6-0.2,0.6-0.5c0,0,0-0.1,0-0.1c0-0.3-0.3-0.6-0.6-0.6
		C95.7,42.5,95.4,42.7,95.4,43.1L95.4,43.1"/>
	<path class="st6" d="M86.8,25.4c0,0-6.9-6.4-4.2,15"/>
	<path class="st6" d="M75,24.1c-0.7-0.1-1.3-0.1-2,0.1c-1.1,0.4-1.7,1.6-1.3,2.7c0,0.1,0.1,0.2,0.2,0.4c1.9,3.6,5.6,10.8,6.5,16.3"
		/>
	<g>
		<path class="st4" d="M89.1,45.1c0.1,0,0.1,0,0.2,0c-0.7-1.3-1.1-2.7-1.1-4.1c-0.9-0.4-1.9-0.7-3.1-1c-5.8-1.2-10.9,7.1-10.9,14.4
			C75.6,49.1,81.8,45.1,89.1,45.1z"/>
		<path class="st12" d="M103.7,60.2c0.5-0.8,0.8-1.7,0.6-2.8C104.3,58.4,104.1,59.3,103.7,60.2z"/>
	</g>
	<circle class="st4" cx="86.8" cy="25.9" r="1.7"/>
	<circle class="st4" cx="75.9" cy="24.6" r="1.7"/>
</g>
<path class="st6" d="M93.1,58.3c0,0,2.4,5.4,7.7,4.1"/>
</svg>
