<svg xmlns="http://www.w3.org/2000/svg" xmlns:xlink="http://www.w3.org/1999/xlink" viewBox="0 0 105.58 82.01"><defs><style>.cls-1,.cls-10,.cls-13,.cls-6{fill:none;}.cls-2{opacity:0.6;}.cls-3{clip-path:url(#clip-path);}.cls-4{fill:#d7d7ce;}.cls-5{fill:#fff;}.cls-6{stroke:#d7d7ce;stroke-width:0.36px;}.cls-10,.cls-13,.cls-6{stroke-linecap:round;}.cls-7{fill:#111419;}.cls-8{clip-path:url(#clip-path-4);}.cls-9{fill:#f8e12e;}.cls-10,.cls-13{stroke:#211915;stroke-linejoin:round;}.cls-10{stroke-width:0.77px;}.cls-11{clip-path:url(#clip-path-5);}.cls-12{fill:#211915;}.cls-13{stroke-width:0.77px;}</style><clipPath id="clip-path"><rect class="cls-1" x="31.11" width="36.94" height="40.9"/></clipPath><clipPath id="clip-path-4"><path class="cls-1" d="M0,79.7a1,1,0,0,0,1.48.8C9,75.69,36.91,73.53,48,58.64c-.17-.13-.4-12.84-.56-13a28.12,28.12,0,0,0-17.27-6.22C14.07,39.46-.73,54.63,0,79.7"/></clipPath><clipPath id="clip-path-5"><rect class="cls-1" x="15.83" y="11.04" width="49.14" height="39"/></clipPath></defs><g id="Capa_2" data-name="Capa 2"><g id="Capa_1-2" data-name="Capa 1"><g class="cls-2"><g class="cls-3"><g class="cls-3"><g class="cls-3"><path class="cls-4" d="M41,1.45a18.62,18.62,0,0,1,9.34,6.91A221.32,221.32,0,0,1,68.06,39.13L60.64,40.9,31.41,4.26C29.36-2.55,38.6.65,41,1.45"/></g></g></g></g><path class="cls-5" d="M95.76,40.36A4.55,4.55,0,0,1,100.35,45a6,6,0,0,1-2.28,4.47c-.35.3-6.41-6.49-6.66-6.31.58-1.84,2.31-2.71,4.35-2.78"/><path class="cls-6" d="M95.76,40.36A4.55,4.55,0,0,1,100.35,45a6,6,0,0,1-2.28,4.47c-.35.3-6.41-6.49-6.66-6.31C92,41.3,93.72,40.43,95.76,40.36Z"/><path class="cls-7" d="M98.6,48.35c-5-4.26-7.43-7-12.35-8-7.68-1.64-14.24,13.76-9,20.94,11.4,5.61,42,4.54,21.33-12.91"/><path class="cls-7" d="M79,46s-.86-8.29-14.41-8.71c-14.38-.45-17.24,8.42-17.24,8.42s-2.13,4.89.57,13C58.16,66.55,75.84,63,75.84,63,85,61.76,79,46,79,46"/><path class="cls-7" d="M48,58.64C36.91,73.53,9,75.69,1.51,80.5A1,1,0,0,1,0,79.7c-1-34.14,26.79-49.93,47.36-34,.17.12.4,12.83.57,13"/><g class="cls-8"><path class="cls-9" d="M17.41,41.26c0,.23,11.36-2.47,11.34-2.24-.93,9,3.25,19.64,7.68,29.72.62,1.4-8.93,4-8.63,3.81C22,63.41,18.63,51.44,17.41,41.26"/><path class="cls-9" d="M39.86,36.36c-.07.22,11.62-.28,11.56-.06-2.6,8.64-.52,19.91,1.93,30.64.34,1.49-9.52,2.21-9.19,2.11-3.95-10.06-5-22.45-4.3-32.69"/><path class="cls-9" d="M-2.23,51.38c0,.23,10.86-4.15,10.87-3.92.43,9,6.16,18.94,12.05,28.23.82,1.3-8.24,5.27-8,5.06C5.65,72.59.49,61.27-2.23,51.38"/></g><path class="cls-10" d="M35.85,65.79c2.61-3.35,6.89-.48,4.29,15.06,1.93.26,3.62.29,5.76.77"/><path class="cls-10" d="M50.69,59.7l1.34.22c1.13.19,2.88,2.25,2.86,6.36,0,5.45-1.17,15.07-1.17,15.07a7.9,7.9,0,0,1,4.81-.13"/><path class="cls-10" d="M67,62.4c2.78.22,4.13,5.71,3.89,17A14,14,0,0,1,76,78.93"/><g class="cls-2"><g class="cls-11"><g class="cls-11"><g class="cls-11"><path class="cls-4" d="M60.89,49.82c-12-5.09-20.89-9.59-36.35-19.39-2.14-1.35-4.55-2.17-5.8-5.18C17,21.1,12.55,10.52,20,11.06c8.89.65,39.08,19.42,44.45,33.74a8.13,8.13,0,0,1,.48,3.3c-.27,1.55-2.55,2.36-4,1.72"/></g></g></g></g><path class="cls-10" d="M72.79,63.36c2.21,2.79,3.57,7,4.22,13.15a8.25,8.25,0,0,1,4.22-.07"/><path class="cls-5" d="M81.56,52.86a4.68,4.68,0,0,0,4.71,4.67c2.6-.08,4.25-2.24,4.16-4.84a4.69,4.69,0,0,0-4.85-4.55c-2.6.08-4.11,2.12-4,4.72"/><path class="cls-12" d="M86.71,51.56a.73.73,0,0,0,.7.75.65.65,0,0,0,.7-.63.82.82,0,0,0-.72-.84.7.7,0,0,0-.68.72"/><path class="cls-12" d="M96.62,43.46a.63.63,0,0,0,.65.6.58.58,0,0,0,.61-.64.63.63,0,1,0-1.26,0"/><path class="cls-13" d="M88,25.78s-6.91-6.37-4.16,15"/><path class="cls-13" d="M76.2,24.39a4.21,4.21,0,0,0-2,.07,2.12,2.12,0,0,0-1.14,3.06C75,31.09,78.68,38.33,79.6,43.81"/></g></g></svg>