<svg xmlns="http://www.w3.org/2000/svg" xmlns:xlink="http://www.w3.org/1999/xlink" viewBox="0 0 157.56 75.96"><defs><style>.cls-1,.cls-3,.cls-4{fill:none;}.cls-2{fill:#fff;}.cls-3{stroke:#d7d7ce;stroke-width:0.36px;}.cls-3,.cls-4{stroke-linecap:round;}.cls-4{stroke:#db9600;stroke-linejoin:round;}.cls-5{fill:#945b19;}.cls-6{fill:#211915;}.cls-7{fill:#c58021;}.cls-8{clip-path:url(#clip-path);}.cls-9{fill:#db9600;}</style><clipPath id="clip-path"><path class="cls-1" d="M133.92,21.42a9,9,0,0,0-7.5,1.25c-.28-1.88-6-1.93-9.2.23-.8-2-7.72-1.46-11.67.56-2.66-1.37-7.45-1-11.19,1.91-3.31-1.21-8.35,0-13.48,3.42A14.78,14.78,0,0,0,69.32,34.3c-4,1.57-6.79,4.91-8.5,9.86a11,11,0,0,0-5.56,6.19c-3.85-.49-6.92,2.36-6.95,4.63a9.89,9.89,0,0,0-6.75.14s-6.28-2.6-11,.56a7.06,7.06,0,0,0-7.68-.41s-8.78-4.88-9.62.59c-1,6.16,10.39,7.06,10.39,7.06a8.38,8.38,0,0,0,7.47.75,10.85,10.85,0,0,0,10.66.63c4,1.71,8.07.89,10.47-1.64,4-.1,7.1-2.48,9.43-6.7a14.62,14.62,0,0,0,7-7.15,12.8,12.8,0,0,0,6-6.4,21,21,0,0,0,7.94-3.94,19.93,19.93,0,0,0,11.48-2.9,15.08,15.08,0,0,0,11.49-2.37,10.19,10.19,0,0,0,9.55-.08,18.51,18.51,0,0,0,11.08-.2c2.31,1.67,5.06,1,7.93-.24,2.91-.82,6.53.08,10,1,4.6,1.17,9,2.35,11.45-.32,4-4.38,0-12.56-5.51-16.09a6.4,6.4,0,0,0-3.52-.93c-5.63,0-12.76,5.1-12.76,5.1"/></clipPath></defs><g id="Capa_2" data-name="Capa 2"><g id="Capa_1-2" data-name="Capa 1"><path class="cls-2" d="M153.67,16.3A3.62,3.62,0,0,0,150.05,19c-.54,2.19,1.51,6.92,5.5,4.64a4.39,4.39,0,0,0,1.83-3.44,3.83,3.83,0,0,0-3.71-3.86"/><path class="cls-3" d="M153.67,16.3A3.62,3.62,0,0,0,150.05,19c-.54,2.19,1.51,6.92,5.5,4.64a4.39,4.39,0,0,0,1.83-3.44A3.83,3.83,0,0,0,153.67,16.3Z"/><path class="cls-4" d="M133,9.46A1.63,1.63,0,0,1,130.93,9a2,2,0,0,1,0-2.23,2.73,2.73,0,0,1,2-1.16c2.8-.32,4.87,2.44,6.06,4.59a47.43,47.43,0,0,1,3,6.89"/><path class="cls-4" d="M145,16.44a48.91,48.91,0,0,1-1-5.91,23.08,23.08,0,0,1-.11-6.84,4,4,0,0,1,2.13-3,2.71,2.71,0,0,1,3.19,1A2.7,2.7,0,0,1,148.89,5"/><path class="cls-4" d="M66.3,27.21a18.4,18.4,0,0,0,1.46,7.61"/><path class="cls-4" d="M135.77,13.16A12.6,12.6,0,0,0,130.68,21"/><path class="cls-4" d="M119.77,21.65c0-2.51,2-5.07,5.09-7.64"/><path class="cls-4" d="M50.85,43.18s-.29,6,2.61,8.08"/><path class="cls-4" d="M41.17,48.16s-.43,5.27.39,8.18"/><path class="cls-4" d="M30.63,48.75a16.8,16.8,0,0,0,.45,7.61"/><path class="cls-4" d="M21.58,48.07a17,17,0,0,0-.34,7.29"/><path class="cls-4" d="M106.21,23.06a10.42,10.42,0,0,1,4.39-8.76"/><path class="cls-4" d="M87.74,16.6c-1.81,3.32-2.59,6.45-1.1,9.19"/><path class="cls-4" d="M98.26,14.49c-2.47,3.29-2.91,7.22-1.12,9.88"/><path class="cls-4" d="M78,19.83c-1.49,3-1.32,6.27.88,9.75"/><path class="cls-4" d="M58.8,34.84c-.65,4.34.89,7.94,3.26,9.32"/><path class="cls-5" d="M16.21,53.77A34.19,34.19,0,0,1,6.52,43.59c.65,5.2,2.93,9.36,8,11.74-.23-.14,1.87-1.41,1.65-1.56"/><path class="cls-5" d="M14.29,57c-5,0-10.11-2.26-14.29-6.76C.26,55.84,6.94,59.63,14.69,59c.22,0-.61-2-.4-2"/><path class="cls-6" d="M155.43,19.55a.6.6,0,0,1-.59.6.59.59,0,1,1,.59-.6"/><path class="cls-7" d="M22.92,55.27a7.06,7.06,0,0,1,7.68.41c4.68-3.15,11-.56,11-.56A9.89,9.89,0,0,1,48.31,55c0-2.27,3.1-5.12,6.95-4.63a11.05,11.05,0,0,1,5.55-6.19c1.72-4.95,4.52-8.29,8.51-9.86a14.78,14.78,0,0,1,11.56-5.51c5.13-3.4,10.17-4.63,13.48-3.42,3.74-2.88,8.53-3.28,11.19-1.91,4-2,10.87-2.54,11.67-.56,3.15-2.16,8.92-2.11,9.2-.23a9,9,0,0,1,7.49-1.25s10.79-7.71,16.29-4.17,9.5,11.71,5.51,16.09c-4.29,4.71-14.77-2.55-21.49-.66-2.87,1.23-5.62,1.91-7.93.24a18.51,18.51,0,0,1-11.08.2,10.21,10.21,0,0,1-9.56.08,15,15,0,0,1-11.48,2.37,20,20,0,0,1-11.48,2.91,21.11,21.11,0,0,1-7.94,3.93,12.76,12.76,0,0,1-6,6.4,14.62,14.62,0,0,1-7,7.15c-2.33,4.22-5.41,6.6-9.43,6.7C49.89,65.19,45.8,66,41.82,64.3a10.87,10.87,0,0,1-10.66-.62,8.41,8.41,0,0,1-7.47-.76S12.35,62,13.3,55.87c.85-5.48,9.62-.6,9.62-.6"/><g class="cls-8"><path class="cls-9" d="M133.92,21.42c0-.09-2.12-2.7-4.11-2.46-1.67.2-3.42,3.8-3.39,3.71a14,14,0,0,0-.13,10.25c0-.09,2.79,4.11,4.8,4,1.86-.14,3.16-4.12,3.13-4.2a17.76,17.76,0,0,1-.3-11.26"/><path class="cls-9" d="M117.94,22.47a16.74,16.74,0,0,0-7.33-2.39c-2.65,0-5.15,3.48-5.06,3.38-1.19,2.65-1.07,7,0,10.78a8.6,8.6,0,0,0,5.41.9,19.3,19.3,0,0,0,4.38-1.43c-.73-3.63.77-8.75,2.58-11.24"/><path class="cls-9" d="M94.49,24.39c0-.12-5.76-1.56-9.22-.79-3.22.71-4.42,5.3-4.38,5.19h0c-.41,4,.3,8.15,1.92,10.66,0-.14,3.78,2.26,6.77,1.1,2.62-1,4.27-4.64,4.25-4.75-.55-3,0-8.56.67-11.41"/><path class="cls-9" d="M68.74,48.81c-.09-.07,4.31.8,5.71-.86s.86-5.21.76-5.29a20.23,20.23,0,0,1-5.92-8.83c0-.09-6.27-.41-8.48,2s0,8.37,0,8.29h0a13,13,0,0,0,7.92,4.65Z"/><path class="cls-9" d="M54.89,49.79c-.12-.21-5-2.82-6.84-1.78s-.16,5.28.26,7c.76,3.08,1.74,5.74,4,7.67h0c-.13,0,5.23,4.1,7.35,2.45,2.29-1.78,3-8.67,2.87-8.73-3-1.17-7-5.44-7.62-6.58"/><path class="cls-9" d="M36.45,67.53a14.53,14.53,0,0,0,5.67-2.39c-1.24-2.54-1.25-9.41-.11-12.21a24.51,24.51,0,0,0-6.68-1.52c-2.89-.11-5.23,3.7-5.19,3.61-.84,2.58-.08,7.74,1.08,10.49.34-.14,3,2.38,5.23,2"/><path class="cls-9" d="M23.23,54.12c.09-.27-1-4.94-.92-5.2,0,0-16.9,5.87-18,6.12.87.16,13.4,10.45,14,10.16,2.27-1.22,5.42-1,5.36-1.13-1.21-2.15-1.15-7.89-.41-9.95"/></g><path class="cls-2" d="M151.65,25a4.05,4.05,0,0,1-3.77,4.25,4,4,0,0,1-4.11-3.85,4.19,4.19,0,0,1,3.9-4.3,3.91,3.91,0,0,1,4,3.9"/><path class="cls-6" d="M148.5,24.76a.56.56,0,0,1-.54.63.71.71,0,0,1-.72-.63.63.63,0,1,1,1.26,0"/><path class="cls-4" d="M69.8,46.81A27.1,27.1,0,0,0,71,59.91"/><path class="cls-4" d="M125.37,32.39c.12,4.7,1.56,7.58,4.6,11.22"/><path class="cls-4" d="M111.42,33.31c-.19,4.95,1.27,7.65,4,11.52"/><path class="cls-4" d="M95.84,35.79c-1.11,4.74-.12,7.6,2.4,11.63"/><path class="cls-4" d="M82,38c-.73,5.92.44,9.28,3.26,13.33"/><path class="cls-4" d="M58.72,58.72c-.55,5.13,1.28,8.68,3.4,10.52"/><path class="cls-4" d="M49.18,63.82A18.84,18.84,0,0,0,50.61,74"/><path class="cls-4" d="M40,64.23A25.66,25.66,0,0,0,40,75.4"/><path class="cls-4" d="M29.1,63.38A24.86,24.86,0,0,0,28,75.46"/><path class="cls-4" d="M22.34,61.83c-2.64,3.48-3,7.15-2.1,11.23"/><path class="cls-4" d="M17,60.45c-2.58,2.35-4.39,5.82-5.16,10.78"/></g></g></svg>