<svg xmlns="http://www.w3.org/2000/svg" viewBox="0 0 91.56 93.06"><defs><style>.cls-1{fill:#211915;}.cls-2{fill:#6f4714;}.cls-3{fill:#c58021;}.cls-4{fill:#db9600;}.cls-5{fill:#945b19;}.cls-6{fill:#fff;}.cls-7,.cls-8{fill:none;stroke-linecap:round;}.cls-7{stroke:#211915;stroke-width:0.7px;}.cls-8{stroke:#c58021;stroke-width:0.92px;}</style></defs><g id="Capa_2" data-name="Capa 2"><g id="Capa_1-2" data-name="Capa 1"><path class="cls-1" d="M61.28,18.73c.48.17.83-.88,1.16-1.5C59,11.71,54,7,47.57,7.44c3.5,1.19,6.25,2.4,8.91,5.06a35.25,35.25,0,0,1,4.8,6.23"/><path class="cls-1" d="M67,15.27C66.35,10.16,63.77,2.45,58.66,0a34.5,34.5,0,0,1,4.21,7.13A34.92,34.92,0,0,1,65,16.25c.82-.41,1.94,0,1.94-1"/><path class="cls-2" d="M33.33,52.1c-2.41,4.95-3.12,26.15-3.49,30-.42,4.23,0,5.14-2.09,5.26-3.56.22-5.8,2-1.16,2.11,1.76.15,3.76.55,5.39-.25.79-4.43,1.31-11.06,2-17.43.3-2.76.14-14.5,2.26-15.94,4.37-3.29,10.93,8.87,13.37,11.25,2,1.85,5.72,4.49,5.54.28-.12-2.29-2.8-5.14-4.19-6.87C49.79,59.08,37.4,43.65,33.33,52.1"/><path class="cls-2" d="M30.33,76.19a9,9,0,0,0-2.1.82,4.38,4.38,0,0,0-.76.59,6.12,6.12,0,0,1,1.43-.33c.53,0,.47.29.47.29a6.76,6.76,0,0,0-1.3.54,5.1,5.1,0,0,0-1,1.07,16.54,16.54,0,0,1,1.83-.68c.57-.14.65.18.65.18a7,7,0,0,0-2.07,1.26,4.75,4.75,0,0,0-.67.93,4.84,4.84,0,0,1,2.13-1c1.36-.3,1.54.09,1.54.09Z"/><path class="cls-2" d="M17.48,70.51c-5.07-.72-10-2-14.11-5.31,2.46,6.54,8.93,7,14.25,7.85C14.27,75.37,4.3,73.42,0,72.14c2.76,3.48,8.28,4.1,11.14,4.1,2,0,5.72-.21,7.36-1.44,2-1.63,1.84-3.88-1-4.29"/><path class="cls-2" d="M85.63,38.75c-2.79,2.07-4.71,2.15-7.51,2.84-1.39.34-.77.13-1.22,1.51-.69,2.63-2.84,8.29-3.57,11-1.24,4.63-2.64,10.47-6,14.82-1.71,2.4-9.09,7.68-12.06,9.06-4.12,1.94-12.25,3.83-18,3.26a39.28,39.28,0,0,1-18.07-6.75C18,73.56,16.39,72,16.05,70.31c-.57-2.06,4.23-4.09,5.72-5.11,1.6-1.26,8.92-5.22,10.06-6.14C34.92,56.43,45,46.71,47,43.85s3.2-6.52,5-9.6c1.6-2.63,2.86-5.38,4.68-7.89A8.4,8.4,0,0,1,58.86,24c1-7.23,5.12-9.1,8.19-9.71,4.29-.92,10.18,2.64,13.8,4.59C90,23.83,96.78,35.11,85.63,38.75"/><path class="cls-3" d="M62.45,41.69c-2.12,5.5-10,21.66-20,27.39a35.07,35.07,0,0,1-13.91,3.68c-2.65.2-10.62,1-12.87-1.43-2.25-2.86,8-8,10.42-9.81C31.17,57.43,40.18,51.27,44.26,46c5.27-6.85,7.35-12,8.79-13.45,1.63-1.67,10.55,6.17,9.4,9.16"/><path class="cls-4" d="M77.47,43.8A107.6,107.6,0,0,1,57.53,30.19a20.86,20.86,0,0,0-1.71-1.6c-1.26-.8-.8-.69-2,.23-1.59,1.25-2.74,3-2,4.68s3,2.67,4.34,3.89c3.64,3.4,16,10.08,17.72,10.53,1.49.46,1.61.58,2.19-.56a12,12,0,0,0,1.4-3.56"/><path class="cls-5" d="M29,53.68C25.68,58.59,21.89,81,21,85c-1.05,4.43-.71,5.46-3,5.3-3.81-.28-6.44,1.24-1.54,2.06,1.84.41,3.91,1.13,5.76.52,1.46-4.6,3-11.56,4.59-18.21C27.51,71.73,29,59.25,31.48,58c5.11-2.87,10.32,11,12.57,13.84,1.84,2.25,5.42,5.6,5.83,1.1.2-2.45-2.23-5.85-3.45-7.89-1-1.64-12-19.78-17.48-11.4"/><path class="cls-5" d="M70.34,54.06c6.19,0,9.21-2.05,14.31-5.52,2.66-1.84,3.35-3,5.4-.1,1.22,1.63,2.86,5.31-.41,4.49-.82-.2-.62-2.25-1.84-2.45-1-.21-7.57,4.49-10,5.11a19.84,19.84,0,0,1-7,.82c-2.25-.41-4.37-2.35-.49-2.35"/><path class="cls-6" d="M69.5,18.73c4.8,4.46-1,11.28-6,6.5-4.6-4.33,2-10.22,6-6.5"/><path class="cls-5" d="M62.85,65.81c2,4.19,7.91,7.82,15.27,5.37,2.66-1,5.83-2.19,7.17,1.53s.54,4.45-.23,4.79c-1.27.57-1.77-1.1-3-4.54-2.88.26-6.09,1.75-9.37,1.82-7.6.15-15.43-9-13.84-11.65,1.44-2.46,2.9.4,4,2.68"/><path class="cls-7" d="M85.08,38.68a8.84,8.84,0,0,1-3.33,0,7.17,7.17,0,0,1-4-2.56"/><path class="cls-1" d="M68.17,20.46a1,1,0,0,1,.84.76.74.74,0,0,1-.78.78.9.9,0,0,1-.86-1,.61.61,0,0,1,.8-.57"/><path class="cls-5" d="M22.31,78.8a9.87,9.87,0,0,0-2.34.57,3.48,3.48,0,0,0-.89.52,6.75,6.75,0,0,1,1.56-.15c.56.07.46.38.46.38a7.14,7.14,0,0,0-1.45.39,5.29,5.29,0,0,0-1.27,1A17.62,17.62,0,0,1,20.43,81c.62-.06.65.29.65.29a7.39,7.39,0,0,0-2.37,1,5.59,5.59,0,0,0-.85.88,5.36,5.36,0,0,1,2.41-.76c1.49-.12,1.62.31,1.62.31Z"/><path class="cls-8" d="M71.8,60.1c-6.5.32-12.34-3.13-16.34-7.42"/><path class="cls-8" d="M61.6,74c-7,0-12.93-4.93-15.53-10.46"/><path class="cls-8" d="M42,81.22c-4.32-1.53-8-8.49-8-14.55"/></g></g></svg>