<svg xmlns="http://www.w3.org/2000/svg" viewBox="0 0 51.46 64.02"><defs><style>.cls-1,.cls-2,.cls-6{fill:none;stroke-linecap:round;}.cls-1,.cls-2{stroke:#211915;stroke-linejoin:round;}.cls-1{stroke-width:0.7px;}.cls-2{stroke-width:0.76px;}.cls-3{fill:#6f4714;}.cls-4{fill:#945b19;}.cls-5{fill:#fff;}.cls-6{stroke:#d7d7ce;stroke-width:0.36px;}.cls-7{fill:#211915;}</style></defs><g id="Capa_2" data-name="Capa 2"><g id="Capa_1-2" data-name="Capa 1"><path class="cls-1" d="M12,51.28s-1.13,10.48-.58,11.52,4.34.86,4.34.86"/><path class="cls-1" d="M22.52,49.05S21.43,59.79,22,60.82s4.34.86,4.34.86"/><path class="cls-1" d="M32.83,43.88s8,7,9.2,7.06,2.84-2.74,2.84-2.74"/><path class="cls-2" d="M30.72,14.29s-1-12.85-.21-13.67,5.09.7,5.09.7"/><path class="cls-2" d="M38.53,16.31S41.32,3.72,42.37,3.19,47,5.36,47,5.36"/><path class="cls-3" d="M8.14,41.49a21,21,0,0,1,12.22-1.2c.57-4.7,5-9.19,11.61-6.13,1.76.89,3.92,2.36,4.13,4.55a12.18,12.18,0,0,1-.8,5.2c-1.89,3.93-5,4.77-9.16,4.19a8.06,8.06,0,0,1-2-.55c-.82,4.73-8.69,7.8-12.53,7.72-3.35,0-10.58-1-11.46-4.67-1.28-4.28,4.8-8,8-9.11"/><path class="cls-4" d="M46.52,31.55c-5.12,9.38-17,6.14-21.7-1.35-2.82-4.67-2.86-9.43,1-13.84,4.07-4.52,11-3.57,12.57-3.15s15.22,5.46,8.17,18.34"/><path class="cls-5" d="M49.28,18.38c4,2.61,1.43,8.6-2.68,8-2.85-.38-4.46-3.81-3.22-6.5s4.14-2.95,5.9-1.53"/><path class="cls-5" d="M45.73,17.76a3.68,3.68,0,0,1,3.55.62,4.44,4.44,0,0,1-.88,7.85"/><path class="cls-6" d="M45.73,17.76a3.68,3.68,0,0,1,3.55.62,4.44,4.44,0,0,1-.88,7.85"/><path class="cls-5" d="M39.17,19.82a4.92,4.92,0,0,0-9.48.69c-.42,2.23,0,5.43,4.63,5.95,3.67.19,5.9-3.71,4.85-6.64"/><path class="cls-7" d="M47.19,21.31a.73.73,0,0,1-.75,1,.74.74,0,0,1-.6-1c.25-.49.87-.65,1.35,0"/><path class="cls-7" d="M33.11,21.93a.85.85,0,0,1-1.22-.69.75.75,0,0,1,1-.77.81.81,0,0,1,.25,1.46"/><path class="cls-1" d="M41.61,31.64c-3,3.44-6.2.56-6.24-1.69"/></g></g></svg>