<svg xmlns="http://www.w3.org/2000/svg" xmlns:xlink="http://www.w3.org/1999/xlink" viewBox="0 0 120.29 62.33"><defs><style>.cls-1{fill:none;}.cls-2{fill:#b8a98d;}.cls-3{fill:#6f4714;}.cls-4{fill:#c58021;}.cls-5{fill:#fff;}.cls-6{fill:#211915;}.cls-7{fill:#ccbf9f;}.cls-8{clip-path:url(#clip-path);}.cls-9{fill:#cdbf9f;}.cls-10{fill:#945b19;}</style><clipPath id="clip-path"><path class="cls-1" d="M56,5.5c-2.41-2.32-5-1.16-7.65,2.75-2.81-3-7.44-1.77-10.13,3.18-2.88-3.37-8.21-1-10.29,4.31-3.64-1-7.72,1.89-8,9.65-2.32-2.45-5.5-1.83-6.27,3.32-1.77-3.61-6.17-3.41-7.1,1A8.6,8.6,0,0,0,2,27.33a1.45,1.45,0,0,0-1.6,1.12c-1.68,7.12,2,11.69,8.84,14.72,2,2.71,4.14,3.57,6.42,3.22,3,4.19,7.36,4.18,7.2.42,3.51,5.18,8.89,2.88,9-.21,2.76,3.06,7.86.6,6.48-4.4,2.32,5.45,7.47,5,7.76.87,3.36,6.57,8.45,4.62,8,.66.9,5.1,14,2.68,14,2.68C59.17,23.06,71.93-6.06,75.39,2.72,75.83.8,73.49,0,70.3,0,64.83,0,56.85,2.35,56,5.5"/></clipPath></defs><g id="Capa_2" data-name="Capa 2"><g id="Capa_1-2" data-name="Capa 1"><polygon class="cls-2" points="73.39 0.63 75.29 1.84 75.44 3.02 79.14 3.85 87.11 4.5 87.74 5.08 88 5.79 91.16 7.74 96.76 9.2 99.45 10.68 100.47 12.49 98.53 14.9 84.76 16.59 76.25 15.49 68.71 12.23 65.34 7.07 73.39 0.63"/><path class="cls-3" d="M44.51,46.49c.14,1.94,1,3.46,1.94,3.4S48,48.2,47.91,46.26s-1-3.45-1.94-3.39-1.59,1.68-1.46,3.62"/><path class="cls-3" d="M33.16,48.8c.13,1.94,1,3.45,1.94,3.39s1.59-1.69,1.45-3.62-1-3.46-1.93-3.39S33,46.86,33.16,48.8"/><path class="cls-3" d="M21.36,49.61c.13,1.93,1,3.45,1.93,3.39s1.59-1.69,1.46-3.62-1-3.46-1.94-3.4-1.59,1.69-1.45,3.63"/><path class="cls-3" d="M110.49,37.81c1.41,1.93,1.26,4,.18,6.19a.28.28,0,0,1-.53-.12c-.16-2.59-1.61-4.72-4.07-6.5,2.31-.8,2.92-.93,4.42.43"/><path class="cls-3" d="M118.34,33.52a7.76,7.76,0,0,1,1.9,6,.23.23,0,0,1-.44.08,11.89,11.89,0,0,0-2.81-4.1c-.07-.06,1.43-1.93,1.35-2"/><path class="cls-3" d="M104.18,50.66c.47.1.64.81.2,1-6.29,2.41-15.21-3-19.8-12.81-.12-.25,3.44-9.17,3.33-9.43,1.68,13.68,7.82,19.51,16.27,21.26"/><path class="cls-3" d="M79.46,45.54c-.53,8.74,2.26,13.26,6.39,15.38a.49.49,0,0,1-.15.92c-5.19.9-10.73-5.61-11.14-16.33,0-.16,4.6-.75,4.9,0"/><path class="cls-3" d="M57.86,44.94c-.13,1.73-.46,10.74,4.75,16.27a.66.66,0,0,1-.69,1.08c-3.08-1-8.21-5.34-9.68-18.58,0,0,5.64.94,5.62,1.23"/><path class="cls-4" d="M91.45,12.92a24.33,24.33,0,0,1,17.18,1.26c6.42,3,14.25,11,10.39,18.62-3,6-8.93,6.72-13.49,4.55a25.78,25.78,0,0,1-11.12,6.27c-1.66.48-7.55,1.56-10.12-.43C80,39.87,79.56,30.72,83.91,16c-.1-.38,7.16-3,7.54-3.1"/><path class="cls-5" d="M98.09,22.19a5.29,5.29,0,0,0,5.64,4.91A4.54,4.54,0,0,0,108.29,22c-.19-2.91-2.74-5.61-5.65-5.41a5,5,0,0,0-4.55,5.59"/><path class="cls-6" d="M104.4,22.64a.9.9,0,1,0,.83-1,.89.89,0,0,0-.83,1"/><path class="cls-7" d="M69.24,24.15c2-10.37,8.51-19.74,16.54-18.73,3.26.4,14.69,2.92,14,6.56C93.56,2.72,81.63,19.4,86,44.2a13.28,13.28,0,0,1-8.16,1.15S67.4,33.74,69.24,24.15"/><path class="cls-2" d="M61,24.72C65.34,1.15,73.54,2.86,73.72,2.85,89.08,2.15,88,5.79,88,5.79,84.4-1,68.34,21.43,78,45.87a24.07,24.07,0,0,1-11.86-.48c.16,0-7.48-8.35-5.2-20.67"/><path class="cls-4" d="M6.55,29.72c.93-4.42,5.33-4.62,7.1-1,.77-5.15,4-5.77,6.27-3.32.28-7.76,4.36-10.64,8-9.65,2.08-5.36,7.41-7.68,10.29-4.31,2.69-4.95,7.32-6.22,10.13-3.18C51,4.34,53.58,3.18,56,5.5c1.36-5,20.61-8,19.4-2.78-3.46-8.79-16.22,20.34-7.33,43.69,0,0-13.11,2.42-14-2.68.47,4-4.62,5.91-8-.66-.29,4.18-5.44,4.58-7.76-.87,1.38,5-3.72,7.46-6.48,4.4-.07,3.09-5.45,5.39-9,.21.16,3.76-4.2,3.76-7.2-.42-2.28.35-4.44-.51-6.42-3.22-6.88-3-10.52-7.6-8.84-14.72A1.44,1.44,0,0,1,2,27.33a8.6,8.6,0,0,1,4.54,2.39"/><g class="cls-8"><polygon class="cls-9" points="58.35 -2.05 52.1 9.88 48.52 39.94 53.21 49.42 66.57 53.21 73.36 49.58 71.38 13.71 79.87 -0.7 73.81 -5.69 58.35 -2.05"/><path class="cls-10" d="M48.34,8.25C50.29,3.82,56.05-1,56,5.5c-4.9,11-5.45,27.36-1.45,40.5.12.4-4.1,6-7.2,1.37-4.2-12.66-4.49-28.52,1-39.12"/><path class="cls-10" d="M28.1,15.06c-.39-1.1,1.32-6.21,3.52-7,2.5-.89,7,1.37,6.59,3.37-2.77,10.3-3.9,21.75.19,30.92.84,1.89,1.12,4.63-.27,5.65s-5.44.7-6.3-1.4C25.71,38,25.56,26.47,28.1,15.06"/><path class="cls-10" d="M13.68,28.24C14.07,19,20,24.64,20,25.18a62.39,62.39,0,0,0,2.75,20.91c1.85,7.12-4.22,7.21-7.06.13a31.6,31.6,0,0,1-2-18"/><path class="cls-10" d="M5.38,24.46c0,.12,1.17,5.14,1.17,5.26-.21,3.51,1.07,9.22,2.7,13.45.06.16-7.72,3-7.65,3.16S-3.2,28.21-3.13,28.38s8.44-4.08,8.51-3.92"/></g><path class="cls-3" d="M57.23,25.46A1.57,1.57,0,0,1,59,27c-.08,1.19-.76,2.31-2.27,1.67-1-.42-.89-1.16-.84-1.86a1.79,1.79,0,0,1,1.31-1.37"/><path class="cls-3" d="M62.23,12.31a1.57,1.57,0,0,1,2.37.16c.66,1,.79,2.3-.8,2.7-1,.27-1.41-.39-1.79-1a1.78,1.78,0,0,1,.22-1.88"/><path class="cls-3" d="M63.81,40.87a1.32,1.32,0,0,1,1.58,1.45,1.59,1.59,0,0,1-2,1.56,1.36,1.36,0,0,1-.94-1.65,1.64,1.64,0,0,1,1.37-1.36"/><path class="cls-3" d="M73.46,31A1.33,1.33,0,0,1,75,32.44,1.58,1.58,0,0,1,73,34a1.36,1.36,0,0,1-.94-1.65A1.67,1.67,0,0,1,73.46,31"/><path class="cls-3" d="M56.72,16a1.33,1.33,0,0,1,1.57,1.46,1.59,1.59,0,0,1-2,1.56,1.37,1.37,0,0,1-.94-1.66A1.67,1.67,0,0,1,56.72,16"/><path class="cls-3" d="M72,12.42a1.33,1.33,0,0,1,1.58,1.46,1.59,1.59,0,0,1-2,1.56,1.34,1.34,0,0,1-.94-1.65A1.66,1.66,0,0,1,72,12.42"/><path class="cls-3" d="M62.41,19.93A1.77,1.77,0,0,1,63.91,21c.24.68-.78,2.42-2.1,1.78-1-.47-.92-1.1-.76-1.81a1.56,1.56,0,0,1,1.36-1.08"/><path class="cls-3" d="M89.74,8.07a1.74,1.74,0,0,1,1.5,1.1c.24.68-.78,2.42-2.1,1.79-1-.48-.92-1.11-.76-1.82a1.55,1.55,0,0,1,1.36-1.07"/><path class="cls-3" d="M69.11,25.37a1.74,1.74,0,0,1,1.5,1.1c.24.68-.78,2.42-2.09,1.78-1-.47-.92-1.1-.77-1.81a1.55,1.55,0,0,1,1.36-1.07"/><path class="cls-3" d="M60.21,33a1.73,1.73,0,0,1,.94-1.61c.65-.32,2.49.52,2,1.89-.37,1-1,1-1.73,1A1.57,1.57,0,0,1,60.21,33"/><path class="cls-3" d="M69.66,42.12a1.74,1.74,0,0,1,.94-1.61c.64-.31,2.48.52,2,1.89-.37,1-1,1-1.72,1a1.54,1.54,0,0,1-1.21-1.24"/><path class="cls-3" d="M59.28,10.25a1.74,1.74,0,0,1-1.45-1.16c-.22-.69.88-2.39,2.17-1.7a1.36,1.36,0,0,1,.69,1.85,1.56,1.56,0,0,1-1.41,1"/><path class="cls-3" d="M73.1,22.22a1.73,1.73,0,0,1-1.44-1.17c-.22-.68.88-2.38,2.16-1.69,1,.52.87,1.15.69,1.85a1.55,1.55,0,0,1-1.41,1"/><path class="cls-3" d="M55.94,38.58A1.75,1.75,0,0,1,56.88,37a1.51,1.51,0,0,1,2,1.89A1.43,1.43,0,0,1,57.16,40a1.32,1.32,0,0,1-1.22-1.37"/><path class="cls-3" d="M64.87,4.63a1.61,1.61,0,0,1,.85-1.46,1.37,1.37,0,0,1,1.8,1.72,1.29,1.29,0,0,1-1.55,1,1.19,1.19,0,0,1-1.1-1.24"/><path class="cls-3" d="M75.79,9.18a1.64,1.64,0,0,1,.85-1.46,1.38,1.38,0,0,1,1.81,1.72,1.3,1.3,0,0,1-1.55,1,1.21,1.21,0,0,1-1.11-1.24"/><path class="cls-3" d="M84.55,21.48a1.32,1.32,0,0,0,1.37-1.65,1.59,1.59,0,0,0-2.2-1.27A1.34,1.34,0,0,0,83,20.32a1.64,1.64,0,0,0,1.54,1.16"/><path class="cls-3" d="M79.9,39.94a1.33,1.33,0,0,0,1.37-1.66A1.59,1.59,0,0,0,79.06,37a1.34,1.34,0,0,0-.7,1.76,1.65,1.65,0,0,0,1.54,1.16"/><path class="cls-3" d="M80.07,27.84a1.74,1.74,0,0,0,1.33-1.3c.15-.7-1.1-2.29-2.31-1.48a1.35,1.35,0,0,0-.52,1.9,1.56,1.56,0,0,0,1.5.88"/><path class="cls-3" d="M81.8,13.21A1.73,1.73,0,0,0,83,14.67c.69.22,2.39-.85,1.72-2.15a1.36,1.36,0,0,0-1.84-.71,1.56,1.56,0,0,0-1,1.4"/><path class="cls-3" d="M83.5,30.48a1.75,1.75,0,0,0-1.28,1.35c-.12.71,1.21,2.24,2.38,1.38A1.35,1.35,0,0,0,85,31.29a1.55,1.55,0,0,0-1.54-.81"/><path class="cls-3" d="M82.55,42.38a1.59,1.59,0,0,0,1,1.32,1.36,1.36,0,0,0,1.55-1.94A1.28,1.28,0,0,0,83.48,41a1.2,1.2,0,0,0-.93,1.38"/></g></g></svg>