<svg xmlns="http://www.w3.org/2000/svg" viewBox="0 0 80.05 86.7"><defs><style>.cls-1,.cls-7{fill:none;stroke:#211915;stroke-linecap:round;stroke-linejoin:round;}.cls-1{stroke-width:0.88px;}.cls-2{fill:#a1bd43;}.cls-3{fill:#bccc55;}.cls-4{fill:#538a58;}.cls-5{fill:#fff;}.cls-6{fill:#211915;}.cls-7{stroke-width:0.77px;}</style></defs><g id="Capa_2" data-name="Capa 2"><g id="Capa_1-2" data-name="Capa 1"><path class="cls-1" d="M68.76,29A27.77,27.77,0,0,1,79.6,5"/><path class="cls-1" d="M64.29,29.33C62,15.64,63.48,6.19,68.13.44"/><path class="cls-2" d="M57.18,30.78c.3-.26,10.69,22.91,11,22.64,4.34-4.09,9.09-8.69,11.15-14.28A7.06,7.06,0,0,0,79.14,35a43.91,43.91,0,0,0-2.22-4.93,11,11,0,0,0-4.12-3.93c-3.37-1.62-9.72-3.05-15.62,4.64"/><path class="cls-3" d="M52.65,28a8.89,8.89,0,0,0-6.31-.56l-4.83,1.36C41.22,28.91,61,70,61.24,70.18A6.26,6.26,0,0,0,65.59,70,4.38,4.38,0,0,0,68,66.77C71.63,47.11,64.53,33.89,52.65,28"/><path class="cls-2" d="M47.8,35.7l-.27-.14C29.43,41.28,14.84,50.79,5.91,63.18a5.55,5.55,0,0,0,2.94,8.5,88.69,88.69,0,0,0,53.62-1.22c-2.73-17-4.91-28-14.67-34.76"/><path class="cls-2" d="M42.78,30.61C14.24,38.31-3.62,57.17.62,60.3c2.2,1.62,8.26-2.31,11.15-4.38.86-.62,29.67-16.68,36-20.22.79-.44-5-5.09-5-5.09"/><path class="cls-4" d="M.2,59.81c.34,1.79,3.88,7.46,5.06,8.52.25.21,7.31-12.07,9.21-13.9C12.32,55.8.15,59.53.2,59.81"/><path class="cls-5" d="M74.94,31.87a4.17,4.17,0,1,1-8.33,0,4.24,4.24,0,0,1,4.23-4.24,4.12,4.12,0,0,1,4.1,4.24"/><path class="cls-6" d="M72.08,30.81a.66.66,0,0,1-.65.66.74.74,0,0,1-.66-.75.65.65,0,0,1,.65-.65.73.73,0,0,1,.66.74"/><path class="cls-7" d="M39.46,72.16s4.18,4.68,1.72,14.15l6.65-.74"/><path class="cls-7" d="M17.19,71.68s2.58,7.75-.49,14.52l6.63-1"/><path class="cls-7" d="M62.47,70.46c1.65,3,1.53,6.5.61,10.33l5.77-1.47"/></g></g></svg>