<?xml version="1.0" encoding="utf-8"?>
<!-- Generator: Adobe Illustrator 26.2.1, SVG Export Plug-In . SVG Version: 6.00 Build 0)  -->
<svg version="1.1" id="Capa_1" xmlns="http://www.w3.org/2000/svg" xmlns:xlink="http://www.w3.org/1999/xlink" x="0px" y="0px"
	 viewBox="0 0 591.2 414" style="enable-background:new 0 0 591.2 414;" xml:space="preserve">
<style type="text/css">
	.st0{fill:#A7221D;}
	.st1{fill:#64A266;}
	.st2{fill:#A1BD43;}
	.st3{fill:#945B19;}
	.st4{fill:#F8E12E;}
	.st5{fill:#DEA8C3;}
	.st6{fill:#8C6A98;}
	.st7{fill-rule:evenodd;clip-rule:evenodd;fill:#EA0811;}
	.st8{fill-rule:evenodd;clip-rule:evenodd;fill:#3F7473;}
	.st9{fill-rule:evenodd;clip-rule:evenodd;fill:#A1BD43;}
	.st10{fill:none;stroke:#F8E12E;stroke-width:2.5;stroke-linecap:round;stroke-linejoin:round;}
	.st11{fill:#956E9F;}
	.st12{fill:#A886B1;}
	.st13{fill:#FFFFFF;}
	.st14{fill:#211915;}
	.st15{fill:#DB9600;}
	.st16{fill:none;stroke:#211915;stroke-width:2.52;stroke-linecap:round;}
	.st17{clip-path:url(#SVGID_00000137851933547778859510000017835890090634506683_);}
	.st18{clip-path:url(#SVGID_00000009560598773777197340000010937974651837439116_);}
	.st19{fill:none;stroke:#211915;stroke-width:0.88;stroke-linecap:round;stroke-linejoin:round;}
	.st20{fill:#BCCC55;}
	.st21{fill:#538A58;}
	.st22{fill:none;stroke:#211915;stroke-width:0.97;stroke-linecap:round;stroke-linejoin:round;}
</style>
<g>
	<g id="Capa_2_00000113342276615786848960000000686384490826519956_">
		<g id="Capa_1-2">
			<path class="st0" d="M499.7,317c30.2-4.1,29.6,12.7,47.3-12.9s49.5-115,43.5-145.9c-3.1-16.1-9.6-31.6-19.8-44.2
				c-14.5-17.8-35.5-28.7-57.1-35.1s-44.1-8.6-66.4-11.9c-69-10.3-139-31.3-207.3-16.7c-26.3,5.6-51.2,16.4-77,24.3
				c-44.8,13.6-95.7,20.5-126.6,56.7C14,157.4,6.9,194.3,8,229.2c0.5,17.5,3.3,36,14.2,49.4c6.4,7.9,15.1,13.3,24,17.8
				c56.5,28.5,122.6,22.5,185.4,19.9C320.7,312.6,412.5,336,499.7,317"/>
			<path class="st1" d="M73.7,294.5c148.6-12.2,267.5,4.4,416.4,5.1c22.8,0.1,80-19.2,90.7,3.3c10.3,21.6-2.2,49.7-20.9,62.2
				s-41.6,13.5-63.4,14.3c-92.5,3.7-184.7,11.4-276.7,23.1c-36.9,4.7-74.4,10-110.9,2.2c-28.4-6.1-55-19.9-81.3-33.5
				c-13.2-6.9-28.5-17.6-27.5-33.9c1-16.9,9-23.9,23.1-29.8C38.2,301.3,38.2,301.3,73.7,294.5"/>
			<path class="st2" d="M468.5,0.1c-13.4-0.5-38.7,3.1-60.1,19.6c-25.3,19.6-35.1,38.8-41.6,71.9s6.7,124.1,103.8,124.1
				c47.6,0,89.8-14.1,100.2-65.4s1.2-78.7-10.5-98.3C551,36.5,527.2,2.3,468.5,0.1"/>
			<path class="st3" d="M534.8,164.6l-2.4-5.6c0,0-6.2,1.7-10.8,3.2c-4.8,1.7-9.5,3.8-14,6.4c-3,1.6-9.5,3.1-9.4,0.4
				c0.2-3.1-0.1-6.2-0.7-9.2l-3.9,1.5c-0.8,2.5-1.4,5.1-1.7,7.7c-0.2,1.8-0.3,3.7-0.2,5.5c-3,1-6,1.9-9,2.6c-2.9,0.6-3.9,0.1-4-6
				c-0.1-8.4-1.9-24.7-0.5-30.1s10.2-9,14.6-10.5c1.5-0.6,11-4.1,13.9-5l16.2,10.1l2.3-5.8c-3.8-1.3-7.3-3.3-10.4-5.8
				c-0.4-0.4-0.8-0.7-1.2-1c0.2-0.1,0.5-0.2,0.7-0.3c4.9-2.3,32.1-9.6,32.1-9.6l-0.5-6.6c0,0-23.9,6-32.2,8.2
				c-2.4,0.6-17.9,3.4-17.9,3.4s4.1-9.9,4.1-11.2s5.2-7.8,5.2-7.8l-3.7-1.8l-5.9,8.6h-7.2l-1.4,2.2l5.8,2.5l-3.3,7.5l-12.1,4.6
				c0,0,1-25.4,1.9-33.7l1-8.2c0,0,4.4-2.4,7.8-3.9s7.5-3.5,7.5-3.5l-0.1-4.5l-9,2.3c0,0,4.3-5.2,8.2-10.1c0,0,18.1,0.7,22.5-0.4
				c1-0.3,1.8-4.2,0.7-4.2c-5.5,0.2-20,0.4-20,0.4c1-1.3,2-2.6,2.9-4c1.5-2.7,0.2-2.7,0.2-2.7l-3.3-1.1l-16.9,19.1
				c0,0,0.5-17.8,1-21s10.2-5.7,10.2-5.7l-1.6-3.5l-4.1,1c-4.3,1.5-4.9,1.8-6.4,1.6s-8.1-16.1-9.7-18.5c-2.4-3.8-5.5-8.5-5.5-8.5
				c-4.8,2.4-5,2.2-2.2,6.6s5,7.2,5,7.2l-11.8-0.9l-0.3,3.9c0,0,11.3,1.2,13.1,1.6c0,0,3.3,8.3,3.6,11.8c0,6.4-2.5,19.4-4.5,21.1
				s-5.7,0.8-5.7,0.8l4.2-9.4l-3.9-1.8l-5.3,10.3c0,0-20-7.8-23.6-9.2c-3-1.2-5.6,4.5-5.6,4.5s8.4,3.6,12.2,4.8s13.5,4.7,17.8,6.5
				s9.8,5.3,9.8,7.3s-1.7,18.1-3.3,33.5c-6.8-1.7-17.8-5.2-19.5-6.1c-2.1-1.2,0-18.1,0-18.1h-3.5l-3.1,16.6c0,0-9-1.9-12.6-2.5
				c-4-0.7-11.4-2.1-11.4-2.1l-15.1-8.4c0,0-2.4,1.6-2.1,3.3s13.9,8.8,13.9,8.8v9.1l-10.2,1.5l1.4,3h8.8v9.1l4.2,1.5
				c1-1.5,0.7-15,3.8-16.5s5.2,0.8,14.9,3.4c7.6,2,20.8,7.1,29.3,9.7c-0.6,5.6-1,10.1-1.1,12c-0.5,7.7-0.2,23.2-0.2,23.2
				s-4.5-2.7-9-5.5c-0.5-4.2-1.6-13.5-2-16.1c-0.6-3.4-1.2-6.4-1.2-6.4c-0.9-0.2-1.9-0.2-2.9,0c-1,0.4,0,3.7,0,3.7v15.1l-0.6-0.4
				c-5.2-3.2-12.9-7.9-12.9-7.9l-1.9,3.2l7.7,7.2c0,0-1.5,3.5-2.9,4.6l-1.5,1.2l2.9,3.4c1.6-1.4,3.2-2.9,4.5-4.6l1.2-1.7l17.8,15.6
				L456.7,314h22.1c0,0-0.5-15.2-0.5-29.5S476,191,478.9,189s8.9-3.2,15.7-6.4c5.5-2.5,10-4.2,15.6-6.7c2.5,0.4,4.9,0.9,7.3,1.6
				c1.7,0.5,3.5,0.9,5.3,1.1l2.2-3.8l-8.5-1.9c0.7-0.4,1.4-0.7,2-1.1C523.8,169.1,529.3,166.7,534.8,164.6"/>
			<path class="st4" d="M537.2,137.5c-2.4-0.5-5.8-0.8-8.3-6c-3.6-7.4,1.6-10.8,2-11.5c-0.1-1.1,0.8-2.1,1.9-2.1
				c0.6,0,1.2,0.2,1.6,0.7c0.7,1,5.1-1.7,8.1,5.3c3.2,7.5-2.4,10.6-2.2,12.4S537.9,138.6,537.2,137.5 M395.5,138.9
				c-1.8-1.6-4.7-3.4-4.4-9.2c0.4-8.2,6.5-8.7,7.2-9.2c0.5-1,1.6-1.5,2.6-1c0.6,0.3,1,0.8,1.1,1.4c0.2,1.2,5.3,0.9,4.6,8.5
				c-0.7,8.1-7.2,8.2-7.8,9.9S395.6,140.3,395.5,138.9 M458.3,33c1.8,1.6,4.7,3.4,4.5,9.2c-0.3,8.2-6.5,8.8-7.1,9.2
				c-0.4,1-1.6,1.5-2.6,1c-0.6-0.3-1-0.7-1.1-1.3c-0.2-1.2-5.3-0.8-4.7-8.5c0.6-8.1,7.1-8.3,7.7-9.9S458.1,31.6,458.3,33
				 M439.1,165.4c1.7,1.7,4.5,3.7,4,9.4c-0.8,8.2-7,8.4-7.7,8.8c-0.5,1-1.7,1.4-2.7,0.9c-0.6-0.3-0.9-0.8-1.1-1.4
				c-0.1-1.2-5.2-1.2-4.2-8.8c1.1-8,7.6-7.8,8.3-9.4S439.1,164,439.1,165.4"/>
			<path class="st4" d="M428.6,85.1c-1.8-1.6-4.7-3.4-4.4-9.2c0.4-8.2,6.5-8.7,7.2-9.2c0.5-1,1.6-1.5,2.6-1c0.6,0.3,1,0.8,1.1,1.4
				c0.2,1.2,5.3,0.9,4.6,8.5c-0.7,8.1-7.2,8.2-7.8,9.8S428.7,86.5,428.6,85.1 M486.4,155.4c-1.8-1.6-4.7-3.4-4.4-9.2
				c0.4-8.2,6.5-8.7,7.2-9.2c0.5-1,1.6-1.5,2.6-1c0.6,0.3,1,0.8,1.1,1.4c0.2,1.2,5.3,0.9,4.6,8.5c-0.7,8.1-7.2,8.2-7.8,9.9
				S486.6,156.8,486.4,155.4"/>
			<path class="st4" d="M538.7,186.6c1.8-1.6,4.7-3.4,4.4-9.2c-0.4-8.2-6.5-8.7-7.2-9.2c-0.5-1-1.6-1.5-2.6-1
				c-0.6,0.3-1,0.8-1.1,1.4c-0.2,1.2-5.3,0.9-4.6,8.5c0.7,8.1,7.2,8.2,7.8,9.8S538.6,187.9,538.7,186.6 M445.4,138.9
				c1.8-1.6,4.7-3.4,4.4-9.2c-0.4-8.2-6.5-8.7-7.2-9.2c-0.3-1-1.4-1.6-2.5-1.2c-0.7,0.2-1.2,0.8-1.3,1.6c-0.2,1.2-5.3,0.9-4.6,8.5
				c0.7,8.1,7.2,8.2,7.8,9.9S445.3,140.3,445.4,138.9 M492.2,78.4c2.1,1.2,5.3,2.3,6.4,8c1.5,8.1-4.4,10-5,10.6
				c-0.2,1.1-1.3,1.8-2.4,1.6c-0.6-0.1-1.1-0.5-1.4-1.1c-0.4-1.2-5.4,0.3-6.4-7.3c-1.1-8,5.2-9.6,5.4-11.3S491.7,77.1,492.2,78.4"/>
			<path class="st4" d="M521.7,82.4c1.8-1.6,4.7-3.4,4.4-9.2c-0.4-8.2-6.5-8.7-7.2-9.2c-0.5-1-1.6-1.5-2.6-1c-0.6,0.3-1,0.8-1.1,1.4
				c-0.2,1.2-5.3,0.9-4.6,8.5c0.7,8.1,7.2,8.2,7.8,9.8S521.6,83.8,521.7,82.4"/>
			<path class="st5" d="M202,204c0,0,7.6,3.4,7.7,3s-3.8-5.4-3.8-5.4L202,204z"/>
			<path class="st5" d="M209.6,196c0,0,8.4-1.7,8.3-2s-6.4-1.4-6.4-1.4L209.6,196z M206.5,200c0,0,7.1,2.2,7.2,1.9s-4.4-4.7-4.4-4.7
				L206.5,200z"/>
			<path class="st6" d="M200,190.9c-1.9,0.2-8-0.2-15.9-1.6c-7.4-1.4-17.4-4.1-23.4-5.3c-1.6-0.3,2,10.7,2,10.7s14,2.4,18.8,2.9
				c7.5,0.7,14.6,1.3,14.6,1.3s4.7,6.7,7.4,5.8s9-12.5,9-12.5C208.5,190.8,204.2,190.4,200,190.9"/>
			<polygon class="st7" points="205.1,198.4 187.2,192.2 187.2,170.6 205.1,174.3 			"/>
			<polygon class="st8" points="225.4,193.5 205.1,198.4 205.1,174.3 225.4,170.6 			"/>
			<polygon class="st9" points="207.3,167.6 225.2,170.6 205.1,174.3 187.2,170.6 			"/>
			<line class="st10" x1="205.1" y1="153.2" x2="206.2" y2="135.2"/>
			<line class="st10" x1="225.2" y1="159.6" x2="236.1" y2="146.8"/>
			<line class="st10" x1="233.5" y1="178.9" x2="254" y2="178.4"/>
			<line class="st10" x1="184.6" y1="159.1" x2="168.8" y2="149.2"/>
			<line class="st10" x1="179.5" y1="179.8" x2="159.4" y2="176.7"/>
			<path class="st5" d="M118.5,321.1c0,0,6.6,1.1,6.3,1.3s-8.2,1.9-8.2,1.9L118.5,321.1z M155.6,325.9c0,0,4.9,4,4.5,4.2
				s-6.8-1.1-6.8-1.1L155.6,325.9z M158.6,320.7c0,0,6.6,3.5,6.2,3.6s-8.3-0.5-8.3-0.5L158.6,320.7z M161.4,316.7
				c0,0,5.9,0.8,5.6,0.9s-7.2,2-7.2,2L161.4,316.7z"/>
			<path class="st5" d="M111.7,330.6c0,0,4.2,4.8,3.8,4.9s-6.5-2.2-6.5-2.2L111.7,330.6z M115.3,325.5c0,0,6.6,3.5,6.2,3.6
				s-8.3-0.5-8.3-0.5L115.3,325.5z"/>
			<path class="st6" d="M89.7,281.8c0,0-14,21.3-29.6,24.4s-53-0.3-53-0.3c16,8.5,34.3,11.7,52.2,9.4c12.7-1.8,18.4-1.1,39-19.5
				c1.9-1.6,4-3,6.1-4.2L89.7,281.8z"/>
			<path class="st11" d="M60.4,315.2c-2.9-2.7-5.6-5.8-7.9-9c3.4,0.2,6.8,0.1,10.1-0.4c2.6,2.7,5.4,5.3,8.3,7.6
				C67.2,314.3,63.7,314.7,60.4,315.2"/>
			<path class="st12" d="M69.4,314c-3.6-2.7-6.9-5.7-10.1-8.9c1.1-0.2,2.2-0.4,3.3-0.6c2.6-0.7,5.2-1.8,7.5-3.2
				c3.6,3,7.3,5.9,11.2,8.5C77.5,311.7,73.5,313.1,69.4,314"/>
			<path class="st11" d="M78.6,292.7c4.3,3.8,10.9,8.5,14.5,11c-4,3.1-9.4,5.1-13,6.7c-4.2-2.9-8.2-6.1-11.9-9.5
				C72.2,298.8,75.2,295.5,78.6,292.7"/>
			<path class="st12" d="M77.5,291.9c4.5-3.9,8-8.6,10-11.1c4.4,4.2,13.2,7.9,17,10.7c1.6,1.5-8,9.8-12.4,13.1
				C88.7,302.1,81.9,295.9,77.5,291.9"/>
			<path class="st6" d="M149.2,289.8v27.9c0,0,13.5-3.6,12.2-0.7s-7.7,12.2-7.7,12.2s-12.5,0.2-11.8-4.9s0.2-27.6,0.2-27.6"/>
			<path class="st6" d="M160.7,273.2c-4.3,20-6.8,30.3-32.2,30.3c-37.1,0-41-24.1-41-24.1L160.7,273.2z"/>
			<path class="st6" d="M107.7,284.1v35.2c0,0,12.1-0.7,10.9,2.1s-9.4,12.2-9.4,12.2s-9.5-2.7-8.9-7.7s-0.6-42.4-0.6-42.4"/>
			<path class="st12" d="M166.6,261.7c0,0-14,10.9-46.3,14.2c-17.5,1.8-37-1-37-1l-3-8.6c0,0,23.4,3,45.1-1.6
				c25.1-5.3,41.3-16.4,41.3-16.4V261.7z"/>
			<path class="st11" d="M162.1,275.7c0,0-10.4,8.5-42.9,8.5c-10.6,0-21.2-1-31.7-3l-2.9-6.2c13.5,1.2,27.1,1,40.6-0.4
				c25.6-2.7,38.5-11.1,38.5-11.1L162.1,275.7z"/>
			<path class="st11" d="M169.3,247.2c0,0-14.9,15.1-51.1,19.8c-17.8,2.3-39.9-0.8-39.9-0.8l-1.9-11.1c15.9,1.1,31.8,0,47.4-3.1
				c28.2-5.9,45-17.8,45-17.8L169.3,247.2z"/>
			<path class="st6" d="M98.5,164.9l59.7,14.4c0,5,10.3,39.6,10.3,39.6s-24.1,14.8-46.3,20.6c-15.9,4-32.5,4.4-48.6,1.1
				c0,0-2.7-29.2,15.7-60.8C92.2,174.9,95.9,168.2,98.5,164.9"/>
			<path class="st13" d="M158.7,174.9c-10.9,3.6-22.1,5.8-33.5,6.6c-17.9,1-30.9-10.8-30.9-10.8s-6.7,1.7-6.5,5s10.8,2.6,10.8,2.6
				s-6.3,5.6,0.4,8.8c5.9,2.8,9.3-3.4,9.3-3.4s-0.8,6.2,5.1,7.4s7.3-5.6,7.3-5.6s2.3,7.8,6.1,6.4c3.8-1.4,4.9-6.4,4.9-6.4
				s1.8,7.5,6.8,5.8s3.1-7.4,3.1-7.4s4.7,6.3,8.6,4.3s1.8-7.3,1.8-7.3s8.1,6.2,10.4,1.7S158.7,174.8,158.7,174.9"/>
			<path class="st12" d="M88,131.1c0,0-6.6-12.7-20.6-15.4s-28.9-2.1-27.7,1.9s2.2,10.6,13.9,19.2s31.4,9.1,31.4,9.1L88,131.1z
				 M170.3,233.8c0,0-15.8,12.8-52.9,20.2c-17.4,3.5-43.2,1.1-43.2,1.1l-0.9-17c0,0,26.2,2.5,50-2.9c32.7-7.4,45.5-18.4,45.5-18.4
				L170.3,233.8z"/>
			<path class="st5" d="M85.7,136.1c0,0-8.2-7.4-14.8-8.5s-9.5,0.5-9.5,0.5s7.8,8.1,12.8,9.4C80,138.9,85.7,136.1,85.7,136.1"/>
			<path class="st12" d="M131.2,110.3c-0.2-1.3,3.1-13.4-7.7-24.2S97.2,66,97.9,71.5s4.8,25.4,10.7,33.3s11.4,10,11.4,10
				L131.2,110.3z"/>
			<path class="st5" d="M127.5,113.2c0,0-0.7-12.7-5.8-17.8s-8.6-5.6-8.6-5.6s1.7,12.1,5.3,16.2C120.8,109,124,111.4,127.5,113.2"/>
			<path class="st12" d="M93,124.3c9.1-8.3,29.8-17.4,35.5-16.5c9,1.4,15.6,5,21,12.8s11,34.6,13.4,45.8
				c10.4,47.9,22.3,67.7,10.9,61.6c-13.2-7-59.5-39.6-72.6-50.1c-5.9-4.8-12.7-8.2-18.6-22.5C77.8,143.2,88.6,128.4,93,124.3"/>
			<path class="st13" d="M98.2,146.7c-3.1,4.4-1.3,11,3.9,14.7c3.9,2.8,12.2,1.3,13.8-4.9c1.5-5.6-1-10.1-4.9-12.9
				S101.3,142.2,98.2,146.7"/>
			<path class="st14" d="M113.8,153.5c-0.6,0.8-1.7,1-2.5,0.4c-0.8-0.6-0.9-1.8-0.2-2.5c0.6-0.7,1.6-0.9,2.3-0.4
				C114.2,151.6,114.4,152.7,113.8,153.5"/>
			<path class="st13" d="M136.3,129c-2.7,3.8-1.8,10.1,3.1,13.2c4,2.2,9,0.8,11.2-3.2c0.3-0.6,0.6-1.2,0.8-1.8
				c1.3-4.2-0.4-8.7-4.1-11C143.9,123.8,138.9,125.1,136.3,129"/>
			<path class="st14" d="M149.7,135.2c-0.5,0.8-1.6,1-2.4,0.4c-0.8-0.5-1-1.6-0.4-2.4c0.5-0.8,1.6-1,2.4-0.4c0,0,0,0,0,0
				C150.1,133.4,150.3,134.5,149.7,135.2"/>
			<path class="st5" d="M176.1,213.6c4,11.7,6.3,19.7-0.5,17.1c-2.6-1-7.8-5.2-12.5-8.7C166.7,219.4,172,215.5,176.1,213.6"/>
			<path class="st15" d="M126,153.9c-0.1-10-9.2-19.2-20.1-18.1c-16,1.7-31.8,18.4-31.8,18.4s19.6,18.2,32.9,16.9
				C119.9,169.9,126,161.4,126,153.9 M106,139.9c8.7-0.1,15.9,6.2,15.9,14.1s-7.8,12.6-16.5,12.7c-7.8,0-19.9-8.5-22.9-12.1
				C87.5,149.6,99.1,139.9,106,139.9"/>
			<path class="st15" d="M136.3,148.4c-7.9-5.2-10.8-16.9-4.4-24.7c9.2-11.4,30.4-14.9,30.4-14.9s4.8,24.4-2.9,34
				C152.2,152,142.3,152.4,136.3,148.4 M135,125.8c-4.4,6.6-2.9,15.4,3.4,19.4s13.9,0.5,18.3-6.2c3.9-5.9,3.1-19.6,1.7-23.8
				C152,116.7,138.5,120.6,135,125.8"/>
			<path class="st15" d="M122.6,145.3c2-1,7.5-3.7,8.6-4.1l-1.6-3.9c-1.4,0.6-8.1,3.9-8.8,4.2L122.6,145.3z"/>
			<path class="st16" d="M131,189.4c-7.5,2.8-9.6-5.5-9.6-5.5"/>
			<path class="st5" d="M126.5,202.5c0,0,4.7-3.6,4.7-3.2s-2.4,5.9-2.4,5.9L126.5,202.5z M118.8,197.6c0,0,4.3-5.6,4.4-5.3
				s-1,7.6-1,7.6L118.8,197.6z M113.5,194.8c0,0,1.4-6.1,1.5-5.8s2,7.6,2,7.6L113.5,194.8z"/>
			<path class="st12" d="M117.8,208.3c1.9,0.4,2.8,0.1,7.6-1.6c1.9-0.7,4.3-1.8,4.3-1.8c-3.7-3.2-7.7-6.1-11.9-8.6
				c-1.3-0.7-2.7-1.3-4.2-1.5c-1.3,1.2-2.1,3-2,4.8C111.5,205.8,115.1,207.8,117.8,208.3"/>
			<path class="st12" d="M86.7,184.6c0,0,3.9,19.1,6,21s20.4-4.7,20.4-4.7l5.4,7.5c0,0-22.8,9.2-29.2,6.5s-9-13.4-8.8-15.6
				C80.8,192.8,86.7,184.5,86.7,184.6"/>
			<g>
				<g>
					<defs>
						<rect id="SVGID_1_" x="463.1" y="336" width="37.5" height="38.5"/>
					</defs>
					<clipPath id="SVGID_00000116221862203678205640000018315629135073730204_">
						<use xlink:href="#SVGID_1_"  style="overflow:visible;"/>
					</clipPath>
					<g style="clip-path:url(#SVGID_00000116221862203678205640000018315629135073730204_);">
						<g>
							<defs>
								<rect id="SVGID_00000174590274262574922390000000927669884503369918_" x="463.1" y="336" width="37.5" height="38.5"/>
							</defs>
							<clipPath id="SVGID_00000079484109958221097440000008985203975292296872_">
								<use xlink:href="#SVGID_00000174590274262574922390000000927669884503369918_"  style="overflow:visible;"/>
							</clipPath>
							<g style="clip-path:url(#SVGID_00000079484109958221097440000008985203975292296872_);">
								<g>
									<defs>
										<rect id="SVGID_00000183950984056325677220000015063227999118564749_" x="463.1" y="336" width="37.5" height="38.5"/>
									</defs>
									<clipPath id="SVGID_00000004539536650223061860000007727326154454572464_">
										<use xlink:href="#SVGID_00000183950984056325677220000015063227999118564749_"  style="overflow:visible;"/>
									</clipPath>
								</g>
							</g>
						</g>
					</g>
				</g>
			</g>
			<g>
				<path class="st19" d="M191,284.8c0.7-9.3-3.5-18.4-10.9-24"/>
				<path class="st19" d="M195.5,285.1c2.2-13.7,0.7-23.1-3.9-28.9"/>
				<path class="st2" d="M202.6,286.5c-0.3-0.3-10.6,23-10.9,22.7c-4.4-4.1-9.1-8.6-11.2-14.2c-0.4-1.4-0.3-2.8,0.2-4.1
					c0.6-1.7,1.4-3.3,2.2-4.9c1-1.7,2.4-3,4.1-3.9C190.4,280.3,196.7,278.8,202.6,286.5"/>
				<path class="st20" d="M207.1,283.7c2-1,4.2-1.2,6.3-0.6l4.9,1.4c0.3,0-19.3,41.2-19.6,41.4c-1.4,0.4-3,0.4-4.3-0.2
					c-1.3-0.6-2.2-1.8-2.4-3.2C188.2,302.9,195.3,289.6,207.1,283.7"/>
				<path class="st2" d="M212,291.4l0.3-0.1c18.1,5.7,32.7,15.1,41.7,27.5c1.8,2.5,1.2,5.9-1.3,7.7c-0.5,0.3-1,0.6-1.6,0.8
					c-17.6,5.2-36.3,4.8-53.6-1C200.1,309.2,202.3,298.2,212,291.4"/>
				<path class="st2" d="M217,286.3c28.6,7.6,46.5,26.4,42.3,29.5c-2.2,1.6-8.3-2.3-11.2-4.3c-0.9-0.6-29.7-16.6-36.1-20.1
					C211.2,291,217,286.3,217,286.3"/>
				<path class="st21" d="M259.7,315.3c-0.3,1.8-3.9,7.5-5,8.5c-0.3,0.2-7.4-12-9.2-13.9C247.6,311.4,259.8,315.1,259.7,315.3"/>
				<path class="st13" d="M184.9,287.7c-0.1,2.3,1.7,4.2,4,4.3c2.3,0.1,4.2-1.7,4.3-4c0-0.1,0-0.3,0-0.4c0-2.3-1.9-4.2-4.3-4.2
					C186.7,283.4,184.8,285.3,184.9,287.7C184.9,287.6,184.9,287.6,184.9,287.7"/>
				<path class="st14" d="M187.7,286.5c0,0.4,0.3,0.7,0.7,0.7c0.4,0,0.7-0.3,0.7-0.7c0-0.4-0.3-0.7-0.7-0.7c0,0,0,0,0,0
					C188,285.8,187.7,286.1,187.7,286.5C187.7,286.5,187.7,286.5,187.7,286.5"/>
				<path class="st22" d="M219.2,329.7c0,0-2.8,3-0.6,10.7l-6.7-0.7"/>
				<path class="st22" d="M240.5,328.9c-0.7,4.3,0,8.7,1.8,12.7l-6.6-0.9"/>
				<path class="st22" d="M197.5,326.2c-1.6,3-1.4,8.4-0.5,12.2l-5.8-1.5"/>
			</g>
		</g>
	</g>
</g>
</svg>
