<?xml version="1.0" encoding="utf-8"?>
<!-- Generator: Adobe Illustrator 26.2.1, SVG Export Plug-In . SVG Version: 6.00 Build 0)  -->
<svg version="1.1" id="Capa_1" xmlns="http://www.w3.org/2000/svg" xmlns:xlink="http://www.w3.org/1999/xlink" x="0px" y="0px"
	 viewBox="0 0 202.6 247.8" style="enable-background:new 0 0 202.6 247.8;" xml:space="preserve">
<style type="text/css">
	.st0{fill:#E0D6B9;}
	.st1{fill:#CDBF9F;}
	.st2{fill:none;stroke:#211915;stroke-width:0.4663;stroke-linecap:round;}
	.st3{fill:#211915;}
	.st4{fill:#111419;}
	.st5{fill:#504F41;}
	.st6{fill:#FFFFFF;}
	.st7{fill:none;stroke:#D7D7CE;stroke-width:0.2152;stroke-linecap:round;}
	.st8{fill:#9C141B;}
	.st9{fill:#BF0811;}
	.st10{fill:#444242;}
	.st11{fill:#5B5B5F;}
	.st12{fill:none;stroke:#5B5B5F;stroke-width:0.9884;stroke-linecap:round;stroke-miterlimit:10;}
	.st13{fill:#727176;}
	.st14{fill:#B8A98D;}
	.st15{fill:none;stroke:#D7D7CE;stroke-width:0.2391;}
	.st16{fill:#775C7D;}
	.st17{fill:#A886B1;}
	.st18{fill:#DEA8C3;}
	.st19{fill:none;stroke:#FBFAFB;stroke-width:0.3169;stroke-linecap:round;}
	.st20{fill:none;stroke:#211915;stroke-width:0.4185;stroke-linecap:round;}
	.st21{fill:none;stroke:#85B266;stroke-width:0.287;stroke-linecap:round;stroke-miterlimit:10;}
	.st22{fill:#F0DAE9;}
	.st23{fill:#6F4714;}
	.st24{fill:#945B19;}
	.st25{fill:none;stroke:#DEA8C3;stroke-width:0.2092;stroke-linecap:round;}
	.st26{fill:#D7D7CE;}
	.st27{fill:#C1BFB3;}
	.st28{fill:none;stroke:#D7D7CE;stroke-width:0.2391;stroke-linecap:round;}
	.st29{fill:#538A58;}
	.st30{fill:#6EAA6F;}
	.st31{fill:none;stroke:#6EAA6F;stroke-width:0.3826;stroke-linecap:round;}
	.st32{fill:#3F7473;}
	.st33{fill:#61A0A2;}
	.st34{fill:#FFFFFF;stroke:#D7D7CE;stroke-width:0.5728;stroke-linecap:round;stroke-linejoin:round;}
</style>
<g>
	<path class="st0" d="M78,112.9c0.7,0,1.4,0.4,1.8,1c1.7-2.2,4.1-3.7,6.8-4.2c0,0-0.2-0.5-1-0.5C85.5,109.1,81.5,108.9,78,112.9"/>
	<path class="st0" d="M82.4,116.2l0.7,1.7c2.6-1.4,5.4-2.4,8.4-2.9c0,0-0.1-0.5-1-0.5C90.5,114.5,87,114,82.4,116.2"/>
	<path class="st1" d="M59,164.1c2.1,4.7,8.7,7.6,11.1,7.5c3.1-0.2,7.6-8.7,7.6-8.7c-2.9,0.9-5.8,1.6-8.8,2
		C65,165.4,59,164.1,59,164.1"/>
	<path class="st0" d="M58.8,164c0,0,2.7,1.4,10.2,1.1c3.1-0.1,6.1-0.9,8.9-2.2c0.8-1.2,1.5-2.4,2-3.7c0.5-1,0.8-2.2,1-3.3
		c0,0-6,3.2-11.6,3c-4.7-0.2-9.2-0.8-13.8-1.9c0.3,1.2,0.6,2.5,1.1,3.6C57.2,161.8,57.9,163,58.8,164"/>
	<path class="st1" d="M55.2,157c4.9,1.4,9.9,2,15,1.9c7,0,10.9-2.4,10.9-2.4c0.4-1.1,0.6-2.3,0.7-3.4c0.1-2.8-0.3-2-0.3-2
		s-6.9,1.7-12.9,1.7c-6.9,0-13.5-3.3-13.5-3.3c-0.3,1.5-0.3,3-0.3,4.5C54.9,155,55,156,55.2,157"/>
	<path class="st0" d="M54.9,149.5c4.7,2.5,10.1,3.6,15.5,3.4c3.7-0.3,7.5-0.9,11.1-1.8l-1.7-5.4c-3.7,1.1-7.7,1.6-11.6,1.3
		c-7.5-0.5-10.3-3.1-10.3-3.1s-1,1.7-1.6,2.7C55.8,147.6,54.9,149.5,54.9,149.5"/>
	<path class="st2" d="M57.7,148.2c0,0-5.4,4.5-6.2,4.7c-0.8-0.5-1.3-1.1-1.6-2"/>
	<path class="st2" d="M80.9,136.5c0,0,6,3.8,6.7,3.9c0.7-0.5,1.1-1.3,1.4-2.2"/>
	<path class="st2" d="M59.4,163.6c0,0-3.4,6-4,6.4c-0.8-0.1-2.1-1.1-2.1-1.1"/>
	<path class="st2" d="M67.3,168c0,0-2.8,7.5-3.5,7.8c-0.9-0.1-1.7-0.5-2.4-1"/>
	<path class="st2" d="M68,151.1c0,0-4.8,5.7-5.5,5.9s-2.3-1.6-2.3-1.6"/>
	<polygon class="st3" points="80.5,129.2 82.2,127.9 81.4,127.6 	"/>
	<polygon class="st3" points="66.4,124.1 67.6,125 66.9,127.1 	"/>
	<path class="st1" d="M57.8,143.7c0,0,2.7,2.6,11.1,3.3c5.5,0.5,11-1.5,11-1.5l-1-5.9c0,0-2.1-1.5-8.7-2c-7.2-0.5-8.2-1.1-8.2-1.1
		L57.8,143.7z"/>
	<path class="st4" d="M67.7,135.8l-1.1,6.6c4,0.6,7.9,0.8,11.9,0.4c1.5,3.5,2.1,10.3,4.9,13.3c0,0,0.9-11.8-1.8-18.8
		c-0.5-1.5-0.8-3.1-0.9-4.7C80.9,132.7,69.8,136.5,67.7,135.8"/>
	<path class="st4" d="M64.5,129.7c0,0-3.8,7-4.6,8.4c0,0,0.6,2.8,5.7,4.1l1.6-3.3l1.2-3.5L64.5,129.7z"/>
	<path class="st1" d="M66.9,126.9c0,0,1.6-11.4,8.5-14.2c0,0,2.2-1,5.5,1.4c2,1.7,3,4.2,2.8,6.7c-0.4,2.9-1.5,5.6-3,8.1l-12.3,6.7
		L66.9,126.9z"/>
	<path class="st5" d="M69.7,139.2c-0.2,0.3-0.7,0.3-0.9,0c-0.3-0.2-0.3-0.7,0-0.9s0.6-0.3,0.9-0.1C69.9,138.4,69.9,138.8,69.7,139.2
		"/>
	<path class="st6" d="M73.7,117.3c-0.7,1.1-2.1,1.5-3.3,0.9c-0.1,0-0.2-0.1-0.2-0.1c-1-0.6-1.1-2.2-0.4-3.3s2.2-1.6,3.2-1
		c1.2,0.8,1.5,2.4,0.8,3.5C73.8,117.2,73.7,117.2,73.7,117.3"/>
	<path class="st6" d="M70,117.9c-1-0.6-1-2.1-0.2-3.2s2.4-1.8,3.5-0.8"/>
	<path class="st7" d="M70,117.9c-1-0.6-1-2.1-0.2-3.2s2.4-1.8,3.5-0.8"/>
	<path class="st6" d="M81.2,120.4c-0.7,1.1-1.9,2-3.4,1c-1.7-1.1-1.2-2.4-0.5-3.5c0.7-1.1,2.2-1.4,3.2-0.7l0.1,0
		C81.7,118,81.9,119.4,81.2,120.4L81.2,120.4"/>
	<path class="st3" d="M73.6,125.9c0,0,0.1-3.7-3.8-1.9c0.3-1.3,1.5-2.3,2.8-2.4C72.6,121.7,75.9,121.3,73.6,125.9"/>
	<path class="st5" d="M66.4,124.1l2.1,11.7l-5.3-7.9C63.3,127.9,65.7,124.8,66.4,124.1"/>
	<path class="st5" d="M82.2,127.9l0.3,4.5c0,0-12.2,4.4-14.7,3.4c0,0,9.2-5.6,13.1-7C80.8,128.8,81.4,128.5,82.2,127.9"/>
	<path class="st8" d="M71,128.6l-0.1-0.1L71,128.6c0,0-1.6-1.3-2.1-1.5c0,0-0.3-0.1-0.3,0.2c-0.4,0.7-0.6,1.6-0.5,2.4
		c-0.1,0.9,0.3,0.8,0.3,0.8c0.5,0.1,2.3-0.7,2.3-0.7C70.4,129.6,71,128.6,71,128.6"/>
	<path class="st8" d="M73.8,132c0.6-1,1-2,1.3-3c0.1-0.2,0-0.3,0-0.3c-0.5-0.7-3.1,0.3-3.1,0.3l0.4,0.1c-0.2,1.5-1.1,1.1-0.8,1.3
		c0.4,0.4,0.8,0.9,1.1,1.4C73.4,132.6,73.8,132,73.8,132"/>
	<path class="st3" d="M70.8,116.8c-0.1,0.2-0.3,0.2-0.5,0.1c-0.2-0.1-0.2-0.3-0.1-0.5l0,0c0.1-0.2,0.4-0.3,0.5-0.2
		C70.8,116.4,70.9,116.7,70.8,116.8"/>
	<path class="st3" d="M78,119.8c-0.1,0.2-0.4,0.3-0.6,0.1c-0.2-0.1-0.3-0.4-0.1-0.6l0,0c0.1-0.2,0.4-0.3,0.6-0.1
		C78.1,119.4,78.1,119.6,78,119.8L78,119.8"/>
	<path class="st9" d="M70.7,128.5c0.3-0.4,0.9-0.5,1.4-0.1c0.1,0,0.1,0.1,0.1,0.1c0.4,0.4,0.3,1.1-0.1,1.4c-0.4,0.4-1.1,0.3-1.4-0.1
		c-0.1,0-0.1-0.1-0.1-0.2C70.3,129.3,70.4,128.8,70.7,128.5"/>
</g>
<g>
	<path class="st10" d="M144.3,87.3c-5.3-10.7-13.4-21.8-13.4-21.8l-6.1-5.7c0,0-6.6-38.5-6.8-40.1c-0.3-1.5-14.8-9.6-14.8-9.6
		l2.7,4.1C95.8,8.1,82.6,2.7,82.6,2.7L86.1,6C75.2,1.3,66.9,1.1,66.9,1.1c1.7,0.8,3.2,2,4.5,3.5c-0.3,0-0.7,0-1,0
		C71.9,5.4,73,6.1,73,6.1c-10.1,5.6-9.2,35.3-8.4,46.9c22.5,14.2,33.1,13.4,47.9,12.6c7.9-0.5,13.1,5,13.1,5
		c9.1,11.9,9.8,14.7,10.9,21.1c0.6,3.4,1.1,4.4,2.2,4.3c1.7-0.1,1.2-3.3,1.2-3.3c0.4,1.7,0.7,3.4,2.7,2.7c0.9-0.3,0.9-1.4,0.7-2.3
		c-0.3-0.5-0.3-1-0.3-1s0.2,0.5,0.3,1c0.4,0.8,1.1,1.6,2.5,1.1C147.4,93.7,145.1,88.9,144.3,87.3z"/>
	<path class="st4" d="M63.1,47.4c0,0-16.5,8.1-20,9.1c-1,0.3-4.1,1.8-5.1,0.2c-0.3-0.6-0.1-1.5,0.5-1.8l0,0L41,54c0,0-4.4,2-4.4-0.7
		c0-1.2,0.4-1.3,3.8-2.6c0,0-3.1,1.5-3.6-0.5c-0.5-1.7,2.5-1.8,5.7-2.5c5.9-1.3,12.6-2.9,22.1-8.2L63.1,47.4z"/>
	<path class="st4" d="M145.9,66.8c0,0,11.7,14.2,13.4,17.4c0.5,0.9,2.7,3.6,1.3,4.9c-0.6,0.5-1.4,0.4-1.9-0.1l0,0l-1.5-2.2
		c0,0,2.9,3.9,0.3,4.5c-1.2,0.3-1.4-0.1-3.4-3.2c0,0,2.1,2.6,0.3,3.6c-1.5,0.8-2.3-2.1-3.7-5c-2.6-5.5-5.6-11.7-13-19.6L145.9,66.8z
		"/>
	<path class="st4" d="M173.8,29.3c0,0-9.7-22.6-22.3-28.9c0,0-2.7-1.4-1.7,0.7c0,0,4,12.4,3.4,13.6c0,0-6.5-4.9-12.3-5
		c0,0,2.4,2,2.5,2.7c0,0-6.4-0.9-8.8-0.7l2.4,2c0,0-3.8,0.5-5.3,1.3c0,0-5-8.9-17.4-13.3c0,0,4.3,11.8,3.7,15.3c0,0-0.5,6-1.5,8.2
		c0,0-7.5,3.1-10.2,6.5c0,0,5.7-0.9,8,0.2c0,0-7.4,3.9-9.5,7.1c0,0,5.4-0.7,8.6,0c0,0-3.4,2.5-4.9,5.8c2.2-0.9,3.6-1.4,4.9-1.2
		c0,0,2.5,0.1,2.8,1.7c0,0,5,14.9,12.8,18.9c0,0,12.7,8.1,32.6,0.3c0,0,11.2-6.2,11.4-20.1c0,0,5.5,0.9,6.5,1.4c0,0-2.6-4-5.4-6.3
		c0,0,5,0.1,8.2,0.9c0,0-2-3.4-7.1-6.2c0,0,6.1-1.2,7.8-1C182.8,33.2,178.6,29.4,173.8,29.3"/>
	<path class="st11" d="M157.2,15.6c0,0,3.4,0.3,5.1,1c0,0-3.3-6.1-6-7.5L157.2,15.6z"/>
	<path class="st11" d="M128.8,15.8c0,0-4,0.4-4.7,0.8c0,0-2.2-6.8-2.5-7.2C121.6,9.3,125.7,10.8,128.8,15.8"/>
	<path class="st3" d="M146.7,17.3c-4-0.4-6.4-0.5-12,1.7c0,0-2,1.3-1.1,1.6c1.1,0.4,2.2,0.1,4.7-0.9c2.9-1.1,7.3-0.9,11.6-0.1
		c0,0,2.5,0.5,1.9-0.5C151.4,18.5,149.4,17.5,146.7,17.3"/>
	<path class="st3" d="M143.8,23.4c0,0,6.2-0.4,6,1.1c-0.1,0.8-3.8,0.5-5.4,0.8c-1.8,0.2-3.7,0.5-5.5,1c0,0-2.6,0.6-1.8-0.7
		C137.1,25.6,139.2,23.6,143.8,23.4"/>
	<path class="st6" d="M154.1,31c-1.1,3.2,1.2,6.1,4,6.7c2.8,0.5,5.7-1.3,6.3-4.6c0.7-3.3-1.2-6.3-3.9-7
		C159.4,25.7,155.1,28.3,154.1,31"/>
	<path class="st6" d="M125.4,32.6c-0.6,2.9-0.1,6.1,4.3,7c3,0.6,5.9-1.6,6.5-4.5c0.6-3.1-1.4-6-4.4-6.7
		C128.9,27.7,126.1,29.6,125.4,32.6C125.4,32.5,125.4,32.5,125.4,32.6"/>
	<line class="st12" x1="153.1" y1="30.6" x2="164.2" y2="22"/>
	<line class="st12" x1="137.9" y1="30.2" x2="123.5" y2="25.8"/>
	<path class="st11" d="M150,40c1.9,0,4.4,0.5,3.7,2.9c-0.4,1.3-1,3.7-2.5,4.7c-1.5,1-4.8-1.9-5.6-4.1C144.9,42.3,144.1,40,150,40"/>
	<path class="st11" d="M152.6,56.8c1.2,0.6,3.4,1.7,2.4,3.9c0,0-1,2.4-5,0.4c-1.6-0.8-4.4-2.2-7.1,0.3c-1,0.9-3.8,3-5.2,0.9
		c-0.7-1.1-1.3-2.8,1.1-5.2c1.1-0.9,2.4-1.4,3.7-1.7C144.9,54.8,147.9,54.5,152.6,56.8"/>
	<path class="st6" d="M141.4,59.9l1.6-4.6c0,0-2.3,0.4-3.6,1.4C139.2,56.8,141.4,59.9,141.4,59.9"/>
	<path class="st6" d="M153.2,57.2c-1.2-0.6-2.4-1.2-3.7-1.5c0.5,2.4,1,4.7,1,4.7L153.2,57.2z"/>
	<path class="st3" d="M168.5,43.4c-0.1,0.7,0.3,1.3,0.9,1.4c0.7,0.1,1.3-0.3,1.4-0.9c0.1-0.6-0.2-1.2-0.9-1.3c0,0-0.1,0-0.1,0
		c-0.6-0.1-1.2,0.2-1.4,0.8C168.5,43.4,168.5,43.4,168.5,43.4"/>
	<path class="st13" d="M164.1,44.4c-0.1,0.6,0.2,1.1,0.8,1.3c0,0,0,0,0.1,0c0.6,0.1,1.1-0.2,1.3-0.7c0,0,0-0.1,0-0.1
		c0.1-0.6-0.4-1.1-1-1.2C164.8,43.6,164.2,43.9,164.1,44.4"/>
	<path class="st13" d="M167,47.3c-0.1,0.6,0.2,1.1,0.8,1.3c0,0,0,0,0,0c0.6,0.1,1.2-0.3,1.2-0.8c0.1-0.6-0.2-1.1-0.7-1.3
		C167.7,46.4,167.1,46.7,167,47.3"/>
	<path class="st3" d="M128.6,48.1c-0.1,0.6,0.3,1.1,0.8,1.2c0.6,0.1,1.1-0.3,1.2-0.8c0.1-0.6-0.3-1.1-0.8-1.2
		C129.2,47.2,128.7,47.5,128.6,48.1"/>
	<path class="st3" d="M125,44.5c-0.1,0.6,0.3,1.2,0.8,1.2c0.6,0.1,1.2-0.3,1.2-0.8c0.1-0.6-0.3-1.1-0.9-1.3c0,0,0,0,0,0
		c-0.5-0.1-1,0.2-1.2,0.7C125,44.5,125,44.5,125,44.5"/>
	<path class="st3" d="M124,48.1c-0.1,0.6,0.3,1.2,0.9,1.3c0.6,0.1,1.2-0.3,1.3-0.9c0.1-0.6-0.3-1.2-0.9-1.3
		C124.8,47.1,124.2,47.5,124,48.1"/>
	<path class="st4" d="M105.9,14.2c0,0-3.5-2.1-6.2-3.5c-4.2-2.1-6.3-3.1-6.3-3.1S75.7,35,84.8,63.1c0,0,3.5,1.9,13.2,2.7
		C97.9,65.8,93.3,21.2,105.9,14.2"/>
	<path class="st10" d="M56.8,6.4c-9,3.1-11,8.8-11,8.8c-8.2,14.3-1.1,24-1,24.1C39,43.6,30,43.8,30,43.8c-5.7,0.5-12.6-2.9-12.6-2.9
		c-0.8-1-1.7-2-2.6-3c-1.6-1.3-2,0.1-1.8,0.6c0.3,0.5,0.6,1,1.1,1.5c-1.8-1.2-2.3-1.2-3-0.7s-0.5,1.1,0.1,2c0.3,0.5,0.6,0.8,1,1.2
		c-0.4-0.3-0.9-0.5-1.3-0.7c-1.4-0.6-2.2,1.6-1,2.8c7.1,6.7,19.8,7.4,19.8,7.4c8-0.1,15.9-2.9,20.3-4.8C47.3,30.5,52.8,15,56.8,6.4z
		"/>
	<path class="st10" d="M143.3,93.1c-0.1-0.6-0.3-1-0.3-1S143,92.6,143.3,93.1z"/>
	<path class="st4" d="M73,6.1c0,0-1.2-0.7-2.7-1.6c-5.7-0.1-10.1,0.7-13.5,1.9c-4,8.6-9.5,24.1-6.9,40.7c2.2-1,3.6-1.7,3.6-1.7
		c4,2.9,7.7,5.4,11.1,7.5C63.9,41.4,62.9,11.7,73,6.1z"/>
	<path class="st12" d="M149.9,47.7c-0.2,1.1-0.5,2.3-0.9,3.4c-0.5,1.6-1.2,3.1-2.2,4.4"/>
	<path class="st3" d="M131.5,34c-0.1,0.6,0.2,1.1,0.7,1.4c0.5,0.2,1-0.1,1.1-0.6l0,0c0.1-0.8-0.2-1.4-0.7-1.5
		C132.1,33.1,131.6,33.5,131.5,34"/>
	<path class="st3" d="M160.3,32c-0.1,0.6,0.2,1.1,0.7,1.3c0.5,0.2,0.9-0.1,1.1-0.5l0,0c0.1-0.7-0.2-1.3-0.7-1.4
		C161,31.1,160.4,31.4,160.3,32"/>
</g>
<g>
	<path class="st1" d="M171,179c0,0,1.6,3.2,1.9,3.5c1.5-0.7,2.8-1.7,4-2.9l-0.8-1.1L171,179z"/>
	<path class="st14" d="M193,190.8c1.6,0.4,3.3,0.6,5,0.5c-0.2,0.8-0.6,1.4-1.3,1.9c0,0-1.3,0.4-5.1-0.2
		C192.2,192.4,192.8,191.6,193,190.8"/>
	<path class="st1" d="M190.2,190.2c-0.4,1.1-1.8,2.3-1.8,2.3c1,0.4,2,0.5,3,0.6c1.2-0.4,1.7-2.4,1.7-2.4
		C191.9,190.5,190.2,190.1,190.2,190.2"/>
	<path class="st14" d="M187.6,189c1,0.4,2.1,0.8,3.2,1c0,0-1.2,2.3-2.3,2.6c0,0-1.3,0.2-3.2-1.1C185.3,191.5,187.2,189.8,187.6,189"
		/>
	<path class="st1" d="M182,190c1,0.7,2.2,1.3,3.3,1.6c1-0.8,1.9-1.7,2.6-2.8c-1.1-0.4-2.3-0.9-3.3-1.4
		C184.5,187.5,182.4,190,182,190"/>
	<path class="st14" d="M179.1,188.1c0.8,0.8,1.7,1.5,2.8,2.1c1.2-0.6,2.2-1.6,2.9-2.8c-1-0.5-2-1.1-3-1.8
		C181.7,185.5,179.6,187.9,179.1,188.1"/>
	<path class="st1" d="M178.9,182.7c1,1,2,1.9,3.1,2.8c0,0-1.3,2-2.9,2.6c0,0-2.7-2.2-3-2.5C177.1,184.8,178.1,183.8,178.9,182.7"/>
	<path class="st14" d="M176.8,179.8c0.7,1,1.4,1.9,2.2,2.7c0,0-1.6,2.6-3.2,3.2c0,0-2.3-2.9-2.6-3.3
		C174.4,181.7,175.6,180.8,176.8,179.8"/>
	<path class="st14" d="M166.4,107.2c0,0,0.2-9.8,7.8-8.7c0,0,2.9,0.2,3.8,2.6c0.7,1.7,0.4,3.6-0.6,5.2l-2.2,3.6
		C172.8,107.9,169.6,107,166.4,107.2"/>
	<path class="st1" d="M155.8,177c0,0,0.1,12.4-0.2,12.9c-0.5,0.8-2.4,0.4-3,1.9c-0.6,1.4,1.4,1.8,2,1.3l0.8-0.7c0,0-0.7,1.8,1.2,2.2
		c0.7,0.1,1.3-0.5,1.4-1.2c0-0.2,0-0.4-0.1-0.5c0,0,0.8,1.7,2,1.3c0,0,1.9-0.8-0.1-3.3c-0.7-2.2-1.1-4.4-1.1-6.7l0.1-7.2L155.8,177z
		"/>
	<path class="st1" d="M168,177.2c0,0,0.2,11.5,0,12.1c-0.5,0.6-1.1,1.1-1.8,1.6c-0.5,0.4-1.4,2-0.5,2.6c0,0,1,0.5,1.7-1.3
		c0,0-0.5,2,1.1,2c0,0,1.4,0.2,1.7-1.7c0,0,0.4,1.6,1.5,1.3c0,0,1.7-0.7,1-2.3c-0.4-0.8-1.3-2-1.2-3.2l-0.4-11.1L168,177.2z"/>
	<path class="st6" d="M158.1,108.2c0,0-1.3-4.2-5.4-3.6c-1.9,0.3-4.8,1.7-4.2,6.3c0,0,6.2-0.5,9.1-2.6"/>
	<path class="st15" d="M158.1,108.2c0,0-1.3-4.2-5.4-3.6c-1.9,0.3-4.8,1.7-4.2,6.3c0,0,6.2-0.5,9.1-2.6"/>
	<path class="st1" d="M174.7,146.8c0,0-0.4-11.2,5.3-18.8c1.6-3,2.4-6.3,2.3-9.7c0,0,10.1-3.6,5.7-10.3c-1.5-2.3-6.5-4.7-10.5,2.8
		c0,0-8.4-8.3-22.2-2.1c-11.4,5.1-30.9,4.8-30.9,4.8h-0.4c0,0-6.2,6.3,1,9.9c14.3,7.2,28.3,10.5,31.2,12.4c2,1.2,2.8,3.7,1.9,5.9
		l-1.7,3.6c0,0,4.2-0.2,4.8,6.4C161.2,151.7,164.7,143.5,174.7,146.8"/>
	<path class="st1" d="M173.9,145.2c0,0,6,7,6.7,11.4l-0.8,1.8c-0.2,0.5-0.7,2.9,1.2,2.1c0.4-0.2,0.9-1.3,0.9-1.3s0.9,1.9,1.8,1.6
		c0.9-0.3,1.4-1,0.4-2.9c0,0,2,1.7,2.5,0.2c0.4-1.3-0.5-2.3-3.1-3.5c0,0-3.3-9.6-8.7-16.3C174.9,138.3,174.6,144.5,173.9,145.2"/>
	<path class="st16" d="M153.8,158.5c0,0,12.4,5.9,21.3,0.7l-0.2-12.4c0,0-9.9-3.9-13.8,4.9c0,0,0.2-6.5-4.8-6.4
		C156.3,145.3,153.6,154,153.8,158.5"/>
	<path class="st17" d="M153.5,158.5c0,0-8.4,11.1-12.6,19.8c0,0,27.7,4.5,44.4-0.7c-1.7-6.2-4.9-11.9-9.1-16.7
		c-0.5-0.6-0.8-1.3-0.7-2.1C175.4,158.9,166.4,163.6,153.5,158.5"/>
	<path class="st18" d="M124.7,123.4c0-3.1,0.1-6.8,0.1-9.9c-3,0.1-6,0.1-9-0.1c0,0-4.5-0.6-2.3,2.5
		C115.8,119,124.7,123.4,124.7,123.4"/>
	<path class="st6" d="M170.7,114.8c0,2.6-2.5,4.4-4.6,4.4c-2.1,0-3.9-1.8-3.9-4.4c0.1-2.6,2.3-4.7,4.9-4.7c0.1,0,0.1,0,0.1,0
		C169.4,110.2,170.7,112.2,170.7,114.8"/>
	<path class="st18" d="M179.7,112l1,2.5c0,0,5.7-0.2,4.4-4C185.2,110.5,183.7,107.8,179.7,112"/>
	<path class="st3" d="M151.9,108.1c0,0.4-0.2,0.7-0.6,0.7c-0.4,0.1-0.7-0.3-0.7-0.7c0-0.4,0.3-0.7,0.7-0.7
		C151.7,107.5,151.9,107.8,151.9,108.1"/>
	<path class="st3" d="M165.9,115.2c0.1,0.4-0.2,0.7-0.6,0.8c-0.4,0.1-0.8-0.3-0.8-0.7c0-0.1,0-0.1,0-0.1c0.1-0.4,0.4-0.8,0.8-0.8
		C165.7,114.5,165.9,114.8,165.9,115.2"/>
	<path class="st19" d="M154.8,166.4c0,0-1.8,2.7-2.7,4.5c-0.9,1.8-1.6,3.7-1.6,3.7"/>
	<path class="st19" d="M174.1,174.8c0,0-0.8-3.2-1.6-5c-0.7-1.9-1.7-3.7-1.7-3.7"/>
	<path class="st19" d="M163.8,174.8c-0.1-2.6-0.3-5.3-0.7-7.8"/>
	<path class="st4" d="M161.4,127.6c-1.4,0.1-2.4,1.4-1.6,2.9c0.7,1.4,2.1,2.3,3.7,2.4c1.4,0,2.3-1,2.1-2.7S163.2,127.5,161.4,127.6"
		/>
</g>
<g>
	<path class="st20" d="M113.3,163.8c0,0-1.9,6-2.3,6.6c-0.8,0-1.6-0.2-2.2-0.7"/>
	<path class="st20" d="M123.9,168c0,0,0.5,6.2,0.1,6.8c-0.7,0.2-1.4,0.3-2.2,0.2"/>
	<path class="st20" d="M110.1,159.3c0,0-5.7,3.9-6.3,3.8c-0.7-0.1-1.2-1.9-1.2-1.9"/>
	<line class="st21" x1="99.8" y1="164.9" x2="107.7" y2="167.4"/>
	<path class="st18" d="M99.3,166.5c-0.2,0.5-0.7,1.3-1.7,1.1c-0.5-0.1-0.3-1.3,0.2-2c0.2-0.4,0.8-0.9,1.3-0.7
		C99.5,165.1,99.5,166,99.3,166.5"/>
	<path class="st18" d="M99,163.6c0,0-1.5-2.2-2.7-1.4c0,0-1.1,1,0.7,1.9c0.5,0.2,1.1,0.3,1.6,0.2C98.8,164.1,98.9,163.8,99,163.6"/>
	<path class="st18" d="M98.8,164.3c-0.8-0.2-1.6-0.2-2.4-0.1c0,0-1.4,0.4-0.6,1.5c0.4,0.5,1.4,0.4,2.5-0.4c0.2-0.2,0.5-0.3,0.8-0.4
		L98.8,164.3z"/>
	<path class="st18" d="M98.9,163.7c0,0-1.8-2.8,0.1-2.7c0.6,0.1,1.5,0.4,0.8,2.4l-0.3,0.5C99.3,163.7,99.1,163.6,98.9,163.7"/>
	<path class="st18" d="M99.9,164.7c-0.2,0.4-0.5,0.5-0.9,0.5c0,0,0.6,2.9,1.9,2.1C102.2,166.4,100.2,164.7,99.9,164.7"/>
	<path class="st18" d="M99.6,163.6c0,0,0.3-1.7,1.5-1.7c0.5,0,1.7,0.9,0.4,1.7c-0.4,0.2-0.8,0.3-1.6,0.6
		C99.9,164.2,99.7,163.6,99.6,163.6"/>
	<path class="st18" d="M100,164.1c0,0,1.8-0.7,2.2,0.1c0.1,0.3-0.2,1.3-1.4,1c-0.4,0-0.7-0.1-0.9-0.4
		C99.8,164.7,100.1,164.2,100,164.1"/>
	<path class="st6" d="M100,164.3c0,0.5-0.4,1-0.9,1c-0.1,0-0.1,0-0.1,0c-0.5-0.1-0.8-0.4-0.8-0.9c0-0.5,0.4-1,1-1c0.1,0,0.1,0,0.1,0
		C99.6,163.4,100,163.8,100,164.3L100,164.3"/>
	<path class="st22" d="M112.9,140.9c0,0,10.4-10.5,25.5-7.4c0,0,2.2,0.5,0.7,2.1c-1.4,1.6-2.8,3.2-0.1,7.2c1.2,0.6,1.7,2,1.3,3.3
		c-0.8,2.3-3.9,1.7-3.8,3.8c0.1,2.2,0.8,2.3-1.1,4.4c0,0-1,0.5-2.7-0.5c-1.7-1-12.7-8.4-13-8.6L112.9,140.9z"/>
	<path class="st18" d="M118.5,144.4l0.6-0.8c0.5,0.4,0.8,0.8,1,1.4l-0.2,0.4C119.8,145.3,118.6,144.5,118.5,144.4"/>
	<path class="st6" d="M117.1,143.7l0.9-1.3c0.5,0.2,1,0.6,1.1,1.1l-0.7,0.9C118.5,144.4,117.4,143.6,117.1,143.7"/>
	<path class="st18" d="M115.7,142.8l1-1.6c0.5,0.2,1.1,0.5,1.4,1l-1,1.4C116.7,143.3,116.2,143,115.7,142.8"/>
	<path class="st6" d="M113.9,142.1l1.2-1.7c0.7,0.1,1.3,0.4,1.7,0.8l-1.1,1.7C115.7,142.9,114.2,142,113.9,142.1"/>
	<path class="st18" d="M112,141.4c0,0,1-1.6,2-1.5c0.4,0.1,0.7,0.2,1.1,0.4l-1.2,1.8C113.3,141.8,112.7,141.6,112,141.4"/>
	<path class="st6" d="M105.4,146c0,1.1-0.4,2.5-2.2,2.5c-1.9,0-2.2-1.2-2.2-2.4s1-2.2,2.2-2.2h0.1C104.5,144,105.4,144.9,105.4,146
		L105.4,146"/>
	<path class="st3" d="M103.3,146.6c0,0.2-0.1,0.4-0.3,0.4s-0.4-0.1-0.4-0.3c0,0,0-0.1,0-0.1c0-0.2,0.1-0.4,0.3-0.4
		c0.2,0,0.4,0.1,0.4,0.3C103.3,146.6,103.3,146.6,103.3,146.6"/>
	<line class="st21" x1="103.8" y1="162.7" x2="106.9" y2="168"/>
	<path class="st23" d="M115.7,168.4c3.7,2.8,10.5,2.5,13.3-0.2c4.6-4.5-0.1-12.4-0.1-12.4s-2.4,4.7-5,7.2
		C120.7,166.2,115.7,168.4,115.7,168.4"/>
	<path class="st24" d="M115.1,168.7c0,0,4.9-1.3,9.6-6.2c2.5-2.7,4.2-7.1,4.2-7.1c-0.4-1.2-1-2.3-1.7-3.3c-1.8-2.4-2.8-3.5-2.8-3.5
		s-0.5,6.3-4.1,9.7c-2.8,2.6-5.9,4.8-9.3,6.5c0.7,0.8,1.4,1.7,2.2,2.5C113.9,167.8,115.1,168.7,115.1,168.7"/>
	<path class="st24" d="M107.6,159.9c0,0,10.5-4.6,12.8-14.3c0,0-7.4-5.7-12-4.3c0,0-6.5,0.8-4.5,10.4
		C103.8,151.8,105.3,156.9,107.6,159.9"/>
	<path class="st23" d="M110.8,165c0,0,3.3-1,9.3-6.3c4.5-4,4.7-10.1,4.7-10.1c-0.7-0.7-1.5-1.2-2.3-1.7c-2.2-1.5-2.2-1.2-2.2-1.2
		c-0.8,3.3-2.6,6.3-5,8.7c-2.3,2.3-5.1,4.2-8.1,5.7c0,0,0.5,1,1.7,2.8C109.6,163.5,110.2,164.3,110.8,165"/>
	<path class="st9" d="M101.3,162.5c0,0-1.1,1-0.7,1.6c0.3,0.4,0.7,0.8,1.9-0.1c0.4-0.2,0.5-0.7,0.4-1.1c-0.2-0.2-0.4-0.4-0.5-0.6
		C102,162.5,101.7,162.6,101.3,162.5"/>
	<path class="st9" d="M103.3,159.5c0.1,0.7,0.1,2-0.5,2c-0.5,0-1.4-0.7-1.5-1.9c-0.1-0.5,0.4-1.3,0.8-1.3
		C102.8,158.4,103.3,158.9,103.3,159.5L103.3,159.5"/>
	<path class="st9" d="M102.5,161.2c0,0-1.9-1.3-2.6-0.4c-0.3,0.4-0.6,1.6,1,1.7c0.5,0.1,1,0,1.4-0.3
		C102.3,161.9,102.4,161.6,102.5,161.2"/>
	<path class="st9" d="M103.2,161.2c0,0-0.1-2.6,1.8-2.2c0.5,0.1,1,0.7,0.4,1.7c-0.4,0.5-0.9,0.9-1.6,1
		C103.8,161.7,103.4,161.4,103.2,161.2"/>
	<path class="st9" d="M103.8,161.6c0.7-0.4,1.6-0.3,2.2,0.2c0.4,0.3,0.5,1.6-1.3,1.4c-0.5-0.1-1-0.4-1.2-1
		C103.5,162.4,103.9,161.8,103.8,161.6"/>
	<path class="st9" d="M103.6,162.5c0,0,1.5,2,0.3,2.6c-0.6,0.2-1.9-0.2-1.3-2.3c0,0,0.7,0,0.8-0.2"/>
	<path class="st18" d="M103,161c-0.5,0.1-1,0.5-1,1.1c0,0.5,0.5,1,1,1l0,0c0.5,0,0.9-0.4,1-0.8v-0.1C104,161.5,103.6,161,103,161"/>
	<path class="st6" d="M113.1,145.7c0.1,1.2-0.8,2.3-2,2.3c-0.1,0-0.2,0-0.3,0c-1.1,0-2-1.1-2-2.4c0-1.3,0.9-2.4,2-2.5
		c1.3,0,2.4,1.1,2.4,2.4C113.1,145.7,113.1,145.7,113.1,145.7"/>
	<path class="st3" d="M111.8,145.8c0,0.2-0.2,0.4-0.4,0.4c-0.2,0-0.3-0.2-0.4-0.4c0-0.2,0.1-0.4,0.4-0.4S111.8,145.5,111.8,145.8
		C111.8,145.7,111.8,145.8,111.8,145.8"/>
	<path class="st25" d="M122.7,139.3c2.6-1.4,7.6-2,10.7-1.5"/>
	<path class="st25" d="M123.2,142.9c3,0.1,6,0.8,8.7,2.2"/>
	<path class="st20" d="M127.6,167.4c0,0,1.6,7.1,1.2,7.6c-0.7,0.4-1.5,0.5-2.3,0.4"/>
	<path class="st20" d="M115.7,166.6c0,0-0.8,6.6-1.3,7.2c-0.5,0.5-2.6-0.1-2.6-0.1"/>
	<path class="st20" d="M110.2,161.6c0,0-4.7,5-5.4,5.1c-0.7,0.1-1.6-1.6-1.6-1.6"/>
	<path class="st4" d="M105.1,151.6c0,0,2.5-1,4.4-0.5c0,0-0.2-2.6-2.8-2.3C106.9,148.8,105.3,149.3,105.1,151.6"/>
</g>
<g>
	<path class="st26" d="M37.9,198.1c0,0-2-2.7-7.6-8.6c-6.6-6.9-13-13.9-13-13.9l3.2-6.5c3.1,1,6.4,1.8,9.6,2.4
		c10.3,1.8,25.5,4.4,28,11c1-1.4,11.7-8.2,16.7,2.8c1.7,4,0.2,8.6-3.4,10.9c0,0-6.2,3.4-10.4-0.6c0,0-3.3,3.3-3.9,4.1
		c0,0-1.6,2.5-1.5,4.9l-2.4,10.1c0,0-11.3-15.2-15.9-16.4"/>
	<g>
		<path class="st27" d="M54.8,179.4c0,0,7.1-7.7,0.8-12.6c-6.7-5.1-14.3,4.9-11.3,9.2L54.8,179.4z"/>
		<path class="st6" d="M44.6,171.4c-1.3-0.7-4.5-1-5.1,3.4l7,1.3C46.5,176,47.3,172.7,44.6,171.4"/>
		<path class="st6" d="M44.1,171.1c-1.3-0.3-3.3-0.4-4.2,2.2"/>
		<path class="st28" d="M44.1,171.1c-1.3-0.3-3.3-0.4-4.2,2.2"/>
		<path class="st27" d="M57.7,230.3c0,0,0.7,2.7,1,4.2c0,0,3.9-3.1,7.4-1.9c0,0,1.6,0.7,0.7,1.6c-0.3,0.3-0.6,0.3-1.7-0.5
			c0.7,0.4,0.9,1.2,0.7,2c0,0-0.8,1.4-1.7-0.9c0,0,0.6,1.1-0.1,1.8c0,0-0.8,0.5-1.5-1.6c0,0-2.8,2-4,2.8c-0.4,0.2-2,0.4-2.3-0.9
			l-1.3-4.2L57.7,230.3z"/>
		<path class="st26" d="M58.5,222.8c0,0,4.1,11.3-9.9,11.8l-6.9,0.3c-0.2,0.7-0.4,1.4-0.7,2.2c0,0,3.9,5.4,4.4,5.6
			c0,0,1.6,1.5,0.8,2.6c0,0-1,0.7-2.3-1.2c0,0,0.7,1.8-0.8,1.4c0,0-0.6-0.2-0.8-1.2c0,0-0.4,1.4-1.4,0.8c0,0-1.2-0.5,0-2.4
			c0,0-3.3-4-3.5-5.6c-0.1-0.8,0.7-3.9,0.7-3.9c-1.3-2.5-2.2-5.1-2.7-7.9l6.7,0L58.5,222.8z"/>
		<path class="st27" d="M56.3,206.2c0,0,2.6,4.7,3.8,6.5c0,0,6.3-2.8,8.3-0.5c0.3,0.3,0.9,1.2,0,1.5c-0.4,0.2-0.9-0.2-1.5-0.8
			c0,0,1,1.4,0.4,1.9c-0.4,0.3-0.8,0.4-1.6-0.9c0,0,0.4,1.1-0.2,1.5c-0.4,0.3-1.1-0.3-1.3-1.7c0,0-3.5,1.6-4.3,1.9
			c-0.8,0.3-1.6,0.6-2.9-1.1l-1.9-9.3L56.3,206.2z"/>
		<path class="st29" d="M56.8,209.8c0,0,2.9,10,3.4,13.6l-4.1,0.4c0,0-2.9-8.6-2.6-9.7S56.8,209.8,56.8,209.8"/>
		<path class="st29" d="M37,202.7c0,0,11.3,10.5,16.4,11.4l2.6,9.7c0,0-7.7,1.4-13.1,1.8c-2.7,0.5-5.2,1.5-7.5,3
			c0,0-4.2,2.7-7.9,2.7c0,0,7.3-5.3,8.2-7.7c0,0-5,2.4-9.6,2.1c0,0,10.4-2.9,10.3-9.9C36.6,215.7,36.8,203.7,37,202.7"/>
		<path class="st4" d="M41.7,191.2c-1.4-0.4-2.3,1.1-2,2.9c0.2,1.6,1.2,2.9,2.7,3.5c1.3,0.5,2.5-0.1,2.9-1.8
			C45.5,194,43.5,191.7,41.7,191.2"/>
		<path class="st6" d="M49.7,179.4c-1.8-0.4-3.7,0.8-4.5,2.8c-0.7,2,0.1,3.9,1.9,4.6s3.8,0.4,4.8-1.4
			C53.9,182.1,51.9,179.9,49.7,179.4"/>
		<path class="st18" d="M21,169.2l-3.3,7.2c0,0-3.7-4-4.7-5.3c-0.5-0.7-2.1-4.3,1-3.7C15.9,167.8,21,169.2,21,169.2"/>
		<path class="st18" d="M60.4,189.2c-0.6,1.6,0.5,2.4,2.4,3.1c1.9,0.7,5.1,0.7,6-1.7c0.6-1.6-0.4-3.7-2.3-4.4
			C64.7,185.5,61,187.7,60.4,189.2"/>
		<path class="st3" d="M48.5,180.9c-0.3,0.2-0.3,0.6-0.1,0.9c0.1,0,0,0.1,0.1,0.1c0.3,0.3,0.7,0.2,0.9,0s0.2-0.7,0-0.9
			C49.2,180.6,48.8,180.6,48.5,180.9L48.5,180.9"/>
		<path class="st3" d="M42.4,172c-0.3,0.2-0.3,0.7-0.1,0.9c0.2,0.2,0.6,0.2,0.8,0c0.3-0.2,0.4-0.6,0.1-0.9S42.7,171.7,42.4,172
			C42.4,171.9,42.4,172,42.4,172"/>
		<path class="st30" d="M57.7,208.4c-0.5-1.6-1.2-3.1-2-4.6l-2.3,10.5C55.1,212.5,56.5,210.5,57.7,208.4"/>
		<path class="st30" d="M37.4,197.8c0,0-1.1,3.7-1.1,4.6c0,0,12.3,10.9,17.1,11.9C53.4,214.2,43.8,200.2,37.4,197.8"/>
		<path class="st26" d="M40.1,208.1c0.2-1.1-1.7-2.9-2.8-0.8c-1.3,2.4-2,5.2-2,8c0,1.7,1.4,4.4,5.8,4.6c0,0-0.6,1.5,0.5,1.7
			c0.3,0,0.7,0,0.7-1c0,0,0.6,1.4,1.3,1.2c0,0,0.9,0,0.1-2.1c0,0,0.9,1.7,1.8,1c0,0,1.2-0.8-1.1-2.6c-0.9-0.7-2.4-0.6-4.8-1.2
			c-0.9-0.2-2-0.9-1.2-3.6C38.4,213.4,39.8,209.1,40.1,208.1"/>
		<path class="st6" d="M57.5,217.3c-0.4-0.2-0.9,0-1.1,0.4c0,0.1,0,0.1-0.1,0.2c-0.1,0.5,0.1,1.1,0.6,1.2c0.4,0.2,0.8,0,1-0.4
			c0-0.1,0-0.1,0.1-0.2C58.3,218.1,58.1,217.5,57.5,217.3C57.5,217.4,57.5,217.3,57.5,217.3"/>
		<path class="st31" d="M54,214.6l1,3.6c0.4,1.5,0.7,3.2,0.9,4.8"/>
		<path class="st32" d="M56.3,201.9c1.1,1.9,1.6,4.3,1.2,6.5c-1.5-0.3-3-0.8-4.4-1.6l-0.4-2C52.7,205,54.8,202.5,56.3,201.9"/>
		<path class="st32" d="M50.9,205.2c0,0-3.2-1.1-4.8-0.9c-0.2,2.5,1.9,5.9,1.9,5.9s3.2-2,3.8-2.9C51.8,207.3,50.7,206.3,50.9,205.2"
			/>
		<path class="st33" d="M50.8,206.3c0.3,0.6,1.1,0.9,1.8,0.5c0.7-0.4,0.9-1.1,0.5-1.8c-0.3-0.6-1-0.8-1.6-0.6
			C50.8,204.8,50.5,205.6,50.8,206.3"/>
	</g>
</g>
<g id="Capa_2_00000082360210376339492310000015660338526527470210_">
	<g id="Capa_1-2_00000093174128595340700110000008796988722096715198_">
		<path class="st34" d="M86.3,212.6c1,23.8,21.8,33.6,47,32.6s45.2-12.5,44.2-36.3c-0.8-20.2-15.8-29.4-35.6-31.2
			c-1.3-3.3-3.1-6.2-5.2-8.7c-4.2-4.7-10.4-6.8-10.4-6.8s4.7,4.8,6.7,9.6c0.7,1.7,1.2,3.6,1.5,5.5c-1.3,0.1-2.5-0.1-3.9,0
			C105.5,178.4,85.4,188.6,86.3,212.6z"/>
	</g>
</g>
</svg>
