<?xml version="1.0" encoding="utf-8"?>
<!-- Generator: Adobe Illustrator 26.2.1, SVG Export Plug-In . SVG Version: 6.00 Build 0)  -->
<svg version="1.1" id="Capa_1" xmlns="http://www.w3.org/2000/svg" xmlns:xlink="http://www.w3.org/1999/xlink" x="0px" y="0px"
	 viewBox="0 0 455 259.5" style="enable-background:new 0 0 455 259.5;" xml:space="preserve">
<style type="text/css">
	.st0{fill:#E0D6B9;}
	.st1{fill:#CDBF9F;}
	.st2{fill:none;stroke:#211915;stroke-width:0.78;stroke-linecap:round;}
	.st3{fill:#211915;}
	.st4{fill:#111419;}
	.st5{fill:#504F41;}
	.st6{fill:#FFFFFF;}
	.st7{fill:none;stroke:#D7D7CE;stroke-width:0.36;stroke-linecap:round;}
	.st8{fill:#9C141B;}
	.st9{fill:#BF0811;}
	.st10{fill:#444242;}
	.st11{fill:#5B5B5F;}
	.st12{fill:none;stroke:#5B5B5F;stroke-width:2.06;stroke-linecap:round;stroke-miterlimit:10;}
	.st13{fill:#727176;}
	.st14{fill:#B8A98D;}
	.st15{fill:none;stroke:#D7D7CE;stroke-width:0.4;}
	.st16{fill:#775C7D;}
	.st17{fill:#A886B1;}
	.st18{fill:#DEA8C3;}
	.st19{fill:none;stroke:#FBFAFB;stroke-width:0.53;stroke-linecap:round;}
	.st20{fill:none;stroke:#211915;stroke-width:0.7;stroke-linecap:round;}
	.st21{fill:none;stroke:#85B266;stroke-width:0.48;stroke-linecap:round;stroke-miterlimit:10;}
	.st22{fill:#F0DAE9;}
	.st23{fill:#6F4714;}
	.st24{fill:#945B19;}
	.st25{fill:none;stroke:#DEA8C3;stroke-width:0.35;stroke-linecap:round;}
	.st26{fill:none;stroke:#D7D7CE;stroke-width:1.37;stroke-linecap:round;stroke-miterlimit:10;}
	.st27{fill:#C1BFB3;}
	.st28{fill:none;stroke:#D7D7CE;stroke-width:0.4;stroke-linecap:round;}
	.st29{fill:#D7D7CE;}
	.st30{fill:#538A58;}
	.st31{fill:#6EAA6F;}
	.st32{fill:none;stroke:#6EAA6F;stroke-width:0.64;stroke-linecap:round;}
	.st33{fill:#3F7473;}
	.st34{fill:#61A0A2;}
	.st35{fill:none;stroke:#D7D7CE;stroke-width:0.5;stroke-linecap:round;stroke-linejoin:round;}
</style>
<g id="Capa_2_00000061454263041197814350000000000689084193258936_">
	<g id="Capa_1-2">
		<g>
			<g>
				<path class="st0" d="M294.6,89.3c1-0.6,2.3-0.7,3.4-0.3c0.3-4.6,2.3-8.9,5.6-12.1c0,0-0.8-0.5-1.9,0.3
					C301.7,77.2,295.9,80.6,294.6,89.3"/>
				<path class="st0" d="M303.8,90l2.5,1.7c2.3-4.4,5.4-8.3,9.1-11.7c0,0-0.5-0.6-1.9,0.2C313.5,80.2,308.2,82.7,303.8,90"/>
				<path class="st1" d="M314.8,178.5c7.2,4.6,19.2,2.7,22.4,0.3c4.2-3.1,2.6-19.1,2.6-19.1c-3.2,3.9-6.6,7.5-10.4,10.9
					C324.5,174.8,314.8,178.5,314.8,178.5"/>
				<path class="st0" d="M314.5,178.6c0,0,5-0.5,15.3-7.8c4.2-3,7.7-6.9,10.4-11.3c0.1-2.4-0.1-4.8-0.6-7.1
					c-0.3-1.9-0.9-3.8-1.6-5.6c0,0-5.5,9.9-13.5,14.8c-6.7,4-13.7,7.3-21,10c1.5,1.5,3.1,2.9,4.8,4.1
					C310.3,176.9,312.3,177.9,314.5,178.6"/>
				<path class="st1" d="M303,172c8.1-2.6,15.7-6.3,22.7-11c9.8-6.5,13.1-13.4,13.1-13.4c-0.5-1.9-1.3-3.7-2.1-5.5
					c-2.4-4-2.3-2.5-2.3-2.5s-8.1,8.6-16.5,14.1c-9.7,6.4-21.9,7.8-21.9,7.8c1,2.3,2.3,4.5,3.7,6.5C300.8,169.4,301.9,170.7,303,172
					"/>
				<path class="st0" d="M295.8,161.7c8.9-0.9,17.5-4.2,24.8-9.4c4.9-3.9,9.6-8.1,13.8-12.7l-7.3-6.1c-4.2,5-9.3,9.2-15,12.4
					c-11,6.2-17.3,5.1-17.3,5.1s0.1,3.3,0.3,5.3S295.8,161.7,295.8,161.7"/>
				<path class="st2" d="M298.5,157.5c0,0-3.5,11.2-4.4,12.2c-1.5,0-2.9-0.4-4.1-1.3"/>
				<path class="st2" d="M320.4,119.8c0,0,11.8-0.2,12.9-0.7c0.5-1.4,0.4-2.9-0.1-4.3"/>
				<path class="st2" d="M315,177.4c0,0,0.8,11.5,0.2,12.6c-1.2,0.6-4,0.4-4,0.4"/>
				<path class="st2" d="M330,176.3c0,0,2.9,13,2.2,14.1c-1.3,0.7-2.8,0.9-4.3,0.8"/>
				<path class="st2" d="M315.5,152c0,0-1.5,12.3-2.3,13.3s-4.7-0.1-4.7-0.1"/>
				<polygon class="st3" points="313,109.9 314.2,106.6 312.8,106.8 				"/>
				<polygon class="st3" points="288.7,115.7 291.1,115.8 292.1,119.4 				"/>
				<path class="st1" d="M294.5,151.1c0,0,6.1,1.2,18.6-5.5c8.2-4.4,14-12.2,14-12.2l-6.8-7.3c0,0-4.4-0.2-14,5.2
					c-10.5,5.9-12.5,5.9-12.5,5.9L294.5,151.1z"/>
				<path class="st4" d="M301.2,130.9l4.5,10.2c6.1-2.8,11.8-6.2,17.1-10.3c5.3,3.6,12.4,12.5,19,14.2c0,0-9.6-17.4-19.7-24.6
					c-2.1-1.7-3.9-3.6-5.5-5.8C316.8,114.5,304.7,130,301.2,130.9"/>
				<path class="st4" d="M291.1,125.2c0,0,1.1,13.3,1.3,15.9c0,0,3.5,3.4,11.7,0.6l-0.8-6.1l-1.6-6L291.1,125.2z"/>
				<path class="st1" d="M291.9,119.1c0,0-8.2-17.4-1.1-27.7c0,0,2.2-3.5,8.9-3.1c4.3,0.5,8,3.1,10.1,6.8c2,4.4,3.1,9.2,3.3,14.1
					L302,129.9L291.9,119.1z"/>
				<path class="st5" d="M307,133.8c-0.1,0.6-0.7,1-1.3,0.9c-0.6-0.1-1-0.7-0.9-1.3c0.1-0.6,0.6-1,1.1-1
					C306.5,132.5,307,133.1,307,133.8"/>
				<path class="st6" d="M292.6,99.5c0.1,2.2-1.6,4.1-3.8,4.2c-0.1,0-0.3,0-0.4,0c-1.9,0-3.6-2.1-3.6-4.3s1.6-4.3,3.6-4.4
					c2.4,0,4.3,1.9,4.3,4.2C292.6,99.3,292.6,99.4,292.6,99.5"/>
				<path class="st6" d="M288,103.7c-1.9,0-3.3-2.1-3.3-4.3s1.8-4.7,4.2-4.4"/>
				<path class="st7" d="M288,103.7c-1.9,0-3.3-2.1-3.3-4.3s1.8-4.7,4.2-4.4"/>
				<path class="st6" d="M306,97c0,2.1-0.8,4.5-3.9,4.5c-3.3,0-3.9-2.2-3.9-4.4c0-2.2,1.8-3.9,3.9-3.9c0,0,0.1,0,0.1,0
					C304.4,93.2,306,94.9,306,97C306,97,306,97,306,97"/>
				<path class="st3" d="M293,106.7c0,0,3.3,5.2,7-0.8c0.8,2.1,0.1,4.6-1.8,5.9C298.2,111.8,293.9,115.3,293,106.7"/>
				<path class="st5" d="M288.7,115.7l13.6,14.4l-14.6-6.2C287.8,123.8,288.2,117.3,288.7,115.7"/>
				<path class="st5" d="M314.2,106.6l4.5,6.1c0,0-13.1,17.4-17.5,18.2c0,0,7.8-16.2,11.9-21.7C313.1,109.1,313.6,108.1,314.2,106.6
					"/>
				<path class="st8" d="M299.2,117.8H299H299.2c0,0-3.5-0.4-4.4-0.2c0,0-0.5,0.2-0.3,0.6c0.1,1.4,0.7,2.8,1.5,3.9
					c0.7,1.3,1.1,0.9,1.1,0.9c0.8-0.4,2.6-3.1,2.6-3.1C299.2,119.7,299.2,117.8,299.2,117.8"/>
				<path class="st8" d="M306.2,120c-0.1-1.9-0.4-3.7-0.9-5.5c0-0.3-0.3-0.4-0.3-0.4c-1.4-0.5-4.1,3.2-4.1,3.2l0.6-0.2
					c1.1,2.2-0.5,2.5,0,2.5c0.9,0.2,1.9,0.5,2.8,0.9C306.1,121.2,306.2,120,306.2,120"/>
				<path class="st3" d="M288.1,101.5c0,0.3-0.3,0.6-0.6,0.6c-0.3,0-0.6-0.3-0.6-0.6l0,0c0-0.4,0.3-0.7,0.6-0.7
					C287.8,100.9,288.1,101.2,288.1,101.5"/>
				<path class="st3" d="M300.9,99.1c0,0.4-0.3,0.7-0.7,0.7s-0.7-0.3-0.7-0.7c0,0,0,0,0,0c0-0.4,0.3-0.7,0.7-0.7
					S300.9,98.7,300.9,99.1C300.9,99.1,300.9,99.1,300.9,99.1"/>
				<path class="st9" d="M298.7,117.9c0.1-0.9,0.9-1.5,1.8-1.4c0.1,0,0.2,0,0.3,0.1c0.9,0.3,1.4,1.2,1.2,2.1s-1.2,1.4-2.1,1.2
					c-0.1,0-0.2-0.1-0.4-0.2C298.9,119.4,298.5,118.6,298.7,117.9"/>
				<path class="st4" d="M135.6,174.6c0,0,30.7,23,35.9,28.6c1.4,1.5,7.2,5.9,5.1,9.3c-0.9,1.3-2.6,1.6-3.9,0.7c0,0,0,0,0,0
					l-4.1-3.8c0,0,7.8,6.4,2.9,8.9c-2.3,1.2-2.8,0.4-8.4-4.7c0,0,5.6,4.3,2.4,7.2c-2.7,2.4-5.7-3-9.9-8.2
					c-7.9-9.8-17.2-20.8-36-33.3L135.6,174.6z"/>
				<path class="st10" d="M-92.5,120c0,0,1.9-24.7,46.2-34.3c-3.3-2.3-6.9-4-10.8-4.8c0,0,16.9-3.8,41.3,0.4l-8.6-4.9
					c0,0,29.4,4.3,52.8,11.7L21,81.1c0,0,33.4,9.1,34.7,12.1s33.8,77.7,33.8,77.7l15.2,8.4c0,0,21.8,18.6,37.9,37.5
					c2.4,2.8,9.6,11.2,6.6,13.2c-4.5,2.9-6.9-2.9-6.9-2.9s3.9,5.1,1,6.9c-3.8,2.3-5.2-0.9-6.8-4.2c0,0,2.6,6.2-0.8,7.2
					c-2.1,0.6-3.7-1.2-6.6-7.7c-5.4-12.3-8.2-17.7-32.5-37.2c0,0-13.1-8.5-28.9-3.6c-34,10.5-57,18-129.5-11.3
					c0,0-20.9,18.7-45.1,25c0,0-26.1,4.9-43.7-5.1c-3.1-1.8-2.6-6.5,0.6-6.1c1,0.2,2,0.4,3,0.7c-1-0.5-1.9-1.1-2.7-1.9
					c-1.6-1.5-2.2-2.7-1.1-4s2.1-1.6,6.4,0c-1.1-0.7-2.1-1.5-2.9-2.4c-0.6-0.8-0.4-4,3.4-2.1c2.3,1.5,4.6,3.1,6.7,4.8
					c0,0,15.6,3.4,26.9-0.4c0,0,18-4.9,27.8-16.5C-82.7,169.2-102,153.1-92.5,120"/>
				<path class="st4" d="M173.3,84.8c0,0-30.9-40.9-59.6-47.3c0,0-6.2-1.5-3.1,2.3c0,0,14.3,23.2,13.7,25.9c0,0-15.6-6.7-27.4-4
					c0,0,5.9,2.8,6.5,4.2c0,0-13.4,1.3-18.2,3l5.9,2.8c0,0-7.4,3-10,5.3c0,0-14.5-15.5-41.9-18.2c0,0,14.6,21.8,15,29.1
					c0,0,2,12.3,1.1,17.3c0,0-13.7,10-17.5,18.2c0,0,11.1-4.6,16.2-3.6c0,0-13,11.6-15.7,19c0,0,10.6-4.2,17.4-4.2
					c0,0-5.7,6.7-7.1,14.1c4.1-2.9,6.6-4.6,9.3-4.8c0,0,5.2-1,6.4,2c0,0,17.6,27.7,35.4,31.9c0,0,29.7,10.1,66.2-15.7
					c0,0,19.6-18.1,13.1-46.3c0,0,11.4-0.9,13.8-0.4c0,0-7.3-6.7-14.1-10.1c0,0,10.1-2.2,17-2.2c0,0-5.8-5.8-17.4-8.9
					c0,0,11.8-5.4,15.3-5.9C193.6,88.2,183.1,82.6,173.3,84.8"/>
				<path class="st11" d="M132.9,65.3c0,0,6.9-1,10.9-0.5c0,0-9.8-10.7-15.8-12.2L132.9,65.3z"/>
				<path class="st11" d="M75.5,79.8c0,0-7.9,2.9-9,4c0,0-7.8-12.6-8.7-13.4C57.8,70.3,66.8,71.2,75.5,79.8"/>
				<path class="st3" d="M112.5,73.9c-8.2,1.2-13.3,2.2-23.5,9.5c0,0-3.5,3.6-1.4,3.8c2.5,0.3,4.5-1,9.1-4.2
					c5.4-3.6,14.4-5.5,23.4-6c0,0,5.2-0.3,3.6-1.9C122.6,74.1,118.1,73.1,112.5,73.9"/>
				<path class="st3" d="M109.7,87.7c0,0,12.3-3.8,12.7-0.7c0.2,1.6-7.4,2.8-10.5,4.2c-3.6,1.3-7.2,2.9-10.6,4.8c0,0-4.9,2.4-4-0.5
					C97.3,95.5,100.5,90.5,109.7,87.7"/>
				<path class="st6" d="M134.4,98c-0.7,7,5.4,11.8,11.4,11.5s10.8-5.4,10.4-12.5s-5.5-12.1-11.5-12.3C142.4,84.6,135,92,134.4,98"
					/>
				<path class="st6" d="M77.2,115.4c0.3,6.2,2.8,12.5,12.2,12.1c6.4-0.3,11.2-6.2,10.9-12.4c-0.4-6.5-5.8-11.5-12.2-11.3
					c-6.2,0.1-11,5.3-10.9,11.4C77.1,115.3,77.1,115.3,77.2,115.4"/>
				<line class="st12" x1="132.2" y1="97.6" x2="150.4" y2="74.8"/>
				<line class="st12" x1="101.2" y1="104.5" x2="69.9" y2="102.7"/>
				<path class="st11" d="M130.5,118.3c3.9-0.9,9.1-1.2,8.9,4.1c-0.1,2.8-0.2,8-2.8,10.8s-10.6-1.4-13.4-5.5
					C121.4,125.4,118.6,121.2,130.5,118.3"/>
				<path class="st11" d="M144.1,151c2.8,0.6,7.8,1.7,6.8,6.8c0,0-0.9,5.4-9.9,3.3c-3.6-0.9-10-2.3-14.3,4.1
					c-1.5,2.3-6.2,8-10.2,4.4c-2-1.9-4.1-5-0.4-11c1.8-2.3,4.1-4.1,6.7-5.4C127.6,150.8,133.5,148.6,144.1,151"/>
				<path class="st6" d="M123,162.9l1-10.1c0,0-4.5,1.9-6.6,4.6C117.1,157.7,123,162.9,123,162.9"/>
				<path class="st6" d="M145.6,151.4c-2.7-0.7-5.4-1.2-8.2-1.3c2.3,4.6,4.4,8.9,4.4,8.9L145.6,151.4z"/>
				<path class="st3" d="M169.8,115.9c0.1,1.4,1.2,2.5,2.6,2.4c1.4-0.1,2.5-1.2,2.4-2.6c0-1.3-1.1-2.3-2.4-2.3c-0.1,0-0.2,0-0.2,0
					c-1.3,0-2.4,1-2.5,2.3C169.7,115.8,169.7,115.9,169.8,115.9"/>
				<path class="st13" d="M161.3,120.1c0,1.2,1,2.2,2.2,2.2c0.1,0,0.1,0,0.2,0c1.2,0,2.2-0.9,2.2-2.1c0-0.1,0-0.2,0-0.3
					c-0.2-1.3-1.4-2.1-2.6-1.9C162.2,118.1,161.4,119,161.3,120.1"/>
				<path class="st13" d="M168.5,124.6c0,1.2,1,2.2,2.3,2.2c0,0,0,0,0.1,0c1.2-0.1,2.2-1.1,2.1-2.3c0-1.2-0.9-2.2-2.1-2.2
					C169.6,122.3,168.5,123.3,168.5,124.6"/>
				<path class="st3" d="M91.3,145.2c0.1,1.2,1.1,2.1,2.2,2.1c1.2-0.1,2.1-1.1,2.1-2.2c-0.1-1.2-1.1-2.1-2.2-2.1
					C92.1,143.1,91.2,144.1,91.3,145.2"/>
				<path class="st3" d="M82.1,139.8c0.1,1.2,1.1,2.2,2.3,2.1c1.2-0.1,2.2-1.1,2.1-2.3c-0.1-1.2-1.1-2.1-2.4-2.1c0,0,0,0-0.1,0
					c-1.1,0-2,1-2,2.1C82.2,139.7,82.2,139.7,82.1,139.8"/>
				<path class="st3" d="M82,147.6c0.1,1.3,1.2,2.3,2.5,2.2c1.3-0.1,2.3-1.2,2.2-2.5c-0.1-1.2-1.1-2.2-2.4-2.2
					C83,145.1,82,146.2,82,147.6"/>
				<path class="st4" d="M28.5,88c0,0-8.2-2.5-14.3-4c-9.5-2.2-14.3-3.2-14.3-3.2S-22.4,145.1,10,197.4c0,0,8.1,2,28-1.1
					C38,196.3,6.4,108.5,28.5,88"/>
				<path class="st12" d="M134.1,133.8c0.1,2.4,0.1,4.9-0.1,7.4c-0.2,3.4-1,6.8-2.2,10"/>
				<path class="st3" d="M90,115.3c0,1.2,1,2.2,2.2,2.4c1,0.1,1.9-0.7,2-1.8c0,0,0-0.1,0-0.1c-0.1-1.6-1.1-2.7-2.2-2.6
					C90.9,113.2,90,114.2,90,115.3"/>
				<path class="st3" d="M147.4,96.8c0,1.2,0.9,2.1,2.1,2.2c1,0.1,1.8-0.6,1.9-1.6c0,0,0-0.1,0-0.1c-0.1-1.5-1-2.5-2.1-2.5
					C148.3,94.8,147.4,95.7,147.4,96.8"/>
				<path class="st1" d="M410.7,169.2c0,0,2.6,5.4,3.2,5.9c2.5-1.2,4.7-2.8,6.7-4.8l-1.4-1.9L410.7,169.2z"/>
				<path class="st14" d="M447.4,188.9c2.7,0.6,5.5,1,8.3,0.9c-0.3,1.3-1,2.4-2.1,3.2c0,0-2.2,0.6-8.5-0.4
					C446.2,191.6,447.1,190.3,447.4,188.9"/>
				<path class="st1" d="M442.8,187.8c-0.6,1.8-3,3.9-3,3.9c1.7,0.6,3.4,0.9,5.1,1c2-0.7,2.9-4,2.9-4
					C445.6,188.3,442.8,187.7,442.8,187.8"/>
				<path class="st14" d="M438.4,185.8c1.7,0.7,3.5,1.3,5.3,1.7c0,0-2,3.8-3.8,4.4c0,0-2.1,0.3-5.3-1.9
					C434.6,190,437.8,187.2,438.4,185.8"/>
				<path class="st1" d="M429,187.6c1.7,1.1,3.6,2.1,5.6,2.7c1.7-1.3,3.2-2.8,4.3-4.6c-1.9-0.7-3.8-1.5-5.6-2.4
					C433.2,183.3,429.8,187.5,429,187.6"/>
				<path class="st14" d="M424.2,184.3c1.4,1.3,2.9,2.5,4.6,3.5c2-1,3.7-2.6,4.8-4.6c-1.7-0.9-3.4-1.9-5-3
					C428.6,180.1,425,184.1,424.2,184.3"/>
				<path class="st1" d="M423.9,175.3c1.6,1.6,3.4,3.2,5.2,4.6c0,0-2.2,3.4-4.9,4.4c0,0-4.5-3.6-5-4.1
					C420.9,178.8,422.6,177.2,423.9,175.3"/>
				<path class="st14" d="M420.3,170.5c1.1,1.6,2.4,3.1,3.7,4.5c0,0-2.6,4.4-5.4,5.4c0,0-3.9-4.9-4.4-5.5
					C416.4,173.7,418.4,172.2,420.3,170.5"/>
				<path class="st14" d="M403,49.1c0,0,0.4-16.4,13.1-14.6c0,0,4.8,0.3,6.4,4.3c1.1,2.9,0.7,6.1-1,8.7l-3.6,6
					C413.6,50.3,408.3,48.7,403,49.1"/>
				<path class="st1" d="M385.3,165.8c0,0,0.2,20.8-0.3,21.6c-0.8,1.4-4,0.7-5,3.1s2.4,3,3.4,2.1l1.3-1.1c0,0-1.2,3,2,3.6
					c1.2,0.1,2.2-0.8,2.3-2c0-0.3,0-0.6-0.1-0.8c0,0,1.4,2.9,3.4,2.1c0,0,3.1-1.3-0.2-5.5c-1.2-3.6-1.8-7.4-1.8-11.2l0.1-12
					L385.3,165.8z"/>
				<path class="st1" d="M405.6,166.1c0,0,0.4,19.2,0,20.2c-0.9,1-1.9,1.9-3,2.7c-0.9,0.7-2.3,3.4-0.9,4.4c0,0,1.7,0.9,2.9-2.2
					c0,0-0.9,3.4,1.9,3.4c0,0,2.3,0.3,2.9-2.9c0,0,0.6,2.6,2.5,2.2c0,0,2.9-1.1,1.7-3.9c-0.6-1.3-2.2-3.3-2-5.4l-0.6-18.6
					L405.6,166.1z"/>
				<path class="st6" d="M389.1,50.8c0,0-2.2-7.1-9.1-6c-3.2,0.5-8.1,2.9-7,10.6c0,0,10.3-0.9,15.3-4.4"/>
				<path class="st15" d="M389.1,50.8c0,0-2.2-7.1-9.1-6c-3.2,0.5-8.1,2.9-7,10.6c0,0,10.3-0.9,15.3-4.4"/>
				<path class="st1" d="M416.8,115.3c0,0-0.7-18.7,8.8-31.4c2.6-5,4-10.6,3.9-16.2c0,0,16.9-6,9.5-17.3c-2.5-3.8-10.8-7.9-17.6,4.6
					c0,0-14-13.9-37.2-3.5c-19,8.5-51.7,8.1-51.7,8.1h-0.6c0,0-10.4,10.6,1.7,16.6c23.9,12,47.2,17.6,52.2,20.8
					c3.4,2,4.7,6.2,3.2,9.9l-2.8,6c0,0,7-0.3,8,10.7C394.2,123.5,400.2,109.7,416.8,115.3"/>
				<path class="st1" d="M415.6,112.6c0,0,10,11.7,11.2,19.1l-1.3,3c-0.4,0.9-1.2,4.8,2,3.5c0.7-0.3,1.5-2.2,1.5-2.2s1.5,3.1,3,2.6
					s2.4-1.6,0.7-4.8c0,0,3.3,2.9,4.2,0.3c0.7-2.1-0.9-3.8-5.2-5.8c0,0-5.6-16-14.6-27.2C417.2,101.1,416.7,111.4,415.6,112.6"/>
				<path class="st16" d="M381.9,134.9c0,0,20.7,9.8,35.7,1.1l-0.4-20.7c0,0-16.6-6.5-23.1,8.2c0,0,0.3-10.8-8-10.7
					C386.2,112.8,381.6,127.3,381.9,134.9"/>
				<path class="st17" d="M381.5,134.8c0,0-14.1,18.5-21,33.2c0,0,46.3,7.5,74.2-1.1c-2.9-10.3-8.2-19.9-15.3-27.9
					c-0.8-1-1.3-2.2-1.2-3.5C418,135.5,403,143.4,381.5,134.8"/>
				<path class="st18" d="M333.3,76.1c0-5.2,0.1-11.4,0.1-16.6c-5,0.2-10,0.2-15-0.1c0,0-7.6-1-3.8,4.2S333.3,76.1,333.3,76.1"/>
				<path class="st6" d="M410.1,61.7c0,4.3-4.1,7.3-7.7,7.3s-6.5-3-6.5-7.3c0.1-4.4,3.8-7.9,8.2-7.8c0.1,0,0.2,0,0.2,0
					C408,54,410.1,57.4,410.1,61.7"/>
				<path class="st18" d="M425.3,57.1l1.7,4.2c0,0,9.5-0.3,7.4-6.7C434.4,54.6,431.9,50,425.3,57.1"/>
				<path class="st3" d="M378.7,50.6c0,0.6-0.4,1.1-1,1.2c-0.7,0.1-1.2-0.5-1.2-1.2c0-0.6,0.5-1.1,1.2-1.2
					C378.4,49.5,378.7,50,378.7,50.6"/>
				<path class="st3" d="M402.2,62.4c0.1,0.6-0.4,1.2-1,1.3c-0.7,0.1-1.3-0.5-1.4-1.2c0-0.1,0-0.1,0-0.2c0.1-0.7,0.7-1.3,1.4-1.3
					C401.8,61.2,402.2,61.8,402.2,62.4"/>
				<path class="st19" d="M383.6,148.1c0,0-3,4.5-4.5,7.6s-2.7,6.2-2.7,6.2"/>
				<path class="st19" d="M415.8,162.2c0,0-1.3-5.3-2.6-8.4s-2.8-6.2-2.8-6.2"/>
				<path class="st19" d="M398.6,162.2c-0.1-4.4-0.5-8.8-1.1-13.1"/>
				<path class="st20" d="M345.3,170.5c0,0-3.2,10.1-3.9,11c-1.3,0-2.7-0.4-3.7-1.2"/>
				<path class="st20" d="M362.9,177.4c0,0,0.8,10.4,0.2,11.4c-1.2,0.4-2.4,0.5-3.6,0.4"/>
				<path class="st20" d="M339.9,162.9c0,0-9.5,6.6-10.6,6.4s-2-3.2-2-3.2"/>
				<line class="st21" x1="322.7" y1="172.3" x2="335.9" y2="176.4"/>
				<path class="st18" d="M321.9,174.9c-0.3,0.9-1.2,2.2-2.8,1.8c-0.8-0.2-0.5-2.1,0.3-3.3c0.4-0.6,1.4-1.5,2.1-1.1
					S322.1,174.2,321.9,174.9"/>
				<path class="st18" d="M321.4,170.1c0,0-2.5-3.6-4.5-2.3c0,0-1.9,1.6,1.1,3.1c0.9,0.4,1.8,0.5,2.7,0.4
					C321,170.9,321.2,170.5,321.4,170.1"/>
				<path class="st18" d="M321,171.2c-1.3-0.3-2.7-0.3-4-0.1c0,0-2.4,0.7-1,2.5c0.6,0.8,2.4,0.6,4.1-0.7c0.4-0.3,0.8-0.5,1.3-0.7
					L321,171.2z"/>
				<path class="st18" d="M321.1,170.2c0,0-3-4.7,0.1-4.5c1,0.1,2.5,0.6,1.4,4l-0.5,0.8C321.9,170.2,321.5,170.1,321.1,170.2"/>
				<path class="st18" d="M322.8,171.9c-0.3,0.6-0.9,0.9-1.5,0.8c0,0,1,4.8,3.1,3.5C326.7,174.8,323.4,171.9,322.8,171.9"/>
				<path class="st18" d="M322.4,170.1c0,0,0.5-2.8,2.5-2.8c0.8,0,2.8,1.5,0.6,2.8c-0.6,0.4-1.4,0.5-2.6,1
					C322.8,171.1,322.5,170.1,322.4,170.1"/>
				<path class="st18" d="M323,170.9c0,0,3-1.1,3.6,0.2c0.2,0.5-0.3,2.1-2.4,1.6c-0.6,0-1.1-0.2-1.5-0.7
					C322.7,172,323.1,171.1,323,170.9"/>
				<path class="st6" d="M323,171.3c0,0.9-0.7,1.6-1.5,1.6c-0.1,0-0.1,0-0.2,0c-0.8-0.1-1.4-0.7-1.4-1.5c0-0.9,0.7-1.7,1.6-1.7
					c0.1,0,0.1,0,0.2,0C322.4,169.7,323,170.5,323,171.3C323,171.3,323,171.3,323,171.3"/>
				<path class="st22" d="M344.5,132.1c0,0,17.4-17.5,42.6-12.3c0,0,3.6,0.9,1.2,3.5s-4.6,5.3-0.1,12c2,1,2.9,3.4,2.1,5.6
					c-1.4,3.8-6.5,2.8-6.3,6.4s1.3,3.9-1.9,7.3c0,0-1.6,0.9-4.5-0.9s-21.3-14-21.7-14.4L344.5,132.1z"/>
				<path class="st18" d="M353.9,138l1-1.4c0.8,0.6,1.3,1.4,1.6,2.3l-0.4,0.6C356.1,139.5,354.1,138.1,353.9,138"/>
				<path class="st6" d="M351.6,136.8l1.5-2.2c0.9,0.3,1.6,1,1.9,1.9l-1.1,1.5C353.9,138,352.1,136.7,351.6,136.8"/>
				<path class="st18" d="M349.2,135.3l1.7-2.6c0.9,0.3,1.8,0.9,2.4,1.7l-1.6,2.3C351,136.2,350.1,135.7,349.2,135.3"/>
				<path class="st6" d="M346.2,134.1l2-2.9c1.1,0.2,2.1,0.7,2.9,1.4l-1.9,2.8C349.2,135.4,346.8,134,346.2,134.1"/>
				<path class="st18" d="M343.1,133c0,0,1.6-2.7,3.4-2.5c0.6,0.1,1.2,0.3,1.8,0.6l-2,3C345.3,133.6,344.2,133.3,343.1,133"/>
				<path class="st6" d="M332,140.7c0,1.9-0.7,4.2-3.6,4.2c-3.1,0-3.6-2-3.6-4c0-2,1.6-3.6,3.6-3.6c0,0,0.1,0,0.1,0
					C330.5,137.3,332,138.8,332,140.7C332,140.7,332,140.7,332,140.7"/>
				<path class="st3" d="M328.6,141.7c0,0.3-0.2,0.6-0.5,0.6s-0.6-0.2-0.6-0.5c0,0,0-0.1,0-0.2c0-0.3,0.2-0.6,0.5-0.6
					s0.6,0.2,0.6,0.5C328.6,141.6,328.6,141.7,328.6,141.7"/>
				<line class="st21" x1="329.3" y1="168.6" x2="334.5" y2="177.4"/>
				<path class="st23" d="M349.2,178.2c6.2,4.6,17.6,4.2,22.2-0.3c7.7-7.6-0.2-20.8-0.2-20.8s-4,7.8-8.3,12.1
					C357.6,174.5,349.2,178.1,349.2,178.2"/>
				<path class="st24" d="M348.2,178.6c0,0,8.2-2.2,16.1-10.4c4.2-4.5,7.1-11.8,7.1-11.8c-0.7-2-1.6-3.8-2.8-5.5
					c-3-4-4.6-5.9-4.6-5.9s-0.8,10.5-6.9,16.2c-4.6,4.3-9.9,8-15.6,10.8c1.1,1.4,2.3,2.8,3.6,4.1
					C346.3,177.1,348.2,178.6,348.2,178.6"/>
				<path class="st24" d="M335.7,164c0,0,17.6-7.7,21.4-23.9c0,0-12.3-9.5-20.1-7.2c0,0-10.9,1.3-7.6,17.4
					C329.4,150.3,331.9,158.9,335.7,164"/>
				<path class="st23" d="M341.1,172.5c0,0,5.6-1.6,15.6-10.6c7.5-6.7,7.9-16.9,7.9-16.9c-1.2-1.1-2.5-2-3.8-2.9
					c-3.6-2.5-3.6-2-3.6-2c-1.4,5.5-4.3,10.5-8.4,14.5c-3.9,3.9-8.5,7.1-13.5,9.5c0,0,0.8,1.6,2.8,4.6
					C339,170,340,171.3,341.1,172.5"/>
				<path class="st9" d="M325.1,168.3c0,0-1.9,1.7-1.2,2.6c0.5,0.6,1.1,1.4,3.1-0.2c0.6-0.4,0.8-1.2,0.7-1.9c-0.3-0.3-0.6-0.6-0.8-1
					C326.4,168.2,325.8,168.4,325.1,168.3"/>
				<path class="st9" d="M328.6,163.2c0.2,1.2,0.1,3.4-0.8,3.4s-2.3-1.2-2.5-3.1c-0.1-0.9,0.6-2.1,1.4-2.1
					C327.8,161.4,328.6,162.2,328.6,163.2C328.6,163.2,328.6,163.2,328.6,163.2"/>
				<path class="st9" d="M327.2,166.1c0,0-3.1-2.1-4.3-0.6c-0.5,0.6-1,2.6,1.6,2.9c0.8,0.1,1.7,0,2.4-0.5
					C326.9,167.3,327,166.7,327.2,166.1"/>
				<path class="st9" d="M328.3,166.1c0,0-0.1-4.3,3-3.7c0.8,0.1,1.6,1.2,0.6,2.8c-0.6,0.9-1.5,1.5-2.6,1.7
					C329.3,166.9,328.8,166.4,328.3,166.1"/>
				<path class="st9" d="M329.3,166.8c1.2-0.7,2.7-0.5,3.7,0.4c0.6,0.5,0.8,2.7-2.2,2.4c-0.9-0.1-1.7-0.7-2-1.6
					C328.8,168.1,329.5,167.1,329.3,166.8"/>
				<path class="st9" d="M329.1,168.2c0,0,2.5,3.4,0.5,4.4c-1,0.4-3.1-0.3-2.1-3.8c0,0,1.1,0,1.4-0.4"/>
				<path class="st18" d="M328.1,165.8c-0.9,0.1-1.7,0.9-1.6,1.8c0,0.9,0.8,1.6,1.7,1.6c0,0,0,0,0,0c0.8,0,1.5-0.6,1.6-1.4
					c0,0,0-0.1,0-0.1C329.7,166.6,329,165.8,328.1,165.8"/>
				<path class="st6" d="M344.9,140.2c0.1,2-1.4,3.8-3.4,3.9c-0.2,0-0.3,0-0.5,0c-1.8,0-3.4-1.9-3.4-4s1.5-4,3.3-4.1
					c2.2,0,4,1.8,4,4C344.9,140.1,344.9,140.2,344.9,140.2"/>
				<path class="st3" d="M342.8,140.3c0,0.4-0.4,0.6-0.7,0.6c-0.3,0-0.5-0.3-0.6-0.6c0-0.4,0.2-0.7,0.6-0.7c0.4,0,0.7,0.2,0.7,0.6
					C342.8,140.2,342.8,140.3,342.8,140.3"/>
				<path class="st25" d="M361,129.5c4.3-2.4,12.7-3.4,17.9-2.5"/>
				<path class="st25" d="M361.8,135.4c5.1,0.1,10.1,1.4,14.6,3.7"/>
				<path class="st20" d="M369.2,176.4c0,0,2.6,11.8,2,12.7c-1.2,0.6-2.5,0.8-3.8,0.7"/>
				<path class="st20" d="M349.4,175.2c0,0-1.3,11.1-2.1,12s-4.3-0.1-4.3-0.1"/>
				<path class="st20" d="M340.1,166.7c0,0-7.9,8.4-9,8.5s-2.7-2.7-2.7-2.7"/>
				<path class="st20" d="M339.4,150.1c0,0-1-2.3-2.8-2.9c-1.5-0.4-3.1,0.1-4.1,1.3"/>
				<path class="st4" d="M394.6,83.2c-2.4,0.1-4,2.3-2.6,4.9c1.2,2.4,3.5,3.9,6.2,4c2.4,0,3.9-1.6,3.5-4.5S397.7,83,394.6,83.2"/>
			</g>
		</g>
		<path class="st26" d="M258.2,209.4c0,0-20.5,25.6-52.3,11.3c-10.8-4.9-19.6,0.2-24.6,3.8c-7.4,5.3-18.3,3.3-27.6-1.1"/>
		<path class="st27" d="M260.6,128c0,0,6.7-16.2-6-20.2c-13.5-4.2-19.6,16-12.5,21L260.6,128z"/>
		<path class="st6" d="M240.1,121.2c-2.4-0.3-7.7,1.1-6.1,8.3l11.7-2C245.7,127.4,245.1,121.8,240.1,121.2"/>
		<path class="st6" d="M239.1,121.1c-2.2,0.2-5.4,1.3-5.4,5.9"/>
		<path class="st28" d="M239.1,121.1c-2.2,0.2-5.4,1.3-5.4,5.9"/>
		<path class="st27" d="M294.5,206.2c0,0,2.7,3.9,4,6.1c0,0,4.3-7.1,10.5-7.2c0,0,3,0.2,2,2.1c-0.3,0.7-0.8,0.9-2.9,0.2
			c1.3,0.3,2.2,1.4,2.2,2.7c0,0-0.5,2.6-3.2-0.4c0,0,1.6,1.4,0.9,2.9c0,0-1,1.2-3.2-1.6c0,0-3.2,4.8-4.7,6.7
			c-0.5,0.6-2.9,1.8-4.2-0.1l-4.4-5.8L294.5,206.2z"/>
		<path class="st29" d="M244.9,167c0,0-4.7-3.1-16.8-9.1c-14.3-7-28.4-14.3-28.4-14.3l1.2-12.1c5.5-0.3,11-0.9,16.4-1.7
			c17.2-3.1,42.6-7.7,50.4,1.2c0.7-2.8,13.7-19.7,27.8-5.2c4.9,5.3,5.3,13.3,1,19.1c0,0-7.8,9-16.7,5c0,0-3.3,7.1-3.7,8.7
			c0,0-1.1,4.8,0.4,8.5l2,17.2c0,0-26.5-17.4-34.4-16.6"/>
		<path class="st29" d="M291.5,194c0,0,13,15.3-8.7,24.2l-10.6,4.4c0.1,1.2,0.2,2.5,0.1,3.8c0,0,9.2,6.2,10.2,6.3
			c0,0,3.3,1.4,2.7,3.6c0,0-1.2,1.6-4.3-0.6c0,0,2.1,2.5-0.4,2.6c0,0-1,0-1.9-1.5c0,0,0.1,2.4-1.7,2c0,0-2.1-0.1-1.4-3.8
			c0,0-7.5-4.3-8.7-6.8c-0.6-1.2-1.2-6.5-1.2-6.5c-3.5-3.1-6.4-6.7-8.8-10.8l10.5-3.8L291.5,194z"/>
		<path class="st27" d="M278.5,169.2c0,0,6.8,5.9,9.7,8.1c0,0,8.3-8.1,12.7-5.5c0.6,0.4,2.1,1.3,0.9,2.4c-0.5,0.5-1.5,0.2-2.8-0.4
			c0,0,2.4,1.7,1.8,2.8c-0.4,0.7-1,1-3-0.5c0,0,1.3,1.5,0.6,2.5c-0.5,0.7-1.9,0.2-3-2c0,0-4.5,4.5-5.6,5.5s-2.1,1.9-5.2,0l-8.3-13.6
			L278.5,169.2z"/>
		<path class="st30" d="M281.3,174.6c0,0,10.3,14,13.2,19.4l-6.2,3c0,0-9.5-11.9-9.7-13.7S281.3,174.6,281.3,174.6"/>
		<path class="st30" d="M246.1,174.8c0,0,23.8,10,32.3,8.5l9.7,13.7c0,0-11.3,6.6-19.5,10.3c-3.9,2.3-7.4,5.3-10.1,9
			c0,0-5,6.7-10.8,8.7c0,0,8.5-12.5,8.4-16.8c0,0-6.4,6.6-13.9,8.8c0,0,14.6-10.5,10.4-21.5C252.9,195.5,246.4,176.5,246.1,174.8"/>
		<path class="st4" d="M246.8,154c-2.4,0.1-2.9,3.1-1.5,5.7c1.2,2.4,3.5,3.9,6.2,4c2.4,0,3.9-1.6,3.5-4.5S249.9,153.8,246.8,154"/>
		<path class="st6" d="M252.7,130.9c-3.1,0.4-5.4,3.4-5.4,6.9s2.5,6.1,5.6,6.1s6.2-1.5,6.8-4.9C260.8,132.7,256.3,130.4,252.7,130.9
			"/>
		<path class="st18" d="M201.7,131.4l-1,13.2c0,0-8.1-4.1-10.4-5.7c-1.2-0.8-5.7-5.5-0.6-6.3C192.9,132.1,201.7,131.4,201.7,131.4"
			/>
		<path class="st18" d="M275.1,140.1c0,2.8,2.2,3.4,5.6,3.4s8.5-1.8,8.5-6.1c0-2.8-2.7-5.6-6.1-5.6S275.1,137.4,275.1,140.1"/>
		<path class="st3" d="M251.6,134c-0.3,0.5-0.1,1.1,0.4,1.4c0.1,0,0.1,0.1,0.2,0.1c0.6,0.3,1.2,0,1.5-0.5c0.3-0.6,0-1.2-0.5-1.5
			C252.6,133.1,251.9,133.4,251.6,134C251.6,134,251.6,134,251.6,134"/>
		<path class="st3" d="M236.9,123.5c-0.3,0.5-0.1,1.2,0.4,1.4c0.5,0.2,1.1,0,1.3-0.4c0.3-0.5,0.2-1.2-0.3-1.5
			C237.8,122.7,237.2,122.9,236.9,123.5C236.9,123.4,236.9,123.5,236.9,123.5"/>
		<path class="st31" d="M281.8,171.8c-1.7-2.2-3.7-4.2-5.8-6.1l2.5,17.8C280.1,179.8,281.2,175.8,281.8,171.8"/>
		<path class="st31" d="M243.9,166.9c0,0,0.4,6.4,0.9,7.8c0,0,25.6,10,33.7,8.8C278.5,183.5,255.3,167,243.9,166.9"/>
		<path class="st29" d="M254,181.5c-0.3-1.9-4.3-3.6-4.9,0.4c-0.7,4.6-0.2,9.4,1.4,13.7c1,2.6,4.7,6.2,11.8,3.9c0,0-0.1,2.7,1.8,2.4
			c0.5-0.1,1.1-0.4,0.5-1.9c0,0,1.7,1.9,2.8,1.1c0,0,1.4-0.5-1.1-3.3c0,0,2.4,2.2,3.4,0.6c0,0,1.4-2-3.2-3.5
			c-1.8-0.6-4.1,0.5-8.2,0.9c-1.6,0.2-3.7-0.2-4-5C254.4,190.9,254.2,183.3,254,181.5"/>
		<path class="st6" d="M286.7,186c-0.8-0.1-1.4,0.5-1.5,1.3c0,0.1,0,0.2,0,0.3c0.1,0.9,0.8,1.6,1.7,1.6c0.7,0.1,1.3-0.5,1.4-1.2
			c0-0.1,0-0.2,0-0.3C288.4,186.8,287.7,186,286.7,186C286.8,186,286.7,186,286.7,186"/>
		<path class="st32" d="M279.6,183.7l3.6,5.1c1.5,2.2,2.9,4.6,4.1,7"/>
		<path class="st33" d="M276,162.5c2.9,2.4,4.9,5.8,5.6,9.6c-2.6,0.4-5.2,0.4-7.8,0l-1.7-2.9C272.1,169.3,273.9,164.3,276,162.5"/>
		<path class="st33" d="M269.3,170.8c0,0-5.6,0.1-8,1.3c1.2,4.1,6.4,8.1,6.4,8.1s3.9-5,4.3-6.8C272,173.5,269.7,172.6,269.3,170.8"
			/>
		<path class="st34" d="M269.9,172.5c0.9,0.8,2.3,0.7,3.1-0.3s0.7-2.3-0.3-3.1c-0.8-0.7-2-0.7-2.8,0
			C269,170.1,269,171.6,269.9,172.5"/>
		<path class="st6" d="M353,199c0,19.2,9.8,26.9,38.1,26.9c23.8,0,38.2-2.8,38.1-26.9c-0.1-21.2-10.4-27.4-48.3-26.2
			c-0.8-2.7-2.2-5.2-4.1-7.2c-4.6-4.7-11.5-5.9-11.5-5.9c2.1,2.1,4.1,4.2,6,6.5c1.6,2,2.8,4.3,3.5,6.9
			C361.9,173.2,353,179.7,353,199"/>
		<path class="st35" d="M353,199c0,19.2,9.8,26.9,38.1,26.9c23.8,0,38.2-2.8,38.1-26.9c-0.1-21.2-10.4-27.4-48.3-26.2
			c-0.8-2.7-2.2-5.2-4.1-7.2c-4.6-4.7-11.5-5.9-11.5-5.9c2.1,2.1,4.1,4.2,6,6.5c1.6,2,2.8,4.3,3.5,6.9
			C361.8,173.2,353,179.7,353,199z"/>
	</g>
</g>
</svg>
