<?xml version="1.0" encoding="utf-8"?>
<!-- Generator: Adobe Illustrator 26.2.1, SVG Export Plug-In . SVG Version: 6.00 Build 0)  -->
<svg version="1.1" id="Capa_1" xmlns="http://www.w3.org/2000/svg" xmlns:xlink="http://www.w3.org/1999/xlink" x="0px" y="0px"
	 viewBox="0 0 610 259.5" style="enable-background:new 0 0 610 259.5;" xml:space="preserve">
<style type="text/css">
	.st0{fill:#E0D6B9;}
	.st1{fill:#CDBF9F;}
	.st2{fill:none;stroke:#211915;stroke-width:0.78;stroke-linecap:round;}
	.st3{fill:#211915;}
	.st4{fill:#111419;}
	.st5{fill:#504F41;}
	.st6{fill:#FFFFFF;}
	.st7{fill:none;stroke:#D7D7CE;stroke-width:0.36;stroke-linecap:round;}
	.st8{fill:#9C141B;}
	.st9{fill:#BF0811;}
	.st10{fill:#444242;}
	.st11{fill:#5B5B5F;}
	.st12{fill:none;stroke:#5B5B5F;stroke-width:1.9259;stroke-linecap:round;stroke-miterlimit:10;}
	.st13{fill:#727176;}
	.st14{fill:#B8A98D;}
	.st15{fill:none;stroke:#D7D7CE;stroke-width:0.4;}
	.st16{fill:#775C7D;}
	.st17{fill:#A886B1;}
	.st18{fill:#DEA8C3;}
	.st19{fill:none;stroke:#FBFAFB;stroke-width:0.53;stroke-linecap:round;}
	.st20{fill:none;stroke:#211915;stroke-width:0.7;stroke-linecap:round;}
	.st21{fill:none;stroke:#85B266;stroke-width:0.48;stroke-linecap:round;stroke-miterlimit:10;}
	.st22{fill:#F0DAE9;}
	.st23{fill:#6F4714;}
	.st24{fill:#945B19;}
	.st25{fill:none;stroke:#DEA8C3;stroke-width:0.35;stroke-linecap:round;}
	.st26{fill:none;stroke:#D7D7CE;stroke-width:1.37;stroke-linecap:round;stroke-miterlimit:10;}
	.st27{fill:#C1BFB3;}
	.st28{fill:none;stroke:#D7D7CE;stroke-width:0.4;stroke-linecap:round;}
	.st29{fill:#D7D7CE;}
	.st30{fill:#538A58;}
	.st31{fill:#6EAA6F;}
	.st32{fill:none;stroke:#6EAA6F;stroke-width:0.64;stroke-linecap:round;}
	.st33{fill:#3F7473;}
	.st34{fill:#61A0A2;}
</style>
<g>
	<path class="st0" d="M415.7,23.9c1-0.6,2.3-0.7,3.4-0.3c0.3-4.6,2.3-8.9,5.6-12.1c0,0-0.8-0.5-1.9,0.3
		C422.8,11.8,417,15.2,415.7,23.9"/>
	<path class="st0" d="M424.9,24.6l2.5,1.7c2.3-4.4,5.4-8.3,9.1-11.7c0,0-0.5-0.6-1.9,0.2C434.6,14.8,429.4,17.3,424.9,24.6"/>
	<path class="st1" d="M435.9,113.1c7.2,4.6,19.2,2.7,22.4,0.3c4.2-3.1,2.6-19.1,2.6-19.1c-3.2,3.9-6.6,7.5-10.4,10.9
		C445.6,109.4,435.9,113.1,435.9,113.1"/>
	<path class="st0" d="M435.6,113.2c0,0,5-0.5,15.3-7.8c4.2-3,7.7-6.9,10.4-11.3c0.1-2.4-0.1-4.8-0.6-7.1c-0.3-1.9-0.9-3.8-1.6-5.6
		c0,0-5.5,9.9-13.5,14.8c-6.7,4-13.7,7.3-21,10c1.5,1.5,3.1,2.9,4.8,4.1C431.4,111.5,433.4,112.5,435.6,113.2"/>
	<path class="st1" d="M424.1,106.6c8.1-2.6,15.7-6.3,22.7-11c9.8-6.5,13.1-13.4,13.1-13.4c-0.5-1.9-1.3-3.7-2.1-5.5
		c-2.4-4-2.3-2.5-2.3-2.5s-8.1,8.6-16.5,14.1c-9.7,6.4-21.9,7.8-21.9,7.8c1,2.3,2.3,4.5,3.7,6.5C421.9,104,423,105.3,424.1,106.6"/>
	<path class="st0" d="M416.9,96.3c8.9-0.9,17.5-4.2,24.8-9.4c4.9-3.9,9.6-8.1,13.8-12.7l-7.3-6.1c-4.2,5-9.3,9.2-15,12.4
		c-11,6.2-17.3,5.1-17.3,5.1s0.1,3.3,0.3,5.3S416.9,96.3,416.9,96.3"/>
	<path class="st2" d="M419.6,92.1c0,0-3.5,11.2-4.4,12.2c-1.5,0-2.9-0.4-4.1-1.3"/>
	<path class="st2" d="M441.4,54.4c0,0,11.8-0.2,12.9-0.7c0.5-1.4,0.4-2.9-0.1-4.3"/>
	<path class="st2" d="M436.1,112c0,0,0.8,11.5,0.2,12.6c-1.2,0.6-4,0.4-4,0.4"/>
	<path class="st2" d="M451.1,110.9c0,0,2.9,13,2.2,14.1c-1.3,0.7-2.8,0.9-4.3,0.8"/>
	<path class="st2" d="M436.6,86.6c0,0-1.5,12.3-2.3,13.3s-4.7-0.1-4.7-0.1"/>
	<polygon class="st3" points="434.1,44.5 435.4,41.2 433.9,41.4 	"/>
	<polygon class="st3" points="409.8,50.3 412.2,50.4 413.2,54 	"/>
	<path class="st1" d="M415.6,85.7c0,0,6.1,1.2,18.6-5.5c8.2-4.4,14-12.2,14-12.2l-6.8-7.3c0,0-4.4-0.2-14,5.2
		c-10.5,5.9-12.5,5.9-12.5,5.9L415.6,85.7z"/>
	<path class="st4" d="M422.4,65.5l4.5,10.2c6.1-2.8,11.8-6.2,17.1-10.3c5.3,3.6,12.4,12.5,19,14.2c0,0-9.6-17.4-19.7-24.6
		c-2.1-1.7-3.9-3.6-5.5-5.8C437.9,49.1,425.8,64.6,422.4,65.5"/>
	<path class="st4" d="M412.2,59.8c0,0,1.1,13.3,1.3,15.9c0,0,3.5,3.4,11.7,0.6l-0.8-6.1l-1.6-6L412.2,59.8z"/>
	<path class="st1" d="M413,53.7c0,0-8.2-17.4-1.1-27.7c0,0,2.2-3.5,8.9-3.1c4.3,0.5,8,3.1,10.1,6.8c2,4.4,3.1,9.2,3.3,14.1
		l-11.1,20.7L413,53.7z"/>
	<path class="st5" d="M428.1,68.4c-0.1,0.6-0.7,1-1.3,0.9c-0.6-0.1-1-0.7-0.9-1.3s0.6-1,1.1-1C427.6,67.1,428.1,67.7,428.1,68.4"/>
	<path class="st6" d="M413.7,34.1c0.1,2.2-1.6,4.1-3.8,4.2c-0.1,0-0.3,0-0.4,0c-1.9,0-3.6-2.1-3.6-4.3s1.6-4.3,3.6-4.4
		c2.4,0,4.3,1.9,4.3,4.2C413.7,33.9,413.7,34,413.7,34.1"/>
	<path class="st6" d="M409.1,38.3c-1.9,0-3.3-2.1-3.3-4.3s1.8-4.7,4.2-4.4"/>
	<path class="st7" d="M409.1,38.3c-1.9,0-3.3-2.1-3.3-4.3s1.8-4.7,4.2-4.4"/>
	<path class="st6" d="M427.1,31.6c0,2.1-0.8,4.5-3.9,4.5c-3.3,0-3.9-2.2-3.9-4.4s1.8-3.9,3.9-3.9h0.1
		C425.5,27.8,427.1,29.5,427.1,31.6L427.1,31.6"/>
	<path class="st3" d="M421.5,46.3c0,0-3.3-5.2-7,0.8c-0.8-2.1-0.1-4.6,1.8-5.9C416.3,41.2,420.6,37.7,421.5,46.3"/>
	<path class="st5" d="M409.8,50.3l13.6,14.4l-14.6-6.2C408.9,58.4,409.4,51.9,409.8,50.3"/>
	<path class="st5" d="M435.4,41.2l4.5,6.1c0,0-13.1,17.4-17.5,18.2c0,0,7.8-16.2,11.9-21.7C434.2,43.7,434.7,42.7,435.4,41.2"/>
	<path class="st8" d="M420.4,52.4h-0.2H420.4c0,0-3.5-0.4-4.4-0.2c0,0-0.5,0.2-0.3,0.6c0.1,1.4,0.7,2.8,1.5,3.9
		c0.7,1.3,1.1,0.9,1.1,0.9c0.8-0.4,2.6-3.1,2.6-3.1C420.4,54.3,420.4,52.4,420.4,52.4"/>
	<path class="st8" d="M427.4,54.6c-0.1-1.9-0.4-3.7-0.9-5.5c0-0.3-0.3-0.4-0.3-0.4c-1.4-0.5-4.1,3.2-4.1,3.2l0.6-0.2
		c1.1,2.2-0.5,2.5,0,2.5c0.9,0.2,1.9,0.5,2.8,0.9C427.2,55.8,427.4,54.6,427.4,54.6"/>
	<path class="st3" d="M409.2,36.1c0,0.3-0.3,0.6-0.6,0.6c-0.3,0-0.6-0.3-0.6-0.6l0,0c0-0.4,0.3-0.7,0.6-0.7
		C408.9,35.5,409.2,35.8,409.2,36.1"/>
	<path class="st3" d="M422,33.7c0,0.4-0.3,0.7-0.7,0.7s-0.7-0.3-0.7-0.7l0,0c0-0.4,0.3-0.7,0.7-0.7S422,33.3,422,33.7L422,33.7"/>
	<path class="st9" d="M419.8,52.5c0.1-0.9,0.9-1.5,1.8-1.4c0.1,0,0.2,0,0.3,0.1c0.9,0.3,1.4,1.2,1.2,2.1c-0.2,0.9-1.2,1.4-2.1,1.2
		c-0.1,0-0.2-0.1-0.4-0.2C420,54,419.6,53.2,419.8,52.5"/>
</g>
<g>
	<path class="st10" d="M278.3,170.6c-15.1-17.7-35.4-35.1-35.4-35.1l-14.2-7.9c0,0-30.4-69.8-31.6-72.6
		c-1.2-2.8-32.4-11.3-32.4-11.3l7,6.5c-21.9-6.9-49.4-10.9-49.4-10.9l8,4.6c-22.8-3.9-38.6-0.4-38.6-0.4c3.6,0.7,7,2.3,10.1,4.5
		c-0.6,0.1-1.3,0.3-1.9,0.4c3.3,0.9,5.9,1.7,5.9,1.7c-16.5,15.3-0.9,71,6,92.6c49.1,16.4,69,10,96.6,1.5c14.8-4.6,27,3.4,27,3.4
		c22.7,18.2,25.3,23.3,30.4,34.8c2.7,6.1,4.2,7.8,6.2,7.2c3.2-0.9,0.7-6.7,0.7-6.7c1.5,3.1,2.8,6.1,6.4,3.9c1.6-1,1-3.1,0.2-4.7
		c-0.7-0.9-1.1-1.8-1.1-1.8s0.6,0.8,1.1,1.8c1.1,1.3,2.9,2.5,5.3,0.9C287.2,181,280.5,173.2,278.3,170.6z"/>
	<path class="st4" d="M106.1,132.8c0,0-27.5,23.1-33.7,26.6c-1.7,0.9-6.9,5.3-9.5,2.7c-0.9-1-0.9-2.7,0.2-3.6l0,0l4.3-2.9
		c0,0-7.5,5.8-8.7,0.7c-0.6-2.3,0.2-2.7,6.1-6.6c0,0-5.1,4.2-7.1,0.7c-1.7-3,3.9-4.6,9.6-7.3c10.7-5.1,22.5-11.3,38-25.7
		L106.1,132.8z"/>
	<path class="st4" d="M271.8,131c0,0,28.7,21.5,33.6,26.7c1.3,1.4,6.7,5.5,4.8,8.7c-0.8,1.2-2.4,1.5-3.6,0.7l0,0l-3.8-3.6
		c0,0,7.3,6,2.7,8.3c-2.2,1.1-2.6,0.4-7.9-4.4c0,0,5.2,4,2.2,6.7c-2.5,2.2-5.3-2.8-9.3-7.7c-7.4-9.2-16.1-19.4-33.7-31.1L271.8,131z
		"/>
	<path class="st4" d="M307.1,47.1c0,0-28.9-38.2-55.7-44.2c0,0-5.8-1.4-2.9,2.2c0,0,13.4,21.7,12.8,24.2c0,0-14.5-6.3-25.6-3.7
		c0,0,5.5,2.6,6.1,3.9c0,0-12.5,1.2-17,2.8l5.5,2.6c0,0-6.9,2.8-9.3,5c0,0-13.6-14.5-39.2-17c0,0,13.6,20.4,14,27.2
		c0,0,1.9,11.5,1,16.2c0,0-12.8,9.3-16.4,17c0,0,10.4-4.3,15.1-3.4c0,0-12.2,10.8-14.7,17.8c0,0,9.9-3.9,16.3-3.9
		c0,0-5.3,6.3-6.6,13.2c3.8-2.7,6.2-4.3,8.7-4.5c0,0,4.9-0.9,6,1.9c0,0,16.5,25.9,33.1,29.8c0,0,27.8,9.4,61.9-14.7
		c0,0,18.3-16.9,12.2-43.3c0,0,10.8-0.8,12.9-0.4c0,0-6.8-6.3-13.2-9.4c0,0,9.4-2.1,15.9-2.1c0,0-5.4-5.4-16.4-8.3
		c0,0,11-5,14.3-5.5C326,50.3,316.2,45,307.1,47.1"/>
	<path class="st11" d="M269.3,28.8c0,0,6.5-0.9,10.2-0.5c0,0-9.2-10-14.8-11.4L269.3,28.8z"/>
	<path class="st11" d="M215.6,42.4c0,0-7.4,2.7-8.4,3.7c0,0-7.3-11.8-8.1-12.5C199.1,33.5,207.5,34.4,215.6,42.4"/>
	<path class="st3" d="M250.2,36.9c-7.7,1.1-12.4,2.1-22,8.9c0,0-3.3,3.4-1.3,3.6c2.3,0.3,4.2-0.9,8.5-3.9c5-3.4,13.5-5.1,21.9-5.6
		c0,0,4.9-0.3,3.4-1.8C259.7,37.1,255.5,36.1,250.2,36.9"/>
	<path class="st3" d="M247.6,49.8c0,0,11.5-3.6,11.9-0.7c0.2,1.5-6.9,2.6-9.8,3.9c-3.4,1.2-6.7,2.7-9.9,4.5c0,0-4.6,2.2-3.7-0.5
		C236,57.1,239,52.4,247.6,49.8"/>
	<path class="st6" d="M270.7,59.4c-0.7,6.5,5,11,10.7,10.8c5.6-0.3,10.1-5,9.8-11.7S286,47.2,280.4,47
		C278.2,46.9,271.3,53.8,270.7,59.4"/>
	<path class="st6" d="M217.1,75.7c0.3,5.8,2.6,11.7,11.4,11.3c6-0.3,10.5-5.8,10.2-11.6c-0.4-6.1-5.4-10.8-11.4-10.6
		c-5.8,0.1-10.3,5-10.2,10.7C217.1,75.6,217.1,75.6,217.1,75.7"/>
	<line class="st12" x1="268.6" y1="59" x2="285.7" y2="37.7"/>
	<line class="st12" x1="239.7" y1="65.5" x2="210.4" y2="63.8"/>
	<path class="st11" d="M267.1,78.4c3.6-0.8,8.5-1.1,8.3,3.8c-0.1,2.6-0.2,7.5-2.6,10.1s-9.9-1.3-12.5-5.1
		C258.5,85,255.9,81.1,267.1,78.4"/>
	<path class="st11" d="M279.8,109c2.6,0.6,7.3,1.6,6.4,6.4c0,0-0.8,5-9.3,3.1c-3.4-0.8-9.3-2.2-13.4,3.8c-1.4,2.2-5.8,7.5-9.4,4.1
		c-1.9-1.8-3.8-4.7-0.4-10.3c1.7-2.2,3.8-3.8,6.3-5C264.3,108.8,269.9,106.7,279.8,109"/>
	<path class="st6" d="M260,120.1l0.9-9.4c0,0-4.2,1.8-6.2,4.3C254.5,115.2,260,120.1,260,120.1"/>
	<path class="st6" d="M281.2,109.3c-2.5-0.7-5-1.1-7.7-1.2c2.2,4.3,4.1,8.3,4.1,8.3L281.2,109.3z"/>
	<path class="st3" d="M303.7,76.1c0.1,1.3,1.1,2.3,2.4,2.2c1.3-0.1,2.3-1.1,2.2-2.4c0-1.2-1-2.2-2.2-2.2c-0.1,0-0.2,0-0.2,0
		c-1.2,0-2.2,0.9-2.3,2.2C303.7,76.1,303.7,76.1,303.7,76.1"/>
	<path class="st13" d="M295.8,80.1c0,1.1,0.9,2.1,2.1,2.1c0.1,0,0.1,0,0.2,0c1.1,0,2.1-0.8,2.1-2c0-0.1,0-0.2,0-0.3
		c-0.2-1.2-1.3-2-2.4-1.8C296.7,78.2,295.8,79,295.8,80.1"/>
	<path class="st13" d="M302.6,84.3c0,1.1,0.9,2.1,2.2,2.1c0,0,0,0,0.1,0c1.1-0.1,2.1-1,2-2.2c0-1.1-0.8-2.1-2-2.1
		C303.6,82.1,302.6,83.1,302.6,84.3"/>
	<path class="st3" d="M230.4,103.5c0.1,1.1,1,2,2.1,2c1.1-0.1,2-1,2-2.1c-0.1-1.1-1-2-2.1-2C231.2,101.6,230.3,102.5,230.4,103.5"/>
	<path class="st3" d="M221.8,98.5c0.1,1.1,1,2.1,2.2,2c1.1-0.1,2.1-1,2-2.2c-0.1-1.1-1-2-2.2-2c0,0,0,0-0.1,0c-1,0-1.9,0.9-1.9,2
		C221.9,98.4,221.9,98.4,221.8,98.5"/>
	<path class="st3" d="M221.7,105.8c0.1,1.2,1.1,2.2,2.3,2.1s2.2-1.1,2.1-2.3c-0.1-1.1-1-2.1-2.2-2.1
		C222.6,103.4,221.7,104.5,221.7,105.8"/>
	<path class="st4" d="M171.7,50.1c0,0-7.7-2.3-13.4-3.7c-8.9-2.1-13.4-3-13.4-3s-20.8,60.1,9.4,109c0,0,7.6,1.9,26.2-1
		C180.6,151.3,151,69.2,171.7,50.1"/>
	<path class="st10" d="M75.2,58.1C59.5,68.2,58.6,80,58.6,80c-8.9,30.9,9.2,46,9.3,46.1c-9.2,10.8-26,15.4-26,15.4
		c-10.6,3.6-25.1,0.4-25.1,0.4c-2-1.6-4.1-3.1-6.3-4.5c-3.6-1.8-3.7,1.2-3.2,2C8,140.2,9,141,10,141.6c-4-1.5-5-1.2-6,0
		s-0.5,2.3,1,3.7c0.7,0.7,1.6,1.3,2.5,1.8c-0.9-0.3-1.9-0.5-2.8-0.7c-3-0.4-3.5,4-0.6,5.7c16.5,9.3,40.9,4.8,40.9,4.8
		c15-3.9,28.7-12.9,36.2-18.6C68.4,108.1,71.6,76.2,75.2,58.1z"/>
	<path class="st10" d="M279.1,182c-0.5-1-1.1-1.8-1.1-1.8S278.4,181.1,279.1,182z"/>
	<path class="st4" d="M105.7,50.1c0,0-2.6-0.8-5.9-1.7c-10.8,2.5-18.8,6-24.7,9.8c-3.6,18.1-6.8,50,6,80.2c3.8-2.8,6-4.8,6-4.8
		c8.9,3.6,17.1,6.6,24.5,9.1C104.8,121.1,89.2,65.4,105.7,50.1z"/>
	<path class="st12" d="M270.4,92.9c0.1,2.2,0.1,4.6-0.1,6.9c-0.2,3.2-0.9,6.4-2.1,9.3"/>
	<path class="st3" d="M229.2,75.6c0,1.1,0.9,2.1,2.1,2.2c0.9,0.1,1.8-0.7,1.9-1.7V76c-0.1-1.5-1-2.5-2.1-2.4
		C229.9,73.6,229.2,74.6,229.2,75.6"/>
	<path class="st3" d="M282.9,58.3c0,1.1,0.8,2,2,2.1c0.9,0.1,1.7-0.6,1.8-1.5v-0.1c-0.1-1.4-0.9-2.3-2-2.3
		C283.7,56.4,282.9,57.3,282.9,58.3"/>
</g>
<g>
	<path class="st1" d="M563,136.7c0,0,2.6,5.4,3.2,5.9c2.5-1.2,4.7-2.8,6.7-4.8l-1.4-1.9L563,136.7z"/>
	<path class="st14" d="M599.7,156.4c2.7,0.6,5.5,1,8.3,0.9c-0.3,1.3-1,2.4-2.1,3.2c0,0-2.2,0.6-8.5-0.4
		C598.5,159.1,599.4,157.8,599.7,156.4"/>
	<path class="st1" d="M595.1,155.3c-0.6,1.8-3,3.9-3,3.9c1.7,0.6,3.4,0.9,5.1,1c2-0.7,2.9-4,2.9-4
		C597.9,155.8,595.1,155.2,595.1,155.3"/>
	<path class="st14" d="M590.7,153.3c1.7,0.7,3.5,1.3,5.3,1.7c0,0-2,3.8-3.8,4.4c0,0-2.1,0.3-5.3-1.9
		C586.9,157.5,590.1,154.7,590.7,153.3"/>
	<path class="st1" d="M581.3,155.1c1.7,1.1,3.6,2.1,5.6,2.7c1.7-1.3,3.2-2.8,4.3-4.6c-1.9-0.7-3.8-1.5-5.6-2.4
		C585.5,150.8,582.1,155,581.3,155.1"/>
	<path class="st14" d="M576.5,151.8c1.4,1.3,2.9,2.5,4.6,3.5c2-1,3.7-2.6,4.8-4.6c-1.7-0.9-3.4-1.9-5-3
		C580.9,147.6,577.3,151.6,576.5,151.8"/>
	<path class="st1" d="M576.2,142.8c1.6,1.6,3.4,3.2,5.2,4.6c0,0-2.2,3.4-4.9,4.4c0,0-4.5-3.6-5-4.1
		C573.2,146.3,574.8,144.7,576.2,142.8"/>
	<path class="st14" d="M572.6,138c1.1,1.6,2.4,3.1,3.7,4.5c0,0-2.6,4.4-5.4,5.4c0,0-3.9-4.9-4.4-5.5
		C568.7,141.2,570.7,139.7,572.6,138"/>
	<path class="st14" d="M555.3,16.6c0,0,0.4-16.4,13.1-14.6c0,0,4.8,0.3,6.4,4.3c1.1,2.9,0.7,6.1-1,8.7l-3.6,6
		C565.9,17.8,560.6,16.2,555.3,16.6"/>
	<path class="st1" d="M537.6,133.3c0,0,0.2,20.8-0.3,21.6c-0.8,1.4-4,0.7-5,3.1s2.4,3,3.4,2.1l1.3-1.1c0,0-1.2,3,2,3.6
		c1.2,0.1,2.2-0.8,2.3-2c0-0.3,0-0.6-0.1-0.8c0,0,1.4,2.9,3.4,2.1c0,0,3.1-1.3-0.2-5.5c-1.2-3.6-1.8-7.4-1.8-11.2l0.1-12
		L537.6,133.3z"/>
	<path class="st1" d="M557.9,133.6c0,0,0.4,19.2,0,20.2c-0.9,1-1.9,1.9-3,2.7c-0.9,0.7-2.3,3.4-0.9,4.4c0,0,1.7,0.9,2.9-2.2
		c0,0-0.9,3.4,1.9,3.4c0,0,2.3,0.3,2.9-2.9c0,0,0.6,2.6,2.5,2.2c0,0,2.9-1.1,1.7-3.9c-0.6-1.3-2.2-3.3-2-5.4l-0.6-18.6L557.9,133.6z
		"/>
	<path class="st6" d="M541.4,18.3c0,0-2.2-7.1-9.1-6c-3.2,0.5-8.1,2.9-7,10.6c0,0,10.3-0.9,15.3-4.4"/>
	<path class="st15" d="M541.4,18.3c0,0-2.2-7.1-9.1-6c-3.2,0.5-8.1,2.9-7,10.6c0,0,10.3-0.9,15.3-4.4"/>
	<path class="st1" d="M569.1,82.8c0,0-0.7-18.7,8.8-31.4c2.6-5,4-10.6,3.9-16.2c0,0,16.9-6,9.5-17.3c-2.5-3.8-10.8-7.9-17.6,4.6
		c0,0-14-13.9-37.2-3.5c-19,8.5-51.7,8.1-51.7,8.1h-0.6c0,0-10.4,10.6,1.7,16.6c23.9,12,47.3,17.6,52.2,20.8c3.4,2,4.7,6.2,3.2,9.9
		l-2.8,6c0,0,7-0.3,8,10.7C546.5,91,552.5,77.2,569.1,82.8"/>
	<path class="st1" d="M567.9,80.1c0,0,10,11.7,11.2,19.1l-1.3,3c-0.4,0.9-1.2,4.8,2,3.5c0.7-0.3,1.5-2.2,1.5-2.2s1.5,3.1,3,2.6
		s2.4-1.6,0.7-4.8c0,0,3.3,2.9,4.2,0.3c0.7-2.1-0.9-3.8-5.2-5.8c0,0-5.6-16-14.6-27.2C569.5,68.6,569,78.9,567.9,80.1"/>
	<path class="st16" d="M534.2,102.4c0,0,20.7,9.8,35.7,1.1l-0.4-20.7c0,0-16.6-6.5-23.1,8.2c0,0,0.3-10.8-8-10.7
		C538.4,80.3,533.9,94.8,534.2,102.4"/>
	<path class="st17" d="M533.7,102.3c0,0-14.1,18.5-21,33.2c0,0,46.3,7.5,74.2-1.1c-2.9-10.3-8.2-19.9-15.3-27.9
		c-0.8-1-1.3-2.2-1.2-3.5C570.3,103,555.3,110.9,533.7,102.3"/>
	<path class="st18" d="M485.6,43.6c0-5.2,0.1-11.4,0.1-16.6c-5,0.2-10,0.2-15-0.1c0,0-7.6-1-3.8,4.2S485.6,43.6,485.6,43.6"/>
	<path class="st6" d="M562.4,29.2c0,4.3-4.2,7.3-7.7,7.3s-6.5-3-6.5-7.3c0.1-4.4,3.8-7.9,8.2-7.8c0.1,0,0.2,0,0.2,0
		C560.3,21.5,562.4,24.9,562.4,29.2"/>
	<path class="st18" d="M577.6,24.6l1.7,4.2c0,0,9.5-0.3,7.4-6.7C586.7,22.1,584.2,17.5,577.6,24.6"/>
	<path class="st3" d="M531,18.1c0,0.6-0.4,1.1-1,1.2c-0.7,0.1-1.2-0.5-1.2-1.2c0-0.6,0.5-1.1,1.2-1.2C530.7,17,531,17.5,531,18.1"/>
	<path class="st3" d="M554.5,29.9c0.1,0.6-0.4,1.2-1,1.3c-0.7,0.1-1.3-0.5-1.4-1.2c0-0.1,0-0.1,0-0.2c0.1-0.7,0.7-1.3,1.4-1.3
		C554.1,28.7,554.5,29.3,554.5,29.9"/>
	<path class="st19" d="M535.9,115.6c0,0-3,4.5-4.5,7.6c-1.5,3-2.7,6.2-2.7,6.2"/>
	<path class="st19" d="M568.1,129.7c0,0-1.3-5.3-2.6-8.4c-1.2-3.1-2.8-6.2-2.8-6.2"/>
	<path class="st19" d="M550.9,129.7c-0.1-4.4-0.5-8.8-1.1-13.1"/>
	<path class="st4" d="M546.9,50.7c-2.4,0.1-4,2.3-2.6,4.9c1.2,2.4,3.5,3.9,6.2,4c2.4,0,3.9-1.6,3.5-4.5S550,50.5,546.9,50.7"/>
</g>
<g>
	<path class="st20" d="M497.3,224.5c0,0-3.2,10.1-3.9,11c-1.3,0-2.7-0.4-3.7-1.2"/>
	<path class="st20" d="M514.9,231.4c0,0,0.8,10.4,0.2,11.4c-1.2,0.4-2.4,0.5-3.6,0.4"/>
	<path class="st20" d="M491.9,216.9c0,0-9.5,6.6-10.6,6.4s-2-3.2-2-3.2"/>
	<line class="st21" x1="474.7" y1="226.3" x2="487.9" y2="230.4"/>
	<path class="st18" d="M473.9,228.9c-0.3,0.9-1.2,2.2-2.8,1.8c-0.8-0.2-0.5-2.1,0.3-3.3c0.4-0.6,1.4-1.5,2.1-1.1
		S474.1,228.2,473.9,228.9"/>
	<path class="st18" d="M473.4,224.1c0,0-2.5-3.6-4.5-2.3c0,0-1.9,1.6,1.1,3.1c0.9,0.4,1.8,0.5,2.7,0.4
		C473,224.9,473.2,224.5,473.4,224.1"/>
	<path class="st18" d="M473,225.2c-1.3-0.3-2.7-0.3-4-0.1c0,0-2.4,0.7-1,2.5c0.6,0.8,2.4,0.6,4.1-0.7c0.4-0.3,0.8-0.5,1.3-0.7
		L473,225.2z"/>
	<path class="st18" d="M473.1,224.2c0,0-3-4.7,0.1-4.5c1,0.1,2.5,0.6,1.4,4l-0.5,0.8C473.9,224.2,473.5,224.1,473.1,224.2"/>
	<path class="st18" d="M474.8,225.9c-0.3,0.6-0.9,0.9-1.5,0.8c0,0,1,4.8,3.1,3.5C478.7,228.8,475.4,225.9,474.8,225.9"/>
	<path class="st18" d="M474.3,224.1c0,0,0.5-2.8,2.5-2.8c0.8,0,2.8,1.5,0.6,2.8c-0.6,0.4-1.4,0.5-2.6,1
		C474.8,225.1,474.5,224.1,474.3,224.1"/>
	<path class="st18" d="M475,224.9c0,0,3-1.1,3.6,0.2c0.2,0.5-0.3,2.1-2.4,1.6c-0.6,0-1.1-0.2-1.5-0.7
		C474.7,226,475.1,225.1,475,224.9"/>
	<path class="st6" d="M475,225.3c0,0.9-0.7,1.6-1.5,1.6c-0.1,0-0.1,0-0.2,0c-0.8-0.1-1.4-0.7-1.4-1.5c0-0.9,0.7-1.7,1.6-1.7
		c0.1,0,0.1,0,0.2,0C474.4,223.7,475,224.5,475,225.3L475,225.3"/>
	<path class="st22" d="M496.5,186.1c0,0,17.4-17.5,42.6-12.3c0,0,3.6,0.9,1.2,3.5c-2.4,2.6-4.6,5.3-0.1,12c2,1,2.9,3.4,2.1,5.6
		c-1.4,3.8-6.5,2.8-6.3,6.4c0.2,3.6,1.3,3.9-1.8,7.3c0,0-1.6,0.9-4.5-0.9c-2.8-1.7-21.3-14-21.7-14.4L496.5,186.1z"/>
	<path class="st18" d="M505.9,192l1-1.4c0.8,0.6,1.3,1.4,1.6,2.3l-0.4,0.6C508.1,193.5,506.1,192.1,505.9,192"/>
	<path class="st6" d="M503.6,190.8l1.5-2.2c0.9,0.3,1.6,1,1.9,1.9l-1.1,1.5C505.9,192,504.1,190.7,503.6,190.8"/>
	<path class="st18" d="M501.2,189.3l1.7-2.6c0.9,0.3,1.8,0.9,2.4,1.7l-1.6,2.3C502.9,190.2,502.1,189.7,501.2,189.3"/>
	<path class="st6" d="M498.2,188.1l2-2.9c1.1,0.2,2.1,0.7,2.9,1.4l-1.9,2.8C501.2,189.4,498.8,188,498.2,188.1"/>
	<path class="st18" d="M495.1,187c0,0,1.6-2.7,3.4-2.5c0.6,0.1,1.2,0.3,1.8,0.6l-2,3C497.3,187.6,496.2,187.3,495.1,187"/>
	<path class="st6" d="M484,194.7c0,1.9-0.7,4.2-3.6,4.2c-3.1,0-3.6-2-3.6-4s1.6-3.6,3.6-3.6h0.1C482.5,191.3,484,192.8,484,194.7
		L484,194.7"/>
	<path class="st3" d="M480.6,195.7c0,0.3-0.2,0.6-0.5,0.6s-0.6-0.2-0.6-0.5c0,0,0-0.1,0-0.2c0-0.3,0.2-0.6,0.5-0.6s0.6,0.2,0.6,0.5
		C480.6,195.6,480.6,195.7,480.6,195.7"/>
	<line class="st21" x1="481.3" y1="222.6" x2="486.5" y2="231.4"/>
	<path class="st23" d="M501.2,232.2c6.2,4.6,17.6,4.2,22.2-0.3c7.7-7.6-0.2-20.8-0.2-20.8s-4,7.8-8.3,12.1
		C509.6,228.5,501.2,232.1,501.2,232.2"/>
	<path class="st24" d="M500.2,232.6c0,0,8.2-2.2,16.1-10.4c4.2-4.5,7.1-11.8,7.1-11.8c-0.7-2-1.6-3.8-2.8-5.5c-3-4-4.6-5.9-4.6-5.9
		s-0.8,10.5-6.9,16.2c-4.6,4.3-9.9,8-15.6,10.8c1.1,1.4,2.3,2.8,3.6,4.1C498.3,231.1,500.2,232.6,500.2,232.6"/>
	<path class="st24" d="M487.7,218c0,0,17.6-7.7,21.4-23.9c0,0-12.3-9.5-20.1-7.2c0,0-10.9,1.3-7.6,17.4
		C481.4,204.3,483.9,212.9,487.7,218"/>
	<path class="st23" d="M493.1,226.5c0,0,5.6-1.6,15.6-10.6c7.5-6.7,7.9-16.9,7.9-16.9c-1.2-1.1-2.5-2-3.8-2.9c-3.6-2.5-3.6-2-3.6-2
		c-1.4,5.5-4.3,10.5-8.4,14.5c-3.9,3.9-8.5,7.1-13.5,9.5c0,0,0.8,1.6,2.8,4.6C491,224,492,225.3,493.1,226.5"/>
	<path class="st9" d="M477.1,222.3c0,0-1.9,1.7-1.2,2.6c0.5,0.6,1.1,1.4,3.1-0.2c0.6-0.4,0.8-1.2,0.7-1.9c-0.3-0.3-0.6-0.6-0.8-1
		C478.4,222.2,477.8,222.4,477.1,222.3"/>
	<path class="st9" d="M480.6,217.2c0.2,1.2,0.1,3.4-0.8,3.4s-2.3-1.2-2.5-3.1c-0.1-0.9,0.6-2.1,1.4-2.1
		C479.7,215.4,480.6,216.2,480.6,217.2L480.6,217.2"/>
	<path class="st9" d="M479.2,220.1c0,0-3.1-2.1-4.3-0.6c-0.5,0.6-1,2.6,1.6,2.9c0.8,0.1,1.7,0,2.4-0.5
		C478.9,221.3,479,220.7,479.2,220.1"/>
	<path class="st9" d="M480.3,220.1c0,0-0.1-4.3,3-3.7c0.8,0.1,1.6,1.2,0.6,2.8c-0.6,0.9-1.5,1.5-2.6,1.7
		C481.3,220.9,480.7,220.4,480.3,220.1"/>
	<path class="st9" d="M481.3,220.8c1.2-0.7,2.7-0.5,3.7,0.4c0.6,0.5,0.8,2.7-2.2,2.4c-0.9-0.1-1.7-0.7-2-1.6
		C480.8,222.1,481.5,221.1,481.3,220.8"/>
	<path class="st9" d="M481.1,222.2c0,0,2.5,3.4,0.5,4.4c-1,0.4-3.1-0.3-2.1-3.8c0,0,1.1,0,1.4-0.4"/>
	<path class="st18" d="M480.1,219.8c-0.9,0.1-1.7,0.9-1.6,1.8c0,0.9,0.8,1.6,1.7,1.6l0,0c0.8,0,1.5-0.6,1.6-1.4v-0.1
		C481.7,220.6,481,219.8,480.1,219.8"/>
	<path class="st6" d="M496.9,194.2c0.1,2-1.4,3.8-3.4,3.9c-0.2,0-0.3,0-0.5,0c-1.8,0-3.4-1.9-3.4-4c0-2.1,1.5-4,3.3-4.1
		c2.2,0,4,1.8,4,4C496.9,194.1,496.9,194.2,496.9,194.2"/>
	<path class="st3" d="M494.8,194.3c0,0.4-0.4,0.6-0.7,0.6c-0.3,0-0.5-0.3-0.6-0.6c0-0.4,0.2-0.7,0.6-0.7S494.8,193.8,494.8,194.3
		C494.8,194.2,494.8,194.3,494.8,194.3"/>
	<path class="st25" d="M513,183.5c4.3-2.4,12.7-3.4,17.9-2.5"/>
	<path class="st25" d="M513.8,189.4c5.1,0.1,10.1,1.4,14.6,3.7"/>
	<path class="st20" d="M521.2,230.4c0,0,2.6,11.8,2,12.7c-1.2,0.6-2.5,0.8-3.8,0.7"/>
	<path class="st20" d="M501.3,229.2c0,0-1.3,11.1-2.1,12s-4.3-0.1-4.3-0.1"/>
	<path class="st20" d="M492.1,220.7c0,0-7.9,8.4-9,8.5s-2.7-2.7-2.7-2.7"/>
	<path class="st4" d="M483.6,204c0,0,4.2-1.7,7.4-0.8c0,0-0.3-4.4-4.6-3.9C486.5,199.3,483.8,200.2,483.6,204"/>
</g>
<g>
	<path class="st26" d="M384,218.5c0,0-20.5,25.6-52.3,11.3c-10.8-4.9-19.6,0.2-24.6,3.8c-7.4,5.3-18.3,3.3-27.6-1.1"/>
	<path class="st27" d="M386.4,137.1c0,0,6.7-16.2-6-20.2c-13.5-4.2-19.6,16-12.5,21L386.4,137.1z"/>
	<path class="st6" d="M365.8,130.3c-2.4-0.3-7.7,1.1-6.1,8.3l11.7-2C371.5,136.5,370.9,130.9,365.8,130.3"/>
	<path class="st6" d="M364.8,130.2c-2.2,0.2-5.4,1.3-5.4,5.9"/>
	<path class="st28" d="M364.8,130.2c-2.2,0.2-5.4,1.3-5.4,5.9"/>
	<path class="st27" d="M420.3,215.3c0,0,2.7,3.9,4,6.1c0,0,4.3-7.1,10.5-7.2c0,0,3,0.2,2,2.1c-0.3,0.7-0.8,0.9-2.9,0.2
		c1.3,0.3,2.2,1.4,2.2,2.7c0,0-0.5,2.6-3.2-0.4c0,0,1.6,1.4,0.9,2.9c0,0-1,1.2-3.2-1.6c0,0-3.2,4.8-4.7,6.7
		c-0.5,0.6-2.9,1.8-4.2-0.1l-4.4-5.8L420.3,215.3z"/>
	<path class="st29" d="M370.7,176.1c0,0-4.7-3.1-16.8-9.1c-14.3-7-28.4-14.3-28.4-14.3l1.2-12.1c5.5-0.3,11-0.9,16.4-1.7
		c17.2-3.1,42.6-7.7,50.4,1.2c0.7-2.8,13.7-19.7,27.8-5.2c4.9,5.3,5.3,13.3,1,19.1c0,0-7.8,9-16.7,5c0,0-3.3,7.1-3.7,8.7
		c0,0-1.1,4.8,0.4,8.5l2,17.2c0,0-26.5-17.4-34.4-16.6"/>
	<path class="st29" d="M417.3,203.1c0,0,13,15.3-8.7,24.2l-10.6,4.4c0.1,1.2,0.2,2.5,0.1,3.8c0,0,9.2,6.2,10.2,6.3
		c0,0,3.3,1.4,2.7,3.6c0,0-1.2,1.6-4.3-0.6c0,0,2.1,2.5-0.4,2.6c0,0-1,0-1.9-1.5c0,0,0.1,2.4-1.7,2c0,0-2.1-0.1-1.4-3.8
		c0,0-7.5-4.3-8.7-6.8c-0.6-1.2-1.2-6.5-1.2-6.5c-3.5-3.1-6.4-6.7-8.8-10.8l10.5-3.8L417.3,203.1z"/>
	<path class="st27" d="M404.3,178.3c0,0,6.8,5.9,9.7,8.1c0,0,8.3-8.1,12.7-5.5c0.6,0.4,2.1,1.3,0.9,2.4c-0.5,0.5-1.5,0.2-2.8-0.4
		c0,0,2.4,1.7,1.8,2.8c-0.4,0.7-1,1-3-0.5c0,0,1.3,1.5,0.6,2.5c-0.5,0.7-1.9,0.2-3-2c0,0-4.5,4.5-5.6,5.5s-2.1,1.9-5.2,0l-8.3-13.6
		L404.3,178.3z"/>
	<path class="st30" d="M407.1,183.7c0,0,10.3,14,13.2,19.4l-6.2,3c0,0-9.5-11.9-9.7-13.7S407.1,183.7,407.1,183.7"/>
	<path class="st30" d="M371.9,183.9c0,0,23.8,10,32.3,8.5l9.7,13.7c0,0-11.3,6.6-19.5,10.3c-3.9,2.3-7.4,5.3-10.1,9
		c0,0-5,6.7-10.8,8.7c0,0,8.5-12.5,8.4-16.8c0,0-6.4,6.6-13.9,8.8c0,0,14.6-10.5,10.4-21.5C378.7,204.6,372.2,185.6,371.9,183.9"/>
	<path class="st4" d="M372.6,163.1c-2.4,0.1-2.9,3.1-1.5,5.7c1.2,2.4,3.5,3.9,6.2,4c2.4,0,3.9-1.6,3.5-4.5
		C380.3,165.3,375.7,162.9,372.6,163.1"/>
	<path class="st6" d="M378.5,140c-3.1,0.4-5.4,3.4-5.4,6.9s2.5,6.1,5.6,6.1s6.2-1.5,6.8-4.9C386.6,141.8,382.1,139.5,378.5,140"/>
	<path class="st18" d="M327.5,140.5l-1,13.2c0,0-8.1-4.1-10.4-5.7c-1.2-0.8-5.7-5.5-0.6-6.3C318.7,141.2,327.5,140.5,327.5,140.5"/>
	<path class="st18" d="M400.9,149.2c0,2.8,2.2,3.4,5.6,3.4s8.5-1.8,8.5-6.1c0-2.8-2.7-5.6-6.1-5.6S400.9,146.5,400.9,149.2"/>
	<path class="st3" d="M377.4,143.1c-0.3,0.5-0.1,1.1,0.4,1.4c0.1,0,0.1,0.1,0.2,0.1c0.6,0.3,1.2,0,1.5-0.5s0-1.2-0.5-1.5
		C378.3,142.2,377.7,142.5,377.4,143.1L377.4,143.1"/>
	<path class="st3" d="M362.7,132.6c-0.3,0.5-0.1,1.2,0.4,1.4s1.1,0,1.3-0.4c0.3-0.5,0.2-1.2-0.3-1.5S363,132,362.7,132.6
		C362.7,132.5,362.7,132.6,362.7,132.6"/>
	<path class="st31" d="M407.6,180.9c-1.7-2.2-3.7-4.2-5.8-6.1l2.5,17.8C405.9,188.9,407,184.9,407.6,180.9"/>
	<path class="st31" d="M369.7,176c0,0,0.4,6.4,0.9,7.8c0,0,25.6,10,33.7,8.8C404.3,192.6,381.1,176.1,369.7,176"/>
	<path class="st29" d="M379.8,190.6c-0.3-1.9-4.3-3.6-4.9,0.4c-0.7,4.6-0.2,9.4,1.4,13.7c1,2.6,4.7,6.2,11.8,3.9
		c0,0-0.1,2.7,1.8,2.4c0.5-0.1,1.1-0.4,0.5-1.9c0,0,1.7,1.9,2.8,1.1c0,0,1.4-0.5-1.1-3.3c0,0,2.4,2.2,3.4,0.6c0,0,1.4-2-3.2-3.5
		c-1.8-0.6-4.1,0.5-8.2,0.9c-1.6,0.2-3.7-0.2-4-5C380.2,200,380,192.4,379.8,190.6"/>
	<path class="st6" d="M412.5,195.1c-0.8-0.1-1.4,0.5-1.5,1.3c0,0.1,0,0.2,0,0.3c0.1,0.9,0.8,1.6,1.7,1.6c0.7,0.1,1.3-0.5,1.4-1.2
		c0-0.1,0-0.2,0-0.3C414.2,195.9,413.5,195.1,412.5,195.1C412.6,195.1,412.5,195.1,412.5,195.1"/>
	<path class="st32" d="M405.4,192.8l3.6,5.1c1.5,2.2,2.9,4.6,4.1,7"/>
	<path class="st33" d="M401.8,171.6c2.9,2.4,4.9,5.8,5.6,9.6c-2.6,0.4-5.2,0.4-7.8,0l-1.7-2.9C397.9,178.4,399.7,173.4,401.8,171.6"
		/>
	<path class="st33" d="M395.1,179.9c0,0-5.6,0.1-8,1.3c1.2,4.1,6.4,8.1,6.4,8.1s3.9-5,4.3-6.8C397.8,182.6,395.5,181.7,395.1,179.9"
		/>
	<path class="st34" d="M395.7,181.6c0.9,0.8,2.3,0.7,3.1-0.3s0.7-2.3-0.3-3.1c-0.8-0.7-2-0.7-2.8,0
		C394.8,179.2,394.8,180.7,395.7,181.6"/>
</g>
</svg>
