<?xml version="1.0" encoding="utf-8"?>
<!-- Generator: Adobe Illustrator 26.2.1, SVG Export Plug-In . SVG Version: 6.00 Build 0)  -->
<svg version="1.1" id="Capa_1" xmlns="http://www.w3.org/2000/svg" xmlns:xlink="http://www.w3.org/1999/xlink" x="0px" y="0px"
	 viewBox="0 0 610 259.5" style="enable-background:new 0 0 610 259.5;" xml:space="preserve">
<style type="text/css">
	.st0{fill:#E0D6B9;}
	.st1{fill:#CDBF9F;}
	.st2{fill:none;stroke:#211915;stroke-width:0.78;stroke-linecap:round;}
	.st3{fill:#211915;}
	.st4{fill:#111419;}
	.st5{fill:#504F41;}
	.st6{fill:#FFFFFF;}
	.st7{fill:none;stroke:#D7D7CE;stroke-width:0.36;stroke-linecap:round;}
	.st8{fill:#9C141B;}
	.st9{fill:#BF0811;}
	.st10{fill:#444242;}
	.st11{fill:#5B5B5F;}
	.st12{fill:none;stroke:#5B5B5F;stroke-width:1.9259;stroke-linecap:round;stroke-miterlimit:10;}
	.st13{fill:#727176;}
	.st14{fill:#B8A98D;}
	.st15{fill:none;stroke:#D7D7CE;stroke-width:0.4;}
	.st16{fill:#775C7D;}
	.st17{fill:#A886B1;}
	.st18{fill:#DEA8C3;}
	.st19{fill:none;stroke:#FBFAFB;stroke-width:0.53;stroke-linecap:round;}
	.st20{fill:none;stroke:#211915;stroke-width:0.7;stroke-linecap:round;}
	.st21{fill:none;stroke:#85B266;stroke-width:0.48;stroke-linecap:round;stroke-miterlimit:10;}
	.st22{fill:#F0DAE9;}
	.st23{fill:#6F4714;}
	.st24{fill:#945B19;}
	.st25{fill:none;stroke:#DEA8C3;stroke-width:0.35;stroke-linecap:round;}
	.st26{fill:none;stroke:#D7D7CE;stroke-width:1.37;stroke-linecap:round;stroke-miterlimit:10;}
	.st27{fill:#C1BFB3;}
	.st28{fill:none;stroke:#D7D7CE;stroke-width:0.4;stroke-linecap:round;}
	.st29{fill:#D7D7CE;}
	.st30{fill:#538A58;}
	.st31{fill:#6EAA6F;}
	.st32{fill:none;stroke:#6EAA6F;stroke-width:0.64;stroke-linecap:round;}
	.st33{fill:#3F7473;}
	.st34{fill:#61A0A2;}
	.st35{fill:#FFFFFF;stroke:#D7D7CE;stroke-width:0.8533;stroke-linecap:round;stroke-linejoin:round;}
</style>
<g>
	<path class="st0" d="M407.1,34.8c1-0.6,2.3-0.7,3.4-0.3c0.3-4.6,2.3-8.9,5.6-12.1c0,0-0.8-0.5-1.9,0.3
		C414.2,22.7,408.4,26.1,407.1,34.8"/>
	<path class="st0" d="M416.3,35.5l2.5,1.7c2.3-4.4,5.4-8.3,9.1-11.7c0,0-0.5-0.6-1.9,0.2C426,25.7,420.8,28.2,416.3,35.5"/>
	<path class="st1" d="M427.3,124c7.2,4.6,19.2,2.7,22.4,0.3c4.2-3.1,2.6-19.1,2.6-19.1c-3.2,3.9-6.6,7.5-10.4,10.9
		C437,120.3,427.3,124,427.3,124"/>
	<path class="st0" d="M427,124.1c0,0,5-0.5,15.3-7.8c4.2-3,7.7-6.9,10.4-11.3c0.1-2.4-0.1-4.8-0.6-7.1c-0.3-1.9-0.9-3.8-1.6-5.6
		c0,0-5.5,9.9-13.5,14.8c-6.7,4-13.7,7.3-21,10c1.5,1.5,3.1,2.9,4.8,4.1C422.8,122.4,424.8,123.4,427,124.1"/>
	<path class="st1" d="M415.5,117.5c8.1-2.6,15.7-6.3,22.7-11c9.8-6.5,13.1-13.4,13.1-13.4c-0.5-1.9-1.3-3.7-2.1-5.5
		c-2.4-4-2.3-2.5-2.3-2.5s-8.1,8.6-16.5,14.1c-9.7,6.4-21.9,7.8-21.9,7.8c1,2.3,2.3,4.5,3.7,6.5
		C413.3,114.9,414.4,116.2,415.5,117.5"/>
	<path class="st0" d="M408.3,107.2c8.9-0.9,17.5-4.2,24.8-9.4c4.9-3.9,9.6-8.1,13.8-12.7l-7.3-6.1c-4.2,5-9.3,9.2-15,12.4
		c-11,6.2-17.3,5.1-17.3,5.1s0.1,3.3,0.3,5.3S408.3,107.2,408.3,107.2"/>
	<path class="st2" d="M411,103c0,0-3.5,11.2-4.4,12.2c-1.5,0-2.9-0.4-4.1-1.3"/>
	<path class="st2" d="M432.8,65.3c0,0,11.8-0.2,12.9-0.7c0.5-1.4,0.4-2.9-0.1-4.3"/>
	<path class="st2" d="M427.5,122.9c0,0,0.8,11.5,0.2,12.6c-1.2,0.6-4,0.4-4,0.4"/>
	<path class="st2" d="M442.5,121.8c0,0,2.9,13,2.2,14.1c-1.3,0.7-2.8,0.9-4.3,0.8"/>
	<path class="st2" d="M428,97.5c0,0-1.5,12.3-2.3,13.3s-4.7-0.1-4.7-0.1"/>
	<polygon class="st3" points="425.5,55.4 426.8,52.1 425.3,52.3 	"/>
	<polygon class="st3" points="401.2,61.2 403.6,61.3 404.6,64.9 	"/>
	<path class="st1" d="M407,96.6c0,0,6.1,1.2,18.6-5.5c8.2-4.4,14-12.2,14-12.2l-6.8-7.3c0,0-4.4-0.2-14,5.2
		c-10.5,5.9-12.5,5.9-12.5,5.9L407,96.6z"/>
	<path class="st4" d="M413.8,76.4l4.5,10.2c6.1-2.8,11.8-6.2,17.1-10.3c5.3,3.6,12.4,12.5,19,14.2c0,0-9.6-17.4-19.7-24.6
		c-2.1-1.7-3.9-3.6-5.5-5.8C429.3,60,417.2,75.5,413.8,76.4"/>
	<path class="st4" d="M403.6,70.7c0,0,1.1,13.3,1.3,15.9c0,0,3.5,3.4,11.7,0.6l-0.8-6.1l-1.6-6L403.6,70.7z"/>
	<path class="st1" d="M404.4,64.6c0,0-8.2-17.4-1.1-27.7c0,0,2.2-3.5,8.9-3.1c4.3,0.5,8,3.1,10.1,6.8c2,4.4,3.1,9.2,3.3,14.1
		l-11.1,20.7L404.4,64.6z"/>
	<path class="st5" d="M419.5,79.3c-0.1,0.6-0.7,1-1.3,0.9c-0.6-0.1-1-0.7-0.9-1.3s0.6-1,1.1-1C419,78,419.5,78.6,419.5,79.3"/>
	<path class="st6" d="M405.1,45c0.1,2.2-1.6,4.1-3.8,4.2c-0.1,0-0.3,0-0.4,0c-1.9,0-3.6-2.1-3.6-4.3s1.6-4.3,3.6-4.4
		c2.4,0,4.3,1.9,4.3,4.2C405.1,44.8,405.1,44.9,405.1,45"/>
	<path class="st6" d="M400.5,49.2c-1.9,0-3.3-2.1-3.3-4.3s1.8-4.7,4.2-4.4"/>
	<path class="st7" d="M400.5,49.2c-1.9,0-3.3-2.1-3.3-4.3s1.8-4.7,4.2-4.4"/>
	<path class="st6" d="M418.5,42.5c0,2.1-0.8,4.5-3.9,4.5c-3.3,0-3.9-2.2-3.9-4.4c0-2.2,1.8-3.9,3.9-3.9h0.1
		C416.9,38.7,418.5,40.4,418.5,42.5L418.5,42.5"/>
	<path class="st3" d="M412.9,57.2c0,0-3.3-5.2-7,0.8c-0.8-2.1-0.1-4.6,1.8-5.9C407.7,52.1,412,48.6,412.9,57.2"/>
	<path class="st5" d="M401.2,61.2l13.6,14.4l-14.6-6.2C400.3,69.3,400.8,62.8,401.2,61.2"/>
	<path class="st5" d="M426.8,52.1l4.5,6.1c0,0-13.1,17.4-17.5,18.2c0,0,7.8-16.2,11.9-21.7C425.6,54.6,426.1,53.6,426.8,52.1"/>
	<path class="st8" d="M411.8,63.3h-0.2H411.8c0,0-3.5-0.4-4.4-0.2c0,0-0.5,0.2-0.3,0.6c0.1,1.4,0.7,2.8,1.5,3.9
		c0.7,1.3,1.1,0.9,1.1,0.9c0.8-0.4,2.6-3.1,2.6-3.1C411.8,65.2,411.8,63.3,411.8,63.3"/>
	<path class="st8" d="M418.8,65.5c-0.1-1.9-0.4-3.7-0.9-5.5c0-0.3-0.3-0.4-0.3-0.4c-1.4-0.5-4.1,3.2-4.1,3.2l0.6-0.2
		c1.1,2.2-0.5,2.5,0,2.5c0.9,0.2,1.9,0.5,2.8,0.9C418.6,66.7,418.8,65.5,418.8,65.5"/>
	<path class="st3" d="M400.6,47c0,0.3-0.3,0.6-0.6,0.6c-0.3,0-0.6-0.3-0.6-0.6l0,0c0-0.4,0.3-0.7,0.6-0.7
		C400.3,46.4,400.6,46.7,400.6,47"/>
	<path class="st3" d="M413.4,44.6c0,0.4-0.3,0.7-0.7,0.7S412,45,412,44.6l0,0c0-0.4,0.3-0.7,0.7-0.7S413.4,44.2,413.4,44.6
		L413.4,44.6"/>
	<path class="st9" d="M411.2,63.4c0.1-0.9,0.9-1.5,1.8-1.4c0.1,0,0.2,0,0.3,0.1c0.9,0.3,1.4,1.2,1.2,2.1s-1.2,1.4-2.1,1.2
		c-0.1,0-0.2-0.1-0.4-0.2C411.4,64.9,411,64.1,411.2,63.4"/>
</g>
<g>
	<path class="st10" d="M278.3,170.6c-15.1-17.7-35.4-35.1-35.4-35.1l-14.2-7.9c0,0-30.4-69.8-31.6-72.6
		c-1.2-2.8-32.4-11.3-32.4-11.3l7,6.5c-21.9-6.9-49.4-10.9-49.4-10.9l8,4.6c-22.8-3.9-38.6-0.4-38.6-0.4c3.6,0.7,7,2.3,10.1,4.5
		c-0.6,0.1-1.3,0.3-1.9,0.4c3.3,0.9,5.9,1.7,5.9,1.7c-16.5,15.3-0.9,71,6,92.6c49.1,16.4,69,10,96.6,1.5c14.8-4.6,27,3.4,27,3.4
		c22.7,18.2,25.3,23.3,30.4,34.8c2.7,6.1,4.2,7.8,6.2,7.2c3.2-0.9,0.7-6.7,0.7-6.7c1.5,3.1,2.8,6.1,6.4,3.9c1.6-1,1-3.1,0.2-4.7
		c-0.7-0.9-1.1-1.8-1.1-1.8s0.6,0.8,1.1,1.8c1.1,1.3,2.9,2.5,5.3,0.9C287.2,181,280.5,173.2,278.3,170.6z"/>
	<path class="st4" d="M106.1,132.8c0,0-27.5,23.1-33.7,26.6c-1.7,0.9-6.9,5.3-9.5,2.7c-0.9-1-0.9-2.7,0.2-3.6l0,0l4.3-2.9
		c0,0-7.5,5.8-8.7,0.7c-0.6-2.3,0.2-2.7,6.1-6.6c0,0-5.1,4.2-7.1,0.7c-1.7-3,3.9-4.6,9.6-7.3c10.7-5.1,22.5-11.3,38-25.7
		L106.1,132.8z"/>
	<path class="st4" d="M271.8,131c0,0,28.7,21.5,33.6,26.7c1.3,1.4,6.7,5.5,4.8,8.7c-0.8,1.2-2.4,1.5-3.6,0.7l0,0l-3.8-3.6
		c0,0,7.3,6,2.7,8.3c-2.2,1.1-2.6,0.4-7.9-4.4c0,0,5.2,4,2.2,6.7c-2.5,2.2-5.3-2.8-9.3-7.7c-7.4-9.2-16.1-19.4-33.7-31.1L271.8,131z
		"/>
	<path class="st4" d="M307.1,47.1c0,0-28.9-38.2-55.7-44.2c0,0-5.8-1.4-2.9,2.2c0,0,13.4,21.7,12.8,24.2c0,0-14.5-6.3-25.6-3.7
		c0,0,5.5,2.6,6.1,3.9c0,0-12.5,1.2-17,2.8l5.5,2.6c0,0-6.9,2.8-9.3,5c0,0-13.6-14.5-39.2-17c0,0,13.6,20.4,14,27.2
		c0,0,1.9,11.5,1,16.2c0,0-12.8,9.3-16.4,17c0,0,10.4-4.3,15.1-3.4c0,0-12.2,10.8-14.7,17.8c0,0,9.9-3.9,16.3-3.9
		c0,0-5.3,6.3-6.6,13.2c3.8-2.7,6.2-4.3,8.7-4.5c0,0,4.9-0.9,6,1.9c0,0,16.5,25.9,33.1,29.8c0,0,27.8,9.4,61.9-14.7
		c0,0,18.3-16.9,12.2-43.3c0,0,10.8-0.8,12.9-0.4c0,0-6.8-6.3-13.2-9.4c0,0,9.4-2.1,15.9-2.1c0,0-5.4-5.4-16.4-8.3
		c0,0,11-5,14.3-5.5C326,50.3,316.2,45,307.1,47.1"/>
	<path class="st11" d="M269.3,28.8c0,0,6.5-0.9,10.2-0.5c0,0-9.2-10-14.8-11.4L269.3,28.8z"/>
	<path class="st11" d="M215.6,42.4c0,0-7.4,2.7-8.4,3.7c0,0-7.3-11.8-8.1-12.5C199.1,33.5,207.5,34.4,215.6,42.4"/>
	<path class="st3" d="M250.2,36.9c-7.7,1.1-12.4,2.1-22,8.9c0,0-3.3,3.4-1.3,3.6c2.3,0.3,4.2-0.9,8.5-3.9c5-3.4,13.5-5.1,21.9-5.6
		c0,0,4.9-0.3,3.4-1.8C259.7,37.1,255.5,36.1,250.2,36.9"/>
	<path class="st3" d="M247.6,49.8c0,0,11.5-3.6,11.9-0.7c0.2,1.5-6.9,2.6-9.8,3.9c-3.4,1.2-6.7,2.7-9.9,4.5c0,0-4.6,2.2-3.7-0.5
		C236,57.1,239,52.4,247.6,49.8"/>
	<path class="st6" d="M270.7,59.4c-0.7,6.5,5,11,10.7,10.8c5.6-0.3,10.1-5,9.8-11.7S286,47.2,280.4,47
		C278.2,46.9,271.3,53.8,270.7,59.4"/>
	<path class="st6" d="M217.1,75.7c0.3,5.8,2.6,11.7,11.4,11.3c6-0.3,10.5-5.8,10.2-11.6c-0.4-6.1-5.4-10.8-11.4-10.6
		c-5.8,0.1-10.3,5-10.2,10.7C217.1,75.6,217.1,75.6,217.1,75.7"/>
	<line class="st12" x1="268.6" y1="59" x2="285.7" y2="37.7"/>
	<line class="st12" x1="239.7" y1="65.5" x2="210.4" y2="63.8"/>
	<path class="st11" d="M267.1,78.4c3.6-0.8,8.5-1.1,8.3,3.8c-0.1,2.6-0.2,7.5-2.6,10.1s-9.9-1.3-12.5-5.1
		C258.5,85,255.9,81.1,267.1,78.4"/>
	<path class="st11" d="M279.8,109c2.6,0.6,7.3,1.6,6.4,6.4c0,0-0.8,5-9.3,3.1c-3.4-0.8-9.3-2.2-13.4,3.8c-1.4,2.2-5.8,7.5-9.4,4.1
		c-1.9-1.8-3.8-4.7-0.4-10.3c1.7-2.2,3.8-3.8,6.3-5C264.3,108.8,269.9,106.7,279.8,109"/>
	<path class="st6" d="M260,120.1l0.9-9.4c0,0-4.2,1.8-6.2,4.3C254.5,115.2,260,120.1,260,120.1"/>
	<path class="st6" d="M281.2,109.3c-2.5-0.7-5-1.1-7.7-1.2c2.2,4.3,4.1,8.3,4.1,8.3L281.2,109.3z"/>
	<path class="st3" d="M303.7,76.1c0.1,1.3,1.1,2.3,2.4,2.2c1.3-0.1,2.3-1.1,2.2-2.4c0-1.2-1-2.2-2.2-2.2c-0.1,0-0.2,0-0.2,0
		c-1.2,0-2.2,0.9-2.3,2.2C303.7,76.1,303.7,76.1,303.7,76.1"/>
	<path class="st13" d="M295.8,80.1c0,1.1,0.9,2.1,2.1,2.1c0.1,0,0.1,0,0.2,0c1.1,0,2.1-0.8,2.1-2c0-0.1,0-0.2,0-0.3
		c-0.2-1.2-1.3-2-2.4-1.8C296.7,78.2,295.8,79,295.8,80.1"/>
	<path class="st13" d="M302.6,84.3c0,1.1,0.9,2.1,2.2,2.1c0,0,0,0,0.1,0c1.1-0.1,2.1-1,2-2.2c0-1.1-0.8-2.1-2-2.1
		C303.6,82.1,302.6,83.1,302.6,84.3"/>
	<path class="st3" d="M230.4,103.5c0.1,1.1,1,2,2.1,2c1.1-0.1,2-1,2-2.1c-0.1-1.1-1-2-2.1-2C231.2,101.6,230.3,102.5,230.4,103.5"/>
	<path class="st3" d="M221.8,98.5c0.1,1.1,1,2.1,2.2,2c1.1-0.1,2.1-1,2-2.2c-0.1-1.1-1-2-2.2-2c0,0,0,0-0.1,0c-1,0-1.9,0.9-1.9,2
		C221.9,98.4,221.9,98.4,221.8,98.5"/>
	<path class="st3" d="M221.7,105.8c0.1,1.2,1.1,2.2,2.3,2.1c1.2-0.1,2.2-1.1,2.1-2.3c-0.1-1.1-1-2.1-2.2-2.1
		C222.6,103.4,221.7,104.5,221.7,105.8"/>
	<path class="st4" d="M171.7,50.1c0,0-7.7-2.3-13.4-3.7c-8.9-2.1-13.4-3-13.4-3s-20.8,60.1,9.4,109c0,0,7.6,1.9,26.2-1
		C180.6,151.3,151,69.2,171.7,50.1"/>
	<path class="st10" d="M75.2,58.1C59.5,68.2,58.6,80,58.6,80c-8.9,30.9,9.2,46,9.3,46.1c-9.2,10.8-26,15.4-26,15.4
		c-10.6,3.6-25.1,0.4-25.1,0.4c-2-1.6-4.1-3.1-6.3-4.5c-3.6-1.8-3.7,1.2-3.2,2c0.7,0.8,1.7,1.6,2.7,2.2c-4-1.5-5-1.2-6,0
		s-0.5,2.3,1,3.7c0.7,0.7,1.6,1.3,2.5,1.8c-0.9-0.3-1.9-0.5-2.8-0.7c-3-0.4-3.5,4-0.6,5.7c16.5,9.3,40.9,4.8,40.9,4.8
		c15-3.9,28.7-12.9,36.2-18.6C68.4,108.1,71.6,76.2,75.2,58.1z"/>
	<path class="st10" d="M279.1,182c-0.5-1-1.1-1.8-1.1-1.8S278.4,181.1,279.1,182z"/>
	<path class="st4" d="M105.7,50.1c0,0-2.6-0.8-5.9-1.7c-10.8,2.5-18.8,6-24.7,9.8c-3.6,18.1-6.8,50,6,80.2c3.8-2.8,6-4.8,6-4.8
		c8.9,3.6,17.1,6.6,24.5,9.1C104.8,121.1,89.2,65.4,105.7,50.1z"/>
	<path class="st12" d="M270.4,92.9c0.1,2.2,0.1,4.6-0.1,6.9c-0.2,3.2-0.9,6.4-2.1,9.3"/>
	<path class="st3" d="M229.2,75.6c0,1.1,0.9,2.1,2.1,2.2c0.9,0.1,1.8-0.7,1.9-1.7v-0.1c-0.1-1.5-1-2.5-2.1-2.4
		C229.9,73.6,229.2,74.6,229.2,75.6"/>
	<path class="st3" d="M282.9,58.3c0,1.1,0.8,2,2,2.1c0.9,0.1,1.7-0.6,1.8-1.5v-0.1c-0.1-1.4-0.9-2.3-2-2.3
		C283.7,56.4,282.9,57.3,282.9,58.3"/>
</g>
<g>
	<path class="st1" d="M565.7,136.6c0,0,2.6,5.4,3.2,5.9c2.5-1.2,4.7-2.8,6.7-4.8l-1.4-1.9L565.7,136.6z"/>
	<path class="st14" d="M602.4,156.3c2.7,0.6,5.5,1,8.3,0.9c-0.3,1.3-1,2.4-2.1,3.2c0,0-2.2,0.6-8.5-0.4
		C601.2,159,602.1,157.7,602.4,156.3"/>
	<path class="st1" d="M597.8,155.2c-0.6,1.8-3,3.9-3,3.9c1.7,0.6,3.4,0.9,5.1,1c2-0.7,2.9-4,2.9-4
		C600.6,155.7,597.8,155.1,597.8,155.2"/>
	<path class="st14" d="M593.4,153.2c1.7,0.7,3.5,1.3,5.3,1.7c0,0-2,3.8-3.8,4.4c0,0-2.1,0.3-5.3-1.9
		C589.6,157.4,592.8,154.6,593.4,153.2"/>
	<path class="st1" d="M584,155c1.7,1.1,3.6,2.1,5.6,2.7c1.7-1.3,3.2-2.8,4.3-4.6c-1.9-0.7-3.8-1.5-5.6-2.4
		C588.2,150.7,584.8,154.9,584,155"/>
	<path class="st14" d="M579.2,151.7c1.4,1.3,2.9,2.5,4.6,3.5c2-1,3.7-2.6,4.8-4.6c-1.7-0.9-3.4-1.9-5-3
		C583.6,147.5,580,151.5,579.2,151.7"/>
	<path class="st1" d="M578.9,142.7c1.6,1.6,3.4,3.2,5.2,4.6c0,0-2.2,3.4-4.9,4.4c0,0-4.5-3.6-5-4.1
		C575.9,146.2,577.5,144.6,578.9,142.7"/>
	<path class="st14" d="M575.3,137.9c1.1,1.6,2.4,3.1,3.7,4.5c0,0-2.6,4.4-5.4,5.4c0,0-3.9-4.9-4.4-5.5
		C571.4,141.1,573.4,139.6,575.3,137.9"/>
	<path class="st14" d="M558,16.5c0,0,0.4-16.4,13.1-14.6c0,0,4.8,0.3,6.4,4.3c1.1,2.9,0.7,6.1-1,8.7l-3.6,6
		C568.6,17.7,563.3,16.1,558,16.5"/>
	<path class="st1" d="M540.3,133.2c0,0,0.2,20.8-0.3,21.6c-0.8,1.4-4,0.7-5,3.1s2.4,3,3.4,2.1l1.3-1.1c0,0-1.2,3,2,3.6
		c1.2,0.1,2.2-0.8,2.3-2c0-0.3,0-0.6-0.1-0.8c0,0,1.4,2.9,3.4,2.1c0,0,3.1-1.3-0.2-5.5c-1.2-3.6-1.8-7.4-1.8-11.2l0.1-12
		L540.3,133.2z"/>
	<path class="st1" d="M560.6,133.5c0,0,0.4,19.2,0,20.2c-0.9,1-1.9,1.9-3,2.7c-0.9,0.7-2.3,3.4-0.9,4.4c0,0,1.7,0.9,2.9-2.2
		c0,0-0.9,3.4,1.9,3.4c0,0,2.3,0.3,2.9-2.9c0,0,0.6,2.6,2.5,2.2c0,0,2.9-1.1,1.7-3.9c-0.6-1.3-2.2-3.3-2-5.4l-0.6-18.6L560.6,133.5z
		"/>
	<path class="st6" d="M544.1,18.2c0,0-2.2-7.1-9.1-6c-3.2,0.5-8.1,2.9-7,10.6c0,0,10.3-0.9,15.3-4.4"/>
	<path class="st15" d="M544.1,18.2c0,0-2.2-7.1-9.1-6c-3.2,0.5-8.1,2.9-7,10.6c0,0,10.3-0.9,15.3-4.4"/>
	<path class="st1" d="M571.8,82.7c0,0-0.7-18.7,8.8-31.4c2.6-5,4-10.6,3.9-16.2c0,0,16.9-6,9.5-17.3c-2.5-3.8-10.8-7.9-17.6,4.6
		c0,0-14-13.9-37.2-3.5c-19,8.5-51.7,8.1-51.7,8.1h-0.6c0,0-10.4,10.6,1.7,16.6c23.9,12,47.3,17.6,52.2,20.8c3.4,2,4.7,6.2,3.2,9.9
		l-2.8,6c0,0,7-0.3,8,10.7C549.2,90.9,555.2,77.1,571.8,82.7"/>
	<path class="st1" d="M570.6,80c0,0,10,11.7,11.2,19.1l-1.3,3c-0.4,0.9-1.2,4.8,2,3.5c0.7-0.3,1.5-2.2,1.5-2.2s1.5,3.1,3,2.6
		s2.4-1.6,0.7-4.8c0,0,3.3,2.9,4.2,0.3c0.7-2.1-0.9-3.8-5.2-5.8c0,0-5.6-16-14.6-27.2C572.2,68.5,571.7,78.8,570.6,80"/>
	<path class="st16" d="M536.9,102.3c0,0,20.7,9.8,35.7,1.1l-0.4-20.7c0,0-16.6-6.5-23.1,8.2c0,0,0.3-10.8-8-10.7
		C541.1,80.2,536.6,94.7,536.9,102.3"/>
	<path class="st17" d="M536.4,102.2c0,0-14.1,18.5-21,33.2c0,0,46.3,7.5,74.2-1.1c-2.9-10.3-8.2-19.9-15.3-27.9
		c-0.8-1-1.3-2.2-1.2-3.5C573,102.9,558,110.8,536.4,102.2"/>
	<path class="st18" d="M488.3,43.5c0-5.2,0.1-11.4,0.1-16.6c-5,0.2-10,0.2-15-0.1c0,0-7.6-1-3.8,4.2S488.3,43.5,488.3,43.5"/>
	<path class="st6" d="M565.1,29.1c0,4.3-4.2,7.3-7.7,7.3s-6.5-3-6.5-7.3c0.1-4.4,3.8-7.9,8.2-7.8c0.1,0,0.2,0,0.2,0
		C563,21.4,565.1,24.8,565.1,29.1"/>
	<path class="st18" d="M580.3,24.5l1.7,4.2c0,0,9.5-0.3,7.4-6.7C589.4,22,586.9,17.4,580.3,24.5"/>
	<path class="st3" d="M533.7,18c0,0.6-0.4,1.1-1,1.2c-0.7,0.1-1.2-0.5-1.2-1.2c0-0.6,0.5-1.1,1.2-1.2
		C533.4,16.9,533.7,17.4,533.7,18"/>
	<path class="st3" d="M557.2,29.8c0.1,0.6-0.4,1.2-1,1.3c-0.7,0.1-1.3-0.5-1.4-1.2c0-0.1,0-0.1,0-0.2c0.1-0.7,0.7-1.3,1.4-1.3
		C556.8,28.6,557.2,29.2,557.2,29.8"/>
	<path class="st19" d="M538.6,115.5c0,0-3,4.5-4.5,7.6c-1.5,3-2.7,6.2-2.7,6.2"/>
	<path class="st19" d="M570.8,129.6c0,0-1.3-5.3-2.6-8.4c-1.2-3.1-2.8-6.2-2.8-6.2"/>
	<path class="st19" d="M553.6,129.6c-0.1-4.4-0.5-8.8-1.1-13.1"/>
	<path class="st4" d="M549.6,50.6c-2.4,0.1-4,2.3-2.6,4.9c1.2,2.4,3.5,3.9,6.2,4c2.4,0,3.9-1.6,3.5-4.5S552.7,50.4,549.6,50.6"/>
</g>
<g>
	<path class="st20" d="M475,131.7c0,0-3.2,10.1-3.9,11c-1.3,0-2.7-0.4-3.7-1.2"/>
	<path class="st20" d="M492.6,138.6c0,0,0.8,10.4,0.2,11.4c-1.2,0.4-2.4,0.5-3.6,0.4"/>
	<path class="st20" d="M469.6,124.1c0,0-9.5,6.6-10.6,6.4s-2-3.2-2-3.2"/>
	<line class="st21" x1="452.4" y1="133.5" x2="465.6" y2="137.6"/>
	<path class="st18" d="M451.6,136.1c-0.3,0.9-1.2,2.2-2.8,1.8c-0.8-0.2-0.5-2.1,0.3-3.3c0.4-0.6,1.4-1.5,2.1-1.1
		S451.8,135.4,451.6,136.1"/>
	<path class="st18" d="M451.1,131.3c0,0-2.5-3.6-4.5-2.3c0,0-1.9,1.6,1.1,3.1c0.9,0.4,1.8,0.5,2.7,0.4
		C450.7,132.1,450.9,131.7,451.1,131.3"/>
	<path class="st18" d="M450.7,132.4c-1.3-0.3-2.7-0.3-4-0.1c0,0-2.4,0.7-1,2.5c0.6,0.8,2.4,0.6,4.1-0.7c0.4-0.3,0.8-0.5,1.3-0.7
		L450.7,132.4z"/>
	<path class="st18" d="M450.8,131.4c0,0-3-4.7,0.1-4.5c1,0.1,2.5,0.6,1.4,4l-0.5,0.8C451.6,131.4,451.2,131.3,450.8,131.4"/>
	<path class="st18" d="M452.5,133.1c-0.3,0.6-0.9,0.9-1.5,0.8c0,0,1,4.8,3.1,3.5C456.4,136,453.1,133.1,452.5,133.1"/>
	<path class="st18" d="M452,131.3c0,0,0.5-2.8,2.5-2.8c0.8,0,2.8,1.5,0.6,2.8c-0.6,0.4-1.4,0.5-2.6,1
		C452.5,132.3,452.2,131.3,452,131.3"/>
	<path class="st18" d="M452.7,132.1c0,0,3-1.1,3.6,0.2c0.2,0.5-0.3,2.1-2.4,1.6c-0.6,0-1.1-0.2-1.5-0.7
		C452.4,133.2,452.8,132.3,452.7,132.1"/>
	<path class="st6" d="M452.7,132.5c0,0.9-0.7,1.6-1.5,1.6c-0.1,0-0.1,0-0.2,0c-0.8-0.1-1.4-0.7-1.4-1.5c0-0.9,0.7-1.7,1.6-1.7
		c0.1,0,0.1,0,0.2,0C452.1,130.9,452.7,131.7,452.7,132.5L452.7,132.5"/>
	<path class="st22" d="M474.2,93.3c0,0,17.4-17.5,42.6-12.3c0,0,3.6,0.9,1.2,3.5c-2.4,2.6-4.6,5.3-0.1,12c2,1,2.9,3.4,2.1,5.6
		c-1.4,3.8-6.5,2.8-6.3,6.4c0.2,3.6,1.3,3.9-1.8,7.3c0,0-1.6,0.9-4.5-0.9c-2.8-1.7-21.3-14-21.7-14.4L474.2,93.3z"/>
	<path class="st18" d="M483.6,99.2l1-1.4c0.8,0.6,1.3,1.4,1.6,2.3l-0.4,0.6C485.8,100.7,483.8,99.3,483.6,99.2"/>
	<path class="st6" d="M481.3,98l1.5-2.2c0.9,0.3,1.6,1,1.9,1.9l-1.1,1.5C483.6,99.2,481.8,97.9,481.3,98"/>
	<path class="st18" d="M478.9,96.5l1.7-2.6c0.9,0.3,1.8,0.9,2.4,1.7l-1.6,2.3C480.6,97.4,479.8,96.9,478.9,96.5"/>
	<path class="st6" d="M475.9,95.3l2-2.9c1.1,0.2,2.1,0.7,2.9,1.4l-1.9,2.8C478.9,96.6,476.5,95.2,475.9,95.3"/>
	<path class="st18" d="M472.8,94.2c0,0,1.6-2.7,3.4-2.5c0.6,0.1,1.2,0.3,1.8,0.6l-2,3C475,94.8,473.9,94.5,472.8,94.2"/>
	<path class="st6" d="M461.7,101.9c0,1.9-0.7,4.2-3.6,4.2c-3.1,0-3.6-2-3.6-4s1.6-3.6,3.6-3.6h0.1C460.2,98.5,461.7,100,461.7,101.9
		L461.7,101.9"/>
	<path class="st3" d="M458.3,102.9c0,0.3-0.2,0.6-0.5,0.6s-0.6-0.2-0.6-0.5c0,0,0-0.1,0-0.2c0-0.3,0.2-0.6,0.5-0.6s0.6,0.2,0.6,0.5
		C458.3,102.8,458.3,102.9,458.3,102.9"/>
	<line class="st21" x1="459" y1="129.8" x2="464.2" y2="138.6"/>
	<path class="st23" d="M478.9,139.4c6.2,4.6,17.6,4.2,22.2-0.3c7.7-7.6-0.2-20.8-0.2-20.8s-4,7.8-8.3,12.1
		C487.3,135.7,478.9,139.3,478.9,139.4"/>
	<path class="st24" d="M477.9,139.8c0,0,8.2-2.2,16.1-10.4c4.2-4.5,7.1-11.8,7.1-11.8c-0.7-2-1.6-3.8-2.8-5.5c-3-4-4.6-5.9-4.6-5.9
		s-0.8,10.5-6.9,16.2c-4.6,4.3-9.9,8-15.6,10.8c1.1,1.4,2.3,2.8,3.6,4.1C476,138.3,477.9,139.8,477.9,139.8"/>
	<path class="st24" d="M465.4,125.2c0,0,17.6-7.7,21.4-23.9c0,0-12.3-9.5-20.1-7.2c0,0-10.9,1.3-7.6,17.4
		C459.1,111.5,461.6,120.1,465.4,125.2"/>
	<path class="st23" d="M470.8,133.7c0,0,5.6-1.6,15.6-10.6c7.5-6.7,7.9-16.9,7.9-16.9c-1.2-1.1-2.5-2-3.8-2.9c-3.6-2.5-3.6-2-3.6-2
		c-1.4,5.5-4.3,10.5-8.4,14.5c-3.9,3.9-8.5,7.1-13.5,9.5c0,0,0.8,1.6,2.8,4.6C468.7,131.2,469.7,132.5,470.8,133.7"/>
	<path class="st9" d="M454.8,129.5c0,0-1.9,1.7-1.2,2.6c0.5,0.6,1.1,1.4,3.1-0.2c0.6-0.4,0.8-1.2,0.7-1.9c-0.3-0.3-0.6-0.6-0.8-1
		C456.1,129.4,455.5,129.6,454.8,129.5"/>
	<path class="st9" d="M458.3,124.4c0.2,1.2,0.1,3.4-0.8,3.4s-2.3-1.2-2.5-3.1c-0.1-0.9,0.6-2.1,1.4-2.1
		C457.4,122.6,458.3,123.4,458.3,124.4L458.3,124.4"/>
	<path class="st9" d="M456.9,127.3c0,0-3.1-2.1-4.3-0.6c-0.5,0.6-1,2.6,1.6,2.9c0.8,0.1,1.7,0,2.4-0.5
		C456.6,128.5,456.7,127.9,456.9,127.3"/>
	<path class="st9" d="M458,127.3c0,0-0.1-4.3,3-3.7c0.8,0.1,1.6,1.2,0.6,2.8c-0.6,0.9-1.5,1.5-2.6,1.7
		C459,128.1,458.4,127.6,458,127.3"/>
	<path class="st9" d="M459,128c1.2-0.7,2.7-0.5,3.7,0.4c0.6,0.5,0.8,2.7-2.2,2.4c-0.9-0.1-1.7-0.7-2-1.6
		C458.5,129.3,459.2,128.3,459,128"/>
	<path class="st9" d="M458.8,129.4c0,0,2.5,3.4,0.5,4.4c-1,0.4-3.1-0.3-2.1-3.8c0,0,1.1,0,1.4-0.4"/>
	<path class="st18" d="M457.8,127c-0.9,0.1-1.7,0.9-1.6,1.8c0,0.9,0.8,1.6,1.7,1.6l0,0c0.8,0,1.5-0.6,1.6-1.4v-0.1
		C459.4,127.8,458.7,127,457.8,127"/>
	<path class="st6" d="M474.6,101.4c0.1,2-1.4,3.8-3.4,3.9c-0.2,0-0.3,0-0.5,0c-1.8,0-3.4-1.9-3.4-4s1.5-4,3.3-4.1c2.2,0,4,1.8,4,4
		C474.6,101.3,474.6,101.4,474.6,101.4"/>
	<path class="st3" d="M472.5,101.5c0,0.4-0.4,0.6-0.7,0.6c-0.3,0-0.5-0.3-0.6-0.6c0-0.4,0.2-0.7,0.6-0.7S472.5,101,472.5,101.5
		C472.5,101.4,472.5,101.5,472.5,101.5"/>
	<path class="st25" d="M490.7,90.7c4.3-2.4,12.7-3.4,17.9-2.5"/>
	<path class="st25" d="M491.5,96.6c5.1,0.1,10.1,1.4,14.6,3.7"/>
	<path class="st20" d="M498.9,137.6c0,0,2.6,11.8,2,12.7c-1.2,0.6-2.5,0.8-3.8,0.7"/>
	<path class="st20" d="M479,136.4c0,0-1.3,11.1-2.1,12s-4.3-0.1-4.3-0.1"/>
	<path class="st20" d="M469.8,127.9c0,0-7.9,8.4-9,8.5s-2.7-2.7-2.7-2.7"/>
	<path class="st4" d="M461.3,111.2c0,0,4.2-1.7,7.4-0.8c0,0-0.3-4.4-4.6-3.9C464.2,106.5,461.5,107.4,461.3,111.2"/>
</g>
<g>
	<path class="st26" d="M386.7,209.4c0,0-20.5,25.6-52.3,11.3c-10.8-4.9-19.6,0.2-24.6,3.8c-7.4,5.3-18.3,3.3-27.6-1.1"/>
	<path class="st27" d="M389.1,128c0,0,6.7-16.2-6-20.2c-13.5-4.2-19.6,16-12.5,21L389.1,128z"/>
	<path class="st6" d="M368.5,121.2c-2.4-0.3-7.7,1.1-6.1,8.3l11.7-2C374.2,127.4,373.6,121.8,368.5,121.2"/>
	<path class="st6" d="M367.5,121.1c-2.2,0.2-5.4,1.3-5.4,5.9"/>
	<path class="st28" d="M367.5,121.1c-2.2,0.2-5.4,1.3-5.4,5.9"/>
	<path class="st27" d="M423,206.2c0,0,2.7,3.9,4,6.1c0,0,4.3-7.1,10.5-7.2c0,0,3,0.2,2,2.1c-0.3,0.7-0.8,0.9-2.9,0.2
		c1.3,0.3,2.2,1.4,2.2,2.7c0,0-0.5,2.6-3.2-0.4c0,0,1.6,1.4,0.9,2.9c0,0-1,1.2-3.2-1.6c0,0-3.2,4.8-4.7,6.7
		c-0.5,0.6-2.9,1.8-4.2-0.1l-4.4-5.8L423,206.2z"/>
	<path class="st29" d="M373.4,167c0,0-4.7-3.1-16.8-9.1c-14.3-7-28.4-14.3-28.4-14.3l1.2-12.1c5.5-0.3,11-0.9,16.4-1.7
		c17.2-3.1,42.6-7.7,50.4,1.2c0.7-2.8,13.7-19.7,27.8-5.2c4.9,5.3,5.3,13.3,1,19.1c0,0-7.8,9-16.7,5c0,0-3.3,7.1-3.7,8.7
		c0,0-1.1,4.8,0.4,8.5l2,17.2c0,0-26.5-17.4-34.4-16.6"/>
	<path class="st29" d="M420,194c0,0,13,15.3-8.7,24.2l-10.6,4.4c0.1,1.2,0.2,2.5,0.1,3.8c0,0,9.2,6.2,10.2,6.3c0,0,3.3,1.4,2.7,3.6
		c0,0-1.2,1.6-4.3-0.6c0,0,2.1,2.5-0.4,2.6c0,0-1,0-1.9-1.5c0,0,0.1,2.4-1.7,2c0,0-2.1-0.1-1.4-3.8c0,0-7.5-4.3-8.7-6.8
		c-0.6-1.2-1.2-6.5-1.2-6.5c-3.5-3.1-6.4-6.7-8.8-10.8l10.5-3.8L420,194z"/>
	<path class="st27" d="M407,169.2c0,0,6.8,5.9,9.7,8.1c0,0,8.3-8.1,12.7-5.5c0.6,0.4,2.1,1.3,0.9,2.4c-0.5,0.5-1.5,0.2-2.8-0.4
		c0,0,2.4,1.7,1.8,2.8c-0.4,0.7-1,1-3-0.5c0,0,1.3,1.5,0.6,2.5c-0.5,0.7-1.9,0.2-3-2c0,0-4.5,4.5-5.6,5.5s-2.1,1.9-5.2,0l-8.3-13.6
		L407,169.2z"/>
	<path class="st30" d="M409.8,174.6c0,0,10.3,14,13.2,19.4l-6.2,3c0,0-9.5-11.9-9.7-13.7S409.8,174.6,409.8,174.6"/>
	<path class="st30" d="M374.6,174.8c0,0,23.8,10,32.3,8.5l9.7,13.7c0,0-11.3,6.6-19.5,10.3c-3.9,2.3-7.4,5.3-10.1,9
		c0,0-5,6.7-10.8,8.7c0,0,8.5-12.5,8.4-16.8c0,0-6.4,6.6-13.9,8.8c0,0,14.6-10.5,10.4-21.5C381.4,195.5,374.9,176.5,374.6,174.8"/>
	<path class="st4" d="M375.3,154c-2.4,0.1-2.9,3.1-1.5,5.7c1.2,2.4,3.5,3.9,6.2,4c2.4,0,3.9-1.6,3.5-4.5
		C383,156.2,378.4,153.8,375.3,154"/>
	<path class="st6" d="M381.2,130.9c-3.1,0.4-5.4,3.4-5.4,6.9s2.5,6.1,5.6,6.1s6.2-1.5,6.8-4.9C389.3,132.7,384.8,130.4,381.2,130.9"
		/>
	<path class="st18" d="M330.2,131.4l-1,13.2c0,0-8.1-4.1-10.4-5.7c-1.2-0.8-5.7-5.5-0.6-6.3C321.4,132.1,330.2,131.4,330.2,131.4"/>
	<path class="st18" d="M403.6,140.1c0,2.8,2.2,3.4,5.6,3.4s8.5-1.8,8.5-6.1c0-2.8-2.7-5.6-6.1-5.6S403.6,137.4,403.6,140.1"/>
	<path class="st3" d="M380.1,134c-0.3,0.5-0.1,1.1,0.4,1.4c0.1,0,0.1,0.1,0.2,0.1c0.6,0.3,1.2,0,1.5-0.5s0-1.2-0.5-1.5
		C381,133.1,380.4,133.4,380.1,134L380.1,134"/>
	<path class="st3" d="M365.4,123.5c-0.3,0.5-0.1,1.2,0.4,1.4c0.5,0.2,1.1,0,1.3-0.4c0.3-0.5,0.2-1.2-0.3-1.5
		S365.7,122.9,365.4,123.5C365.4,123.4,365.4,123.5,365.4,123.5"/>
	<path class="st31" d="M410.3,171.8c-1.7-2.2-3.7-4.2-5.8-6.1l2.5,17.8C408.6,179.8,409.7,175.8,410.3,171.8"/>
	<path class="st31" d="M372.4,166.9c0,0,0.4,6.4,0.9,7.8c0,0,25.6,10,33.7,8.8C407,183.5,383.8,167,372.4,166.9"/>
	<path class="st29" d="M382.5,181.5c-0.3-1.9-4.3-3.6-4.9,0.4c-0.7,4.6-0.2,9.4,1.4,13.7c1,2.6,4.7,6.2,11.8,3.9
		c0,0-0.1,2.7,1.8,2.4c0.5-0.1,1.1-0.4,0.5-1.9c0,0,1.7,1.9,2.8,1.1c0,0,1.4-0.5-1.1-3.3c0,0,2.4,2.2,3.4,0.6c0,0,1.4-2-3.2-3.5
		c-1.8-0.6-4.1,0.5-8.2,0.9c-1.6,0.2-3.7-0.2-4-5C382.9,190.9,382.7,183.3,382.5,181.5"/>
	<path class="st6" d="M415.2,186c-0.8-0.1-1.4,0.5-1.5,1.3c0,0.1,0,0.2,0,0.3c0.1,0.9,0.8,1.6,1.7,1.6c0.7,0.1,1.3-0.5,1.4-1.2
		c0-0.1,0-0.2,0-0.3C416.9,186.8,416.2,186,415.2,186C415.3,186,415.2,186,415.2,186"/>
	<path class="st32" d="M408.1,183.7l3.6,5.1c1.5,2.2,2.9,4.6,4.1,7"/>
	<path class="st33" d="M404.5,162.5c2.9,2.4,4.9,5.8,5.6,9.6c-2.6,0.4-5.2,0.4-7.8,0l-1.7-2.9C400.6,169.3,402.4,164.3,404.5,162.5"
		/>
	<path class="st33" d="M397.8,170.8c0,0-5.6,0.1-8,1.3c1.2,4.1,6.4,8.1,6.4,8.1s3.9-5,4.3-6.8C400.5,173.5,398.2,172.6,397.8,170.8"
		/>
	<path class="st34" d="M398.4,172.5c0.9,0.8,2.3,0.7,3.1-0.3s0.7-2.3-0.3-3.1c-0.8-0.7-2-0.7-2.8,0
		C397.5,170.1,397.5,171.6,398.4,172.5"/>
</g>
<g id="Capa_2_00000082360210376339492310000015660338526527470210_">
	<g id="Capa_1-2_00000093174128595340700110000008796988722096715198_">
		<path class="st35" d="M438.2,207.2c1.4,35.5,32.4,50.1,69.9,48.6s67.3-18.6,65.8-54c-1.2-30.1-23.5-43.9-53-46.5
			c-2-4.9-4.6-9.2-7.8-13c-6.3-7-15.5-10.1-15.5-10.1s7.1,7.2,10,14.4c1,2.5,1.8,5.4,2.2,8.2c-1.9,0.1-3.8-0.1-5.8,0
			C466.7,156.2,436.8,171.4,438.2,207.2z"/>
	</g>
</g>
</svg>
