<?xml version="1.0" encoding="utf-8"?>
<!-- Generator: Adobe Illustrator 26.2.1, SVG Export Plug-In . SVG Version: 6.00 Build 0)  -->
<svg version="1.1" id="Capa_1" xmlns="http://www.w3.org/2000/svg" xmlns:xlink="http://www.w3.org/1999/xlink" x="0px" y="0px"
	 viewBox="0 0 202.6 178.2" style="enable-background:new 0 0 202.6 178.2;" xml:space="preserve">
<style type="text/css">
	.st0{fill:none;stroke:#211915;stroke-width:0.7;stroke-linecap:round;}
	.st1{fill:none;stroke:#85B266;stroke-width:0.48;stroke-linecap:round;stroke-miterlimit:10;}
	.st2{fill:#DEA8C3;}
	.st3{fill:#FFFFFF;}
	.st4{fill:#F0DAE9;}
	.st5{fill:none;stroke:#D7D7CE;stroke-width:0.35;stroke-linecap:round;}
	.st6{fill:#211915;}
	.st7{fill:#6F4714;}
	.st8{fill:#945B19;}
	.st9{fill:#BF0811;}
	.st10{fill:#111419;}
	.st11{fill:none;stroke:#DEA8C3;stroke-width:0.5;stroke-linecap:round;}
	.st12{fill:#FFFFFF;stroke:#D7D7CE;stroke-width:0.7041;stroke-linecap:round;stroke-linejoin:round;}
	.st13{fill:#CDBF9F;}
	.st14{fill:#B8A98D;}
	.st15{fill:none;stroke:#D7D7CE;stroke-width:0.2898;stroke-linecap:round;stroke-linejoin:round;}
	.st16{fill:#775C7D;}
	.st17{fill:#A886B1;}
	.st18{fill:none;stroke:#FBFAFB;stroke-width:0.6519;stroke-linecap:round;}
	.st19{clip-path:url(#SVGID_00000044898959335676090830000000513545685253940919_);}
	.st20{fill:none;stroke:#211915;stroke-width:0.6809;stroke-linecap:round;}
</style>
<g>
	<g id="Capa_2_00000121969485928544745810000012784102478978840463_">
		<g id="Capa_1-2_00000023998672858301905660000009023136369183410311_">
			<path class="st0" d="M154.7,144.6c0,0-3.2,10.1-3.9,11c-1.3,0-2.7-0.4-3.7-1.2"/>
			<path class="st0" d="M172.3,151.5c0,0,0.8,10.4,0.2,11.4c-1.2,0.4-2.4,0.5-3.6,0.4"/>
			<path class="st0" d="M149.4,137c0,0-9.5,6.6-10.6,6.4s-2-3.2-2-3.2"/>
			<line class="st1" x1="132.1" y1="146.4" x2="145.3" y2="150.4"/>
			<path class="st2" d="M131.3,149c-0.3,0.9-1.2,2.2-2.8,1.7c-0.8-0.2-0.5-2.1,0.3-3.3c0.4-0.6,1.4-1.5,2.1-1.1
				S131.6,148.3,131.3,149"/>
			<path class="st2" d="M130.9,144.2c0,0-2.5-3.6-4.5-2.3c0,0-1.9,1.6,1,3.1c0.9,0.4,1.8,0.5,2.7,0.4
				C130.3,145,130.6,144.6,130.9,144.2"/>
			<path class="st2" d="M130.5,145.3c-1.3-0.3-2.7-0.3-4-0.1c0,0-2.4,0.7-1,2.5c0.6,0.8,2.4,0.6,4.1-0.7c0.3-0.2,1.3-0.7,1.3-0.7
				L130.5,145.3z"/>
			<path class="st2" d="M130.6,144.3c0,0-3-4.7,0.1-4.5c1,0.1,2.5,0.6,1.4,4l-0.5,0.8C131.4,144.3,130.9,144.2,130.6,144.3"/>
			<path class="st2" d="M132.2,146c-0.3,0.6-0.9,0.9-1.5,0.8c0,0,1,4.8,3.1,3.5C136.2,148.9,132.9,146.1,132.2,146"/>
			<path class="st2" d="M131.8,144.2c0,0,0.5-2.8,2.5-2.8c0.8,0,2.8,1.5,0.6,2.8c-0.6,0.4-1.4,0.5-2.6,1.1
				C132.3,145.3,132,144.3,131.8,144.2"/>
			<path class="st2" d="M132.4,145c0,0,3-1.1,3.6,0.2c0.2,0.5-0.3,2.1-2.4,1.6c-0.6,0-1.1-0.2-1.5-0.7
				C132.1,146.1,132.5,145.2,132.4,145"/>
			<path class="st3" d="M132.5,145.4c0,0.9-0.7,1.6-1.5,1.6c-0.1,0-0.1,0-0.2,0c-0.8-0.1-1.4-0.7-1.4-1.5c0-0.9,0.7-1.7,1.6-1.7
				c0.1,0,0.1,0,0.2,0C131.9,143.8,132.5,144.5,132.5,145.4C132.5,145.4,132.5,145.4,132.5,145.4"/>
			<path class="st4" d="M154,106.2c0,0,17.4-17.5,42.6-12.3c0,0,3.6,0.9,1.2,3.5s-4.6,5.3-0.1,12c2,1,2.9,3.4,2.1,5.6
				c-1.4,3.8-6.5,2.8-6.3,6.4s1.3,3.9-1.9,7.3c0,0-1.6,0.9-4.5-0.9c-2.8-1.7-21.3-13.9-21.8-14.4L154,106.2z"/>
			<path class="st2" d="M163.4,112.1l1-1.4c0.8,0.6,1.3,1.4,1.6,2.3l-0.4,0.6C165.6,113.5,163.5,112.1,163.4,112.1"/>
			<path class="st3" d="M161.1,110.9l1.5-2.2c0.9,0.3,1.6,1,1.9,1.9l-1.1,1.5C163.4,112.1,161.6,110.8,161.1,110.9"/>
			<path class="st2" d="M158.7,109.4l1.7-2.6c0.9,0.3,1.8,0.9,2.4,1.7l-1.6,2.4C160.4,110.3,159.6,109.8,158.7,109.4"/>
			<path class="st3" d="M155.6,108.2l2-2.9c1.1,0.2,2.1,0.7,2.9,1.4l-1.9,2.8C158.6,109.5,156.2,108.1,155.6,108.2"/>
			<path class="st2" d="M152.6,107.1c0,0,1.6-2.7,3.4-2.5c0.6,0.1,1.2,0.3,1.8,0.5l-2,3C154.7,107.7,153.7,107.4,152.6,107.1"/>
			<path class="st3" d="M141.5,114.8c0,1.9-0.7,4.2-3.6,4.2c-3.1,0-3.6-2-3.6-4c0-2,1.6-3.6,3.6-3.6c0,0,0.1,0,0.1,0
				C140,111.4,141.5,112.9,141.5,114.8C141.5,114.8,141.5,114.8,141.5,114.8"/>
			<path class="st5" d="M141.5,114.8c0,1.9-0.7,4.2-3.6,4.2c-3.1,0-3.6-2-3.6-4c0-2,1.6-3.6,3.6-3.6c0,0,0.1,0,0.1,0
				C140,111.4,141.5,112.9,141.5,114.8C141.5,114.8,141.5,114.8,141.5,114.8"/>
			<path class="st6" d="M138,115.8c0,0.3-0.2,0.6-0.5,0.6s-0.6-0.2-0.6-0.5c0,0,0-0.1,0-0.2c0-0.3,0.2-0.6,0.5-0.6s0.6,0.2,0.6,0.5
				C138,115.7,138,115.8,138,115.8"/>
			<line class="st1" x1="138.7" y1="142.7" x2="144" y2="151.5"/>
			<path class="st7" d="M158.7,152.3c6.2,4.6,17.6,4.2,22.2-0.3c7.7-7.6-0.2-20.8-0.2-20.8s-4,7.8-8.3,12.1
				C167.1,148.6,158.7,152.2,158.7,152.3"/>
			<path class="st8" d="M157.7,152.7c0,0,8.2-2.2,16.1-10.4c4.2-4.5,7.1-11.8,7.1-11.8c-0.7-2-1.6-3.8-2.8-5.5c-3-4-4.6-5.9-4.6-5.9
				s-0.8,10.5-6.9,16.2c-4.6,4.3-9.9,7.9-15.6,10.8c1.1,1.4,2.3,2.8,3.6,4.1C155.7,151.2,157.7,152.7,157.7,152.7"/>
			<path class="st8" d="M145.2,138.1c0,0,17.7-7.7,21.4-23.9c0,0-12.3-9.5-20.1-7.2c0,0-10.9,1.3-7.6,17.4
				C138.9,124.4,141.4,133,145.2,138.1"/>
			<path class="st7" d="M150.5,146.6c0,0,5.6-1.6,15.6-10.6c7.5-6.7,7.9-16.9,7.9-16.9c-1.2-1.1-2.5-2-3.8-2.9
				c-3.6-2.5-3.6-1.9-3.6-1.9c-1.4,5.5-4.3,10.5-8.4,14.5c-3.9,3.9-8.5,7.1-13.5,9.5c0,0,0.8,1.6,2.8,4.6
				C148.4,144.1,149.4,145.4,150.5,146.6"/>
			<path class="st9" d="M134.6,142.4c0,0-1.9,1.7-1.2,2.6c0.5,0.6,1.1,1.4,3.1-0.2c0.6-0.4,0.8-1.2,0.7-1.9c-0.3-0.3-0.6-0.6-0.8-1
				C135.8,142.3,135.2,142.4,134.6,142.4"/>
			<path class="st9" d="M138.1,137.3c0.2,1.2,0.1,3.4-0.8,3.4s-2.3-1.2-2.5-3.1c-0.1-0.9,0.6-2.1,1.4-2.1
				C137.2,135.5,138,136.3,138.1,137.3C138.1,137.3,138.1,137.3,138.1,137.3"/>
			<path class="st9" d="M136.6,140.2c0,0-3.1-2.1-4.3-0.6c-0.5,0.6-1,2.6,1.6,2.9c0.8,0.1,1.7-0.1,2.4-0.5
				C136.4,141.4,136.5,140.8,136.6,140.2"/>
			<path class="st9" d="M137.8,140.2c0,0-0.1-4.3,3-3.7c0.8,0.1,1.6,1.2,0.6,2.8c-0.6,0.9-1.5,1.5-2.6,1.7
				C138.7,141,138.2,140.5,137.8,140.2"/>
			<path class="st9" d="M138.8,140.9c1.2-0.7,2.7-0.5,3.7,0.4c0.6,0.5,0.8,2.7-2.2,2.4c0,0-1.6-0.3-2-1.6
				C138.3,142.2,139,141.2,138.8,140.9"/>
			<path class="st9" d="M138.6,142.3c0,0,2.5,3.4,0.4,4.4c-1,0.4-3.1-0.3-2.1-3.8c0,0,1.1,0,1.4-0.4"/>
			<path class="st2" d="M137.5,139.9c-0.9,0.1-1.7,0.9-1.6,1.8c0,0.9,0.8,1.6,1.7,1.6c0,0,0,0,0,0c0.8,0,1.5-0.6,1.6-1.4
				c0,0,0-0.1,0-0.1C139.2,140.7,138.5,139.9,137.5,139.9"/>
			<path class="st10" d="M143.3,126.9c0,0,4.2-1.7,7.4-0.8c0,0-0.3-4.4-4.6-3.9C146.2,122.2,143.5,123.1,143.3,126.9"/>
			<path class="st3" d="M154.4,114.3c0.1,2-1.4,3.8-3.4,3.9c-0.2,0-0.3,0-0.5,0c-1.8,0.1-3.4-1.9-3.4-4s1.5-4,3.3-4.1
				c2.2,0,4,1.8,4,4C154.4,114.2,154.4,114.3,154.4,114.3"/>
			<path class="st6" d="M152.2,114.4c0,0.4-0.2,0.7-0.6,0.7s-0.7-0.2-0.7-0.6c0-0.1,0-0.1,0-0.2c0-0.4,0.2-0.7,0.6-0.7
				s0.7,0.2,0.7,0.6C152.2,114.3,152.2,114.3,152.2,114.4"/>
			<path class="st11" d="M170.5,103.6c4.3-2.4,12.7-3.4,17.9-2.5"/>
			<path class="st11" d="M171.2,109.5c5.1,0.1,10.1,1.4,14.6,3.7"/>
			<path class="st0" d="M178.7,150.5c0,0,2.6,11.7,2,12.7c-1.2,0.6-2.5,0.9-3.8,0.7"/>
			<path class="st0" d="M158.8,149.3c0,0-1.3,11.1-2.1,12s-4.3-0.1-4.3-0.1"/>
			<path class="st0" d="M149.6,140.8c0,0-7.9,8.4-9.1,8.5s-2.7-2.7-2.7-2.7"/>
		</g>
	</g>
</g>
<g id="Capa_2_00000082360210376339492310000015660338526527470210_">
	<g id="Capa_1-2">
		<path class="st12" d="M189.1,45.4c0-29.1-25.3-42.1-56.4-42.1s-56.4,13-56.4,42.1c0,24.7,18.1,36.7,42.4,39.8
			c1.4,4.1,3.5,7.7,6,10.9c5,5.9,12.6,8.8,12.6,8.8s-5.6-6.1-7.9-12.1c-0.8-2.1-1.3-4.5-1.6-6.8c1.6,0,3.1,0.2,4.8,0.2
			C163.8,86.2,189.1,74.7,189.1,45.4z"/>
	</g>
</g>
<g>
	<path class="st13" d="M41.7,157.7c0,0-1.9,3.9-2.3,4.3c-1.8-0.9-3.4-2.1-4.8-3.5l1-1.3L41.7,157.7z"/>
	<path class="st13" d="M9.5,172.8c0,0-6.6,0-8.4-0.9c0,0,1.8,3.2,10.1,3C10.6,174.2,10,173.5,9.5,172.8"/>
	<path class="st14" d="M15.1,171.9c-2,0.5-4,0.7-6,0.7c0.2,0.9,0.8,1.8,1.5,2.3c0,0,1.6,0.5,6.2-0.3C15.9,173.9,15.3,173,15.1,171.9
		"/>
	<path class="st13" d="M18.4,171.1c0.4,1.3,2.2,2.8,2.2,2.8c-1.2,0.4-2.5,0.7-3.7,0.7c-1.4-0.5-2.1-2.9-2.1-2.9
		C16.4,171.5,18.4,171,18.4,171.1"/>
	<path class="st14" d="M21.6,169.7c-1.2,0.5-2.5,1-3.8,1.3c0,0,1.4,2.8,2.7,3.2c0,0,1.5,0.2,3.8-1.4C24.4,172.7,22,170.7,21.6,169.7
		"/>
	<path class="st13" d="M28.5,171c-1.3,0.8-2.6,1.5-4,2c-1.2-0.9-2.3-2.1-3.1-3.4c1.4-0.5,2.8-1.1,4.1-1.7
		C25.4,167.9,27.9,170.9,28.5,171"/>
	<path class="st14" d="M31.9,168.6c-1,1-2.1,1.8-3.3,2.5c-1.5-0.7-2.7-1.9-3.5-3.4c1.3-0.6,2.5-1.4,3.6-2.2
		C28.7,165.6,31.4,168.4,31.9,168.6"/>
	<path class="st13" d="M32.1,162.1c-1.2,1.2-2.4,2.3-3.8,3.4c0,0,1.6,2.5,3.6,3.2c0,0,3.3-2.6,3.6-3
		C34.3,164.6,33.1,163.4,32.1,162.1"/>
	<path class="st14" d="M34.7,158.6c-0.8,1.1-1.7,2.2-2.7,3.2c0,0,1.9,3.2,3.9,4c0,0,2.8-3.6,3.2-4C37.6,160.9,36.1,159.8,34.7,158.6
		"/>
	<path class="st14" d="M47.2,70.6c0,0-0.3-11.9-9.5-10.6c0,0-3.5,0.2-4.7,3.1c-0.8,2.1-0.5,4.4,0.7,6.3l2.6,4.3
		C39.5,71.5,43.4,70.3,47.2,70.6"/>
	<path class="st13" d="M60.1,155.2c0,0-0.1,15,0.2,15.7c0.6,1,2.9,0.5,3.6,2.3c0.7,1.8-1.8,2.2-2.5,1.5l-0.9-0.8
		c0,0,0.9,2.2-1.4,2.6c-0.9,0.1-1.6-0.6-1.7-1.5c0-0.2,0-0.4,0.1-0.6c0,0-1,2.1-2.5,1.5c0,0-2.2-0.9,0.2-4c0.9-2.6,1.3-5.4,1.3-8.1
		v-8.7L60.1,155.2z"/>
	<path class="st13" d="M45.4,155.4c0,0-0.3,13.9,0,14.6c0.7,0.7,1.4,1.4,2.2,2c0.6,0.5,1.7,2.5,0.7,3.2c0,0-1.2,0.7-2.1-1.6
		c0,0,0.6,2.5-1.3,2.5c0,0-1.7,0.2-2.1-2.2c0,0-0.4,1.9-1.8,1.6c0,0-2.1-0.8-1.2-2.8c0.4-0.9,1.6-2.4,1.4-3.9l0.4-13.5L45.4,155.4z"
		/>
	<path class="st3" d="M57.3,71.9c0,0,1.3-5.5,6.3-4.4c2.3,0.5,6.2,2.2,5.4,7.8c0,0-7.5-0.6-11.1-3.2"/>
	<path class="st15" d="M57.3,71.9c0,0,1.3-5.5,6.3-4.4c2.3,0.5,6.2,2.2,5.4,7.8c0,0-7.5-0.6-11.1-3.2"/>
	<path class="st13" d="M37.3,118.6c0,0,0.5-13.5-6.4-22.7c-1.9-3.6-2.9-7.7-2.8-11.8c0,0-12.2-4.3-6.9-12.5
		c1.8-2.8,7.8-5.7,12.8,3.3c0,0,10.1-10,27-2.6c13.8,6.1,37.5,5.9,37.5,5.9h0.4c0,0,7.5,7.7-1.2,12c-17.3,8.7-34.2,12.8-37.8,15.1
		c-2.4,1.5-3.4,4.5-2.3,7.2l2,4.3c0,0-5.1-0.2-5.8,7.7C53.7,124.5,49.3,114.5,37.3,118.6"/>
	<path class="st13" d="M37,112.2c0,0-10.7,1.8-15.6-0.7l-1.3-3.8c0,0-1-2.8-2-0.5v1.5c0,0-2.6-0.5-3.1,0.5c0,0-1.9,1.9,2.8,3.6
		c0,0-3.3-0.4-2.6,2.3c0,0,1.2,2.6,5.6-0.5c0,0,6.1,3.8,16.5,3.5C37.3,118.2,37.2,113.4,37,112.2"/>
	<path class="st13" d="M56.9,112.1c0,0,18.4-4.5,18.8-5c0.4-1,0.9-1.9,1.4-2.8c0.4-0.5,2.3-1.4,2.4,0.9c0,0.7-0.3,1.3-0.7,1.8
		c0,0,2.5-0.7,3,0.5c0,0,0.7,1.5-2.2,2.7c0,0,2.7,0.6,1.6,2.5c-0.7,1.2-4.3-0.5-4.7-1.4c0,0-13.7,3.5-17.6,5L56.9,112.1z"/>
	<path class="st16" d="M62.5,132.8c0,0-15,7.1-25.9,0.8l0.3-15c0,0,12-4.7,16.7,5.9c0,0-0.2-7.8,5.8-7.7
		C59.5,116.8,62.8,127.2,62.5,132.8"/>
	<path class="st17" d="M62.9,132.7c0,0,10.3,13.4,15.2,24c0,0-33.5,5.4-53.7-0.8c2.1-7.5,5.9-14.4,11.1-20.3
		c0.6-0.7,0.9-1.6,0.9-2.5C36.3,133.2,47.2,138.9,62.9,132.7"/>
	<path class="st2" d="M97.7,90.2c0-3.7-0.1-8.2-0.1-12c3.6,0.2,7.2,0.2,10.9-0.1c0,0,5.5-0.7,2.7,3C108.5,84.9,97.7,90.2,97.7,90.2"
		/>
	<path class="st3" d="M42.1,79.7c0,3.1,3,5.3,5.5,5.3c2.5,0,4.7-2.2,4.7-5.3c-0.1-3.2-2.8-5.7-6-5.6c-0.1,0-0.1,0-0.2,0
		C43.7,74.2,42.1,76.6,42.1,79.7"/>
	<path class="st2" d="M31.1,76.4l-1.3,3.1c0,0-6.9-0.3-5.4-4.9C24.5,74.6,26.3,71.3,31.1,76.4"/>
	<path class="st6" d="M61.3,70.3c0,0.4,0.3,0.7,0.7,0.8c0.5,0.1,0.8-0.4,0.8-0.8c0-0.4-0.4-0.8-0.8-0.8
		C61.5,69.5,61.3,69.9,61.3,70.3"/>
	<path class="st6" d="M45.7,77.2c-0.4,0.1-0.8,0.5-0.7,0.9c0,0.4,0.3,0.8,0.7,0.9c0.5,0,0.9-0.3,1-0.8c0,0,0-0.1,0-0.1
		C46.6,77.6,46.2,77.2,45.7,77.2"/>
	<path class="st18" d="M61.3,142.3c0,0,2.2,3.3,3.3,5.5c1.1,2.2,2,4.5,2,4.5"/>
	<path class="st18" d="M38,152.6c0,0,1-3.8,1.9-6.1c0.9-2.3,2-4.5,2-4.5"/>
	<path class="st18" d="M50.4,152.6c0.1-3.2,0.3-6.3,0.8-9.5"/>
	<path class="st3" d="M44.3,91.7c0,0,4.3,10.3,11.7,6.8c0,0-3.3,5.9-9.8,4.8C43.6,102.9,40.5,100.7,44.3,91.7"/>
	<g>
		<defs>
			<path id="SVGID_1_" d="M46.2,103.3c6.5,1.1,9.8-4.8,9.8-4.8c-7.3,3.5-11.7-6.8-11.7-6.8C40.6,100.7,43.6,102.9,46.2,103.3"/>
		</defs>
		<clipPath id="SVGID_00000138571850547288873980000004932398267978934430_">
			<use xlink:href="#SVGID_1_"  style="overflow:visible;"/>
		</clipPath>
		<g style="clip-path:url(#SVGID_00000138571850547288873980000004932398267978934430_);">
			<line class="st20" x1="52.7" y1="98.3" x2="50.4" y2="106.9"/>
			<line class="st20" x1="49.8" y1="96.6" x2="45.4" y2="106.2"/>
			<line class="st20" x1="48.1" y1="94.7" x2="41.5" y2="102.9"/>
		</g>
	</g>
</g>
</svg>
