<?xml version="1.0" encoding="utf-8"?>
<!-- Generator: Adobe Illustrator 26.2.1, SVG Export Plug-In . SVG Version: 6.00 Build 0)  -->
<svg version="1.1" id="Capa_1" xmlns="http://www.w3.org/2000/svg" xmlns:xlink="http://www.w3.org/1999/xlink" x="0px" y="0px"
	 viewBox="0 0 202.6 178.2" style="enable-background:new 0 0 202.6 178.2;" xml:space="preserve">
<style type="text/css">
	.st0{fill:none;stroke:#211915;stroke-width:0.7;stroke-linecap:round;}
	.st1{fill:none;stroke:#85B266;stroke-width:0.48;stroke-linecap:round;stroke-miterlimit:10;}
	.st2{fill:#DEA8C3;}
	.st3{fill:#FFFFFF;}
	.st4{fill:#F0DAE9;}
	.st5{fill:none;stroke:#D7D7CE;stroke-width:0.35;stroke-linecap:round;}
	.st6{fill:#211915;}
	.st7{fill:#6F4714;}
	.st8{fill:#945B19;}
	.st9{fill:#BF0811;}
	.st10{fill:#111419;}
	.st11{fill:none;stroke:#DEA8C3;stroke-width:0.5;stroke-linecap:round;}
	.st12{fill:none;stroke:#D7D7CE;stroke-width:1.1169;stroke-linecap:round;stroke-miterlimit:10;}
	.st13{fill:#D7D7CE;}
	.st14{fill:#538A58;}
	.st15{fill:#C1BFB3;}
	.st16{fill:none;stroke:#D7D7CE;stroke-width:0.4;stroke-linecap:round;stroke-linejoin:round;}
	.st17{clip-path:url(#SVGID_00000071532313599969782540000000297174824862721672_);}
	.st18{fill:none;stroke:#211915;stroke-width:0.94;stroke-linecap:round;}
	.st19{fill:#6EAA6F;}
	.st20{fill:#3F7473;}
	.st21{fill:#61A0A2;}
	.st22{fill:none;stroke:#6EAA6F;stroke-width:0.64;stroke-linecap:round;}
	.st23{fill:none;stroke:#D7D7CE;stroke-width:0.634;stroke-linecap:round;stroke-linejoin:round;}
</style>
<g>
	<g id="Capa_2_00000121969485928544745810000012784102478978840463_">
		<g id="Capa_1-2_00000023998672858301905660000009023136369183410311_">
			<path class="st0" d="M154.7,144.6c0,0-3.2,10.1-3.9,11c-1.3,0-2.7-0.4-3.7-1.2"/>
			<path class="st0" d="M172.3,151.5c0,0,0.8,10.4,0.2,11.4c-1.2,0.4-2.4,0.5-3.6,0.4"/>
			<path class="st0" d="M149.4,137c0,0-9.5,6.6-10.6,6.4s-2-3.2-2-3.2"/>
			<line class="st1" x1="132.1" y1="146.4" x2="145.3" y2="150.4"/>
			<path class="st2" d="M131.3,149c-0.3,0.9-1.2,2.2-2.8,1.7c-0.8-0.2-0.5-2.1,0.3-3.3c0.4-0.6,1.4-1.5,2.1-1.1
				S131.6,148.3,131.3,149"/>
			<path class="st2" d="M130.9,144.2c0,0-2.5-3.6-4.5-2.3c0,0-1.9,1.6,1,3.1c0.9,0.4,1.8,0.5,2.7,0.4
				C130.3,145,130.6,144.6,130.9,144.2"/>
			<path class="st2" d="M130.5,145.3c-1.3-0.3-2.7-0.3-4-0.1c0,0-2.4,0.7-1,2.5c0.6,0.8,2.4,0.6,4.1-0.7c0.3-0.2,1.3-0.7,1.3-0.7
				L130.5,145.3z"/>
			<path class="st2" d="M130.6,144.3c0,0-3-4.7,0.1-4.5c1,0.1,2.5,0.6,1.4,4l-0.5,0.8C131.4,144.3,130.9,144.2,130.6,144.3"/>
			<path class="st2" d="M132.2,146c-0.3,0.6-0.9,0.9-1.5,0.8c0,0,1,4.8,3.1,3.5C136.2,148.9,132.9,146.1,132.2,146"/>
			<path class="st2" d="M131.8,144.2c0,0,0.5-2.8,2.5-2.8c0.8,0,2.8,1.5,0.6,2.8c-0.6,0.4-1.4,0.5-2.6,1.1
				C132.3,145.3,132,144.3,131.8,144.2"/>
			<path class="st2" d="M132.4,145c0,0,3-1.1,3.6,0.2c0.2,0.5-0.3,2.1-2.4,1.6c-0.6,0-1.1-0.2-1.5-0.7
				C132.1,146.1,132.5,145.2,132.4,145"/>
			<path class="st3" d="M132.5,145.4c0,0.9-0.7,1.6-1.5,1.6c-0.1,0-0.1,0-0.2,0c-0.8-0.1-1.4-0.7-1.4-1.5c0-0.9,0.7-1.7,1.6-1.7
				c0.1,0,0.1,0,0.2,0C131.9,143.8,132.5,144.5,132.5,145.4C132.5,145.4,132.5,145.4,132.5,145.4"/>
			<path class="st4" d="M154,106.2c0,0,17.4-17.5,42.6-12.3c0,0,3.6,0.9,1.2,3.5s-4.6,5.3-0.1,12c2,1,2.9,3.4,2.1,5.6
				c-1.4,3.8-6.5,2.8-6.3,6.4s1.3,3.9-1.9,7.3c0,0-1.6,0.9-4.5-0.9c-2.8-1.7-21.3-13.9-21.8-14.4L154,106.2z"/>
			<path class="st2" d="M163.4,112.1l1-1.4c0.8,0.6,1.3,1.4,1.6,2.3l-0.4,0.6C165.6,113.5,163.5,112.1,163.4,112.1"/>
			<path class="st3" d="M161.1,110.9l1.5-2.2c0.9,0.3,1.6,1,1.9,1.9l-1.1,1.5C163.4,112.1,161.6,110.8,161.1,110.9"/>
			<path class="st2" d="M158.7,109.4l1.7-2.6c0.9,0.3,1.8,0.9,2.4,1.7l-1.6,2.4C160.4,110.3,159.6,109.8,158.7,109.4"/>
			<path class="st3" d="M155.6,108.2l2-2.9c1.1,0.2,2.1,0.7,2.9,1.4l-1.9,2.8C158.6,109.5,156.2,108.1,155.6,108.2"/>
			<path class="st2" d="M152.6,107.1c0,0,1.6-2.7,3.4-2.5c0.6,0.1,1.2,0.3,1.8,0.5l-2,3C154.7,107.7,153.7,107.4,152.6,107.1"/>
			<path class="st3" d="M141.5,114.8c0,1.9-0.7,4.2-3.6,4.2c-3.1,0-3.6-2-3.6-4c0-2,1.6-3.6,3.6-3.6c0,0,0.1,0,0.1,0
				C140,111.4,141.5,112.9,141.5,114.8C141.5,114.8,141.5,114.8,141.5,114.8"/>
			<path class="st5" d="M141.5,114.8c0,1.9-0.7,4.2-3.6,4.2c-3.1,0-3.6-2-3.6-4c0-2,1.6-3.6,3.6-3.6c0,0,0.1,0,0.1,0
				C140,111.4,141.5,112.9,141.5,114.8C141.5,114.8,141.5,114.8,141.5,114.8"/>
			<path class="st6" d="M138,115.8c0,0.3-0.2,0.6-0.5,0.6s-0.6-0.2-0.6-0.5c0,0,0-0.1,0-0.2c0-0.3,0.2-0.6,0.5-0.6s0.6,0.2,0.6,0.5
				C138,115.7,138,115.8,138,115.8"/>
			<line class="st1" x1="138.7" y1="142.7" x2="144" y2="151.5"/>
			<path class="st7" d="M158.7,152.3c6.2,4.6,17.6,4.2,22.2-0.3c7.7-7.6-0.2-20.8-0.2-20.8s-4,7.8-8.3,12.1
				C167.1,148.6,158.7,152.2,158.7,152.3"/>
			<path class="st8" d="M157.7,152.7c0,0,8.2-2.2,16.1-10.4c4.2-4.5,7.1-11.8,7.1-11.8c-0.7-2-1.6-3.8-2.8-5.5c-3-4-4.6-5.9-4.6-5.9
				s-0.8,10.5-6.9,16.2c-4.6,4.3-9.9,7.9-15.6,10.8c1.1,1.4,2.3,2.8,3.6,4.1C155.7,151.2,157.7,152.7,157.7,152.7"/>
			<path class="st8" d="M145.2,138.1c0,0,17.7-7.7,21.4-23.9c0,0-12.3-9.5-20.1-7.2c0,0-10.9,1.3-7.6,17.4
				C138.9,124.4,141.4,133,145.2,138.1"/>
			<path class="st7" d="M150.5,146.6c0,0,5.6-1.6,15.6-10.6c7.5-6.7,7.9-16.9,7.9-16.9c-1.2-1.1-2.5-2-3.8-2.9
				c-3.6-2.5-3.6-1.9-3.6-1.9c-1.4,5.5-4.3,10.5-8.4,14.5c-3.9,3.9-8.5,7.1-13.5,9.5c0,0,0.8,1.6,2.8,4.6
				C148.4,144.1,149.4,145.4,150.5,146.6"/>
			<path class="st9" d="M134.6,142.4c0,0-1.9,1.7-1.2,2.6c0.5,0.6,1.1,1.4,3.1-0.2c0.6-0.4,0.8-1.2,0.7-1.9c-0.3-0.3-0.6-0.6-0.8-1
				C135.8,142.3,135.2,142.4,134.6,142.4"/>
			<path class="st9" d="M138.1,137.3c0.2,1.2,0.1,3.4-0.8,3.4s-2.3-1.2-2.5-3.1c-0.1-0.9,0.6-2.1,1.4-2.1
				C137.2,135.5,138,136.3,138.1,137.3C138.1,137.3,138.1,137.3,138.1,137.3"/>
			<path class="st9" d="M136.6,140.2c0,0-3.1-2.1-4.3-0.6c-0.5,0.6-1,2.6,1.6,2.9c0.8,0.1,1.7-0.1,2.4-0.5
				C136.4,141.4,136.5,140.8,136.6,140.2"/>
			<path class="st9" d="M137.8,140.2c0,0-0.1-4.3,3-3.7c0.8,0.1,1.6,1.2,0.6,2.8c-0.6,0.9-1.5,1.5-2.6,1.7
				C138.7,141,138.2,140.5,137.8,140.2"/>
			<path class="st9" d="M138.8,140.9c1.2-0.7,2.7-0.5,3.7,0.4c0.6,0.5,0.8,2.7-2.2,2.4c0,0-1.6-0.3-2-1.6
				C138.3,142.2,139,141.2,138.8,140.9"/>
			<path class="st9" d="M138.6,142.3c0,0,2.5,3.4,0.4,4.4c-1,0.4-3.1-0.3-2.1-3.8c0,0,1.1,0,1.4-0.4"/>
			<path class="st2" d="M137.5,139.9c-0.9,0.1-1.7,0.9-1.6,1.8c0,0.9,0.8,1.6,1.7,1.6c0,0,0,0,0,0c0.8,0,1.5-0.6,1.6-1.4
				c0,0,0-0.1,0-0.1C139.2,140.7,138.5,139.9,137.5,139.9"/>
			<path class="st10" d="M143.3,126.9c0,0,4.2-1.7,7.4-0.8c0,0-0.3-4.4-4.6-3.9C146.2,122.2,143.5,123.1,143.3,126.9"/>
			<path class="st3" d="M154.4,114.3c0.1,2-1.4,3.8-3.4,3.9c-0.2,0-0.3,0-0.5,0c-1.8,0.1-3.4-1.9-3.4-4s1.5-4,3.3-4.1
				c2.2,0,4,1.8,4,4C154.4,114.2,154.4,114.3,154.4,114.3"/>
			<path class="st6" d="M152.2,114.4c0,0.4-0.2,0.7-0.6,0.7s-0.7-0.2-0.7-0.6c0-0.1,0-0.1,0-0.2c0-0.4,0.2-0.7,0.6-0.7
				s0.7,0.2,0.7,0.6C152.2,114.3,152.2,114.3,152.2,114.4"/>
			<path class="st11" d="M170.5,103.6c4.3-2.4,12.7-3.4,17.9-2.5"/>
			<path class="st11" d="M171.2,109.5c5.1,0.1,10.1,1.4,14.6,3.7"/>
			<path class="st0" d="M178.7,150.5c0,0,2.6,11.7,2,12.7c-1.2,0.6-2.5,0.9-3.8,0.7"/>
			<path class="st0" d="M158.8,149.3c0,0-1.3,11.1-2.1,12s-4.3-0.1-4.3-0.1"/>
			<path class="st0" d="M149.6,140.8c0,0-7.9,8.4-9.1,8.5s-2.7-2.7-2.7-2.7"/>
		</g>
	</g>
</g>
<g>
	<path class="st12" d="M40.9,155.7c0,0-22.6,8.4-26.2-2c-2.3-6.7,13.1-16.1-1.4-18.4c-3.3-0.5-13.1-2.8-5.9-8.7
		c1.8-1.5,9.2-5,9.2-0.7c0,0.8-1.6,3.1-3.9,2.2c-0.6-0.2-1.2-1.5,1.4-2.1"/>
	<path class="st13" d="M33.7,112.8c0,0-13.4,3-18.5-1.9c-0.4-0.3-1.8-6.3-4.6-4.4c-1.2,0.8-0.2,2.8,0.4,4.1c-2.2-1-4.4-1.4-5.4,0.7
		c-0.6,1.2,0.9,2.8,4.8,3.6c0,0-3.2,1.3-2.7,2.9c0.5,1.5,2.3,3.4,6.2-0.5c0,0,8.2,3.2,20.6,3.1C34.4,117.8,34.1,115.3,33.7,112.8"/>
	<path class="st14" d="M41.3,142.4c0,0-7.8,15.2-13.6,19.5c0,0,6.9-43.7,5.6-49.4c0,0,24.5,13,25.1,12.3l3.5,16.4
		C62,141.1,51.1,144.6,41.3,142.4"/>
	<path class="st13" d="M41.3,142.4c0,0,14.7,2.9,32.2-5.8c0,0,2.9,11.3-7.2,16.9c-5.7,3.2-12.6,7.5-27.2,1.7c0,0-3.2-1.6-3.5-3.3
		L41.3,142.4z"/>
	<path class="st15" d="M66,59.4c0,0,6.2-22.6-10.5-22c-4.8,0.2-15.9,1.4-11.5,16.8c0.8,2.1,1.8,4.1,2.9,6
		C53.2,59.1,59.6,58.9,66,59.4"/>
	<path class="st3" d="M70.1,59.6c0,0,0.4-7.6,8.8-5.2c3.9,1.4,6.3,5.3,5.6,9.4C84.5,63.8,74.7,62.9,70.1,59.6"/>
	<path class="st16" d="M70.1,59.6c0,0,0.4-7.6,8.8-5.2c3.9,1.4,6.3,5.3,5.6,9.4C84.5,63.8,74.7,62.9,70.1,59.6"/>
	<path class="st13" d="M112.8,83.5c-19.5,6.3-41.2,13.2-45.9,16.1c0,0-3.4,1.5-2.1,8.8c0,0-2.5,10.9-7.1,15
		c-1.7,1.5-9.9-12.1-11.3-12.7c-3.8-2.4-7.9-4.5-12-6.3c0,0-6.6-18.7-4.4-24.8c0,0-15.8,4.3-21.6-9.9c-3.5-8.4,2.4-16.7,10-20
		c0,0,13.7-7.3,23.6,13.2c0,0,11.6-10.3,35.9-2c16.5,5.6,36.8,9.2,36.8,9.2L112.8,83.5z"/>
	<path class="st13" d="M65.7,109.9c0,0,13.7-0.7,17.3-6.8c0.2-0.4,0-6.6,3.3-5.5c1.4,0.4,1,2.6,0.8,4.1c1.8-1.6,3.8-2.6,5.4-0.8
		c0.9,1-0.1,2.9-3.6,4.7c0,0,3.4,0.4,3.4,2.1c-0.1,1.5-1.3,3.9-6.1,1.2c-6,3.4-12.5,6-19.2,7.7C66.3,114.4,66,112.1,65.7,109.9"/>
	<path class="st2" d="M111.6,83.8c0-4.9,0.7-9.3,0.7-14.2c0,0,5.5,0.7,10.6,2c0,0,4.6,1.3,0.1,5.9C119.7,80.8,111.6,83.9,111.6,83.8
		"/>
	<path class="st3" d="M50.1,69.6c0,3.7,3,6.6,6.6,6.6s6.6-3,6.6-6.6c0-4-3.1-7.9-7.9-7.3C52.1,62.7,50.1,65.6,50.1,69.6"/>
	<path class="st2" d="M35.7,70c-0.5,0.8-1.2,1.5-1.8,2.1c-6.5,0.6-17.1-2.4-12.3-10.8C23.4,58.1,29.4,56.8,35.7,70"/>
	<path class="st3" d="M68.8,86c0,0-8.1,6.5-14-1.1c0,0-2.6,9.6,4.9,11.9C62.6,97.7,67.9,97.5,68.8,86"/>
	<g>
		<defs>
			<path id="SVGID_1_" d="M59.7,96.8c2.9,0.9,8.2,0.7,9.1-10.8c0,0-8.1,6.5-14-1.1C54.8,84.9,52.2,94.4,59.7,96.8"/>
		</defs>
		<clipPath id="SVGID_00000028316836875050156380000004421218841987340209_">
			<use xlink:href="#SVGID_1_"  style="overflow:visible;"/>
		</clipPath>
		<g style="clip-path:url(#SVGID_00000028316836875050156380000004421218841987340209_);">
			<line class="st18" x1="58.5" y1="87" x2="55.4" y2="97.1"/>
			<line class="st18" x1="62.4" y1="87" x2="61" y2="99.6"/>
			<line class="st18" x1="65.3" y1="86.2" x2="67" y2="98.5"/>
		</g>
	</g>
	<path class="st6" d="M73.8,57.9c0,0.5,0.3,0.9,0.8,0.9c0,0,0.1,0,0.1,0c0.6,0,1-0.5,1-1c0-0.6-0.5-1-1-1
		C74.1,56.8,73.7,57.3,73.8,57.9C73.8,57.8,73.8,57.9,73.8,57.9"/>
	<path class="st6" d="M53.8,67.4c-0.1,0.5,0.3,1.1,0.9,1.1c0,0,0,0,0.1,0c0.5,0.1,1.1-0.2,1.2-0.8c0-0.1,0-0.3,0-0.4
		c0-0.6-0.5-1.1-1.1-1.1C54.3,66.4,53.8,66.9,53.8,67.4"/>
	<path class="st19" d="M33.8,104.3l-0.7,8.4c0,0,21.2,11.4,25.4,12.2c0,0-4.8-10.3-11.2-14.2c0,0-10-6.4-13-6.5"/>
	<path class="st19" d="M67.2,110.9c0,0-0.8-3.5-3-4.3c-2.2-0.9-3.6,11.9-6.6,16.7l0.8,1.7C58.4,124.9,66.4,119.6,67.2,110.9"/>
	<path class="st14" d="M73.5,136.6c0,0-0.2-4.8-3.3-12.1c-1.9-4.2-2.9-8.7-3-13.2c0,0-1.2,8.6-8.7,13.5l3.4,16.2
		C65.8,139.9,69.7,138.4,73.5,136.6"/>
	<path class="st3" d="M67,130.8c0,0.9-0.8,1.6-1.7,1.6c-0.9,0-1.6-0.8-1.6-1.7c0-0.9,0.8-1.6,1.7-1.6C66.2,129.1,67,129.9,67,130.8
		C67,130.8,67,130.8,67,130.8"/>
	<path class="st20" d="M46.6,105.6c-0.7,3.8-0.1,7.7,1.8,11c2.2-1.4,4.2-3,6-4.9l-0.5-3.3C53.8,108.3,49.3,105.7,46.6,105.6"/>
	<path class="st20" d="M56.9,107.8c0,0,4.4-3.4,7-4.1c1.7,4,0.2,10.3,0.2,10.3s-6.2-1.4-7.6-2.5C56.6,111.5,57.7,109.4,56.9,107.8"
		/>
	<path class="st21" d="M57.6,109.5c-0.2,1.2-1.4,2-2.6,1.8c-1.2-0.2-2-1.4-1.8-2.6c0.2-1,1.1-1.8,2.2-1.8
		C56.7,107,57.7,108.1,57.6,109.5"/>
	<path class="st13" d="M40.9,154.7c0,0,0.4,18.4,1.2,21.1c1,1.4,4.6,1.9,6.7,1.4c0.5-0.1,2.3-1,0.6-2l-1.7-0.4
		c0.1,0,3.2,0.6,3.9-0.6c0.4-0.5,0.2-1.2-0.3-1.6c-0.1-0.1-0.3-0.1-0.4-0.2c-0.9-0.1-1.9-0.1-2.8-0.1c0,0,3.9,0,3-2.1
		c-0.5-1.2-4.3-0.7-5-0.1c0,0,0-12.5,0.1-15.3L40.9,154.7z"/>
	<path class="st13" d="M59.2,152.3c0,0,0.4,18.5,1.2,21.1c1,1.4,4.6,1.9,6.7,1.4c0.5-0.1,2.3-1,0.6-2l-1.7-0.4
		c0.1,0,3.2,0.6,3.9-0.6c0.4-0.5,0.3-1.2-0.3-1.6c-0.1-0.1-0.3-0.2-0.5-0.2c-0.9-0.1-1.9-0.1-2.8-0.1c0,0,3.9,0,3-2.1
		c-0.5-1.2-4.3-0.7-5-0.2c0,0-0.2-12.4-0.1-15.3L59.2,152.3z"/>
	<path class="st22" d="M58.5,126.1c0,0,1.3,5.2,1.8,7.6l1.3,6"/>
</g>
<path class="st23" d="M170.2,46.5c0-15.7-9.6-24.7-28.1-25.4c-17.2-0.6-36.6,3.5-36.4,24.2c0.1,14.1,12.9,22.8,26.7,23.9
	c1.4,3.4,3.4,6.5,5.8,9.2C143,83.3,150.9,91,150.9,91s-6-10.4-8.1-15.5c-0.8-1.8-1.3-3.8-1.5-5.7C152.6,69.6,170.1,66.4,170.2,46.5z
	"/>
</svg>
