<svg xmlns="http://www.w3.org/2000/svg" viewBox="0 0 504.12 446.77"><defs><style>.cls-1{fill:#eeca1a;}.cls-2{fill:#bf0811;}.cls-3{fill:#9c141b;}.cls-4{fill:#fff;}.cls-5{fill:#edede2;fill-rule:evenodd;}.cls-6{fill:#6f4714;}.cls-7{fill:#945b19;}.cls-8{fill:#111419;}.cls-9{fill:#a886b1;}.cls-10{fill:#e0d6b9;}.cls-11,.cls-13,.cls-14{fill:none;stroke-linecap:round;}.cls-11{stroke:#9c141b;}.cls-11,.cls-14{stroke-width:1.14px;}.cls-12{fill:#211915;}.cls-13,.cls-14{stroke:#211915;}.cls-13{stroke-width:1.5px;}.cls-15{fill:#6eaa6f;}.cls-16{fill:#538a58;}.cls-17{fill:#61a0a2;}.cls-18{fill:#3f7473;}.cls-19{fill:#c48709;}.cls-20{fill:#c64829;}</style></defs><g id="Capa_2" data-name="Capa 2"><g id="Capa_1-2" data-name="Capa 1"><path class="cls-1" d="M189.87,384.23c91.38-6.7,164.52,2.4,256.14,2.81,14,.06,49.19-10.51,55.82,1.82,6.35,11.82-1.33,27.23-12.88,34.05s-25.61,7.37-39,7.85q-85.3,3.08-170.22,12.65c-22.68,2.55-45.77,5.45-68.2,1.19-17.49-3.32-33.86-10.87-50-18.36-8.11-3.75-17.56-9.62-16.95-18.53.63-9.27,5.54-13.1,14.24-16.32,9.26-3.43,9.26-3.43,31.08-7.16"/><path class="cls-2" d="M311.34,309.67a160.74,160.74,0,0,0,17,0c8.12-.53,16.87-5.88,16.87-5.88l1.47,8.2s-9.29,5.24-16.87,5.92c-8.27.74-16,.74-16,.74Z"/><path class="cls-3" d="M342.17,304.6c2.11-.64,3.53-1.43,5.61-2.25a26.19,26.19,0,0,1,2.7,9.32c0,.21,0-.23,0,0l-5.81,2.26Z"/><path class="cls-4" d="M346.07,310.15a.72.72,0,1,1,.16,1,.74.74,0,0,1-.16-1"/><path class="cls-5" d="M0,155.05c0-3.83,1.42-35.49,24.84-45.43s43.29,13.49,43.29,13.49S71,79.38,99.37,84.56s27.68,30,27.68,30,9.33-15.06,24.84-9.94c17.21,5.68,14.2,21.54,14.2,21.54s9.53-11.57,23.65-3.08,21.77,23.42,18.23,39.74-17.59,37.62-103.91,29.81S-.38,182,0,155.05"/><path class="cls-6" d="M301.56,285.38c.91.9.64,1.68,1.83,2.19,4.05,1.76,3.79-1.43-1.09-5.07,0,0,2.65.6,3.54.77,2.41.48,4.23,0,3-.9-1.62-1.13-6.85-4-6.85-4,12.13,3.75,3.48-1.47.66-3a5.55,5.55,0,0,0,4-.23c3.44-1.54-17.53-6.57-17.53-6.57h0c-2.79,2-5.77,4.2-3.87,5,1.37.74,12.21,8.11,12.21,8.11,1.41,1.13,2.82,2.37,4.17,3.68"/><polygon class="cls-7" points="315.87 388.33 315.57 392.05 314.71 403.01 311.17 402.99 311.16 402.99 312.25 393.18 312.72 388.91 315.87 388.33"/><path class="cls-8" d="M294.3,401.86s9.52,2.28,7.51,6.17c-1.47,2.86-11.37-1.65-11.37-1.65l-.11,1.71-3.68-.2c0-1.46.31-5,.43-6.26.48-5.13,1.32-10.42,1.32-10.42l7.27.23Z"/><path class="cls-9" d="M325.48,358l-6.64,30.83-8.69.83c-.21-1.32-.35-5-.41-6.83-.18-6.11.16-9.57-2.07-10.06-2.66-.59-9,15.68-10.56,18.61l-10.17.25c1.67-8.67,3.87-18.79,4-27.67-.09-3-.05-6.47-.27-7.33l3.8,1.08c9.67,2.58,18.48,3.15,26.21,1.61a35,35,0,0,0,4.83-1.11"/><path class="cls-6" d="M274.17,313.92c.8,1,1.69.82,2,2.07,1.15,4.27-2.26,3.69-5.3-1.6,0,0,.16,2.74.19,3.66.07,2.49-.8,4.27-1.53,2.91-.92-1.76-3-7.32-3-7.32,1.8,12.63-2.25,3.37-3.41.37a5.53,5.53,0,0,1-1,4c-2.31,3.33-3.86-18.38-3.86-18.38h0c2.64-2.64,5.62-5.43,6.18-3.43.55,1.46,6.51,13.14,6.51,13.14a52.77,52.77,0,0,0,3.22,4.58"/><path class="cls-10" d="M305.3,281.93h0l-.08-.07c-.07-.07-.13-.15-.2-.21h0l-4.38-4.17a87.86,87.86,0,0,0-7.54-5.92c-.34.27-.71.53-1.09.78-3.55,2.39-8.36,4.07-12.07,6.12a18.49,18.49,0,0,0-3,2c-4.89,4.11-8.47,11.44-12.5,15.75a79,79,0,0,0,3.25,7.38c.09.16.17.34.26.51.87,1.67,1.86,3.45,3,5.25a52.77,52.77,0,0,0,3.22,4.58c10.08,3.92,23.64,11.67,24.25-1.95a4.49,4.49,0,0,0,3-2.15c10.7,3.38,6.89-15.85,7.22-24.14-1.05-1.32-2.16-2.56-3.3-3.75"/><path class="cls-2" d="M322.35,322.48a55,55,0,0,0-5.9-8.72c-1-1.2-2.06-2.36-3.15-3.48a16.88,16.88,0,0,1-6.13,7.7,26.27,26.27,0,0,1-9.85,4c-6.91,1.42-10.85.62-14.82-1.56,0,0,3.74,10.28,4.69,18.61,1.36,11.8,1.78,15.69,2,17.72l5.22,1.34c9.67,2.58,18.5,3,26.23,1.43a27.12,27.12,0,0,0,7.78-2.55c.53-15.54-.47-23.41-6.11-34.46"/><path class="cls-4" d="M324.61,342.2a.7.7,0,0,1,.74.64.68.68,0,0,1-.63.73.69.69,0,0,1-.74-.63.7.7,0,0,1,.63-.74"/><path class="cls-4" d="M325.42,352.78a.69.69,0,0,1,.73.63.68.68,0,0,1-.63.73.68.68,0,0,1-.74-.62.69.69,0,0,1,.64-.74"/><path class="cls-4" d="M320.63,331.86a.69.69,0,1,1-.64.74.69.69,0,0,1,.64-.74"/><path class="cls-4" d="M319.18,323.77a.7.7,0,0,1,.73.64.68.68,0,0,1-.63.73.68.68,0,0,1-.74-.62.7.7,0,0,1,.64-.75"/><path class="cls-6" d="M308.6,285.68c3.76,4.66,10.42,15,5.88,24.79a22.79,22.79,0,0,1-7.16,8.77c-16.92,11.95-26.6,1.83-30.61-2.38-.89-.94-1.74-1.93-2.54-2.94,8.15-5.76,23.95,8.27,24.55-5.35a4.51,4.51,0,0,0,3-2.16c10.71,3.38,4.68-13.56,6.92-20.73"/><path class="cls-4" d="M315.08,316.54a.68.68,0,1,1-.64.74.68.68,0,0,1,.64-.74"/><polygon class="cls-8" points="314.73 402.71 314.46 406.11 310.79 406.39 311.16 402.99 311.17 402.99 314.73 402.71"/><path class="cls-6" d="M302.82,296.13c.35.16.64.69.38,1s-.61.19-.93.13a5,5,0,0,0-1.85.05,12.45,12.45,0,0,0-4.18,1.72c-2.32,1.4-4.78,3.5-5.69,6.14-.17.46-.14,1.55-.84,1.51s-.65-.94-.61-1.43a8.94,8.94,0,0,1,1.62-3.48,14.82,14.82,0,0,1,5.73-4.92c1.73-.89,4.44-1.72,6.37-.76"/><path class="cls-8" d="M296.86,302.54a51.61,51.61,0,0,1-5,3.6c9.08,3.55,11.81-1.27,9.06-7.87a35.11,35.11,0,0,1-4.06,4.27"/><path class="cls-8" d="M293.08,255.48a.58.58,0,0,0-1.05.34c-.18,12.82-9.83,9.29-18.61,9.1-3.4-.07-6.68.37-9.22,2.46-9,7.39,0,26.19-14.07,24.86a1,1,0,0,0-.83,1.61c3.52,4.19,6.42,5.81,9,5.78,2.28,0,4.29-1.39,6.18-3.43,4-4.31,7.61-11.64,12.5-15.75a18.49,18.49,0,0,1,3-2c3.7-2,8.52-3.73,12.07-6.12.38-.25.75-.51,1.09-.78,4.17-3.27,5.84-7.88,0-16.08"/><path class="cls-10" d="M268.68,304.87a48.27,48.27,0,0,0,2.54,4.12,3,3,0,0,1-1.57,1.74c-1.45.83-3.42.24-4.6-1.76s-.77-3.87.66-4.72a3.63,3.63,0,0,1,2.35-.63s.53,1.08.62,1.25"/><path class="cls-11" d="M323.39,358.8c-.39-19.28-3.27-28.93-10.47-40.37"/><path class="cls-4" d="M278.5,273.87c1.3-3,3.26-.49,1.76.34.73.39.59,1,.15,1.25a1.2,1.2,0,0,1-1.75-.68l-3,.53V275a2,2,0,0,0,0-.68l.05-.23Z"/><path class="cls-4" d="M269,274.94a2.23,2.23,0,0,1-.18-1.75,3.25,3.25,0,0,1,1.21-1.66c1.31-1,2.93-1.51,4.1-.89a5.11,5.11,0,0,1,2,3.5s-.26,1.82-.4,2.26a2.74,2.74,0,0,1-2,1.52c-1,.12-3.23-1.41-3.86-2a3.51,3.51,0,0,1-.84-1"/><path class="cls-12" d="M273.9,272.06a.8.8,0,0,1,.5,1,.84.84,0,1,1-1.59-.54.86.86,0,0,1,1.09-.47"/><path class="cls-4" d="M273.06,277.47l.05.12-1.93,3.51c.83,2.78-1.06,2.49-1.23,1.14-2,1.47-3-2.49.12-1.75l1.78-3.29a8.35,8.35,0,0,0,.95.37Z"/><path class="cls-12" d="M270.52,273.84c.25-.16.68-.15,1,.38a.69.69,0,0,1-.24,1,.91.91,0,0,1-1.09-.29.75.75,0,0,1,.31-1.12"/><path class="cls-4" d="M270.11,275.77l-.13.33-2.75,0c-1.92,2-2.53,0-1.55-.68-2.26-1.37,1.12-3,1.71-.35l1.58-.18c.2.38.8.53,1.14.83"/><path class="cls-12" d="M273.25,275.64a.15.15,0,1,1-.25.17.14.14,0,0,1,0-.21.15.15,0,0,1,.21,0"/><path class="cls-12" d="M273.93,275.21a.18.18,0,0,1-.06.24.17.17,0,1,1,.06-.24"/><path class="cls-4" d="M275.89,267.38c1.44-1,1.86,1.77-.2,1.72l-.89,2.74-.06.07a3.07,3.07,0,0,0-.84-.58l.89-2.48c-1-1.21-.87-2-.39-2.3a1,1,0,0,1,1.49.83"/><path class="cls-8" d="M284.11,294.35a1.82,1.82,0,0,1-.12,2l-5.92,5.71c-1.73,1.56-2.69,1.54-3.33.76l-4.4-5c-.91-1.1-.66-2,.42-2.9l6.06-5.78c1.09-.89,1.78-1.06,2.64,0Z"/><path class="cls-13" d="M272.71,299.27a13.29,13.29,0,0,1-5.67,3.65"/><path class="cls-13" d="M293.09,271.56s-9.41,15.39-13.42,20.82"/><path class="cls-4" d="M290.81,279a4.79,4.79,0,0,1,6.57,1.69c1.35,2.28,1.52,5.53-1.59,7.37-2.29,1.35-5.33-.21-6.68-2.5a4.78,4.78,0,0,1,1.7-6.56"/><path class="cls-12" d="M294.22,280.15a.76.76,0,0,1,1.14.29.81.81,0,0,1-.26,1.14c-.59.35-.94,0-1.16-.38a.77.77,0,0,1,.28-1.05"/><path class="cls-14" d="M292.08,296.67c.36-.07,5.87-3.45,4.12-5.81-1-1.41-9.76-.26-10-.05"/><path class="cls-15" d="M303,70.84c13.78,4.67,25.7,18.41,33.05,36.3a2.62,2.62,0,0,0,.22.52,98.63,98.63,0,0,0-29.56-23c-13.13-6.58-26.86-9.46-39.59-8.76a58.68,58.68,0,0,0-25.35,7,55.15,55.15,0,0,0-9.38,1.92A49,49,0,0,1,262.49,70.2l-3.75-1.45c8.54-5.06,18.51-5.82,28.76,1.78l-5.16-6.26A31.86,31.86,0,0,1,295.23,66l4.59,11.59Z"/><path class="cls-16" d="M336.25,107.66a98.47,98.47,0,0,0-29.55-23c-13.13-6.58-26.86-9.46-39.59-8.76a58.68,58.68,0,0,0-25.35,7,69.84,69.84,0,0,1,15.7,0l9.68-6.59-6.48,6.9,8.08,3.1a39.26,39.26,0,0,1,17.67-6l-5.82,7.76,11.83,4.07,13.07-6.37-6.2,7.48Z"/><path class="cls-15" d="M370.48,68.69c-13.42,5.6-24.39,20.12-30.5,38.46a4.88,4.88,0,0,1-.18.54,98.51,98.51,0,0,1,27.92-25c12.65-7.45,26.16-11.26,38.9-11.43a58.75,58.75,0,0,1,25.78,5.32,54.71,54.71,0,0,1,9.48,1.27,49,49,0,0,0-31-12.6l3.65-1.7c-8.88-4.47-18.87-4.55-28.58,3.73l4.73-6.6a31.9,31.9,0,0,0-12.76,2.56L374.1,75.16Z"/><path class="cls-16" d="M339.8,107.69a98.51,98.51,0,0,1,27.92-25c12.65-7.45,26.16-11.26,38.9-11.42a58.6,58.6,0,0,1,25.78,5.31,69.67,69.67,0,0,0-15.67,1.06l-10.1-5.92,6.93,6.45-7.84,3.64A39.39,39.39,0,0,0,387.67,77L394,84.38l-11.52,4.87L369,83.78l6.69,7Z"/><path class="cls-16" d="M363.25,7.26c-4.13,4-2.35,17-2.35,17l5.89-7.41L376.86,0s-9.47,3.21-13.61,7.26"/><path class="cls-7" d="M351.38,332.4a282.63,282.63,0,0,0-.22,34.33c11.44,3.89,20.46,4.45,32.56,2a300.45,300.45,0,0,0-1.7-35.23c-10-4.22-19.27-3.84-30.64-1.12"/><path class="cls-6" d="M351.16,366.73c-.82,11.58-1.09,27.91.37,38.7,12.2,4.15,25.64,3.79,33.55.33A326,326,0,0,0,383.8,367c-12.05-2.85-20.43-2.2-32.64-.28"/><path class="cls-6" d="M345.56,238.67c-.06,10.93.77,16.39,2.12,29.63,19-5.61,20.37-2.56,25.95.83-1.05-14.07-5.37-34.46-5.37-34.46s-12.52-2.3-22.7,4"/><path class="cls-7" d="M377.75,299.44h0s-2.37-21.92-4.22-31.69c-5-3.87-14-3.7-25.85.55a314.27,314.27,0,0,0,2.26,32.29v0c.27.63,22.44-1.67,27.81-1.17"/><path class="cls-6" d="M349.94,300.61a303.55,303.55,0,0,0,1.44,31.79c11.37-2.72,19.56-2,30.64,1.12-1.25-12-1.87-22.12-4.27-34.08-10.53-2.65-21-.59-27.81,1.17"/><path class="cls-7" d="M340.9,167.49a151.39,151.39,0,0,0,1.6,22.5c14.45-4.26,15.67-2.9,19.91-.33a133.72,133.72,0,0,0-4.28-25.21s-9.51-1.74-17.23,3"/><path class="cls-7" d="M333,110.9s.76,21.62,3.64,33.08c4.88,3.15,16.66-2.23,17.24-2.94-1.55-12-8.58-33.19-8.58-33.19-1.5,1.11-9.87,4-12.3,3.05"/><path class="cls-6" d="M336.68,144c0,7.85,4.22,23.51,4.22,23.51,8.3-3.35,17.46-2,17.46-2-.75-9.44-3.32-22.13-4.44-24.49A66,66,0,0,0,336.68,144"/><path class="cls-6" d="M365.33,213.62h0s-1.51-16.54-2.92-24c-3.82-2.94-11.18-4.84-19.91.33.36,10.41,0,15.66,1.72,24.5v0c.21.48,17-1.26,21.11-.89"/><path class="cls-7" d="M344.22,214.51a167.74,167.74,0,0,0,1.34,24.16c8.63-2.07,16.25-2.06,23.82,1.15-.95-9.1-2.22-17.12-4-26.2-8-2-16-.45-21.12.89"/><path class="cls-16" d="M355.1,24.1l.36,12.76-3.55-9.2-5.53,15.09,2.95,14.16-5.17-10.6A79.7,79.7,0,0,0,339.53,68c0,.93-.08,1.86-.18,2.77-.24,2.38,2.2,23.19-3.08,31.62l.4.24a5.06,5.06,0,0,1,1.89-1.58,4.93,4.93,0,0,1,2.3-.5c1.32-7.56,3.08-15.65,5.11-23.89,1.61-6.57,3.39-13.24,5.24-19.77,1.9-6.72,3.87-13.29,5.81-19.48,1.36-4.35,3.43-8,4.72-11.91l-3.85-6.93Z"/><path class="cls-15" d="M355.71,76.31l-11.9,25.25a5,5,0,0,0-2.95-1.06c1.32-7.56,3.08-15.65,5.11-23.89l1.64-.57Z"/><path class="cls-15" d="M326.53,47.55c4.41,4,9.05,14.18,9.67,24.11,0,.91,0,1.84.07,2.77a27.27,27.27,0,0,1-.95,6.93l4-6.37c2,11.84,1.14,22.34-3.37,31.2l-.45.86a82.24,82.24,0,0,0-24.48-58.58,60.68,60.68,0,0,0-18.54-12.56,41,41,0,0,0-28.18-1.84h0a48.1,48.1,0,0,1,34-6.42l10,14.91-.49-9.79,14.86,8.76a46,46,0,0,0,2,15.53Z"/><path class="cls-6" d="M348.49,108.11a4.69,4.69,0,1,1-4.72.15,5,5,0,0,1,.87-.42,4.65,4.65,0,0,1,3.85.27"/><path class="cls-6" d="M345.73,104.12a4.61,4.61,0,0,1,.31,1.62,5,5,0,0,1-2.34,4.34,5.11,5.11,0,0,1-.91.44,5,5,0,0,1-6.41-3,5.52,5.52,0,0,0-.16-.54,5,5,0,0,1,1.09-4.47,5,5,0,0,1,2-1.39,4.85,4.85,0,0,1,2.34-.27,5,5,0,0,1,2.83,1.35,4.79,4.79,0,0,1,1.22,1.87"/><path class="cls-16" d="M311.05,48.47a60.51,60.51,0,0,0-18.54-12.56,41,41,0,0,0-28.18-1.84h0c-.48.29-1,.58-1.43.89l17.63,5.61,10.65-2.72-5.58,4.59,8.64,7.83,15.28-.34L301,54.09l8.76,9.23a28.16,28.16,0,0,1,15.76,4.54l-10.19,1.45c9,11.8,16.58,24.07,20.25,37.73a82.24,82.24,0,0,0-24.48-58.57"/><path class="cls-6" d="M338,108.56a5.72,5.72,0,1,1-5.33-.72,5.7,5.7,0,0,1,5.33.72"/><path class="cls-15" d="M376.86,0S369,8.7,366.42,13.17a180.35,180.35,0,0,0-9.63,22.22c-1.94,6.19-3.92,12.76-5.82,19.49-1.85,6.52-3.63,13.19-5.24,19.76l1.64-.57,9.28-4.53L363.19,56l-7.3-.07,7.26-3.54s4.21-9.56,4.87-12.38,4.43-14,4.43-14l-6.6,2.77,7.92-7.08a50.9,50.9,0,0,0,3.91-13.51c.85-7-.82-8.18-.82-8.18"/><polygon class="cls-17" points="319.17 168.21 326.79 183.19 307.92 208.03 307.26 207.31 297.08 192.76 319.17 168.21"/><polygon class="cls-18" points="297.14 192.57 307.92 208.03 282.9 218.39 272.44 204.94 272.27 204.69 297.14 192.57"/><path class="cls-1" d="M306.26,183.2l-9.1,9.69a14.19,14.19,0,0,0-8.48-6.77c-1.77-.49-3.63-.56-5.33-1.31s-3.06-1.92-4.77-2.54a4.45,4.45,0,0,0-4.76.76l3.58-3.83.08.08c1.16-1.23,3.09-1.19,4.58-.65,1.71.63,3.13,1.81,4.78,2.55s3.56.82,5.32,1.3a13.7,13.7,0,0,1,4.61,2.31l5.81-6.75-1.72-2.61,7.41-8.17,1.57,2.39,4.07-4.54a13.59,13.59,0,0,0-3.74-1.7c-1.77-.48-3.63-.55-5.32-1.3s-3.07-1.92-4.78-2.55a4.59,4.59,0,0,0-4.22.32l2.4-2.56c1-1.16,2.84-1.12,4.27-.5s2.91,1.85,4.44,2.63,3.25.94,4.87,1.49a13.75,13.75,0,0,1,4.28,2.4,14.53,14.53,0,0,1,3.63,4.39l-.49.61-5.69,7.06,1.51,2.28L308,186.26Z"/><path class="cls-17" d="M282.06,178.63c-1.49-.54-3.41-.58-4.58.65l-.08-.08,18.45-19.32a4.56,4.56,0,0,1,4.22-.32c1.71.63,3.12,1.82,4.77,2.55s3.56.82,5.33,1.3a13.59,13.59,0,0,1,3.74,1.7l-4.07,4.54-1.57-2.39-7.41,8.17,1.72,2.61-5.81,6.75a13.7,13.7,0,0,0-4.61-2.31c-1.76-.48-3.63-.55-5.32-1.3s-3.07-1.92-4.78-2.55"/><path class="cls-16" d="M309.46,172.76a2.3,2.3,0,0,1,0,2.91l1.93,2.85-1.43,1.63-2-3.19a2.07,2.07,0,0,1-2.34-.15c-.82-.78-.6-2.32.46-3.43s2.6-1.39,3.41-.62"/><path class="cls-1" d="M293.74,202.47c1.14,1.73.55,6.23-2.51,8.25s-7.61.81-8.83-1.53c-.88-1.68-.37-3.06,1.16-4.56l.19.48.54.61a1.92,1.92,0,0,0-.26,2.36,4.79,4.79,0,0,0,6.31,1.2c2.09-1.38,2.72-4.72,1.85-5.83a2,2,0,0,0-2.08-.67l-.81-1.23c1.5-.57,3.49-.51,4.44.92"/><polygon class="cls-19" points="290.24 202.97 284.26 205.89 282.93 203.87 288.86 200.89 290.24 202.97"/><path class="cls-18" d="M288.68,186.12a14.19,14.19,0,0,1,8.48,6.77l-24.72,12.05a6.82,6.82,0,0,1-1.62-4,11.34,11.34,0,0,1,.14-4.77c.41-1.71,1.24-3.4,1.38-5.12s-.26-3.29,0-5a5.63,5.63,0,0,1,1.32-2.87l.15-.17h0a4.45,4.45,0,0,1,4.76-.76c1.71.62,3.12,1.8,4.77,2.54s3.56.82,5.33,1.31"/><path class="cls-10" d="M330.92,329.43s3.88-5.69,5.24-4.95,0,3.95,0,3.95,4.58-4,6.19-2.9-2.6,4.15-2.6,4.15,4.7-1.73,4.95,0-4.83,2.86-4.83,2.86,4.33.12,3.59,2.1-11,.68-11,.68Z"/><path class="cls-20" d="M291.85,326.23c6.75,0,9.33,2.47,17.32,4S327,328.83,327,328.83l-.65,8.31s-10.32,2.72-17.82,1.45a71.67,71.67,0,0,1-15.81-4.41c-4.94-1.81-4.87-8-.85-7.95"/><path class="cls-3" d="M325.29,328.52c2.17-.37,3.68-1,5.84-1.53a26.14,26.14,0,0,1,1.51,9.59h0l-6.06,1.51Z"/><path class="cls-4" d="M328.45,334.52a.72.72,0,0,1,1.05,1,.72.72,0,0,1-1,0,.73.73,0,0,1,0-1"/></g></g></svg>