<svg xmlns="http://www.w3.org/2000/svg" viewBox="0 0 63.51 58.53"><defs><style>.cls-1{fill:none;stroke:#211915;stroke-linecap:round;stroke-width:0.91px;}.cls-2{fill:#211915;}.cls-3{fill:#eeca1a;}</style></defs><g id="Capa_2" data-name="Capa 2"><g id="Capa_1-2" data-name="Capa 1"><line class="cls-1" x1="23.61" y1="56.29" x2="23.52" y2="46.05"/><path class="cls-2" d="M24.06,55.74s-7.24-.05-7.34,1.51,6.17,1.51,7.06.85.28-2.36.28-2.36"/><line class="cls-1" x1="11.99" y1="34.51" x2="3.8" y2="39.01"/><path class="cls-2" d="M4.07,42.54C2.86,42.67,3,40.91,3,40.91s-1.43,1.6-2,.79c-.78-1,1-2,1-2S0,39.83,0,38.83c0-1.36,2.8-1.49,4.09.15.74,1,1,3.45,0,3.56"/><line class="cls-1" x1="51.52" y1="34.5" x2="59.71" y2="39.01"/><path class="cls-2" d="M59.44,42.54c1.21.13,1.07-1.63,1.07-1.63s1.43,1.6,2,.79c.78-1-1-2-1-2s1.93.17,1.93-.83c0-1.36-2.8-1.49-4.08.15-.75,1-1,3.45,0,3.56"/><line class="cls-1" x1="39.51" y1="56.29" x2="39.6" y2="46.05"/><path class="cls-3" d="M55.62,23.85A23.85,23.85,0,1,1,31.77,0,23.85,23.85,0,0,1,55.62,23.85"/><path class="cls-2" d="M39.06,55.75s7.24,0,7.34,1.5-6.17,1.51-7.06.85-.28-2.35-.28-2.35"/><path class="cls-2" d="M24.44,19.06a1.79,1.79,0,0,1,1.45.74,1.77,1.77,0,0,0,.35-1.06,1.8,1.8,0,0,0-3.6,0A1.77,1.77,0,0,0,23,19.8a1.79,1.79,0,0,1,1.45-.74"/><path class="cls-2" d="M39.1,19.06a1.77,1.77,0,0,1,1.45.74,1.77,1.77,0,0,0,.35-1.06,1.8,1.8,0,1,0-3.24,1.06,1.77,1.77,0,0,1,1.44-.74"/><path class="cls-1" d="M21.17,28.46s3,6.62,10.5,6.62a11.36,11.36,0,0,0,10.7-6.62"/></g></g></svg>