<svg xmlns="http://www.w3.org/2000/svg" viewBox="0 0 55.62 58.53"><defs><style>.cls-1{fill:none;stroke:#211915;stroke-linecap:round;stroke-width:0.91px;}.cls-2{fill:#211915;}.cls-3{fill:#eeca1a;}</style></defs><g id="Capa_2" data-name="Capa 2"><g id="Capa_1-2" data-name="Capa 1"><line class="cls-1" x1="23.61" y1="56.29" x2="23.52" y2="46.05"/><path class="cls-2" d="M24.06,55.74s-7.24-.05-7.34,1.51,6.17,1.51,7.06.85.28-2.36.28-2.36"/><line class="cls-1" x1="11.99" y1="34.51" x2="3.8" y2="39.01"/><path class="cls-2" d="M4.07,42.54C2.86,42.67,3,40.91,3,40.91s-1.43,1.6-2,.79c-.78-1,1-2,1-2S0,39.83,0,38.83c0-1.36,2.8-1.49,4.09.15.74,1,1,3.45,0,3.56"/><line class="cls-1" x1="39.51" y1="56.29" x2="39.6" y2="46.05"/><path class="cls-3" d="M55.62,23.85A23.85,23.85,0,1,1,31.77,0,23.85,23.85,0,0,1,55.62,23.85"/><path class="cls-2" d="M39.06,55.75s7.24,0,7.34,1.5-6.17,1.51-7.06.85-.28-2.35-.28-2.35"/><path class="cls-2" d="M26.24,19.74a1.8,1.8,0,1,1-1.8-1.8,1.8,1.8,0,0,1,1.8,1.8"/><path class="cls-2" d="M35.08,35.5C34.89,36.9,32.77,39,31.37,39S29,37.77,29.2,35.8A3.74,3.74,0,0,1,32.53,33a2.36,2.36,0,0,1,2.55,2.55"/><path class="cls-2" d="M40.9,19.74a1.8,1.8,0,1,1-1.8-1.8,1.79,1.79,0,0,1,1.8,1.8"/><path class="cls-1" d="M21.58,15.82a3.74,3.74,0,0,1,2.69-1.44,3.63,3.63,0,0,1,3,1.44"/><path class="cls-1" d="M36.24,15.82a3.74,3.74,0,0,1,2.69-1.44,3.63,3.63,0,0,1,3,1.44"/><path class="cls-2" d="M40.12,37.47c-1.14-.43-1.45,1.3-1.45,1.3s-1-1.91-1.76-1.29c-1,.81.41,2.23.41,2.23s-1.82-.66-2.09.3c-.35,1.31,2.33,2.16,4,.9,1-.74,1.88-3.06.9-3.44"/><path class="cls-1" d="M50.48,36.93s-5.15,4.72-11.1,3.57"/></g></g></svg>