<svg xmlns="http://www.w3.org/2000/svg" viewBox="0 0 91.88 60.39"><defs><style>.cls-1{fill:#211915;}.cls-2{fill:none;stroke:#211915;stroke-linecap:round;stroke-width:0.91px;}.cls-3{fill:#eeca1a;}</style></defs><g id="Capa_2" data-name="Capa 2"><g id="Capa_1-2" data-name="Capa 1"><path class="cls-1" d="M59,53.05s-3.16,6.52-1.8,7.27,4-4.92,3.81-6-2-1.26-2-1.26"/><path class="cls-1" d="M40.74,56S33.8,58,34.16,59.53s6.34-.35,7-1.24S40.74,56,40.74,56"/><path class="cls-2" d="M52.86,43.07s1.29,7.64,2,8.77,4,1.71,4,1.71"/><path class="cls-2" d="M42.4,42.93S38,49.86,37.84,51.19s2.64,5.16,2.64,5.16"/><line class="cls-2" x1="26.09" y1="34.69" x2="18.79" y2="40.51"/><path class="cls-1" d="M19.64,43.94c-1.17.33-1.32-1.42-1.32-1.42s-1.15,1.81-1.88,1.12c-.94-.9.61-2.18.61-2.18S15.18,42,15,41c-.23-1.34,2.51-1.94,4.06-.54.89.82,1.59,3.23.58,3.51"/><line class="cls-2" x1="24.62" y1="32.11" x2="15.37" y2="33.47"/><path class="cls-1" d="M14.39,36.86C13.21,36.56,14,35,14,35s-1.9,1-2.19,0c-.36-1.25,1.63-1.57,1.63-1.57S11.53,32.9,11.87,32c.47-1.28,3.15-.42,3.78,1.57.36,1.16-.25,3.58-1.26,3.32"/><line class="cls-2" x1="65.31" y1="33.7" x2="73.5" y2="38.21"/><path class="cls-1" d="M73.23,41.73c1.21.13,1.07-1.63,1.07-1.63s1.43,1.6,2,.79c.78-1-1-2-1-2S77.3,39,77.3,38c0-1.36-2.8-1.49-4.08.16-.75,1-1,3.44,0,3.55"/><line class="cls-2" x1="65.18" y1="30.56" x2="74.52" y2="30.87"/><path class="cls-1" d="M75.88,34.13c1.14-.43.21-1.93.21-1.93s2,.77,2.18-.22c.22-1.28-1.79-1.39-1.79-1.39s1.8-.72,1.35-1.61c-.61-1.22-3.18-.06-3.57,2-.23,1.19.64,3.53,1.62,3.16"/><line class="cls-2" x1="25.05" y1="27.93" x2="15.74" y2="27.13"/><path class="cls-1" d="M14.55,23.8c-1.16.38-.31,1.92-.31,1.92s-2-.87-2.18.11c-.29,1.27,1.71,1.47,1.71,1.47s-1.83.63-1.43,1.54c.54,1.25,3.16.23,3.67-1.79.29-1.18-.47-3.57-1.46-3.25"/><line class="cls-2" x1="65.83" y1="27.68" x2="74.63" y2="24.55"/><path class="cls-1" d="M74.94,21c1.21.07.79,1.78.79,1.78s1.67-1.34,2.14-.45c.59,1.15-1.29,1.86-1.29,1.86s1.93.14,1.78,1.13c-.22,1.34-3,1-4-.81-.58-1.07-.46-3.56.59-3.51"/><path class="cls-3" d="M69.39,23.85A23.85,23.85,0,1,1,45.54,0,23.85,23.85,0,0,1,69.39,23.85"/><path class="cls-1" d="M36,18.74a1.8,1.8,0,1,1-1.8-1.8,1.79,1.79,0,0,1,1.8,1.8"/><path class="cls-1" d="M50.67,18.74a1.8,1.8,0,1,1-1.79-1.8,1.79,1.79,0,0,1,1.79,1.8"/><path class="cls-1" d="M49.36,26.66c-.36,3.37-1.06,9-5.5,10.6S36.4,33,36.4,33a28.4,28.4,0,0,0,5.93-1.26c2.88-1.06,7-5.11,7-5.11"/><path class="cls-2" d="M86,24a20.62,20.62,0,0,1-.35,9.89,26.94,26.94,0,0,1-4.12,8.32"/><path class="cls-2" d="M91.4,27a22,22,0,0,1-1,7.74C88.88,39.3,87,41.12,87,41.12"/><path class="cls-2" d="M5.4,27.09a20.71,20.71,0,0,0,1.77,9.73,26.89,26.89,0,0,0,5.28,7.65"/><path class="cls-2" d="M.45,30.78A22.16,22.16,0,0,0,2.57,38.3c2.15,4.32,4.32,5.85,4.32,5.85"/></g></g></svg>