<svg xmlns="http://www.w3.org/2000/svg" viewBox="0 0 47.7 58.53"><defs><style>.cls-1{fill:none;stroke:#211915;stroke-linecap:round;stroke-width:0.91px;}.cls-2{fill:#211915;}.cls-3{fill:#eeca1a;}</style></defs><g id="Capa_2" data-name="Capa 2"><g id="Capa_1-2" data-name="Capa 1"><line class="cls-1" x1="15.69" y1="56.29" x2="15.6" y2="46.05"/><path class="cls-2" d="M16.14,55.74s-7.25-.05-7.34,1.51,6.16,1.51,7.06.85.28-2.36.28-2.36"/><line class="cls-1" x1="31.58" y1="56.29" x2="31.67" y2="46.05"/><path class="cls-3" d="M47.7,23.85A23.85,23.85,0,1,1,23.85,0,23.85,23.85,0,0,1,47.7,23.85"/><path class="cls-2" d="M31.14,55.75s7.24,0,7.34,1.5-6.17,1.51-7.07.85-.27-2.35-.27-2.35"/><path class="cls-2" d="M16.52,19.06A1.8,1.8,0,0,1,18,19.8a1.84,1.84,0,0,0,.35-1.06,1.8,1.8,0,0,0-3.6,0,1.77,1.77,0,0,0,.35,1.06,1.79,1.79,0,0,1,1.45-.74"/><path class="cls-2" d="M31.18,19.06a1.79,1.79,0,0,1,1.45.74A1.77,1.77,0,0,0,33,18.74a1.8,1.8,0,1,0-3.6,0,1.77,1.77,0,0,0,.35,1.06,1.79,1.79,0,0,1,1.45-.74"/><path class="cls-1" d="M13.25,28.46s3,6.62,10.5,6.62a11.34,11.34,0,0,0,10.69-6.62"/><path class="cls-2" d="M33,38.67c-1.2-.16-1.1,1.6-1.1,1.6s-1.4-1.63-2-.84c-.8,1,.92,2.07.92,2.07s-1.92-.22-1.95.78c0,1.36,2.76,1.56,4.08-.06.77-.94,1.11-3.41.07-3.55"/><path class="cls-1" d="M43,35.72s-3.9,5.79-10,6.07"/><path class="cls-2" d="M14.89,38.67c1.21-.16,1.11,1.6,1.11,1.6s1.39-1.63,2-.84c.81,1-.92,2.07-.92,2.07s1.93-.22,2,.78c0,1.36-2.77,1.56-4.09-.06-.77-.94-1.11-3.41-.07-3.55"/><path class="cls-1" d="M5,35.72s3.89,5.79,10,6.07"/></g></g></svg>