<svg xmlns="http://www.w3.org/2000/svg" viewBox="0 0 63.51 64.55"><defs><style>.cls-1{fill:#211915;}.cls-2{fill:none;stroke:#211915;stroke-linecap:round;stroke-width:0.91px;}.cls-3{fill:#eeca1a;}</style></defs><g id="Capa_2" data-name="Capa 2"><g id="Capa_1-2" data-name="Capa 1"><path class="cls-1" d="M24.06,61.76s-7.24,0-7.34,1.5,6.17,1.52,7.07.85.27-2.35.27-2.35"/><path class="cls-1" d="M39.06,61.76s7.24,0,7.34,1.5-6.17,1.52-7.06.85-.28-2.35-.28-2.35"/><line class="cls-2" x1="23.61" y1="62.31" x2="23.52" y2="52.07"/><line class="cls-2" x1="11.99" y1="40.52" x2="3.8" y2="45.03"/><path class="cls-1" d="M4.07,48.55C2.86,48.68,3,46.93,3,46.93s-1.43,1.59-2,.78c-.78-1,1-2,1-2S0,45.84,0,44.85c0-1.37,2.8-1.5,4.09.15.74,1,1,3.44,0,3.55"/><line class="cls-2" x1="51.53" y1="40.52" x2="59.71" y2="45.03"/><path class="cls-1" d="M59.44,48.55c1.21.13,1.07-1.62,1.07-1.62s1.43,1.59,2,.78c.78-1-1-2-1-2s1.93.17,1.93-.83c0-1.36-2.8-1.49-4.08.16-.75,1-1,3.44,0,3.55"/><line class="cls-2" x1="39.51" y1="62.31" x2="39.6" y2="52.07"/><path class="cls-3" d="M55.62,29.86A23.85,23.85,0,1,1,31.77,6,23.85,23.85,0,0,1,55.62,29.86"/><path class="cls-1" d="M20.71,19.67a1.8,1.8,0,1,1-1.8-1.79,1.8,1.8,0,0,1,1.8,1.79"/><path class="cls-1" d="M35.37,19.67a1.8,1.8,0,1,1-1.8-1.79,1.79,1.79,0,0,1,1.8,1.79"/><path class="cls-2" d="M21.7,38.3a12.45,12.45,0,0,0,5.78,0c4.29-1.3,5.19-6.08,5.19-6.08"/><path class="cls-1" d="M55,9.1S48.54,2.31,51.15.43C53.53-1.28,55,2.62,55,2.62S56.58-1.46,59,.67,55,9.1,55,9.1"/></g></g></svg>