<svg xmlns="http://www.w3.org/2000/svg" viewBox="0 0 47.9 58.53"><defs><style>.cls-1{fill:none;stroke:#211915;stroke-linecap:round;stroke-width:0.91px;}.cls-2{fill:#211915;}.cls-3{fill:#eeca1a;}</style></defs><g id="Capa_2" data-name="Capa 2"><g id="Capa_1-2" data-name="Capa 1"><line class="cls-1" x1="15.79" y1="56.29" x2="15.7" y2="46.05"/><path class="cls-2" d="M16.24,55.74S9,55.69,8.9,57.25s6.17,1.51,7.06.85.28-2.36.28-2.36"/><path class="cls-1" d="M43.73,34.5s5,3.4,2.42,9.93"/><path class="cls-2" d="M42.74,44.84c.08,1.22,1.78.77,1.78.77s-1.32,1.69-.42,2.14c1.16.59,1.84-1.31,1.84-1.31s.17,1.93,1.15,1.77c1.35-.23,1-3-.86-4-1.07-.57-3.56-.41-3.49.63"/><path class="cls-1" d="M4.17,34.5s-5,3.4-2.42,9.93"/><path class="cls-2" d="M5.16,44.84c-.08,1.21-1.78.77-1.78.77s1.32,1.69.42,2.14C2.64,48.34,2,46.44,2,46.44S1.79,48.37.81,48.21c-1.34-.23-1-3,.86-4,1.07-.57,3.57-.41,3.49.63"/><line class="cls-1" x1="31.69" y1="56.29" x2="31.78" y2="46.05"/><path class="cls-3" d="M47.8,23.85A23.85,23.85,0,1,1,24,0,23.85,23.85,0,0,1,47.8,23.85"/><path class="cls-2" d="M31.24,55.75s7.24,0,7.34,1.5-6.17,1.51-7.06.85-.28-2.35-.28-2.35"/><path class="cls-2" d="M18.42,19.74a1.8,1.8,0,1,1-1.8-1.8,1.8,1.8,0,0,1,1.8,1.8"/><path class="cls-2" d="M33.08,19.74a1.8,1.8,0,1,1-1.8-1.8,1.79,1.79,0,0,1,1.8,1.8"/><line class="cls-1" x1="28.04" y1="17.94" x2="32.88" y2="14.87"/><line class="cls-1" x1="19.96" y1="17.94" x2="15.12" y2="14.87"/><path class="cls-2" d="M15.12,38.51c1.5-3,4.09-8,8.83-8S29.48,37,29.48,37a28.69,28.69,0,0,0-6-.86c-3.07,0-8.36,2.36-8.36,2.36"/></g></g></svg>