<svg xmlns="http://www.w3.org/2000/svg" viewBox="0 0 47.7 58.53"><defs><style>.cls-1{fill:#211915;}.cls-2{fill:none;stroke:#211915;stroke-linecap:round;stroke-width:0.91px;}.cls-3{fill:#eeca1a;}</style></defs><g id="Capa_2" data-name="Capa 2"><g id="Capa_1-2" data-name="Capa 1"><path class="cls-1" d="M32.91,55.75s-7.24-.06-7.34,1.5,6.17,1.51,7.06.85.28-2.35.28-2.35"/><polyline class="cls-2" points="32.58 56.29 30.62 51.83 30.67 46.05"/><path class="cls-1" d="M15,55.75s7.24-.06,7.34,1.5-6.17,1.51-7.07.85S15,55.75,15,55.75"/><polyline class="cls-2" points="15.28 56.29 17.24 51.83 17.19 46.05"/><path class="cls-3" d="M47.7,23.85A23.85,23.85,0,1,1,23.85,0,23.85,23.85,0,0,1,47.7,23.85"/><path class="cls-1" d="M18.31,19.74a1.8,1.8,0,1,1-1.79-1.8,1.79,1.79,0,0,1,1.79,1.8"/><path class="cls-1" d="M33,19.74a1.8,1.8,0,1,1-1.8-1.8,1.8,1.8,0,0,1,1.8,1.8"/><line class="cls-2" x1="29.75" y1="13.96" x2="34.59" y2="17.04"/><line class="cls-2" x1="18.04" y1="13.96" x2="13.2" y2="17.04"/><path class="cls-1" d="M33.26,36c-1.13-.44-1.45,1.3-1.45,1.3s-1-1.91-1.76-1.29c-1,.81.41,2.22.41,2.22s-1.82-.66-2.08.3c-.36,1.32,2.32,2.17,4,.9,1-.73,1.88-3.06.9-3.43"/><path class="cls-1" d="M17.69,37.32s2.31-4.79,6.92-4.79A6.4,6.4,0,0,1,30.67,37a21.48,21.48,0,0,0-5.93-1.14,25.42,25.42,0,0,0-7,1.45"/><path class="cls-2" d="M43.62,35.44S38.47,40.16,32.52,39"/><path class="cls-1" d="M14.29,36c1.13-.44,1.45,1.29,1.45,1.29s1-1.91,1.76-1.28c1,.81-.41,2.22-.41,2.22s1.82-.66,2.08.3c.36,1.32-2.32,2.17-4,.9-1-.73-1.88-3.06-.9-3.43"/><path class="cls-2" d="M3.93,35.44S9.08,40.16,15,39"/></g></g></svg>