<svg xmlns="http://www.w3.org/2000/svg" viewBox="0 0 52.62 58.53"><defs><style>.cls-1{fill:#211915;}.cls-2{fill:none;stroke:#211915;stroke-linecap:round;stroke-width:0.91px;}.cls-3{fill:#eeca1a;}</style></defs><g id="Capa_2" data-name="Capa 2"><g id="Capa_1-2" data-name="Capa 1"><path class="cls-1" d="M18.59,55.74s-7.24-.05-7.33,1.51,6.16,1.51,7.06.85.27-2.36.27-2.36"/><path class="cls-1" d="M33.6,55.75s7.24,0,7.33,1.5-6.16,1.51-7.06.85-.27-2.35-.27-2.35"/><line class="cls-2" x1="18.15" y1="56.29" x2="18.06" y2="46.05"/><line class="cls-2" x1="5.68" y1="32.57" x2="3.08" y2="41.54"/><path class="cls-1" d="M5.76,43.85c-.77.95-1.91-.4-1.91-.4s.12,2.14-.88,2c-1.28-.19-.76-2.13-.76-2.13S1,44.8.26,44.1c-1-1,.93-3,3-2.78,1.2.15,3.16,1.72,2.5,2.53"/><line class="cls-2" x1="46.94" y1="32.78" x2="49.54" y2="41.76"/><path class="cls-1" d="M46.86,44.07c.76.94,1.9-.4,1.9-.4s-.11,2.14.88,2c1.29-.19.76-2.13.76-2.13s1.25,1.48,2,.78c1-1-.93-3-3-2.78-1.21.15-3.16,1.71-2.5,2.53"/><line class="cls-2" x1="34.04" y1="56.29" x2="34.13" y2="46.05"/><path class="cls-3" d="M50.16,23.85A23.85,23.85,0,1,1,26.31,0,23.85,23.85,0,0,1,50.16,23.85"/><path class="cls-1" d="M20.77,19.74A1.8,1.8,0,1,1,19,17.94a1.79,1.79,0,0,1,1.79,1.8"/><path class="cls-1" d="M35.44,19.74a1.8,1.8,0,1,1-1.8-1.8,1.8,1.8,0,0,1,1.8,1.8"/><line class="cls-2" x1="32.21" y1="13.96" x2="37.05" y2="17.04"/><line class="cls-2" x1="20.5" y1="13.96" x2="15.66" y2="17.04"/><path class="cls-2" d="M20.5,33.69a11.46,11.46,0,0,1,5.81-1.81,9.55,9.55,0,0,1,5.9,1.81"/></g></g></svg>