<svg xmlns="http://www.w3.org/2000/svg" viewBox="0 0 70.73 52.98"><defs><style>.cls-1{fill:#211915;}.cls-2{fill:none;stroke:#211915;stroke-linecap:round;stroke-width:0.91px;}.cls-3{fill:#eeca1a;}</style></defs><g id="Capa_2" data-name="Capa 2"><g id="Capa_1-2" data-name="Capa 1"><path class="cls-1" d="M61.73,44.59S69,44.47,69.09,46s-6.15,1.58-7.06.92-.3-2.35-.3-2.35"/><path class="cls-1" d="M51.74,47.2s3.41,6.39,4.82,5.73S55,46.79,53.94,46.32s-2.2.88-2.2.88"/><path class="cls-2" d="M55,36.2s5.3.55,6,1.68,1.21,6.89,1.21,6.89"/><path class="cls-2" d="M41.13,45.37s3,4.36,4.38,4.44,6.61-2.29,6.61-2.29"/><line class="cls-2" x1="12.77" y1="28.03" x2="3.6" y2="29.85"/><path class="cls-1" d="M2.79,33.29c-1.19-.25-.53-1.88-.53-1.88S.41,32.5.08,31.55c-.42-1.23,1.55-1.66,1.55-1.66s-1.9-.42-1.6-1.37c.41-1.3,3.12-.57,3.85,1.38.42,1.14-.07,3.59-1.09,3.39"/><line class="cls-2" x1="58.38" y1="20.01" x2="66.95" y2="16.28"/><path class="cls-3" d="M57.58,31.07A23.85,23.85,0,1,1,42.06,1.13,23.86,23.86,0,0,1,57.58,31.07"/><path class="cls-1" d="M26.92,25.23s8.49,1.83,14.46.13a26.46,26.46,0,0,0,9.22-4.88S50,35.09,42.25,36.28c-10.52,1.63-15.33-11-15.33-11"/><path class="cls-1" d="M31.63,14.4a1.8,1.8,0,0,1-3.44-1.09,1.8,1.8,0,0,1,3.44,1.09"/><path class="cls-1" d="M44.89,11.62a1.8,1.8,0,0,1-3.43-1.09,1.81,1.81,0,0,1,2.26-1.17,1.79,1.79,0,0,1,1.17,2.26"/><path class="cls-1" d="M67,12.75c1.22,0,.91,1.72.91,1.72S69.5,13,70,13.87c.68,1.11-1.16,2-1.16,2s1.94,0,1.85,1c-.12,1.35-2.93,1.22-4-.53-.65-1-.7-3.53.34-3.54"/></g></g></svg>