<svg xmlns="http://www.w3.org/2000/svg" viewBox="0 0 118.56 61.87"><defs><style>.cls-1{fill:#593d19;}.cls-2{fill:#6f4714;}.cls-3{fill:#538a58;}.cls-4{fill:#945b19;}.cls-5{fill:#6eaa6f;}.cls-6{fill:#db9600;}.cls-7{fill:#c58021;}.cls-8{fill:#6a4720;}.cls-9{fill:none;stroke:#eeca1a;stroke-linecap:round;stroke-width:1.07px;}</style></defs><g id="Capa_2" data-name="Capa 2"><g id="Capa_1-2" data-name="Capa 1"><path class="cls-1" d="M81.34,48.58l21.47-13.43c-.2,3.57.26,10,.14,13.43-7.28,2-12.29.33-21.26,6.93L81,48.56Z"/><path class="cls-2" d="M102.81,35.15,81.42,48.91h-.35L80.6,35.56h.18l22-11.47c.06.32,0,10.74,0,11.06"/><path class="cls-3" d="M102.92,24.18,80.79,35.8l-.56-7.1,22.58-11c.14,2.8.06,4.14.11,6.53"/><path class="cls-4" d="M92.44,2.17a7.12,7.12,0,0,1,4.64,1.56c3.47,2.59,4.93,7,5.73,13.92L80.23,28.7S78,13.3,85.53,5.22a9.53,9.53,0,0,1,6.9-3Z"/><path class="cls-5" d="M92.43,2.17a9.64,9.64,0,0,0-6.9,3.05c-7.8,8.23-4.74,30.58-4.74,30.58L70,28.89c-.69-10.66.87-22.37,8.7-27.7,8.19.5,13,.93,13.74,1"/><path class="cls-6" d="M82.33,2.64a.8.8,0,1,1-.79.79.79.79,0,0,1,.79-.79"/><path class="cls-2" d="M81.42,48.69l.27,6.82c-17.27,11.81-36.38,2.06-56.42,1.74-2.68,0-8.55,0-13.47,0l-.6-8.67H43.58Z"/><path class="cls-6" d="M77.44,9A1.25,1.25,0,1,1,76.2,10.2,1.25,1.25,0,0,1,77.44,9"/><path class="cls-6" d="M75.53,20a1.77,1.77,0,1,1-1.76,1.76A1.76,1.76,0,0,1,75.53,20"/><path class="cls-7" d="M70,28.7v.19l-21.38.39h-.47C46.28,16,49.54,7.13,58.06,1l1.3-.72c6.53.21,14,.61,19.33,1C71.52,7,69.3,18,70,28.7"/><path class="cls-5" d="M59.36.24,59.1.42c-8.52,6.17-12.34,15.5-10.49,28.81v.58l-10-.35C36.85,14.31,41.65,5.9,48.61,0c3.54,0,7.17.1,10.75.23"/><path class="cls-6" d="M53.75,35.28v9.16A23.39,23.39,0,0,1,43.58,47a19.36,19.36,0,0,1-9.48-2.52V35.07Z"/><path class="cls-6" d="M50.8,2.55a.88.88,0,1,1-.88.88.87.87,0,0,1,.88-.88"/><path class="cls-7" d="M26.84,1A162.68,162.68,0,0,1,48.61,0c-7,5.89-11.76,14.08-10,29.22v.23l-19.47.63v-.57A33.72,33.72,0,0,1,23.48,6.8C24.57,4.93,25.56,2.91,26.84,1"/><path class="cls-6" d="M44.81,10a1.27,1.27,0,1,1-1.27,1.27A1.26,1.26,0,0,1,44.81,10"/><path class="cls-8" d="M44.87,39.54a1,1,0,0,1-.92,1.1l.33,2.79-2,.09.12-2.82c-.83-.07-1-.5-1-1s.45-1.17,1.58-1.27,1.92.41,1.92,1.11"/><path class="cls-4" d="M80.78,35.56l-27-.28v9.16A23.39,23.39,0,0,1,43.58,47a19.36,19.36,0,0,1-9.48-2.52V35.07l-23.85-.24.95,13.75,70.22.33Z"/><path class="cls-6" d="M43.11,21.15a1.77,1.77,0,1,1-1.75,1.77,1.76,1.76,0,0,1,1.75-1.77"/><path class="cls-5" d="M22.69,8.66c1.9-3.83,5.94-7.47,8.42-8.16A20.48,20.48,0,0,0,17.94,5.14C8.55,13.78,9.92,30,9.92,30l9.79.49-.31-1.24c-1-7.35-.35-13.21,3.29-20.57"/><path class="cls-6" d="M21.64,5.52a.86.86,0,0,1,0,.16.84.84,0,0,1-.85.84A.83.83,0,0,1,20,5.68a.84.84,0,0,1,.82-.85.86.86,0,0,1,.84.69"/><path class="cls-6" d="M16.72,11.57a1.19,1.19,0,1,1,0,2.38,1.19,1.19,0,0,1,0-2.38"/><path class="cls-6" d="M15.36,21.78a1.62,1.62,0,1,1-1.61,1.62,1.62,1.62,0,0,1,1.61-1.62"/><polygon class="cls-5" points="80.23 28.7 80.79 35.8 53.75 35.28 34.1 35.07 10.25 35.06 9.85 28.33 80.23 28.7"/><path class="cls-9" d="M.54,61.33s9.56-6.79,30.56-3.74,34,7.23,50.59-2.08S118,48.91,118,48.91"/></g></g></svg>