<svg xmlns="http://www.w3.org/2000/svg" viewBox="0 0 84.99 188.79"><defs><style>.cls-1{fill:#e0d6b9;}.cls-2{fill:#945b19;}.cls-3{fill:#111419;}.cls-4{fill:#6f4714;}.cls-5{fill:#a886b1;}.cls-6{fill:#fff;}.cls-7{fill:#211915;}.cls-8{fill:#bf0811;}.cls-9{fill:#fbfcfc;}.cls-10,.cls-11,.cls-12{fill:none;stroke-linecap:round;}.cls-10{stroke:#9c141b;stroke-width:0.54px;}.cls-11,.cls-12{stroke:#211915;}.cls-11{stroke-linejoin:round;}.cls-12{stroke-width:0.69px;}.cls-13{fill:#9c141b;}</style></defs><g id="Capa_2" data-name="Capa 2"><g id="Capa_1-2" data-name="Capa 1"><path class="cls-1" d="M12.5,126.13l-.44.5c-2.72,2.58-6.57-7.21-6.57-7.21l8-3.12s4.38-.06,5.27,0c2.3.19,1.19,1.8.77,2.1s-2,1.21-2,1.21c2.1,2.25,1.6,4.12.38,4.6a1.81,1.81,0,0,1-1.95-.33c.33,2-1.58,3.84-3.45,2.24"/><polygon class="cls-2" points="70.71 165.56 75.9 178.77 71.43 180.78 66.45 168.76 70.71 165.56"/><polygon class="cls-3" points="75.9 178.78 77.57 183.03 73.12 184.84 71.43 180.77 75.9 178.78"/><path class="cls-3" d="M24.82,169.88l-3.4,18.62a9.62,9.62,0,0,1-5.24-.13l.92-3S2,188,.9,183.7c-1.12-4.51,14.69-4.55,14.69-4.55l2.33-9.52Z"/><path class="cls-4" d="M16.12,38.48c0-.41-.05-7.89.61-10.66l-.05-.23c-1.44.3,0-2.11-1.35-2.46H13.52S2.8,42.75,5,45.18c1.2,1.34,2.93-2.32,4.24-5.91-.49,1.42-3.55,10.44-2.27,11s4.16-6.62,4.08-6.39c-.79,2.53-3.9,12.67-2,12.88,1.23.14,2.15-2,2.72-4-.58,2.86-1.08,6.91.65,7,2.43.15,4.28-8.66,4.59-10.22-.05-.49-.82-10.18-.9-11.15"/><path class="cls-5" d="M68.57,130.25c.82,20.38,3.91,23.4,7.32,35.93l-12,3.81c-5.08-4.43-10.64-19.73-17.88-19.58C34.71,150.63,26.48,170,26.76,171l-12-1.39c2.07-11.19,3.51-21.59,7.77-36.37,8,2.65,16.21,2.15,23.76,1.38a125.72,125.72,0,0,0,22.28-4.39"/><path class="cls-1" d="M69.28,43.71c-.16-1.53-.32-3.07-.45-4.61,0-.49-.09-1-.14-1.44a30.62,30.62,0,0,0-4.2-13.16v0c-4.17.42-9.13-.25-13.85-.86-4.08-.51-8-1-11.07-.63-11,1.24-16.93,4.31-23.76,5.72,0,0-2.59,16.52-1.72,24.69h0a2.44,2.44,0,0,0,0,.27l.19,0C25.2,90,59.73,75.87,59.73,75.87c1.4-2.08,9.73-24.43,10-28.22-.12-1.3-.27-2.62-.42-3.94"/><path class="cls-4" d="M76.89,37a4.16,4.16,0,0,0,.5.67l-.5-.67m-3.1,10.27c.11.25,2.25,8.17,1.42,9.09-.68.76-3.81.39-5-3.77a26.79,26.79,0,0,1-.48-4.91c-.78-7.56-3.08-19.82-5.21-23.15v0a15.65,15.65,0,0,0,4.16-.95l0,.09S85.26,37.67,85,42.25c-.13,2.2-5.32-2.11-7.57-4.56,1.22,1.67,4,6.29,4,8.49,0,1.77-3.3-1.16-4.54-2.84.9,1.52,3.23,7.2,2.16,9.22-.87,1.66-5.26-5.32-5.26-5.32"/><path class="cls-1" d="M70.36,36.9c1.62.2,2.72,1.59,2.72,3.55S71.86,44,70.36,44c-.38,0-1.08.18-1.41,0l-.34-.71c-.16-1.53-.48-1.8-.61-3.34,0-.49-.26-2.1-.31-2.58.46-.47,2-.45,2.67-.45"/><path class="cls-4" d="M14.11,53.67c6.61,0,10.31,31.71,23.69,17.29h4c2.84,9.78,22.23-1.7,24.24-18.55,0,0,.62-4.38,3.65-4.76.29,2.68.35,3.3.48,4.91.51,6.7.33,13-2.42,18.4a20.25,20.25,0,0,1-1.61,2.66C62.62,78.56,57.08,84,45.6,85.17c-.91.1-1.8.16-2.67.2-9.21.45-16.16-2.09-20.37-6.39-1.88-1.91-11.5-15.1-8.45-25.31"/><path class="cls-6" d="M50.32,33.35a6.88,6.88,0,0,1,3.74-.93c1.17,0,2.43-.56,3.54-.37a7.65,7.65,0,0,1,3.83,6.09c0,3.75-1.8,6.53-6.41,6.79-3.53.2-6.41-3-6.41-6.79a9.67,9.67,0,0,1,1.71-4.79"/><path class="cls-4" d="M51.64,57.38a1.17,1.17,0,0,1-.21,1.67c-.54.28-.94-.17-1.33-.48a8.39,8.39,0,0,0-2.51-1.19,19,19,0,0,0-6.8-.55C36.73,57.14,32,58.27,29,61.18c-.53.52-1.25,2-2.15,1.48s-.24-1.72.15-2.34a13.43,13.43,0,0,1,4.25-3.83,22.6,22.6,0,0,1,11.06-2.55c2.94,0,7.43.85,9.37,3.44"/><path class="cls-7" d="M51.7,37.1a1.19,1.19,0,0,1,1,1.16,1,1,0,0,1-1,1.16,1.14,1.14,0,0,1-1.06-1.16A1.22,1.22,0,0,1,51.7,37.1"/><path class="cls-8" d="M68.57,71.27,67.76,71a20.25,20.25,0,0,1-1.61,2.66C62.62,78.56,57.08,84,45.6,85.17c-.91.1-1.8.16-2.67.2-9.21.45-16.15-2.09-20.37-6.39a22.46,22.46,0,0,1-4.45-6.66C2.65,84.24-4.21,98,2.67,116.18l4.63-2.47,3.53-2.14c-3.74-11.95-.5-19.53,7.6-25.72,0,0-6.07,34,4.1,47.41,8,2.65,16.57,2.85,24.13,2.07a91,91,0,0,0,21.91-5.08c2.85-6.16,2.17-21.47,2.17-21.47l0,0a98.23,98.23,0,0,0-5.29-24.43c9.89,5,12.52,15.08,5.48,24.19l8.43,5.11Q94.63,94.29,68.57,71.27"/><path class="cls-9" d="M33.36,130a.93.93,0,1,0-.93.93.93.93,0,0,0,.93-.93"/><path class="cls-9" d="M32.43,92a.93.93,0,1,0-.93.92.93.93,0,0,0,.93-.92"/><path class="cls-9" d="M32.43,120.74a.93.93,0,1,0-.93.93.93.93,0,0,0,.93-.93"/><path class="cls-9" d="M31.5,101.26a.93.93,0,1,0-.93.93.93.93,0,0,0,.93-.93"/><path class="cls-9" d="M31.5,110.54a.93.93,0,1,0-.93.93.93.93,0,0,0,.93-.93"/><path class="cls-10" d="M29.65,133.29C27.07,109.84,27.26,99.41,28.8,86"/><path class="cls-3" d="M34.84,42.49A2.61,2.61,0,0,1,33,44.72L21.42,46.2c-3.29.32-4.35-.52-4.42-1.94l-.78-9.41c-.1-2,.94-2.84,2.93-2.94l11.77-1.44c2-.1,2.93.29,3,2.26Z"/><path class="cls-11" d="M20.69,39.75c-2.11.59-6.72,2.08-8.85,2.63"/><path class="cls-11" d="M67.06,24.18S42,33.72,32.84,36.5"/><path class="cls-12" d="M43.64,50.46c-.39.32-8.92,2.74-10-1.23C33.07,46.87,42,39,42.39,39"/><path class="cls-13" d="M10.84,109.91c1.22,2.28,2.5,3.47,3.92,5.67-2.52,2.2-6.35,3.82-10.29,5.16-.24.08-3.35-6.15-3.35-6.15Z"/><path class="cls-9" d="M11.55,114.66a.93.93,0,1,0-1.85,0,.93.93,0,1,0,1.85,0"/><path class="cls-1" d="M65.49,123.71l-.11,0c-5-1.15-.21-6-.21-6-8.18-2.59,2.4-3.21,2.4-3.21.14.28,1.19.19,1.46.39,2,1.56,3.38,1.51,6.49,3.75h0a16.76,16.76,0,0,1-4.18,7.51l-.41.37a1.27,1.27,0,0,1-1.35.24,3.75,3.75,0,0,1-1.7-1.59c-1.94.54-2.23-.52-2.39-1.53"/><path class="cls-13" d="M71.07,108.05c-1.43,2.15-2.82,3.22-4.44,5.28,2.3,2.43,6,4.4,9.75,6.1.24.11,3.92-5.82,3.92-5.82Z"/><path class="cls-9" d="M71.33,112.39a.93.93,0,1,0-.92.93.92.92,0,0,0,.92-.93"/><path class="cls-12" d="M49.17,33.35a80.94,80.94,0,0,0,9.06-2,17.55,17.55,0,0,0,4-2"/><path class="cls-12" d="M35.76,62.9a22.46,22.46,0,0,0,8.55,2.18"/><path class="cls-3" d="M79.41,9.77a.76.76,0,0,0-1.36-.46C68,22.69,60.51,11.52,51.41,4.54,47.88,1.85,41.32-.22,37,0,21.86.88,16.33,23.53,5.77,15.36a1.28,1.28,0,0,0-2.11,1.06c.47,7.13,1.9,9.92,4.61,11.85,2.42,1.73,6,1.61,9.53.93,7.57-1.43,15.62-5,24-5.58a63.14,63.14,0,0,1,7.45.22c5.48.7,10.47,3,16.06,2.87,8-.24,14-3.79,14.15-16.94"/><path class="cls-6" d="M41.55,17.89c3.71-2.19,3.82,2,1.6,1.72.47,1-.13,1.47-.81,1.43A1.57,1.57,0,0,1,41,19l-3.56-1.74.28-.37a2.74,2.74,0,0,0,.55-.69l.23-.21Z"/><path class="cls-6" d="M30.69,11.67a2.85,2.85,0,0,1,1.16-2,4.2,4.2,0,0,1,2.56-.82c2.13,0,4.24.67,5,2.23s.05,4.17-.63,5.2c0,0-1.68,1.72-2.17,2.07a3.6,3.6,0,0,1-3.27.07c-1.11-.62-2.31-4-2.55-5.06a4.73,4.73,0,0,1-.1-1.71"/><path class="cls-7" d="M38.1,12.44a1,1,0,0,1-.25,1.45,1.25,1.25,0,0,1-1.6-.2,1.26,1.26,0,0,1,.35-1.6,1.11,1.11,0,0,1,1.5.35"/><path class="cls-6" d="M33.05,17.49l0,.17-4.75,2.2c-1.26,3.57-3,1.82-2.18.25-3.28,0-1.2-4.91,1.47-1.74L32,16.28c.4.68.72,1.12.72,1.12Z"/><path class="cls-7" d="M33.17,11.7c.39,0,.83.37.78,1.19a.91.91,0,0,1-1.05.91A1.2,1.2,0,0,1,32,12.65a1,1,0,0,1,1.19-1"/><path class="cls-6" d="M31.25,13.42l-.39.25L27.92,11.6c-3.56.6-2.65-2-1.11-1.92-1.32-3.17,3.51-2.31,2.07,1l1.81,1c-.08.56.43,1.18.56,1.75"/><path class="cls-7" d="M34.66,15.71a.2.2,0,0,1-.21.19.21.21,0,0,1-.19-.21.19.19,0,0,1,.21-.18.19.19,0,0,1,.19.2"/><path class="cls-7" d="M35.7,15.78a.22.22,0,1,1-.44,0,.22.22,0,0,1,.44,0"/><path class="cls-6" d="M43.81,9c2.32,0,.6,3.31-1.53,1.66l-3.06,2.2-.11,0a4.11,4.11,0,0,0-.44-1.26l2.85-1.93C41.35,7.66,42.15,7,42.88,7a1.26,1.26,0,0,1,.93,2"/></g></g></svg>