<svg xmlns="http://www.w3.org/2000/svg" xmlns:xlink="http://www.w3.org/1999/xlink" viewBox="0 0 84.78 189.18"><defs><style>.cls-1,.cls-12,.cls-13,.cls-14{fill:none;}.cls-2{fill:#a886b1;}.cls-3{fill:#e0d6b9;}.cls-4{fill:#111419;}.cls-5{clip-path:url(#clip-path);}.cls-6{fill:#fbfcfc;}.cls-7{fill:#6f4714;}.cls-8{fill:#945b19;}.cls-9{fill:#fff;}.cls-10{fill:#211915;}.cls-11{fill:#bf0811;}.cls-12{stroke:#9c141b;stroke-width:0.54px;}.cls-12,.cls-13,.cls-14{stroke-linecap:round;}.cls-13,.cls-14{stroke:#211915;}.cls-13{stroke-linejoin:round;}.cls-14{stroke-width:0.69px;}.cls-15{fill:#9c141b;}</style><clipPath id="clip-path"><path class="cls-1" d="M44.76,58.93c-10.08.92-11,10.87-11,10.87a36.67,36.67,0,0,1,5.53-2h0l1.86-.44a31.6,31.6,0,0,1,7.73-.72h0l2.78.2a31.59,31.59,0,0,1,4.16.75s-.73-8.73-9.68-8.73c-.44,0-.89,0-1.36.06"/></clipPath></defs><g id="Capa_2" data-name="Capa 2"><g id="Capa_1-2" data-name="Capa 1"><path class="cls-2" d="M68.4,129.66c6.09,13.64,6,26.66,2.19,39.29H59.74a16.71,16.71,0,0,0,.41-5.32c-.67-8.26-7-14.48-14.25-13.88s-12.48,7.75-11.81,16a17.44,17.44,0,0,0,.57,3.19l-2.36.48-5.47,1.45L22.52,172c-5.56-13.14-5.32-26.26,0-39.37,8,2.64,16.15,2.15,23.69,1.37a125.89,125.89,0,0,0,22.19-4.37"/><path class="cls-3" d="M69.11,43.4c-.15-1.51-.31-3-.44-4.58q-.06-.74-.15-1.44a30.39,30.39,0,0,0-4.18-13.11v0c-4.16.42-9.09-.25-13.8-.85-4.06-.51-8-1-11-.63-11,1.23-18.76,8.69-25.57,10.09l.06.24a32.11,32.11,0,0,0-.7,9.41c0,.39.05.8.09,1.21.08,1,.15,1.95.23,2.94.16,2.11.31,4.26.5,6.41h0c0,.1,0,.18,0,.27l.18,0C26.39,87,59.6,75.46,59.6,75.46c1.39-2.07,9.7-24.35,9.94-28.13-.13-1.29-.28-2.61-.43-3.93"/><path class="cls-4" d="M55.8,67.6a30.3,30.3,0,0,0-4.16-.75l-2.78-.2h0a31.6,31.6,0,0,0-7.73.72l-1.86.44h0a37.18,37.18,0,0,0-5.54,2s1-9.95,11-10.87C55,58,55.8,67.6,55.8,67.6"/><g class="cls-5"><polygon class="cls-6" points="39.06 68.33 38.91 64.33 41.38 63.78 41.92 68.01 39.06 68.33"/><polygon class="cls-6" points="47.18 66.95 47.11 63.5 49.63 63.38 50.04 67.31 47.18 66.95"/></g><path class="cls-7" d="M73.61,46.93c.11.25,2.25,8.14,1.42,9s-3.81.4-5-3.75a26.68,26.68,0,0,1-.47-4.9c-.78-7.53-3.08-19.75-5.2-23.06v0c1.5-.16,2.9-1.83,4.15-2.33l0,1.48S85,37.39,84.78,42c-.13,2.2-5.31-2.1-7.55-4.55,1.21,1.68,4,6.28,4,8.47,0,1.77-3.28-1.15-4.52-2.84.9,1.53,3.22,7.19,2.16,9.2-.87,1.65-5.25-5.3-5.25-5.3M76.7,36.69a4.75,4.75,0,0,0,.49.67c-.23-.33-.41-.57-.49-.67"/><path class="cls-3" d="M70.19,36.63c1.49,0,2.72,1.58,2.72,3.53s-1.23,3.52-2.72,3.52c-.37,0-1.08.18-1.4,0L68.44,43c-.15-1.51-.47-1.78-.6-3.32,0-.49.06-1.78,0-2.25a4.16,4.16,0,0,1,2.35-.76"/><path class="cls-7" d="M14.14,53.33C20.72,53.31,29.64,85,43,70.61l3.81-.19c2.83,9.74,17.1-1.55,19.11-18.34,0,0,.62-4.37,3.64-4.75.28,2.68.34,3.3.47,4.9.51,6.68.33,12.94-2.4,18.34A20.82,20.82,0,0,1,66,73.22c-3.52,4.93-9,10.3-20.48,11.51-.91.1-1.8.16-2.67.2-9.17.45-16.1-2.09-20.3-6.37-1.87-1.9-11.45-15.05-8.41-25.23"/><polygon class="cls-8" points="67.52 168.95 63.73 182.58 58.97 181.5 62.2 168.95 67.52 168.95"/><polygon class="cls-4" points="63.73 182.58 62.5 186.97 57.88 185.75 58.97 181.5 63.73 182.58"/><path class="cls-9" d="M51.59,33.08a7,7,0,0,1,3.73-.92c1.17,0,2.42-.56,3.53-.37a7.6,7.6,0,0,1,3.83,6.07c0,3.73-1.81,6.51-6.4,6.77-3.52.19-6.39-3-6.39-6.77a9.68,9.68,0,0,1,1.7-4.78"/><path class="cls-7" d="M57.05,57a1.17,1.17,0,0,1-.21,1.66c-.54.28-.94-.16-1.33-.47A8.22,8.22,0,0,0,53,57a19.1,19.1,0,0,0-6.78-.55c-4,.31-8.76,1.44-11.78,4.34-.54.52-1.25,2-2.15,1.47s-.24-1.71.15-2.33a13.36,13.36,0,0,1,4.24-3.82,22.55,22.55,0,0,1,11-2.54c2.93,0,7.4.85,9.34,3.43"/><path class="cls-10" d="M58.46,35.48a1.18,1.18,0,0,1,1,1.16,1,1,0,0,1-1,1.15,1.13,1.13,0,0,1-1.06-1.15,1.22,1.22,0,0,1,1.06-1.16"/><path class="cls-11" d="M68.4,70.88l-.79-.32A20.25,20.25,0,0,1,66,73.22c-3.52,4.93-9,10.3-20.48,11.51-.91.1-1.8.16-2.67.2-9.17.45-16.1-2.09-20.3-6.37a22.58,22.58,0,0,1-4.43-6.63C2.71,83.8-4.13,97.47,2.73,115.64l4.62-2.46L10.86,111c-3.73-11.91-.5-19.46,7.58-25.64,0,0-6.05,33.86,4.08,47.26,8,2.64,16.52,2.84,24.05,2.06a90.68,90.68,0,0,0,21.83-5.06c2.85-6.14,2.17-21.4,2.17-21.4l0,0a97.52,97.52,0,0,0-5.28-24.35c9.86,5,12.49,15,5.47,24.12l8.41,5.08Q94.38,93.83,68.4,70.88"/><path class="cls-4" d="M32.9,169.27l1.76,17.42a9.65,9.65,0,0,1-5,1.4V185s-13.69,6.86-15.93,3.11c-2.37-4,12.69-8.6,12.69-8.6L26.25,171Z"/><path class="cls-3" d="M12.52,125.55l-.43.5c-2.71,2.57-6.55-7.18-6.55-7.18l8-3.12s4.36,0,5.25,0c2.29.18,1.18,1.79.77,2.09s-2,1.21-2,1.21c2.09,2.23,1.6,4.1.38,4.58a1.81,1.81,0,0,1-1.95-.33c.34,2-1.57,3.83-3.44,2.23"/><path class="cls-7" d="M13.38,43.71c0-.41-.05-7.87.61-10.62l-.06-.24a9,9,0,0,1-4.17,0l-.06.26S.1,48,2.3,50.38c1.2,1.33,2.92-2.31,4.23-5.89C6,45.91,3,54.9,4.26,55.47s4.14-6.6,4.07-6.37c-.8,2.52-3.89,12.63-2,12.84,1.23.14,2.15-2,2.71-3.94-.57,2.85-1.07,6.89.65,7,2.42.16,4.27-8.63,4.57-10.18,0-.49-.81-10.14-.89-11.11"/><path class="cls-3" d="M14.31,43.21c.17,2.31.34,4.64.54,7a4.39,4.39,0,0,1-1.37.36,3.94,3.94,0,0,1-4.41-3.37A3.63,3.63,0,0,1,9.16,46h0a4,4,0,0,1,3.63-2.95,4.18,4.18,0,0,1,1.51.12"/><path class="cls-6" d="M49.33,129.43a.93.93,0,1,0-.92.92.93.93,0,0,0,.92-.92"/><path class="cls-6" d="M48.41,91.52a.93.93,0,1,0-.93.93.93.93,0,0,0,.93-.93"/><path class="cls-6" d="M48.41,120.18a.93.93,0,1,0-.93.93.93.93,0,0,0,.93-.93"/><path class="cls-6" d="M47.48,100.77a.93.93,0,1,0-.92.92.93.93,0,0,0,.92-.92"/><path class="cls-6" d="M47.48,110a.93.93,0,0,0-1.85,0,.93.93,0,1,0,1.85,0"/><path class="cls-12" d="M45.63,132.69c-2.56-23.38-2.38-33.77-.84-47.15"/><path class="cls-4" d="M38.92,42.19a2.57,2.57,0,0,1-1.87,2.22l-11.5,1.48c-3.28.32-4.34-.51-4.41-1.93l-.77-9.39c-.1-2,.94-2.82,2.92-2.92L35,30.21c2-.1,2.91.29,3,2.25Z"/><path class="cls-13" d="M22.06,39.46c-2.1.59-6.69,2.07-8.81,2.63"/><path class="cls-13" d="M68.28,24s-23.61,9.5-32.73,12.27"/><path class="cls-14" d="M40.5,50.14c.39.32,8.89,2.73,9.92-1.23.62-2.35-8.26-10.18-8.67-10.22"/><path class="cls-15" d="M10.87,109.38c1.22,2.28,2.49,3.47,3.91,5.66-2.51,2.19-6.33,3.81-10.25,5.14-.25.08-3.34-6.14-3.34-6.14Z"/><path class="cls-6" d="M11.58,114.12a.93.93,0,1,0-.93.93.93.93,0,0,0,.93-.93"/><path class="cls-3" d="M65.34,123.14l-.11,0c-5-1.15-.21-6-.21-6-8.15-2.58,2.39-3.2,2.39-3.2.13.28,1.19.18,1.46.39,2,1.56,3.37,1.51,6.46,3.73h0a16.65,16.65,0,0,1-4.16,7.49l-.4.37a1.3,1.3,0,0,1-1.36.23,3.78,3.78,0,0,1-1.69-1.58c-1.94.54-2.22-.51-2.38-1.52"/><path class="cls-15" d="M70.89,107.53c-1.42,2.15-2.8,3.21-4.42,5.27,2.3,2.41,5.94,4.38,9.73,6.07.23.11,3.9-5.79,3.9-5.79Z"/><path class="cls-6" d="M71.16,111.86a.93.93,0,1,0-.92.92.92.92,0,0,0,.92-.92"/><path class="cls-14" d="M50.46,33.08a82,82,0,0,0,9-2,17.61,17.61,0,0,0,3.94-2"/><path class="cls-4" d="M74.81,6.12a.76.76,0,0,0-1.4-.32c-8.78,14.27-17.25,3.84-27-2.25C42.67,1.2,38.7-.51,34.46.14,19.43,2.42,16.91,29.51,2,18.6a1.28,1.28,0,0,0-2,1.26c1.14,7.05,3.3,10.82,6.19,12.48,2.57,1.5,5.73,1.31,9.22.29,7.4-2.14,16.33-8,24.57-9.31a24.23,24.23,0,0,1,4.67-.22c5.53.18,12.06,1.51,17.64,1.22.6,0,1.18-.08,1.75-.16,6.86-.87,11.81-4.93,10.75-18"/><path class="cls-9" d="M46.14,17c3.49-2.53,4,1.63,1.76,1.56.55.93,0,1.47-.68,1.5a1.56,1.56,0,0,1-1.5-1.94L42,16.71s.22-.37.24-.39a3,3,0,0,0,.48-.74l.21-.23Z"/><path class="cls-9" d="M34.74,11.81a2.9,2.9,0,0,1,1-2.08,4.2,4.2,0,0,1,2.47-1.05c2.12-.21,4.29.27,5.2,1.74s.43,4.15-.15,5.24c0,0-1.51,1.87-2,2.27A3.57,3.57,0,0,1,38,18.3c-1.16-.51-2.67-3.74-3-4.79a4.79,4.79,0,0,1-.26-1.7"/><path class="cls-10" d="M42.19,11.88a1,1,0,0,1-.11,1.47,1.24,1.24,0,0,1-1.61,0,1.25,1.25,0,0,1,.2-1.62,1.11,1.11,0,0,1,1.52.2"/><path class="cls-9" d="M37.64,17.38l0,.18L33.09,20.2c-.92,3.67-2.85,2.09-2.14.45-3.27.29-1.66-4.78,1.3-1.87l4.2-2.5a13.36,13.36,0,0,0,.83,1Z"/><path class="cls-10" d="M37.22,11.61c.39,0,.86.29.88,1.11a.9.9,0,0,1-1,1,1.19,1.19,0,0,1-1-1.06c0-.92.7-1,1.1-1.05"/><path class="cls-9" d="M35.46,13.5l-.36.28L32,12c-3.48.92-2.83-1.73-1.29-1.81-1.61-3,3.28-2.64,2.15.75l1.9.86c0,.56.54,1.14.72,1.69"/><path class="cls-10" d="M39.07,15.47a.2.2,0,1,1-.39,0,.2.2,0,0,1,.39,0"/><path class="cls-10" d="M40.12,15.44a.23.23,0,0,1-.45,0,.22.22,0,0,1,.22-.23.22.22,0,0,1,.23.22"/><path class="cls-9" d="M47.56,8c2.31-.19.91,3.24-1.36,1.8l-2.85,2.48-.11,0a4,4,0,0,0-.55-1.2l2.65-2.19C45,6.82,45.71,6.06,46.44,6A1.27,1.27,0,0,1,47.56,8"/></g></g></svg>