<?xml version="1.0" encoding="utf-8"?>
<!-- Generator: Adobe Illustrator 26.2.1, SVG Export Plug-In . SVG Version: 6.00 Build 0)  -->
<svg version="1.1" id="Capa_1" xmlns="http://www.w3.org/2000/svg" xmlns:xlink="http://www.w3.org/1999/xlink" x="0px" y="0px"
	 viewBox="0 0 587.7 442.8" style="enable-background:new 0 0 587.7 442.8;" xml:space="preserve">
<style type="text/css">
	.st0{fill:#3F7473;}
	.st1{fill:#6A4720;}
	.st2{fill:#EECA1A;}
	.st3{fill:#6F4714;}
	.st4{fill:#BF0811;}
	.st5{fill:#FFFFFF;}
	.st6{fill:#905D2B;}
	.st7{fill:#61A0A2;}
	.st8{fill:#DB9600;}
	.st9{fill:#D7D7CE;}
	.st10{fill:#111419;}
	.st11{fill:#FBFCFC;}
	.st12{fill:#211915;}
	.st13{fill:#8C6A98;}
	.st14{fill:#A886B1;}
	.st15{fill:#956E9F;}
	.st16{fill:#DEA8C3;}
	.st17{fill:#945B19;}
	.st18{fill:none;stroke:#211915;stroke-width:1.4886;stroke-linecap:round;stroke-linejoin:round;}
	.st19{fill:#74B3B0;}
</style>
<g>
	<g id="Capa_2_00000023968809443043103860000008943420320919543712_">
		<g id="Capa_1-2">
			<path class="st0" d="M490.3,380.5c30.3-6,58.7-31.2,76.5-68.1s24.8-84.9,18.8-129.4c-3.1-23.2-9.7-45.5-19.9-63.6
				c-12.7-22.4-32.9-40.3-57.5-50.5c-21.7-9.1-44.3-12.4-66.7-17.2C372.2,36.9,301.8,6.5,233.2,27.6c-26.4,8.2-51.5,23.7-77.4,35
				c-45,19.7-96.1,29.5-127.2,81.7C6.1,182-0.9,235.2,0.1,285.5c0.5,25.2,3.3,51.8,14.2,71.1c6.4,11.3,15.2,19.2,24.2,25.7
				c56.7,41,123.2,32.3,186.3,28.6c89.5-5.3,180.1,0.9,267.7-26.6"/>
			<path class="st1" d="M151.5,207.9l-7.5,0.9h-0.2c-0.2-6.9-23.5-156-23.9-162.8c2.4-0.4,2.5-0.6,4.8-1
				C125.3,52,151.1,201,151.5,207.9"/>
			<path class="st2" d="M152.3,214.3l-7.8,1.2c0,0-0.7-5-0.7-6.8l7.6-1.4C151.7,210,152.2,212.6,152.3,214.3"/>
			<path class="st3" d="M224.6,49.8c0-0.4-4.6-14.6-4.6-14.6l-1,12c-0.1,1.2-0.3,2.7-0.2,3.2c0.2,1.3,1.2,2.4,2.6,2.5
				c0.7-0.2,1.4-0.4,2-0.6C224.3,51.8,224.8,50.8,224.6,49.8"/>
			<path class="st1" d="M245.9,223.4l-9,1.7c0,0-14.7-151.8-15.3-163.4l2.8-0.7C225.4,72.4,245.3,212,245.9,223.4"/>
			<path class="st4" d="M251.1,66.6c5.9,13.8,8.3,27,6.2,39.4l-17.5,4l0,0c4.6-13.2,2.2-27.8-8-39.7l0,0L251.1,66.6z"/>
			<path class="st5" d="M229.4,112.4l-9.9,2.2c3.1-14.5-0.5-27.8-9.3-40.2l21.7-4.2l0,0c10.2,12,12.6,26.5,8,39.8l0,0l-5.7,1.3
				L229.4,112.4z"/>
			<path class="st4" d="M210.2,74.5c8.8,12.4,12.4,25.7,9.3,40.2l-22.1,5c7.8-12.1,4.5-26.4-4.4-41.9L210.2,74.5z"/>
			<path class="st1" d="M91.7,128.3c0.1,1-0.4,2-1.4,2.3l-0.4,0.1c-1.2,0.2-2.2-0.7-2.4-1.8c-0.2-1.2,0.7-2.2,1.8-2.4l0,0
				C90.5,126.4,91.5,127.1,91.7,128.3L91.7,128.3 M189.6,136.3c0,1-0.9,1.8-1.9,1.7c-1,0-1.8-0.9-1.7-1.9c0-0.9,0.7-1.6,1.6-1.7
				C188.7,134.4,189.6,135.3,189.6,136.3L189.6,136.3 M194.4,77.4c0.2,0.8-0.3,1.7-1.1,1.9c-0.8,0.2-1.7-0.3-1.9-1.1
				c0-0.1,0-0.2,0-0.3c-0.2-0.8,0.3-1.7,1.2-1.9C193.5,75.9,194.3,76.6,194.4,77.4 M121.4,20.4c0.2,1,0.4,2.1,0.6,3.1l-3.1,0.6
				c-0.2-1-0.3-2-0.5-3V21C119.4,21.3,120.6,21.1,121.4,20.4"/>
			<path class="st1" d="M88.5,70.9c0.1,0.7-0.3,1.5-1,1.8l-0.4,0.1l0,0c-0.9,0.1-1.7-0.6-1.8-1.5c-0.1-0.8,0.4-1.5,1.1-1.7
				c0.1,0,0.2-0.1,0.3-0.1C87.6,69.3,88.4,70,88.5,70.9L88.5,70.9"/>
			<path class="st4" d="M268,123.5c12.4,20.1,12.9,40.2,1.4,60.3l-24,5.2c10-20.7,8.3-40.9-4-60.5L268,123.5z"/>
			<path class="st6" d="M250.5,65.1c1.1,0.5,1.5,1.7,1.1,2.8c-0.1,0.2-0.3,0.5-0.4,0.6L232,72l-21.7,4.1l-17.2,3.2l0,0
				c0.9-0.2,1.5-1.2,1.2-2.1c-0.2-0.8-0.9-1.3-1.7-1.3l30.6-5.7l3.2-0.6L250.5,65.1z M241.4,128.8l-25.2,4.7l-26.6,4.9l-1.5,0.3l0,0
				c1.1-0.2,1.7-1.3,1.5-2.4l0,0c-0.1-1.1-1-1.9-2-1.8l0,0l0,0l5.4-1l38-7.1l5.3-1l31-5.8c1.9,1.1,2.2,2.5,0.8,4.2L241.4,128.8z"/>
			<path class="st5" d="M243.6,189.4l-7.7,1.7l-21.6,4.7c10.2-19.7,9.9-40.7,1.9-62.5l25.2-4.7c12.3,19.6,13.9,39.7,4,60.5
				L243.6,189.4z"/>
			<path class="st7" d="M240.9,260.6c3.3,0,5.9,2.6,5.9,5.9s-2.6,5.9-5.9,5.9s-5.9-2.6-5.9-5.9S237.7,260.6,240.9,260.6"/>
			<path class="st4" d="M216.2,133.2c8,21.8,8.3,42.8-1.9,62.5l-28.2,6.1c7.7-15.2,11.1-29.6,9.8-43.1l0,0
				c-0.7-7.2-2.8-14.2-6.2-20.6L216.2,133.2z M225,62.7h-0.2c-0.8,0.1-1.7,0.2-2.7,0.3c-8.1,1.2-20.2,3.5-29.2-2.7
				c11,0.4,17.3-4.9,27.5-7.2l3.4-0.8C224.2,55.8,224.6,59.3,225,62.7"/>
			<path class="st3" d="M204.1,214.3l3.3,24.7c-19.1,3.2-38.3,5.6-57.5,7.7c-10.6,1.2-21.3,2.1-32,2.9c-5.2,0.4-10.4,0.7-15.6,0.9
				l0,0l-1.8-26.3l103-9.7L204.1,214.3z"/>
			<path class="st8" d="M204,213.5l0.1,0.8l-0.7,0.1l-103,9.7l-0.4-5.4c-0.2-3.1,2.1-5.8,5.2-6.1l14.7-1.6c0.4,0,0.7,0.2,0.7,0.6
				c0.6,5.9,10.2,4.7,10.2,4.7l18.9-1.8l7.8-0.7l41.6-3.9C201.5,209.5,203.6,211.2,204,213.5"/>
			<path class="st6" d="M159,52.3c1.8,0.7,2,1.8,0.8,3.3c-5.9,1.2-11.8,2.4-17.7,3.6c-5.5,1.2-11,2.4-16.5,3.6
				c-6.6,1.5-13.3,3.1-19.9,4.8c-4.7,1.2-9.3,2.5-14,3.8l-4.2,1.2c0.8-0.4,1.2-1.4,0.8-2.2c-0.3-0.7-1-1-1.7-1c-0.1,0-0.2,0-0.3,0.1
				l0,0c13.8-4,27.5-7.4,41.4-10.5c1.3-0.3,2.7-0.6,4-0.9C140.8,56.1,149.9,54.2,159,52.3 M133.9,120.3c-7.5,1.6-15.1,3.3-22.7,5
				c-6.9,1.6-13.9,3.4-20.9,5.3l0,0c0.9-0.3,1.5-1.3,1.4-2.3c-0.1-1.1-1.2-1.9-2.3-1.8c0,0,0,0-0.1,0l0,0c15.7-4.2,31.5-7.8,47.3-11
				c1.8-0.4,3.6-0.7,5.4-1.1c11.6-2.3,23.2-4.4,34.7-6.5c2.1,1,2.4,2.4,0.9,4.1c-7.2,1.2-14.4,2.5-21.6,3.9
				C148.7,117.4,141.3,118.8,133.9,120.3"/>
			<path class="st9" d="M125.3,229l0.7,10.8l-9.5,0.6l-0.7-10.8L125.3,229z M147.6,227.3l0.7,10.8l-12.2,0.8l-0.7-10.8L147.6,227.3z
				"/>
			<path class="st10" d="M126.5,48.4c-1.7-8.3-4.5-25.2-4.5-25.2s-34.6,6.1-52.7,3.6L82.1,39L70,50c20.4,3.2,47.4-1.5,52.7-1.3
				L126.5,48.4z"/>
			<path class="st4" d="M156.1,55.5c7.1,12,11.6,27.5,4.5,46.2l-19,3.7c0,0,5.6-28.7-6.1-45.3c5.5-1.3,16.7-3.7,22.2-4.8
				 M153.9,185.5c4.4-21.1,5.1-45.2-5.4-68.2c7.4-1.5,18.8-4.2,26.2-5.6c12,21.5,14.9,50.3,3,67
				C173.9,179.5,153.9,185.5,153.9,185.5"/>
			<path class="st11" d="M136.4,59.9c8.3,13.8,9,29.8,5.2,45.5l-22,5.1c3.3-15.2,1.1-31-6.1-44.8C120.2,64,129.7,61.4,136.4,59.9"/>
			<path class="st4" d="M113.5,65.7c7.2,13.8,9.3,29.6,6.1,44.8l0,0l-23,5.6c4.6-14.7,4.1-29.3-4.8-44.5
				C96.4,70.3,108.9,66.9,113.5,65.7 M118.9,123.5c9.8,21.5,8.9,44.6,2.1,68.9c-8.7,2.4-21,5.4-30.9,8.2c13.6-36.3,0-69.9,0-69.9
				h0.2c7-1.9,14-3.7,20.9-5.3"/>
			<path class="st11" d="M148.5,117.4c16.4,28.4,5.4,68.2,5.4,68.2c-5.6,1.1-26.9,5.2-32.9,6.9c6.7-24.2,7.6-47.4-2.1-68.9
				C127.2,121.4,140.2,119,148.5,117.4"/>
			<path class="st12" d="M98.9,35c0.9-0.1,1.7,0.6,1.7,1.5c0.1,0.9-0.6,1.7-1.5,1.7c-0.9,0.1-1.7-0.6-1.7-1.5
				C97.4,35.9,98,35.1,98.9,35 M103.4,34.6c0.9-0.1,1.7,0.6,1.7,1.5c0.1,0.9-0.6,1.7-1.5,1.7c-0.9,0.1-1.7-0.6-1.7-1.5
				C101.8,35.5,102.5,34.7,103.4,34.6L103.4,34.6"/>
			<path class="st2" d="M246.3,231.4l-1.2,0.3c-2.7,0.6-5.4,1.2-8.2,1.8l-0.5-8.5l9.5-1.6C246,226.1,246.1,228.7,246.3,231.4"/>
			<path class="st13" d="M209.6,238.8c-2.9,16.5-8.7,24.8-29.5,25.9c-27.1,1.4-30.4-18.6-30.4-18.6L209.6,238.8z"/>
			<path class="st14" d="M214.1,229.2c0,0-11.1,9.4-37.6,13.1c-14.4,2-30.4,0.4-30.4,0.4l-2.8-6.9c0,0,19.3,1.8,37-2.7
				c20.5-5.2,33.4-14.8,33.4-14.8L214.1,229.2z"/>
			<path class="st15" d="M210.8,240.9c0,0-8.3,7.3-35,8.3c-8.7,0.3-17.5-0.2-26.1-1.5l-2.5-5c11.1,0.5,22.3,0,33.3-1.6
				c20.9-3,31.3-10.3,31.3-10.3L210.8,240.9z"/>
			<path class="st15" d="M215.9,217.3c0,0-11.8,12.9-41.4,17.8c-14.6,2.4-32.8,0.5-32.8,0.5l-1.9-9.1c13.1,0.4,26.1-1,38.8-4
				c23-5.7,36.4-16,36.4-16L215.9,217.3z"/>
			<path class="st13" d="M166.3,150.6c12.1,6.2,22.4,13.7,39.4,15.4c2.5,0.2,5.2-0.2,7.6,0c0.3,8.7,1.1,28.1,1.1,28.1
				s-16.5,11-34.6,16.5c-20.8,6.3-42.7,4.3-42.7,4.3s0-26.4,16.9-48C156.7,163.4,162,154.6,166.3,150.6"/>
			<path class="st13" d="M163.5,254c0,0-7.2,18.8-17.4,22.9s-31.4,0.1-31.4,0.1s18.4,11.2,31.8,7.3c8.4-2.4,12.2-2.7,24.2-19.8
				c1.1-1.5,2.3-2.8,3.7-4.1L163.5,254z M212.4,172.6c0,0,9.1,8.2,12.5,10.6c3.2,2,6.5,3.8,9.9,5.3c0,0,5.2,2.2,8.6,3.4
				c2.3,0.8,2.1,0.9,2.1,0.9s-6,4.5-10.4,2.6c-4-1.6-7.9-3.4-11.7-5.6c-4.9-3-9.6-6.2-14.2-9.8c-1.1-0.9,3.4-6.1,3.4-6.1"/>
			<path class="st15" d="M147.2,284.2c-2.2-2-4.3-4.2-6.2-6.5c2.3-0.2,4.5-0.7,6.7-1.4c2,1.9,4.1,3.7,6.3,5.3
				C151.7,282.8,149.4,283.5,147.2,284.2"/>
			<path class="st14" d="M153.1,282.4c-2.7-1.9-5.2-4-7.6-6.2c0.7-0.2,1.4-0.5,2.1-0.8c1.7-0.9,3.3-2,4.7-3.4c2.6,2.1,5.4,4,8.3,5.8
				C158.3,279.6,155.8,281.2,153.1,282.4"/>
			<path class="st15" d="M157.1,264c3.5,2.7,7.1,5.2,10.8,7.5c-2.4,2.9-5.8,5.1-8,6.8c-3.1-2-6.1-4.2-8.9-6.6
				C153.5,269.6,155.2,266.6,157.1,264"/>
			<path class="st14" d="M178.6,113.1c5.2-3.2,13.5-7.1,23.3-6.2c4.5,0.4,16,12,20.5,16.7c4.5,4.7,14,20.3,21.3,27.9
				c4.2,4.4,18.6,17.3,16.8,19.8c-1.8,2.5-15.4,1.3-46.1-5.5c-27,2.8-45.8-16.3-45.6-18.4c0.6-7.8-5.6-16.3-1.9-22.6
				C169.8,120,173.8,115.9,178.6,113.1 M156.4,263.5c2.1-3.2,4-6.6,5.6-10.1c3.3,3,9.6,5.1,12.4,7c1.2,1.1-4.4,8.8-7,11.9
				C164.8,270.6,159.7,266.2,156.4,263.5"/>
			<path class="st13" d="M198,254.2c0,0,15.7-4.9,17.7-1.7s3.4,14.5,3.4,14.5l-4.4,2c0,0-2.1-11.8-3.4-12c-2.7-0.2-13,3-13,3
				L198,254.2z"/>
			<path class="st5" d="M180.8,128.4c-2,4.5-0.1,9.8,4.4,12c3.5,1.7,9.7,0.5,10.3-5.7c0.5-4.7-1.5-8.2-5-9.9
				c-3.5-1.8-7.8-0.3-9.5,3.2C181,128.1,180.9,128.2,180.8,128.4"/>
			<path class="st12" d="M192.1,133.6c-0.3,0.7-1.2,1-1.9,0.7s-1-1.2-0.7-1.9s1.2-1,1.9-0.7C192.1,132,192.4,132.9,192.1,133.6
				L192.1,133.6"/>
			<path class="st5" d="M209.9,114.1c-1.5,3.7,0.1,8,3.6,9.8c2.9,1.2,6.2-0.2,7.3-3.1c0.2-0.6,0.4-1.2,0.4-1.9
				c0.6-3.1-1-6.3-3.9-7.7c-2.7-1.3-6-0.2-7.4,2.5C209.9,113.9,209.9,114,209.9,114.1"/>
			<path class="st12" d="M219.1,117.7c-0.3,0.5-0.9,0.8-1.5,0.5c-0.6-0.2-0.8-0.9-0.6-1.5c0.2-0.6,0.9-0.8,1.5-0.6h0.1
				C219.1,116.5,219.4,117.1,219.1,117.7"/>
			<path class="st13" d="M215,268.9l4.2-2.5c0,0,11.4-3.9,10.5-1.7c-0.9,2.2-5.6,9.6-5.6,9.6S214.1,274.3,215,268.9"/>
			<path class="st16" d="M225.6,271.9c0,0,3.7,3.1,3.5,3.2c-0.3,0.1-5.2-0.9-5.2-0.9L225.6,271.9z M227.6,267.6
				c1.7,0.8,3.3,1.6,4.9,2.6c-0.3,0.1-6.3-0.2-6.3-0.2L227.6,267.6z M229.6,264c0,0,4.5,0.2,4.3,0.3c-0.2,0.1-5.3,2-5.3,2L229.6,264
				z"/>
			<path class="st13" d="M166.1,252.4l1,26.8c0,0,9.3-0.9,8.4,1.3c-0.9,2.2-6.8,9.6-6.8,9.6s-7.3-1.8-7-5.6
				c0.4-3.9-1.7-32.3-1.7-32.3"/>
			<path class="st16" d="M170.7,287.4c0,0,3.3,3.5,3,3.5s-5.1-1.5-5.1-1.5L170.7,287.4z M173.4,283.6c1.7,0.8,3.3,1.6,4.9,2.6
				c-0.3,0.1-6.3-0.2-6.3-0.2L173.4,283.6z M175.4,279.9c0,0,5.1,0.2,4.9,0.3c-0.3,0.1-6,2.3-6,2.3L175.4,279.9z"/>
			<path class="st14" d="M216.3,206.2c0,0-12.6,11-42.8,18.2c-14.2,3.4-35.4,2.3-35.4,2.3l-1.2-14c0,0,21.6,1.2,41-4
				c26.6-7.1,37.4-17,37.4-17L216.3,206.2z"/>
			<path class="st5" d="M214.5,165.8c-8.3,0.1-16.5-1.4-24.2-4.6c-14.6-6-21.4-15.9-21.4-15.9s-5.3-0.6-6.1,1.9s7.1,4.7,7.1,4.7
				s-6.1,2.4-2.1,6.5c3.5,3.6,7.7,0,7.7,0s-2.2,4.3,1.7,6.7c4,2.4,6.8-2.1,6.8-2.1s-0.4,6.3,2.7,6.3s5.3-3.3,5.3-3.3s-0.8,5.9,3.3,6
				s4.3-4.5,4.3-4.5s1.7,5.9,5.1,5.5s3.2-4.8,3.2-4.8s4.2,6.7,7.1,4C218,169.6,214.5,165.7,214.5,165.8"/>
			<path class="st16" d="M164.6,211.8c1.4,1.2,2.7,2.5,3.9,3.9c-0.3,0-6-1.9-6-1.9L164.6,211.8z M167.6,209c0,0,4.7,2.1,4.4,2.1
				s-6.4-0.1-6.4-0.1L167.6,209z M255.2,162.8c6.7,7.1,9.6,10.7,3.7,10.8c-3.6-0.2-7.2-0.8-10.6-1.7
				C250.3,168.7,252.6,165.6,255.2,162.8"/>
			<path class="st16" d="M161.3,214.5c0,0,2.2,4.3,1.9,4.3s-4.4-2.8-4.4-2.8L161.3,214.5z"/>
			<path class="st14" d="M171.4,177.5c-1,4.1-5.1,11.1-6.3,15c-1,3.6-1.7,7.3-2.1,11.1c0,0,6.4,3.9,4.9,5.8
				c-1.5,1.9-8.8,7.5-9.2,7.3c-1.5-0.8-2.7-5.9-2.2-10.6c0.3-4.3,0.9-8.6,1.8-12.8c1.3-5.6,3-11.1,5.1-16.4
				C166.7,168.9,171.9,175.6,171.4,177.5"/>
			<path class="st8" d="M207.4,238.9c2.1-0.3,4.2-0.7,6.3-1c7.8-1.4,15.6-2.8,23.3-4.5c2.7-0.6,5.4-1.2,8.2-1.8l1.2-0.3
				c9.2-2,18.4-4.6,27.3-7.7c4.5-1.6,8.8-3.5,13-5.8c4.1-2.3,8-5.1,11.5-8.3c3.5-3,7.1-7.3,11.4-9.1c3.2-1.4,7.4-1.9,10.6,0.1
				c2.8,1.9,4.3,5.1,4,8.4c-0.3,3.2-2.2,6-5.1,7.4c-1.3,0.7-2.9,0.9-4.4,0.3c-1.1-0.5-1.8-1.6-1.7-2.8c0.2-1,1-1.9,2-2.3
				c0.7-0.3,1.4-0.7,1.9-1.2c0.7-0.7,0.8-1.8,0.3-2.6c-1.8-2.7-6.1-0.8-8.1,0.8c-3.2,2.5-6,5.5-9.2,8s-6.7,4.8-10.3,6.9
				c-59.1,26.8-189.5,39-272.1,39c-0.4-7.8-0.7-13.9-1.2-21.7c0-0.6-0.1-0.6,0.4-0.6c0.8-0.1,1.6-0.1,2.4-0.2l10.2-0.7l26.6-1.7
				l4.4-0.3l4.3-0.3l20.1-1.4c0.7-0.1,1.5-0.2,2.2-0.2c0.1,0,0.2,0,0.3,0c0.2,0.2,0.4,1.1,0.6,1.3c1.8,4.2,3.7,8.4,5.5,12.6
				c0.4,0.9,0.3,0.9,1.3,1.1c2.4,0.2,4.9,0.2,7.3,0h0.4c5.2-0.2,10.4-0.5,15.6-0.9c10.6-0.8,21.4-1.7,32-2.9
				C169,244.6,188.2,242.1,207.4,238.9"/>
			<path class="st17" d="M289.5,223.4c-9.3,28.7-14.1,48-28.8,73.8c-16.6,29-41.5,45.7-74.3,50.2c-45.4,6.1-114.9,16.1-133.2-8.1
				l0,0c-16.3-19.5-25.6-45.5-29.3-76.8C96.8,260.6,230.4,250.3,289.5,223.4"/>
			<path class="st9" d="M57.3,274.3c5.8,0,10.5,4.7,10.5,10.5s-4.7,10.5-10.5,10.5s-10.5-4.7-10.5-10.5l0,0
				C46.7,279,51.4,274.3,57.3,274.3 M240.9,255.9c5.8,0,10.5,4.7,10.5,10.6s-4.7,10.5-10.6,10.5c-5.8,0-10.5-4.7-10.5-10.5
				C230.4,260.7,235.1,255.9,240.9,255.9L240.9,255.9"/>
			<path class="st7" d="M63.1,284.8c0,3.3-2.6,5.9-5.9,5.9s-5.9-2.6-5.9-5.9s2.6-5.9,5.9-5.9S63.1,281.5,63.1,284.8"/>
			<path class="st9" d="M148.6,268.4c5.8,0,10.5,4.7,10.5,10.6c0,5.8-4.7,10.5-10.6,10.5c-5.8,0-10.5-4.7-10.5-10.5
				C138.1,273.1,142.8,268.4,148.6,268.4L148.6,268.4"/>
			<path class="st7" d="M246.9,266.5c0,3.3-2.6,5.9-5.9,5.9s-5.9-2.6-5.9-5.9s2.6-5.9,5.9-5.9S246.9,263.2,246.9,266.5 M154.5,278.9
				c0,3.3-2.6,5.9-5.9,5.9s-5.9-2.6-5.9-5.9s2.6-5.9,5.9-5.9S154.5,275.6,154.5,278.9"/>
			<path class="st3" d="M122.3,18.1c-0.1-0.3-0.2-0.7-0.4-1l-5-13.3L116.6,17c-0.1,0.7-0.1,1.4,0,2.1c0.2,1,0.9,1.9,1.8,2.2
				c1,0.4,2.1,0.1,2.9-0.6C122.1,20.2,122.5,19.1,122.3,18.1"/>
			<path class="st18" d="M105.2,36.1c0.1,0.9-0.6,1.7-1.5,1.8s-1.7-0.6-1.8-1.5l0,0c-0.1-0.9,0.6-1.7,1.5-1.8S105.1,35.2,105.2,36.1
				z"/>
			<path class="st18" d="M101.4,39.9c0.1,0.3-0.1,0.5-0.4,0.6c-0.3,0.1-0.5-0.1-0.6-0.4V40c0-0.3,0.2-0.5,0.4-0.5
				C101.1,39.4,101.4,39.6,101.4,39.9L101.4,39.9z"/>
			<path class="st18" d="M103.7,39.7c0,0.3-0.2,0.5-0.4,0.5c-0.3,0-0.5-0.2-0.5-0.4c0-0.3,0.2-0.5,0.4-0.5l0,0
				C103.5,39.3,103.7,39.5,103.7,39.7L103.7,39.7z"/>
			<path class="st18" d="M100.7,36.5c0.1,0.9-0.6,1.7-1.5,1.7l0,0c-0.9,0.1-1.7-0.6-1.8-1.5l0,0c-0.1-0.9,0.6-1.7,1.5-1.8
				C99.8,34.9,100.6,35.6,100.7,36.5L100.7,36.5z"/>
			<path class="st5" d="M110.1,41.6c4.6-3.3,5.3,2.2,2.4,2.1c0.7,1.2,0,1.9-0.9,2c-1.1,0-2.1-0.9-2.1-2.1c0-0.2,0-0.3,0.1-0.5
				l-5-1.8l0.3-0.5c0.3-0.3,0.5-0.6,0.6-1l0.3-0.3L110.1,41.6z"/>
			<path class="st5" d="M95,34.8c0-1.1,0.5-2,1.3-2.8c0.9-0.8,2.1-1.3,3.3-1.4c2.8-0.3,5.7,0.4,6.9,2.4s0.6,5.5-0.2,6.9
				c0,0-2,2.5-2.6,3c-1.3,0.9-2.9,1-4.3,0.5c-1.5-0.7-3.5-5-4-6.4C95.1,36.4,95,35.6,95,34.8"/>
			<path class="st10" d="M104.9,34.9c0.5,0.6,0.4,1.4-0.1,1.9c-0.6,0.5-1.5,0.5-2-0.2c-0.5-0.6-0.5-1.5,0.2-2
				C103.5,34.1,104.4,34.3,104.9,34.9"/>
			<path class="st5" d="M100,41.4v0.2l-6,3.5c-1.2,4.9-3.8,2.8-2.8,0.6c-4.3,0.4-2.2-6.3,1.7-2.5l5.6-3.3c0.6,0.9,1.1,1.4,1.1,1.4
				L100,41.4z"/>
			<path class="st10" d="M98.3,34.5c0.5,0,1.2,0.4,1.2,1.5c0.1,0.6-0.4,1.2-1,1.3c-0.1,0-0.2,0-0.2,0c-0.7-0.1-1.3-0.7-1.4-1.4
				C96.8,34.7,97.7,34.5,98.3,34.5"/>
			<path class="st5" d="M96,37l-0.5,0.4L91.4,35c-4.6,1.2-3.7-2.3-1.7-2.4c-2.2-4,4.3-3.5,2.8,1l2.5,1.2C95,35.6,95.7,36.4,96,37"/>
			<path class="st12" d="M102.1,39.6c0,0.2-0.1,0.3-0.3,0.3l0,0c-0.2,0-0.3-0.1-0.3-0.3l0,0c0-0.2,0.1-0.3,0.3-0.3
				C102,39.3,102.1,39.4,102.1,39.6 M100.8,39.6c0,0.1-0.1,0.3-0.2,0.3l0,0c-0.1,0-0.3-0.1-0.3-0.2l0,0c0-0.1,0.1-0.3,0.2-0.3l0,0
				C100.6,39.3,100.8,39.4,100.8,39.6L100.8,39.6"/>
			<path class="st5" d="M112,29.7c3.1-0.3,1.2,4.3-1.8,2.4l-3.8,3.3l-0.2,0.1c-0.1-0.6-0.4-1.1-0.7-1.6L109,31
				c-0.5-2.7,0.5-3.7,1.5-3.8c0.9,0,1.7,0.7,1.7,1.6C112.3,29.1,112.2,29.4,112,29.7"/>
			<path class="st10" d="M216.3,87.1c-0.2-0.4-0.6-0.6-1-0.4c-0.2,0.1-0.4,0.3-0.4,0.5c-3.9,16.7-14.1,2.1-25.5-0.6
				c-4.4-1.1-12.1-0.4-16.5,2.5c-16,10.2-5.9,40.8-23.9,35.1c-0.7-0.2-1.4,0.2-1.6,0.9c-0.1,0.3-0.1,0.7,0.1,1
				c3.4,6.5,7.6,8.3,11,8.9c3,0.6,6-0.6,9-2.8c6.5-4.5,13.2-13.1,20.8-17.1c1.4-0.7,2.9-1.3,4.5-1.8c5.4-1.6,12.2-2.5,17.5-4.6
				c0.6-0.2,1.2-0.5,1.6-0.7C218.1,105,221.6,99.4,216.3,87.1 M202,154.9c-2-0.9-4-1.9-5.9-3c1.1,10.4,7.1,10.6,12,4.7
				C206,156.2,203.9,155.6,202,154.9"/>
			<path class="st5" d="M195.2,104.5c2.6-3.5,4.4,0.3,2.2,0.9c0.8,0.7,0.5,1.4-0.2,1.7c-0.8,0.3-1.8-0.2-2-1c0-0.1-0.1-0.2-0.1-0.4
				l-4.1-0.1c0,0,0.1-0.4,0.1-0.5c0.1-0.3,0.2-0.6,0.2-0.9l0.1-0.3L195.2,104.5z"/>
			<path class="st5" d="M182.4,103.2c-0.2-0.8-0.1-1.6,0.3-2.4c0.5-0.8,1.2-1.5,2.1-1.8c2-0.9,4.3-1.2,5.6,0
				c1.4,1.2,1.8,3.9,1.6,5.1c0,0-0.9,2.4-1.2,2.8c-0.7,0.9-1.8,1.5-3,1.5c-1.3-0.1-3.8-2.8-4.5-3.7
				C182.9,104.3,182.6,103.7,182.4,103.2"/>
			<path class="st10" d="M189.7,100.8c0.5,0.3,0.7,1,0.4,1.5l0,0c-0.3,0.5-1,0.7-1.6,0.5c-0.5-0.4-0.6-1.1-0.3-1.6
				C188.5,100.6,189.2,100.5,189.7,100.8"/>
			<path class="st5" d="M187.1,107.6v0.2l-3.5,4c0.3,3.9-2.1,3-1.9,1.2c-3.1,1.4-3.2-4.1,0.6-2.2l3.3-3.8c0.7,0.5,1.2,0.8,1.2,0.8
				L187.1,107.6z"/>
			<path class="st10" d="M184.8,102.2c0.4-0.1,0.9,0,1.2,0.8c0.2,0.5,0,1-0.5,1.2c0,0-0.1,0-0.1,0.1c-0.6,0.1-1.1-0.2-1.3-0.7
				s0-1.1,0.5-1.3C184.6,102.2,184.7,102.2,184.8,102.2"/>
			<path class="st5" d="M183.7,104.6l-0.3,0.4l-3.6-0.7c-3.1,2-3.3-0.7-1.8-1.3c-2.6-2.4,2.4-3.6,2.4,0l2.1,0.2
				C182.6,103.7,183.4,104.1,183.7,104.6"/>
			<path class="st12" d="M188.8,104.9c0,0.1,0,0.2-0.1,0.3l0,0c-0.1,0-0.2,0-0.3-0.1c0-0.1,0-0.2,0.1-0.3l0,0
				C188.7,104.7,188.8,104.8,188.8,104.9L188.8,104.9 M187.8,105.3c0,0.1,0,0.2-0.1,0.3l0,0c-0.1,0-0.2,0-0.3-0.1
				c0-0.1,0-0.2,0.1-0.3l0,0C187.7,105.1,187.8,105.2,187.8,105.3L187.8,105.3"/>
			<path class="st5" d="M193.6,95.2c2.2-0.9,1.9,2.8-0.7,2.2l-1.9,3.3h-0.1c-0.3-0.4-0.6-0.7-0.9-1l1.9-2.9c-1-1.9-0.6-2.9,0.1-3.1
				c0.7-0.2,1.4,0.1,1.7,0.8C193.7,94.8,193.7,95,193.6,95.2"/>
			<path class="st8" d="M204.1,136.2c1.1-8.1-4.9-16.5-13.6-16.8c-12.6-0.4-26.8,11.4-26.8,11.4s13.2,16.8,23.7,17.3
				C197.5,148.5,203.3,142.3,204.1,136.2 M190.1,122.7c6.8,0.9,11.6,6.8,10.8,13.1c-0.8,6.3-7.5,9.3-14.3,8.4
				c-6-0.8-14.5-9-16.5-12.3C174.7,128.5,184.8,121.9,190.1,122.7"/>
			<path class="st8" d="M214.7,130c7.1,1,13.7-3.8,14.6-10.5c0.9-6.5-9.6-20.1-9.6-20.1s-15.4,10.2-16.3,16.6
				C202.5,122.8,207.6,129,214.7,130 M218.7,104c2.4,1.4,8,10,7.4,15c-0.7,4.9-5.6,8.4-10.9,7.7c-5.3-0.7-9.1-5.3-8.5-10.3
				C207.2,112.8,214,107.1,218.7,104"/>
			<path class="st8" d="M200.4,127.7c1.6-0.7,6-2.6,6.9-2.9l-1.1-3.1c-1.1,0.4-6.5,2.7-7.1,3L200.4,127.7z"/>
			<path class="st9" d="M330.9,179.4c-18.3,22.3-50.9,23.9-77.1,18.2h-0.1c0.6-2.4,0.9-4.9,0.9-7.4h0.1c28.7,0.4,51.5-6.6,61.5-25
				l31.4-14.2l0.4-0.2C347.6,152.3,344.1,163.3,330.9,179.4"/>
			<path class="st8" d="M251.6,190.1c-1.8-0.1-3.5-0.2-5.4-0.3l-3.2-0.2c-1.3-0.1-2.5-0.2-3.8-0.3c-1.9-0.2-3.8-0.4-5.7-0.7
				c-1.3-0.2-5.8-1-9-1.3c-1.6-0.1-2,6.4-1,6.5c1.9,0.1,25,2.7,27,3.1h0.1C251.2,194.7,251.5,192.4,251.6,190.1"/>
			<path class="st2" d="M251.6,190.1v-0.5c0-1.9-0.2-4.4-2.1-5.4c-0.9-0.6-2.2-0.4-2.9,0.4c-0.5,0.7-0.3,1.7,0.4,2.2
				c0.1,0.1,0.2,0.1,0.2,0.1c-0.3,0-0.5,0-0.8-0.1c-1.7-0.4-2.7-2.1-2.3-3.8c0.1-0.5,0.4-0.9,0.7-1.3c1.7-2.1,5-1.8,7-0.2
				s2.6,4.5,2.8,6.9c0,0.5,0,1.1,0.1,1.6c0,2.5-0.3,5-0.9,7.4c-0.1,0.5-0.2,0.9-0.3,1.4c-0.7,3.5-2.3,6.7-4.6,9.5
				c-4.7,5.1-12.6,5.6-17.9,1.2c-2.4-2.2-4-5.2-4.6-8.4c-0.2-1.3-0.6-2.6-1.2-3.7l0,0c-0.2-0.3-0.4-0.6-0.6-0.8c-1-1-2.8-1.6-4-0.5
				c0.7-1.9,2.8-2.9,4.7-2.3h0.1c1.7,0.6,2.4,2.2,2.8,3.8c0.1,0.3,0.2,0.6,0.2,0.9c1,4,3.4,7.8,7.6,9.1c4.2,1.2,8.6-0.2,11.4-3.5
				c1.5-2,2.5-4.2,3-6.6c0.1-0.2,0.1-0.4,0.2-0.6C251.2,194.7,251.5,192.4,251.6,190.1"/>
			<path class="st16" d="M237.6,188.2c0,0,1-4.7,1.2-4.5s1.7,5,1.7,5L237.6,188.2z M232.9,188.1c-0.3-1.8-0.5-3.6-0.6-5.5
				c0.2,0.2,3.5,5.3,3.5,5.3L232.9,188.1z M228.7,188.7c0,0-2.8-4.3-2.5-4.2s5.3,3.7,5.3,3.7L228.7,188.7z"/>
			<path class="st13" d="M232.3,196.1c-1.9-0.9-5.4-7.4-3.1-8c2.4-0.5,11.8,0.1,11.8,0.1s3.7,9.6-8,8.4"/>
			<path class="st19" d="M10.8,385.6c5.5,21,28,37.6,53.4,46.1s53.7,10.2,81.4,10.8c30.9,0.7,61.7,0.2,92.6-0.2
				c43-0.6,86.1-1.3,129.1-2.8c31.7-1.2,63.7-6.9,93-18.2c35.6-13.8,101.6-49.4,105.3-83.6c1-9.1,7.9-13.2,11-27.2
				c0.9-4,6.1-12.5,2.1-14.2l0,0c-37.2,10.3-62.7,25-35.7-12.3c-15,1.1-23.4,9.2-37.6,17.1c-11,6.1-25.6,12-49.4,14.2
				c-33,3.1-51.2-6.4-39.8-25.2c-21.9,1.2-36.7,18.3-58.2,27.5c-5.8,2.5-16.1,4.4-27.2,5.2c0,0-14.3,1.1-13.4-9.9
				c0.6-7.4,13.3-15,13.3-15c-21.2-9-127.8,52-91.5,2.1c-15,1.1-23.4,9.3-37.6,17.1c-11,6.1-25.6,12-49.4,14.2
				c-33,3.1-51.3-6.4-39.8-25.2c-21.9,1.2-36.7,18.3-58.2,27.5c-4.6,1.8-9.4,3-14.3,3.7C18,345.3,5.9,366.8,10.8,385.6z"/>
			<path class="st7" d="M476.6,324.2c-30.5-1.6-30.8,32.7-77.1,40.4c-30.7,5.1-58.3-5.1-47.4-33.2c-1.3,0.1-2.6,0.3-3.8,0.6
				c-29.2-2.8-116.1,58.3-90.5,0c-30.5-1.6-30.8,32.7-77.1,40.4c-30.7,5.1-58.3-5.1-47.4-33.2c-31.5,2.4-116.5,33.6-122.1,48.5
				c-6.9,18.1,12.7,39.6,12.7,39.6c7.8-1.5,29.2-11.9,36.3-16.2c10.2-6.2,19.3-14.5,30.4-14.2c14.6,0.5,26.3,14.4,40.6,17.7
				c17.1,4,33.6-7.3,48.3-17.9s27.9-13,44.6-7.4c8.1,2.7,13.7,18.5,21.1,23.1c11.7,7.2,38.4-9.7,58.6-14.7l2-0.5
				c1.9-0.1,30.6-21,49.6-14.1c16.5,5.9-1.3,57.5,44.8,26.4c15-10.1,40.9-42.2,57.6-36.6c8.1,2.7-11.3,27.6-3.9,32.2
				c19.5,12,85.7-10.6,101.8-26.7c21.2-21,24.9-63,24.9-63C553.6,308.8,450.3,384,476.6,324.2z"/>
		</g>
	</g>
</g>
</svg>
