<?xml version="1.0" encoding="utf-8"?>
<!-- Generator: Adobe Illustrator 26.2.1, SVG Export Plug-In . SVG Version: 6.00 Build 0)  -->
<svg version="1.1" id="Capa_1" xmlns="http://www.w3.org/2000/svg" xmlns:xlink="http://www.w3.org/1999/xlink" x="0px" y="0px"
	 viewBox="0 0 236.4 224.2" style="enable-background:new 0 0 236.4 224.2;" xml:space="preserve">
<style type="text/css">
	.st0{opacity:5.000000e-02;}
	.st1{fill:#DAD8CC;}
	.st2{fill:#F39200;}
	.st3{clip-path:url(#SVGID_00000091722086051618380590000004070561761334045326_);}
	.st4{fill:#FCC700;}
	.st5{clip-path:url(#SVGID_00000128455455006958033050000000804581120064772505_);}
	.st6{fill:none;stroke:#DAD8CC;stroke-width:0.28;stroke-linecap:round;}
	.st7{fill:#1D1D1B;}
	.st8{fill:#0D181C;}
	.st9{fill:#F3A5C2;}
	.st10{fill:#FFFFFF;}
	.st11{fill:none;stroke:#1D1D1B;stroke-width:0.6;stroke-linecap:round;}
	.st12{fill:#E30613;}
	.st13{clip-path:url(#SVGID_00000000209579722463912740000017610356203965426085_);}
	.st14{clip-path:url(#SVGID_00000057124673823156900690000007590826508606738050_);}
	.st15{clip-path:url(#SVGID_00000085929736364839508610000006165935837622308249_);}
	.st16{fill-rule:evenodd;clip-rule:evenodd;fill:#B780B1;}
	.st17{fill-rule:evenodd;clip-rule:evenodd;fill:#9C6297;}
	.st18{fill:#B780B1;}
	.st19{clip-path:url(#SVGID_00000033367932963246857970000014261005697490728608_);}
	.st20{clip-path:url(#SVGID_00000107576921848426305270000011472869158467839667_);}
	.st21{clip-path:url(#SVGID_00000116934244271878381640000002242683886560783261_);}
	.st22{clip-path:url(#SVGID_00000106141225802007046130000003250455447013322651_);}
	.st23{clip-path:url(#SVGID_00000096031571462906097180000017681564804587073178_);}
</style>
<g id="Capa_2_00000049931958885390483120000009375586513490096805_">
	<g id="Capa_1-2">
		<path class="st0" d="M49,159.3c16.9-4.3,30.5-2,47.5-1.7c2.6,0,9.5-0.1,10.8,7.8c1.2,7.6-0.7,10.8-2.8,15.1
			c-2.1,4.4-6.7,7.8-9.2,7.2c-5.7-1.2-14.8,0.7-24.3,1.5c-4.3,0.4-16.6,2.5-20.8-0.2c-3.2-2.1-3.5-1.6-6.5-6.4
			c-1.5-2.4-3.3-4.6-3.1-10.3c0.1-5.9,1-6.4,2.6-8.4C44.9,161.8,44.9,161.8,49,159.3"/>
		<path class="st0" d="M199.8,184.5c-17,4-30.5,1.5-47.5,1c-2.6-0.1-9.5-0.1-10.7-8c-1.1-7.6,0.8-10.8,3-15.1s6.8-7.7,9.3-7.1
			c5.7,1.3,14.8-0.5,24.3-1.1c4.3-0.3,16.6-2.3,20.7,0.5c3.2,2.2,3.5,1.7,6.4,6.5c1.5,2.4,3.2,4.7,3,10.4c-0.2,5.9-1.1,6.4-2.8,8.4
			C203.9,182.1,203.9,182.1,199.8,184.5"/>
		<path class="st0" d="M152.7,221c-15.4,4.7-27.9,2.6-43.5,2.7c-2.4,0-8.7,0.3-10-7.8c-1.2-7.7,0.4-11,2.2-15.5
			c1.9-4.5,6-8.1,8.2-7.6c5.2,1.1,13.5-1,22.2-2c3.9-0.5,15.1-2.9,19-0.2c3,2.1,3.3,1.6,6.1,6.4c1.4,2.4,3.1,4.7,3.1,10.5
			c0,6.1-0.8,6.5-2.2,8.7C156.3,218.4,156.3,218.4,152.7,221"/>
		<path class="st1" d="M177.9,52.1c-1.8-2.4-5.9-6-12.5-8.4c-8.8-3.2-15.3,0.6-14.8,1.8c0.5,1.2,5.5,5.1,9.5,6.7
			c4,1.6,12.1,4,17.7,4C181.9,56.2,178.9,53.3,177.9,52.1"/>
		<path class="st2" d="M177.5,39.3C172.2,31.8,163,26,162.3,26s8.3,11.3,11.7,19c2.2,4.9,4,9.4,4,9.4l7.1-0.8
			C183,48.6,180.4,43.8,177.5,39.3"/>
		<g>
			<g>
				<defs>
					<path id="SVGID_1_" d="M174,45c2.2,4.9,4,9.4,4,9.4l7.1-0.8c-2.1-5-4.7-9.7-7.7-14.3C172.2,31.8,163,26,162.3,26l0,0
						C161.7,26,170.6,37.3,174,45"/>
				</defs>
				<clipPath id="SVGID_00000124859803096423012940000008616068271919057341_">
					<use xlink:href="#SVGID_1_"  style="overflow:visible;"/>
				</clipPath>
				<g style="clip-path:url(#SVGID_00000124859803096423012940000008616068271919057341_);">
					<path class="st4" d="M184.7,48c0,0-2.6,0.9-5.5,1.6c-1.2,0.3-2.4,0.6-3.6,0.8l-2.3-4c2.6-1,5.3-1.9,8.1-2.7
						C184.5,43.1,184.7,48.1,184.7,48"/>
					<path class="st4" d="M179.5,39c0,0-2.5,1.1-5.2,2.2c-1.1,0.5-2.3,0.9-3.4,1.2l-2.8-3.7c2.5-1.3,5.1-2.5,7.7-3.5
						C178.7,34.2,179.4,39,179.5,39"/>
					<path class="st4" d="M173.2,30.8c0,0-2.4,1.4-4.9,2.8c-1,0.6-2.1,1.2-3.2,1.6l-3.2-3.2c2.3-1.6,4.7-3.1,7.2-4.5
						C171.9,26.1,173.2,30.9,173.2,30.8"/>
				</g>
			</g>
		</g>
		<path class="st2" d="M163.7,42.9c-6.7-6.3-16.9-10-17.6-9.9c-0.7,0.1,10.5,9.3,15.4,16.2c3.1,4.4,5.9,8.4,5.9,8.4l6.8-2.3
			C171.1,50.8,167.6,46.7,163.7,42.9"/>
		<g>
			<g>
				<defs>
					<path id="SVGID_00000049916204938060564610000003644408148159530893_" d="M146.1,33c-0.7,0.1,10.5,9.3,15.4,16.2
						c3.1,4.4,5.9,8.4,5.9,8.4l6.8-2.3c-3.1-4.4-6.6-8.6-10.5-12.4C157.1,36.7,147.1,33,146.1,33L146.1,33"/>
				</defs>
				<clipPath id="SVGID_00000096777095235106101580000015355853289584613009_">
					<use xlink:href="#SVGID_00000049916204938060564610000003644408148159530893_"  style="overflow:visible;"/>
				</clipPath>
				<g style="clip-path:url(#SVGID_00000096777095235106101580000015355853289584613009_);">
					<path class="st4" d="M172.6,49.9c0,0-2.4,1.4-5,2.7c-1.1,0.6-2.2,1.1-3.3,1.6l-3.1-3.5c2.4-1.6,4.8-3,7.4-4.3
						C171.4,45.1,172.6,49.9,172.6,49.9"/>
					<path class="st4" d="M165.6,42.1c0,0-2.2,1.6-4.7,3.2c-1,0.7-2,1.3-3.1,1.9l-3.4-3c2.2-1.8,4.5-3.5,6.8-5
						C163.9,37.6,165.6,42.2,165.6,42.1"/>
					<path class="st4" d="M157.8,35.4c0,0-2,1.9-4.2,3.8c-0.9,0.8-1.9,1.6-2.9,2.3l-3.7-2.6c1.9-2.1,4-4,6.1-5.9
						C155.5,31.1,157.8,35.4,157.8,35.4"/>
				</g>
			</g>
		</g>
		<path class="st6" d="M194.1,48.4c-2.2-0.1-4.1,1.4-4.5,3.6c-0.6,3.7,1.1,4.8,2.6,5.4c1.5,0.6,6.4-0.1,6.3-4.2
			C198.4,49.6,196.2,48.4,194.1,48.4z"/>
		<path class="st7" d="M195.8,53.4c-0.1-0.4,0.1-0.8,0.4-1h0.1c0.4-0.1,0.8,0.1,0.9,0.5V53c0.1,0.4-0.2,0.9-0.6,1
			C196.3,54,195.9,53.8,195.8,53.4"/>
		<path class="st1" d="M190.4,148.8c0,0-0.1,7.7,0,10.7s0,4.8,0,4.8s-3.5,0.1-4.4,0l-0.9-0.1c0,0,0-4.3,0-7.1s0-8.3,0-8.3
			L190.4,148.8z"/>
		<path class="st1" d="M164.3,146.3c0,0-0.1,10.2,0,13.1s0,4.8,0,4.8s-3.5,0.1-4.4,0l-1-0.1c0,0,0-4.3,0-7.1s0-10.7,0-10.7H164.3z"
			/>
		<path class="st8" d="M190.5,164.1c0,0,1.5,7.2,0.3,7.3s-3.2-4.6-3.2-4.6s-0.6,4.6-1.5,4.2s-1.8-5.7-1.3-6.9
			C186.8,164.3,188.7,164.3,190.5,164.1"/>
		<path class="st8" d="M158.9,164.1c0,0-1.5,7.2-0.3,7.4s3.1-4.6,3.1-4.6s0.6,4.6,1.5,4.2s1.8-5.7,1.3-6.9
			C163.2,164.5,158.9,164.1,158.9,164.1"/>
		<path class="st1" d="M163.4,60.9c2.5-3.1,8.1-7.7,13.8-7.9c15.5-0.7,32.4,5.2,39.8,11.1c9.9,7.9,7.5,19.2,1.8,23.6
			s-12.4,5.3-13.6,9.5s-1.5,6.1-1.5,6.1s-0.7-7.3-2-9s-9.2-3.6-11.9-3s-2.1,3,0.7,18.3c0.6,3.2,2.4,17.3,2.3,22.7
			s-16.7,5.2-16.7,5.2l-19.2-5.2c0,0,0.4-9.2,1.9-23.4c1.2-11.8,1.4-17.6,1.6-20.7c0.6-6-1.6-10.5-1.4-15.6
			C159.2,68.4,160.7,64.2,163.4,60.9"/>
		<path class="st9" d="M162.2,64.3c0,0-8,2-15,0.6c-4.6-0.9-13.3-2.4-11.8-3.9s14.9-5.8,20.9-4.6c3.2,0.6,6.3,1.7,9.1,3.5
			L162.2,64.3z"/>
		<path class="st1" d="M162.2,92.4c0,0-12.9,5.6-15.9,9.5c-4.5,6,3.3,15.8,3.3,15.8l4.2-3.4c0,0-4.3-5.4-3.5-7.7s11.2-8.2,11.2-8.2
			L162.2,92.4z"/>
		<path class="st1" d="M187.4,96.2c0,0,10.3,13.5,13,18.1c1.7,2.9,3,6,3.8,9.2l-4.8,2.1c0,0-2.3-5.7-4.4-9.5s-5.4-8.9-5.4-8.9
			L187.4,96.2z"/>
		<path class="st8" d="M204.2,123.2c0,0,2.6,7.4,1.8,7.3c-0.8-0.1-3.5-4.4-3.5-4.4s0.1,5.5-0.8,5.4c-0.9-0.1-2.6-6.8-2.6-6.8
			L204.2,123.2z"/>
		<path class="st8" d="M149.7,117.8c0,0,3.6,6.8,4.4,6s-1-4.8-1-4.8s3.9,3,4.6,2.1s-3.9-6.7-3.9-6.7L149.7,117.8z"/>
		<path class="st10" d="M184.8,60.3c0.7,2.6,0.3,6.8-4.1,7.4c-5,0.8-6.5-2.4-6.8-4.3c-0.7-3.1,1.3-6.2,4.4-6.9l0,0
			C182,55.5,184.3,58.6,184.8,60.3"/>
		<path class="st7" d="M182.7,62.4c0.2,0.4,0,0.9-0.5,1.1c-0.1,0-0.1,0-0.2,0c-0.4,0.1-0.9-0.1-1-0.5v-0.1c-0.1-0.5,0.2-1,0.7-1.1
			C182.2,61.7,182.6,62,182.7,62.4"/>
		<path class="st11" d="M217,75c0.6,2.6,0.7,5.3,0.3,8c-0.5,2.7-1,5.5-2.1,6.8"/>
		<path class="st8" d="M188.9,79.4c0,0,7.5,5.3,5.5,6C187.4,88,188.9,79.4,188.9,79.4"/>
		<path class="st1" d="M166.3,57.9c-4.9-2.3-10.2-3.6-15.6-3.7c-12.1,0.1-16,7.4-15.4,7.2c4.9-1.7,11.9-3.2,16.7-2.8
			c4.4,0.5,8.7,1.5,12.8,3L166.3,57.9z"/>
		<path class="st9" d="M216.8,75.5c-2.1,0.3-6.7-2.6-7.9-4.4c-1-1.4,1-4.5,5.8-4.6s4.6,2.4,4.4,4.3
			C218.9,73.1,218.1,75.4,216.8,75.5"/>
		<path class="st10" d="M164.5,123.2c0,12.9,5.3,19.9,10.8,19.9s10.1-5.9,9.8-18.7c-0.4-15.8-4.3-27.8-9.8-27.8
			C167.3,96.6,164.5,110.4,164.5,123.2"/>
		<path class="st12" d="M192.8,127.7c0,0,0.1,10.3,0,13.9c-0.1,3.9-0.3,8.3-0.3,8.3s-1.6,0-3.9,0s-7.4-0.6-7.4-0.6l-0.6-6.7
			c-2.1,0.3-4.1,0.5-6.2,0.4c-5.8-0.2-5.8-0.5-5.8-0.5l-1.6,5.9c-1.9,0.1-3.9,0.1-5.9,0c-2.9-0.2-4.8,0.1-4.9-1
			c-0.1-1.1,0.6-19.8,0.6-19.8s13.4,1,19,0.8S192.8,127.7,192.8,127.7"/>
		<path class="st2" d="M87.5,40.2c5.7-7.3,15.2-12.6,15.9-12.6s-9,10.9-12.8,18.5c-2.4,4.9-4.5,9.2-4.5,9.2L79,54.1
			C81.5,49.2,84.3,44.6,87.5,40.2"/>
		<g>
			<g>
				<defs>
					<path id="SVGID_00000141420629429409744740000004099750373502786205_" d="M103.4,27.6c-0.7,0-10.2,5.3-15.9,12.6
						c-3.2,4.4-6,9.1-8.4,13.9l7.1,1.2c0,0,2.1-4.4,4.5-9.2C94.5,38.5,104.1,27.6,103.4,27.6L103.4,27.6"/>
				</defs>
				<clipPath id="SVGID_00000072238103227470928100000011766059795730512773_">
					<use xlink:href="#SVGID_00000141420629429409744740000004099750373502786205_"  style="overflow:visible;"/>
				</clipPath>
				<g style="clip-path:url(#SVGID_00000072238103227470928100000011766059795730512773_);">
					<path class="st4" d="M79.8,48.6c0,0,2.6,1,5.4,1.9c1.2,0.4,2.3,0.7,3.5,1l2.5-3.9c-2.6-1.2-5.3-2.2-8-3.1
						C80.3,43.6,79.8,48.6,79.8,48.6"/>
					<path class="st4" d="M85.5,39.7c0,0,2.5,1.3,5.2,2.5c1.1,0.5,2.2,1,3.4,1.4L97,40c-2.5-1.4-5-2.7-7.6-3.9
						C86.5,34.9,85.5,39.7,85.5,39.7"/>
					<path class="st4" d="M92.2,31.9c0,0,2.3,1.6,4.8,3.1c1,0.7,2.1,1.3,3.2,1.8l3.4-3.2c-2.2-1.7-4.6-3.4-7-4.9
						C93.8,27.2,92.2,31.9,92.2,31.9"/>
				</g>
			</g>
		</g>
		<path class="st2" d="M60.6,40.2C55,32.9,45.4,27.6,44.7,27.6s9,10.9,12.8,18.5c2.4,4.9,4.5,9.2,4.5,9.2l7.1-1.2
			C66.7,49.2,63.9,44.6,60.6,40.2"/>
		<g>
			<g>
				<defs>
					<path id="SVGID_00000111152366833597986120000004565321199166859684_" d="M57.5,46.1c2.4,4.9,4.5,9.2,4.5,9.2l7.1-1.2
						c-2.4-4.9-5.2-9.5-8.5-13.9C55,32.9,45.4,27.6,44.7,27.6S53.7,38.5,57.5,46.1"/>
				</defs>
				<clipPath id="SVGID_00000018942018599841000810000007081816986012119960_">
					<use xlink:href="#SVGID_00000111152366833597986120000004565321199166859684_"  style="overflow:visible;"/>
				</clipPath>
				<g style="clip-path:url(#SVGID_00000018942018599841000810000007081816986012119960_);">
					<path class="st4" d="M68.3,48.6c0,0-2.6,1-5.4,1.9c-1.2,0.4-2.3,0.7-3.5,1l-2.5-3.9c2.6-1.2,5.3-2.2,8-3.1
						C67.9,43.6,68.4,48.6,68.3,48.6"/>
					<path class="st4" d="M62.6,39.7c0,0-2.5,1.3-5.2,2.5c-1.1,0.5-2.2,1-3.4,1.4L51.1,40c2.5-1.5,5-2.8,7.6-3.9
						C61.6,34.9,62.6,39.7,62.6,39.7"/>
					<path class="st4" d="M56,31.9c0,0-2.3,1.6-4.8,3.1c-1,0.7-2.1,1.3-3.2,1.8l-3.4-3.2c2.2-1.7,4.6-3.4,7-4.9
						C54.3,27.2,56,31.9,56,31.9"/>
				</g>
			</g>
		</g>
		<path class="st1" d="M60.9,92c0,0-2.7,26-2.7,31.7s-0.4,13,0,14.1c0.4,1.1,33.4,1,33.4,1S87.7,99,87.3,90.9
			C75.7,90.3,60.9,91.9,60.9,92"/>
		<path class="st10" d="M84.6,123c0,12.9-5.3,20-10.9,20s-10.2-5.9-9.9-18.8c0.4-15.9,4.3-28,9.9-28C81.7,96.2,84.6,110.1,84.6,123"
			/>
		<path class="st9" d="M34.9,69c0,0,9.2,1,14.9-2.1C57,63,62.1,59,62.4,58.1s-4.4-3-9.5-1.7S34.9,69,34.9,69"/>
		<path class="st9" d="M109.3,72c0,0-8.2,0.9-15-3.7c-6.8-4.6-10-9.1-10.2-9.9s9.1,1.8,14.3,3.1S109.3,72,109.3,72"/>
		<path class="st1" d="M101.4,58c4.5,2.6,7.5,7.1,8.2,12.2c0.4,3-0.6,2.2-1.8,0.9c-1.2-1.3-3.7-6.1-9.2-8.7c-2.9-1.3-6-2.1-9.2-2.3
			l-3-4.2C91.5,54.8,96.8,55.5,101.4,58"/>
		<path class="st1" d="M55.8,76.8c1,9.5,5.3,33.8,19.2,32.1s13.4-15.2,16.1-22.6c3.3-9.1,0.3-28.8-4.8-32.5s-18.2-3.7-23.7,1
			S54.7,67.3,55.8,76.8"/>
		<g>
			<g>
				<defs>
					<path id="SVGID_00000012472109246623562260000011030883156034384274_" d="M62.6,54.7c-5.5,4.7-7.8,12.7-6.8,22.1
						s5.3,33.8,19.2,32.1s13.4-15.2,16.1-22.6c3.3-9.1,0.2-28.8-4.8-32.5c-2.4-1.8-6.5-2.7-10.8-2.7C70.6,51,65.4,52.2,62.6,54.7"/>
				</defs>
				<clipPath id="SVGID_00000177474193499717066420000011772591219094267308_">
					<use xlink:href="#SVGID_00000012472109246623562260000011030883156034384274_"  style="overflow:visible;"/>
				</clipPath>
				<g style="clip-path:url(#SVGID_00000177474193499717066420000011772591219094267308_);">
					<path class="st10" d="M94.3,82.8c0,1.3-1,2.4-2.4,2.5c-1.2,0.1-2.2-0.7-2.4-1.9c0-0.1,0-0.1,0-0.2c0-1.3,1.1-2.4,2.4-2.4
						C93.2,80.8,94.3,81.5,94.3,82.8"/>
					<path class="st10" d="M60.4,83.9c-0.1,1.6-1.5,2.8-3.1,2.6c-1.4-0.1-2.5-1.2-2.6-2.6c0-1.6,1.3-2.9,2.9-2.9
						S60.4,82.4,60.4,83.9"/>
					<path class="st10" d="M88,80.6c0,0.9-0.4,1.6-1.3,1.6c-1,0-1.8-0.7-1.9-1.6c-0.1-0.9,0.6-1.7,1.5-1.8s1.7,0.6,1.8,1.5
						C88,80.4,88,80.5,88,80.6"/>
				</g>
			</g>
		</g>
		<path class="st1" d="M60.6,151.9c0,0,0.1,7.8,0,10.8s0,4.8,0,4.8s3.5,0.1,4.5,0l0.9-0.1c0,0,0-4.4,0-7.2s0-8.3,0-8.3
			S60.6,151.9,60.6,151.9z"/>
		<path class="st1" d="M85.3,149.5c0,0,0.1,10.2,0,13.2s0,4.8,0,4.8s3.5,0.1,4.5,0l0.9-0.1c0,0,0-4.4,0-7.2s0-10.7,0-10.7H85.3z"/>
		<path class="st8" d="M60.5,167.3c0,0-1.5,7.2-0.3,7.4s3.2-4.6,3.2-4.6s0.6,4.6,1.5,4.2c0.9-0.4,1.8-5.8,1.3-7
			C64.3,167.4,62.4,167.4,60.5,167.3"/>
		<path class="st8" d="M90.8,167.3c0,0,1.5,7.2,0.3,7.4s-3.1-4.6-3.1-4.6s-0.6,4.6-1.5,4.2s-1.8-5.8-1.3-7
			C86.4,167.7,90.8,167.3,90.8,167.3"/>
		<path class="st1" d="M85.4,93.6c0,0,13,5.6,16,9.5c4.5,6-3.3,15.9-3.3,15.9l-4.2-3.4c0,0,4.3-5.4,3.6-7.7s-11.2-8.2-11.2-8.2
			L85.4,93.6z"/>
		<path class="st8" d="M98,119.1c0,0-3.6,6.9-4.5,6s1-4.8,1-4.8s-3.9,3.1-4.6,2.1s3.9-6.8,3.9-6.8L98,119.1z"/>
		<path class="st1" d="M62.8,93.6c0,0-13,5.6-16,9.5c-4.5,6,3.4,15.9,3.4,15.9l4.2-3.4c0,0-4.3-5.4-3.5-7.7S62,99.7,62,99.7
			L62.8,93.6z"/>
		<path class="st8" d="M50.2,119.1c0,0,3.6,6.9,4.5,6s-1-4.8-1-4.8s3.9,3.1,4.6,2.1s-3.9-6.8-3.9-6.8L50.2,119.1z"/>
		<path class="st10" d="M79.5,67.3c-0.6,2.5,0,6.5,4.1,6.9c4.7,0.5,5.9-2.7,6.1-4.5c0.6-3-1.4-5.8-4.4-6.4l0,0
			C81.9,62.6,79.8,65.7,79.5,67.3"/>
		<path class="st7" d="M85.2,67.5c-0.2,0.4,0,0.9,0.5,1.1h0.1c0.4,0.1,0.9-0.1,1-0.6v-0.1c0.1-0.5-0.2-0.9-0.6-1.1l0,0
			C85.8,66.8,85.4,67.1,85.2,67.5"/>
		<path class="st10" d="M58.1,68.2c-0.7,2.5-0.3,6.5,3.5,7.1c4.5,0.7,5.8-2.4,6.1-4.2c0.5-2.7-0.6-5.7-3.8-6.6
			C60.7,63.6,58.5,66.6,58.1,68.2"/>
		<path class="st7" d="M63.7,68.7c-0.2,0.4,0,0.9,0.5,1.1c0.1,0,0.1,0,0.2,0.1c0.4,0.1,0.9-0.1,1-0.5c0-0.1,0-0.1,0-0.2
			c0.1-0.5-0.2-1-0.7-1.1l0,0C64.3,68,63.9,68.3,63.7,68.7"/>
		<path class="st16" d="M81.2,51.6c1.6,2.6,6.3,6.2,6.7,5.8c1.9-3,3.2-6.3,3.8-9.8c-3.3-0.7-6.7-0.4-9.8,0.9c-1.2-2.6-4-5-7.2-6.6
			c-1.8,3.9-3,9.1-2.6,10.4C71.9,52.3,78.5,53.7,81.2,51.6"/>
		<path class="st17" d="M80.2,53.2c-1.9-0.3-1.7-2.3-1-4.2s1.2-2.8,3.2-2.2s1.9,1.9,1.2,3.8C82.9,52.5,82.3,53.6,80.2,53.2"/>
		<path class="st18" d="M57.6,130.7c0,0-3.7,10.3-4.7,14.3s-2.9,7.8-2.4,8.7s20.2,1.7,29.7,0.5s20.4-3.6,19.7-4.8
			c-0.7-1.2-1.4-3.9-3.7-9c-2.3-5.1-5.6-11.7-5.6-11.7c-4.8,1.5-9.7,2.5-14.7,2.9C69.8,132.2,63.6,131.9,57.6,130.7"/>
		<path class="st11" d="M74.1,102.8c0,1.2,0.1,2.4,0.4,3.6c0.3,0.8,0.7,1.5,1.1,2.2"/>
		<path class="st11" d="M83.1,105.2c0.6-0.7,0.8-1.7,0.7-2.6c-0.1-0.6-0.3-1.2-0.7-1.6"/>
		<path class="st1" d="M64,57.2c0,0-7.5-5.4-15.7-4c-5.6,1-10.3,5.7-12.3,9.6s-2.4,6.2-1.3,6.1c1.5-0.6,6.6-5.7,12.3-8.3
			C54.6,57.2,64,57.2,64,57.2"/>
		<path class="st9" d="M74.1,103.1c0.8,0,2.4-1.7,3.8-3.3s2.6-3.3,0.2-4.7c-2.7-1.4-5.8-1.4-8.4,0c-2,1.3-0.9,2.9-0.1,3.8
			C70.8,100.3,73.2,103.1,74.1,103.1"/>
		<path class="st1" d="M139.2,193.3l1.3,14.7c1.5,0.1,3,0.1,4.4,0c0-0.2-1.2-14.7-1.2-14.7H139.2z"/>
		<path class="st1" d="M118.4,193.2l-1.1,14.7c0,0-4.4-0.2-4.4-0.4s1.2-14.5,1.2-14.5L118.4,193.2z"/>
		<path class="st12" d="M117.4,146.7c0,0-1.5,16.8-2.5,23.7c-1.3,9-2,18.1-2.2,27.2l8.7,0.4l1.1-2.9c2.1,0.3,4.2,0.5,6.4,0.6
			c2.8-0.1,5.5-0.4,8.2-0.9l1.1,3.2h8.2c-0.2-5.3,0-11.9-3.1-32.9c-1.3-9.1-2.4-22.8-2.4-22.8s-10.3,2.8-14.2,2.5
			c-3.1-0.4-6.1-1.3-9-2.5L117.4,146.7z"/>
		<g>
			<g>
				<defs>
					<path id="SVGID_00000019637692652832270690000017784100267440967044_" d="M126.6,144.8c-3.1-0.4-6.1-1.3-9-2.5l-0.3,4.5
						c0,0-1.5,16.8-2.5,23.7c-1.3,9-2,18.1-2.2,27.2l8.7,0.4l1.1-2.9c2.1,0.3,4.2,0.5,6.4,0.6c2.8-0.1,5.5-0.4,8.2-0.9l1.1,3.2h8.2
						c-0.2-5.3,0-11.9-3.1-32.9c-1.3-9.1-2.4-22.8-2.4-22.8S130.5,145,126.6,144.8"/>
				</defs>
				<clipPath id="SVGID_00000011751734271254062400000010942715060312701324_">
					<use xlink:href="#SVGID_00000019637692652832270690000017784100267440967044_"  style="overflow:visible;"/>
				</clipPath>
				<g style="clip-path:url(#SVGID_00000011751734271254062400000010942715060312701324_);">
					<path class="st10" d="M146.7,186.4c0,0-5.2,3.4-18.4,3.6c-6-0.1-11.9-1-17.6-2.7l0.5-6.7c0,0,10.2,2.9,17.8,2.6
						c5.6-0.2,11.2-1.3,16.5-3.1L146.7,186.4z"/>
					<path class="st10" d="M112.6,174.1c5.3,1.9,11,2.8,16.7,2.6c10.7-0.6,15.7-3.4,15.7-3.4l-0.9-6.1c-5.1,1.6-10.3,2.4-15.6,2.5
						c-10.2,0.3-14.6-2.2-15.9-2.2V174.1z"/>
					<path class="st10" d="M112.5,160.1c4.9,2,10.1,3.1,15.3,3.1c10.7-0.1,16-2.6,16-2.6l-0.6-6.1c0,0-5.4,3-14.9,2.9
						c-10.2-0.2-14.3-2.9-15.6-3L112.5,160.1"/>
				</g>
			</g>
		</g>
		<path class="st12" d="M141.5,144.6c0,0,6.9,5.8,9.1,12.3c2.6,7.4-2.5,16-2.5,16l-4.8-2.7c0,0,3.4-7,3.1-9.3
			c-0.6-5.6-5.3-9.1-5.3-9.1L141.5,144.6z"/>
		<g>
			<g>
				<defs>
					<path id="SVGID_00000120560720752924822380000003709428342634804387_" d="M141.2,151.7c0,0,4.7,3.5,5.3,9.1
						c0.2,2.3-3.1,9.3-3.1,9.3l4.7,2.7c0,0,5.1-8.5,2.5-16c-2.2-6.5-9.2-12.3-9.2-12.3L141.2,151.7z"/>
				</defs>
				<clipPath id="SVGID_00000074418674024914900770000011261143148738668437_">
					<use xlink:href="#SVGID_00000120560720752924822380000003709428342634804387_"  style="overflow:visible;"/>
				</clipPath>
				<g style="clip-path:url(#SVGID_00000074418674024914900770000011261143148738668437_);">
					<polygon class="st10" points="142.7,157.4 151.5,146.3 149.6,145 141,156.4 					"/>
					<polygon class="st10" points="145,160.7 156.2,152 154.7,150.3 143.6,159.3 					"/>
					<polygon class="st10" points="144.3,163.3 158.5,163.2 158.4,161 144.1,161.3 					"/>
					<polygon class="st10" points="141.1,165.4 153.8,171.8 154.7,169.8 141.8,163.5 					"/>
				</g>
			</g>
		</g>
		<path class="st8" d="M148.1,172.8c0,0-2.8,6.3-3.6,5.5s0.2-4,0.2-4s-3,2.6-3.8,1.7s2.7-5.9,2.7-5.9L148.1,172.8z"/>
		<path class="st12" d="M116.3,145.4c0,0-5.6,4.9-7.9,11.3c-2.7,7.4,2.3,16,2.3,16l4.8-2.7c0,0-3.3-7-3-9.3c0.7-5.6,5.7-8.9,5.7-8.9
			L116.3,145.4z"/>
		<g>
			<g>
				<defs>
					<path id="SVGID_00000092458271426385671580000011458520113644542871_" d="M108.4,156.7c-2.7,7.4,2.3,16,2.3,16l4.8-2.7
						c0,0-3.3-7-3-9.3c0.7-5.6,5.7-8.9,5.7-8.9l-1.8-6.4C116.3,145.4,110.7,150.2,108.4,156.7"/>
				</defs>
				<clipPath id="SVGID_00000011033572065174237760000005773645175338732428_">
					<use xlink:href="#SVGID_00000092458271426385671580000011458520113644542871_"  style="overflow:visible;"/>
				</clipPath>
				<g style="clip-path:url(#SVGID_00000011033572065174237760000005773645175338732428_);">
					<polygon class="st10" points="116.3,157.3 107.7,146.1 109.6,144.8 118.1,156.3 					"/>
					<polygon class="st10" points="114,160.6 102.9,151.8 104.4,150.1 115.4,159.2 					"/>
					<polygon class="st10" points="114.6,163.2 100.4,162.9 100.6,160.7 114.9,161.2 					"/>
					<polygon class="st10" points="117.8,165.3 105.1,171.6 104.2,169.5 117.2,163.4 					"/>
				</g>
			</g>
		</g>
		<path class="st8" d="M111,172.5c0,0,2,6.5,2.9,5.8s0.1-4.1,0.1-4.1s2.8,3,3.7,2.3s-2.2-6.5-2.2-6.5L111,172.5z"/>
		<path class="st2" d="M127.1,97.3c3.2-8.3,8.8-10.7,9.4-10.9c0.6-0.2-3.4,5.3-4.6,12c-0.3,2.1-0.3,4.3,0,6.4l-6-0.6
			C126,101.9,126.4,99.5,127.1,97.3"/>
		<g>
			<g>
				<defs>
					<path id="SVGID_00000161595447028672732960000004412267554797297842_" d="M136.6,86.4c-0.6,0.2-6.2,2.5-9.4,10.9
						c-0.8,2.2-1.2,4.6-1.2,6.9l6,0.6c-0.3-2.1-0.3-4.3,0-6.4C133.1,91.9,137,86.4,136.6,86.4L136.6,86.4"/>
				</defs>
				<clipPath id="SVGID_00000056428731186060028860000014275116935251222150_">
					<use xlink:href="#SVGID_00000161595447028672732960000004412267554797297842_"  style="overflow:visible;"/>
				</clipPath>
				<g style="clip-path:url(#SVGID_00000056428731186060028860000014275116935251222150_);">
					<path class="st4" d="M125.6,100c0,0,2.3,0.4,4.7,0.7c1,0.1,2,0.2,3,0.2l1.2-3.4c-2.3-0.5-4.6-0.9-7-1.2
						C124.9,96.1,125.6,100,125.6,100"/>
					<path class="st4" d="M128.3,92.4c0,0,2.2,0.6,4.6,1.1c1,0.2,2,0.4,3,0.6l1.6-3.2c0,0-4.3-1.4-6.8-1.9S128.3,92.4,128.3,92.4"/>
				</g>
			</g>
		</g>
		<path class="st2" d="M115.3,100c-5.9-6.8-12.4-7.7-13.1-7.7s4.5,4.2,8.9,10.6c1,1.7,1.9,3.4,2.7,5.2l5.4-2.7
			C118.1,103.5,116.8,101.7,115.3,100"/>
		<g>
			<g>
				<defs>
					<path id="SVGID_00000136400617207068181330000005458671732159216525_" d="M102.2,92.4c-0.7,0,4.5,4.2,8.9,10.6
						c1,1.7,1.9,3.4,2.7,5.2l5.4-2.7c-1.2-1.9-2.5-3.7-4-5.4C109.5,93.3,102.9,92.4,102.2,92.4L102.2,92.4"/>
				</defs>
				<clipPath id="SVGID_00000068654197604641753200000009238688397512299911_">
					<use xlink:href="#SVGID_00000136400617207068181330000005458671732159216525_"  style="overflow:visible;"/>
				</clipPath>
				<g style="clip-path:url(#SVGID_00000068654197604641753200000009238688397512299911_);">
					<path class="st4" d="M117.7,101.2c0,0-2,1.1-4.2,2.2c-0.9,0.5-1.8,0.9-2.7,1.3l-2.3-2.8c0,0,3.8-2.4,6.1-3.5
						S117.7,101.3,117.7,101.2"/>
					<path class="st4" d="M112.5,95c0,0-1.9,1.3-4,2.6c-0.8,0.6-1.6,1.1-2.5,1.6l-2.6-2.4c1.9-1.5,3.8-2.8,5.8-4.1
						C111.4,91.3,112.6,95,112.5,95"/>
				</g>
			</g>
		</g>
		<path class="st9" d="M161.1,107.8c0,0-7.7,4.5-13.8,4.6c-7.8,0.2-13.2-0.4-13.9-1s2.2-4.5,7.1-5.8S161.1,107.8,161.1,107.8"/>
		<path class="st1" d="M131.7,111.5c2.5-4.3,6.4-7.5,11-9.2c4.7-1.6,9.8-0.9,13.9,1.7c3.5,2.3,5.6,3.4,4.6,3.9
			c-1.5,0.2-8.1-1.7-14-1.2C139.4,107.2,131.6,111.5,131.7,111.5"/>
		<path class="st9" d="M87.7,116.2c0,0,6.6,4.1,14.3,2.9s12.2-3.7,12.7-4.3s-8.5-2.2-13.5-3.1S87.7,116.2,87.7,116.2"/>
		<path class="st1" d="M100.4,107.9c-4.9,0.3-9.4,2.7-12.3,6.7c-1.5,2.4-0.3,1.7,1.2,1.2s5.6-3.3,11.3-3.3c3,0,6,0.6,8.8,1.7
			l4.3-2.3C109.9,108.9,105.2,107.5,100.4,107.9"/>
		<path class="st1" d="M143.9,124.3c0.6,9,0.6,32.3-12.6,33s-16-11.6-19.8-18.1c-4.6-7.9-6.7-25.8,0.1-31.4c4.6-3.8,16.3-6.4,22.2-3
			C139.8,108.2,143.2,115.3,143.9,124.3"/>
		<path class="st10" d="M120.2,119.3c1,2.3,1,6-2.7,7.1c-4.3,1.2-5.9-1.5-6.4-3.2c-1-2.7,0.3-5.7,3-6.7
			C117.2,115.3,119.6,117.9,120.2,119.3"/>
		<path class="st7" d="M119.8,120.4c0.2,0.4,0.1,0.9-0.2,1.1c0,0-0.1,0.1-0.2,0.1c-0.4,0.2-0.9,0-1-0.3c0,0,0-0.1-0.1-0.1
			c-0.2-0.4,0-0.9,0.4-1.1c0,0,0,0,0.1,0C119.2,119.9,119.6,120,119.8,120.4"/>
		<path class="st10" d="M140.3,116.7c1.1,2.2,1.4,6-2.1,7.2c-4.1,1.4-5.8-1.3-6.4-2.9c-0.9-2.4-0.4-5.4,2.5-6.8
			S139.6,115.3,140.3,116.7"/>
		<path class="st7" d="M140.1,117.8c0.2,0.4,0.1,0.9-0.3,1.1c0,0-0.1,0-0.1,0.1c-0.4,0.2-0.9,0-1.1-0.3v-0.1c-0.2-0.4,0-0.9,0.4-1.1
			l0,0C139.5,117.2,139.9,117.4,140.1,117.8"/>
		<path class="st11" d="M131.1,151.6c0.2,1.1,0.3,2.2,0.2,3.4c-0.2,0.8-0.4,1.5-0.7,2.3"/>
		<path class="st9" d="M131.2,151.8c-0.8,0.1-2.5-1.1-4.1-2.4s-2.9-2.6-1-4.3c2.2-1.7,5.2-2.2,7.9-1.4c2.1,0.8,1.3,2.6,0.7,3.5
			C133.7,148.6,132,151.6,131.2,151.8"/>
		<path class="st7" d="M145.1,206.7c0,0,1.3,6.1,0.3,6.2s-2.7-3.9-2.7-3.9s-0.5,3.9-1.3,3.5s-1.5-4.8-1.1-5.8
			C141.9,206.8,143.5,206.8,145.1,206.7"/>
		<path class="st7" d="M112.9,206.7c0,0-1.2,5.9-0.3,6s2.6-3.8,2.6-3.8s0.5,3.8,1.2,3.4s1.4-4.7,1.1-5.7
			C115.9,206.8,114.4,206.8,112.9,206.7"/>
	</g>
</g>
</svg>
