<svg xmlns="http://www.w3.org/2000/svg" viewBox="0 0 387.35 169.96"><defs><style>.cls-1{fill:#00a0a4;}</style></defs><g id="Capa_2" data-name="Capa 2"><g id="Capa_1-2" data-name="Capa 1"><path class="cls-1" d="M285.22,133s-7.57,14-17,22.6c-17.65,16.08-43.62,14.31-43.62,14.31s37.38-18,38.66-36.91c.53-7.82,2.52-7.61,2.52-7.61Z"/><path class="cls-1" d="M.06,73.69C-.85,39.63,8.56,4.5,55.65,2.83,108.37,1,292.24-2.83,348.08,3.57c27.08,3.11,39.27,29,39.27,71.65,0,37-18.58,58.34-44.47,60.13C275.3,140,96.76,142.91,40,134.71,6.62,129.88.58,93.26.06,73.69"/></g></g></svg>