<?xml version="1.0" encoding="utf-8"?>
<!-- Generator: Adobe Illustrator 26.2.1, SVG Export Plug-In . SVG Version: 6.00 Build 0)  -->
<svg version="1.1" id="Capa_1" xmlns="http://www.w3.org/2000/svg" xmlns:xlink="http://www.w3.org/1999/xlink" x="0px" y="0px"
	 viewBox="0 0 738.3 408" style="enable-background:new 0 0 738.3 408;" xml:space="preserve">
<style type="text/css">
	.st0{fill:#E9F6FC;}
	.st1{fill:#FFDE00;}
	.st2{fill:#2FAC66;}
	.st3{fill:#2B9659;}
	.st4{fill:#F5ECD8;}
	.st5{fill-rule:evenodd;clip-rule:evenodd;fill:#BCB8A3;}
	.st6{fill-rule:evenodd;clip-rule:evenodd;fill:#F39200;}
	.st7{fill-rule:evenodd;clip-rule:evenodd;fill:#E9DDD8;}
	.st8{fill:none;stroke:#E9DDD8;stroke-width:0.29;stroke-linecap:round;stroke-linejoin:round;}
	.st9{fill-rule:evenodd;clip-rule:evenodd;fill:#FBBA00;}
	.st10{fill-rule:evenodd;clip-rule:evenodd;fill:#B780B1;}
	.st11{fill:#9C6297;}
	.st12{fill:#A4659E;}
	.st13{fill:#B780B1;}
	.st14{fill:#F3A5C2;}
	.st15{fill:#FFFFFF;}
	.st16{fill:#1D1D1B;}
	.st17{fill:#F39200;}
	.st18{fill-rule:evenodd;clip-rule:evenodd;fill:#F8C7DD;}
	.st19{fill-rule:evenodd;clip-rule:evenodd;fill:#D06A93;}
	.st20{fill-rule:evenodd;clip-rule:evenodd;fill:#E281A5;}
	.st21{fill-rule:evenodd;clip-rule:evenodd;fill:#F3A5C2;}
	.st22{fill-rule:evenodd;clip-rule:evenodd;fill:#B0DDE9;}
	.st23{fill-rule:evenodd;clip-rule:evenodd;fill:#80CCDC;}
	.st24{fill-rule:evenodd;clip-rule:evenodd;fill:#A85318;}
	.st25{fill-rule:evenodd;clip-rule:evenodd;fill:#814114;}
	.st26{fill:none;stroke:#1D1D1B;stroke-width:0.67;stroke-linecap:round;}
	.st27{fill:#F5CE00;}
</style>
<g id="Capa_2_00000074399872018464152790000002091701423382475396_">
	<g id="Capa_1-2">
		<path class="st0" d="M587.7,138.7c33-2.2,63.8-11.5,83.2-25.2s26.9-31.4,20.5-47.8c-3.4-8.6-10.5-16.8-21.7-23.5
			c-15.8-9.5-38.8-15.3-62.5-18.7s-48.2-4.6-72.5-6.4c-75.5-5.5-152-16.7-226.7-8.9c-28.7,3-56,8.8-84.2,12.9
			c-49,7.3-104.6,10.9-138.4,30.2c-24.4,13.9-32.1,33.6-31,52.2c0.6,9.3,3.6,19.2,15.5,26.3c7,4.2,16.5,7.1,26.3,9.5
			c61.7,15.2,134,12,202.6,10.6c97.4-2,195.9,0.3,291.2-9.8"/>
		<path class="st1" d="M98.8,34.5c0,19-15.4,34.5-34.5,34.5c-19,0-34.5-15.4-34.5-34.5C29.8,15.5,45.2,0,64.3,0l0,0
			C83.3,0,98.8,15.4,98.8,34.5"/>
		<path class="st2" d="M524.6,94c-76.1,4.8-152.6-0.5-228.9,2.5S109,84,46.4,119.8C5,143.5,2.8,207.4,0.2,248.8
			c-0.9,14.6,2.5,30,13.4,41.4c13.2,13.8,34.6,19.8,53.9,27c43.8,16.6,81.1,42.7,122.6,62.9s91.1,34.6,137.6,24.4
			c29-6.4,53.8-21.8,82.1-30c33.2-9.7,69.4-9.1,104.4-6.8s70.4,6.1,105.3,2.5s70.3-15.6,91-39c9.9-11.2,15.9-24.5,20.1-38
			c9.4-30.7,9.5-63,3.8-94.4c-5.5-30.2-17.8-61.8-46.9-80.8C652,95.1,602,96.8,556.8,99.7"/>
		<path class="st2" d="M487.1,106.8c10.4-9.2,18.3-20.8,23.2-33.7c0.3-1.1,0.9-2,1.8-2.6c0.7-0.3,1.4-0.4,2.1-0.4l35-0.5
			c5.3,8.9,11.1,17.7,18.6,25s16.7,13,27,14.8"/>
		<path class="st3" d="M487.6,107.2c7.3-6.5,13.4-14.1,18.1-22.6c1.2-2.2,2.3-4.4,3.3-6.7c0.4-0.9,0.8-1.9,1.2-2.8
			c0.4-1.3,0.9-2.5,1.6-3.6c0.9-1.1,2.6-0.8,3.9-0.9l4.5-0.1l9-0.1l20-0.3l-0.5-0.3C557,83.9,567,98,582,105.6
			c3.9,2,8.2,3.4,12.5,4.2c0.8,0.1,1.1-1.1,0.3-1.2c-16.1-2.9-28.5-14.6-37.6-27.6c-2.7-3.8-5.2-7.8-7.6-11.8
			c-0.1-0.2-0.3-0.3-0.5-0.3l-18.5,0.3l-9,0.1l-4.5,0.1c-1.4-0.1-2.8,0-4.2,0.1c-2.2,0.3-2.9,2.3-3.6,4.2c-0.9,2.4-2,4.7-3.1,7
			c-2.2,4.5-4.9,8.8-7.9,12.8c-3.5,4.7-7.4,8.9-11.8,12.8C486.1,106.8,487,107.7,487.6,107.2L487.6,107.2z"/>
		<path class="st4" d="M202,227.9c-1.1,39.7,7.1,82.2,54.9,88.7c39.7,5.4,92.3,2.3,122-5.1c62.1-15.6,60.5-129.9,9-141
			c-53.6-11.6-91.8-11.7-137.9-5.4C210.6,170.3,202.6,205.1,202,227.9"/>
		<path class="st4" d="M132.4,264.8c-7.7,15.9-8.6,40.5,4.4,60.6c10.4,16,29.6,25.6,51.8,25.8c25.6,0.1,30.7,15.7,29.5,24.4
			c-0.1,0.8-1.8,18.2-3.8,16.6c7.9,6.2,38,12.3,38,12.3s0.6-29,0.1-32.8c-1.4-10.1-4.1-25.2-14.4-36.5c-9.7-10.6-26.3-15-53.9-14.2
			c-10.8,0.3-18.5-3.3-23.5-11c-6.8-10.5-7.3-26.5-2.6-34.6c11.1-19.5,50.4-15.7,53.9-16.9l-5.9-25
			C207.3,232.9,149,230.4,132.4,264.8"/>
		<path class="st5" d="M284.9,263.4c0,0,1.8-8.6,3.5-11.4s2.8-6.2,1.9-7.9c-1.6-2.9-9.2-0.7-11.9-3.1l1.2-4.5
			c1.9,2,10.4,0.7,13.9,4.1c1.4,1.4,2.2,5.9,0.3,8.9c-1.5,2.4-2.9,4.9-4,7.5c-1.3,2.6-2.6,9.2-2.6,9.2L284.9,263.4z M242.9,263.4
			c0,0-1.8-8.6-3.4-11.4s-2.8-6.2-1.9-7.9c1.6-2.9,9.2-0.7,11.9-3.1l-1.2-4.5c-1.9,2-10.4,0.7-13.9,4.1c-1.4,1.4-2.2,5.9-0.3,8.9
			c1.5,2.4,2.8,4.9,4,7.5c1.3,2.6,2.6,9.2,2.6,9.2L242.9,263.4z"/>
		<path class="st5" d="M272.6,250.5h2.9v8.8h-2.9V250.5z M252.5,250.5h2.9v8.8h-2.9V250.5z"/>
		<path class="st5" d="M257.2,197.3c-3.3,1-8.4,1.7-12,5.3c-4.9,4.9-7,11.3-6.1,16.3c1.1,6.1,5.6,10.4,7.6,21.4
			c2.1,11.6,0.3,12.1,17.3,12.5c17-0.4,15.1-0.9,17.3-12.5c2-11,6.5-15.4,7.6-21.4c0.9-5-1.2-11.5-6.1-16.3c-3.6-3.6-8.7-4.4-12-5.3
			C266.5,195.6,261.7,195.6,257.2,197.3"/>
		<path class="st6" d="M258.6,203.1c-2.8,0.8-6.5,1.2-9.5,4.3c-4.1,4.1-5.4,8.3-4.6,12.5c0.9,5.1,4.4,10.2,5.7,18.8
			c1.1,7.3,1.5,8.9,13.9,9.6c12.6-0.7,13.2-2.3,13.9-9.6c0.9-8.7,4.8-13.7,5.7-18.8c0.8-4.2-0.5-8.4-4.6-12.5c-3-3-6.7-3.4-9.5-4.3
			C266,201.4,262,201.4,258.6,203.1"/>
		<path class="st7" d="M249,199.4c0,0,0.1,0.2-1.6,0.6s-4.4,0.7-4.6,3.3c-0.4,3.6,4.1,4.1,4.5,1.2c0.1-0.5-0.1-1-0.5-1.3
			c-0.1,0.6-1.1,2.3-2.1,1.1s0.7-2.4,2.5-2.7C248.4,201.5,249.1,200.5,249,199.4"/>
		<path class="st7" d="M247.8,199.9c0,0-0.2,2.2,0.8,2.4s0.9-1.8,0.9-1.8s0.7,1.8,1.7,1.4s0.6-2.3,0.6-2.3s0.9,2.2,1.9,1.4
			s0.7-2.9-0.4-3.8C250.9,195.4,247.8,197.7,247.8,199.9"/>
		<path class="st7" d="M252.6,198.4c0,0-0.1-0.2,1.7,0.1s4.2,1.3,5.6-0.9c1.9-3-1.9-5.5-3.5-3.1c-0.3,0.4-0.3,0.9-0.1,1.4
			c0.4-0.5,2-1.5,2.4-0.1s-1.7,1.8-3.5,1.3C254.1,196.8,253,197.4,252.6,198.4"/>
		<path class="st7" d="M279,199.4c0,0-0.1,0.2,1.5,0.6s4.4,0.7,4.6,3.3c0.4,3.6-4.1,4.1-4.5,1.2c-0.1-0.5,0.1-1,0.5-1.3
			c0.1,0.6,1.1,2.3,2.1,1.1s-0.7-2.4-2.5-2.7C279.6,201.5,278.9,200.4,279,199.4 M264.1,192.4c2,0,3.6,1.6,3.6,3.6s-1.6,3.6-3.6,3.6
			s-3.6-1.6-3.6-3.6l0,0C260.5,194,262.1,192.4,264.1,192.4"/>
		<path class="st7" d="M280.2,199.9c0,0,0.2,2.2-0.8,2.4s-1-1.8-1-1.8s-0.7,1.8-1.7,1.4s-0.6-2.3-0.6-2.3s-0.9,2.2-1.9,1.4
			s-0.7-2.9,0.4-3.8C277.1,195.4,280.2,197.7,280.2,199.9"/>
		<path class="st7" d="M275.4,198.4c0,0,0.1-0.2-1.7,0.1s-4.2,1.3-5.6-0.9c-1.9-3,1.9-5.5,3.5-3.1c0.3,0.4,0.3,0.9,0.1,1.4
			c-0.4-0.5-2-1.5-2.3-0.1s1.7,1.8,3.5,1.3C273.9,196.8,275,197.4,275.4,198.4"/>
		<path class="st6" d="M241.8,273.7c14.7,1.1,29.4,1.1,44.1,0c1.8-3.5,3.5-8.4-1.8-9.2c-13.2-2-26.7-2.1-39.9-0.1
			C238.1,265.3,240.3,269.2,241.8,273.7"/>
		<path class="st5" d="M242.1,276.5c14.6,1.1,29.3,1.1,43.9-0.1c0-0.7,0-2.2,0-2.8l0.1-0.5l-0.2,0.5c-14.7,1.1-29.4,1.1-44.1,0
			C241.8,274.4,242.1,275.7,242.1,276.5"/>
		<path class="st7" d="M263.7,279.5c0.8,0.2,1.5-0.1,1.7,0.1c0.5,0.3-0.8,0.8-2.5,0.7c-2.5-0.1-3.5-1-4-1.6
			c-1.1,1.1-3.8,2.2-5.1,0.2c-0.7-1-0.5-2.4,0.5-3.2c0.7-0.5,1.6-0.6,2.4-0.2c0.6,0.3,0.8,1,0.7,1.1c-0.5-0.3-2.6-0.2-2.2,0.9
			s1.5,1,2.4-0.1c1-0.7,2.3-0.5,3.1,0.4C261.4,278.7,262.5,279.3,263.7,279.5"/>
		<path class="st7" d="M265,274.7c1.8,0,3.3,1.5,3.3,3.3s-1.5,3.3-3.3,3.3s-3.3-1.5-3.3-3.3l0,0C261.7,276.2,263.2,274.7,265,274.7"
			/>
		<path class="st7" d="M260,278.2c-0.3-0.9-0.4-2.5-2.4-1.9c0-2.5,3.6-2.2,4.1,0.2c0,0.2,0.2,0.8,0.2,1l0,0v0.1l0,0v0.3l0,0v0.1v0.2
			l0,0v0.1l0,0l0,0v0.1v0.1l0,0l0,0l0,0v0.1l0,0v0.1l0,0v0.1l0,0l0,0l0,0l0,0l0,0l0,0l0,0l0,0l0,0l0,0l0,0l0,0l0,0l0,0l0,0v0.1l0,0
			l0,0l0,0l0,0l0,0l0,0l0,0l0,0l0,0l0,0l0,0l0,0l0,0l0,0l0,0l0,0l0,0l0,0l0,0l0,0l0,0l0,0l0,0c0.2,0.1,0.3,0.3,0.5,0.4l0,0
			c0.1,0.1,0.2,0.1,0.3,0.2l0,0c0.2,0.1,0.4,0.2,0.6,0.3l0,0h0.1c-0.1,0-0.2,0-0.3,0.1c-0.3,0-0.7,0-1-0.1s-0.6-0.2-0.8-0.3
			l-0.5-0.3c-0.7-0.4-1.2-0.9-1.6-1.5c-0.1-0.2-0.2-0.3-0.3-0.5"/>
		<path class="st7" d="M265,280c0.9,0,1.6,0.7,1.6,1.6s-0.7,1.6-1.6,1.6s-1.6-0.7-1.6-1.6l0,0C263.4,280.7,264.1,280,265,280"/>
		<path class="st5" d="M285.8,276.4c8.9,3.1,1,13.4,1.9,15.1c0.7,1.4,1.8,2.1,1.5,3.6l-0.7,2.6h-3.6c0.1-0.8,0.1-1.6,0-2.4
			c-0.2-1-1.2-1.9-1.3-2.8s0.6-1.9,1.2-3.9c0.8-2.2,1.3-4.4,1.7-6.6c0.2-4.6-8.3-5.6-6-5.6L285.8,276.4z M242.4,276.4
			c-8.9,3.1-1,13.4-1.9,15.1c-0.7,1.4-1.9,2.1-1.5,3.6l0.7,2.6h3.6c-0.1-0.8-0.1-1.6,0-2.4c0.2-1,1.2-1.9,1.3-2.8s-0.6-1.9-1.2-3.9
			c-0.7-2.2-1.3-4.4-1.7-6.6c-0.2-4.6,8.3-5.6,6-5.6L242.4,276.4z"/>
		<path class="st8" d="M241.2,297.4c-0.4-1.3-0.8-3.1,0.4-3.8"/>
		<path class="st8" d="M286.9,297.4c0.4-1.3,0.8-3.1-0.4-3.8"/>
		<path class="st7" d="M266.3,279.5c-0.8,0.2-1.5-0.1-1.7,0.1c-0.4,0.3,0.8,0.8,2.5,0.7c1.5,0.1,3-0.5,4-1.6
			c1.1,1.1,3.8,2.2,5.1,0.2c0.7-1,0.5-2.4-0.5-3.2c-0.7-0.5-1.6-0.6-2.4-0.2c-0.6,0.3-0.8,1-0.7,1.1c0.5-0.3,2.6-0.2,2.2,0.9
			s-1.5,1-2.4-0.1c-1-0.7-2.3-0.5-3.1,0.4C268.6,278.7,267.5,279.3,266.3,279.5"/>
		<path class="st7" d="M270,278.2c0.4-0.9,0.4-2.5,2.4-1.9c0-2.5-3.6-2.2-4.1,0.2c-0.1,0.3-0.1,0.7-0.2,1l0,0v0.1l0,0v0.1v0.3l0,0
			c0,0,0,0,0,0.1v0.2l0,0v0.1l0,0l0,0v0.1v0.1l0,0l0,0v0.1l0,0v0.1l0,0v0.1l0,0l0,0l0,0l0,0l0,0l0,0l0,0l0,0l0,0l0,0l0,0l0,0l0,0
			l0,0l0,0v0.1l0,0l0,0l0,0l0,0l0,0l0,0l0,0l0,0l0,0l0,0l0,0l0,0l0,0l0,0l0,0l0,0l0,0l0,0l0,0l0,0l0,0l0,0l0,0
			c-0.1,0.1-0.3,0.3-0.5,0.4l0,0l-0.3,0.2l0,0c-0.2,0.1-0.4,0.2-0.6,0.3l0,0h-0.1c0.1,0,0.2,0,0.3,0.1c0.3,0,0.7,0,1-0.1
			s0.6-0.2,0.8-0.3l0.5-0.3c0.7-0.4,1.2-0.9,1.6-1.5c0.1-0.2,0.2-0.3,0.3-0.5"/>
		<path class="st5" d="M264,194.4c0.9,0,1.6,0.7,1.6,1.6c0,0.9-0.7,1.6-1.6,1.6s-1.6-0.7-1.6-1.6l0,0
			C262.4,195.1,263.1,194.4,264,194.4 M265,276.4c0.9,0,1.6,0.7,1.6,1.6s-0.7,1.6-1.6,1.6s-1.6-0.7-1.6-1.6l0,0
			C263.4,277.1,264.1,276.4,265,276.4"/>
		<path class="st9" d="M240.4,236.1c3-0.3,5.3-0.2,5.5,2s-2.3,2.7-5.2,3s-5.3,0.1-5.5-2S237.4,236.4,240.4,236.1 M240.1,266.8
			c0,0,5.5-8.7,8.2-9.3c5.3-1.2,10.7-1.8,16.1-1.6c8.1,0.1,14.3,1,16.3,1.9s7.1,8.8,6.7,8.8h-29L240.1,266.8z"/>
		<path class="st9" d="M287.5,236.1c-3-0.3-5.3-0.2-5.5,2s2.3,2.7,5.2,3s5.4,0.1,5.5-2S290.4,236.4,287.5,236.1"/>
		<path class="st10" d="M274.5,215c0.6,0,1.2,0.5,1.2,1.2s-0.5,1.2-1.2,1.2c-0.6,0-1.2-0.5-1.2-1.2S273.8,215,274.5,215L274.5,215
			 M253.5,215c0.6,0,1.2,0.5,1.2,1.2c0,0.6-0.5,1.2-1.2,1.2c-0.6,0-1.2-0.5-1.2-1.2l0,0C252.3,215.5,252.8,215,253.5,215
			 M269.5,239.2c0.6,0,1.2,0.5,1.2,1.2s-0.5,1.2-1.2,1.2c-0.6,0-1.2-0.5-1.2-1.2l0,0C268.3,239.7,268.8,239.2,269.5,239.2
			L269.5,239.2 M258.5,239.2c0.6,0,1.2,0.5,1.2,1.2s-0.5,1.2-1.2,1.2c-0.6,0-1.2-0.5-1.2-1.2S257.8,239.2,258.5,239.2L258.5,239.2
			 M264,226.4c0.6,0,1.2,0.5,1.2,1.2s-0.5,1.2-1.2,1.2c-0.6,0-1.2-0.5-1.2-1.2l0,0C262.8,226.9,263.3,226.4,264,226.4"/>
		<path class="st5" d="M377.2,263.4c0,0,1.8-8.6,3.5-11.4s2.8-6.2,1.9-7.9c-1.6-2.9-9.2-0.7-11.9-3.1l1.2-4.5
			c1.9,2,10.4,0.7,13.9,4.1c1.4,1.4,2.2,5.9,0.3,8.9c-1.5,2.4-2.8,4.9-4,7.5c-1.3,2.6-2.6,9.2-2.6,9.2L377.2,263.4z M335.2,263.4
			c0,0-1.8-8.6-3.5-11.4s-2.8-6.2-1.9-7.9c1.6-2.9,9.2-0.7,11.9-3.1l-1.2-4.5c-1.9,2-10.4,0.7-13.9,4.1c-1.4,1.4-2.2,5.9-0.3,8.9
			c1.5,2.4,2.8,4.9,4,7.5c1.3,2.6,2.6,9.2,2.6,9.2L335.2,263.4z"/>
		<path class="st5" d="M365,250.5h2.9v8.8H365V250.5z M344.8,250.5h2.9v8.8h-2.9V250.5z"/>
		<path class="st5" d="M349.6,197.3c-3.4,1-8.4,1.7-12,5.3c-4.9,4.9-7,11.3-6.1,16.3c1.1,6.1,5.6,10.4,7.6,21.4
			c2.1,11.6,0.3,12.1,17.3,12.5c17-0.4,15.1-0.9,17.3-12.5c2-11,6.5-15.4,7.6-21.4c0.9-5-1.2-11.5-6.1-16.3c-3.6-3.6-8.7-4.4-12-5.3
			C358.8,195.6,354,195.6,349.6,197.3"/>
		<path class="st6" d="M350.9,203.1c-2.8,0.8-6.5,1.2-9.5,4.3c-4.1,4.1-5.4,8.3-4.6,12.5c1,5.1,4.4,10.2,5.7,18.8
			c1.1,7.3,1.5,8.9,13.9,9.6c12.6-0.7,13.2-2.3,13.9-9.6c0.8-8.7,4.8-13.7,5.7-18.8c0.8-4.2-0.5-8.4-4.6-12.5c-3-3-6.7-3.4-9.5-4.3
			C358.3,201.4,354.3,201.4,350.9,203.1"/>
		<path class="st7" d="M341.3,199.4c0,0,0.1,0.2-1.5,0.6s-4.4,0.7-4.6,3.3c-0.4,3.6,4.1,4.1,4.5,1.2c0.1-0.5-0.1-1-0.5-1.3
			c-0.1,0.6-1.1,2.3-2.1,1.1s0.7-2.4,2.5-2.7C340.7,201.5,341.5,200.4,341.3,199.4"/>
		<path class="st7" d="M340.1,199.9c0,0-0.2,2.2,0.8,2.4s0.9-1.8,0.9-1.8s0.7,1.8,1.7,1.4s0.6-2.3,0.6-2.3s0.9,2.2,1.9,1.4
			s0.7-2.9-0.4-3.8C343.3,195.4,340.1,197.8,340.1,199.9"/>
		<path class="st7" d="M345,198.4c0,0-0.1-0.2,1.7,0.1s4.2,1.3,5.6-0.9c1.9-3-1.9-5.5-3.5-3.1c-0.3,0.4-0.3,0.9-0.2,1.4
			c0.4-0.5,2-1.5,2.4-0.1s-1.7,1.8-3.5,1.3C346.5,196.8,345.4,197.4,345,198.4"/>
		<path class="st7" d="M371.3,199.4c0,0-0.1,0.2,1.5,0.6s4.4,0.7,4.6,3.3c0.4,3.6-4.1,4.1-4.5,1.2c-0.1-0.5,0.1-1,0.5-1.3
			c0.1,0.6,1.1,2.3,2.1,1.1s-0.7-2.4-2.5-2.7C371.9,201.5,371.2,200.4,371.3,199.4 M356.4,192.4c2,0,3.6,1.6,3.6,3.6
			s-1.6,3.6-3.6,3.6s-3.6-1.6-3.6-3.6S354.4,192.4,356.4,192.4L356.4,192.4"/>
		<path class="st7" d="M372.5,199.9c0,0,0.2,2.2-0.8,2.4s-1-1.8-1-1.8s-0.7,1.8-1.7,1.4s-0.6-2.3-0.6-2.3s-0.9,2.2-1.9,1.4
			s-0.8-2.9,0.4-3.8C369.3,195.4,372.5,197.7,372.5,199.9"/>
		<path class="st7" d="M367.7,198.4c0,0,0.1-0.2-1.7,0.1s-4.2,1.3-5.6-0.9c-1.9-3,1.9-5.5,3.5-3.1c0.3,0.4,0.3,0.9,0.2,1.4
			c-0.4-0.5-2-1.5-2.4-0.1s1.7,1.8,3.5,1.3C366.2,196.8,367.3,197.4,367.7,198.4"/>
		<path class="st6" d="M334.1,273.7c14.7,1.1,29.4,1.1,44.1,0c1.8-3.5,3.5-8.4-1.8-9.2c-13.3-2-26.7-2.1-40-0.1
			C330.4,265.3,332.6,269.2,334.1,273.7"/>
		<path class="st5" d="M334.4,276.5c14.6,1.1,29.3,1.1,43.9-0.1c0-0.7,0-2.2,0-2.8l0.1-0.5l-0.2,0.5c-14.7,1.1-29.4,1.1-44.1,0
			C334.2,274.4,334.4,275.7,334.4,276.5"/>
		<path class="st7" d="M356,279.5c0.8,0.2,1.5-0.1,1.7,0.1c0.5,0.3-0.8,0.8-2.5,0.7c-1.5,0.1-3-0.5-4-1.6c-1.1,1.1-3.8,2.2-5.1,0.2
			c-0.7-1-0.5-2.4,0.5-3.2c0.7-0.5,1.6-0.6,2.4-0.2c0.6,0.3,0.8,1,0.7,1.1c-0.5-0.3-2.6-0.2-2.2,0.9s1.5,1,2.4-0.1
			c1-0.7,2.3-0.5,3.1,0.4C353.7,278.7,354.8,279.3,356,279.5"/>
		<path class="st7" d="M357.4,274.7c1.8,0,3.3,1.5,3.3,3.3s-1.5,3.3-3.3,3.3s-3.3-1.5-3.3-3.3l0,0
			C354,276.2,355.5,274.7,357.4,274.7L357.4,274.7"/>
		<path class="st7" d="M352.3,278.2c-0.3-0.9-0.4-2.5-2.4-1.9c0-2.5,3.6-2.2,4.1,0.2c0,0.2,0.2,0.8,0.3,1l0,0v0.1l0,0v0.1v0.2v0.1
			l0,0c0,0,0,0,0,0.1v0.2l0,0v0.1l0,0v0.1l0,0v0.1l0,0v0.1l0,0v0.1l0,0v0.1l0,0l0,0l0,0l0,0l0,0l0,0l0,0l0,0l0,0l0,0l0,0l0,0l0,0
			l0,0l0,0v0.1l0,0l0,0l0,0l0,0l0,0l0,0l0,0l0,0l0,0l0,0l0,0l0,0l0,0l0,0l0,0l0,0l0,0l0,0l0,0l0,0l0,0l0,0l0,0
			c0.2,0.1,0.3,0.3,0.5,0.4l0,0l0.3,0.2l0,0c0.2,0.1,0.4,0.2,0.6,0.3l0,0h0.1l-0.3,0.1c-0.3,0-0.7,0-1-0.1s-0.6-0.2-0.8-0.3
			l-0.5-0.3c-0.7-0.4-1.2-0.9-1.6-1.5c-0.1-0.2-0.2-0.3-0.3-0.5"/>
		<path class="st7" d="M357.3,280c0.9,0,1.6,0.7,1.6,1.6s-0.7,1.6-1.6,1.6s-1.6-0.7-1.6-1.6l0,0C355.7,280.7,356.4,280,357.3,280
			L357.3,280"/>
		<path class="st9" d="M332.5,266.8c0,0,5.5-8.7,8.2-9.3c5.3-1.2,10.7-1.8,16.1-1.6c8.1,0.1,14.3,1,16.3,1.9s7.1,8.8,6.7,8.8h-29
			L332.5,266.8z"/>
		<path class="st5" d="M378.1,276.4c8.9,3.1,1,13.4,1.9,15.1c0.7,1.4,1.8,2.1,1.5,3.6l-0.7,2.6h-3.6c0.1-0.8,0.1-1.6,0-2.4
			c-0.2-1-1.2-1.9-1.3-2.8s0.6-1.9,1.2-3.9c0.8-2.2,1.3-4.4,1.7-6.6c0.2-4.6-8.3-5.6-6-5.6L378.1,276.4z M334.7,276.4
			c-8.9,3.1-1,13.4-1.9,15.1c-0.7,1.4-1.8,2.1-1.5,3.6l0.7,2.6h3.6c-0.1-0.8-0.1-1.6,0-2.4c0.2-1,1.2-1.9,1.3-2.8s-0.6-1.9-1.2-3.9
			c-0.7-2.1-1.3-4.3-1.7-6.6c-0.2-4.6,8.3-5.6,6-5.6L334.7,276.4z"/>
		<path class="st8" d="M333.6,297.4c-0.4-1.3-0.8-3.1,0.4-3.8"/>
		<path class="st8" d="M379.2,297.4c0.4-1.3,0.8-3.1-0.4-3.8"/>
		<path class="st7" d="M358.6,279.5c-0.8,0.2-1.5-0.1-1.7,0.1c-0.4,0.3,0.8,0.8,2.5,0.7c1.5,0.1,2.9-0.5,4-1.6
			c1.1,1.1,3.8,2.2,5.1,0.2c0.7-1,0.5-2.4-0.5-3.2c-0.7-0.5-1.6-0.6-2.4-0.2c-0.6,0.3-0.8,1-0.7,1.1c0.5-0.3,2.6-0.2,2.2,0.9
			s-1.5,1-2.4-0.1c-1-0.7-2.3-0.5-3.1,0.4C360.9,278.7,359.8,279.3,358.6,279.5"/>
		<path class="st7" d="M362.4,278.2c0.4-0.9,0.4-2.5,2.4-1.9c0-2.5-3.6-2.2-4.1,0.2c0,0.2-0.2,0.8-0.3,1l0,0v0.1l0,0v0.1v0.3l0,0
			v0.1v0.2l0,0v0.1l0,0l0,0v0.1v0.1l0,0l0,0v0.1l0,0v0.1l0,0v0.1l0,0l0,0l0,0l0,0l0,0l0,0l0,0l0,0l0,0l0,0l0,0l0,0l0,0l0,0l0,0v0.1
			l0,0l0,0l0,0l0,0l0,0l0,0l0,0l0,0l0,0l0,0l0,0l0,0l0,0l0,0l0,0l0,0l0,0l0,0l0,0l0,0l0,0l0,0l0,0c-0.1,0.1-0.3,0.3-0.5,0.4l0,0
			l-0.3,0.2l0,0c-0.2,0.1-0.4,0.2-0.6,0.3l0,0h-0.1c0.1,0,0.2,0,0.3,0.1c0.3,0,0.6,0,1-0.1c0.3-0.1,0.6-0.2,0.9-0.3l0.5-0.3
			c0.7-0.4,1.2-0.9,1.6-1.5l0.3-0.5"/>
		<path class="st5" d="M356.3,194.4c0.9,0,1.6,0.7,1.6,1.6c0,0.9-0.7,1.6-1.6,1.6s-1.6-0.7-1.6-1.6l0,0
			C354.7,195.1,355.4,194.4,356.3,194.4 M357.3,276.4c0.9,0,1.6,0.7,1.6,1.6s-0.7,1.6-1.6,1.6s-1.6-0.7-1.6-1.6l0,0
			C355.7,277.1,356.4,276.4,357.3,276.4"/>
		<path class="st9" d="M379.8,236.1c-3-0.3-5.3-0.2-5.5,2s2.3,2.7,5.2,3s5.4,0.1,5.5-2S382.8,236.4,379.8,236.1 M332.7,236.1
			c3-0.3,5.3-0.2,5.5,2s-2.3,2.7-5.2,3s-5.3,0.1-5.5-2S329.8,236.4,332.7,236.1"/>
		<path class="st10" d="M366.8,215c0.6,0,1.2,0.5,1.2,1.2s-0.5,1.2-1.2,1.2c-0.6,0-1.2-0.5-1.2-1.2C365.6,215.5,366.2,215,366.8,215
			L366.8,215 M345.9,215c0.6-0.1,1.2,0.4,1.3,1.1s-0.4,1.2-1.1,1.3c-0.1,0-0.1,0-0.2,0c-0.6-0.1-1.1-0.6-1.1-1.3
			C344.9,215.5,345.3,215.1,345.9,215 M361.9,239.2c0.6,0,1.2,0.5,1.2,1.2s-0.5,1.2-1.2,1.2c-0.6,0-1.2-0.5-1.2-1.2l0,0
			C360.7,239.7,361.2,239.2,361.9,239.2L361.9,239.2 M350.9,239.2c0.6,0,1.2,0.5,1.2,1.2s-0.5,1.2-1.2,1.2c-0.6,0-1.2-0.5-1.2-1.2
			C349.7,239.7,350.2,239.2,350.9,239.2C350.8,239.2,350.9,239.2,350.9,239.2 M356.3,226.4c0.6,0,1.2,0.5,1.2,1.2s-0.5,1.2-1.2,1.2
			c-0.6,0-1.2-0.5-1.2-1.2l0,0C355.2,226.9,355.7,226.4,356.3,226.4"/>
		<path class="st11" d="M258.2,259.8c0,0-9.2,7-16.3,5.9s-18.9-9.4-18.9-9.4s8.2,11,17.2,13.1c5.6,1.3,8,2.3,19.6-2.4
			c1.1-0.4,2.1-0.7,3.2-0.9L258.2,259.8z"/>
		<path class="st12" d="M240.6,269.6c-0.8-1.6-1.5-3.3-2-5c1.4,0.6,2.9,1.1,4.4,1.4c0.7,1.6,1.5,3.1,2.4,4.5
			C243.7,270.3,242.1,269.9,240.6,269.6"/>
		<path class="st13" d="M244.6,270.4c-1.1-1.7-2.1-3.5-2.9-5.3c0.5,0.1,1,0.2,1.5,0.2c1.2,0.1,2.5,0,3.7-0.2
			c1.1,1.8,2.2,3.6,3.5,5.3C248.5,270.7,246.5,270.7,244.6,270.4"/>
		<path class="st12" d="M251.8,262.7c1.3,2.3,3.4,5.3,4.5,6.9c-2.1,0.5-4.3,0.9-6.5,0.9c-1.3-1.9-2.6-3.8-3.6-5.9
			C248.1,264.2,250,263.6,251.8,262.7"/>
		<path class="st13" d="M251.4,262.3c2.2-1,4.4-2.2,6.4-3.6c1.2,2.4,4,5.7,5.2,7.5c0.4,0.9-4.9,3-7.2,3.7
			C254.7,268.3,252.7,264.6,251.4,262.3"/>
		<path class="st11" d="M290.9,256.1c-2,9-3.1,13.7-14.5,13.7c-16.8,0-18.5-10.9-18.5-10.9L290.9,256.1z"/>
		<path class="st11" d="M286.9,262.6l5.6,10.3c0,0,4.2-4,4.3-2.7s-0.4,6.1-0.4,6.1s-4.6,2.6-5.3,0.6s-5.5-10.2-5.5-10.2"/>
		<path class="st14" d="M296.7,274.6c0.8,0.3,1.6,0.6,2.4,1c-0.9,0.2-1.9,0.4-2.9,0.5L296.7,274.6z M296.6,272.1c1,0,2,0,3,0.1
			c-0.1,0.1-3.2,1.5-3.2,1.5L296.6,272.1z M296.9,269.5c0,0,2.3-1,2.2-0.9s-2.1,2.3-2.1,2.3L296.9,269.5z"/>
		<path class="st11" d="M273.2,266.3l7.1,13c0,0,4.3-2.7,4.4-1.4c-0.2,2.2-0.5,4.3-1,6.4c0,0-4,0.9-4.8-1.1s-8.8-15.5-8.8-15.5"/>
		<path class="st14" d="M284,282.4c0.8,0.3,1.6,0.6,2.4,1c-0.1,0.1-2.9,0.5-2.9,0.5L284,282.4z M284.5,279.7c1,0,2,0,3,0.1
			c-0.1,0.1-3.2,1.5-3.2,1.5L284.5,279.7z M284.4,277.4c0.8-0.4,1.6-0.7,2.5-1c-0.1,0.1-2.4,2.6-2.4,2.6L284.4,277.4z"/>
		<path class="st12" d="M291.5,257.2c0,0-4.7,3.8-19.4,3.8c-4.8,0-9.6-0.5-14.3-1.4l-1.3-2.8c6.1,0.5,12.2,0.5,18.3-0.2
			c11.6-1.2,17.4-5,17.4-5L291.5,257.2z"/>
		<path class="st13" d="M293.5,250.9c0,0-6.3,4.9-21,6.4c-5.6,0.4-11.2,0.3-16.7-0.4l-1.4-3.8c6.8,0.8,13.7,0.5,20.4-0.7
			c6.6-1.4,12.9-3.9,18.7-7.4L293.5,250.9z"/>
		<path class="st12" d="M294.7,244.3c0,0-6.7,6.9-23.1,8.9c-8.1,1-18-0.4-18-0.4l-0.9-5c7.2,0.5,14.4,0,21.4-1.4
			c12.8-2.7,20.4-8,20.4-8L294.7,244.3z"/>
		<path class="st11" d="M289.1,216.8l-8.8-0.6l-9.7-4.7l-4.4-3.3c-1.3,1.8-3.7,3.7-5.7,6.5c-5.5,7.8-8.6,17.1-9.1,26.6
			c7.3,1.5,14.8,1.3,22-0.5c10-2.6,20.9-9.3,20.9-9.3s0.1-10.9,0.1-15L289.1,216.8z"/>
		<path class="st14" d="M310.1,222.6c0.8-0.3,1.6-0.7,2.3-1.2c-1-0.1-1.9-0.2-2.9-0.3L310.1,222.6z M310.4,226.7c1-0.2,2-0.4,3-0.7
			c-0.1-0.1-3.3-1.2-3.3-1.2L310.4,226.7z M310.4,229.4c0.9,0.2,1.7,0.4,2.6,0.6c-0.1-0.1-2.6-2.4-2.6-2.4V229.4z"/>
		<path class="st11" d="M291.7,222.6c0,0,5.2,3,7.8,3.1c2.2,0,4.3-0.3,6.4-0.9c0.6-1,1.3-1.9,2.2-2.7c0.7-0.6,1.6-1.4,1.6-1.4
			c0.5,2.2,0.8,4.4,1,6.6c0,0.7-0.1,1.4-0.3,2c-0.8,0.3-1.6,0.2-2.3-0.2c-1.2-0.6-2.2-1.1-2.2-1.1c-2.9,0.7-5.9,0.9-8.8,0.7
			c-4.7-0.4-7-1.8-7.8-2.4S291.7,222.6,291.7,222.6"/>
		<path class="st13" d="M295.2,238.2c0,0-7.2,5.8-23.9,9.1c-7.9,1.6-19.5,0.5-19.5,0.5l-0.9-7.5c0,0,12.3,1,23.1-1.5
			c14.8-3.4,20.9-8.6,20.9-8.6L295.2,238.2z"/>
		<path class="st14" d="M274.7,243.3c0.4,0.8,0.8,1.5,1.3,2.2c0.1-0.1,0.2-2.9,0.2-2.9L274.7,243.3z M270.5,243.8c0.2,1,0.4,2,0.8,3
			c0.1-0.1,1.1-3.3,1.1-3.3L270.5,243.8z M267.9,243.9c-0.2,0.9-0.4,1.8-0.5,2.6c0.1-0.1,2.3-2.7,2.3-2.7L267.9,243.9z"/>
		<path class="st12" d="M274,225c-1.6,2.4-2.6,5.1-2.9,7.9c0.1,2.2,0.5,4.3,1.1,6.4c1,0.6,2,1.3,2.8,2.1c0.6,0.6,1.4,1.6,1.4,1.6
			c-2.1,0.6-4.3,1-6.5,1.2c-0.7,0-1.3,0-2-0.2c-0.3-0.8-0.2-1.6,0.1-2.3c0.5-1.2,1-2.2,1-2.2c-0.8-2.9-1.1-5.8-1-8.8
			c0.2-4.7,1.5-7.1,2.1-7.9C272.4,219.5,275.5,222.9,274,225"/>
		<path class="st13" d="M285,182.2c-0.2-0.6,1.6-6.1-3.6-10.5s-13.2-8-12.7-5.5s3,9.8,5.9,13c1.7,1.9,3.6,3.7,5.5,5.4L285,182.2z
			 M269.5,194.4c0,0-4.6-5.1-11.4-4.7s-13.7,2.5-12.6,4.2s2.3,4.7,8.8,7.3c6.5,2.6,15.7,0.4,15.7,0.4L269.5,194.4z"/>
		<path class="st14" d="M284.2,183.1c0,0-1.5-5.1-4-7.2s-4-2.1-4-2.1s1.2,5.3,2.9,7C280.5,182,282.3,182.8,284.2,183.1 M269.5,196.7
			c0,0-4.6-2.6-7.8-2.5s-4.4,1.2-4.4,1.2s4.5,3,7,3.1C266.2,198.5,268,197.8,269.5,196.7"/>
		<path class="st13" d="M305.8,189.2c-5.2-1.8-13.5-7.7-18.1-7.7s-12.8,4.6-15.8,7.7c-2.6,3-3.7,6.9-3.1,10.8
			c0.4,2.8-0.4,5.4-2.6,8.2l6.6,5.1l11.5,3.5c2.3,0.4,4.5,0.6,6.8,0.6c1.1-0.6,2.3-0.6,5.1-2.6c6.2-4.4,34.1-12.2,39.7-16.7
			C341.4,193.8,324.9,195.7,305.8,189.2"/>
		<path class="st15" d="M279,195c-0.9,2.6,0.3,6.1,3.3,7.2c2.3,0.8,6.2-0.8,6.1-4.5c0.1-2.5-1.5-4.8-3.9-5.6
			c-2.3-0.8-4.8,0.5-5.5,2.8C279,194.8,279,194.9,279,195"/>
		<path class="st16" d="M283.6,197.4c-0.2,0.5-0.7,0.7-1.1,0.6c-0.5-0.2-0.7-0.6-0.6-1.1s0.6-0.7,1.1-0.6l0,0
			C283.5,196.4,283.7,196.9,283.6,197.4L283.6,197.4"/>
		<path class="st15" d="M295.4,183.9c-0.6,2.4,0.7,4.8,3,5.7c1.8,0.5,3.7-0.6,4.2-2.5c0.1-0.4,0.1-0.8,0.1-1.2c0.1-2-1.1-3.7-3-4.3
			c-1.8-0.6-3.7,0.4-4.3,2.1C295.4,183.8,295.4,183.9,295.4,183.9"/>
		<path class="st16" d="M299.6,186.5c-0.1,0.3-0.5,0.5-0.9,0.4c-0.3-0.1-0.5-0.5-0.4-0.8c0.1-0.4,0.5-0.6,0.8-0.5
			C299.5,185.7,299.8,186,299.6,186.5C299.7,186.4,299.7,186.5,299.6,186.5"/>
		<path class="st14" d="M331.1,194.2c5.8,0.9,8.5,1.6,5.8,3.8c-1.8,1.2-3.7,2.2-5.7,3C330.9,198.7,330.9,196.5,331.1,194.2"/>
		<path class="st17" d="M293.8,197.9c0-5-4.4-9.6-9.6-9.1c-7.7,0.8-15.4,9.1-15.4,9.1s9.4,9.2,15.8,8.6
			C290.7,205.9,293.8,201.6,293.8,197.9 M284.1,190.8c4.1-0.1,7.5,3,7.6,7.1c0,3.9-3.8,6.3-8,6.3c-3.7,0-9.5-4.3-11-6.1
			C275.2,195.6,280.8,190.8,284.1,190.8"/>
		<path class="st17" d="M299.7,193.2c4.3,0.1,7.9-3.3,8-7.6c0-4-7.5-11.4-7.5-11.4s-8.5,7.5-8.5,11.4
			C291.8,189.9,295.4,193.3,299.7,193.2 M300,177.1c1.5,0.7,5.7,5.4,5.7,8.5c0,3.3-2.7,6-6,6s-6-2.7-6-6
			C293.7,183.4,297.4,179.4,300,177.1"/>
		<path class="st17" d="M290.8,193c0.9-0.6,3.5-2.1,4-2.3l-0.9-1.8c-0.6,0.3-3.7,2.2-4.1,2.4L290.8,193z"/>
		<path class="st15" d="M296.4,215.4c-5.4,0.5-10.9,0.4-16.2-0.5c-8.4-1.4-13.3-8.5-13.3-8.5s-3.2,0.2-3.4,1.8s4.7,2.3,4.7,2.3
			s-3.5,2-0.7,4.1c2.4,1.9,4.7-0.6,4.7-0.6c-0.6,1.5,0.1,3.3,1.6,3.9c2.6,1.2,4-1.8,4-1.8s0.3,3.9,2.2,3.6s3-2.4,3-2.4
			s0,3.7,2.5,3.4s2.2-3.1,2.2-3.1s1.5,3.4,3.5,2.9s1.6-3.2,1.6-3.2s3.1,3.7,4.6,1.9S296.5,215.4,296.4,215.4"/>
		<path class="st18" d="M315.1,254.1c21,0,38.1,2.1,38.1,4.7s-17,4.7-38.1,4.7s-38-2.1-38-4.7S294.1,254.1,315.1,254.1"/>
		<path class="st19" d="M304.8,275.3h5v28.5c0,1.4-1.1,2.5-2.5,2.5s-2.5-1.1-2.5-2.5V275.3z"/>
		<path class="st20" d="M281.2,275.3h5v28.5c0,1.4-1.1,2.5-2.5,2.5s-2.5-1.1-2.5-2.5V275.3z M344.4,275.3h5v28.5
			c0,1.4-1.1,2.5-2.5,2.5s-2.5-1.1-2.5-2.5V275.3z"/>
		<path class="st20" d="M349.3,275.5c-7.1,2.7-19.8,4.6-34.3,4.6c-14,0-26.5-1.8-33.9-4.4v-8.1c6.6,2.4,19.4,4.1,33.9,4.1
			c15.1,0,28.1-1.8,34.3-4.3V275.5z"/>
		<path class="st21" d="M353.1,259v0.1v5.5c-1.6,4-18,7.1-38.1,7.1c-19.3,0-35.7-3-38.2-6.8c0.1-1.4,0.1-5.2,0.2-5.9
			c0.8,2.5,17.5,4.5,38,4.5C335.4,263.5,352,261.5,353.1,259"/>
		<path class="st22" d="M318.3,217.1c-0.7,4.5-1.5,9-2.2,13.5c-2.3,0.6-4.8,0.4-7-0.4l-0.4-13.8c1.6,0.5,3.2,0.8,4.8,0.9
			C315,217.4,316.7,217.4,318.3,217.1"/>
		<path class="st23" d="M313.5,216.2c1.6,0.1,3.2,0.4,4.8,0.8l-0.1,0.1c-3.2,0.4-6.4,0.2-9.5-0.6l-0.1-0.1
			C310.3,216.2,311.9,216.1,313.5,216.2"/>
		<path class="st24" d="M317.2,223.6l-1.2,7.1c-2.3,0.5-4.8,0.4-7-0.5l-0.2-7.1L317.2,223.6z"/>
		<path class="st25" d="M313.1,222.9c1.4,0.1,2.8,0.3,4.1,0.7c-0.3,0.3-3.6,0.2-4.2,0.2s-3.9-0.3-4.1-0.7
			C310.3,222.9,311.7,222.8,313.1,222.9"/>
		<path class="st26" d="M289.9,208.7c0,0,0.4,3,2.5,2.9c1.2-0.1,2.2-1.1,2.3-2.3"/>
		<path class="st4" d="M601.6,123.8c10.8-4.9,13.6-11.3,17.3-25.1c0,0,0.5-0.2,0.5-0.3s38.3,0.3,45.1,9.5
			c15.1,20.4-10.6,48.4-31.7,59.5C588,191.1,567.3,139.4,601.6,123.8"/>
		<path class="st17" d="M184.9,97.5c0,0,0.8,20,15.1,49.9c14.7,30.7,33.3,44.5,33.3,44.5s-18.3-31.2-24.9-51.3
			c-8.7-26.4-9.9-47.1-9.9-47.1L184.9,97.5z"/>
		<path class="st17" d="M314.9,100.9c0.7-25.5-9.7-38.5-44.9-39.8c-39.4-1.4-92.2-4.1-134,0.6c-32,3.5-35.1,68.3,3.9,72
			c42.2,4,96.2,6.8,146.9-0.5C311.6,129.6,314.6,115.4,314.9,100.9"/>
		<path class="st27" d="M675.1,130.6l-20.9,2.8l10.4,18.5l3.7-6.8c0,0,14,6.6,16.5,21c0.5,3.1,0.7,5.5,0.7,18.5H701
			c-0.7-15.7-1.7-20.8-3.4-25.9c-4.9-14.8-26.2-21.1-26.2-21.1L675.1,130.6z M412.5,219.1l-12.8,16.8l20.4,5.7l-2.2-7.4
			c0,0,14.5-5.3,26.5,3.2c2.5,1.8,13.7,12.7,22.9,21.9l11-11c-11.5-10.6-25.2-22.8-30.1-25.2c-13.9-7.1-33.4,3.6-33.4,3.6
			L412.5,219.1z"/>
	</g>
</g>
</svg>
