<?xml version="1.0" encoding="utf-8"?>
<!-- Generator: Adobe Illustrator 26.2.1, SVG Export Plug-In . SVG Version: 6.00 Build 0)  -->
<svg version="1.1" id="Capa_1" xmlns="http://www.w3.org/2000/svg" xmlns:xlink="http://www.w3.org/1999/xlink" x="0px" y="0px"
	 viewBox="0 0 503.8 374.3" style="enable-background:new 0 0 503.8 374.3;" xml:space="preserve">
<style type="text/css">
	.st0{fill:#E9F6FC;}
	.st1{fill:#2FAC66;}
	.st2{fill:#FFDE00;}
	.st3{fill:#F19800;}
	.st4{fill:#9C6297;}
	.st5{fill:#A4659E;}
	.st6{fill:#B780B1;}
	.st7{fill:#F3A5C2;}
	.st8{fill:#FFFFFF;}
	.st9{fill:#1D1D1B;}
	.st10{opacity:0.8;}
	.st11{clip-path:url(#SVGID_00000096050446410361305970000013871271381233980053_);}
	.st12{clip-path:url(#SVGID_00000083062747806855294800000002140151395147813559_);}
	.st13{clip-path:url(#SVGID_00000168822089134379154270000005008591252201925289_);}
	.st14{fill:none;stroke:#DAD8CC;stroke-width:0.5;stroke-linecap:round;}
	.st15{fill:#F39200;}
	.st16{fill:none;stroke:#1D1D1B;stroke-width:1.59;stroke-linecap:round;}
</style>
<g id="Capa_2_00000085245485692821558410000007261670873807033778_">
	<g id="Capa_1-2">
		<path class="st0" d="M71.8,79.6c-23.7,5-51.6,60.2-65.5,90.6S3.1,210.6,23,248.6c9.3,17.7,29.8,41.6,44.1,53.1
			c26.5,21.3,44.1,35.2,61.2,42.7s12.3,21.5,30.1,18.6c53.4-8.5,78.4-43.9,134.6-5.6c17,11.5,68.8,5.4,89.1-3.9
			c35.2-16.3,75.2-24.5,99.5-67.5c17.5-31.1,23-74.8,22-116.2c-0.5-20.8-2.7-42.7-11.3-58.6c-5-9.3-11.9-15.8-19-21.1
			c-44.5-33.7-109.7-40.7-159.1-37.4C244.2,57.2,140.4,56.8,71.8,79.6"/>
		<path class="st1" d="M322.1,324.2c-49.3,0-98.7,0.8-148,2.5c-27.4,0.9-54.7,4-81.6,9.2c-7.2,1.4-12.9,2-15.1,8.5
			c-2.4,7.2,4.9,11.8,12.3,14.8c8.1,3.2,22.8,12,54.4,13.5c131.6,6.1,144.5-7.8,231.4-7.8c12.3,0,26.3-0.8,34.1-9.6
			c7.3-8.3,15-15.8,5.7-22c-6.9-4.6-14.1-1.5-29.7-3.9C363.2,325.9,344.9,323,322.1,324.2"/>
		<path class="st2" d="M481.5,52c0,19-15.4,34.5-34.5,34.5c-19,0-34.5-15.4-34.5-34.5s15.5-34.5,34.6-34.5
			C466.1,17.5,481.5,32.9,481.5,52L481.5,52"/>
		<path class="st3" d="M290.8,26.6c-43-12.9-205.4-10.2-233-3.4c-57.8,14.2-58,104.7-12.2,122.1c19.3,7.3,88.1,10.2,147,8
			c1,2.8,4.2,10.2,9.8,13.9c7,4.6,22.1,7.4,22.1,7.4s-16.5-16.2-15.6-22.2c28.3-1.6,82.8-4.6,95.5-9c29.8-10.4,32.8-25.4,33.2-45.8
			C338.4,61.9,333.6,39.3,290.8,26.6"/>
		<path class="st4" d="M311.6,314.8c0,0,8.9,17.3,20.5,20.9s35.5-0.5,35.5-0.5s-20.4,10.7-35.7,7.4c-9.6-2.1-13.9-2.3-28-17.9
			c-1.3-1.4-2.8-2.6-4.3-3.7L311.6,314.8z"/>
		<path class="st5" d="M331.2,342.5c2.4-1.8,4.7-3.9,6.7-6.2c-2.6-0.1-5.1-0.5-7.6-1.1c-2.2,1.9-4.5,3.6-6.9,5.1
			C326.1,341.3,328.7,341.8,331.2,342.5"/>
		<path class="st6" d="M324.4,340.8c2.9-1.8,5.7-3.8,8.4-6c-0.8-0.2-1.6-0.4-2.4-0.7c-1.9-0.8-3.8-1.8-5.5-3c-3,2-6,3.9-9.2,5.5
			C318.5,338.4,321.4,339.8,324.4,340.8"/>
		<path class="st5" d="M319.2,323.9c-3.6,2.6-9,5.5-11.9,7.2c2.8,2.6,6.7,4.6,9.3,6.1c3.4-1.9,6.7-4,9.8-6.3
			C323.5,329.1,321.4,326.3,319.2,323.9"/>
		<path class="st6" d="M320.1,323.5c-2.5-2.9-4.8-6-6.7-9.2c-3.6,2.8-10.6,4.9-13.7,6.8c-1.3,1,5.3,8.1,8.3,10.9
			C310.8,330.3,316.4,326.1,320.1,323.5"/>
		<path class="st7" d="M340.5,230.4c0,0,4.4-1.9,4.1-2s-6-0.4-6-0.4L340.5,230.4z"/>
		<path class="st7" d="M337.7,226.8c0,0,3.6-4,3.3-4s-5.6,1.9-5.6,1.9L337.7,226.8z"/>
		<path class="st7" d="M332.9,221.7c0,0,2-4,1.7-4s-4.1,2.7-4.1,2.7L332.9,221.7z"/>
		<path class="st4" d="M308.6,241c0,0,10-1.5,13.6-4s7.5-7.9,7.5-7.9c-0.3-2-0.2-3.9,0.2-5.9c0.2-1.5,0.7-3.5,0.7-3.5
			c2.9,2.3,5.7,4.9,8.1,7.7c0.7,0.9,1.3,1.9,1.8,2.9c-0.8,1.1-1.9,1.9-3.3,2.2c-2.2,0.5-4.1,0.8-4.1,0.8c-3.1,4-6.8,7.4-10.9,10.2
			c-6.6,4.4-11.1,4.9-12.7,5S308.6,241,308.6,241"/>
		<path class="st7" d="M226.9,244c-1.5-0.2-3-0.5-4.5-0.8c0.3-0.1,5.7-1.9,5.7-1.9L226.9,244z"/>
		<path class="st7" d="M228.8,239.9c0,0-4.5-3-4.2-3.1s5.9,0.4,5.9,0.4L228.8,239.9z"/>
		<path class="st7" d="M232.2,233.7c0,0-3-3.4-2.7-3.4s4.6,1.5,4.6,1.5L232.2,233.7z"/>
		<path class="st4" d="M260.5,246.2c0,0-10,1.1-14.2-0.4s-9.3-5.7-9.3-5.7c-0.2-2-0.8-3.9-1.6-5.7c-0.6-1.4-1.6-3.2-1.6-3.2
			c-2.2,3-4.2,6.2-5.9,9.5c-0.5,1-0.8,2.1-0.9,3.3c1,0.9,2.4,1.4,3.7,1.3c2.3-0.1,4.1-0.3,4.1-0.3c4,3,8.4,5.4,13.2,7.1
			c7.6,2.6,12,1.9,13.6,1.6S260.5,246.2,260.5,246.2"/>
		<path class="st8" d="M257.8,232.1c8.2,0.8,16.4,0.6,24.6-0.7c12.7-2.2,19.9-12.5,19.9-12.5s5,0.1,5.4,2.5s-7.1,3.5-7.1,3.5
			s5.4,2.9,1.1,6.2c-3.7,2.9-7.1-0.9-7.1-0.9s1.5,4.2-2.4,6s-6-2.7-6-2.7s-0.4,5.9-3.3,5.5s-4.5-3.7-4.5-3.7s0,5.5-3.8,5.1
			s-3.4-4.7-3.4-4.7s-2.3,5.2-5.4,4.4s-2.4-4.8-2.4-4.8s-4.7,5.6-7,2.9C254.2,235.3,257.8,232.1,257.8,232.1"/>
		<path class="st7" d="M261.7,334.1c0,0-4.6,0.6-4.3,0.7c0.3,0.1,5.5,1.5,5.5,1.5L261.7,334.1z"/>
		<path class="st7" d="M263.5,337c0,0-5.1,2.7-4.8,2.8s6.4-0.4,6.4-0.4L263.5,337z"/>
		<path class="st7" d="M266.1,341.3c0,0-3.3,3.7-3,3.8c1.7-0.5,3.4-1,5.1-1.7L266.1,341.3z"/>
		<path class="st7" d="M296,338.2c0,0-5,1.3-4.8,1.4s6.5,1,6.5,1L296,338.2z"/>
		<path class="st7" d="M298.4,341.4c0,0-5.1,2.7-4.8,2.8s6.4-0.4,6.4-0.4L298.4,341.4z"/>
		<path class="st7" d="M301.2,345.4c0,0-3.2,3.7-3,3.8c1.7-0.5,3.4-1,5.1-1.7L301.2,345.4z"/>
		<path class="st4" d="M304.2,225.5L255.3,240c0.4,7.2,1.2,21,1.2,21s18.3,11.2,35.2,15.6c12.1,3,24.7,3.3,36.9,0.9
			c0,0-1.6-25-18-44.4C308.2,230.2,306,227.7,304.2,225.5"/>
		<path class="st4" d="M270.8,313.1v21.6c0,0-10.4-2.8-9.4-0.6s6,9.5,6,9.5s9.6,0.1,9.1-3.8s-0.2-21.4-0.2-21.4"/>
		<path class="st4" d="M262.5,302.2c3.3,15.2,5.2,23,24.4,23c28.2,0,31.1-18.3,31.1-18.3L262.5,302.2z"/>
		<path class="st6" d="M299.2,204.4c0,0,7.7-8.6,19-7.8s22.9,4.2,21.1,7.1s-3.8,7.8-14.6,12.1s-26.2,0.7-26.2,0.7L299.2,204.4z"/>
		<path class="st6" d="M273.4,184c0.3-1-2.8-10.1,5.9-17.4c8.7-7.3,22-13.3,21.2-9.2s-5,16.3-9.8,21.7c-2.8,3.2-5.9,6.2-9.2,9
			L273.4,184z"/>
		<path class="st4" d="M304.5,309.7V337c0,0-9.4-0.6-8.4,1.7s7.2,9.5,7.2,9.5s7.4-2.1,6.9-6s0.5-32.9,0.5-32.9"/>
		<path class="st7" d="M299.3,208.2c0,0,7.7-4.4,13-4.1s7.4,2,7.4,2s-7.5,5-11.6,5.1C303.3,211.3,299.2,208.2,299.3,208.2"/>
		<path class="st7" d="M274.8,185.4c0,0,2.6-8.4,6.6-12s6.7-3.6,6.7-3.6s-2,8.8-4.9,11.7C279.9,184.9,274.8,185.4,274.8,185.4"/>
		<path class="st6" d="M238.8,195.6c8.8-3,22.5-12.9,30.1-12.9s21.4,7.6,26.4,12.9c4.3,5,6.2,11.5,5.2,18c-0.7,4.6,1.2,8.4,4.8,13.1
			l-11.6,9.1l-26.5,7.9c0,0-6.5,0-12.6,0.1c0-2.6,0-4.6,0-5.4c0-3.4-56.8-20.4-66.1-27.9C179.5,203.3,207,206.3,238.8,195.6"/>
		<path class="st8" d="M283.6,205.3c1.4,4.4-0.5,10.2-5.6,11.9c-3.8,1.3-10.4-1.2-10.2-7.6c0.1-4.9,2.6-8.1,6.5-9.4
			S282.1,201,283.6,205.3"/>
		<path class="st9" d="M275.9,209.3c0.3,0.8,1.1,1.1,1.9,0.9c0.7-0.3,1.1-1,0.9-1.8s-1-1.2-1.8-1s-1.2,1-1,1.8V209.3"/>
		<path class="st8" d="M256.1,186.9c1.1,3.4-1.1,8.2-5,9.5c-2.9,1-7.3-1.2-7.1-6.1c0.1-3.8,2-6.2,5-7.2s6.1,0.6,7.1,3.6
			C256.1,186.7,256.1,186.8,256.1,186.9"/>
		<g class="st10">
			<g>
				<g>
					<g>
						<defs>
							<rect id="SVGID_1_" x="243.7" y="182.5" width="12.6" height="10.7"/>
						</defs>
						<clipPath id="SVGID_00000097474450098383141910000005579714219093061807_">
							<use xlink:href="#SVGID_1_"  style="overflow:visible;"/>
						</clipPath>
						<g style="clip-path:url(#SVGID_00000097474450098383141910000005579714219093061807_);">
							<g>
								<g>
									<g>
										<defs>
											<rect id="SVGID_00000152967191205088964410000004046520417351586484_" x="243.7" y="182.5" width="12.6" height="10.7"/>
										</defs>
										<clipPath id="SVGID_00000125586357749614520650000010330322938050373041_">
											<use xlink:href="#SVGID_00000152967191205088964410000004046520417351586484_"  style="overflow:visible;"/>
										</clipPath>
										<g style="clip-path:url(#SVGID_00000125586357749614520650000010330322938050373041_);">
											<g>
												<g>
													<g>
														<defs>
															
																<rect id="SVGID_00000119808104495042538400000013248471734300370092_" x="243.7" y="182.5" width="12.6" height="10.7"/>
														</defs>
														<clipPath id="SVGID_00000016771462651093393500000003595831797990116030_">
															<use xlink:href="#SVGID_00000119808104495042538400000013248471734300370092_"  style="overflow:visible;"/>
														</clipPath>
														<g style="clip-path:url(#SVGID_00000016771462651093393500000003595831797990116030_);">
															<path class="st8" d="M244.4,193c-0.3-0.9-0.5-1.8-0.5-2.7c0.1-3.8,2-6.2,5-7.2s6.1,0.6,7.1,3.6
																c0,0.1,0.1,0.2,0.1,0.3"/>
															<path class="st14" d="M244.4,193c-0.3-0.9-0.5-1.8-0.5-2.7c0.1-3.8,2-6.2,5-7.2s6.1,0.6,7.1,3.6
																c0,0.1,0.1,0.2,0.1,0.3"/>
														</g>
													</g>
												</g>
											</g>
										</g>
									</g>
								</g>
							</g>
						</g>
					</g>
				</g>
			</g>
		</g>
		<path class="st9" d="M249.1,191.1c0.2,0.6,0.8,0.9,1.4,0.7s0.9-0.8,0.7-1.4c-0.2-0.6-0.8-0.9-1.4-0.7l0,0
			C249.2,189.9,248.9,190.5,249.1,191.1"/>
		<path class="st7" d="M196.7,204c-9.6,1.5-14.1,2.6-9.6,6.2c3,2,6.1,3.7,9.5,5.1C197,211.6,197,207.8,196.7,204"/>
		<path class="st15" d="M258.9,210.1c0-8.4,7.2-16.1,16-15.2c12.8,1.3,25.7,15.2,25.7,15.2s-15.7,15.3-26.3,14.3
			C263.9,223.4,258.9,216.4,258.9,210.1 M274.9,198.2c-7,0-12.7,5.3-12.7,11.8s6.3,10.5,13.3,10.5c6.2,0,15.9-7.1,18.3-10.2
			C289.7,206.3,280.3,198.2,274.9,198.2"/>
		<path class="st15" d="M249,202.2c-7.4,0-13.3-5.7-13.3-12.6c0-6.7,12.4-19.1,12.4-19.1s14.2,12.4,14.2,19.1
			C262.3,196.6,256.3,202.3,249,202.2 M248.6,175.5c-2.5,1.1-9.5,9.1-9.5,14.1s4.5,9.3,10,9.3s10-4.2,10-9.3
			C259,186,252.9,179.3,248.6,175.5"/>
		<path class="st15" d="M263.8,202c-1.6-0.9-5.8-3.4-6.6-3.9l1.5-3c1.1,0.6,6.2,3.6,6.8,4L263.8,202z"/>
		<path class="st6" d="M255.2,272.3c0,0,12,9.7,40.2,15.4c13.2,2.6,32.8,0.9,32.8,0.9l0.7-12.9c0,0-19.9,1.9-38-2.2
			c-24.8-5.6-35.1-14.4-35.1-14.4L255.2,272.3z"/>
		<path class="st5" d="M256,282.5c0,0,11.3,11.5,38.8,15c13.5,1.7,30.3-0.6,30.3-0.6l1.5-8.4c-12.1,0.8-24.2,0-36-2.3
			c-21.5-4.5-34.2-13.5-34.2-13.5L256,282.5z"/>
		<path class="st6" d="M258,293.5c0,0,10.6,8.3,35.2,10.8c13.3,1.4,28.1-0.7,28.1-0.7l2.4-6.5c0,0-17.8,2.3-34.2-1.2
			c-19.1-4.1-31.4-12.5-31.4-12.5L258,293.5z"/>
		<path class="st5" d="M261.4,304.1c0,0,7.9,6.5,32.6,6.5c8.1,0,16.1-0.8,24-2.3l2.2-4.7c-10.3,0.9-20.6,0.8-30.8-0.3
			c-19.4-2.1-29.3-8.5-29.3-8.5L261.4,304.1z"/>
		<path class="st8" d="M254.5,239.4c9,0.9,18.1,0.6,27.1-0.8c14-2.4,22.1-14.1,22.1-14.1s5.3,0.4,5.7,3.1s-7.9,3.9-7.9,3.9
			s5.9,3.2,1.2,6.9c-4.1,3.2-7.8-1-7.8-1s1.7,4.6-2.6,6.6s-6.6-3-6.6-3s-0.4,6.4-3.6,6s-5-4.1-5-4.1s0,6.1-4.2,5.7
			c-4.2-0.4-3.7-5.2-3.7-5.2s-2.5,5.7-5.9,4.9s-2.6-5.3-2.6-5.3s-5.2,6.2-7.7,3.1S254.5,239.4,254.5,239.4"/>
		<path class="st16" d="M249.7,221.6c0,0,0.4,6.2,3.9,6c3.4-0.2,3.6-6.9,3.6-6.9"/>
	</g>
</g>
</svg>
