<?xml version="1.0" encoding="utf-8"?>
<!-- Generator: Adobe Illustrator 26.2.1, SVG Export Plug-In . SVG Version: 6.00 Build 0)  -->
<svg version="1.1" id="Capa_1" xmlns="http://www.w3.org/2000/svg" xmlns:xlink="http://www.w3.org/1999/xlink" x="0px" y="0px"
	 viewBox="0 0 684 358.5" style="enable-background:new 0 0 684 358.5;" xml:space="preserve">
<style type="text/css">
	.st0{fill:none;}
	.st1{fill:#E30613;}
	.st2{fill:#B91919;}
	.st3{fill:#E9F6FC;}
	.st4{fill:#2FAC66;}
	.st5{fill-rule:evenodd;clip-rule:evenodd;fill:#C8C2B8;}
	.st6{fill-rule:evenodd;clip-rule:evenodd;fill:#E9E7E1;}
	.st7{fill:#FFDE00;}
	.st8{fill:#9C6297;}
	.st9{fill:#A4659E;}
	.st10{fill:#B780B1;}
	.st11{fill:#F3A5C2;}
	.st12{fill:#FFFFFF;}
	.st13{fill:#1D1D1B;}
	.st14{opacity:0.8;}
	.st15{clip-path:url(#SVGID_00000057119481579377216190000013649326512424702889_);}
	.st16{clip-path:url(#SVGID_00000078729630301244311180000000744573518448372107_);}
	.st17{clip-path:url(#SVGID_00000093889043279850322790000009643275006487275415_);}
	.st18{fill:none;stroke:#DAD8CC;stroke-width:0.3;stroke-linecap:round;}
	.st19{fill:#F39200;}
	.st20{fill:#0D181C;}
	.st21{fill:#A85318;}
	.st22{fill:#814114;}
	.st23{clip-path:url(#SVGID_00000161605934457999318230000017870912724659605660_);}
	.st24{clip-path:url(#SVGID_00000091704624502287308910000005458021376721485751_);}
	.st25{clip-path:url(#SVGID_00000129172998906708071940000002461566062955797647_);}
	.st26{fill:none;stroke:#2FAC66;stroke-width:1.04;stroke-linecap:round;}
	.st27{fill:none;stroke:#1D1D1B;stroke-width:0.91;stroke-linecap:round;}
	.st28{clip-path:url(#SVGID_00000104670325453624407170000016153078499359097790_);}
	.st29{clip-path:url(#SVGID_00000158015906303136888210000004812644150291641532_);}
	.st30{clip-path:url(#SVGID_00000094576052587098413270000012397905988604077956_);}
	.st31{fill:none;stroke:#DAD8CC;stroke-width:0.28;stroke-linecap:round;}
	.st32{fill:#00A0A4;}
	.st33{fill:#424343;}
	.st34{fill:#05171D;}
	.st35{fill:url(#SVGID_00000169550294774109896140000017373865790380381371_);}
	.st36{clip-path:url(#SVGID_00000145744031244520125740000004549487287040596358_);}
	.st37{clip-path:url(#SVGID_00000024689966776352001720000000786903387487152808_);}
	.st38{clip-path:url(#SVGID_00000093172758162715538690000013657783974928005539_);}
	.st39{fill:none;stroke:#1D1D1B;stroke-width:0.82;stroke-linecap:round;}
	.st40{clip-path:url(#SVGID_00000122691783393939571870000005764126120927681698_);}
	.st41{clip-path:url(#SVGID_00000089534260785985285430000009342855525719600005_);}
	.st42{clip-path:url(#SVGID_00000127746153383353284800000015209149705618312322_);}
	.st43{clip-path:url(#SVGID_00000146461388236873981330000005149199918173373833_);}
	.st44{clip-path:url(#SVGID_00000165218406920033534820000008132861026861146803_);}
	.st45{clip-path:url(#SVGID_00000040543633922315503420000000370810347861658014_);}
	.st46{clip-path:url(#SVGID_00000181782626210740120210000017734943667386222269_);}
	.st47{fill:url(#SVGID_00000135659316343315417560000006137057094909107865_);}
	.st48{clip-path:url(#SVGID_00000080927106474157591720000010100938547956641443_);}
	.st49{fill:url(#SVGID_00000140724772037436909890000016699392425314765466_);}
	.st50{fill:#2B9659;}
</style>
<pattern  y="358.5" width="16.6" height="16.6" patternUnits="userSpaceOnUse" id="SVGID_0000006865409449860082860" viewBox="0 -16.6 16.6 16.6" style="overflow:visible;">
	<g>
		<rect y="-16.6" class="st0" width="16.6" height="16.6"/>
		<g>
			<rect y="-16.6" class="st0" width="16.6" height="16.6"/>
			<rect y="-16.6" class="st0" width="16.6" height="16.6"/>
			<rect y="-16.6" class="st1" width="16.6" height="16.6"/>
			<path class="st2" d="M7.2-12.5c-0.1-1.6-1.4-2.8-3-2.8c-1.6,0.1-2.8,1.4-2.8,3s1.4,2.8,3,2.8l0,0C6-9.5,7.3-10.9,7.2-12.5
				L7.2-12.5"/>
			<path class="st2" d="M15.2-4.4c-0.1-1.6-1.4-2.8-3-2.8c-1.6,0.1-2.8,1.4-2.8,3c0.1,1.6,1.4,2.8,3,2.8l0,0
				C14-1.4,15.2-2.8,15.2-4.4L15.2-4.4"/>
		</g>
	</g>
</pattern>
<pattern  y="358.5" width="16.6" height="16.6" patternUnits="userSpaceOnUse" id="SVGID_0000008521917473513656501" viewBox="0 -16.6 16.6 16.6" style="overflow:visible;">
	<g>
		<rect y="-16.6" class="st0" width="16.6" height="16.6"/>
		<g>
			<rect y="-16.6" class="st0" width="16.6" height="16.6"/>
			<rect y="-16.6" class="st0" width="16.6" height="16.6"/>
			<rect y="-16.6" class="st1" width="16.6" height="16.6"/>
			<path class="st2" d="M7.2-12.5c-0.1-1.6-1.4-2.8-3-2.8c-1.6,0.1-2.8,1.4-2.8,3s1.4,2.8,3,2.8l0,0C6-9.5,7.3-10.9,7.2-12.5
				L7.2-12.5"/>
			<path class="st2" d="M15.2-4.4c-0.1-1.6-1.4-2.8-3-2.8c-1.6,0.1-2.8,1.4-2.8,3c0.1,1.6,1.4,2.8,3,2.8l0,0
				C14-1.4,15.2-2.8,15.2-4.4L15.2-4.4"/>
		</g>
	</g>
</pattern>
<pattern  y="358.5" width="16.6" height="16.6" patternUnits="userSpaceOnUse" id="SVGID_0000017530109755120081278" viewBox="0 -16.6 16.6 16.6" style="overflow:visible;">
	<g>
		<rect y="-16.6" class="st0" width="16.6" height="16.6"/>
		<g>
			<rect y="-16.6" class="st0" width="16.6" height="16.6"/>
			<rect y="-16.6" class="st0" width="16.6" height="16.6"/>
			<rect y="-16.6" class="st1" width="16.6" height="16.6"/>
			<path class="st2" d="M7.2-12.5c-0.1-1.6-1.4-2.8-3-2.8c-1.6,0.1-2.8,1.4-2.8,3s1.4,2.8,3,2.8l0,0C6-9.5,7.3-10.9,7.2-12.5
				L7.2-12.5"/>
			<path class="st2" d="M15.2-4.4c-0.1-1.6-1.4-2.8-3-2.8c-1.6,0.1-2.8,1.4-2.8,3c0.1,1.6,1.4,2.8,3,2.8l0,0
				C14-1.4,15.2-2.8,15.2-4.4L15.2-4.4"/>
		</g>
	</g>
</pattern>
<g>
	<g id="Capa_2_00000090986464470623640370000001539693594739689645_">
		<g id="Capa_1-2">
			<path class="st3" d="M543.3,295.6c68-9,115.9-71.5,106.9-139.5c-0.4-2.7-0.8-5.3-1.3-8c-3.4-17.3-10.7-34-22.1-47.5
				c-16.1-19.1-39.5-30.9-63.6-37.7s-49.2-9.3-74-12.9c-76.9-11.1-154.8-33.7-230.8-18c-29.3,6.1-57.1,17.7-85.8,26.1
				c-49.9,14.7-106.5,22-141,61C6.8,147.4-1,187.1,0.1,224.6c0.6,18.8,3.6,38.7,15.8,53.1c7.1,8.5,16.8,14.4,26.8,19.2
				c62.9,30.6,136.5,24.2,206.4,21.4c99.2-4,199.5,0.6,296.7-19.9"/>
			<path class="st4" d="M478.6,274.5c-149.2,22.3-301.1,5.2-449.4,37c-10,2.2-21.5,5.9-26,18c8.4,1.8,16.7,3.6,25.1,5.3
				c199.8,40.4,403.6,23,604.5-6.3c2.3-0.2,4.5-0.8,6.5-2c8.1-5.1,6.6-22.5-0.5-29.7s-16.8-7.2-25.8-7.1
				c-39.3,0.6-78.6-1.5-117.5-6.4"/>
			<path class="st5" d="M530,69.7c0-2.5,0.9-23.5,16.5-30.1c15.6-6.6,28.7,8.9,28.7,8.9s1.9-29,20.6-25.6s18.3,19.9,18.3,19.9
				s6.2-10,16.5-6.6C642,40,640,50.5,640,50.5c4-4.5,10.7-5.3,15.7-2c9.3,5.6,14.4,15.5,12.1,26.3S656,99.7,598.9,94.6
				S529.7,87.5,530,69.7"/>
			<path class="st6" d="M579.3,137.7c0,0-36.2,2.3-36.2-15s8-30.3,22.6-29.3s18.3,6.3,18.3,6.3s-4.7-15,9.4-17.9s15,11.6,15,11.6
				s9.4-12.6,20.2-4.1c6.4,5,10.8,12.3,12.2,20.3c0,0,11.3-14.5,21.6,0s7,29.5-7.5,30.4C640.4,140.9,579.3,137.7,579.3,137.7"/>
			<path class="st1" d="M125.2,80.1c-1.2-42.3,10.7-66.8,56-70.3c76.7-5.9,245.6-2,327.6,2.3c28.5,1.5,42.8,32.4,41.3,64.4
				c-1.2,27.5-10.7,53.7-40.2,56.4c-69.4,6.5-257.8,8.9-338.2-1.3C130.7,126.4,125.8,104.5,125.2,80.1"/>
			<path class="st1" d="M401.2,107.3c0,0,7.8,16.6,18.2,25.2c19.4,16.1,57,26.8,57,26.8s-37.1-31.8-43.7-43.6
				c-3.2-6.4-4.3-13.2-3.2-20L401.2,107.3z"/>
			<path class="st7" d="M88.3,46.9c0,19-15.4,34.5-34.5,34.5S19.3,66,19.3,47s15.4-34.5,34.5-34.5l0,0
				C72.8,12.5,88.3,27.9,88.3,46.9"/>
			<path class="st8" d="M478.6,241.4c0,0,5.6,11,13,13.3s22.6-0.3,22.6-0.3s-13,6.8-22.7,4.7c-6.1-1.3-8.8-1.5-17.8-11.4
				c-0.8-0.9-1.8-1.7-2.7-2.4L478.6,241.4z"/>
			<path class="st9" d="M491.1,259c1.5-1.2,3-2.5,4.3-3.9c-1.6-0.1-3.3-0.3-4.9-0.7c-1.4,1.2-2.9,2.3-4.4,3.2
				C487.8,258.2,489.5,258.6,491.1,259"/>
			<path class="st10" d="M486.8,258c1.9-1.1,3.6-2.4,5.3-3.8c-0.5-0.1-1-0.3-1.5-0.5c-1.2-0.5-2.4-1.1-3.5-1.9
				c-1.9,1.3-3.8,2.5-5.8,3.5C483,256.4,484.9,257.3,486.8,258"/>
			<path class="st9" d="M483.5,247.2c-2.3,1.6-5.7,3.5-7.6,4.6c1.8,1.5,3.8,2.8,5.9,3.9c2.2-1.2,4.2-2.5,6.2-4
				C486.3,250.4,484.8,248.9,483.5,247.2"/>
			<path class="st10" d="M484,246.9c-1.6-1.8-3-3.8-4.3-5.9c-2.3,1.8-6.8,3.1-8.7,4.3c-0.8,0.7,3.4,5.1,5.3,6.9
				C478.1,251.2,481.7,248.6,484,246.9"/>
			<path class="st11" d="M446.7,253.5c0,0-2.9,0.4-2.7,0.4s3.5,1,3.5,1L446.7,253.5z M472.2,260.8c-0.7,0.7-1.3,1.5-1.9,2.4
				c1.1-0.3,2.2-0.7,3.2-1.1L472.2,260.8z M470.3,258.5c-1.1,0.5-2.1,1.1-3.1,1.8c0.2,0,4.1-0.3,4.1-0.3L470.3,258.5z M468.9,256.5
				c0,0-3.3,0.2-3.1,0.3s3.9,1.3,3.9,1.3L468.9,256.5z"/>
			<path class="st11" d="M449.6,258.1c-0.7,0.7-1.3,1.5-1.9,2.4c0.2,0,3.2-1.1,3.2-1.1L449.6,258.1z M448.1,255.5
				c-1.1,0.5-2.1,1.1-3.1,1.8c0.2,0.1,4.1-0.3,4.1-0.3L448.1,255.5z"/>
			<path class="st8" d="M452.7,240.3V254c0,0-6.6-1.8-6-0.4s3.8,6,3.8,6s6.1,0.1,5.8-2.4s-0.1-13.6-0.1-13.6"/>
			<path class="st8" d="M447.4,233.4c2.1,9.7,3.3,14.6,15.5,14.6c17.9,0,19.8-11.7,19.8-11.7L447.4,233.4z"/>
			<path class="st8" d="M474.1,238.2v17.3c0,0-6-0.4-5.4,1s4.6,6,4.6,6s4.7-1.3,4.4-3.8s0.3-20.9,0.3-20.9"/>
			<path class="st9" d="M446.7,234.6c0,0,5,4.1,20.7,4.1c5.1,0,10.3-0.5,15.3-1.5l1.4-3c-6.5,0.6-13.1,0.5-19.6-0.2
				c-12.4-1.3-18.6-5.4-18.6-5.4L446.7,234.6z"/>
			<path class="st10" d="M444.6,227.9c0,0,6.8,5.3,22.4,6.9c6,0.5,11.9,0.3,17.9-0.5l1.5-4.1c0,0-11.3,1.5-21.8-0.8
				c-7.1-1.5-13.8-4.2-19.9-8v6.5H444.6z"/>
			<path class="st9" d="M443.3,220.9c0,0,7.2,7.3,24.7,9.6c8.6,1.1,19.3-0.4,19.3-0.4l0.9-5.4c-7.7,0.5-15.3,0-22.9-1.5
				c-13.6-2.9-21.8-8.6-21.8-8.6L443.3,220.9z"/>
			<path class="st8" d="M473.9,184.6l-31.1,9.2c0.2,4.6,0.8,13.3,0.8,13.3s11.6,7.1,22.4,9.9c7.7,1.9,15.7,2.1,23.5,0.6
				c0,0-1-15.9-11.4-28.2C476.5,187.6,475.1,186,473.9,184.6"/>
			<path class="st10" d="M454.4,158.2c0.2-0.6-1.8-6.4,3.8-11.1s14-8.5,13.5-5.9s-3.2,10.4-6.2,13.8c-1.8,2-3.8,3.9-5.9,5.7
				L454.4,158.2z M470.8,171.2c0,0,4.9-5.4,12.1-4.9s14.5,2.7,13.4,4.5s-2.4,5-9.3,7.7s-16.6,0.5-16.6,0.5L470.8,171.2z"/>
			<path class="st11" d="M455.2,159.2c0,0,1.6-5.4,4.2-7.6s4.3-2.3,4.3-2.3s-1.3,5.6-3.1,7.4C459.1,158.1,457.2,158.9,455.2,159.2
				 M470.8,173.6c0,0,4.9-2.8,8.3-2.6s4.7,1.3,4.7,1.3s-4.8,3.2-7.4,3.3C474.4,175.5,472.4,174.8,470.8,173.6"/>
			<path class="st10" d="M432.3,165.6c5.6-1.9,14.3-8.2,19.1-8.2s13.6,4.8,16.8,8.2c2.7,3.1,3.9,7.3,3.3,11.4
				c-0.4,2.9,0.7,5.3,3,8.3l-7.4,5.8l-15.2,4.2h-9c-0.1-0.9-0.2-1.7-0.6-2.6c0-2.2-36.1-13-42-17.7
				C394.6,170.4,412.1,172.4,432.3,165.6"/>
			<path class="st12" d="M460.8,171.8c0.9,2.8-0.3,6.5-3.5,7.6c-2.4,0.8-6.6-0.8-6.5-4.8c-0.1-2.7,1.5-5.1,4.1-6
				c2.4-0.8,5.1,0.5,5.9,2.9C460.8,171.6,460.8,171.7,460.8,171.8"/>
			<path class="st13" d="M455.9,174.3c0.2,0.5,0.7,0.7,1.2,0.6c0.5-0.2,0.7-0.7,0.6-1.2c-0.2-0.5-0.7-0.7-1.2-0.6
				C456,173.3,455.8,173.8,455.9,174.3L455.9,174.3"/>
			<path class="st12" d="M443.4,160.1c0.6,2.5-0.8,5.1-3.2,6c-2,0.5-4-0.7-4.5-2.6c-0.1-0.4-0.1-0.8-0.1-1.3
				c-0.1-2.1,1.2-3.9,3.2-4.6c1.9-0.6,3.9,0.4,4.5,2.3C443.3,159.9,443.3,160,443.4,160.1"/>
			<g class="st14">
				<g>
					<g>
						<defs>
							<rect id="SVGID_1_" x="435.5" y="157.3" width="8" height="6.8"/>
						</defs>
						<clipPath id="SVGID_00000109003749533832167330000010984165623550863021_">
							<use xlink:href="#SVGID_1_"  style="overflow:visible;"/>
						</clipPath>
						<g style="clip-path:url(#SVGID_00000109003749533832167330000010984165623550863021_);">
							<g>
								<g>
									<defs>
										<rect id="SVGID_00000137814874309361094850000016394633509241172902_" x="435.5" y="157.3" width="8" height="6.8"/>
									</defs>
									<clipPath id="SVGID_00000031206182582841062050000010681741402199319692_">
										<use xlink:href="#SVGID_00000137814874309361094850000016394633509241172902_"  style="overflow:visible;"/>
									</clipPath>
									<g style="clip-path:url(#SVGID_00000031206182582841062050000010681741402199319692_);">
										<g>
											<g>
												<defs>
													<rect id="SVGID_00000001657904519538230410000006738393927911075714_" x="435.5" y="157.3" width="8" height="6.8"/>
												</defs>
												<clipPath id="SVGID_00000129898652677322123610000015013315480154070970_">
													<use xlink:href="#SVGID_00000001657904519538230410000006738393927911075714_"  style="overflow:visible;"/>
												</clipPath>
												<g style="clip-path:url(#SVGID_00000129898652677322123610000015013315480154070970_);">
													<path class="st12" d="M435.9,164c-0.2-0.6-0.3-1.2-0.3-1.8c-0.1-2.1,1.2-3.9,3.2-4.6c1.9-0.6,3.9,0.4,4.5,2.3
														c0,0.1,0,0.1,0.1,0.2"/>
													<path class="st18" d="M435.9,164c-0.2-0.6-0.3-1.2-0.3-1.8c-0.1-2.1,1.2-3.9,3.2-4.6c1.9-0.6,3.9,0.4,4.5,2.3
														c0,0.1,0,0.1,0.1,0.2"/>
												</g>
											</g>
										</g>
									</g>
								</g>
							</g>
						</g>
					</g>
				</g>
			</g>
			<path class="st13" d="M438.8,162.8c0.1,0.4,0.6,0.6,1,0.5l0,0c0.4-0.1,0.6-0.6,0.5-1s-0.6-0.6-1-0.5
				C438.9,162,438.7,162.4,438.8,162.8"/>
			<path class="st11" d="M405.6,171c-6.1,0.9-9,1.6-6.1,4c1.9,1.3,3.9,2.4,6,3.2C405.7,175.8,405.7,173.4,405.6,171"/>
			<path class="st19" d="M445.1,174.8c0-5.3,4.6-10.2,10.2-9.6c8.2,0.8,16.3,9.7,16.3,9.7s-10,9.7-16.8,9.1
				C448.3,183.3,445.1,178.8,445.1,174.8 M455.3,167.3c-4.3-0.1-7.9,3.2-8.1,7.5c0,4.1,4,6.7,8.5,6.7c4,0,10.1-4.6,11.7-6.5
				C464.8,172.4,458.8,167.3,455.3,167.3"/>
			<path class="st19" d="M438.9,169.9c-4.5,0.1-8.3-3.5-8.5-8c0-4.3,7.9-12.1,7.9-12.1s9,7.9,9,12.1
				C447.1,166.4,443.4,170,438.9,169.9 M438.5,152.9c-1.6,0.7-6,5.8-6,9c0.2,3.5,3.3,6.1,6.8,5.9c3.2-0.2,5.7-2.7,5.9-5.9
				C445.2,159.5,441.2,155.2,438.5,152.9"/>
			<path class="st19" d="M448.3,169.7c-1-0.6-3.7-2.2-4.2-2.5l1-1.9c0.7,0.3,4,2.3,4.3,2.5L448.3,169.7z"/>
			<path class="st10" d="M442.8,214.4c0,0,7.6,6.2,25.5,9.8c8.4,1.7,20.9,0.6,20.9,0.6l0.4-8.2c0,0-12.6,1.2-24.1-1.4
				c-15.8-3.6-22.4-9.1-22.4-9.1L442.8,214.4z"/>
			<path class="st12" d="M442.3,193.4c5.7,0.6,11.5,0.4,17.2-0.5c8.9-1.5,14.1-9,14.1-9s3.4,0.3,3.6,1.9s-5,2.5-5,2.5
				s3.7,2.1,0.8,4.4c-2.6,2-5-0.6-5-0.6s1.1,2.9-1.7,4.2s-4.2-1.9-4.2-1.9s-0.3,4.1-2.3,3.8s-3.1-2.6-3.1-2.6s0,3.9-2.7,3.6
				s-2.4-3.3-2.4-3.3s-1.6,3.6-3.8,3.1s-1.7-3.4-1.7-3.4s-3.3,4-4.9,2S442.3,193.4,442.3,193.4"/>
			<path class="st11" d="M428.3,198.6c-0.9-0.4-1.7-0.8-2.5-1.3c0.1-0.1,3.1-0.3,3.1-0.3L428.3,198.6z M427.9,203.1
				c-1.1-0.2-2.2-0.4-3.2-0.7c0.1-0.1,3.5-1.3,3.5-1.3L427.9,203.1z M427.9,205.9c-0.9,0.3-1.9,0.5-2.8,0.6c0.1-0.1,2.8-2.5,2.8-2.5
				V205.9z"/>
			<path class="st8" d="M446.5,199.5c0,0-4.1,2.4-6.9,2.6c-2.3,0-4.6-0.3-6.8-0.9c-0.6-1.1-1.4-2.1-2.4-2.9
				c-0.7-0.7-1.7-1.5-1.7-1.5c-0.5,2.3-0.9,4.6-1,7c0,0.7,0.1,1.5,0.3,2.1c0.8,0.3,1.7,0.2,2.5-0.2c1.3-0.6,2.3-1.2,2.3-1.2
				c3.1,0.7,6.3,1,9.4,0.8c5-0.4,7.4-1.9,8.3-2.5S446.5,199.4,446.5,199.5"/>
			<path class="st20" d="M448.4,184.6c-0.8-1.1-3.4,0-6.9-1.4c0.2,1.7,1.5,4.1,3.9,4.3C448.4,187.7,449.4,185.9,448.4,184.6"/>
			<path class="st11" d="M466.1,220.8c-0.4,0.8-0.9,1.6-1.4,2.4c-0.1-0.1-0.2-3.1-0.2-3.1L466.1,220.8z M470.5,221.3
				c-0.2,1.1-0.5,2.2-0.8,3.2c-0.1-0.1-1.1-3.5-1.1-3.5L470.5,221.3z M473.4,221.4c0,0,0.7,3,0.5,2.8s-2.4-2.9-2.4-2.9L473.4,221.4z
				"/>
			<path class="st9" d="M466.9,201.2c1.2,1.8,3,5.7,3,8.5c-0.1,2.3-0.5,4.6-1.2,6.8c-1.1,0.6-2.1,1.4-3,2.3
				c-0.7,0.7-1.5,1.7-1.5,1.7c2.3,0.6,4.6,1.1,7,1.3c0.7,0.1,1.5,0,2.2-0.2c0.3-0.8,0.3-1.7-0.1-2.5c-0.6-1.3-1.1-2.4-1.1-2.4
				c0.9-3.1,1.2-6.2,1.1-9.4c-0.2-5-1.6-7.5-2.2-8.4C468.7,195.3,465.4,199,466.9,201.2"/>
			<path class="st21" d="M147.4,172.2c-0.5-0.4-1.4-2.3-2.4-6.1c-1.2-4.3,5.4-13.6,7-12.2c2.2,2,5.1,7.3,4.4,13.1
				c-0.3,2.7-2.2,5.1-3.3,6.2l-1,0.1L147.4,172.2z"/>
			<path class="st22" d="M151.4,172.4c0,0,2.5-5.1,1.5-7.6c-0.7-1.5-1.6-2.9-2.6-4.2c0,0-2.5,3.9-1.6,6.4
				C149.3,169,150.2,170.8,151.4,172.4"/>
			<path class="st19" d="M134.2,173.7c0,0-0.4-0.6-1.8-2.4c-2.8-3.5-6.7-6.2-8.3-6.8c-1-0.4,2.9,4.2,5,8.6c1.1,2.4,1.4,2.4,1.4,2.4
				L134.2,173.7z M143.8,171.6c0,0-0.1-0.6-2.1-3.5c-2.4-3.4-7.4-7.1-6.6-5.5s2,4.1,3.3,6.7c0.4,0.8,0.8,1.7,1,2.6L143.8,171.6z"/>
			<path class="st20" d="M109.9,308.8c0.5,0,5.7,5,4.6,5.1s-4.3-1.4-4.3-1.4s0.8,5.8-0.8,4.7s-4.3-4.6-4.3-5.3
				c0-0.8,0.2-3.1,0.2-3.1L109.9,308.8L109.9,308.8z M145.4,308.8c0,0,4,4.7,3.7,5.3s-4.7-1.7-4.7-1.7s0.8,4,0,4.2s-4.5-4-4.5-5.4
				v-2.5L145.4,308.8z"/>
			<path class="st21" d="M109.2,252.6c3.3-13.8,10.3-35.1,11.6-44.4s0.8-12.2,1.9-17.7s2.7-7.6,1.4-8.5s-4.4,1-9.3-0.9
				s-10.9-11.3-8.6-11.7s7.6-2.6,11.8-0.6c3.7,1.8,6.9,4.5,9.4,7.7c0,0,8.1-5.5,15.7-5.9c9.1-0.4,13.3,2.7,14.3,4.1
				c2,4.7,3.3,9.5,4.1,14.5c1.4,8.6,9.3,36.5,5,38.2s-7.7,3.6-10.6,0.3s-21.8-19.2-21.8-19.2s-3.5,0-1.9,5.8s1.6,8.5,3.5,13
				s11.4,29.3,12.2,45.4c0.5,10.1,0.7,10.9-0.3,12.9v4.3l-2.6,18.8h-5c0,0,1.3-2.7,1.5-11.4c0.1-4.8-0.1-6.8-0.6-8.2
				c-4.5,1-10.7,0.9-16.6,0.4c-5-0.4-9.9-1.1-14.8-2.2c-0.5,3-0.8,6-0.8,9c-0.1,4.1,0.2,8.2,0.8,12.3c0,0-4.2,0.8-4.3-0.3
				c-0.8-4.2-1.9-23.9-1.9-23.9C103.1,282,105.8,266.4,109.2,252.6"/>
			<path class="st21" d="M118.4,222.1c-7.2,4.9-16.2,9.9-18.2,15.6c-1.5,4.4,4.9,12.9,4.9,12.9l2.7-3.8c0,0-3.1-4.9-2-7.7
				c1-2.4,9-6.4,9-6.4L118.4,222.1z"/>
			<path class="st12" d="M153.1,179c-1.2,1.7-0.5,5,1.8,6.6c1.6,1.1,3.7,0.8,4.9-0.8c0.3-0.4,0.5-0.8,0.6-1.3c0.5-2-0.3-4.2-2.1-5.3
				c-1.6-1.2-3.8-0.9-5,0.6C153.1,178.9,153.1,179,153.1,179 M132.5,185c-0.8,3.2,1,6.5,4.1,7.7c2.5,0.6,5-0.9,5.7-3.4
				c0.1-0.5,0.2-1,0.1-1.6c-0.1-3-1.6-5.1-4-5.8c-2.4-0.8-4.9,0.5-5.7,2.8C132.6,184.8,132.6,184.9,132.5,185"/>
			<path class="st13" d="M159.2,182.1c-0.2,0.4-0.7,0.5-1.1,0.3c-0.4-0.2-0.5-0.7-0.3-1.1c0.2-0.4,0.7-0.5,1.1-0.3l0,0
				C159.3,181.3,159.4,181.7,159.2,182.1 M140.4,187.4c-0.2,0.5-0.7,0.8-1.2,0.6s-0.8-0.7-0.6-1.2s0.7-0.8,1.2-0.6l0,0
				C140.3,186.4,140.6,186.9,140.4,187.4"/>
			<g>
				<g>
					<g>
						<defs>
							<rect id="SVGID_00000052791072633361253860000011298729638556149147_" x="158.9" y="217.8" width="8.5" height="7.4"/>
						</defs>
						<clipPath id="SVGID_00000103973715205785745380000017976032572337293982_">
							<use xlink:href="#SVGID_00000052791072633361253860000011298729638556149147_"  style="overflow:visible;"/>
						</clipPath>
						<g style="clip-path:url(#SVGID_00000103973715205785745380000017976032572337293982_);">
							<g>
								<g>
									<defs>
										<rect id="SVGID_00000046320022224512251010000014319922477293969058_" x="158.9" y="217.8" width="8.5" height="7.4"/>
									</defs>
									<clipPath id="SVGID_00000107555274762739029730000017174325448535168659_">
										<use xlink:href="#SVGID_00000046320022224512251010000014319922477293969058_"  style="overflow:visible;"/>
									</clipPath>
									<g style="clip-path:url(#SVGID_00000107555274762739029730000017174325448535168659_);">
										<g>
											<g>
												<defs>
													<rect id="SVGID_00000176006135105719351090000013994554090054981775_" x="158.9" y="217.8" width="8.5" height="7.4"/>
												</defs>
												<clipPath id="SVGID_00000082349169080465993510000004338595040389853103_">
													<use xlink:href="#SVGID_00000176006135105719351090000013994554090054981775_"  style="overflow:visible;"/>
												</clipPath>
												<g style="clip-path:url(#SVGID_00000082349169080465993510000004338595040389853103_);">
													<path class="st20" d="M166.9,218.6c-0.5-1.1-2.6-1-5.4,0.4c-1.9,1-2.5,1.7-2.5,3s-0.1,3.2,2.8,3.3s4.2-0.7,5.1-2
														C167.6,221.8,167.7,220.1,166.9,218.6"/>
												</g>
											</g>
										</g>
									</g>
								</g>
							</g>
						</g>
					</g>
				</g>
			</g>
			<path class="st4" d="M118.4,208.5c0,0,13.6,1,14.9,3.2c1.8,3,1.8,9.3,1.8,9.3l-17.9-1.4L118.4,208.5z"/>
			<path class="st4" d="M118.8,210.7c0,0-13.1,3.5-18,6.6s-12.5,10.5-12.5,10.5L97,237c0,0,12.5-15.2,18.3-17.9s5.2-1.2,5.2-1.2
				L118.8,210.7z"/>
			<path class="st22" d="M124.7,178.9c0,0-3.6-4.1-6.8-5.1s-4.8-0.3-4.8-0.3s3.4,4.5,5.8,5.4C120.7,179.5,122.8,179.5,124.7,178.9"
				/>
			<line class="st26" x1="97" y1="235.8" x2="94.3" y2="240.7"/>
			<line class="st26" x1="95.6" y1="233.7" x2="91.4" y2="238.2"/>
			<line class="st26" x1="93.2" y1="230.8" x2="89.2" y2="236.1"/>
			<line class="st26" x1="90.5" y1="229.8" x2="87.5" y2="233.8"/>
			<line class="st26" x1="88.9" y1="227.9" x2="84.7" y2="231.2"/>
			<path class="st20" d="M107.8,246.7c0,0,7.7,3.9,7,5.1s-5.4-0.3-5.4-0.3s3.2,4.1,1.5,4.7c-1.8,0.6-5.7-5.6-5.7-5.6L107.8,246.7z"
				/>
			<path class="st21" d="M133.8,222.1C141,227,150,232,152,237.6c1.5,4.4-4.9,12.9-4.9,12.9l-2.7-3.8c0,0,3.1-4.9,1.9-7.7
				c-1-2.4-8.9-6.4-8.9-6.4L133.8,222.1z"/>
			<path class="st20" d="M144.5,246.7c0,0-7.7,3.9-6.9,5.1s5.4-0.3,5.4-0.3s-3.2,4.1-1.5,4.7c1.8,0.6,5.7-5.6,5.7-5.6L144.5,246.7z"
				/>
			<path class="st19" d="M107.5,274.8c-0.4-0.1-0.3-1.1,0.1-1S107.9,274.8,107.5,274.8 M108.5,277.7c-0.4,0-0.3-1,0.1-1
				S108.9,277.8,108.5,277.7"/>
			<path class="st19" d="M112.2,273.7l-0.1-0.1c-0.2,0.3-0.6,0.3-0.5-0.2s0.4-0.5,0.5-0.4c0.1-0.1,0.2-0.2,0.3-0.2
				C112.7,273,112.5,273.9,112.2,273.7 M108.5,273.1c-0.4-0.1-0.1-1.1,0.2-0.9S108.9,273.2,108.5,273.1 M110.3,276.6
				c-0.4-0.1-0.3-1,0.1-0.9S110.7,276.6,110.3,276.6 M109.2,275.8c-0.4-0.1-0.3-1,0.1-0.9S109.6,275.8,109.2,275.8"/>
			<path class="st19" d="M109.9,280c0.4,0,0.4,0.9,0.1,0.9S109.5,280,109.9,280 M106.8,276.7c-0.4,0-0.3-1,0.1-1
				S107.2,276.7,106.8,276.7 M110.5,273.5c-0.5-0.1-0.2-1.4,0.3-1.2S111,273.6,110.5,273.5 M111,275.5c-0.5-0.1-0.2-1.4,0.3-1.2
				S111.5,275.6,111,275.5 M109.9,274.8c-0.4-0.1-0.2-1,0.2-0.9S110.3,274.9,109.9,274.8"/>
			<path class="st19" d="M106.9,279.7c-0.4,0-0.4-1,0-1S107.3,279.7,106.9,279.7 M108,274.2c0.4,0.1,0.2,1-0.2,1
				S107.6,274.1,108,274.2 M112.1,275.8c0.4,0.1,0.3,0.9-0.1,0.9S111.7,275.7,112.1,275.8"/>
			<path class="st19" d="M109,270.7c-0.4-0.1-0.1-1,0.3-0.9S109.3,270.8,109,270.7 M114.2,273.7c0.2,0.1,0.2,0.3,0.2,0.5v0.2
				c-0.1,0.5-0.7,0.5-0.6,0l0.1-0.2C113.9,274,114,273.7,114.2,273.7 M105.7,273.9c-0.4,0-0.3,1.2,0.1,1.3S106.1,274,105.7,273.9
				 M112.4,277.9c0.4,0,0.3,0.9-0.1,0.9S112.1,277.8,112.4,277.9"/>
			<path class="st19" d="M112.7,281.7c-0.3,0.4-0.7-0.1-0.5-0.5S112.9,281.3,112.7,281.7 M114.4,281.3c0.3-0.4,0.7,0.1,0.5,0.5
				S114.2,281.6,114.4,281.3 M113.5,271.2c-0.3-0.1-0.1-1,0.3-0.8S113.9,271.3,113.5,271.2"/>
			<path class="st19" d="M115,278.9c0.3-0.4,0.7,0.2,0.4,0.5S114.7,279.3,115,278.9 M114.3,280.2c-0.3,0.4-0.7-0.2-0.5-0.5
				S114.5,279.8,114.3,280.2"/>
			<path class="st19" d="M113,274.2c0.4-0.3,0.7,0.3,0.4,0.6S112.7,274.5,113,274.2 M110.1,278.1c0.3-0.4,0.7,0.2,0.4,0.6
				S109.8,278.5,110.1,278.1 M113.2,277.7c0.3-0.4,0.7,0.2,0.4,0.6S112.9,278.1,113.2,277.7"/>
			<path class="st19" d="M117.4,282c-0.3,0.4-0.7-0.1-0.5-0.5S117.7,281.7,117.4,282 M113.3,283.2c-0.3,0.4-0.7-0.1-0.5-0.5
				S113.5,282.8,113.3,283.2 M114.3,276.6c0.3-0.3,0.7,0.2,0.4,0.6S114,277,114.3,276.6 M112.5,277.7c-0.3,0.4-0.7-0.2-0.4-0.6
				S112.8,277.3,112.5,277.7"/>
			<path class="st19" d="M110.8,279.7c0.3-0.4,0.7,0.2,0.5,0.6S110.5,280.1,110.8,279.7 M117.1,274.2c0.1,0,0.2,0.1,0.1,0.3
				c-0.1,0.5-0.7,0.5-0.6,0v-0.1c-0.2-0.1-0.2-0.4-0.1-0.5c0,0,0-0.1,0.1-0.1C116.9,273.5,117.2,273.9,117.1,274.2 M116.6,277.9
				c-0.3,0.3-0.7-0.2-0.4-0.5S116.9,277.5,116.6,277.9"/>
			<path class="st19" d="M111.2,283.4c-0.3,0.4-0.7-0.1-0.5-0.5S111.4,283,111.2,283.4 M118.1,278.6c-0.3,0.3-0.7-0.2-0.4-0.5
				S118.4,278.3,118.1,278.6 M114.8,284.4c-0.3,0.4-0.7-0.1-0.5-0.5S115.1,284,114.8,284.4 M114.6,274.8c0.3-0.3,0.7,0.3,0.4,0.6
				S114.3,275.2,114.6,274.8"/>
			<path class="st19" d="M109.5,277.2c-0.3,0.4-0.7-0.2-0.4-0.6S109.8,276.8,109.5,277.2 M115.1,275.8c0.4-0.3,0.7,0.3,0.3,0.6
				S114.7,276.1,115.1,275.8"/>
			<path class="st19" d="M117.6,275.2c0.1-0.5,0.7-0.5,0.6,0S117.5,275.7,117.6,275.2 M112.9,275.4c0,0.3-0.1,0.7-0.4,0.6
				s-0.2-0.6,0-0.8c0-0.2,0-0.4,0.2-0.5C113.1,274.4,113.4,275,112.9,275.4L112.9,275.4z"/>
			<path class="st19" d="M116.4,274.5c0.1-0.5,0.7-0.5,0.6,0S116.3,275,116.4,274.5 M116.1,273.9c-0.1,0.5-0.7,0.5-0.6,0
				S116.2,273.4,116.1,273.9"/>
			<path class="st19" d="M113.4,271.6c0.2-0.5,0.8-0.5,0.6,0S113.2,272.1,113.4,271.6 M112.5,273.8c0.1-0.5,0.7-0.6,0.6,0
				S112.4,274.4,112.5,273.8 M115.1,273.8c0.1-0.5,0.7-0.5,0.6,0S115,274.3,115.1,273.8 M117.2,273c0.2-0.5,0.8-0.5,0.6,0
				S117,273.5,117.2,273"/>
			<path class="st19" d="M116.5,267.8c0.2-0.5,0.8-0.5,0.6,0.1S116.4,268.3,116.5,267.8 M117.8,270.7c0.2-0.5,0.8-0.5,0.6,0.1
				S117.6,271.2,117.8,270.7 M120,273.6c0.2-0.5,0.8-0.4,0.6,0S119.9,274,120,273.6 M115.6,272c0.2-0.5,0.8-0.5,0.6,0
				S115.5,272.5,115.6,272"/>
			<path class="st19" d="M111.8,270.9c-0.1,0.2-0.2,0.4-0.4,0.3c-0.4-0.1-0.1-1,0.3-0.9l0,0c0.2-0.4,0.7-0.4,0.6,0.1
				C112.2,270.8,112,270.9,111.8,270.9 M114.5,268.6c0.2-0.5,0.8-0.5,0.6,0S114.3,269.1,114.5,268.6 M115.5,276.4
				c0,0.5-0.6,0.6-0.6,0.1S115.6,275.8,115.5,276.4 M119.4,270.1c0.2-0.5,0.8-0.4,0.6,0.1S119.3,270.6,119.4,270.1 M119.1,274.2
				c-0.1,0.5-0.7,0.5-0.6,0S119.2,273.7,119.1,274.2 M115.8,270.5c-0.2,0.5-0.8,0.5-0.6,0S115.9,270,115.8,270.5"/>
			<path class="st27" d="M143.9,206c-0.8,0.9-2,1.3-3.2,1.1c-2.6-0.6-2.4-4.2-2.4-4.2"/>
			<path class="st19" d="M352.2,246.8c0,0-6.4,4-6.9,3.4c-1.9-1.8-6.6-6.4-8.8-7.9c-2.8-2-5.5-3-6.6-3s-5.5,0.6-6-1.8
				c-0.3-1.1,2.4-1.6,2.4-1.6s-2.2-0.6-2.3-1.8c-0.1-2.3,3.5-1.3,3.5-1.3s-2.1-1.7-0.6-3.1c2.1-1.9,3.1,2.5,5.3,5.2
				C335.8,239.4,352.2,246.8,352.2,246.8 M367.4,248.9c0,0,2.8,4.4,4.6,7.3c1.3,2,2,4.4,2.1,6.8c-0.1,1-3,5-1.4,5.9
				c1,0.5,2.6-1.3,2.6-1.3c0.3,1,0.9,1.8,1.6,2.5c1.6,0.9,1.5-3,1.5-3s1.4,3.6,3.6,1.7c1.3-1.1-0.7-4.6-3.4-7.6
				c-3.7-4.3-6.8-13.9-6.8-13.9"/>
			<path class="st19" d="M349.1,231.1c-2.4,6-3.5,10-6.9,24.8c-3.5,14.8-7.4,23.6,0,26.6s20.8,3.2,24.8,2.2c1.1-0.3,2.9-3.6,2.9-12
				s4.3-40,4.3-40l-17.9-14.1C353.2,222.4,350.8,226.6,349.1,231.1"/>
			<path class="st12" d="M365.6,275.5c0,11-4.1,3.9-8.4,3.9s-10,8.4-10-2.6s5.4-39.2,9.8-39.4C364.8,237.3,365.6,264.6,365.6,275.5"
				/>
			<path class="st19" d="M287.8,269.1c8.4,2.7,17.3,3.3,26,1.7c4.3-0.8,10.3-1.9,16.3-0.2c5,1.5,11.6,7.1,11.6,7.1
				s-0.3,12.6-17.7,14.4c-15.2,1.5-34.4-14-40.5-20.6C277.3,264.7,279.8,266.6,287.8,269.1 M361.5,285.4h6.2
				c-0.9,6.5-2.4,12.8-2.4,12.8s11.2-0.3,9.5,1.9s-5.9,0-5.9,0s1.3,2.9,0,3.2s-3-2.5-3-2.5c0.2,1.2-0.7,2.4-1.9,2.5
				c-0.1,0-0.2,0-0.3,0c-2.6,0.3-3.2-1.4-2.5-4.3C361.8,296.4,361.7,287,361.5,285.4"/>
			<path class="st19" d="M339.5,281.7l5.6,3.7l-1.1,12.4c0,0,8.6,2,7.6,3.3s-5.1-0.6-5.1-0.6s3.1,2.4,1.2,2.9s-3.9-1.3-3.9-1.3
				c1,4.4-5.3,1.9-4.3-2L339.5,281.7z"/>
			<path class="st12" d="M286.9,268c8.1,2.8,16.8,3.9,25.3,3.1c-2.5,1.7-6.9,5.2-5.8,5.4c1.6,0.2,8,3.6,6.1,3.3
				c-2.2-0.1-4.5-0.1-6.7,0c0,0,4.8,4.8,4.1,5s-6.8-2.3-6.8-2.3c0,1.3,0,2.5-0.2,3.8c-8.9-5-16.7-11.2-20.1-15.2
				C276.9,264,278.9,265.4,286.9,268"/>
			<path class="st12" d="M286.9,268c8.1,2.8,16.8,3.9,25.3,3.1c-2.5,1.7-6.9,5.2-5.8,5.4c1.6,0.2,8,3.6,6.1,3.3
				c-2.2-0.1-4.5-0.1-6.7,0c0,0,4.8,4.8,4.1,5s-6.8-2.3-6.8-2.3c0,1.3,0,2.5-0.2,3.8c-8.9-5-16.7-11.2-20.1-15.2
				C276.9,264,278.9,265.4,286.9,268"/>
			<g class="st14">
				<g>
					<g>
						<defs>
							<rect id="SVGID_00000136409362621505097820000001027967646960568237_" x="279.3" y="265.7" width="33" height="20.6"/>
						</defs>
						<clipPath id="SVGID_00000152232460218173963410000002283249834626761879_">
							<use xlink:href="#SVGID_00000136409362621505097820000001027967646960568237_"  style="overflow:visible;"/>
						</clipPath>
						<g style="clip-path:url(#SVGID_00000152232460218173963410000002283249834626761879_);">
							<g>
								<g>
									<defs>
										<rect id="SVGID_00000109730992300927462890000018012475435205201593_" x="279.3" y="265.7" width="33" height="20.6"/>
									</defs>
									<clipPath id="SVGID_00000030462015927327781750000017184771230344173492_">
										<use xlink:href="#SVGID_00000109730992300927462890000018012475435205201593_"  style="overflow:visible;"/>
									</clipPath>
									<g style="clip-path:url(#SVGID_00000030462015927327781750000017184771230344173492_);">
										<g>
											<g>
												<defs>
													<rect id="SVGID_00000175315318026834310890000015003223110368278440_" x="279.3" y="265.7" width="33" height="20.6"/>
												</defs>
												<clipPath id="SVGID_00000157306032081357863030000017260629775452438414_">
													<use xlink:href="#SVGID_00000175315318026834310890000015003223110368278440_"  style="overflow:visible;"/>
												</clipPath>
												<g style="clip-path:url(#SVGID_00000157306032081357863030000017260629775452438414_);">
													<path class="st31" d="M302.9,286.2c-8.9-5-16.7-11.2-20.1-15.2c-5.9-7-3.9-5.6,4.1-3c8.1,2.8,16.8,3.9,25.3,3.1"/>
												</g>
											</g>
										</g>
									</g>
								</g>
							</g>
						</g>
					</g>
				</g>
			</g>
			<path class="st32" d="M369.9,281c0.2-1.7,0.6-7.3,0.6-7.3s-16.4-1-21.9-1.8c-3.5-0.6-6.9-1.6-10.1-3.1c0,0-0.9,4.6-1.4,17.5
				c0,1.1-0.1,2.1-0.1,2.1s9.3-0.4,11,0l0.8-2.8l12.2-0.2v3.7l8.2,0.7C369.1,289.8,369.6,283.2,369.9,281"/>
			<path class="st20" d="M365.6,273.8c0,0,3.4-27.1,5.7-32c0.7-1.5,1.6-2.9,2.6-4.1l0.6-2.8c0,0-2-0.1-5.4,5.6
				c-2.9,5-6.5,32.7-6.5,32.7L365.6,273.8z M346.6,271.6c0,0,2.1-22.1,1.5-26.6c-1.1-8.4-2.1-9-2.1-9l1.1-1.4c0,0,2.4,2.1,3.6,10.6
				c0.7,4.9-0.9,26.5-0.9,26.5L346.6,271.6z"/>
			<path class="st33" d="M365.6,275.2l-3.2-0.1l0.1-2l3.2,0.1L365.6,275.2z M349.7,273.7l-3.4-0.4l0.3-2l3.4,0.5L349.7,273.7z"/>
			<path class="st19" d="M371,207.2l-1.5-3.8c1.1-0.5,2.3-1,3.5-1.3c1.8-0.5,5.2-0.2,3.8,0.1s-3.1,3.2-3.1,3.2s1.8,0,2.4,0
				c2,0.1,3.8,0.2,3.8,0.2c-0.9,0.8-1.8,1.4-2.9,1.9c-2,1-2.5,1.3,0,1.3c1.3-0.1,2.6,0.2,3.9,0.7c-0.7,0.3-1.4,0.7-2.1,1.1
				c-0.6,0.4-0.9,1.1-0.7,1.8c0,0,0.1,1.2,0.3,3.2C375.8,212.6,371,207.2,371,207.2"/>
			<path class="st19" d="M372.9,205.7c-2.1-2.7-7-4.6-8.2-5.8c-3.6-4.4-7.5-8.7-11.7-12.7c-2.9-3-1.5,2.9-1.1,6.6
				c0.5,4.3,1.9,10.5,1.9,10.5s1-0.4-3.8,1.8s-4.7,2.7-4.7,2.7s-10.3-5.9-17-7c-2.1-0.3,3.4,8.2,4.7,10.9c1.6,3.2,2.8,6.5,3.6,10
				c-1,1.5-1.9,3-2.6,4.6c-1.1,2.4-1.6,7.2-0.7,5.3s5.3-3.6,5.3-3.6s-0.4,2.5-0.5,3.3c-0.4,2.7-0.6,5.3-0.6,5.3
				c1.3-1,2.4-2.2,3.3-3.5c1.8-2.5,2.5-3.2,1.8,0.3c-0.4,1.8-0.4,3.7,0,5.6c0.6-0.9,1.3-1.8,2-2.6c0.7-0.7,1.7-0.9,2.6-0.6
				c8.8,2.2,17.4,5,25.8,8.4c10.4,4.5,18.3,7.7,23,7.2c3-0.3-8.5-17.4-14.5-29.5C378,215.9,378.9,213.3,372.9,205.7"/>
			<path class="st12" d="M354.8,227.2c-2.8-1.5-3.9-5-2.4-7.8c1.1-2.3,5.2-3.3,7.7-0.7c2.1,2.2,2.5,4.4,1.3,6.7
				S357.4,228.4,354.8,227.2"/>
			<path class="st13" d="M359.9,221.2c-0.4-0.2-1,0-1.2,0.4s0,1,0.4,1.2s1,0,1.2-0.4l0,0C360.5,221.9,360.3,221.4,359.9,221.2"/>
			<path class="st12" d="M379,212.3c0.1-2.6-1.8-4.7-4.3-5.1c-2-0.1-3.8,1.4-3.9,3.4c0,0.4,0,0.9,0.2,1.3c0.8,2.8,2.1,3.7,4,3.9
				C377,215.9,378.8,214.4,379,212.3"/>
			<path class="st13" d="M377.1,210.3c-0.4-0.2-0.9-0.1-1.1,0.3c-0.2,0.3-0.1,0.6,0.1,0.9c0.3,0.3,0.8,0.3,1.1-0.1l0,0
				C377.5,211.1,377.4,210.6,377.1,210.3"/>
			<path class="st12" d="M338.3,215.9c0,0-4.5-7.9-3.7-7.5s8.2,3,8.2,3s-2.1,2.1-2.7,2.7L338.3,215.9 M356.8,203.3
				c0,0-1.7-8.9-1-8.3s6.1,6.3,6.1,6.3L356.8,203.3z M365.8,238.7c-6-2.2-8.4-2.2-13.3-0.5c4,1,7.9,2.2,11.6,3.7
				c2.4,1,10.7,3.8,11.6,4.4C374.6,243.4,369.4,240,365.8,238.7"/>
			<path class="st20" d="M388.1,251.2c5.1,1.4,9.9,2.5,8.6-0.7c-1.7-3.8-3.7-7.5-6-11.1c0,0-6.6,7.2-7.8,10.1
				C382.9,249.5,386.6,250.8,388.1,251.2"/>
			<path class="st21" d="M252.4,261.1c1.9,1,0.3,2.8,3.5,7.9c1.6,2.5,0.2,0.4,1.4,1.6c0.3,0.8-0.1,1.8-0.9,2.1
				c-0.6,0.2-1.2,0.1-1.6-0.3c-0.3-0.2,0.8,0.6-1.5-2.6s-3.7-5.7-2.9-7.5C250.7,261.8,251.9,260.9,252.4,261.1"/>
			<path class="st34" d="M256,274.1c0.1,0.6,0.1,1.3,0,1.9c-0.4-0.4-0.7-0.9-1-1.4L256,274.1z M257.5,273.1c0.1,0.7,0.2,1.5,0.2,2.2
				c-0.4-0.5-0.8-1-1.1-1.6L257.5,273.1z M258.9,272.1c0.3,0.5,0.5,1,0.7,1.6c-0.1,0-1.5-1-1.5-1L258.9,272.1z"/>
			<path class="st21" d="M256.6,270.2c0.9-0.1,2.2,1.2,2.5,1.6s-4,3-4.1,2.6c-0.3-0.9-0.3-1.9-0.1-2.9
				C255.1,270.9,255.8,270.3,256.6,270.2"/>
			
				<pattern  id="SVGID_00000038388768330831015560000007045434948193812367_" xlink:href="#SVGID_0000006865409449860082860" patternTransform="matrix(-0.41 0.3 -0.3 -0.41 -34961.1992 -8603.3193)">
			</pattern>
			<path style="fill:url(#SVGID_00000038388768330831015560000007045434948193812367_);" d="M250.1,265l4.3-1.7
				c-1.4-3.2-2.6-6.5-3.5-9.9c-0.2-1.2-2.7-1.9-5.2,0C245.3,253.7,250.1,265,250.1,265"/>
			<path class="st34" d="M249.9,290.5c0,0,1.7,1.6,1.6,1.6l-2.2-0.6L249.9,290.5z"/>
			<path class="st34" d="M247.7,293.2c0,0,1.4,1.4,1.3,1.4c-0.7-0.1-1.3-0.3-2-0.5L247.7,293.2z M248.9,292c0.5,0.4,1,0.8,1.5,1.2
				c-0.1,0-2.4-0.5-2.4-0.5L248.9,292z"/>
			<path class="st22" d="M246.1,280.5l-0.1,9.1c0,0,4.5,0.3,4.2,1.2s-3.1,3.5-3.1,3.5s-3.4-1.3-3.4-2.8c0-1.2-0.2-10.1-0.5-12.2
				C243.1,278.7,246.1,280.5,246.1,280.5"/>
			<path class="st21" d="M230.2,276.4c-2.9,5.4-7,10.1-12.1,13.7c-6.6,4.4-14.4,3-14.4,3s6.6,4.2,15.5,0.1
				c11-5.1,15.4-15.6,15.4-15.6L230.2,276.4z"/>
			<path class="st21" d="M246.3,245.8l3.5,0.4c0,0,0.2,10.8-0.5,21c-0.2,3.9-0.6,13-2.1,14.5c-4.4,4.3-16.1,2.9-18.5-0.3
				c-1.2-1.5,0.3-9.3,4.9-18.6c4.4-8.9,8.6-16.1,8.6-16.1L246.3,245.8z"/>
			<path class="st34" d="M227.1,294.2c-0.1,0.6-0.2,1.3-0.4,1.9c-0.3-0.6-0.5-1.2-0.8-1.9H227.1z M228.9,294.2
				c0,0.7-0.1,1.4-0.2,2.1c-0.1-0.1-1-2.2-1-2.2L228.9,294.2z M230.5,294.1c0,0,0,2.4-0.1,2.2l-1.1-2L230.5,294.1z"/>
			<path class="st21" d="M224.6,201.6c-0.8,2.1-0.2,4.8,2.9,5.3c2.4,0.4,4.8-0.2,5.6-2.2s-0.3-3.4-2.9-5.3
				C228.1,197.9,225.3,199.5,224.6,201.6 M236.1,283.1c0,0-2,4-2.8,4.8s-3.9,2.7-3.9,2.7s1.9,3.3,1.1,3.7s-4.7-0.1-4.7-0.1
				s-0.5-3,0.6-4c1.8-1.1,3.4-2.5,4.7-4.1c1.6-2,0.8-4.8,1.5-5.6C233,280.1,236.1,283.1,236.1,283.1"/>
			<path class="st22" d="M230.7,204.6c0.8-0.6,0.8-1.4-0.2-2.4c-0.8-0.8-1.9-1.2-2.7-0.5c-0.8,0.5-1,1.6-0.5,2.4
				c0.1,0.2,0.3,0.4,0.5,0.5C228.7,205.4,229.9,205.4,230.7,204.6"/>
			<g>
				<g>
					<g>
						<defs>
							<rect id="SVGID_00000116198511511460679520000018118324490515466408_" x="272.1" y="214.6" width="6" height="2.1"/>
						</defs>
						<clipPath id="SVGID_00000014627224760720316170000013647686883201496506_">
							<use xlink:href="#SVGID_00000116198511511460679520000018118324490515466408_"  style="overflow:visible;"/>
						</clipPath>
						<g style="clip-path:url(#SVGID_00000014627224760720316170000013647686883201496506_);">
							<g>
								<g>
									<defs>
										<rect id="SVGID_00000143615416015923748870000003340316563102569641_" x="272.1" y="214.6" width="6" height="2.1"/>
									</defs>
									<clipPath id="SVGID_00000010990559446388943680000005849538672698983328_">
										<use xlink:href="#SVGID_00000143615416015923748870000003340316563102569641_"  style="overflow:visible;"/>
									</clipPath>
									<g style="clip-path:url(#SVGID_00000010990559446388943680000005849538672698983328_);">
										<g>
											<g>
												<defs>
													<rect id="SVGID_00000181053799467157704650000003460251487073390253_" x="272.1" y="214.6" width="6" height="2.1"/>
												</defs>
												<clipPath id="SVGID_00000078006149254957322110000001211054209402262157_">
													<use xlink:href="#SVGID_00000181053799467157704650000003460251487073390253_"  style="overflow:visible;"/>
												</clipPath>
												<g style="clip-path:url(#SVGID_00000078006149254957322110000001211054209402262157_);">
													<line class="st39" x1="272.5" y1="216.4" x2="277.7" y2="215.1"/>
												</g>
											</g>
										</g>
									</g>
								</g>
							</g>
						</g>
					</g>
				</g>
			</g>
			<g>
				<g>
					<g>
						<defs>
							<rect id="SVGID_00000151520386502252776600000000929342225195488393_" x="272.1" y="218.9" width="7.1" height="1"/>
						</defs>
						<clipPath id="SVGID_00000049902558222706763020000016787830350145744043_">
							<use xlink:href="#SVGID_00000151520386502252776600000000929342225195488393_"  style="overflow:visible;"/>
						</clipPath>
						<g style="clip-path:url(#SVGID_00000049902558222706763020000016787830350145744043_);">
							<g>
								<g>
									<defs>
										<rect id="SVGID_00000112619950620778722040000005277802921676660383_" x="272.1" y="218.9" width="7.1" height="1"/>
									</defs>
									<clipPath id="SVGID_00000109708312655050826840000015594664965963122055_">
										<use xlink:href="#SVGID_00000112619950620778722040000005277802921676660383_"  style="overflow:visible;"/>
									</clipPath>
									<g style="clip-path:url(#SVGID_00000109708312655050826840000015594664965963122055_);">
										<g>
											<g>
												<defs>
													<rect id="SVGID_00000134952516238434978290000005205682687505409962_" x="272.1" y="218.9" width="7.1" height="1"/>
												</defs>
												<clipPath id="SVGID_00000034091329842328114910000002378651898692165013_">
													<use xlink:href="#SVGID_00000134952516238434978290000005205682687505409962_"  style="overflow:visible;"/>
												</clipPath>
												<g style="clip-path:url(#SVGID_00000034091329842328114910000002378651898692165013_);">
													<line class="st39" x1="272.6" y1="219.3" x2="278.9" y2="219.5"/>
												</g>
											</g>
										</g>
									</g>
								</g>
							</g>
						</g>
					</g>
				</g>
			</g>
			<g>
				<g>
					<g>
						<defs>
							<rect id="SVGID_00000116940327525225679160000010521871350446009480_" x="271.6" y="221.2" width="6" height="3.4"/>
						</defs>
						<clipPath id="SVGID_00000164509546111105886620000003661585937115964343_">
							<use xlink:href="#SVGID_00000116940327525225679160000010521871350446009480_"  style="overflow:visible;"/>
						</clipPath>
						<g style="clip-path:url(#SVGID_00000164509546111105886620000003661585937115964343_);">
							<g>
								<g>
									<defs>
										<rect id="SVGID_00000171699754431724526740000017653800766921164460_" x="271.6" y="221.2" width="6" height="3.4"/>
									</defs>
									<clipPath id="SVGID_00000062179174295839816990000017013280932452214706_">
										<use xlink:href="#SVGID_00000171699754431724526740000017653800766921164460_"  style="overflow:visible;"/>
									</clipPath>
									<g style="clip-path:url(#SVGID_00000062179174295839816990000017013280932452214706_);">
										<g>
											<g>
												<defs>
													<rect id="SVGID_00000047745208185947744100000000405927763112853427_" x="271.6" y="221.2" width="6" height="3.4"/>
												</defs>
												<clipPath id="SVGID_00000130633832945216605320000007738010321938514056_">
													<use xlink:href="#SVGID_00000047745208185947744100000000405927763112853427_"  style="overflow:visible;"/>
												</clipPath>
												<g style="clip-path:url(#SVGID_00000130633832945216605320000007738010321938514056_);">
													<line class="st39" x1="272" y1="221.6" x2="277.2" y2="224.1"/>
												</g>
											</g>
										</g>
									</g>
								</g>
							</g>
						</g>
					</g>
				</g>
			</g>
			<path class="st21" d="M262,201.1c0.4,2,1.8,2.8,4.5,1.8c2.2-0.8,3.9-2.5,3.3-4.5c-0.9-3-3.4-3.7-5.4-2.5
				C261.9,197.4,261.6,199,262,201.1"/>
			<path class="st22" d="M263.7,200.5c0.2,0.9,0.8,1.3,2.1,0.8c1-0.4,1.8-1.2,1.5-2.1c-0.1-0.9-0.9-1.5-1.8-1.4
				c-0.2,0-0.5,0.1-0.7,0.2C263.9,198.5,263.5,199.5,263.7,200.5"/>
			<path class="st21" d="M249.3,249.4l1.9-4c0.1-2.7,5.1-6.7,11.4-12.2c4.3-3.8,12.2-9,11.8-17.2c-0.1-3.1-2.3-7.4-5.4-11.6
				c-6.6-9-11.7-9.2-20.7-8.6s-16.2,4.2-19.2,11.7c-5.7,14.6,4.4,23.2,7.8,26.9c5,5.5,3.9,11.1,3.9,11.1L249.3,249.4z"/>
			<g>
				<g>
					<defs>
						<path id="SVGID_00000175291657161735854470000016378523716034290093_" d="M248.3,195.8c-8.9,0.6-16.2,4.2-19.1,11.7
							c-5.7,14.6,4.4,23.2,7.8,26.9c5,5.5,3.9,11.1,3.9,11.1l8.5,3.8l1.9-4c0.1-2.7,5.1-6.7,11.4-12.2c4.3-3.8,12.2-9.1,11.8-17.2
							c-0.1-3.1-2.3-7.4-5.4-11.6c-5.3-7.2-9.7-8.8-15.8-8.8C251.7,195.6,250,195.7,248.3,195.8"/>
					</defs>
					<clipPath id="SVGID_00000048490351277175063070000003325597184786489479_">
						<use xlink:href="#SVGID_00000175291657161735854470000016378523716034290093_"  style="overflow:visible;"/>
					</clipPath>
					<g style="clip-path:url(#SVGID_00000048490351277175063070000003325597184786489479_);">
						<path class="st12" d="M247.8,248.2c0.4,0.5,1.6-1.1,1.1-1.6S247.3,247.7,247.8,248.2 M255.4,249.2c0.7,0.6,1.9-1.7,1.2-2.2
							S254.7,248.6,255.4,249.2 M252.6,251.2c0.7,0.6,1.9-1.7,1.2-2.2S251.9,250.6,252.6,251.2 M253.2,242.8c0.6-0.1,0.6-2,0-2
							S252.6,242.8,253.2,242.8"/>
						<path class="st12" d="M255.9,250c0.6,0.4-0.6,2.5-1.1,2.1S255.3,249.6,255.9,250 M251.3,246.9c-0.5-0.5-1.4,0.8-0.9,1.3
							S251.8,247.4,251.3,246.9"/>
						<path class="st12" d="M247.9,243.9c-0.1-0.9-1.1-0.3-1,0.6S248.1,244.8,247.9,243.9 M254.5,244.4c0.5,0.4,1.3-1.3,0.7-1.6
							S254,244,254.5,244.4 M257.2,247.9c0.6,0.4,1.4-1.4,0.8-1.7S256.8,247.6,257.2,247.9 M251.2,245.1c-0.3-0.2-0.6,0.1-0.8,0.5
							l-0.2,0.3c-0.5,0.9,0.1,1.9,0.6,0.9l0.1-0.3C251.3,246.1,251.6,245.4,251.2,245.1"/>
						<path class="st12" d="M244.7,250.4c0.1-1.5-1.5-1.2-1.6,0.2S244.6,251.9,244.7,250.4 M246.1,247.8c0.1-1-1-0.8-1,0.1
							S246.1,248.8,246.1,247.8 M252.7,244.9c0.4,0.7,1.2-0.4,0.7-1.2S252.3,244.2,252.7,244.9 M249.3,249.1c-0.2,1,0.9,0.9,1.1,0
							S249.5,248.1,249.3,249.1"/>
						<path class="st12" d="M246.5,250.7c0.1-1.6-1.7-1.3-1.8,0.4S246.4,252.4,246.5,250.7 M251.4,250.2c0.1-1.6-1.7-1.3-1.8,0.4
							S251.2,251.9,251.4,250.2"/>
						<path class="st12" d="M252.6,245.3c0-1-1.1-0.6-1.1,0.3S252.5,246.3,252.6,245.3 M248.5,250.6c0.1-1.1-1-0.8-1.1,0.3
							S248.4,251.7,248.5,250.6 M245.7,249.4c-0.2-1-1.3-0.6-1,0.5S245.9,250.4,245.7,249.4"/>
						<path class="st12" d="M247.2,249.2c0.1-1-1-0.8-1.1,0.2S247.1,250.2,247.2,249.2 M248.9,247.9c-0.1,1,1,0.8,1.1-0.2
							S249,246.9,248.9,247.9"/>
						<path class="st12" d="M252,248.3c0.2-1-1-0.9-1.2,0.1S251.8,249.3,252,248.3 M247.2,245.7c0.2,0.9,1.1,0.3,1-0.5
							S247.1,244.8,247.2,245.7 M243.4,248.9c-0.2,1.1,1,1.1,1.3,0S243.6,247.8,243.4,248.9 M247.3,249.2c-0.2,1,0.9,1,1.1,0
							S247.5,248.2,247.3,249.2"/>
						<path class="st12" d="M252.2,246.5c-0.4,0.2-0.9,0.9-0.6,1.3s1.1-0.2,1.1-0.8c0.3-0.1,0.5-0.4,0.6-0.8c0.2-1-0.9-0.9-1.1,0.1
							V246.5z M247.7,246.5c0-1-1.1-0.6-1,0.4S247.7,247.5,247.7,246.5 M248,250.1c-0.3,1.3,1.1,1.2,1.4-0.1S248.3,248.8,248,250.1
							 M249.1,246.1c0.1-0.9-1.1-0.7-1.1,0.3S249,247.1,249.1,246.1"/>
						<path class="st12" d="M248.8,243.9c-0.5,0.9,0.1,1.9,0.6,1S249.3,243.1,248.8,243.9"/>
						<path class="st12" d="M254.9,246.5c0.5-1-0.1-1.9-0.6-1S254.3,247.4,254.9,246.5 M250,245.3c0.5-0.9-0.1-1.8-0.7-0.9
							S249.5,246.3,250,245.3"/>
						<path class="st12" d="M251.1,244.1c0.4-1-0.2-1.9-0.7-0.9S250.7,245.1,251.1,244.1"/>
						<path class="st12" d="M246.4,247.4c-0.6,0.8,0,1.8,0.6,1S247,246.6,246.4,247.4 M251.7,242.8c-0.4,1,0.2,1.9,0.7,0.9
							S252.2,241.8,251.7,242.8"/>
						<path class="st12" d="M256.1,245.6c-0.2,0.4-0.2,0.9,0,1.1c0.5,0.4,1.3-1.3,0.7-1.7l0,0c0.3-0.9-0.3-1.6-0.8-0.6
							C255.8,244.7,255.8,245.2,256.1,245.6 M254.7,242.7c0.5-1-0.2-1.9-0.7-0.8S254.2,243.7,254.7,242.7 M245.7,245.6
							c-0.4,0.7,0.1,1.5,0.6,0.8S246.2,244.9,245.7,245.6"/>
						<path class="st21" d="M256.1,240.4l-1,1.1c0.1-0.9,0.4-1.7,0.9-2.4c0.7-1,1.4-2,1.9-3.1c0.4-1.5-1.3-0.2-2.6,1.2
							c-0.8,0.9-1.4,1.8-2.1,2.8c0.1-1,0.3-2,0.7-3c0.5-1.1,0.9-2.2,1.2-3.4c0.1-1.6-2.7,0.8-3.9,3.5c-0.8,1.7-1.4,3.3-1.4,3.3
							c-0.1-0.7-0.2-1.3-0.2-2c0.1-1.1,0.5-2.2,0-2.5s-1.7,1.5-2.3,3.2s-1.1,3.5-1.1,3.5s-0.4-0.3-0.5-1.9c0-0.7,0.1-2-0.4-2.4
							s-1.5,2-0.8,5.5c-0.1-0.2-1.1-2.3-1.2-2.5c-0.9-1.3-1-1.4-1.5-1.5s2.1,6.2,2.1,6.2l0.2,3.9l11.1,0.6l0.8-5.6
							c0.3-1.7,0.9-3.3,1.6-4.8C258.8,238.1,257.2,239.2,256.1,240.4"/>
					</g>
				</g>
			</g>
			<path class="st12" d="M251.1,206.1c2.6,1.4,3.6,4.7,2.2,7.3c-1.2,2.2-3.9,3.1-6.1,1.9c-0.5-0.3-0.9-0.6-1.3-1
				c-1.9-1.9-2-4.8-0.3-6.9C246.7,205.6,249.2,205,251.1,206.1"/>
			<path class="st13" d="M251.2,211.3c0.4,0.2,0.9,0,1.1-0.4l0,0c0.2-0.4,0.1-0.9-0.4-1.1l0,0c-0.4-0.2-0.9,0-1.1,0.4
				C250.6,210.5,250.8,211.1,251.2,211.3"/>
			<path class="st12" d="M274.5,219.5c0.5-5.1-3.6-1.4-5.9-1.2c-4.9,0.3-20.9,5.9-29.4,19.4c1.2,3,1.5,11.1,1.5,11.1l7.1,8.6
				l1.8-8.2l1.6-3.9C254.4,237.2,272.5,228.6,274.5,219.5 M272.3,205c2.2,1.2,3.1,4,1.9,6.2c-1,1.9-3.4,2.5-5.3,1.5
				c-0.3-0.1-0.5-0.3-0.7-0.5c-1.7-1.6-1.9-4.2-0.5-6C268.7,204.6,270.7,204.1,272.3,205"/>
			<line class="st39" x1="246.7" y1="218.5" x2="241.3" y2="218.6"/>
			<line class="st39" x1="247.4" y1="221.3" x2="241.4" y2="223.2"/>
			<line class="st39" x1="248.6" y1="223.4" x2="244.3" y2="227.2"/>
			<path class="st20" d="M273,215.1c-2.2-0.8-7.7-0.4-9.2,1.6s1.1,5.7,2.4,6.9c2.1,2,4,2,6.1-0.4C276,218.9,275.2,215.9,273,215.1"
				/>
			<path class="st20" d="M255.2,225.5c0,0,4.1,4.7,7.6,3c-0.7,1.6-2.8,3.6-5.1,2.9C254.3,230.5,255.2,225.5,255.2,225.5"/>
			<path class="st13" d="M272.6,209.3c0.4,0.2,0.8,0,1-0.3l0,0c0.2-0.4,0-0.8-0.3-1s-0.8,0-1,0.3
				C272.1,208.7,272.2,209.1,272.6,209.3L272.6,209.3"/>
			<path class="st31" d="M269.3,204.8c1-0.3,2.1-0.3,3,0.2c2.2,1.2,3.1,4,1.9,6.2c-0.2,0.4-0.4,0.7-0.7,0.9"/>
			<path class="st31" d="M250.8,246.4c3.5-9.1,19-15.8,23-25"/>
			<path class="st31" d="M239.2,237.7c0.9,2.3,1.2,6,1.4,8.9"/>
			
				<pattern  id="SVGID_00000077306004269875328070000018361737339508199315_" xlink:href="#SVGID_0000017530109755120081278" patternTransform="matrix(0.5 -7.000000e-02 -7.000000e-02 -0.5 -15868.5615 -11877.3086)">
			</pattern>
			<path style="fill:url(#SVGID_00000077306004269875328070000018361737339508199315_);" d="M251.4,253c0.2,6.5-0.5,10.5-0.6,15.8
				c-0.2,2.7-0.5,5.4-0.9,8.1c-3,0.4-6.1,0.6-9.2,0.5c-4.1,0-8.3-0.4-12.4-1.1c0,0,1.4-4.6,3.9-10.8c2.8-7,7.3-14.8,7.4-17.4
				c0-1.1,0.1-3.3,0.1-3.3l9.4,1.5l0.3,3.8l1.2-3.7l1.4,0.3c-0.3,0.9-0.6,1.9-0.8,2.8C251.1,250.7,251.2,251.8,251.4,253"/>
			<g>
				<g>
					<defs>
						<path id="SVGID_00000011740226708898258970000009310581128873481378_" d="M239.5,248.1c-0.1,2.6-4.6,10.3-7.4,17.4
							c-2.5,6.3-3.9,10.8-3.9,10.8c4.1,0.7,8.2,1.1,12.4,1.1c3.1,0.1,6.1-0.1,9.2-0.5c0.5-2.7,0.8-5.4,0.9-8.1
							c0.1-5.3,0.8-9.2,0.6-15.8c-0.2-1.2-0.3-2.3-0.2-3.5c0.2-1,0.5-1.9,0.8-2.8l-1.4-0.3l-1.2,3.7l-0.3-3.8l-9.4-1.5
							C239.6,244.8,239.5,247,239.5,248.1"/>
					</defs>
					<clipPath id="SVGID_00000172420160154713417260000012697067001259814529_">
						<use xlink:href="#SVGID_00000011740226708898258970000009310581128873481378_"  style="overflow:visible;"/>
					</clipPath>
					<g style="clip-path:url(#SVGID_00000172420160154713417260000012697067001259814529_);">
						<path class="st20" d="M248.1,245.4c0,0,0.6,4.6,0.6,4.7c0.1,0.4-0.9,11.8-0.9,11.8h1c0,0,0.9-11.1,1-11.6l1.7-4.1L248.1,245.4
							z"/>
					</g>
				</g>
			</g>
			<polygon class="st20" points="251.3,252.5 249.3,251 249.8,250.3 251.8,251.6 			"/>
			<path class="st21" d="M232.8,245.7c-0.1-2.1-2.4-1.3-5.9-6.3c-1.7-2.5-0.3-0.3-0.9-1.9c-0.6-0.6-1.7-0.6-2.3,0
				c-0.4,0.4-0.6,1-0.4,1.6c0.1,0.4-0.2-0.9,1.8,2.4s3.7,5.7,5.7,5.6C231.4,247,232.8,246.3,232.8,245.7"/>
			<path class="st34" d="M223.8,236.2c-0.6-0.4-1.3-0.7-1.9-1.1c0.3,0.6,0.6,1.1,1,1.6L223.8,236.2z M225.3,235.4
				c-0.3-0.4-0.7-0.9-1.1-1.2c0,0.1,0.3,1.7,0.3,1.7L225.3,235.4z"/>
			<path class="st34" d="M222.3,237.2c-0.6-0.3-1.1-0.5-1.7-0.7c0.3,0.5,0.6,1,0.9,1.5L222.3,237.2z"/>
			<path class="st21" d="M226,238.3c0.4-0.8-0.2-2.5-0.5-2.9s-4.3,2.5-4,2.8c0.8,0.6,1.7,1,2.6,1.2
				C224.9,239.3,225.7,238.9,226,238.3"/>
			
				<pattern  id="SVGID_00000064356348202571025570000004363075332065161094_" xlink:href="#SVGID_0000008521917473513656501" patternTransform="matrix(-0.43 0.26 0.26 0.43 -40652.9023 -2577.1006)">
			</pattern>
			<path style="fill:url(#SVGID_00000064356348202571025570000004363075332065161094_);" d="M228.3,246.2l3.2-3.3
				c2.4,2.5,5,4.9,7.7,7.1c1,0.7,0.6,3.2-2,4.8C236.8,255.1,228.3,246.2,228.3,246.2"/>
			<path class="st4" d="M419,298.4c10.4-9.2,18.3-20.7,23.2-33.7c0.3-1.1,0.9-2,1.8-2.6c0.7-0.3,1.4-0.4,2.1-0.4l35-0.5
				c5.3,8.9,11.1,17.7,18.6,25s16.7,13,27,14.8"/>
			<path class="st50" d="M419.5,298.8c7.3-6.5,13.4-14.1,18.1-22.6c1.2-2.2,2.3-4.4,3.3-6.7c0.4-0.9,0.8-1.9,1.2-2.8
				c0.4-1.3,0.9-2.5,1.6-3.6c0.9-1.1,2.6-0.8,3.9-0.9l4.5-0.1l9-0.1l20-0.3l-0.5-0.3c8.4,14.1,18.4,28.2,33.4,35.8
				c3.9,2,8.2,3.4,12.5,4.2c0.8,0.1,1.1-1.1,0.3-1.2c-16.1-2.9-28.5-14.7-37.6-27.6c-2.7-3.8-5.2-7.8-7.6-11.8
				c-0.1-0.2-0.3-0.3-0.5-0.3l-18.5,0.3l-9,0.1l-4.5,0.1c-1.4-0.1-2.8,0-4.2,0.1c-2.2,0.4-2.9,2.3-3.6,4.2c-0.9,2.4-2,4.7-3.1,7
				c-2.2,4.5-4.9,8.8-7.9,12.8c-3.5,4.7-7.4,8.9-11.8,12.8C418,298.4,418.9,299.3,419.5,298.8L419.5,298.8z"/>
		</g>
	</g>
</g>
</svg>
