<?xml version="1.0" encoding="utf-8"?>
<!-- Generator: Adobe Illustrator 26.2.1, SVG Export Plug-In . SVG Version: 6.00 Build 0)  -->
<svg version="1.1" id="Capa_1" xmlns="http://www.w3.org/2000/svg" xmlns:xlink="http://www.w3.org/1999/xlink" x="0px" y="0px"
	 viewBox="0 0 671.5 381.9" style="enable-background:new 0 0 671.5 381.9;" xml:space="preserve">
<style type="text/css">
	.st0{fill:#007572;}
	.st1{fill:#2FAC66;}
	.st2{fill:#FFDE00;}
	.st3{fill:#FBBA00;}
	.st4{fill:#F3A5C2;}
	.st5{fill:#9C6297;}
	.st6{fill:#A4659E;}
	.st7{fill:#B780B1;}
	.st8{opacity:0.5;}
	.st9{clip-path:url(#SVGID_00000114041347180536242820000002751001249026437248_);}
	.st10{clip-path:url(#SVGID_00000066512747008169143040000000328163449071676294_);}
	.st11{clip-path:url(#SVGID_00000084532381006854618370000017295685022553853852_);}
	.st12{fill:#FFFFFF;}
	.st13{fill:#1D1D1B;}
	.st14{fill:#F39200;}
	.st15{fill:none;stroke:#1D1D1B;stroke-width:0.88;stroke-linecap:round;}
	.st16{fill:#E30613;}
	.st17{fill:#B91919;}
	.st18{fill:#FAFAFA;}
</style>
<g id="Capa_2_00000075156826305134296430000013402811913248245131_">
	<g id="Capa_1-2">
		<path class="st0" d="M563.6,324.4c68-9,115.9-71.5,106.9-139.5c-0.4-2.7-0.8-5.3-1.3-8c-3.5-17.3-10.7-34-22.1-47.5
			c-16.1-19.1-39.5-30.9-63.6-37.7s-49.1-9.3-73.9-12.8C432.7,67.7,262,6.5,162.4,40.7C106.7,59.9,44,82.5,8.9,162.3
			c-15.1,34.4-7.1,78.1-3.4,92.9c4.6,18.3,18.6,37,30.7,51.4C43.3,315,53,320.9,63,325.7c62.9,30.6,136.5,24.2,206.5,21.4
			c99.2-4,199.5,0.6,296.7-19.9"/>
		<path class="st1" d="M199.4,315.4c172.4-7.3,281.3-13.7,430.4,4.7c27.8,3.4,31,16.7,22,30.8c-14.6,12.9-24,15.2-32.4,16.4
			c-199.8,30.5-329.5,4.8-544.4-3.6c-2.2-0.1-46.2-4.8-59.3-15.1c-7-5.5-6.6-17,0.5-22.4s16.8-5.5,25.8-5.3
			c39.2,0.5,78.5-1.1,117.5-4.8"/>
		<polygon class="st2" points="166.6,196.6 169.4,188 178.5,188 171.2,182.6 174,174 166.6,179.3 159.3,174 162.1,182.6 154.7,188 
			163.8,188 		"/>
		<polygon class="st3" points="76.7,249.5 79.7,240.4 89.2,240.4 81.5,234.8 84.4,225.7 76.7,231.4 69,225.7 71.9,234.8 64.2,240.4 
			73.8,240.4 		"/>
		<polygon class="st2" points="296.9,175.5 290.8,175.5 295.8,171.9 293.9,166 298.9,169.6 303.8,166 301.9,171.9 306.9,175.5 
			300.8,175.5 298.9,181.4 		"/>
		<polygon class="st2" points="372,84.5 365.8,84.5 370.8,80.9 368.9,75 373.9,78.7 378.9,75 377,80.9 381.9,84.5 375.8,84.5 
			373.9,90.4 		"/>
		<polygon class="st3" points="198.4,67.2 200.4,61.3 206.5,61.3 201.5,57.7 203.4,51.8 198.4,55.5 193.5,51.8 195.4,57.7 
			190.4,61.3 196.5,61.3 		"/>
		<polygon class="st2" points="293.5,22.6 296.3,14 305.4,14 298.1,8.6 300.9,0 293.5,5.3 286.2,0 289,8.6 281.6,14 290.7,14 		"/>
		<path class="st4" d="M258.6,334.2c0,0,3.6,0.3,3.8,0.3s-2.5-1.4-2.5-1.4L258.6,334.2z M287.2,333.2c1,0.1,2.1,0.2,3.1,0.1
			c-0.7-0.6-1.4-1.2-2.2-1.6L287.2,333.2z M288.3,330.7c0,0,3.5-0.7,3.6-0.8c-1-0.3-2.1-0.6-3.1-0.8L288.3,330.7z M289.2,328.3
			c0,0,2.6-1.8,2.8-1.9s-2.5,0.4-2.5,0.4L289.2,328.3z"/>
		<path class="st4" d="M254.1,336.4c0.7,0.7,1.5,1.4,2.3,2.1c-0.2-0.9-0.4-1.8-0.7-2.7L254.1,336.4z M256.7,335.2
			c0,0,3.1,1.7,3.3,1.7c-0.6-0.9-1.2-1.8-1.9-2.6L256.7,335.2z"/>
		<path class="st5" d="M250.1,309.6c0,0-9.4,8-18.6,9.2c-7.8,1-21.4-1.6-21.4-1.6s11.8,7.5,22.3,6.6c7.1-0.7,14-2.9,20.2-6.4
			c1.1-0.5,2.3-1,3.5-1.3L250.1,309.6z"/>
		<path class="st6" d="M232.5,323.9c-1.3-1.7-2.4-3.4-3.4-5.2c1.5,0,3-0.3,4.5-0.4c1.3,1.7,2.8,3.3,4.3,4.9
			C236.1,323.4,234.2,323.8,232.5,323.9"/>
		<path class="st7" d="M237.2,323.5c-1.4-1.8-2.8-3.6-3.9-5.6c1.3-0.2,3.8-0.9,5.1-1.3c1.5,2,3.1,3.9,4.7,5.6
			C241.2,322.8,239.2,323.2,237.2,323.5"/>
		<path class="st6" d="M243.5,313.5c1.8,2.4,3.7,4.8,5.7,7c-2.2,0.9-4.5,1.7-6.8,2.1c-1.7-2-3.4-4.2-4.8-6.4
			C239.6,315.5,241.6,314.6,243.5,313.5"/>
		<path class="st7" d="M243.1,313c2.2-1.2,4.2-2.6,6.1-4.1c1.6,2.5,5.4,5.4,6.9,7.1c0.6,0.9-5,3.8-7.5,4.8
			C247.2,319.2,244.7,315.4,243.1,313"/>
		<path class="st5" d="M285.7,308.1c-2.1,9.7-3.3,14.6-15.5,14.6c-17.9,0-19.8-11.7-19.8-11.7L285.7,308.1z"/>
		<path class="st7" d="M288.5,302.5c0,0-6.7,5.2-22.4,6.9c-5.9,0.5-11.9,0.3-17.9-0.5l-1.5-4.1c0,0,11.3,1.5,21.8-0.8
			c7.1-1.4,13.8-4.1,19.9-8v6.5H288.5z"/>
		<path class="st6" d="M286.4,309.3c0,0-5,4.1-20.7,4.1c-5.1,0-10.3-0.5-15.3-1.5l-1.4-3c6.5,0.6,13.1,0.5,19.6-0.2
			c12.4-1.3,18.6-5.4,18.6-5.4L286.4,309.3z"/>
		<path class="st6" d="M289.8,295.5c0,0-7.2,7.3-24.7,9.5c-8.6,1.1-19.2-0.4-19.2-0.4l-0.9-5.4c7.7,0.5,15.3,0,22.9-1.5
			c13.6-2.9,21.7-8.6,21.7-8.6L289.8,295.5z"/>
		<path class="st5" d="M287.8,271.4c0,0-4.6,1.8-4,2.7s2.1,3.3,6.5,5.8c2.8,1.5,5.8,2.6,8.9,3.2c0.7,0.6,1.2,1.3,1.6,2.1
			c1.2,2.3,2.7,2.9,4.1,3c3.1,0.3,3-2.1,3-2.1s-4.2-0.4-3.8-1.5c1.3-3.1,2-5,2-5c-1-0.2-1.9-0.3-2.9-0.3c-0.9,0.1-1.8,0.3-2.6,0.6
			c-2.3-0.4-4.5-1.1-6.6-2C291.5,276.6,287.8,271.3,287.8,271.4 M270.4,232.7c-1.3-2.2-2.5-4.4-3.5-6.8c-1.7-4-1.8-11.6-1.5-14.1
			s6.7,3.4,10.2,9.1s0.1,10.3,0.1,10.9L270.4,232.7z"/>
		<path class="st5" d="M260.6,256l5,4.3l12.6,4.4c0,0,10.3,0.6,10.3,0.8c0,2,0.9,16.4,0.9,16.4s-11.6,7.1-22.4,10
			c-7.7,1.9-15.7,2.1-23.4,0.5c0,0,0-15.9,10.4-28.2C256.4,261.5,258.6,258.8,260.6,256"/>
		<path class="st7" d="M260.4,248.2c-0.6-4.2,0.6-8.4,3.4-11.6c3.3-3.4,7.5-8.3,15.2-7.8c4.9,0.3,15.6,5.9,21.3,7.8
			c20.5,6.9,38.2,4.9,32.4,9.6c-6,4.8-44.6,15.8-44.6,18v1.1l-10,1.2l-13.9-4.3l-5-5.1C260.1,255.2,260.7,250.3,260.4,248.2"/>
		<g class="st8">
			<g>
				<g>
					<defs>
						<rect id="SVGID_1_" x="319.5" y="179.8" width="225.2" height="147.5"/>
					</defs>
					<clipPath id="SVGID_00000020375368193500909560000001322981315707124149_">
						<use xlink:href="#SVGID_1_"  style="overflow:visible;"/>
					</clipPath>
					<g style="clip-path:url(#SVGID_00000020375368193500909560000001322981315707124149_);">
						<g>
							<g>
								<defs>
									<rect id="SVGID_00000010273769778073025680000002721190257581639351_" x="319.5" y="179.8" width="225.2" height="147.5"/>
								</defs>
								<clipPath id="SVGID_00000130626614056762455090000008122644087535775115_">
									<use xlink:href="#SVGID_00000010273769778073025680000002721190257581639351_"  style="overflow:visible;"/>
								</clipPath>
								<g style="clip-path:url(#SVGID_00000130626614056762455090000008122644087535775115_);">
									<g>
										<g>
											<defs>
												
													<rect id="SVGID_00000012441761466552006330000000029552023667271588_" x="319.5" y="179.8" width="225.2" height="147.5"/>
											</defs>
											<clipPath id="SVGID_00000000912072037187519350000013404960007921768883_">
												<use xlink:href="#SVGID_00000012441761466552006330000000029552023667271588_"  style="overflow:visible;"/>
											</clipPath>
											<g style="clip-path:url(#SVGID_00000000912072037187519350000013404960007921768883_);">
												<polygon class="st2" points="320.8,286.7 544.7,327.2 544.7,179.8 319.5,277.6 												"/>
											</g>
										</g>
									</g>
								</g>
							</g>
						</g>
					</g>
				</g>
			</g>
		</g>
		<path class="st4" d="M305.4,281.1c1.1-0.1,2.1-0.3,3.2-0.6c-0.9-0.4-1.9-0.8-2.9-1.1L305.4,281.1z"/>
		<path class="st5" d="M278.8,320.9l2.5-2.8l3.1,10.9c0,0,5.4-3.2,5.2-1.8s-1.9,6.2-1.9,6.2s-5.4,1.6-5.7-0.7
			S278.8,320.8,278.8,320.9"/>
		<path class="st7" d="M266.6,237.4c0,0-5-7.7-12.3-8.6s-15-0.4-14.1,1.4s1.5,4.9,7.9,8.6s16.5,3.6,16.5,3.6L266.6,237.4z"/>
		<path class="st5" d="M258.4,314.4l3.5,2.3c0,0-0.6,5.9-1.4,7.7s-4.6,6.2-4.6,6.2s5.1,1.9,4.1,2.8s-6,3.4-6,3.4s-3.7-3.5-2.5-5.4
			c0.6-1,4.2-4.3,5.9-8.3c1.1-2.7,1.6-5.6,1.7-8.6"/>
		<path class="st4" d="M265.6,239.4c0,0-4.3-3.8-7.7-4.3s-4.9,0.3-4.9,0.3s4.1,4.1,6.7,4.7C261.7,240.5,263.8,240.2,265.6,239.4"/>
		<path class="st12" d="M279.1,239.6c-0.8,3.3,1,6.7,4.2,7.9c2.6,0.7,5.2-0.9,5.9-3.5c0.1-0.5,0.2-1.1,0.1-1.6
			c-0.1-3.1-1.7-5.2-4.2-6s-5.1,0.5-5.9,3C279.2,239.5,279.2,239.5,279.1,239.6"/>
		<path class="st13" d="M287.4,242c-0.1,0.5-0.7,0.8-1.2,0.7s-0.8-0.7-0.7-1.2c0.1-0.5,0.7-0.8,1.2-0.7h0.1
			C287.2,241,287.5,241.5,287.4,242"/>
		<path class="st4" d="M327.3,242.1c6.2,1,9.1,1.7,6.2,4c-1.9,1.3-4,2.4-6.1,3.3C327.1,246.9,327.1,244.5,327.3,242.1"/>
		<path class="st14" d="M295,242.6c0,4.1-3.2,8.6-9.9,9.2c-6.9,0.6-17-9.2-17-9.2s8.3-9,16.5-9.8C290.4,232.3,295,237.2,295,242.6
			 M284.7,235c-3.5,0-9.6,5.2-12.2,7.8c1.6,2,7.8,6.6,11.8,6.6c4.5,0,8.6-2.6,8.6-6.8C292.7,238.3,289.1,234.9,284.7,235"/>
		<path class="st14" d="M291.9,237.4c1-0.6,3.9-2.5,4.5-2.8l-2.2-1.2c-0.7,0.4-3,1.8-3.4,2.1L291.9,237.4z"/>
		<path class="st7" d="M290.4,289.1c0,0-7.6,6.2-25.5,9.8c-8.4,1.7-20.8,0.5-20.8,0.5l-0.4-8.2c0,0,12.6,1.2,24.1-1.4
			c15.8-3.6,22.3-9.1,22.3-9.1L290.4,289.1z"/>
		<path class="st12" d="M288.5,264.3c-5.5,0.5-11,0.4-16.5-0.5c-5.2-1-9.9-3.9-13.1-8.2c0,0-3.6-0.1-3.8,1.5c-0.3,2,1.7,3.1,4.8,2.4
			c0,0-3.6,2-0.8,4.2c2.5,1.9,4.7-0.6,4.7-0.6s-1,2.8,1.6,4s4-1.8,4-1.8s0.3,3.9,2.2,3.7s3-2.5,3-2.5s0,3.7,2.5,3.4s2.2-3.1,2.2-3.1
			s1.5,3.5,3.6,2.9s1.6-3.2,1.6-3.2s3.1,3.8,4.7,1.9S288.5,264.2,288.5,264.3"/>
		<path class="st15" d="M291.4,257.4c0,0-0.1,0.5-2.2,0c-1.2-0.2-2.1-1.1-2.2-2.2"/>
		<path class="st16" d="M263.3,283.2c12.2-1.3,20-2.6,20-2.6s3,27,2.4,27.7s-7.9,3-19.9,4.1s-18.3,0.8-18.7-0.1s-2.4-28.2-2.4-28.2
			S254,284.2,263.3,283.2"/>
		<path class="st17" d="M283.3,280.6c-6.4-0.1-12.9,0.2-19.3,1c-10.6,1-19.3,2.6-19.3,2.6s12.2,0,19.1-0.7S283.3,280.6,283.3,280.6"
			/>
		<path class="st4" d="M270,294.8c0,0-0.1,3-0.2,3.1c-0.5-0.8-1-1.6-1.4-2.4L270,294.8z M266,295.7c0,0-1,3.4-1.1,3.5
			c-0.4-1.1-0.6-2.1-0.9-3.2L266,295.7z M263.1,296.1c0,0-2.3,2.8-2.4,2.9s0.5-2.8,0.5-2.8L263.1,296.1z"/>
		<path class="st6" d="M267.6,275.9c-1.2,1.7-3,5.6-3,8.5c0.1,2.3,0.5,4.6,1.2,6.8c1.1,0.6,2.1,1.4,3,2.3c0.7,0.7,1.5,1.7,1.5,1.7
			c-2.3,0.6-4.6,1.1-7,1.3c-0.7,0.1-1.5,0-2.2-0.2c-0.3-0.8-0.3-1.7,0.1-2.5c0.6-1.3,1.1-2.4,1.1-2.4c-0.9-3.1-1.2-6.2-1.1-9.4
			c0.2-5,1.6-7.5,2.2-8.4C265.9,270,269.2,273.7,267.6,275.9"/>
		<path class="st1" d="M298.9,284.3c0,0.9,0.4,1.7,0.9,2.4c0,0,8.6-0.9,12.5-1.1c0.6,0,1-0.2,2.2,1.1c1.5,1.6,6.2,0,6.2,0l-1.3-9.1
			c0,0-5.2,0.1-6,1.7s-2,1.4-2,1.4l-12.4,1.4C298.9,282.8,298.8,283.6,298.9,284.3"/>
		<path class="st12" d="M320.8,286.7c0.7-1.4,0.9-3.1,0.7-4.7c-0.2-1.6-0.9-3.2-2-4.4L320.8,286.7z"/>
		<path class="st4" d="M305.1,286.5c0.3-0.5,0.5-1.1,0.7-1.7l-2.6,1.7H305.1z"/>
		<path class="st4" d="M307.3,286.7c0.4-0.7,0.7-1.5,1-2.2c-0.2,0.1-2.8,2-2.8,2L307.3,286.7z"/>
		<path class="st17" d="M259,277.7c1.2-4.8,2.8-6.8,4.6-7s5.5-0.6,8.4,14.6c-1.1,0.2-2.2,0.3-3.3,0.4c0,0-0.7-7.3-1.4-9.4
			c-0.3-0.9-1.3-4.3-3.4-3.6c-1.9,0.6-2.9,13.8-2.9,13.8l-3.2,0.2C257.8,283.7,258.3,280.7,259,277.7"/>
		<path class="st3" d="M258.7,285.2c0-0.4,0.3-0.7,0.7-0.7c0.4,0,0.7,0.3,0.7,0.7c0,0.4-0.3,0.7-0.7,0.7
			C259,285.9,258.7,285.6,258.7,285.2 M269.6,284.2c0-0.4,0.3-0.7,0.7-0.7c0.4,0,0.7,0.3,0.7,0.7c0,0.4-0.3,0.7-0.7,0.7l0,0
			C269.9,284.9,269.6,284.6,269.6,284.2L269.6,284.2"/>
		<path class="st18" d="M107.4,107.3c0,14.7,9.3,27.7,23.1,32.6c-18,6.3-37.7-3.2-44-21.1s3.2-37.7,21.1-44c7.4-2.6,15.4-2.6,22.8,0
			C116.7,79.6,107.4,92.7,107.4,107.3"/>
		<polygon class="st2" points="275.4,92.2 269.2,92.2 274.2,88.6 272.3,82.7 277.2,86.3 282.2,82.7 280.3,88.6 285.3,92.2 
			279.1,92.2 277.2,98.1 		"/>
		<polygon class="st2" points="450.4,116.8 444.2,116.8 449.2,113.2 447.3,107.3 452.3,111 457.3,107.3 455.4,113.2 460.3,116.8 
			454.2,116.8 452.3,122.7 		"/>
		<polygon class="st2" points="416.7,41.6 407.1,41.6 414.8,36 411.9,26.9 419.6,32.5 427.3,26.9 424.4,36 432.1,41.6 422.6,41.6 
			419.6,50.7 		"/>
		<polygon class="st2" points="555.5,130.1 545.9,130.1 553.7,124.4 550.7,115.4 558.5,121 566.2,115.4 563.2,124.4 571,130.1 
			561.4,130.1 558.5,139.1 		"/>
	</g>
</g>
<path class="st14" d="M367.7,141.7c0,0-1.2,20.7-9.9,47.1c-6.6,20.1-24.9,51.3-24.9,51.3s18.6-13.8,33.3-44.5
	c14.3-29.9,15.1-49.9,15.1-49.9L367.7,141.7z"/>
<path class="st14" d="M239.1,153.7c0.4,22,3.5,43.4,29.5,49c53.1,10.9,109.5,6.8,153.8,0.7c40.7-5.7,37.6-103.7,4.1-109
	c-43.8-7.1-99-3-140.3-0.9C249.2,95.5,238.3,115.1,239.1,153.7"/>
</svg>
