<svg xmlns="http://www.w3.org/2000/svg" xmlns:xlink="http://www.w3.org/1999/xlink" viewBox="0 0 185.37 135.1"><defs><style>.cls-1,.cls-20,.cls-22{fill:none;}.cls-2{clip-path:url(#clip-path);}.cls-3{fill:#538a58;}.cls-4{fill:#6eaa6f;}.cls-5{fill:#765236;}.cls-6{fill:#8e6243;}.cls-7{fill:#6a4720;}.cls-8{fill:#eeca1a;}.cls-9{fill:#6f4714;}.cls-10{fill:#bf0811;}.cls-11{fill:#fff;}.cls-12{fill:#db9600;}.cls-13{fill:#945b19;}.cls-14{fill:#905d2b;}.cls-15{fill:#d7d7ce;}.cls-16{fill:#61a0a2;}.cls-17{fill:#111419;}.cls-18{fill:#fbfcfc;}.cls-19{fill:#211915;}.cls-20{stroke:#211915;stroke-linecap:round;stroke-linejoin:round;stroke-width:0.28px;}.cls-21{fill:#74b3b0;}.cls-22{stroke:#d7d7ce;stroke-width:0.94px;}</style><clipPath id="clip-path"><rect class="cls-1" x="0.47" y="0.47" width="184.43" height="134.16"/></clipPath></defs><g id="Capa_2" data-name="Capa 2"><g id="Capa_1-2" data-name="Capa 1"><g class="cls-2"><path class="cls-3" d="M174.27,28c3.57,2.82,5.18,5.46,7.47,9.68,0,0,.88,1.48.61,2a28,28,0,0,1-8.74-2.24,10.33,10.33,0,0,0-3.08-4.26l1.19,3.68-8.15-1.73-4.19-2.63.33,2.69-8.65-.36c7.78-7.22,14.06-4.54,14.06-4.54l-2-2.71c8.78-2.83,11.17,3.46,11.17,3.46a2.66,2.66,0,0,0,0-3"/><path class="cls-3" d="M184.38,38.4a45,45,0,0,0,.44-5c0-.21,0-.41.05-.61a17.79,17.79,0,0,1,4.78-10.1,8.6,8.6,0,0,0,1.25,3.57c-1.59-8.06,6.8-13.5,6.8-13.5l-.09,4.43c2-7.59,8.8-8.39,15.2-9.76l-7.27,6.32-3.34.32,1.32,2.35-5.61,5.78-3.95.38,1.86,1.53c-2.16,5-5.91,11.36-10,14.64a5.12,5.12,0,0,1-1.39-.34"/><path class="cls-4" d="M184.53,40.73l-.1,0a2,2,0,0,0-.85,0,2.39,2.39,0,0,0-1.05.43c.1-.3-2.87-12.14-5.31-15.2,5.61-4.66-.05-1.86-.05-1.86l-2.85-2.93c3.86-3.1-1.12-2.25-1.12-2.25l-6-8.33,8.86,3.33a10.38,10.38,0,0,1,2,4.68,5.24,5.24,0,0,0-.41-4.23c2.39,1,4.37,2.3,5.28,4.42a25.27,25.27,0,0,1-.15,9.14l1.51-4.15a30.71,30.71,0,0,1,.55,9c0,.2-.41,7.78-.34,7.95"/><path class="cls-3" d="M111.17,29.41s7.77,4.13,12.28,11.4c.25.4,1.79,2.57,2,3L124,42.86a11.72,11.72,0,0,0-1.48-.21L107,35.15l1.56-1.26a5,5,0,0,0-5-.13l-7.12-1.14,1.32-2.27-4.22,2.34-6.24-1.85a36.34,36.34,0,0,1,11.22-3.51l4,3.78-1.33-4.22a9.35,9.35,0,0,1,7.32,1.45L111,32Z"/><path class="cls-4" d="M124.15,42c-.22-.41-.45-.81-.7-1.21A48.24,48.24,0,0,1,120.87,28l2.78,2.14a13.89,13.89,0,0,1-2.08-10.65l2.7,2.84-2.14-4.54A30.6,30.6,0,0,1,128,5.14l.92,7.88-2.14,3.72,2.46,1L128.94,25l-1.83,2.65,1.83.75a23.78,23.78,0,0,1-2.14,10l-1.13,5.8c-.48.05-1.52-2.2-1.52-2.2"/><path class="cls-3" d="M129.19,40.52h0a4,4,0,0,0-2.06-.88,47.18,47.18,0,0,1,5-11.57l1.71,3,.94-5.48,8-4.1-.32,3.41,2.64-2.84s8.48,1.5,12.19,6.24c.41.52-4.06.88-4.06.88l-4.28-3.59,1.33,3.15-7.76,2.65-5.36-1.64,2.4,3a33.06,33.06,0,0,0-10.34,7.71"/><path class="cls-4" d="M125.06,46.87c-1.54,1.06-6.6,3.47-6.6,3.47l-.74-2.46L116,52.64,111.53,55l-1.11-3.42-2.53,6.1-4.54,4-.52-2.54-.75,4.1-4,3.79c-.38-5.52.68-10.09,3.42-13.51l.74,2.9c.37-5.11,7.52-9.6,7.52-9.6l3.35,1.43-1.64-2.8c3.92-1.94,7.65-3.11,11.05-2.85a11.72,11.72,0,0,1,1.48.21l1.1.22c.5.37,2,2.41,0,3.79"/><path class="cls-5" d="M179.85,56.11c.23-.67,4.19-11.77,8.62-17.93-1.6-1.75-3.91-2.88-6.69.22a99.48,99.48,0,0,0-12.1,29.05c-2.14,6.84-3.74,26.28-3.81,27.74q4.59-.25,9.09-.1l.18-3.4s-.78-20,4.71-35.58"/><path class="cls-6" d="M178.22,44.62a7.81,7.81,0,0,1,5.68,1.64l0,0c1-1.95,3.67-6.69,4.81-8.59-.32-.3-5.2-2-5.19-2.13a90.14,90.14,0,0,0-5.35,9"/><path class="cls-6" d="M166.26,90.32c2.7-.59,8.89.72,8.89.72l.06-7.07c-2.93-1.71-5.53-2.44-8.05-2-.37,2.88-.68,5.31-.9,8.36"/><path class="cls-6" d="M168.17,74.42c2.35-.63,7.6,1.44,7.6,1.44.38-2.18.61-4.36.91-6.89s-4.45-2-7-1.52a61.06,61.06,0,0,0-1.51,7"/><path class="cls-6" d="M172.48,57.9A7.42,7.42,0,0,1,178.63,60c.81-2.62,1.64-5.12,2.64-7.63-2.15-1.41-4-2.17-5.8-2a75.45,75.45,0,0,0-3,7.52"/><path class="cls-5" d="M137.67,59.9c-.36-.62-6.33-10.78-11.83-16,0-3.89,2.63-5.74,6.61-1a99.73,99.73,0,0,1,17.34,26.27c3.38,6.31,8.61,25.11,9,26.52q-4.55.63-9,1.61L149,94S146,74.2,137.67,59.9"/><path class="cls-6" d="M137.11,48.31A7.8,7.8,0,0,0,131.84,51l-.05,0c-1.31-1.74-4.85-5.89-6.33-7.54.26-.35,4.74-2.92,4.7-3.07a91.37,91.37,0,0,1,7,7.89"/><path class="cls-7" d="M128,43a2.17,2.17,0,0,1,.78,1.68,2.2,2.2,0,0,1-2.19,2.19,2,2,0,0,1-.73-.13,2.19,2.19,0,0,1-1.46-2.06,2.21,2.21,0,0,1,.69-1.6,2.13,2.13,0,0,1,1.23-.57A3.11,3.11,0,0,1,128,43Z"/><path class="cls-7" d="M182.28,38.2a2.09,2.09,0,0,1,.81-.5,5.74,5.74,0,0,1,.79-.15,2.3,2.3,0,0,1,1.61,1.07,1.58,1.58,0,0,1,.16.35,2,2,0,0,1-1.28,2.56,1.36,1.36,0,0,1-.32.08,2,2,0,0,1-2.23-1.35,2,2,0,0,1,.46-2Z"/><path class="cls-7" d="M129.26,40.81a2.19,2.19,0,0,1-1.6,2.11,1.94,1.94,0,0,1-.42.07h-.18a2.19,2.19,0,0,1-.23-4.36l.23,0a2.19,2.19,0,0,1,2.16,1.82,2.33,2.33,0,0,1,0,.37"/><path class="cls-7" d="M185.18,37.83a2.26,2.26,0,0,1-1.18.78,2.55,2.55,0,0,1-.61.08,2.24,2.24,0,0,1-1.92-1.15,2.28,2.28,0,0,1-.21-.51,2.22,2.22,0,0,1,.62-2.2,2.13,2.13,0,0,1,1-.54,2.69,2.69,0,0,1,.74-.07,2.23,2.23,0,0,1,1.61,3.61"/><path class="cls-6" d="M157.58,91.46c-2.76-.08-8.6,2.5-8.6,2.5l-1.52-7.57c2.56-2.23,5-3.43,7.53-3.48.91,2.76,1.81,5.6,2.59,8.55"/><path class="cls-6" d="M152.58,75.69c-2.43-.18-7.19,2.84-7.19,2.84-.79-2.07-1.42-4.16-2.19-6.59s4-2.82,6.6-2.81a63.49,63.49,0,0,1,2.78,6.56"/><path class="cls-6" d="M145.25,60.27a7.46,7.46,0,0,0-5.66,3.2c-1.28-2.42-2.57-4.72-4-7,1.84-1.78,3.49-2.87,5.32-3a74,74,0,0,1,4.36,6.82"/><path class="cls-7" d="M132.78,42a2,2,0,0,1-2.12,2.23,2.19,2.19,0,0,1-2.21-1.52c-.46-1.8,1.86-4.1,3.72-2.27a3.47,3.47,0,0,1,.61,1.56"/><path class="cls-8" d="M228.14,121.55c-7.86-8-17.7-26.36-27.57-29.92-2.29-.82-4.61-1.65-7-2.33a90.47,90.47,0,0,0-25-3.48,169.25,169.25,0,0,0-17.79,1.71c-19.26,3.55-33.44,12.91-47.13,34Z"/><path class="cls-7" d="M48.53,82.88l-2.25.27h-.06c-.07-2.08-7.08-47-7.19-49,.73-.12.75-.19,1.45-.3.16,2.08,7.93,46.95,8.05,49.06"/><path class="cls-8" d="M48.81,84.81l-2.37.33s-.2-1.49-.22-2l2.29-.41c.11.79.27,1.59.3,2.13"/><path class="cls-9" d="M19,66.54s1.88,3.49.43,3.66S19,66.54,19,66.54"/><path class="cls-9" d="M70.56,35.25c0-.11-1.38-4.39-1.38-4.39l-.29,3.63c0,.36-.08.8-.06,1a.87.87,0,0,0,.78.76l.61-.17a.86.86,0,0,0,.34-.8"/><path class="cls-7" d="M77,87.55l-2.72.52s-4.44-45.73-4.6-49.22l.85-.2C70.8,42,76.8,84.1,77,87.55"/><path class="cls-10" d="M78.56,40.31a21.26,21.26,0,0,1,1.87,11.88l-5.26,1.19h0a11.92,11.92,0,0,0-2.41-12h0Z"/><path class="cls-11" d="M72,54.1l-3,.68a14.84,14.84,0,0,0-2.8-12.1l6.54-1.26h0a11.92,11.92,0,0,1,2.41,12h0l-1.73.39Z"/><path class="cls-10" d="M66.22,42.68A14.84,14.84,0,0,1,69,54.78L62.35,56.3c2.34-3.65,1.37-8-1.31-12.62Z"/><path class="cls-7" d="M39.48,26.4l.18.93-.93.18c0-.31-.09-.61-.14-.91v0a1,1,0,0,0,.45,0,.92.92,0,0,0,.43-.21"/><path class="cls-7" d="M61.43,43.56a.51.51,0,0,1-.39.58.5.5,0,0,1-.53-.46.48.48,0,0,1,.39-.57.5.5,0,0,1,.53.45"/><path class="cls-7" d="M60,61.31a.54.54,0,1,1-1.06.14.6.6,0,0,1,.45-.7.59.59,0,0,1,.61.56"/><path class="cls-7" d="M30.52,58.9a.61.61,0,0,1-.41.68l-.11,0a.63.63,0,0,1-.71-.55.64.64,0,0,1,.54-.71.62.62,0,0,1,.69.55"/><path class="cls-7" d="M29.57,41.61a.52.52,0,0,1-.29.53l-.13,0h0a.51.51,0,0,1-.55-.44.5.5,0,0,1,.33-.54l.1,0a.5.5,0,0,1,.55.43"/><path class="cls-9" d="M19.92,70.05l2.15,20.28-1.66-.4s-1.3-19-1.42-19.69Z"/><path class="cls-8" d="M22.06,89.35l.29,2.24-1.3.09-.75,0-.17-2.13a7.86,7.86,0,0,1,1.93-.25"/><path class="cls-12" d="M65.38,92.21l1.89-.31c2.34-.41,4.68-.85,7-1.34L76.75,90l.34-.08a72.58,72.58,0,0,0,8.22-2.31,26.51,26.51,0,0,0,3.92-1.76,19.87,19.87,0,0,0,3.48-2.49c1.06-.91,2.13-2.19,3.43-2.74a3.53,3.53,0,0,1,3.18,0,2.74,2.74,0,0,1,1.21,2.53A2.83,2.83,0,0,1,99,85.41a1.55,1.55,0,0,1-1.31.1.88.88,0,0,1-.52-.87.89.89,0,0,1,.59-.67,2.14,2.14,0,0,0,.58-.35.63.63,0,0,0,.08-.78c-.53-.82-1.84-.24-2.44.24-1,.76-1.8,1.65-2.77,2.4a25,25,0,0,1-3.1,2.07C72.31,95.62,33,99.31,8.13,99.3,8,97,7.91,95.12,7.78,92.77c0-.19,0-.18.12-.2s.49,0,.74,0l3.08-.21,8-.54,1.32-.09,1.3-.09,6.07-.41a2.89,2.89,0,0,1,.66-.05s.06,0,.08,0,.13.32.17.39L31,95.32c.11.25.08.27.4.32a12.43,12.43,0,0,0,2.2,0h.1c1.57,0,3.15-.15,4.72-.26,3.22-.22,6.43-.52,9.64-.86,5.8-.61,11.58-1.36,17.34-2.31"/><path class="cls-13" d="M90.1,87.55c-2.8,8.65-4.24,14.47-8.68,22.22A29.05,29.05,0,0,1,59,124.88c-13.68,1.84-34.6,4.85-40.11-2.43h0c-4.91-5.86-7.71-13.71-8.83-23.14,22-.57,62.21-3.68,80-11.76"/><path class="cls-10" d="M83.65,57.46q5.61,9.06.41,18.13l-7.25,1.57c3-6.24,2.51-12.3-1.2-18.21Z"/><path class="cls-14" d="M75.61,59,68,60.44l-8,1.49-.45.08h0a.65.65,0,0,0-.17-1.26h0L61,60.44l11.44-2.12,1.6-.29,9.33-1.73a.73.73,0,0,1,.24,1.25Z"/><path class="cls-14" d="M78.36,39.86a.64.64,0,0,1,.2,1L72.76,42l-6.54,1.22-5.18,1h0a.51.51,0,0,0,.39-.58.5.5,0,0,0-.53-.45l9.21-1.71,1-.18Z"/><path class="cls-15" d="M75.48,97.33a3.18,3.18,0,1,1-3.17,3.18,3.17,3.17,0,0,1,3.17-3.18"/><path class="cls-11" d="M76.29,77.28l-2.33.5-6.5,1.41c3.08-5.94,3-12.25.57-18.82L75.61,59c3.71,5.9,4.2,12,1.2,18.2Z"/><path class="cls-16" d="M75.48,98.74a1.77,1.77,0,1,1-1.77,1.77,1.77,1.77,0,0,1,1.77-1.77"/><path class="cls-10" d="M70.68,39.14h-.07c-.24,0-.52.06-.8.11-2.43.35-6.09,1.07-8.78-.82,3.3.12,5.19-1.48,8.28-2.2l1-.24c.13,1,.25,2.09.36,3.14"/><path class="cls-10" d="M68,60.37c2.42,6.57,2.51,12.88-.57,18.82L59,81c2.31-4.59,3.35-8.92,2.94-13h0A16.72,16.72,0,0,0,60,61.86Z"/><path class="cls-9" d="M64.38,84.79l1,7.42c-5.76,1-11.54,1.7-17.34,2.31-3.21.34-6.42.64-9.64.86-1.57.11-3.15.21-4.72.26h0l-.53-7.91,31-2.92Z"/><path class="cls-12" d="M64.35,84.54l0,.25-.2,0-31,2.92L33,86.09a1.75,1.75,0,0,1,1.55-1.85L39,83.75a.22.22,0,0,1,.23.17c.19,1.77,3.08,1.42,3.08,1.42l5.7-.53,2.35-.23,12.54-1.17a1.32,1.32,0,0,1,1.43,1.13"/><path class="cls-14" d="M43.24,56.48c-2.27.47-4.55,1-6.83,1.52q-3.15.73-6.3,1.59h0a.61.61,0,0,0,.41-.68.63.63,0,0,0-.69-.55h0C34.56,57.08,39.3,56,44.05,55l1.64-.33c3.49-.7,7-1.34,10.46-2,.63.29.72.71.28,1.24q-3.24.57-6.51,1.18c-2.22.41-4.45.84-6.68,1.31"/><path class="cls-14" d="M50.82,36q.8.33.24,1c-1.77.36-3.55.72-5.33,1.1s-3.31.71-5,1.09c-2,.46-4,.94-6,1.46-1.4.36-2.81.74-4.22,1.14-.42.11-.83.24-1.25.36a.52.52,0,0,0,.29-.53.5.5,0,0,0-.55-.43l-.1,0v0C33.06,40,37.21,39,41.36,38l1.21-.27c2.75-.61,5.49-1.18,8.25-1.75"/><path class="cls-15" d="M47.91,100.82A3.17,3.17,0,1,1,44.73,104a3.17,3.17,0,0,1,3.18-3.17"/><rect class="cls-15" x="43.82" y="88.82" width="3.67" height="3.25" transform="translate(-5.83 3.19) rotate(-3.76)"/><rect class="cls-15" x="37.93" y="89.3" width="2.84" height="3.25" transform="translate(-5.84 2.76) rotate(-3.74)"/><path class="cls-17" d="M41,34.84c-.51-2.49-1.35-7.6-1.35-7.6s-10.43,1.84-15.89,1.09L27.64,32,24,35.28c6.15.95,14.29-.44,15.88-.39Z"/><path class="cls-10" d="M49.28,76.13c1.32-6.36,1.54-13.61-1.63-20.53,2.23-.47,5.67-1.27,7.9-1.68,3.62,6.48,4.48,15.16.91,20.18-1.18.23-7.18,2-7.18,2"/><path class="cls-10" d="M49.94,37a15.31,15.31,0,0,1,1.35,13.9L45.57,52s1.69-8.63-1.85-13.64c1.66-.39,5-1.11,6.69-1.46"/><path class="cls-18" d="M44,38.28c2.48,4.17,2.72,9,1.58,13.7l-6.64,1.55A20.1,20.1,0,0,0,37.11,40c2-.52,4.88-1.3,6.88-1.76"/><path class="cls-10" d="M38.72,57.46c3,6.46,2.67,13.44.65,20.74-2.62.73-6.34,1.62-9.31,2.45a31.74,31.74,0,0,0,0-21.05h.05q3.15-.86,6.3-1.59"/><path class="cls-10" d="M37.11,40a20.1,20.1,0,0,1,1.82,13.49h0L32,55.22a15.64,15.64,0,0,0-1.47-13.39c1.41-.4,5.18-1.42,6.58-1.79"/><path class="cls-18" d="M47.65,55.6c4.93,8.53,1.63,20.53,1.63,20.53-1.68.33-8.11,1.56-9.91,2.07,2-7.3,2.3-14.28-.65-20.74,2.51-.66,6.4-1.36,8.93-1.86"/><path class="cls-19" d="M34.06,30.67a.5.5,0,0,1,.53.45.49.49,0,0,1-1,.08.5.5,0,0,1,.45-.53"/><path class="cls-19" d="M32.71,30.79a.49.49,0,1,1,.08,1,.48.48,0,0,1-.53-.44.49.49,0,0,1,.45-.53"/><path class="cls-15" d="M19.18,102.85A3.18,3.18,0,1,1,16,106a3.17,3.17,0,0,1,3.18-3.17"/><path class="cls-10" d="M19.23,74.2c-2.88-.44-7.12,1.31-9.61-.72,5.3.15,7.1-3.06,10.3-3.43l.47,4.51a3.93,3.93,0,0,0-1.16-.36"/><path class="cls-8" d="M77.09,89.93l-.34.08-2.47.55L74.13,88,77,87.55c0,.79.08,1.58.11,2.38"/><path class="cls-16" d="M21,106a1.78,1.78,0,1,1-1.77-1.77A1.78,1.78,0,0,1,21,106"/><path class="cls-16" d="M49.68,104a1.78,1.78,0,1,1-1.77-1.77A1.77,1.77,0,0,1,49.68,104"/><path class="cls-9" d="M39.75,25.71a.92.92,0,0,0-.11-.29l-1.53-4-.09,4A4.27,4.27,0,0,0,38,26a.89.89,0,0,0,.56.67.88.88,0,0,0,.46,0,.91.91,0,0,0,.42-.2.9.9,0,0,0,.28-.81"/><path class="cls-20" d="M34.59,31.12a.49.49,0,0,1-1,.08.49.49,0,0,1,1-.08Z"/><path class="cls-20" d="M33.45,32.26a.15.15,0,0,1-.29,0,.16.16,0,0,1,.14-.16A.16.16,0,0,1,33.45,32.26Z"/><path class="cls-20" d="M34.16,32.22a.14.14,0,0,1-.13.15.15.15,0,0,1,0-.29A.15.15,0,0,1,34.16,32.22Z"/><path class="cls-20" d="M33.24,31.23a.49.49,0,0,1-.45.53.48.48,0,0,1-.53-.44.49.49,0,0,1,1-.09Z"/><path class="cls-11" d="M36.09,32.79c1.39-1,1.59.65.7.62.22.38,0,.59-.27.6a.62.62,0,0,1-.6-.77l-1.49-.56.09-.15a1.17,1.17,0,0,0,.21-.3l.08-.09Z"/><path class="cls-11" d="M31.53,30.72a1.12,1.12,0,0,1,.39-.82,1.67,1.67,0,0,1,1-.43,2.15,2.15,0,0,1,2.07.7,2.6,2.6,0,0,1-.06,2.09s-.6.75-.78.91a1.45,1.45,0,0,1-1.3.15c-.46-.21-1.07-1.5-1.2-1.92a1.77,1.77,0,0,1-.11-.68"/><path class="cls-19" d="M34.51,30.75a.43.43,0,0,1,0,.59.49.49,0,0,1-.64,0,.51.51,0,0,1,.08-.65.45.45,0,0,1,.61.08"/><path class="cls-11" d="M33,32.71v.07l-1.8,1.06c-.37,1.46-1.14.83-.86.18-1.3.12-.66-1.91.52-.75l1.68-1a4,4,0,0,0,.33.42Z"/><path class="cls-19" d="M32.52,30.64c.16,0,.34.12.36.45a.37.37,0,0,1-.39.4.49.49,0,0,1-.41-.42c0-.37.28-.42.44-.43"/><path class="cls-11" d="M31.82,31.4l-.15.11-1.24-.7c-1.39.37-1.13-.69-.52-.73-.64-1.21,1.31-1,.86.3l.76.34c0,.23.22.46.29.68"/><path class="cls-19" d="M33.26,32.18a.09.09,0,0,1-.07.09.08.08,0,0,1-.08-.08.07.07,0,0,1,.07-.08.08.08,0,0,1,.08.07"/><path class="cls-19" d="M33.68,32.17a.09.09,0,0,1-.09.09.08.08,0,0,1-.09-.08.09.09,0,0,1,.09-.09.08.08,0,0,1,.09.08"/><path class="cls-11" d="M36.65,29.19c.92-.08.37,1.29-.54.71L35,30.9h0a1.61,1.61,0,0,0-.22-.48l1.06-.88c-.15-.82.14-1.12.43-1.13a.51.51,0,0,1,.45.77"/><path class="cls-21" d="M229.56,111.43c-9.31-6.16-47.71,19.31-29.95-11.82-6.79.38-10.8,5.44-17.46,10.18-5.15,3.66-11.88,7.13-22.7,8.12-15,1.35-23-5.06-17.29-16.84-9.57.32-15.89,11.58-26,15.8-12.47,5.21-27,8.46-14.9-12.72-6.8.38-10.81,5.43-17.47,10.17-5.15,3.67-11.88,7.14-22.69,8.12-15,1.36-23-5-17.29-16.84-9.93.34-17.09,11-27.07,16.43a23.42,23.42,0,0,1-19.55,1.79L-5.74,191.5l133.43,5.78.38-8.78,98,4.24Z"/></g><rect class="cls-22" x="0.47" y="0.47" width="184.43" height="134.16"/></g></g></svg>