<svg xmlns="http://www.w3.org/2000/svg" viewBox="0 0 185.37 135.1"><defs><style>.cls-1{fill:#775c7d;}.cls-2{fill:#945b19;}.cls-3{fill:#c58021;}.cls-4{fill:#eeca1a;}.cls-5{fill:#6f4714;}.cls-6{fill:#a886b1;}.cls-7{fill:#dfd191;}.cls-8{fill:#db9600;}.cls-9{fill:#f8e12e;}.cls-10{fill:#523818;}.cls-11,.cls-19{fill:none;}.cls-11{stroke:#d7d7ce;stroke-width:0.94px;}.cls-12{fill:#61a0a2;}.cls-13{fill:#3f7473;}.cls-14{fill:#538a58;}.cls-15{fill:#c48709;}.cls-16{fill:#593d19;}.cls-17{fill:#6eaa6f;}.cls-18{fill:#6a4720;}.cls-19{stroke:#eeca1a;stroke-linecap:round;stroke-width:0.58px;}</style></defs><g id="Capa_2" data-name="Capa 2"><g id="Capa_1-2" data-name="Capa 1"><path class="cls-1" d="M56,60.78H41.16v43.06l34,7S74.35,66.35,74,60.78H56Z"/><path class="cls-2" d="M36.85,31.58l8.83,29.2H56c-.68-.93-13.71-19.48-1.24-44.67v-.35l-23-.73Z"/><path class="cls-3" d="M41.16,93.89v10l8.57,1.77c0-9.15-8.57-11.72-8.57-11.72"/><path class="cls-3" d="M41.16,60.78V72.31c8.57-2.19,8.57-11.51,8.57-11.51v0H41.16Z"/><path class="cls-4" d="M44.58,64.19a1.3,1.3,0,1,0,1.31,1.29,1.3,1.3,0,0,0-1.31-1.29"/><path class="cls-4" d="M44.58,98.74a1.3,1.3,0,1,0,1.31,1.3,1.3,1.3,0,0,0-1.31-1.3"/><path class="cls-5" d="M54.79,16.11A39.7,39.7,0,0,0,56,60.78H68c-5-6.57-7.68-16.68-7.92-19.11a41,41,0,0,1,5.87-25.54L54.8,15.76Z"/><path class="cls-5" d="M30.55,55.88l2.21-2.06-1.27-2.64a.62.62,0,0,1,.89-.79l3.67,2.33,3.12-3.93a34.84,34.84,0,0,1-1.31-6.67A43.6,43.6,0,0,1,43.78,15.4l-12-.48s-8.17,27.74-1.28,41"/><path class="cls-2" d="M65.93,16.13l12.1.38c-4.42,4.68-11.19,23.28.25,39.59l3.57,4.39-8,2.79L68,60.78s-6.09-5.62-8.2-19C58.35,32.71,61.07,24,65.93,16.13"/><path class="cls-3" d="M69.87,73.71a16.5,16.5,0,0,1-6.74-12.93H74l.35,15.52.44,20.28.32,14.31-9.65-2q1.2-6.45,4.94-9.76Z"/><path class="cls-4" d="M69.1,63.77a1.72,1.72,0,1,0,1.73,1.71,1.72,1.72,0,0,0-1.73-1.71"/><path class="cls-4" d="M70.22,103.89a1.72,1.72,0,1,0,1.72,1.72,1.72,1.72,0,0,0-1.72-1.72"/><path class="cls-1" d="M70.44,32.85s-.66,8.34,1.81,14.29c1,2.49,6.57,10.89,9.14,13.36l6.47-.24,4.51-.17a34.91,34.91,0,0,1,.89-8h0l-2.67-6.28L78.21,16.52H78a28.55,28.55,0,0,0-7.59,16.34"/><polygon class="cls-4" points="79.46 58.22 75.96 60.71 87.86 60.26 92.03 59.46 86.88 56.33 86.87 49.7 82.25 54.83 75.38 53.12 79.46 58.22"/><path class="cls-1" d="M22.5,20.57c-7.76,12.48-3.11,30.17,10.81,35a9,9,0,0,1,4.51-6.05L29.89,22.89a9.12,9.12,0,0,1-7.39-2.32"/><path class="cls-3" d="M20.28,17.67a29,29,0,0,1,6.14-6.45l3.47,11.67a9.12,9.12,0,0,1-7.39-2.32c-7.76,12.48-3.11,30.17,10.81,35a8.92,8.92,0,0,1,4.51-6.05l3.34,11.23A27.71,27.71,0,0,1,33,59.61C15.76,54.35,10.13,32.43,20.28,17.67"/><path class="cls-4" d="M24.62,15.44A1.42,1.42,0,1,0,26,16.86a1.43,1.43,0,0,0-1.42-1.42"/><path class="cls-4" d="M36.85,55.17a1.41,1.41,0,1,0,1.41,1.41,1.41,1.41,0,0,0-1.41-1.41"/><path class="cls-6" d="M65.93,16.13l12.1.38h.18L90.58,45.78l2.67,6.28h0a29.38,29.38,0,0,1,1.36-4.5h0L80.24,13,26.42,11.22l3.47,11.67,7.93,26.66,3.34,11.23h4.52l-8.83-29.2L31.83,15l23,.73Z"/><polygon class="cls-4" points="71.67 32.79 69.62 40.63 63.13 41.4 68.86 44.6 67.58 50.97 72.54 46.89 78.45 50.46 75.96 44.19 81.39 39.77 74.01 40.02 71.67 32.79"/><polygon class="cls-4" points="48.49 43.68 52.06 49.77 48.53 54.25 54.05 52.69 57.18 57.41 57.72 51.83 63.57 50.39 58.16 48.06 58.79 41.99 54.39 46.69 48.49 43.68"/><path class="cls-7" d="M89.75,61.4l21-.79,0-.23a33.52,33.52,0,0,1,23.88-27.45C117.73,25.5,98.44,32.14,92,48.87a29.38,29.38,0,0,0-1.36,4.5,34.91,34.91,0,0,0-.89,8"/><path class="cls-8" d="M87.86,60.26l-.07,0q-2.48,9.86-9,14v0L79.37,100l0,0a21.78,21.78,0,0,1,5.07,9.88l-9.26,1-.32-14.31L74.39,76.3,74,60.78Z"/><path class="cls-6" d="M92.37,60.09l-4.51.17-.07,0q-2.48,9.86-9,14v0L79.37,100l0,0a21.87,21.87,0,0,1,5.07,9.89l31.15-3.25c0-11.08,9.26-12.77,9.26-12.77v-21c-6.87-3.05-9.27-7.32-9.26-13.71l-2.16.08Z"/><path class="cls-9" d="M79.13,63.77a1.72,1.72,0,0,0,0,3.44,1.72,1.72,0,1,0,0-3.44"/><path class="cls-9" d="M79.13,103.89a1.72,1.72,0,1,0,1.73,1.72,1.71,1.71,0,0,0-1.73-1.72"/><path class="cls-8" d="M115.56,59.22c0,6.38,2.39,10.66,9.26,13.71V58.88Z"/><path class="cls-8" d="M115.56,106.67l9.26-1V93.9s-9.26,1.69-9.26,12.77"/><path class="cls-9" d="M121,63.77a1.72,1.72,0,1,0,1.73,1.71A1.72,1.72,0,0,0,121,63.77"/><path class="cls-9" d="M121,99.43a1.73,1.73,0,1,0,1.73,1.72A1.72,1.72,0,0,0,121,99.43"/><path class="cls-2" d="M146.17,61.45l-28.71,1.9c6.2,4.18,13.14,12.22,15,25.36l33.11-2.88,0-.35c-2-15.92-9.07-21.3-19.35-24"/><polygon class="cls-10" points="95.82 79.36 96.89 105.97 124.82 118.94 125.17 89.34 95.82 79.36"/><path class="cls-5" d="M124.91,89.43c-1.75-17.06-8.18-24.53-15.86-25.25-8.81-.82-13.18,8.67-13.23,15.19,0,0,29.09,10,29.09,10.06"/><path class="cls-8" d="M103,92.26c-.17.66.16,1.35,1.27,1.85l.08-.14a1,1,0,0,1,1.2-.4.82.82,0,0,1,.49,1c1.25.11,2-.28,2.16-1,.2-.84-.65-1.82-2.26-2.22s-2.74,0-2.94.89"/><path class="cls-4" d="M104.3,94.11a8.4,8.4,0,0,0-1,4.45c.16,4.07,2.68,6,6,5.86s6.17-2.25,6-6.32a7.87,7.87,0,0,0-.14-1.2c0-.21-.08-.43-.13-.64a1.21,1.21,0,0,0-1.27-.9.88.88,0,0,0-.8.93.45.45,0,0,0,0,.11q0,.1,0,.24a3.42,3.42,0,0,1,0,.45,3.82,3.82,0,1,1-7.61.29A5.34,5.34,0,0,1,106,94.7a.58.58,0,0,0,0-.14.82.82,0,0,0-.49-1,1,1,0,0,0-1.2.4l-.08.14"/><path class="cls-8" d="M117.46,63.35l-10.58.79c8,.28,16.27,8.19,18,25.16l7.54-.59c-1.08-14.75-8.26-22.2-15-25.36"/><path class="cls-8" d="M111.33,94.53c-.2.76.31,1.64,1.69,2.11q0-.14,0-.24a.45.45,0,0,1,0-.11.88.88,0,0,1,.8-.93,1.21,1.21,0,0,1,1.27.9c0,.21.1.43.13.64.84-.08,1.21-.36,1.34-.87.21-.85-.69-1.92-2.31-2.32s-2.67,0-2.88.82"/><path class="cls-9" d="M117.48,66.5a.75.75,0,0,0,.75.77.77.77,0,1,0-.75-.77"/><polygon class="cls-5" points="124.91 89.3 124.75 108.56 124.82 118.94 172.55 107.53 172.87 83.25 124.91 89.3"/><path class="cls-9" d="M122,71.5a1,1,0,1,0,1-1,1,1,0,0,0-1,1"/><path class="cls-9" d="M125.67,78.43a1.12,1.12,0,1,0,1.12-1.11,1.11,1.11,0,0,0-1.12,1.11"/><path class="cls-9" d="M127.49,85.19a1.38,1.38,0,0,0,2.76,0,1.38,1.38,0,0,0-2.76,0"/><path class="cls-9" d="M146.24,83.73h0A3.65,3.65,0,0,0,142.91,88l3.93-.63s.93,7.06,1,10c.05,1.14,6.55.31,6.44-.8l-1-9.81,4.14-.71c-.28-2.79-1.57-3.4-4-3.07h0a3.6,3.6,0,1,0-7.15.73"/><path class="cls-8" d="M154.06,61.06l-7.89.39c10.62,5.06,16.16,10.06,18.64,22.81l8.06-1c-2.36-12.73-9-18.3-18.81-22.19"/><path class="cls-5" d="M150.1,95.29l1.9-.2-.82-3.44a1,1,0,0,0,.61-1,1.1,1.1,0,0,0-2.17.23.93.93,0,0,0,.61.76c-.16,1.72-.13,3.63-.13,3.63"/><path class="cls-9" d="M155.3,63.42a.77.77,0,1,0,.84.68.77.77,0,0,0-.84-.68"/><path class="cls-9" d="M161.32,67.61a1,1,0,1,0,1.08.87,1,1,0,0,0-1.08-.87"/><path class="cls-9" d="M165.44,72.85a1.12,1.12,0,0,0-1,1.23,1.1,1.1,0,0,0,1.22,1,1.12,1.12,0,1,0-.23-2.22"/><path class="cls-9" d="M168.08,79.41a1.38,1.38,0,1,0,.28,2.74,1.38,1.38,0,1,0-.28-2.74"/><rect class="cls-11" x="0.47" y="0.47" width="184.43" height="134.16"/><polygon class="cls-12" points="104.34 95.61 102.95 111.44 75.36 121.91 75.19 121 74.32 104.22 104.34 95.61"/><polygon class="cls-13" points="74.46 104.11 75.36 121.91 50.09 117.67 48.44 101.64 48.44 101.36 74.46 104.11"/><path class="cls-4" d="M86.47,101.16l-12.15,3.21a12.72,12.72,0,0,0-.87-5.52,12.85,12.85,0,0,0-2.54-4.17c-1.17-1.27-2.64-2.26-3.62-3.71s-1.49-3.08-2.55-4.44a4.2,4.2,0,0,0-4.21-1.77l4.8-1.29,0,.11a4.07,4.07,0,0,1,4,1.79c1.06,1.35,1.6,3,2.55,4.43s2.44,2.44,3.61,3.71a12.68,12.68,0,0,1,2.54,4.17l8-2.5-.07-3,10-2.84.07,2.71,5.54-1.61a12.94,12.94,0,0,0-2.16-3.23C98.36,86,96.9,85,95.92,83.53s-1.5-3.08-2.56-4.43a4.28,4.28,0,0,0-3.54-1.86L93,76.38c1.41-.41,2.83.53,3.68,1.74s1.4,2.95,2.24,4.34a31.36,31.36,0,0,0,3.16,3.64,13.19,13.19,0,0,1,2.23,4.07,13.81,13.81,0,0,1,.71,5.34l-.7.25-8.1,2.8.06,2.59-10,3.34Z"/><path class="cls-12" d="M69.36,85.37a4.08,4.08,0,0,0-4-1.79l0-.1,24.49-6.24a4.28,4.28,0,0,1,3.54,1.86c1.06,1.35,1.6,3,2.56,4.43s2.44,2.44,3.61,3.72a12.94,12.94,0,0,1,2.16,3.23l-5.54,1.61-.07-2.71L86,92.22l.07,3-8,2.5a12.68,12.68,0,0,0-2.54-4.17c-1.16-1.27-2.63-2.26-3.61-3.71s-1.49-3.08-2.55-4.43"/><path class="cls-14" d="M94.28,94.39a2.17,2.17,0,0,1-1.5,2.31l.11,3.25-2,.6L91,97a1.94,1.94,0,0,1-1.81-1.3c-.26-1,.68-2.15,2.1-2.51s2.78.18,3,1.21"/><path class="cls-4" d="M66.77,110.34c0,2-2.68,5.28-6.15,5.36s-6.51-3.17-6.32-5.65c.14-1.79,1.24-2.64,3.22-3.09l-.09.49.13.76A1.81,1.81,0,0,0,56.17,110a4.53,4.53,0,0,0,4.46,4.14c2.36-.06,4.54-2.42,4.4-3.75a1.88,1.88,0,0,0-1.32-1.58l0-1.4c1.49.3,3.06,1.34,3.1,3"/><polygon class="cls-15" points="63.71 108.98 57.45 108.33 57.4 106.04 63.65 106.62 63.71 108.98"/><path class="cls-13" d="M70.91,94.68a12.85,12.85,0,0,1,2.54,4.17,12.72,12.72,0,0,1,.87,5.52l-25.87-2.73a6.42,6.42,0,0,1,.69-4,10.81,10.81,0,0,1,2.5-3.76,34.31,34.31,0,0,0,3.68-3.42c1-1.29,1.45-2.77,2.5-4a5.25,5.25,0,0,1,2.5-1.64l.21-.06h0a4.2,4.2,0,0,1,4.21,1.77c1.06,1.36,1.6,3,2.55,4.44s2.45,2.44,3.62,3.71"/><path class="cls-16" d="M51.16,122.47l8.57-5.36c-.08,1.42.1,4,.05,5.36-2.9.78-4.9.13-8.48,2.77L51,122.46Z"/><path class="cls-5" d="M59.73,117.11l-8.54,5.49h-.14l-.19-5.32h.08l8.79-4.58c0,.13,0,4.28,0,4.41"/><path class="cls-14" d="M59.77,112.73l-8.83,4.64-.22-2.83,9-4.41c.05,1.11,0,1.65,0,2.6"/><path class="cls-2" d="M55.59,104a2.85,2.85,0,0,1,1.85.62c1.38,1,2,2.78,2.29,5.56l-9,4.41s-.89-6.15,2.11-9.38A3.84,3.84,0,0,1,55.59,104Z"/><path class="cls-17" d="M55.59,104a3.9,3.9,0,0,0-2.76,1.21c-3.11,3.29-1.89,12.21-1.89,12.21l-4.31-2.76c-.28-4.25.35-8.92,3.47-11,3.27.2,5.2.37,5.49.39"/><path class="cls-8" d="M51.55,104.14a.32.32,0,0,1,0,.63.32.32,0,0,1,0-.63"/><path class="cls-5" d="M51.19,122.51l.11,2.73c-6.89,4.71-14.52.82-22.52.69-1.07,0-3.41,0-5.37,0l-.24-3.46H36.09Z"/><path class="cls-8" d="M49.6,106.66a.5.5,0,1,1-.49.49.49.49,0,0,1,.49-.49"/><path class="cls-8" d="M48.84,111.08a.71.71,0,1,1-.7.7.7.7,0,0,1,.7-.7"/><path class="cls-3" d="M46.63,114.54v.07l-8.53.16h-.19c-.74-5.31.56-8.84,4-11.3l.52-.29c2.6.08,5.57.24,7.71.38-2.86,2.33-3.75,6.72-3.47,11"/><path class="cls-17" d="M42.39,103.18l-.11.07c-3.39,2.46-4.92,6.19-4.18,11.5V115l-4-.14c-.68-6,1.23-9.4,4-11.75,1.41,0,2.86,0,4.29.09"/><path class="cls-8" d="M40.15,117.16v3.66a9.37,9.37,0,0,1-4.06,1,7.73,7.73,0,0,1-3.78-1v-3.74Z"/><path class="cls-8" d="M39,104.1a.36.36,0,1,1-.35.35.36.36,0,0,1,.35-.35"/><path class="cls-3" d="M29.41,103.47a63.17,63.17,0,0,1,8.69-.38c-2.78,2.35-4.7,5.62-4,11.66v.09l-7.77.25v-.22a13.46,13.46,0,0,1,1.75-9.07c.43-.75.83-1.56,1.34-2.33"/><path class="cls-8" d="M36.58,107.06a.51.51,0,1,1-.5.5.5.5,0,0,1,.5-.5"/><path class="cls-18" d="M36.61,118.86a.39.39,0,0,1-.37.44l.13,1.11-.8,0,.06-1.13c-.34,0-.41-.19-.42-.39s.18-.47.62-.51.78.16.78.44"/><path class="cls-2" d="M50.94,117.28l-10.79-.12v3.66a9.37,9.37,0,0,1-4.06,1,7.73,7.73,0,0,1-3.78-1v-3.74l-9.52-.1.38,5.49,28,.13Z"/><path class="cls-8" d="M35.9,111.52a.71.71,0,0,1,.71.71.7.7,0,0,1-.71.7.7.7,0,0,1-.7-.7.7.7,0,0,1,.7-.71"/><path class="cls-17" d="M27.75,106.54a7,7,0,0,1,3.36-3.26,8.16,8.16,0,0,0-5.25,1.85c-3.75,3.45-3.2,9.92-3.2,9.92l3.9.19-.12-.49a13.09,13.09,0,0,1,1.31-8.21"/><path class="cls-8" d="M27.33,105.29a.13.13,0,0,1,0,.06.34.34,0,1,1-.67,0A.34.34,0,0,1,27,105a.33.33,0,0,1,.33.28"/><path class="cls-8" d="M25.37,107.7a.48.48,0,1,1,0,1,.48.48,0,0,1,0-1"/><path class="cls-8" d="M24.83,111.78a.64.64,0,0,1,.64.64.64.64,0,1,1-1.28,0,.64.64,0,0,1,.64-.64"/><polygon class="cls-17" points="50.72 114.54 50.94 117.37 40.15 117.16 32.31 117.08 22.79 117.08 22.63 114.39 50.72 114.54"/><path class="cls-19" d="M18.91,127.56s3.82-2.71,12.2-1.5,13.56,2.89,20.19-.83,14.5-2.63,14.5-2.63"/></g></g></svg>