<svg xmlns="http://www.w3.org/2000/svg" xmlns:xlink="http://www.w3.org/1999/xlink" viewBox="0 0 185.37 135.1"><defs><style>.cls-1,.cls-10,.cls-11,.cls-17{fill:none;}.cls-2{clip-path:url(#clip-path);}.cls-3{fill:#eeca1a;}.cls-4{fill:#9c141b;}.cls-5{fill:#6f4714;}.cls-6{fill:#e0d6b9;}.cls-7{fill:#111419;}.cls-8{fill:#fff;}.cls-9{fill:#211915;}.cls-10,.cls-11{stroke:#211915;stroke-linecap:round;}.cls-10{stroke-linejoin:round;}.cls-11{stroke-width:0.69px;}.cls-12{fill:#61a0a2;}.cls-13{fill:#775c7d;}.cls-14{fill:#945b19;}.cls-15{fill:#a886b1;}.cls-16{fill:#c33930;}.cls-17{stroke:#d7d7ce;stroke-width:0.94px;}</style><clipPath id="clip-path"><rect class="cls-1" x="0.47" y="0.47" width="184.43" height="134.16"/></clipPath></defs><g id="Capa_2" data-name="Capa 2"><g id="Capa_1-2" data-name="Capa 1"><g class="cls-2"><path class="cls-3" d="M193.78,142.56a122.59,122.59,0,0,0-45.59-34.88c-3.79-1.66-7.64-3.32-11.58-4.68a126.22,126.22,0,0,0-74.43-2.57c-28.28,7.7-50.86,21.62-66.73,42.13Z"/><path class="cls-4" d="M108,72.25a23.14,23.14,0,0,1-8.21,1.4,22.68,22.68,0,0,1-7.46-1.39l-.9-.63c0-.09-10.19-3.27-10.19-3.27S76.77,83.8,75.81,87.87A60.42,60.42,0,0,0,74.53,95c1.23-.74,14.21-2.07,14.21-2.07a4.48,4.48,0,0,0,2.3.44c1.59,1.13,5.6,1.6,5.58,3.59,0,.28,0,.58,0,.89h.07c.32-5,3.42-7.22,9.37-6.46l0,0a74,74,0,0,0,2.9-8.49h0c1-3.22.87-10.88.51-11.2ZM98.6,91.1a.61.61,0,1,1,.6-.61.6.6,0,0,1-.6.61m0-6.12a.61.61,0,1,1,.6-.61.6.6,0,0,1-.6.61m.76-6.12a.61.61,0,1,1,.6-.61.6.6,0,0,1-.6.61"/><path class="cls-5" d="M76,51.32c.06,1.3.9,1.68.43,2.9-1.58,4.16-4,1.68-3.38-4.44,0,0-1.49,2.33-2,3.1-1.41,2.07-3.18,3-3,1.47.28-2,1.84-7.78,1.84-7.78-6,11.4-3.83,1.43-3-1.71a5.59,5.59,0,0,1-3.17,2.69c-3.86,1.36,7.71-17.31,7.71-17.31h0c3.71-.59,7.8-1.11,7.08.86-.42,1.51-2.45,14.59-2.45,14.59A52.76,52.76,0,0,0,76,51.32"/><path class="cls-5" d="M115.66,48.69c0,1.3-.9,1.68-.43,2.9,1.58,4.17,4,1.68,3.38-4.44,0,0,1.49,2.33,2,3.1,1.41,2.07,3.19,3,3,1.47-.28-2-1.84-7.78-1.84-7.78,6,11.39,3.83,1.43,3-1.71a5.62,5.62,0,0,0,3.17,2.69c3.86,1.36-7.71-17.31-7.71-17.31l-.7-.54c-3.71-.59-7.1-.58-6.38,1.39.42,1.51,2.45,14.59,2.45,14.59a50.27,50.27,0,0,1,.08,5.64"/><path class="cls-6" d="M118.25,27.71c-.44,0-2.65.19-3.11.17-4.32-.15-9.25-1.62-13.49-2.14A19.5,19.5,0,0,0,98,25.6c-6.44.47-13.7,4.35-19.54,5.49a76.86,76.86,0,0,0-1.71,8l-.09.57c-.27,1.88-.52,3.93-.65,6.07A55.68,55.68,0,0,0,76,51.33c5.94,9.16,12.44,23.52,21,12.74a4.5,4.5,0,0,0,3.7,0c6.75,9.1,15-8.88,20.18-15.46-.07-1.7-.35-13.74-2.57-20.89"/><path class="cls-5" d="M120.82,48.6c.32,6-.48,17.77-10,23.12A21.8,21.8,0,0,1,100,74.25c-19.51-.5-22.87-13.21-23.65-19-.18-1.3-.29-2.62-.35-3.91,10.08.11,14.7,20.92,23.25,10.14a4.54,4.54,0,0,0,3.7,0c6.75,9.1,11.84-8.32,17.91-12.86"/><path class="cls-5" d="M109.91,53.73a.77.77,0,0,1-.3,1.08c-.39.12-.61-.21-.84-.45a5.16,5.16,0,0,0-1.54-1.06,12.35,12.35,0,0,0-4.44-1.06c-2.72-.23-6,0-8.28,1.65-.41.28-1,1.19-1.58.74s0-1.15.35-1.52a9.11,9.11,0,0,1,3.38-1.9,15.2,15.2,0,0,1,7.59-.64c1.94.31,4.65,1.24,5.66,3.16"/><path class="cls-7" d="M126,14.74a.58.58,0,0,0-1-.35c-7.73,10.38-13.54,1.78-20.6-3.57-2.74-2.06-5.68-3.65-9-3.44-11.71.73-15.5,21.41-26.21,12a1,1,0,0,0-1.63.83c.4,5.5,1.81,8.55,3.91,10,1.88,1.33,4.32,1.4,7.08.86C84.34,30,91.6,26.07,98,25.6a19.5,19.5,0,0,1,3.61.14c4.24.52,9.17,2,13.48,2.14.47,0,.92,0,1.36,0,5.34-.2,9.43-3,9.5-13.14"/><path class="cls-6" d="M77.6,42.07A47.06,47.06,0,0,0,77.24,47a3,3,0,0,1-2.32.49c-1.68-.18-2.94-1.83-2.72-4.16s1.77-3.41,3.43-3.09c2,.38,2,1.69,2,1.88"/><path class="cls-8" d="M103.19,21.14c2.86-1.7,3,1.54,1.24,1.32.37.76-.09,1.14-.61,1.11a1.2,1.2,0,0,1-1-1.59L100,20.65l.21-.29a2.22,2.22,0,0,0,.43-.54l.17-.16Z"/><path class="cls-8" d="M94.77,16.38a2.25,2.25,0,0,1,.89-1.53,3.25,3.25,0,0,1,2-.64c1.64,0,3.28.49,3.87,1.69a5.16,5.16,0,0,1-.47,4s-1.29,1.34-1.66,1.62a2.79,2.79,0,0,1-2.53.06c-.86-.47-1.8-3.06-2-3.89a3.76,3.76,0,0,1-.09-1.33"/><path class="cls-9" d="M100.5,16.94a.8.8,0,0,1-.18,1.12,1,1,0,0,1-1.24-.14,1,1,0,0,1,.26-1.24.86.86,0,0,1,1.16.26"/><path class="cls-8" d="M96.62,20.87l0,.13-3.66,1.72c-1,2.77-2.33,1.42-1.68.21-2.53,0-1-3.79,1.13-1.36l3.41-1.63c.3.52.55.86.55.86Z"/><path class="cls-9" d="M96.69,16.4c.3,0,.64.28.61.91a.71.71,0,0,1-.81.71,1,1,0,0,1-.72-.89.75.75,0,0,1,.92-.73"/><path class="cls-8" d="M95.21,17.73l-.3.2-2.28-1.59c-2.74.48-2-1.51-.86-1.47-1-2.45,2.7-1.81,1.6.73l1.4.78c-.06.43.34.91.44,1.35"/><path class="cls-9" d="M97.86,19.49a.16.16,0,0,1-.17.14.15.15,0,0,1-.14-.16.16.16,0,0,1,.17-.14.15.15,0,0,1,.14.16"/><path class="cls-9" d="M98.66,19.54a.16.16,0,0,1-.18.16.17.17,0,0,1-.16-.19.16.16,0,0,1,.18-.15.16.16,0,0,1,.16.18"/><path class="cls-8" d="M104.9,14.29c1.79,0,.48,2.56-1.18,1.3l-2.35,1.71-.09,0a3,3,0,0,0-.34-1l2.19-1.5c-.14-1.61.47-2.15,1-2.11a1,1,0,0,1,.73,1.55"/><path class="cls-7" d="M95.32,41.12a1.86,1.86,0,0,1-1.42,1.52l-8.27.63c-2.35.11-3.08-.52-3.08-1.53L82.34,35c0-1.44.77-2,2.2-2l8.42-.6c1.42,0,2.08.31,2,1.71Z"/><path class="cls-10" d="M83.37,38.56c-1.52.34-4.85,1.23-6.39,1.55"/><path class="cls-10" d="M118.5,28.57s-18.76,6.52-25.38,8.17"/><path class="cls-8" d="M110.24,35.43A4.6,4.6,0,0,1,114.47,41a11.71,11.71,0,0,0-4.78-1.26,15.71,15.71,0,0,0-4.83.46,5,5,0,0,1,5.38-4.72"/><path class="cls-9" d="M110.93,37.77a.77.77,0,0,1,.76.92.82.82,0,0,1-.89.78c-.69-.07-.76-.58-.72-1a.79.79,0,0,1,.85-.7"/><path class="cls-11" d="M99.56,47.82c.34.15,7.3,1.17,6.8-2.32-.25-1.75-7.64-6.93-7.94-6.88"/><path class="cls-7" d="M105.23,57.72a27.29,27.29,0,0,0-9.12,1c.55-.91,2.32-3.44,5-3.7a3.75,3.75,0,0,1,4.13,2.69"/><path class="cls-12" d="M114.63,43s4.74,3.16,2.53,4.55c-2,1.26-2.53-4.55-2.53-4.55"/><path class="cls-12" d="M84.93,44.73s-4.74,3.15-2.53,4.55c2,1.26,2.53-4.55,2.53-4.55"/><path class="cls-12" d="M114.29,48.47s4.85,5.74,1.54,6.69c-3,.87-1.54-6.69-1.54-6.69"/><path class="cls-7" d="M88.92,119.28s11.5,8.64,6.58,8.93c-6.81.41-11.92-5.27-11.92-5.27l-1,2.44-3.54-.93,4-15.86a7.49,7.49,0,0,0,2.66.5,34.06,34.06,0,0,0,6,0Z"/><path class="cls-7" d="M109.36,121.23a35.71,35.71,0,0,1,.44,4.27l-5.07.72-.66-4.38Z"/><path class="cls-13" d="M88.77,107.22a31.91,31.91,0,0,0,7.21,1c3.28,0,6.18.28,8.1-1.7s.6-8.65-3.29-10-2.71-2.18-7.86-1.91-6.14.33-6.8,1.91,2.64,10.76,2.64,10.76"/><path class="cls-14" d="M109.36,121.23l-5.25.86-1.88-12.45,5.35-.55a58.59,58.59,0,0,1,1.78,12.14"/><path class="cls-6" d="M120,70c.37-.31,3.77-3.14,4.63-2.17,1.06,1.18-4.11,4.91-5.39,6.25-1.86,1.95-2.14,2.47-3.11,2.38-4.42-.4-6.7-4.57-6.7-4.57,1.72-3.78,4.63-2.77,5.64-5.36,2.59-6.67,5.39-5.67,3.44-.89a17.31,17.31,0,0,1-.94,2.52c6.29-7.35,8.46-4.5,2.43,1.84"/><path class="cls-15" d="M108.41,109.05a40.21,40.21,0,0,1-6.18.59s-1.69.33-2.36-.55c-.46-.61-3.22-7.28-3.21-11.27,0-5.06,3.61-7.83,9.5-6.72,2.69.51,2.82.86,3.58,1.45,2.09,1.65,2,6.49,1.25,10.15a16.43,16.43,0,0,1-2.58,6.35"/><path class="cls-8" d="M99.36,77.65a.61.61,0,1,1-.59.6.6.6,0,0,1,.59-.6"/><path class="cls-8" d="M98.6,83.77a.61.61,0,1,1-.6.6.6.6,0,0,1,.6-.6"/><path class="cls-8" d="M98.6,89.89a.61.61,0,1,1-.6.6.6.6,0,0,1,.6-.6"/><path class="cls-15" d="M82.82,108.15l-1.27,0c-5.53.16-8.1-3.92-7-13.21,1.23-.74,6.93-4,13-4.3h0c2.2,0,3.76,0,5.12.62a6.27,6.27,0,0,1,3.92,5.64c0,.28,0,.58,0,.89a29.56,29.56,0,0,1-4.41,11.5c-.16.21-8.55,0-9.08-.73h0a2,2,0,0,1-.28-.43"/><path class="cls-16" d="M94.1,86.66a4.44,4.44,0,0,1-1.4,4.63,3.87,3.87,0,0,1-1.3.65,3.72,3.72,0,0,1-.88.11,4,4,0,0,1-2.94-1.38,4.88,4.88,0,0,1-1.09-2l-2.35-9.11v-.1a23.57,23.57,0,0,0,7.61-1.84l.05.08Z"/><path class="cls-6" d="M89.78,71.91l-7.7,2.34c-.27.08-1.12-.9-2.14-1.28-2.55-.94-4.72-2.45-4.7-4.61,0-1.6,3.34,1.5,4.9,1.73-3.13-3.18-4.38-4.82-3.66-5.3s3.08,1.46,6.57,3.55c-2-1.17-2.78-3.44-2.46-4.21,1-2.35,1.74,1.8,5.9,4.21,2.18,1.26,3.29,2.84,3.29,3.57"/><path class="cls-16" d="M116.71,78.66l-2.33,6h0l-1.72,4.5c-.57,1.46-2.91,3.72-5.74,2.54a4.24,4.24,0,0,1-2.83-4.15,4.64,4.64,0,0,1,.29-1.58l3.49-9a11.89,11.89,0,0,0,7.61,1.84c.46,0,.88-.09,1.24-.15"/><path class="cls-4" d="M119.11,75.45c-1,2.25-1.42,4-2.28,6.39A29.47,29.47,0,0,1,107,77.18h0l2.42-6.58Z"/><path class="cls-8" d="M111.55,74.6a.83.83,0,0,1-.61,1,.82.82,0,0,1-1-.61.8.8,0,0,1,.61-1,.82.82,0,0,1,1,.62"/><path class="cls-4" d="M80.94,74.61c.81,2.34,1,4.15,1.64,6.58,3.18-.33,9-3,9.88-3.48L90.34,71Z"/><path class="cls-8" d="M88.56,74.51a.82.82,0,0,0,.51,1,.81.81,0,0,0,1-.52.8.8,0,0,0-1.53-.5"/></g><rect class="cls-17" x="0.47" y="0.47" width="184.43" height="134.16"/></g></g></svg>