<?xml version="1.0" encoding="utf-8"?>
<!-- Generator: Adobe Illustrator 26.2.1, SVG Export Plug-In . SVG Version: 6.00 Build 0)  -->
<svg version="1.1" id="Capa_1" xmlns="http://www.w3.org/2000/svg" xmlns:xlink="http://www.w3.org/1999/xlink" x="0px" y="0px"
	 viewBox="0 0 85.9 90" style="enable-background:new 0 0 85.9 90;" xml:space="preserve">
<style type="text/css">
	.st0{opacity:0.1;}
	.st1{fill-rule:evenodd;clip-rule:evenodd;fill:#005954;}
	.st2{fill-rule:evenodd;clip-rule:evenodd;fill:#706F6F;}
	.st3{fill-rule:evenodd;clip-rule:evenodd;fill:#DAD8CC;}
	.st4{fill-rule:evenodd;clip-rule:evenodd;fill:#E30613;}
	.st5{fill:#A4A092;}
	.st6{fill-rule:evenodd;clip-rule:evenodd;fill:#A4A092;}
	.st7{fill:#DAD8CC;}
	.st8{fill:#FFFFFF;}
	.st9{fill:#1D1D1B;}
	.st10{fill:none;stroke:#1D1D1B;stroke-width:0.33;stroke-linecap:round;}
	.st11{fill-rule:evenodd;clip-rule:evenodd;fill:#0D181C;}
	.st12{fill-rule:evenodd;clip-rule:evenodd;fill:#FFFFFF;}
	.st13{fill-rule:evenodd;clip-rule:evenodd;fill:#B4B0A4;}
</style>
<path class="st0" d="M14,77.4c8.4-1.7,12.9-0.7,21.6-0.6c2.2,0.1,6.2,0,8.4,0.2c2.2,0.2,3.8,0.1,5.2,0.4c1.1,0.3,2.1,0.5,2.8,1.2
	c2.2,2,2.5,3.7,1.4,6.1c-0.5,1.1-1.2,1.9-2,2.3c-2.1,1.3-5.1,2.1-7.8,2.1c-4,0-4.8,0-9-0.5c-1.2-0.1-3-0.2-5.4-0.3
	c-3.7-0.2-7.5,0.4-11.2-0.2c-1-0.1-2-0.4-3-0.7c-1-0.3-2.1-0.6-2.9-1.2c-1.5-1.1-2.3-2.3-2.2-3.8c0-1,0.3-2,0.8-2.6
	C11.4,79.1,11.8,78,14,77.4"/>
<polygon class="st1" points="56.4,5.1 47,5.1 47,76 83.9,72.7 74.6,6.5 "/>
<g>
	<path class="st2" d="M56.7,82.8c0,0-0.6-27.9-0.1-43.3C57,23.8,56.5,0,56.5,0S70.8,3.7,76,4.8c3.4,0.8,6.8,1.9,9.8,3.1
		c0,0,0,30.6,0,40.7c0,12.3,0,24.4,0,24.4L56.7,82.8z"/>
	<path class="st3" d="M63.3,9.2v26.2c0,0,13.2,0.5,15.2,0.5c1.9,0,3.4-0.1,3.4-0.1s0.1-5.1,0-10.7c-0.1-5.6-0.3-11.6-0.3-11.6
		s-3.9-1.3-8.2-2.2L63.3,9.2"/>
	<path class="st3" d="M63.9,44.1c0,0,2.2,0.1,7.7-0.2c5.2-0.3,9.7-0.2,9.7-0.2s-0.2,7.2,0,13.3c0.2,6.1,0,11.6,0,11.6
		s-6.8,2.1-10.6,3.3c-4,1.2-6.8,1.6-6.8,1.6L63.9,44.1L63.9,44.1z"/>
</g>
<path class="st4" d="M41,38.3c0,0,0.7,1.6,1.2,2.8c0.6,0.9,1.5,1.6,2.5,2c0,0,0.2-2-0.8-2.9C42.9,39.5,42,38.9,41,38.3"/>
<path class="st5" d="M37.5,68.7c0.7,4.8,1.1,9.7,1.2,14.6c0.5,1,1.2,1.4,3.3,2.1c1.3,0.5,2.2-0.9,0.1-1.7c0,0,2.3,0.7,2.4-0.1
	c0.2-1.1-1.8-1-1.8-1c0.7,0,1.9-0.3,1.9-0.8c0-1.3-2.3-0.8-3.1-0.4c0,0,0-11.6-1.3-14.4S37.5,68.7,37.5,68.7"/>
<path class="st5" d="M22.6,68.7c0,0,1.4,9.9,1.1,14.7c-0.1,1.5,2,1.6,4.1,1.4c1.5-0.2,1.5-1.5-0.5-1.4c0,0,1.9-0.1,1.9-1.1
	s-1.9-0.2-1.9-0.2c0.5-0.4,1.2-1.1,0.8-1.6s-1.1,0.1-1.5,0.4c0,0,0.8-9.7-1.3-14C23.9,64.1,22.6,68.8,22.6,68.7"/>
<path class="st6" d="M22.6,34.2c-1.6,7.1-2.9,14.4-3.8,21.6c-1.1,8,1.8,12,2.8,13.2c3.6,4.3,16.1,6.3,18.8,1.3
	c5.2-9.9,1.3-36,1.3-36L22.6,34.2z"/>
<path class="st6" d="M20.9,41c0,0-0.7,1-1.1,1.7c-0.4,0.8-0.7,1.5-1,2.3l1.2-0.8c0,0-0.8,1.1-1.2,1.8c-0.3,0.5-0.9,2.2-0.9,2.2
	l1.7-1.9c0,0-0.5,0.8-1.2,2c-0.6,0.9-1,1.9-1.2,3l2.7-2.9L20.9,41z"/>
<path class="st6" d="M19.7,48.8c0,0-0.8,1.4-1.3,2.1c-0.7,1.1-1.4,2.3-1.9,3.6l2.2-2.2c0,0-0.7,1.4-1.1,2.1
	c-0.3,0.5-0.9,2.2-0.9,2.2l1.7-1.9c0,0-0.4,0.9-0.9,2.2c-0.3,0.9-0.5,1.9-0.6,2.9c0,0,0.9-1.4,1-1.8c0.5-1.1,0.8-1.3,0.8-1.3
	L19.7,48.8z"/>
<path class="st7" d="M38,38.7c0,0,0.1,4.1,0.8,5.6s1.1,2.4,1.1,2.4l0.3-2.4c0.8,1.6,1.7,3.2,2.8,4.6v-3l-0.7-7.4L38,38.7z"/>
<path class="st6" d="M22,19.6c-0.3-2.9-0.4-5.7-0.4-8.6c0,0,4.3,4.3,5.9,7.4c0.6,0.4,0.2,0,2.8-0.1c1.3,0,2.3,0.3,2.7-0.2
	c0-2.5,0.1-5.1,0.4-7.6c1.9,2.2,3.7,4.5,5.3,7c4.1,2.3,22,11.4,23.7,11.8c1.7,0.4-3.6,2.7-5.7,3.2c-1.8,0.4-18.2,3-18.2,3l-15.7-0.8
	c0,0-1-1.1-1.2-4.5S22,22.2,22,19.6"/>
<path class="st7" d="M42.3,38c-1.9,0.9-6.2-0.3-6.2-0.3s-0.7-1.3-1.6-3.5c-1.5-3.5-1.2-12.9,3-13.9c1.9-0.5,6.4,1.9,10.1,3.4
	c4.7,1.9,8.5,3.2,8.5,3.2v5.8c0,0-12.8,2.4-13.8,2.4C42.1,36.1,42.1,37.1,42.3,38"/>
<path class="st8" d="M43.7,20.5c0.5,0.1,0.9,0.5,1.1,1c0.5,1.2,0.3,3.1-1.5,3.6c-1.2,0.4-2.5-0.3-2.9-1.5c0-0.1,0-0.1-0.1-0.2
	c-0.3-1.2,0.1-3,1.7-2.9C42,20.8,42.9,20.8,43.7,20.5"/>
<path class="st9" d="M43.8,21.8c0.1,0.2,0.1,0.4-0.1,0.6h-0.1c-0.2,0.1-0.4,0-0.5-0.2c0,0,0,0,0-0.1c-0.1-0.2,0-0.5,0.2-0.6l0,0
	C43.5,21.5,43.7,21.6,43.8,21.8"/>
<path class="st10" d="M44.5,20.6c-1.1,0.2-2.2,0.1-3.3-0.1c-0.7-0.2-1.4-0.4-2-0.8"/>
<path class="st11" d="M59.3,27.6c-1.5-0.6-3.6-1.4-3.6-1.4c0.1,1.3,0.2,2.7,0.2,4c0,0.9-0.1,1.8-0.3,2.6c2.5-0.3,8.5-2.3,7.4-3.5
	C62.3,28.7,61.2,28.4,59.3,27.6"/>
<path class="st12" d="M38.2,34.2l0.6,2.5l1-1.7l0.7,2.1l1.1-2c0.3,0.7,0.6,1.4,1,2c0-0.1,0.6-2.2,0.6-2.2c-0.8,0-1.6,0-2.4-0.1
	C39.9,34.8,39.1,34.6,38.2,34.2"/>
<path class="st10" d="M43.2,34.8c0,0-3.7,0.3-5.2-1s-1.5-2.1-1.5-2.1"/>
<path class="st4" d="M22,33.7c0,0,0.7,1.4,5.8,2.6S42,37.7,42,37.7c-3.8,3.7-8.3,6.6-13.2,8.6c-2.3,0.9-13,3-13,3
	c1-1.8,1.9-3.7,2.7-5.6c1.1-2.6,2-5.3,2.6-8.1C21.3,34.9,21.6,34.3,22,33.7"/>
<path class="st12" d="M23.6,35.6c0,0.2-0.1,0.5-0.4,0.5c-0.2,0-0.5-0.1-0.5-0.4v-0.1c0-0.2,0.3-0.4,0.5-0.4S23.6,35.4,23.6,35.6"/>
<path class="st12" d="M23.6,39.4c0,0.2-0.2,0.4-0.4,0.4s-0.4-0.2-0.4-0.4c0-0.2,0.2-0.4,0.4-0.4S23.6,39.1,23.6,39.4L23.6,39.4"/>
<path class="st12" d="M26.2,37.5c0,0.2-0.2,0.4-0.4,0.4s-0.4-0.2-0.4-0.4c0-0.2,0.2-0.4,0.4-0.4l0,0C26,37.1,26.2,37.3,26.2,37.5"/>
<path class="st12" d="M25.9,40.3c0,0.2-0.2,0.4-0.4,0.4s-0.4-0.2-0.4-0.4s0.2-0.4,0.4-0.4C25.7,39.8,25.9,40,25.9,40.3"/>
<path class="st12" d="M23.1,42.2c0,0.2-0.2,0.4-0.4,0.4l0,0c-0.2,0-0.5-0.1-0.5-0.4c0-0.2,0.1-0.5,0.4-0.5h0.1
	C22.9,41.8,23.1,42,23.1,42.2"/>
<path class="st12" d="M23.6,45c0,0.2-0.3,0.4-0.5,0.4s-0.3-0.2-0.4-0.4c0-0.2,0.1-0.5,0.4-0.5C23.3,44.5,23.6,44.6,23.6,45
	C23.6,44.9,23.6,45,23.6,45"/>
<path class="st12" d="M19.4,45.4c0,0.2-0.3,0.4-0.5,0.4s-0.3-0.2-0.4-0.4c0-0.2,0.1-0.5,0.4-0.5C19.1,44.9,19.4,45,19.4,45.4
	L19.4,45.4"/>
<path class="st12" d="M18.4,47.6c0,0.2-0.2,0.4-0.4,0.4l0,0c-0.2,0-0.4-0.2-0.4-0.4c0-0.2,0.2-0.4,0.4-0.4
	C18.2,47.2,18.4,47.4,18.4,47.6"/>
<path class="st12" d="M21.6,46.8c0,0.2-0.1,0.5-0.4,0.5c-0.2,0-0.5-0.1-0.5-0.4v-0.1c0-0.2,0.3-0.4,0.5-0.4
	C21.5,46.5,21.6,46.6,21.6,46.8"/>
<path class="st12" d="M21.5,40.6c0,0.2-0.1,0.5-0.4,0.5c-0.2,0-0.5-0.1-0.5-0.4v-0.1c0-0.2,0.3-0.4,0.5-0.4S21.5,40.4,21.5,40.6"/>
<path class="st12" d="M22,37.5c0,0.2-0.3,0.4-0.5,0.4s-0.3-0.2-0.4-0.4c0-0.2,0.1-0.5,0.4-0.5C21.7,37,22,37.1,22,37.5
	C22.1,37.5,22.1,37.5,22,37.5"/>
<path class="st12" d="M25.9,43c0,0.2-0.2,0.4-0.4,0.4s-0.4-0.2-0.4-0.4s0.2-0.4,0.4-0.4C25.7,42.6,25.9,42.8,25.9,43"/>
<path class="st12" d="M37.4,39.4c0,0.2-0.2,0.4-0.4,0.4c-0.2,0-0.4-0.2-0.4-0.4c0-0.2,0.2-0.4,0.4-0.4C37.2,39,37.4,39.2,37.4,39.4
	L37.4,39.4"/>
<path class="st12" d="M28.4,44.3c0,0.2-0.2,0.4-0.4,0.4l0,0c-0.2,0-0.4-0.2-0.4-0.4s0.2-0.4,0.4-0.4C28.2,43.9,28.4,44.1,28.4,44.3
	L28.4,44.3"/>
<path class="st12" d="M25.7,45.8c0,0.2-0.2,0.4-0.4,0.4l0,0c-0.2,0-0.4-0.2-0.4-0.4s0.2-0.4,0.4-0.4S25.7,45.6,25.7,45.8L25.7,45.8"
	/>
<path class="st12" d="M21.5,43.9c0,0.2-0.1,0.5-0.4,0.5c-0.2,0-0.5-0.1-0.5-0.4v-0.1c0-0.2,0.3-0.4,0.5-0.4
	C21.3,43.6,21.5,43.7,21.5,43.9"/>
<path class="st12" d="M28.4,41.8c0,0.2-0.2,0.4-0.4,0.4l0,0c-0.2,0-0.4-0.2-0.4-0.4c0-0.2,0.2-0.4,0.4-0.4
	C28.2,41.4,28.4,41.6,28.4,41.8"/>
<path class="st12" d="M31.1,44.1c0,0.2-0.2,0.4-0.4,0.4s-0.4-0.2-0.4-0.4c0-0.2,0.2-0.4,0.4-0.4S31.1,43.9,31.1,44.1L31.1,44.1"/>
<path class="st12" d="M31.5,41.3c0,0.2-0.2,0.4-0.4,0.4s-0.4-0.2-0.4-0.4c0-0.2,0.2-0.4,0.4-0.4C31.3,40.8,31.5,41,31.5,41.3
	L31.5,41.3"/>
<path class="st12" d="M34.4,41.8c0,0.2-0.2,0.4-0.4,0.4l0,0c-0.2,0-0.4-0.2-0.4-0.4c0-0.2,0.2-0.4,0.4-0.4S34.4,41.6,34.4,41.8"/>
<path class="st12" d="M28.9,39.4c0,0.2-0.2,0.4-0.4,0.4s-0.4-0.2-0.4-0.4c0-0.2,0.2-0.4,0.4-0.4S28.9,39.1,28.9,39.4L28.9,39.4"/>
<path class="st12" d="M31.5,38.5c0,0.2-0.2,0.4-0.4,0.4l0,0c-0.2,0-0.4-0.2-0.4-0.4s0.2-0.4,0.4-0.4C31.3,38,31.5,38.2,31.5,38.5
	L31.5,38.5"/>
<path class="st12" d="M34.4,39c0,0.2-0.2,0.4-0.4,0.4l0,0c-0.2,0-0.4-0.2-0.4-0.4c0-0.2,0.2-0.4,0.4-0.4S34.4,38.8,34.4,39"/>
<path class="st4" d="M43,38.5c0,0.5-0.4,0.9-0.9,0.9c-0.3,0-0.6-0.2-0.9-0.4c-0.1-0.1-0.2-0.3-0.2-0.5c0-0.5,0.7-0.9,1.1-0.9
	C42.6,37.6,42.9,38,43,38.5"/>
<path class="st4" d="M41.8,38.4c0,0-1,1.5-1.7,2.5c-0.4,1-0.5,2.1-0.3,3.1c0,0,1.9-0.9,2-2.2C41.8,40.8,41.8,39.6,41.8,38.4"/>
<path class="st13" d="M38.3,41.4c3,0.1,9.3,1.8,13-3.1c1.7-2.2,2.7-3.1,3.8-2.8c0.4,0.1,0.6,0.4,0.5,0.8c0,0.1,0,0.1-0.1,0.2
	c0.4-0.2,0.8-0.2,1.1,0.1c0.4,0.3,0.5,0.8,0.3,1.2c0,0,0,0.1-0.1,0.1c0,0,0.8,0.3,0.6,1c-0.3,1.1-2,1-3.4,1.5c-1.9,1-3.4,4-8.8,5.1
	c-2,0.4-4,0.1-5.8-0.8C37,43.5,37.6,41.5,38.3,41.4"/>
<path class="st13" d="M51.3,39.5c0,0,0-3.6,0.7-3.5c1.3,0.3,1.1,2,0.9,2.9S51.3,39.5,51.3,39.5"/>
<path class="st6" d="M25.6,65c-0.5-0.5-1.5,0.4-1.5,0.4c-2.1,1.3-4.3,2.3-6.6,2.9c-1.8,0.4-3.6,0.5-5.4,0.4c-0.8-0.1-1.7,0-2.5,0.1
	l0.5,0.4c0,0-1.3,0.2-2.4,0.4c-0.7,0.2-1.4,0.4-2,0.7L7,70.7c-0.9,0.1-1.7,0.4-2.6,0.7c-0.7,0.3-1.3,0.7-1.8,1.2
	c3,1.3,6.3,1.7,9.6,1.3c8.9-1.4,10.6-4.4,12.7-6.8C25.3,66.8,26.1,65.6,25.6,65"/>
<path class="st3" d="M21.3,70.8c-1.1,0.5-2.3,1-3.5,1.4c-5.5,1.7-13.4,1-13.4,1c2.6,1,5.4,1.3,8.2,0.9
	C18.4,73.4,21.3,70.8,21.3,70.8"/>
<path class="st6" d="M22.2,22.9c0,0-0.7,1.5-1,2.2c-0.6,1.2-1.1,2.5-1.5,3.8l1.9-2.4c0,0-0.6,1.5-0.9,2.2c-0.2,0.6-0.6,2.2-0.6,2.2
	l1.5-2.1c0,0-0.3,1-0.7,2.3c-0.2,1-0.3,2-0.3,3c0,0,0.7-1.5,0.8-1.9c0.1-0.5,0.3-1,0.6-1.4L22.2,22.9z"/>
<path class="st6" d="M33.8,19c0,0-0.7-0.8-1-1.2c-0.5-0.7-1.1-1.3-1.8-1.8l0.4,2.1c0,0-0.8-0.7-1.1-1s-1.5-1.2-1.5-1.2l0.7,2.1
	c0,0-0.5-0.4-1.3-1.1s-1.3-1-1.3-1l1,3.3L33.8,19z"/>
</svg>
