<?xml version="1.0" encoding="utf-8"?>
<!-- Generator: Adobe Illustrator 26.2.1, SVG Export Plug-In . SVG Version: 6.00 Build 0)  -->
<svg version="1.1" id="Capa_1" xmlns="http://www.w3.org/2000/svg" xmlns:xlink="http://www.w3.org/1999/xlink" x="0px" y="0px"
	 viewBox="0 0 135 150.6" style="enable-background:new 0 0 135 150.6;" xml:space="preserve">
<style type="text/css">
	.st0{fill:#F0F0F0;}
	.st1{fill:#DAD8CC;}
	.st2{fill:none;stroke:#DAD8CC;stroke-width:0.32;stroke-linecap:round;stroke-linejoin:round;}
	.st3{fill-rule:evenodd;clip-rule:evenodd;fill:#FFFFFF;}
	.st4{fill:none;stroke:#DAD8CC;stroke-width:0.28;stroke-linecap:round;}
	.st5{fill:#A4A092;}
	.st6{fill:#0D181C;}
	.st7{fill:#FFFFFF;}
	.st8{fill:#1D1D1B;}
	.st9{fill:none;stroke:#1D1D1B;stroke-width:0.6;stroke-linecap:round;}
	.st10{fill-rule:evenodd;clip-rule:evenodd;fill:#E30613;}
	.st11{fill-rule:evenodd;clip-rule:evenodd;fill:#A4A092;}
	.st12{fill-rule:evenodd;clip-rule:evenodd;fill:#DAD8CC;}
	.st13{fill:none;stroke:#DAD8CC;stroke-width:0.28;stroke-linecap:round;stroke-linejoin:round;}
	.st14{fill:#B4B0A4;}
	.st15{fill:#E30613;}
</style>
<g id="Capa_2_00000097502445821570739280000012282046204454817191_">
	<g id="Capa_1-2">
		<path class="st0" d="M106.6,130.3c-4.8-1.2-4.8-1.2-8.7-2.6c-3.9-1.3-5.4-1.7-11-1.2c-1.3,0.1-4,0.5-5.3,0.3
			c-1.3-0.2-4.9,0.8-6.2,0.1c-3.5-2-10-0.1-13.7-0.1c-5.5,0.1-8.5-1.7-13.8,0.5c-5.3,2.1-10.5,6.6-13.5,13.6c0,4.9,1.4,3.6,5.6,4.6
			c5.1,1.2,17.3,0.9,22.4,1.8c9.3,1.7,18.7,2.5,28,1c7.1-1.1,14.1-3.7,21-7.5c0.9-0.5,2-1.4,2.1-2.9c0-0.7-0.2-1.4-0.4-2
			C111.8,132.4,109.3,129.4,106.6,130.3"/>
		<path class="st1" d="M15.1,39.5c0,0,12.7,4.3,15,4.7c4.9,1.2,10,1.9,15.1,2c3.8,0.1,4.3-1.8,5.6,0.8s3.1,9.9,3.1,9.9
			s19.7-8.1,19.9-9.5s3.2-15.1,1.1-18.4s-9.2-11-9.9-11.3s-11-1.6-11-1.6s-13,6.8-40.4,11.1C12.7,27.3,15.1,39.5,15.1,39.5"/>
		<path class="st2" d="M15.1,39.5c16.8,5.7,25.1,7.6,31.8,7c3-0.3,3-0.8,3.9,0.6c1.5,2.4,3.1,9.9,3.1,9.9"/>
		<path class="st3" d="M31.7,44.7c0,0,2.7,0.7,5.7,1.3c2.2,0.4,4.4,0.5,6.6,0.3c0,0,3-0.4,5.5-0.5c2.3,0,4.5-0.6,6.5-1.8L54.5,51
			l-2.5-5.4L50.2,52l-2.7-5.1c0,0-2.5,5.4-2.5,5.1s-1-3.7-1.4-5.1L41,51.5l-1-4.9l-3.4,4.6l-0.9-5.7c0,0-4.1,4.4-4,4
			S31.7,44.6,31.7,44.7"/>
		<path class="st4" d="M31.7,44.7c0,0,2.7,0.7,5.7,1.3c2.2,0.4,4.4,0.5,6.6,0.3c0,0,3-0.4,5.5-0.5c2.3,0,4.5-0.6,6.5-1.8L54.5,51
			l-2.5-5.4L50.2,52l-2.7-5.1c0,0-2.5,5.4-2.5,5.1s-1-3.7-1.4-5.1L41,51.5l-1-4.9l-3.4,4.6l-0.9-5.7c0,0-4.1,4.4-4,4
			S31.7,44.7,31.7,44.7z"/>
		<path class="st5" d="M54.2,15.7c-6.8,2.7-17.6,6.1-21.6,7.2c-4.5,1.3-16,2.8-16,2.8L14.4,29c7-0.7,13.9-1.7,20.7-3.2
			c9.2-2,19.1-5.5,23.1-4.8c12,2.2,3.1,20.8,10.3,27.1C80.2,13.5,53.5,15.7,54.2,15.7"/>
		<path class="st6" d="M1,29.4c0-2,17-3.8,17-3.8s-1.6,5.2-2.3,8.3c-1.2,4.9-0.8,5.8-0.8,5.8S1,33.6,1,29.4"/>
		<path class="st7" d="M60.5,27.6c0.6-2.5-0.9-6.2-3.4-5.8c-1.8,0.1-2.2,0.9-3.6,0.3c-1.2,0.5-1.6,0.9-1.9,1.8
			c-0.9,2.3-0.6,6.2,3,7.1c2.4,0.8,5-0.6,5.8-3.1C60.5,27.9,60.5,27.7,60.5,27.6"/>
		<path class="st8" d="M56.1,25.5c-0.2,0.4-0.1,0.9,0.3,1.1c0.1,0,0.1,0.1,0.2,0.1c0.4,0.2,0.9,0,1-0.4c0,0,0-0.1,0-0.1
			c0.2-0.4,0-0.9-0.5-1.1c0,0,0,0,0,0C56.7,24.9,56.3,25.1,56.1,25.5"/>
		<path class="st9" d="M51.3,22c2.4,0.4,4.8,0.3,7.1-0.2c1.5-0.3,3-1,4.3-1.8"/>
		<path class="st7" d="M47.2,86c-0.3,0.5-0.5,1-0.6,1.5c0,0.6,0.1,1.2,0.4,1.7c-0.7-0.3-1.2-1-1.4-1.8c0-0.5,0.2-1,0.4-1.5L47.2,86z
			"/>
		<path class="st4" d="M47.2,86c-0.3,0.5-0.5,1-0.6,1.5c0,0.6,0.1,1.2,0.4,1.7c-0.7-0.3-1.2-1-1.4-1.8c0-0.5,0.2-1,0.4-1.5L47.2,86z
			"/>
		<path class="st7" d="M51,86.1c-0.1,0.5-0.2,1.1-0.1,1.6c0.1,0.6,0.4,1.1,0.9,1.6c-0.8-0.1-1.5-0.6-1.8-1.3c-0.1-0.5-0.1-1,0-1.6
			L51,86.1z"/>
		<path class="st4" d="M51,86.1c-0.1,0.5-0.2,1.1-0.1,1.6c0.1,0.6,0.4,1.1,0.9,1.6c-0.8-0.1-1.5-0.6-1.8-1.3c-0.1-0.5-0.1-1,0-1.6
			L51,86.1z"/>
		<path class="st7" d="M43.5,82.5c-0.3,0.7-0.5,1.4-0.4,2.2c0.2,0.6,0.6,1.1,1,1.5C44,85.6,43.9,85,44,84.3c0.2-0.5,0.4-0.9,0.7-1.3
			L43.5,82.5z"/>
		<path class="st4" d="M43.5,82.5c-0.3,0.7-0.5,1.4-0.4,2.2c0.2,0.6,0.6,1.1,1,1.5C44,85.6,43.9,85,44,84.3c0.2-0.5,0.4-0.9,0.7-1.3
			L43.5,82.5z"/>
		<path class="st7" d="M44.9,77.5c-0.3,0.5-0.4,1-0.6,1.5c0,0.6,0.1,1.2,0.4,1.7c-0.7-0.3-1.2-1-1.4-1.8c0-0.5,0.2-1,0.4-1.5
			L44.9,77.5z"/>
		<path class="st4" d="M44.9,77.5c-0.3,0.5-0.4,1-0.6,1.5c0,0.6,0.1,1.2,0.4,1.7c-0.7-0.3-1.2-1-1.4-1.8c0-0.5,0.2-1,0.4-1.5
			L44.9,77.5z"/>
		<path class="st7" d="M41.2,74c-0.3,0.7-0.5,1.4-0.4,2.2c0.2,0.6,0.6,1.1,1,1.5c-0.1-0.6-0.2-1.3-0.2-1.9c0.2-0.5,0.4-0.9,0.7-1.3
			L41.2,74z"/>
		<path class="st4" d="M41.2,74c-0.3,0.7-0.5,1.4-0.4,2.2c0.2,0.6,0.6,1.1,1,1.5c-0.1-0.6-0.2-1.3-0.2-1.9c0.2-0.5,0.4-0.9,0.7-1.3
			L41.2,74z"/>
		<path class="st10" d="M55,57.5c0,0-1.7,4.1-3,6.8s-6.1,4.8-6.1,4.8s-0.6-5,1.9-7C50.2,60.4,52.6,58.8,55,57.5"/>
		<path class="st11" d="M89.8,104.2c0.9-0.9,3,0.7,3,0.7c4.1,2.5,8.4,4.5,13,5.9c3.5,0.7,7.1,1,10.7,0.9c4.1-0.1,4.9,0.3,4.9,0.3
			l-1.1,0.7c0,0,2.5,0.4,4.7,0.9c1.4,0.3,2.7,0.8,3.9,1.3l-2.7,0.7c1.7,0.3,3.4,0.7,5.1,1.3c1.3,0.5,2.6,1.3,3.6,2.3
			c0,0-9.2,4.1-19,2.6c-17.6-2.9-21-8.8-25.2-13.6C90.4,107.8,88.7,105.3,89.8,104.2"/>
		<path class="st12" d="M95.6,113.5c0,0,6,2.2,8.9,3.2c8.8,2.8,17.9,4.1,27.1,3.7c0,0-6.4,2.9-16.2,1.7
			C102.4,120.5,95.6,113.5,95.6,113.5"/>
		<path class="st13" d="M131.7,120.4c0,0-6.4,2.9-16.2,1.7c-13.1-1.6-19.8-8.6-19.8-8.6"/>
		<path class="st5" d="M70.9,52.8c-1.3-0.8-4.1-1.2-4.9,3.6s-1.6,9.9-4.1,11c-3.5,1.6-13.3,1-15.7,1.6c-2.9,0.7-5.9,3.6-4.9,5
			s2.8-0.5,2.8-0.5s-1.8,3-0.2,3.8s2.6-1.6,2.6-1.6s0,2.4,1.5,2.3s2.4-3.5,2.4-3.5s15.2,1.1,18-2.7c2.6-3.5,3.5-8.2,4.1-11.4
			S72.8,54,70.9,52.8"/>
		<path class="st7" d="M48.7,77.5c-0.1,0.5-0.2,1.1-0.1,1.6c0.1,0.6,0.4,1.1,0.9,1.6c-0.8-0.1-1.5-0.6-1.8-1.3c-0.1-0.5-0.1-1,0-1.6
			L48.7,77.5z"/>
		<path class="st2" d="M48.7,77.5c-0.1,0.5-0.2,1.1-0.1,1.6c0.1,0.6,0.4,1.1,0.9,1.6c-0.8-0.1-1.5-0.6-1.8-1.3c-0.1-0.5-0.1-1,0-1.6
			L48.7,77.5z"/>
		<path class="st5" d="M83.5,49.7c0,0,0.9,5.7,3.1,8c1.3,1.3,2.4,2.8,3.4,4.3l-3.6-1c2,1.3,3.6,3,4.9,5c0.7,1.1,1.2,2.3,1.7,3.6
			l-2.3-1.4c1.9,2.3,3.5,4.7,4.8,7.3c2,4-0.2,1.2-0.2,1.2s2.1,7,2.9,11.6c-0.8-1.3-1.7-2.6-2.7-3.8c0.9,3.2,1.6,6.5,2,9.8
			c-0.6-1.2-1.4-2.3-2.4-3.2c-0.1,3.4-0.5,6.7-1.1,10c-1.3,6.2-3.4,9.4-5.4,11s-23.4,2.8-26.4,0C55.3,106,56.7,73.4,57,68
			c0.1-3.3-0.9-6.6-2.7-9.3L83.5,49.7z"/>
		<path class="st5" d="M72.6,17.8c0,0,7.7-6,10.9-7.4s7.2-0.9,6.5,0c-5.5,6.7-8.8,16.1-8.8,16.1L72.6,17.8z"/>
		<path class="st5" d="M58.4,14.2c0,0,5.8-7.3,8-9s4.1-1.9,4-1.3s-1.1,5.2-1.3,6.7s-0.7,4.8-0.7,4.8L58.4,14.2z"/>
		<path class="st14" d="M71.7,59.8c-1.3-0.8-4.1-0.9-4.7,3.9s-1,10-3.4,11.3c-3.4,1.8-13.2,1.9-15.6,2.6c-2.8,0.8-5.7,3.9-4.6,5.3
			s2.8-0.7,2.8-0.7s-1.6,3.1,0,3.8s2.5-1.8,2.5-1.8s0.1,2.4,1.6,2.2s2.2-3.6,2.2-3.6s15.2,0.1,17.8-3.8c2.4-3.7,3-8.4,3.4-11.6
			S73.7,60.9,71.7,59.8"/>
		<path class="st7" d="M59.4,133.3c0.3,0.5,0.6,0.9,1,1.3c0.5,0.3,1.1,0.5,1.7,0.6c-0.7,0.4-1.5,0.5-2.2,0.2
			c-0.4-0.3-0.8-0.7-1.1-1.1L59.4,133.3z"/>
		<path class="st2" d="M59.4,133.3c0.3,0.5,0.6,0.9,1,1.3c0.5,0.3,1.1,0.5,1.7,0.6c-0.7,0.4-1.5,0.5-2.2,0.2
			c-0.4-0.3-0.8-0.7-1.1-1.1L59.4,133.3z"/>
		<path class="st7" d="M61.2,130c0.5,0.2,1,0.3,1.6,0.3c0.6-0.1,1.2-0.3,1.6-0.7c-0.2,0.8-0.8,1.4-1.5,1.6c-0.5,0.1-1.1,0-1.6-0.2
			L61.2,130z"/>
		<path class="st2" d="M61.2,130c0.5,0.2,1,0.3,1.6,0.3c0.6-0.1,1.2-0.3,1.6-0.7c-0.2,0.8-0.8,1.4-1.5,1.6c-0.5,0.1-1.1,0-1.6-0.2
			L61.2,130z"/>
		<path class="st7" d="M54.7,135.2c0,0,0.5,1.4,1.3,1.8c0.6,0.2,1.2,0.4,1.8,0.3c-0.5-0.3-1-0.7-1.5-1.2c-0.2-0.4-0.4-0.9-0.4-1.4
			L54.7,135.2z"/>
		<path class="st2" d="M54.7,135.2c0,0,0.5,1.4,1.3,1.8c0.6,0.2,1.2,0.4,1.8,0.3c-0.5-0.3-1-0.7-1.5-1.2c-0.2-0.4-0.4-0.9-0.4-1.4
			L54.7,135.2z"/>
		<path class="st7" d="M78.9,135.2c-0.5-0.2-1-0.3-1.6-0.3c-0.6,0.1-1.2,0.3-1.6,0.6c0.2-0.8,0.8-1.4,1.6-1.6c0.5-0.1,1.1,0,1.5,0.2
			L78.9,135.2z"/>
		<path class="st2" d="M78.9,135.2c-0.5-0.2-1-0.3-1.6-0.3c-0.6,0.1-1.2,0.3-1.6,0.6c0.2-0.8,0.8-1.4,1.6-1.6c0.5-0.1,1.1,0,1.5,0.2
			L78.9,135.2z"/>
		<path class="st7" d="M81.2,138c-0.5,0.1-1,0.3-1.5,0.6c-0.5,0.4-0.8,0.9-1,1.5c-0.3-0.8-0.1-1.6,0.4-2.2c0.4-0.3,0.9-0.6,1.4-0.7
			L81.2,138z"/>
		<path class="st2" d="M81.2,138c-0.5,0.1-1,0.3-1.5,0.6c-0.5,0.4-0.8,0.9-1,1.5c-0.3-0.8-0.1-1.6,0.4-2.2c0.4-0.3,0.9-0.6,1.4-0.7
			L81.2,138z"/>
		<path class="st7" d="M85.1,138.6c-0.5,0.1-1,0.3-1.5,0.6c-0.5,0.4-0.8,0.9-1,1.4c-0.2-0.8-0.1-1.6,0.4-2.2
			c0.4-0.4,0.9-0.6,1.4-0.7L85.1,138.6z"/>
		<path class="st2" d="M85.1,138.6c-0.5,0.1-1,0.3-1.5,0.6c-0.5,0.4-0.8,0.9-1,1.4c-0.2-0.8-0.1-1.6,0.4-2.2
			c0.4-0.4,0.9-0.6,1.4-0.7L85.1,138.6z"/>
		<path class="st5" d="M62.6,106.2c0,0-9.4,5.8-10.9,10s0.2,17.4,3,19.2c1.9,1.2,1.5-2.1,1.5-2.1s1.9,2.4,3.4,1.1
			c0.9-0.9-1-3.1-1-3.1s3.1,1.2,3.2-0.7s-3.9-3-3.9-3c-1.2-2.4-1.7-5.1-1.6-7.8c0.4-3.9,8.6-8.5,8.6-8.5L62.6,106.2z"/>
		<path class="st5" d="M82.2,109.8c0,0-1.7,7.3-1.5,12c0.2,3.6,0.7,7.1,1.5,10.6c0,0-4.6,0.7-3.6,2.6c0.9,1.7,3.2,0.1,3.2,0.1
			s-3.2,1.8-1.6,2.9c2,1.4,4.1-1.6,4.1-1.6s-1.1,1.5-0.1,2.3c2.4,2,3.8-3.2,3.5-5.2c0,0-2.7-8.5-1.9-13.3c0.8-3.9,1.8-7.7,3.1-11.4
			L82.2,109.8z"/>
		<polygon class="st1" points="80,21 83.5,14.4 77.1,17.8 		"/>
		<path class="st1" d="M67.6,54.8c0,1.8-0.2,3.5-0.7,5.2c-0.4,1.3-0.9,2.5-1.6,3.7l-0.8-3c-0.2,2.5-0.5,4.9-1,7.3
			c-0.5-0.9-0.9-1.8-1.2-2.8c0,0-0.7,5.2-1.2,6.4c-1-2.7-1.9-3.4-1.9-3.4c-0.1,1.4-0.2,2.8-0.5,4.2c-0.4,1.2-1,2.4-1.7,3.5
			c0,0-0.9-5.7-1.1-9.2c-0.2-3-0.9-6-2-8.8c0,0,6,0.1,6.8-3s7.1-3.4,7.1-3.4L67.6,54.8z"/>
		<path class="st15" d="M52.8,56.9c0,0,12.6-4.3,16.2-18s-6-20.6-9.1-22c-2.3-1.1-4.8-1.4-7.3-1.1c0,0-1.8-0.3,2.7-1.9
			c7.2-2.6,16.4,0.3,20.8,3.2C81.3,20.6,87.2,33.3,90,39s10.5,12.9,10.5,12.9s-8.3,2.9-14.7,1.3c-6.7-1.6-12.5,0.7-15.2,1.5
			c-4.2,1.2-16.9,4-16.9,4L52.8,56.9z"/>
		<path class="st3" d="M84.7,44.9c0,0.6,0.5,1.1,1.1,1.1c0.6,0,1.1-0.5,1.1-1.1c0-0.6-0.5-1.1-1.1-1.1c0,0,0,0,0,0
			C85.2,43.9,84.7,44.3,84.7,44.9L84.7,44.9"/>
		<path class="st3" d="M79.2,42.8c0,0.6,0.5,1.1,1.1,1.1c0.6,0,1.1-0.5,1.1-1.1c0-0.6-0.5-1.1-1.1-1.1c0,0,0,0,0,0
			C79.7,41.7,79.2,42.2,79.2,42.8"/>
		<path class="st3" d="M71.7,46c0,0.6,0.5,1.1,1.1,1.1c0.6,0,1.1-0.5,1.1-1.1c0-0.6-0.5-1.1-1.1-1.1c0,0,0,0,0,0
			C72.2,44.9,71.7,45.4,71.7,46C71.7,46,71.7,46,71.7,46"/>
		<path class="st3" d="M69.2,51.5c0,0.6,0.4,1.1,1,1.2c0.6,0,1.1-0.4,1.2-1c0-0.6-0.4-1.1-1-1.2c0,0-0.1,0-0.1,0
			C69.7,50.5,69.3,50.9,69.2,51.5"/>
		<path class="st3" d="M66.6,47.4c0,0.6,0.5,1.1,1.1,1.1c0.6,0,1.1-0.5,1.1-1.1s-0.5-1.1-1.1-1.1C67.1,46.3,66.6,46.8,66.6,47.4
			C66.6,47.4,66.6,47.4,66.6,47.4"/>
		<path class="st3" d="M62.2,52.9c0,0.6,0.5,1.1,1.1,1.1s1.1-0.5,1.1-1.1c0-0.6-0.5-1.1-1.1-1.1c0,0-0.1,0-0.1,0
			C62.7,51.9,62.2,52.3,62.2,52.9"/>
		<path class="st3" d="M57,56.4c0,0.6,0.5,1.1,1.1,1.1c0.6,0,1.1-0.5,1.1-1.1c0-0.6-0.5-1.1-1.1-1.1c0,0,0,0,0,0
			C57.5,55.3,57,55.8,57,56.4C57,56.4,57,56.4,57,56.4"/>
		<path class="st3" d="M71.2,36.7c0,0.6,0.5,1.1,1.1,1.1c0.6,0,1.1-0.5,1.1-1.1c0-0.6-0.5-1.1-1.1-1.1c0,0,0,0,0,0
			C71.7,35.6,71.2,36.1,71.2,36.7C71.2,36.7,71.2,36.7,71.2,36.7"/>
		<path class="st3" d="M79,36.3c0,0.6,0.5,1.1,1.1,1.1c0.6,0,1.1-0.5,1.1-1.1c0-0.6-0.5-1.1-1.1-1.1c0,0,0,0,0,0
			C79.5,35.2,79.1,35.7,79,36.3"/>
		<path class="st3" d="M81.4,30.1c0,0.6,0.5,1.1,1.1,1.1c0.6,0,1.1-0.5,1.1-1.1c0-0.6-0.5-1.1-1.1-1.1S81.4,29.5,81.4,30.1
			C81.4,30.1,81.4,30.1,81.4,30.1"/>
		<path class="st3" d="M73.7,32.6c0,0.6,0.5,1.1,1.1,1.1s1.1-0.5,1.1-1.1c0-0.6-0.5-1.1-1.1-1.1c0,0,0,0,0,0
			C74.2,31.5,73.7,32,73.7,32.6C73.7,32.6,73.7,32.6,73.7,32.6"/>
		<path class="st3" d="M74,40.8c0,0.6,0.5,1.1,1.1,1.1c0.6,0,1.1-0.5,1.1-1.1c0-0.6-0.5-1.1-1.1-1.1c0,0,0,0,0,0
			C74.5,39.7,74,40.2,74,40.8"/>
		<path class="st3" d="M77.1,48.7c0,0.6,0.5,1.1,1.1,1.1l0,0c0.6-0.1,1-0.6,1-1.2c0-0.5-0.5-0.9-1-1C77.5,47.6,77.1,48.1,77.1,48.7"
			/>
		<path class="st3" d="M83.5,50.8c0,0.6,0.5,1.1,1.1,1.1c0.6,0,1.1-0.5,1.1-1.1c0-0.6-0.5-1.1-1.1-1.1c0,0,0,0,0,0
			C83.9,49.7,83.5,50.1,83.5,50.8C83.5,50.7,83.5,50.7,83.5,50.8"/>
		<path class="st3" d="M91.1,50.8c0,0.6,0.5,1.1,1.1,1.1s1.1-0.5,1.1-1.1c0-0.6-0.5-1.1-1-1.1C91.6,49.7,91.2,50.1,91.1,50.8
			C91.2,50.7,91.2,50.7,91.1,50.8"/>
		<path class="st3" d="M90,45.3c0,0.6,0.5,1.1,1.1,1.1c0.6,0,1.1-0.5,1.1-1.1c0-0.6-0.5-1.1-1.1-1.1c0,0,0,0,0,0
			C90.5,44.2,90,44.7,90,45.3"/>
		<path class="st3" d="M76.4,26.3c0,0.6,0.5,1.1,1.1,1.1c0.6,0,1.1-0.5,1.1-1.1c0-0.6-0.5-1.1-1.1-1.1c0,0,0,0,0,0
			C76.9,25.2,76.4,25.7,76.4,26.3C76.4,26.3,76.4,26.3,76.4,26.3"/>
		<path class="st3" d="M73.7,19.8c0,0.6,0.5,1.1,1.1,1.1s1.1-0.5,1.1-1.1c0-0.6-0.5-1.1-1.1-1.1c0,0,0,0,0,0
			C74.2,18.7,73.7,19.2,73.7,19.8C73.7,19.8,73.7,19.8,73.7,19.8"/>
		<path class="st3" d="M70.5,25.7c0,0.6,0.5,1.1,1.1,1.1c0.6,0,1.1-0.5,1.1-1.1c0-0.6-0.5-1.1-1.1-1.1S70.5,25.1,70.5,25.7
			C70.5,25.7,70.5,25.7,70.5,25.7"/>
		<path class="st3" d="M68.4,19.8c0,0.6,0.5,1.1,1.1,1.1s1.1-0.5,1.1-1.1s-0.5-1.1-1.1-1.1C68.9,18.7,68.4,19.2,68.4,19.8
			C68.4,19.8,68.4,19.8,68.4,19.8"/>
		<path class="st3" d="M64.4,15.1c0,0.6,0.5,1.1,1.1,1.1s1.1-0.5,1.1-1.1S66,14,65.4,14C64.8,14,64.4,14.4,64.4,15.1
			C64.4,15,64.4,15,64.4,15.1"/>
		<path class="st3" d="M84.5,37.3c0,0.6,0.5,1.1,1.1,1.1c0.6-0.1,1-0.6,1-1.2c0-0.5-0.5-0.9-1-1C85,36.3,84.5,36.7,84.5,37.3
			L84.5,37.3"/>
		<path class="st9" d="M58.1,40.1c0,0,0.4,4.9-6.8,5.6c-6.5,1.2-13.3,0.8-19.7-1"/>
		<path class="st10" d="M51.3,58.7c0.1,1.2,1,2.2,2.2,2.3c0.8-0.1,1.6-0.4,2.1-1c0.4-0.3,0.6-0.8,0.6-1.3c0-1.3-1.8-2.3-2.7-2.3
			C52.3,56.6,51.4,57.6,51.3,58.7"/>
		<path class="st10" d="M54.2,58.6c0,0,2.6,3.6,4.1,6.1s0.9,7.8,0.9,7.8s-4.6-2.1-5-5.4C54,64.3,54,61.5,54.2,58.6"/>
	</g>
</g>
</svg>
