<?xml version="1.0" encoding="utf-8"?>
<!-- Generator: Adobe Illustrator 26.2.1, SVG Export Plug-In . SVG Version: 6.00 Build 0)  -->
<svg version="1.1" id="Capa_1" xmlns="http://www.w3.org/2000/svg" xmlns:xlink="http://www.w3.org/1999/xlink" x="0px" y="0px"
	 viewBox="0 0 83 177.3" style="enable-background:new 0 0 83 177.3;" xml:space="preserve">
<style type="text/css">
	.st0{fill:#F1F1F1;}
	.st1{fill:#814114;}
	.st2{fill:#E30613;}
	.st3{clip-path:url(#SVGID_00000013901212893403663320000006991981197418449316_);}
	.st4{fill:#FFFFFF;}
	.st5{clip-path:url(#SVGID_00000112594988514956944810000011073242893227697549_);}
	.st6{fill:#F39200;}
	.st7{clip-path:url(#SVGID_00000099645410359543604470000008320603501635996069_);}
	.st8{fill:#FCC700;}
	.st9{clip-path:url(#SVGID_00000121982761101601566100000009467367740954851478_);}
	.st10{clip-path:url(#SVGID_00000090286495990124415150000001052201071897695375_);}
	.st11{clip-path:url(#SVGID_00000114793114171550110970000006832529209614905733_);}
	.st12{fill:#1D1D1B;}
	.st13{clip-path:url(#SVGID_00000043457366680796121770000009845642999133331858_);}
	.st14{clip-path:url(#SVGID_00000142142914792449723580000001532961843958700175_);}
	.st15{fill:#F3A5C2;}
	.st16{fill:#DAD8CC;}
	.st17{fill:#0D181C;}
	.st18{fill:none;stroke:#1D1D1B;stroke-width:0.6;stroke-linecap:round;}
	.st19{fill:#A85318;}
	.st20{fill:none;stroke:#1D1D1B;stroke-width:0.8;}
</style>
<g id="Capa_2_00000097502445821570739280000012282046204454817191_">
	<g id="Capa_1-2">
		<path class="st0" d="M75.7,156.4c-5-1.4-5-1.4-9.2-2.8s-5.7-1.9-11.5-1.3c-1.3,0.1-4.2,0.5-5.5,0.4c-1.4-0.2-5.2,0.9-6.5,0.1
			c-3.7-2.3-10.5-0.1-14.4-0.1c-5.8,0.1-8.9-1.8-14.4,0.5c-5.6,2.4-11,7.3-14.1,15.1c0,5.5,1.4,3.9,5.9,5.1c5.3,1.3,18.2,1,23.5,2
			c9.8,1.9,19.6,2.7,29.4,1.1c7.4-1.3,14.8-4.1,22-8.3c1-0.6,2.1-1.5,2.2-3.2c0-0.8-0.2-1.6-0.4-2.2
			C81.1,158.8,78.5,155.4,75.7,156.4"/>
		<rect x="23.1" y="70.5" class="st1" width="32.9" height="85"/>
		<path class="st2" d="M48.1,112.5c0,0,1.1,12.2,1.8,17.3c0.9,6.2,1.5,12.4,1.6,18.7l-6.3,0.3l-0.8-3.2c-1.5,0.2-3.1,0.3-4.7,0.4
			c-2-0.1-4-0.3-6-0.6l-0.8,3.5h-6c0.2-3.8,0-7.5,2.3-22.9c1-6.7,1.8-16.7,1.8-16.7s7.5,2,10.3,1.8c2.2-0.3,4.4-0.9,6.5-1.8
			L48.1,112.5z"/>
		<g>
			<defs>
				<path id="SVGID_1_" d="M41.4,111.1c-2.8,0.2-10.3-1.8-10.3-1.8s-0.8,10-1.8,16.7c-2.3,15.3-2.1,19-2.3,22.9h6l0.8-3.5
					c2,0.4,4,0.6,6,0.6c1.6-0.1,3.1-0.2,4.7-0.4l0.8,3.2l6.3-0.3c-0.2-6.3-0.7-12.5-1.6-18.7c-0.7-5-1.8-17.3-1.8-17.3l-0.2-3.3
					C45.9,110.2,43.7,110.8,41.4,111.1"/>
			</defs>
			<clipPath id="SVGID_00000122687848957923979260000015703537566426571687_">
				<use xlink:href="#SVGID_1_"  style="overflow:visible;"/>
			</clipPath>
			<g style="clip-path:url(#SVGID_00000122687848957923979260000015703537566426571687_);">
				<path class="st4" d="M26.7,139.2c0,0,3.8,2.5,13.4,2.6c4.3-0.1,8.7-0.7,12.8-2l-0.3-4.8c0,0-7.4,2.1-13,1.9
					c-4.1-0.2-8.1-0.9-12-2.2L26.7,139.2z"/>
				<path class="st4" d="M51.6,130.2c-3.9,1.4-8,2-12.2,1.9c-7.8-0.5-11.5-2.4-11.5-2.4l0.6-4.4c3.7,1.1,7.5,1.8,11.4,1.8
					c7.5,0.2,10.6-1.6,11.6-1.6V130.2z"/>
				<path class="st4" d="M51.7,120.1c-3.5,1.5-7.3,2.2-11.2,2.2c-7.8-0.1-11.6-1.9-11.6-1.9l0.4-4.5c0,0,4,2.2,10.8,2.1
					c7.5-0.1,10.4-2.1,11.4-2.2C51.5,117.1,51.7,120.1,51.7,120.1"/>
			</g>
		</g>
		<g>
			<defs>
				<rect id="SVGID_00000025417137227554253380000013152770767737923755_" x="23.1" y="70.5" width="32.9" height="85"/>
			</defs>
			<clipPath id="SVGID_00000034051726450879395350000003035161179312266625_">
				<use xlink:href="#SVGID_00000025417137227554253380000013152770767737923755_"  style="overflow:visible;"/>
			</clipPath>
			<g style="clip-path:url(#SVGID_00000034051726450879395350000003035161179312266625_);">
				<path class="st6" d="M35.7,72.4c-3.4-5.6-7.7-6.5-8.1-6.6s3.2,3.4,4.9,8c0.5,1.5,0.8,3,0.8,4.6l4.2-1.2
					C37.2,75.5,36.6,73.9,35.7,72.4"/>
			</g>
		</g>
		<g>
			<defs>
				<path id="SVGID_00000054957451039734485050000007886458458200978346_" d="M30.9,70.5c0.6,1,1.1,2.1,1.6,3.3
					c0.5,1.5,0.8,3,0.8,4.6l4.2-1.2c-0.3-1.7-1-3.3-1.8-4.8c-0.4-0.6-0.8-1.3-1.3-1.8H30.9z"/>
			</defs>
			<clipPath id="SVGID_00000083767494661557956760000013813756763674525621_">
				<use xlink:href="#SVGID_00000054957451039734485050000007886458458200978346_"  style="overflow:visible;"/>
			</clipPath>
			<g style="clip-path:url(#SVGID_00000083767494661557956760000013813756763674525621_);">
				<path class="st8" d="M37.2,74.2c0,0-1.6,0.6-3.3,1.1c-0.7,0.2-1.4,0.4-2.1,0.6l-1.3-2.3c1.6-0.7,3.2-1.3,4.9-1.8
					C37.2,71.3,37.2,74.2,37.2,74.2"/>
				<path class="st8" d="M34.3,69c0,0-1.5,0.7-3.2,1.4c-0.7,0.3-1.4,0.6-2.1,0.8l-1.5-2.1c0,0,2.9-1.6,4.7-2.2
					C33.9,66.2,34.3,69,34.3,69"/>
			</g>
		</g>
		<g>
			<defs>
				<rect id="SVGID_00000062907119249689829190000011140168875227507329_" x="23.1" y="70.5" width="32.9" height="85"/>
			</defs>
			<clipPath id="SVGID_00000050649300746021294190000011670589505092627860_">
				<use xlink:href="#SVGID_00000062907119249689829190000011140168875227507329_"  style="overflow:visible;"/>
			</clipPath>
			<g style="clip-path:url(#SVGID_00000050649300746021294190000011670589505092627860_);">
				<path class="st6" d="M44.6,72.8c3.4-5.6,8-7.1,8.4-7.2s-2.7,3.6-5.1,8.8c-0.5,1.3-1,2.7-1.3,4.1l-4.3-1.3
					C43,75.7,43.8,74.2,44.6,72.8"/>
			</g>
		</g>
		<g>
			<defs>
				<path id="SVGID_00000021831027616517059070000000837953519646699177_" d="M46.2,70.5c-0.6,0.7-1.1,1.5-1.6,2.3
					c-0.8,1.4-1.6,2.9-2.2,4.4l4.3,1.3c0.3-1.4,0.8-2.7,1.3-4.1c0.6-1.3,1.3-2.6,2.1-3.9H46.2z"/>
			</defs>
			<clipPath id="SVGID_00000003079692527675024280000016565893682944191138_">
				<use xlink:href="#SVGID_00000021831027616517059070000000837953519646699177_"  style="overflow:visible;"/>
			</clipPath>
			<g style="clip-path:url(#SVGID_00000003079692527675024280000016565893682944191138_);">
				<path class="st8" d="M43,74c0,0,1.6,0.6,3.3,1.1c0.7,0.2,1.4,0.4,2.1,0.6l1.3-2.2c-1.6-0.7-3.2-1.3-4.9-1.8
					C43.1,71.1,43,74,43,74"/>
				<path class="st8" d="M46,68.9c0,0,1.5,0.7,3.2,1.4c0.7,0.3,1.4,0.6,2.1,0.8l1.5-2c-1.5-0.8-3.1-1.6-4.7-2.2
					C46.3,66.1,46,68.9,46,68.9"/>
			</g>
		</g>
		<path class="st2" d="M31.4,107.3c0,0-4.5,4.8-5.6,9.7c-1.2,5.6,3.2,11.3,3.2,11.3l3.2-2.4c0,0-3-4.8-3-6.4c0.1-2.6,1.2-5.1,3-7
			L31.4,107.3z"/>
		<g>
			<defs>
				<path id="SVGID_00000088812983519098884660000012505008130016715189_" d="M25.8,117c-1.2,5.6,3.2,11.3,3.2,11.3l3.2-2.4
					c0,0-3-4.8-3-6.4c0.1-2.6,1.2-5.1,3-7l-0.8-5.2C31.4,107.3,26.9,112.1,25.8,117"/>
			</defs>
			<clipPath id="SVGID_00000087407614091751435700000005340983478504179340_">
				<use xlink:href="#SVGID_00000088812983519098884660000012505008130016715189_"  style="overflow:visible;"/>
			</clipPath>
			<g style="clip-path:url(#SVGID_00000087407614091751435700000005340983478504179340_);">
				<polygon class="st4" points="31.6,116.8 24.3,109.4 25.5,108.3 32.8,115.9 				"/>
				<polygon class="st4" points="30.2,119.3 21.4,114 22.3,112.6 31.1,118.2 				"/>
				<polygon class="st4" points="30.9,121.1 20.7,122.3 20.6,120.7 30.9,119.7 				"/>
				<polygon class="st4" points="33.4,122.4 24.8,128.1 24,126.7 32.8,121.1 				"/>
			</g>
		</g>
		<path class="st12" d="M29,128.4c0,0,2.9,4.7,3.4,4.1c0.5-0.6-0.9-3.3-0.9-3.3s2.8,2,3.3,1.3s-2.8-4.4-2.8-4.4L29,128.4z"/>
		<path class="st2" d="M48.7,108c2.1,2.7,3.5,5.8,4.2,9.1c1,5.7-3.7,11.2-3.7,11.2l-3.1-2.5c0,0,3.2-4.6,3.3-6.3
			c0.2-2.2-0.5-4.4-1.9-6.1L48.7,108z"/>
		<g>
			<defs>
				<path id="SVGID_00000016065353177875338620000007206427928522045111_" d="M47.6,113.4c1.5,1.7,2.2,3.9,1.9,6.1
					c-0.1,1.7-3.3,6.3-3.3,6.3l3.1,2.5c0,0,4.7-5.5,3.7-11.2c-0.7-3.3-2.2-6.5-4.2-9.2L47.6,113.4z"/>
			</defs>
			<clipPath id="SVGID_00000065789165117623565520000015233758470023546268_">
				<use xlink:href="#SVGID_00000016065353177875338620000007206427928522045111_"  style="overflow:visible;"/>
			</clipPath>
			<g style="clip-path:url(#SVGID_00000065789165117623565520000015233758470023546268_);">
				<polygon class="st4" points="47.2,116.6 54.8,109.7 53.7,108.5 46.1,115.7 				"/>
				<polygon class="st4" points="48.5,119.3 57.6,114.3 56.7,112.9 47.6,118.1 				"/>
				<polygon class="st4" points="47.7,121 57.9,122.7 58.1,121.1 47.7,119.6 				"/>
				<polygon class="st4" points="45.1,122.2 53.5,128.3 54.4,126.9 45.8,120.9 				"/>
			</g>
		</g>
		<g>
			<defs>
				<rect id="SVGID_00000178170433544188844710000004922178253986453933_" x="23.1" y="70.5" width="32.9" height="85"/>
			</defs>
			<clipPath id="SVGID_00000080928649373712907490000014973831444867170979_">
				<use xlink:href="#SVGID_00000178170433544188844710000004922178253986453933_"  style="overflow:visible;"/>
			</clipPath>
			<g style="clip-path:url(#SVGID_00000080928649373712907490000014973831444867170979_);">
				<path class="st15" d="M15.2,91.4c0,0,6.5-0.9,10-3.6c4.5-3.4,7.4-6.2,7.5-6.8s-3.3-1.6-6.7-0.1S15.2,91.4,15.2,91.4"/>
				<path class="st16" d="M33.7,80.2c-3.4-1.3-7-1.4-10.5-0.3c-3.4,1.2-6,3.9-7.2,7.3c-0.9,2.9-1.7,4.5-0.9,4.3c1-0.6,3.9-4.6,7.4-7
					C25.9,82.4,29.7,80.9,33.7,80.2"/>
				<path class="st15" d="M64.1,90.6c-3.6,0.3-7.3-0.6-10.3-2.6c-4.7-3.2-6.8-6.2-7-6.8s6.3,1.2,9.8,2.1S64.1,90.5,64.1,90.6"/>
				<path class="st16" d="M58.3,81.1c3.1,1.7,5.4,4.7,6,8.3c0.3,2-0.3,1.2-1.2,0.4s-2.6-4-6.4-5.7c-2-0.9-4.1-1.5-6.3-1.6l-2.1-2.9
					C51.6,78.8,55.2,79.4,58.3,81.1"/>
				<path class="st16" d="M27.2,93.9c0.7,6.5,3.7,23.3,13.2,22.1s9.3-10.4,11.1-15.6c2.2-6.2,0.2-19.8-3.3-22.4s-12.5-2.6-16.3,0.7
					S26.5,87.4,27.2,93.9"/>
				<path class="st17" d="M49.1,128.2c0,0-2.5,4.7-3.1,4.1s0.7-3.3,0.7-3.3s-2.7,2.1-3.2,1.5s2.7-4.7,2.7-4.7L49.1,128.2z"/>
				<path class="st4" d="M43.5,87.3c-0.4,1.8,0,4.5,2.8,4.8c3.2,0.3,4.1-1.8,4.2-3.1c0.4-2-1-4-3-4.4C45.2,84.1,43.8,86.2,43.5,87.3
					"/>
				<path class="st12" d="M46.2,88.8c-0.1,0.3,0,0.6,0.3,0.8c0,0,0.1,0,0.1,0c0.3,0.1,0.6-0.1,0.7-0.4c0,0,0-0.1,0-0.1
					c0.1-0.3-0.1-0.7-0.5-0.7c0,0,0,0,0,0C46.6,88.3,46.3,88.5,46.2,88.8"/>
				<path class="st4" d="M28.7,88c-0.5,1.7-0.2,4.5,2.4,4.9c1.8,0.5,3.6-0.6,4.1-2.4c0-0.2,0.1-0.3,0.1-0.5c0.5-2-0.7-4-2.7-4.6
					c0,0,0,0,0,0C30.5,84.8,29,86.9,28.7,88"/>
				<path class="st12" d="M31.4,89.4c-0.1,0.3,0,0.6,0.3,0.8c0,0,0.1,0,0.1,0c0.3,0.1,0.6-0.1,0.7-0.4c0,0,0-0.1,0-0.1
					c0.1-0.3-0.1-0.7-0.5-0.7C31.7,89,31.4,89.1,31.4,89.4"/>
				<path class="st18" d="M39.7,111.8c0,0.8,0.1,1.7,0.3,2.5c0.2,0.5,0.5,1,0.8,1.5"/>
				<path class="st18" d="M46,113.5c0.4-0.5,0.6-1.2,0.5-1.8c-0.1-0.4-0.2-0.8-0.5-1.1"/>
				<path class="st15" d="M39.8,112c0.6,0,1.7-1.1,2.6-2.2s1.8-2.2,0.2-3.2c-1.8-0.9-4-0.9-5.8,0c-1.4,0.9-0.6,2-0.1,2.6
					C37.6,110.1,39.2,112,39.8,112"/>
				<polygon class="st8" points="40.8,68.6 33.3,128.1 30.8,127.8 38.3,68.6 				"/>
				<path class="st8" d="M37.5,133.3c-0.3,3.3-3.3,5.7-6.6,5.4c-3.3-0.3-5.7-3.3-5.4-6.6c0.3-3.3,3.2-5.7,6.5-5.4
					C35.4,127.1,37.8,130,37.5,133.3C37.5,133.3,37.5,133.3,37.5,133.3"/>
				<path class="st8" d="M34.3,100.1c-0.9,3.7-2.1,7.4-3.5,11c-1.7,4-3,7.6-2,10c0.8,2,6.4,2.5,7.7,1.2c2.1-2.2,1.2-6.2,0.8-10.3
					c-0.5-4.6-0.5-11.6-0.5-11.6L34.3,100.1z"/>
				<path class="st16" d="M32.2,148.8l-0.9,10.7c-1.1,0.1-2.1,0.1-3.2,0c0-0.1,0.9-10.7,0.9-10.7H32.2z"/>
				<path class="st16" d="M47.3,148.7l0.8,10.7c1.1,0,2.1-0.1,3.2-0.3c0-0.1-0.9-10.6-0.9-10.6L47.3,148.7z"/>
			</g>
		</g>
		<path class="st19" d="M61.1,25.5h-3.4c0,0,2.7-3.5,1.6-6.5c-1.2-3.2-6.6-3.1-6.6-3.1s3.1,1.4,3.3,3.8c0,2.3-1.2,4.4-3.1,5.6v0.2
			h-0.7c-3.3,0.2-21.9,0.2-25.2,0h-0.8v-0.2c-1.9-1.2-3-3.3-3-5.5c0.2-2.5,3.3-3.8,3.3-3.8s-5.4-0.1-6.6,3.1c-1.1,3,1.6,6.5,1.6,6.5
			H10.2v43.8c0,0,6.7,1.2,8.3,11.4c0.9,5.7,0.3,78.2,0.3,78.2h41.6c0,0-0.6-72.5,0.3-78.3C62.3,70.5,69,69.3,69,69.3V25.5H61.1z
			 M55.7,151.7H35.4l-11.9-0.1l-0.3-79.8l32.7,0.1L55.7,151.7z"/>
		<path class="st1" d="M16.2,161.9h46.8c0.2,0,0.3,0,0.5-0.1l0.2-0.1v-1.8c0-0.6-0.5-1.1-1.1-1.1H16.5c-0.6,0-1.1,0.5-1.1,1.1v1.8
			c0.1,0.1,0.2,0.1,0.3,0.2C15.9,161.9,16.1,161.9,16.2,161.9"/>
		<path class="st19" d="M13.8,165.5h51.6c0.2,0,0.3,0,0.5-0.1l0.2-0.1v-2.6c0-0.6-0.5-1.1-1.1-1.1h-51c-0.6,0-1.1,0.5-1.1,1.1v2.6
			c0.1,0.1,0.2,0.1,0.3,0.2C13.5,165.4,13.6,165.5,13.8,165.5"/>
		<path class="st4" d="M56.9,48.6c0,9.6-7.8,17.4-17.3,17.4s-17.4-7.8-17.4-17.3c0-9.6,7.8-17.4,17.3-17.4c0,0,0,0,0,0
			C49.1,31.3,56.9,39,56.9,48.6C56.9,48.6,56.9,48.6,56.9,48.6"/>
		<path class="st19" d="M39.6,16c-1.4-1.3-2-3.1-1.7-5C38.3,7.7,40,0,40,0s1.7,9.9,1.7,11.3C41.7,13.1,40.9,14.8,39.6,16"/>
		<path class="st1" d="M37.4,18h4.4c0.2,0,0.3,0,0.5,0l0.2-0.1V16c0-0.6-0.5-1.1-1.1-1.1c0,0,0,0,0,0h-3.8c-0.6,0-1.1,0.5-1.1,1.1
			c0,0,0,0,0,0v1.8c0.1,0.1,0.2,0.1,0.3,0.2C37,18,37.2,18,37.4,18"/>
		<path class="st19" d="M35.7,20.5h7.6c0.2,0,0.3,0,0.5-0.1l0.2-0.1v-1.8c0-0.6-0.5-1.1-1.1-1.1h-7c-0.6,0-1.1,0.5-1.1,1.1v1.8
			c0.1,0.1,0.2,0.1,0.3,0.2C35.4,20.4,35.5,20.4,35.7,20.5"/>
		<path class="st1" d="M29.4,23.2h20.4c0.2,0,0.3,0,0.5,0l0.2-0.1v-1.8c0-0.6-0.5-1.1-1.1-1.2c0,0,0,0-0.1,0H29.7
			c-0.6,0-1.1,0.5-1.1,1.1c0,0,0,0,0,0v1.8l0.3,0.2C29,23.1,29.2,23.1,29.4,23.2"/>
		<path class="st19" d="M27,25.9h25.2c0.2,0,0.3,0,0.5,0l0.2-0.1v-1.8c0-0.6-0.5-1.1-1.1-1.1c0,0,0,0,0,0H27.3
			c-0.6,0-1.1,0.5-1.1,1.1c0,0,0,0,0,0v1.8c0.1,0.1,0.2,0.1,0.3,0.2C26.6,25.9,26.8,25.9,27,25.9"/>
		<line class="st20" x1="38.8" y1="32.8" x2="38.8" y2="37.7"/>
		<line class="st20" x1="40.3" y1="32.8" x2="40.3" y2="37.7"/>
		<line class="st20" x1="39.5" y1="59.7" x2="39.5" y2="64.5"/>
		<line class="st20" x1="23.7" y1="48.2" x2="28.6" y2="48.2"/>
		<line class="st20" x1="50.6" y1="48.2" x2="55.4" y2="48.2"/>
		<path class="st17" d="M41.5,46.8c0,0-9.9,5.9-10.6,5.9c-0.4,0-0.9-0.1-1.2-0.5l-2.1,3.9l4.5-0.4c-0.2-0.4-0.2-0.9,0-1.3
			C32.3,53.8,41.5,46.8,41.5,46.8"/>
		<path class="st17" d="M38,46.9c0,0,6.5,4.6,6.8,5.2c0.2,0.5,0.2,1.2-0.1,1.7L50,54l-2.7-4.5c0,0-0.6,0.9-1.3,0.9S38,46.9,38,46.9"
			/>
		<path class="st8" d="M37.7,48.5c-0.3-1.1,0.4-2.3,1.5-2.6c1.1-0.3,2.3,0.4,2.6,1.5c0.3,1.1-0.4,2.3-1.5,2.6c0,0,0,0,0,0
			C39.2,50.4,38,49.7,37.7,48.5C37.7,48.5,37.7,48.5,37.7,48.5"/>
	</g>
</g>
</svg>
