<?xml version="1.0" encoding="utf-8"?>
<!-- Generator: Adobe Illustrator 26.2.1, SVG Export Plug-In . SVG Version: 6.00 Build 0)  -->
<svg version="1.1" id="Capa_1" xmlns="http://www.w3.org/2000/svg" xmlns:xlink="http://www.w3.org/1999/xlink" x="0px" y="0px"
	 viewBox="0 0 750 400" style="enable-background:new 0 0 750 400;" xml:space="preserve">
<style type="text/css">
	.st0{fill:#B91919;}
	.st1{fill:#007473;}
	.st2{fill:#84557C;}
	.st3{fill:#1A894F;}
	.st4{fill:#E20613;}
	.st5{fill:#A85218;}
	.st6{fill:#009FA3;}
	.st7{fill:#B680B0;}
	.st8{fill:#FCF8FB;}
	.st9{fill:#2DAB66;}
	.st10{fill:#DA791B;}
	.st11{fill:#814115;}
	.st12{fill:none;stroke:#D9D7CB;stroke-width:3.1436;stroke-linecap:round;stroke-linejoin:round;}
	.st13{fill:#FFFFFF;}
	.st14{fill:none;stroke:#D9D7CB;stroke-width:0.9431;stroke-linecap:round;stroke-linejoin:round;}
	.st15{fill:none;stroke:#B91919;stroke-width:1.5718;stroke-linecap:round;stroke-linejoin:round;}
	.st16{fill:#C3BFB3;}
	.st17{fill:#D9D7CB;}
	.st18{fill:#1D1D1B;}
	.st19{fill:#F2A4C1;}
	.st20{fill:#008587;}
</style>
<path class="st0" d="M192.9,59.7l-26.6,6L144.4,122l-35.6,81.2c0,0,30.6,1.4,46.4,1.4c15.8,0,40.1,1.3,40.1,1.3L192.9,59.7z"/>
<polygon class="st1" points="392.9,86.8 364.5,78.9 362.7,203.1 394.2,204.4 "/>
<polygon class="st2" points="347,53.2 314.1,42.5 316.8,203.7 350.9,200.4 "/>
<polygon class="st3" points="246.5,21.6 211.7,7.6 212.2,198.5 224.3,199.2 250.6,199.7 "/>
<path class="st4" d="M188.1,38.9c0,0-21.2,1.9-36,2.5c-13.9,1.6-12.4,10.4-12.4,10.4s-31.5,81-36.8,93.1
	c-6.7,15.3-16.6,42.8-16.6,42.8s6.4,18.1,31.4,16.8c0,0,47.7-131.6,50.1-137.8l25.2-2.7v-7.8c0,0-20.7,2.4-24.5,2.8
	c-8.1,3.1-14.8-3.1-17.2-5.1c-2.5-2-3.7-5.5,4.4-5.7c12.7-0.8,27.3-1.9,31.7-2.9L188.1,38.9z"/>
<path class="st5" d="M204.2,218.5c66.6,1.1,131.4,1,186.2,2c55.3,1,52.8,0.4,63.7,1l33.1,12.5l-427.8-5.2L1.4,214.1
	C1.4,214.1,75.4,216.4,204.2,218.5"/>
<path class="st6" d="M364.5,78.9c0,0-20.7-6.4-31.3,1.3v120.9l30.8-0.4L364.5,78.9z"/>
<path class="st7" d="M314.1,42.5c0,0-51.2-13.2-87.3,0.5l-2.5,155.6l92.5,2L314.1,42.5z"/>
<path class="st8" d="M299.5,181v4.9l-62.2-0.5v-4.7C237.3,180.8,270.2,179.2,299.5,181"/>
<path class="st8" d="M297.6,51.1v5.9c-23.1-1.3-37.8-1.5-57.5,0.1c0,0-0.2-3,0.2-5.4C260.1,49.8,273.1,49,297.6,51.1"/>
<path class="st8" d="M357.2,188.6v4.9l-19.3-0.5v-4.7C337.9,188.3,348.1,186.8,357.2,188.6"/>
<path class="st8" d="M356.6,85.1v5.8c-7.2-1.3-11.7-1.5-17.9,0.1c0,0-0.1-3,0.1-5.4C345,83.8,349,83,356.6,85.1"/>
<path class="st8" d="M356.6,95.8v5.9c-7.2-1.3-11.7-1.5-17.9,0.1c0,0-0.1-3,0.1-5.4C345,94.5,349,93.8,356.6,95.8"/>
<path class="st8" d="M113.4,188l2.6-5.2c-7-2-11.2-4.9-16-9.1c0,0-1.4,2.6-2.3,4.9C102.4,182.9,105.6,186.5,113.4,188"/>
<path class="st8" d="M117.5,177.3l2.6-5.3c-7-2-11.2-4.1-15.5-9.1c0,0-1.9,3.8-2.9,6.1C106.5,173.3,109.7,175.8,117.5,177.3"/>
<path class="st8" d="M135.6,129.4l12.3-31.8c-4.6-1.8-10.4-6.3-14.4-10.4c0,0-12,30.4-13,32.7C123.6,123.7,127.8,127.9,135.6,129.4"
	/>
<path class="st9" d="M211.9,7.6c0,0-14.5-5.4-27.1,1l-0.7,189.5c0,0,3.2,0.5,12.7,0.4c9.5-0.1,15.3,0.1,15.3,0.1l0.4-96.9L211.9,7.6
	z"/>
<path class="st10" d="M454.7,200.2l-0.5,21.2c0,0-361.6-3.1-452.8-7.4l-0.5-19.8C291.3,200.1,454.7,200.3,454.7,200.2"/>
<path class="st8" d="M207.3,12.7v3.9c-7.2-0.8-11.7-1-17.9,0.1c0,0-0.1-1.9,0.1-3.6C195.7,11.8,199.7,11.3,207.3,12.7"/>
<path class="st8" d="M207.3,19.8v3.9c-7.2-0.9-11.7-1-17.9,0.1c0,0-0.1-2,0.1-3.6C195.7,18.9,199.7,18.4,207.3,19.8"/>
<path class="st8" d="M207.3,27.6v3.9c-7.2-0.8-11.7-1-17.9,0.1c0,0-0.1-1.9,0.1-3.6C195.7,26.7,199.7,26.2,207.3,27.6"/>
<polygon class="st11" points="487.3,219 487.3,233.9 454.2,221.5 454.7,200.2 "/>
<path class="st12" d="M589.5,324.1c4.7,8.2,5.7,17.9,7,27.3c1.3,9.4,3.1,19.1,8.8,26.6c5.7,7.5,16.7,11.9,25,7.3
	c5.5-3,8.5-8.9,11.9-14.1c3.4-5.2,8.3-10.4,14.5-10.5c7.6,0,12.8,7.4,18,12.9c11.2,11.8,28.7,17.4,44.7,14.2
	c5.2-1,10.4-3.1,13.8-7.2c3.4-4.1,4.2-10.5,0.8-14.6c-4-4.8-12.5-3.7-16.2,1.3c-3.7,5-2.8,12.5,0.9,17.4c3.8,4.9,10,7.6,16.1,8.5
	c6.2,0.9,12.4,0.2,18.6-0.5"/>
<polygon class="st13" points="501.5,131.7 511.4,135.9 506.4,154.9 495.8,152 "/>
<polygon class="st14" points="501.5,131.7 511.4,135.9 506.4,154.9 495.8,152 "/>
<polygon class="st13" points="491,125.8 499.9,128.9 492.8,148.6 483.8,144.6 "/>
<polygon class="st14" points="491,125.8 499.9,128.9 492.8,148.6 483.8,144.6 "/>
<path class="st4" d="M379.3,154.9l44.4,45.4c-0.5,5.3-8.4,3.1-9.7-0.9l-43.5-39L379.3,154.9z"/>
<path class="st13" d="M383.1,149.8c0.3-0.1,31.2,11.4,44,26.2c8.2,9.4,2.9,26.3-7.6,25.6c-2.4-0.2-4.5-3-4.7-4.3
	c-20.5-19.1-43.8-40.5-43.8-40.5C372.1,156.4,379.7,151.4,383.1,149.8"/>
<path class="st14" d="M383.1,149.8c0.3-0.1,31.2,11.4,44,26.2c8.2,9.4,2.9,26.3-7.6,25.6c-2.4-0.2-4.5-3-4.7-4.3
	c-20.5-19.1-43.8-40.5-43.8-40.5C372.1,156.4,379.7,151.4,383.1,149.8z"/>
<path class="st13" d="M416.7,192.2l-41.8-40c1-0.4,4.5-2.9,7.9-4.5"/>
<path class="st14" d="M416.7,192.2l-41.8-40c1-0.4,4.5-2.9,7.9-4.5"/>
<path class="st13" d="M419.9,187.6l-44.2-41.8c1-0.4,5.4-3.5,8.8-5.1c0.4-0.2,50.2,41,50.6,40.9"/>
<path class="st14" d="M419.9,187.6l-44.2-41.8c1-0.4,5.4-3.5,8.8-5.1c0.4-0.2,50.2,41,50.6,40.9"/>
<path class="st4" d="M455.3,99.2c5.6,6.3,30.7,32.3,35.6,39.6c9.1,2.7,2.9,16.1,1.9,19.6c-1,3.7-4.7,6.9-6.2,7.9
	c-7,4.7-63.8,38.1-65.7,36.9c8-8.4,12.4-25.1,0.6-24.3c-12.3-12.2-28-26.2-41.5-40.3C387,133.3,452.4,100.9,455.3,99.2"/>
<line class="st15" x1="488.5" y1="142.5" x2="430.3" y2="174.3"/>
<path class="st16" d="M556.2,73.8c0-0.1,32.2,32,33.5,31c6.7-5,23.7-10.8,23.9-11c5.6-6.4,7.8-16.3,7.8-20
	c0-17.4-16.4-29.1-33.8-29.1C570.3,44.7,556.2,56.4,556.2,73.8"/>
<path class="st6" d="M509.3,211.9c4.9-8.2,9.4-15,14.2-20c19.1,5.3,27.3,5.5,47.1,5.8c1.4,0,2.4,1.2,2.3,2.5l-1.8,19.5
	c-0.2,2.5-3.8,2.1-6.4,2C546.7,220.9,527.7,219,509.3,211.9"/>
<path class="st17" d="M408,52.4C520.6,80.1,575,61.4,597.2,95c11-5.7,19-8.1,30.1-8.1c24.5,0,40.1,20.2,40.1,43.3
	c0,23.1-16.7,38.7-41.1,38.7c-9,0-17.3-2.5-24.3-6.9c-1-0.6-2.3,0-2.5,1.1c-1.1,7.6-7.2,11.1-8.2,24.4c0,0-39.5,39-70.5,28.9
	c1.2-13.8-2.1-27-6.8-33.9c-6.1-8.9-9.9-10.7-21.2-22c16.3,0,32.1-7.5,41.8-21.7c-14.1,3.6-62-1.9-128.1-64.3
	C401.4,69.7,401.6,50.9,408,52.4"/>
<path class="st17" d="M502.3,294.7c0,0,98.9,2.7,98.6,5.5c-1.1,11.5-7,46.3-50.9,42.3C495.6,337.6,502.3,294.7,502.3,294.7"/>
<path class="st1" d="M511.8,222.9c0.4-1.8,11.7-3.4,12-4.9c1.7-2.7,9.1-9.5,12.1-12.5c22-1.9,54.1-20.2,54.8-20.8
	c5.9,31,13.3,89,14.6,121.7c-35.4,8-68.7,3.5-107.1-5.9C499.1,281.2,507.6,242.7,511.8,222.9"/>
<path class="st13" d="M538.1,98.4c-3,8.3,0,17.1,8.4,20.1c8.3,3,17.5-1.3,20.6-9.6c3-8.3-1.3-17.6-9.6-20.6
	C549.2,85.3,541.2,90,538.1,98.4"/>
<path class="st18" d="M551.1,107c-0.5,1.4,0.4,2.9,1.7,3.4c1.4,0.5,3-0.5,3.5-1.9c0.5-1.4-0.2-3-1.5-3.4
	C553.5,104.6,551.8,105.2,551.1,107"/>
<path class="st6" d="M547.6,224.3c-4.7-7.9-6.7-11.3-11.7-18.8c19.3-4.7,38.5-13.2,55.9-22.7c1.2-0.7,2.7-0.2,3.2,1.1l7.9,17.9
	c1,2.3-2.3,3.7-4.6,4.8C582.3,214.9,567.2,221.5,547.6,224.3"/>
<path class="st19" d="M606.2,121.2c-7.8,6.7-5.7,10.8,0.2,15.4c6.7,5.2,16.9,10.1,24.4,8.4c5-1.1,10.6-4.8,11.2-13.5
	C643.8,107.7,619.2,109.9,606.2,121.2"/>
<path class="st17" d="M434.2,108.1c9.5,10.1,2.4,14.1-6.9,5.7c8.7,9.2,0.3,14-5.4,4.7c3.1,8.9-6.1,9.6-11.1,2.3
	c-0.8-1.2-0.9-2.7-0.2-4c3.9-7.2,10.4-11,20.1-10.4C432,106.5,433.3,107.2,434.2,108.1"/>
<path class="st17" d="M517.5,322.3c-3.6,17.1-5,33.5-3.8,49c-15.6-2.8-15.6,10.4-3,5.4c-10.7,4.5-6.9,11.9,6.6,3.9
	c-9,7.3,0.4,9.4,6.9,2.7c0.9-0.9,1.5-2.3,1.4-3.6c-1.4-25-0.9-37.4,3.6-53.2C529.4,325.4,517.3,323.4,517.5,322.3"/>
<path class="st17" d="M569.6,328.3c-1.6,14.4-0.6,32.3,1.1,45.6c-17.3,0.9-18.1,12.3-3.2,8.8c-6.3,8.8,1.1,12.4,5.5,5.1
	c-1.6,6.2,7.4,6.8,9.3-0.4c-0.9-23.9-1.7-60.6-1.7-60.6L569.6,328.3z"/>
<path class="st19" d="M430.7,56.6c0,0-28.3-7.3-31.3-4.3c-3,3-1.8,12,4.1,20c6.4,8.7,13.3,12.9,13.4,12.5c0.1-0.3,3.1-5.3,6-11.7
	C426.8,64.8,430.7,56.6,430.7,56.6"/>
<path class="st17" d="M495.2,210.1c-9.1-7.3-17.9-15.4-22.9-23.9c3.2-20.6-7-20.6-9.1-4.4c-2.4-12.8-11.9-12.4-11.2,1.2
	c-8.7-6.2-11.3,9.3,6.8,12.4c7.4,10.4,17.8,22.1,28.6,32.4C487.8,228.2,495.2,210.1,495.2,210.1"/>
<path class="st20" d="M507.3,208.3c0,0,18.8,8,27.9,10.9c10.1,3.2,10.8,13.1,7.5,19.4c-2.5,4.7-16.4,9.8-28.4,3.8
	c-7.7-3.8-16.1-6.1-16.1-6.1L507.3,208.3z"/>
<path class="st6" d="M508.6,206.6l-9.2,31.1c-0.3,0.9-1.3,1.3-2.1,0.7l-10.7-4.3c-0.4-0.3-0.5-0.7-0.4-1.1
	c1.9-8.5,5.9-20.2,9.6-28.3c0.8-1.7,1.5-2.2,3.2-1.5L508.6,206.6z"/>
</svg>
