<?xml version="1.0" encoding="utf-8"?>
<!-- Generator: Adobe Illustrator 26.2.1, SVG Export Plug-In . SVG Version: 6.00 Build 0)  -->
<svg version="1.1" id="Capa_1" xmlns="http://www.w3.org/2000/svg" xmlns:xlink="http://www.w3.org/1999/xlink" x="0px" y="0px"
	 viewBox="0 0 400 400" style="enable-background:new 0 0 400 400;" xml:space="preserve">
<style type="text/css">
	.st0{fill:none;stroke:#D9D7CB;stroke-width:3.3204;stroke-linecap:round;stroke-linejoin:round;}
	.st1{fill:#FFFFFF;}
	.st2{fill:none;stroke:#D9D7CB;stroke-width:0.9961;stroke-linecap:round;stroke-linejoin:round;}
	.st3{fill:#C3BFB3;}
	.st4{fill:#009FA3;}
	.st5{fill:#D9D7CB;}
	.st6{fill:#007473;}
	.st7{fill:#1D1D1B;}
	.st8{fill:#F2A4C1;}
	.st9{fill:#008587;}
</style>
<g>
	<path class="st0" d="M185.4,310.9c-4.9,8.7-6.1,18.9-7.4,28.8c-1.4,9.9-3.2,20.2-9.3,28.1c-6.1,7.9-17.6,12.5-26.4,7.7
		c-5.8-3.2-9-9.4-12.6-14.9c-3.6-5.5-8.8-11-15.4-11.1c-8.1,0-13.5,7.8-19,13.6c-11.8,12.5-30.3,18.4-47.2,15
		c-5.5-1.1-11-3.3-14.6-7.6c-3.6-4.3-4.5-11.1-0.8-15.4c4.3-5,13.2-3.9,17.1,1.4c3.9,5.3,3,13.2-1,18.4c-4,5.2-10.5,8.1-17,9
		c-6.5,0.9-13.2,0.2-19.7-0.6"/>
	<polygon class="st1" points="283.2,110.4 272.2,113.1 276.1,139.1 287.7,137.9 	"/>
	<polygon class="st2" points="283.2,110.4 272.2,113.1 276.1,139.1 287.7,137.9 	"/>
	<polygon class="st1" points="296.4,113.5 286.6,115.2 290.7,137 300.8,134.3 	"/>
	<polygon class="st2" points="296.4,113.5 286.6,115.2 290.7,137 300.8,134.3 	"/>
	<path class="st3" d="M220.6,46.4c0-0.1-34.1,33.8-35.4,32.8c-7.1-5.3-25.1-11.4-25.3-11.7c-5.9-6.7-8.2-17.2-8.2-21.1
		c0-18.3,17.4-30.8,35.7-30.8C205.7,15.6,220.6,28,220.6,46.4"/>
	<path class="st4" d="M270.2,192.3c-5.2-8.7-9.9-15.9-15.1-21.1c-20.2,5.6-28.9,5.8-49.8,6.1c-1.4,0-2.6,1.2-2.4,2.7l1.9,20.6
		c0.2,2.7,4,2.2,6.7,2.1C230.7,201.9,250.7,199.8,270.2,192.3"/>
	<path class="st5" d="M379,35.8c-119.1,29.2-178.3-2.5-201.8,33.1c-11.7-6-20-8.6-31.8-8.6c-25.9,0-42.4,21.3-42.4,45.7
		s17.6,40.9,43.5,40.9c9.5,0,18.3-2.7,25.6-7.3c1.1-0.7,2.5,0,2.6,1.2c1.2,8.1,7.6,11.7,8.7,25.8c0,0,48.3,47.5,74.6,30.8
		c-1.3-14.5,2.1-28.9,7.1-36.2c6.5-9.4,11.8-15.2,14.8-18.4c-12.6,0.6-26-3.4-36.3-18.3c14.9,3.8,66.9,0.4,136.8-65.5
		C385.9,54,385.7,34.1,379,35.8"/>
	<path class="st5" d="M277.6,279.9c0,0-104.5,2.9-104.2,5.8c1.2,12.1,7.4,49,53.8,44.7C284.6,325.1,277.6,279.9,277.6,279.9"/>
	<path class="st6" d="M258.3,189c-0.4-1.9-3.2,11.4-3.6,9.8c-1.8-2.9-9.6-10.1-12.8-13.2c-23.3-2-57.2-21.4-58-22
		c-6.3,32.8-14.1,94-15.4,128.6c37.4,8.5,72.6,3.7,113.2-6.2C281,265.6,262.8,209.8,258.3,189"/>
	<path class="st1" d="M239.7,72.4c3.2,8.8,0,18.1-8.8,21.3c-8.8,3.2-18.5-1.3-21.8-10.1c-3.2-8.8,1.3-18.5,10.1-21.8
		C228,58.5,236.5,63.6,239.7,72.4"/>
	<path class="st7" d="M226,81.5c0.5,1.5-0.4,3-1.8,3.6c-1.4,0.5-3.1-0.5-3.7-2c-0.5-1.5,0.2-3.1,1.6-3.6
		C223.5,78.9,225.2,79.6,226,81.5"/>
	<path class="st4" d="M229.7,205.5c4.9-8.4,7.1-12,12.3-19.9c-20.3-4.9-40.7-13.9-59.1-24c-1.3-0.7-2.9-0.2-3.4,1.2l-8.4,18.9
		c-1.1,2.5,2.5,3.9,4.8,5.1C193,195.4,209,202.5,229.7,205.5"/>
	<path class="st8" d="M167.8,96.4c8.2,7.1,6,11.5-0.2,16.3c-7.1,5.5-17.9,10.6-25.8,8.8c-5.2-1.2-11.1-5-11.8-14.3
		C128,82.2,154,84.5,167.8,96.4"/>
	<path class="st5" d="M261.5,309c3.8,18.1,5.3,35.4,4,51.8c16.5-2.9,16.5,11,3.2,5.7c11.3,4.7,7.3,12.6-6.9,4.1
		c9.5,7.7-0.4,9.9-7.3,2.9c-1-1-1.6-2.4-1.5-3.8c1.5-26.4,0.9-39.6-3.8-56.2C248.9,312.3,261.7,310.1,261.5,309"/>
	<path class="st5" d="M206.5,315.3c1.7,15.2,0.7,34.1-1.1,48.2c18.2,0.9,19.2,13,3.4,9.3c6.7,9.3-1.1,13.1-5.8,5.4
		c1.7,6.6-7.8,7.2-9.8-0.4c0.9-25.3,1.8-64.1,1.8-64.1L206.5,315.3z"/>
	<path class="st8" d="M353.2,40.9c0,0,29.9-7.7,33.1-4.5c3.2,3.2,1.9,12.7-4.3,21.2c-6.8,9.2-14.1,13.6-14.2,13.2
		c-0.1-0.4-3.3-5.6-6.4-12.4C357.3,49.6,353.2,40.9,353.2,40.9"/>
	<path class="st5" d="M229.7,249.6c6.6,7.3,13.8,14.3,21.1,18.1c17.1-3.7,17.6,4.9,4.1,7.4c10.9,1.4,11,9.4-0.4,9.5
		c5.6,7-7.3,9.9-10.8-5.1c-9.1-5.7-19.4-13.9-28.6-22.5C214.9,256.7,229.7,249.6,229.7,249.6"/>
	<path class="st9" d="M229.3,238.1c0,0-8.8-17.8-12.2-26.5c-3.7-9.6-13.4-9.8-19.3-6.3c-4.5,2.7-8.6,16.5-2.1,27.9
		c4.2,7.3,6.8,15.3,6.8,15.3L229.3,238.1z"/>
	<path class="st4" d="M230.9,236.8l-29.7,10.6c-0.9,0.3-1.2,1.4-0.6,2.1l4.8,10.2c0.3,0.3,0.7,0.4,1.1,0.3c8.1-2.3,19.4-6.9,27-10.9
		c1.6-0.8,2.1-1.6,1.2-3.2L230.9,236.8z"/>
</g>
</svg>
