<?xml version="1.0" encoding="utf-8"?>
<!-- Generator: Adobe Illustrator 26.2.1, SVG Export Plug-In . SVG Version: 6.00 Build 0)  -->
<svg version="1.1" id="Capa_1" xmlns="http://www.w3.org/2000/svg" xmlns:xlink="http://www.w3.org/1999/xlink" x="0px" y="0px"
	 viewBox="0 0 614.4 418.1" style="enable-background:new 0 0 614.4 418.1;" xml:space="preserve">
<style type="text/css">
	.st0{fill:#EBDDCD;}
	.st1{fill:#3F7473;}
	.st2{fill-rule:evenodd;clip-rule:evenodd;fill:#EDEDE2;}
	.st3{fill-rule:evenodd;clip-rule:evenodd;fill:#C5C1B8;}
	.st4{fill:#6F4714;}
	.st5{fill:#EECA1A;}
	.st6{fill:#61A0A2;}
	.st7{fill:#945B19;}
	.st8{fill:#6EAA6F;}
	.st9{fill:#538A58;}
	.st10{fill:#111419;}
	.st11{fill:#A886B1;}
	.st12{fill:#E0D6B9;}
	.st13{fill:#BF0811;}
	.st14{fill:#FFFFFF;}
	.st15{fill:none;stroke:#9C141B;stroke-width:1.14;stroke-linecap:round;}
	.st16{fill:#211915;}
	.st17{fill:#9C141B;}
	.st18{fill:none;stroke:#211915;stroke-width:1.5;stroke-linecap:round;}
	.st19{fill:none;stroke:#211915;stroke-width:1.14;stroke-linecap:round;}
	.st20{fill:#C58021;}
	.st21{fill:#DB9600;}
	.st22{fill:#523818;}
	.st23{fill:#F8E12E;}
	.st24{fill:none;stroke:#211915;stroke-width:0.9;stroke-linecap:round;}
	.st25{fill:#9CBC5C;}
</style>
<g id="Capa_2_00000024685357528905052800000009048878574302478498_">
	<g id="Capa_1-2">
		<path class="st0" d="M507.9,218.4c30.2-3,29.6,9.2,47.3-9.3s49.5-83.2,43.5-105.5c-3.1-11.6-9.6-22.8-19.8-31.9
			c-14.5-12.9-35.5-20.8-57.1-25.4s-44.1-6.2-66.4-8.6c-69-7.5-139-22.7-207.3-12.1c-26.3,4.1-51.3,11.9-77,17.6
			c-44.8,9.9-95.7,14.8-126.6,41c-22.3,18.9-29.4,45.5-28.3,70.8c0.5,12.6,3.3,26,14.2,35.7c6.4,5.7,15.1,9.6,24,12.9
			c56.5,20.6,122.6,16.2,185.4,14.4C328.9,215.3,420.7,232.2,507.9,218.4"/>
		<path class="st1" d="M73.7,195.7c148.6-22.4,310.2-0.1,459.2,1.3c22.8,0.2,62.1,28.4,72.9,69.7c10.3,39.6,7.8,90.4-10.9,113.3
			s-92.7,32.5-114.5,34.2c-92.5,6.8-139.3-25-231.2-3.6c-36.9,8.6-146.2,10.6-185,3c-28.4-11.1-35.3-23.1-48-67.3
			C2.9,333.5-0.9,304.2,0.1,274.3c1-31,9-43.9,23.1-54.7C38.2,208.2,38.2,208.2,73.7,195.7"/>
		<path class="st2" d="M170.4,84.3c0.1-3.8,1.4-35.2,24.6-45.1s43,13.4,43,13.4s2.8-43.4,31-38.2s27.5,29.8,27.5,29.8
			s9.3-14.9,24.6-9.9c17.1,5.6,14.1,21.4,14.1,21.4s9.5-11.5,23.5-3.1s21.6,23.2,18.1,39.4s-17.5,37.3-103.1,29.6
			S170.1,111,170.4,84.3"/>
		<path class="st3" d="M51.4,123.2c0.1-3.8,1.4-35.2,24.6-45.1s43,13.4,43,13.4s2.8-43.4,31-38.2s27.5,29.8,27.5,29.8
			s9.2-15,24.6-9.9c17.1,5.6,14.1,21.4,14.1,21.4s9.5-11.5,23.5-3.1s21.6,23.2,18.1,39.4s-17.4,37.3-103.1,29.6S51,150,51.4,123.2"
			/>
		<path class="st4" d="M348.8,238.5c-1.2,5.8-3.8,11.6-5.2,15.9c-7.5-2.7-17.2-5.8-24.7-7.6c2.1-4.9,5-11.2,7.4-16
			C334.4,230.5,341.5,233.7,348.8,238.5"/>
		<path class="st5" d="M590.1,343.2L590.1,343.2c-2.8,1-499.9,0.3-510.3,2.9V340c37.8-62.9,82.9-97.3,132.6-125.9l0,0
			c48.1-23.3,126.9-35.5,179.9-20.2C465.8,215.1,536.2,270.9,590.1,343.2"/>
		<path class="st6" d="M411.5,327.1v46.1c-7.6,5.4-370,12-386.4-0.5l-9-26.6c7.2-0.9,57-4.5,62.8-7.6c5.1-2.8,9.8-6.3,14-10.4
			c4.2-3.9,7.9-7.9,12-11.9c4.1-4,8.6-7.5,13.6-10.5c5.8-3.2,12.1-5.4,18.7-6.3c1-0.1,1.9-0.3,2.9-0.4c-5.1,4.4-7.8,10.1-7.6,15.7
			c0.2,5.5,3.3,10.8,8.4,14.9c11.3,9,29.9,9.7,45.7,8.3c16.7-1.3,33.1-5.7,48.3-12.9c14.6-7.1,26.4-16.5,40.5-24
			c13-7,29.4-12.5,46.2-11.4c2,0.1,3.9,0.4,5.9,0.7c-5.8,5.3-11.1,11.3-13.2,17.9c-1.5,4.6-1.1,9.5,2.6,13.5
			c3.8,4.2,10.3,6.8,17,8.3c9.6,2.2,20,2.6,30,2.3c14-0.5,28-2,41.8-4.5C407.7,327.8,409.6,327.4,411.5,327.1"/>
		<path class="st6" d="M611.4,321.8c0,0,8,33.7-2.5,47.5c-3.4,4.4-356.3,0.4-371,3.5v-28.6c6.8-0.9,13.5-3,19.6-6.2
			c5.1-2.8,9.8-6.3,14-10.4c4.2-3.9,7.9-8,12-11.9c4.1-4,8.6-7.5,13.6-10.5c5.8-3.2,12.2-5.4,18.7-6.3c1-0.1,1.9-0.3,2.9-0.4
			c-5.1,4.4-7.8,10.1-7.5,15.7c0.2,5.5,3.3,10.8,8.4,14.9c11.3,9,29.9,9.7,45.7,8.3c16.7-1.4,33-5.7,48.2-12.9
			c14.5-7.1,26.4-16.5,40.5-24c13-7,29.4-12.6,46.2-11.4c2,0.1,4,0.4,5.9,0.7c-5.8,5.3-11.1,11.3-13.2,17.9
			c-1.5,4.6-1.1,9.5,2.6,13.5c3.8,4.2,10.3,6.8,17,8.3c9.6,2.2,20,2.6,30,2.3c14-0.5,28-2,41.8-4.5c2-0.3,3.9-0.7,5.8-1"/>
		<path class="st7" d="M507,112.3c0,0-8.1,19.8-14.8,29.5c-5.6,1.2-14.7-7.8-15-8.7c5.6-10.6,19.4-27.9,19.4-27.9
			C497.6,106.8,504.4,112.3,507,112.3 M480.3,162.2c-2.1,8.2-4.9,12.6-9.2,20.4c-12.9-6.9-13.7-7.1-18.5-6.2
			c3.1-7.4,12.8-22.9,12.8-22.9S474.7,155.1,480.3,162.2"/>
		<path class="st4" d="M441.6,196.7L441.6,196.7c0,0,7.1-14.9,11-21.3c6-0.2,10.9,1,18.4,7.1c-3.9,9.6-5.6,14.9-10,22.2l0,0
			C460.6,205.1,445.6,197.8,441.6,196.7 M492.2,141.8c-2.7,7.3-12,20.4-12,20.4c-5.5-7.1-15.5-7.8-15.5-7.8
			c4.6-9.6,10.7-19.4,12.5-21.2C483.3,134.6,487,137.4,492.2,141.8"/>
		<path class="st7" d="M460.9,204.8c-2.5,7.6-5.6,15-9.3,22.1c-7.3-4.9-13.8-6.7-22.5-7.7c3.8-7.7,8-15.2,12.5-22.5
			C449.8,197.6,456.6,201.8,460.9,204.8"/>
		<path class="st1" d="M442.9,358.7v38.2l-398.5,2.6l-19.4-26.8c14.7-3.1,79.4-3.1,110.1-10.9c11.9-3.1,24.5-5,37-4.3
			c17.6,1.1,33.4,8.6,51,9.7c39.3,2.4,71.9-27.4,111.1-24.7c14,1,26.7,6.1,38.9,11.1s24.7,10.3,38.7,11.5
			C423,366.3,435.3,364.1,442.9,358.7"/>
		<path class="st1" d="M597.3,380.3l-28.3,5.8l-295.9,7.2v-25.9l44.1-9.2c12.1-2.5,24.5-5.1,37-4.3c17.6,1.1,33.4,8.7,51,9.7
			c39.3,2.4,71.9-27.4,111.2-24.7c14,1,26.7,6.1,38.9,11.1s24.7,10,38.7,11.5c7.6,0.8,11.8-2,18.2-3.8c4-1.1-3.2,12.9-6.3,14.8"/>
		<path class="st8" d="M560.8,54.7l-1.7-14.5c-2.8,2.9-10.4,8.7-13.5,12c-4.4,4.7-9,9.7-13.7,14.8s-9,10.2-13.3,15.3l1.7,0.2h10.2
			l11.7-9.2l-6.5-3.2h10.4L560.8,54.7z"/>
		<path class="st9" d="M549.6,39.5L544.4,51l0.8-9.7l-11.5,11l-3.5,13.9V54.6c-5.3,5.1-9.8,10.9-13.5,17.3c-0.4,0.8-0.9,1.6-1.4,2.4
			c-1.2,2-8.1,21.6-16.5,26.8l0.2,0.4c1.5-0.8,3.2-0.8,4.6,0c4.5-6.2,9.5-12.6,14.9-19.1c4.3-5.2,8.8-10.3,13.3-15.3
			s9.2-10.1,13.7-14.8c3.1-3.3,10.1-8.3,13-11.2v-7.1L549.6,39.5z"/>
		<path class="st8" d="M527.5,86.3l-21.6,17.3c-0.5-1-1.2-1.7-2.2-2.2c4.5-6.2,9.5-12.6,14.9-19.1l1.7,0.2L527.5,86.3z"/>
		<path class="st8" d="M517.7,47.7c1.9,5.6,1,16.6-3.3,25.5c-0.4,0.8-0.9,1.6-1.3,2.4c-1.1,2-2.5,3.9-4.2,5.5l6.6-3.6
			c-4,11.2-9.8,19.9-18,25.4l-0.8,0.5C507.4,84.5,510,62,503.9,41c-2.1-7.2-5.5-13.9-10-19.8c-5.8-7.7-14.1-13.1-23.5-15.2l0,0
			c11.8-0.5,23.4,3.3,32.5,10.8l1.4,17.7l4.3-8.7l8.6,14.8c-2.7,4.4-4.7,9.3-5.8,14.4L517.7,47.7z"/>
		<path class="st9" d="M503.9,41c-2.1-7.2-5.5-13.9-10-19.8c-5.8-7.7-14.1-13.1-23.5-15.2l0,0l-1.7,0.1l12.6,13.4l10.5,2.8l-7,1.3
			l3.7,11l13.4,7.1l-9.4-0.5l3.1,12.2c4.9,2.6,8.8,6.6,11.4,11.5l-9.5-3.7c2.1,14.5,2.7,28.8-0.7,42.4C507.4,84.5,510,62,503.9,41"
			/>
		<path class="st4" d="M497.1,109.1c1.8,2.6,1.1,6.1-1.5,7.9c-2.6,1.8-6.1,1.1-7.9-1.5s-1.1-6.1,1.5-7.9c0.9-0.6,2-1,3.2-1
			C494.3,106.6,496,107.6,497.1,109.1"/>
		<path class="st8" d="M482.9,58.5c10.2,10.1,14.9,27.6,13.7,46.7c0,0.2,0,0.4,0,0.6c-3.3-12.1-8.8-23.4-16.3-33.3
			c-8.8-11.6-19.8-20.1-31.5-25c-8.1-3.5-16.9-5.1-25.6-4.7c-3-1-6.1-1.8-9.2-2.4c10.7-3.9,22.5-3.9,33.2,0l-2.7-2.9
			c9.8-0.8,19,2.8,24.9,14.1l-1.9-7.8c4,1.6,7.7,4,10.8,7.1l-1,12.3L482.9,58.5z"/>
		<path class="st9" d="M496.5,105.8c-3.3-12.1-8.8-23.4-16.3-33.3c-8.8-11.6-19.8-20.1-31.5-25c-8.1-3.5-16.9-5.1-25.6-4.7
			c4.9,1.7,9.6,4,14,6.8l11.5-1.7l-8.8,3.3l5.8,6.3c6.2-0.7,12.5,0.1,18.4,2.3l-8.6,4.4l8.8,8.8h14.4l-8.8,4L496.5,105.8z"/>
		<path class="st8" d="M545.6,88.2c-14.4-0.7-30.4,7.7-43.6,21.6c-0.1,0.1-0.2,0.3-0.4,0.4c11.1-5.8,23.2-9.3,35.6-10.5
			c14.5-1.3,28.2,1,39.7,6.2c8,3.6,15.2,8.9,20.8,15.7c2.8,1.5,5.5,3.2,8,5.2c-4.4-10.5-12.3-19.2-22.5-24.4h4
			c-6.1-7.8-15-12.1-27.2-8.8l7-3.9c-3.9-1.9-8.2-2.9-12.5-3.1l-8.4,9L545.6,88.2z"/>
		<path class="st9" d="M501.6,110.2c11.1-5.8,23.2-9.3,35.6-10.5c14.5-1.3,28.2,1,39.7,6.2c8,3.6,15.2,8.9,20.8,15.7
			c-4.6-2.4-9.5-4.3-14.5-5.7l-6.5-9.6l3.5,8.7l-8.6-0.1c-3.7-5.1-8.5-9.2-14.1-12l2.6,9.3l-12.4-0.5l-9.8-10.6l3,9.1L501.6,110.2z"
			/>
		<path class="st4" d="M329.4,144c0.3,1.2-0.3,1.8,0.4,2.8c2.5,3.6,4,0.7,1.7-4.9c0,0,2,1.9,2.6,2.5c1.8,1.6,3.6,2.1,3,0.8
			c-0.8-1.8-3.8-6.9-3.8-6.9c8.4,9.4,3.7,0.5,2.1-2.2c0.9,1,2.1,1.7,3.5,1.9c3.7,0.4-11.5-14.6-11.5-14.6l0,0
			c-3.4,0.2-7.1,0.6-5.9,2.3c0.8,1.3,6.2,13.1,6.2,13.1C328.3,140.4,328.9,142.2,329.4,144"/>
		<polygon class="st7" points="337.9,241.4 337.6,245.1 336.8,255.9 333.2,255.9 333.2,255.9 334.3,246.2 334.8,241.9 		"/>
		<path class="st10" d="M316.5,254.8c0,0,9.5,2.2,7.5,6.1c-1.5,2.8-11.3-1.6-11.3-1.6l-0.1,1.7l-3.6-0.2c0-1.4,0.3-4.9,0.4-6.2
			c0.5-5.1,1.3-10.3,1.3-10.3l7.2,0.2L316.5,254.8z"/>
		<path class="st11" d="M347.5,211.2l-6.6,30.6l-8.6,0.8c-0.2-1.3-0.4-5-0.4-6.8c-0.2-6.1,0.1-9.5-2.1-10
			c-2.6-0.6-8.9,15.6-10.5,18.5l-10.1,0.2c1.7-8.6,3.9-18.6,4-27.5c-0.1-3-0.1-6.4-0.3-7.3l3.8,1.1c9.6,2.6,18.3,3.1,26,1.6
			c1.6-0.3,3.2-0.6,4.8-1.1"/>
		<path class="st4" d="M292.8,156.9c0.3,1.2,1.1,1.5,0.9,2.7c-0.8,4.3-3.6,2.3-4-3.8c0,0-1.1,2.5-1.4,3.4c-1,2.2-2.6,3.4-2.6,1.9
			c-0.1-2,0.5-7.9,0.5-7.9c-3.9,12-3.5,2-3.2-1.2c-0.4,1.3-1.4,2.5-2.6,3.1c-3.5,2,4.6-18.1,4.6-18.1l0,0c3.5-1.2,7.4-2.4,7-0.4
			c-0.1,1.5,0,14.6,0,14.6C292.1,153.3,292.4,155.1,292.8,156.9"/>
		<path class="st12" d="M334.5,142L334.5,142v-0.1c0-0.1,0-0.2-0.1-0.3l0,0l-2.1-5.6c-1.2-2.9-2.6-5.8-4.1-8.6
			c-0.4,0.1-0.9,0.2-1.3,0.2c-4.2,0.6-9.2,0-13.4,0.2c-1.2,0-2.4,0.2-3.5,0.5c-6.2,1.5-12.6,6.5-18,8.6c-0.3,2.7-0.4,5.3-0.3,8
			c0,0.2,0,0.4,0,0.6c0,1.9,0.1,3.9,0.4,6c0.2,1.8,0.5,3.7,0.9,5.5c7.3,7.9,16,20.7,22.4,8.9c1.2,0.3,2.5,0.1,3.6-0.6
			c8.1,7.7,11.9-12.9,17-18.3C335.5,145.2,335,143.6,334.5,142"/>
		<path class="st13" d="M331.5,172c8.8,9.6,13.6,22.4,11.2,40.7l0,0c-7.7,1.5-16.4,1.1-26-1.4l-3.9-1.3c-0.3-2-3.3-19.3-6-24.8
			l-6.4,6.2l6.9,7.5l-5.2,7.5l-0.8-0.8l-9.9-11c-1.6-1.8-1.7-4.6-0.1-6.4l12.2-14.3c3.9,2.2,9.1,3,16,1.6c3.5-0.6,6.8-2,9.8-3.9
			L331.5,172z"/>
		<path class="st13" d="M343.7,174.7c5.8,9.8,8.5,21.5,6.7,35.5c-2.4,1.2-5,2.1-7.7,2.5l0,0c2.4-18.4-2.4-31.1-11.2-40.7l-2.2-0.4
			c2.7-1.9,4.9-4.5,6.1-7.6c1.1,1.1,2.1,2.3,3.1,3.5C340.4,169.7,342.2,172.1,343.7,174.7"/>
		<path class="st14" d="M339.2,177.3c0.4,0,0.7,0.3,0.7,0.6s-0.3,0.7-0.6,0.7c-0.4,0-0.7-0.3-0.7-0.6
			C338.6,177.7,338.9,177.3,339.2,177.3 M343,185.3c0.4,0,0.7,0.2,0.7,0.6c0,0,0,0,0,0c0,0.4-0.2,0.7-0.6,0.7c0,0,0,0,0,0
			c-0.4,0.1-0.7-0.2-0.8-0.6c-0.1-0.4,0.2-0.7,0.6-0.8C342.9,185.3,343,185.3,343,185.3 M345.4,206.1c0.4,0,0.7,0.3,0.7,0.6
			c0,0.4-0.3,0.7-0.7,0.7c-0.3,0-0.6-0.2-0.7-0.6C344.8,206.4,345.1,206.1,345.4,206.1 M345.3,195.6c0.4,0,0.7,0.3,0.7,0.6
			c0,0.4-0.2,0.7-0.6,0.7c0,0,0,0,0,0c-0.4,0-0.7-0.2-0.7-0.6c0,0,0,0,0,0C344.7,195.9,344.9,195.6,345.3,195.6"/>
		<path class="st4" d="M335.8,146.8c1.3,5.8,2.7,17.9-5.6,24.6c-2.9,2.4-6.4,4-10.2,4.7c-20.3,3.2-24.5-10-26.2-15.5
			c-0.4-1.2-0.7-2.5-1-3.7c9.8-1.6,17.7,17.8,24.2,6c1.2,0.3,2.5,0.1,3.6-0.6C328.6,170,330.7,152.3,335.8,146.8"/>
		<path class="st14" d="M334.5,170.8c0.4,0,0.7,0.3,0.7,0.6s-0.3,0.7-0.6,0.7c-0.4,0-0.7-0.3-0.7-0.6
			C333.8,171.2,334.1,170.8,334.5,170.8"/>
		<polygon class="st10" points="336.8,255.6 336.5,259 332.9,259.3 333.2,255.9 333.2,255.9 		"/>
		<path class="st4" d="M326.1,153.6c0.3,0.3,0.2,0.8-0.1,1.1c0,0,0,0,0,0c-0.4,0.2-0.6-0.1-0.9-0.3c-0.5-0.4-1.1-0.6-1.7-0.8
			c-1.5-0.4-3-0.5-4.5-0.3c-2.7,0.2-5.8,1-7.8,3c-0.4,0.4-0.8,1.3-1.4,1s-0.2-1.1,0.1-1.5c0.8-1,1.8-1.8,3-2.4
			c2.2-1.2,4.7-1.9,7.3-1.9C322,151.5,324.8,152,326.1,153.6"/>
		<path class="st10" d="M335.2,113.2c0-0.3-0.3-0.5-0.6-0.5c-0.2,0-0.4,0.1-0.4,0.3c-5.8,11.3-12.8,4-20.5,0c-3-1.6-6.1-2.6-9.3-1.9
			c-11.2,2.7-11.5,23.3-23.4,16c-0.5-0.3-1.1-0.1-1.4,0.4c-0.1,0.2-0.1,0.4-0.1,0.7c1.3,5.3,3.2,8,5.5,9.1c2,1,4.4,0.6,7-0.4
			c5.5-2.1,11.9-7,18-8.6c1.2-0.3,2.3-0.4,3.5-0.5c4.2-0.2,9.2,0.4,13.4-0.2c0.5-0.1,0.9-0.1,1.3-0.2
			C333.3,126.4,336.8,123.1,335.2,113.2 M317.5,160.4c-2.1,0.3-8.3,1.6-8.3,1.6c5.6-9.8,15.5-8.3,14.7-1.5
			C321.8,160.1,319.6,160.1,317.5,160.4"/>
		<path class="st12" d="M291.8,146.5c0.1,1.6,0.2,3.2,0.5,4.8c-0.6,0.6-1.4,0.9-2.2,0.9c-1.6,0.1-3.1-1.3-3.3-3.6s1-3.8,2.7-3.9
			c0.8-0.1,1.7,0,2.4,0.5C291.8,145.1,291.8,146.3,291.8,146.5 M309.8,212.2c1.4,3.1,0.5,5.1-0.7,3.6c-1.4-1.8-2.6-3.7-3.7-5.7
			c2.3-2.5,4.1-4.5,5-7.1c0.4,0.5,0.9,1,1.4,1.5c1.9,1.9,4.5,5.1,3.9,6.5c-0.1,0.2-0.2,0.3-0.4,0.4c-1.2,0.8-3.4-2.1-3.5-2.3
			c0.3,0.9,0.6,1.7,1.1,2.5c1.3,2.3,0.8,3.5,0.4,3.8C312.3,216.1,310,212.5,309.8,212.2"/>
		<path class="st15" d="M342.8,212.1c2.4-18.4-2.5-30.4-11.3-40.1"/>
		<path class="st14" d="M314.1,123.1c2.5-2.1,3.1,1,1.4,1.1c0.5,0.7,0.1,1.1-0.4,1.2s-1.3-0.3-1.3-1.4l-2.9-0.8
			c0-0.1,0.1-0.2,0.2-0.3c0.1-0.2,0.2-0.4,0.3-0.6l0.1-0.2L314.1,123.1z"/>
		<path class="st14" d="M305.2,119.9c0-0.6,0.2-1.2,0.6-1.6c0.5-0.5,1.1-0.9,1.8-1c1.6-0.3,3.3-0.1,4,1c0.6,1.2,0.7,2.7,0.2,4
			c0,0-1,1.5-1.4,1.8c-0.7,0.5-1.6,0.7-2.4,0.5c-0.9-0.3-2.3-2.7-2.6-3.4C305.3,120.8,305.2,120.3,305.2,119.9"/>
		<path class="st16" d="M310.8,119.5c0.3,0.3,0.3,0.8,0,1.1c0,0,0,0,0,0c-0.3,0.3-0.9,0.4-1.2,0.1c-0.3-0.4-0.3-0.9,0-1.2
			C310,119.2,310.5,119.2,310.8,119.5"/>
		<path class="st14" d="M307.7,124v0.1l-3.2,2.3c-0.5,2.8-2,1.8-1.6,0.5c-2.5,0.4-1.5-3.5,0.9-1.5l3-2.1c0.2,0.3,0.4,0.5,0.7,0.8
			L307.7,124z"/>
		<path class="st16" d="M307.1,119.6c0.3,0,0.7,0.2,0.7,0.8c0.1,0.4-0.2,0.7-0.6,0.8c0,0-0.1,0-0.1,0c-0.4,0-0.8-0.3-0.8-0.7
			C306.2,119.8,306.8,119.7,307.1,119.6"/>
		<path class="st14" d="M305.9,121.2l-0.3,0.2l-2.5-1.2c-2.6,0.9-2.2-1.1-1.1-1.3c-1.4-2.2,2.3-2.2,1.7,0.4l1.5,0.5
			C305.2,120.4,305.7,120.8,305.9,121.2"/>
		<path class="st16" d="M309.5,122.3c0,0.1-0.1,0.2-0.1,0.2c-0.1,0-0.2-0.1-0.2-0.1c0-0.1,0.1-0.2,0.2-0.2
			C309.4,122.2,309.5,122.3,309.5,122.3C309.5,122.4,309.5,122.4,309.5,122.3 M308.7,122.5c0,0.1-0.1,0.1-0.1,0.2
			c-0.1,0-0.2,0-0.2-0.1c0-0.1,0-0.1,0.1-0.2c0,0,0,0,0,0C308.6,122.3,308.7,122.4,308.7,122.5C308.7,122.4,308.7,122.5,308.7,122.5
			"/>
		<path class="st14" d="M314.7,116.2c1.7-0.3,0.9,2.4-0.9,1.4l-2,2h-0.1c-0.1-0.3-0.3-0.6-0.5-0.9l1.8-1.8c-0.4-1.5,0.1-2.2,0.7-2.2
			c0.6,0,1,0.4,1.1,0.9C314.8,115.9,314.7,116,314.7,116.2"/>
		<path class="st17" d="M306.7,198c1.7,1.2,3.2,2.7,4.3,4.5c-1,2.7-3.2,5.3-5.6,7.9c-0.1,0.2-0.3,0.3-0.5,0.5l-4.1-4.5L306.7,198z"
			/>
		<path class="st14" d="M305,204.6c0.4,0,0.7,0.3,0.8,0.7c0,0.4-0.3,0.7-0.7,0.8l0,0c-0.4,0-0.7-0.3-0.8-0.6c0,0,0,0,0,0
			C304.3,204.9,304.6,204.6,305,204.6"/>
		<path class="st10" d="M310.2,143.8c0.1,0.7-0.3,1.4-1,1.8l-7.8,2.5c-2.2,0.6-3.1,0.2-3.3-0.8l-1.7-6.4c-0.3-1.4,0.3-2.1,1.6-2.4
			l8-2.5c1.4-0.3,2-0.2,2.3,1.2L310.2,143.8z"/>
		<path class="st18" d="M298.2,143.5c-2.1,0.8-4.4,1.1-6.6,0.8"/>
		<path class="st18" d="M328.2,127.5c0,0-15.2,9.6-21.1,12.7"/>
		<path class="st14" d="M322.9,133.1c2.6-0.2,4.9,1.8,5.1,4.4c0.2,2.6-1.1,5.6-4.6,5.9c-2.6,0.2-4.7-2.5-4.9-5.1
			C318.3,135.6,320.2,133.3,322.9,133.1C322.9,133.1,322.9,133.1,322.9,133.1"/>
		<path class="st16" d="M325.4,137.1c0.4-0.1,0.8,0.2,0.9,0.6c0,0,0,0.1,0,0.1c0.1,0.4-0.3,0.8-0.7,0.9c0,0,0,0,0,0
			c-0.7,0-0.8-0.4-0.9-0.9C324.7,137.5,325,137.1,325.4,137.1"/>
		<path class="st19" d="M316.3,149.4c0.4,0.1,6.7-0.5,6.2-3.4c-0.3-1.7-8.6-4.5-8.9-4.4"/>
		<path class="st20" d="M344.6,138.2c-0.5,1.8-0.6,3.7-0.3,5.6l-2.1-0.3l-8.5-1.3l-5.3-0.8l-1.1-0.2c-0.5-1.6-0.4-3.4,0.4-4.9h0.9
			l3,0.2L344.6,138.2z"/>
		<path class="st12" d="M342.9,142.9l2.1,0.3l10.2,1.4l-1.5,3.1l-8.5,0.6c0,0-6.7-3.7-5.8-5.2C339.8,142.5,342.9,142.9,342.9,142.9"
			/>
		<path class="st7" d="M405,141.3c1.3,0.6,1.8,4,0.9,7.9c-0.9,4.1-2.8,7.1-4.4,6.8h0c-1.5-0.4-1.9-3.9-1.1-8c0.8-3.7,2.5-6.6,4-6.8
			L405,141.3z"/>
		<path class="st20" d="M361.5,138.5l16.1,1.7c-2.2,2.6-2.7,6.3-1.5,9.4l-16.8-2.7c-1.6-2.6-1.1-5.9,1.3-7.9
			C360.9,138.8,361.2,138.6,361.5,138.5"/>
		<path class="st21" d="M360.7,139L360.7,139c-1.8,2.1-2.4,4.9-1.4,7.5l-3.7-0.5l-11.2-1.7c-1-1.3-0.8-5.6,0.4-6.4
			C345.5,138.1,360.7,139,360.7,139"/>
		<path class="st12" d="M357.3,138.8c0.1,0.4,0,0.8-0.1,1.2c-2.5,6.2-5.1,4.4-3.9-0.8c-3.4,5.6-6.8,3.9-4.4-0.6
			c-2.4,2.6-3.2,3.4-3.8,3.3c-1-0.1-1.3-1.4,0-3.5c0.1-0.1,0.1-0.2,0.2-0.3l0,0c0.8-1.2,2.1-2,3.5-2.1c3.8-0.5,6.5,0.5,7.9,1.7
			C357,137.8,357.2,138.3,357.3,138.8"/>
		<path class="st17" d="M354.5,147.7c0,0,0.6,4.3,0.2,6.1c-0.2,0.3-9.1,0.8-9.1,0.7c-0.6-1.1-1.3-6-1.3-6l9.4-0.7L354.5,147.7z"/>
		<path class="st13" d="M346,154.4l8.1-0.6c0,10.5-3.4,17.4-10.4,20.9l0,0c-1.5-2.6-4.4-5.3-6.4-7.6
			C342.5,165.9,346.2,161.9,346,154.4"/>
		<path class="st14" d="M351.6,151.1c0.4,0,0.7,0.3,0.8,0.7c0,0.4-0.3,0.7-0.7,0.8c-0.4,0-0.7-0.3-0.8-0.6c0,0,0,0,0,0
			C350.9,151.5,351.2,151.1,351.6,151.1"/>
		<path class="st21" d="M378.6,139.1l25.8,2.1c-1.4,0.2-3.1,3.1-4,6.8c-0.9,4-0.4,7.6,1.1,8l-25-5.1
			C374.2,146,375.1,141.4,378.6,139.1"/>
		<path class="st7" d="M410.9,227.5l-17.3,1.1c3.7,2.5,7.9,7.4,9,15.3l20-1.7V242C421.4,232.4,417.1,229.1,410.9,227.5"/>
		<polygon class="st22" points="380.5,238.3 381.1,254.3 398,262.2 398.2,244.3 		"/>
		<path class="st4" d="M398,244.4c-1.1-10.3-4.9-14.8-9.6-15.2c-5.3-0.5-8,5.2-8,9.2C380.5,238.3,398,244.3,398,244.4"/>
		<path class="st21" d="M384.9,246c-0.1,0.4,0.1,0.8,0.8,1.1c0,0,0-0.1,0-0.1c0.1-0.3,0.5-0.4,0.7-0.2c0.2,0.1,0.4,0.4,0.3,0.6
			c0.8,0.1,1.2-0.2,1.3-0.6s-0.4-1.1-1.4-1.3S384.9,245.5,384.9,246"/>
		<path class="st5" d="M385.6,247.2c-0.5,0.8-0.7,1.7-0.6,2.7c-0.1,1.8,1.2,3.4,3,3.5c0.2,0,0.4,0,0.6,0c1.9,0.1,3.6-1.5,3.6-3.4
			c0-0.1,0-0.3,0-0.4c0-0.2,0-0.5-0.1-0.7c0-0.1,0-0.3-0.1-0.4c-0.1-0.3-0.4-0.6-0.8-0.5c-0.3,0-0.5,0.3-0.5,0.6c0,0,0,0,0,0v0.1
			c0,0,0,0.1,0,0.1c0,0.1,0,0.2,0,0.3c0.2,1.3-0.7,2.4-2,2.6c-1.3,0.2-2.4-0.7-2.6-2c0-0.1,0-0.3,0-0.4c0-0.6,0.1-1.1,0.4-1.6v-0.1
			c0.1-0.2-0.1-0.5-0.3-0.6C386.1,246.7,385.7,246.8,385.6,247.2L385.6,247.2"/>
		<path class="st21" d="M389.9,247.4c-0.1,0.5,0.2,1,1,1.3c0,0,0-0.1,0-0.1v-0.1c0-0.3,0.2-0.5,0.5-0.6c0,0,0,0,0,0
			c0.4,0,0.7,0.2,0.8,0.5c0,0.1,0.1,0.2,0.1,0.4c0.5,0,0.7-0.2,0.8-0.5c0.1-0.5-0.4-1.2-1.4-1.4S390,246.9,389.9,247.4 M393.6,228.6
			l-6.4,0.5c4.8,0.2,9.8,4.9,10.9,15.2l4.5-0.4C401.9,235,397.6,230.5,393.6,228.6"/>
		<path class="st23" d="M393.6,230.5c0,0.3,0.2,0.5,0.4,0.5c0,0,0,0,0,0c0.3,0,0.5-0.2,0.5-0.5c0-0.3-0.2-0.5-0.5-0.5
			C393.8,230.1,393.6,230.3,393.6,230.5"/>
		<polygon class="st4" points="398,244.3 398,262.2 426.8,255.3 427,240.6 		"/>
		<path class="st23" d="M410.9,240.9L410.9,240.9c-1.2,0.1-2.1,1.2-2,2.4c0,0.1,0,0.1,0,0.2l2.4-0.4c0,0,0.6,4.3,0.6,6
			c0,0.7,4,0.2,3.9-0.5l-0.6-5.9l2.5-0.4c-0.2-1.7-1-2-2.4-1.9l0,0c-0.1-1.2-1.2-2.1-2.4-1.9S410.8,239.7,410.9,240.9 M399.6,241.8
			c0,0.5,0.3,0.8,0.8,0.8c0,0,0,0,0,0c0.5,0,0.8-0.4,0.8-0.8c0-0.5-0.4-0.8-0.8-0.8l0,0C400,240.9,399.6,241.3,399.6,241.8
			C399.6,241.7,399.6,241.8,399.6,241.8 M398.5,237.7c0,0.4,0.3,0.7,0.6,0.7c0,0,0,0,0,0c0.4,0,0.7-0.3,0.7-0.6c0,0,0,0,0,0
			c0-0.4-0.3-0.7-0.7-0.7C398.8,237,398.5,237.3,398.5,237.7 M396.3,233.5c0,0.3,0.3,0.6,0.6,0.6s0.6-0.3,0.6-0.6
			c0-0.3-0.3-0.6-0.6-0.6l0,0C396.6,232.9,396.3,233.2,396.3,233.5"/>
		<path class="st21" d="M415.6,227.3l-4.8,0.2c6.4,3,9.7,6.1,11.2,13.8l4.9-0.6C425.5,233,421.5,229.6,415.6,227.3"/>
		<path class="st4" d="M413.2,247.9l1.1-0.1l-0.5-2.1c0.2-0.1,0.4-0.3,0.4-0.6c-0.1-0.4-0.4-0.6-0.8-0.5c-0.3,0.1-0.6,0.3-0.5,0.7
			c0,0.2,0.2,0.4,0.4,0.5C413.2,246.7,413.2,247.9,413.2,247.9"/>
		<path class="st23" d="M424.1,238.3c-0.5,0-0.8,0.5-0.7,0.9c0,0.5,0.5,0.8,0.9,0.7s0.8-0.5,0.7-0.9c0,0,0,0,0,0
			C424.9,238.6,424.5,238.3,424.1,238.3 M422.5,234.3c-0.4,0-0.6,0.4-0.6,0.7c0,0.4,0.4,0.6,0.7,0.6c0.4,0,0.6-0.4,0.6-0.7
			C423.2,234.5,422.9,234.3,422.5,234.3C422.5,234.3,422.5,234.3,422.5,234.3 M420,231.2c-0.3,0-0.6,0.3-0.5,0.6c0,0,0,0,0,0
			c0,0.3,0.3,0.6,0.6,0.5c0,0,0,0,0,0c0.3,0,0.6-0.3,0.6-0.6C420.7,231.4,420.4,231.2,420,231.2C420.1,231.2,420,231.2,420,231.2
			 M416.4,228.7c-0.3,0-0.4,0.3-0.4,0.5c0,0.3,0.3,0.4,0.5,0.4s0.4-0.3,0.4-0.5c0,0,0,0,0,0C416.8,228.8,416.6,228.7,416.4,228.7
			C416.4,228.7,416.4,228.7,416.4,228.7"/>
		<polyline class="st24" points="490.5,179.6 494.9,185.2 497.7,185.2 		"/>
		<polyline class="st24" points="488.1,181.5 491.7,187.1 492.3,189.7 		"/>
		<polyline class="st24" points="495.3,187.5 494.9,185.2 496.8,186.7 		"/>
		<polyline class="st24" points="493.7,188.6 491.7,187.1 494.6,187.7 		"/>
		<path class="st8" d="M494.9,179.4c-0.5,0.6-1,1.1-1.5,1.6l0,0c-1.7,1.3-3.7,2-5.8,2.1c-0.3,0-0.6,0-1,0c-0.7,0-1.3-0.1-2-0.2
			c-4-0.7-6.9-3.5-6.9-8c0-1.4,0.4-2.8,1.1-4c1-1,1.9-2.1,2.5-3.3c0.6-1.2,0.9-2.5,0.7-3.8c-0.2-1.9-1-3.7-2.3-5.1
			c4.6-5.5,14.8-2.6,11.5,6.9C491,165.5,499.2,171.1,494.9,179.4"/>
		<path class="st8" d="M509.8,183l-16.4-2l0,0C494.3,180.8,507.3,177.8,509.8,183"/>
		<path class="st8" d="M508.7,186.2h-2.1l-13.1-5.2h-0.1l0,0C499.9,181.8,505.3,183.3,508.7,186.2"/>
		<path class="st8" d="M507.1,192.4c0,0-10.5-6.3-13.7-11.3l0,0h0.1C494.5,181.5,506,186.5,507.1,192.4"/>
		<path class="st5" d="M482.1,163.9c0.2,1.3-0.1,2.6-0.7,3.8c-0.6,1.3-1.5,2.4-2.5,3.3l-6.5-3.5h-0.1l-8.8-0.2
			c0.3-3.7,2.5-6.9,5.8-8.7c3.3-1.7,7.2-1.7,10.5,0.1C481,160.2,481.9,162,482.1,163.9"/>
		<path class="st21" d="M477.3,160.6c0.5,0.1,0.8,0.5,0.7,0.8s-0.5,0.4-1,0.3s-0.6-0.4-0.5-0.7S476.8,160.5,477.3,160.6"/>
		<path class="st14" d="M485.8,158.9c1.4,0,2.6,1.1,2.6,2.5c0,0,0,0,0,0c0.2,1.5-0.9,2.8-2.4,3c-0.1,0-0.2,0-0.3,0
			c-1.4,0-2.4-1.5-2.4-3C483.3,160,484.4,158.9,485.8,158.9"/>
		<path class="st16" d="M485.1,160.8c0.3,0,0.5,0.2,0.5,0.5l0,0c0,0.3-0.2,0.5-0.5,0.5c0,0,0,0,0,0c-0.3,0-0.5-0.3-0.5-0.5
			C484.6,161,484.8,160.8,485.1,160.8C485.1,160.8,485.1,160.8,485.1,160.8"/>
		<path class="st24" d="M474.5,167.5c1.8,0.8,3.9,0.1,4.9-1.6"/>
		<path class="st25" d="M501.1,174.2c-4.4,1.4-9.7,1.7-11.4-1.4c-1.4-2.7,0-5.7,2.6-8.5c7.3-7.7,23.6-12.8,8.9,1.2
			c4-2.3,12.5-2.6,0,3.6C511.4,168.4,507.2,172.3,501.1,174.2"/>
		<path class="st8" d="M558.6,42.7l5.8,8.2l13.5-17c0,0-11.6-0.3-22.4,9.9S558.6,42.7,558.6,42.7z"/>
		<polygon class="st9" points="558.6,40.9 562.5,33.8 577.8,33.8 566.5,38.6 		"/>
		<path class="st4" d="M506.4,105.8c0,0.6-0.1,1.1-0.3,1.6c-0.6,1.6-2,2.9-3.7,3.2c-0.3,0.1-0.7,0.1-1,0.1c-2.7,0-4.9-2.2-4.9-4.9
			c0,0,0,0,0,0c0-0.2,0-0.4,0-0.6c0.3-2.7,2.8-4.7,5.5-4.3c1.7,0.2,3.1,1.2,3.9,2.7C506.2,104.3,506.4,105,506.4,105.8 M506.9,112.3
			c1.7,1.9,1.5,4.9-0.4,6.6c-1.9,1.7-4.9,1.5-6.6-0.4s-1.5-4.9,0.4-6.6c0.6-0.5,1.3-0.9,2.1-1.1c0.3-0.1,0.7-0.1,1-0.1
			C504.8,110.7,506.1,111.3,506.9,112.3"/>
	</g>
</g>
</svg>
