<?xml version="1.0" encoding="UTF-8"?><svg xmlns="http://www.w3.org/2000/svg" xmlns:xlink="http://www.w3.org/1999/xlink" viewBox="0 0 37.28 72.64"><defs><style>.g{fill:#dad8cc;}.h{fill:#fff;}.i{fill:#fcc700;}.j{stroke:#1d1d1b;stroke-linecap:round;stroke-width:.4px;}.j,.k{fill:none;}.l{fill:#f39200;}.m{fill:#f3a5c2;}.n,.o{fill:#b780b1;}.p{clip-path:url(#e);}.q{clip-path:url(#d);}.r{clip-path:url(#f);}.s{fill:#1d1d1b;}.o,.t{fill-rule:evenodd;}.t{fill:#9c6297;}</style><clipPath id="d"><path class="k" d="M34.2,0c-.33,0-5.06,2.62-7.86,6.22-2.22,2.86-4.17,6.88-4.17,6.88l3.52,.58s1.02-2.16,2.22-4.56C29.77,5.38,34.53,0,34.2,0"/></clipPath><clipPath id="e"><path class="k" d="M11.51,9.12c1.2,2.4,2.22,4.56,2.22,4.56l3.52-.58s-1.96-4.03-4.18-6.88C10.27,2.62,5.54,0,5.21,0c-.33,0,4.42,5.38,6.3,9.12"/></clipPath><clipPath id="f"><path class="k" d="M14.03,13.37c-2.72,2.33-3.86,6.25-3.36,10.91,.5,4.67,2.62,16.68,9.47,15.85,6.85-.84,6.64-7.48,7.98-11.18,1.62-4.48,.12-14.23-2.37-16.07-1.17-.87-3.22-1.32-5.35-1.32-2.41,0-4.91,.58-6.36,1.82"/></clipPath></defs><g id="a"/><g id="b"><g id="c"><g><path class="l" d="M26.34,6.22C29.14,2.62,33.86,0,34.19,0c.33,0-4.42,5.38-6.3,9.12-1.2,2.4-2.22,4.56-2.22,4.56l-3.52-.58s1.96-4.03,4.18-6.88"/><g class="q"><path class="i" d="M22.53,10.37s1.28,.49,2.68,.94c1.39,.45,1.74,.51,1.74,.51l1.24-1.93s-2.44-1.11-3.94-1.55c-1.5-.43-1.71,2.03-1.71,2.03"/><path class="i" d="M25.35,6s1.22,.62,2.55,1.22c1.33,.6,1.67,.68,1.67,.68l1.44-1.76s-2.31-1.35-3.74-1.94c-1.44-.59-1.92,1.8-1.92,1.8"/><path class="i" d="M28.64,2.12s1.13,.77,2.37,1.53c1.25,.76,1.57,.89,1.57,.89l1.66-1.56s-2.11-1.63-3.46-2.4c-1.35-.77-2.14,1.54-2.14,1.54"/></g><path class="l" d="M13.07,6.22C10.27,2.62,5.54,0,5.21,0c-.33,0,4.42,5.38,6.3,9.12,1.2,2.4,2.22,4.56,2.22,4.56l3.52-.58s-1.96-4.03-4.18-6.88"/><g class="p"><path class="i" d="M16.87,10.37s-1.28,.49-2.67,.94c-1.39,.45-1.74,.51-1.74,.51l-1.24-1.93s2.44-1.11,3.94-1.55c1.5-.43,1.71,2.03,1.71,2.03"/><path class="i" d="M14.05,6s-1.22,.62-2.55,1.22c-1.33,.59-1.67,.68-1.67,.68l-1.44-1.76s2.31-1.35,3.75-1.95c1.44-.59,1.92,1.8,1.92,1.8"/><path class="i" d="M10.76,2.12s-1.13,.77-2.37,1.53c-1.24,.76-1.57,.89-1.57,.89l-1.66-1.56s2.11-1.63,3.46-2.4c1.35-.77,2.14,1.54,2.14,1.54"/></g><path class="g" d="M13.21,31.79s-1.33,12.85-1.33,15.65-.21,6.43,0,6.95c.21,.52,16.48,.49,16.48,.49,0,0-1.93-19.65-2.14-23.61-5.71-.33-13.01,.52-13.01,.52"/><path class="h" d="M24.89,47.1c0,6.39-2.62,9.88-5.37,9.88s-5.04-2.92-4.88-9.3c.19-7.86,2.13-13.82,4.88-13.82,3.96,0,5.37,6.86,5.37,13.25"/><path class="m" d="M.37,20.42s4.52,.47,7.33-1.02c3.58-1.9,6.11-3.91,6.24-4.33,.14-.42-2.15-1.5-4.71-.85C6.68,14.88,.37,20.42,.37,20.42"/><path class="m" d="M37.11,21.9s-4.02,.45-7.39-1.8c-3.36-2.26-4.91-4.48-5.05-4.89-.14-.42,4.51,.87,7.06,1.53,2.56,.65,5.37,5.17,5.37,5.17"/><path class="g" d="M33.2,15.03c2.72,1.47,3.82,4.27,4.04,6.02,.18,1.45-.3,1.07-.9,.46-.6-.6-1.83-3.02-4.55-4.27-2.31-1.07-4.53-1.16-4.53-1.16l-1.51-2.06s3.62-1.07,7.44,1.01"/><path class="g" d="M10.66,24.29c.5,4.67,2.62,16.69,9.47,15.85,6.85-.84,6.64-7.48,7.97-11.18,1.62-4.48,.12-14.23-2.37-16.07-2.49-1.85-8.99-1.83-11.71,.49-2.72,2.33-3.86,6.25-3.36,10.91"/><g class="r"><path class="h" d="M29.68,27.27c0,.65-.51,1.21-1.16,1.21s-1.18-.38-1.18-1.03,.53-1.18,1.18-1.18,1.16,.34,1.16,.99"/><path class="h" d="M12.95,27.82c0,.78-.63,1.29-1.41,1.29s-1.41-.51-1.41-1.29,.63-1.41,1.41-1.41,1.41,.63,1.41,1.41"/><path class="h" d="M26.56,26.18c0,.45-.21,.79-.65,.79s-.96-.35-.96-.79,.36-.81,.81-.81,.8,.36,.8,.81"/></g><path class="g" d="M13.07,61.37s.06,3.85,0,5.31c-.06,1.46,0,2.39,0,2.39,0,0,1.74,.06,2.21,0l.47-.05s-.01-2.15,0-3.54c.01-1.38,0-4.1,0-4.1h-2.68Z"/><path class="g" d="M25.25,60.17s.06,5.05,0,6.51c-.06,1.46,0,2.39,0,2.39,0,0,1.74,.06,2.21,0l.47-.05s-.01-2.15,0-3.54c.01-1.38,0-5.3,0-5.3h-2.68Z"/><path class="s" d="M13.02,69s-.76,3.58-.17,3.65c.58,.07,1.57-2.28,1.57-2.28,0,0,.31,2.3,.75,2.08,.44-.22,.89-2.84,.65-3.44-.76,.13-2.8,0-2.8,0"/><path class="s" d="M27.94,69s.74,3.58,.17,3.65c-.57,.07-1.54-2.28-1.54-2.28,0,0-.3,2.3-.73,2.08-.43-.22-.88-2.84-.63-3.44,.58,.17,2.74,0,2.74,0"/><path class="g" d="M25.3,32.6s6.43,2.77,7.89,4.71c2.23,2.98-1.66,7.87-1.66,7.87l-2.08-1.7s2.14-2.67,1.75-3.82c-.39-1.15-5.54-4.05-5.54-4.05l-.37-3.01Z"/><path class="s" d="M31.53,45.17s-1.78,3.4-2.2,2.96c-.42-.44,.5-2.36,.5-2.36,0,0-1.91,1.52-2.29,1.05-.38-.48,1.93-3.34,1.93-3.34l2.07,1.7Z"/><path class="g" d="M14.13,32.6s-6.43,2.77-7.89,4.71c-2.23,2.98,1.66,7.86,1.66,7.86l2.08-1.69s-2.14-2.67-1.75-3.82c.38-1.15,5.54-4.05,5.54-4.05l.36-3.01Z"/><path class="s" d="M7.9,45.17s1.78,3.4,2.2,2.96c.42-.44-.5-2.36-.5-2.36,0,0,1.91,1.52,2.29,1.05,.38-.48-1.93-3.34-1.93-3.34l-2.06,1.7Z"/><path class="h" d="M22.37,19.59c-.28,1.25,.03,3.2,2.02,3.41,2.32,.24,2.9-1.32,3.03-2.23,.17-1.32-.45-2.81-2.16-3.16-1.71-.35-2.71,1.18-2.88,1.97"/><path class="s" d="M25.22,19.71c-.06,.2-.02,.52,.31,.57,.39,.06,.5-.19,.52-.33,.04-.21-.05-.46-.34-.53-.28-.07-.46,.17-.5,.29"/><path class="h" d="M11.8,20.03c-.34,1.23-.16,3.2,1.75,3.49,2.21,.34,2.86-1.19,3.02-2.09,.24-1.31-.27-2.82-1.9-3.25-1.62-.43-2.66,1.06-2.87,1.84"/><path class="s" d="M14.6,20.32c-.06,.2-.02,.52,.31,.57,.39,.06,.5-.19,.52-.33,.04-.21-.05-.46-.34-.53-.28-.07-.46,.17-.5,.29"/><path class="o" d="M23.21,11.87c.79,1.27,3.11,3.06,3.29,2.85,.44-.5,1.71-3.17,1.86-4.82-1.48-.33-3.37-.26-4.85,.42-.58-1.28-1.97-2.45-3.56-3.28-.9,1.92-1.47,4.49-1.3,5.14,0,0,3.25,.73,4.56-.31"/><path class="t" d="M22.73,12.67c-.94-.15-.82-1.16-.5-2.1,.32-.94,.58-1.37,1.57-1.08,1.03,.3,.92,.92,.6,1.86-.32,.95-.63,1.49-1.66,1.32"/><path class="n" d="M11.55,50.92s-1.82,5.1-2.3,7.04c-.48,1.95-1.44,3.85-1.19,4.3,.24,.45,9.98,.83,14.67,.25,4.69-.58,10.07-1.78,9.74-2.35-.33-.57-.7-1.92-1.81-4.44-1.1-2.52-2.75-5.77-2.75-5.77,0,0-3.72,1.23-7.26,1.45-5.47,.34-9.1-.5-9.1-.5"/><path class="j" d="M19.7,37.16s-.02,1.22,.19,1.76c.21,.54,.56,1.1,.56,1.1"/><path class="j" d="M24.16,38.33s.48-.56,.35-1.28c-.1-.57-.36-.83-.36-.83"/><path class="g" d="M14.75,14.63s-3.69-2.68-7.74-1.96c-2.75,.49-5.07,2.82-6.06,4.75-1,1.93-1.2,3.07-.64,3.03,.75-.29,3.26-2.82,6.06-4.1,3.75-1.72,8.38-1.72,8.38-1.72"/><path class="m" d="M19.7,37.28c.41,0,1.19-.82,1.9-1.61,.71-.8,1.27-1.61,.11-2.32-1.15-.71-3.2-.62-4.18,0-.98,.62-.43,1.43-.06,1.86,.62,.7,1.78,2.08,2.22,2.08"/></g></g></g></svg>