<?xml version="1.0" encoding="UTF-8"?><svg xmlns="http://www.w3.org/2000/svg" viewBox="0 0 71 45.44"><defs><style>.d{fill:#dad8cc;}.e{fill:#fff;}.f{fill:#f3a5c2;}.g{fill:none;stroke:#1d1d1b;stroke-linecap:round;stroke-miterlimit:10;stroke-width:.41px;}.h{fill:#c6c2b5;}.i{fill:#878277;}.j{fill:#1d1d1b;}.k{fill:#a4a092;}</style></defs><g id="a"/><g id="b"><g id="c"><g><path class="d" d="M63.02,16.63s-.66-.25-1.12-.54c-.89-.57-1.3-1.42-1.3-1.42,0,0,5.87-2.48,5.35-7.11,0,0,2.69,2.71-.14,6.44,0,0-2.44,2.51-2.78,2.64"/><path class="h" d="M50.54,38.9s2.48,2.29,2.32,2.83c-.24,.81-2.89-.92-2.89-.92,0,0,1.35,2.26,.74,2.66-1,.65-3.35-3.39-3.35-3.39l3.19-1.18Z"/><path class="d" d="M44.98,41.93s.73,3.43,2.29,3.5c.86,.04-.09-2.55-.09-2.55,0,0,2.02,2.64,2.72,1.62,.55-.8-1.03-2.31-1.8-3.58l-3.12,1Z"/><polygon class="i" points="44.63 32.22 50.54 38.9 47.36 40.08 43.36 33.5 44.63 32.22"/><path class="i" d="M11.24,31.92s-1.33,4.13-5.81,1.89l-.31,2.64s5.62,3.08,7.18-2.03l-1.06-2.5Z"/><path class="k" d="M8.14,20.52s-3.37,5.22-5.99,3.09c0,0-1.63-2.11,1.86-4.29,0,0,1.13-1.27-.59-1.14,0,0-5.2,1.9-2.78,6.55,0,0,2.51,4.58,7.99-1.23l-.49-2.97Z"/><path class="i" d="M47.25,8.13S50.05,.92,44,.07c-1.88-.27-6.31-.05-6.22,6.22,0,0,2.32,2.37,1.43,4.1,0,0,5.06-2.8,8.04-2.26"/><path class="k" d="M5.96,39.58l-.04-3.03s4.26,2.12,5.59-1.44c0,0-6.06-7.81-4.16-14.02,.87-2.84,2.93-7.89,8.06-8.74l-3.03-.8s4.73-.87,6.38-.52c0,0-2.29-1.26-3.77-1.73,0,0,4.67-.7,7.55,1.1,0,0-.38-.54-3.82-2.76,0,0,3.79-.17,8.85,2.7,0,0-3.27-2.99-4.81-3.95,0,0,3.97-.29,8.69,3.74-1.87-1.45-3.8-8.08,2.85-8.93,3.39-.43,7.16,2.78,6,7.01,0,0,6.08-3.31,12.99,.68,0,0,7.7,4.55,15.73,4.76,0,0-4.13,2.84-.9,7.31,0,0-5.29,1.89-12.13,3.45-6.84,1.56-11.68,8.82-12.24,9.4,0,0,1.37,1.19,4.36,7.1l-3.12,1-5.92-7.94s-7.24,6.48-18.95,2.39c0,0-2.99-1.22-3.99,.85,0,0-2.34,5.57-10.15,2.35"/><path class="f" d="M33.95,7.97c.25,1.54,2.5,2.88,3,2.31,.9-1.04,1.11-2.66,.52-3.74-.65-1.19-1.45-1.25-2.18-1.04-1.11,.31-1.56,1.13-1.34,2.47"/><path class="f" d="M66.65,17.5c.03,2.12,.65,3.48,1.85,3.47,1.2-.01,2.52-1.4,2.5-3.52-.03-2.11-1.02-3.82-2.22-3.8-1.2,.01-2.15,1.74-2.13,3.85"/><path class="e" d="M43.95,11.76c.02,1.58,1.42,3.2,2.55,3.31,2.18,.2,3.23-1.2,3.05-2.92-.17-1.57-1.6-3.15-3.35-2.93-1.13,.14-2.28,.96-2.26,2.54"/><path class="d" d="M5.92,36.55s-3.06-2.49-4.14-2.25c-.97,.22-.33,1.07,2.08,2.93,0,0-3.19-1.83-3.17-.74,.02,1.04,1.06,2.23,5.26,3.09v-2.71"/><path class="h" d="M5.63,33.9s-2.04-1.44-3.12-1.67c-1.28-.27-.09,2.13,2.98,4.04l.14-2.37Z"/><path class="j" d="M47.45,11.95c0,.22,.18,.46,.39,.46,.22,0,.43-.21,.42-.43,0-.22-.22-.43-.43-.42-.22,0-.39,.18-.39,.4"/><path class="e" d="M44.38,19.53l-1.27,4.32,1.73,.51,.92-3.34,.17,3.52,1.88-.33-.43-3.34s-1.62,.4-2.99-1.34"/><path class="g" d="M49.18,19.98s-2.85,2.86-5.5-1.47"/><path class="j" d="M67.77,17.1c0,.38,.21,.54,.4,.54,.19,0,.39-.14,.39-.53,0-.4-.22-.53-.4-.53-.19,0-.39,.14-.39,.53"/><path class="j" d="M69.4,17.14c0,.38,.17,.54,.32,.54,.15,0,.28-.11,.32-.5,.03-.38-.18-.57-.33-.57-.15,0-.32,.14-.31,.53"/><path class="d" d="M56.01,23.55s-.66-.25-1.12-.54c-.89-.57-1.3-1.42-1.3-1.42,0,0,5.87-2.49,5.35-7.12,0,0,2.69,2.72-.14,6.44,0,0-2.45,2.51-2.79,2.64"/></g></g></g></svg>