<?xml version="1.0" encoding="utf-8"?>
<!-- Generator: Adobe Illustrator 26.2.1, SVG Export Plug-In . SVG Version: 6.00 Build 0)  -->
<svg version="1.1" id="Capa_1" xmlns="http://www.w3.org/2000/svg" xmlns:xlink="http://www.w3.org/1999/xlink" x="0px" y="0px"
	 viewBox="0 0 61.9 66.8" style="enable-background:new 0 0 61.9 66.8;" xml:space="preserve">
<style type="text/css">
	.st0{fill:#F3A5C2;}
	.st1{fill:#9C6297;}
	.st2{fill:#A4659E;}
	.st3{fill:#B780B1;}
	.st4{fill:#FFFFFF;}
	.st5{fill:#1D1D1B;}
	.st6{fill:none;stroke:#DAD8CC;stroke-width:0.28;stroke-linecap:round;}
	.st7{fill:#F39200;}
	.st8{clip-path:url(#SVGID_00000057135190223425984440000017706659609342696591_);}
	.st9{clip-path:url(#SVGID_00000151510430783578718340000006691375689012472720_);}
	.st10{clip-path:url(#SVGID_00000160160678721570583380000008218482017169707942_);}
</style>
<g id="a">
</g>
<g id="b">
	<g id="c">
		<g>
			<path class="st0" d="M46.5,40.5c0,0,1,1.5,1,1.3c0-0.1-0.2-2.2-0.2-2.2L46.5,40.5z"/>
			<path class="st0" d="M47.6,39.3c0,0,1.7,1,1.7,0.9c0-0.1-1-1.9-1-1.9L47.6,39.3L47.6,39.3z"/>
			<path class="st0" d="M49.1,37.3c0,0,1.6,0.5,1.5,0.4c0-0.1-1.2-1.3-1.2-1.3L49.1,37.3z"/>
			<path class="st1" d="M40.7,29.8c0,0,1.2,3.5,2.3,4.6c1.1,1.1,3.3,2.2,3.3,2.2s0.7-0.3,2.1-0.3c0.6,0,1.3,0,1.3,0s-1,1.9-2.2,3.4
				c-0.4,0.5-0.9,0.8-0.9,0.8s-0.7-0.2-1-1c-0.3-0.8-0.5-1.4-0.5-1.4s-2.3-1.2-4.3-3.3c-2-2.1-2.4-3.7-2.6-4.2S40.7,29.8,40.7,29.8"
				/>
			<path class="st1" d="M20.4,54.3c0,0-3.2,6.3-7.5,7.6c-4.2,1.3-13-0.2-13-0.2s7.4,3.9,13,2.7c3.5-0.8,5.1-0.8,10.2-6.5
				c0.6-0.6,1.6-1.3,1.6-1.3S20.4,54.3,20.4,54.3z"/>
			<path class="st2" d="M13.3,64.4c-0.7-0.5-1.5-1.2-2.4-2.2c1-0.1,2-0.2,2.8-0.4c1,0.8,1.8,1.4,2.5,1.8
				C15.1,64,14.2,64.2,13.3,64.4"/>
			<path class="st3" d="M15.7,63.8c-0.9-0.5-1.9-1.2-3.1-2.2c0.3-0.1,0.6-0.2,0.9-0.3c0.7-0.3,1.4-0.7,2-1.1c1.2,0.8,2.4,1.5,3.4,2
				C17.8,63,16.7,63.5,15.7,63.8"/>
			<path class="st2" d="M17.7,57.7c1.3,0.9,3.3,2,4.3,2.6c-1,1-2.5,1.7-3.4,2.2c-1-0.5-2.3-1.4-3.6-2.3
				C16.1,59.5,16.8,58.5,17.7,57.7"/>
			<path class="st3" d="M17.3,57.5c1.1-1.2,2-2.6,2.5-3.4c1.3,1,3.9,1.8,5,2.5c0.5,0.4-1.9,3-3,4C20.7,60,18.7,58.4,17.3,57.5"/>
			<path class="st1" d="M38.3,50.7c-0.9,4.5-1.9,7.4-8.9,7.4c-10.3,0-11.4-6.7-11.4-6.7L38.3,50.7L38.3,50.7z"/>
			<path class="st2" d="M38.7,51.4c0,0-2.9,1.4-11.9,1.4c-4.9,0-8.8-0.8-8.8-0.8l-0.8-1.7c0,0,5.1,0.5,11.2-0.1
				c7.1-0.8,10.7-2.1,10.7-2.1S38.7,51.4,38.7,51.4z"/>
			<path class="st3" d="M39.7,48.3c0,0-2.9,1-11.9,2c-4.9,0.5-10.9,0-10.9,0L16,47.9c0,0,6.4,0.5,12.5-0.4C36,46.2,40,44.6,40,44.6
				L39.7,48.3L39.7,48.3z"/>
			<path class="st2" d="M40.3,44.6c0,0-3.2,1.9-13.2,3.2c-4.9,0.6-11.6,0-11.6,0l-0.7-3.6c0,0,6.5,1.1,13.3-0.3
				c7.8-1.6,12.5-2.9,12.5-2.9L40.3,44.6L40.3,44.6z"/>
			<path class="st0" d="M38.7,61.1c0,0,1.7,0.2,1.6,0.2c-0.1,0-2,0.6-2,0.6L38.7,61.1z"/>
			<path class="st0" d="M38,62.4c0,0,1.9,1,1.8,1c-0.1,0-2.3-0.2-2.3-0.2L38,62.4L38,62.4z"/>
			<path class="st0" d="M37.1,63.8c0,0,1.4,1.1,1.3,1.2c-0.1,0.1-1.9-0.3-1.9-0.3L37.1,63.8z"/>
			<path class="st0" d="M26,62.9c0,0,1.9,0.2,1.8,0.2c-0.1,0-2.3,0.8-2.3,0.8S26,62.9,26,62.9z"/>
			<path class="st0" d="M25.1,64.2c0,0,1.9,1,1.8,1s-2.3-0.2-2.3-0.2L25.1,64.2z"/>
			<path class="st0" d="M24.2,65.5c0,0,1.2,1.3,1.1,1.4c-0.1,0-1.9-0.6-1.9-0.6L24.2,65.5L24.2,65.5z"/>
			<path class="st1" d="M23.1,21.8L41,27c-0.1,2.6-0.4,9.5-0.4,9.5s-6.7,2.2-12.9,3.9c-7.1,1.9-13.4,0.3-13.4,0.3s0.6-9.1,6.6-16.2
				C21.7,23.5,22.5,22.6,23.1,21.8"/>
			<path class="st1" d="M35.3,53.7v7.9c0,0,3.8-1,3.4-0.2s-2.2,3.4-2.2,3.4s-3.5,0.1-3.3-1.4c0.2-1.4,0.1-7.8,0.1-7.8"/>
			<path class="st3" d="M31.7,10.9c0,0-0.7-4.1-4.3-6.1c-3.6-2-7.8-3.2-7.9-2c0,1.2-0.4,3.1,2.1,6.6s7.9,5.4,7.9,5.4L31.7,10.9
				L31.7,10.9z"/>
			<path class="st3" d="M43,11c0.1-0.4-1.3-3.6,1.6-6.5c2.9-2.9,7.6-5.5,7.4-4c-0.2,1.5-1.3,6.1-2.9,8.2c-1.6,2.1-3.1,3.6-3.1,3.6
				L43,11L43,11z"/>
			<path class="st1" d="M23,53.5v8.9c0,0,3.4-0.2,3.1,0.6c-0.4,0.8-2.6,3.5-2.6,3.5s-2.7-0.8-2.5-2.2c0.2-1.4-0.2-11-0.2-11"/>
			<path class="st0" d="M31,12.1c0,0-1.5-2.9-3.2-3.8c-1.7-1-2.7-0.8-2.7-0.8s1.3,3,2.5,3.9C29.1,12.3,31,12.1,31,12.1"/>
			<path class="st0" d="M43.6,11.5c0,0,0.7-3.1,2-4.6c1.4-1.4,2.3-1.5,2.3-1.5s-0.5,3.3-1.4,4.4C45.4,11.1,43.6,11.5,43.6,11.5"/>
			<path class="st3" d="M53,22.2c-1.8-2.9-5.3-10.4-7.7-11.9C43,8.8,37.3,8.4,34.7,9c-1.7,0.4-5,1.9-6.1,4.5
				c-0.7,1.5-2.9,6.7-4.8,7.8l1.5,1.9l6.5,5.9c0,0,3.1,0,5,1.2c0.5-0.8,3.8,0.4,4,0.1c0.7-1,17.9,7.2,20.2,6.7
				C62.9,36.7,59.5,32.5,53,22.2"/>
			<path class="st4" d="M35.3,15.5c-0.6,1.6,0,3.7,1.9,4.4c1.4,0.5,3.8-0.3,3.8-2.6c0-1.8-0.8-3-2.2-3.5
				C37.4,13.3,35.9,13.9,35.3,15.5"/>
			<path class="st5" d="M38,17.1c-0.1,0.3-0.4,0.4-0.7,0.3S36.9,17,37,16.7s0.4-0.4,0.7-0.3S38.1,16.8,38,17.1"/>
			<path class="st4" d="M47.7,14.8c-0.6,1.2,0,3,1.4,3.7c1,0.5,2.7-0.1,2.9-1.9c0.2-1.4-0.4-2.4-1.5-2.9
				C49.4,13.3,48.2,13.6,47.7,14.8"/>
			<path class="st4" d="M50.9,18.3c0.7-0.5,1-1.2,1-1.7c0.1-1.4-0.4-2.4-1.5-2.9c-0.7-0.4-1.6-0.2-2.1,0.2"/>
			<path class="st6" d="M50.9,18.3c0.7-0.5,1-1.2,1-1.7c0.1-1.4-0.4-2.4-1.5-2.9c-0.7-0.4-1.6-0.2-2.1,0.2"/>
			<path class="st5" d="M50,16.7c-0.1,0.2-0.3,0.3-0.5,0.2s-0.3-0.3-0.2-0.5c0.1-0.2,0.3-0.3,0.5-0.2C50,16.2,50.1,16.5,50,16.7"/>
			<path class="st0" d="M59.9,32.9c2,2.9,2.8,4.4,0.6,4.3c-0.9-0.1-2.2-0.4-3.9-1C57.6,35,58.8,33.8,59.9,32.9"/>
			<path class="st7" d="M43,20.6c1.7-2.6,0.9-6.4-1.9-7.8c-4.2-2.1-10.9-0.4-10.9-0.4s1.8,7.8,5.3,9.6C38.8,23.7,41.8,22.6,43,20.6
				 M40.4,13.8c2.2,1.4,2.8,4.1,1.6,6.1s-4,2-6.2,0.6c-1.9-1.2-3.5-5.3-3.6-6.7C34.3,13.4,38.7,12.8,40.4,13.8"/>
			<path class="st7" d="M47.5,20.2c2.2,1.5,5.2,0.9,6.6-1.2c1.3-2.1-0.1-8.3-0.1-8.3s-6.8,1-8.1,3.1C44.6,15.8,45.3,18.7,47.5,20.2
				 M53,12.1c0.5,0.9,1.1,4.7,0.1,6.2c-1,1.6-3.2,2-4.9,0.9c-1.7-1.1-2.2-3.2-1.2-4.8C47.7,13.2,50.9,12.4,53,12.1"/>
			<path class="st7" d="M43.1,17.2c0.7,0,2.5,0.1,2.8,0.1l0.1-1.2c-0.4,0-2.6-0.1-2.9-0.1L43.1,17.2L43.1,17.2z"/>
			<path class="st3" d="M41,40.8c0,0-3.4,2.2-14.6,3.6c-5.6,0.7-11.7,0.1-11.7,0.1L14.2,40c0,0,5.8,0.6,12.5-0.3
				c7.6-1,14.2-3.8,14.2-3.8L41,40.8L41,40.8z"/>
			<path class="st4" d="M40.9,30.3c0,0-4.8-0.6-9.5-2.7s-6.6-7.2-6.6-7.2s-2.1,0.3-2.3,1.2C22.3,23,25,23.3,25,23.3s-2,1.1-1.1,2.3
				c1.1,1.5,2.8,0.3,2.8,0.3s-1,1.5,0.4,2.6c1.4,1.1,2.6-0.5,2.6-0.5s-0.4,2.3,0.7,2.5c1.2,0.1,2.1-1,2.1-1s-0.5,2.2,1,2.4
				c1.5,0.2,1.8-1.5,1.8-1.5s0.4,2.2,1.7,2.2c1.3,0,1.4-1.6,1.4-1.6s1.3,2.7,2.4,1.8C42,31.9,40.9,30.3,40.9,30.3"/>
			<g>
				<defs>
					<rect id="SVGID_1_" x="37" y="25.4" width="4.3" height="2.8"/>
				</defs>
				<clipPath id="SVGID_00000079465559387977100640000007273324285507233699_">
					<use xlink:href="#SVGID_1_"  style="overflow:visible;"/>
				</clipPath>
				<g style="clip-path:url(#SVGID_00000079465559387977100640000007273324285507233699_);">
					<g>
						<defs>
							<rect id="SVGID_00000079460864860008957750000015784178089167669405_" x="37" y="25.4" width="4.3" height="2.8"/>
						</defs>
						<clipPath id="SVGID_00000151523305418457761680000009060297795180926620_">
							<use xlink:href="#SVGID_00000079460864860008957750000015784178089167669405_"  style="overflow:visible;"/>
						</clipPath>
						<g style="clip-path:url(#SVGID_00000151523305418457761680000009060297795180926620_);">
							<g>
								<defs>
									<rect id="SVGID_00000066499349442020202090000000974173182022150067_" x="37" y="25.4" width="4.3" height="2.8"/>
								</defs>
								<clipPath id="SVGID_00000027569744504951185790000011355806988643196313_">
									<use xlink:href="#SVGID_00000066499349442020202090000000974173182022150067_"  style="overflow:visible;"/>
								</clipPath>
								<g style="clip-path:url(#SVGID_00000027569744504951185790000011355806988643196313_);">
									<path class="st5" d="M37.7,25.4c0.8-0.2,1.5,1.2,3.5,2c-0.7,0.6-2.2,1.2-3.3,0.4C36.5,26.8,36.8,25.6,37.7,25.4"/>
								</g>
							</g>
						</g>
					</g>
				</g>
			</g>
			<path class="st0" d="M19.5,42.5c0,0-0.6,1.6-0.5,1.6c0.1-0.1,1.6-1.4,1.6-1.4L19.5,42.5L19.5,42.5z"/>
			<path class="st0" d="M21.2,42.6c0,0,0.1,2,0.2,1.9c0.1-0.1,1-1.9,1-1.9S21.2,42.6,21.2,42.6z"/>
			<path class="st0" d="M23.7,42.7c0,0,0.5,1.5,0.6,1.5c0.1-0.1,0.4-1.7,0.4-1.7L23.7,42.7z"/>
			<path class="st2" d="M25,31.5c-0.8,0.9-2.2,2.9-2.5,4.5c-0.3,1.6,0.1,4,0.1,4s0.6,0.4,1.5,1.5c0.3,0.5,0.7,1.1,0.7,1.1
				s-2.1,0.3-4.1,0.1c-0.7,0-1.2-0.3-1.2-0.3s-0.2-0.7,0.3-1.4c0.4-0.7,0.8-1.3,0.8-1.3s-0.4-2.6,0.2-5.4c0.6-2.8,1.6-4.1,2-4.6
				C24.5,28,26,30.4,25,31.5"/>
		</g>
	</g>
</g>
</svg>
