<?xml version="1.0" encoding="UTF-8"?><svg xmlns="http://www.w3.org/2000/svg" xmlns:xlink="http://www.w3.org/1999/xlink" viewBox="0 0 33.12 73.54"><defs><style>.e{fill:#e4d5b8;}.f{fill:#fff;}.g{fill:#e30613;}.h{stroke:#b91919;}.h,.i,.j,.k{fill:none;}.h,.j,.k{stroke-linecap:round;}.h,.k{stroke-width:.35px;}.l{fill:#814114;}.m{fill:#b780b1;}.n{fill:#b91919;}.o{fill:#fafafb;}.p{fill:#a85318;}.q{clip-path:url(#d);}.j{stroke-linejoin:round;stroke-width:.5px;}.j,.k{stroke:#1d1d1b;}.r{fill:#1d1d1b;}</style><clipPath id="d"><path class="i" d="M17.48,22.61c-3.94,.36-4.31,4.25-4.31,4.25,.72-.32,1.44-.58,2.17-.77h0s.73-.18,.73-.18c1.01-.22,2.01-.31,3.02-.28h0l1.09,.08c.54,.06,1.08,.16,1.63,.29,0,0-.29-3.41-3.79-3.41-.17,0-.35,0-.53,.02"/></clipPath></defs><g id="a"/><g id="b"><g id="c"><g><path class="m" d="M26.72,50.26c2.38,5.34,2.36,10.43,.86,15.37h-4.24c.16-.66,.22-1.36,.16-2.08-.26-3.23-2.75-5.66-5.57-5.43-2.81,.23-4.88,3.03-4.62,6.26,.04,.43,.12,.85,.22,1.25l-.92,.19-2.14,.57-1.68,.45c-2.18-5.14-2.08-10.27,0-15.39,3.12,1.03,6.32,.84,9.26,.54,4.79-.49,8.68-1.71,8.68-1.71"/><path class="e" d="M27,16.54c-.06-.59-.12-1.19-.17-1.79-.02-.19-.03-.38-.06-.56-.24-2.14-.81-3.83-1.63-5.13h0c-1.63,.15-3.56-.11-5.4-.34-1.59-.2-3.11-.38-4.32-.24-4.29,.48-7.34,3.4-10,3.95l.02,.09c-.26,1.08-.35,2.3-.27,3.68,0,.15,.02,.31,.03,.47,.03,.38,.06,.76,.09,1.15,.06,.83,.12,1.67,.19,2.51h0s0,.07,0,.1h.07c4.72,13.15,17.71,8.65,17.71,8.65,.54-.81,3.79-9.52,3.89-11-.05-.51-.11-1.02-.17-1.54"/><path class="r" d="M21.79,26c-.54-.13-1.08-.23-1.63-.29l-1.09-.08h0c-1.01-.03-2.02,.07-3.02,.28,0,0-.69,.17-.73,.17h0c-.72,.2-1.44,.46-2.17,.78,0,0,.37-3.89,4.31-4.25,4-.36,4.32,3.39,4.32,3.39"/><g class="q"><polygon class="o" points="15.25 26.28 15.19 24.72 16.15 24.51 16.37 26.16 15.25 26.28"/><polygon class="o" points="18.42 25.74 18.39 24.4 19.38 24.35 19.54 25.89 18.42 25.74"/></g><path class="l" d="M29.96,13.91c.05,.09,.12,.17,.19,.26-.09-.13-.16-.22-.19-.26m-1.21,4c.04,.1,.88,3.19,.56,3.54-.27,.3-1.49,.15-1.96-1.47-.18-.63-.12-1.27-.18-1.92-.31-2.95-1.2-7.72-2.03-9.02h0c.59-.07,.61-.71,1.09-.91l.54,.56s6.46,5.47,6.35,7.26c-.05,.86-2.07-.82-2.95-1.78,.48,.65,1.54,2.45,1.56,3.31,.01,.69-1.29-.45-1.77-1.11,.35,.6,1.26,2.81,.85,3.6-.34,.65-2.05-2.07-2.05-2.07"/><path class="e" d="M27.42,13.89c.58,0,1.06,.62,1.06,1.38s-.48,1.38-1.06,1.38c-.15,0-.42,.07-.55,0l-.14-.28c-.06-.59-.19-.7-.24-1.3-.02-.19,.02-.7,0-.88,.18-.18,.67-.3,.92-.3"/><path class="l" d="M5.5,20.42c2.57,0,6.06,12.38,11.28,6.76l1.49-.07c1.11,3.81,6.69-.6,7.47-7.17,0,0,.24-1.71,1.43-1.85,.11,1.05,.13,1.29,.18,1.92,.2,2.61,.13,5.06-.94,7.17-.18,.36-.39,.7-.63,1.04-1.38,1.93-3.54,4.03-8.01,4.5-.35,.04-.7,.07-1.04,.08-3.59,.17-6.29-.82-7.94-2.49-.73-.74-4.48-5.88-3.29-9.87"/><polygon class="p" points="26.37 65.63 24.89 70.96 23.03 70.54 24.3 65.63 26.37 65.63"/><polygon class="r" points="24.89 70.96 24.41 72.68 22.61 72.2 23.03 70.54 24.89 70.96"/><path class="f" d="M20.15,12.5c.13-.1,.67-.36,1.46-.36,.46,0,.95-.22,1.38-.14,.78,.46,1.5,1.4,1.5,2.37,0,1.46-.7,2.55-2.5,2.65-1.38,.08-2.5-1.19-2.5-2.65,0-.62,.35-1.41,.67-1.87"/><path class="l" d="M22.28,21.87c.13,.18,.15,.53-.08,.65-.21,.11-.37-.06-.52-.18-.29-.22-.63-.36-.97-.47-.85-.25-1.77-.28-2.65-.22-1.58,.12-3.43,.56-4.61,1.7-.21,.2-.49,.78-.84,.58-.34-.21-.1-.67,.06-.91,.35-.54,1.1-1.2,1.66-1.49,1.39-.74,2.75-.99,4.31-.99,1.14,0,2.89,.33,3.65,1.34"/><path class="r" d="M22.83,13.44c.18,0,.4,.2,.4,.45,0,.34-.22,.45-.4,.45s-.41-.16-.41-.45c0-.25,.24-.45,.41-.45"/><path class="g" d="M26.72,27.28l-.31-.12c-.18,.36-.39,.7-.63,1.04-1.38,1.93-3.54,4.03-8.01,4.5-.36,.04-.7,.06-1.04,.08-3.59,.17-6.29-.82-7.94-2.49-.73-.74-1.29-1.62-1.73-2.6C1.03,32.33-1.64,37.68,1.04,44.78l1.81-.96,1.37-.84c-1.46-4.66-.19-7.61,2.96-10.02,0,0-2.36,13.24,1.6,18.48,3.12,1.03,6.46,1.11,9.4,.81,4.79-.49,8.54-1.98,8.54-1.98,1.11-2.4,.85-8.37,.85-8.37h0c-.22-2.99-.92-6.17-2.06-9.52,3.86,1.96,4.88,5.87,2.14,9.43l3.29,1.99c3.97-5.02,2.57-10.52-4.2-16.51"/><path class="r" d="M12.84,65.75l.69,6.81c-.7,.39-1.38,.57-1.97,.55v-1.23s-5.35,2.68-6.23,1.22c-.93-1.55,4.96-3.36,4.96-3.36l-.06-3.29,2.6-.69Z"/><path class="e" d="M4.87,48.66l-.17,.19c-1.06,1.01-2.56-2.81-2.56-2.81l3.12-1.22s1.71-.02,2.05,0c.9,.07,.46,.7,.3,.82-.19,.13-.78,.47-.78,.47,.82,.88,.62,1.61,.15,1.79-.27,.11-.44,.08-.76-.13,.13,.76-.61,1.5-1.35,.87"/><path class="l" d="M5.21,16.66c-.02-.16-.02-3.08,.24-4.15l-.02-.09c-.56,.12-1.1,.13-1.63,0l-.02,.1S.01,18.32,.87,19.27c.47,.52,1.14-.9,1.65-2.3-.19,.55-1.38,4.07-.89,4.29,.51,.23,1.62-2.58,1.59-2.49-.31,.99-1.52,4.94-.78,5.02,.48,.06,.84-.79,1.06-1.54-.23,1.11-.42,2.69,.25,2.74,.95,.06,1.67-3.37,1.79-3.98-.02-.19-.32-3.97-.35-4.35"/><path class="e" d="M5.57,16.46c.07,.9,.13,1.81,.21,2.73-.17,.07-.35,.12-.54,.14-.88,.08-1.65-.51-1.72-1.32-.01-.15,0-.31,.04-.45h0c.15-.61,.71-1.09,1.42-1.15,.2-.02,.41,0,.59,.05"/><path class="o" d="M19.26,50.18c0-.2-.16-.36-.36-.36s-.36,.16-.36,.36,.16,.36,.36,.36,.36-.16,.36-.36"/><path class="o" d="M18.9,35.35c0-.2-.16-.36-.36-.36s-.36,.16-.36,.36,.16,.36,.36,.36,.36-.16,.36-.36"/><path class="o" d="M18.9,46.56c0-.2-.16-.36-.36-.36s-.36,.16-.36,.36,.16,.36,.36,.36,.36-.16,.36-.36"/><path class="o" d="M18.54,38.97c0-.2-.16-.36-.36-.36s-.36,.16-.36,.36,.16,.36,.36,.36,.36-.16,.36-.36"/><path class="o" d="M18.54,42.58c0-.2-.16-.36-.36-.36s-.36,.16-.36,.36,.16,.36,.36,.36,.36-.16,.36-.36"/><path class="h" d="M17.82,51.45c-1-9.14-.93-13.21-.33-18.44"/><path class="r" d="M15.19,16.06c0,.25-.26,.76-.73,.87l-4.5,.58c-1.28,.12-1.7-.2-1.72-.76l-.3-3.67c-.04-.78,.37-1.1,1.14-1.14l4.59-.56c.77-.04,1.14,.11,1.16,.88l.37,3.81Z"/><path class="j" d="M8.6,15c-.82,.23-2.62,.81-3.45,1.03"/><path class="j" d="M26.67,8.93s-9.23,3.72-12.8,4.8"/><path class="k" d="M15.81,19.17c.15,.12,3.48,1.07,3.88-.48,.24-.92-3.23-3.98-3.39-4"/><path class="n" d="M4.22,42.34c.47,.89,.98,1.35,1.53,2.21-.98,.86-2.47,1.49-4.01,2.01-.1,.03-1.31-2.4-1.31-2.4l3.79-1.82Z"/><path class="o" d="M4.5,44.19c0-.2-.16-.36-.36-.36s-.36,.16-.36,.36,.16,.36,.36,.36,.36-.16,.36-.36"/><path class="e" d="M25.52,47.72h-.04c-1.96-.44-.08-2.31-.08-2.31-3.19-1.01,.93-1.25,.93-1.25,.05,.11,.46,.07,.57,.15,.79,.61,1.32,.59,2.53,1.46h0c-.34,1.17-.85,2.17-1.63,2.93-.05,.05-.11,.1-.16,.15-.14,.13-.35,.17-.53,.09-.44-.18-.66-.62-.66-.62-.76,.21-.87-.2-.93-.59"/><path class="n" d="M27.7,41.61c-.56,.84-1.1,1.26-1.73,2.06,.9,.95,2.32,1.71,3.8,2.38,.09,.04,1.53-2.27,1.53-2.27l-3.6-2.17Z"/><path class="o" d="M27.8,43.31c0-.2-.16-.36-.36-.36s-.36,.16-.36,.36,.16,.36,.36,.36,.36-.16,.36-.36"/><path class="k" d="M19.7,12.5s2.59-.44,3.53-.78c.94-.34,1.54-.78,1.54-.78"/><path class="r" d="M28.49,2.33c-.02-.28-.39-.36-.53-.12-3.34,5.43-6.56,1.46-10.25-.86C16.27,.45,14.77-.19,13.15,.05,7.44,.92,6.48,11.22,.82,7.07c-.35-.26-.83,.05-.76,.48,.43,2.68,1.25,4.11,2.35,4.75,.98,.57,2.18,.5,3.51,.11,2.81-.81,6.21-3.03,9.34-3.54,.55-.09,1.14-.11,1.78-.09,2.1,.07,4.58,.58,6.71,.47,.23-.01,.45-.03,.67-.06,2.61-.33,4.49-1.87,4.09-6.86"/><path class="f" d="M17.59,6.46c1.33-.96,1.52,.62,.67,.6,.21,.35,0,.56-.25,.57-.28,0-.63-.22-.57-.74l-1.41-.53s.08-.14,.09-.15c.11-.12,.11-.15,.18-.28l.08-.09,1.22,.62Z"/><path class="f" d="M13.26,4.49c.01-.29,.12-.56,.37-.79,.27-.25,.6-.37,.94-.4,.8-.08,1.63,.1,1.97,.67,.32,.52,.16,1.58-.06,1.99,0,0-.58,.71-.75,.86-.31,.27-.95,.27-1.24,.14-.44-.19-1.01-1.42-1.15-1.82-.07-.21-.11-.43-.1-.65"/><path class="r" d="M16.09,4.52c.12,.14,.15,.4-.04,.56-.19,.16-.5,.12-.61-.02-.12-.14-.12-.46,.07-.62,.19-.16,.47-.07,.58,.08"/><path class="f" d="M14.36,6.61v.07l-1.73,1c-.35,1.4-1.08,.8-.82,.17-1.24,.11-.63-1.82,.5-.71l1.6-.95c.17,.25,.31,.4,.31,.4l.14,.02Z"/><path class="r" d="M14.2,4.42c.15,0,.33,.11,.34,.42,0,.21-.11,.37-.37,.38-.15,0-.38-.19-.39-.4-.01-.35,.27-.39,.42-.4"/><path class="f" d="M13.53,5.13l-.14,.11-1.19-.68c-1.32,.35-1.07-.66-.49-.69-.61-1.15,1.25-1,.82,.29l.72,.32c-.01,.21,.21,.43,.27,.64"/><path class="r" d="M14.91,5.88s-.03,.08-.07,.08c-.04,0-.07-.03-.08-.07,0-.04,.03-.08,.07-.08,.04,0,.08,.03,.08,.07"/><path class="r" d="M15.3,5.87s-.04,.09-.08,.09c-.05,0-.09-.04-.09-.08,0-.05,.03-.09,.08-.09,.05,0,.08,.04,.09,.08"/><path class="f" d="M18.13,3.03c.88-.07,.34,1.23-.52,.68l-1.08,.94h-.04c-.04-.15-.11-.3-.21-.45l1.01-.83c-.13-.78,.14-1.07,.42-1.08,.32-.01,.64,.33,.43,.73"/></g></g></g></svg>