<?xml version="1.0" encoding="utf-8"?>
<!-- Generator: Adobe Illustrator 26.2.1, SVG Export Plug-In . SVG Version: 6.00 Build 0)  -->
<svg version="1.1" id="Capa_1" xmlns="http://www.w3.org/2000/svg" xmlns:xlink="http://www.w3.org/1999/xlink" x="0px" y="0px"
	 viewBox="0 0 61.9 66.8" style="enable-background:new 0 0 61.9 66.8;" xml:space="preserve">
<style type="text/css">
	.st0{opacity:0.1;clip-path:url(#SVGID_00000158024477152775969840000011454575223141523080_);enable-background:new    ;}
	.st1{opacity:0.1;clip-path:url(#SVGID_00000002346031666140383460000002991539502095616429_);enable-background:new    ;}
	.st2{opacity:0.1;clip-path:url(#SVGID_00000002374795041026954200000005611362029413393055_);enable-background:new    ;}
	.st3{opacity:0.1;clip-path:url(#SVGID_00000137126548118457088320000005466024938981568930_);enable-background:new    ;}
	.st4{opacity:0.1;clip-path:url(#SVGID_00000020360050754157604190000009482501715809217963_);enable-background:new    ;}
	.st5{opacity:0.1;clip-path:url(#SVGID_00000096021599534365964610000009354108519335155374_);enable-background:new    ;}
	.st6{opacity:0.1;clip-path:url(#SVGID_00000151539911436057419270000014854653776871619517_);enable-background:new    ;}
	.st7{clip-path:url(#SVGID_00000160190414197270498630000015548741398190894488_);fill:#D3D2C2;}
	.st8{clip-path:url(#SVGID_00000002346528700117122840000006363432444744135572_);fill:#D3D2C2;}
	.st9{clip-path:url(#SVGID_00000042711048540421234180000016304246692359038638_);fill:#D3D2C2;}
	.st10{clip-path:url(#SVGID_00000178903266679681110740000003918839464882165127_);fill:#D3D2C2;}
	.st11{opacity:0.1;clip-path:url(#SVGID_00000016071841987805016690000012706172249538367134_);enable-background:new    ;}
	.st12{fill:#F3A5C2;}
	.st13{fill:#9C6297;}
	.st14{fill:#A4659E;}
	.st15{fill:#B780B1;}
	.st16{fill:#FFFFFF;}
	.st17{fill:#1D1D1B;}
	.st18{fill:none;stroke:#DAD8CC;stroke-width:0.28;stroke-linecap:round;}
	.st19{fill:#F39200;}
	.st20{clip-path:url(#SVGID_00000031915041529755830630000003582840148797921951_);}
	.st21{clip-path:url(#SVGID_00000131337358213697440720000008754839982947829128_);}
	.st22{clip-path:url(#SVGID_00000011024177391401361630000004204760063755283588_);}
</style>
<g>
	<g>
		<g>
			<defs>
				<rect id="SVGID_1_" x="0.7" y="60.7" width="49.5" height="6.4"/>
			</defs>
			<clipPath id="SVGID_00000090282608135660294230000011213975634230631358_">
				<use xlink:href="#SVGID_1_"  style="overflow:visible;"/>
			</clipPath>
			
				<path style="opacity:0.1;clip-path:url(#SVGID_00000090282608135660294230000011213975634230631358_);enable-background:new    ;" d="
				M49.9,61.4c0.6-0.1-0.3-0.2,0.4-0.1C50.2,61.4,50.1,61.4,49.9,61.4"/>
		</g>
		<g>
			<defs>
				<rect id="SVGID_00000006690518805997073400000001657805596036493206_" x="0.7" y="60.7" width="49.5" height="6.4"/>
			</defs>
			<clipPath id="SVGID_00000108276165368994085680000007694812795879780526_">
				<use xlink:href="#SVGID_00000006690518805997073400000001657805596036493206_"  style="overflow:visible;"/>
			</clipPath>
			
				<path style="opacity:0.1;clip-path:url(#SVGID_00000108276165368994085680000007694812795879780526_);enable-background:new    ;" d="
				M37.3,64.9c0.9-0.1,2.1-0.1,3.1,0.2c0.2,0.1,0.5,0.2,0.7,0.4c-0.2-0.1-0.6,0.2-0.8,0.2c-0.6,0.2-1,0.3-1.6,0.5
				c-0.2,0.1,0-0.2-0.6-0.2c-1.9,0.7-5.2,0.6-7.5,0.2l0.2-0.1c-0.5-0.1-1,0.2-1.5,0.1c0-0.1,0.2-0.1,0.1-0.2c-0.2,0.2-0.9,0-1.1,0.1
				c-0.2-0.1-0.2-0.2-0.4-0.3l-0.3,0.2c-0.8,0.3-1.9-0.2-3-0.2c0.1,0,0.2-0.1,0.1-0.1c-1.7,0-3.9-0.5-5.7-1c0.1-0.1,0.2-0.2,0.1-0.2
				c-0.2,0.2-0.7,0-1.3-0.1c-0.2-0.2-0.9-0.2-1.4-0.5h0.1c-0.5,0-0.6-0.4-1-0.4l-0.2-0.3c-0.2,0.1-0.3-0.1-0.4-0.2
				c0.2-0.8,0.4-0.2,0.6-0.5v-0.1c0.3-0.2,0.6-0.1,0.9-0.2l0,0c0.7-0.2,1.2-0.1,1.2-0.3c0.3,0.2-0.7,0.2-0.2,0.4
				c2.4-0.6,5-0.6,7.5-0.4c0.3,0.1,0.5,0.2,0.6,0.2c0.2,0,0.9,0,1.2-0.1c-0.1,0,0.2,0.2,0.3,0.2c0.5,0.1,0.6-0.2,1-0.1
				c-0.2,0.1-0.2,0.1-0.2,0.2c0.5-0.2,1-0.1,1.5-0.1c-0.1,0-0.2,0.1-0.2,0.1c0.6-0.2,1,0.1,1.5,0l-0.2,0.1c0.8,0.2,0.2-0.2,0.9-0.2
				c-0.2,0-0.1,0.1-0.2,0.2c0.6-0.2,1.7-0.1,2.3-0.2v0.1c0.7,0,1.4,0.1,2.1,0.1c0.2,0.1-0.1,0.3,0.6,0.3c0-0.2,1.3,0,0.9-0.3
				c0.6,0.1,1.6,0.2,2,0.2c-0.3,0.1,0.2,0.3-0.2,0.3l0.4,0.2c-0.1,0.1-0.4-0.1-0.3,0.1c0.2,0,1,0,1.3,0.1c0.5-0.1,0.9-0.3,1.7-0.3
				c-0.4,0.1,0.2,0.3-0.1,0.3l1.1-0.3c0.2,0,0,0.2,0.4,0.2c0-0.1,0.2-0.1,0.2-0.2c0.1,0.1,1.1,0.1,1.2,0.3c0.1,0.1-0.4,0-0.2,0.1
				c0.5,0.1,0.5,0,0.9,0.1l0,0c0.3,0.1,0.9,0.1,0.6-0.2c-0.2-0.1,0.1,0.2-0.2,0c0.2-0.1,0.8-0.1,1.3,0.1c-0.2,0-0.2,0.1-0.2,0.1
				c0.2,0,0.3,0,0.6,0.1c0,0.2,0.5-0.2,0.5,0.9c-0.3,0.4-0.5,0.3-0.6,0.4c-0.5,0.2-0.6,0.2-1,0.3c0,0.1,0.2-0.2,0.3-0.2
				c-0.9,0-1.8,0.6-2.7,0.5c0.2,0,0.1,0.2,0.1,0.2c-0.5,0.1-0.5-0.2-0.7,0c-0.1-0.1-0.4,0.1-0.6,0.2c-0.2,0.1-0.1,0,0.2-0.1
				c-0.4,0.2-2,0.5-3,0.4c0,0.1-0.6,0.3-0.8,0.3l0,0c-0.2-0.1-0.7,0.1-0.8-0.1c-0.5,0.2,1.8-0.2,1.2-0.1c-0.2-0.1-0.9,0.3-0.7,0.1
				c-0.5,0-0.9,0.2-1.3,0.1c0.2,0,0.3-0.2,0-0.2c-0.6,0.1-0.2,0.1-0.7,0.2l-0.3,0.1c0,0.2-0.6,0-0.3,0.2c-0.1-0.2-0.9,0.1-0.9-0.2
				l0.1-0.2c-0.2,0-0.5,0.2-0.6,0.3l-0.1-0.1c0,0.3-0.6,0-0.9,0.2c-0.6-0.1-1.4,0-1.7-0.2c-0.5,0.1-0.9,0.2-1.3,0.2
				c0.1,0,0.2-0.1,0.2-0.1c-0.3-0.1-0.4,0-0.7,0.1c0.1-0.1-0.6-0.2-0.9-0.2c-0.4,0.1-0.3,0.2-0.3,0.4c-0.4-0.3-1.2,0.2-1.7,0
				c0.2-0.1,0.6-0.2,0.2-0.2c-0.4-0.3-0.8,0.2-1.4,0.1l0.2,0.2c-0.3-0.2-0.9,0.2-0.9-0.1c-0.2,0.1-0.8-0.1-0.7,0.2
				c-1-0.2-2.5,0.2-3.2-0.2c-0.2,0.1-0.6,0-0.5,0.2c0.2,0.2,0.3-0.1,0.5,0c-0.2,0-0.2,0.1-0.2,0.1c-0.3-0.1-0.6-0.1-0.3-0.2
				c-0.7-0.2-0.7,0.4-1.7,0.3c0.1-0.1,0-0.2-0.3-0.1L18.5,67c-0.6,0-0.3-0.2-0.4-0.4c-0.3,0-0.7,0-0.9,0.2l-0.4-0.2
				c0.3,0.2-0.2,0.1-0.4,0.2l0.2-0.1c-0.1-0.1-0.4,0-0.6,0c0.1,0.1,0.4,0.2,0.6,0.2c-0.2,0.1-0.4,0.1-0.6,0.2
				c0.1-0.2-0.6-0.2-0.8-0.2c-0.3-0.1-0.3,0.2-0.4,0.2c0-0.1-0.5,0-0.2-0.2c0.1,0,0.2,0.1,0.4,0c-0.2-0.1-0.2-0.2-0.6-0.1
				c-0.3,0.1,0.1,0.3-0.5,0.2c0.2,0,0.2-0.1,0.3-0.2l-0.6-0.1v0.2c-0.1-0.1,0-0.1-0.1-0.1c-0.2,0.2-0.8,0-0.9,0.2
				c-0.2,0-0.6-0.2-0.8-0.2H12c-0.3-0.1-0.7-0.1-1,0l0,0c-0.2,0-0.6-0.1-0.8,0c-0.4-0.2-0.1-0.6-0.6-0.5c-0.5-0.1-0.7,0.2-0.6,0.3
				c-0.8-0.2-1.7-0.1-2.4-0.5c-0.2,0-0.1,0.1-0.3,0.1c-1.2-0.2-2.6-0.4-3.4-1C3.3,65.3,3,65,3,64.9c-0.3,0-0.2-0.2-0.5-0.1
				c0,0.2-0.1,0.2,0.2,0.3l-0.3-0.1H2.4c0.1,0-0.2-0.1,0.2,0.1l0,0H2.4c-0.2,0-0.5-0.1-0.7-0.2c-0.2-0.1-0.2,0-0.6-0.3
				c-0.2-0.1-0.2-0.2-0.3-0.4c-0.2-0.2-0.1-1.1,0.3-1.3c0.2-0.1,0.2-0.2,0.4-0.2c0.3-0.1,0.5-0.1,0.6,0c-0.2,0-0.1-0.1,0.1-0.2
				c0,0.2,0.6,0.2,0.9,0.1l0.1-0.2l0.2,0.2c0.2-0.1,0.2-0.3,0.6-0.2c0,0.1,0.1,0.1,0.2,0.2c0.4-0.2,0.9-0.3,1.4-0.2l0.4,0.2
				c0.2,0,0.5-0.2,0.2-0.2c0.7,0.1,1.2,0.1,1.4,0.2c1.3-0.4,3.1-0.5,4.6-0.5l-0.1,0.1c0.4,0.1,0.2-0.2,0.5-0.1
				c-0.2,0.1,0.3,0.2,0,0.3c0.6,0.1,0.7-0.2,1.1-0.2c0.1-0.2-0.3,0.1-0.2-0.1c0.1-0.1,0.8,0.1,0.9-0.1c0.2,0.1,0,0.2-0.1,0.3
				l0.3-0.1c0.4,0.2-0.9,0.4-0.5,0.7h0.3c0.3,0.2-0.9,0.2,0,0.3c0.3-0.1,0.6-0.4,0.3-0.5c0.7-0.1,0.3-0.5,1.1-0.5
				c0.2,0.1-0.6,0.1-0.5,0.2c0.4,0.2,0.7-0.1,1-0.1c-0.4-0.1-0.1-0.2,0.2-0.3c0.4,0.1-0.2,0.2,0.3,0.2c0.1-0.1,0.6-0.2,0.2-0.3
				c0.2-0.2,0.6,0.1,0.9-0.2c0.2,0.2-0.6,0.4,0.1,0.5c-0.1-0.2,0.7-0.2,0.4-0.5c0.2,0.1,0.2,0.2,0.1,0.3c0.3,0.1,0.8-0.3,0.9,0
				l0.1-0.2c0.1,0.1,0.2,0.1,0.5,0.2c0.3,0,0.9-0.3,0.9,0c0.1,0,0.8-0.1,0.5-0.2c-0.4-0.1-0.5,0.2-0.7-0.1c0.3,0.2,0.6-0.1,0.9-0.2
				l0.1,0.1c0.2-0.1,0.5-0.1,0.6-0.2c-0.1,0.1-0.1,0.2,0.1,0.2l0.2-0.2c0.6-0.2,0.2,0.2,0.7,0.2l-0.4,0.2c0.1,0,0.3,0.1,0.6,0
				c0.1-0.2,0.3-0.3,0.4-0.5c0.3-0.1,0.2,0.2,0.5,0L23.5,62c-0.1,0.1,0.3,0.2,0.7,0.2c0.3-0.1,0.7-0.3,0.2-0.4
				c0.2,0,0.6,0.1,0.4,0.2c0.5-0.1-0.1-0.2,0.3-0.2c0.2,0.1,0.7,0.2,1.1,0.3l-0.4,0.3h0.3c-0.4,0.2,0.2,0.2,0,0.3
				c0.2,0,0.5-0.1,0.6-0.2c-0.6-0.2,0.6-0.5,0.4-0.8c0.8-0.2,0.6,0.7,1.4,0.2c-0.2-0.1,0.2-0.3-0.2-0.2c0.6,0,0.3-0.3,0.9-0.2
				c-0.5,0.2,0.5,0.2-0.2,0.5c0-0.1-0.4-0.1-0.5,0c0.2,0.1,0,0.3,0.5,0.2c0.3-0.1,0.8-0.1,0.7-0.2c0-0.2-0.5,0.1-0.3-0.2
				c0.6-0.1,0.8,0.2,1-0.2c-0.4,0.1-0.6-0.1-0.6-0.2l0.5-0.1l-0.1,0.2c0.8,0,0.2-0.2,0.9-0.2l0.4,0.2c-0.2,0.2-1,0-0.9,0.3
				c0.5,0,0.6-0.2,1.1-0.2c-0.1,0-0.2,0.1-0.3,0.1c0.2,0,0.4,0.4,1,0.1c0.3-0.2,0.1-0.2,0.1-0.2c0.8-0.1,0.9-0.2,1.4-0.3
				c-0.1,0.2,0.9-0.1,0.3,0.2c-0.2-0.1-1.3,0-1.6,0.2c0.3,0.2-0.6,0-0.7,0.3c0.6-0.1,0.6,0.2,0.7,0.4c0.2,0,0.3-0.1,0.4-0.2
				c0.1-0.2-0.2-0.2-0.2-0.3c0.7,0,1.3-0.2,1.7-0.3c0.2,0.1,0.2,0.2-0.1,0.2c0.8-0.1,1.7-0.2,2.4-0.2c-0.6-0.2,0.9-0.2,0.5-0.3
				c-0.4,0-0.8-0.2-0.6-0.3c0.2,0,0,0.1,0.1,0.2c0.3-0.2,0.6,0.2,0.9-0.1c-0.7,0.2-0.1,0.3-0.2,0.6c0.6-0.2,0,0.2,0.6,0.1
				c0.6-0.2,1.2-0.3,1.7-0.4c0.8,0.2,1.9-0.2,2.5-0.2c0.3,0.1,0.2,0.3,0.6,0.3c0.5,0-0.3-0.2,0.3-0.2l-0.1,0.1
				c0.2-0.1,1.2,0.1,1.3-0.2l-0.2,0.2c0.2,0,0.2-0.1,0.3-0.1c0,0.1,0.2,0.2,0,0.2c0.4,0.2,0.9-0.1,1.3-0.1l-0.3-0.2
				c0.7-0.2,1.3,0,2-0.2v0.2l0.4-0.1c-0.1,0.2,0.3,0.2,0.6,0.1l-1.1,0.4c-0.3-0.1,0.3-0.2,0.2-0.3c-0.2-0.2-0.9-0.1-0.9,0.1
				c0.2,0,0.2,0,0.5-0.1c0.1,0.2-0.3,0.2-0.5,0.4c0.2,0,0.3,0,0.3,0c-0.2,0.1-0.6,0.2-0.9,0.2c0.3-0.1-0.2-0.2-0.1-0.2
				c0,0.2-0.5,0.2-1,0.2c-0.4-0.2-1,0.2-1.7,0.2c0.2-0.2,0.6-0.4,0.9-0.5c-0.4-0.1-0.5,0-0.9,0c-0.2,0.2-0.3,0.4-0.8,0.5V62
				c-0.5,0.1-0.5,0.3-1,0.3c-1,0-2,0.1-2.8,0.2l-0.1-0.2c-0.4,0.3-1.4,0.2-2,0.4c-1-0.1-2.1,0.3-2.7,0.2c-1.7,0.2-3.2,0.5-5,0.6
				l0.3-0.2c-0.3,0.2-0.2-0.1-0.6,0c0.4,0.2-0.4,0.2-0.6,0.4c-0.8-0.1-1.8,0.2-2.5,0.4l-0.1-0.2c-0.7,0.3-1.6,0.2-2.5,0.2
				c-0.1-0.1-0.3-0.2-0.6-0.2c-0.5,0.2-0.7,0.2-1.4,0.5c-0.6,0.1-1.4,0-2,0c-2,0.4-4,0.2-6.1,0.5L13,64.7c-2,0.4-4.4,0.1-6.1,0.3
				L7,64.7c-0.6-0.1-1.2,0.1-1.1,0.3c-0.6-0.1-1.3,0.2-1.7-0.1c-0.6,0-0.6,0.2-1.1,0.2c-0.6,0-0.9,0-1.2,0c-0.2-0.2,0.1,0.4-0.2-0.5
				c-0.2-0.4-0.4-0.2-0.1-0.4c0.1-0.1,0.2-0.2,0.2-0.3c0.1-0.2,0.2-0.5,0.2-0.4c0,0,0.2,0.1,0.5,0.1c-0.1,0-0.2,0-0.2-0.1
				c-0.1,0-0.2,0.2,0.1,0.2c0.1,0,0.2,0,0.3,0.1C3.1,64.1,3,64,3.2,64.1c0.2,0.1,0.4,0.1,0.3-0.2c0.9,0.6,2.4,0.6,3.3,1
				c-0.1-0.1,0.2-0.1,0.3-0.1C8,64.9,9,65.3,9.7,65.2c0.2,0.1-0.2,0.2,0.2,0.2c0.2,0,0-0.1,0.3-0.2c1.5,0,3.1,0.4,4.5,0.4
				c2.5-0.2,5.1-0.1,7.5-0.2v0.1c0.8-0.3,1.9,0.2,2.5-0.2c0.2,0.1,0.7,0,0.6,0.2c0.6-0.2,1.8,0.1,2.8-0.2c-0.1,0-0.2,0-0.2,0.1
				c0.9,0.2,1.8-0.1,2.8,0c-0.1,0-0.3,0.1-0.3,0.2c0.4,0.2,0.9-0.3,1.1,0c0.2,0,0.2-0.2,0-0.2c2.2,0.1,4.5-0.2,6.7-0.4
				c1.6,0.1,0.2,0.6,1.4,0.2c0.1,0.1,0.1-0.2,0.1-0.1c0.5-0.2,0.8,0.3,1.1,0.1c-0.2-0.2,0.2-0.2,0.2-0.2c1,0.1,1.2,0.2,2-0.1
				l-0.1,0.1c0.9-0.4,1.9-0.4,2.6-1l0.9-0.2c0.4-0.1,0.4-0.1,0.5-0.1c0-0.3,0.2,0.8,0.4,1c0.2,0.1-0.2,0.2-0.5,0.9
				c-0.3,0.2-1-0.2-1.6-0.2c-1.2-0.2-2.4-0.3-3.6-0.4c-2.4-0.2-4.9-0.4-7.2-0.6c-4.8-0.2-9.7-0.6-14.4-0.6c-1.1-0.2-1.2-0.2-2.4,0.1
				c0.1-0.1,0.1-0.1,0-0.1c0,0.2-0.9,0.2-0.9,0.4l-1-0.2l0,0l0,0c0.2-1-0.4,2.3,0.4-2.3l0,0l0,0l0,0l0,0H16l0.2,0.1l0.2,0.2
				c0.2,0.1,0.3,0.2,0.5,0.2c0.7,0.3,1.5,0.6,2.4,0.9c-0.2-0.1-0.5,0.1-0.2,0.2h0.4v0.1c0.2,0,0.5,0,0.3-0.2c4.4,1,8.9,2,13.4,2
				c1.1,0.1,2.6-0.1,3.7-0.2c0.9,0,1.7-0.1,2.4-0.2c0.4,0,0.8-0.2,1.1-0.2l0.3-0.1h0.2c0.2-1.5-0.2,2.1-0.2,1.7l0,0l0,0l0,0l0,0l0,0
				h-0.1c-0.2-0.1-0.2-0.2-0.3-0.2c-0.1,0-0.2-0.1-0.2-0.1l-0.2-0.1h-0.1l0,0l0,0l0,0c1,0.1,0.3,0,0.6,0l0,0h-0.1
				c-0.4,0.1-0.7,0-0.9,0c-0.5-0.1-0.9-0.1-1.3-0.2l-1.3-0.2c-0.2,0-0.5-0.1-0.6-0.1h-0.3c-0.1,0,0,0,0,0l0,0
				c-0.1-0.2-0.2-0.5-0.2-0.7c0-0.1,0.2,0.4,0.2,0.6c0,0-0.1-0.2,0.1-0.2C36,64.9,36.6,64.8,37.3,64.9"/>
		</g>
		<g>
			<defs>
				<rect id="SVGID_00000174592531422458700580000002725519133251321753_" x="0.7" y="60.7" width="49.5" height="6.4"/>
			</defs>
			<clipPath id="SVGID_00000014593032021201476590000014865005089032674741_">
				<use xlink:href="#SVGID_00000174592531422458700580000002725519133251321753_"  style="overflow:visible;"/>
			</clipPath>
			
				<path style="opacity:0.1;clip-path:url(#SVGID_00000014593032021201476590000014865005089032674741_);enable-background:new    ;" d="
				M49.2,61.4c-0.2-0.1-0.6-0.2-0.2-0.3C49,61.2,49.2,61.3,49.2,61.4"/>
		</g>
		<g>
			<defs>
				<rect id="SVGID_00000103264871967605826600000001305334836820559026_" x="0.7" y="60.7" width="49.5" height="6.4"/>
			</defs>
			<clipPath id="SVGID_00000022522025871835924570000011019153857371933824_">
				<use xlink:href="#SVGID_00000103264871967605826600000001305334836820559026_"  style="overflow:visible;"/>
			</clipPath>
			
				<path style="opacity:0.1;clip-path:url(#SVGID_00000022522025871835924570000011019153857371933824_);enable-background:new    ;" d="
				M38.2,61c0,0-0.2,0-0.2-0.1c0.2,0,0.2-0.2,0.4-0.1C38.2,60.9,38.2,60.9,38.2,61"/>
		</g>
		<g>
			<defs>
				<rect id="SVGID_00000135678924074080046190000003119262507544940980_" x="0.7" y="60.7" width="49.5" height="6.4"/>
			</defs>
			<clipPath id="SVGID_00000008842511045852629380000007849706444228936602_">
				<use xlink:href="#SVGID_00000135678924074080046190000003119262507544940980_"  style="overflow:visible;"/>
			</clipPath>
			
				<path style="opacity:0.1;clip-path:url(#SVGID_00000008842511045852629380000007849706444228936602_);enable-background:new    ;" d="
				M35.4,61.2c0-0.1,0.6-0.2,0.9-0.2L35.4,61.2z"/>
		</g>
		<g>
			<defs>
				<rect id="SVGID_00000149363871710207964450000017226633517748682387_" x="0.7" y="60.7" width="49.5" height="6.4"/>
			</defs>
			<clipPath id="SVGID_00000011732690381873451940000000510175996518260876_">
				<use xlink:href="#SVGID_00000149363871710207964450000017226633517748682387_"  style="overflow:visible;"/>
			</clipPath>
			
				<path style="opacity:0.1;clip-path:url(#SVGID_00000011732690381873451940000000510175996518260876_);enable-background:new    ;" d="
				M32.7,61c-0.2-0.1-0.2-0.1,0.2-0.2C32.9,60.9,32.8,60.9,32.7,61"/>
		</g>
		<g>
			<defs>
				<rect id="SVGID_00000010268755117610411700000009725162186857100476_" x="0.7" y="60.7" width="49.5" height="6.4"/>
			</defs>
			<clipPath id="SVGID_00000099644799048053029120000003312123329770524037_">
				<use xlink:href="#SVGID_00000010268755117610411700000009725162186857100476_"  style="overflow:visible;"/>
			</clipPath>
			
				<path style="opacity:0.1;clip-path:url(#SVGID_00000099644799048053029120000003312123329770524037_);enable-background:new    ;" d="
				M32.6,61.3c-0.2,0-0.3,0-0.5-0.1C32.2,61.3,32.7,61.1,32.6,61.3"/>
		</g>
		<g>
			<defs>
				<rect id="SVGID_00000033331973282483621290000011460772202033383316_" x="0.7" y="60.7" width="49.5" height="6.4"/>
			</defs>
			<clipPath id="SVGID_00000174588738073146672810000000332997271614599850_">
				<use xlink:href="#SVGID_00000033331973282483621290000011460772202033383316_"  style="overflow:visible;"/>
			</clipPath>
			<path style="clip-path:url(#SVGID_00000174588738073146672810000000332997271614599850_);fill:#D3D2C2;" d="M26.9,61.4
				c-0.2,0-0.4,0.2-0.6,0C26.4,61.6,27,61.3,26.9,61.4"/>
		</g>
		<g>
			<defs>
				<rect id="SVGID_00000156572233569413452840000012474518636771217071_" x="0.7" y="60.7" width="49.5" height="6.4"/>
			</defs>
			<clipPath id="SVGID_00000085237366846835456340000009753774139306668464_">
				<use xlink:href="#SVGID_00000156572233569413452840000012474518636771217071_"  style="overflow:visible;"/>
			</clipPath>
			<path style="clip-path:url(#SVGID_00000085237366846835456340000009753774139306668464_);fill:#D3D2C2;" d="M24.2,61.8
				c-0.1,0-0.2,0-0.2,0c-0.2,0,0-0.1,0.2-0.2L24.2,61.8z"/>
		</g>
		<g>
			<defs>
				<rect id="SVGID_00000109735854542575862810000009351164348297641124_" x="0.7" y="60.7" width="49.5" height="6.4"/>
			</defs>
			<clipPath id="SVGID_00000041272526629829196470000003275284459450501310_">
				<use xlink:href="#SVGID_00000109735854542575862810000009351164348297641124_"  style="overflow:visible;"/>
			</clipPath>
			<polygon style="clip-path:url(#SVGID_00000041272526629829196470000003275284459450501310_);fill:#D3D2C2;" points="26.7,66.7 
				26.4,66.8 26.4,66.6 			"/>
		</g>
		<g>
			<defs>
				<rect id="SVGID_00000140704775439650738490000013862682296282698640_" x="0.7" y="60.7" width="49.5" height="6.4"/>
			</defs>
			<clipPath id="SVGID_00000023992515468082222010000013191697323627895185_">
				<use xlink:href="#SVGID_00000140704775439650738490000013862682296282698640_"  style="overflow:visible;"/>
			</clipPath>
			<path style="clip-path:url(#SVGID_00000023992515468082222010000013191697323627895185_);fill:#D3D2C2;" d="M47.4,63.5
				c-0.4-0.1-0.2-0.2-0.3-0.2C47.5,63.3,47,63.3,47.4,63.5"/>
		</g>
		<g>
			<defs>
				<rect id="SVGID_00000088850351101832486420000017674077522447005105_" x="0.7" y="60.7" width="49.5" height="6.4"/>
			</defs>
			<clipPath id="SVGID_00000140725768859721764040000004768834062092110779_">
				<use xlink:href="#SVGID_00000088850351101832486420000017674077522447005105_"  style="overflow:visible;"/>
			</clipPath>
			
				<polygon style="opacity:0.1;clip-path:url(#SVGID_00000140725768859721764040000004768834062092110779_);enable-background:new    ;" points="
				36,62.4 36,62.4 36,62.6 			"/>
		</g>
	</g>
</g>
<g id="a">
</g>
<g id="b">
	<g id="c">
		<g>
			<path class="st12" d="M46.5,40.5c0,0,1,1.5,1,1.3c0-0.1-0.2-2.2-0.2-2.2L46.5,40.5z"/>
			<path class="st12" d="M47.6,39.3c0,0,1.7,1,1.7,0.9s-1-1.9-1-1.9L47.6,39.3L47.6,39.3z"/>
			<path class="st12" d="M49.1,37.3c0,0,1.6,0.5,1.5,0.4c0-0.1-1.2-1.3-1.2-1.3L49.1,37.3z"/>
			<path class="st13" d="M40.7,29.8c0,0,1.2,3.5,2.3,4.6s3.3,2.2,3.3,2.2s0.7-0.3,2.1-0.3c0.6,0,1.3,0,1.3,0s-1,1.9-2.2,3.4
				c-0.4,0.5-0.9,0.8-0.9,0.8s-0.7-0.2-1-1s-0.5-1.4-0.5-1.4s-2.3-1.2-4.3-3.3s-2.4-3.7-2.6-4.2S40.7,29.8,40.7,29.8"/>
			<path class="st13" d="M20.4,54.3c0,0-3.2,6.3-7.5,7.6c-4.2,1.3-13-0.2-13-0.2s7.4,3.9,13,2.7c3.5-0.8,5.1-0.8,10.2-6.5
				c0.6-0.6,1.6-1.3,1.6-1.3L20.4,54.3z"/>
			<path class="st14" d="M13.3,64.4c-0.7-0.5-1.5-1.2-2.4-2.2c1-0.1,2-0.2,2.8-0.4c1,0.8,1.8,1.4,2.5,1.8
				C15.1,64,14.2,64.2,13.3,64.4"/>
			<path class="st15" d="M15.7,63.8c-0.9-0.5-1.9-1.2-3.1-2.2c0.3-0.1,0.6-0.2,0.9-0.3c0.7-0.3,1.4-0.7,2-1.1c1.2,0.8,2.4,1.5,3.4,2
				C17.8,63,16.7,63.5,15.7,63.8"/>
			<path class="st14" d="M17.7,57.7c1.3,0.9,3.3,2,4.3,2.6c-1,1-2.5,1.7-3.4,2.2c-1-0.5-2.3-1.4-3.6-2.3
				C16.1,59.5,16.8,58.5,17.7,57.7"/>
			<path class="st15" d="M17.3,57.5c1.1-1.2,2-2.6,2.5-3.4c1.3,1,3.9,1.8,5,2.5c0.5,0.4-1.9,3-3,4C20.7,60,18.7,58.4,17.3,57.5"/>
			<path class="st13" d="M38.3,50.7c-0.9,4.5-1.9,7.4-8.9,7.4c-10.3,0-11.4-6.7-11.4-6.7L38.3,50.7L38.3,50.7z"/>
			<path class="st14" d="M38.7,51.4c0,0-2.9,1.4-11.9,1.4C21.9,52.8,18,52,18,52l-0.8-1.7c0,0,5.1,0.5,11.2-0.1
				c7.1-0.8,10.7-2.1,10.7-2.1L38.7,51.4z"/>
			<path class="st15" d="M39.7,48.3c0,0-2.9,1-11.9,2c-4.9,0.5-10.9,0-10.9,0L16,47.9c0,0,6.4,0.5,12.5-0.4C36,46.2,40,44.6,40,44.6
				L39.7,48.3L39.7,48.3z"/>
			<path class="st14" d="M40.3,44.6c0,0-3.2,1.9-13.2,3.2c-4.9,0.6-11.6,0-11.6,0l-0.7-3.6c0,0,6.5,1.1,13.3-0.3
				c7.8-1.6,12.5-2.9,12.5-2.9L40.3,44.6L40.3,44.6z"/>
			<path class="st12" d="M38.7,61.1c0,0,1.7,0.2,1.6,0.2c-0.1,0-2,0.6-2,0.6L38.7,61.1z"/>
			<path class="st12" d="M38,62.4c0,0,1.9,1,1.8,1c-0.1,0-2.3-0.2-2.3-0.2L38,62.4L38,62.4z"/>
			<path class="st12" d="M37.1,63.8c0,0,1.4,1.1,1.3,1.2c-0.1,0.1-1.9-0.3-1.9-0.3L37.1,63.8z"/>
			<path class="st12" d="M26,62.9c0,0,1.9,0.2,1.8,0.2s-2.3,0.8-2.3,0.8L26,62.9z"/>
			<path class="st12" d="M25.1,64.2c0,0,1.9,1,1.8,1S24.6,65,24.6,65L25.1,64.2z"/>
			<path class="st12" d="M24.2,65.5c0,0,1.2,1.3,1.1,1.4c-0.1,0-1.9-0.6-1.9-0.6L24.2,65.5L24.2,65.5z"/>
			<path class="st13" d="M23.1,21.8L41,27c-0.1,2.6-0.4,9.5-0.4,9.5s-6.7,2.2-12.9,3.9c-7.1,1.9-13.4,0.3-13.4,0.3s0.6-9.1,6.6-16.2
				C21.7,23.5,22.5,22.6,23.1,21.8"/>
			<path class="st13" d="M35.3,53.7v7.9c0,0,3.8-1,3.4-0.2s-2.2,3.4-2.2,3.4s-3.5,0.1-3.3-1.4c0.2-1.4,0.1-7.8,0.1-7.8"/>
			<path class="st15" d="M31.7,10.9c0,0-0.7-4.1-4.3-6.1s-7.8-3.2-7.9-2c0,1.2-0.4,3.1,2.1,6.6s7.9,5.4,7.9,5.4L31.7,10.9L31.7,10.9
				z"/>
			<path class="st15" d="M43,11c0.1-0.4-1.3-3.6,1.6-6.5c2.9-2.9,7.6-5.5,7.4-4c-0.2,1.5-1.3,6.1-2.9,8.2c-1.6,2.1-3.1,3.6-3.1,3.6
				L43,11L43,11z"/>
			<path class="st13" d="M23,53.5v8.9c0,0,3.4-0.2,3.1,0.6c-0.4,0.8-2.6,3.5-2.6,3.5s-2.7-0.8-2.5-2.2c0.2-1.4-0.2-11-0.2-11"/>
			<path class="st12" d="M31,12.1c0,0-1.5-2.9-3.2-3.8c-1.7-1-2.7-0.8-2.7-0.8s1.3,3,2.5,3.9C29.1,12.3,31,12.1,31,12.1"/>
			<path class="st12" d="M43.6,11.5c0,0,0.7-3.1,2-4.6c1.4-1.4,2.3-1.5,2.3-1.5s-0.5,3.3-1.4,4.4C45.4,11.1,43.6,11.5,43.6,11.5"/>
			<path class="st15" d="M53,22.2c-1.8-2.9-5.3-10.4-7.7-11.9C43,8.8,37.3,8.4,34.7,9c-1.7,0.4-5,1.9-6.1,4.5
				c-0.7,1.5-2.9,6.7-4.8,7.8l1.5,1.9l6.5,5.9c0,0,3.1,0,5,1.2c0.5-0.8,3.8,0.4,4,0.1c0.7-1,17.9,7.2,20.2,6.7
				C62.9,36.7,59.5,32.5,53,22.2"/>
			<path class="st16" d="M35.3,15.5c-0.6,1.6,0,3.7,1.9,4.4c1.4,0.5,3.8-0.3,3.8-2.6c0-1.8-0.8-3-2.2-3.5
				C37.4,13.3,35.9,13.9,35.3,15.5"/>
			<path class="st17" d="M38,17.1c-0.1,0.3-0.4,0.4-0.7,0.3S36.9,17,37,16.7s0.4-0.4,0.7-0.3S38.1,16.8,38,17.1"/>
			<path class="st16" d="M47.7,14.8c-0.6,1.2,0,3,1.4,3.7c1,0.5,2.7-0.1,2.9-1.9c0.2-1.4-0.4-2.4-1.5-2.9
				C49.4,13.3,48.2,13.6,47.7,14.8"/>
			<path class="st16" d="M50.9,18.3c0.7-0.5,1-1.2,1-1.7c0.1-1.4-0.4-2.4-1.5-2.9c-0.7-0.4-1.6-0.2-2.1,0.2"/>
			<path class="st18" d="M50.9,18.3c0.7-0.5,1-1.2,1-1.7c0.1-1.4-0.4-2.4-1.5-2.9c-0.7-0.4-1.6-0.2-2.1,0.2"/>
			<path class="st17" d="M50,16.7c-0.1,0.2-0.3,0.3-0.5,0.2s-0.3-0.3-0.2-0.5s0.3-0.3,0.5-0.2C50,16.2,50.1,16.5,50,16.7"/>
			<path class="st12" d="M59.9,32.9c2,2.9,2.8,4.4,0.6,4.3c-0.9-0.1-2.2-0.4-3.9-1C57.6,35,58.8,33.8,59.9,32.9"/>
			<path class="st19" d="M43,20.6c1.7-2.6,0.9-6.4-1.9-7.8c-4.2-2.1-10.9-0.4-10.9-0.4s1.8,7.8,5.3,9.6C38.8,23.7,41.8,22.6,43,20.6
				 M40.4,13.8c2.2,1.4,2.8,4.1,1.6,6.1s-4,2-6.2,0.6c-1.9-1.2-3.5-5.3-3.6-6.7C34.3,13.4,38.7,12.8,40.4,13.8"/>
			<path class="st19" d="M47.5,20.2c2.2,1.5,5.2,0.9,6.6-1.2c1.3-2.1-0.1-8.3-0.1-8.3s-6.8,1-8.1,3.1C44.6,15.8,45.3,18.7,47.5,20.2
				 M53,12.1c0.5,0.9,1.1,4.7,0.1,6.2c-1,1.6-3.2,2-4.9,0.9S46,16,47,14.4C47.7,13.2,50.9,12.4,53,12.1"/>
			<path class="st19" d="M43.1,17.2c0.7,0,2.5,0.1,2.8,0.1l0.1-1.2c-0.4,0-2.6-0.1-2.9-0.1L43.1,17.2L43.1,17.2z"/>
			<path class="st15" d="M41,40.8c0,0-3.4,2.2-14.6,3.6c-5.6,0.7-11.7,0.1-11.7,0.1L14.2,40c0,0,5.8,0.6,12.5-0.3
				c7.6-1,14.2-3.8,14.2-3.8L41,40.8L41,40.8z"/>
			<path class="st16" d="M40.9,30.3c0,0-4.8-0.6-9.5-2.7s-6.6-7.2-6.6-7.2s-2.1,0.3-2.3,1.2C22.3,23,25,23.3,25,23.3s-2,1.1-1.1,2.3
				c1.1,1.5,2.8,0.3,2.8,0.3s-1,1.5,0.4,2.6s2.6-0.5,2.6-0.5s-0.4,2.3,0.7,2.5c1.2,0.1,2.1-1,2.1-1s-0.5,2.2,1,2.4
				c1.5,0.2,1.8-1.5,1.8-1.5s0.4,2.2,1.7,2.2s1.4-1.6,1.4-1.6s1.3,2.7,2.4,1.8C42,31.9,40.9,30.3,40.9,30.3"/>
			<g>
				<g>
					<defs>
						<rect id="SVGID_00000074442882264252040770000014560555631551991194_" x="37" y="25.4" width="4.3" height="2.8"/>
					</defs>
					<clipPath id="SVGID_00000069376934129603345500000001445516112536056200_">
						<use xlink:href="#SVGID_00000074442882264252040770000014560555631551991194_"  style="overflow:visible;"/>
					</clipPath>
					<g style="clip-path:url(#SVGID_00000069376934129603345500000001445516112536056200_);">
						<g>
							<g>
								<defs>
									<rect id="SVGID_00000173864198057329354220000001506644559769639830_" x="37" y="25.4" width="4.3" height="2.8"/>
								</defs>
								<clipPath id="SVGID_00000112604700412958222760000013348494100390237856_">
									<use xlink:href="#SVGID_00000173864198057329354220000001506644559769639830_"  style="overflow:visible;"/>
								</clipPath>
								<g style="clip-path:url(#SVGID_00000112604700412958222760000013348494100390237856_);">
									<g>
										<g>
											<defs>
												<rect id="SVGID_00000146459166057805452140000010669709773642903185_" x="37" y="25.4" width="4.3" height="2.8"/>
											</defs>
											<clipPath id="SVGID_00000183218277520980815520000018193226582237773209_">
												<use xlink:href="#SVGID_00000146459166057805452140000010669709773642903185_"  style="overflow:visible;"/>
											</clipPath>
											<g style="clip-path:url(#SVGID_00000183218277520980815520000018193226582237773209_);">
												<path class="st17" d="M37.7,25.4c0.8-0.2,1.5,1.2,3.5,2c-0.7,0.6-2.2,1.2-3.3,0.4C36.5,26.8,36.8,25.6,37.7,25.4"/>
											</g>
										</g>
									</g>
								</g>
							</g>
						</g>
					</g>
				</g>
			</g>
			<path class="st12" d="M19.5,42.5c0,0-0.6,1.6-0.5,1.6c0.1-0.1,1.6-1.4,1.6-1.4L19.5,42.5L19.5,42.5z"/>
			<path class="st12" d="M21.2,42.6c0,0,0.1,2,0.2,1.9s1-1.9,1-1.9H21.2z"/>
			<path class="st12" d="M23.7,42.7c0,0,0.5,1.5,0.6,1.5c0.1-0.1,0.4-1.7,0.4-1.7L23.7,42.7z"/>
			<path class="st14" d="M25,31.5c-0.8,0.9-2.2,2.9-2.5,4.5s0.1,4,0.1,4s0.6,0.4,1.5,1.5c0.3,0.5,0.7,1.1,0.7,1.1s-2.1,0.3-4.1,0.1
				c-0.7,0-1.2-0.3-1.2-0.3s-0.2-0.7,0.3-1.4c0.4-0.7,0.8-1.3,0.8-1.3s-0.4-2.6,0.2-5.4c0.6-2.8,1.6-4.1,2-4.6
				C24.5,28,26,30.4,25,31.5"/>
		</g>
	</g>
</g>
</svg>
